<?xml version="1.0" encoding="UTF-8" standalone="no"?>
<!DOCTYPE svg PUBLIC "-//W3C//DTD SVG 1.1//EN"
 "http://www.w3.org/Graphics/SVG/1.1/DTD/svg11.dtd">
<!-- Generated by graphviz version 2.38.0 (20140413.2041)
 -->
<!-- Title: include/bit_container.hpp Pages: 1 -->
<svg width="2844pt" height="598pt"
 viewBox="0.00 0.00 2843.50 598.00" xmlns="http://www.w3.org/2000/svg" xmlns:xlink="http://www.w3.org/1999/xlink">
<g id="graph0" class="graph" transform="scale(1 1) rotate(0) translate(4 594)">
<title>include/bit_container.hpp</title>
<polygon fill="white" stroke="none" points="-4,4 -4,-594 2839.5,-594 2839.5,4 -4,4"/>
<!-- Node13 -->
<g id="node1" class="node"><title>Node13</title>
<g id="a_node1"><a xlink:title="bit container">
<polygon fill="#bfbfbf" stroke="black" points="1265.5,-570.5 1265.5,-589.5 1391.5,-589.5 1391.5,-570.5 1265.5,-570.5"/>
<text text-anchor="middle" x="1328.5" y="-577.5" font-family="Helvetica,sans-Serif" font-size="10.00">include/bit_container.hpp</text>
</a>
</g>
</g>
<!-- Node14 -->
<g id="node2" class="node"><title>Node14</title>
<g id="a_node2"><a xlink:href="bit__array_8hpp.html" target="_top" xlink:title="bit array">
<polygon fill="white" stroke="black" points="1233.5,-514.5 1233.5,-533.5 1341.5,-533.5 1341.5,-514.5 1233.5,-514.5"/>
<text text-anchor="middle" x="1287.5" y="-521.5" font-family="Helvetica,sans-Serif" font-size="10.00">include/bit_array.hpp</text>
</a>
</g>
</g>
<!-- Node13&#45;&gt;Node14 -->
<g id="edge1" class="edge"><title>Node13&#45;&gt;Node14</title>
<path fill="none" stroke="midnightblue" d="M1315.48,-561.855C1308.38,-552.505 1299.9,-541.327 1294.14,-533.751"/>
<polygon fill="midnightblue" stroke="midnightblue" points="1312.89,-564.235 1321.73,-570.083 1318.47,-560.002 1312.89,-564.235"/>
</g>
<!-- Node15 -->
<g id="node3" class="node"><title>Node15</title>
<g id="a_node3"><a xlink:href="bit__matrix_8hpp.html" target="_top" xlink:title="bit matrix">
<polygon fill="white" stroke="black" points="1315.5,-453 1315.5,-472 1427.5,-472 1427.5,-453 1315.5,-453"/>
<text text-anchor="middle" x="1371.5" y="-460" font-family="Helvetica,sans-Serif" font-size="10.00">include/bit_matrix.hpp</text>
</a>
</g>
</g>
<!-- Node13&#45;&gt;Node15 -->
<g id="edge56" class="edge"><title>Node13&#45;&gt;Node15</title>
<path fill="none" stroke="midnightblue" d="M1338,-561.294C1342.16,-553.125 1346.9,-543.215 1350.5,-534 1358.95,-512.347 1366,-485.849 1369.37,-472.339"/>
<polygon fill="midnightblue" stroke="midnightblue" points="1334.86,-559.746 1333.33,-570.23 1341.06,-562.989 1334.86,-559.746"/>
</g>
<!-- Node14&#45;&gt;Node15 -->
<g id="edge2" class="edge"><title>Node14&#45;&gt;Node15</title>
<path fill="none" stroke="midnightblue" d="M1307.81,-508.613C1323.97,-497.169 1346.02,-481.546 1359.49,-472.009"/>
<polygon fill="midnightblue" stroke="midnightblue" points="1305.67,-505.839 1299.54,-514.475 1309.72,-511.551 1305.67,-505.839"/>
</g>
<!-- Node16 -->
<g id="node4" class="node"><title>Node16</title>
<g id="a_node4"><a xlink:href="bitmatrix__matrix__operator_8hpp.html" target="_top" xlink:title="bitmatrix matrix operator">
<polygon fill="white" stroke="black" points="1227,-380.5 1227,-410.5 1348,-410.5 1348,-380.5 1227,-380.5"/>
<text text-anchor="start" x="1235" y="-398.5" font-family="Helvetica,sans-Serif" font-size="10.00">include/bitmatrix_matrix</text>
<text text-anchor="middle" x="1287.5" y="-387.5" font-family="Helvetica,sans-Serif" font-size="10.00">_operator.hpp</text>
</a>
</g>
</g>
<!-- Node14&#45;&gt;Node16 -->
<g id="edge51" class="edge"><title>Node14&#45;&gt;Node16</title>
<path fill="none" stroke="midnightblue" d="M1287.5,-504.108C1287.5,-478.629 1287.5,-433.811 1287.5,-410.888"/>
<polygon fill="midnightblue" stroke="midnightblue" points="1284,-504.305 1287.5,-514.305 1291,-504.305 1284,-504.305"/>
</g>
<!-- Node41 -->
<g id="node29" class="node"><title>Node41</title>
<g id="a_node29"><a xlink:href="ga__clustering__operator_8hpp.html" target="_top" xlink:title="genetic operators oriented to clustering">
<polygon fill="white" stroke="black" points="1062.5,-112.5 1062.5,-142.5 1174.5,-142.5 1174.5,-112.5 1062.5,-112.5"/>
<text text-anchor="start" x="1070.5" y="-130.5" font-family="Helvetica,sans-Serif" font-size="10.00">include/ga_clustering</text>
<text text-anchor="middle" x="1118.5" y="-119.5" font-family="Helvetica,sans-Serif" font-size="10.00">_operator.hpp</text>
</a>
</g>
</g>
<!-- Node14&#45;&gt;Node41 -->
<g id="edge55" class="edge"><title>Node14&#45;&gt;Node41</title>
<path fill="none" stroke="midnightblue" d="M1223.25,-515.884C1153.98,-504.228 1053.5,-473.969 1053.5,-396.5 1053.5,-396.5 1053.5,-396.5 1053.5,-260.5 1053.5,-223.306 1055.2,-211.923 1072.5,-179 1079.78,-165.143 1091.79,-152.15 1101.7,-142.814"/>
<polygon fill="midnightblue" stroke="midnightblue" points="1222.8,-519.357 1233.23,-517.473 1223.9,-512.444 1222.8,-519.357"/>
</g>
<!-- Node42 -->
<g id="node30" class="node"><title>Node42</title>
<g id="a_node30"><a xlink:href="clustering__operator__centroids_8hpp.html" target="_top" xlink:title="clustering operator centroids">
<polygon fill="white" stroke="black" points="1165.5,-246.5 1165.5,-276.5 1289.5,-276.5 1289.5,-246.5 1165.5,-246.5"/>
<text text-anchor="start" x="1173.5" y="-264.5" font-family="Helvetica,sans-Serif" font-size="10.00">include/clustering</text>
<text text-anchor="middle" x="1227.5" y="-253.5" font-family="Helvetica,sans-Serif" font-size="10.00">_operator_centroids.hpp</text>
</a>
</g>
</g>
<!-- Node14&#45;&gt;Node42 -->
<g id="edge54" class="edge"><title>Node14&#45;&gt;Node42</title>
<path fill="none" stroke="midnightblue" d="M1270.97,-507.253C1241.87,-478.253 1182.5,-413.024 1160.5,-344 1156.32,-330.873 1154.35,-325.331 1160.5,-313 1168.36,-297.226 1183.76,-285.082 1197.81,-276.66"/>
<polygon fill="midnightblue" stroke="midnightblue" points="1268.72,-509.952 1278.32,-514.445 1273.62,-504.949 1268.72,-509.952"/>
</g>
<!-- Node50 -->
<g id="node38" class="node"><title>Node50</title>
<g id="a_node38"><a xlink:href="chromosome__bitarray_8hpp.html" target="_top" xlink:title="chromosome bitarray">
<polygon fill="white" stroke="black" points="1536,-447.5 1536,-477.5 1647,-477.5 1647,-447.5 1536,-447.5"/>
<text text-anchor="start" x="1544" y="-465.5" font-family="Helvetica,sans-Serif" font-size="10.00">include/chromosome</text>
<text text-anchor="middle" x="1591.5" y="-454.5" font-family="Helvetica,sans-Serif" font-size="10.00">_bitarray.hpp</text>
</a>
</g>
</g>
<!-- Node14&#45;&gt;Node50 -->
<g id="edge52" class="edge"><title>Node14&#45;&gt;Node50</title>
<path fill="none" stroke="midnightblue" d="M1340.91,-512.546C1395.65,-501.833 1480.38,-485.248 1535.9,-474.382"/>
<polygon fill="midnightblue" stroke="midnightblue" points="1340.2,-509.119 1331.06,-514.475 1341.54,-515.989 1340.2,-509.119"/>
</g>
<!-- Node15&#45;&gt;Node16 -->
<g id="edge3" class="edge"><title>Node15&#45;&gt;Node16</title>
<path fill="none" stroke="midnightblue" d="M1352.17,-446.544C1338.19,-435.725 1319.42,-421.203 1305.71,-410.589"/>
<polygon fill="midnightblue" stroke="midnightblue" points="1350.12,-449.382 1360.17,-452.734 1354.4,-443.846 1350.12,-449.382"/>
</g>
<!-- Node38 -->
<g id="node26" class="node"><title>Node38</title>
<g id="a_node26"><a xlink:href="unsupervised__measures_8hpp.html" target="_top" xlink:title="Unsupervised measures.">
<polygon fill="white" stroke="black" points="1366.5,-380.5 1366.5,-410.5 1478.5,-410.5 1478.5,-380.5 1366.5,-380.5"/>
<text text-anchor="start" x="1374.5" y="-398.5" font-family="Helvetica,sans-Serif" font-size="10.00">include/unsupervised</text>
<text text-anchor="middle" x="1422.5" y="-387.5" font-family="Helvetica,sans-Serif" font-size="10.00">_measures.hpp</text>
</a>
</g>
</g>
<!-- Node15&#45;&gt;Node38 -->
<g id="edge25" class="edge"><title>Node15&#45;&gt;Node38</title>
<path fill="none" stroke="midnightblue" d="M1384.7,-444.673C1393,-434.094 1403.59,-420.602 1411.45,-410.589"/>
<polygon fill="midnightblue" stroke="midnightblue" points="1381.8,-442.706 1378.38,-452.734 1387.3,-447.027 1381.8,-442.706"/>
</g>
<!-- Node46 -->
<g id="node34" class="node"><title>Node46</title>
<g id="a_node34"><a xlink:href="crisp__matrix_8hpp.html" target="_top" xlink:title="crisp matrix">
<polygon fill="white" stroke="black" points="1514,-252 1514,-271 1637,-271 1637,-252 1514,-252"/>
<text text-anchor="middle" x="1575.5" y="-259" font-family="Helvetica,sans-Serif" font-size="10.00">include/crisp_matrix.hpp</text>
</a>
</g>
</g>
<!-- Node15&#45;&gt;Node46 -->
<g id="edge43" class="edge"><title>Node15&#45;&gt;Node46</title>
<path fill="none" stroke="midnightblue" d="M1414.81,-449.828C1438.33,-441.835 1466.75,-429.316 1487.5,-411 1534.68,-369.351 1563.67,-296.105 1572.57,-271.127"/>
<polygon fill="midnightblue" stroke="midnightblue" points="1413.5,-446.571 1405.07,-452.979 1415.66,-453.231 1413.5,-446.571"/>
</g>
<!-- Node17 -->
<g id="node5" class="node"><title>Node17</title>
<g id="a_node5"><a xlink:href="clustering__operator__crispmatrix_8hpp.html" target="_top" xlink:title="clustering operator crispmatrix">
<polygon fill="white" stroke="black" points="1288,-179.5 1288,-209.5 1419,-209.5 1419,-179.5 1288,-179.5"/>
<text text-anchor="start" x="1296" y="-197.5" font-family="Helvetica,sans-Serif" font-size="10.00">include/clustering</text>
<text text-anchor="middle" x="1353.5" y="-186.5" font-family="Helvetica,sans-Serif" font-size="10.00">_operator_crispmatrix.hpp</text>
</a>
</g>
</g>
<!-- Node16&#45;&gt;Node17 -->
<g id="edge4" class="edge"><title>Node16&#45;&gt;Node17</title>
<path fill="none" stroke="midnightblue" d="M1296.11,-370.796C1299.14,-362.356 1302.52,-352.772 1305.5,-344 1322.15,-295 1340.67,-236.454 1349.01,-209.882"/>
<polygon fill="midnightblue" stroke="midnightblue" points="1292.75,-369.796 1292.66,-380.39 1299.34,-372.169 1292.75,-369.796"/>
</g>
<!-- Node18 -->
<g id="node6" class="node"><title>Node18</title>
<g id="a_node6"><a xlink:href="leac_8hpp.html" target="_top" xlink:title="LEAC.">
<polygon fill="white" stroke="black" points="1403,-56.5 1403,-75.5 1492,-75.5 1492,-56.5 1403,-56.5"/>
<text text-anchor="middle" x="1447.5" y="-63.5" font-family="Helvetica,sans-Serif" font-size="10.00">include/leac.hpp</text>
</a>
</g>
</g>
<!-- Node17&#45;&gt;Node18 -->
<g id="edge5" class="edge"><title>Node17&#45;&gt;Node18</title>
<path fill="none" stroke="midnightblue" d="M1369.94,-171.37C1390.98,-143.064 1426.42,-95.3661 1440.97,-75.7885"/>
<polygon fill="midnightblue" stroke="midnightblue" points="1367.07,-169.365 1363.92,-179.479 1372.69,-173.54 1367.07,-169.365"/>
</g>
<!-- Node19 -->
<g id="node7" class="node"><title>Node19</title>
<g id="a_node7"><a xlink:href="cbga__fkcentroid_8hpp.html" target="_top" xlink:title="CBGA .">
<polygon fill="white" stroke="black" points="2581.5,-0.5 2581.5,-19.5 2707.5,-19.5 2707.5,-0.5 2581.5,-0.5"/>
<text text-anchor="middle" x="2644.5" y="-7.5" font-family="Helvetica,sans-Serif" font-size="10.00">eac/cbga_fkcentroid.hpp</text>
</a>
</g>
</g>
<!-- Node18&#45;&gt;Node19 -->
<g id="edge6" class="edge"><title>Node18&#45;&gt;Node19</title>
<path fill="none" stroke="midnightblue" d="M1502.33,-64.4447C1665.5,-62.4401 2162.18,-53.7906 2572.5,-20 2575.39,-19.7622 2578.34,-19.4945 2581.32,-19.2041"/>
<polygon fill="midnightblue" stroke="midnightblue" points="1502.02,-60.948 1492.07,-64.5673 1502.11,-67.9475 1502.02,-60.948"/>
</g>
<!-- Node20 -->
<g id="node8" class="node"><title>Node20</title>
<g id="a_node8"><a xlink:href="cga__vklabel_8hpp.html" target="_top" xlink:title="CGA &#160;&#160;.">
<polygon fill="white" stroke="black" points="2725.5,-0.5 2725.5,-19.5 2835.5,-19.5 2835.5,-0.5 2725.5,-0.5"/>
<text text-anchor="middle" x="2780.5" y="-7.5" font-family="Helvetica,sans-Serif" font-size="10.00">eac/cga_vklabel.hpp</text>
</a>
</g>
</g>
<!-- Node18&#45;&gt;Node20 -->
<g id="edge7" class="edge"><title>Node18&#45;&gt;Node20</title>
<path fill="none" stroke="midnightblue" d="M1502.36,-65.0946C1678.87,-64.963 2247.92,-61.1426 2716.5,-20 2719.41,-19.7448 2722.38,-19.4487 2725.38,-19.1225"/>
<polygon fill="midnightblue" stroke="midnightblue" points="1502.28,-61.5946 1492.28,-65.0984 1502.28,-68.5946 1502.28,-61.5946"/>
</g>
<!-- Node21 -->
<g id="node9" class="node"><title>Node21</title>
<g id="a_node9"><a xlink:href="clustering__vksubclusterbinary_8hpp.html" target="_top" xlink:title="CLUSTERING .">
<polygon fill="white" stroke="black" points="125,-0.5 125,-19.5 310,-19.5 310,-0.5 125,-0.5"/>
<text text-anchor="middle" x="217.5" y="-7.5" font-family="Helvetica,sans-Serif" font-size="10.00">eac/clustering_vksubclusterbinary.hpp</text>
</a>
</g>
</g>
<!-- Node18&#45;&gt;Node21 -->
<g id="edge8" class="edge"><title>Node18&#45;&gt;Node21</title>
<path fill="none" stroke="midnightblue" d="M1392.53,-63.7643C1228.91,-59.881 730.813,-46.5714 318.5,-20 315.777,-19.8245 313.013,-19.6373 310.224,-19.4404"/>
<polygon fill="midnightblue" stroke="midnightblue" points="1392.74,-67.2701 1402.82,-64.0065 1392.9,-60.272 1392.74,-67.2701"/>
</g>
<!-- Node22 -->
<g id="node10" class="node"><title>Node22</title>
<g id="a_node10"><a xlink:href="feac__vklabel_8hpp.html" target="_top" xlink:title="EAC, EACI, EACII, EACIII and FEAC &#160;and .">
<polygon fill="white" stroke="black" points="327.5,-0.5 327.5,-19.5 439.5,-19.5 439.5,-0.5 327.5,-0.5"/>
<text text-anchor="middle" x="383.5" y="-7.5" font-family="Helvetica,sans-Serif" font-size="10.00">eac/feac_vklabel.hpp</text>
</a>
</g>
</g>
<!-- Node18&#45;&gt;Node22 -->
<g id="edge9" class="edge"><title>Node18&#45;&gt;Node22</title>
<path fill="none" stroke="midnightblue" d="M1392.19,-64.3038C1240.84,-62.0114 807.281,-52.8483 448.5,-20 445.664,-19.7403 442.762,-19.4455 439.833,-19.125"/>
<polygon fill="midnightblue" stroke="midnightblue" points="1392.54,-67.8093 1402.59,-64.4573 1392.65,-60.8101 1392.54,-67.8093"/>
</g>
<!-- Node23 -->
<g id="node11" class="node"><title>Node23</title>
<g id="a_node11"><a xlink:href="gaclustering__fkcrispmatrix_8hpp.html" target="_top" xlink:title="GA CLUSTERING .">
<polygon fill="white" stroke="black" points="457.5,-0.5 457.5,-19.5 627.5,-19.5 627.5,-0.5 457.5,-0.5"/>
<text text-anchor="middle" x="542.5" y="-7.5" font-family="Helvetica,sans-Serif" font-size="10.00">eac/gaclustering_fkcrispmatrix.hpp</text>
</a>
</g>
</g>
<!-- Node18&#45;&gt;Node23 -->
<g id="edge10" class="edge"><title>Node18&#45;&gt;Node23</title>
<path fill="none" stroke="midnightblue" d="M1392.44,-62.7061C1261.37,-57.0797 920.581,-41.4724 636.5,-20 633.557,-19.7776 630.564,-19.542 627.541,-19.2961"/>
<polygon fill="midnightblue" stroke="midnightblue" points="1392.48,-66.211 1402.62,-63.1412 1392.78,-59.2174 1392.48,-66.211"/>
</g>
<!-- Node24 -->
<g id="node12" class="node"><title>Node24</title>
<g id="a_node12"><a xlink:href="gaclustering__fklabel_8hpp.html" target="_top" xlink:title="GA Clustering .">
<polygon fill="white" stroke="black" points="645.5,-0.5 645.5,-19.5 789.5,-19.5 789.5,-0.5 645.5,-0.5"/>
<text text-anchor="middle" x="717.5" y="-7.5" font-family="Helvetica,sans-Serif" font-size="10.00">eac/gaclustering_fklabel.hpp</text>
</a>
</g>
</g>
<!-- Node18&#45;&gt;Node24 -->
<g id="edge11" class="edge"><title>Node18&#45;&gt;Node24</title>
<path fill="none" stroke="midnightblue" d="M1392.98,-61.985C1281.32,-55.6409 1018.57,-39.8474 798.5,-20 795.682,-19.7458 792.809,-19.4764 789.908,-19.1958"/>
<polygon fill="midnightblue" stroke="midnightblue" points="1392.81,-65.4808 1402.99,-62.5513 1393.21,-58.4919 1392.81,-65.4808"/>
</g>
<!-- Node25 -->
<g id="node13" class="node"><title>Node25</title>
<g id="a_node13"><a xlink:href="gaclustering__vktreebinary_8hpp.html" target="_top" xlink:title="GA Clustering &#160;x.">
<polygon fill="white" stroke="black" points="807.5,-0.5 807.5,-19.5 977.5,-19.5 977.5,-0.5 807.5,-0.5"/>
<text text-anchor="middle" x="892.5" y="-7.5" font-family="Helvetica,sans-Serif" font-size="10.00">eac/gaclustering_vktreebinary.hpp</text>
</a>
</g>
</g>
<!-- Node18&#45;&gt;Node25 -->
<g id="edge12" class="edge"><title>Node18&#45;&gt;Node25</title>
<path fill="none" stroke="midnightblue" d="M1392.36,-59.6348C1295.18,-50.1792 1092.82,-30.4903 977.599,-19.2799"/>
<polygon fill="midnightblue" stroke="midnightblue" points="1392.26,-63.1418 1402.55,-60.6267 1392.94,-56.1747 1392.26,-63.1418"/>
</g>
<!-- Node26 -->
<g id="node14" class="node"><title>Node26</title>
<g id="a_node14"><a xlink:href="gagr__fkcentroid_8hpp.html" target="_top" xlink:title="GAGR .">
<polygon fill="white" stroke="black" points="996,-0.5 996,-19.5 1121,-19.5 1121,-0.5 996,-0.5"/>
<text text-anchor="middle" x="1058.5" y="-7.5" font-family="Helvetica,sans-Serif" font-size="10.00">eac/gagr_fkcentroid.hpp</text>
</a>
</g>
</g>
<!-- Node18&#45;&gt;Node26 -->
<g id="edge13" class="edge"><title>Node18&#45;&gt;Node26</title>
<path fill="none" stroke="midnightblue" d="M1392.67,-57.3881C1320.72,-47.4011 1194.83,-29.9252 1119.81,-19.5108"/>
<polygon fill="midnightblue" stroke="midnightblue" points="1392.49,-60.8972 1402.88,-58.8055 1393.45,-53.9637 1392.49,-60.8972"/>
</g>
<!-- Node27 -->
<g id="node15" class="node"><title>Node27</title>
<g id="a_node15"><a xlink:href="gaprototypes__fkmedoid_8hpp.html" target="_top" xlink:title="GA&#45;Prototypes .">
<polygon fill="white" stroke="black" points="1139,-0.5 1139,-19.5 1300,-19.5 1300,-0.5 1139,-0.5"/>
<text text-anchor="middle" x="1219.5" y="-7.5" font-family="Helvetica,sans-Serif" font-size="10.00">eac/gaprototypes_fkmedoid.hpp</text>
</a>
</g>
</g>
<!-- Node18&#45;&gt;Node27 -->
<g id="edge14" class="edge"><title>Node18&#45;&gt;Node27</title>
<path fill="none" stroke="midnightblue" d="M1401.43,-54.0884C1358.35,-43.8865 1294.91,-28.8612 1255.46,-19.5164"/>
<polygon fill="midnightblue" stroke="midnightblue" points="1400.84,-57.5446 1411.37,-56.4435 1402.45,-50.733 1400.84,-57.5446"/>
</g>
<!-- Node28 -->
<g id="node16" class="node"><title>Node28</title>
<g id="a_node16"><a xlink:href="gas__fkcentroid_8hpp.html" target="_top" xlink:title="GAS .">
<polygon fill="white" stroke="black" points="1318,-0.5 1318,-19.5 1439,-19.5 1439,-0.5 1318,-0.5"/>
<text text-anchor="middle" x="1378.5" y="-7.5" font-family="Helvetica,sans-Serif" font-size="10.00">eac/gas_fkcentroid.hpp</text>
</a>
</g>
</g>
<!-- Node18&#45;&gt;Node28 -->
<g id="edge15" class="edge"><title>Node18&#45;&gt;Node28</title>
<path fill="none" stroke="midnightblue" d="M1428.46,-50.1008C1416.04,-40.3824 1400.26,-28.0269 1389.79,-19.8339"/>
<polygon fill="midnightblue" stroke="midnightblue" points="1426.38,-52.9171 1436.41,-56.324 1430.7,-47.4046 1426.38,-52.9171"/>
</g>
<!-- Node29 -->
<g id="node17" class="node"><title>Node29</title>
<g id="a_node17"><a xlink:href="gca__fkmedoid_8hpp.html" target="_top" xlink:title="GCA .">
<polygon fill="white" stroke="black" points="1457,-0.5 1457,-19.5 1576,-19.5 1576,-0.5 1457,-0.5"/>
<text text-anchor="middle" x="1516.5" y="-7.5" font-family="Helvetica,sans-Serif" font-size="10.00">eac/gca_fkmedoid.hpp</text>
</a>
</g>
</g>
<!-- Node18&#45;&gt;Node29 -->
<g id="edge16" class="edge"><title>Node18&#45;&gt;Node29</title>
<path fill="none" stroke="midnightblue" d="M1466.54,-50.1008C1478.96,-40.3824 1494.74,-28.0269 1505.21,-19.8339"/>
<polygon fill="midnightblue" stroke="midnightblue" points="1464.3,-47.4046 1458.59,-56.324 1468.62,-52.9171 1464.3,-47.4046"/>
</g>
<!-- Node30 -->
<g id="node18" class="node"><title>Node30</title>
<g id="a_node18"><a xlink:href="gcuk__vkcentroid_8hpp.html" target="_top" xlink:title="GCUK .">
<polygon fill="white" stroke="black" points="1594.5,-0.5 1594.5,-19.5 1722.5,-19.5 1722.5,-0.5 1594.5,-0.5"/>
<text text-anchor="middle" x="1658.5" y="-7.5" font-family="Helvetica,sans-Serif" font-size="10.00">eac/gcuk_vkcentroid.hpp</text>
</a>
</g>
</g>
<!-- Node18&#45;&gt;Node30 -->
<g id="edge17" class="edge"><title>Node18&#45;&gt;Node30</title>
<path fill="none" stroke="midnightblue" d="M1490.64,-53.959C1530.49,-43.7598 1588.86,-28.8217 1625.22,-19.5164"/>
<polygon fill="midnightblue" stroke="midnightblue" points="1489.75,-50.5734 1480.93,-56.4435 1491.49,-57.3549 1489.75,-50.5734"/>
</g>
<!-- Node31 -->
<g id="node19" class="node"><title>Node31</title>
<g id="a_node19"><a xlink:href="gga__vklabel_8hpp.html" target="_top" xlink:title="GGA .">
<polygon fill="white" stroke="black" points="1740.5,-0.5 1740.5,-19.5 1850.5,-19.5 1850.5,-0.5 1740.5,-0.5"/>
<text text-anchor="middle" x="1795.5" y="-7.5" font-family="Helvetica,sans-Serif" font-size="10.00">eac/gga_vklabel.hpp</text>
</a>
</g>
</g>
<!-- Node18&#45;&gt;Node31 -->
<g id="edge18" class="edge"><title>Node18&#45;&gt;Node31</title>
<path fill="none" stroke="midnightblue" d="M1502.35,-56.4884C1567.47,-46.3837 1675.43,-29.6319 1740.58,-19.5225"/>
<polygon fill="midnightblue" stroke="midnightblue" points="1501.63,-53.0589 1492.28,-58.051 1502.7,-59.9761 1501.63,-53.0589"/>
</g>
<!-- Node32 -->
<g id="node20" class="node"><title>Node32</title>
<g id="a_node20"><a xlink:href="gka__fklabel_8hpp.html" target="_top" xlink:title="GKA Clustering .">
<polygon fill="white" stroke="black" points="0,-0.5 0,-19.5 107,-19.5 107,-0.5 0,-0.5"/>
<text text-anchor="middle" x="53.5" y="-7.5" font-family="Helvetica,sans-Serif" font-size="10.00">eac/gka_fklabel.hpp</text>
</a>
</g>
</g>
<!-- Node18&#45;&gt;Node32 -->
<g id="edge19" class="edge"><title>Node18&#45;&gt;Node32</title>
<path fill="none" stroke="midnightblue" d="M1392.71,-65.3124C1210.71,-65.8886 609.763,-64.0874 115.5,-20 112.792,-19.7584 110.021,-19.4782 107.226,-19.1692"/>
<polygon fill="midnightblue" stroke="midnightblue" points="1392.85,-68.812 1402.83,-65.2764 1392.82,-61.8121 1392.85,-68.812"/>
</g>
<!-- Node33 -->
<g id="node21" class="node"><title>Node33</title>
<g id="a_node21"><a xlink:href="hka__fkmedoid_8hpp.html" target="_top" xlink:title="HKA .">
<polygon fill="white" stroke="black" points="1869,-0.5 1869,-19.5 1988,-19.5 1988,-0.5 1869,-0.5"/>
<text text-anchor="middle" x="1928.5" y="-7.5" font-family="Helvetica,sans-Serif" font-size="10.00">eac/hka_fkmedoid.hpp</text>
</a>
</g>
</g>
<!-- Node18&#45;&gt;Node33 -->
<g id="edge20" class="edge"><title>Node18&#45;&gt;Node33</title>
<path fill="none" stroke="midnightblue" d="M1502.24,-59.3894C1581.2,-51.2118 1731.64,-35.3192 1859.5,-20 1862.5,-19.6407 1865.57,-19.2658 1868.67,-18.8816"/>
<polygon fill="midnightblue" stroke="midnightblue" points="1501.63,-55.9336 1492.04,-60.4435 1502.35,-62.8964 1501.63,-55.9336"/>
</g>
<!-- Node34 -->
<g id="node22" class="node"><title>Node34</title>
<g id="a_node22"><a xlink:href="igka__fklabel_8hpp.html" target="_top" xlink:title="IGKA &#160;and FGKA .">
<polygon fill="white" stroke="black" points="2006,-0.5 2006,-19.5 2115,-19.5 2115,-0.5 2006,-0.5"/>
<text text-anchor="middle" x="2060.5" y="-7.5" font-family="Helvetica,sans-Serif" font-size="10.00">eac/igka_fklabel.hpp</text>
</a>
</g>
</g>
<!-- Node18&#45;&gt;Node34 -->
<g id="edge21" class="edge"><title>Node18&#45;&gt;Node34</title>
<path fill="none" stroke="midnightblue" d="M1502.21,-61.6201C1601.21,-55.2604 1816.58,-40.3052 1997.5,-20 2000.24,-19.6919 2003.05,-19.3582 2005.89,-19.0068"/>
<polygon fill="midnightblue" stroke="midnightblue" points="1501.9,-58.1326 1492.15,-62.2628 1502.35,-65.1184 1501.9,-58.1326"/>
</g>
<!-- Node35 -->
<g id="node23" class="node"><title>Node35</title>
<g id="a_node23"><a xlink:href="kga__fkcentroid_8hpp.html" target="_top" xlink:title="KGA .">
<polygon fill="white" stroke="black" points="2133,-0.5 2133,-19.5 2254,-19.5 2254,-0.5 2133,-0.5"/>
<text text-anchor="middle" x="2193.5" y="-7.5" font-family="Helvetica,sans-Serif" font-size="10.00">eac/kga_fkcentroid.hpp</text>
</a>
</g>
</g>
<!-- Node18&#45;&gt;Node35 -->
<g id="edge22" class="edge"><title>Node18&#45;&gt;Node35</title>
<path fill="none" stroke="midnightblue" d="M1502.34,-62.5347C1617.68,-57.0898 1893.78,-42.6917 2124.5,-20 2127.27,-19.728 2130.09,-19.4323 2132.94,-19.1192"/>
<polygon fill="midnightblue" stroke="midnightblue" points="1502.16,-59.0389 1492.34,-63.0032 1502.49,-66.0312 1502.16,-59.0389"/>
</g>
<!-- Node36 -->
<g id="node24" class="node"><title>Node36</title>
<g id="a_node24"><a xlink:href="main__gas__clustering_8cpp.html" target="_top" xlink:title="Main program of Evolutionary Algorithms.">
<polygon fill="white" stroke="black" points="2272,-0.5 2272,-19.5 2419,-19.5 2419,-0.5 2272,-0.5"/>
<text text-anchor="middle" x="2345.5" y="-7.5" font-family="Helvetica,sans-Serif" font-size="10.00">eac/main_gas_clustering.cpp</text>
</a>
</g>
</g>
<!-- Node18&#45;&gt;Node36 -->
<g id="edge23" class="edge"><title>Node18&#45;&gt;Node36</title>
<path fill="none" stroke="midnightblue" d="M1502.45,-62.9996C1634.02,-57.9849 1977.48,-43.5652 2263.5,-20 2266.21,-19.7766 2268.97,-19.5367 2271.76,-19.2841"/>
<polygon fill="midnightblue" stroke="midnightblue" points="1502.09,-59.5105 1492.23,-63.3863 1502.35,-66.5055 1502.09,-59.5105"/>
</g>
<!-- Node37 -->
<g id="node25" class="node"><title>Node37</title>
<g id="a_node25"><a xlink:href="tgca__vkcentroid_8hpp.html" target="_top" xlink:title="TGCA .">
<polygon fill="white" stroke="black" points="2437.5,-0.5 2437.5,-19.5 2563.5,-19.5 2563.5,-0.5 2437.5,-0.5"/>
<text text-anchor="middle" x="2500.5" y="-7.5" font-family="Helvetica,sans-Serif" font-size="10.00">eac/tgca_vkcentroid.hpp</text>
</a>
</g>
</g>
<!-- Node18&#45;&gt;Node37 -->
<g id="edge24" class="edge"><title>Node18&#45;&gt;Node37</title>
<path fill="none" stroke="midnightblue" d="M1502.32,-63.9943C1651.36,-60.9339 2076.39,-50.036 2428.5,-20 2431.39,-19.7537 2434.34,-19.4791 2437.31,-19.1831"/>
<polygon fill="midnightblue" stroke="midnightblue" points="1502,-60.5 1492.07,-64.2012 1502.14,-67.4986 1502,-60.5"/>
</g>
<!-- Node38&#45;&gt;Node18 -->
<g id="edge42" class="edge"><title>Node38&#45;&gt;Node18</title>
<path fill="none" stroke="midnightblue" d="M1444.75,-372.901C1452.31,-364.507 1460.17,-354.409 1465.5,-344 1482.49,-310.798 1485.5,-299.797 1485.5,-262.5 1485.5,-262.5 1485.5,-262.5 1485.5,-193.5 1485.5,-147.408 1462.07,-95.7114 1452.01,-75.6255"/>
<polygon fill="midnightblue" stroke="midnightblue" points="1442.01,-370.706 1437.7,-380.383 1447.11,-375.507 1442.01,-370.706"/>
</g>
<!-- Node39 -->
<g id="node27" class="node"><title>Node39</title>
<g id="a_node27"><a xlink:href="nearestcentroids__operator_8hpp.html" target="_top" xlink:title="nearest centroids operator">
<polygon fill="white" stroke="black" points="1170,-313.5 1170,-343.5 1297,-343.5 1297,-313.5 1170,-313.5"/>
<text text-anchor="start" x="1178" y="-331.5" font-family="Helvetica,sans-Serif" font-size="10.00">include/nearestcentroids</text>
<text text-anchor="middle" x="1233.5" y="-320.5" font-family="Helvetica,sans-Serif" font-size="10.00">_operator.hpp</text>
</a>
</g>
</g>
<!-- Node38&#45;&gt;Node39 -->
<g id="edge26" class="edge"><title>Node38&#45;&gt;Node39</title>
<path fill="none" stroke="midnightblue" d="M1371.88,-377.092C1341.37,-366.599 1303.02,-353.408 1274.43,-343.577"/>
<polygon fill="midnightblue" stroke="midnightblue" points="1370.9,-380.453 1381.49,-380.396 1373.17,-373.834 1370.9,-380.453"/>
</g>
<!-- Node45 -->
<g id="node33" class="node"><title>Node45</title>
<g id="a_node33"><a xlink:href="ga__function__objective__sse_8hpp.html" target="_top" xlink:title="function objective SSE">
<polygon fill="white" stroke="black" points="1354,-313.5 1354,-343.5 1457,-343.5 1457,-313.5 1354,-313.5"/>
<text text-anchor="start" x="1362" y="-331.5" font-family="Helvetica,sans-Serif" font-size="10.00">include/ga_function</text>
<text text-anchor="middle" x="1405.5" y="-320.5" font-family="Helvetica,sans-Serif" font-size="10.00">_objective_sse.hpp</text>
</a>
</g>
</g>
<!-- Node38&#45;&gt;Node45 -->
<g id="edge40" class="edge"><title>Node38&#45;&gt;Node45</title>
<path fill="none" stroke="midnightblue" d="M1416.27,-370.697C1413.89,-361.587 1411.25,-351.493 1409.18,-343.577"/>
<polygon fill="midnightblue" stroke="midnightblue" points="1412.89,-371.607 1418.81,-380.396 1419.67,-369.836 1412.89,-371.607"/>
</g>
<!-- Node40 -->
<g id="node28" class="node"><title>Node40</title>
<g id="a_node28"><a xlink:href="chromosome__cbga_8hpp.html" target="_top" xlink:title="chromosome CBGA">
<polygon fill="white" stroke="black" points="1082,-179.5 1082,-209.5 1193,-209.5 1193,-179.5 1082,-179.5"/>
<text text-anchor="start" x="1090" y="-197.5" font-family="Helvetica,sans-Serif" font-size="10.00">include/chromosome</text>
<text text-anchor="middle" x="1137.5" y="-186.5" font-family="Helvetica,sans-Serif" font-size="10.00">_cbga.hpp</text>
</a>
</g>
</g>
<!-- Node39&#45;&gt;Node40 -->
<g id="edge27" class="edge"><title>Node39&#45;&gt;Node40</title>
<path fill="none" stroke="midnightblue" d="M1192.09,-308.289C1178.94,-300.321 1165.5,-289.885 1156.5,-277 1142.27,-256.632 1138.58,-227.111 1137.69,-209.752"/>
<polygon fill="midnightblue" stroke="midnightblue" points="1190.66,-311.505 1201.09,-313.411 1194.13,-305.422 1190.66,-311.505"/>
</g>
<!-- Node39&#45;&gt;Node42 -->
<g id="edge30" class="edge"><title>Node39&#45;&gt;Node42</title>
<path fill="none" stroke="midnightblue" d="M1231.28,-303.403C1230.44,-294.37 1229.52,-284.408 1228.8,-276.577"/>
<polygon fill="midnightblue" stroke="midnightblue" points="1227.79,-303.76 1232.2,-313.396 1234.76,-303.117 1227.79,-303.76"/>
</g>
<!-- Node40&#45;&gt;Node41 -->
<g id="edge28" class="edge"><title>Node40&#45;&gt;Node41</title>
<path fill="none" stroke="midnightblue" d="M1130.54,-169.697C1127.88,-160.587 1124.93,-150.493 1122.61,-142.577"/>
<polygon fill="midnightblue" stroke="midnightblue" points="1127.21,-170.78 1133.38,-179.396 1133.93,-168.816 1127.21,-170.78"/>
</g>
<!-- Node41&#45;&gt;Node18 -->
<g id="edge29" class="edge"><title>Node41&#45;&gt;Node18</title>
<path fill="none" stroke="midnightblue" d="M1184.81,-114.508C1249.69,-102.774 1346.72,-85.2269 1402.9,-75.0662"/>
<polygon fill="midnightblue" stroke="midnightblue" points="1183.9,-111.115 1174.68,-116.339 1185.15,-118.004 1183.9,-111.115"/>
</g>
<!-- Node42&#45;&gt;Node17 -->
<g id="edge34" class="edge"><title>Node42&#45;&gt;Node17</title>
<path fill="none" stroke="midnightblue" d="M1263.92,-241.714C1283.79,-231.463 1307.98,-218.983 1326.21,-209.577"/>
<polygon fill="midnightblue" stroke="midnightblue" points="1262.12,-238.701 1254.84,-246.396 1265.33,-244.922 1262.12,-238.701"/>
</g>
<!-- Node42&#45;&gt;Node18 -->
<g id="edge39" class="edge"><title>Node42&#45;&gt;Node18</title>
<path fill="none" stroke="midnightblue" d="M1222.69,-236.034C1217.82,-203.421 1214.8,-145.891 1245.5,-112 1266.19,-89.1678 1349.81,-76.7314 1402.77,-71.009"/>
<polygon fill="midnightblue" stroke="midnightblue" points="1219.27,-236.783 1224.37,-246.068 1226.17,-235.628 1219.27,-236.783"/>
</g>
<!-- Node42&#45;&gt;Node40 -->
<g id="edge31" class="edge"><title>Node42&#45;&gt;Node40</title>
<path fill="none" stroke="midnightblue" d="M1199.74,-240.451C1185.89,-230.452 1169.48,-218.6 1156.99,-209.577"/>
<polygon fill="midnightblue" stroke="midnightblue" points="1197.82,-243.378 1207.97,-246.396 1201.91,-237.704 1197.82,-243.378"/>
</g>
<!-- Node43 -->
<g id="node31" class="node"><title>Node43</title>
<g id="a_node31"><a xlink:href="chromosome__igka_8hpp.html" target="_top" xlink:title="chromosome IGKA &#160;and">
<polygon fill="white" stroke="black" points="1255,-112.5 1255,-142.5 1366,-142.5 1366,-112.5 1255,-112.5"/>
<text text-anchor="start" x="1263" y="-130.5" font-family="Helvetica,sans-Serif" font-size="10.00">include/chromosome</text>
<text text-anchor="middle" x="1310.5" y="-119.5" font-family="Helvetica,sans-Serif" font-size="10.00">_igka.hpp</text>
</a>
</g>
</g>
<!-- Node42&#45;&gt;Node43 -->
<g id="edge32" class="edge"><title>Node42&#45;&gt;Node43</title>
<path fill="none" stroke="midnightblue" d="M1241.84,-237.504C1252.04,-221.166 1266.08,-198.718 1278.5,-179 1286.24,-166.704 1295.09,-152.753 1301.51,-142.636"/>
<polygon fill="midnightblue" stroke="midnightblue" points="1238.65,-236.014 1236.32,-246.35 1244.58,-239.72 1238.65,-236.014"/>
</g>
<!-- Node44 -->
<g id="node32" class="node"><title>Node44</title>
<g id="a_node32"><a xlink:href="ga__integer__operator_8hpp.html" target="_top" xlink:title="genetic integer operators">
<polygon fill="white" stroke="black" points="925.5,-179.5 925.5,-209.5 1025.5,-209.5 1025.5,-179.5 925.5,-179.5"/>
<text text-anchor="start" x="933.5" y="-197.5" font-family="Helvetica,sans-Serif" font-size="10.00">include/ga_integer</text>
<text text-anchor="middle" x="975.5" y="-186.5" font-family="Helvetica,sans-Serif" font-size="10.00">_operator.hpp</text>
</a>
</g>
</g>
<!-- Node42&#45;&gt;Node44 -->
<g id="edge35" class="edge"><title>Node42&#45;&gt;Node44</title>
<path fill="none" stroke="midnightblue" d="M1163.4,-243.966C1120.73,-232.959 1065.45,-218.701 1025.92,-208.504"/>
<polygon fill="midnightblue" stroke="midnightblue" points="1162.57,-247.367 1173.13,-246.476 1164.32,-240.589 1162.57,-247.367"/>
</g>
<!-- Node43&#45;&gt;Node18 -->
<g id="edge33" class="edge"><title>Node43&#45;&gt;Node18</title>
<path fill="none" stroke="midnightblue" d="M1352.24,-108.372C1377.25,-97.5105 1407.9,-84.1972 1427.57,-75.6578"/>
<polygon fill="midnightblue" stroke="midnightblue" points="1350.75,-105.205 1342.97,-112.399 1353.53,-111.626 1350.75,-105.205"/>
</g>
<!-- Node44&#45;&gt;Node18 -->
<g id="edge37" class="edge"><title>Node44&#45;&gt;Node18</title>
<path fill="none" stroke="midnightblue" d="M990.05,-171.189C1003.89,-151.998 1026.57,-125.36 1053.5,-112 1113.94,-82.0146 1312.79,-71.5662 1402.68,-68.3156"/>
<polygon fill="midnightblue" stroke="midnightblue" points="987.169,-169.201 984.328,-179.408 992.914,-173.201 987.169,-169.201"/>
</g>
<!-- Node44&#45;&gt;Node32 -->
<g id="edge38" class="edge"><title>Node44&#45;&gt;Node32</title>
<path fill="none" stroke="midnightblue" d="M915.323,-181.589C742.284,-147.337 246.216,-49.146 96.6781,-19.5466"/>
<polygon fill="midnightblue" stroke="midnightblue" points="914.785,-185.05 925.275,-183.558 916.144,-178.183 914.785,-185.05"/>
</g>
<!-- Node44&#45;&gt;Node41 -->
<g id="edge36" class="edge"><title>Node44&#45;&gt;Node41</title>
<path fill="none" stroke="midnightblue" d="M1015.91,-175.131C1038.63,-164.802 1066.56,-152.11 1087.53,-142.577"/>
<polygon fill="midnightblue" stroke="midnightblue" points="1014.18,-172.072 1006.53,-179.396 1017.08,-178.444 1014.18,-172.072"/>
</g>
<!-- Node45&#45;&gt;Node18 -->
<g id="edge41" class="edge"><title>Node45&#45;&gt;Node18</title>
<path fill="none" stroke="midnightblue" d="M1410.32,-303.566C1415.01,-279.862 1422.19,-242.504 1427.5,-210 1435.79,-159.284 1443.63,-98.0939 1446.42,-75.7264"/>
<polygon fill="midnightblue" stroke="midnightblue" points="1406.87,-302.938 1408.35,-313.429 1413.74,-304.305 1406.87,-302.938"/>
</g>
<!-- Node46&#45;&gt;Node17 -->
<g id="edge46" class="edge"><title>Node46&#45;&gt;Node17</title>
<path fill="none" stroke="midnightblue" d="M1536.42,-249.058C1498.78,-238.037 1441.77,-221.344 1401.41,-209.528"/>
<polygon fill="midnightblue" stroke="midnightblue" points="1535.44,-252.417 1546.02,-251.869 1537.41,-245.699 1535.44,-252.417"/>
</g>
<!-- Node47 -->
<g id="node35" class="node"><title>Node47</title>
<g id="a_node35"><a xlink:href="chromosome__crispmatrix_8hpp.html" target="_top" xlink:title="chromosome crispmatrix">
<polygon fill="white" stroke="black" points="1514,-112.5 1514,-142.5 1625,-142.5 1625,-112.5 1514,-112.5"/>
<text text-anchor="start" x="1522" y="-130.5" font-family="Helvetica,sans-Serif" font-size="10.00">include/chromosome</text>
<text text-anchor="middle" x="1569.5" y="-119.5" font-family="Helvetica,sans-Serif" font-size="10.00">_crispmatrix.hpp</text>
</a>
</g>
</g>
<!-- Node46&#45;&gt;Node47 -->
<g id="edge44" class="edge"><title>Node46&#45;&gt;Node47</title>
<path fill="none" stroke="midnightblue" d="M1574.64,-241.531C1573.42,-214.812 1571.24,-166.691 1570.15,-142.783"/>
<polygon fill="midnightblue" stroke="midnightblue" points="1571.16,-242.008 1575.11,-251.839 1578.15,-241.69 1571.16,-242.008"/>
</g>
<!-- Node48 -->
<g id="node36" class="node"><title>Node48</title>
<g id="a_node36"><a xlink:href="ga__binary__operator_8hpp.html" target="_top" xlink:title="traditional genetic binary operators">
<polygon fill="white" stroke="black" points="1636,-185 1636,-204 1793,-204 1793,-185 1636,-185"/>
<text text-anchor="middle" x="1714.5" y="-192" font-family="Helvetica,sans-Serif" font-size="10.00">include/ga_binary_operator.hpp</text>
</a>
</g>
</g>
<!-- Node46&#45;&gt;Node48 -->
<g id="edge47" class="edge"><title>Node46&#45;&gt;Node48</title>
<path fill="none" stroke="midnightblue" d="M1603.06,-247.613C1630.59,-234.739 1672.15,-215.306 1695.97,-204.167"/>
<polygon fill="midnightblue" stroke="midnightblue" points="1601.53,-244.462 1593.96,-251.869 1604.5,-250.803 1601.53,-244.462"/>
</g>
<!-- Node49 -->
<g id="node37" class="node"><title>Node49</title>
<g id="a_node37"><a xlink:href="partition__crispmatrix_8hpp.html" target="_top" xlink:title="Partition based on crispmatrix.">
<polygon fill="white" stroke="black" points="1642.5,-118 1642.5,-137 1800.5,-137 1800.5,-118 1642.5,-118"/>
<text text-anchor="middle" x="1721.5" y="-125" font-family="Helvetica,sans-Serif" font-size="10.00">include/partition_crispmatrix.hpp</text>
</a>
</g>
</g>
<!-- Node46&#45;&gt;Node49 -->
<g id="edge49" class="edge"><title>Node46&#45;&gt;Node49</title>
<path fill="none" stroke="midnightblue" d="M1583.31,-242.561C1591.83,-224.661 1606.9,-197.263 1626.5,-179 1647.27,-159.645 1676.87,-145.471 1697.49,-137.149"/>
<polygon fill="midnightblue" stroke="midnightblue" points="1580.04,-241.311 1579.07,-251.862 1586.41,-244.216 1580.04,-241.311"/>
</g>
<!-- Node47&#45;&gt;Node18 -->
<g id="edge45" class="edge"><title>Node47&#45;&gt;Node18</title>
<path fill="none" stroke="midnightblue" d="M1531.44,-107.94C1509.34,-97.1595 1482.53,-84.0843 1465.25,-75.6578"/>
<polygon fill="midnightblue" stroke="midnightblue" points="1530.07,-111.162 1540.59,-112.399 1533.13,-104.87 1530.07,-111.162"/>
</g>
<!-- Node48&#45;&gt;Node18 -->
<g id="edge48" class="edge"><title>Node48&#45;&gt;Node18</title>
<path fill="none" stroke="midnightblue" d="M1748.44,-181.171C1784.68,-166.196 1833.8,-139.508 1809.5,-112 1788.8,-88.5649 1584.58,-74.5059 1492.33,-69.3043"/>
<polygon fill="midnightblue" stroke="midnightblue" points="1747.09,-177.942 1739.1,-184.897 1749.68,-184.444 1747.09,-177.942"/>
</g>
<!-- Node49&#45;&gt;Node18 -->
<g id="edge50" class="edge"><title>Node49&#45;&gt;Node18</title>
<path fill="none" stroke="midnightblue" d="M1672.37,-115.83C1619.23,-104.292 1535.58,-86.1277 1486.68,-75.5091"/>
<polygon fill="midnightblue" stroke="midnightblue" points="1671.73,-119.273 1682.24,-117.975 1673.21,-112.433 1671.73,-119.273"/>
</g>
<!-- Node50&#45;&gt;Node48 -->
<g id="edge53" class="edge"><title>Node50&#45;&gt;Node48</title>
<path fill="none" stroke="midnightblue" d="M1602.37,-437.985C1628.49,-381.51 1693.82,-240.233 1710.55,-204.049"/>
<polygon fill="midnightblue" stroke="midnightblue" points="1599.13,-436.653 1598.11,-447.199 1605.49,-439.591 1599.13,-436.653"/>
</g>
</g>
</svg>
