<?xml version="1.0" encoding="UTF-8" standalone="no"?>
<!DOCTYPE svg PUBLIC "-//W3C//DTD SVG 1.1//EN"
 "http://www.w3.org/Graphics/SVG/1.1/DTD/svg11.dtd">
<!-- Generated by graphviz version 2.38.0 (20140413.2041)
 -->
<!-- Title: include/chromosome_base.hpp Pages: 1 -->
<svg width="278pt" height="151pt"
 viewBox="0.00 0.00 278.00 151.00" xmlns="http://www.w3.org/2000/svg" xmlns:xlink="http://www.w3.org/1999/xlink">
<g id="graph0" class="graph" transform="scale(1 1) rotate(0) translate(4 147)">
<title>include/chromosome_base.hpp</title>
<polygon fill="white" stroke="none" points="-4,4 -4,-147 274,-147 274,4 -4,4"/>
<!-- Node0 -->
<g id="node1" class="node"><title>Node0</title>
<g id="a_node1"><a xlink:title="chromosome base">
<polygon fill="#bfbfbf" stroke="black" points="55.5,-112.5 55.5,-142.5 166.5,-142.5 166.5,-112.5 55.5,-112.5"/>
<text text-anchor="start" x="63.5" y="-130.5" font-family="Helvetica,sans-Serif" font-size="10.00">include/chromosome</text>
<text text-anchor="middle" x="111" y="-119.5" font-family="Helvetica,sans-Serif" font-size="10.00">_base.hpp</text>
</a>
</g>
</g>
<!-- Node1 -->
<g id="node2" class="node"><title>Node1</title>
<g id="a_node2"><a xlink:title=" ">
<polygon fill="white" stroke="#bfbfbf" points="-3.55271e-15,-56.5 -3.55271e-15,-75.5 56,-75.5 56,-56.5 -3.55271e-15,-56.5"/>
<text text-anchor="middle" x="28" y="-63.5" font-family="Helvetica,sans-Serif" font-size="10.00">iostream</text>
</a>
</g>
</g>
<!-- Node0&#45;&gt;Node1 -->
<g id="edge1" class="edge"><title>Node0&#45;&gt;Node1</title>
<path fill="none" stroke="midnightblue" d="M91.3302,-112.399C78.3989,-103.129 61.5145,-91.0254 48.4318,-81.6469"/>
<polygon fill="midnightblue" stroke="midnightblue" points="50.2439,-78.6395 40.0772,-75.6578 46.1654,-84.3287 50.2439,-78.6395"/>
</g>
<!-- Node2 -->
<g id="node3" class="node"><title>Node2</title>
<g id="a_node3"><a xlink:href="common_8hpp.html" target="_top" xlink:title="common">
<polygon fill="white" stroke="black" points="74,-56.5 74,-75.5 148,-75.5 148,-56.5 74,-56.5"/>
<text text-anchor="middle" x="111" y="-63.5" font-family="Helvetica,sans-Serif" font-size="10.00">common.hpp</text>
</a>
</g>
</g>
<!-- Node0&#45;&gt;Node2 -->
<g id="edge2" class="edge"><title>Node0&#45;&gt;Node2</title>
<path fill="none" stroke="midnightblue" d="M111,-112.399C111,-104.466 111,-94.458 111,-85.8583"/>
<polygon fill="midnightblue" stroke="midnightblue" points="114.5,-85.6577 111,-75.6578 107.5,-85.6578 114.5,-85.6577"/>
</g>
<!-- Node5 -->
<g id="node6" class="node"><title>Node5</title>
<g id="a_node6"><a xlink:href="verbose__global_8hpp.html" target="_top" xlink:title="verbose global">
<polygon fill="white" stroke="black" points="166,-56.5 166,-75.5 270,-75.5 270,-56.5 166,-56.5"/>
<text text-anchor="middle" x="218" y="-63.5" font-family="Helvetica,sans-Serif" font-size="10.00">verbose_global.hpp</text>
</a>
</g>
</g>
<!-- Node0&#45;&gt;Node5 -->
<g id="edge5" class="edge"><title>Node0&#45;&gt;Node5</title>
<path fill="none" stroke="midnightblue" d="M136.358,-112.399C153.669,-102.773 176.476,-90.0902 193.584,-80.5772"/>
<polygon fill="midnightblue" stroke="midnightblue" points="195.392,-83.5766 202.431,-75.6578 191.99,-77.4588 195.392,-83.5766"/>
</g>
<!-- Node3 -->
<g id="node4" class="node"><title>Node3</title>
<g id="a_node4"><a xlink:title=" ">
<polygon fill="white" stroke="#bfbfbf" points="56.5,-0.5 56.5,-19.5 103.5,-19.5 103.5,-0.5 56.5,-0.5"/>
<text text-anchor="middle" x="80" y="-7.5" font-family="Helvetica,sans-Serif" font-size="10.00">stdint.h</text>
</a>
</g>
</g>
<!-- Node2&#45;&gt;Node3 -->
<g id="edge3" class="edge"><title>Node2&#45;&gt;Node3</title>
<path fill="none" stroke="midnightblue" d="M105.881,-56.083C101.592,-48.6127 95.3418,-37.7244 90.0577,-28.5199"/>
<polygon fill="midnightblue" stroke="midnightblue" points="93.0379,-26.6811 85.0238,-19.7511 86.9671,-30.1662 93.0379,-26.6811"/>
</g>
<!-- Node4 -->
<g id="node5" class="node"><title>Node4</title>
<g id="a_node5"><a xlink:title=" ">
<polygon fill="white" stroke="#bfbfbf" points="121.5,-0.5 121.5,-19.5 160.5,-19.5 160.5,-0.5 121.5,-0.5"/>
<text text-anchor="middle" x="141" y="-7.5" font-family="Helvetica,sans-Serif" font-size="10.00">limits</text>
</a>
</g>
</g>
<!-- Node2&#45;&gt;Node4 -->
<g id="edge4" class="edge"><title>Node2&#45;&gt;Node4</title>
<path fill="none" stroke="midnightblue" d="M115.954,-56.083C120.104,-48.6127 126.153,-37.7244 131.267,-28.5199"/>
<polygon fill="midnightblue" stroke="midnightblue" points="134.341,-30.1924 136.138,-19.7511 128.222,-26.7929 134.341,-30.1924"/>
</g>
</g>
</svg>
