<?xml version="1.0" encoding="UTF-8" standalone="no"?>
<!DOCTYPE svg PUBLIC "-//W3C//DTD SVG 1.1//EN"
 "http://www.w3.org/Graphics/SVG/1.1/DTD/svg11.dtd">
<!-- Generated by graphviz version 2.38.0 (20140413.2041)
 -->
<!-- Title: include/chromosome_cbga.hpp Pages: 1 -->
<!--zoomable 610 -->
<svg id="main" version="1.1" xmlns="http://www.w3.org/2000/svg" xmlns:xlink="http://www.w3.org/1999/xlink" xml:space="preserve" onload="init(evt)">
<style type="text/css"><![CDATA[
.edge:hover path { stroke: red; }
.edge:hover polygon { stroke: red; fill: red; }
]]></style>
<script type="text/javascript"><![CDATA[
var edges = document.getElementsByTagName('g');
if (edges && edges.length) {
  for (var i=0;i<edges.length;i++) {
    if (edges[i].id.substr(0,4)=='edge') {
      edges[i].setAttribute('class','edge');
    }
  }
}
]]></script>
        <defs>
                <circle id="rim" cx="0" cy="0" r="7"/>
                <circle id="rim2" cx="0" cy="0" r="3.5"/>
                <g id="zoomPlus">
                        <use xlink:href="#rim" fill="#404040">
                                <set attributeName="fill" to="#808080" begin="zoomplus.mouseover" end="zoomplus.mouseout"/>
                        </use>
                        <path d="M-4,0h8M0,-4v8" fill="none" stroke="white" stroke-width="1.5" pointer-events="none"/>
                </g>
                <g id="zoomMin">
                        <use xlink:href="#rim" fill="#404040">
                                <set attributeName="fill" to="#808080" begin="zoomminus.mouseover" end="zoomminus.mouseout"/>
                        </use>
                        <path d="M-4,0h8" fill="none" stroke="white" stroke-width="1.5" pointer-events="none"/>
                </g>
                <g id="dirArrow">
                        <path fill="none" stroke="white" stroke-width="1.5" d="M0,-3.0v7 M-2.5,-0.5L0,-3.0L2.5,-0.5"/>
                </g>
               <g id="resetDef">
                       <use xlink:href="#rim2" fill="#404040">
                               <set attributeName="fill" to="#808080" begin="reset.mouseover" end="reset.mouseout"/>
                       </use>
               </g>
        </defs>

<script type="text/javascript">
var viewWidth = 3727;
var viewHeight = 610;
var sectionId = 'dynsection-0';
</script>
<script xlink:href="svgpan.js"/>
<svg id="graph" class="graph">
<g id="viewport">
<title>include/chromosome_cbga.hpp</title>
<polygon fill="white" stroke="none" points="-4,4 -4,-606 3723.24,-606 3723.24,4 -4,4"/>
<!-- Node0 -->
<g id="node1" class="node"><title>Node0</title>
<polygon fill="#bfbfbf" stroke="black" points="800.739,-571.5 800.739,-601.5 911.739,-601.5 911.739,-571.5 800.739,-571.5"/>
<text text-anchor="start" x="808.739" y="-589.5" font-family="Helvetica,sans-Serif" font-size="10.00">include/chromosome</text>
<text text-anchor="middle" x="856.239" y="-578.5" font-family="Helvetica,sans-Serif" font-size="10.00">_cbga.hpp</text>
</g>
<!-- Node1 -->
<g id="node2" class="node"><title>Node1</title>
<polygon fill="white" stroke="#bfbfbf" points="2873.24,-56.5 2873.24,-75.5 2917.24,-75.5 2917.24,-56.5 2873.24,-56.5"/>
<text text-anchor="middle" x="2895.24" y="-63.5" font-family="Helvetica,sans-Serif" font-size="10.00">vector</text>
</g>
<!-- Node0&#45;&gt;Node1 -->
<g id="edge1" class="edge"><title>Node0&#45;&gt;Node1</title>
<path fill="none" stroke="midnightblue" d="M911.757,-585.448C1276.51,-584.648 3321.77,-572.97 3541.24,-412 3649.8,-332.373 3624.65,-160.969 3499.24,-112 3383.29,-66.728 3067.84,-96.3868 2927.64,-75.7304"/>
<polygon fill="midnightblue" stroke="midnightblue" points="2927.88,-72.2239 2917.45,-74.0831 2926.77,-79.1342 2927.88,-72.2239"/>
</g>
<!-- Node2 -->
<g id="node3" class="node"><title>Node2</title>
<polygon fill="white" stroke="#bfbfbf" points="2647.24,-0.5 2647.24,-19.5 2705.24,-19.5 2705.24,-0.5 2647.24,-0.5"/>
<text text-anchor="middle" x="2676.24" y="-7.5" font-family="Helvetica,sans-Serif" font-size="10.00">algorithm</text>
</g>
<!-- Node0&#45;&gt;Node2 -->
<g id="edge2" class="edge"><title>Node0&#45;&gt;Node2</title>
<path fill="none" stroke="midnightblue" d="M912.12,-585.677C1154.84,-586.126 2141.74,-584.632 2950.24,-535 3121.64,-524.478 3719.24,-630.721 3719.24,-459 3719.24,-459 3719.24,-459 3719.24,-121 3719.24,-18.0787 2905.65,-11.153 2715.6,-10.9392"/>
<polygon fill="midnightblue" stroke="midnightblue" points="2715.5,-7.43922 2705.5,-10.9336 2715.5,-14.4392 2715.5,-7.43922"/>
</g>
<!-- Node3 -->
<g id="node4" class="node"><title>Node3</title>
<polygon fill="white" stroke="#bfbfbf" points="1408.24,-56.5 1408.24,-75.5 1468.24,-75.5 1468.24,-56.5 1408.24,-56.5"/>
<text text-anchor="middle" x="1438.24" y="-63.5" font-family="Helvetica,sans-Serif" font-size="10.00">stdexcept</text>
</g>
<!-- Node0&#45;&gt;Node3 -->
<g id="edge3" class="edge"><title>Node0&#45;&gt;Node3</title>
<path fill="none" stroke="midnightblue" d="M800.603,-584.733C623.243,-581.148 86.7832,-560.95 156.239,-448 185.131,-401.016 547.442,-242.955 599.239,-224 801.305,-150.056 858.452,-150.007 1070.24,-112 1188.41,-90.7942 1329.74,-76.6009 1397.75,-70.4587"/>
<polygon fill="midnightblue" stroke="midnightblue" points="1398.37,-73.9173 1408.02,-69.5422 1397.75,-66.945 1398.37,-73.9173"/>
</g>
<!-- Node4 -->
<g id="node5" class="node"><title>Node4</title>
<g id="a_node5"><a xlink:href="partition__linked__stats_8hpp.html" target="_top" xlink:title="Linked partition data structure with statistics. ">
<polygon fill="white" stroke="black" points="875.239,-336.5 875.239,-355.5 1003.24,-355.5 1003.24,-336.5 875.239,-336.5"/>
<text text-anchor="middle" x="939.239" y="-343.5" font-family="Helvetica,sans-Serif" font-size="10.00">partition_linked_stats.hpp</text>
</a>
</g>
</g>
<!-- Node0&#45;&gt;Node4 -->
<g id="edge4" class="edge"><title>Node0&#45;&gt;Node4</title>
<path fill="none" stroke="midnightblue" d="M861.183,-571.295C875.463,-530.26 916.775,-411.551 932.789,-365.534"/>
<polygon fill="midnightblue" stroke="midnightblue" points="936.145,-366.54 936.126,-355.946 929.534,-364.24 936.145,-366.54"/>
</g>
<!-- Node8 -->
<g id="node9" class="node"><title>Node8</title>
<g id="a_node9"><a xlink:href="instance_8hpp.html" target="_top" xlink:title="Module for the handling of instances or also called objects or points. ">
<polygon fill="white" stroke="black" points="38.2394,-168.5 38.2394,-187.5 110.239,-187.5 110.239,-168.5 38.2394,-168.5"/>
<text text-anchor="middle" x="74.2394" y="-175.5" font-family="Helvetica,sans-Serif" font-size="10.00">instance.hpp</text>
</a>
</g>
</g>
<!-- Node0&#45;&gt;Node8 -->
<g id="edge175" class="edge"><title>Node0&#45;&gt;Node8</title>
<path fill="none" stroke="midnightblue" d="M800.664,-585.491C631.231,-584.977 129.242,-579.664 72.2394,-535 44.3569,-513.153 48.2394,-494.422 48.2394,-459 48.2394,-459 48.2394,-459 48.2394,-289 48.2394,-255.929 59.507,-218.729 67.2071,-197.168"/>
<polygon fill="midnightblue" stroke="midnightblue" points="70.5323,-198.268 70.7329,-187.675 63.9703,-195.831 70.5323,-198.268"/>
</g>
<!-- Node19 -->
<g id="node17" class="node"><title>Node19</title>
<g id="a_node17"><a xlink:href="verbose__global_8hpp.html" target="_top" xlink:title="verbose global ">
<polygon fill="white" stroke="black" points="523.239,-56.5 523.239,-75.5 627.239,-75.5 627.239,-56.5 523.239,-56.5"/>
<text text-anchor="middle" x="575.239" y="-63.5" font-family="Helvetica,sans-Serif" font-size="10.00">verbose_global.hpp</text>
</a>
</g>
</g>
<!-- Node0&#45;&gt;Node19 -->
<g id="edge176" class="edge"><title>Node0&#45;&gt;Node19</title>
<path fill="none" stroke="midnightblue" d="M800.533,-584.893C639.037,-582.687 178.563,-573.088 123.239,-535 24.8028,-467.23 10.2394,-410.509 10.2394,-291 10.2394,-291 10.2394,-291 10.2394,-233 10.2394,-202.902 8.10773,-189.432 29.2394,-168 96.0431,-100.247 384.478,-76.9282 513.018,-69.8031"/>
<polygon fill="midnightblue" stroke="midnightblue" points="513.305,-73.2928 523.102,-69.2593 512.928,-66.303 513.305,-73.2928"/>
</g>
<!-- Node39 -->
<g id="node32" class="node"><title>Node39</title>
<g id="a_node32"><a xlink:href="nearestcentroids__operator_8hpp.html" target="_top" xlink:title="nearest centroids operator ">
<polygon fill="white" stroke="black" points="3075.24,-448.5 3075.24,-467.5 3227.24,-467.5 3227.24,-448.5 3075.24,-448.5"/>
<text text-anchor="middle" x="3151.24" y="-455.5" font-family="Helvetica,sans-Serif" font-size="10.00">nearestcentroids_operator.hpp</text>
</a>
</g>
</g>
<!-- Node0&#45;&gt;Node39 -->
<g id="edge78" class="edge"><title>Node0&#45;&gt;Node39</title>
<path fill="none" stroke="midnightblue" d="M912.104,-583.479C1162.49,-574.221 2206.46,-533.478 3061.24,-468 3062.52,-467.902 3063.8,-467.801 3065.1,-467.698"/>
<polygon fill="midnightblue" stroke="midnightblue" points="3065.48,-471.179 3075.15,-466.859 3064.9,-464.203 3065.48,-471.179"/>
</g>
<!-- Node62 -->
<g id="node42" class="node"><title>Node62</title>
<g id="a_node42"><a xlink:href="clustering__operator__centroids_8hpp.html" target="_top" xlink:title="clustering operator centroids ">
<polygon fill="white" stroke="black" points="1177.24,-504.5 1177.24,-534.5 1279.24,-534.5 1279.24,-504.5 1177.24,-504.5"/>
<text text-anchor="start" x="1185.24" y="-522.5" font-family="Helvetica,sans-Serif" font-size="10.00">clustering_operator</text>
<text text-anchor="middle" x="1228.24" y="-511.5" font-family="Helvetica,sans-Serif" font-size="10.00">_centroids.hpp</text>
</a>
</g>
</g>
<!-- Node0&#45;&gt;Node62 -->
<g id="edge134" class="edge"><title>Node0&#45;&gt;Node62</title>
<path fill="none" stroke="midnightblue" d="M911.932,-575.769C980.319,-563.819 1095.94,-543.617 1166.84,-531.229"/>
<polygon fill="midnightblue" stroke="midnightblue" points="1167.71,-534.629 1176.96,-529.46 1166.51,-527.733 1167.71,-534.629"/>
</g>
<!-- Node4&#45;&gt;Node2 -->
<g id="edge5" class="edge"><title>Node4&#45;&gt;Node2</title>
<path fill="none" stroke="midnightblue" d="M984.362,-336.43C1122,-310.35 1548.73,-229.948 1903.24,-168 1999.54,-151.172 2025.02,-154.16 2120.24,-132 2234.18,-105.484 2258.07,-81.5217 2372.24,-56 2466.11,-35.0158 2578.53,-21.27 2636.82,-14.9743"/>
<polygon fill="midnightblue" stroke="midnightblue" points="2637.48,-18.4235 2647.06,-13.8854 2636.74,-11.4628 2637.48,-18.4235"/>
</g>
<!-- Node5 -->
<g id="node6" class="node"><title>Node5</title>
<g id="a_node6"><a xlink:href="partition__linked_8hpp.html" target="_top" xlink:title="Linked partition data structure. ">
<polygon fill="white" stroke="black" points="901.739,-280.5 901.739,-299.5 1002.74,-299.5 1002.74,-280.5 901.739,-280.5"/>
<text text-anchor="middle" x="952.239" y="-287.5" font-family="Helvetica,sans-Serif" font-size="10.00">partition_linked.hpp</text>
</a>
</g>
</g>
<!-- Node4&#45;&gt;Node5 -->
<g id="edge6" class="edge"><title>Node4&#45;&gt;Node5</title>
<path fill="none" stroke="midnightblue" d="M941.386,-336.083C943.109,-328.927 945.586,-318.635 947.74,-309.691"/>
<polygon fill="midnightblue" stroke="midnightblue" points="951.195,-310.293 950.133,-299.751 944.389,-308.654 951.195,-310.293"/>
</g>
<!-- Node4&#45;&gt;Node19 -->
<g id="edge67" class="edge"><title>Node4&#45;&gt;Node19</title>
<path fill="none" stroke="midnightblue" d="M874.975,-339.018C814.505,-332.502 721.767,-320.213 643.239,-300 608.378,-291.027 524.027,-258.858 491.239,-244 443.779,-222.492 421.805,-227.855 388.239,-188 365.811,-161.369 347.404,-139.12 369.239,-112 387.033,-89.9003 458.806,-78.0649 512.664,-72.1662"/>
<polygon fill="midnightblue" stroke="midnightblue" points="513.255,-75.6235 522.835,-71.0985 512.524,-68.6617 513.255,-75.6235"/>
</g>
<!-- Node25 -->
<g id="node21" class="node"><title>Node25</title>
<g id="a_node21"><a xlink:href="linear__algebra__level1_8hpp.html" target="_top" xlink:title="linear algebra level1 ">
<polygon fill="white" stroke="black" points="1633.24,-112.5 1633.24,-131.5 1765.24,-131.5 1765.24,-112.5 1633.24,-112.5"/>
<text text-anchor="middle" x="1699.24" y="-119.5" font-family="Helvetica,sans-Serif" font-size="10.00">linear_algebra_level1.hpp</text>
</a>
</g>
</g>
<!-- Node4&#45;&gt;Node25 -->
<g id="edge66" class="edge"><title>Node4&#45;&gt;Node25</title>
<path fill="none" stroke="midnightblue" d="M973.917,-336.436C1059.41,-314.959 1286.68,-255.658 1470.24,-188 1490.78,-180.431 1494.53,-175.072 1515.24,-168 1557.91,-153.43 1607.65,-141.559 1644.65,-133.675"/>
<polygon fill="midnightblue" stroke="midnightblue" points="1645.67,-137.038 1654.74,-131.558 1644.23,-130.187 1645.67,-137.038"/>
</g>
<!-- Node32 -->
<g id="node26" class="node"><title>Node32</title>
<g id="a_node26"><a xlink:href="matrix__resizablerow_8hpp.html" target="_top" xlink:title="Matrix with resizable number of rows. ">
<polygon fill="white" stroke="black" points="166.739,-168.5 166.739,-187.5 291.739,-187.5 291.739,-168.5 166.739,-168.5"/>
<text text-anchor="middle" x="229.239" y="-175.5" font-family="Helvetica,sans-Serif" font-size="10.00">matrix_resizablerow.hpp</text>
</a>
</g>
</g>
<!-- Node4&#45;&gt;Node32 -->
<g id="edge62" class="edge"><title>Node4&#45;&gt;Node32</title>
<path fill="none" stroke="midnightblue" d="M875.021,-339.287C807.403,-332.589 698.081,-319.815 605.239,-300 519.143,-281.625 499.041,-270.974 415.239,-244 361.368,-226.66 299.442,-204.584 262.372,-191.136"/>
<polygon fill="midnightblue" stroke="midnightblue" points="263.197,-187.712 252.603,-187.583 260.804,-194.291 263.197,-187.712"/>
</g>
<!-- Node33 -->
<g id="node27" class="node"><title>Node33</title>
<g id="a_node27"><a xlink:href="container__out_8hpp.html" target="_top" xlink:title="container out ">
<polygon fill="white" stroke="black" points="2644.74,-168.5 2644.74,-187.5 2739.74,-187.5 2739.74,-168.5 2644.74,-168.5"/>
<text text-anchor="middle" x="2692.24" y="-175.5" font-family="Helvetica,sans-Serif" font-size="10.00">container_out.hpp</text>
</a>
</g>
</g>
<!-- Node4&#45;&gt;Node33 -->
<g id="edge68" class="edge"><title>Node4&#45;&gt;Node33</title>
<path fill="none" stroke="midnightblue" d="M1003.45,-339.132C1097.08,-330.569 1276.55,-314.131 1429.24,-300 1963.05,-250.598 2097.91,-251.416 2630.24,-188 2631.55,-187.844 2632.87,-187.683 2634.2,-187.518"/>
<polygon fill="midnightblue" stroke="midnightblue" points="2635.08,-190.933 2644.54,-186.175 2634.18,-183.991 2635.08,-190.933"/>
</g>
<!-- Node5&#45;&gt;Node1 -->
<g id="edge7" class="edge"><title>Node5&#45;&gt;Node1</title>
<path fill="none" stroke="midnightblue" d="M1002.96,-284.913C1139.88,-273.97 1528.55,-243.517 1852.24,-224 2017.47,-214.037 2436.32,-230.73 2596.24,-188 2615.06,-182.971 2616.55,-173.482 2635.24,-168 2714.72,-144.688 2950.57,-193.334 3006.24,-132 3012.21,-125.418 3011.21,-119.372 3006.24,-112 3001.52,-104.997 2958.11,-88.7661 2927,-77.8356"/>
<polygon fill="midnightblue" stroke="midnightblue" points="2927.99,-74.4748 2917.4,-74.4914 2925.69,-81.0855 2927.99,-74.4748"/>
</g>
<!-- Node6 -->
<g id="node7" class="node"><title>Node6</title>
<polygon fill="white" stroke="#bfbfbf" points="969.239,-56.5 969.239,-75.5 1007.24,-75.5 1007.24,-56.5 969.239,-56.5"/>
<text text-anchor="middle" x="988.239" y="-63.5" font-family="Helvetica,sans-Serif" font-size="10.00">utility</text>
</g>
<!-- Node5&#45;&gt;Node6 -->
<g id="edge8" class="edge"><title>Node5&#45;&gt;Node6</title>
<path fill="none" stroke="midnightblue" d="M953.538,-280.37C955.125,-267.71 956.952,-243.495 951.239,-224 935.534,-170.4 864.469,-159.258 894.239,-112 908.392,-89.5333 937.211,-78.0368 959.229,-72.3162"/>
<polygon fill="midnightblue" stroke="midnightblue" points="960.151,-75.6951 969.093,-70.0122 958.559,-68.8786 960.151,-75.6951"/>
</g>
<!-- Node7 -->
<g id="node8" class="node"><title>Node7</title>
<g id="a_node8"><a xlink:href="nearestinstance__operator_8hpp.html" target="_top" xlink:title="nearest instance operator ">
<polygon fill="white" stroke="red" points="608.739,-224.5 608.739,-243.5 757.739,-243.5 757.739,-224.5 608.739,-224.5"/>
<text text-anchor="middle" x="683.239" y="-231.5" font-family="Helvetica,sans-Serif" font-size="10.00">nearestinstance_operator.hpp</text>
</a>
</g>
</g>
<!-- Node5&#45;&gt;Node7 -->
<g id="edge9" class="edge"><title>Node5&#45;&gt;Node7</title>
<path fill="none" stroke="midnightblue" d="M909.616,-280.444C862.492,-270.984 786.547,-255.738 735.78,-245.547"/>
<polygon fill="midnightblue" stroke="midnightblue" points="736.157,-242.053 725.664,-243.516 734.779,-248.916 736.157,-242.053"/>
</g>
<!-- Node17 -->
<g id="node16" class="node"><title>Node17</title>
<g id="a_node16"><a xlink:href="common_8hpp.html" target="_top" xlink:title="common ">
<polygon fill="white" stroke="red" points="821.239,-56.5 821.239,-75.5 895.239,-75.5 895.239,-56.5 821.239,-56.5"/>
<text text-anchor="middle" x="858.239" y="-63.5" font-family="Helvetica,sans-Serif" font-size="10.00">common.hpp</text>
</a>
</g>
</g>
<!-- Node5&#45;&gt;Node17 -->
<g id="edge60" class="edge"><title>Node5&#45;&gt;Node17</title>
<path fill="none" stroke="midnightblue" d="M948.036,-280.434C939.59,-263.121 920.097,-222.664 905.239,-188 894.705,-163.422 892.928,-156.924 883.239,-132 877.148,-116.329 870.297,-98.5031 865.31,-85.4877"/>
<polygon fill="midnightblue" stroke="midnightblue" points="868.46,-83.9269 861.616,-75.8391 861.923,-86.4295 868.46,-83.9269"/>
</g>
<!-- Node5&#45;&gt;Node19 -->
<g id="edge61" class="edge"><title>Node5&#45;&gt;Node19</title>
<path fill="none" stroke="midnightblue" d="M944.054,-280.206C930.808,-266.441 903.31,-239.754 875.239,-224 762.482,-160.717 692.119,-221.958 599.239,-132 586.694,-119.849 580.659,-100.574 577.785,-86.1632"/>
<polygon fill="midnightblue" stroke="midnightblue" points="581.17,-85.178 576.094,-75.8784 574.263,-86.3138 581.17,-85.178"/>
</g>
<!-- Node5&#45;&gt;Node25 -->
<g id="edge59" class="edge"><title>Node5&#45;&gt;Node25</title>
<path fill="none" stroke="midnightblue" d="M1002.85,-282.292C1091.76,-269.653 1281.1,-238.91 1434.24,-188 1454.24,-181.351 1457.22,-174.584 1477.24,-168 1526.28,-151.875 1583.4,-140.454 1627.42,-133.154"/>
<polygon fill="midnightblue" stroke="midnightblue" points="1628.15,-136.581 1637.46,-131.522 1627.03,-129.672 1628.15,-136.581"/>
</g>
<!-- Node31 -->
<g id="node25" class="node"><title>Node31</title>
<g id="a_node25"><a xlink:href="partition_8hpp.html" target="_top" xlink:title="partition ">
<polygon fill="white" stroke="red" points="1912.74,-168.5 1912.74,-187.5 1981.74,-187.5 1981.74,-168.5 1912.74,-168.5"/>
<text text-anchor="middle" x="1947.24" y="-175.5" font-family="Helvetica,sans-Serif" font-size="10.00">partition.hpp</text>
</a>
</g>
</g>
<!-- Node5&#45;&gt;Node31 -->
<g id="edge55" class="edge"><title>Node5&#45;&gt;Node31</title>
<path fill="none" stroke="midnightblue" d="M1002.95,-283.394C1175.59,-264.308 1738.78,-202.045 1902.33,-183.965"/>
<polygon fill="midnightblue" stroke="midnightblue" points="1902.96,-187.416 1912.52,-182.839 1902.19,-180.459 1902.96,-187.416"/>
</g>
<!-- Node7&#45;&gt;Node8 -->
<g id="edge10" class="edge"><title>Node7&#45;&gt;Node8</title>
<path fill="none" stroke="midnightblue" d="M608.715,-227.159C506.739,-219.045 318.023,-203.593 157.239,-188 145.412,-186.853 132.647,-185.518 120.759,-184.232"/>
<polygon fill="midnightblue" stroke="midnightblue" points="120.904,-180.727 110.583,-183.121 120.144,-187.686 120.904,-180.727"/>
</g>
<!-- Node7&#45;&gt;Node19 -->
<g id="edge54" class="edge"><title>Node7&#45;&gt;Node19</title>
<path fill="none" stroke="midnightblue" d="M608.685,-226.967C540.837,-220.327 446.63,-207.874 415.239,-188 389.614,-171.776 385.323,-160.938 376.239,-132 373.577,-123.519 370.69,-118.944 376.239,-112 393.186,-90.7928 461.182,-78.8486 513.02,-72.6778"/>
<polygon fill="midnightblue" stroke="midnightblue" points="513.614,-76.1327 523.152,-71.5196 512.819,-69.178 513.614,-76.1327"/>
</g>
<!-- Node20 -->
<g id="node18" class="node"><title>Node20</title>
<g id="a_node18"><a xlink:href="matrix_8hpp.html" target="_top" xlink:title="matrix ">
<polygon fill="white" stroke="red" points="1363.24,-168.5 1363.24,-187.5 1425.24,-187.5 1425.24,-168.5 1363.24,-168.5"/>
<text text-anchor="middle" x="1394.24" y="-175.5" font-family="Helvetica,sans-Serif" font-size="10.00">matrix.hpp</text>
</a>
</g>
</g>
<!-- Node7&#45;&gt;Node20 -->
<g id="edge23" class="edge"><title>Node7&#45;&gt;Node20</title>
<path fill="none" stroke="midnightblue" d="M757.856,-227.604C774.751,-226.401 792.611,-225.143 809.239,-224 1048.11,-207.58 1112.24,-222.333 1352.78,-187.995"/>
<polygon fill="midnightblue" stroke="midnightblue" points="1353.48,-191.43 1362.88,-186.539 1352.49,-184.501 1353.48,-191.43"/>
</g>
<!-- Node29 -->
<g id="node23" class="node"><title>Node29</title>
<g id="a_node23"><a xlink:href="dist_8hpp.html" target="_top" xlink:title="operations for the calculation of distances between objects ">
<polygon fill="white" stroke="black" points="424.239,-168.5 424.239,-187.5 474.239,-187.5 474.239,-168.5 424.239,-168.5"/>
<text text-anchor="middle" x="449.239" y="-175.5" font-family="Helvetica,sans-Serif" font-size="10.00">dist.hpp</text>
</a>
</g>
</g>
<!-- Node7&#45;&gt;Node29 -->
<g id="edge45" class="edge"><title>Node7&#45;&gt;Node29</title>
<path fill="none" stroke="midnightblue" d="M646.161,-224.444C601.66,-214.174 527.611,-197.086 484.113,-187.048"/>
<polygon fill="midnightblue" stroke="midnightblue" points="484.803,-183.615 474.272,-184.777 483.229,-190.436 484.803,-183.615"/>
</g>
<!-- Node30 -->
<g id="node24" class="node"><title>Node30</title>
<g id="a_node24"><a xlink:href="vector__utils_8hpp.html" target="_top" xlink:title="Operations for vector manipulation. ">
<polygon fill="white" stroke="black" points="2289.74,-112.5 2289.74,-131.5 2374.74,-131.5 2374.74,-112.5 2289.74,-112.5"/>
<text text-anchor="middle" x="2332.24" y="-119.5" font-family="Helvetica,sans-Serif" font-size="10.00">vector_utils.hpp</text>
</a>
</g>
</g>
<!-- Node7&#45;&gt;Node30 -->
<g id="edge47" class="edge"><title>Node7&#45;&gt;Node30</title>
<path fill="none" stroke="midnightblue" d="M757.849,-227.5C774.745,-226.302 792.607,-225.073 809.239,-224 1086.9,-206.088 1156.89,-210.2 1434.24,-188 1521.08,-181.049 1542.42,-175.226 1629.24,-168 1879.11,-147.205 1942.02,-148.043 2192.24,-132 2221.1,-130.15 2253.31,-128.08 2279.55,-126.392"/>
<polygon fill="midnightblue" stroke="midnightblue" points="2279.9,-129.876 2289.66,-125.741 2279.45,-122.89 2279.9,-129.876"/>
</g>
<!-- Node9 -->
<g id="node10" class="node"><title>Node9</title>
<polygon fill="white" stroke="#bfbfbf" points="1400.24,-0.5 1400.24,-19.5 1444.24,-19.5 1444.24,-0.5 1400.24,-0.5"/>
<text text-anchor="middle" x="1422.24" y="-7.5" font-family="Helvetica,sans-Serif" font-size="10.00">cmath</text>
</g>
<!-- Node8&#45;&gt;Node9 -->
<g id="edge11" class="edge"><title>Node8&#45;&gt;Node9</title>
<path fill="none" stroke="midnightblue" d="M72.549,-168.381C70.4172,-154.857 68.4287,-128.493 81.2394,-112 124.891,-55.8 161.462,-69.9657 231.239,-56 462.037,-9.80657 1223.24,-10.1768 1389.83,-10.8315"/>
<polygon fill="midnightblue" stroke="midnightblue" points="1389.92,-14.3318 1399.94,-10.8746 1389.95,-7.33189 1389.92,-14.3318"/>
</g>
<!-- Node10 -->
<g id="node11" class="node"><title>Node10</title>
<polygon fill="white" stroke="#bfbfbf" points="475.739,-0.5 475.739,-19.5 514.739,-19.5 514.739,-0.5 475.739,-0.5"/>
<text text-anchor="middle" x="495.239" y="-7.5" font-family="Helvetica,sans-Serif" font-size="10.00">limits</text>
</g>
<!-- Node8&#45;&gt;Node10 -->
<g id="edge12" class="edge"><title>Node8&#45;&gt;Node10</title>
<path fill="none" stroke="midnightblue" d="M65.7567,-168.234C58.1855,-159.75 47.6357,-146.131 43.2394,-132 33.2052,-99.747 20.5688,-81.0397 43.2394,-56 71.5882,-24.6886 369.059,-14.2683 465.348,-11.702"/>
<polygon fill="midnightblue" stroke="midnightblue" points="465.65,-15.1955 475.557,-11.4396 465.471,-8.1978 465.65,-15.1955"/>
</g>
<!-- Node11 -->
<g id="node12" class="node"><title>Node11</title>
<g id="a_node12"><a xlink:href="line__split_8hpp.html" target="_top" xlink:title="line split ">
<polygon fill="white" stroke="red" points="1503.74,-112.5 1503.74,-131.5 1576.74,-131.5 1576.74,-112.5 1503.74,-112.5"/>
<text text-anchor="middle" x="1540.24" y="-119.5" font-family="Helvetica,sans-Serif" font-size="10.00">line_split.hpp</text>
</a>
</g>
</g>
<!-- Node8&#45;&gt;Node11 -->
<g id="edge13" class="edge"><title>Node8&#45;&gt;Node11</title>
<path fill="none" stroke="midnightblue" d="M110.545,-172.424C125.046,-170.764 141.911,-169.042 157.239,-168 733.021,-128.862 879.408,-170.412 1455.24,-132 1467.62,-131.174 1480.97,-129.928 1493.35,-128.624"/>
<polygon fill="midnightblue" stroke="midnightblue" points="1493.91,-132.084 1503.48,-127.523 1493.16,-125.125 1493.91,-132.084"/>
</g>
<!-- Node8&#45;&gt;Node17 -->
<g id="edge22" class="edge"><title>Node8&#45;&gt;Node17</title>
<path fill="none" stroke="midnightblue" d="M107.515,-168.478C162.896,-154.603 277.644,-127.158 376.239,-112 534.689,-87.6401 724.612,-74.5985 811.139,-69.5326"/>
<polygon fill="midnightblue" stroke="midnightblue" points="811.387,-73.0242 821.169,-68.9541 810.984,-66.0358 811.387,-73.0242"/>
</g>
<!-- Node11&#45;&gt;Node1 -->
<g id="edge17" class="edge"><title>Node11&#45;&gt;Node1</title>
<path fill="none" stroke="midnightblue" d="M1576.99,-116.488C1591.66,-114.837 1608.73,-113.104 1624.24,-112 1875.7,-94.1002 2689.85,-72.3286 2862.77,-67.8349"/>
<polygon fill="midnightblue" stroke="midnightblue" points="2863.09,-71.3278 2873,-67.5698 2862.91,-64.3301 2863.09,-71.3278"/>
</g>
<!-- Node11&#45;&gt;Node3 -->
<g id="edge16" class="edge"><title>Node11&#45;&gt;Node3</title>
<path fill="none" stroke="midnightblue" d="M1523.85,-112.324C1507.57,-103.703 1482.37,-90.3643 1463.52,-80.3855"/>
<polygon fill="midnightblue" stroke="midnightblue" points="1465.06,-77.2402 1454.59,-75.6545 1461.79,-83.4267 1465.06,-77.2402"/>
</g>
<!-- Node12 -->
<g id="node13" class="node"><title>Node12</title>
<polygon fill="white" stroke="#bfbfbf" points="2413.24,-56.5 2413.24,-75.5 2469.24,-75.5 2469.24,-56.5 2413.24,-56.5"/>
<text text-anchor="middle" x="2441.24" y="-63.5" font-family="Helvetica,sans-Serif" font-size="10.00">iostream</text>
</g>
<!-- Node11&#45;&gt;Node12 -->
<g id="edge14" class="edge"><title>Node11&#45;&gt;Node12</title>
<path fill="none" stroke="midnightblue" d="M1577,-116.645C1591.68,-115.015 1608.74,-113.256 1624.24,-112 1923.56,-87.7378 2285.66,-72.8599 2402.74,-68.4124"/>
<polygon fill="midnightblue" stroke="midnightblue" points="2403.12,-71.9007 2412.98,-68.0264 2402.86,-64.9057 2403.12,-71.9007"/>
</g>
<!-- Node13 -->
<g id="node14" class="node"><title>Node13</title>
<polygon fill="white" stroke="#bfbfbf" points="1575.74,-56.5 1575.74,-75.5 1628.74,-75.5 1628.74,-56.5 1575.74,-56.5"/>
<text text-anchor="middle" x="1602.24" y="-63.5" font-family="Helvetica,sans-Serif" font-size="10.00">sstream</text>
</g>
<!-- Node11&#45;&gt;Node13 -->
<g id="edge15" class="edge"><title>Node11&#45;&gt;Node13</title>
<path fill="none" stroke="midnightblue" d="M1550.2,-112.324C1559.37,-104.341 1573.18,-92.3128 1584.27,-82.6529"/>
<polygon fill="midnightblue" stroke="midnightblue" points="1586.85,-85.041 1592.1,-75.8339 1582.26,-79.7624 1586.85,-85.041"/>
</g>
<!-- Node15 -->
<g id="node15" class="node"><title>Node15</title>
<polygon fill="white" stroke="#bfbfbf" points="2140.74,-56.5 2140.74,-75.5 2181.74,-75.5 2181.74,-56.5 2140.74,-56.5"/>
<text text-anchor="middle" x="2161.24" y="-63.5" font-family="Helvetica,sans-Serif" font-size="10.00">string</text>
</g>
<!-- Node11&#45;&gt;Node15 -->
<g id="edge18" class="edge"><title>Node11&#45;&gt;Node15</title>
<path fill="none" stroke="midnightblue" d="M1577.02,-116.818C1591.7,-115.212 1608.76,-113.424 1624.24,-112 1831.98,-92.8857 1884.74,-97.4985 2092.24,-76 2104.79,-74.7001 2118.58,-72.9634 2130.51,-71.3624"/>
<polygon fill="midnightblue" stroke="midnightblue" points="2131.01,-74.8272 2140.44,-70.0048 2130.06,-67.8917 2131.01,-74.8272"/>
</g>
<!-- Node11&#45;&gt;Node17 -->
<g id="edge19" class="edge"><title>Node11&#45;&gt;Node17</title>
<path fill="none" stroke="midnightblue" d="M1503.45,-116.837C1488.5,-115.216 1471.05,-113.412 1455.24,-112 1235.53,-92.3844 1180.11,-93.6944 960.239,-76 942.484,-74.5711 923,-72.8819 905.862,-71.3551"/>
<polygon fill="midnightblue" stroke="midnightblue" points="905.804,-67.8359 895.531,-70.4292 905.179,-74.808 905.804,-67.8359"/>
</g>
<!-- Node11&#45;&gt;Node19 -->
<g id="edge21" class="edge"><title>Node11&#45;&gt;Node19</title>
<path fill="none" stroke="midnightblue" d="M1503.46,-116.665C1488.52,-115.018 1471.07,-113.242 1455.24,-112 1295.98,-99.5056 810.841,-77.4457 637.57,-69.7448"/>
<polygon fill="midnightblue" stroke="midnightblue" points="637.492,-66.238 627.347,-69.291 637.182,-73.2311 637.492,-66.238"/>
</g>
<!-- Node17&#45;&gt;Node10 -->
<g id="edge20" class="edge"><title>Node17&#45;&gt;Node10</title>
<path fill="none" stroke="midnightblue" d="M821.098,-59.4748C748.865,-48.7295 590.789,-25.2139 524.945,-15.4191"/>
<polygon fill="midnightblue" stroke="midnightblue" points="525.243,-11.925 514.837,-13.9154 524.213,-18.8488 525.243,-11.925"/>
</g>
<!-- Node20&#45;&gt;Node1 -->
<g id="edge30" class="edge"><title>Node20&#45;&gt;Node1</title>
<path fill="none" stroke="midnightblue" d="M1425.41,-175.723C1470.41,-173.898 1556.2,-170.491 1629.24,-168 1696.12,-165.719 2772.12,-159.253 2833.24,-132 2855.41,-122.112 2873.55,-100.21 2884.36,-84.5647"/>
<polygon fill="midnightblue" stroke="midnightblue" points="2887.55,-86.0761 2890.11,-75.7947 2881.7,-82.2368 2887.55,-86.0761"/>
</g>
<!-- Node20&#45;&gt;Node3 -->
<g id="edge27" class="edge"><title>Node20&#45;&gt;Node3</title>
<path fill="none" stroke="midnightblue" d="M1414.15,-168.41C1428.46,-161.04 1446.7,-148.916 1455.24,-132 1462.85,-116.919 1456.41,-98.0951 1449.38,-84.5919"/>
<polygon fill="midnightblue" stroke="midnightblue" points="1452.36,-82.7585 1444.35,-75.8294 1446.29,-86.2443 1452.36,-82.7585"/>
</g>
<!-- Node20&#45;&gt;Node6 -->
<g id="edge28" class="edge"><title>Node20&#45;&gt;Node6</title>
<path fill="none" stroke="midnightblue" d="M1381.7,-168.487C1360.28,-154.37 1314.79,-126.259 1272.24,-112 1182.53,-81.9394 1070,-71.7245 1017.6,-68.4463"/>
<polygon fill="midnightblue" stroke="midnightblue" points="1017.55,-64.9374 1007.36,-67.8474 1017.14,-71.9255 1017.55,-64.9374"/>
</g>
<!-- Node20&#45;&gt;Node11 -->
<g id="edge44" class="edge"><title>Node20&#45;&gt;Node11</title>
<path fill="none" stroke="midnightblue" d="M1417.37,-168.444C1441.72,-159.438 1480.25,-145.189 1507.66,-135.049"/>
<polygon fill="midnightblue" stroke="midnightblue" points="1509.05,-138.268 1517.21,-131.516 1506.62,-131.703 1509.05,-138.268"/>
</g>
<!-- Node20&#45;&gt;Node12 -->
<g id="edge24" class="edge"><title>Node20&#45;&gt;Node12</title>
<path fill="none" stroke="midnightblue" d="M1425.58,-175.178C1560.35,-167.33 2085.34,-136.593 2120.24,-132 2223.62,-118.395 2343.62,-90.9251 2403.37,-76.4373"/>
<polygon fill="midnightblue" stroke="midnightblue" points="2404.23,-79.829 2413.12,-74.0584 2402.57,-73.0285 2404.23,-79.829"/>
</g>
<!-- Node20&#45;&gt;Node13 -->
<g id="edge25" class="edge"><title>Node20&#45;&gt;Node13</title>
<path fill="none" stroke="midnightblue" d="M1425.46,-170.521C1478.12,-159.47 1579.48,-137.621 1585.24,-132 1597.49,-120.044 1601.28,-100.433 1602.29,-85.8735"/>
<polygon fill="midnightblue" stroke="midnightblue" points="1605.8,-85.6256 1602.6,-75.5232 1598.8,-85.4114 1605.8,-85.6256"/>
</g>
<!-- Node20&#45;&gt;Node15 -->
<g id="edge29" class="edge"><title>Node20&#45;&gt;Node15</title>
<path fill="none" stroke="midnightblue" d="M1425.57,-175.114C1560.11,-166.999 2082.48,-135.309 2090.24,-132 2114.4,-121.701 2135.65,-99.5512 2148.46,-83.9817"/>
<polygon fill="midnightblue" stroke="midnightblue" points="2151.54,-85.7324 2154.99,-75.7144 2146.05,-81.3955 2151.54,-85.7324"/>
</g>
<!-- Node21 -->
<g id="node19" class="node"><title>Node21</title>
<polygon fill="white" stroke="#bfbfbf" points="1211.24,-112.5 1211.24,-131.5 1263.24,-131.5 1263.24,-112.5 1211.24,-112.5"/>
<text text-anchor="middle" x="1237.24" y="-119.5" font-family="Helvetica,sans-Serif" font-size="10.00">iomanip</text>
</g>
<!-- Node20&#45;&gt;Node21 -->
<g id="edge26" class="edge"><title>Node20&#45;&gt;Node21</title>
<path fill="none" stroke="midnightblue" d="M1369.36,-168.444C1342.95,-159.359 1301.02,-144.939 1271.5,-134.783"/>
<polygon fill="midnightblue" stroke="midnightblue" points="1272.59,-131.459 1262,-131.516 1270.32,-138.079 1272.59,-131.459"/>
</g>
<!-- Node24 -->
<g id="node20" class="node"><title>Node24</title>
<g id="a_node20"><a xlink:href="matrix__base_8hpp.html" target="_top" xlink:title="matrix base ">
<polygon fill="white" stroke="red" points="1357.74,-112.5 1357.74,-131.5 1446.74,-131.5 1446.74,-112.5 1357.74,-112.5"/>
<text text-anchor="middle" x="1402.24" y="-119.5" font-family="Helvetica,sans-Serif" font-size="10.00">matrix_base.hpp</text>
</a>
</g>
</g>
<!-- Node20&#45;&gt;Node24 -->
<g id="edge31" class="edge"><title>Node20&#45;&gt;Node24</title>
<path fill="none" stroke="midnightblue" d="M1395.56,-168.083C1396.62,-160.927 1398.15,-150.635 1399.47,-141.691"/>
<polygon fill="midnightblue" stroke="midnightblue" points="1402.94,-142.156 1400.94,-131.751 1396.02,-141.13 1402.94,-142.156"/>
</g>
<!-- Node20&#45;&gt;Node25 -->
<g id="edge39" class="edge"><title>Node20&#45;&gt;Node25</title>
<path fill="none" stroke="midnightblue" d="M1425.69,-170.601C1430.23,-169.709 1434.85,-168.818 1439.24,-168 1506.93,-155.375 1584.77,-142.062 1637.5,-133.221"/>
<polygon fill="midnightblue" stroke="midnightblue" points="1638.09,-136.672 1647.37,-131.569 1636.93,-129.768 1638.09,-136.672"/>
</g>
<!-- Node24&#45;&gt;Node1 -->
<g id="edge36" class="edge"><title>Node24&#45;&gt;Node1</title>
<path fill="none" stroke="midnightblue" d="M1447.11,-116.017C1462.08,-114.513 1478.87,-112.998 1494.24,-112 1773.26,-93.8904 2680.24,-72.0333 2862.98,-67.7486"/>
<polygon fill="midnightblue" stroke="midnightblue" points="2863.11,-71.2466 2873.03,-67.5137 2862.95,-64.2485 2863.11,-71.2466"/>
</g>
<!-- Node24&#45;&gt;Node3 -->
<g id="edge34" class="edge"><title>Node24&#45;&gt;Node3</title>
<path fill="none" stroke="midnightblue" d="M1408.18,-112.083C1413.22,-104.534 1420.58,-93.4948 1426.75,-84.2298"/>
<polygon fill="midnightblue" stroke="midnightblue" points="1429.77,-86.0131 1432.41,-75.7511 1423.95,-82.1301 1429.77,-86.0131"/>
</g>
<!-- Node24&#45;&gt;Node6 -->
<g id="edge35" class="edge"><title>Node24&#45;&gt;Node6</title>
<path fill="none" stroke="midnightblue" d="M1357.48,-114.051C1352.67,-113.341 1347.86,-112.645 1343.24,-112 1222.51,-95.1426 1078.29,-77.6898 1017.52,-70.4579"/>
<polygon fill="midnightblue" stroke="midnightblue" points="1017.85,-66.9717 1007.5,-69.2682 1017.02,-73.9229 1017.85,-66.9717"/>
</g>
<!-- Node24&#45;&gt;Node12 -->
<g id="edge32" class="edge"><title>Node24&#45;&gt;Node12</title>
<path fill="none" stroke="midnightblue" d="M1447.12,-116.155C1462.09,-114.661 1478.87,-113.116 1494.24,-112 1675.4,-98.8432 2248.06,-74.9255 2402.53,-68.5802"/>
<polygon fill="midnightblue" stroke="midnightblue" points="2403.07,-72.061 2412.91,-68.1541 2402.78,-65.0669 2403.07,-72.061"/>
</g>
<!-- Node24&#45;&gt;Node13 -->
<g id="edge33" class="edge"><title>Node24&#45;&gt;Node13</title>
<path fill="none" stroke="midnightblue" d="M1433.93,-112.444C1469.67,-102.793 1527.71,-87.122 1565.43,-76.9377"/>
<polygon fill="midnightblue" stroke="midnightblue" points="1566.76,-80.206 1575.5,-74.2203 1564.93,-73.448 1566.76,-80.206"/>
</g>
<!-- Node24&#45;&gt;Node17 -->
<g id="edge37" class="edge"><title>Node24&#45;&gt;Node17</title>
<path fill="none" stroke="midnightblue" d="M1357.72,-116.581C1256.4,-106.523 1009.34,-81.9987 905.469,-71.6883"/>
<polygon fill="midnightblue" stroke="midnightblue" points="905.583,-68.1825 895.286,-70.6775 904.892,-75.1482 905.583,-68.1825"/>
</g>
<!-- Node24&#45;&gt;Node19 -->
<g id="edge38" class="edge"><title>Node24&#45;&gt;Node19</title>
<path fill="none" stroke="midnightblue" d="M1357.72,-117.866C1332.62,-116.113 1300.68,-113.903 1272.24,-112 1038,-96.3301 759.406,-78.6237 637.522,-70.9237"/>
<polygon fill="midnightblue" stroke="midnightblue" points="637.47,-67.4135 627.269,-70.2762 637.029,-74.3996 637.47,-67.4135"/>
</g>
<!-- Node26 -->
<g id="node22" class="node"><title>Node26</title>
<g id="a_node22"><a xlink:href="interface__level1_8hpp.html" target="_top" xlink:title="Interface_level 1. ">
<polygon fill="white" stroke="red" points="1646.24,-56.5 1646.24,-75.5 1752.24,-75.5 1752.24,-56.5 1646.24,-56.5"/>
<text text-anchor="middle" x="1699.24" y="-63.5" font-family="Helvetica,sans-Serif" font-size="10.00">interface_level1.hpp</text>
</a>
</g>
</g>
<!-- Node25&#45;&gt;Node26 -->
<g id="edge40" class="edge"><title>Node25&#45;&gt;Node26</title>
<path fill="none" stroke="midnightblue" d="M1699.24,-112.083C1699.24,-105.006 1699.24,-94.8611 1699.24,-85.9865"/>
<polygon fill="midnightblue" stroke="midnightblue" points="1702.74,-85.751 1699.24,-75.7511 1695.74,-85.7511 1702.74,-85.751"/>
</g>
<!-- Node26&#45;&gt;Node2 -->
<g id="edge41" class="edge"><title>Node26&#45;&gt;Node2</title>
<path fill="none" stroke="midnightblue" d="M1752.46,-62.0584C1927.65,-52.3757 2483.82,-21.635 2636.91,-13.174"/>
<polygon fill="midnightblue" stroke="midnightblue" points="2637.43,-16.6505 2647.22,-12.6039 2637.04,-9.66119 2637.43,-16.6505"/>
</g>
<!-- Node26&#45;&gt;Node9 -->
<g id="edge43" class="edge"><title>Node26&#45;&gt;Node9</title>
<path fill="none" stroke="midnightblue" d="M1655.35,-56.4435C1599.38,-45.5321 1503.92,-26.9227 1454.31,-17.2515"/>
<polygon fill="midnightblue" stroke="midnightblue" points="1454.93,-13.8076 1444.45,-15.3294 1453.59,-20.6782 1454.93,-13.8076"/>
</g>
<!-- Node26&#45;&gt;Node10 -->
<g id="edge42" class="edge"><title>Node26&#45;&gt;Node10</title>
<path fill="none" stroke="midnightblue" d="M1646.18,-56.9253C1643.16,-56.5816 1640.16,-56.2691 1637.24,-56 1196.19,-15.4108 656.003,-11.3918 524.915,-11.028"/>
<polygon fill="midnightblue" stroke="midnightblue" points="524.848,-7.52797 514.84,-11.0053 524.832,-14.5279 524.848,-7.52797"/>
</g>
<!-- Node29&#45;&gt;Node17 -->
<g id="edge46" class="edge"><title>Node29&#45;&gt;Node17</title>
<path fill="none" stroke="midnightblue" d="M429.754,-168.383C404.624,-156.134 366.274,-132.855 385.239,-112 399.448,-96.3754 693.695,-76.9472 810.784,-69.8033"/>
<polygon fill="midnightblue" stroke="midnightblue" points="811.119,-73.2895 820.889,-69.1905 810.695,-66.3023 811.119,-73.2895"/>
</g>
<!-- Node30&#45;&gt;Node1 -->
<g id="edge49" class="edge"><title>Node30&#45;&gt;Node1</title>
<path fill="none" stroke="midnightblue" d="M2375.02,-116.897C2483.48,-106.494 2767.37,-79.2641 2863.15,-70.0776"/>
<polygon fill="midnightblue" stroke="midnightblue" points="2863.49,-73.5612 2873.11,-69.1223 2862.82,-66.5932 2863.49,-73.5612"/>
</g>
<!-- Node30&#45;&gt;Node2 -->
<g id="edge51" class="edge"><title>Node30&#45;&gt;Node2</title>
<path fill="none" stroke="midnightblue" d="M2339.12,-112.129C2350.8,-97.7508 2376.02,-69.6005 2404.24,-56 2480.8,-19.099 2582,-11.7382 2636.84,-10.692"/>
<polygon fill="midnightblue" stroke="midnightblue" points="2636.89,-14.1917 2646.84,-10.5621 2636.8,-7.19227 2636.89,-14.1917"/>
</g>
<!-- Node30&#45;&gt;Node12 -->
<g id="edge48" class="edge"><title>Node30&#45;&gt;Node12</title>
<path fill="none" stroke="midnightblue" d="M2349.75,-112.324C2367.31,-103.625 2394.57,-90.1202 2414.77,-80.113"/>
<polygon fill="midnightblue" stroke="midnightblue" points="2416.36,-83.23 2423.77,-75.6545 2413.26,-76.9575 2416.36,-83.23"/>
</g>
<!-- Node30&#45;&gt;Node15 -->
<g id="edge50" class="edge"><title>Node30&#45;&gt;Node15</title>
<path fill="none" stroke="midnightblue" d="M2305.14,-112.444C2274.21,-102.676 2223.74,-86.7385 2191.54,-76.5673"/>
<polygon fill="midnightblue" stroke="midnightblue" points="2192.36,-73.1565 2181.77,-73.4826 2190.25,-79.8316 2192.36,-73.1565"/>
</g>
<!-- Node30&#45;&gt;Node17 -->
<g id="edge52" class="edge"><title>Node30&#45;&gt;Node17</title>
<path fill="none" stroke="midnightblue" d="M2289.4,-119.338C2241.04,-117.477 2159.99,-114.408 2090.24,-112 1588.06,-94.6628 1461.81,-106.094 960.239,-76 942.458,-74.9331 922.969,-73.3226 905.834,-71.7574"/>
<polygon fill="midnightblue" stroke="midnightblue" points="905.787,-68.2379 895.505,-70.794 905.137,-75.2077 905.787,-68.2379"/>
</g>
<!-- Node30&#45;&gt;Node19 -->
<g id="edge53" class="edge"><title>Node30&#45;&gt;Node19</title>
<path fill="none" stroke="midnightblue" d="M2289.4,-119.29C2241.04,-117.387 2159.99,-114.279 2090.24,-112 1522.32,-93.4409 1380.15,-94.7815 812.239,-76 753.004,-74.041 685.456,-71.4397 637.669,-69.5377"/>
<polygon fill="midnightblue" stroke="midnightblue" points="637.612,-66.0328 627.48,-69.1309 637.333,-73.0272 637.612,-66.0328"/>
</g>
<!-- Node31&#45;&gt;Node12 -->
<g id="edge56" class="edge"><title>Node31&#45;&gt;Node12</title>
<path fill="none" stroke="midnightblue" d="M1981.99,-176.614C2072.49,-175.11 2313.28,-167.761 2383.24,-132 2404.21,-121.283 2421.12,-99.5606 2431.16,-84.1827"/>
<polygon fill="midnightblue" stroke="midnightblue" points="2434.2,-85.9254 2436.5,-75.5828 2428.25,-82.2348 2434.2,-85.9254"/>
</g>
<!-- Node31&#45;&gt;Node13 -->
<g id="edge57" class="edge"><title>Node31&#45;&gt;Node13</title>
<path fill="none" stroke="midnightblue" d="M1916.96,-168.449C1889.25,-160.264 1847.35,-146.973 1812.24,-132 1794.68,-124.513 1792.03,-118.905 1774.24,-112 1771.02,-110.75 1688.07,-89.2099 1638.56,-76.3915"/>
<polygon fill="midnightblue" stroke="midnightblue" points="1639.4,-72.9933 1628.84,-73.8758 1637.64,-79.77 1639.4,-72.9933"/>
</g>
<!-- Node31&#45;&gt;Node15 -->
<g id="edge58" class="edge"><title>Node31&#45;&gt;Node15</title>
<path fill="none" stroke="midnightblue" d="M1982.05,-175.886C2020.21,-173.025 2081.56,-163.424 2123.24,-132 2138.86,-120.222 2149.21,-99.9973 2155.1,-85.2292"/>
<polygon fill="midnightblue" stroke="midnightblue" points="2158.46,-86.2324 2158.62,-75.6388 2151.89,-83.82 2158.46,-86.2324"/>
</g>
<!-- Node32&#45;&gt;Node9 -->
<g id="edge64" class="edge"><title>Node32&#45;&gt;Node9</title>
<path fill="none" stroke="midnightblue" d="M218.623,-168.296C203.807,-155.115 180.334,-129.75 195.239,-112 287.808,-1.76605 371.19,-72.038 514.239,-56 855.326,-17.7591 1272.13,-12.0152 1389.89,-11.1525"/>
<polygon fill="midnightblue" stroke="midnightblue" points="1390.06,-14.6516 1400.03,-11.0851 1390.01,-7.65171 1390.06,-14.6516"/>
</g>
<!-- Node32&#45;&gt;Node10 -->
<g id="edge63" class="edge"><title>Node32&#45;&gt;Node10</title>
<path fill="none" stroke="midnightblue" d="M203.735,-168.472C187.252,-161.478 167.101,-149.792 157.239,-132 140.865,-102.457 134.987,-81.4117 157.239,-56 177.446,-32.9245 386.466,-17.7181 465.337,-12.7636"/>
<polygon fill="midnightblue" stroke="midnightblue" points="465.803,-16.2415 475.569,-12.1327 465.373,-9.2548 465.803,-16.2415"/>
</g>
<!-- Node32&#45;&gt;Node24 -->
<g id="edge65" class="edge"><title>Node32&#45;&gt;Node24</title>
<path fill="none" stroke="midnightblue" d="M292.084,-173.859C328.126,-172.083 374.223,-169.854 415.239,-168 796.075,-150.788 891.603,-153.167 1272.24,-132 1297.03,-130.621 1324.46,-128.77 1347.71,-127.106"/>
<polygon fill="midnightblue" stroke="midnightblue" points="1348.01,-130.593 1357.73,-126.381 1347.51,-123.611 1348.01,-130.593"/>
</g>
<!-- Node33&#45;&gt;Node1 -->
<g id="edge70" class="edge"><title>Node33&#45;&gt;Node1</title>
<path fill="none" stroke="midnightblue" d="M2739.94,-169.912C2744.77,-169.244 2749.6,-168.595 2754.24,-168 2825.87,-158.811 3029.08,-185.823 3077.24,-132 3146.29,-54.8274 3255.32,-161.393 2927.38,-76.1957"/>
<polygon fill="midnightblue" stroke="midnightblue" points="2928.12,-72.769 2917.55,-73.6188 2926.34,-79.5402 2928.12,-72.769"/>
</g>
<!-- Node33&#45;&gt;Node2 -->
<g id="edge73" class="edge"><title>Node33&#45;&gt;Node2</title>
<path fill="none" stroke="midnightblue" d="M2739.87,-172.384C2850.37,-161.619 3115.09,-135.498 3118.24,-132 3129.1,-119.93 3141.22,-83.2764 3115.24,-56 3087.94,-27.3349 2818.56,-15.6235 2715.79,-12.1751"/>
<polygon fill="midnightblue" stroke="midnightblue" points="2715.64,-8.6682 2705.53,-11.8397 2715.41,-15.6645 2715.64,-8.6682"/>
</g>
<!-- Node33&#45;&gt;Node12 -->
<g id="edge69" class="edge"><title>Node33&#45;&gt;Node12</title>
<path fill="none" stroke="midnightblue" d="M2739.97,-170.061C2744.79,-169.363 2749.61,-168.667 2754.24,-168 2867.8,-151.646 3084.08,-196.287 3006.24,-112 2970.6,-73.4057 2601.24,-67.8871 2479.75,-67.1181"/>
<polygon fill="midnightblue" stroke="midnightblue" points="2479.46,-63.6165 2469.44,-67.0606 2479.42,-70.6164 2479.46,-63.6165"/>
</g>
<!-- Node33&#45;&gt;Node17 -->
<g id="edge75" class="edge"><title>Node33&#45;&gt;Node17</title>
<path fill="none" stroke="midnightblue" d="M2644.43,-171.905C2629.06,-170.431 2611.95,-168.962 2596.24,-168 2319.31,-151.043 1622.85,-171.562 1348.24,-132 1313.67,-127.02 1306.59,-118.349 1272.24,-112 1202.86,-99.1741 998.613,-79.7472 905.486,-71.2408"/>
<polygon fill="midnightblue" stroke="midnightblue" points="905.77,-67.7523 895.494,-70.3311 905.136,-74.7235 905.77,-67.7523"/>
</g>
<!-- Node34 -->
<g id="node28" class="node"><title>Node34</title>
<polygon fill="white" stroke="#bfbfbf" points="3281.74,-112.5 3281.74,-131.5 3310.74,-131.5 3310.74,-112.5 3281.74,-112.5"/>
<text text-anchor="middle" x="3296.24" y="-119.5" font-family="Helvetica,sans-Serif" font-size="10.00">list</text>
</g>
<!-- Node33&#45;&gt;Node34 -->
<g id="edge71" class="edge"><title>Node33&#45;&gt;Node34</title>
<path fill="none" stroke="midnightblue" d="M2739.79,-172.582C2756.38,-171.078 2775.13,-169.418 2792.24,-168 3003.23,-150.511 3059.26,-171.627 3267.24,-132 3268.73,-131.716 3270.25,-131.383 3271.77,-131.014"/>
<polygon fill="midnightblue" stroke="midnightblue" points="3272.97,-134.313 3281.65,-128.231 3271.07,-127.575 3272.97,-134.313"/>
</g>
<!-- Node35 -->
<g id="node29" class="node"><title>Node35</title>
<polygon fill="white" stroke="#bfbfbf" points="2961.24,-112.5 2961.24,-131.5 2997.24,-131.5 2997.24,-112.5 2961.24,-112.5"/>
<text text-anchor="middle" x="2979.24" y="-119.5" font-family="Helvetica,sans-Serif" font-size="10.00">map</text>
</g>
<!-- Node33&#45;&gt;Node35 -->
<g id="edge72" class="edge"><title>Node33&#45;&gt;Node35</title>
<path fill="none" stroke="midnightblue" d="M2739.99,-170.027C2791.44,-162.176 2875.58,-148.357 2947.24,-132 2948.51,-131.711 2949.8,-131.403 2951.1,-131.082"/>
<polygon fill="midnightblue" stroke="midnightblue" points="2952.27,-134.393 2961.04,-128.456 2950.48,-127.625 2952.27,-134.393"/>
</g>
<!-- Node36 -->
<g id="node30" class="node"><title>Node36</title>
<polygon fill="white" stroke="#bfbfbf" points="3272.74,-56.5 3272.74,-75.5 3319.74,-75.5 3319.74,-56.5 3272.74,-56.5"/>
<text text-anchor="middle" x="3296.24" y="-63.5" font-family="Helvetica,sans-Serif" font-size="10.00">iterator</text>
</g>
<!-- Node33&#45;&gt;Node36 -->
<g id="edge74" class="edge"><title>Node33&#45;&gt;Node36</title>
<path fill="none" stroke="midnightblue" d="M2740.05,-172.697C2864.85,-161.465 3190.91,-132.111 3191.24,-132 3224.54,-120.885 3258.21,-97.3907 3278.14,-81.9042"/>
<polygon fill="midnightblue" stroke="midnightblue" points="3280.39,-84.5845 3286.04,-75.6212 3276.04,-79.1054 3280.39,-84.5845"/>
</g>
<!-- Node37 -->
<g id="node31" class="node"><title>Node37</title>
<g id="a_node31"><a xlink:href="insertion__operator_8hpp.html" target="_top" xlink:title="insertion operator ">
<polygon fill="white" stroke="red" points="2637.74,-112.5 2637.74,-131.5 2752.74,-131.5 2752.74,-112.5 2637.74,-112.5"/>
<text text-anchor="middle" x="2695.24" y="-119.5" font-family="Helvetica,sans-Serif" font-size="10.00">insertion_operator.hpp</text>
</a>
</g>
</g>
<!-- Node33&#45;&gt;Node37 -->
<g id="edge76" class="edge"><title>Node33&#45;&gt;Node37</title>
<path fill="none" stroke="midnightblue" d="M2692.73,-168.083C2693.13,-161.006 2693.69,-150.861 2694.18,-141.986"/>
<polygon fill="midnightblue" stroke="midnightblue" points="2697.69,-141.93 2694.75,-131.751 2690.7,-141.542 2697.69,-141.93"/>
</g>
<!-- Node37&#45;&gt;Node12 -->
<g id="edge77" class="edge"><title>Node37&#45;&gt;Node12</title>
<path fill="none" stroke="midnightblue" d="M2654.99,-112.444C2606.77,-102.192 2526.59,-85.146 2479.34,-75.101"/>
<polygon fill="midnightblue" stroke="midnightblue" points="2480.01,-71.6645 2469.5,-73.0084 2478.55,-78.5115 2480.01,-71.6645"/>
</g>
<!-- Node39&#45;&gt;Node1 -->
<g id="edge80" class="edge"><title>Node39&#45;&gt;Node1</title>
<path fill="none" stroke="midnightblue" d="M3227.6,-453.758C3318.13,-448.827 3462.73,-437.207 3510.24,-412 3544.18,-393.992 3567.24,-385.423 3567.24,-347 3567.24,-347 3567.24,-347 3567.24,-233 3567.24,-163.234 3529.34,-143.801 3467.24,-112 3362.72,-58.4738 3060.76,-94.9567 2927.52,-75.6945"/>
<polygon fill="midnightblue" stroke="midnightblue" points="2927.88,-72.2084 2917.45,-74.073 2926.77,-79.1192 2927.88,-72.2084"/>
</g>
<!-- Node39&#45;&gt;Node12 -->
<g id="edge79" class="edge"><title>Node39&#45;&gt;Node12</title>
<path fill="none" stroke="midnightblue" d="M3172.5,-448.403C3228.76,-424.093 3377.24,-349.124 3377.24,-235 3377.24,-235 3377.24,-235 3377.24,-177 3377.24,-138.577 3354.82,-128.748 3320.24,-112 3281.93,-93.4461 2644.19,-73.0934 2479.7,-68.1345"/>
<polygon fill="midnightblue" stroke="midnightblue" points="2479.66,-64.6319 2469.56,-67.8303 2479.45,-71.6287 2479.66,-64.6319"/>
</g>
<!-- Node39&#45;&gt;Node29 -->
<g id="edge133" class="edge"><title>Node39&#45;&gt;Node29</title>
<path fill="none" stroke="midnightblue" d="M3075.13,-455.755C2729.63,-449.781 1306.74,-421.588 866.239,-356 767.296,-341.268 740.857,-337.801 648.239,-300 602.151,-281.189 593.795,-269.827 551.239,-244 523.219,-226.995 491.447,-206.561 470.916,-193.202"/>
<polygon fill="midnightblue" stroke="midnightblue" points="472.615,-190.132 462.327,-187.6 468.791,-195.995 472.615,-190.132"/>
</g>
<!-- Node40 -->
<g id="node33" class="node"><title>Node40</title>
<g id="a_node33"><a xlink:href="nearest__centroids_8hpp.html" target="_top" xlink:title="Function for search nearest centroids. ">
<polygon fill="white" stroke="black" points="3385.74,-392.5 3385.74,-411.5 3500.74,-411.5 3500.74,-392.5 3385.74,-392.5"/>
<text text-anchor="middle" x="3443.24" y="-399.5" font-family="Helvetica,sans-Serif" font-size="10.00">nearest_centroids.hpp</text>
</a>
</g>
</g>
<!-- Node39&#45;&gt;Node40 -->
<g id="edge81" class="edge"><title>Node39&#45;&gt;Node40</title>
<path fill="none" stroke="midnightblue" d="M3197.51,-448.444C3248.98,-438.925 3332.13,-423.547 3387.24,-413.356"/>
<polygon fill="midnightblue" stroke="midnightblue" points="3387.99,-416.777 3397.19,-411.516 3386.72,-409.893 3387.99,-416.777"/>
</g>
<!-- Node41 -->
<g id="node34" class="node"><title>Node41</title>
<g id="a_node34"><a xlink:href="unsupervised__measures_8hpp.html" target="_top" xlink:title="Unsupervised measures. ">
<polygon fill="white" stroke="black" points="2295.74,-392.5 2295.74,-411.5 2440.74,-411.5 2440.74,-392.5 2295.74,-392.5"/>
<text text-anchor="middle" x="2368.24" y="-399.5" font-family="Helvetica,sans-Serif" font-size="10.00">unsupervised_measures.hpp</text>
</a>
</g>
</g>
<!-- Node39&#45;&gt;Node41 -->
<g id="edge82" class="edge"><title>Node39&#45;&gt;Node41</title>
<path fill="none" stroke="midnightblue" d="M3075.09,-451.749C2927.55,-441.573 2603.82,-419.247 2451.1,-408.715"/>
<polygon fill="midnightblue" stroke="midnightblue" points="2451.07,-405.204 2440.85,-408.008 2450.58,-412.187 2451.07,-405.204"/>
</g>
<!-- Node41&#45;&gt;Node1 -->
<g id="edge85" class="edge"><title>Node41&#45;&gt;Node1</title>
<path fill="none" stroke="midnightblue" d="M2441.06,-396.007C2510.49,-390.16 2617.61,-378.297 2708.24,-356 2989.5,-286.805 3154.32,-369.414 3320.24,-132 3369.27,-61.8482 3035.77,-90.415 2927.51,-75.6319"/>
<polygon fill="midnightblue" stroke="midnightblue" points="2927.9,-72.1491 2917.47,-74.0056 2926.78,-79.0591 2927.9,-72.1491"/>
</g>
<!-- Node41&#45;&gt;Node2 -->
<g id="edge83" class="edge"><title>Node41&#45;&gt;Node2</title>
<path fill="none" stroke="midnightblue" d="M2440.85,-400.143C2554.84,-397.777 2782.38,-388.935 2972.24,-356 3064.45,-340.003 3087.8,-333.376 3175.24,-300 3227.61,-280.012 3247.45,-282.447 3288.24,-244 3329.96,-204.675 3337.52,-187.411 3352.24,-132 3357.41,-112.521 3354.32,-62.9298 3347.24,-56 3301.99,-11.7401 2851.94,-10.1739 2715.34,-10.73"/>
<polygon fill="midnightblue" stroke="midnightblue" points="2715.3,-7.23009 2705.32,-10.7771 2715.33,-14.23 2715.3,-7.23009"/>
</g>
<!-- Node41&#45;&gt;Node6 -->
<g id="edge88" class="edge"><title>Node41&#45;&gt;Node6</title>
<path fill="none" stroke="midnightblue" d="M2295.6,-400.581C2183.89,-398.786 1963.58,-390.676 1780.24,-356 1529.93,-308.658 1468.27,-283.828 1232.24,-188 1214.19,-180.672 1211.47,-174.867 1193.24,-168 1131.91,-144.898 1106.86,-165.009 1050.24,-132 1029.49,-119.902 1011.26,-98.8305 1000.04,-83.964"/>
<polygon fill="midnightblue" stroke="midnightblue" points="1002.7,-81.677 993.99,-75.6451 997.038,-85.7922 1002.7,-81.677"/>
</g>
<!-- Node41&#45;&gt;Node9 -->
<g id="edge90" class="edge"><title>Node41&#45;&gt;Node9</title>
<path fill="none" stroke="midnightblue" d="M2359.86,-392.091C2327.62,-358.286 2207.34,-236.395 2086.24,-168 2044.38,-144.359 2029.23,-148.931 1984.24,-132 1899.12,-99.9694 1882.35,-78.5404 1794.24,-56 1671.26,-24.5387 1519.62,-14.894 1454.47,-12.0863"/>
<polygon fill="midnightblue" stroke="midnightblue" points="1454.54,-8.58666 1444.41,-11.6784 1454.26,-15.5809 1454.54,-8.58666"/>
</g>
<!-- Node41&#45;&gt;Node10 -->
<g id="edge89" class="edge"><title>Node41&#45;&gt;Node10</title>
<path fill="none" stroke="midnightblue" d="M2295.71,-400.092C2035.38,-396.633 1148.65,-383.099 866.239,-356 712.046,-341.204 674.283,-329.617 522.239,-300 301.69,-257.039 170.205,-362.975 29.2394,-188 -7.56725,-142.314 -11.2058,-99.4288 28.2394,-56 57.6668,-23.6006 366.895,-13.8843 465.326,-11.6011"/>
<polygon fill="midnightblue" stroke="midnightblue" points="465.562,-15.0968 475.482,-11.3748 465.406,-8.09851 465.562,-15.0968"/>
</g>
<!-- Node41&#45;&gt;Node15 -->
<g id="edge87" class="edge"><title>Node41&#45;&gt;Node15</title>
<path fill="none" stroke="midnightblue" d="M2368.01,-392.312C2367.17,-371.748 2363.17,-318.901 2344.24,-280 2302.4,-194.002 2217.23,-114.733 2179.7,-82.3752"/>
<polygon fill="midnightblue" stroke="midnightblue" points="2181.93,-79.6731 2172.04,-75.856 2177.39,-85.0033 2181.93,-79.6731"/>
</g>
<!-- Node41&#45;&gt;Node19 -->
<g id="edge132" class="edge"><title>Node41&#45;&gt;Node19</title>
<path fill="none" stroke="midnightblue" d="M2295.71,-396.414C2169.98,-388.431 1903.4,-371.363 1678.24,-356 1503.54,-344.08 1056.67,-360.226 892.239,-300 838.483,-280.31 840.043,-248.368 788.239,-224 753.601,-207.706 479.163,-162.656 456.239,-132 435.965,-104.888 476.024,-87.7241 515.028,-77.8877"/>
<polygon fill="midnightblue" stroke="midnightblue" points="515.965,-81.2624 524.884,-75.5432 514.345,-74.4524 515.965,-81.2624"/>
</g>
<!-- Node41&#45;&gt;Node20 -->
<g id="edge92" class="edge"><title>Node41&#45;&gt;Node20</title>
<path fill="none" stroke="midnightblue" d="M2295.65,-397.727C2211.19,-392.889 2067.89,-381.479 1947.24,-356 1743,-312.867 1507.33,-223.697 1424.73,-191.194"/>
<polygon fill="midnightblue" stroke="midnightblue" points="1426.01,-187.938 1415.42,-187.518 1423.44,-194.448 1426.01,-187.938"/>
</g>
<!-- Node41&#45;&gt;Node30 -->
<g id="edge117" class="edge"><title>Node41&#45;&gt;Node30</title>
<path fill="none" stroke="midnightblue" d="M2373.52,-392.231C2383.96,-374.043 2406.24,-330.601 2406.24,-291 2406.24,-291 2406.24,-291 2406.24,-233 2406.24,-193.61 2373.17,-157.726 2351.24,-138.264"/>
<polygon fill="midnightblue" stroke="midnightblue" points="2353.36,-135.466 2343.48,-131.636 2348.81,-140.79 2353.36,-135.466"/>
</g>
<!-- Node41&#45;&gt;Node31 -->
<g id="edge106" class="edge"><title>Node41&#45;&gt;Node31</title>
<path fill="none" stroke="midnightblue" d="M2295.3,-398.078C2184.67,-392.887 1984.94,-380.249 1963.24,-356 1924.1,-312.275 1977.88,-281.515 1966.24,-224 1964.35,-214.649 1960.45,-204.827 1956.67,-196.753"/>
<polygon fill="midnightblue" stroke="midnightblue" points="1959.71,-195.011 1952.12,-187.628 1953.45,-198.138 1959.71,-195.011"/>
</g>
<!-- Node41&#45;&gt;Node33 -->
<g id="edge118" class="edge"><title>Node41&#45;&gt;Node33</title>
<path fill="none" stroke="midnightblue" d="M2383.39,-392.372C2398.69,-383.552 2422.91,-369.298 2443.24,-356 2530.7,-298.798 2631.04,-224.792 2672.62,-193.738"/>
<polygon fill="midnightblue" stroke="midnightblue" points="2674.88,-196.414 2680.79,-187.62 2670.69,-190.81 2674.88,-196.414"/>
</g>
<!-- Node41&#45;&gt;Node34 -->
<g id="edge86" class="edge"><title>Node41&#45;&gt;Node34</title>
<path fill="none" stroke="midnightblue" d="M2396.77,-392.452C2535.99,-350.748 3142.41,-169.083 3271.87,-130.301"/>
<polygon fill="midnightblue" stroke="midnightblue" points="3273.06,-133.598 3281.63,-127.375 3271.05,-126.892 3273.06,-133.598"/>
</g>
<!-- Node41&#45;&gt;Node36 -->
<g id="edge84" class="edge"><title>Node41&#45;&gt;Node36</title>
<path fill="none" stroke="midnightblue" d="M2440.76,-400.516C2579.19,-397.634 2889.11,-381.7 3134.24,-300 3245.02,-263.078 3301.27,-243.41 3336.24,-132 3338.9,-123.519 3339.4,-120.309 3336.24,-112 3331.9,-100.598 3323.21,-90.2394 3315.03,-82.343"/>
<polygon fill="midnightblue" stroke="midnightblue" points="3317.28,-79.6595 3307.5,-75.5728 3312.6,-84.8633 3317.28,-79.6595"/>
</g>
<!-- Node42 -->
<g id="node35" class="node"><title>Node42</title>
<polygon fill="white" stroke="#bfbfbf" points="2653.24,-336.5 2653.24,-355.5 2699.24,-355.5 2699.24,-336.5 2653.24,-336.5"/>
<text text-anchor="middle" x="2676.24" y="-343.5" font-family="Helvetica,sans-Serif" font-size="10.00">math.h</text>
</g>
<!-- Node41&#45;&gt;Node42 -->
<g id="edge91" class="edge"><title>Node41&#45;&gt;Node42</title>
<path fill="none" stroke="midnightblue" d="M2427.42,-392.465C2482.47,-384.219 2566.7,-370.825 2639.24,-356 2640.51,-355.739 2641.81,-355.466 2643.12,-355.182"/>
<polygon fill="midnightblue" stroke="midnightblue" points="2644.23,-358.518 2653.21,-352.882 2642.68,-351.694 2644.23,-358.518"/>
</g>
<!-- Node43 -->
<g id="node36" class="node"><title>Node43</title>
<g id="a_node36"><a xlink:href="bit__matrix_8hpp.html" target="_top" xlink:title="bit matrix ">
<polygon fill="white" stroke="red" points="2510.74,-168.5 2510.74,-187.5 2587.74,-187.5 2587.74,-168.5 2510.74,-168.5"/>
<text text-anchor="middle" x="2549.24" y="-175.5" font-family="Helvetica,sans-Serif" font-size="10.00">bit_matrix.hpp</text>
</a>
</g>
</g>
<!-- Node41&#45;&gt;Node43 -->
<g id="edge93" class="edge"><title>Node41&#45;&gt;Node43</title>
<path fill="none" stroke="midnightblue" d="M2379.65,-392.369C2390.65,-383.771 2407.47,-369.884 2420.24,-356 2469.69,-302.23 2517.58,-229.476 2538.39,-196.517"/>
<polygon fill="midnightblue" stroke="midnightblue" points="2541.61,-197.964 2543.95,-187.631 2535.68,-194.25 2541.61,-197.964"/>
</g>
<!-- Node48 -->
<g id="node39" class="node"><title>Node48</title>
<g id="a_node39"><a xlink:href="partition__linked__numinst_8hpp.html" target="_top" xlink:title="Linked partition data structure with number of instances. ">
<polygon fill="white" stroke="black" points="1972.24,-336.5 1972.24,-355.5 2112.24,-355.5 2112.24,-336.5 1972.24,-336.5"/>
<text text-anchor="middle" x="2042.24" y="-343.5" font-family="Helvetica,sans-Serif" font-size="10.00">partition_linked_numinst.hpp</text>
</a>
</g>
</g>
<!-- Node41&#45;&gt;Node48 -->
<g id="edge107" class="edge"><title>Node41&#45;&gt;Node48</title>
<path fill="none" stroke="midnightblue" d="M2316.58,-392.444C2258.76,-382.865 2165.13,-367.356 2103.62,-357.167"/>
<polygon fill="midnightblue" stroke="midnightblue" points="2104.09,-353.698 2093.65,-355.516 2102.95,-360.604 2104.09,-353.698"/>
</g>
<!-- Node49 -->
<g id="node40" class="node"><title>Node49</title>
<g id="a_node40"><a xlink:href="leac__utils_8hpp.html" target="_top" xlink:title="LEAC utils. ">
<polygon fill="white" stroke="red" points="1821.74,-112.5 1821.74,-131.5 1898.74,-131.5 1898.74,-112.5 1821.74,-112.5"/>
<text text-anchor="middle" x="1860.24" y="-119.5" font-family="Helvetica,sans-Serif" font-size="10.00">leac_utils.hpp</text>
</a>
</g>
</g>
<!-- Node41&#45;&gt;Node49 -->
<g id="edge119" class="edge"><title>Node41&#45;&gt;Node49</title>
<path fill="none" stroke="midnightblue" d="M2295.47,-395.775C2228.75,-386.549 2140.24,-361.099 2140.24,-291 2140.24,-291 2140.24,-291 2140.24,-233 2140.24,-183.853 1988.91,-147.518 1908.75,-131.718"/>
<polygon fill="midnightblue" stroke="midnightblue" points="1909.36,-128.271 1898.88,-129.804 1908.03,-135.143 1909.36,-128.271"/>
</g>
<!-- Node51 -->
<g id="node41" class="node"><title>Node51</title>
<g id="a_node41"><a xlink:href="stats__instances_8hpp.html" target="_top" xlink:title="Statistics for instances. ">
<polygon fill="white" stroke="red" points="1241.24,-168.5 1241.24,-187.5 1345.24,-187.5 1345.24,-168.5 1241.24,-168.5"/>
<text text-anchor="middle" x="1293.24" y="-175.5" font-family="Helvetica,sans-Serif" font-size="10.00">stats_instances.hpp</text>
</a>
</g>
</g>
<!-- Node41&#45;&gt;Node51 -->
<g id="edge122" class="edge"><title>Node41&#45;&gt;Node51</title>
<path fill="none" stroke="midnightblue" d="M2295.47,-398.795C2197.45,-394.843 2017.9,-384.134 1867.24,-356 1778.6,-339.448 1758.53,-326.159 1672.24,-300 1545.55,-261.595 1396.12,-212.873 1329.02,-190.809"/>
<polygon fill="midnightblue" stroke="midnightblue" points="1329.94,-187.429 1319.35,-187.627 1327.75,-194.078 1329.94,-187.429"/>
</g>
<!-- Node43&#45;&gt;Node1 -->
<g id="edge97" class="edge"><title>Node43&#45;&gt;Node1</title>
<path fill="none" stroke="midnightblue" d="M2588,-170.256C2592.79,-169.47 2597.63,-168.7 2602.24,-168 2661.87,-158.95 2824.16,-169.691 2871.24,-132 2885.16,-120.857 2891.01,-100.828 2893.46,-85.9381"/>
<polygon fill="midnightblue" stroke="midnightblue" points="2896.96,-86.148 2894.76,-75.7856 2890.02,-85.2625 2896.96,-86.148"/>
</g>
<!-- Node43&#45;&gt;Node2 -->
<g id="edge95" class="edge"><title>Node43&#45;&gt;Node2</title>
<path fill="none" stroke="midnightblue" d="M2587.76,-172.906C2602.6,-171.346 2619.71,-169.566 2635.24,-168 2676.45,-163.845 2978.4,-162.667 3006.24,-132 3021.99,-114.645 3012.34,-75.2799 2990.24,-56 2950.05,-20.9305 2790.87,-13.1684 2715.81,-11.4673"/>
<polygon fill="midnightblue" stroke="midnightblue" points="2715.44,-7.95926 2705.37,-11.2578 2715.3,-14.9579 2715.44,-7.95926"/>
</g>
<!-- Node43&#45;&gt;Node3 -->
<g id="edge96" class="edge"><title>Node43&#45;&gt;Node3</title>
<path fill="none" stroke="midnightblue" d="M2510.59,-176.243C2418.71,-173.94 2180.25,-165.002 1984.24,-132 1949.37,-126.13 1942.06,-118.152 1907.24,-112 1825.15,-97.4951 1576.47,-77.5614 1478.52,-70.0384"/>
<polygon fill="midnightblue" stroke="midnightblue" points="1478.66,-66.5394 1468.42,-69.2663 1478.13,-73.519 1478.66,-66.5394"/>
</g>
<!-- Node43&#45;&gt;Node12 -->
<g id="edge94" class="edge"><title>Node43&#45;&gt;Node12</title>
<path fill="none" stroke="midnightblue" d="M2552.52,-168.123C2556.85,-154.716 2562.69,-129.06 2551.24,-112 2535.27,-88.2108 2504.26,-76.9891 2479.22,-71.7005"/>
<polygon fill="midnightblue" stroke="midnightblue" points="2479.74,-68.2373 2469.27,-69.8351 2478.45,-75.1175 2479.74,-68.2373"/>
</g>
<!-- Node43&#45;&gt;Node30 -->
<g id="edge104" class="edge"><title>Node43&#45;&gt;Node30</title>
<path fill="none" stroke="midnightblue" d="M2514.86,-168.444C2477.32,-159.102 2417.11,-144.119 2376.17,-133.933"/>
<polygon fill="midnightblue" stroke="midnightblue" points="2377.01,-130.535 2366.46,-131.516 2375.32,-137.328 2377.01,-130.535"/>
</g>
<!-- Node47 -->
<g id="node37" class="node"><title>Node47</title>
<g id="a_node37"><a xlink:href="bit__array_8hpp.html" target="_top" xlink:title="bit array ">
<polygon fill="white" stroke="red" points="2469.74,-112.5 2469.74,-131.5 2542.74,-131.5 2542.74,-112.5 2469.74,-112.5"/>
<text text-anchor="middle" x="2506.24" y="-119.5" font-family="Helvetica,sans-Serif" font-size="10.00">bit_array.hpp</text>
</a>
</g>
</g>
<!-- Node43&#45;&gt;Node47 -->
<g id="edge98" class="edge"><title>Node43&#45;&gt;Node47</title>
<path fill="none" stroke="midnightblue" d="M2542.14,-168.083C2536,-160.377 2526.97,-149.033 2519.5,-139.653"/>
<polygon fill="midnightblue" stroke="midnightblue" points="2522.18,-137.394 2513.21,-131.751 2516.7,-141.754 2522.18,-137.394"/>
</g>
<!-- Node46 -->
<g id="node38" class="node"><title>Node46</title>
<polygon fill="white" stroke="#bfbfbf" points="2935.24,-56.5 2935.24,-75.5 2981.24,-75.5 2981.24,-56.5 2935.24,-56.5"/>
<text text-anchor="middle" x="2958.24" y="-63.5" font-family="Helvetica,sans-Serif" font-size="10.00">stdio.h</text>
</g>
<!-- Node43&#45;&gt;Node46 -->
<g id="edge105" class="edge"><title>Node43&#45;&gt;Node46</title>
<path fill="none" stroke="midnightblue" d="M2587.85,-172.624C2674.83,-162.674 2879.65,-138.696 2893.24,-132 2915.74,-120.916 2935.11,-98.945 2946.71,-83.6306"/>
<polygon fill="midnightblue" stroke="midnightblue" points="2949.56,-85.662 2952.61,-75.5156 2943.9,-81.5456 2949.56,-85.662"/>
</g>
<!-- Node47&#45;&gt;Node2 -->
<g id="edge100" class="edge"><title>Node47&#45;&gt;Node2</title>
<path fill="none" stroke="midnightblue" d="M2511.02,-112.175C2518.93,-98.3675 2535.97,-71.6239 2557.24,-56 2581.18,-38.4171 2612.8,-26.8896 2637.43,-19.9076"/>
<polygon fill="midnightblue" stroke="midnightblue" points="2638.43,-23.2624 2647.18,-17.2765 2636.61,-16.5044 2638.43,-23.2624"/>
</g>
<!-- Node47&#45;&gt;Node3 -->
<g id="edge101" class="edge"><title>Node47&#45;&gt;Node3</title>
<path fill="none" stroke="midnightblue" d="M2469.66,-118.044C2445.21,-116.137 2412.31,-113.704 2383.24,-112 2020.4,-90.7358 1929.11,-96.7483 1566.24,-76 1536.95,-74.3253 1503.92,-71.9921 1478.76,-70.1209"/>
<polygon fill="midnightblue" stroke="midnightblue" points="1478.72,-66.6083 1468.48,-69.3506 1478.19,-73.5887 1478.72,-66.6083"/>
</g>
<!-- Node47&#45;&gt;Node12 -->
<g id="edge99" class="edge"><title>Node47&#45;&gt;Node12</title>
<path fill="none" stroke="midnightblue" d="M2495.8,-112.324C2486.09,-104.263 2471.42,-92.0765 2459.74,-82.3695"/>
<polygon fill="midnightblue" stroke="midnightblue" points="2461.8,-79.532 2451.87,-75.8339 2457.33,-84.9163 2461.8,-79.532"/>
</g>
<!-- Node47&#45;&gt;Node17 -->
<g id="edge102" class="edge"><title>Node47&#45;&gt;Node17</title>
<path fill="none" stroke="midnightblue" d="M2469.67,-117.865C2445.22,-115.882 2412.32,-113.431 2383.24,-112 1751.36,-80.9072 1591.87,-111.82 960.239,-76 942.455,-74.9914 922.965,-73.3935 905.83,-71.8222"/>
<polygon fill="midnightblue" stroke="midnightblue" points="905.785,-68.3026 895.502,-70.8527 905.131,-75.272 905.785,-68.3026"/>
</g>
<!-- Node47&#45;&gt;Node46 -->
<g id="edge103" class="edge"><title>Node47&#45;&gt;Node46</title>
<path fill="none" stroke="midnightblue" d="M2542.74,-117.881C2627.44,-110.521 2836.24,-91.6385 2924.97,-75.8971"/>
<polygon fill="midnightblue" stroke="midnightblue" points="2925.74,-79.3142 2934.93,-74.043 2924.46,-72.4325 2925.74,-79.3142"/>
</g>
<!-- Node48&#45;&gt;Node1 -->
<g id="edge109" class="edge"><title>Node48&#45;&gt;Node1</title>
<path fill="none" stroke="midnightblue" d="M2086.48,-336.498C2124.93,-328.615 2181.89,-315.746 2230.24,-300 2252.21,-292.843 2256.12,-286.698 2278.24,-280 2481.96,-218.309 2545.53,-252.925 2748.24,-188 2768.7,-181.448 2771.53,-173.695 2792.24,-168 2862.52,-148.678 3069.61,-186.292 3118.24,-132 3160.13,-85.2249 3206.81,-141.772 2927.59,-76.1366"/>
<polygon fill="midnightblue" stroke="midnightblue" points="2928.06,-72.6504 2917.52,-73.7499 2926.44,-79.4617 2928.06,-72.6504"/>
</g>
<!-- Node48&#45;&gt;Node2 -->
<g id="edge108" class="edge"><title>Node48&#45;&gt;Node2</title>
<path fill="none" stroke="midnightblue" d="M2112.37,-345.015C2257.11,-344.219 2599.19,-338.059 2883.24,-300 2999.97,-284.36 3029.93,-279.448 3142.24,-244 3237.18,-214.034 3296.18,-223.146 3336.24,-132 3344.21,-113.874 3341.28,-67.3906 3329.24,-56 3284.63,-13.8023 2849.84,-10.7819 2715.55,-10.8642"/>
<polygon fill="midnightblue" stroke="midnightblue" points="2715.31,-7.36438 2705.31,-10.877 2715.31,-14.3644 2715.31,-7.36438"/>
</g>
<!-- Node48&#45;&gt;Node5 -->
<g id="edge114" class="edge"><title>Node48&#45;&gt;Node5</title>
<path fill="none" stroke="midnightblue" d="M1971.98,-341.519C1771.9,-331.607 1201.44,-303.346 1013.28,-294.024"/>
<polygon fill="midnightblue" stroke="midnightblue" points="1013.18,-290.515 1003.02,-293.516 1012.83,-297.506 1013.18,-290.515"/>
</g>
<!-- Node48&#45;&gt;Node7 -->
<g id="edge112" class="edge"><title>Node48&#45;&gt;Node7</title>
<path fill="none" stroke="midnightblue" d="M1972.05,-344.376C1707.22,-341.793 780.911,-330.6 726.239,-300 708.204,-289.906 696.382,-268.716 689.78,-253.265"/>
<polygon fill="midnightblue" stroke="midnightblue" points="692.937,-251.727 686.031,-243.692 686.419,-254.28 692.937,-251.727"/>
</g>
<!-- Node48&#45;&gt;Node17 -->
<g id="edge113" class="edge"><title>Node48&#45;&gt;Node17</title>
<path fill="none" stroke="midnightblue" d="M1971.8,-344.55C1713.07,-342.637 823.878,-333.653 701.239,-300 637.578,-282.531 485.143,-191.351 456.239,-132 452.348,-124.008 450.314,-118.626 456.239,-112 479.525,-85.9624 709.43,-73.2161 810.727,-68.8287"/>
<polygon fill="midnightblue" stroke="midnightblue" points="811.141,-72.3144 820.984,-68.3941 810.844,-65.3207 811.141,-72.3144"/>
</g>
<!-- Node48&#45;&gt;Node19 -->
<g id="edge116" class="edge"><title>Node48&#45;&gt;Node19</title>
<path fill="none" stroke="midnightblue" d="M1972.05,-337.854C1797.8,-319.477 1331.88,-266.453 949.239,-188 855.034,-168.685 831.567,-162.116 740.239,-132 691.747,-116.009 636.837,-93.4577 604.175,-79.557"/>
<polygon fill="midnightblue" stroke="midnightblue" points="605.356,-76.2551 594.785,-75.5375 602.601,-82.6903 605.356,-76.2551"/>
</g>
<!-- Node48&#45;&gt;Node31 -->
<g id="edge111" class="edge"><title>Node48&#45;&gt;Node31</title>
<path fill="none" stroke="midnightblue" d="M2040.76,-336.393C2036.85,-315.557 2024.77,-261.366 1999.24,-224 1991.14,-212.14 1979.16,-201.489 1968.75,-193.529"/>
<polygon fill="midnightblue" stroke="midnightblue" points="1970.63,-190.569 1960.49,-187.509 1966.51,-196.227 1970.63,-190.569"/>
</g>
<!-- Node48&#45;&gt;Node33 -->
<g id="edge115" class="edge"><title>Node48&#45;&gt;Node33</title>
<path fill="none" stroke="midnightblue" d="M2074.15,-336.459C2104.73,-328.032 2152.04,-314.361 2192.24,-300 2214,-292.225 2218.21,-286.991 2240.24,-280 2379.2,-235.897 2548.07,-203.6 2634.76,-188.511"/>
<polygon fill="midnightblue" stroke="midnightblue" points="2635.41,-191.951 2644.67,-186.8 2634.22,-185.053 2635.41,-191.951"/>
</g>
<!-- Node48&#45;&gt;Node36 -->
<g id="edge110" class="edge"><title>Node48&#45;&gt;Node36</title>
<path fill="none" stroke="midnightblue" d="M2112.46,-344.627C2356.7,-341.702 3162.76,-317.897 3320.24,-132 3332.09,-118.014 3321.33,-97.6491 3310.68,-83.4539"/>
<polygon fill="midnightblue" stroke="midnightblue" points="3313.27,-81.0977 3304.26,-75.5249 3307.83,-85.5006 3313.27,-81.0977"/>
</g>
<!-- Node49&#45;&gt;Node6 -->
<g id="edge120" class="edge"><title>Node49&#45;&gt;Node6</title>
<path fill="none" stroke="midnightblue" d="M1821.32,-116.535C1806.58,-114.947 1789.65,-113.247 1774.24,-112 1479.17,-88.1271 1120.78,-72.4389 1017.41,-68.174"/>
<polygon fill="midnightblue" stroke="midnightblue" points="1017.55,-64.6766 1007.41,-67.7642 1017.26,-71.6707 1017.55,-64.6766"/>
</g>
<!-- Node49&#45;&gt;Node9 -->
<g id="edge121" class="edge"><title>Node49&#45;&gt;Node9</title>
<path fill="none" stroke="midnightblue" d="M1850.39,-112.304C1833.49,-97.916 1797.27,-69.4177 1761.24,-56 1654.17,-16.1279 1516.5,-10.7726 1454.75,-10.5711"/>
<polygon fill="midnightblue" stroke="midnightblue" points="1454.46,-7.07132 1444.47,-10.5841 1454.47,-14.0713 1454.46,-7.07132"/>
</g>
<!-- Node51&#45;&gt;Node1 -->
<g id="edge123" class="edge"><title>Node51&#45;&gt;Node1</title>
<path fill="none" stroke="midnightblue" d="M1345.43,-168.873C1348.41,-168.543 1351.36,-168.247 1354.24,-168 1513.81,-154.286 2642.26,-179.434 2795.24,-132 2812.25,-126.725 2851.55,-99.1894 2875.51,-81.6916"/>
<polygon fill="midnightblue" stroke="midnightblue" points="2877.88,-84.2912 2883.86,-75.5442 2873.73,-78.6538 2877.88,-84.2912"/>
</g>
<!-- Node51&#45;&gt;Node2 -->
<g id="edge127" class="edge"><title>Node51&#45;&gt;Node2</title>
<path fill="none" stroke="midnightblue" d="M1345.43,-168.875C1348.41,-168.544 1351.36,-168.248 1354.24,-168 1393.19,-164.641 2733.95,-159.996 2761.24,-132 2794.63,-97.7425 2734.37,-49.2444 2699.11,-25.3897"/>
<polygon fill="midnightblue" stroke="midnightblue" points="2700.61,-22.1909 2690.34,-19.6128 2696.76,-28.0366 2700.61,-22.1909"/>
</g>
<!-- Node51&#45;&gt;Node3 -->
<g id="edge125" class="edge"><title>Node51&#45;&gt;Node3</title>
<path fill="none" stroke="midnightblue" d="M1261.91,-168.436C1227.96,-157.63 1181.26,-137.356 1202.24,-112 1226.62,-82.5315 1337.18,-72.1904 1397.94,-68.6948"/>
<polygon fill="midnightblue" stroke="midnightblue" points="1398.16,-72.1881 1407.96,-68.1545 1397.78,-65.1983 1398.16,-72.1881"/>
</g>
<!-- Node51&#45;&gt;Node6 -->
<g id="edge128" class="edge"><title>Node51&#45;&gt;Node6</title>
<path fill="none" stroke="midnightblue" d="M1240.84,-170.099C1199.63,-163.523 1141.34,-151.65 1093.24,-132 1061.08,-118.864 1027.57,-96.3186 1007.3,-81.5364"/>
<polygon fill="midnightblue" stroke="midnightblue" points="1009.33,-78.6876 999.218,-75.5395 1005.16,-84.3091 1009.33,-78.6876"/>
</g>
<!-- Node51&#45;&gt;Node9 -->
<g id="edge124" class="edge"><title>Node51&#45;&gt;Node9</title>
<path fill="none" stroke="midnightblue" d="M1254.95,-168.419C1219.56,-158.551 1174.98,-140.014 1193.24,-112 1237.31,-44.402 1337.95,-21.7283 1389.89,-14.3732"/>
<polygon fill="midnightblue" stroke="midnightblue" points="1390.44,-17.8314 1399.9,-13.0615 1389.53,-10.8908 1390.44,-17.8314"/>
</g>
<!-- Node51&#45;&gt;Node10 -->
<g id="edge126" class="edge"><title>Node51&#45;&gt;Node10</title>
<path fill="none" stroke="midnightblue" d="M1272.06,-168.378C1250.23,-159.445 1215.25,-144.997 1185.24,-132 1109.67,-99.2701 1095.95,-76.7249 1016.24,-56 922.221,-31.5537 621.313,-16.5327 525.113,-12.2621"/>
<polygon fill="midnightblue" stroke="midnightblue" points="525.07,-8.75699 514.927,-11.8164 524.764,-15.7503 525.07,-8.75699"/>
</g>
<!-- Node51&#45;&gt;Node17 -->
<g id="edge130" class="edge"><title>Node51&#45;&gt;Node17</title>
<path fill="none" stroke="midnightblue" d="M1241.1,-169.56C1191.56,-161.972 1115.22,-148.922 1050.24,-132 992.561,-116.979 927.164,-93.3831 889.506,-79.1331"/>
<polygon fill="midnightblue" stroke="midnightblue" points="890.692,-75.8394 880.101,-75.5496 888.199,-82.3807 890.692,-75.8394"/>
</g>
<!-- Node51&#45;&gt;Node19 -->
<g id="edge131" class="edge"><title>Node51&#45;&gt;Node19</title>
<path fill="none" stroke="midnightblue" d="M1241.2,-169.709C1179.41,-160.995 1073.25,-145.852 982.239,-132 859.87,-113.376 717.041,-90.2428 637.276,-77.1976"/>
<polygon fill="midnightblue" stroke="midnightblue" points="637.355,-73.664 626.921,-75.5028 636.224,-80.5721 637.355,-73.664"/>
</g>
<!-- Node51&#45;&gt;Node25 -->
<g id="edge129" class="edge"><title>Node51&#45;&gt;Node25</title>
<path fill="none" stroke="midnightblue" d="M1345.47,-169.234C1348.44,-168.812 1351.38,-168.398 1354.24,-168 1446.62,-155.161 1553.07,-141.44 1623.01,-132.57"/>
<polygon fill="midnightblue" stroke="midnightblue" points="1623.58,-136.027 1633.06,-131.298 1622.7,-129.082 1623.58,-136.027"/>
</g>
<!-- Node62&#45;&gt;Node1 -->
<g id="edge137" class="edge"><title>Node62&#45;&gt;Node1</title>
<path fill="none" stroke="midnightblue" d="M1279.25,-518.688C1618.01,-519.611 3529.24,-519.651 3529.24,-403 3529.24,-403 3529.24,-403 3529.24,-289 3529.24,-172.612 3442.75,-158.914 3336.24,-112 3171.86,-39.5992 3108.34,-107.128 2927.56,-75.8439"/>
<polygon fill="midnightblue" stroke="midnightblue" points="2927.93,-72.3531 2917.47,-74.0153 2926.68,-79.2411 2927.93,-72.3531"/>
</g>
<!-- Node62&#45;&gt;Node3 -->
<g id="edge139" class="edge"><title>Node62&#45;&gt;Node3</title>
<path fill="none" stroke="midnightblue" d="M1176.99,-511.076C1118.62,-499.386 1031.24,-470.597 1031.24,-403 1031.24,-403 1031.24,-403 1031.24,-177 1031.24,-101.547 1295.21,-76.2815 1397.98,-69.3043"/>
<polygon fill="midnightblue" stroke="midnightblue" points="1398.23,-72.7955 1407.98,-68.6489 1397.77,-65.8105 1398.23,-72.7955"/>
</g>
<!-- Node62&#45;&gt;Node4 -->
<g id="edge154" class="edge"><title>Node62&#45;&gt;Node4</title>
<path fill="none" stroke="midnightblue" d="M1176.98,-516.812C1131.31,-513.003 1064.57,-501.541 1017.24,-468 980.32,-441.834 956.607,-392.156 945.888,-365.311"/>
<polygon fill="midnightblue" stroke="midnightblue" points="949.031,-363.732 942.196,-355.637 942.491,-366.228 949.031,-363.732"/>
</g>
<!-- Node62&#45;&gt;Node6 -->
<g id="edge138" class="edge"><title>Node62&#45;&gt;Node6</title>
<path fill="none" stroke="midnightblue" d="M1177.07,-516.83C1045.58,-509.31 699.195,-468.168 599.239,-244 566.729,-171.09 863.717,-95.6926 959.247,-73.5034"/>
<polygon fill="midnightblue" stroke="midnightblue" points="960.152,-76.8868 969.113,-71.2352 958.583,-70.0648 960.152,-76.8868"/>
</g>
<!-- Node62&#45;&gt;Node7 -->
<g id="edge152" class="edge"><title>Node62&#45;&gt;Node7</title>
<path fill="none" stroke="midnightblue" d="M1177.06,-514.939C1121.48,-509.715 1030.92,-497.194 958.239,-468 831.61,-417.138 781.744,-410.185 701.239,-300 691.417,-286.557 686.953,-267.995 684.925,-254.147"/>
<polygon fill="midnightblue" stroke="midnightblue" points="688.359,-253.371 683.73,-243.84 681.405,-254.177 688.359,-253.371"/>
</g>
<!-- Node62&#45;&gt;Node12 -->
<g id="edge135" class="edge"><title>Node62&#45;&gt;Node12</title>
<path fill="none" stroke="midnightblue" d="M1279.42,-517.049C1529.7,-509.416 2616.38,-469.848 2708.24,-356 2713.82,-349.082 2712.9,-343.572 2708.24,-336 2660.76,-258.796 2592.77,-305.554 2526.24,-244 2477.92,-199.295 2454.13,-121.324 2445.36,-85.7082"/>
<polygon fill="midnightblue" stroke="midnightblue" points="2448.71,-84.6696 2443.03,-75.7288 2441.9,-86.263 2448.71,-84.6696"/>
</g>
<!-- Node62&#45;&gt;Node19 -->
<g id="edge174" class="edge"><title>Node62&#45;&gt;Node19</title>
<path fill="none" stroke="midnightblue" d="M1177.21,-519.07C1022.91,-520.203 563.315,-519.089 424.239,-468 311.55,-426.604 165.335,-209.885 157.239,-188 154.155,-179.663 151.872,-175.086 157.239,-168 199.828,-111.773 407.279,-83.5235 513.014,-72.5838"/>
<polygon fill="midnightblue" stroke="midnightblue" points="513.633,-76.0391 523.229,-71.5482 512.927,-69.0748 513.633,-76.0391"/>
</g>
<!-- Node62&#45;&gt;Node20 -->
<g id="edge151" class="edge"><title>Node62&#45;&gt;Node20</title>
<path fill="none" stroke="midnightblue" d="M1256.82,-504.485C1289.71,-486.115 1339.24,-450.557 1339.24,-403 1339.24,-403 1339.24,-403 1339.24,-345 1339.24,-288.511 1368.29,-226.446 1384.17,-196.751"/>
<polygon fill="midnightblue" stroke="midnightblue" points="1387.41,-198.109 1389.16,-187.659 1381.28,-194.737 1387.41,-198.109"/>
</g>
<!-- Node62&#45;&gt;Node25 -->
<g id="edge153" class="edge"><title>Node62&#45;&gt;Node25</title>
<path fill="none" stroke="midnightblue" d="M1263.53,-504.327C1284.11,-495.311 1310.1,-482.602 1331.24,-468 1485.16,-361.68 1638.43,-192.587 1684.97,-139.501"/>
<polygon fill="midnightblue" stroke="midnightblue" points="1687.8,-141.583 1691.73,-131.745 1682.52,-136.983 1687.8,-141.583"/>
</g>
<!-- Node62&#45;&gt;Node39 -->
<g id="edge169" class="edge"><title>Node62&#45;&gt;Node39</title>
<path fill="none" stroke="midnightblue" d="M1279.59,-517.587C1538.31,-512.91 2700.64,-490.967 3061.24,-468 3062.52,-467.919 3063.81,-467.833 3065.1,-467.744"/>
<polygon fill="midnightblue" stroke="midnightblue" points="3065.45,-471.228 3075.16,-466.997 3064.93,-464.247 3065.45,-471.228"/>
</g>
<!-- Node62&#45;&gt;Node47 -->
<g id="edge160" class="edge"><title>Node62&#45;&gt;Node47</title>
<path fill="none" stroke="midnightblue" d="M1279.35,-517.76C1540.58,-513.863 2715.26,-494.861 2741.24,-468 2782.03,-425.83 2769.83,-387.227 2741.24,-336 2680.16,-226.575 2562.32,-297.425 2501.24,-188 2493.32,-173.808 2495.86,-155.083 2499.61,-141.378"/>
<polygon fill="midnightblue" stroke="midnightblue" points="2503.01,-142.236 2502.71,-131.645 2496.34,-140.113 2503.01,-142.236"/>
</g>
<!-- Node62&#45;&gt;Node46 -->
<g id="edge136" class="edge"><title>Node62&#45;&gt;Node46</title>
<path fill="none" stroke="midnightblue" d="M1279.28,-518.145C1583.44,-515.919 3151.08,-502.821 3362.24,-468 3535.47,-439.434 3681.24,-410.57 3681.24,-235 3681.24,-235 3681.24,-235 3681.24,-177 3681.24,-123.992 3631.49,-128.888 3581.24,-112 3525.18,-93.1569 3112.21,-73.7486 2991.37,-68.4234"/>
<polygon fill="midnightblue" stroke="midnightblue" points="2991.38,-64.921 2981.24,-67.9802 2991.08,-71.9143 2991.38,-64.921"/>
</g>
<!-- Node62&#45;&gt;Node51 -->
<g id="edge161" class="edge"><title>Node62&#45;&gt;Node51</title>
<path fill="none" stroke="midnightblue" d="M1238.84,-504.405C1253.52,-483.454 1278.24,-442.331 1278.24,-403 1278.24,-403 1278.24,-403 1278.24,-289 1278.24,-256.502 1284.75,-219.095 1289.19,-197.343"/>
<polygon fill="midnightblue" stroke="midnightblue" points="1292.62,-198.013 1291.28,-187.504 1285.78,-196.559 1292.62,-198.013"/>
</g>
<!-- Node63 -->
<g id="node43" class="node"><title>Node63</title>
<polygon fill="white" stroke="#bfbfbf" points="465.239,-112.5 465.239,-131.5 547.239,-131.5 547.239,-112.5 465.239,-112.5"/>
<text text-anchor="middle" x="506.239" y="-119.5" font-family="Helvetica,sans-Serif" font-size="10.00">unordered_set</text>
</g>
<!-- Node62&#45;&gt;Node63 -->
<g id="edge140" class="edge"><title>Node62&#45;&gt;Node63</title>
<path fill="none" stroke="midnightblue" d="M1177.09,-517.17C989.938,-511.634 353.239,-486.653 353.239,-403 353.239,-403 353.239,-403 353.239,-289 353.239,-228.574 372.208,-210.422 415.239,-168 430.171,-153.28 450.878,-142.523 468.767,-135.224"/>
<polygon fill="midnightblue" stroke="midnightblue" points="470.291,-138.388 478.361,-131.522 467.771,-131.857 470.291,-138.388"/>
</g>
<!-- Node64 -->
<g id="node44" class="node"><title>Node64</title>
<g id="a_node44"><a xlink:href="random__ext_8hpp.html" target="_top" xlink:title="Operation for the generation of pseudo random numbers. ">
<polygon fill="white" stroke="black" points="1993.24,-112.5 1993.24,-131.5 2081.24,-131.5 2081.24,-112.5 1993.24,-112.5"/>
<text text-anchor="middle" x="2037.24" y="-119.5" font-family="Helvetica,sans-Serif" font-size="10.00">random_ext.hpp</text>
</a>
</g>
</g>
<!-- Node62&#45;&gt;Node64 -->
<g id="edge141" class="edge"><title>Node62&#45;&gt;Node64</title>
<path fill="none" stroke="midnightblue" d="M1279.32,-516.242C1397.79,-509.616 1681.24,-485.176 1681.24,-403 1681.24,-403 1681.24,-403 1681.24,-233 1681.24,-170.6 1883.42,-139.779 1983.05,-128.379"/>
<polygon fill="midnightblue" stroke="midnightblue" points="1983.68,-131.83 1993.23,-127.241 1982.9,-124.873 1983.68,-131.83"/>
</g>
<!-- Node67 -->
<g id="node47" class="node"><title>Node67</title>
<g id="a_node47"><a xlink:href="instance__frequency_8hpp.html" target="_top" xlink:title="instance with frequency ">
<polygon fill="white" stroke="black" points="165.239,-448.5 165.239,-467.5 287.239,-467.5 287.239,-448.5 165.239,-448.5"/>
<text text-anchor="middle" x="226.239" y="-455.5" font-family="Helvetica,sans-Serif" font-size="10.00">instance_frequency.hpp</text>
</a>
</g>
</g>
<!-- Node62&#45;&gt;Node67 -->
<g id="edge149" class="edge"><title>Node62&#45;&gt;Node67</title>
<path fill="none" stroke="midnightblue" d="M1177.16,-516.884C1036.99,-512.198 634.618,-497.052 301.239,-468 300.129,-467.903 299.009,-467.803 297.883,-467.7"/>
<polygon fill="midnightblue" stroke="midnightblue" points="297.894,-464.184 287.601,-466.693 297.212,-471.151 297.894,-464.184"/>
</g>
<!-- Node68 -->
<g id="node48" class="node"><title>Node68</title>
<g id="a_node48"><a xlink:href="partition__disjsets_8hpp.html" target="_top" xlink:title="Partition based on structure of disjoint joint data. ">
<polygon fill="white" stroke="red" points="735.739,-280.5 735.739,-299.5 844.739,-299.5 844.739,-280.5 735.739,-280.5"/>
<text text-anchor="middle" x="790.239" y="-287.5" font-family="Helvetica,sans-Serif" font-size="10.00">partition_disjsets.hpp</text>
</a>
</g>
</g>
<!-- Node62&#45;&gt;Node68 -->
<g id="edge155" class="edge"><title>Node62&#45;&gt;Node68</title>
<path fill="none" stroke="midnightblue" d="M1177.21,-514.947C1127.89,-509.845 1052.19,-497.529 993.239,-468 910.377,-426.493 834.139,-343.158 803.938,-307.645"/>
<polygon fill="midnightblue" stroke="midnightblue" points="806.383,-305.114 797.276,-299.701 801.02,-309.612 806.383,-305.114"/>
</g>
<!-- Node70 -->
<g id="node49" class="node"><title>Node70</title>
<g id="a_node49"><a xlink:href="probability__selection_8hpp.html" target="_top" xlink:title="probability selection ">
<polygon fill="white" stroke="red" points="1059.74,-168.5 1059.74,-187.5 1184.74,-187.5 1184.74,-168.5 1059.74,-168.5"/>
<text text-anchor="middle" x="1122.24" y="-175.5" font-family="Helvetica,sans-Serif" font-size="10.00">probability_selection.hpp</text>
</a>
</g>
</g>
<!-- Node62&#45;&gt;Node70 -->
<g id="edge162" class="edge"><title>Node62&#45;&gt;Node70</title>
<path fill="none" stroke="midnightblue" d="M1208.1,-504.214C1182.96,-484.545 1143.24,-446.569 1143.24,-403 1143.24,-403 1143.24,-403 1143.24,-289 1143.24,-256.384 1134.22,-219.278 1128,-197.573"/>
<polygon fill="midnightblue" stroke="midnightblue" points="1131.28,-196.316 1125.07,-187.732 1124.57,-198.315 1131.28,-196.316"/>
</g>
<!-- Node72 -->
<g id="node50" class="node"><title>Node72</title>
<g id="a_node50"><a xlink:href="partition__label_8hpp.html" target="_top" xlink:title="Partition based on the label of the instances. ">
<polygon fill="white" stroke="red" points="1861.24,-224.5 1861.24,-243.5 1957.24,-243.5 1957.24,-224.5 1861.24,-224.5"/>
<text text-anchor="middle" x="1909.24" y="-231.5" font-family="Helvetica,sans-Serif" font-size="10.00">partition_label.hpp</text>
</a>
</g>
</g>
<!-- Node62&#45;&gt;Node72 -->
<g id="edge170" class="edge"><title>Node62&#45;&gt;Node72</title>
<path fill="none" stroke="midnightblue" d="M1279.54,-517.735C1366.43,-515.384 1547.53,-505.914 1695.24,-468 1767.99,-449.326 1851.24,-478.111 1851.24,-403 1851.24,-403 1851.24,-403 1851.24,-345 1851.24,-308.163 1877,-271.565 1894.19,-251.251"/>
<polygon fill="midnightblue" stroke="midnightblue" points="1896.95,-253.41 1900.93,-243.589 1891.7,-248.786 1896.95,-253.41"/>
</g>
<!-- Node64&#45;&gt;Node1 -->
<g id="edge146" class="edge"><title>Node64&#45;&gt;Node1</title>
<path fill="none" stroke="midnightblue" d="M2081.26,-118.229C2232.76,-108.694 2730.51,-77.3675 2862.74,-69.0453"/>
<polygon fill="midnightblue" stroke="midnightblue" points="2863.25,-72.5202 2873.01,-68.3989 2862.81,-65.5341 2863.25,-72.5202"/>
</g>
<!-- Node64&#45;&gt;Node2 -->
<g id="edge142" class="edge"><title>Node64&#45;&gt;Node2</title>
<path fill="none" stroke="midnightblue" d="M2046.18,-112.338C2061.89,-97.7322 2096.12,-68.569 2131.24,-56 2224.56,-22.6018 2528.2,-13.7485 2637,-11.6191"/>
<polygon fill="midnightblue" stroke="midnightblue" points="2637.28,-15.1147 2647.21,-11.4281 2637.15,-8.11595 2637.28,-15.1147"/>
</g>
<!-- Node64&#45;&gt;Node13 -->
<g id="edge148" class="edge"><title>Node64&#45;&gt;Node13</title>
<path fill="none" stroke="midnightblue" d="M1992.94,-113.897C1988.32,-113.224 1983.69,-112.579 1979.24,-112 1830.93,-92.6998 1789.43,-102.653 1638.97,-76.0898"/>
<polygon fill="midnightblue" stroke="midnightblue" points="1639.36,-72.6041 1628.9,-74.2866 1638.13,-79.4945 1639.36,-72.6041"/>
</g>
<!-- Node64&#45;&gt;Node15 -->
<g id="edge147" class="edge"><title>Node64&#45;&gt;Node15</title>
<path fill="none" stroke="midnightblue" d="M2056.89,-112.444C2077.2,-103.596 2109.14,-89.6875 2132.34,-79.5865"/>
<polygon fill="midnightblue" stroke="midnightblue" points="2133.91,-82.7181 2141.68,-75.5164 2131.12,-76.3002 2133.91,-82.7181"/>
</g>
<!-- Node64&#45;&gt;Node36 -->
<g id="edge144" class="edge"><title>Node64&#45;&gt;Node36</title>
<path fill="none" stroke="midnightblue" d="M2081.31,-119.11C2279.54,-110.608 3086.52,-75.9951 3262.32,-68.4548"/>
<polygon fill="midnightblue" stroke="midnightblue" points="3262.68,-71.9427 3272.52,-68.0173 3262.38,-64.9491 3262.68,-71.9427"/>
</g>
<!-- Node65 -->
<g id="node45" class="node"><title>Node65</title>
<polygon fill="white" stroke="#bfbfbf" points="2024.74,-56.5 2024.74,-75.5 2083.74,-75.5 2083.74,-56.5 2024.74,-56.5"/>
<text text-anchor="middle" x="2054.24" y="-63.5" font-family="Helvetica,sans-Serif" font-size="10.00">functional</text>
</g>
<!-- Node64&#45;&gt;Node65 -->
<g id="edge143" class="edge"><title>Node64&#45;&gt;Node65</title>
<path fill="none" stroke="midnightblue" d="M2040.05,-112.083C2042.32,-104.849 2045.61,-94.4087 2048.45,-85.3968"/>
<polygon fill="midnightblue" stroke="midnightblue" points="2051.82,-86.3406 2051.48,-75.7511 2045.14,-84.2385 2051.82,-86.3406"/>
</g>
<!-- Node66 -->
<g id="node46" class="node"><title>Node66</title>
<polygon fill="white" stroke="#bfbfbf" points="1955.74,-56.5 1955.74,-75.5 2006.74,-75.5 2006.74,-56.5 1955.74,-56.5"/>
<text text-anchor="middle" x="1981.24" y="-63.5" font-family="Helvetica,sans-Serif" font-size="10.00">random</text>
</g>
<!-- Node64&#45;&gt;Node66 -->
<g id="edge145" class="edge"><title>Node64&#45;&gt;Node66</title>
<path fill="none" stroke="midnightblue" d="M2028.24,-112.324C2020.04,-104.42 2007.73,-92.5482 1997.77,-82.9377"/>
<polygon fill="midnightblue" stroke="midnightblue" points="2000.03,-80.2558 1990.4,-75.8339 1995.17,-85.2947 2000.03,-80.2558"/>
</g>
<!-- Node67&#45;&gt;Node8 -->
<g id="edge150" class="edge"><title>Node67&#45;&gt;Node8</title>
<path fill="none" stroke="midnightblue" d="M219.565,-448.435C206.376,-430.623 178.239,-387.839 178.239,-347 178.239,-347 178.239,-347 178.239,-289 178.239,-244.223 132.175,-210.325 101.36,-192.658"/>
<polygon fill="midnightblue" stroke="midnightblue" points="102.803,-189.457 92.3548,-187.702 99.4284,-195.59 102.803,-189.457"/>
</g>
<!-- Node68&#45;&gt;Node7 -->
<g id="edge158" class="edge"><title>Node68&#45;&gt;Node7</title>
<path fill="none" stroke="midnightblue" d="M773.048,-280.324C755.889,-271.664 729.294,-258.242 709.492,-248.249"/>
<polygon fill="midnightblue" stroke="midnightblue" points="710.893,-245.035 700.388,-243.655 707.739,-251.285 710.893,-245.035"/>
</g>
<!-- Node68&#45;&gt;Node19 -->
<g id="edge159" class="edge"><title>Node68&#45;&gt;Node19</title>
<path fill="none" stroke="midnightblue" d="M789.686,-280.299C788.293,-266.165 783.399,-238.358 766.239,-224 696.3,-165.481 651.95,-212.957 564.239,-188 531.812,-178.773 442.175,-159.894 423.239,-132 397.95,-94.7449 460.746,-78.7403 513.16,-71.932"/>
<polygon fill="midnightblue" stroke="midnightblue" points="513.63,-75.4007 523.138,-70.727 512.791,-68.4512 513.63,-75.4007"/>
</g>
<!-- Node68&#45;&gt;Node31 -->
<g id="edge157" class="edge"><title>Node68&#45;&gt;Node31</title>
<path fill="none" stroke="midnightblue" d="M844.902,-282.033C945.948,-269.311 1168.85,-241.976 1357.24,-224 1560.5,-204.605 1803.78,-188.201 1902.42,-181.834"/>
<polygon fill="midnightblue" stroke="midnightblue" points="1902.86,-185.313 1912.62,-181.179 1902.42,-178.328 1902.86,-185.313"/>
</g>
<!-- Node68&#45;&gt;Node35 -->
<g id="edge156" class="edge"><title>Node68&#45;&gt;Node35</title>
<path fill="none" stroke="midnightblue" d="M831.776,-280.483C900.88,-266.615 1043.96,-239.18 1166.24,-224 1329.24,-203.765 1739.25,-177.308 1903.24,-168 2328.63,-143.855 2435.85,-156.206 2861.24,-132 2891.83,-130.259 2926.84,-127.492 2950.72,-125.485"/>
<polygon fill="midnightblue" stroke="midnightblue" points="2951.19,-128.958 2960.86,-124.623 2950.6,-121.983 2951.19,-128.958"/>
</g>
<!-- Node70&#45;&gt;Node2 -->
<g id="edge165" class="edge"><title>Node70&#45;&gt;Node2</title>
<path fill="none" stroke="midnightblue" d="M1185.02,-171.271C1200.45,-170.026 1216.93,-168.834 1232.24,-168 1305.44,-164.01 2483.67,-160.426 2551.24,-132 2603.27,-110.113 2645.94,-55.7028 2665.2,-27.9149"/>
<polygon fill="midnightblue" stroke="midnightblue" points="2668.12,-29.8445 2670.81,-19.5972 2662.32,-25.9295 2668.12,-29.8445"/>
</g>
<!-- Node70&#45;&gt;Node6 -->
<g id="edge164" class="edge"><title>Node70&#45;&gt;Node6</title>
<path fill="none" stroke="midnightblue" d="M1059.6,-172.764C1002,-167.409 922.679,-155.84 903.239,-132 883.324,-107.576 927.128,-86.979 958.948,-75.862"/>
<polygon fill="midnightblue" stroke="midnightblue" points="960.38,-79.0738 968.762,-72.5928 958.168,-72.4326 960.38,-79.0738"/>
</g>
<!-- Node70&#45;&gt;Node19 -->
<g id="edge167" class="edge"><title>Node70&#45;&gt;Node19</title>
<path fill="none" stroke="midnightblue" d="M1059.47,-169.296C999.529,-161.499 906.798,-148.285 827.239,-132 751.043,-116.403 663.376,-92.3916 614.118,-78.3341"/>
<polygon fill="midnightblue" stroke="midnightblue" points="615.077,-74.9683 604.5,-75.5764 613.148,-81.6972 615.077,-74.9683"/>
</g>
<!-- Node70&#45;&gt;Node37 -->
<g id="edge168" class="edge"><title>Node70&#45;&gt;Node37</title>
<path fill="none" stroke="midnightblue" d="M1185.02,-171.263C1200.45,-170.019 1216.93,-168.829 1232.24,-168 1832.9,-135.461 1984.57,-164.539 2585.24,-132 2598.94,-131.258 2613.59,-130.226 2627.57,-129.126"/>
<polygon fill="midnightblue" stroke="midnightblue" points="2627.93,-132.608 2637.62,-128.315 2627.37,-125.631 2627.93,-132.608"/>
</g>
<!-- Node70&#45;&gt;Node63 -->
<g id="edge163" class="edge"><title>Node70&#45;&gt;Node63</title>
<path fill="none" stroke="midnightblue" d="M1059.5,-171.5C937.29,-160.787 669.507,-137.312 557.299,-127.476"/>
<polygon fill="midnightblue" stroke="midnightblue" points="557.522,-123.982 547.254,-126.595 556.91,-130.955 557.522,-123.982"/>
</g>
<!-- Node70&#45;&gt;Node64 -->
<g id="edge166" class="edge"><title>Node70&#45;&gt;Node64</title>
<path fill="none" stroke="midnightblue" d="M1184.75,-171.576C1200.26,-170.316 1216.85,-169.04 1232.24,-168 1531.98,-147.749 1607.38,-150.375 1907.24,-132 1932.12,-130.475 1959.67,-128.596 1982.98,-126.949"/>
<polygon fill="midnightblue" stroke="midnightblue" points="1983.3,-130.435 1993.03,-126.235 1982.8,-123.453 1983.3,-130.435"/>
</g>
<!-- Node72&#45;&gt;Node17 -->
<g id="edge173" class="edge"><title>Node72&#45;&gt;Node17</title>
<path fill="none" stroke="midnightblue" d="M1861.21,-228.261C1844.74,-226.748 1826.19,-225.165 1809.24,-224 1472.32,-200.859 1381.48,-253.776 1050.24,-188 977.985,-173.652 950.352,-179.728 894.239,-132 879.69,-119.625 869.928,-99.8215 864.283,-85.3218"/>
<polygon fill="midnightblue" stroke="midnightblue" points="867.567,-84.1097 860.89,-75.8833 860.979,-86.4777 867.567,-84.1097"/>
</g>
<!-- Node72&#45;&gt;Node31 -->
<g id="edge171" class="edge"><title>Node72&#45;&gt;Node31</title>
<path fill="none" stroke="midnightblue" d="M1915.51,-224.083C1920.88,-216.455 1928.76,-205.264 1935.32,-195.941"/>
<polygon fill="midnightblue" stroke="midnightblue" points="1938.19,-197.943 1941.08,-187.751 1932.46,-193.915 1938.19,-197.943"/>
</g>
<!-- Node72&#45;&gt;Node33 -->
<g id="edge172" class="edge"><title>Node72&#45;&gt;Node33</title>
<path fill="none" stroke="midnightblue" d="M1957.45,-231.355C2073.52,-227.097 2377.62,-214.174 2630.24,-188 2631.55,-187.864 2632.87,-187.722 2634.2,-187.572"/>
<polygon fill="midnightblue" stroke="midnightblue" points="2635.05,-190.996 2644.56,-186.322 2634.21,-184.046 2635.05,-190.996"/>
</g>
</g>
</svg>
        <g id="navigator" transform="translate(0 0)" fill="#404254">
                <rect fill="#f2f5e9" fill-opacity="0.5" stroke="#606060" stroke-width=".5" x="0" y="0" width="60" height="60"/>
                <use id="zoomplus" xlink:href="#zoomPlus" x="17" y="9" onmousedown="handleZoom(evt,'in')"/>
                <use id="zoomminus" xlink:href="#zoomMin" x="42" y="9" onmousedown="handleZoom(evt,'out')"/>
                <use id="reset" xlink:href="#resetDef" x="30" y="36" onmousedown="handleReset()"/>
                <g id="arrowUp" xlink:href="#dirArrow" transform="translate(30 24)" onmousedown="handlePan(0,-1)">
                  <use xlink:href="#rim" fill="#404040">
                        <set attributeName="fill" to="#808080" begin="arrowUp.mouseover" end="arrowUp.mouseout"/>
                  </use>
                  <path fill="none" stroke="white" stroke-width="1.5" d="M0,-3.0v7 M-2.5,-0.5L0,-3.0L2.5,-0.5"/>
                </g>
                <g id="arrowRight" xlink:href="#dirArrow" transform="rotate(90) translate(36 -43)" onmousedown="handlePan(1,0)">
                  <use xlink:href="#rim" fill="#404040">
                        <set attributeName="fill" to="#808080" begin="arrowRight.mouseover" end="arrowRight.mouseout"/>
                  </use>
                  <path fill="none" stroke="white" stroke-width="1.5" d="M0,-3.0v7 M-2.5,-0.5L0,-3.0L2.5,-0.5"/>
                </g>
                <g id="arrowDown" xlink:href="#dirArrow" transform="rotate(180) translate(-30 -48)" onmousedown="handlePan(0,1)">
                  <use xlink:href="#rim" fill="#404040">
                        <set attributeName="fill" to="#808080" begin="arrowDown.mouseover" end="arrowDown.mouseout"/>
                  </use>
                  <path fill="none" stroke="white" stroke-width="1.5" d="M0,-3.0v7 M-2.5,-0.5L0,-3.0L2.5,-0.5"/>
                </g>
                <g id="arrowLeft" xlink:href="#dirArrow" transform="rotate(270) translate(-36 17)" onmousedown="handlePan(-1,0)">
                  <use xlink:href="#rim" fill="#404040">
                        <set attributeName="fill" to="#808080" begin="arrowLeft.mouseover" end="arrowLeft.mouseout"/>
                  </use>
                  <path fill="none" stroke="white" stroke-width="1.5" d="M0,-3.0v7 M-2.5,-0.5L0,-3.0L2.5,-0.5"/>
                </g>
        </g>
        <svg viewBox="0 0 15 15" width="100%" height="30px" preserveAspectRatio="xMaxYMin meet">
         <g id="arrow_out" transform="scale(0.3 0.3)">
          <a xlink:href="chromosome__cbga_8hpp__incl_org.svg" target="_base">
           <rect id="button" ry="5" rx="5" y="6" x="6" height="38" width="38"
                fill="#f2f5e9" fill-opacity="0.5" stroke="#606060" stroke-width="1.0"/>
           <path id="arrow"
             d="M 11.500037,31.436501 C 11.940474,20.09759 22.043105,11.32322 32.158766,21.979434 L 37.068811,17.246167 C 37.068811,17.246167 37.088388,32 37.088388,32 L 22.160133,31.978069 C 22.160133,31.978069 26.997745,27.140456 26.997745,27.140456 C 18.528582,18.264221 13.291696,25.230495 11.500037,31.436501 z"
             style="fill:#404040;"/>
          </a>
         </g>
        </svg>
</svg>
