<?xml version="1.0" encoding="UTF-8" standalone="no"?>
<!DOCTYPE svg PUBLIC "-//W3C//DTD SVG 1.1//EN"
 "http://www.w3.org/Graphics/SVG/1.1/DTD/svg11.dtd">
<!-- Generated by graphviz version 2.38.0 (20140413.2041)
 -->
<!-- Title: include/chromosome_feac.hpp Pages: 1 -->
<svg width="1266pt" height="319pt"
 viewBox="0.00 0.00 1266.06 319.00" xmlns="http://www.w3.org/2000/svg" xmlns:xlink="http://www.w3.org/1999/xlink">
<g id="graph0" class="graph" transform="scale(1 1) rotate(0) translate(4 315)">
<title>include/chromosome_feac.hpp</title>
<polygon fill="white" stroke="none" points="-4,4 -4,-315 1262.06,-315 1262.06,4 -4,4"/>
<!-- Node0 -->
<g id="node1" class="node"><title>Node0</title>
<g id="a_node1"><a xlink:title="chromosome FEAC &#160;and">
<polygon fill="#bfbfbf" stroke="black" points="325,-280.5 325,-310.5 436,-310.5 436,-280.5 325,-280.5"/>
<text text-anchor="start" x="333" y="-298.5" font-family="Helvetica,sans-Serif" font-size="10.00">include/chromosome</text>
<text text-anchor="middle" x="380.5" y="-287.5" font-family="Helvetica,sans-Serif" font-size="10.00">_feac.hpp</text>
</a>
</g>
</g>
<!-- Node1 -->
<g id="node2" class="node"><title>Node1</title>
<g id="a_node2"><a xlink:title=" ">
<polygon fill="white" stroke="#bfbfbf" points="209.5,-56.5 209.5,-75.5 253.5,-75.5 253.5,-56.5 209.5,-56.5"/>
<text text-anchor="middle" x="231.5" y="-63.5" font-family="Helvetica,sans-Serif" font-size="10.00">vector</text>
</a>
</g>
</g>
<!-- Node0&#45;&gt;Node1 -->
<g id="edge1" class="edge"><title>Node0&#45;&gt;Node1</title>
<path fill="none" stroke="midnightblue" d="M332.376,-280.394C288.338,-264.941 224.822,-235.778 189.5,-188 169.171,-160.502 162.995,-142.968 177.5,-112 183.545,-99.0941 195.312,-88.5985 206.323,-80.9999"/>
<polygon fill="midnightblue" stroke="midnightblue" points="208.328,-83.8723 214.867,-75.5364 204.557,-77.9748 208.328,-83.8723"/>
</g>
<!-- Node2 -->
<g id="node3" class="node"><title>Node2</title>
<g id="a_node3"><a xlink:href="matrix__withrownull_8hpp.html" target="_top" xlink:title="Matrix with null of rows.">
<polygon fill="white" stroke="black" points="198.5,-168.5 198.5,-187.5 314.5,-187.5 314.5,-168.5 198.5,-168.5"/>
<text text-anchor="middle" x="256.5" y="-175.5" font-family="Helvetica,sans-Serif" font-size="10.00">matrix_withrownull.hpp</text>
</a>
</g>
</g>
<!-- Node0&#45;&gt;Node2 -->
<g id="edge2" class="edge"><title>Node0&#45;&gt;Node2</title>
<path fill="none" stroke="midnightblue" d="M365.295,-280.337C341.938,-258.581 297.396,-217.093 273.181,-194.537"/>
<polygon fill="midnightblue" stroke="midnightblue" points="275.51,-191.924 265.807,-187.669 270.739,-197.046 275.51,-191.924"/>
</g>
<!-- Node15 -->
<g id="node16" class="node"><title>Node15</title>
<g id="a_node16"><a xlink:href="verbose__global_8hpp.html" target="_top" xlink:title="verbose global">
<polygon fill="white" stroke="black" points="405.5,-56.5 405.5,-75.5 509.5,-75.5 509.5,-56.5 405.5,-56.5"/>
<text text-anchor="middle" x="457.5" y="-63.5" font-family="Helvetica,sans-Serif" font-size="10.00">verbose_global.hpp</text>
</a>
</g>
</g>
<!-- Node0&#45;&gt;Node15 -->
<g id="edge54" class="edge"><title>Node0&#45;&gt;Node15</title>
<path fill="none" stroke="midnightblue" d="M385.317,-280.269C398.7,-240.728 436.33,-129.548 451.272,-85.4019"/>
<polygon fill="midnightblue" stroke="midnightblue" points="454.588,-86.5213 454.479,-75.927 447.957,-84.2771 454.588,-86.5213"/>
</g>
<!-- Node16 -->
<g id="node17" class="node"><title>Node16</title>
<g id="a_node17"><a xlink:href="vector__utils_8hpp.html" target="_top" xlink:title="Operations for vector manipulation.">
<polygon fill="white" stroke="black" points="485,-112.5 485,-131.5 570,-131.5 570,-112.5 485,-112.5"/>
<text text-anchor="middle" x="527.5" y="-119.5" font-family="Helvetica,sans-Serif" font-size="10.00">vector_utils.hpp</text>
</a>
</g>
</g>
<!-- Node0&#45;&gt;Node16 -->
<g id="edge20" class="edge"><title>Node0&#45;&gt;Node16</title>
<path fill="none" stroke="midnightblue" d="M392.53,-280.465C419.47,-249.035 484.541,-173.118 513.359,-139.498"/>
<polygon fill="midnightblue" stroke="midnightblue" points="516.313,-141.43 520.163,-131.56 510.998,-136.875 516.313,-141.43"/>
</g>
<!-- Node18 -->
<g id="node19" class="node"><title>Node18</title>
<g id="a_node19"><a xlink:href="chromosome__fixedlength_8hpp.html" target="_top" xlink:title="chromosome fixed length">
<polygon fill="white" stroke="black" points="830.5,-224.5 830.5,-243.5 978.5,-243.5 978.5,-224.5 830.5,-224.5"/>
<text text-anchor="middle" x="904.5" y="-231.5" font-family="Helvetica,sans-Serif" font-size="10.00">chromosome_fixedlength.hpp</text>
</a>
</g>
</g>
<!-- Node0&#45;&gt;Node18 -->
<g id="edge27" class="edge"><title>Node0&#45;&gt;Node18</title>
<path fill="none" stroke="midnightblue" d="M436.081,-288.189C527.94,-277.758 711.991,-256.859 820.02,-244.593"/>
<polygon fill="midnightblue" stroke="midnightblue" points="820.69,-248.039 830.232,-243.433 819.901,-241.084 820.69,-248.039"/>
</g>
<!-- Node3 -->
<g id="node4" class="node"><title>Node3</title>
<g id="a_node4"><a xlink:title=" ">
<polygon fill="white" stroke="#bfbfbf" points="707.5,-56.5 707.5,-75.5 763.5,-75.5 763.5,-56.5 707.5,-56.5"/>
<text text-anchor="middle" x="735.5" y="-63.5" font-family="Helvetica,sans-Serif" font-size="10.00">iostream</text>
</a>
</g>
</g>
<!-- Node2&#45;&gt;Node3 -->
<g id="edge3" class="edge"><title>Node2&#45;&gt;Node3</title>
<path fill="none" stroke="midnightblue" d="M314.596,-175.061C432.11,-170.61 689.457,-157.989 719.5,-132 732.527,-120.731 735.833,-100.722 736.307,-85.8708"/>
<polygon fill="midnightblue" stroke="midnightblue" points="739.807,-85.7236 736.232,-75.7499 732.807,-85.7756 739.807,-85.7236"/>
</g>
<!-- Node4 -->
<g id="node5" class="node"><title>Node4</title>
<g id="a_node5"><a xlink:title=" ">
<polygon fill="white" stroke="#bfbfbf" points="0,-56.5 0,-75.5 51,-75.5 51,-56.5 0,-56.5"/>
<text text-anchor="middle" x="25.5" y="-63.5" font-family="Helvetica,sans-Serif" font-size="10.00">typeinfo</text>
</a>
</g>
</g>
<!-- Node2&#45;&gt;Node4 -->
<g id="edge4" class="edge"><title>Node2&#45;&gt;Node4</title>
<path fill="none" stroke="midnightblue" d="M238.374,-168.368C197.975,-149.131 100.36,-102.648 52.6559,-79.9314"/>
<polygon fill="midnightblue" stroke="midnightblue" points="54.0754,-76.7308 43.542,-75.5914 51.0658,-83.0508 54.0754,-76.7308"/>
</g>
<!-- Node5 -->
<g id="node6" class="node"><title>Node5</title>
<g id="a_node6"><a xlink:title=" ">
<polygon fill="white" stroke="#bfbfbf" points="327.5,-56.5 327.5,-75.5 387.5,-75.5 387.5,-56.5 327.5,-56.5"/>
<text text-anchor="middle" x="357.5" y="-63.5" font-family="Helvetica,sans-Serif" font-size="10.00">stdexcept</text>
</a>
</g>
</g>
<!-- Node2&#45;&gt;Node5 -->
<g id="edge5" class="edge"><title>Node2&#45;&gt;Node5</title>
<path fill="none" stroke="midnightblue" d="M264.425,-168.368C281.314,-149.974 321.075,-106.671 342.761,-83.0519"/>
<polygon fill="midnightblue" stroke="midnightblue" points="345.426,-85.3246 349.612,-75.5914 340.27,-80.5903 345.426,-85.3246"/>
</g>
<!-- Node6 -->
<g id="node7" class="node"><title>Node6</title>
<g id="a_node7"><a xlink:title=" ">
<polygon fill="white" stroke="#bfbfbf" points="847.5,-56.5 847.5,-75.5 905.5,-75.5 905.5,-56.5 847.5,-56.5"/>
<text text-anchor="middle" x="876.5" y="-63.5" font-family="Helvetica,sans-Serif" font-size="10.00">algorithm</text>
</a>
</g>
</g>
<!-- Node2&#45;&gt;Node6 -->
<g id="edge6" class="edge"><title>Node2&#45;&gt;Node6</title>
<path fill="none" stroke="midnightblue" d="M314.886,-174.147C425.549,-168.316 661.795,-153.721 740.5,-132 782.738,-120.343 827.903,-96.1287 854.097,-80.7699"/>
<polygon fill="midnightblue" stroke="midnightblue" points="856.052,-83.6792 862.849,-75.5517 852.468,-77.6668 856.052,-83.6792"/>
</g>
<!-- Node7 -->
<g id="node8" class="node"><title>Node7</title>
<g id="a_node8"><a xlink:href="matrix__base_8hpp.html" target="_top" xlink:title="matrix base">
<polygon fill="white" stroke="black" points="187,-112.5 187,-131.5 276,-131.5 276,-112.5 187,-112.5"/>
<text text-anchor="middle" x="231.5" y="-119.5" font-family="Helvetica,sans-Serif" font-size="10.00">matrix_base.hpp</text>
</a>
</g>
</g>
<!-- Node2&#45;&gt;Node7 -->
<g id="edge7" class="edge"><title>Node2&#45;&gt;Node7</title>
<path fill="none" stroke="midnightblue" d="M252.372,-168.083C248.986,-160.77 244.084,-150.181 239.881,-141.103"/>
<polygon fill="midnightblue" stroke="midnightblue" points="242.929,-139.355 235.551,-131.751 236.577,-142.296 242.929,-139.355"/>
</g>
<!-- Node7&#45;&gt;Node1 -->
<g id="edge15" class="edge"><title>Node7&#45;&gt;Node1</title>
<path fill="none" stroke="midnightblue" d="M231.5,-112.083C231.5,-105.006 231.5,-94.8611 231.5,-85.9865"/>
<polygon fill="midnightblue" stroke="midnightblue" points="235,-85.751 231.5,-75.7511 228,-85.7511 235,-85.751"/>
</g>
<!-- Node7&#45;&gt;Node3 -->
<g id="edge8" class="edge"><title>Node7&#45;&gt;Node3</title>
<path fill="none" stroke="midnightblue" d="M276.204,-118.523C359.223,-113.512 542.667,-100.507 695.5,-76 696.093,-75.9049 696.69,-75.8063 697.291,-75.7045"/>
<polygon fill="midnightblue" stroke="midnightblue" points="698.004,-79.1318 707.178,-73.8309 696.701,-72.2542 698.004,-79.1318"/>
</g>
<!-- Node7&#45;&gt;Node4 -->
<g id="edge10" class="edge"><title>Node7&#45;&gt;Node4</title>
<path fill="none" stroke="midnightblue" d="M198.859,-112.444C161.263,-102.588 99.7108,-86.4533 60.9629,-76.2961"/>
<polygon fill="midnightblue" stroke="midnightblue" points="61.7156,-72.8752 51.1549,-73.7251 59.9405,-79.6464 61.7156,-72.8752"/>
</g>
<!-- Node7&#45;&gt;Node5 -->
<g id="edge11" class="edge"><title>Node7&#45;&gt;Node5</title>
<path fill="none" stroke="midnightblue" d="M251.465,-112.444C272.109,-103.596 304.563,-89.6875 328.132,-79.5865"/>
<polygon fill="midnightblue" stroke="midnightblue" points="329.816,-82.6727 337.628,-75.5164 327.058,-76.2387 329.816,-82.6727"/>
</g>
<!-- Node8 -->
<g id="node9" class="node"><title>Node8</title>
<g id="a_node9"><a xlink:title=" ">
<polygon fill="white" stroke="#bfbfbf" points="138,-56.5 138,-75.5 191,-75.5 191,-56.5 138,-56.5"/>
<text text-anchor="middle" x="164.5" y="-63.5" font-family="Helvetica,sans-Serif" font-size="10.00">sstream</text>
</a>
</g>
</g>
<!-- Node7&#45;&gt;Node8 -->
<g id="edge9" class="edge"><title>Node7&#45;&gt;Node8</title>
<path fill="none" stroke="midnightblue" d="M220.735,-112.324C210.734,-104.263 195.613,-92.0765 183.57,-82.3695"/>
<polygon fill="midnightblue" stroke="midnightblue" points="185.443,-79.3841 175.461,-75.8339 181.05,-84.8343 185.443,-79.3841"/>
</g>
<!-- Node9 -->
<g id="node10" class="node"><title>Node9</title>
<g id="a_node10"><a xlink:title=" ">
<polygon fill="white" stroke="#bfbfbf" points="271.5,-56.5 271.5,-75.5 309.5,-75.5 309.5,-56.5 271.5,-56.5"/>
<text text-anchor="middle" x="290.5" y="-63.5" font-family="Helvetica,sans-Serif" font-size="10.00">utility</text>
</a>
</g>
</g>
<!-- Node7&#45;&gt;Node9 -->
<g id="edge12" class="edge"><title>Node7&#45;&gt;Node9</title>
<path fill="none" stroke="midnightblue" d="M240.979,-112.324C249.701,-104.341 262.843,-92.3128 273.398,-82.6529"/>
<polygon fill="midnightblue" stroke="midnightblue" points="275.834,-85.1674 280.848,-75.8339 271.108,-80.0036 275.834,-85.1674"/>
</g>
<!-- Node10 -->
<g id="node11" class="node"><title>Node10</title>
<g id="a_node11"><a xlink:title=" ">
<polygon fill="white" stroke="#bfbfbf" points="69.5,-56.5 69.5,-75.5 119.5,-75.5 119.5,-56.5 69.5,-56.5"/>
<text text-anchor="middle" x="94.5" y="-63.5" font-family="Helvetica,sans-Serif" font-size="10.00">cassert</text>
</a>
</g>
</g>
<!-- Node7&#45;&gt;Node10 -->
<g id="edge13" class="edge"><title>Node7&#45;&gt;Node10</title>
<path fill="none" stroke="midnightblue" d="M209.792,-112.444C187.145,-103.517 151.428,-89.4387 125.748,-79.3168"/>
<polygon fill="midnightblue" stroke="midnightblue" points="126.693,-75.9273 116.106,-75.5164 124.126,-82.4397 126.693,-75.9273"/>
</g>
<!-- Node11 -->
<g id="node12" class="node"><title>Node11</title>
<g id="a_node12"><a xlink:title=" ">
<polygon fill="white" stroke="#bfbfbf" points="781.5,-56.5 781.5,-75.5 829.5,-75.5 829.5,-56.5 781.5,-56.5"/>
<text text-anchor="middle" x="805.5" y="-63.5" font-family="Helvetica,sans-Serif" font-size="10.00">string.h</text>
</a>
</g>
</g>
<!-- Node7&#45;&gt;Node11 -->
<g id="edge14" class="edge"><title>Node7&#45;&gt;Node11</title>
<path fill="none" stroke="midnightblue" d="M276.033,-120.052C367.343,-117.515 582.384,-108.5 771.348,-75.876"/>
<polygon fill="midnightblue" stroke="midnightblue" points="772.22,-79.2766 781.465,-74.1021 771.011,-72.3818 772.22,-79.2766"/>
</g>
<!-- Node12 -->
<g id="node13" class="node"><title>Node12</title>
<g id="a_node13"><a xlink:href="common_8hpp.html" target="_top" xlink:title="common">
<polygon fill="white" stroke="black" points="612.5,-56.5 612.5,-75.5 686.5,-75.5 686.5,-56.5 612.5,-56.5"/>
<text text-anchor="middle" x="649.5" y="-63.5" font-family="Helvetica,sans-Serif" font-size="10.00">common.hpp</text>
</a>
</g>
</g>
<!-- Node7&#45;&gt;Node12 -->
<g id="edge16" class="edge"><title>Node7&#45;&gt;Node12</title>
<path fill="none" stroke="midnightblue" d="M276.233,-115.221C355.81,-104.941 521.217,-83.5725 602.436,-73.08"/>
<polygon fill="midnightblue" stroke="midnightblue" points="602.913,-76.5476 612.382,-71.7951 602.016,-69.6053 602.913,-76.5476"/>
</g>
<!-- Node7&#45;&gt;Node15 -->
<g id="edge19" class="edge"><title>Node7&#45;&gt;Node15</title>
<path fill="none" stroke="midnightblue" d="M267.31,-112.444C306.488,-103.083 369.377,-88.0561 412.015,-77.868"/>
<polygon fill="midnightblue" stroke="midnightblue" points="412.944,-81.2446 421.857,-75.5164 411.318,-74.4363 412.944,-81.2446"/>
</g>
<!-- Node13 -->
<g id="node14" class="node"><title>Node13</title>
<g id="a_node14"><a xlink:title=" ">
<polygon fill="white" stroke="#bfbfbf" points="626,-0.5 626,-19.5 673,-19.5 673,-0.5 626,-0.5"/>
<text text-anchor="middle" x="649.5" y="-7.5" font-family="Helvetica,sans-Serif" font-size="10.00">stdint.h</text>
</a>
</g>
</g>
<!-- Node12&#45;&gt;Node13 -->
<g id="edge17" class="edge"><title>Node12&#45;&gt;Node13</title>
<path fill="none" stroke="midnightblue" d="M649.5,-56.083C649.5,-49.0059 649.5,-38.8611 649.5,-29.9865"/>
<polygon fill="midnightblue" stroke="midnightblue" points="653,-29.751 649.5,-19.7511 646,-29.7511 653,-29.751"/>
</g>
<!-- Node14 -->
<g id="node15" class="node"><title>Node14</title>
<g id="a_node15"><a xlink:title=" ">
<polygon fill="white" stroke="#bfbfbf" points="1104,-0.5 1104,-19.5 1143,-19.5 1143,-0.5 1104,-0.5"/>
<text text-anchor="middle" x="1123.5" y="-7.5" font-family="Helvetica,sans-Serif" font-size="10.00">limits</text>
</a>
</g>
</g>
<!-- Node12&#45;&gt;Node14 -->
<g id="edge18" class="edge"><title>Node12&#45;&gt;Node14</title>
<path fill="none" stroke="midnightblue" d="M686.639,-57.8714C690.636,-57.1961 694.648,-56.5569 698.5,-56 846.274,-34.6372 1024.34,-19.0539 1093.76,-13.3642"/>
<polygon fill="midnightblue" stroke="midnightblue" points="1094.26,-16.8348 1103.95,-12.5366 1093.7,-9.85781 1094.26,-16.8348"/>
</g>
<!-- Node16&#45;&gt;Node1 -->
<g id="edge22" class="edge"><title>Node16&#45;&gt;Node1</title>
<path fill="none" stroke="midnightblue" d="M484.98,-115.309C434.392,-108.202 347.239,-94.8964 263.677,-76.0596"/>
<polygon fill="midnightblue" stroke="midnightblue" points="264.3,-72.6117 253.771,-73.7962 262.74,-79.4358 264.3,-72.6117"/>
</g>
<!-- Node16&#45;&gt;Node3 -->
<g id="edge21" class="edge"><title>Node16&#45;&gt;Node3</title>
<path fill="none" stroke="midnightblue" d="M560.458,-112.444C597.762,-102.759 658.425,-87.0098 697.641,-76.8287"/>
<polygon fill="midnightblue" stroke="midnightblue" points="698.566,-80.2048 707.365,-74.3042 696.807,-73.4294 698.566,-80.2048"/>
</g>
<!-- Node16&#45;&gt;Node6 -->
<g id="edge24" class="edge"><title>Node16&#45;&gt;Node6</title>
<path fill="none" stroke="midnightblue" d="M570.048,-113.517C573.245,-112.991 576.422,-112.48 579.5,-112 691.189,-94.5773 722.571,-97.2499 837.229,-76.0944"/>
<polygon fill="midnightblue" stroke="midnightblue" points="837.912,-79.5275 847.1,-74.2527 836.628,-72.6463 837.912,-79.5275"/>
</g>
<!-- Node16&#45;&gt;Node12 -->
<g id="edge25" class="edge"><title>Node16&#45;&gt;Node12</title>
<path fill="none" stroke="midnightblue" d="M546.831,-112.444C566.82,-103.596 598.243,-89.6875 621.064,-79.5865"/>
<polygon fill="midnightblue" stroke="midnightblue" points="622.532,-82.7645 630.259,-75.5164 619.698,-76.3635 622.532,-82.7645"/>
</g>
<!-- Node16&#45;&gt;Node15 -->
<g id="edge26" class="edge"><title>Node16&#45;&gt;Node15</title>
<path fill="none" stroke="midnightblue" d="M516.253,-112.324C505.703,-104.185 489.699,-91.8395 477.058,-82.0874"/>
<polygon fill="midnightblue" stroke="midnightblue" points="479.007,-79.1707 468.951,-75.8339 474.731,-84.7132 479.007,-79.1707"/>
</g>
<!-- Node17 -->
<g id="node18" class="node"><title>Node17</title>
<g id="a_node18"><a xlink:title=" ">
<polygon fill="white" stroke="#bfbfbf" points="528,-56.5 528,-75.5 569,-75.5 569,-56.5 528,-56.5"/>
<text text-anchor="middle" x="548.5" y="-63.5" font-family="Helvetica,sans-Serif" font-size="10.00">string</text>
</a>
</g>
</g>
<!-- Node16&#45;&gt;Node17 -->
<g id="edge23" class="edge"><title>Node16&#45;&gt;Node17</title>
<path fill="none" stroke="midnightblue" d="M530.968,-112.083C533.812,-104.77 537.929,-94.1814 541.46,-85.1034"/>
<polygon fill="midnightblue" stroke="midnightblue" points="544.734,-86.3397 545.097,-75.7511 538.21,-83.8025 544.734,-86.3397"/>
</g>
<!-- Node18&#45;&gt;Node3 -->
<g id="edge28" class="edge"><title>Node18&#45;&gt;Node3</title>
<path fill="none" stroke="midnightblue" d="M887.662,-224.379C872.569,-216.194 850.285,-202.945 833.5,-188 797.158,-155.642 763.471,-108.965 746.673,-84.104"/>
<polygon fill="midnightblue" stroke="midnightblue" points="749.547,-82.1042 741.092,-75.7191 743.72,-85.983 749.547,-82.1042"/>
</g>
<!-- Node18&#45;&gt;Node5 -->
<g id="edge29" class="edge"><title>Node18&#45;&gt;Node5</title>
<path fill="none" stroke="midnightblue" d="M830.472,-230.789C756.479,-226.959 640.121,-216.506 543.5,-188 488.591,-171.8 474.78,-164.281 427.5,-132 406.662,-117.773 385.869,-97.4985 372.427,-83.3897"/>
<polygon fill="midnightblue" stroke="midnightblue" points="374.802,-80.8047 365.417,-75.8874 369.687,-85.5838 374.802,-80.8047"/>
</g>
<!-- Node18&#45;&gt;Node14 -->
<g id="edge30" class="edge"><title>Node18&#45;&gt;Node14</title>
<path fill="none" stroke="midnightblue" d="M978.72,-232.603C1064.56,-230.528 1198.69,-221.773 1234.5,-188 1277.77,-147.191 1255.89,-96.6807 1212.5,-56 1195.37,-39.9384 1171.41,-28.265 1152.67,-20.8381"/>
<polygon fill="midnightblue" stroke="midnightblue" points="1153.73,-17.4975 1143.13,-17.2445 1151.26,-24.0474 1153.73,-17.4975"/>
</g>
<!-- Node18&#45;&gt;Node15 -->
<g id="edge53" class="edge"><title>Node18&#45;&gt;Node15</title>
<path fill="none" stroke="midnightblue" d="M830.265,-224.66C721.343,-210.953 525.684,-180.267 475.5,-132 463.114,-120.087 459.014,-100.469 457.77,-85.8971"/>
<polygon fill="midnightblue" stroke="midnightblue" points="461.248,-85.3594 457.281,-75.5355 454.256,-85.6894 461.248,-85.3594"/>
</g>
<!-- Node19 -->
<g id="node20" class="node"><title>Node19</title>
<g id="a_node20"><a xlink:title=" ">
<polygon fill="white" stroke="#bfbfbf" points="1060.5,-112.5 1060.5,-131.5 1112.5,-131.5 1112.5,-112.5 1060.5,-112.5"/>
<text text-anchor="middle" x="1086.5" y="-119.5" font-family="Helvetica,sans-Serif" font-size="10.00">assert.h</text>
</a>
</g>
</g>
<!-- Node18&#45;&gt;Node19 -->
<g id="edge31" class="edge"><title>Node18&#45;&gt;Node19</title>
<path fill="none" stroke="midnightblue" d="M922.51,-224.488C940.351,-215.871 968.291,-201.871 991.5,-188 1018.3,-171.98 1047.78,-151.301 1066.68,-137.618"/>
<polygon fill="midnightblue" stroke="midnightblue" points="1068.79,-140.409 1074.81,-131.69 1064.67,-134.753 1068.79,-140.409"/>
</g>
<!-- Node20 -->
<g id="node21" class="node"><title>Node20</title>
<g id="a_node21"><a xlink:href="outfilename_8hpp.html" target="_top" xlink:title="out file name">
<polygon fill="white" stroke="black" points="918.5,-112.5 918.5,-131.5 1004.5,-131.5 1004.5,-112.5 918.5,-112.5"/>
<text text-anchor="middle" x="961.5" y="-119.5" font-family="Helvetica,sans-Serif" font-size="10.00">outfilename.hpp</text>
</a>
</g>
</g>
<!-- Node18&#45;&gt;Node20 -->
<g id="edge32" class="edge"><title>Node18&#45;&gt;Node20</title>
<path fill="none" stroke="midnightblue" d="M928.969,-224.438C945.067,-217.378 964.877,-205.626 974.5,-188 982.498,-173.351 977.261,-154.438 971.219,-140.794"/>
<polygon fill="midnightblue" stroke="midnightblue" points="974.216,-138.959 966.647,-131.545 967.941,-142.061 974.216,-138.959"/>
</g>
<!-- Node22 -->
<g id="node23" class="node"><title>Node22</title>
<g id="a_node23"><a xlink:href="chromosome__string_8hpp.html" target="_top" xlink:title="chromosome string">
<polygon fill="white" stroke="black" points="843,-168.5 843,-187.5 966,-187.5 966,-168.5 843,-168.5"/>
<text text-anchor="middle" x="904.5" y="-175.5" font-family="Helvetica,sans-Serif" font-size="10.00">chromosome_string.hpp</text>
</a>
</g>
</g>
<!-- Node18&#45;&gt;Node22 -->
<g id="edge36" class="edge"><title>Node18&#45;&gt;Node22</title>
<path fill="none" stroke="midnightblue" d="M904.5,-224.083C904.5,-217.006 904.5,-206.861 904.5,-197.986"/>
<polygon fill="midnightblue" stroke="midnightblue" points="908,-197.751 904.5,-187.751 901,-197.751 908,-197.751"/>
</g>
<!-- Node24 -->
<g id="node25" class="node"><title>Node24</title>
<g id="a_node25"><a xlink:href="linear__algebra__level1_8hpp.html" target="_top" xlink:title="linear algebra level1">
<polygon fill="white" stroke="black" points="1093.5,-168.5 1093.5,-187.5 1225.5,-187.5 1225.5,-168.5 1093.5,-168.5"/>
<text text-anchor="middle" x="1159.5" y="-175.5" font-family="Helvetica,sans-Serif" font-size="10.00">linear_algebra_level1.hpp</text>
</a>
</g>
</g>
<!-- Node18&#45;&gt;Node24 -->
<g id="edge47" class="edge"><title>Node18&#45;&gt;Node24</title>
<path fill="none" stroke="midnightblue" d="M944.906,-224.444C989.483,-215.004 1061.27,-199.802 1109.39,-189.611"/>
<polygon fill="midnightblue" stroke="midnightblue" points="1110.23,-193.012 1119.28,-187.516 1108.78,-186.164 1110.23,-193.012"/>
</g>
<!-- Node20&#45;&gt;Node3 -->
<g id="edge33" class="edge"><title>Node20&#45;&gt;Node3</title>
<path fill="none" stroke="midnightblue" d="M925.255,-112.425C889.206,-103.885 832.054,-90.3123 773.557,-76.2464"/>
<polygon fill="midnightblue" stroke="midnightblue" points="774.32,-72.8301 763.778,-73.8935 772.682,-79.6359 774.32,-72.8301"/>
</g>
<!-- Node20&#45;&gt;Node11 -->
<g id="edge35" class="edge"><title>Node20&#45;&gt;Node11</title>
<path fill="none" stroke="midnightblue" d="M936.781,-112.444C910.498,-103.345 868.753,-88.8952 839.407,-78.7372"/>
<polygon fill="midnightblue" stroke="midnightblue" points="840.185,-75.3027 829.59,-75.339 837.895,-81.9176 840.185,-75.3027"/>
</g>
<!-- Node21 -->
<g id="node22" class="node"><title>Node21</title>
<g id="a_node22"><a xlink:title=" ">
<polygon fill="white" stroke="#bfbfbf" points="936.5,-56.5 936.5,-75.5 986.5,-75.5 986.5,-56.5 936.5,-56.5"/>
<text text-anchor="middle" x="961.5" y="-63.5" font-family="Helvetica,sans-Serif" font-size="10.00">fstream</text>
</a>
</g>
</g>
<!-- Node20&#45;&gt;Node21 -->
<g id="edge34" class="edge"><title>Node20&#45;&gt;Node21</title>
<path fill="none" stroke="midnightblue" d="M961.5,-112.083C961.5,-105.006 961.5,-94.8611 961.5,-85.9865"/>
<polygon fill="midnightblue" stroke="midnightblue" points="965,-85.751 961.5,-75.7511 958,-85.7511 965,-85.751"/>
</g>
<!-- Node22&#45;&gt;Node3 -->
<g id="edge37" class="edge"><title>Node22&#45;&gt;Node3</title>
<path fill="none" stroke="midnightblue" d="M895.75,-168.181C882.202,-154.851 854.947,-129.293 828.5,-112 808.813,-99.1269 784.891,-87.634 766.239,-79.4852"/>
<polygon fill="midnightblue" stroke="midnightblue" points="767.587,-76.255 757.016,-75.5392 764.834,-82.6907 767.587,-76.255"/>
</g>
<!-- Node22&#45;&gt;Node5 -->
<g id="edge38" class="edge"><title>Node22&#45;&gt;Node5</title>
<path fill="none" stroke="midnightblue" d="M842.772,-173.548C740.952,-167.348 542.399,-152.988 475.5,-132 438.626,-120.432 400.194,-96.7177 377.576,-81.3562"/>
<polygon fill="midnightblue" stroke="midnightblue" points="379.387,-78.353 369.174,-75.5361 375.401,-84.1074 379.387,-78.353"/>
</g>
<!-- Node22&#45;&gt;Node12 -->
<g id="edge46" class="edge"><title>Node22&#45;&gt;Node12</title>
<path fill="none" stroke="midnightblue" d="M884.491,-168.368C839.708,-149.051 731.237,-102.259 678.821,-79.6481"/>
<polygon fill="midnightblue" stroke="midnightblue" points="679.985,-76.3386 669.416,-75.5914 677.212,-82.7661 679.985,-76.3386"/>
</g>
<!-- Node22&#45;&gt;Node14 -->
<g id="edge39" class="edge"><title>Node22&#45;&gt;Node14</title>
<path fill="none" stroke="midnightblue" d="M939.241,-168.445C962.176,-161.49 991.872,-149.858 1013.5,-132 1044.68,-106.257 1035.8,-85.4567 1063.5,-56 1074.45,-44.3586 1088.68,-33.5374 1100.54,-25.4253"/>
<polygon fill="midnightblue" stroke="midnightblue" points="1102.66,-28.2247 1109.06,-19.7812 1098.79,-22.3907 1102.66,-28.2247"/>
</g>
<!-- Node22&#45;&gt;Node19 -->
<g id="edge40" class="edge"><title>Node22&#45;&gt;Node19</title>
<path fill="none" stroke="midnightblue" d="M933.338,-168.444C965.177,-158.997 1016.46,-143.781 1050.81,-133.59"/>
<polygon fill="midnightblue" stroke="midnightblue" points="1051.86,-136.929 1060.45,-130.729 1049.87,-130.218 1051.86,-136.929"/>
</g>
<!-- Node22&#45;&gt;Node20 -->
<g id="edge41" class="edge"><title>Node22&#45;&gt;Node20</title>
<path fill="none" stroke="midnightblue" d="M913.658,-168.324C922.001,-160.42 934.532,-148.548 944.677,-138.938"/>
<polygon fill="midnightblue" stroke="midnightblue" points="947.323,-141.252 952.175,-131.834 942.509,-136.171 947.323,-141.252"/>
</g>
<!-- Node23 -->
<g id="node24" class="node"><title>Node23</title>
<g id="a_node24"><a xlink:href="chromosome__base_8hpp.html" target="_top" xlink:title="chromosome base">
<polygon fill="white" stroke="black" points="588.5,-112.5 588.5,-131.5 710.5,-131.5 710.5,-112.5 588.5,-112.5"/>
<text text-anchor="middle" x="649.5" y="-119.5" font-family="Helvetica,sans-Serif" font-size="10.00">chromosome_base.hpp</text>
</a>
</g>
</g>
<!-- Node22&#45;&gt;Node23 -->
<g id="edge42" class="edge"><title>Node22&#45;&gt;Node23</title>
<path fill="none" stroke="midnightblue" d="M864.094,-168.444C819.517,-159.004 747.732,-143.802 699.608,-133.611"/>
<polygon fill="midnightblue" stroke="midnightblue" points="700.225,-130.164 689.716,-131.516 698.774,-137.012 700.225,-130.164"/>
</g>
<!-- Node23&#45;&gt;Node3 -->
<g id="edge43" class="edge"><title>Node23&#45;&gt;Node3</title>
<path fill="none" stroke="midnightblue" d="M663.317,-112.324C676.733,-103.9 697.324,-90.9709 713.086,-81.0741"/>
<polygon fill="midnightblue" stroke="midnightblue" points="715.109,-83.9364 721.717,-75.6545 711.387,-78.0081 715.109,-83.9364"/>
</g>
<!-- Node23&#45;&gt;Node12 -->
<g id="edge44" class="edge"><title>Node23&#45;&gt;Node12</title>
<path fill="none" stroke="midnightblue" d="M649.5,-112.083C649.5,-105.006 649.5,-94.8611 649.5,-85.9865"/>
<polygon fill="midnightblue" stroke="midnightblue" points="653,-85.751 649.5,-75.7511 646,-85.7511 653,-85.751"/>
</g>
<!-- Node23&#45;&gt;Node15 -->
<g id="edge45" class="edge"><title>Node23&#45;&gt;Node15</title>
<path fill="none" stroke="midnightblue" d="M619.077,-112.444C586.215,-103.201 533.715,-88.4356 497.526,-78.2572"/>
<polygon fill="midnightblue" stroke="midnightblue" points="498.355,-74.8547 487.781,-75.5164 496.46,-81.5932 498.355,-74.8547"/>
</g>
<!-- Node25 -->
<g id="node26" class="node"><title>Node25</title>
<g id="a_node26"><a xlink:href="interface__level1_8hpp.html" target="_top" xlink:title="Interface_level 1.">
<polygon fill="white" stroke="black" points="1130.5,-112.5 1130.5,-131.5 1236.5,-131.5 1236.5,-112.5 1130.5,-112.5"/>
<text text-anchor="middle" x="1183.5" y="-119.5" font-family="Helvetica,sans-Serif" font-size="10.00">interface_level1.hpp</text>
</a>
</g>
</g>
<!-- Node24&#45;&gt;Node25 -->
<g id="edge48" class="edge"><title>Node24&#45;&gt;Node25</title>
<path fill="none" stroke="midnightblue" d="M1163.46,-168.083C1166.71,-160.77 1171.42,-150.181 1175.45,-141.103"/>
<polygon fill="midnightblue" stroke="midnightblue" points="1178.75,-142.311 1179.61,-131.751 1172.35,-139.468 1178.75,-142.311"/>
</g>
<!-- Node25&#45;&gt;Node6 -->
<g id="edge49" class="edge"><title>Node25&#45;&gt;Node6</title>
<path fill="none" stroke="midnightblue" d="M1134.9,-112.467C1083.4,-103.423 999.718,-88.7195 927.5,-76 923.626,-75.3177 919.587,-74.6058 915.552,-73.8942"/>
<polygon fill="midnightblue" stroke="midnightblue" points="916.083,-70.434 905.627,-72.1435 914.867,-77.3275 916.083,-70.434"/>
</g>
<!-- Node25&#45;&gt;Node14 -->
<g id="edge51" class="edge"><title>Node25&#45;&gt;Node14</title>
<path fill="none" stroke="midnightblue" d="M1188.47,-112.425C1195.29,-99.4138 1205.62,-74.2671 1195.5,-56 1186.33,-39.4509 1168.25,-28.1841 1152.51,-21.063"/>
<polygon fill="midnightblue" stroke="midnightblue" points="1153.68,-17.7616 1143.11,-17.1547 1151,-24.2253 1153.68,-17.7616"/>
</g>
<!-- Node26 -->
<g id="node27" class="node"><title>Node26</title>
<g id="a_node27"><a xlink:title=" ">
<polygon fill="white" stroke="#bfbfbf" points="1072.5,-56.5 1072.5,-75.5 1124.5,-75.5 1124.5,-56.5 1072.5,-56.5"/>
<text text-anchor="middle" x="1098.5" y="-63.5" font-family="Helvetica,sans-Serif" font-size="10.00">numeric</text>
</a>
</g>
</g>
<!-- Node25&#45;&gt;Node26 -->
<g id="edge50" class="edge"><title>Node25&#45;&gt;Node26</title>
<path fill="none" stroke="midnightblue" d="M1169.84,-112.324C1156.58,-103.9 1136.23,-90.9709 1120.65,-81.0741"/>
<polygon fill="midnightblue" stroke="midnightblue" points="1122.44,-78.0626 1112.12,-75.6545 1118.69,-83.9711 1122.44,-78.0626"/>
</g>
<!-- Node27 -->
<g id="node28" class="node"><title>Node27</title>
<g id="a_node28"><a xlink:title=" ">
<polygon fill="white" stroke="#bfbfbf" points="1142.5,-56.5 1142.5,-75.5 1186.5,-75.5 1186.5,-56.5 1142.5,-56.5"/>
<text text-anchor="middle" x="1164.5" y="-63.5" font-family="Helvetica,sans-Serif" font-size="10.00">cmath</text>
</a>
</g>
</g>
<!-- Node25&#45;&gt;Node27 -->
<g id="edge52" class="edge"><title>Node25&#45;&gt;Node27</title>
<path fill="none" stroke="midnightblue" d="M1180.36,-112.083C1177.82,-104.849 1174.14,-94.4087 1170.97,-85.3968"/>
<polygon fill="midnightblue" stroke="midnightblue" points="1174.2,-84.0225 1167.58,-75.7511 1167.6,-86.3459 1174.2,-84.0225"/>
</g>
</g>
</svg>
