<?xml version="1.0" encoding="UTF-8" standalone="no"?>
<!DOCTYPE svg PUBLIC "-//W3C//DTD SVG 1.1//EN"
 "http://www.w3.org/Graphics/SVG/1.1/DTD/svg11.dtd">
<!-- Generated by graphviz version 2.38.0 (20140413.2041)
 -->
<!-- Title: inout::InParamPAM&lt; T_CLUSTERIDX, T_FEATURE, T_INSTANCES_CLUSTER_K &gt; Pages: 1 -->
<!--zoomable 1121 -->
<svg id="main" version="1.1" xmlns="http://www.w3.org/2000/svg" xmlns:xlink="http://www.w3.org/1999/xlink" xml:space="preserve" onload="init(evt)">
<style type="text/css"><![CDATA[
.edge:hover path { stroke: red; }
.edge:hover polygon { stroke: red; fill: red; }
]]></style>
<script type="text/javascript"><![CDATA[
var edges = document.getElementsByTagName('g');
if (edges && edges.length) {
  for (var i=0;i<edges.length;i++) {
    if (edges[i].id.substr(0,4)=='edge') {
      edges[i].setAttribute('class','edge');
    }
  }
}
]]></script>
        <defs>
                <circle id="rim" cx="0" cy="0" r="7"/>
                <circle id="rim2" cx="0" cy="0" r="3.5"/>
                <g id="zoomPlus">
                        <use xlink:href="#rim" fill="#404040">
                                <set attributeName="fill" to="#808080" begin="zoomplus.mouseover" end="zoomplus.mouseout"/>
                        </use>
                        <path d="M-4,0h8M0,-4v8" fill="none" stroke="white" stroke-width="1.5" pointer-events="none"/>
                </g>
                <g id="zoomMin">
                        <use xlink:href="#rim" fill="#404040">
                                <set attributeName="fill" to="#808080" begin="zoomminus.mouseover" end="zoomminus.mouseout"/>
                        </use>
                        <path d="M-4,0h8" fill="none" stroke="white" stroke-width="1.5" pointer-events="none"/>
                </g>
                <g id="dirArrow">
                        <path fill="none" stroke="white" stroke-width="1.5" d="M0,-3.0v7 M-2.5,-0.5L0,-3.0L2.5,-0.5"/>
                </g>
               <g id="resetDef">
                       <use xlink:href="#rim2" fill="#404040">
                               <set attributeName="fill" to="#808080" begin="reset.mouseover" end="reset.mouseout"/>
                       </use>
               </g>
        </defs>

<script type="text/javascript">
var viewWidth = 570;
var viewHeight = 1121;
var sectionId = 'dynsection-1';
</script>
<script xlink:href="svgpan.js"/>
<svg id="graph" class="graph">
<g id="viewport">
<title>inout::InParamPAM&lt; T_CLUSTERIDX, T_FEATURE, T_INSTANCES_CLUSTER_K &gt;</title>
<polygon fill="white" stroke="none" points="-4,4 -4,-1117 565.5,-1117 565.5,4 -4,4"/>
<!-- Node6 -->
<g id="node1" class="node"><title>Node6</title>
<polygon fill="#bfbfbf" stroke="black" points="171,-0.5 171,-101.5 334,-101.5 334,-0.5 171,-0.5"/>
<text text-anchor="start" x="179" y="-89.5" font-family="Helvetica,sans-Serif" font-size="10.00">inout::InParamPAM&lt;</text>
<text text-anchor="start" x="179" y="-78.5" font-family="Helvetica,sans-Serif" font-size="10.00"> T_CLUSTERIDX, T_FEATURE,</text>
<text text-anchor="middle" x="252.5" y="-67.5" font-family="Helvetica,sans-Serif" font-size="10.00"> T_INSTANCES_CLUSTER_K &gt;</text>
<polyline fill="none" stroke="black" points="171,-60.5 334,-60.5 "/>
<text text-anchor="middle" x="252.5" y="-48.5" font-family="Helvetica,sans-Serif" font-size="10.00"> </text>
<polyline fill="none" stroke="black" points="171,-41.5 334,-41.5 "/>
<text text-anchor="start" x="179" y="-29.5" font-family="Helvetica,sans-Serif" font-size="10.00">+ InParamPAM()</text>
<text text-anchor="start" x="179" y="-18.5" font-family="Helvetica,sans-Serif" font-size="10.00">+ ~InParamPAM()</text>
<text text-anchor="start" x="179" y="-7.5" font-family="Helvetica,sans-Serif" font-size="10.00">+ print()</text>
</g>
<!-- Node7 -->
<g id="node2" class="node"><title>Node7</title>
<g id="a_node2"><a xlink:href="classinout_1_1_in_param_clustering_max_iter.html" target="_top" xlink:title="Input parameter for algorithm with iteration maximum. ">
<polygon fill="white" stroke="black" points="25,-139.5 25,-251.5 178,-251.5 178,-139.5 25,-139.5"/>
<text text-anchor="start" x="33" y="-239.5" font-family="Helvetica,sans-Serif" font-size="10.00">inout::InParamClustering</text>
<text text-anchor="middle" x="101.5" y="-228.5" font-family="Helvetica,sans-Serif" font-size="10.00">MaxIter</text>
<polyline fill="none" stroke="black" points="25,-221.5 178,-221.5 "/>
<text text-anchor="start" x="33" y="-209.5" font-family="Helvetica,sans-Serif" font-size="10.00"># iT_numMaxIter</text>
<polyline fill="none" stroke="black" points="25,-202.5 178,-202.5 "/>
<text text-anchor="start" x="33" y="-190.5" font-family="Helvetica,sans-Serif" font-size="10.00">+ InParamClusteringMaxIter()</text>
<text text-anchor="start" x="33" y="-179.5" font-family="Helvetica,sans-Serif" font-size="10.00">+ ~InParamClusteringMaxIter()</text>
<text text-anchor="start" x="33" y="-168.5" font-family="Helvetica,sans-Serif" font-size="10.00">+ setNumMaxIter()</text>
<text text-anchor="start" x="33" y="-157.5" font-family="Helvetica,sans-Serif" font-size="10.00">+ getNumMaxIter()</text>
<text text-anchor="start" x="33" y="-146.5" font-family="Helvetica,sans-Serif" font-size="10.00">+ print()</text>
</a>
</g>
</g>
<!-- Node7&#45;&gt;Node6 -->
<g id="edge1" class="edge"><title>Node7&#45;&gt;Node6</title>
<path fill="none" stroke="midnightblue" d="M167.322,-132.383C178.149,-122.166 189.246,-111.693 199.702,-101.826"/>
<polygon fill="none" stroke="midnightblue" points="164.751,-129.997 159.881,-139.406 169.556,-135.088 164.751,-129.997"/>
</g>
<!-- Node8 -->
<g id="node3" class="node"><title>Node8</title>
<g id="a_node3"><a xlink:href="classinout_1_1_in_param_clustering.html" target="_top" xlink:title="Input parameter for clustering algorithm. ">
<polygon fill="white" stroke="black" points="10.5,-317 10.5,-572 192.5,-572 192.5,-317 10.5,-317"/>
<text text-anchor="middle" x="101.5" y="-560" font-family="Helvetica,sans-Serif" font-size="10.00">inout::InParamClustering</text>
<polyline fill="none" stroke="black" points="10.5,-553 192.5,-553 "/>
<text text-anchor="start" x="18.5" y="-541" font-family="Helvetica,sans-Serif" font-size="10.00"># i_opDistance</text>
<text text-anchor="start" x="18.5" y="-530" font-family="Helvetica,sans-Serif" font-size="10.00"># ps_outFileCentroids</text>
<text text-anchor="start" x="18.5" y="-519" font-family="Helvetica,sans-Serif" font-size="10.00"># ps_outFileMemberShip</text>
<text text-anchor="start" x="18.5" y="-508" font-family="Helvetica,sans-Serif" font-size="10.00"># ps_outFilePartitionsTable</text>
<text text-anchor="start" x="18.5" y="-497" font-family="Helvetica,sans-Serif" font-size="10.00"># ps_outFileGraph</text>
<text text-anchor="start" x="18.5" y="-486" font-family="Helvetica,sans-Serif" font-size="10.00"># ps_fileNamePlotStatObjetiveFunc</text>
<text text-anchor="start" x="18.5" y="-475" font-family="Helvetica,sans-Serif" font-size="10.00"># _rd_maxExecutiontime</text>
<text text-anchor="start" x="18.5" y="-464" font-family="Helvetica,sans-Serif" font-size="10.00"># _b_printCentroidsFormat</text>
<text text-anchor="start" x="18.5" y="-453" font-family="Helvetica,sans-Serif" font-size="10.00"># _b_printTableFormat</text>
<polyline fill="none" stroke="black" points="10.5,-446 192.5,-446 "/>
<text text-anchor="start" x="18.5" y="-434" font-family="Helvetica,sans-Serif" font-size="10.00">+ InParamClustering()</text>
<text text-anchor="start" x="18.5" y="-423" font-family="Helvetica,sans-Serif" font-size="10.00">+ ~InParamClustering()</text>
<text text-anchor="start" x="18.5" y="-412" font-family="Helvetica,sans-Serif" font-size="10.00">+ getFileNamePlotStatObjetiveFunc()</text>
<text text-anchor="start" x="18.5" y="-401" font-family="Helvetica,sans-Serif" font-size="10.00">+ getWithPlotStatObjetiveFunc()</text>
<text text-anchor="start" x="18.5" y="-390" font-family="Helvetica,sans-Serif" font-size="10.00">+ setFileNamePlotStatObjetiveFunc()</text>
<text text-anchor="start" x="18.5" y="-379" font-family="Helvetica,sans-Serif" font-size="10.00">+ setOutFileMemberShip()</text>
<text text-anchor="start" x="18.5" y="-368" font-family="Helvetica,sans-Serif" font-size="10.00">+ getOutFileMemberShip()</text>
<text text-anchor="start" x="18.5" y="-357" font-family="Helvetica,sans-Serif" font-size="10.00">+ setRandomSeed()</text>
<text text-anchor="start" x="18.5" y="-346" font-family="Helvetica,sans-Serif" font-size="10.00">+ setRandomSeed()</text>
<text text-anchor="start" x="18.5" y="-335" font-family="Helvetica,sans-Serif" font-size="10.00">+ getRandomSeed()</text>
<text text-anchor="start" x="18.5" y="-324" font-family="Helvetica,sans-Serif" font-size="10.00">and 15 more...</text>
</a>
</g>
</g>
<!-- Node8&#45;&gt;Node7 -->
<g id="edge2" class="edge"><title>Node8&#45;&gt;Node7</title>
<path fill="none" stroke="midnightblue" d="M101.5,-306.584C101.5,-287.213 101.5,-268.288 101.5,-251.745"/>
<polygon fill="none" stroke="midnightblue" points="98.0001,-306.744 101.5,-316.744 105,-306.744 98.0001,-306.744"/>
</g>
<!-- Node9 -->
<g id="node4" class="node"><title>Node9</title>
<g id="a_node4"><a xlink:href="classinout_1_1_in_param_algorithmo.html" target="_top" xlink:title="Input parameter for define propertys of the algorithmos. ">
<polygon fill="white" stroke="black" points="0,-658.5 0,-858.5 135,-858.5 135,-658.5 0,-658.5"/>
<text text-anchor="middle" x="67.5" y="-846.5" font-family="Helvetica,sans-Serif" font-size="10.00">inout::InParamAlgorithmo</text>
<polyline fill="none" stroke="black" points="0,-839.5 135,-839.5 "/>
<text text-anchor="start" x="8" y="-827.5" font-family="Helvetica,sans-Serif" font-size="10.00"># ato_algTypeOut</text>
<text text-anchor="start" x="8" y="-816.5" font-family="Helvetica,sans-Serif" font-size="10.00"># ps_fileNameTimesRun</text>
<text text-anchor="start" x="8" y="-805.5" font-family="Helvetica,sans-Serif" font-size="10.00"># b_progressBarPrinting</text>
<text text-anchor="start" x="8" y="-794.5" font-family="Helvetica,sans-Serif" font-size="10.00"># i_timesRunAlgorithm</text>
<polyline fill="none" stroke="black" points="0,-787.5 135,-787.5 "/>
<text text-anchor="start" x="8" y="-775.5" font-family="Helvetica,sans-Serif" font-size="10.00">+ InParamAlgorithmo()</text>
<text text-anchor="start" x="8" y="-764.5" font-family="Helvetica,sans-Serif" font-size="10.00">+ ~InParamAlgorithmo()</text>
<text text-anchor="start" x="8" y="-753.5" font-family="Helvetica,sans-Serif" font-size="10.00">+ errorArgument()</text>
<text text-anchor="start" x="8" y="-742.5" font-family="Helvetica,sans-Serif" font-size="10.00">+ isYesNo()</text>
<text text-anchor="start" x="8" y="-731.5" font-family="Helvetica,sans-Serif" font-size="10.00">+ setFileNameTimesRun()</text>
<text text-anchor="start" x="8" y="-720.5" font-family="Helvetica,sans-Serif" font-size="10.00">+ setProgressBarPrinting()</text>
<text text-anchor="start" x="8" y="-709.5" font-family="Helvetica,sans-Serif" font-size="10.00">+ setTimesRunAlgorithm()</text>
<text text-anchor="start" x="8" y="-698.5" font-family="Helvetica,sans-Serif" font-size="10.00">+ setGnuPlotCoreStyles()</text>
<text text-anchor="start" x="8" y="-687.5" font-family="Helvetica,sans-Serif" font-size="10.00">+ getAlgorithmoAuthor()</text>
<text text-anchor="start" x="8" y="-676.5" font-family="Helvetica,sans-Serif" font-size="10.00">+ getAlgorithmoName()</text>
<text text-anchor="start" x="8" y="-665.5" font-family="Helvetica,sans-Serif" font-size="10.00">and 8 more...</text>
</a>
</g>
</g>
<!-- Node9&#45;&gt;Node8 -->
<g id="edge3" class="edge"><title>Node9&#45;&gt;Node8</title>
<path fill="none" stroke="midnightblue" d="M79.401,-648.291C82.0815,-623.694 84.9482,-597.387 87.6991,-572.144"/>
<polygon fill="none" stroke="midnightblue" points="75.9085,-648.032 78.3045,-658.353 82.8673,-648.791 75.9085,-648.032"/>
</g>
<!-- Node10 -->
<g id="node5" class="node"><title>Node10</title>
<g id="a_node5"><a xlink:title="STL class. ">
<polygon fill="white" stroke="#bfbfbf" points="209.5,-939.5 209.5,-996.5 269.5,-996.5 269.5,-939.5 209.5,-939.5"/>
<text text-anchor="middle" x="239.5" y="-984.5" font-family="Helvetica,sans-Serif" font-size="10.00">std::string</text>
<polyline fill="none" stroke="#bfbfbf" points="209.5,-977.5 269.5,-977.5 "/>
<text text-anchor="middle" x="239.5" y="-965.5" font-family="Helvetica,sans-Serif" font-size="10.00"> </text>
<polyline fill="none" stroke="#bfbfbf" points="209.5,-958.5 269.5,-958.5 "/>
<text text-anchor="middle" x="239.5" y="-946.5" font-family="Helvetica,sans-Serif" font-size="10.00"> </text>
</a>
</g>
</g>
<!-- Node10&#45;&gt;Node8 -->
<g id="edge6" class="edge"><title>Node10&#45;&gt;Node8</title>
<path fill="none" stroke="#404040" d="M219.356,-939.078C205.178,-918.06 186.936,-888.003 176.5,-859 145.849,-773.817 159.612,-747.084 143.5,-658 139.172,-634.069 134.35,-608.669 129.561,-584.068"/>
<polygon fill="none" stroke="#404040" points="129.517,-583.843 124.44,-578.722 127.214,-572.066 132.291,-577.187 129.517,-583.843"/>
<text text-anchor="middle" x="221" y="-756" font-family="Helvetica,sans-Serif" font-size="10.00"> #_str_randomSeed</text>
</g>
<!-- Node10&#45;&gt;Node9 -->
<g id="edge4" class="edge"><title>Node10&#45;&gt;Node9</title>
<path fill="none" stroke="#404040" d="M209.409,-963.54C163.96,-957.625 81.2104,-943.934 63.5,-921 52.3207,-906.523 47.0968,-888.942 45.5195,-870.777"/>
<polygon fill="none" stroke="#404040" points="45.5193,-870.77 41.2554,-864.955 44.9836,-858.782 49.2474,-864.598 45.5193,-870.77"/>
<text text-anchor="middle" x="113" y="-913" font-family="Helvetica,sans-Serif" font-size="10.00"> #s_algorithmoAuthor</text>
<text text-anchor="middle" x="113" y="-902" font-family="Helvetica,sans-Serif" font-size="10.00">#s_algorithmoName</text>
<text text-anchor="middle" x="113" y="-891" font-family="Helvetica,sans-Serif" font-size="10.00">#s_gnuplotCoreStyles</text>
<text text-anchor="middle" x="113" y="-880" font-family="Helvetica,sans-Serif" font-size="10.00">#_s_runTimeId</text>
</g>
<!-- Node13 -->
<g id="node8" class="node"><title>Node13</title>
<g id="a_node8"><a xlink:href="classinout_1_1_in_param_read_inst.html" target="_top" xlink:title="Input parameter for read instances. ">
<polygon fill="white" stroke="black" points="252,-289.5 252,-599.5 423,-599.5 423,-289.5 252,-289.5"/>
<text text-anchor="start" x="260" y="-587.5" font-family="Helvetica,sans-Serif" font-size="10.00">inout::InParamReadInst</text>
<text text-anchor="start" x="260" y="-576.5" font-family="Helvetica,sans-Serif" font-size="10.00">&lt; T_FEATURE, T_INSTANCES</text>
<text text-anchor="middle" x="337.5" y="-565.5" font-family="Helvetica,sans-Serif" font-size="10.00">_CLUSTER_K, T_CLUSTERIDX &gt;</text>
<polyline fill="none" stroke="black" points="252,-558.5 423,-558.5 "/>
<text text-anchor="start" x="260" y="-546.5" font-family="Helvetica,sans-Serif" font-size="10.00"># _ui_idxCurrentFileInstance</text>
<text text-anchor="start" x="260" y="-535.5" font-family="Helvetica,sans-Serif" font-size="10.00"># _enum_formatInstanceFile</text>
<text text-anchor="start" x="260" y="-524.5" font-family="Helvetica,sans-Serif" font-size="10.00"># _b_haveHeaderFile</text>
<text text-anchor="start" x="260" y="-513.5" font-family="Helvetica,sans-Serif" font-size="10.00"># _ui_classInstanceColumn</text>
<text text-anchor="start" x="260" y="-502.5" font-family="Helvetica,sans-Serif" font-size="10.00"># _ui_clusterInstanceColumn</text>
<text text-anchor="start" x="260" y="-491.5" font-family="Helvetica,sans-Serif" font-size="10.00"># _ui_idInstanceColumn</text>
<text text-anchor="start" x="260" y="-480.5" font-family="Helvetica,sans-Serif" font-size="10.00"># _ui_instancesFrequencyColumn</text>
<text text-anchor="start" x="260" y="-469.5" font-family="Helvetica,sans-Serif" font-size="10.00"># _ui_idMultiInstanceColumn</text>
<text text-anchor="start" x="260" y="-458.5" font-family="Helvetica,sans-Serif" font-size="10.00"># _ui_classMultiInstColumn</text>
<text text-anchor="start" x="260" y="-447.5" font-family="Helvetica,sans-Serif" font-size="10.00"># _ui_numInstances</text>
<text text-anchor="start" x="260" y="-436.5" font-family="Helvetica,sans-Serif" font-size="10.00"># _ui_numDimensionsInstances</text>
<text text-anchor="start" x="260" y="-425.5" font-family="Helvetica,sans-Serif" font-size="10.00"># _ui_numInstancesTest</text>
<polyline fill="none" stroke="black" points="252,-418.5 423,-418.5 "/>
<text text-anchor="start" x="260" y="-406.5" font-family="Helvetica,sans-Serif" font-size="10.00">+ InParamReadInst()</text>
<text text-anchor="start" x="260" y="-395.5" font-family="Helvetica,sans-Serif" font-size="10.00">+ InParamReadInst()</text>
<text text-anchor="start" x="260" y="-384.5" font-family="Helvetica,sans-Serif" font-size="10.00">+ ~InParamReadInst()</text>
<text text-anchor="start" x="260" y="-373.5" font-family="Helvetica,sans-Serif" font-size="10.00">+ clearVectorFilesInstance()</text>
<text text-anchor="start" x="260" y="-362.5" font-family="Helvetica,sans-Serif" font-size="10.00">+ getVectorFilesInstance()</text>
<text text-anchor="start" x="260" y="-351.5" font-family="Helvetica,sans-Serif" font-size="10.00">+ setVectorFilesInstance()</text>
<text text-anchor="start" x="260" y="-340.5" font-family="Helvetica,sans-Serif" font-size="10.00">+ getNumFilesInstance()</text>
<text text-anchor="start" x="260" y="-329.5" font-family="Helvetica,sans-Serif" font-size="10.00">+ setVectorFilesInstanceTest()</text>
<text text-anchor="start" x="260" y="-318.5" font-family="Helvetica,sans-Serif" font-size="10.00">+ getVectorFilesInstanceTest()</text>
<text text-anchor="start" x="260" y="-307.5" font-family="Helvetica,sans-Serif" font-size="10.00">+ getNumFilesInstanceTest()</text>
<text text-anchor="start" x="260" y="-296.5" font-family="Helvetica,sans-Serif" font-size="10.00">and 35 more...</text>
</a>
</g>
</g>
<!-- Node10&#45;&gt;Node13 -->
<g id="edge9" class="edge"><title>Node10&#45;&gt;Node13</title>
<path fill="none" stroke="#404040" d="M248.103,-939.236C254.608,-917.544 263.426,-886.555 269.5,-859 287.302,-778.242 302.702,-687.677 314.323,-611.936"/>
<polygon fill="none" stroke="#404040" points="314.347,-611.775 311.297,-605.241 316.155,-599.912 319.205,-606.446 314.347,-611.775"/>
<text text-anchor="middle" x="360" y="-761.5" font-family="Helvetica,sans-Serif" font-size="10.00"> #_ps_selectAttributes</text>
<text text-anchor="middle" x="360" y="-750.5" font-family="Helvetica,sans-Serif" font-size="10.00">#_s_separatorAttributes</text>
</g>
<!-- Node14 -->
<g id="node9" class="node"><title>Node14</title>
<polygon fill="white" stroke="#bfbfbf" points="425,-730 425,-787 550,-787 550,-730 425,-730"/>
<text text-anchor="middle" x="487.5" y="-775" font-family="Helvetica,sans-Serif" font-size="10.00">std::vector&lt; std::string &gt;</text>
<polyline fill="none" stroke="#bfbfbf" points="425,-768 550,-768 "/>
<text text-anchor="middle" x="487.5" y="-756" font-family="Helvetica,sans-Serif" font-size="10.00"> </text>
<polyline fill="none" stroke="#bfbfbf" points="425,-749 550,-749 "/>
<text text-anchor="middle" x="487.5" y="-737" font-family="Helvetica,sans-Serif" font-size="10.00"> </text>
</g>
<!-- Node10&#45;&gt;Node14 -->
<g id="edge11" class="edge"><title>Node10&#45;&gt;Node14</title>
<path fill="none" stroke="#404040" d="M269.604,-949.099C283.623,-940.682 300.484,-930.44 315.5,-921 358.184,-894.165 373.445,-893.19 410.5,-859 430.322,-840.711 448.936,-816.916 462.896,-797.182"/>
<polygon fill="none" stroke="#404040" points="462.92,-797.148 463.049,-789.938 469.753,-787.284 469.625,-794.494 462.92,-797.148"/>
<text text-anchor="middle" x="415" y="-896.5" font-family="Helvetica,sans-Serif" font-size="10.00"> +elements</text>
</g>
<!-- Node11 -->
<g id="node6" class="node"><title>Node11</title>
<g id="a_node6"><a xlink:title="STL class. ">
<polygon fill="white" stroke="#bfbfbf" points="192,-1044.5 192,-1112.5 287,-1112.5 287,-1044.5 192,-1044.5"/>
<text text-anchor="start" x="200" y="-1100.5" font-family="Helvetica,sans-Serif" font-size="10.00">std::basic_string&lt;</text>
<text text-anchor="middle" x="239.5" y="-1089.5" font-family="Helvetica,sans-Serif" font-size="10.00"> char &gt;</text>
<polyline fill="none" stroke="#bfbfbf" points="192,-1082.5 287,-1082.5 "/>
<text text-anchor="middle" x="239.5" y="-1070.5" font-family="Helvetica,sans-Serif" font-size="10.00"> </text>
<polyline fill="none" stroke="#bfbfbf" points="192,-1063.5 287,-1063.5 "/>
<text text-anchor="middle" x="239.5" y="-1051.5" font-family="Helvetica,sans-Serif" font-size="10.00"> </text>
</a>
</g>
</g>
<!-- Node11&#45;&gt;Node10 -->
<g id="edge5" class="edge"><title>Node11&#45;&gt;Node10</title>
<path fill="none" stroke="midnightblue" d="M239.5,-1034.06C239.5,-1021.51 239.5,-1008.15 239.5,-996.827"/>
<polygon fill="none" stroke="midnightblue" points="236,-1034.36 239.5,-1044.36 243,-1034.36 236,-1034.36"/>
</g>
<!-- Node12 -->
<g id="node7" class="node"><title>Node12</title>
<g id="a_node7"><a xlink:href="classinout_1_1_in_param_fk.html" target="_top" xlink:title="Input parameter for algorithms with Fixed K. ">
<polygon fill="white" stroke="black" points="196,-139.5 196,-251.5 309,-251.5 309,-139.5 196,-139.5"/>
<text text-anchor="start" x="204" y="-239.5" font-family="Helvetica,sans-Serif" font-size="10.00">inout::InParamFk&lt; T</text>
<text text-anchor="middle" x="252.5" y="-228.5" font-family="Helvetica,sans-Serif" font-size="10.00">_CLUSTERIDX &gt;</text>
<polyline fill="none" stroke="black" points="196,-221.5 309,-221.5 "/>
<text text-anchor="start" x="204" y="-209.5" font-family="Helvetica,sans-Serif" font-size="10.00"># _idxK_numClusterK</text>
<polyline fill="none" stroke="black" points="196,-202.5 309,-202.5 "/>
<text text-anchor="start" x="204" y="-190.5" font-family="Helvetica,sans-Serif" font-size="10.00">+ InParamFk()</text>
<text text-anchor="start" x="204" y="-179.5" font-family="Helvetica,sans-Serif" font-size="10.00">+ ~InParamFk()</text>
<text text-anchor="start" x="204" y="-168.5" font-family="Helvetica,sans-Serif" font-size="10.00">+ setNumClusterK()</text>
<text text-anchor="start" x="204" y="-157.5" font-family="Helvetica,sans-Serif" font-size="10.00">+ getNumClusterK()</text>
<text text-anchor="start" x="204" y="-146.5" font-family="Helvetica,sans-Serif" font-size="10.00">+ print()</text>
</a>
</g>
</g>
<!-- Node12&#45;&gt;Node6 -->
<g id="edge7" class="edge"><title>Node12&#45;&gt;Node6</title>
<path fill="none" stroke="midnightblue" d="M252.5,-129.134C252.5,-119.957 252.5,-110.65 252.5,-101.826"/>
<polygon fill="none" stroke="midnightblue" points="249,-129.406 252.5,-139.406 256,-129.406 249,-129.406"/>
</g>
<!-- Node13&#45;&gt;Node6 -->
<g id="edge8" class="edge"><title>Node13&#45;&gt;Node6</title>
<path fill="none" stroke="midnightblue" d="M343.85,-279.144C341.099,-232.693 333.695,-182.872 317.5,-139 312.668,-125.911 305.199,-113.12 297.02,-101.548"/>
<polygon fill="none" stroke="midnightblue" points="340.364,-279.507 344.382,-289.311 347.354,-279.142 340.364,-279.507"/>
</g>
<!-- Node14&#45;&gt;Node13 -->
<g id="edge10" class="edge"><title>Node14&#45;&gt;Node13</title>
<path fill="none" stroke="#404040" d="M474.189,-729.812C460.818,-702.002 439.056,-656.736 416.787,-610.418"/>
<polygon fill="none" stroke="#404040" points="416.778,-610.398 410.573,-606.723 411.578,-599.583 417.783,-603.257 416.778,-610.398"/>
<text text-anchor="middle" x="496" y="-632" font-family="Helvetica,sans-Serif" font-size="10.00"> #_vectorstr_filesInstance</text>
<text text-anchor="middle" x="496" y="-621" font-family="Helvetica,sans-Serif" font-size="10.00">#_vectorstr_filesInstanceTest</text>
</g>
<!-- Node15 -->
<g id="node10" class="node"><title>Node15</title>
<g id="a_node10"><a xlink:title="STL class. ">
<polygon fill="white" stroke="#bfbfbf" points="443,-939.5 443,-996.5 532,-996.5 532,-939.5 443,-939.5"/>
<text text-anchor="middle" x="487.5" y="-984.5" font-family="Helvetica,sans-Serif" font-size="10.00">std::vector&lt; T &gt;</text>
<polyline fill="none" stroke="#bfbfbf" points="443,-977.5 532,-977.5 "/>
<text text-anchor="middle" x="487.5" y="-965.5" font-family="Helvetica,sans-Serif" font-size="10.00"> </text>
<polyline fill="none" stroke="#bfbfbf" points="443,-958.5 532,-958.5 "/>
<text text-anchor="middle" x="487.5" y="-946.5" font-family="Helvetica,sans-Serif" font-size="10.00"> </text>
</a>
</g>
</g>
<!-- Node15&#45;&gt;Node14 -->
<g id="edge12" class="edge"><title>Node15&#45;&gt;Node14</title>
<path fill="none" stroke="orange" d="M487.5,-929.308C487.5,-888.305 487.5,-823.736 487.5,-787.168"/>
<polygon fill="orange" stroke="orange" points="484,-929.446 487.5,-939.446 491,-929.446 484,-929.446"/>
<text text-anchor="middle" x="520" y="-896.5" font-family="Helvetica,sans-Serif" font-size="10.00"> &lt; std::string &gt;</text>
</g>
<!-- Node16 -->
<g id="node11" class="node"><title>Node16</title>
<polygon fill="white" stroke="#bfbfbf" points="473,-1050 473,-1107 502,-1107 502,-1050 473,-1050"/>
<text text-anchor="middle" x="487.5" y="-1095" font-family="Helvetica,sans-Serif" font-size="10.00">T</text>
<polyline fill="none" stroke="#bfbfbf" points="473,-1088 502,-1088 "/>
<text text-anchor="middle" x="487.5" y="-1076" font-family="Helvetica,sans-Serif" font-size="10.00"> </text>
<polyline fill="none" stroke="#bfbfbf" points="473,-1069 502,-1069 "/>
<text text-anchor="middle" x="487.5" y="-1057" font-family="Helvetica,sans-Serif" font-size="10.00"> </text>
</g>
<!-- Node16&#45;&gt;Node15 -->
<g id="edge13" class="edge"><title>Node16&#45;&gt;Node15</title>
<path fill="none" stroke="#404040" d="M487.5,-1049.84C487.5,-1037.34 487.5,-1022.34 487.5,-1008.68"/>
<polygon fill="none" stroke="#404040" points="487.5,-1008.61 483.5,-1002.61 487.5,-996.609 491.5,-1002.61 487.5,-1008.61"/>
<text text-anchor="middle" x="513" y="-1018" font-family="Helvetica,sans-Serif" font-size="10.00"> +elements</text>
</g>
</g>
</svg>
        <g id="navigator" transform="translate(0 0)" fill="#404254">
                <rect fill="#f2f5e9" fill-opacity="0.5" stroke="#606060" stroke-width=".5" x="0" y="0" width="60" height="60"/>
                <use id="zoomplus" xlink:href="#zoomPlus" x="17" y="9" onmousedown="handleZoom(evt,'in')"/>
                <use id="zoomminus" xlink:href="#zoomMin" x="42" y="9" onmousedown="handleZoom(evt,'out')"/>
                <use id="reset" xlink:href="#resetDef" x="30" y="36" onmousedown="handleReset()"/>
                <g id="arrowUp" xlink:href="#dirArrow" transform="translate(30 24)" onmousedown="handlePan(0,-1)">
                  <use xlink:href="#rim" fill="#404040">
                        <set attributeName="fill" to="#808080" begin="arrowUp.mouseover" end="arrowUp.mouseout"/>
                  </use>
                  <path fill="none" stroke="white" stroke-width="1.5" d="M0,-3.0v7 M-2.5,-0.5L0,-3.0L2.5,-0.5"/>
                </g>
                <g id="arrowRight" xlink:href="#dirArrow" transform="rotate(90) translate(36 -43)" onmousedown="handlePan(1,0)">
                  <use xlink:href="#rim" fill="#404040">
                        <set attributeName="fill" to="#808080" begin="arrowRight.mouseover" end="arrowRight.mouseout"/>
                  </use>
                  <path fill="none" stroke="white" stroke-width="1.5" d="M0,-3.0v7 M-2.5,-0.5L0,-3.0L2.5,-0.5"/>
                </g>
                <g id="arrowDown" xlink:href="#dirArrow" transform="rotate(180) translate(-30 -48)" onmousedown="handlePan(0,1)">
                  <use xlink:href="#rim" fill="#404040">
                        <set attributeName="fill" to="#808080" begin="arrowDown.mouseover" end="arrowDown.mouseout"/>
                  </use>
                  <path fill="none" stroke="white" stroke-width="1.5" d="M0,-3.0v7 M-2.5,-0.5L0,-3.0L2.5,-0.5"/>
                </g>
                <g id="arrowLeft" xlink:href="#dirArrow" transform="rotate(270) translate(-36 17)" onmousedown="handlePan(-1,0)">
                  <use xlink:href="#rim" fill="#404040">
                        <set attributeName="fill" to="#808080" begin="arrowLeft.mouseover" end="arrowLeft.mouseout"/>
                  </use>
                  <path fill="none" stroke="white" stroke-width="1.5" d="M0,-3.0v7 M-2.5,-0.5L0,-3.0L2.5,-0.5"/>
                </g>
        </g>
        <svg viewBox="0 0 15 15" width="100%" height="30px" preserveAspectRatio="xMaxYMin meet">
         <g id="arrow_out" transform="scale(0.3 0.3)">
          <a xlink:href="classinout_1_1_in_param_p_a_m__coll__graph_org.svg" target="_base">
           <rect id="button" ry="5" rx="5" y="6" x="6" height="38" width="38"
                fill="#f2f5e9" fill-opacity="0.5" stroke="#606060" stroke-width="1.0"/>
           <path id="arrow"
             d="M 11.500037,31.436501 C 11.940474,20.09759 22.043105,11.32322 32.158766,21.979434 L 37.068811,17.246167 C 37.068811,17.246167 37.088388,32 37.088388,32 L 22.160133,31.978069 C 22.160133,31.978069 26.997745,27.140456 26.997745,27.140456 C 18.528582,18.264221 13.291696,25.230495 11.500037,31.436501 z"
             style="fill:#404040;"/>
          </a>
         </g>
        </svg>
</svg>
