<?xml version="1.0" encoding="UTF-8" standalone="no"?>
<!DOCTYPE svg PUBLIC "-//W3C//DTD SVG 1.1//EN"
 "http://www.w3.org/Graphics/SVG/1.1/DTD/svg11.dtd">
<!-- Generated by graphviz version 2.38.0 (20140413.2041)
 -->
<!-- Title: ds::PartitionLinkedStats::initialize Pages: 1 -->
<!--zoomable 119 -->
<svg id="main" version="1.1" xmlns="http://www.w3.org/2000/svg" xmlns:xlink="http://www.w3.org/1999/xlink" xml:space="preserve" onload="init(evt)">
<style type="text/css"><![CDATA[
.edge:hover path { stroke: red; }
.edge:hover polygon { stroke: red; fill: red; }
]]></style>
<script type="text/javascript"><![CDATA[
var edges = document.getElementsByTagName('g');
if (edges && edges.length) {
  for (var i=0;i<edges.length;i++) {
    if (edges[i].id.substr(0,4)=='edge') {
      edges[i].setAttribute('class','edge');
    }
  }
}
]]></script>
        <defs>
                <circle id="rim" cx="0" cy="0" r="7"/>
                <circle id="rim2" cx="0" cy="0" r="3.5"/>
                <g id="zoomPlus">
                        <use xlink:href="#rim" fill="#404040">
                                <set attributeName="fill" to="#808080" begin="zoomplus.mouseover" end="zoomplus.mouseout"/>
                        </use>
                        <path d="M-4,0h8M0,-4v8" fill="none" stroke="white" stroke-width="1.5" pointer-events="none"/>
                </g>
                <g id="zoomMin">
                        <use xlink:href="#rim" fill="#404040">
                                <set attributeName="fill" to="#808080" begin="zoomminus.mouseover" end="zoomminus.mouseout"/>
                        </use>
                        <path d="M-4,0h8" fill="none" stroke="white" stroke-width="1.5" pointer-events="none"/>
                </g>
                <g id="dirArrow">
                        <path fill="none" stroke="white" stroke-width="1.5" d="M0,-3.0v7 M-2.5,-0.5L0,-3.0L2.5,-0.5"/>
                </g>
               <g id="resetDef">
                       <use xlink:href="#rim2" fill="#404040">
                               <set attributeName="fill" to="#808080" begin="reset.mouseover" end="reset.mouseout"/>
                       </use>
               </g>
        </defs>

<script type="text/javascript">
var viewWidth = 1465;
var viewHeight = 119;
var sectionId = 'dynsection-11';
</script>
<script xlink:href="svgpan.js"/>
<svg id="graph" class="graph">
<g id="viewport">
<title>ds::PartitionLinkedStats::initialize</title>
<polygon fill="white" stroke="none" points="-4,4 -4,-114.5 1461,-114.5 1461,4 -4,4"/>
<!-- Node111 -->
<g id="node1" class="node"><title>Node111</title>
<polygon fill="#bfbfbf" stroke="black" points="0,-41 0,-71 122,-71 122,-41 0,-41"/>
<text text-anchor="start" x="8" y="-59" font-family="Helvetica,sans-Serif" font-size="10.00">ds::PartitionLinkedStats</text>
<text text-anchor="middle" x="61" y="-48" font-family="Helvetica,sans-Serif" font-size="10.00">::initialize</text>
</g>
<!-- Node112 -->
<g id="node2" class="node"><title>Node112</title>
<g id="a_node2"><a xlink:href="classds_1_1_partition_linked.html#a70877e6d118d2f041d9006fdf565daec" target="_top" xlink:title="ds::PartitionLinked\l::getNumInstances">
<polygon fill="white" stroke="black" points="158,-66 158,-96 258,-96 258,-66 158,-66"/>
<text text-anchor="start" x="166" y="-84" font-family="Helvetica,sans-Serif" font-size="10.00">ds::PartitionLinked</text>
<text text-anchor="middle" x="208" y="-73" font-family="Helvetica,sans-Serif" font-size="10.00">::getNumInstances</text>
</a>
</g>
</g>
<!-- Node111&#45;&gt;Node112 -->
<g id="edge1" class="edge"><title>Node111&#45;&gt;Node112</title>
<path fill="none" stroke="midnightblue" d="M122.233,-66.3851C130.642,-67.8348 139.277,-69.3236 147.668,-70.7704"/>
<polygon fill="midnightblue" stroke="midnightblue" points="147.302,-74.2589 157.752,-72.5089 148.492,-67.3606 147.302,-74.2589"/>
</g>
<!-- Node113 -->
<g id="node3" class="node"><title>Node113</title>
<g id="a_node3"><a xlink:href="classds_1_1_partition_linked.html#a0f987d3d73d81f3b18139b8e948464d3" target="_top" xlink:title="ds::PartitionLinked\l::initialize">
<polygon fill="white" stroke="black" points="158,-17 158,-47 258,-47 258,-17 158,-17"/>
<text text-anchor="start" x="166" y="-35" font-family="Helvetica,sans-Serif" font-size="10.00">ds::PartitionLinked</text>
<text text-anchor="middle" x="208" y="-24" font-family="Helvetica,sans-Serif" font-size="10.00">::initialize</text>
</a>
</g>
</g>
<!-- Node111&#45;&gt;Node113 -->
<g id="edge2" class="edge"><title>Node111&#45;&gt;Node113</title>
<path fill="none" stroke="midnightblue" d="M122.233,-46.0303C130.642,-44.6386 139.277,-43.2094 147.668,-41.8204"/>
<polygon fill="midnightblue" stroke="midnightblue" points="148.457,-45.2375 157.752,-40.1515 147.314,-38.3315 148.457,-45.2375"/>
</g>
<!-- Node114 -->
<g id="node4" class="node"><title>Node114</title>
<g id="a_node4"><a xlink:href="classds_1_1_partition_linked.html#a4013f0d8892069abc3fe9c05103d60e0" target="_top" xlink:title="ds::PartitionLinked\l::addInstanceToCluster">
<polygon fill="white" stroke="black" points="294,-39 294,-69 417,-69 417,-39 294,-39"/>
<text text-anchor="start" x="302" y="-57" font-family="Helvetica,sans-Serif" font-size="10.00">ds::PartitionLinked</text>
<text text-anchor="middle" x="355.5" y="-46" font-family="Helvetica,sans-Serif" font-size="10.00">::addInstanceToCluster</text>
</a>
</g>
</g>
<!-- Node113&#45;&gt;Node114 -->
<g id="edge3" class="edge"><title>Node113&#45;&gt;Node114</title>
<path fill="none" stroke="midnightblue" d="M258.26,-39.4482C266.496,-40.6936 275.183,-42.007 283.83,-43.3145"/>
<polygon fill="midnightblue" stroke="midnightblue" points="283.523,-46.8078 293.934,-44.8423 284.57,-39.8865 283.523,-46.8078"/>
</g>
<!-- Node121 -->
<g id="node11" class="node"><title>Node121</title>
<g id="a_node11"><a xlink:href="namespaceinterfacesse.html#aa4b94bf2bf8cb7c437fa3feba8b70ff8" target="_top" xlink:title="Initializes the array with a constant . ">
<polygon fill="white" stroke="black" points="303,-0.5 303,-19.5 408,-19.5 408,-0.5 303,-0.5"/>
<text text-anchor="middle" x="355.5" y="-7.5" font-family="Helvetica,sans-Serif" font-size="10.00">interfacesse::copya</text>
</a>
</g>
</g>
<!-- Node113&#45;&gt;Node121 -->
<g id="edge12" class="edge"><title>Node113&#45;&gt;Node121</title>
<path fill="none" stroke="midnightblue" d="M258.26,-24.5518C269.355,-22.8742 281.266,-21.0732 292.799,-19.3294"/>
<polygon fill="midnightblue" stroke="midnightblue" points="293.441,-22.7722 302.805,-17.8164 292.394,-15.8508 293.441,-22.7722"/>
</g>
<!-- Node115 -->
<g id="node5" class="node"><title>Node115</title>
<g id="a_node5"><a xlink:href="classds_1_1_partition_linked.html#adc3c73d4486bec92878e785229d2536e" target="_top" xlink:title="ds::PartitionLinked\l::subInstanceFromCluster">
<polygon fill="white" stroke="black" points="453,-80 453,-110 584,-110 584,-80 453,-80"/>
<text text-anchor="start" x="461" y="-98" font-family="Helvetica,sans-Serif" font-size="10.00">ds::PartitionLinked</text>
<text text-anchor="middle" x="518.5" y="-87" font-family="Helvetica,sans-Serif" font-size="10.00">::subInstanceFromCluster</text>
</a>
</g>
</g>
<!-- Node114&#45;&gt;Node115 -->
<g id="edge4" class="edge"><title>Node114&#45;&gt;Node115</title>
<path fill="none" stroke="midnightblue" d="M415.536,-69.0341C426.255,-71.7637 437.522,-74.6329 448.497,-77.4279"/>
<polygon fill="midnightblue" stroke="midnightblue" points="447.916,-80.8916 458.471,-79.9677 449.644,-74.1081 447.916,-80.8916"/>
</g>
<!-- Node116 -->
<g id="node6" class="node"><title>Node116</title>
<g id="a_node6"><a xlink:href="classds_1_1_partition_linked.html#abfd8979dbdeee0fda9d8cb22aa9062ed" target="_top" xlink:title="ds::PartitionLinked\l::changeMemberShip">
<polygon fill="white" stroke="black" points="620,-80 620,-110 733,-110 733,-80 620,-80"/>
<text text-anchor="start" x="628" y="-98" font-family="Helvetica,sans-Serif" font-size="10.00">ds::PartitionLinked</text>
<text text-anchor="middle" x="676.5" y="-87" font-family="Helvetica,sans-Serif" font-size="10.00">::changeMemberShip</text>
</a>
</g>
</g>
<!-- Node115&#45;&gt;Node116 -->
<g id="edge5" class="edge"><title>Node115&#45;&gt;Node116</title>
<path fill="none" stroke="midnightblue" d="M584.303,-88.3366C592.635,-88.2263 601.174,-88.2214 609.524,-88.3218"/>
<polygon fill="midnightblue" stroke="midnightblue" points="609.531,-91.8223 619.59,-88.4966 609.652,-84.8234 609.531,-91.8223"/>
</g>
<!-- Node116&#45;&gt;Node114 -->
<g id="edge6" class="edge"><title>Node116&#45;&gt;Node114</title>
<path fill="none" stroke="midnightblue" d="M624.558,-79.8855C611.444,-76.4792 597.283,-73.2193 584,-71 531.993,-62.3106 472.552,-58.0613 427.474,-55.9841"/>
<polygon fill="midnightblue" stroke="midnightblue" points="427.354,-52.4757 417.212,-55.5372 427.05,-59.4691 427.354,-52.4757"/>
</g>
<!-- Node116&#45;&gt;Node115 -->
<g id="edge11" class="edge"><title>Node116&#45;&gt;Node115</title>
<path fill="none" stroke="midnightblue" d="M619.59,-101.503C611.458,-101.69 602.977,-101.77 594.542,-101.746"/>
<polygon fill="midnightblue" stroke="midnightblue" points="594.331,-98.244 584.303,-101.663 594.274,-105.244 594.331,-98.244"/>
</g>
<!-- Node117 -->
<g id="node7" class="node"><title>Node117</title>
<g id="a_node7"><a xlink:href="classds_1_1_partition_linked.html#aaa302ea8b39c37c44507bf4276ffa8f2" target="_top" xlink:title="ds::PartitionLinked\l::getInstanceIdxOfClusterK">
<polygon fill="white" stroke="black" points="769,-80 769,-110 905,-110 905,-80 769,-80"/>
<text text-anchor="start" x="777" y="-98" font-family="Helvetica,sans-Serif" font-size="10.00">ds::PartitionLinked</text>
<text text-anchor="middle" x="837" y="-87" font-family="Helvetica,sans-Serif" font-size="10.00">::getInstanceIdxOfClusterK</text>
</a>
</g>
</g>
<!-- Node116&#45;&gt;Node117 -->
<g id="edge7" class="edge"><title>Node116&#45;&gt;Node117</title>
<path fill="none" stroke="midnightblue" d="M733.381,-95C741.645,-95 750.281,-95 758.883,-95"/>
<polygon fill="midnightblue" stroke="midnightblue" points="758.942,-98.5001 768.942,-95 758.942,-91.5001 758.942,-98.5001"/>
</g>
<!-- Node118 -->
<g id="node8" class="node"><title>Node118</title>
<g id="a_node8"><a xlink:href="classds_1_1_partition_linked.html#a1a20dd710247ebccba848e555f9ad9e6" target="_top" xlink:title="ds::PartitionLinked\l::joinCluster">
<polygon fill="white" stroke="black" points="941,-80 941,-110 1041,-110 1041,-80 941,-80"/>
<text text-anchor="start" x="949" y="-98" font-family="Helvetica,sans-Serif" font-size="10.00">ds::PartitionLinked</text>
<text text-anchor="middle" x="991" y="-87" font-family="Helvetica,sans-Serif" font-size="10.00">::joinCluster</text>
</a>
</g>
</g>
<!-- Node117&#45;&gt;Node118 -->
<g id="edge8" class="edge"><title>Node117&#45;&gt;Node118</title>
<path fill="none" stroke="midnightblue" d="M905.112,-95C913.593,-95 922.224,-95 930.574,-95"/>
<polygon fill="midnightblue" stroke="midnightblue" points="930.591,-98.5001 940.591,-95 930.591,-91.5001 930.591,-98.5001"/>
</g>
<!-- Node119 -->
<g id="node9" class="node"><title>Node119</title>
<g id="a_node9"><a xlink:href="classds_1_1_partition_linked.html#a6a7de3bc18b0904e2e23536a336e42a8" target="_top" xlink:title="ds::PartitionLinked\l::print">
<polygon fill="white" stroke="black" points="1077,-80 1077,-110 1177,-110 1177,-80 1077,-80"/>
<text text-anchor="start" x="1085" y="-98" font-family="Helvetica,sans-Serif" font-size="10.00">ds::PartitionLinked</text>
<text text-anchor="middle" x="1127" y="-87" font-family="Helvetica,sans-Serif" font-size="10.00">::print</text>
</a>
</g>
</g>
<!-- Node118&#45;&gt;Node119 -->
<g id="edge9" class="edge"><title>Node118&#45;&gt;Node119</title>
<path fill="none" stroke="midnightblue" d="M1041.14,-95C1049.42,-95 1058.1,-95 1066.61,-95"/>
<polygon fill="midnightblue" stroke="midnightblue" points="1066.87,-98.5001 1076.87,-95 1066.87,-91.5001 1066.87,-98.5001"/>
</g>
<!-- Node120 -->
<g id="node10" class="node"><title>Node120</title>
<g id="a_node10"><a xlink:href="classds_1_1_partition_linked.html#a696f58c4d25fd41adf281d1468440dc9" target="_top" xlink:title="ds::PartitionLinked\l::getNumPartitions">
<polygon fill="white" stroke="black" points="1219,-80 1219,-110 1319,-110 1319,-80 1219,-80"/>
<text text-anchor="start" x="1227" y="-98" font-family="Helvetica,sans-Serif" font-size="10.00">ds::PartitionLinked</text>
<text text-anchor="middle" x="1269" y="-87" font-family="Helvetica,sans-Serif" font-size="10.00">::getNumPartitions</text>
</a>
</g>
</g>
<!-- Node119&#45;&gt;Node120 -->
<g id="edge10" class="edge"><title>Node119&#45;&gt;Node120</title>
<path fill="none" stroke="midnightblue" d="M1177.36,-95C1187.4,-95 1198.06,-95 1208.4,-95"/>
<polygon fill="midnightblue" stroke="midnightblue" points="1208.62,-98.5001 1218.62,-95 1208.62,-91.5001 1208.62,-98.5001"/>
</g>
<!-- Node122 -->
<g id="node12" class="node"><title>Node122</title>
<g id="a_node12"><a xlink:href="namespaceinterfacesse.html#a925f44ed84d40e9af5050fa0e1373396" target="_top" xlink:title="copy array aoarrayt_x in aoarrayt_y of type T ">
<polygon fill="white" stroke="black" points="469,-0.5 469,-19.5 568,-19.5 568,-0.5 469,-0.5"/>
<text text-anchor="middle" x="518.5" y="-7.5" font-family="Helvetica,sans-Serif" font-size="10.00">interfacesse::copy</text>
</a>
</g>
</g>
<!-- Node121&#45;&gt;Node122 -->
<g id="edge13" class="edge"><title>Node121&#45;&gt;Node122</title>
<path fill="none" stroke="midnightblue" d="M408.328,-10C424.39,-10 442.204,-10 458.704,-10"/>
<polygon fill="midnightblue" stroke="midnightblue" points="458.78,-13.5001 468.78,-10 458.78,-6.5001 458.78,-13.5001"/>
</g>
<!-- Node123 -->
<g id="node13" class="node"><title>Node123</title>
<g id="a_node13"><a xlink:href="namespaceinterfacesse.html#afaa45a2a27710ea2dfa979289cf4961d" target="_top" xlink:title="swap items of aoarrayt_y to aiarrayt_x ">
<polygon fill="white" stroke="black" points="626,-0.5 626,-19.5 727,-19.5 727,-0.5 626,-0.5"/>
<text text-anchor="middle" x="676.5" y="-7.5" font-family="Helvetica,sans-Serif" font-size="10.00">interfacesse::swap</text>
</a>
</g>
</g>
<!-- Node122&#45;&gt;Node123 -->
<g id="edge14" class="edge"><title>Node122&#45;&gt;Node123</title>
<path fill="none" stroke="midnightblue" d="M568.004,-10C583.118,-10 599.966,-10 615.755,-10"/>
<polygon fill="midnightblue" stroke="midnightblue" points="615.95,-13.5001 625.95,-10 615.95,-6.5001 615.95,-13.5001"/>
</g>
<!-- Node124 -->
<g id="node14" class="node"><title>Node124</title>
<g id="a_node14"><a xlink:href="namespaceinterfacesse.html#a2f42addf86fc8b9cd0c6620217b8a2db" target="_top" xlink:title="swap items of aoarrayt_y to aiarrayt_x ">
<polygon fill="white" stroke="black" points="791,-0.5 791,-19.5 883,-19.5 883,-0.5 791,-0.5"/>
<text text-anchor="middle" x="837" y="-7.5" font-family="Helvetica,sans-Serif" font-size="10.00">interfacesse::dot</text>
</a>
</g>
</g>
<!-- Node123&#45;&gt;Node124 -->
<g id="edge15" class="edge"><title>Node123&#45;&gt;Node124</title>
<path fill="none" stroke="midnightblue" d="M727.216,-10C744.215,-10 763.331,-10 780.741,-10"/>
<polygon fill="midnightblue" stroke="midnightblue" points="780.766,-13.5001 790.766,-10 780.766,-6.5001 780.766,-13.5001"/>
</g>
<!-- Node125 -->
<g id="node15" class="node"><title>Node125</title>
<g id="a_node15"><a xlink:href="namespaceinterfacesse.html#a25f6950d589b92fd5bcf2007fb3fae19" target="_top" xlink:title="interfacesse::sum">
<polygon fill="white" stroke="black" points="943,-0.5 943,-19.5 1039,-19.5 1039,-0.5 943,-0.5"/>
<text text-anchor="middle" x="991" y="-7.5" font-family="Helvetica,sans-Serif" font-size="10.00">interfacesse::sum</text>
</a>
</g>
</g>
<!-- Node124&#45;&gt;Node125 -->
<g id="edge16" class="edge"><title>Node124&#45;&gt;Node125</title>
<path fill="none" stroke="midnightblue" d="M883.193,-10C898.774,-10 916.435,-10 932.844,-10"/>
<polygon fill="midnightblue" stroke="midnightblue" points="932.87,-13.5001 942.87,-10 932.87,-6.5001 932.87,-13.5001"/>
</g>
<!-- Node126 -->
<g id="node16" class="node"><title>Node126</title>
<g id="a_node16"><a xlink:href="namespaceinterfacesse.html#a9dd5fb43ad8a83ee5cb2f5ba1bb2085b" target="_top" xlink:title="interfacesse::axpy">
<polygon fill="white" stroke="black" points="1077.5,-0.5 1077.5,-19.5 1176.5,-19.5 1176.5,-0.5 1077.5,-0.5"/>
<text text-anchor="middle" x="1127" y="-7.5" font-family="Helvetica,sans-Serif" font-size="10.00">interfacesse::axpy</text>
</a>
</g>
</g>
<!-- Node125&#45;&gt;Node126 -->
<g id="edge17" class="edge"><title>Node125&#45;&gt;Node126</title>
<path fill="none" stroke="midnightblue" d="M1039.24,-10C1048.32,-10 1057.92,-10 1067.31,-10"/>
<polygon fill="midnightblue" stroke="midnightblue" points="1067.37,-13.5001 1077.37,-10 1067.37,-6.5001 1067.37,-13.5001"/>
</g>
<!-- Node127 -->
<g id="node17" class="node"><title>Node127</title>
<g id="a_node17"><a xlink:href="namespaceinterfacesse.html#ae3f94c42a59db65b2941dbfc9f449ea1" target="_top" xlink:title="function xAXPY of blas for doubles vectors ">
<polygon fill="white" stroke="black" points="1213,-0.5 1213,-19.5 1325,-19.5 1325,-0.5 1213,-0.5"/>
<text text-anchor="middle" x="1269" y="-7.5" font-family="Helvetica,sans-Serif" font-size="10.00">interfacesse::axpyInv</text>
</a>
</g>
</g>
<!-- Node126&#45;&gt;Node127 -->
<g id="edge18" class="edge"><title>Node126&#45;&gt;Node127</title>
<path fill="none" stroke="midnightblue" d="M1176.57,-10C1184.97,-10 1193.83,-10 1202.59,-10"/>
<polygon fill="midnightblue" stroke="midnightblue" points="1202.8,-13.5001 1212.8,-10 1202.8,-6.5001 1202.8,-13.5001"/>
</g>
<!-- Node128 -->
<g id="node18" class="node"><title>Node128</title>
<g id="a_node18"><a xlink:href="namespaceinterfacesse.html#a144ebf70bf38495c3de1aca2c8365e08" target="_top" xlink:title="scal items of the array of type T ">
<polygon fill="white" stroke="black" points="1361,-0.5 1361,-19.5 1457,-19.5 1457,-0.5 1361,-0.5"/>
<text text-anchor="middle" x="1409" y="-7.5" font-family="Helvetica,sans-Serif" font-size="10.00">interfacesse::scal</text>
</a>
</g>
</g>
<!-- Node127&#45;&gt;Node128 -->
<g id="edge19" class="edge"><title>Node127&#45;&gt;Node128</title>
<path fill="none" stroke="midnightblue" d="M1325.33,-10C1333.65,-10 1342.24,-10 1350.6,-10"/>
<polygon fill="midnightblue" stroke="midnightblue" points="1350.65,-13.5001 1360.65,-10 1350.65,-6.5001 1350.65,-13.5001"/>
</g>
</g>
</svg>
        <g id="navigator" transform="translate(0 0)" fill="#404254">
                <rect fill="#f2f5e9" fill-opacity="0.5" stroke="#606060" stroke-width=".5" x="0" y="0" width="60" height="60"/>
                <use id="zoomplus" xlink:href="#zoomPlus" x="17" y="9" onmousedown="handleZoom(evt,'in')"/>
                <use id="zoomminus" xlink:href="#zoomMin" x="42" y="9" onmousedown="handleZoom(evt,'out')"/>
                <use id="reset" xlink:href="#resetDef" x="30" y="36" onmousedown="handleReset()"/>
                <g id="arrowUp" xlink:href="#dirArrow" transform="translate(30 24)" onmousedown="handlePan(0,-1)">
                  <use xlink:href="#rim" fill="#404040">
                        <set attributeName="fill" to="#808080" begin="arrowUp.mouseover" end="arrowUp.mouseout"/>
                  </use>
                  <path fill="none" stroke="white" stroke-width="1.5" d="M0,-3.0v7 M-2.5,-0.5L0,-3.0L2.5,-0.5"/>
                </g>
                <g id="arrowRight" xlink:href="#dirArrow" transform="rotate(90) translate(36 -43)" onmousedown="handlePan(1,0)">
                  <use xlink:href="#rim" fill="#404040">
                        <set attributeName="fill" to="#808080" begin="arrowRight.mouseover" end="arrowRight.mouseout"/>
                  </use>
                  <path fill="none" stroke="white" stroke-width="1.5" d="M0,-3.0v7 M-2.5,-0.5L0,-3.0L2.5,-0.5"/>
                </g>
                <g id="arrowDown" xlink:href="#dirArrow" transform="rotate(180) translate(-30 -48)" onmousedown="handlePan(0,1)">
                  <use xlink:href="#rim" fill="#404040">
                        <set attributeName="fill" to="#808080" begin="arrowDown.mouseover" end="arrowDown.mouseout"/>
                  </use>
                  <path fill="none" stroke="white" stroke-width="1.5" d="M0,-3.0v7 M-2.5,-0.5L0,-3.0L2.5,-0.5"/>
                </g>
                <g id="arrowLeft" xlink:href="#dirArrow" transform="rotate(270) translate(-36 17)" onmousedown="handlePan(-1,0)">
                  <use xlink:href="#rim" fill="#404040">
                        <set attributeName="fill" to="#808080" begin="arrowLeft.mouseover" end="arrowLeft.mouseout"/>
                  </use>
                  <path fill="none" stroke="white" stroke-width="1.5" d="M0,-3.0v7 M-2.5,-0.5L0,-3.0L2.5,-0.5"/>
                </g>
        </g>
        <svg viewBox="0 0 15 15" width="100%" height="30px" preserveAspectRatio="xMaxYMin meet">
         <g id="arrow_out" transform="scale(0.3 0.3)">
          <a xlink:href="classds_1_1_partition_linked_stats_a4576232dcc6df79f0c7454eff656d0cd_cgraph_org.svg" target="_base">
           <rect id="button" ry="5" rx="5" y="6" x="6" height="38" width="38"
                fill="#f2f5e9" fill-opacity="0.5" stroke="#606060" stroke-width="1.0"/>
           <path id="arrow"
             d="M 11.500037,31.436501 C 11.940474,20.09759 22.043105,11.32322 32.158766,21.979434 L 37.068811,17.246167 C 37.068811,17.246167 37.088388,32 37.088388,32 L 22.160133,31.978069 C 22.160133,31.978069 26.997745,27.140456 26.997745,27.140456 C 18.528582,18.264221 13.291696,25.230495 11.500037,31.436501 z"
             style="fill:#404040;"/>
          </a>
         </g>
        </svg>
</svg>
