<?xml version="1.0" encoding="UTF-8" standalone="no"?>
<!DOCTYPE svg PUBLIC "-//W3C//DTD SVG 1.1//EN"
 "http://www.w3.org/Graphics/SVG/1.1/DTD/svg11.dtd">
<!-- Generated by graphviz version 2.38.0 (20140413.2041)
 -->
<!-- Title: inout::InParamFk&lt; T_CLUSTERIDX &gt; Pages: 1 -->
<svg width="1600pt" height="744pt"
 viewBox="0.00 0.00 1599.50 744.00" xmlns="http://www.w3.org/2000/svg" xmlns:xlink="http://www.w3.org/1999/xlink">
<g id="graph0" class="graph" transform="scale(1 1) rotate(0) translate(4 740)">
<title>inout::InParamFk&lt; T_CLUSTERIDX &gt;</title>
<polygon fill="white" stroke="none" points="-4,4 -4,-740 1595.5,-740 1595.5,4 -4,4"/>
<!-- Node0 -->
<g id="node1" class="node"><title>Node0</title>
<polygon fill="#bfbfbf" stroke="black" points="792.5,-623.5 792.5,-735.5 905.5,-735.5 905.5,-623.5 792.5,-623.5"/>
<text text-anchor="start" x="800.5" y="-723.5" font-family="Helvetica,sans-Serif" font-size="10.00">inout::InParamFk&lt; T</text>
<text text-anchor="middle" x="849" y="-712.5" font-family="Helvetica,sans-Serif" font-size="10.00">_CLUSTERIDX &gt;</text>
<polyline fill="none" stroke="black" points="792.5,-705.5 905.5,-705.5 "/>
<text text-anchor="start" x="800.5" y="-693.5" font-family="Helvetica,sans-Serif" font-size="10.00"># _idxK_numClusterK</text>
<polyline fill="none" stroke="black" points="792.5,-686.5 905.5,-686.5 "/>
<text text-anchor="start" x="800.5" y="-674.5" font-family="Helvetica,sans-Serif" font-size="10.00">+ InParamFk()</text>
<text text-anchor="start" x="800.5" y="-663.5" font-family="Helvetica,sans-Serif" font-size="10.00">+ ~InParamFk()</text>
<text text-anchor="start" x="800.5" y="-652.5" font-family="Helvetica,sans-Serif" font-size="10.00">+ setNumClusterK()</text>
<text text-anchor="start" x="800.5" y="-641.5" font-family="Helvetica,sans-Serif" font-size="10.00">+ getNumClusterK()</text>
<text text-anchor="start" x="800.5" y="-630.5" font-family="Helvetica,sans-Serif" font-size="10.00">+ print()</text>
</g>
<!-- Node1 -->
<g id="node2" class="node"><title>Node1</title>
<g id="a_node2"><a xlink:href="classinout_1_1_in_param_adaptive_pc_pm.html" target="_top" xlink:title="Input parameter for EA with adaptive probabilities of crossover and mutation . ">
<polygon fill="white" stroke="black" points="0,-469 0,-559 142,-559 142,-469 0,-469"/>
<text text-anchor="start" x="8" y="-547" font-family="Helvetica,sans-Serif" font-size="10.00">inout::InParamAdaptivePc</text>
<text text-anchor="middle" x="71" y="-536" font-family="Helvetica,sans-Serif" font-size="10.00">Pm&lt; T_CLUSTERIDX &gt;</text>
<polyline fill="none" stroke="black" points="0,-529 142,-529 "/>
<text text-anchor="middle" x="71" y="-517" font-family="Helvetica,sans-Serif" font-size="10.00"> </text>
<polyline fill="none" stroke="black" points="0,-510 142,-510 "/>
<text text-anchor="start" x="8" y="-498" font-family="Helvetica,sans-Serif" font-size="10.00">+ InParamAdaptivePcPm()</text>
<text text-anchor="start" x="8" y="-487" font-family="Helvetica,sans-Serif" font-size="10.00">+ ~InParamAdaptivePcPm()</text>
<text text-anchor="start" x="8" y="-476" font-family="Helvetica,sans-Serif" font-size="10.00">+ print()</text>
</a>
</g>
</g>
<!-- Node0&#45;&gt;Node1 -->
<g id="edge1" class="edge"><title>Node0&#45;&gt;Node1</title>
<path fill="none" stroke="midnightblue" d="M782.208,-674.794C630.15,-665.552 262.705,-638.444 151,-587 136.404,-580.278 122.586,-569.947 110.671,-559.19"/>
<polygon fill="none" stroke="midnightblue" points="782.15,-678.297 792.342,-675.403 782.57,-671.309 782.15,-678.297"/>
</g>
<!-- Node2 -->
<g id="node3" class="node"><title>Node2</title>
<g id="a_node3"><a xlink:href="classinout_1_1_in_param_adaptive_pc_pm_fk.html" target="_top" xlink:title="Input parameter for EA with adaptive probabilities of crossover and mutation . ">
<polygon fill="white" stroke="black" points="160.5,-469 160.5,-559 313.5,-559 313.5,-469 160.5,-469"/>
<text text-anchor="start" x="168.5" y="-547" font-family="Helvetica,sans-Serif" font-size="10.00">inout::InParamAdaptivePc</text>
<text text-anchor="middle" x="237" y="-536" font-family="Helvetica,sans-Serif" font-size="10.00">PmFk&lt; T_CLUSTERIDX &gt;</text>
<polyline fill="none" stroke="black" points="160.5,-529 313.5,-529 "/>
<text text-anchor="middle" x="237" y="-517" font-family="Helvetica,sans-Serif" font-size="10.00"> </text>
<polyline fill="none" stroke="black" points="160.5,-510 313.5,-510 "/>
<text text-anchor="start" x="168.5" y="-498" font-family="Helvetica,sans-Serif" font-size="10.00">+ InParamAdaptivePcPmFk()</text>
<text text-anchor="start" x="168.5" y="-487" font-family="Helvetica,sans-Serif" font-size="10.00">+ ~InParamAdaptivePcPmFk()</text>
<text text-anchor="start" x="168.5" y="-476" font-family="Helvetica,sans-Serif" font-size="10.00">+ print()</text>
</a>
</g>
</g>
<!-- Node0&#45;&gt;Node2 -->
<g id="edge2" class="edge"><title>Node0&#45;&gt;Node2</title>
<path fill="none" stroke="midnightblue" d="M782.145,-677.831C678.922,-674.442 476.622,-658.316 323,-587 307.987,-580.031 293.463,-569.752 280.758,-559.129"/>
<polygon fill="none" stroke="midnightblue" points="782.324,-681.337 792.423,-678.136 782.532,-674.34 782.324,-681.337"/>
</g>
<!-- Node3 -->
<g id="node4" class="node"><title>Node3</title>
<g id="a_node4"><a xlink:href="classinout_1_1_in_param_c_b_g_a.html" target="_top" xlink:title="Input parameter for CBGA . ">
<polygon fill="white" stroke="black" points="331.5,-441.5 331.5,-586.5 458.5,-586.5 458.5,-441.5 331.5,-441.5"/>
<text text-anchor="start" x="339.5" y="-574.5" font-family="Helvetica,sans-Serif" font-size="10.00">inout::InParamCBGA</text>
<text text-anchor="middle" x="395" y="-563.5" font-family="Helvetica,sans-Serif" font-size="10.00">&lt; T_CLUSTERIDX &gt;</text>
<polyline fill="none" stroke="black" points="331.5,-556.5 458.5,-556.5 "/>
<text text-anchor="start" x="339.5" y="-544.5" font-family="Helvetica,sans-Serif" font-size="10.00"># i_opSelectMethod</text>
<text text-anchor="start" x="339.5" y="-533.5" font-family="Helvetica,sans-Serif" font-size="10.00"># i_numGLAIterations</text>
<polyline fill="none" stroke="black" points="331.5,-526.5 458.5,-526.5 "/>
<text text-anchor="start" x="339.5" y="-514.5" font-family="Helvetica,sans-Serif" font-size="10.00">+ InParamCBGA()</text>
<text text-anchor="start" x="339.5" y="-503.5" font-family="Helvetica,sans-Serif" font-size="10.00">+ ~InParamCBGA()</text>
<text text-anchor="start" x="339.5" y="-492.5" font-family="Helvetica,sans-Serif" font-size="10.00">+ setOpSelectMethod()</text>
<text text-anchor="start" x="339.5" y="-481.5" font-family="Helvetica,sans-Serif" font-size="10.00">+ getOpSelectMethod()</text>
<text text-anchor="start" x="339.5" y="-470.5" font-family="Helvetica,sans-Serif" font-size="10.00">+ setNumGLAIterations()</text>
<text text-anchor="start" x="339.5" y="-459.5" font-family="Helvetica,sans-Serif" font-size="10.00">+ getNumGLAIterations()</text>
<text text-anchor="start" x="339.5" y="-448.5" font-family="Helvetica,sans-Serif" font-size="10.00">+ print()</text>
</a>
</g>
</g>
<!-- Node0&#45;&gt;Node3 -->
<g id="edge3" class="edge"><title>Node0&#45;&gt;Node3</title>
<path fill="none" stroke="midnightblue" d="M781.938,-673.348C702.595,-664.865 568.59,-642.883 468,-587 464.888,-585.271 461.816,-583.373 458.798,-581.342"/>
<polygon fill="none" stroke="midnightblue" points="781.981,-676.871 792.287,-674.411 782.697,-669.907 781.981,-676.871"/>
</g>
<!-- Node4 -->
<g id="node5" class="node"><title>Node4</title>
<g id="a_node5"><a xlink:href="classinout_1_1_in_param_f_c_m.html" target="_top" xlink:title="Input parameter for FCM algorithm clustering . ">
<polygon fill="white" stroke="black" points="477,-441.5 477,-586.5 609,-586.5 609,-441.5 477,-441.5"/>
<text text-anchor="start" x="485" y="-574.5" font-family="Helvetica,sans-Serif" font-size="10.00">inout::InParamFCM&lt;</text>
<text text-anchor="middle" x="543" y="-563.5" font-family="Helvetica,sans-Serif" font-size="10.00"> T_CLUSTERIDX &gt;</text>
<polyline fill="none" stroke="black" points="477,-556.5 609,-556.5 "/>
<text text-anchor="start" x="485" y="-544.5" font-family="Helvetica,sans-Serif" font-size="10.00"># t_epsilon</text>
<text text-anchor="start" x="485" y="-533.5" font-family="Helvetica,sans-Serif" font-size="10.00"># t_weightingExponent</text>
<polyline fill="none" stroke="black" points="477,-526.5 609,-526.5 "/>
<text text-anchor="start" x="485" y="-514.5" font-family="Helvetica,sans-Serif" font-size="10.00">+ InParamFCM()</text>
<text text-anchor="start" x="485" y="-503.5" font-family="Helvetica,sans-Serif" font-size="10.00">+ ~InParamFCM()</text>
<text text-anchor="start" x="485" y="-492.5" font-family="Helvetica,sans-Serif" font-size="10.00">+ setWeightingExponent()</text>
<text text-anchor="start" x="485" y="-481.5" font-family="Helvetica,sans-Serif" font-size="10.00">+ getWeightingExponent()</text>
<text text-anchor="start" x="485" y="-470.5" font-family="Helvetica,sans-Serif" font-size="10.00">+ setEpsilon()</text>
<text text-anchor="start" x="485" y="-459.5" font-family="Helvetica,sans-Serif" font-size="10.00">+ getEpsilon()</text>
<text text-anchor="start" x="485" y="-448.5" font-family="Helvetica,sans-Serif" font-size="10.00">+ print()</text>
</a>
</g>
</g>
<!-- Node0&#45;&gt;Node4 -->
<g id="edge4" class="edge"><title>Node0&#45;&gt;Node4</title>
<path fill="none" stroke="midnightblue" d="M782.762,-659.837C734.727,-644.549 669.437,-620.047 618,-587 615.115,-585.146 612.245,-583.171 609.403,-581.103"/>
<polygon fill="none" stroke="midnightblue" points="781.846,-663.218 792.435,-662.866 783.937,-656.537 781.846,-663.218"/>
</g>
<!-- Node5 -->
<g id="node6" class="node"><title>Node5</title>
<g id="a_node6"><a xlink:href="classinout_1_1_in_param_iso_data.html" target="_top" xlink:title="Input parameter for IsoData algorithm. ">
<polygon fill="white" stroke="black" points="627,-441.5 627,-586.5 769,-586.5 769,-441.5 627,-441.5"/>
<text text-anchor="start" x="635" y="-574.5" font-family="Helvetica,sans-Serif" font-size="10.00">inout::InParamIsoData</text>
<text text-anchor="middle" x="698" y="-563.5" font-family="Helvetica,sans-Serif" font-size="10.00">&lt; T_CLUSTERIDX &gt;</text>
<polyline fill="none" stroke="black" points="627,-556.5 769,-556.5 "/>
<text text-anchor="start" x="635" y="-544.5" font-family="Helvetica,sans-Serif" font-size="10.00"># b_optimalInitializacion</text>
<text text-anchor="start" x="635" y="-533.5" font-family="Helvetica,sans-Serif" font-size="10.00"># t_epsilon</text>
<polyline fill="none" stroke="black" points="627,-526.5 769,-526.5 "/>
<text text-anchor="start" x="635" y="-514.5" font-family="Helvetica,sans-Serif" font-size="10.00">+ InParamIsoData()</text>
<text text-anchor="start" x="635" y="-503.5" font-family="Helvetica,sans-Serif" font-size="10.00">+ ~InParamIsoData()</text>
<text text-anchor="start" x="635" y="-492.5" font-family="Helvetica,sans-Serif" font-size="10.00">+ setIsOptimalInitializacion()</text>
<text text-anchor="start" x="635" y="-481.5" font-family="Helvetica,sans-Serif" font-size="10.00">+ getIsOptimalInitializacion()</text>
<text text-anchor="start" x="635" y="-470.5" font-family="Helvetica,sans-Serif" font-size="10.00">+ setEpsilon()</text>
<text text-anchor="start" x="635" y="-459.5" font-family="Helvetica,sans-Serif" font-size="10.00">+ getEpsilon()</text>
<text text-anchor="start" x="635" y="-448.5" font-family="Helvetica,sans-Serif" font-size="10.00">+ print()</text>
</a>
</g>
</g>
<!-- Node0&#45;&gt;Node5 -->
<g id="edge5" class="edge"><title>Node0&#45;&gt;Node5</title>
<path fill="none" stroke="midnightblue" d="M790.911,-615.603C782.123,-606.086 773.001,-596.21 764.059,-586.528"/>
<polygon fill="none" stroke="midnightblue" points="788.522,-618.175 797.878,-623.146 793.665,-613.425 788.522,-618.175"/>
</g>
<!-- Node6 -->
<g id="node7" class="node"><title>Node6</title>
<g id="a_node7"><a xlink:href="classinout_1_1_in_param_kmeans.html" target="_top" xlink:title="Input parameter for traditional algorithm clustering . ">
<polygon fill="white" stroke="black" points="787,-458 787,-570 911,-570 911,-458 787,-458"/>
<text text-anchor="start" x="795" y="-558" font-family="Helvetica,sans-Serif" font-size="10.00">inout::InParamKmeans</text>
<text text-anchor="middle" x="849" y="-547" font-family="Helvetica,sans-Serif" font-size="10.00">&lt; T_CLUSTERIDX &gt;</text>
<polyline fill="none" stroke="black" points="787,-540 911,-540 "/>
<text text-anchor="start" x="795" y="-528" font-family="Helvetica,sans-Serif" font-size="10.00"># _ui_numMinThreshold</text>
<polyline fill="none" stroke="black" points="787,-521 911,-521 "/>
<text text-anchor="start" x="795" y="-509" font-family="Helvetica,sans-Serif" font-size="10.00">+ InParamKmeans()</text>
<text text-anchor="start" x="795" y="-498" font-family="Helvetica,sans-Serif" font-size="10.00">+ ~InParamKmeans()</text>
<text text-anchor="start" x="795" y="-487" font-family="Helvetica,sans-Serif" font-size="10.00">+ setMinThreshold()</text>
<text text-anchor="start" x="795" y="-476" font-family="Helvetica,sans-Serif" font-size="10.00">+ getMinThreshold()</text>
<text text-anchor="start" x="795" y="-465" font-family="Helvetica,sans-Serif" font-size="10.00">+ print()</text>
</a>
</g>
</g>
<!-- Node0&#45;&gt;Node6 -->
<g id="edge6" class="edge"><title>Node0&#45;&gt;Node6</title>
<path fill="none" stroke="midnightblue" d="M849,-612.932C849,-598.702 849,-583.792 849,-570.019"/>
<polygon fill="none" stroke="midnightblue" points="845.5,-613.146 849,-623.146 852.5,-613.146 845.5,-613.146"/>
</g>
<!-- Node7 -->
<g id="node8" class="node"><title>Node7</title>
<g id="a_node8"><a xlink:href="classinout_1_1_in_param_p_a_m.html" target="_top" xlink:title="Input parameter for Medoids PAM algorithm . ">
<polygon fill="white" stroke="black" points="929.5,-469 929.5,-559 1038.5,-559 1038.5,-469 929.5,-469"/>
<text text-anchor="start" x="937.5" y="-547" font-family="Helvetica,sans-Serif" font-size="10.00">inout::InParamPAM&lt;</text>
<text text-anchor="middle" x="984" y="-536" font-family="Helvetica,sans-Serif" font-size="10.00"> T_CLUSTERIDX &gt;</text>
<polyline fill="none" stroke="black" points="929.5,-529 1038.5,-529 "/>
<text text-anchor="middle" x="984" y="-517" font-family="Helvetica,sans-Serif" font-size="10.00"> </text>
<polyline fill="none" stroke="black" points="929.5,-510 1038.5,-510 "/>
<text text-anchor="start" x="937.5" y="-498" font-family="Helvetica,sans-Serif" font-size="10.00">+ InParamPAM()</text>
<text text-anchor="start" x="937.5" y="-487" font-family="Helvetica,sans-Serif" font-size="10.00">+ ~InParamPAM()</text>
<text text-anchor="start" x="937.5" y="-476" font-family="Helvetica,sans-Serif" font-size="10.00">+ print()</text>
</a>
</g>
</g>
<!-- Node0&#45;&gt;Node7 -->
<g id="edge7" class="edge"><title>Node0&#45;&gt;Node7</title>
<path fill="none" stroke="midnightblue" d="M901.248,-615.222C916.7,-596.508 933.277,-576.431 947.506,-559.198"/>
<polygon fill="none" stroke="midnightblue" points="898.373,-613.207 894.705,-623.146 903.771,-617.664 898.373,-613.207"/>
</g>
<!-- Node8 -->
<g id="node9" class="node"><title>Node8</title>
<g id="a_node9"><a xlink:href="classinout_1_1_in_param_pc_pm_fk.html" target="_top" xlink:title="Input parameter for GA with probability Pc, Pm and Fixed K. ">
<polygon fill="white" stroke="black" points="1056.5,-469 1056.5,-559 1175.5,-559 1175.5,-469 1056.5,-469"/>
<text text-anchor="start" x="1064.5" y="-547" font-family="Helvetica,sans-Serif" font-size="10.00">inout::InParamPcPmFk</text>
<text text-anchor="middle" x="1116" y="-536" font-family="Helvetica,sans-Serif" font-size="10.00">&lt; T_CLUSTERIDX &gt;</text>
<polyline fill="none" stroke="black" points="1056.5,-529 1175.5,-529 "/>
<text text-anchor="middle" x="1116" y="-517" font-family="Helvetica,sans-Serif" font-size="10.00"> </text>
<polyline fill="none" stroke="black" points="1056.5,-510 1175.5,-510 "/>
<text text-anchor="start" x="1064.5" y="-498" font-family="Helvetica,sans-Serif" font-size="10.00">+ InParamPcPmFk()</text>
<text text-anchor="start" x="1064.5" y="-487" font-family="Helvetica,sans-Serif" font-size="10.00">+ ~InParamPcPmFk()</text>
<text text-anchor="start" x="1064.5" y="-476" font-family="Helvetica,sans-Serif" font-size="10.00">+ print()</text>
</a>
</g>
</g>
<!-- Node0&#45;&gt;Node8 -->
<g id="edge8" class="edge"><title>Node0&#45;&gt;Node8</title>
<path fill="none" stroke="midnightblue" d="M915.204,-655.465C955.646,-639.651 1007.24,-616.248 1048,-587 1059.04,-579.081 1069.74,-569.192 1079.26,-559.305"/>
<polygon fill="none" stroke="midnightblue" points="913.78,-652.263 905.704,-659.121 916.294,-658.796 913.78,-652.263"/>
</g>
<!-- Node12 -->
<g id="node13" class="node"><title>Node12</title>
<g id="a_node13"><a xlink:href="classinout_1_1_in_param_pm_fk.html" target="_top" xlink:title="Input parameter for GKA with only probability mutation (Pm) and Fixed K . ">
<polygon fill="white" stroke="black" points="1194,-469 1194,-559 1304,-559 1304,-469 1194,-469"/>
<text text-anchor="start" x="1202" y="-547" font-family="Helvetica,sans-Serif" font-size="10.00">inout::InParamPmFk</text>
<text text-anchor="middle" x="1249" y="-536" font-family="Helvetica,sans-Serif" font-size="10.00">&lt; T_CLUSTERIDX &gt;</text>
<polyline fill="none" stroke="black" points="1194,-529 1304,-529 "/>
<text text-anchor="middle" x="1249" y="-517" font-family="Helvetica,sans-Serif" font-size="10.00"> </text>
<polyline fill="none" stroke="black" points="1194,-510 1304,-510 "/>
<text text-anchor="start" x="1202" y="-498" font-family="Helvetica,sans-Serif" font-size="10.00">+ InParamPmFk()</text>
<text text-anchor="start" x="1202" y="-487" font-family="Helvetica,sans-Serif" font-size="10.00">+ ~InParamPmFk()</text>
<text text-anchor="start" x="1202" y="-476" font-family="Helvetica,sans-Serif" font-size="10.00">+ print()</text>
</a>
</g>
</g>
<!-- Node0&#45;&gt;Node12 -->
<g id="edge12" class="edge"><title>Node0&#45;&gt;Node12</title>
<path fill="none" stroke="midnightblue" d="M915.736,-671.732C986.957,-662.021 1100.89,-639.152 1185,-587 1196.8,-579.685 1207.67,-569.545 1216.98,-559.181"/>
<polygon fill="none" stroke="midnightblue" points="915.006,-668.298 905.547,-673.071 915.918,-675.238 915.006,-668.298"/>
</g>
<!-- Node13 -->
<g id="node14" class="node"><title>Node13</title>
<g id="a_node14"><a xlink:href="classinout_1_1_in_param_slink.html" target="_top" xlink:title="Input parameter for traditional algorithm clustering . ">
<polygon fill="white" stroke="black" points="1322,-469 1322,-559 1432,-559 1432,-469 1322,-469"/>
<text text-anchor="start" x="1330" y="-547" font-family="Helvetica,sans-Serif" font-size="10.00">inout::InParamSlink</text>
<text text-anchor="middle" x="1377" y="-536" font-family="Helvetica,sans-Serif" font-size="10.00">&lt; T_CLUSTERIDX &gt;</text>
<polyline fill="none" stroke="black" points="1322,-529 1432,-529 "/>
<text text-anchor="middle" x="1377" y="-517" font-family="Helvetica,sans-Serif" font-size="10.00"> </text>
<polyline fill="none" stroke="black" points="1322,-510 1432,-510 "/>
<text text-anchor="start" x="1330" y="-498" font-family="Helvetica,sans-Serif" font-size="10.00">+ InParamSlink()</text>
<text text-anchor="start" x="1330" y="-487" font-family="Helvetica,sans-Serif" font-size="10.00">+ ~InParamSlink()</text>
<text text-anchor="start" x="1330" y="-476" font-family="Helvetica,sans-Serif" font-size="10.00">+ print()</text>
</a>
</g>
</g>
<!-- Node0&#45;&gt;Node13 -->
<g id="edge13" class="edge"><title>Node0&#45;&gt;Node13</title>
<path fill="none" stroke="midnightblue" d="M915.852,-678.422C1010.39,-675.533 1185.77,-659.749 1313,-587 1325.34,-579.944 1336.54,-569.635 1346,-559.013"/>
<polygon fill="none" stroke="midnightblue" points="915.75,-674.923 905.846,-678.689 915.936,-681.921 915.75,-674.923"/>
</g>
<!-- Node14 -->
<g id="node15" class="node"><title>Node14</title>
<g id="a_node15"><a xlink:href="classinout_1_1_in_param_without_pc_pm_fk.html" target="_top" xlink:title="Input parameter for GA without probability crossover (Pc) and mutation (Pm). ">
<polygon fill="white" stroke="black" points="1450.5,-463.5 1450.5,-564.5 1591.5,-564.5 1591.5,-463.5 1450.5,-463.5"/>
<text text-anchor="start" x="1458.5" y="-552.5" font-family="Helvetica,sans-Serif" font-size="10.00">inout::InParamWithoutPcPm</text>
<text text-anchor="middle" x="1521" y="-541.5" font-family="Helvetica,sans-Serif" font-size="10.00">Fk&lt; T_CLUSTERIDX &gt;</text>
<polyline fill="none" stroke="black" points="1450.5,-534.5 1591.5,-534.5 "/>
<text text-anchor="start" x="1458.5" y="-522.5" font-family="Helvetica,sans-Serif" font-size="10.00"># st_sizeMatingPool</text>
<polyline fill="none" stroke="black" points="1450.5,-515.5 1591.5,-515.5 "/>
<text text-anchor="start" x="1458.5" y="-503.5" font-family="Helvetica,sans-Serif" font-size="10.00">+ InParamWithoutPcPmFk()</text>
<text text-anchor="start" x="1458.5" y="-492.5" font-family="Helvetica,sans-Serif" font-size="10.00">+ setSizeMatingPool()</text>
<text text-anchor="start" x="1458.5" y="-481.5" font-family="Helvetica,sans-Serif" font-size="10.00">+ getSizeMatingPool()</text>
<text text-anchor="start" x="1458.5" y="-470.5" font-family="Helvetica,sans-Serif" font-size="10.00">+ print()</text>
</a>
</g>
</g>
<!-- Node0&#45;&gt;Node14 -->
<g id="edge14" class="edge"><title>Node0&#45;&gt;Node14</title>
<path fill="none" stroke="midnightblue" d="M915.853,-673.003C1050.39,-661.161 1348.86,-630.726 1441,-587 1452.99,-581.312 1464.48,-573.241 1474.83,-564.546"/>
<polygon fill="none" stroke="midnightblue" points="915.336,-669.535 905.678,-673.891 915.944,-676.509 915.336,-669.535"/>
</g>
<!-- Node9 -->
<g id="node10" class="node"><title>Node9</title>
<g id="a_node10"><a xlink:href="classinout_1_1_in_param_g_a_prototypes_fk.html" target="_top" xlink:title="Input parameter for GA&#45;Prototypes algorithm . ">
<polygon fill="white" stroke="black" points="928.5,-237.5 928.5,-404.5 1101.5,-404.5 1101.5,-237.5 928.5,-237.5"/>
<text text-anchor="start" x="936.5" y="-392.5" font-family="Helvetica,sans-Serif" font-size="10.00">inout::InParamGAPrototypes</text>
<text text-anchor="start" x="936.5" y="-381.5" font-family="Helvetica,sans-Serif" font-size="10.00">Fk&lt; T_CLUSTERIDX, T_REAL,</text>
<text text-anchor="start" x="936.5" y="-370.5" font-family="Helvetica,sans-Serif" font-size="10.00"> T_FEATURE, T_FEATURE_SUM,</text>
<text text-anchor="middle" x="1015" y="-359.5" font-family="Helvetica,sans-Serif" font-size="10.00"> T_INSTANCES_CLUSTER_K &gt;</text>
<polyline fill="none" stroke="black" points="928.5,-352.5 1101.5,-352.5 "/>
<text text-anchor="start" x="936.5" y="-340.5" font-family="Helvetica,sans-Serif" font-size="10.00"># _rt_pini</text>
<text text-anchor="start" x="936.5" y="-329.5" font-family="Helvetica,sans-Serif" font-size="10.00"># _rt_alpha</text>
<polyline fill="none" stroke="black" points="928.5,-322.5 1101.5,-322.5 "/>
<text text-anchor="start" x="936.5" y="-310.5" font-family="Helvetica,sans-Serif" font-size="10.00">+ InParamGAPrototypesFk()</text>
<text text-anchor="start" x="936.5" y="-299.5" font-family="Helvetica,sans-Serif" font-size="10.00">+ ~InParamGAPrototypesFk()</text>
<text text-anchor="start" x="936.5" y="-288.5" font-family="Helvetica,sans-Serif" font-size="10.00">+ setPini()</text>
<text text-anchor="start" x="936.5" y="-277.5" font-family="Helvetica,sans-Serif" font-size="10.00">+ getPini()</text>
<text text-anchor="start" x="936.5" y="-266.5" font-family="Helvetica,sans-Serif" font-size="10.00">+ setAlpha()</text>
<text text-anchor="start" x="936.5" y="-255.5" font-family="Helvetica,sans-Serif" font-size="10.00">+ getAlpha()</text>
<text text-anchor="start" x="936.5" y="-244.5" font-family="Helvetica,sans-Serif" font-size="10.00">+ print()</text>
</a>
</g>
</g>
<!-- Node8&#45;&gt;Node9 -->
<g id="edge9" class="edge"><title>Node8&#45;&gt;Node9</title>
<path fill="none" stroke="midnightblue" d="M1087.71,-459.499C1078.72,-442.493 1068.55,-423.267 1058.73,-404.699"/>
<polygon fill="none" stroke="midnightblue" points="1084.81,-461.497 1092.57,-468.701 1090.99,-458.224 1084.81,-461.497"/>
</g>
<!-- Node10 -->
<g id="node11" class="node"><title>Node10</title>
<g id="a_node11"><a xlink:href="classinout_1_1_in_param_g_c_a.html" target="_top" xlink:title="Input parameter for GCA algorithm k&#45;medoid clustering . ">
<polygon fill="white" stroke="black" points="1120,-254 1120,-388 1312,-388 1312,-254 1120,-254"/>
<text text-anchor="start" x="1128" y="-376" font-family="Helvetica,sans-Serif" font-size="10.00">inout::InParamGCA&lt;</text>
<text text-anchor="start" x="1128" y="-365" font-family="Helvetica,sans-Serif" font-size="10.00"> T_CLUSTERIDX, T_REAL,</text>
<text text-anchor="start" x="1128" y="-354" font-family="Helvetica,sans-Serif" font-size="10.00"> T_FEATURE, T_FEATURE</text>
<text text-anchor="middle" x="1216" y="-343" font-family="Helvetica,sans-Serif" font-size="10.00">_SUM, T_INSTANCES_CLUSTER_K &gt;</text>
<polyline fill="none" stroke="black" points="1120,-336 1312,-336 "/>
<text text-anchor="start" x="1128" y="-324" font-family="Helvetica,sans-Serif" font-size="10.00"># t_probMixMutation</text>
<polyline fill="none" stroke="black" points="1120,-317 1312,-317 "/>
<text text-anchor="start" x="1128" y="-305" font-family="Helvetica,sans-Serif" font-size="10.00">+ InParamGCA()</text>
<text text-anchor="start" x="1128" y="-294" font-family="Helvetica,sans-Serif" font-size="10.00">+ ~InParamGCA()</text>
<text text-anchor="start" x="1128" y="-283" font-family="Helvetica,sans-Serif" font-size="10.00">+ setProbMixMutation()</text>
<text text-anchor="start" x="1128" y="-272" font-family="Helvetica,sans-Serif" font-size="10.00">+ getProbMixMutation()</text>
<text text-anchor="start" x="1128" y="-261" font-family="Helvetica,sans-Serif" font-size="10.00">+ print()</text>
</a>
</g>
</g>
<!-- Node8&#45;&gt;Node10 -->
<g id="edge10" class="edge"><title>Node8&#45;&gt;Node10</title>
<path fill="none" stroke="midnightblue" d="M1143.87,-459.763C1155.49,-437.572 1169.11,-411.568 1181.36,-388.166"/>
<polygon fill="none" stroke="midnightblue" points="1140.73,-458.218 1139.19,-468.701 1146.93,-461.465 1140.73,-458.218"/>
</g>
<!-- Node11 -->
<g id="node12" class="node"><title>Node11</title>
<g id="a_node12"><a xlink:href="classinout_1_1_in_param_h_k_a.html" target="_top" xlink:title="Input parameter for HKA a hybrid algorithm for k&#45;medoid clustering . ">
<polygon fill="white" stroke="black" points="1120,-0.5 1120,-200.5 1312,-200.5 1312,-0.5 1120,-0.5"/>
<text text-anchor="start" x="1128" y="-188.5" font-family="Helvetica,sans-Serif" font-size="10.00">inout::InParamHKA&lt;</text>
<text text-anchor="start" x="1128" y="-177.5" font-family="Helvetica,sans-Serif" font-size="10.00"> T_CLUSTERIDX, T_REAL,</text>
<text text-anchor="start" x="1128" y="-166.5" font-family="Helvetica,sans-Serif" font-size="10.00"> T_FEATURE, T_FEATURE</text>
<text text-anchor="middle" x="1216" y="-155.5" font-family="Helvetica,sans-Serif" font-size="10.00">_SUM, T_INSTANCES_CLUSTER_K &gt;</text>
<polyline fill="none" stroke="black" points="1120,-148.5 1312,-148.5 "/>
<text text-anchor="start" x="1128" y="-136.5" font-family="Helvetica,sans-Serif" font-size="10.00"># st_orderTournament</text>
<text text-anchor="start" x="1128" y="-125.5" font-family="Helvetica,sans-Serif" font-size="10.00"># st_nearestNeighbors</text>
<text text-anchor="start" x="1128" y="-114.5" font-family="Helvetica,sans-Serif" font-size="10.00"># t_probSearchHeuristic</text>
<polyline fill="none" stroke="black" points="1120,-107.5 1312,-107.5 "/>
<text text-anchor="start" x="1128" y="-95.5" font-family="Helvetica,sans-Serif" font-size="10.00">+ InParamHKA()</text>
<text text-anchor="start" x="1128" y="-84.5" font-family="Helvetica,sans-Serif" font-size="10.00">+ ~InParamHKA()</text>
<text text-anchor="start" x="1128" y="-73.5" font-family="Helvetica,sans-Serif" font-size="10.00">+ setOrderTournament()</text>
<text text-anchor="start" x="1128" y="-62.5" font-family="Helvetica,sans-Serif" font-size="10.00">+ getOrderTournament()</text>
<text text-anchor="start" x="1128" y="-51.5" font-family="Helvetica,sans-Serif" font-size="10.00">+ setNearestNeighbors()</text>
<text text-anchor="start" x="1128" y="-40.5" font-family="Helvetica,sans-Serif" font-size="10.00">+ getNearestNeighbors()</text>
<text text-anchor="start" x="1128" y="-29.5" font-family="Helvetica,sans-Serif" font-size="10.00">+ setProbSearchHeuristic()</text>
<text text-anchor="start" x="1128" y="-18.5" font-family="Helvetica,sans-Serif" font-size="10.00">+ getProbSearchHeuristic()</text>
<text text-anchor="start" x="1128" y="-7.5" font-family="Helvetica,sans-Serif" font-size="10.00">+ print()</text>
</a>
</g>
</g>
<!-- Node10&#45;&gt;Node11 -->
<g id="edge11" class="edge"><title>Node10&#45;&gt;Node11</title>
<path fill="none" stroke="midnightblue" d="M1216,-243.488C1216,-229.722 1216,-215.192 1216,-200.889"/>
<polygon fill="none" stroke="midnightblue" points="1212.5,-243.85 1216,-253.85 1219.5,-243.85 1212.5,-243.85"/>
</g>
</g>
</svg>
