<?xml version="1.0" encoding="UTF-8" standalone="no"?>
<!DOCTYPE svg PUBLIC "-//W3C//DTD SVG 1.1//EN"
 "http://www.w3.org/Graphics/SVG/1.1/DTD/svg11.dtd">
<!-- Generated by graphviz version 2.38.0 (20140413.2041)
 -->
<!-- Title: inout::InParamHKA&lt; T_CLUSTERIDX, T_INSTANCEIDX, T_REAL, T_FEATURE, T_FEATURE_SUM, T_INSTANCES_CLUSTER_K &gt; Pages: 1 -->
<!--zoomable 1758 -->
<svg id="main" version="1.1" xmlns="http://www.w3.org/2000/svg" xmlns:xlink="http://www.w3.org/1999/xlink" xml:space="preserve" onload="init(evt)">
<style type="text/css"><![CDATA[
.edge:hover path { stroke: red; }
.edge:hover polygon { stroke: red; fill: red; }
]]></style>
<script type="text/javascript"><![CDATA[
var edges = document.getElementsByTagName('g');
if (edges && edges.length) {
  for (var i=0;i<edges.length;i++) {
    if (edges[i].id.substr(0,4)=='edge') {
      edges[i].setAttribute('class','edge');
    }
  }
}
]]></script>
        <defs>
                <circle id="rim" cx="0" cy="0" r="7"/>
                <circle id="rim2" cx="0" cy="0" r="3.5"/>
                <g id="zoomPlus">
                        <use xlink:href="#rim" fill="#404040">
                                <set attributeName="fill" to="#808080" begin="zoomplus.mouseover" end="zoomplus.mouseout"/>
                        </use>
                        <path d="M-4,0h8M0,-4v8" fill="none" stroke="white" stroke-width="1.5" pointer-events="none"/>
                </g>
                <g id="zoomMin">
                        <use xlink:href="#rim" fill="#404040">
                                <set attributeName="fill" to="#808080" begin="zoomminus.mouseover" end="zoomminus.mouseout"/>
                        </use>
                        <path d="M-4,0h8" fill="none" stroke="white" stroke-width="1.5" pointer-events="none"/>
                </g>
                <g id="dirArrow">
                        <path fill="none" stroke="white" stroke-width="1.5" d="M0,-3.0v7 M-2.5,-0.5L0,-3.0L2.5,-0.5"/>
                </g>
               <g id="resetDef">
                       <use xlink:href="#rim2" fill="#404040">
                               <set attributeName="fill" to="#808080" begin="reset.mouseover" end="reset.mouseout"/>
                       </use>
               </g>
        </defs>

<script type="text/javascript">
var viewWidth = 568;
var viewHeight = 1758;
var sectionId = 'dynsection-1';
</script>
<script xlink:href="svgpan.js"/>
<svg id="graph" class="graph">
<g id="viewport">
<title>inout::InParamHKA&lt; T_CLUSTERIDX, T_INSTANCEIDX, T_REAL, T_FEATURE, T_FEATURE_SUM, T_INSTANCES_CLUSTER_K &gt;</title>
<polygon fill="white" stroke="none" points="-4,4 -4,-1754 563.5,-1754 563.5,4 -4,4"/>
<!-- Node9 -->
<g id="node1" class="node"><title>Node9</title>
<g id="a_node1"><a xlink:title="Input parameter for HKA a hybrid algorithm for k&#45;medoid clustering .">
<polygon fill="#bfbfbf" stroke="black" points="151.5,-0.5 151.5,-200.5 343.5,-200.5 343.5,-0.5 151.5,-0.5"/>
<text text-anchor="start" x="159.5" y="-188.5" font-family="Helvetica,sans-Serif" font-size="10.00">inout::InParamHKA&lt;</text>
<text text-anchor="start" x="159.5" y="-177.5" font-family="Helvetica,sans-Serif" font-size="10.00"> T_CLUSTERIDX, T_INSTANCEIDX,</text>
<text text-anchor="start" x="159.5" y="-166.5" font-family="Helvetica,sans-Serif" font-size="10.00"> T_REAL, T_FEATURE, T_FEATURE</text>
<text text-anchor="middle" x="247.5" y="-155.5" font-family="Helvetica,sans-Serif" font-size="10.00">_SUM, T_INSTANCES_CLUSTER_K &gt;</text>
<polyline fill="none" stroke="black" points="151.5,-148.5 343.5,-148.5 "/>
<text text-anchor="start" x="159.5" y="-136.5" font-family="Helvetica,sans-Serif" font-size="10.00"># st_orderTournament</text>
<text text-anchor="start" x="159.5" y="-125.5" font-family="Helvetica,sans-Serif" font-size="10.00"># st_nearestNeighbors</text>
<text text-anchor="start" x="159.5" y="-114.5" font-family="Helvetica,sans-Serif" font-size="10.00"># t_probSearchHeuristic</text>
<polyline fill="none" stroke="black" points="151.5,-107.5 343.5,-107.5 "/>
<text text-anchor="start" x="159.5" y="-95.5" font-family="Helvetica,sans-Serif" font-size="10.00">+ InParamHKA()</text>
<text text-anchor="start" x="159.5" y="-84.5" font-family="Helvetica,sans-Serif" font-size="10.00">+ ~InParamHKA()</text>
<text text-anchor="start" x="159.5" y="-73.5" font-family="Helvetica,sans-Serif" font-size="10.00">+ setOrderTournament()</text>
<text text-anchor="start" x="159.5" y="-62.5" font-family="Helvetica,sans-Serif" font-size="10.00">+ getOrderTournament()</text>
<text text-anchor="start" x="159.5" y="-51.5" font-family="Helvetica,sans-Serif" font-size="10.00">+ setNearestNeighbors()</text>
<text text-anchor="start" x="159.5" y="-40.5" font-family="Helvetica,sans-Serif" font-size="10.00">+ getNearestNeighbors()</text>
<text text-anchor="start" x="159.5" y="-29.5" font-family="Helvetica,sans-Serif" font-size="10.00">+ setProbSearchHeuristic()</text>
<text text-anchor="start" x="159.5" y="-18.5" font-family="Helvetica,sans-Serif" font-size="10.00">+ getProbSearchHeuristic()</text>
<text text-anchor="start" x="159.5" y="-7.5" font-family="Helvetica,sans-Serif" font-size="10.00">+ print()</text>
</a>
</g>
</g>
<!-- Node10 -->
<g id="node2" class="node"><title>Node10</title>
<g id="a_node2"><a xlink:href="classinout_1_1_in_param_g_c_a.html" target="_top" xlink:title="Input parameter for GCA algorithm k&#45;medoid clustering .">
<polygon fill="white" stroke="black" points="151.5,-238.5 151.5,-372.5 343.5,-372.5 343.5,-238.5 151.5,-238.5"/>
<text text-anchor="start" x="159.5" y="-360.5" font-family="Helvetica,sans-Serif" font-size="10.00">inout::InParamGCA&lt;</text>
<text text-anchor="start" x="159.5" y="-349.5" font-family="Helvetica,sans-Serif" font-size="10.00"> T_CLUSTERIDX, T_INSTANCEIDX,</text>
<text text-anchor="start" x="159.5" y="-338.5" font-family="Helvetica,sans-Serif" font-size="10.00"> T_REAL, T_FEATURE, T_FEATURE</text>
<text text-anchor="middle" x="247.5" y="-327.5" font-family="Helvetica,sans-Serif" font-size="10.00">_SUM, T_INSTANCES_CLUSTER_K &gt;</text>
<polyline fill="none" stroke="black" points="151.5,-320.5 343.5,-320.5 "/>
<text text-anchor="start" x="159.5" y="-308.5" font-family="Helvetica,sans-Serif" font-size="10.00"># t_probMixMutation</text>
<polyline fill="none" stroke="black" points="151.5,-301.5 343.5,-301.5 "/>
<text text-anchor="start" x="159.5" y="-289.5" font-family="Helvetica,sans-Serif" font-size="10.00">+ InParamGCA()</text>
<text text-anchor="start" x="159.5" y="-278.5" font-family="Helvetica,sans-Serif" font-size="10.00">+ ~InParamGCA()</text>
<text text-anchor="start" x="159.5" y="-267.5" font-family="Helvetica,sans-Serif" font-size="10.00">+ setProbMixMutation()</text>
<text text-anchor="start" x="159.5" y="-256.5" font-family="Helvetica,sans-Serif" font-size="10.00">+ getProbMixMutation()</text>
<text text-anchor="start" x="159.5" y="-245.5" font-family="Helvetica,sans-Serif" font-size="10.00">+ print()</text>
</a>
</g>
</g>
<!-- Node10&#45;&gt;Node9 -->
<g id="edge1" class="edge"><title>Node10&#45;&gt;Node9</title>
<path fill="none" stroke="midnightblue" d="M247.5,-228.287C247.5,-219.287 247.5,-210.005 247.5,-200.747"/>
<polygon fill="none" stroke="midnightblue" points="244,-228.311 247.5,-238.311 251,-228.311 244,-228.311"/>
</g>
<!-- Node11 -->
<g id="node3" class="node"><title>Node11</title>
<g id="a_node3"><a xlink:href="classinout_1_1_in_param_pc_pm_fk.html" target="_top" xlink:title="Input parameter for GA with probability Pc, Pm and Fixed K.">
<polygon fill="white" stroke="black" points="161,-410.5 161,-522.5 334,-522.5 334,-410.5 161,-410.5"/>
<text text-anchor="start" x="169" y="-510.5" font-family="Helvetica,sans-Serif" font-size="10.00">inout::InParamPcPmFk</text>
<text text-anchor="start" x="169" y="-499.5" font-family="Helvetica,sans-Serif" font-size="10.00">&lt; T_CLUSTERIDX, T_REAL,</text>
<text text-anchor="start" x="169" y="-488.5" font-family="Helvetica,sans-Serif" font-size="10.00"> T_FEATURE, T_FEATURE_SUM,</text>
<text text-anchor="middle" x="247.5" y="-477.5" font-family="Helvetica,sans-Serif" font-size="10.00"> T_INSTANCES_CLUSTER_K &gt;</text>
<polyline fill="none" stroke="black" points="161,-470.5 334,-470.5 "/>
<text text-anchor="middle" x="247.5" y="-458.5" font-family="Helvetica,sans-Serif" font-size="10.00"> </text>
<polyline fill="none" stroke="black" points="161,-451.5 334,-451.5 "/>
<text text-anchor="start" x="169" y="-439.5" font-family="Helvetica,sans-Serif" font-size="10.00">+ InParamPcPmFk()</text>
<text text-anchor="start" x="169" y="-428.5" font-family="Helvetica,sans-Serif" font-size="10.00">+ ~InParamPcPmFk()</text>
<text text-anchor="start" x="169" y="-417.5" font-family="Helvetica,sans-Serif" font-size="10.00">+ print()</text>
</a>
</g>
</g>
<!-- Node11&#45;&gt;Node10 -->
<g id="edge2" class="edge"><title>Node11&#45;&gt;Node10</title>
<path fill="none" stroke="midnightblue" d="M247.5,-400.166C247.5,-391.039 247.5,-381.653 247.5,-372.513"/>
<polygon fill="none" stroke="midnightblue" points="244,-400.336 247.5,-410.336 251,-400.336 244,-400.336"/>
</g>
<!-- Node12 -->
<g id="node4" class="node"><title>Node12</title>
<g id="a_node4"><a xlink:href="classinout_1_1_in_param_pc_pm.html" target="_top" xlink:title="Input parameter for GA with probability crossover (Pc) and mutation (Pm)">
<polygon fill="white" stroke="black" points="58.5,-560.5 58.5,-705.5 172.5,-705.5 172.5,-560.5 58.5,-560.5"/>
<text text-anchor="start" x="66.5" y="-693.5" font-family="Helvetica,sans-Serif" font-size="10.00">inout::InParamPcPm</text>
<text text-anchor="middle" x="115.5" y="-682.5" font-family="Helvetica,sans-Serif" font-size="10.00">&lt; T_REAL &gt;</text>
<polyline fill="none" stroke="black" points="58.5,-675.5 172.5,-675.5 "/>
<text text-anchor="start" x="66.5" y="-663.5" font-family="Helvetica,sans-Serif" font-size="10.00"># t_probCrossover</text>
<text text-anchor="start" x="66.5" y="-652.5" font-family="Helvetica,sans-Serif" font-size="10.00"># t_probMutation</text>
<polyline fill="none" stroke="black" points="58.5,-645.5 172.5,-645.5 "/>
<text text-anchor="start" x="66.5" y="-633.5" font-family="Helvetica,sans-Serif" font-size="10.00">+ InParamPcPm()</text>
<text text-anchor="start" x="66.5" y="-622.5" font-family="Helvetica,sans-Serif" font-size="10.00">+ ~InParamPcPm()</text>
<text text-anchor="start" x="66.5" y="-611.5" font-family="Helvetica,sans-Serif" font-size="10.00">+ setProbCrossover()</text>
<text text-anchor="start" x="66.5" y="-600.5" font-family="Helvetica,sans-Serif" font-size="10.00">+ getProbCrossover()</text>
<text text-anchor="start" x="66.5" y="-589.5" font-family="Helvetica,sans-Serif" font-size="10.00">+ setProbMutation()</text>
<text text-anchor="start" x="66.5" y="-578.5" font-family="Helvetica,sans-Serif" font-size="10.00">+ getProbMutation()</text>
<text text-anchor="start" x="66.5" y="-567.5" font-family="Helvetica,sans-Serif" font-size="10.00">+ print()</text>
</a>
</g>
</g>
<!-- Node12&#45;&gt;Node11 -->
<g id="edge3" class="edge"><title>Node12&#45;&gt;Node11</title>
<path fill="none" stroke="midnightblue" d="M179.096,-552.746C187.183,-542.667 195.319,-532.528 203.016,-522.936"/>
<polygon fill="none" stroke="midnightblue" points="176.158,-550.815 172.629,-560.805 181.618,-555.196 176.158,-550.815"/>
</g>
<!-- Node13 -->
<g id="node5" class="node"><title>Node13</title>
<g id="a_node5"><a xlink:href="classinout_1_1_in_param_g_a_clustering.html" target="_top" xlink:title="Input parameter for genetic algorithm.">
<polygon fill="white" stroke="black" points="45,-743.5 45,-877.5 186,-877.5 186,-743.5 45,-743.5"/>
<text text-anchor="middle" x="115.5" y="-865.5" font-family="Helvetica,sans-Serif" font-size="10.00">inout::InParamGAClustering</text>
<polyline fill="none" stroke="black" points="45,-858.5 186,-858.5 "/>
<text text-anchor="start" x="53" y="-846.5" font-family="Helvetica,sans-Serif" font-size="10.00"># st_sizePopulation</text>
<text text-anchor="start" x="53" y="-835.5" font-family="Helvetica,sans-Serif" font-size="10.00"># t_numMaxGenerations</text>
<polyline fill="none" stroke="black" points="45,-828.5 186,-828.5 "/>
<text text-anchor="start" x="53" y="-816.5" font-family="Helvetica,sans-Serif" font-size="10.00">+ InParamGAClustering()</text>
<text text-anchor="start" x="53" y="-805.5" font-family="Helvetica,sans-Serif" font-size="10.00">+ ~InParamGAClustering()</text>
<text text-anchor="start" x="53" y="-794.5" font-family="Helvetica,sans-Serif" font-size="10.00">+ setNumMaxGenerations()</text>
<text text-anchor="start" x="53" y="-783.5" font-family="Helvetica,sans-Serif" font-size="10.00">+ getNumMaxGenerations()</text>
<text text-anchor="start" x="53" y="-772.5" font-family="Helvetica,sans-Serif" font-size="10.00">+ setSizePopulation()</text>
<text text-anchor="start" x="53" y="-761.5" font-family="Helvetica,sans-Serif" font-size="10.00">+ getSizePopulation()</text>
<text text-anchor="start" x="53" y="-750.5" font-family="Helvetica,sans-Serif" font-size="10.00">+ print()</text>
</a>
</g>
</g>
<!-- Node13&#45;&gt;Node12 -->
<g id="edge4" class="edge"><title>Node13&#45;&gt;Node12</title>
<path fill="none" stroke="midnightblue" d="M115.5,-733.007C115.5,-723.942 115.5,-714.714 115.5,-705.719"/>
<polygon fill="none" stroke="midnightblue" points="112,-733.151 115.5,-743.151 119,-733.151 112,-733.151"/>
</g>
<!-- Node14 -->
<g id="node6" class="node"><title>Node14</title>
<g id="a_node6"><a xlink:href="classinout_1_1_in_param_clustering.html" target="_top" xlink:title="Input parameter for clustering algorithm.">
<polygon fill="white" stroke="black" points="24.5,-948.5 24.5,-1203.5 206.5,-1203.5 206.5,-948.5 24.5,-948.5"/>
<text text-anchor="middle" x="115.5" y="-1191.5" font-family="Helvetica,sans-Serif" font-size="10.00">inout::InParamClustering</text>
<polyline fill="none" stroke="black" points="24.5,-1184.5 206.5,-1184.5 "/>
<text text-anchor="start" x="32.5" y="-1172.5" font-family="Helvetica,sans-Serif" font-size="10.00"># i_opDistance</text>
<text text-anchor="start" x="32.5" y="-1161.5" font-family="Helvetica,sans-Serif" font-size="10.00"># ps_outFileCentroids</text>
<text text-anchor="start" x="32.5" y="-1150.5" font-family="Helvetica,sans-Serif" font-size="10.00"># ps_outFileMemberShip</text>
<text text-anchor="start" x="32.5" y="-1139.5" font-family="Helvetica,sans-Serif" font-size="10.00"># ps_outFilePartitionsTable</text>
<text text-anchor="start" x="32.5" y="-1128.5" font-family="Helvetica,sans-Serif" font-size="10.00"># ps_outFileGraph</text>
<text text-anchor="start" x="32.5" y="-1117.5" font-family="Helvetica,sans-Serif" font-size="10.00"># ps_fileNamePlotStatObjetiveFunc</text>
<text text-anchor="start" x="32.5" y="-1106.5" font-family="Helvetica,sans-Serif" font-size="10.00"># _rd_maxExecutiontime</text>
<text text-anchor="start" x="32.5" y="-1095.5" font-family="Helvetica,sans-Serif" font-size="10.00"># _b_printCentroidsFormat</text>
<text text-anchor="start" x="32.5" y="-1084.5" font-family="Helvetica,sans-Serif" font-size="10.00"># _b_printTableFormat</text>
<polyline fill="none" stroke="black" points="24.5,-1077.5 206.5,-1077.5 "/>
<text text-anchor="start" x="32.5" y="-1065.5" font-family="Helvetica,sans-Serif" font-size="10.00">+ InParamClustering()</text>
<text text-anchor="start" x="32.5" y="-1054.5" font-family="Helvetica,sans-Serif" font-size="10.00">+ ~InParamClustering()</text>
<text text-anchor="start" x="32.5" y="-1043.5" font-family="Helvetica,sans-Serif" font-size="10.00">+ getFileNamePlotStatObjetiveFunc()</text>
<text text-anchor="start" x="32.5" y="-1032.5" font-family="Helvetica,sans-Serif" font-size="10.00">+ getWithPlotStatObjetiveFunc()</text>
<text text-anchor="start" x="32.5" y="-1021.5" font-family="Helvetica,sans-Serif" font-size="10.00">+ setFileNamePlotStatObjetiveFunc()</text>
<text text-anchor="start" x="32.5" y="-1010.5" font-family="Helvetica,sans-Serif" font-size="10.00">+ setOutFileMemberShip()</text>
<text text-anchor="start" x="32.5" y="-999.5" font-family="Helvetica,sans-Serif" font-size="10.00">+ getOutFileMemberShip()</text>
<text text-anchor="start" x="32.5" y="-988.5" font-family="Helvetica,sans-Serif" font-size="10.00">+ setRandomSeed()</text>
<text text-anchor="start" x="32.5" y="-977.5" font-family="Helvetica,sans-Serif" font-size="10.00">+ setRandomSeed()</text>
<text text-anchor="start" x="32.5" y="-966.5" font-family="Helvetica,sans-Serif" font-size="10.00">+ getRandomSeed()</text>
<text text-anchor="start" x="32.5" y="-955.5" font-family="Helvetica,sans-Serif" font-size="10.00">and 15 more...</text>
</a>
</g>
</g>
<!-- Node14&#45;&gt;Node13 -->
<g id="edge5" class="edge"><title>Node14&#45;&gt;Node13</title>
<path fill="none" stroke="midnightblue" d="M115.5,-938.258C115.5,-917.202 115.5,-896.315 115.5,-877.755"/>
<polygon fill="none" stroke="midnightblue" points="112,-938.267 115.5,-948.267 119,-938.267 112,-938.267"/>
</g>
<!-- Node15 -->
<g id="node7" class="node"><title>Node15</title>
<g id="a_node7"><a xlink:href="classinout_1_1_in_param_algorithmo.html" target="_top" xlink:title="Input parameter for define propertys of the algorithmos.">
<polygon fill="white" stroke="black" points="0,-1295.5 0,-1495.5 135,-1495.5 135,-1295.5 0,-1295.5"/>
<text text-anchor="middle" x="67.5" y="-1483.5" font-family="Helvetica,sans-Serif" font-size="10.00">inout::InParamAlgorithmo</text>
<polyline fill="none" stroke="black" points="0,-1476.5 135,-1476.5 "/>
<text text-anchor="start" x="8" y="-1464.5" font-family="Helvetica,sans-Serif" font-size="10.00"># ato_algTypeOut</text>
<text text-anchor="start" x="8" y="-1453.5" font-family="Helvetica,sans-Serif" font-size="10.00"># ps_fileNameTimesRun</text>
<text text-anchor="start" x="8" y="-1442.5" font-family="Helvetica,sans-Serif" font-size="10.00"># b_progressBarPrinting</text>
<text text-anchor="start" x="8" y="-1431.5" font-family="Helvetica,sans-Serif" font-size="10.00"># i_timesRunAlgorithm</text>
<polyline fill="none" stroke="black" points="0,-1424.5 135,-1424.5 "/>
<text text-anchor="start" x="8" y="-1412.5" font-family="Helvetica,sans-Serif" font-size="10.00">+ InParamAlgorithmo()</text>
<text text-anchor="start" x="8" y="-1401.5" font-family="Helvetica,sans-Serif" font-size="10.00">+ ~InParamAlgorithmo()</text>
<text text-anchor="start" x="8" y="-1390.5" font-family="Helvetica,sans-Serif" font-size="10.00">+ errorArgument()</text>
<text text-anchor="start" x="8" y="-1379.5" font-family="Helvetica,sans-Serif" font-size="10.00">+ isYesNo()</text>
<text text-anchor="start" x="8" y="-1368.5" font-family="Helvetica,sans-Serif" font-size="10.00">+ setFileNameTimesRun()</text>
<text text-anchor="start" x="8" y="-1357.5" font-family="Helvetica,sans-Serif" font-size="10.00">+ setProgressBarPrinting()</text>
<text text-anchor="start" x="8" y="-1346.5" font-family="Helvetica,sans-Serif" font-size="10.00">+ setTimesRunAlgorithm()</text>
<text text-anchor="start" x="8" y="-1335.5" font-family="Helvetica,sans-Serif" font-size="10.00">+ setGnuPlotCoreStyles()</text>
<text text-anchor="start" x="8" y="-1324.5" font-family="Helvetica,sans-Serif" font-size="10.00">+ getAlgorithmoAuthor()</text>
<text text-anchor="start" x="8" y="-1313.5" font-family="Helvetica,sans-Serif" font-size="10.00">+ getAlgorithmoName()</text>
<text text-anchor="start" x="8" y="-1302.5" font-family="Helvetica,sans-Serif" font-size="10.00">and 8 more...</text>
</a>
</g>
</g>
<!-- Node15&#45;&gt;Node14 -->
<g id="edge6" class="edge"><title>Node15&#45;&gt;Node14</title>
<path fill="none" stroke="midnightblue" d="M83.9981,-1285.37C87.9748,-1259.07 92.2569,-1230.74 96.3436,-1203.71"/>
<polygon fill="none" stroke="midnightblue" points="80.5243,-1284.94 82.4901,-1295.35 87.4456,-1285.98 80.5243,-1284.94"/>
</g>
<!-- Node16 -->
<g id="node8" class="node"><title>Node16</title>
<g id="a_node8"><a xlink:title="STL class.">
<polygon fill="white" stroke="#bfbfbf" points="209.5,-1576.5 209.5,-1633.5 269.5,-1633.5 269.5,-1576.5 209.5,-1576.5"/>
<text text-anchor="middle" x="239.5" y="-1621.5" font-family="Helvetica,sans-Serif" font-size="10.00">std::string</text>
<polyline fill="none" stroke="#bfbfbf" points="209.5,-1614.5 269.5,-1614.5 "/>
<text text-anchor="middle" x="239.5" y="-1602.5" font-family="Helvetica,sans-Serif" font-size="10.00"> </text>
<polyline fill="none" stroke="#bfbfbf" points="209.5,-1595.5 269.5,-1595.5 "/>
<text text-anchor="middle" x="239.5" y="-1583.5" font-family="Helvetica,sans-Serif" font-size="10.00"> </text>
</a>
</g>
</g>
<!-- Node16&#45;&gt;Node14 -->
<g id="edge9" class="edge"><title>Node16&#45;&gt;Node14</title>
<path fill="none" stroke="#404040" d="M219.199,-1576.13C204.944,-1555.14 186.672,-1525.1 176.5,-1496 167.298,-1469.68 147.577,-1327.38 133.038,-1215.83"/>
<polygon fill="none" stroke="#404040" points="133.017,-1215.66 128.277,-1210.23 131.47,-1203.76 136.21,-1209.2 133.017,-1215.66"/>
<text text-anchor="middle" x="221" y="-1393" font-family="Helvetica,sans-Serif" font-size="10.00"> #_str_randomSeed</text>
</g>
<!-- Node16&#45;&gt;Node15 -->
<g id="edge7" class="edge"><title>Node16&#45;&gt;Node15</title>
<path fill="none" stroke="#404040" d="M209.409,-1600.54C163.96,-1594.62 81.2104,-1580.93 63.5,-1558 52.3207,-1543.52 47.0968,-1525.94 45.5195,-1507.78"/>
<polygon fill="none" stroke="#404040" points="45.5193,-1507.77 41.2554,-1501.95 44.9836,-1495.78 49.2474,-1501.6 45.5193,-1507.77"/>
<text text-anchor="middle" x="113" y="-1550" font-family="Helvetica,sans-Serif" font-size="10.00"> #s_algorithmoAuthor</text>
<text text-anchor="middle" x="113" y="-1539" font-family="Helvetica,sans-Serif" font-size="10.00">#s_algorithmoName</text>
<text text-anchor="middle" x="113" y="-1528" font-family="Helvetica,sans-Serif" font-size="10.00">#s_gnuplotCoreStyles</text>
<text text-anchor="middle" x="113" y="-1517" font-family="Helvetica,sans-Serif" font-size="10.00">#_s_runTimeId</text>
</g>
<!-- Node19 -->
<g id="node11" class="node"><title>Node19</title>
<g id="a_node11"><a xlink:href="classinout_1_1_in_param_read_inst.html" target="_top" xlink:title="Input parameter for read instances.">
<polygon fill="white" stroke="black" points="247,-915.5 247,-1236.5 418,-1236.5 418,-915.5 247,-915.5"/>
<text text-anchor="start" x="255" y="-1224.5" font-family="Helvetica,sans-Serif" font-size="10.00">inout::InParamReadInst</text>
<text text-anchor="start" x="255" y="-1213.5" font-family="Helvetica,sans-Serif" font-size="10.00">&lt; T_FEATURE, T_INSTANCES</text>
<text text-anchor="middle" x="332.5" y="-1202.5" font-family="Helvetica,sans-Serif" font-size="10.00">_CLUSTER_K, T_CLUSTERIDX &gt;</text>
<polyline fill="none" stroke="black" points="247,-1195.5 418,-1195.5 "/>
<text text-anchor="start" x="255" y="-1183.5" font-family="Helvetica,sans-Serif" font-size="10.00"># _ui_idxCurrentFileInstance</text>
<text text-anchor="start" x="255" y="-1172.5" font-family="Helvetica,sans-Serif" font-size="10.00"># _enum_formatInstanceFile</text>
<text text-anchor="start" x="255" y="-1161.5" font-family="Helvetica,sans-Serif" font-size="10.00"># _b_haveHeaderFile</text>
<text text-anchor="start" x="255" y="-1150.5" font-family="Helvetica,sans-Serif" font-size="10.00"># _ui_classInstanceColumn</text>
<text text-anchor="start" x="255" y="-1139.5" font-family="Helvetica,sans-Serif" font-size="10.00"># _ui_clusterInstanceColumn</text>
<text text-anchor="start" x="255" y="-1128.5" font-family="Helvetica,sans-Serif" font-size="10.00"># _ui_idInstanceColumn</text>
<text text-anchor="start" x="255" y="-1117.5" font-family="Helvetica,sans-Serif" font-size="10.00"># _ui_instancesFrequencyColumn</text>
<text text-anchor="start" x="255" y="-1106.5" font-family="Helvetica,sans-Serif" font-size="10.00"># _ui_idMultiInstanceColumn</text>
<text text-anchor="start" x="255" y="-1095.5" font-family="Helvetica,sans-Serif" font-size="10.00"># _ui_classMultiInstColumn</text>
<text text-anchor="start" x="255" y="-1084.5" font-family="Helvetica,sans-Serif" font-size="10.00"># _ui_numInstances</text>
<text text-anchor="start" x="255" y="-1073.5" font-family="Helvetica,sans-Serif" font-size="10.00"># _ui_numDimensionsInstances</text>
<text text-anchor="start" x="255" y="-1062.5" font-family="Helvetica,sans-Serif" font-size="10.00"># _ui_numInstancesTest</text>
<text text-anchor="start" x="255" y="-1051.5" font-family="Helvetica,sans-Serif" font-size="10.00"># _b_printMulLine</text>
<polyline fill="none" stroke="black" points="247,-1044.5 418,-1044.5 "/>
<text text-anchor="start" x="255" y="-1032.5" font-family="Helvetica,sans-Serif" font-size="10.00">+ InParamReadInst()</text>
<text text-anchor="start" x="255" y="-1021.5" font-family="Helvetica,sans-Serif" font-size="10.00">+ InParamReadInst()</text>
<text text-anchor="start" x="255" y="-1010.5" font-family="Helvetica,sans-Serif" font-size="10.00">+ ~InParamReadInst()</text>
<text text-anchor="start" x="255" y="-999.5" font-family="Helvetica,sans-Serif" font-size="10.00">+ clearVectorFilesInstance()</text>
<text text-anchor="start" x="255" y="-988.5" font-family="Helvetica,sans-Serif" font-size="10.00">+ getVectorFilesInstance()</text>
<text text-anchor="start" x="255" y="-977.5" font-family="Helvetica,sans-Serif" font-size="10.00">+ setVectorFilesInstance()</text>
<text text-anchor="start" x="255" y="-966.5" font-family="Helvetica,sans-Serif" font-size="10.00">+ getNumFilesInstance()</text>
<text text-anchor="start" x="255" y="-955.5" font-family="Helvetica,sans-Serif" font-size="10.00">+ setVectorFilesInstanceTest()</text>
<text text-anchor="start" x="255" y="-944.5" font-family="Helvetica,sans-Serif" font-size="10.00">+ getVectorFilesInstanceTest()</text>
<text text-anchor="start" x="255" y="-933.5" font-family="Helvetica,sans-Serif" font-size="10.00">+ getNumFilesInstanceTest()</text>
<text text-anchor="start" x="255" y="-922.5" font-family="Helvetica,sans-Serif" font-size="10.00">and 37 more...</text>
</a>
</g>
</g>
<!-- Node16&#45;&gt;Node19 -->
<g id="edge12" class="edge"><title>Node16&#45;&gt;Node19</title>
<path fill="none" stroke="#404040" d="M248.21,-1576.26C254.772,-1554.58 263.615,-1523.6 269.5,-1496 286.683,-1415.42 300.89,-1325.14 311.436,-1249.08"/>
<polygon fill="none" stroke="#404040" points="311.463,-1248.88 308.317,-1242.39 313.097,-1236.99 316.243,-1243.48 311.463,-1248.88"/>
<text text-anchor="middle" x="357" y="-1398.5" font-family="Helvetica,sans-Serif" font-size="10.00"> #_ps_selectAttributes</text>
<text text-anchor="middle" x="357" y="-1387.5" font-family="Helvetica,sans-Serif" font-size="10.00">#_s_separatorAttributes</text>
</g>
<!-- Node20 -->
<g id="node12" class="node"><title>Node20</title>
<g id="a_node12"><a xlink:title=" ">
<polygon fill="white" stroke="#bfbfbf" points="425,-1367 425,-1424 550,-1424 550,-1367 425,-1367"/>
<text text-anchor="middle" x="487.5" y="-1412" font-family="Helvetica,sans-Serif" font-size="10.00">std::vector&lt; std::string &gt;</text>
<polyline fill="none" stroke="#bfbfbf" points="425,-1405 550,-1405 "/>
<text text-anchor="middle" x="487.5" y="-1393" font-family="Helvetica,sans-Serif" font-size="10.00"> </text>
<polyline fill="none" stroke="#bfbfbf" points="425,-1386 550,-1386 "/>
<text text-anchor="middle" x="487.5" y="-1374" font-family="Helvetica,sans-Serif" font-size="10.00"> </text>
</a>
</g>
</g>
<!-- Node16&#45;&gt;Node20 -->
<g id="edge14" class="edge"><title>Node16&#45;&gt;Node20</title>
<path fill="none" stroke="#404040" d="M269.604,-1586.1C283.623,-1577.68 300.484,-1567.44 315.5,-1558 358.184,-1531.16 373.445,-1530.19 410.5,-1496 430.322,-1477.71 448.936,-1453.92 462.896,-1434.18"/>
<polygon fill="none" stroke="#404040" points="462.92,-1434.15 463.049,-1426.94 469.753,-1424.28 469.625,-1431.49 462.92,-1434.15"/>
<text text-anchor="middle" x="415" y="-1533.5" font-family="Helvetica,sans-Serif" font-size="10.00"> +elements</text>
</g>
<!-- Node17 -->
<g id="node9" class="node"><title>Node17</title>
<g id="a_node9"><a xlink:title="STL class.">
<polygon fill="white" stroke="#bfbfbf" points="192,-1681.5 192,-1749.5 287,-1749.5 287,-1681.5 192,-1681.5"/>
<text text-anchor="start" x="200" y="-1737.5" font-family="Helvetica,sans-Serif" font-size="10.00">std::basic_string&lt;</text>
<text text-anchor="middle" x="239.5" y="-1726.5" font-family="Helvetica,sans-Serif" font-size="10.00"> char &gt;</text>
<polyline fill="none" stroke="#bfbfbf" points="192,-1719.5 287,-1719.5 "/>
<text text-anchor="middle" x="239.5" y="-1707.5" font-family="Helvetica,sans-Serif" font-size="10.00"> </text>
<polyline fill="none" stroke="#bfbfbf" points="192,-1700.5 287,-1700.5 "/>
<text text-anchor="middle" x="239.5" y="-1688.5" font-family="Helvetica,sans-Serif" font-size="10.00"> </text>
</a>
</g>
</g>
<!-- Node17&#45;&gt;Node16 -->
<g id="edge8" class="edge"><title>Node17&#45;&gt;Node16</title>
<path fill="none" stroke="midnightblue" d="M239.5,-1671.06C239.5,-1658.51 239.5,-1645.15 239.5,-1633.83"/>
<polygon fill="none" stroke="midnightblue" points="236,-1671.36 239.5,-1681.36 243,-1671.36 236,-1671.36"/>
</g>
<!-- Node18 -->
<g id="node10" class="node"><title>Node18</title>
<g id="a_node10"><a xlink:href="classinout_1_1_in_param_fk.html" target="_top" xlink:title="Input parameter for algorithms with Fixed K.">
<polygon fill="white" stroke="black" points="191,-577 191,-689 304,-689 304,-577 191,-577"/>
<text text-anchor="start" x="199" y="-677" font-family="Helvetica,sans-Serif" font-size="10.00">inout::InParamFk&lt; T</text>
<text text-anchor="middle" x="247.5" y="-666" font-family="Helvetica,sans-Serif" font-size="10.00">_CLUSTERIDX &gt;</text>
<polyline fill="none" stroke="black" points="191,-659 304,-659 "/>
<text text-anchor="start" x="199" y="-647" font-family="Helvetica,sans-Serif" font-size="10.00"># _idxK_numClusterK</text>
<polyline fill="none" stroke="black" points="191,-640 304,-640 "/>
<text text-anchor="start" x="199" y="-628" font-family="Helvetica,sans-Serif" font-size="10.00">+ InParamFk()</text>
<text text-anchor="start" x="199" y="-617" font-family="Helvetica,sans-Serif" font-size="10.00">+ ~InParamFk()</text>
<text text-anchor="start" x="199" y="-606" font-family="Helvetica,sans-Serif" font-size="10.00">+ setNumClusterK()</text>
<text text-anchor="start" x="199" y="-595" font-family="Helvetica,sans-Serif" font-size="10.00">+ getNumClusterK()</text>
<text text-anchor="start" x="199" y="-584" font-family="Helvetica,sans-Serif" font-size="10.00">+ print()</text>
</a>
</g>
</g>
<!-- Node18&#45;&gt;Node11 -->
<g id="edge10" class="edge"><title>Node18&#45;&gt;Node11</title>
<path fill="none" stroke="midnightblue" d="M247.5,-566.358C247.5,-551.851 247.5,-536.625 247.5,-522.588"/>
<polygon fill="none" stroke="midnightblue" points="244,-566.766 247.5,-576.766 251,-566.766 244,-566.766"/>
</g>
<!-- Node19&#45;&gt;Node11 -->
<g id="edge11" class="edge"><title>Node19&#45;&gt;Node11</title>
<path fill="none" stroke="midnightblue" d="M349.713,-905.158C354.338,-802.599 349.903,-670.756 312.5,-560 308.136,-547.076 301.35,-534.352 293.78,-522.671"/>
<polygon fill="none" stroke="midnightblue" points="346.21,-905.146 349.222,-915.304 353.201,-905.485 346.21,-905.146"/>
</g>
<!-- Node20&#45;&gt;Node19 -->
<g id="edge13" class="edge"><title>Node20&#45;&gt;Node19</title>
<path fill="none" stroke="#404040" d="M474.016,-1366.88C460.486,-1339.17 438.449,-1294.03 415.751,-1247.53"/>
<polygon fill="none" stroke="#404040" points="415.703,-1247.43 409.476,-1243.79 410.438,-1236.65 416.665,-1240.28 415.703,-1247.43"/>
<text text-anchor="middle" x="494" y="-1269" font-family="Helvetica,sans-Serif" font-size="10.00"> #_vectorstr_filesInstance</text>
<text text-anchor="middle" x="494" y="-1258" font-family="Helvetica,sans-Serif" font-size="10.00">#_vectorstr_filesInstanceTest</text>
</g>
<!-- Node21 -->
<g id="node13" class="node"><title>Node21</title>
<g id="a_node13"><a xlink:title="STL class.">
<polygon fill="white" stroke="#bfbfbf" points="443,-1576.5 443,-1633.5 532,-1633.5 532,-1576.5 443,-1576.5"/>
<text text-anchor="middle" x="487.5" y="-1621.5" font-family="Helvetica,sans-Serif" font-size="10.00">std::vector&lt; T &gt;</text>
<polyline fill="none" stroke="#bfbfbf" points="443,-1614.5 532,-1614.5 "/>
<text text-anchor="middle" x="487.5" y="-1602.5" font-family="Helvetica,sans-Serif" font-size="10.00"> </text>
<polyline fill="none" stroke="#bfbfbf" points="443,-1595.5 532,-1595.5 "/>
<text text-anchor="middle" x="487.5" y="-1583.5" font-family="Helvetica,sans-Serif" font-size="10.00"> </text>
</a>
</g>
</g>
<!-- Node21&#45;&gt;Node20 -->
<g id="edge15" class="edge"><title>Node21&#45;&gt;Node20</title>
<path fill="none" stroke="orange" d="M487.5,-1566.31C487.5,-1525.3 487.5,-1460.74 487.5,-1424.17"/>
<polygon fill="orange" stroke="orange" points="484,-1566.45 487.5,-1576.45 491,-1566.45 484,-1566.45"/>
<text text-anchor="middle" x="520" y="-1533.5" font-family="Helvetica,sans-Serif" font-size="10.00"> &lt; std::string &gt;</text>
</g>
<!-- Node22 -->
<g id="node14" class="node"><title>Node22</title>
<g id="a_node14"><a xlink:title=" ">
<polygon fill="white" stroke="#bfbfbf" points="473,-1687 473,-1744 502,-1744 502,-1687 473,-1687"/>
<text text-anchor="middle" x="487.5" y="-1732" font-family="Helvetica,sans-Serif" font-size="10.00">T</text>
<polyline fill="none" stroke="#bfbfbf" points="473,-1725 502,-1725 "/>
<text text-anchor="middle" x="487.5" y="-1713" font-family="Helvetica,sans-Serif" font-size="10.00"> </text>
<polyline fill="none" stroke="#bfbfbf" points="473,-1706 502,-1706 "/>
<text text-anchor="middle" x="487.5" y="-1694" font-family="Helvetica,sans-Serif" font-size="10.00"> </text>
</a>
</g>
</g>
<!-- Node22&#45;&gt;Node21 -->
<g id="edge16" class="edge"><title>Node22&#45;&gt;Node21</title>
<path fill="none" stroke="#404040" d="M487.5,-1686.84C487.5,-1674.34 487.5,-1659.34 487.5,-1645.68"/>
<polygon fill="none" stroke="#404040" points="487.5,-1645.61 483.5,-1639.61 487.5,-1633.61 491.5,-1639.61 487.5,-1645.61"/>
<text text-anchor="middle" x="513" y="-1655" font-family="Helvetica,sans-Serif" font-size="10.00"> +elements</text>
</g>
</g>
</svg>
        <g id="navigator" transform="translate(0 0)" fill="#404254">
                <rect fill="#f2f5e9" fill-opacity="0.5" stroke="#606060" stroke-width=".5" x="0" y="0" width="60" height="60"/>
                <use id="zoomplus" xlink:href="#zoomPlus" x="17" y="9" onmousedown="handleZoom(evt,'in')"/>
                <use id="zoomminus" xlink:href="#zoomMin" x="42" y="9" onmousedown="handleZoom(evt,'out')"/>
                <use id="reset" xlink:href="#resetDef" x="30" y="36" onmousedown="handleReset()"/>
                <g id="arrowUp" xlink:href="#dirArrow" transform="translate(30 24)" onmousedown="handlePan(0,-1)">
                  <use xlink:href="#rim" fill="#404040">
                        <set attributeName="fill" to="#808080" begin="arrowUp.mouseover" end="arrowUp.mouseout"/>
                  </use>
                  <path fill="none" stroke="white" stroke-width="1.5" d="M0,-3.0v7 M-2.5,-0.5L0,-3.0L2.5,-0.5"/>
                </g>
                <g id="arrowRight" xlink:href="#dirArrow" transform="rotate(90) translate(36 -43)" onmousedown="handlePan(1,0)">
                  <use xlink:href="#rim" fill="#404040">
                        <set attributeName="fill" to="#808080" begin="arrowRight.mouseover" end="arrowRight.mouseout"/>
                  </use>
                  <path fill="none" stroke="white" stroke-width="1.5" d="M0,-3.0v7 M-2.5,-0.5L0,-3.0L2.5,-0.5"/>
                </g>
                <g id="arrowDown" xlink:href="#dirArrow" transform="rotate(180) translate(-30 -48)" onmousedown="handlePan(0,1)">
                  <use xlink:href="#rim" fill="#404040">
                        <set attributeName="fill" to="#808080" begin="arrowDown.mouseover" end="arrowDown.mouseout"/>
                  </use>
                  <path fill="none" stroke="white" stroke-width="1.5" d="M0,-3.0v7 M-2.5,-0.5L0,-3.0L2.5,-0.5"/>
                </g>
                <g id="arrowLeft" xlink:href="#dirArrow" transform="rotate(270) translate(-36 17)" onmousedown="handlePan(-1,0)">
                  <use xlink:href="#rim" fill="#404040">
                        <set attributeName="fill" to="#808080" begin="arrowLeft.mouseover" end="arrowLeft.mouseout"/>
                  </use>
                  <path fill="none" stroke="white" stroke-width="1.5" d="M0,-3.0v7 M-2.5,-0.5L0,-3.0L2.5,-0.5"/>
                </g>
        </g>
        <svg viewBox="0 0 15 15" width="100%" height="30px" preserveAspectRatio="xMaxYMin meet">
         <g id="arrow_out" transform="scale(0.3 0.3)">
          <a xlink:href="classinout_1_1_in_param_h_k_a__coll__graph_org.svg" target="_base">
           <rect id="button" ry="5" rx="5" y="6" x="6" height="38" width="38"
                fill="#f2f5e9" fill-opacity="0.5" stroke="#606060" stroke-width="1.0"/>
           <path id="arrow"
             d="M 11.500037,31.436501 C 11.940474,20.09759 22.043105,11.32322 32.158766,21.979434 L 37.068811,17.246167 C 37.068811,17.246167 37.088388,32 37.088388,32 L 22.160133,31.978069 C 22.160133,31.978069 26.997745,27.140456 26.997745,27.140456 C 18.528582,18.264221 13.291696,25.230495 11.500037,31.436501 z"
             style="fill:#404040;"/>
          </a>
         </g>
        </svg>
</svg>
