<?xml version="1.0" encoding="UTF-8" standalone="no"?>
<!DOCTYPE svg PUBLIC "-//W3C//DTD SVG 1.1//EN"
 "http://www.w3.org/Graphics/SVG/1.1/DTD/svg11.dtd">
<!-- Generated by graphviz version 2.38.0 (20140413.2041)
 -->
<!-- Title: inout::InParamPcPm&lt; T_REAL &gt; Pages: 1 -->
<svg width="292pt" height="1101pt"
 viewBox="0.00 0.00 291.50 1101.00" xmlns="http://www.w3.org/2000/svg" xmlns:xlink="http://www.w3.org/1999/xlink">
<g id="graph0" class="graph" transform="scale(1 1) rotate(0) translate(4 1097)">
<title>inout::InParamPcPm&lt; T_REAL &gt;</title>
<polygon fill="white" stroke="none" points="-4,4 -4,-1097 287.5,-1097 287.5,4 -4,4"/>
<!-- Node12 -->
<g id="node1" class="node"><title>Node12</title>
<polygon fill="#bfbfbf" stroke="black" points="34,-0.5 34,-145.5 148,-145.5 148,-0.5 34,-0.5"/>
<text text-anchor="start" x="42" y="-133.5" font-family="Helvetica,sans-Serif" font-size="10.00">inout::InParamPcPm</text>
<text text-anchor="middle" x="91" y="-122.5" font-family="Helvetica,sans-Serif" font-size="10.00">&lt; T_REAL &gt;</text>
<polyline fill="none" stroke="black" points="34,-115.5 148,-115.5 "/>
<text text-anchor="start" x="42" y="-103.5" font-family="Helvetica,sans-Serif" font-size="10.00"># t_probCrossover</text>
<text text-anchor="start" x="42" y="-92.5" font-family="Helvetica,sans-Serif" font-size="10.00"># t_probMutation</text>
<polyline fill="none" stroke="black" points="34,-85.5 148,-85.5 "/>
<text text-anchor="start" x="42" y="-73.5" font-family="Helvetica,sans-Serif" font-size="10.00">+ InParamPcPm()</text>
<text text-anchor="start" x="42" y="-62.5" font-family="Helvetica,sans-Serif" font-size="10.00">+ ~InParamPcPm()</text>
<text text-anchor="start" x="42" y="-51.5" font-family="Helvetica,sans-Serif" font-size="10.00">+ setProbCrossover()</text>
<text text-anchor="start" x="42" y="-40.5" font-family="Helvetica,sans-Serif" font-size="10.00">+ getProbCrossover()</text>
<text text-anchor="start" x="42" y="-29.5" font-family="Helvetica,sans-Serif" font-size="10.00">+ setProbMutation()</text>
<text text-anchor="start" x="42" y="-18.5" font-family="Helvetica,sans-Serif" font-size="10.00">+ getProbMutation()</text>
<text text-anchor="start" x="42" y="-7.5" font-family="Helvetica,sans-Serif" font-size="10.00">+ print()</text>
</g>
<!-- Node13 -->
<g id="node2" class="node"><title>Node13</title>
<g id="a_node2"><a xlink:href="classinout_1_1_in_param_g_a_clustering.html" target="_top" xlink:title="Input parameter for genetic algorithm. ">
<polygon fill="white" stroke="black" points="20.5,-183.5 20.5,-317.5 161.5,-317.5 161.5,-183.5 20.5,-183.5"/>
<text text-anchor="middle" x="91" y="-305.5" font-family="Helvetica,sans-Serif" font-size="10.00">inout::InParamGAClustering</text>
<polyline fill="none" stroke="black" points="20.5,-298.5 161.5,-298.5 "/>
<text text-anchor="start" x="28.5" y="-286.5" font-family="Helvetica,sans-Serif" font-size="10.00"># st_sizePopulation</text>
<text text-anchor="start" x="28.5" y="-275.5" font-family="Helvetica,sans-Serif" font-size="10.00"># t_numMaxGenerations</text>
<polyline fill="none" stroke="black" points="20.5,-268.5 161.5,-268.5 "/>
<text text-anchor="start" x="28.5" y="-256.5" font-family="Helvetica,sans-Serif" font-size="10.00">+ InParamGAClustering()</text>
<text text-anchor="start" x="28.5" y="-245.5" font-family="Helvetica,sans-Serif" font-size="10.00">+ ~InParamGAClustering()</text>
<text text-anchor="start" x="28.5" y="-234.5" font-family="Helvetica,sans-Serif" font-size="10.00">+ setNumMaxGenerations()</text>
<text text-anchor="start" x="28.5" y="-223.5" font-family="Helvetica,sans-Serif" font-size="10.00">+ getNumMaxGenerations()</text>
<text text-anchor="start" x="28.5" y="-212.5" font-family="Helvetica,sans-Serif" font-size="10.00">+ setSizePopulation()</text>
<text text-anchor="start" x="28.5" y="-201.5" font-family="Helvetica,sans-Serif" font-size="10.00">+ getSizePopulation()</text>
<text text-anchor="start" x="28.5" y="-190.5" font-family="Helvetica,sans-Serif" font-size="10.00">+ print()</text>
</a>
</g>
</g>
<!-- Node13&#45;&gt;Node12 -->
<g id="edge1" class="edge"><title>Node13&#45;&gt;Node12</title>
<path fill="none" stroke="midnightblue" d="M91,-173.007C91,-163.942 91,-154.714 91,-145.719"/>
<polygon fill="none" stroke="midnightblue" points="87.5001,-173.151 91,-183.151 94.5001,-173.151 87.5001,-173.151"/>
</g>
<!-- Node14 -->
<g id="node3" class="node"><title>Node14</title>
<g id="a_node3"><a xlink:href="classinout_1_1_in_param_clustering.html" target="_top" xlink:title="Input parameter for clustering algorithm. ">
<polygon fill="white" stroke="black" points="0,-355.5 0,-610.5 182,-610.5 182,-355.5 0,-355.5"/>
<text text-anchor="middle" x="91" y="-598.5" font-family="Helvetica,sans-Serif" font-size="10.00">inout::InParamClustering</text>
<polyline fill="none" stroke="black" points="0,-591.5 182,-591.5 "/>
<text text-anchor="start" x="8" y="-579.5" font-family="Helvetica,sans-Serif" font-size="10.00"># i_opDistance</text>
<text text-anchor="start" x="8" y="-568.5" font-family="Helvetica,sans-Serif" font-size="10.00"># ps_outFileCentroids</text>
<text text-anchor="start" x="8" y="-557.5" font-family="Helvetica,sans-Serif" font-size="10.00"># ps_outFileMemberShip</text>
<text text-anchor="start" x="8" y="-546.5" font-family="Helvetica,sans-Serif" font-size="10.00"># ps_outFilePartitionsTable</text>
<text text-anchor="start" x="8" y="-535.5" font-family="Helvetica,sans-Serif" font-size="10.00"># ps_outFileGraph</text>
<text text-anchor="start" x="8" y="-524.5" font-family="Helvetica,sans-Serif" font-size="10.00"># ps_fileNamePlotStatObjetiveFunc</text>
<text text-anchor="start" x="8" y="-513.5" font-family="Helvetica,sans-Serif" font-size="10.00"># _rd_maxExecutiontime</text>
<text text-anchor="start" x="8" y="-502.5" font-family="Helvetica,sans-Serif" font-size="10.00"># _b_printCentroidsFormat</text>
<text text-anchor="start" x="8" y="-491.5" font-family="Helvetica,sans-Serif" font-size="10.00"># _b_printTableFormat</text>
<polyline fill="none" stroke="black" points="0,-484.5 182,-484.5 "/>
<text text-anchor="start" x="8" y="-472.5" font-family="Helvetica,sans-Serif" font-size="10.00">+ InParamClustering()</text>
<text text-anchor="start" x="8" y="-461.5" font-family="Helvetica,sans-Serif" font-size="10.00">+ ~InParamClustering()</text>
<text text-anchor="start" x="8" y="-450.5" font-family="Helvetica,sans-Serif" font-size="10.00">+ getFileNamePlotStatObjetiveFunc()</text>
<text text-anchor="start" x="8" y="-439.5" font-family="Helvetica,sans-Serif" font-size="10.00">+ getWithPlotStatObjetiveFunc()</text>
<text text-anchor="start" x="8" y="-428.5" font-family="Helvetica,sans-Serif" font-size="10.00">+ setFileNamePlotStatObjetiveFunc()</text>
<text text-anchor="start" x="8" y="-417.5" font-family="Helvetica,sans-Serif" font-size="10.00">+ setOutFileMemberShip()</text>
<text text-anchor="start" x="8" y="-406.5" font-family="Helvetica,sans-Serif" font-size="10.00">+ getOutFileMemberShip()</text>
<text text-anchor="start" x="8" y="-395.5" font-family="Helvetica,sans-Serif" font-size="10.00">+ setRandomSeed()</text>
<text text-anchor="start" x="8" y="-384.5" font-family="Helvetica,sans-Serif" font-size="10.00">+ setRandomSeed()</text>
<text text-anchor="start" x="8" y="-373.5" font-family="Helvetica,sans-Serif" font-size="10.00">+ getRandomSeed()</text>
<text text-anchor="start" x="8" y="-362.5" font-family="Helvetica,sans-Serif" font-size="10.00">and 15 more...</text>
</a>
</g>
</g>
<!-- Node14&#45;&gt;Node13 -->
<g id="edge2" class="edge"><title>Node14&#45;&gt;Node13</title>
<path fill="none" stroke="midnightblue" d="M91,-345.004C91,-335.589 91,-326.374 91,-317.624"/>
<polygon fill="none" stroke="midnightblue" points="87.5001,-345.287 91,-355.287 94.5001,-345.287 87.5001,-345.287"/>
</g>
<!-- Node15 -->
<g id="node4" class="node"><title>Node15</title>
<g id="a_node4"><a xlink:href="classinout_1_1_in_param_algorithmo.html" target="_top" xlink:title="Input parameter for define propertys of the algorithmos. ">
<polygon fill="white" stroke="black" points="148.5,-648.5 148.5,-848.5 283.5,-848.5 283.5,-648.5 148.5,-648.5"/>
<text text-anchor="middle" x="216" y="-836.5" font-family="Helvetica,sans-Serif" font-size="10.00">inout::InParamAlgorithmo</text>
<polyline fill="none" stroke="black" points="148.5,-829.5 283.5,-829.5 "/>
<text text-anchor="start" x="156.5" y="-817.5" font-family="Helvetica,sans-Serif" font-size="10.00"># ato_algTypeOut</text>
<text text-anchor="start" x="156.5" y="-806.5" font-family="Helvetica,sans-Serif" font-size="10.00"># ps_fileNameTimesRun</text>
<text text-anchor="start" x="156.5" y="-795.5" font-family="Helvetica,sans-Serif" font-size="10.00"># b_progressBarPrinting</text>
<text text-anchor="start" x="156.5" y="-784.5" font-family="Helvetica,sans-Serif" font-size="10.00"># i_timesRunAlgorithm</text>
<polyline fill="none" stroke="black" points="148.5,-777.5 283.5,-777.5 "/>
<text text-anchor="start" x="156.5" y="-765.5" font-family="Helvetica,sans-Serif" font-size="10.00">+ InParamAlgorithmo()</text>
<text text-anchor="start" x="156.5" y="-754.5" font-family="Helvetica,sans-Serif" font-size="10.00">+ ~InParamAlgorithmo()</text>
<text text-anchor="start" x="156.5" y="-743.5" font-family="Helvetica,sans-Serif" font-size="10.00">+ errorArgument()</text>
<text text-anchor="start" x="156.5" y="-732.5" font-family="Helvetica,sans-Serif" font-size="10.00">+ isYesNo()</text>
<text text-anchor="start" x="156.5" y="-721.5" font-family="Helvetica,sans-Serif" font-size="10.00">+ setFileNameTimesRun()</text>
<text text-anchor="start" x="156.5" y="-710.5" font-family="Helvetica,sans-Serif" font-size="10.00">+ setProgressBarPrinting()</text>
<text text-anchor="start" x="156.5" y="-699.5" font-family="Helvetica,sans-Serif" font-size="10.00">+ setTimesRunAlgorithm()</text>
<text text-anchor="start" x="156.5" y="-688.5" font-family="Helvetica,sans-Serif" font-size="10.00">+ setGnuPlotCoreStyles()</text>
<text text-anchor="start" x="156.5" y="-677.5" font-family="Helvetica,sans-Serif" font-size="10.00">+ getAlgorithmoAuthor()</text>
<text text-anchor="start" x="156.5" y="-666.5" font-family="Helvetica,sans-Serif" font-size="10.00">+ getAlgorithmoName()</text>
<text text-anchor="start" x="156.5" y="-655.5" font-family="Helvetica,sans-Serif" font-size="10.00">and 8 more...</text>
</a>
</g>
</g>
<!-- Node15&#45;&gt;Node14 -->
<g id="edge3" class="edge"><title>Node15&#45;&gt;Node14</title>
<path fill="none" stroke="midnightblue" d="M164.529,-638.999C160.108,-629.679 155.611,-620.2 151.13,-610.754"/>
<polygon fill="none" stroke="midnightblue" points="161.473,-640.723 168.921,-648.257 167.797,-637.722 161.473,-640.723"/>
</g>
<!-- Node16 -->
<g id="node5" class="node"><title>Node16</title>
<g id="a_node5"><a xlink:title="STL class. ">
<polygon fill="white" stroke="#bfbfbf" points="27,-929.5 27,-986.5 87,-986.5 87,-929.5 27,-929.5"/>
<text text-anchor="middle" x="57" y="-974.5" font-family="Helvetica,sans-Serif" font-size="10.00">std::string</text>
<polyline fill="none" stroke="#bfbfbf" points="27,-967.5 87,-967.5 "/>
<text text-anchor="middle" x="57" y="-955.5" font-family="Helvetica,sans-Serif" font-size="10.00"> </text>
<polyline fill="none" stroke="#bfbfbf" points="27,-948.5 87,-948.5 "/>
<text text-anchor="middle" x="57" y="-936.5" font-family="Helvetica,sans-Serif" font-size="10.00"> </text>
</a>
</g>
</g>
<!-- Node16&#45;&gt;Node14 -->
<g id="edge6" class="edge"><title>Node16&#45;&gt;Node14</title>
<path fill="none" stroke="#404040" d="M55.05,-929.496C53.6053,-907.68 51.7607,-876.407 51,-849 48.5214,-759.701 40.3398,-736.695 51,-648 51.9983,-639.694 53.2714,-631.2 54.7456,-622.665"/>
<polygon fill="none" stroke="#404040" points="54.7959,-622.39 51.9412,-615.768 56.9559,-610.586 59.8106,-617.208 54.7959,-622.39"/>
<text text-anchor="middle" x="95.5" y="-746" font-family="Helvetica,sans-Serif" font-size="10.00"> #_str_randomSeed</text>
</g>
<!-- Node16&#45;&gt;Node15 -->
<g id="edge4" class="edge"><title>Node16&#45;&gt;Node15</title>
<path fill="none" stroke="#404040" d="M78.114,-929.446C94.35,-908.257 117.827,-877.619 140.82,-847.612"/>
<polygon fill="none" stroke="#404040" points="140.96,-847.429 141.435,-840.234 148.259,-837.904 147.785,-845.1 140.96,-847.429"/>
<text text-anchor="middle" x="171.5" y="-903" font-family="Helvetica,sans-Serif" font-size="10.00"> #s_algorithmoAuthor</text>
<text text-anchor="middle" x="171.5" y="-892" font-family="Helvetica,sans-Serif" font-size="10.00">#s_algorithmoName</text>
<text text-anchor="middle" x="171.5" y="-881" font-family="Helvetica,sans-Serif" font-size="10.00">#s_gnuplotCoreStyles</text>
<text text-anchor="middle" x="171.5" y="-870" font-family="Helvetica,sans-Serif" font-size="10.00">#_s_runTimeId</text>
</g>
<!-- Node17 -->
<g id="node6" class="node"><title>Node17</title>
<g id="a_node6"><a xlink:title="STL class. ">
<polygon fill="white" stroke="#bfbfbf" points="9.5,-1024.5 9.5,-1092.5 104.5,-1092.5 104.5,-1024.5 9.5,-1024.5"/>
<text text-anchor="start" x="17.5" y="-1080.5" font-family="Helvetica,sans-Serif" font-size="10.00">std::basic_string&lt;</text>
<text text-anchor="middle" x="57" y="-1069.5" font-family="Helvetica,sans-Serif" font-size="10.00"> char &gt;</text>
<polyline fill="none" stroke="#bfbfbf" points="9.5,-1062.5 104.5,-1062.5 "/>
<text text-anchor="middle" x="57" y="-1050.5" font-family="Helvetica,sans-Serif" font-size="10.00"> </text>
<polyline fill="none" stroke="#bfbfbf" points="9.5,-1043.5 104.5,-1043.5 "/>
<text text-anchor="middle" x="57" y="-1031.5" font-family="Helvetica,sans-Serif" font-size="10.00"> </text>
</a>
</g>
</g>
<!-- Node17&#45;&gt;Node16 -->
<g id="edge5" class="edge"><title>Node17&#45;&gt;Node16</title>
<path fill="none" stroke="midnightblue" d="M57,-1014.38C57,-1004.94 57,-995.201 57,-986.571"/>
<polygon fill="none" stroke="midnightblue" points="53.5001,-1014.43 57,-1024.43 60.5001,-1014.43 53.5001,-1014.43"/>
</g>
</g>
</svg>
