<?xml version="1.0" encoding="UTF-8" standalone="no"?>
<!DOCTYPE svg PUBLIC "-//W3C//DTD SVG 1.1//EN"
 "http://www.w3.org/Graphics/SVG/1.1/DTD/svg11.dtd">
<!-- Generated by graphviz version 2.38.0 (20140413.2041)
 -->
<!-- Title: sm::ConfusionMatchingMatrix::getDiffClassUSomeClusterV Pages: 1 -->
<svg width="521pt" height="110pt"
 viewBox="0.00 0.00 521.00 110.00" xmlns="http://www.w3.org/2000/svg" xmlns:xlink="http://www.w3.org/1999/xlink">
<g id="graph0" class="graph" transform="scale(1 1) rotate(0) translate(4 106)">
<title>sm::ConfusionMatchingMatrix::getDiffClassUSomeClusterV</title>
<polygon fill="white" stroke="none" points="-4,4 -4,-106 517,-106 517,4 -4,4"/>
<!-- Node26 -->
<g id="node1" class="node"><title>Node26</title>
<g id="a_node1"><a xlink:title=" ">
<polygon fill="#bfbfbf" stroke="black" points="0,-35 0,-65 149,-65 149,-35 0,-35"/>
<text text-anchor="start" x="8" y="-53" font-family="Helvetica,sans-Serif" font-size="10.00">sm::ConfusionMatchingMatrix</text>
<text text-anchor="middle" x="74.5" y="-42" font-family="Helvetica,sans-Serif" font-size="10.00">::getDiffClassUSomeClusterV</text>
</a>
</g>
</g>
<!-- Node27 -->
<g id="node2" class="node"><title>Node27</title>
<g id="a_node2"><a xlink:href="classsm_1_1_confusion_matching_matrix.html#a9ae8e893dfd65ccffaeea1848b7fee66" target="_top" xlink:title=" ">
<polygon fill="white" stroke="black" points="185,-60 185,-90 334,-90 334,-60 185,-60"/>
<text text-anchor="start" x="193" y="-78" font-family="Helvetica,sans-Serif" font-size="10.00">sm::ConfusionMatchingMatrix</text>
<text text-anchor="middle" x="259.5" y="-67" font-family="Helvetica,sans-Serif" font-size="10.00">::_getSumClusternDotj2</text>
</a>
</g>
</g>
<!-- Node26&#45;&gt;Node27 -->
<g id="edge1" class="edge"><title>Node26&#45;&gt;Node27</title>
<path fill="none" stroke="midnightblue" d="M149.142,-60.0604C157.565,-61.2111 166.199,-62.3906 174.742,-63.5576"/>
<polygon fill="midnightblue" stroke="midnightblue" points="174.329,-67.0337 184.711,-64.9195 175.277,-60.0981 174.329,-67.0337"/>
</g>
<!-- Node30 -->
<g id="node5" class="node"><title>Node30</title>
<g id="a_node5"><a xlink:href="classsm_1_1_confusion_matching_matrix.html#ab5632e4940a7c232eba150bfb9bcd4eb" target="_top" xlink:title=" ">
<polygon fill="white" stroke="black" points="185,-11 185,-41 334,-41 334,-11 185,-11"/>
<text text-anchor="start" x="193" y="-29" font-family="Helvetica,sans-Serif" font-size="10.00">sm::ConfusionMatchingMatrix</text>
<text text-anchor="middle" x="259.5" y="-18" font-family="Helvetica,sans-Serif" font-size="10.00">::_getSumnij2</text>
</a>
</g>
</g>
<!-- Node26&#45;&gt;Node30 -->
<g id="edge4" class="edge"><title>Node26&#45;&gt;Node30</title>
<path fill="none" stroke="midnightblue" d="M149.142,-40.342C157.565,-39.2373 166.199,-38.1051 174.742,-36.9847"/>
<polygon fill="midnightblue" stroke="midnightblue" points="175.251,-40.448 184.711,-35.6773 174.34,-33.5074 175.251,-40.448"/>
</g>
<!-- Node28 -->
<g id="node3" class="node"><title>Node28</title>
<g id="a_node3"><a xlink:href="classmat_1_1_matrix_base.html#a70200414022ce1479b9ddc16102b12ae" target="_top" xlink:title=" ">
<polygon fill="white" stroke="black" points="370,-60.5 370,-101.5 513,-101.5 513,-60.5 370,-60.5"/>
<text text-anchor="start" x="378" y="-89.5" font-family="Helvetica,sans-Serif" font-size="10.00">mat::MatrixBase&lt; T</text>
<text text-anchor="start" x="378" y="-78.5" font-family="Helvetica,sans-Serif" font-size="10.00">_INSTANCES_CLUSTER_K</text>
<text text-anchor="middle" x="441.5" y="-67.5" font-family="Helvetica,sans-Serif" font-size="10.00"> &gt;::getNumColumns</text>
</a>
</g>
</g>
<!-- Node27&#45;&gt;Node28 -->
<g id="edge2" class="edge"><title>Node27&#45;&gt;Node28</title>
<path fill="none" stroke="midnightblue" d="M334.232,-77.4577C342.584,-77.7361 351.129,-78.021 359.567,-78.3022"/>
<polygon fill="midnightblue" stroke="midnightblue" points="359.675,-81.8077 369.786,-78.6429 359.908,-74.8116 359.675,-81.8077"/>
</g>
<!-- Node29 -->
<g id="node4" class="node"><title>Node29</title>
<g id="a_node4"><a xlink:href="classmat_1_1_matrix_base.html#ac500eedd5e203327d3292f8ab22d8f3e" target="_top" xlink:title=" ">
<polygon fill="white" stroke="black" points="370,-0.5 370,-41.5 513,-41.5 513,-0.5 370,-0.5"/>
<text text-anchor="start" x="378" y="-29.5" font-family="Helvetica,sans-Serif" font-size="10.00">mat::MatrixBase&lt; T</text>
<text text-anchor="start" x="378" y="-18.5" font-family="Helvetica,sans-Serif" font-size="10.00">_INSTANCES_CLUSTER_K</text>
<text text-anchor="middle" x="441.5" y="-7.5" font-family="Helvetica,sans-Serif" font-size="10.00"> &gt;::getNumRows</text>
</a>
</g>
</g>
<!-- Node27&#45;&gt;Node29 -->
<g id="edge3" class="edge"><title>Node27&#45;&gt;Node29</title>
<path fill="none" stroke="midnightblue" d="M310.64,-59.958C326.702,-55.1394 344.887,-49.684 362.453,-44.4141"/>
<polygon fill="midnightblue" stroke="midnightblue" points="363.558,-47.7367 372.131,-41.5107 361.547,-41.0319 363.558,-47.7367"/>
</g>
<!-- Node30&#45;&gt;Node28 -->
<g id="edge5" class="edge"><title>Node30&#45;&gt;Node28</title>
<path fill="none" stroke="midnightblue" d="M309.686,-41.029C326.274,-46.0975 345.208,-51.8831 363.422,-57.4484"/>
<polygon fill="midnightblue" stroke="midnightblue" points="362.568,-60.8472 373.155,-60.4223 364.614,-54.1528 362.568,-60.8472"/>
</g>
<!-- Node30&#45;&gt;Node29 -->
<g id="edge6" class="edge"><title>Node30&#45;&gt;Node29</title>
<path fill="none" stroke="midnightblue" d="M334.232,-23.9519C342.584,-23.7199 351.129,-23.4825 359.567,-23.2481"/>
<polygon fill="midnightblue" stroke="midnightblue" points="359.887,-26.7407 369.786,-22.9643 359.693,-19.7434 359.887,-26.7407"/>
</g>
</g>
</svg>
