<?xml version="1.0" encoding="UTF-8" standalone="no"?>
<!DOCTYPE svg PUBLIC "-//W3C//DTD SVG 1.1//EN"
 "http://www.w3.org/Graphics/SVG/1.1/DTD/svg11.dtd">
<!-- Generated by graphviz version 2.38.0 (20140413.2041)
 -->
<!-- Title: data::InstanceClass&lt; T_FEATURE, T_INSTANCES_CLUSTER_K, T_CLUSTERIDX &gt; Pages: 1 -->
<svg width="719pt" height="1435pt"
 viewBox="0.00 0.00 718.50 1435.00" xmlns="http://www.w3.org/2000/svg" xmlns:xlink="http://www.w3.org/1999/xlink">
<g id="graph0" class="graph" transform="scale(1 1) rotate(0) translate(4 1431)">
<title>data::InstanceClass&lt; T_FEATURE, T_INSTANCES_CLUSTER_K, T_CLUSTERIDX &gt;</title>
<polygon fill="white" stroke="none" points="-4,4 -4,-1431 714.5,-1431 714.5,4 -4,4"/>
<!-- Node3 -->
<g id="node1" class="node"><title>Node3</title>
<g id="a_node1"><a xlink:title="Patterns, usually vectors in a multidimensional space, previamente clasificado.">
<polygon fill="#bfbfbf" stroke="black" points="43,-0.5 43,-156.5 214,-156.5 214,-0.5 43,-0.5"/>
<text text-anchor="start" x="51" y="-144.5" font-family="Helvetica,sans-Serif" font-size="10.00">data::InstanceClass</text>
<text text-anchor="start" x="51" y="-133.5" font-family="Helvetica,sans-Serif" font-size="10.00">&lt; T_FEATURE, T_INSTANCES</text>
<text text-anchor="middle" x="128.5" y="-122.5" font-family="Helvetica,sans-Serif" font-size="10.00">_CLUSTER_K, T_CLUSTERIDX &gt;</text>
<polyline fill="none" stroke="black" points="43,-115.5 214,-115.5 "/>
<text text-anchor="middle" x="128.5" y="-103.5" font-family="Helvetica,sans-Serif" font-size="10.00"> </text>
<polyline fill="none" stroke="black" points="43,-96.5 214,-96.5 "/>
<text text-anchor="start" x="51" y="-84.5" font-family="Helvetica,sans-Serif" font-size="10.00">+ InstanceClass()</text>
<text text-anchor="start" x="51" y="-73.5" font-family="Helvetica,sans-Serif" font-size="10.00">+ InstanceClass()</text>
<text text-anchor="start" x="51" y="-62.5" font-family="Helvetica,sans-Serif" font-size="10.00">+ InstanceClass()</text>
<text text-anchor="start" x="51" y="-51.5" font-family="Helvetica,sans-Serif" font-size="10.00">+ ~InstanceClass()</text>
<text text-anchor="start" x="51" y="-40.5" font-family="Helvetica,sans-Serif" font-size="10.00">+ operator=()</text>
<text text-anchor="start" x="51" y="-29.5" font-family="Helvetica,sans-Serif" font-size="10.00">+ operator=()</text>
<text text-anchor="start" x="51" y="-18.5" font-family="Helvetica,sans-Serif" font-size="10.00">+ print()</text>
<text text-anchor="start" x="51" y="-7.5" font-family="Helvetica,sans-Serif" font-size="10.00">+ getToString()</text>
</a>
</g>
</g>
<!-- Node4 -->
<g id="node2" class="node"><title>Node4</title>
<g id="a_node2"><a xlink:href="classdata_1_1_instance.html" target="_top" xlink:title="Patterns, usually vectors in a multidimensional space.">
<polygon fill="white" stroke="black" points="0,-194.5 0,-515.5 157,-515.5 157,-194.5 0,-194.5"/>
<text text-anchor="middle" x="78.5" y="-503.5" font-family="Helvetica,sans-Serif" font-size="10.00">data::Instance&lt; T_FEATURE &gt;</text>
<polyline fill="none" stroke="black" points="0,-496.5 157,-496.5 "/>
<text text-anchor="start" x="8" y="-484.5" font-family="Helvetica,sans-Serif" font-size="10.00"># _ptc_id</text>
<text text-anchor="start" x="8" y="-473.5" font-family="Helvetica,sans-Serif" font-size="10.00"># _arrayt_feature</text>
<text text-anchor="start" x="8" y="-462.5" font-family="Helvetica,sans-Serif" font-size="10.00"># _stcuintidx_numDimensions</text>
<text text-anchor="start" x="8" y="-451.5" font-family="Helvetica,sans-Serif" font-size="10.00"># _stcb_homogeneousCoord</text>
<polyline fill="none" stroke="black" points="0,-444.5 157,-444.5 "/>
<text text-anchor="start" x="8" y="-432.5" font-family="Helvetica,sans-Serif" font-size="10.00">+ Instance()</text>
<text text-anchor="start" x="8" y="-421.5" font-family="Helvetica,sans-Serif" font-size="10.00">+ Instance()</text>
<text text-anchor="start" x="8" y="-410.5" font-family="Helvetica,sans-Serif" font-size="10.00">+ Instance()</text>
<text text-anchor="start" x="8" y="-399.5" font-family="Helvetica,sans-Serif" font-size="10.00">+ Instance()</text>
<text text-anchor="start" x="8" y="-388.5" font-family="Helvetica,sans-Serif" font-size="10.00">+ ~Instance()</text>
<text text-anchor="start" x="8" y="-377.5" font-family="Helvetica,sans-Serif" font-size="10.00">+ operator=()</text>
<text text-anchor="start" x="8" y="-366.5" font-family="Helvetica,sans-Serif" font-size="10.00">+ operator=()</text>
<text text-anchor="start" x="8" y="-355.5" font-family="Helvetica,sans-Serif" font-size="10.00">+ getFeatures()</text>
<text text-anchor="start" x="8" y="-344.5" font-family="Helvetica,sans-Serif" font-size="10.00">+ getFeatures()</text>
<text text-anchor="start" x="8" y="-333.5" font-family="Helvetica,sans-Serif" font-size="10.00">+ getAttribute()</text>
<text text-anchor="start" x="8" y="-322.5" font-family="Helvetica,sans-Serif" font-size="10.00">+ readFeature()</text>
<text text-anchor="start" x="8" y="-311.5" font-family="Helvetica,sans-Serif" font-size="10.00">+ setId()</text>
<text text-anchor="start" x="8" y="-300.5" font-family="Helvetica,sans-Serif" font-size="10.00">+ getId()</text>
<text text-anchor="start" x="8" y="-289.5" font-family="Helvetica,sans-Serif" font-size="10.00">+ getToString()</text>
<text text-anchor="start" x="8" y="-278.5" font-family="Helvetica,sans-Serif" font-size="10.00">+ print()</text>
<text text-anchor="start" x="8" y="-267.5" font-family="Helvetica,sans-Serif" font-size="10.00">+ setNumDimensions()</text>
<text text-anchor="start" x="8" y="-256.5" font-family="Helvetica,sans-Serif" font-size="10.00">+ getNumDimensions()</text>
<text text-anchor="start" x="8" y="-245.5" font-family="Helvetica,sans-Serif" font-size="10.00">+ setHomogeneousCoord()</text>
<text text-anchor="start" x="8" y="-234.5" font-family="Helvetica,sans-Serif" font-size="10.00">+ getHomogeneousCoord()</text>
<text text-anchor="start" x="8" y="-223.5" font-family="Helvetica,sans-Serif" font-size="10.00">+ type()</text>
<text text-anchor="start" x="8" y="-212.5" font-family="Helvetica,sans-Serif" font-size="10.00">+ getInfiniteFeature()</text>
<text text-anchor="start" x="8" y="-201.5" font-family="Helvetica,sans-Serif" font-size="10.00">+ isInfiniteFeature()</text>
</a>
</g>
</g>
<!-- Node4&#45;&gt;Node3 -->
<g id="edge1" class="edge"><title>Node4&#45;&gt;Node3</title>
<path fill="none" stroke="midnightblue" d="M109.402,-184.351C111.132,-174.85 112.822,-165.57 114.437,-156.705"/>
<polygon fill="none" stroke="midnightblue" points="105.934,-183.857 107.585,-194.322 112.821,-185.111 105.934,-183.857"/>
</g>
<!-- Node5 -->
<g id="node3" class="node"><title>Node5</title>
<g id="a_node3"><a xlink:href="classdata_1_1_instance_iterfaz_class.html" target="_top" xlink:title="Instance with class.">
<polygon fill="white" stroke="black" points="175.5,-244 175.5,-466 337.5,-466 337.5,-244 175.5,-244"/>
<text text-anchor="start" x="183.5" y="-454" font-family="Helvetica,sans-Serif" font-size="10.00">data::InstanceIterfazClass</text>
<text text-anchor="start" x="183.5" y="-443" font-family="Helvetica,sans-Serif" font-size="10.00">&lt; T_INSTANCES_CLUSTER_K,</text>
<text text-anchor="middle" x="256.5" y="-432" font-family="Helvetica,sans-Serif" font-size="10.00"> T_CLUSTERIDX &gt;</text>
<polyline fill="none" stroke="black" points="175.5,-425 337.5,-425 "/>
<text text-anchor="start" x="183.5" y="-413" font-family="Helvetica,sans-Serif" font-size="10.00"># _cidx_classIdx</text>
<text text-anchor="start" x="183.5" y="-402" font-family="Helvetica,sans-Serif" font-size="10.00"># _idxmcT_consecutiveClass</text>
<polyline fill="none" stroke="black" points="175.5,-395 337.5,-395 "/>
<text text-anchor="start" x="183.5" y="-383" font-family="Helvetica,sans-Serif" font-size="10.00">+ InstanceIterfazClass()</text>
<text text-anchor="start" x="183.5" y="-372" font-family="Helvetica,sans-Serif" font-size="10.00">+ InstanceIterfazClass()</text>
<text text-anchor="start" x="183.5" y="-361" font-family="Helvetica,sans-Serif" font-size="10.00">+ InstanceIterfazClass()</text>
<text text-anchor="start" x="183.5" y="-350" font-family="Helvetica,sans-Serif" font-size="10.00">+ ~InstanceIterfazClass()</text>
<text text-anchor="start" x="183.5" y="-339" font-family="Helvetica,sans-Serif" font-size="10.00">+ operator=()</text>
<text text-anchor="start" x="183.5" y="-328" font-family="Helvetica,sans-Serif" font-size="10.00">+ operator=()</text>
<text text-anchor="start" x="183.5" y="-317" font-family="Helvetica,sans-Serif" font-size="10.00">+ setClassIdx()</text>
<text text-anchor="start" x="183.5" y="-306" font-family="Helvetica,sans-Serif" font-size="10.00">+ getClassIdx()</text>
<text text-anchor="start" x="183.5" y="-295" font-family="Helvetica,sans-Serif" font-size="10.00">+ print()</text>
<text text-anchor="start" x="183.5" y="-284" font-family="Helvetica,sans-Serif" font-size="10.00">+ initialize()</text>
<text text-anchor="start" x="183.5" y="-273" font-family="Helvetica,sans-Serif" font-size="10.00">+ setVectorClassLabel()</text>
<text text-anchor="start" x="183.5" y="-262" font-family="Helvetica,sans-Serif" font-size="10.00">+ getVectorClassLabel()</text>
<text text-anchor="start" x="183.5" y="-251" font-family="Helvetica,sans-Serif" font-size="10.00">+ getLabelClass()</text>
</a>
</g>
</g>
<!-- Node5&#45;&gt;Node3 -->
<g id="edge2" class="edge"><title>Node5&#45;&gt;Node3</title>
<path fill="none" stroke="midnightblue" d="M200.838,-234.631C188.519,-208.212 175.78,-180.894 164.49,-156.683"/>
<polygon fill="none" stroke="midnightblue" points="197.777,-236.348 205.175,-243.932 204.121,-233.39 197.777,-236.348"/>
</g>
<!-- Node6 -->
<g id="node4" class="node"><title>Node6</title>
<g id="a_node4"><a xlink:title="STL class.">
<polygon fill="white" stroke="#bfbfbf" points="146.5,-795 146.5,-852 240.5,-852 240.5,-795 146.5,-795"/>
<text text-anchor="middle" x="193.5" y="-840" font-family="Helvetica,sans-Serif" font-size="10.00">std::map&lt; K, T &gt;</text>
<polyline fill="none" stroke="#bfbfbf" points="146.5,-833 240.5,-833 "/>
<text text-anchor="middle" x="193.5" y="-821" font-family="Helvetica,sans-Serif" font-size="10.00"> </text>
<polyline fill="none" stroke="#bfbfbf" points="146.5,-814 240.5,-814 "/>
<text text-anchor="middle" x="193.5" y="-802" font-family="Helvetica,sans-Serif" font-size="10.00"> </text>
</a>
</g>
</g>
<!-- Node6&#45;&gt;Node5 -->
<g id="edge3" class="edge"><title>Node6&#45;&gt;Node5</title>
<path fill="none" stroke="#404040" d="M192.466,-794.669C191.14,-746.966 190.293,-646.637 202.5,-563 206.56,-535.184 212.939,-505.722 219.912,-478.018"/>
<polygon fill="none" stroke="#404040" points="219.946,-477.886 217.564,-471.079 222.931,-466.263 225.313,-473.069 219.946,-477.886"/>
<text text-anchor="middle" x="257.5" y="-600.5" font-family="Helvetica,sans-Serif" font-size="10.00"> #_stmap_instanceClass</text>
</g>
<!-- Node7 -->
<g id="node5" class="node"><title>Node7</title>
<g id="a_node5"><a xlink:title=" ">
<polygon fill="white" stroke="#bfbfbf" points="170,-1076 170,-1133 199,-1133 199,-1076 170,-1076"/>
<text text-anchor="middle" x="184.5" y="-1121" font-family="Helvetica,sans-Serif" font-size="10.00">K</text>
<polyline fill="none" stroke="#bfbfbf" points="170,-1114 199,-1114 "/>
<text text-anchor="middle" x="184.5" y="-1102" font-family="Helvetica,sans-Serif" font-size="10.00"> </text>
<polyline fill="none" stroke="#bfbfbf" points="170,-1095 199,-1095 "/>
<text text-anchor="middle" x="184.5" y="-1083" font-family="Helvetica,sans-Serif" font-size="10.00"> </text>
</a>
</g>
</g>
<!-- Node7&#45;&gt;Node6 -->
<g id="edge4" class="edge"><title>Node7&#45;&gt;Node6</title>
<path fill="none" stroke="#404040" d="M184.223,-1075.75C184.03,-1045.55 184.026,-995.826 185.5,-953 186.526,-923.188 188.657,-889.537 190.461,-864.152"/>
<polygon fill="none" stroke="#404040" points="190.47,-864.02 186.916,-857.746 191.341,-852.052 194.895,-858.326 190.47,-864.02"/>
<text text-anchor="middle" x="201" y="-961.5" font-family="Helvetica,sans-Serif" font-size="10.00"> +keys</text>
</g>
<!-- Node8 -->
<g id="node6" class="node"><title>Node8</title>
<g id="a_node6"><a xlink:title=" ">
<polygon fill="white" stroke="#bfbfbf" points="261,-1076 261,-1133 290,-1133 290,-1076 261,-1076"/>
<text text-anchor="middle" x="275.5" y="-1121" font-family="Helvetica,sans-Serif" font-size="10.00">T</text>
<polyline fill="none" stroke="#bfbfbf" points="261,-1114 290,-1114 "/>
<text text-anchor="middle" x="275.5" y="-1102" font-family="Helvetica,sans-Serif" font-size="10.00"> </text>
<polyline fill="none" stroke="#bfbfbf" points="261,-1095 290,-1095 "/>
<text text-anchor="middle" x="275.5" y="-1083" font-family="Helvetica,sans-Serif" font-size="10.00"> </text>
</a>
</g>
</g>
<!-- Node8&#45;&gt;Node6 -->
<g id="edge5" class="edge"><title>Node8&#45;&gt;Node6</title>
<path fill="none" stroke="#404040" d="M267.321,-1075.93C259.609,-1049.92 247.738,-1009.82 237.5,-975 226.431,-937.355 213.878,-894.39 205.021,-864.03"/>
<polygon fill="none" stroke="#404040" points="204.944,-863.766 199.424,-859.126 201.584,-852.246 207.104,-856.886 204.944,-863.766"/>
<text text-anchor="middle" x="263" y="-961.5" font-family="Helvetica,sans-Serif" font-size="10.00"> +elements</text>
</g>
<!-- Node14 -->
<g id="node12" class="node"><title>Node14</title>
<g id="a_node12"><a xlink:title="STL class.">
<polygon fill="white" stroke="#bfbfbf" points="268,-795 268,-852 357,-852 357,-795 268,-795"/>
<text text-anchor="middle" x="312.5" y="-840" font-family="Helvetica,sans-Serif" font-size="10.00">std::vector&lt; T &gt;</text>
<polyline fill="none" stroke="#bfbfbf" points="268,-833 357,-833 "/>
<text text-anchor="middle" x="312.5" y="-821" font-family="Helvetica,sans-Serif" font-size="10.00"> </text>
<polyline fill="none" stroke="#bfbfbf" points="268,-814 357,-814 "/>
<text text-anchor="middle" x="312.5" y="-802" font-family="Helvetica,sans-Serif" font-size="10.00"> </text>
</a>
</g>
</g>
<!-- Node8&#45;&gt;Node14 -->
<g id="edge13" class="edge"><title>Node8&#45;&gt;Node14</title>
<path fill="none" stroke="#404040" d="M279.149,-1075.98C285.725,-1026.39 299.589,-921.853 307.208,-864.404"/>
<polygon fill="none" stroke="#404040" points="307.246,-864.117 304.07,-857.643 308.824,-852.221 312,-858.695 307.246,-864.117"/>
<text text-anchor="middle" x="320" y="-961.5" font-family="Helvetica,sans-Serif" font-size="10.00"> +elements</text>
</g>
<!-- Node9 -->
<g id="node7" class="node"><title>Node9</title>
<g id="a_node7"><a xlink:title=" ">
<polygon fill="white" stroke="#bfbfbf" points="321.5,-563.5 321.5,-642.5 499.5,-642.5 499.5,-563.5 321.5,-563.5"/>
<text text-anchor="start" x="329.5" y="-630.5" font-family="Helvetica,sans-Serif" font-size="10.00">std::vector&lt; data::</text>
<text text-anchor="start" x="329.5" y="-619.5" font-family="Helvetica,sans-Serif" font-size="10.00">CountLabel&lt; T_CLUSTERIDX,</text>
<text text-anchor="middle" x="410.5" y="-608.5" font-family="Helvetica,sans-Serif" font-size="10.00"> T_INSTANCES_CLUSTER_K &gt; * &gt;</text>
<polyline fill="none" stroke="#bfbfbf" points="321.5,-601.5 499.5,-601.5 "/>
<text text-anchor="middle" x="410.5" y="-589.5" font-family="Helvetica,sans-Serif" font-size="10.00"> </text>
<polyline fill="none" stroke="#bfbfbf" points="321.5,-582.5 499.5,-582.5 "/>
<text text-anchor="middle" x="410.5" y="-570.5" font-family="Helvetica,sans-Serif" font-size="10.00"> </text>
</a>
</g>
</g>
<!-- Node9&#45;&gt;Node5 -->
<g id="edge6" class="edge"><title>Node9&#45;&gt;Node5</title>
<path fill="none" stroke="#404040" d="M386.268,-563.292C371.44,-539.606 351.582,-507.884 331.867,-476.391"/>
<polygon fill="none" stroke="#404040" points="331.845,-476.356 325.271,-473.393 325.477,-466.185 332.052,-469.148 331.845,-476.356"/>
<text text-anchor="middle" x="427" y="-537" font-family="Helvetica,sans-Serif" font-size="10.00"> #_stcvector_classLabel</text>
</g>
<!-- Node10 -->
<g id="node8" class="node"><title>Node10</title>
<g id="a_node8"><a xlink:href="classdata_1_1_count_label.html" target="_top" xlink:title=" ">
<polygon fill="white" stroke="black" points="416,-712.5 416,-934.5 577,-934.5 577,-712.5 416,-712.5"/>
<text text-anchor="start" x="424" y="-922.5" font-family="Helvetica,sans-Serif" font-size="10.00">data::CountLabel&lt; T</text>
<text text-anchor="start" x="424" y="-911.5" font-family="Helvetica,sans-Serif" font-size="10.00">_CLUSTERIDX, T_INSTANCES</text>
<text text-anchor="middle" x="496.5" y="-900.5" font-family="Helvetica,sans-Serif" font-size="10.00">_CLUSTER_K &gt;</text>
<polyline fill="none" stroke="black" points="416,-893.5 577,-893.5 "/>
<text text-anchor="start" x="424" y="-881.5" font-family="Helvetica,sans-Serif" font-size="10.00"># _idx_label</text>
<text text-anchor="start" x="424" y="-870.5" font-family="Helvetica,sans-Serif" font-size="10.00"># _t_coutlabel</text>
<polyline fill="none" stroke="black" points="416,-863.5 577,-863.5 "/>
<text text-anchor="start" x="424" y="-851.5" font-family="Helvetica,sans-Serif" font-size="10.00">+ CountLabel()</text>
<text text-anchor="start" x="424" y="-840.5" font-family="Helvetica,sans-Serif" font-size="10.00">+ CountLabel()</text>
<text text-anchor="start" x="424" y="-829.5" font-family="Helvetica,sans-Serif" font-size="10.00">+ CountLabel()</text>
<text text-anchor="start" x="424" y="-818.5" font-family="Helvetica,sans-Serif" font-size="10.00">+ CountLabel()</text>
<text text-anchor="start" x="424" y="-807.5" font-family="Helvetica,sans-Serif" font-size="10.00">+ ~CountLabel()</text>
<text text-anchor="start" x="424" y="-796.5" font-family="Helvetica,sans-Serif" font-size="10.00">+ operator=()</text>
<text text-anchor="start" x="424" y="-785.5" font-family="Helvetica,sans-Serif" font-size="10.00">+ operator=()</text>
<text text-anchor="start" x="424" y="-774.5" font-family="Helvetica,sans-Serif" font-size="10.00">+ getLabel()</text>
<text text-anchor="start" x="424" y="-763.5" font-family="Helvetica,sans-Serif" font-size="10.00">+ getIdxLabel()</text>
<text text-anchor="start" x="424" y="-752.5" font-family="Helvetica,sans-Serif" font-size="10.00">+ getNumLabel()</text>
<text text-anchor="start" x="424" y="-741.5" font-family="Helvetica,sans-Serif" font-size="10.00">+ increasesCountLabel()</text>
<text text-anchor="start" x="424" y="-730.5" font-family="Helvetica,sans-Serif" font-size="10.00">+ operator&lt;()</text>
<text text-anchor="start" x="424" y="-719.5" font-family="Helvetica,sans-Serif" font-size="10.00">+ print()</text>
</a>
</g>
</g>
<!-- Node10&#45;&gt;Node9 -->
<g id="edge7" class="edge"><title>Node10&#45;&gt;Node9</title>
<path fill="none" stroke="#404040" d="M492.128,-712.359C488.466,-694.507 482.879,-676.736 474.5,-661 472.861,-657.922 470.986,-654.93 468.931,-652.033"/>
<polygon fill="none" stroke="#404040" points="468.848,-651.929 461.973,-649.753 461.337,-642.57 468.212,-644.746 468.848,-651.929"/>
<text text-anchor="middle" x="513" y="-675" font-family="Helvetica,sans-Serif" font-size="10.00"> +elements</text>
</g>
<!-- Node11 -->
<g id="node9" class="node"><title>Node11</title>
<g id="a_node9"><a xlink:title="STL class.">
<polygon fill="white" stroke="#bfbfbf" points="444.5,-1263.5 444.5,-1320.5 504.5,-1320.5 504.5,-1263.5 444.5,-1263.5"/>
<text text-anchor="middle" x="474.5" y="-1308.5" font-family="Helvetica,sans-Serif" font-size="10.00">std::string</text>
<polyline fill="none" stroke="#bfbfbf" points="444.5,-1301.5 504.5,-1301.5 "/>
<text text-anchor="middle" x="474.5" y="-1289.5" font-family="Helvetica,sans-Serif" font-size="10.00"> </text>
<polyline fill="none" stroke="#bfbfbf" points="444.5,-1282.5 504.5,-1282.5 "/>
<text text-anchor="middle" x="474.5" y="-1270.5" font-family="Helvetica,sans-Serif" font-size="10.00"> </text>
</a>
</g>
</g>
<!-- Node11&#45;&gt;Node10 -->
<g id="edge8" class="edge"><title>Node11&#45;&gt;Node10</title>
<path fill="none" stroke="#404040" d="M471.29,-1263.26C469.814,-1249.14 468.23,-1231.68 467.5,-1216 462.89,-1117 459.064,-1091.75 467.5,-993 468.776,-978.064 470.677,-962.464 472.907,-947.043"/>
<polygon fill="none" stroke="#404040" points="472.974,-946.596 469.911,-940.068 474.76,-934.73 477.822,-941.258 472.974,-946.596"/>
<text text-anchor="middle" x="493.5" y="-1102" font-family="Helvetica,sans-Serif" font-size="10.00"> #_str_label</text>
</g>
<!-- Node13 -->
<g id="node11" class="node"><title>Node13</title>
<g id="a_node11"><a xlink:href="classdata_1_1_count_label.html" target="_top" xlink:title="Stores the number of occurrences of a label for an attribute in a dataset.">
<polygon fill="white" stroke="black" points="528.5,-993.5 528.5,-1215.5 656.5,-1215.5 656.5,-993.5 528.5,-993.5"/>
<text text-anchor="start" x="536.5" y="-1203.5" font-family="Helvetica,sans-Serif" font-size="10.00">data::CountLabel&lt; T</text>
<text text-anchor="start" x="536.5" y="-1192.5" font-family="Helvetica,sans-Serif" font-size="10.00">_IDX_LABEL, T_COUNT</text>
<text text-anchor="middle" x="592.5" y="-1181.5" font-family="Helvetica,sans-Serif" font-size="10.00">_LABEL &gt;</text>
<polyline fill="none" stroke="black" points="528.5,-1174.5 656.5,-1174.5 "/>
<text text-anchor="start" x="536.5" y="-1162.5" font-family="Helvetica,sans-Serif" font-size="10.00"># _idx_label</text>
<text text-anchor="start" x="536.5" y="-1151.5" font-family="Helvetica,sans-Serif" font-size="10.00"># _t_coutlabel</text>
<polyline fill="none" stroke="black" points="528.5,-1144.5 656.5,-1144.5 "/>
<text text-anchor="start" x="536.5" y="-1132.5" font-family="Helvetica,sans-Serif" font-size="10.00">+ CountLabel()</text>
<text text-anchor="start" x="536.5" y="-1121.5" font-family="Helvetica,sans-Serif" font-size="10.00">+ CountLabel()</text>
<text text-anchor="start" x="536.5" y="-1110.5" font-family="Helvetica,sans-Serif" font-size="10.00">+ CountLabel()</text>
<text text-anchor="start" x="536.5" y="-1099.5" font-family="Helvetica,sans-Serif" font-size="10.00">+ CountLabel()</text>
<text text-anchor="start" x="536.5" y="-1088.5" font-family="Helvetica,sans-Serif" font-size="10.00">+ ~CountLabel()</text>
<text text-anchor="start" x="536.5" y="-1077.5" font-family="Helvetica,sans-Serif" font-size="10.00">+ operator=()</text>
<text text-anchor="start" x="536.5" y="-1066.5" font-family="Helvetica,sans-Serif" font-size="10.00">+ operator=()</text>
<text text-anchor="start" x="536.5" y="-1055.5" font-family="Helvetica,sans-Serif" font-size="10.00">+ getLabel()</text>
<text text-anchor="start" x="536.5" y="-1044.5" font-family="Helvetica,sans-Serif" font-size="10.00">+ getIdxLabel()</text>
<text text-anchor="start" x="536.5" y="-1033.5" font-family="Helvetica,sans-Serif" font-size="10.00">+ getNumLabel()</text>
<text text-anchor="start" x="536.5" y="-1022.5" font-family="Helvetica,sans-Serif" font-size="10.00">+ increasesCountLabel()</text>
<text text-anchor="start" x="536.5" y="-1011.5" font-family="Helvetica,sans-Serif" font-size="10.00">+ operator&lt;()</text>
<text text-anchor="start" x="536.5" y="-1000.5" font-family="Helvetica,sans-Serif" font-size="10.00">+ print()</text>
</a>
</g>
</g>
<!-- Node11&#45;&gt;Node13 -->
<g id="edge11" class="edge"><title>Node11&#45;&gt;Node13</title>
<path fill="none" stroke="#404040" d="M492.166,-1263.23C500.443,-1250.22 510.9,-1233.78 521.919,-1216.46"/>
<polygon fill="none" stroke="#404040" points="522.018,-1216.3 521.864,-1209.09 528.459,-1206.17 528.614,-1213.38 522.018,-1216.3"/>
<text text-anchor="middle" x="534.5" y="-1237" font-family="Helvetica,sans-Serif" font-size="10.00"> #_str_label</text>
</g>
<!-- Node12 -->
<g id="node10" class="node"><title>Node12</title>
<g id="a_node10"><a xlink:title="STL class.">
<polygon fill="white" stroke="#bfbfbf" points="427,-1358.5 427,-1426.5 522,-1426.5 522,-1358.5 427,-1358.5"/>
<text text-anchor="start" x="435" y="-1414.5" font-family="Helvetica,sans-Serif" font-size="10.00">std::basic_string&lt;</text>
<text text-anchor="middle" x="474.5" y="-1403.5" font-family="Helvetica,sans-Serif" font-size="10.00"> char &gt;</text>
<polyline fill="none" stroke="#bfbfbf" points="427,-1396.5 522,-1396.5 "/>
<text text-anchor="middle" x="474.5" y="-1384.5" font-family="Helvetica,sans-Serif" font-size="10.00"> </text>
<polyline fill="none" stroke="#bfbfbf" points="427,-1377.5 522,-1377.5 "/>
<text text-anchor="middle" x="474.5" y="-1365.5" font-family="Helvetica,sans-Serif" font-size="10.00"> </text>
</a>
</g>
</g>
<!-- Node12&#45;&gt;Node11 -->
<g id="edge9" class="edge"><title>Node12&#45;&gt;Node11</title>
<path fill="none" stroke="midnightblue" d="M474.5,-1348.38C474.5,-1338.94 474.5,-1329.2 474.5,-1320.57"/>
<polygon fill="none" stroke="midnightblue" points="471,-1348.43 474.5,-1358.43 478,-1348.43 471,-1348.43"/>
</g>
<!-- Node13&#45;&gt;Node10 -->
<g id="edge10" class="edge"><title>Node13&#45;&gt;Node10</title>
<path fill="none" stroke="orange" d="M551.289,-983.73C545.708,-967.51 540.002,-950.926 534.481,-934.881"/>
<polygon fill="orange" stroke="orange" points="547.995,-984.915 554.558,-993.232 554.614,-982.637 547.995,-984.915"/>
<text text-anchor="start" x="546.5" y="-967" font-family="Helvetica,sans-Serif" font-size="10.00"> &lt; T_CLUSTERIDX, T_INSTANCES</text>
<text text-anchor="middle" x="628.5" y="-956" font-family="Helvetica,sans-Serif" font-size="10.00">_CLUSTER_K &gt;</text>
</g>
<!-- Node14&#45;&gt;Node9 -->
<g id="edge12" class="edge"><title>Node14&#45;&gt;Node9</title>
<path fill="none" stroke="orange" d="M301.401,-785.178C293.387,-750.546 287.428,-698.801 309.5,-661 313.459,-654.219 318.557,-648.181 324.353,-642.817"/>
<polygon fill="orange" stroke="orange" points="298.008,-786.038 303.809,-794.904 304.803,-784.356 298.008,-786.038"/>
<text text-anchor="start" x="309.5" y="-686" font-family="Helvetica,sans-Serif" font-size="10.00"> &lt; data::CountLabel</text>
<text text-anchor="start" x="309.5" y="-675" font-family="Helvetica,sans-Serif" font-size="10.00">&lt; T_CLUSTERIDX, T_INSTANCES</text>
<text text-anchor="middle" x="390" y="-664" font-family="Helvetica,sans-Serif" font-size="10.00">_CLUSTER_K &gt; * &gt;</text>
</g>
</g>
</svg>
