<?xml version="1.0" encoding="UTF-8" standalone="no"?>
<!DOCTYPE svg PUBLIC "-//W3C//DTD SVG 1.1//EN"
 "http://www.w3.org/Graphics/SVG/1.1/DTD/svg11.dtd">
<!-- Generated by graphviz version 2.38.0 (20140413.2041)
 -->
<!-- Title: partition::PartitionMedoids::print Pages: 1 -->
<!--zoomable 300 -->
<svg id="main" version="1.1" xmlns="http://www.w3.org/2000/svg" xmlns:xlink="http://www.w3.org/1999/xlink" xml:space="preserve" onload="init(evt)">
<style type="text/css"><![CDATA[
.edge:hover path { stroke: red; }
.edge:hover polygon { stroke: red; fill: red; }
]]></style>
<script type="text/javascript"><![CDATA[
var edges = document.getElementsByTagName('g');
if (edges && edges.length) {
  for (var i=0;i<edges.length;i++) {
    if (edges[i].id.substr(0,4)=='edge') {
      edges[i].setAttribute('class','edge');
    }
  }
}
]]></script>
        <defs>
                <circle id="rim" cx="0" cy="0" r="7"/>
                <circle id="rim2" cx="0" cy="0" r="3.5"/>
                <g id="zoomPlus">
                        <use xlink:href="#rim" fill="#404040">
                                <set attributeName="fill" to="#808080" begin="zoomplus.mouseover" end="zoomplus.mouseout"/>
                        </use>
                        <path d="M-4,0h8M0,-4v8" fill="none" stroke="white" stroke-width="1.5" pointer-events="none"/>
                </g>
                <g id="zoomMin">
                        <use xlink:href="#rim" fill="#404040">
                                <set attributeName="fill" to="#808080" begin="zoomminus.mouseover" end="zoomminus.mouseout"/>
                        </use>
                        <path d="M-4,0h8" fill="none" stroke="white" stroke-width="1.5" pointer-events="none"/>
                </g>
                <g id="dirArrow">
                        <path fill="none" stroke="white" stroke-width="1.5" d="M0,-3.0v7 M-2.5,-0.5L0,-3.0L2.5,-0.5"/>
                </g>
               <g id="resetDef">
                       <use xlink:href="#rim2" fill="#404040">
                               <set attributeName="fill" to="#808080" begin="reset.mouseover" end="reset.mouseout"/>
                       </use>
               </g>
        </defs>

<script type="text/javascript">
var viewWidth = 1148;
var viewHeight = 300;
var sectionId = 'dynsection-7';
</script>
<script xlink:href="svgpan.js"/>
<svg id="graph" class="graph">
<g id="viewport">
<title>partition::PartitionMedoids::print</title>
<polygon fill="white" stroke="none" points="-4,4 -4,-295.5 1144,-295.5 1144,4 -4,4"/>
<!-- Node42 -->
<g id="node1" class="node"><title>Node42</title>
<polygon fill="#bfbfbf" stroke="black" points="0,-157 0,-187 133,-187 133,-157 0,-157"/>
<text text-anchor="start" x="8" y="-175" font-family="Helvetica,sans-Serif" font-size="10.00">partition::PartitionMedoids</text>
<text text-anchor="middle" x="66.5" y="-164" font-family="Helvetica,sans-Serif" font-size="10.00">::print</text>
</g>
<!-- Node43 -->
<g id="node2" class="node"><title>Node43</title>
<g id="a_node2"><a xlink:href="classpartition_1_1_partition_medoids.html#ac726bf4c11de58b0628201ac084f5466" target="_top" xlink:title="partition::PartitionMedoids\l::begin">
<polygon fill="white" stroke="black" points="180.5,-261 180.5,-291 313.5,-291 313.5,-261 180.5,-261"/>
<text text-anchor="start" x="188.5" y="-279" font-family="Helvetica,sans-Serif" font-size="10.00">partition::PartitionMedoids</text>
<text text-anchor="middle" x="247" y="-268" font-family="Helvetica,sans-Serif" font-size="10.00">::begin</text>
</a>
</g>
</g>
<!-- Node42&#45;&gt;Node43 -->
<g id="edge1" class="edge"><title>Node42&#45;&gt;Node43</title>
<path fill="none" stroke="midnightblue" d="M83.1489,-187.044C102.106,-204.553 135.661,-233.318 169,-251 173.202,-253.229 177.639,-255.305 182.175,-257.231"/>
<polygon fill="midnightblue" stroke="midnightblue" points="180.996,-260.528 191.582,-260.971 183.583,-254.024 180.996,-260.528"/>
</g>
<!-- Node44 -->
<g id="node3" class="node"><title>Node44</title>
<g id="a_node3"><a xlink:href="classpartition_1_1_partition_medoids.html#a9fe8f51f2d2be1bb015e19046520dfb8" target="_top" xlink:title="partition::PartitionMedoids::end">
<polygon fill="white" stroke="black" points="169,-222.5 169,-241.5 325,-241.5 325,-222.5 169,-222.5"/>
<text text-anchor="middle" x="247" y="-229.5" font-family="Helvetica,sans-Serif" font-size="10.00">partition::PartitionMedoids::end</text>
</a>
</g>
</g>
<!-- Node42&#45;&gt;Node44 -->
<g id="edge2" class="edge"><title>Node42&#45;&gt;Node44</title>
<path fill="none" stroke="midnightblue" d="M108.857,-187.077C127.221,-193.665 149.132,-201.383 169,-208 180.508,-211.833 193.045,-215.82 204.596,-219.418"/>
<polygon fill="midnightblue" stroke="midnightblue" points="203.855,-222.852 214.442,-222.466 205.925,-216.165 203.855,-222.852"/>
</g>
<!-- Node45 -->
<g id="node4" class="node"><title>Node45</title>
<g id="a_node4"><a xlink:href="classmat_1_1_matrix_triang.html#ae8e385b7959c85519692bdee1d4c3aed" target="_top" xlink:title="mat::MatrixTriang::\lgetNumRows">
<polygon fill="white" stroke="black" points="365,-198 365,-228 467,-228 467,-198 365,-198"/>
<text text-anchor="start" x="373" y="-216" font-family="Helvetica,sans-Serif" font-size="10.00">mat::MatrixTriang::</text>
<text text-anchor="middle" x="416" y="-205" font-family="Helvetica,sans-Serif" font-size="10.00">getNumRows</text>
</a>
</g>
</g>
<!-- Node42&#45;&gt;Node45 -->
<g id="edge6" class="edge"><title>Node42&#45;&gt;Node45</title>
<path fill="none" stroke="midnightblue" d="M133.271,-179.76C197.109,-187.292 293.167,-198.625 354.978,-205.918"/>
<polygon fill="midnightblue" stroke="midnightblue" points="354.63,-209.401 364.972,-207.097 355.451,-202.45 354.63,-209.401"/>
</g>
<!-- Node46 -->
<g id="node5" class="node"><title>Node46</title>
<g id="a_node5"><a xlink:href="classpartition_1_1_partition_medoids.html#a2d8ad63817c14031cd31757e74815eb5" target="_top" xlink:title="partition::PartitionMedoids\l::getNumCluster">
<polygon fill="white" stroke="black" points="180.5,-135 180.5,-165 313.5,-165 313.5,-135 180.5,-135"/>
<text text-anchor="start" x="188.5" y="-153" font-family="Helvetica,sans-Serif" font-size="10.00">partition::PartitionMedoids</text>
<text text-anchor="middle" x="247" y="-142" font-family="Helvetica,sans-Serif" font-size="10.00">::getNumCluster</text>
</a>
</g>
</g>
<!-- Node42&#45;&gt;Node46 -->
<g id="edge4" class="edge"><title>Node42&#45;&gt;Node46</title>
<path fill="none" stroke="midnightblue" d="M133.206,-157.365C145.244,-155.659 157.897,-154.051 170.201,-152.661"/>
<polygon fill="midnightblue" stroke="midnightblue" points="170.87,-156.109 180.433,-151.547 170.113,-149.15 170.87,-156.109"/>
</g>
<!-- Node47 -->
<g id="node6" class="node"><title>Node47</title>
<g id="a_node6"><a xlink:href="classpartition_1_1_partition_medoids.html#a418a14476e7ea00c8f5420ec3d8d2789" target="_top" xlink:title="partition::PartitionMedoids\l::next">
<polygon fill="white" stroke="black" points="180.5,-86 180.5,-116 313.5,-116 313.5,-86 180.5,-86"/>
<text text-anchor="start" x="188.5" y="-104" font-family="Helvetica,sans-Serif" font-size="10.00">partition::PartitionMedoids</text>
<text text-anchor="middle" x="247" y="-93" font-family="Helvetica,sans-Serif" font-size="10.00">::next</text>
</a>
</g>
</g>
<!-- Node42&#45;&gt;Node47 -->
<g id="edge7" class="edge"><title>Node42&#45;&gt;Node47</title>
<path fill="none" stroke="midnightblue" d="M97.2544,-156.961C117.252,-147.17 144.357,-134.499 169,-125 174.063,-123.049 179.357,-121.138 184.697,-119.301"/>
<polygon fill="midnightblue" stroke="midnightblue" points="185.946,-122.573 194.318,-116.079 183.724,-115.936 185.946,-122.573"/>
</g>
<!-- Node44&#45;&gt;Node45 -->
<g id="edge3" class="edge"><title>Node44&#45;&gt;Node45</title>
<path fill="none" stroke="midnightblue" d="M325.145,-223.223C335.061,-222.095 345.098,-220.953 354.691,-219.861"/>
<polygon fill="midnightblue" stroke="midnightblue" points="355.36,-223.308 364.9,-218.7 354.568,-216.353 355.36,-223.308"/>
</g>
<!-- Node46&#45;&gt;Node42 -->
<g id="edge5" class="edge"><title>Node46&#45;&gt;Node42</title>
<path fill="none" stroke="midnightblue" d="M180.433,-164.615C168.4,-166.322 155.748,-167.931 143.441,-169.323"/>
<polygon fill="midnightblue" stroke="midnightblue" points="142.768,-165.876 133.206,-170.439 143.527,-172.834 142.768,-165.876"/>
</g>
<!-- Node48 -->
<g id="node7" class="node"><title>Node48</title>
<g id="a_node7"><a xlink:href="namespacenearest.html#a3c4239101cf18ab4ca62e654a4179995" target="_top" xlink:title="nearest::medoidsNN">
<polygon fill="white" stroke="black" points="361,-91.5 361,-110.5 471,-110.5 471,-91.5 361,-91.5"/>
<text text-anchor="middle" x="416" y="-98.5" font-family="Helvetica,sans-Serif" font-size="10.00">nearest::medoidsNN</text>
</a>
</g>
</g>
<!-- Node47&#45;&gt;Node48 -->
<g id="edge8" class="edge"><title>Node47&#45;&gt;Node48</title>
<path fill="none" stroke="midnightblue" d="M313.524,-101C325.803,-101 338.626,-101 350.862,-101"/>
<polygon fill="midnightblue" stroke="midnightblue" points="350.978,-104.5 360.978,-101 350.978,-97.5001 350.978,-104.5"/>
</g>
<!-- Node49 -->
<g id="node8" class="node"><title>Node49</title>
<g id="a_node8"><a xlink:href="namespacenearest.html#a8b0d89680acfe7ef438ae465bd633fb1" target="_top" xlink:title="NN Find the centroid closest to an instance. ">
<polygon fill="white" stroke="black" points="507,-72.5 507,-91.5 577,-91.5 577,-72.5 507,-72.5"/>
<text text-anchor="middle" x="542" y="-79.5" font-family="Helvetica,sans-Serif" font-size="10.00">nearest::NN</text>
</a>
</g>
</g>
<!-- Node48&#45;&gt;Node49 -->
<g id="edge9" class="edge"><title>Node48&#45;&gt;Node49</title>
<path fill="none" stroke="midnightblue" d="M471.027,-92.7216C479.658,-91.3992 488.497,-90.0447 496.863,-88.7629"/>
<polygon fill="midnightblue" stroke="midnightblue" points="497.431,-92.2168 506.786,-87.2425 496.371,-85.2976 497.431,-92.2168"/>
</g>
<!-- Node50 -->
<g id="node9" class="node"><title>Node50</title>
<g id="a_node9"><a xlink:href="namespacenearest.html#a9508313369f30f2f3334215bcc46b0cd" target="_top" xlink:title="Find the centroid closest to an instance and check null centroids. ">
<polygon fill="white" stroke="black" points="613,-110.5 613,-129.5 770,-129.5 770,-110.5 613,-110.5"/>
<text text-anchor="middle" x="691.5" y="-117.5" font-family="Helvetica,sans-Serif" font-size="10.00">nearest::checkNullCentroidsNN</text>
</a>
</g>
</g>
<!-- Node49&#45;&gt;Node50 -->
<g id="edge10" class="edge"><title>Node49&#45;&gt;Node50</title>
<path fill="none" stroke="midnightblue" d="M577.135,-91.4459C588.525,-94.5496 601.295,-97.9772 613,-101 621.964,-103.315 631.529,-105.716 640.771,-108.001"/>
<polygon fill="midnightblue" stroke="midnightblue" points="640.082,-111.435 650.628,-110.424 641.753,-104.638 640.082,-111.435"/>
</g>
<!-- Node51 -->
<g id="node10" class="node"><title>Node51</title>
<g id="a_node10"><a xlink:href="classmat_1_1_matrix_base.html#a70200414022ce1479b9ddc16102b12ae" target="_top" xlink:title="mat::MatrixBase::getNumColumns">
<polygon fill="white" stroke="black" points="806,-0.5 806,-19.5 976,-19.5 976,-0.5 806,-0.5"/>
<text text-anchor="middle" x="891" y="-7.5" font-family="Helvetica,sans-Serif" font-size="10.00">mat::MatrixBase::getNumColumns</text>
</a>
</g>
</g>
<!-- Node49&#45;&gt;Node51 -->
<g id="edge17" class="edge"><title>Node49&#45;&gt;Node51</title>
<path fill="none" stroke="midnightblue" d="M559.69,-72.3738C573.528,-64.8304 593.947,-54.6899 613,-49 672.468,-31.2407 741.593,-21.4935 795.912,-16.1847"/>
<polygon fill="midnightblue" stroke="midnightblue" points="796.25,-19.6684 805.877,-15.2441 795.592,-12.6994 796.25,-19.6684"/>
</g>
<!-- Node52 -->
<g id="node11" class="node"><title>Node52</title>
<g id="a_node11"><a xlink:href="classmat_1_1_matrix_base.html#ac500eedd5e203327d3292f8ab22d8f3e" target="_top" xlink:title="mat::MatrixBase::getNumRows">
<polygon fill="white" stroke="black" points="813,-46.5 813,-65.5 969,-65.5 969,-46.5 813,-46.5"/>
<text text-anchor="middle" x="891" y="-53.5" font-family="Helvetica,sans-Serif" font-size="10.00">mat::MatrixBase::getNumRows</text>
</a>
</g>
</g>
<!-- Node49&#45;&gt;Node52 -->
<g id="edge18" class="edge"><title>Node49&#45;&gt;Node52</title>
<path fill="none" stroke="midnightblue" d="M571.96,-72.4643C584.442,-68.7933 599.294,-65.0036 613,-63 676.071,-53.7801 748.06,-52.2292 802.839,-52.8784"/>
<polygon fill="midnightblue" stroke="midnightblue" points="802.811,-56.3783 812.861,-53.0239 802.913,-49.3791 802.811,-56.3783"/>
</g>
<!-- Node56 -->
<g id="node15" class="node"><title>Node56</title>
<g id="a_node15"><a xlink:href="classmat_1_1_matrix_row.html#a5391a205367fbaac82a26ddc377a80af" target="_top" xlink:title="mat::MatrixRow::getRow">
<polygon fill="white" stroke="black" points="628,-72.5 628,-91.5 755,-91.5 755,-72.5 628,-72.5"/>
<text text-anchor="middle" x="691.5" y="-79.5" font-family="Helvetica,sans-Serif" font-size="10.00">mat::MatrixRow::getRow</text>
</a>
</g>
</g>
<!-- Node49&#45;&gt;Node56 -->
<g id="edge19" class="edge"><title>Node49&#45;&gt;Node56</title>
<path fill="none" stroke="midnightblue" d="M577.21,-82C589.331,-82 603.476,-82 617.58,-82"/>
<polygon fill="midnightblue" stroke="midnightblue" points="617.813,-85.5001 627.813,-82 617.813,-78.5001 617.813,-85.5001"/>
</g>
<!-- Node50&#45;&gt;Node48 -->
<g id="edge16" class="edge"><title>Node50&#45;&gt;Node48</title>
<path fill="none" stroke="midnightblue" d="M612.755,-114.599C571.099,-111.705 520.405,-108.184 481.043,-105.449"/>
<polygon fill="midnightblue" stroke="midnightblue" points="481.253,-101.955 471.035,-104.754 480.768,-108.938 481.253,-101.955"/>
</g>
<!-- Node50&#45;&gt;Node51 -->
<g id="edge11" class="edge"><title>Node50&#45;&gt;Node51</title>
<path fill="none" stroke="midnightblue" d="M753.147,-110.399C759.171,-107.936 764.925,-104.854 770,-101 795.992,-81.2646 780.72,-57.6402 806,-37 813.058,-31.2372 821.372,-26.6948 829.976,-23.1167"/>
<polygon fill="midnightblue" stroke="midnightblue" points="831.24,-26.3808 839.381,-19.6004 828.788,-19.8241 831.24,-26.3808"/>
</g>
<!-- Node50&#45;&gt;Node52 -->
<g id="edge12" class="edge"><title>Node50&#45;&gt;Node52</title>
<path fill="none" stroke="midnightblue" d="M735.386,-110.446C746.715,-107.661 758.882,-104.434 770,-101 800.082,-91.7078 833.572,-78.9392 857.512,-69.3764"/>
<polygon fill="midnightblue" stroke="midnightblue" points="858.861,-72.6064 866.829,-65.6238 856.246,-66.1132 858.861,-72.6064"/>
</g>
<!-- Node53 -->
<g id="node12" class="node"><title>Node53</title>
<g id="a_node12"><a xlink:href="classmat_1_1_matrix_base.html#ae3b1c4b8e9cb7e7685d7bc129f875dcd" target="_top" xlink:title="mat::MatrixBase::getRow">
<polygon fill="white" stroke="black" points="825.5,-150.5 825.5,-169.5 956.5,-169.5 956.5,-150.5 825.5,-150.5"/>
<text text-anchor="middle" x="891" y="-157.5" font-family="Helvetica,sans-Serif" font-size="10.00">mat::MatrixBase::getRow</text>
</a>
</g>
</g>
<!-- Node50&#45;&gt;Node53 -->
<g id="edge13" class="edge"><title>Node50&#45;&gt;Node53</title>
<path fill="none" stroke="midnightblue" d="M739.555,-129.53C767.642,-135.219 803.499,-142.481 833.162,-148.488"/>
<polygon fill="midnightblue" stroke="midnightblue" points="832.468,-151.919 842.963,-150.474 833.857,-145.058 832.468,-151.919"/>
</g>
<!-- Node54 -->
<g id="node13" class="node"><title>Node54</title>
<g id="a_node13"><a xlink:href="classdata_1_1_instance.html#abd8d5a6a290d0783a57931dcce0a871d" target="_top" xlink:title="data::Instance::isInfinite\lFeature">
<polygon fill="white" stroke="black" points="830,-101 830,-131 952,-131 952,-101 830,-101"/>
<text text-anchor="start" x="838" y="-119" font-family="Helvetica,sans-Serif" font-size="10.00">data::Instance::isInfinite</text>
<text text-anchor="middle" x="891" y="-108" font-family="Helvetica,sans-Serif" font-size="10.00">Feature</text>
</a>
</g>
</g>
<!-- Node50&#45;&gt;Node54 -->
<g id="edge14" class="edge"><title>Node50&#45;&gt;Node54</title>
<path fill="none" stroke="midnightblue" d="M770.274,-118.425C786.478,-118.097 803.473,-117.752 819.401,-117.43"/>
<polygon fill="midnightblue" stroke="midnightblue" points="819.768,-120.923 829.695,-117.221 819.626,-113.925 819.768,-120.923"/>
</g>
<!-- Node55 -->
<g id="node14" class="node"><title>Node55</title>
<g id="a_node14"><a xlink:href="classdata_1_1_instance.html#a02d828c30db46d999f1830ea7b4d9c74" target="_top" xlink:title="data::Instance::getInfinite\lFeature">
<polygon fill="white" stroke="black" points="1012,-101 1012,-131 1140,-131 1140,-101 1012,-101"/>
<text text-anchor="start" x="1020" y="-119" font-family="Helvetica,sans-Serif" font-size="10.00">data::Instance::getInfinite</text>
<text text-anchor="middle" x="1076" y="-108" font-family="Helvetica,sans-Serif" font-size="10.00">Feature</text>
</a>
</g>
</g>
<!-- Node54&#45;&gt;Node55 -->
<g id="edge15" class="edge"><title>Node54&#45;&gt;Node55</title>
<path fill="none" stroke="midnightblue" d="M952.175,-116C968.048,-116 985.352,-116 1001.83,-116"/>
<polygon fill="midnightblue" stroke="midnightblue" points="1001.96,-119.5 1011.96,-116 1001.96,-112.5 1001.96,-119.5"/>
</g>
</g>
</svg>
        <g id="navigator" transform="translate(0 0)" fill="#404254">
                <rect fill="#f2f5e9" fill-opacity="0.5" stroke="#606060" stroke-width=".5" x="0" y="0" width="60" height="60"/>
                <use id="zoomplus" xlink:href="#zoomPlus" x="17" y="9" onmousedown="handleZoom(evt,'in')"/>
                <use id="zoomminus" xlink:href="#zoomMin" x="42" y="9" onmousedown="handleZoom(evt,'out')"/>
                <use id="reset" xlink:href="#resetDef" x="30" y="36" onmousedown="handleReset()"/>
                <g id="arrowUp" xlink:href="#dirArrow" transform="translate(30 24)" onmousedown="handlePan(0,-1)">
                  <use xlink:href="#rim" fill="#404040">
                        <set attributeName="fill" to="#808080" begin="arrowUp.mouseover" end="arrowUp.mouseout"/>
                  </use>
                  <path fill="none" stroke="white" stroke-width="1.5" d="M0,-3.0v7 M-2.5,-0.5L0,-3.0L2.5,-0.5"/>
                </g>
                <g id="arrowRight" xlink:href="#dirArrow" transform="rotate(90) translate(36 -43)" onmousedown="handlePan(1,0)">
                  <use xlink:href="#rim" fill="#404040">
                        <set attributeName="fill" to="#808080" begin="arrowRight.mouseover" end="arrowRight.mouseout"/>
                  </use>
                  <path fill="none" stroke="white" stroke-width="1.5" d="M0,-3.0v7 M-2.5,-0.5L0,-3.0L2.5,-0.5"/>
                </g>
                <g id="arrowDown" xlink:href="#dirArrow" transform="rotate(180) translate(-30 -48)" onmousedown="handlePan(0,1)">
                  <use xlink:href="#rim" fill="#404040">
                        <set attributeName="fill" to="#808080" begin="arrowDown.mouseover" end="arrowDown.mouseout"/>
                  </use>
                  <path fill="none" stroke="white" stroke-width="1.5" d="M0,-3.0v7 M-2.5,-0.5L0,-3.0L2.5,-0.5"/>
                </g>
                <g id="arrowLeft" xlink:href="#dirArrow" transform="rotate(270) translate(-36 17)" onmousedown="handlePan(-1,0)">
                  <use xlink:href="#rim" fill="#404040">
                        <set attributeName="fill" to="#808080" begin="arrowLeft.mouseover" end="arrowLeft.mouseout"/>
                  </use>
                  <path fill="none" stroke="white" stroke-width="1.5" d="M0,-3.0v7 M-2.5,-0.5L0,-3.0L2.5,-0.5"/>
                </g>
        </g>
        <svg viewBox="0 0 15 15" width="100%" height="30px" preserveAspectRatio="xMaxYMin meet">
         <g id="arrow_out" transform="scale(0.3 0.3)">
          <a xlink:href="classpartition_1_1_partition_medoids_a13a499f36509c41aec281e0cfff53f63_cgraph_org.svg" target="_base">
           <rect id="button" ry="5" rx="5" y="6" x="6" height="38" width="38"
                fill="#f2f5e9" fill-opacity="0.5" stroke="#606060" stroke-width="1.0"/>
           <path id="arrow"
             d="M 11.500037,31.436501 C 11.940474,20.09759 22.043105,11.32322 32.158766,21.979434 L 37.068811,17.246167 C 37.068811,17.246167 37.088388,32 37.088388,32 L 22.160133,31.978069 C 22.160133,31.978069 26.997745,27.140456 26.997745,27.140456 C 18.528582,18.264221 13.291696,25.230495 11.500037,31.436501 z"
             style="fill:#404040;"/>
          </a>
         </g>
        </svg>
</svg>
