<?xml version="1.0" encoding="UTF-8" standalone="no"?>
<!DOCTYPE svg PUBLIC "-//W3C//DTD SVG 1.1//EN"
 "http://www.w3.org/Graphics/SVG/1.1/DTD/svg11.dtd">
<!-- Generated by graphviz version 2.38.0 (20140413.2041)
 -->
<!-- Title: gaencode::ChromosomeBitArray::operator= Pages: 1 -->
<!--zoomable 188 -->
<svg id="main" version="1.1" xmlns="http://www.w3.org/2000/svg" xmlns:xlink="http://www.w3.org/1999/xlink" xml:space="preserve" onload="init(evt)">
<style type="text/css"><![CDATA[
.edge:hover path { stroke: red; }
.edge:hover polygon { stroke: red; fill: red; }
]]></style>
<script type="text/javascript"><![CDATA[
var edges = document.getElementsByTagName('g');
if (edges && edges.length) {
  for (var i=0;i<edges.length;i++) {
    if (edges[i].id.substr(0,4)=='edge') {
      edges[i].setAttribute('class','edge');
    }
  }
}
]]></script>
        <defs>
                <circle id="rim" cx="0" cy="0" r="7"/>
                <circle id="rim2" cx="0" cy="0" r="3.5"/>
                <g id="zoomPlus">
                        <use xlink:href="#rim" fill="#404040">
                                <set attributeName="fill" to="#808080" begin="zoomplus.mouseover" end="zoomplus.mouseout"/>
                        </use>
                        <path d="M-4,0h8M0,-4v8" fill="none" stroke="white" stroke-width="1.5" pointer-events="none"/>
                </g>
                <g id="zoomMin">
                        <use xlink:href="#rim" fill="#404040">
                                <set attributeName="fill" to="#808080" begin="zoomminus.mouseover" end="zoomminus.mouseout"/>
                        </use>
                        <path d="M-4,0h8" fill="none" stroke="white" stroke-width="1.5" pointer-events="none"/>
                </g>
                <g id="dirArrow">
                        <path fill="none" stroke="white" stroke-width="1.5" d="M0,-3.0v7 M-2.5,-0.5L0,-3.0L2.5,-0.5"/>
                </g>
               <g id="resetDef">
                       <use xlink:href="#rim2" fill="#404040">
                               <set attributeName="fill" to="#808080" begin="reset.mouseover" end="reset.mouseout"/>
                       </use>
               </g>
        </defs>

<script type="text/javascript">
var viewWidth = 732;
var viewHeight = 188;
var sectionId = 'dynsection-2';
</script>
<script xlink:href="svgpan.js"/>
<svg id="graph" class="graph">
<g id="viewport">
<title>gaencode::ChromosomeBitArray::operator=</title>
<polygon fill="white" stroke="none" points="-4,4 -4,-183.5 728,-183.5 728,4 -4,4"/>
<!-- Node5 -->
<g id="node1" class="node"><title>Node5</title>
<g id="a_node1"><a xlink:title=" ">
<polygon fill="#bfbfbf" stroke="black" points="0,-105 0,-135 166,-135 166,-105 0,-105"/>
<text text-anchor="start" x="8" y="-123" font-family="Helvetica,sans-Serif" font-size="10.00">gaencode::ChromosomeBitArray</text>
<text text-anchor="middle" x="83" y="-112" font-family="Helvetica,sans-Serif" font-size="10.00">::operator=</text>
</a>
</g>
</g>
<!-- Node6 -->
<g id="node2" class="node"><title>Node6</title>
<g id="a_node2"><a xlink:href="classgaencode_1_1_chromosome_base.html#a875b1a929b8a9225b5545146389190f0" target="_top" xlink:title=" ">
<polygon fill="white" stroke="black" points="207.5,-149 207.5,-179 362.5,-179 362.5,-149 207.5,-149"/>
<text text-anchor="start" x="215.5" y="-167" font-family="Helvetica,sans-Serif" font-size="10.00">gaencode::ChromosomeBase</text>
<text text-anchor="middle" x="285" y="-156" font-family="Helvetica,sans-Serif" font-size="10.00">::operator=</text>
</a>
</g>
</g>
<!-- Node5&#45;&gt;Node6 -->
<g id="edge1" class="edge"><title>Node5&#45;&gt;Node6</title>
<path fill="none" stroke="midnightblue" d="M152.269,-135.019C169.391,-138.786 187.897,-142.857 205.475,-146.724"/>
<polygon fill="midnightblue" stroke="midnightblue" points="205.181,-150.243 215.699,-148.974 206.685,-143.407 205.181,-150.243"/>
</g>
<!-- Node7 -->
<g id="node3" class="node"><title>Node7</title>
<g id="a_node3"><a xlink:href="classmat_1_1_bit_array.html#a0661f25bbd7e39399ccf0edbb23dff38" target="_top" xlink:title=" ">
<polygon fill="white" stroke="black" points="223,-110.5 223,-129.5 347,-129.5 347,-110.5 223,-110.5"/>
<text text-anchor="middle" x="285" y="-117.5" font-family="Helvetica,sans-Serif" font-size="10.00">mat::BitArray::operator=</text>
</a>
</g>
</g>
<!-- Node5&#45;&gt;Node7 -->
<g id="edge2" class="edge"><title>Node5&#45;&gt;Node7</title>
<path fill="none" stroke="midnightblue" d="M166.213,-120C181.62,-120 197.609,-120 212.653,-120"/>
<polygon fill="midnightblue" stroke="midnightblue" points="212.898,-123.5 222.898,-120 212.898,-116.5 212.898,-123.5"/>
</g>
<!-- Node9 -->
<g id="node5" class="node"><title>Node9</title>
<g id="a_node5"><a xlink:href="classgaencode_1_1_chromosome_bit_array.html#a5b129de998156a2e67f794de38a43ab7" target="_top" xlink:title=" ">
<polygon fill="white" stroke="black" points="202,-61 202,-91 368,-91 368,-61 202,-61"/>
<text text-anchor="start" x="210" y="-79" font-family="Helvetica,sans-Serif" font-size="10.00">gaencode::ChromosomeBitArray</text>
<text text-anchor="middle" x="285" y="-68" font-family="Helvetica,sans-Serif" font-size="10.00">::print</text>
</a>
</g>
</g>
<!-- Node5&#45;&gt;Node9 -->
<g id="edge4" class="edge"><title>Node5&#45;&gt;Node9</title>
<path fill="none" stroke="midnightblue" d="M152.269,-104.981C169.391,-101.214 187.897,-97.1426 205.475,-93.2756"/>
<polygon fill="midnightblue" stroke="midnightblue" points="206.685,-96.5932 215.699,-91.0262 205.181,-89.7566 206.685,-96.5932"/>
</g>
<!-- Node8 -->
<g id="node4" class="node"><title>Node8</title>
<g id="a_node4"><a xlink:href="classds_1_1_bit_container.html#aee6501a001acd39e0450d4ba572a0257" target="_top" xlink:title=" ">
<polygon fill="white" stroke="black" points="412.5,-110.5 412.5,-129.5 550.5,-129.5 550.5,-110.5 412.5,-110.5"/>
<text text-anchor="middle" x="481.5" y="-117.5" font-family="Helvetica,sans-Serif" font-size="10.00">ds::BitContainer::operator=</text>
</a>
</g>
</g>
<!-- Node7&#45;&gt;Node8 -->
<g id="edge3" class="edge"><title>Node7&#45;&gt;Node8</title>
<path fill="none" stroke="midnightblue" d="M347.007,-120C364.491,-120 383.799,-120 402.17,-120"/>
<polygon fill="midnightblue" stroke="midnightblue" points="402.262,-123.5 412.262,-120 402.262,-116.5 402.262,-123.5"/>
</g>
<!-- Node10 -->
<g id="node6" class="node"><title>Node10</title>
<g id="a_node6"><a xlink:href="classgaencode_1_1_chromosome_base.html#ab7a374a062ba8b5c6b4e674bae9a8299" target="_top" xlink:title=" ">
<polygon fill="white" stroke="black" points="404,-61 404,-91 559,-91 559,-61 404,-61"/>
<text text-anchor="start" x="412" y="-79" font-family="Helvetica,sans-Serif" font-size="10.00">gaencode::ChromosomeBase</text>
<text text-anchor="middle" x="481.5" y="-68" font-family="Helvetica,sans-Serif" font-size="10.00">::print</text>
</a>
</g>
</g>
<!-- Node9&#45;&gt;Node10 -->
<g id="edge5" class="edge"><title>Node9&#45;&gt;Node10</title>
<path fill="none" stroke="midnightblue" d="M368.204,-76C376.606,-76 385.163,-76 393.614,-76"/>
<polygon fill="midnightblue" stroke="midnightblue" points="393.852,-79.5001 403.852,-76 393.852,-72.5001 393.852,-79.5001"/>
</g>
<!-- Node11 -->
<g id="node7" class="node"><title>Node11</title>
<g id="a_node7"><a xlink:href="classmat_1_1_bit_array.html#a069efb2e4c68ffc2dec049e147de0fbb" target="_top" xlink:title=" ">
<polygon fill="white" stroke="black" points="432.5,-22.5 432.5,-41.5 530.5,-41.5 530.5,-22.5 432.5,-22.5"/>
<text text-anchor="middle" x="481.5" y="-29.5" font-family="Helvetica,sans-Serif" font-size="10.00">mat::BitArray::print</text>
</a>
</g>
</g>
<!-- Node9&#45;&gt;Node11 -->
<g id="edge6" class="edge"><title>Node9&#45;&gt;Node11</title>
<path fill="none" stroke="midnightblue" d="M352.392,-60.9808C377.22,-55.364 405.043,-49.07 428.399,-43.7863"/>
<polygon fill="midnightblue" stroke="midnightblue" points="429.47,-47.1327 438.451,-41.5124 427.925,-40.3052 429.47,-47.1327"/>
</g>
<!-- Node12 -->
<g id="node8" class="node"><title>Node12</title>
<g id="a_node8"><a xlink:href="classds_1_1_bit_container.html#aefad9145f725e5584f59e6f9ff64e07b" target="_top" xlink:title=" ">
<polygon fill="white" stroke="black" points="595,-39 595,-69 724,-69 724,-39 595,-39"/>
<text text-anchor="start" x="603" y="-57" font-family="Helvetica,sans-Serif" font-size="10.00">ds::BitContainer::getNum</text>
<text text-anchor="middle" x="659.5" y="-46" font-family="Helvetica,sans-Serif" font-size="10.00">BitOn</text>
</a>
</g>
</g>
<!-- Node11&#45;&gt;Node12 -->
<g id="edge7" class="edge"><title>Node11&#45;&gt;Node12</title>
<path fill="none" stroke="midnightblue" d="M530.593,-38.0116C547.338,-40.1048 566.53,-42.5038 584.866,-44.7958"/>
<polygon fill="midnightblue" stroke="midnightblue" points="584.587,-48.2881 594.944,-46.0556 585.456,-41.3421 584.587,-48.2881"/>
</g>
<!-- Node13 -->
<g id="node9" class="node"><title>Node13</title>
<g id="a_node9"><a xlink:href="classds_1_1_bit_container.html#ac411be8a6a028077107ab9c7a60b5546" target="_top" xlink:title=" ">
<polygon fill="white" stroke="black" points="599.5,-0.5 599.5,-19.5 719.5,-19.5 719.5,-0.5 599.5,-0.5"/>
<text text-anchor="middle" x="659.5" y="-7.5" font-family="Helvetica,sans-Serif" font-size="10.00">ds::BitContainer::getBit</text>
</a>
</g>
</g>
<!-- Node11&#45;&gt;Node13 -->
<g id="edge8" class="edge"><title>Node11&#45;&gt;Node13</title>
<path fill="none" stroke="midnightblue" d="M530.593,-25.9884C548.707,-23.7241 569.683,-21.1021 589.343,-18.6446"/>
<polygon fill="midnightblue" stroke="midnightblue" points="589.993,-22.0907 599.481,-17.3773 589.125,-15.1448 589.993,-22.0907"/>
</g>
</g>
</svg>
        <g id="navigator" transform="translate(0 0)" fill="#404254">
                <rect fill="#f2f5e9" fill-opacity="0.5" stroke="#606060" stroke-width=".5" x="0" y="0" width="60" height="60"/>
                <use id="zoomplus" xlink:href="#zoomPlus" x="17" y="9" onmousedown="handleZoom(evt,'in')"/>
                <use id="zoomminus" xlink:href="#zoomMin" x="42" y="9" onmousedown="handleZoom(evt,'out')"/>
                <use id="reset" xlink:href="#resetDef" x="30" y="36" onmousedown="handleReset()"/>
                <g id="arrowUp" xlink:href="#dirArrow" transform="translate(30 24)" onmousedown="handlePan(0,-1)">
                  <use xlink:href="#rim" fill="#404040">
                        <set attributeName="fill" to="#808080" begin="arrowUp.mouseover" end="arrowUp.mouseout"/>
                  </use>
                  <path fill="none" stroke="white" stroke-width="1.5" d="M0,-3.0v7 M-2.5,-0.5L0,-3.0L2.5,-0.5"/>
                </g>
                <g id="arrowRight" xlink:href="#dirArrow" transform="rotate(90) translate(36 -43)" onmousedown="handlePan(1,0)">
                  <use xlink:href="#rim" fill="#404040">
                        <set attributeName="fill" to="#808080" begin="arrowRight.mouseover" end="arrowRight.mouseout"/>
                  </use>
                  <path fill="none" stroke="white" stroke-width="1.5" d="M0,-3.0v7 M-2.5,-0.5L0,-3.0L2.5,-0.5"/>
                </g>
                <g id="arrowDown" xlink:href="#dirArrow" transform="rotate(180) translate(-30 -48)" onmousedown="handlePan(0,1)">
                  <use xlink:href="#rim" fill="#404040">
                        <set attributeName="fill" to="#808080" begin="arrowDown.mouseover" end="arrowDown.mouseout"/>
                  </use>
                  <path fill="none" stroke="white" stroke-width="1.5" d="M0,-3.0v7 M-2.5,-0.5L0,-3.0L2.5,-0.5"/>
                </g>
                <g id="arrowLeft" xlink:href="#dirArrow" transform="rotate(270) translate(-36 17)" onmousedown="handlePan(-1,0)">
                  <use xlink:href="#rim" fill="#404040">
                        <set attributeName="fill" to="#808080" begin="arrowLeft.mouseover" end="arrowLeft.mouseout"/>
                  </use>
                  <path fill="none" stroke="white" stroke-width="1.5" d="M0,-3.0v7 M-2.5,-0.5L0,-3.0L2.5,-0.5"/>
                </g>
        </g>
        <svg viewBox="0 0 15 15" width="100%" height="30px" preserveAspectRatio="xMaxYMin meet">
         <g id="arrow_out" transform="scale(0.3 0.3)">
          <a xlink:href="classgaencode_1_1_chromosome_bit_array_a5cd37ebb7b2e7165a17b8ab3d9cb9adb_cgraph_org.svg" target="_base">
           <rect id="button" ry="5" rx="5" y="6" x="6" height="38" width="38"
                fill="#f2f5e9" fill-opacity="0.5" stroke="#606060" stroke-width="1.0"/>
           <path id="arrow"
             d="M 11.500037,31.436501 C 11.940474,20.09759 22.043105,11.32322 32.158766,21.979434 L 37.068811,17.246167 C 37.068811,17.246167 37.088388,32 37.088388,32 L 22.160133,31.978069 C 22.160133,31.978069 26.997745,27.140456 26.997745,27.140456 C 18.528582,18.264221 13.291696,25.230495 11.500037,31.436501 z"
             style="fill:#404040;"/>
          </a>
         </g>
        </svg>
</svg>
