<?xml version="1.0" encoding="UTF-8" standalone="no"?>
<!DOCTYPE svg PUBLIC "-//W3C//DTD SVG 1.1//EN"
 "http://www.w3.org/Graphics/SVG/1.1/DTD/svg11.dtd">
<!-- Generated by graphviz version 2.38.0 (20140413.2041)
 -->
<!-- Title: inout::OutParamClusteringMetric::print Pages: 1 -->
<svg width="321pt" height="39pt"
 viewBox="0.00 0.00 321.00 39.00" xmlns="http://www.w3.org/2000/svg" xmlns:xlink="http://www.w3.org/1999/xlink">
<g id="graph0" class="graph" transform="scale(1 1) rotate(0) translate(4 35)">
<title>inout::OutParamClusteringMetric::print</title>
<polygon fill="white" stroke="none" points="-4,4 -4,-35 317,-35 317,4 -4,4"/>
<!-- Node13 -->
<g id="node1" class="node"><title>Node13</title>
<g id="a_node1"><a xlink:title=" ">
<polygon fill="#bfbfbf" stroke="black" points="0,-0.5 0,-30.5 134,-30.5 134,-0.5 0,-0.5"/>
<text text-anchor="start" x="8" y="-18.5" font-family="Helvetica,sans-Serif" font-size="10.00">inout::OutParamClustering</text>
<text text-anchor="middle" x="67" y="-7.5" font-family="Helvetica,sans-Serif" font-size="10.00">Metric::print</text>
</a>
</g>
</g>
<!-- Node14 -->
<g id="node2" class="node"><title>Node14</title>
<g id="a_node2"><a xlink:href="classinout_1_1_out_param_clustering_metric.html#a853692be785611ff37e1662a19af2a75" target="_top" xlink:title=" ">
<polygon fill="white" stroke="black" points="170,-0.5 170,-30.5 313,-30.5 313,-0.5 170,-0.5"/>
<text text-anchor="start" x="178" y="-18.5" font-family="Helvetica,sans-Serif" font-size="10.00">inout::OutParamClustering</text>
<text text-anchor="middle" x="241.5" y="-7.5" font-family="Helvetica,sans-Serif" font-size="10.00">Metric::getNumObjetiveFunc</text>
</a>
</g>
</g>
<!-- Node13&#45;&gt;Node14 -->
<g id="edge1" class="edge"><title>Node13&#45;&gt;Node14</title>
<path fill="none" stroke="midnightblue" d="M134.2,-15.5C142.599,-15.5 151.267,-15.5 159.861,-15.5"/>
<polygon fill="midnightblue" stroke="midnightblue" points="159.894,-19.0001 169.894,-15.5 159.894,-12.0001 159.894,-19.0001"/>
</g>
</g>
</svg>
