<?xml version="1.0" encoding="UTF-8" standalone="no"?>
<!DOCTYPE svg PUBLIC "-//W3C//DTD SVG 1.1//EN"
 "http://www.w3.org/Graphics/SVG/1.1/DTD/svg11.dtd">
<!-- Generated by graphviz version 2.38.0 (20140413.2041)
 -->
<!-- Title: runtime::RuntimeFunctionValue&lt; T_VALUE &gt; Pages: 1 -->
<svg width="154pt" height="493pt"
 viewBox="0.00 0.00 153.50 493.00" xmlns="http://www.w3.org/2000/svg" xmlns:xlink="http://www.w3.org/1999/xlink">
<g id="graph0" class="graph" transform="scale(1 1) rotate(0) translate(4 489)">
<title>runtime::RuntimeFunctionValue&lt; T_VALUE &gt;</title>
<polygon fill="white" stroke="none" points="-4,4 -4,-489 149.5,-489 149.5,4 -4,4"/>
<!-- Node3 -->
<g id="node1" class="node"><title>Node3</title>
<polygon fill="#bfbfbf" stroke="black" points="0,-0.5 0,-112.5 137,-112.5 137,-0.5 0,-0.5"/>
<text text-anchor="start" x="8" y="-100.5" font-family="Helvetica,sans-Serif" font-size="10.00">runtime::RuntimeFunction</text>
<text text-anchor="middle" x="68.5" y="-89.5" font-family="Helvetica,sans-Serif" font-size="10.00">Value&lt; T_VALUE &gt;</text>
<polyline fill="none" stroke="black" points="0,-82.5 137,-82.5 "/>
<text text-anchor="start" x="8" y="-70.5" font-family="Helvetica,sans-Serif" font-size="10.00"># t_value</text>
<polyline fill="none" stroke="black" points="0,-63.5 137,-63.5 "/>
<text text-anchor="start" x="8" y="-51.5" font-family="Helvetica,sans-Serif" font-size="10.00">+ RuntimeFunctionValue()</text>
<text text-anchor="start" x="8" y="-40.5" font-family="Helvetica,sans-Serif" font-size="10.00">+ ~RuntimeFunctionValue()</text>
<text text-anchor="start" x="8" y="-29.5" font-family="Helvetica,sans-Serif" font-size="10.00">+ setValue()</text>
<text text-anchor="start" x="8" y="-18.5" font-family="Helvetica,sans-Serif" font-size="10.00">+ getValue()</text>
<text text-anchor="start" x="8" y="-7.5" font-family="Helvetica,sans-Serif" font-size="10.00">+ print()</text>
</g>
<!-- Node4 -->
<g id="node2" class="node"><title>Node4</title>
<g id="a_node2"><a xlink:href="classruntime_1_1_runtime_function.html" target="_top" xlink:title="Function store metrics in run time. ">
<polygon fill="white" stroke="black" points="4.5,-150.5 4.5,-273.5 132.5,-273.5 132.5,-150.5 4.5,-150.5"/>
<text text-anchor="middle" x="68.5" y="-261.5" font-family="Helvetica,sans-Serif" font-size="10.00">runtime::RuntimeFunction</text>
<polyline fill="none" stroke="black" points="4.5,-254.5 132.5,-254.5 "/>
<text text-anchor="start" x="12.5" y="-242.5" font-family="Helvetica,sans-Serif" font-size="10.00"># _c_typeFunc</text>
<polyline fill="none" stroke="black" points="4.5,-235.5 132.5,-235.5 "/>
<text text-anchor="start" x="12.5" y="-223.5" font-family="Helvetica,sans-Serif" font-size="10.00">+ RuntimeFunction()</text>
<text text-anchor="start" x="12.5" y="-212.5" font-family="Helvetica,sans-Serif" font-size="10.00">+ ~RuntimeFunction()</text>
<text text-anchor="start" x="12.5" y="-201.5" font-family="Helvetica,sans-Serif" font-size="10.00">+ getName()</text>
<text text-anchor="start" x="12.5" y="-190.5" font-family="Helvetica,sans-Serif" font-size="10.00">+ isNotStorage()</text>
<text text-anchor="start" x="12.5" y="-179.5" font-family="Helvetica,sans-Serif" font-size="10.00">+ isStorageBuffer()</text>
<text text-anchor="start" x="12.5" y="-168.5" font-family="Helvetica,sans-Serif" font-size="10.00">+ isStorageLinkedList()</text>
<text text-anchor="start" x="12.5" y="-157.5" font-family="Helvetica,sans-Serif" font-size="10.00">+ print()</text>
</a>
</g>
</g>
<!-- Node4&#45;&gt;Node3 -->
<g id="edge1" class="edge"><title>Node4&#45;&gt;Node3</title>
<path fill="none" stroke="midnightblue" d="M68.5,-140.055C68.5,-130.886 68.5,-121.605 68.5,-112.741"/>
<polygon fill="none" stroke="midnightblue" points="65.0001,-140.333 68.5,-150.333 72.0001,-140.333 65.0001,-140.333"/>
</g>
<!-- Node5 -->
<g id="node3" class="node"><title>Node5</title>
<g id="a_node3"><a xlink:title="STL class. ">
<polygon fill="white" stroke="#bfbfbf" points="38.5,-321.5 38.5,-378.5 98.5,-378.5 98.5,-321.5 38.5,-321.5"/>
<text text-anchor="middle" x="68.5" y="-366.5" font-family="Helvetica,sans-Serif" font-size="10.00">std::string</text>
<polyline fill="none" stroke="#bfbfbf" points="38.5,-359.5 98.5,-359.5 "/>
<text text-anchor="middle" x="68.5" y="-347.5" font-family="Helvetica,sans-Serif" font-size="10.00"> </text>
<polyline fill="none" stroke="#bfbfbf" points="38.5,-340.5 98.5,-340.5 "/>
<text text-anchor="middle" x="68.5" y="-328.5" font-family="Helvetica,sans-Serif" font-size="10.00"> </text>
</a>
</g>
</g>
<!-- Node5&#45;&gt;Node4 -->
<g id="edge2" class="edge"><title>Node5&#45;&gt;Node4</title>
<path fill="none" stroke="#404040" d="M68.5,-321.478C68.5,-311.009 68.5,-298.526 68.5,-285.818"/>
<polygon fill="none" stroke="#404040" points="68.5001,-285.623 64.5,-279.623 68.5,-273.623 72.5,-279.623 68.5001,-285.623"/>
<text text-anchor="middle" x="107" y="-295" font-family="Helvetica,sans-Serif" font-size="10.00"> #_str_nameFunc</text>
</g>
<!-- Node6 -->
<g id="node4" class="node"><title>Node6</title>
<g id="a_node4"><a xlink:title="STL class. ">
<polygon fill="white" stroke="#bfbfbf" points="21,-416.5 21,-484.5 116,-484.5 116,-416.5 21,-416.5"/>
<text text-anchor="start" x="29" y="-472.5" font-family="Helvetica,sans-Serif" font-size="10.00">std::basic_string&lt;</text>
<text text-anchor="middle" x="68.5" y="-461.5" font-family="Helvetica,sans-Serif" font-size="10.00"> char &gt;</text>
<polyline fill="none" stroke="#bfbfbf" points="21,-454.5 116,-454.5 "/>
<text text-anchor="middle" x="68.5" y="-442.5" font-family="Helvetica,sans-Serif" font-size="10.00"> </text>
<polyline fill="none" stroke="#bfbfbf" points="21,-435.5 116,-435.5 "/>
<text text-anchor="middle" x="68.5" y="-423.5" font-family="Helvetica,sans-Serif" font-size="10.00"> </text>
</a>
</g>
</g>
<!-- Node6&#45;&gt;Node5 -->
<g id="edge3" class="edge"><title>Node6&#45;&gt;Node5</title>
<path fill="none" stroke="midnightblue" d="M68.5,-406.375C68.5,-396.94 68.5,-387.201 68.5,-378.571"/>
<polygon fill="none" stroke="midnightblue" points="65.0001,-406.427 68.5,-416.427 72.0001,-406.427 65.0001,-406.427"/>
</g>
</g>
</svg>
