<?xml version="1.0" encoding="UTF-8" standalone="no"?>
<!DOCTYPE svg PUBLIC "-//W3C//DTD SVG 1.1//EN"
 "http://www.w3.org/Graphics/SVG/1.1/DTD/svg11.dtd">
<!-- Generated by graphviz version 2.38.0 (20140413.2041)
 -->
<!-- Title: ds::PartitionLinked::subInstanceFromCluster Pages: 1 -->
<svg width="868pt" height="88pt"
 viewBox="0.00 0.00 868.00 88.00" xmlns="http://www.w3.org/2000/svg" xmlns:xlink="http://www.w3.org/1999/xlink">
<g id="graph0" class="graph" transform="scale(1 1) rotate(0) translate(4 84)">
<title>ds::PartitionLinked::subInstanceFromCluster</title>
<polygon fill="white" stroke="none" points="-4,4 -4,-84 864,-84 864,4 -4,4"/>
<!-- Node61 -->
<g id="node1" class="node"><title>Node61</title>
<polygon fill="#bfbfbf" stroke="black" points="0,-5.5 0,-35.5 131,-35.5 131,-5.5 0,-5.5"/>
<text text-anchor="start" x="8" y="-23.5" font-family="Helvetica,sans-Serif" font-size="10.00">ds::PartitionLinked</text>
<text text-anchor="middle" x="65.5" y="-12.5" font-family="Helvetica,sans-Serif" font-size="10.00">::subInstanceFromCluster</text>
</g>
<!-- Node62 -->
<g id="node2" class="node"><title>Node62</title>
<g id="a_node2"><a xlink:href="classds_1_1_partition_linked.html#abfd8979dbdeee0fda9d8cb22aa9062ed" target="_top" xlink:title="ds::PartitionLinked\l::changeMemberShip">
<polygon fill="white" stroke="black" points="167,-5.5 167,-35.5 280,-35.5 280,-5.5 167,-5.5"/>
<text text-anchor="start" x="175" y="-23.5" font-family="Helvetica,sans-Serif" font-size="10.00">ds::PartitionLinked</text>
<text text-anchor="middle" x="223.5" y="-12.5" font-family="Helvetica,sans-Serif" font-size="10.00">::changeMemberShip</text>
</a>
</g>
</g>
<!-- Node61&#45;&gt;Node62 -->
<g id="edge1" class="edge"><title>Node61&#45;&gt;Node62</title>
<path fill="none" stroke="midnightblue" d="M131.303,-13.8366C139.635,-13.7263 148.174,-13.7214 156.524,-13.8218"/>
<polygon fill="midnightblue" stroke="midnightblue" points="156.531,-17.3223 166.59,-13.9966 156.652,-10.3234 156.531,-17.3223"/>
</g>
<!-- Node62&#45;&gt;Node61 -->
<g id="edge8" class="edge"><title>Node62&#45;&gt;Node61</title>
<path fill="none" stroke="midnightblue" d="M166.59,-27.0034C158.458,-27.1896 149.977,-27.2703 141.542,-27.2457"/>
<polygon fill="midnightblue" stroke="midnightblue" points="141.331,-23.744 131.303,-27.1634 141.274,-30.7437 141.331,-23.744"/>
</g>
<!-- Node63 -->
<g id="node3" class="node"><title>Node63</title>
<g id="a_node3"><a xlink:href="classds_1_1_partition_linked.html#a4013f0d8892069abc3fe9c05103d60e0" target="_top" xlink:title="ds::PartitionLinked\l::addInstanceToCluster">
<polygon fill="white" stroke="black" points="322.5,-49.5 322.5,-79.5 445.5,-79.5 445.5,-49.5 322.5,-49.5"/>
<text text-anchor="start" x="330.5" y="-67.5" font-family="Helvetica,sans-Serif" font-size="10.00">ds::PartitionLinked</text>
<text text-anchor="middle" x="384" y="-56.5" font-family="Helvetica,sans-Serif" font-size="10.00">::addInstanceToCluster</text>
</a>
</g>
</g>
<!-- Node62&#45;&gt;Node63 -->
<g id="edge2" class="edge"><title>Node62&#45;&gt;Node63</title>
<path fill="none" stroke="midnightblue" d="M278.603,-35.5192C291.665,-39.1452 305.744,-43.0534 319.203,-46.7899"/>
<polygon fill="midnightblue" stroke="midnightblue" points="318.3,-50.1713 328.872,-49.4738 320.172,-43.4264 318.3,-50.1713"/>
</g>
<!-- Node64 -->
<g id="node4" class="node"><title>Node64</title>
<g id="a_node4"><a xlink:href="classds_1_1_partition_linked.html#aaa302ea8b39c37c44507bf4276ffa8f2" target="_top" xlink:title="ds::PartitionLinked\l::getInstanceIdxOfClusterK">
<polygon fill="white" stroke="black" points="316,-0.5 316,-30.5 452,-30.5 452,-0.5 316,-0.5"/>
<text text-anchor="start" x="324" y="-18.5" font-family="Helvetica,sans-Serif" font-size="10.00">ds::PartitionLinked</text>
<text text-anchor="middle" x="384" y="-7.5" font-family="Helvetica,sans-Serif" font-size="10.00">::getInstanceIdxOfClusterK</text>
</a>
</g>
</g>
<!-- Node62&#45;&gt;Node64 -->
<g id="edge4" class="edge"><title>Node62&#45;&gt;Node64</title>
<path fill="none" stroke="midnightblue" d="M280.381,-18.7372C288.645,-18.4765 297.281,-18.2041 305.883,-17.9327"/>
<polygon fill="midnightblue" stroke="midnightblue" points="306.058,-21.429 315.942,-17.6154 305.837,-14.4325 306.058,-21.429"/>
</g>
<!-- Node63&#45;&gt;Node61 -->
<g id="edge3" class="edge"><title>Node63&#45;&gt;Node61</title>
<path fill="none" stroke="midnightblue" d="M322.187,-61.1843C278.745,-58.253 219.023,-53.0755 167,-44.5 155.98,-42.6834 144.375,-40.3308 133.123,-37.8104"/>
<polygon fill="midnightblue" stroke="midnightblue" points="133.878,-34.3929 123.348,-35.5616 132.309,-41.2147 133.878,-34.3929"/>
</g>
<!-- Node65 -->
<g id="node5" class="node"><title>Node65</title>
<g id="a_node5"><a xlink:href="classds_1_1_partition_linked.html#a1a20dd710247ebccba848e555f9ad9e6" target="_top" xlink:title="ds::PartitionLinked\l::joinCluster">
<polygon fill="white" stroke="black" points="488,-0.5 488,-30.5 588,-30.5 588,-0.5 488,-0.5"/>
<text text-anchor="start" x="496" y="-18.5" font-family="Helvetica,sans-Serif" font-size="10.00">ds::PartitionLinked</text>
<text text-anchor="middle" x="538" y="-7.5" font-family="Helvetica,sans-Serif" font-size="10.00">::joinCluster</text>
</a>
</g>
</g>
<!-- Node64&#45;&gt;Node65 -->
<g id="edge5" class="edge"><title>Node64&#45;&gt;Node65</title>
<path fill="none" stroke="midnightblue" d="M452.112,-15.5C460.593,-15.5 469.224,-15.5 477.574,-15.5"/>
<polygon fill="midnightblue" stroke="midnightblue" points="477.591,-19.0001 487.591,-15.5 477.591,-12.0001 477.591,-19.0001"/>
</g>
<!-- Node66 -->
<g id="node6" class="node"><title>Node66</title>
<g id="a_node6"><a xlink:href="classds_1_1_partition_linked.html#a6a7de3bc18b0904e2e23536a336e42a8" target="_top" xlink:title="ds::PartitionLinked\l::print">
<polygon fill="white" stroke="black" points="624,-0.5 624,-30.5 724,-30.5 724,-0.5 624,-0.5"/>
<text text-anchor="start" x="632" y="-18.5" font-family="Helvetica,sans-Serif" font-size="10.00">ds::PartitionLinked</text>
<text text-anchor="middle" x="674" y="-7.5" font-family="Helvetica,sans-Serif" font-size="10.00">::print</text>
</a>
</g>
</g>
<!-- Node65&#45;&gt;Node66 -->
<g id="edge6" class="edge"><title>Node65&#45;&gt;Node66</title>
<path fill="none" stroke="midnightblue" d="M588.136,-15.5C596.42,-15.5 605.097,-15.5 613.608,-15.5"/>
<polygon fill="midnightblue" stroke="midnightblue" points="613.87,-19.0001 623.87,-15.5 613.87,-12.0001 613.87,-19.0001"/>
</g>
<!-- Node67 -->
<g id="node7" class="node"><title>Node67</title>
<g id="a_node7"><a xlink:href="classds_1_1_partition_linked.html#a696f58c4d25fd41adf281d1468440dc9" target="_top" xlink:title="ds::PartitionLinked\l::getNumPartitions">
<polygon fill="white" stroke="black" points="760,-0.5 760,-30.5 860,-30.5 860,-0.5 760,-0.5"/>
<text text-anchor="start" x="768" y="-18.5" font-family="Helvetica,sans-Serif" font-size="10.00">ds::PartitionLinked</text>
<text text-anchor="middle" x="810" y="-7.5" font-family="Helvetica,sans-Serif" font-size="10.00">::getNumPartitions</text>
</a>
</g>
</g>
<!-- Node66&#45;&gt;Node67 -->
<g id="edge7" class="edge"><title>Node66&#45;&gt;Node67</title>
<path fill="none" stroke="midnightblue" d="M724.136,-15.5C732.42,-15.5 741.097,-15.5 749.608,-15.5"/>
<polygon fill="midnightblue" stroke="midnightblue" points="749.87,-19.0001 759.87,-15.5 749.87,-12.0001 749.87,-19.0001"/>
</g>
</g>
</svg>
