<?xml version="1.0" encoding="UTF-8" standalone="no"?>
<!DOCTYPE svg PUBLIC "-//W3C//DTD SVG 1.1//EN"
 "http://www.w3.org/Graphics/SVG/1.1/DTD/svg11.dtd">
<!-- Generated by graphviz version 2.38.0 (20140413.2041)
 -->
<!-- Title: gaencode::ChromosomeFEAC::getPartialFcC Pages: 1 -->
<svg width="358pt" height="39pt"
 viewBox="0.00 0.00 358.00 39.00" xmlns="http://www.w3.org/2000/svg" xmlns:xlink="http://www.w3.org/1999/xlink">
<g id="graph0" class="graph" transform="scale(1 1) rotate(0) translate(4 35)">
<title>gaencode::ChromosomeFEAC::getPartialFcC</title>
<polygon fill="white" stroke="none" points="-4,4 -4,-35 354,-35 354,4 -4,4"/>
<!-- Node28 -->
<g id="node1" class="node"><title>Node28</title>
<polygon fill="#bfbfbf" stroke="black" points="0,-0.5 0,-30.5 157,-30.5 157,-0.5 0,-0.5"/>
<text text-anchor="start" x="8" y="-18.5" font-family="Helvetica,sans-Serif" font-size="10.00">gaencode::ChromosomeFEAC</text>
<text text-anchor="middle" x="78.5" y="-7.5" font-family="Helvetica,sans-Serif" font-size="10.00">::getPartialFcC</text>
</g>
<!-- Node29 -->
<g id="node2" class="node"><title>Node29</title>
<g id="a_node2"><a xlink:href="classgaencode_1_1_chromosome_f_e_a_c.html#afd8a7f77380a4e25f514ccf5f301005a" target="_top" xlink:title="gaencode::ChromosomeFEAC\l::setAppliedOperator">
<polygon fill="white" stroke="black" points="193,-0.5 193,-30.5 350,-30.5 350,-0.5 193,-0.5"/>
<text text-anchor="start" x="201" y="-18.5" font-family="Helvetica,sans-Serif" font-size="10.00">gaencode::ChromosomeFEAC</text>
<text text-anchor="middle" x="271.5" y="-7.5" font-family="Helvetica,sans-Serif" font-size="10.00">::setAppliedOperator</text>
</a>
</g>
</g>
<!-- Node28&#45;&gt;Node29 -->
<g id="edge1" class="edge"><title>Node28&#45;&gt;Node29</title>
<path fill="none" stroke="midnightblue" d="M157.187,-15.5C165.65,-15.5 174.306,-15.5 182.876,-15.5"/>
<polygon fill="midnightblue" stroke="midnightblue" points="182.882,-19.0001 192.882,-15.5 182.882,-12.0001 182.882,-19.0001"/>
</g>
</g>
</svg>
