<?xml version="1.0" encoding="UTF-8" standalone="no"?>
<!DOCTYPE svg PUBLIC "-//W3C//DTD SVG 1.1//EN"
 "http://www.w3.org/Graphics/SVG/1.1/DTD/svg11.dtd">
<!-- Generated by graphviz version 2.38.0 (20140413.2041)
 -->
<!-- Title: inout::InParamReadInst&lt; T_FEATURE, T_INSTANCES_CLUSTER_K, T_CLUSTERIDX &gt; Pages: 1 -->
<svg width="312pt" height="667pt"
 viewBox="0.00 0.00 311.50 667.00" xmlns="http://www.w3.org/2000/svg" xmlns:xlink="http://www.w3.org/1999/xlink">
<g id="graph0" class="graph" transform="scale(1 1) rotate(0) translate(4 663)">
<title>inout::InParamReadInst&lt; T_FEATURE, T_INSTANCES_CLUSTER_K, T_CLUSTERIDX &gt;</title>
<polygon fill="white" stroke="none" points="-4,4 -4,-663 307.5,-663 307.5,4 -4,4"/>
<!-- Node28 -->
<g id="node1" class="node"><title>Node28</title>
<g id="a_node1"><a xlink:title="Input parameter for read instances.">
<polygon fill="#bfbfbf" stroke="black" points="50,-0.5 50,-321.5 221,-321.5 221,-0.5 50,-0.5"/>
<text text-anchor="start" x="58" y="-309.5" font-family="Helvetica,sans-Serif" font-size="10.00">inout::InParamReadInst</text>
<text text-anchor="start" x="58" y="-298.5" font-family="Helvetica,sans-Serif" font-size="10.00">&lt; T_FEATURE, T_INSTANCES</text>
<text text-anchor="middle" x="135.5" y="-287.5" font-family="Helvetica,sans-Serif" font-size="10.00">_CLUSTER_K, T_CLUSTERIDX &gt;</text>
<polyline fill="none" stroke="black" points="50,-280.5 221,-280.5 "/>
<text text-anchor="start" x="58" y="-268.5" font-family="Helvetica,sans-Serif" font-size="10.00"># _ui_idxCurrentFileInstance</text>
<text text-anchor="start" x="58" y="-257.5" font-family="Helvetica,sans-Serif" font-size="10.00"># _enum_formatInstanceFile</text>
<text text-anchor="start" x="58" y="-246.5" font-family="Helvetica,sans-Serif" font-size="10.00"># _b_haveHeaderFile</text>
<text text-anchor="start" x="58" y="-235.5" font-family="Helvetica,sans-Serif" font-size="10.00"># _ui_classInstanceColumn</text>
<text text-anchor="start" x="58" y="-224.5" font-family="Helvetica,sans-Serif" font-size="10.00"># _ui_clusterInstanceColumn</text>
<text text-anchor="start" x="58" y="-213.5" font-family="Helvetica,sans-Serif" font-size="10.00"># _ui_idInstanceColumn</text>
<text text-anchor="start" x="58" y="-202.5" font-family="Helvetica,sans-Serif" font-size="10.00"># _ui_instancesFrequencyColumn</text>
<text text-anchor="start" x="58" y="-191.5" font-family="Helvetica,sans-Serif" font-size="10.00"># _ui_idMultiInstanceColumn</text>
<text text-anchor="start" x="58" y="-180.5" font-family="Helvetica,sans-Serif" font-size="10.00"># _ui_classMultiInstColumn</text>
<text text-anchor="start" x="58" y="-169.5" font-family="Helvetica,sans-Serif" font-size="10.00"># _ui_numInstances</text>
<text text-anchor="start" x="58" y="-158.5" font-family="Helvetica,sans-Serif" font-size="10.00"># _ui_numDimensionsInstances</text>
<text text-anchor="start" x="58" y="-147.5" font-family="Helvetica,sans-Serif" font-size="10.00"># _ui_numInstancesTest</text>
<text text-anchor="start" x="58" y="-136.5" font-family="Helvetica,sans-Serif" font-size="10.00"># _b_printMulLine</text>
<polyline fill="none" stroke="black" points="50,-129.5 221,-129.5 "/>
<text text-anchor="start" x="58" y="-117.5" font-family="Helvetica,sans-Serif" font-size="10.00">+ InParamReadInst()</text>
<text text-anchor="start" x="58" y="-106.5" font-family="Helvetica,sans-Serif" font-size="10.00">+ InParamReadInst()</text>
<text text-anchor="start" x="58" y="-95.5" font-family="Helvetica,sans-Serif" font-size="10.00">+ ~InParamReadInst()</text>
<text text-anchor="start" x="58" y="-84.5" font-family="Helvetica,sans-Serif" font-size="10.00">+ clearVectorFilesInstance()</text>
<text text-anchor="start" x="58" y="-73.5" font-family="Helvetica,sans-Serif" font-size="10.00">+ getVectorFilesInstance()</text>
<text text-anchor="start" x="58" y="-62.5" font-family="Helvetica,sans-Serif" font-size="10.00">+ setVectorFilesInstance()</text>
<text text-anchor="start" x="58" y="-51.5" font-family="Helvetica,sans-Serif" font-size="10.00">+ getNumFilesInstance()</text>
<text text-anchor="start" x="58" y="-40.5" font-family="Helvetica,sans-Serif" font-size="10.00">+ setVectorFilesInstanceTest()</text>
<text text-anchor="start" x="58" y="-29.5" font-family="Helvetica,sans-Serif" font-size="10.00">+ getVectorFilesInstanceTest()</text>
<text text-anchor="start" x="58" y="-18.5" font-family="Helvetica,sans-Serif" font-size="10.00">+ getNumFilesInstanceTest()</text>
<text text-anchor="start" x="58" y="-7.5" font-family="Helvetica,sans-Serif" font-size="10.00">and 37 more...</text>
</a>
</g>
</g>
<!-- Node29 -->
<g id="node2" class="node"><title>Node29</title>
<g id="a_node2"><a xlink:title="STL class.">
<polygon fill="white" stroke="#bfbfbf" points="147.5,-485.5 147.5,-542.5 207.5,-542.5 207.5,-485.5 147.5,-485.5"/>
<text text-anchor="middle" x="177.5" y="-530.5" font-family="Helvetica,sans-Serif" font-size="10.00">std::string</text>
<polyline fill="none" stroke="#bfbfbf" points="147.5,-523.5 207.5,-523.5 "/>
<text text-anchor="middle" x="177.5" y="-511.5" font-family="Helvetica,sans-Serif" font-size="10.00"> </text>
<polyline fill="none" stroke="#bfbfbf" points="147.5,-504.5 207.5,-504.5 "/>
<text text-anchor="middle" x="177.5" y="-492.5" font-family="Helvetica,sans-Serif" font-size="10.00"> </text>
</a>
</g>
</g>
<!-- Node29&#45;&gt;Node28 -->
<g id="edge1" class="edge"><title>Node29&#45;&gt;Node28</title>
<path fill="none" stroke="#404040" d="M184.598,-485.298C192.376,-451.022 202.724,-390.947 194.5,-340 194.146,-337.805 193.768,-335.601 193.37,-333.39"/>
<polygon fill="none" stroke="#404040" points="193.348,-333.278 188.268,-328.16 191.039,-321.503 196.119,-326.621 193.348,-333.278"/>
<text text-anchor="middle" x="251" y="-412" font-family="Helvetica,sans-Serif" font-size="10.00"> #_ps_selectAttributes</text>
<text text-anchor="middle" x="251" y="-401" font-family="Helvetica,sans-Serif" font-size="10.00">#_s_separatorAttributes</text>
</g>
<!-- Node31 -->
<g id="node4" class="node"><title>Node31</title>
<g id="a_node4"><a xlink:title=" ">
<polygon fill="white" stroke="#bfbfbf" points="0,-380.5 0,-437.5 125,-437.5 125,-380.5 0,-380.5"/>
<text text-anchor="middle" x="62.5" y="-425.5" font-family="Helvetica,sans-Serif" font-size="10.00">std::vector&lt; std::string &gt;</text>
<polyline fill="none" stroke="#bfbfbf" points="0,-418.5 125,-418.5 "/>
<text text-anchor="middle" x="62.5" y="-406.5" font-family="Helvetica,sans-Serif" font-size="10.00"> </text>
<polyline fill="none" stroke="#bfbfbf" points="0,-399.5 125,-399.5 "/>
<text text-anchor="middle" x="62.5" y="-387.5" font-family="Helvetica,sans-Serif" font-size="10.00"> </text>
</a>
</g>
</g>
<!-- Node29&#45;&gt;Node31 -->
<g id="edge4" class="edge"><title>Node29&#45;&gt;Node31</title>
<path fill="none" stroke="#404040" d="M151.151,-485.382C141.711,-475.831 130.843,-465.218 120.5,-456 116.506,-452.441 112.278,-448.823 107.997,-445.259"/>
<polygon fill="none" stroke="#404040" points="107.903,-445.182 100.726,-444.483 98.611,-437.589 105.788,-438.288 107.903,-445.182"/>
<text text-anchor="middle" x="158" y="-459" font-family="Helvetica,sans-Serif" font-size="10.00"> +elements</text>
</g>
<!-- Node30 -->
<g id="node3" class="node"><title>Node30</title>
<g id="a_node3"><a xlink:title="STL class.">
<polygon fill="white" stroke="#bfbfbf" points="130,-590.5 130,-658.5 225,-658.5 225,-590.5 130,-590.5"/>
<text text-anchor="start" x="138" y="-646.5" font-family="Helvetica,sans-Serif" font-size="10.00">std::basic_string&lt;</text>
<text text-anchor="middle" x="177.5" y="-635.5" font-family="Helvetica,sans-Serif" font-size="10.00"> char &gt;</text>
<polyline fill="none" stroke="#bfbfbf" points="130,-628.5 225,-628.5 "/>
<text text-anchor="middle" x="177.5" y="-616.5" font-family="Helvetica,sans-Serif" font-size="10.00"> </text>
<polyline fill="none" stroke="#bfbfbf" points="130,-609.5 225,-609.5 "/>
<text text-anchor="middle" x="177.5" y="-597.5" font-family="Helvetica,sans-Serif" font-size="10.00"> </text>
</a>
</g>
</g>
<!-- Node30&#45;&gt;Node29 -->
<g id="edge2" class="edge"><title>Node30&#45;&gt;Node29</title>
<path fill="none" stroke="midnightblue" d="M177.5,-580.064C177.5,-567.511 177.5,-554.152 177.5,-542.827"/>
<polygon fill="none" stroke="midnightblue" points="174,-580.357 177.5,-590.357 181,-580.357 174,-580.357"/>
</g>
<!-- Node31&#45;&gt;Node28 -->
<g id="edge3" class="edge"><title>Node31&#45;&gt;Node28</title>
<path fill="none" stroke="#404040" d="M60.612,-380.292C60.3507,-367.859 60.8554,-353.077 63.5,-340 63.9393,-337.828 64.4044,-335.648 64.8935,-333.463"/>
<polygon fill="none" stroke="#404040" points="64.9084,-333.402 62.4314,-326.629 67.73,-321.738 70.2071,-328.51 64.9084,-333.402"/>
<text text-anchor="middle" x="129" y="-354" font-family="Helvetica,sans-Serif" font-size="10.00"> #_vectorstr_filesInstance</text>
<text text-anchor="middle" x="129" y="-343" font-family="Helvetica,sans-Serif" font-size="10.00">#_vectorstr_filesInstanceTest</text>
</g>
<!-- Node32 -->
<g id="node5" class="node"><title>Node32</title>
<g id="a_node5"><a xlink:title="STL class.">
<polygon fill="white" stroke="#bfbfbf" points="10,-485.5 10,-542.5 99,-542.5 99,-485.5 10,-485.5"/>
<text text-anchor="middle" x="54.5" y="-530.5" font-family="Helvetica,sans-Serif" font-size="10.00">std::vector&lt; T &gt;</text>
<polyline fill="none" stroke="#bfbfbf" points="10,-523.5 99,-523.5 "/>
<text text-anchor="middle" x="54.5" y="-511.5" font-family="Helvetica,sans-Serif" font-size="10.00"> </text>
<polyline fill="none" stroke="#bfbfbf" points="10,-504.5 99,-504.5 "/>
<text text-anchor="middle" x="54.5" y="-492.5" font-family="Helvetica,sans-Serif" font-size="10.00"> </text>
</a>
</g>
</g>
<!-- Node32&#45;&gt;Node31 -->
<g id="edge5" class="edge"><title>Node32&#45;&gt;Node31</title>
<path fill="none" stroke="orange" d="M54.4612,-474.988C54.657,-468.64 54.9823,-462.128 55.5,-456 56.0032,-450.043 56.8004,-443.687 57.6796,-437.659"/>
<polygon fill="orange" stroke="orange" points="50.953,-475.349 54.2428,-485.42 57.9514,-475.495 50.953,-475.349"/>
<text text-anchor="middle" x="88" y="-459" font-family="Helvetica,sans-Serif" font-size="10.00"> &lt; std::string &gt;</text>
</g>
<!-- Node33 -->
<g id="node6" class="node"><title>Node33</title>
<g id="a_node6"><a xlink:title=" ">
<polygon fill="white" stroke="#bfbfbf" points="40,-596 40,-653 69,-653 69,-596 40,-596"/>
<text text-anchor="middle" x="54.5" y="-641" font-family="Helvetica,sans-Serif" font-size="10.00">T</text>
<polyline fill="none" stroke="#bfbfbf" points="40,-634 69,-634 "/>
<text text-anchor="middle" x="54.5" y="-622" font-family="Helvetica,sans-Serif" font-size="10.00"> </text>
<polyline fill="none" stroke="#bfbfbf" points="40,-615 69,-615 "/>
<text text-anchor="middle" x="54.5" y="-603" font-family="Helvetica,sans-Serif" font-size="10.00"> </text>
</a>
</g>
</g>
<!-- Node33&#45;&gt;Node32 -->
<g id="edge6" class="edge"><title>Node33&#45;&gt;Node32</title>
<path fill="none" stroke="#404040" d="M54.5,-595.84C54.5,-583.342 54.5,-568.342 54.5,-554.676"/>
<polygon fill="none" stroke="#404040" points="54.5001,-554.609 50.5,-548.609 54.5,-542.609 58.5,-548.609 54.5001,-554.609"/>
<text text-anchor="middle" x="80" y="-564" font-family="Helvetica,sans-Serif" font-size="10.00"> +elements</text>
</g>
</g>
</svg>
