<?xml version="1.0" encoding="UTF-8" standalone="no"?>
<!DOCTYPE svg PUBLIC "-//W3C//DTD SVG 1.1//EN"
 "http://www.w3.org/Graphics/SVG/1.1/DTD/svg11.dtd">
<!-- Generated by graphviz version 2.38.0 (20140413.2041)
 -->
<!-- Title: inout::InParamReadInst&lt; T_FEATURE, T_INSTANCES_CLUSTER_K, T_CLUSTERIDX &gt; Pages: 1 -->
<!--zoomable 656 -->
<svg id="main" version="1.1" xmlns="http://www.w3.org/2000/svg" xmlns:xlink="http://www.w3.org/1999/xlink" xml:space="preserve" onload="init(evt)">
<style type="text/css"><![CDATA[
.edge:hover path { stroke: red; }
.edge:hover polygon { stroke: red; fill: red; }
]]></style>
<script type="text/javascript"><![CDATA[
var edges = document.getElementsByTagName('g');
if (edges && edges.length) {
  for (var i=0;i<edges.length;i++) {
    if (edges[i].id.substr(0,4)=='edge') {
      edges[i].setAttribute('class','edge');
    }
  }
}
]]></script>
        <defs>
                <circle id="rim" cx="0" cy="0" r="7"/>
                <circle id="rim2" cx="0" cy="0" r="3.5"/>
                <g id="zoomPlus">
                        <use xlink:href="#rim" fill="#404040">
                                <set attributeName="fill" to="#808080" begin="zoomplus.mouseover" end="zoomplus.mouseout"/>
                        </use>
                        <path d="M-4,0h8M0,-4v8" fill="none" stroke="white" stroke-width="1.5" pointer-events="none"/>
                </g>
                <g id="zoomMin">
                        <use xlink:href="#rim" fill="#404040">
                                <set attributeName="fill" to="#808080" begin="zoomminus.mouseover" end="zoomminus.mouseout"/>
                        </use>
                        <path d="M-4,0h8" fill="none" stroke="white" stroke-width="1.5" pointer-events="none"/>
                </g>
                <g id="dirArrow">
                        <path fill="none" stroke="white" stroke-width="1.5" d="M0,-3.0v7 M-2.5,-0.5L0,-3.0L2.5,-0.5"/>
                </g>
               <g id="resetDef">
                       <use xlink:href="#rim2" fill="#404040">
                               <set attributeName="fill" to="#808080" begin="reset.mouseover" end="reset.mouseout"/>
                       </use>
               </g>
        </defs>

<script type="text/javascript">
var viewWidth = 312;
var viewHeight = 656;
var sectionId = 'dynsection-1';
</script>
<script xlink:href="svgpan.js"/>
<svg id="graph" class="graph">
<g id="viewport">
<title>inout::InParamReadInst&lt; T_FEATURE, T_INSTANCES_CLUSTER_K, T_CLUSTERIDX &gt;</title>
<polygon fill="white" stroke="none" points="-4,4 -4,-652 307.5,-652 307.5,4 -4,4"/>
<!-- Node28 -->
<g id="node1" class="node"><title>Node28</title>
<polygon fill="#bfbfbf" stroke="black" points="50,-0.5 50,-310.5 221,-310.5 221,-0.5 50,-0.5"/>
<text text-anchor="start" x="58" y="-298.5" font-family="Helvetica,sans-Serif" font-size="10.00">inout::InParamReadInst</text>
<text text-anchor="start" x="58" y="-287.5" font-family="Helvetica,sans-Serif" font-size="10.00">&lt; T_FEATURE, T_INSTANCES</text>
<text text-anchor="middle" x="135.5" y="-276.5" font-family="Helvetica,sans-Serif" font-size="10.00">_CLUSTER_K, T_CLUSTERIDX &gt;</text>
<polyline fill="none" stroke="black" points="50,-269.5 221,-269.5 "/>
<text text-anchor="start" x="58" y="-257.5" font-family="Helvetica,sans-Serif" font-size="10.00"># _ui_idxCurrentFileInstance</text>
<text text-anchor="start" x="58" y="-246.5" font-family="Helvetica,sans-Serif" font-size="10.00"># _enum_formatInstanceFile</text>
<text text-anchor="start" x="58" y="-235.5" font-family="Helvetica,sans-Serif" font-size="10.00"># _b_haveHeaderFile</text>
<text text-anchor="start" x="58" y="-224.5" font-family="Helvetica,sans-Serif" font-size="10.00"># _ui_classInstanceColumn</text>
<text text-anchor="start" x="58" y="-213.5" font-family="Helvetica,sans-Serif" font-size="10.00"># _ui_clusterInstanceColumn</text>
<text text-anchor="start" x="58" y="-202.5" font-family="Helvetica,sans-Serif" font-size="10.00"># _ui_idInstanceColumn</text>
<text text-anchor="start" x="58" y="-191.5" font-family="Helvetica,sans-Serif" font-size="10.00"># _ui_instancesFrequencyColumn</text>
<text text-anchor="start" x="58" y="-180.5" font-family="Helvetica,sans-Serif" font-size="10.00"># _ui_idMultiInstanceColumn</text>
<text text-anchor="start" x="58" y="-169.5" font-family="Helvetica,sans-Serif" font-size="10.00"># _ui_classMultiInstColumn</text>
<text text-anchor="start" x="58" y="-158.5" font-family="Helvetica,sans-Serif" font-size="10.00"># _ui_numInstances</text>
<text text-anchor="start" x="58" y="-147.5" font-family="Helvetica,sans-Serif" font-size="10.00"># _ui_numDimensionsInstances</text>
<text text-anchor="start" x="58" y="-136.5" font-family="Helvetica,sans-Serif" font-size="10.00"># _ui_numInstancesTest</text>
<polyline fill="none" stroke="black" points="50,-129.5 221,-129.5 "/>
<text text-anchor="start" x="58" y="-117.5" font-family="Helvetica,sans-Serif" font-size="10.00">+ InParamReadInst()</text>
<text text-anchor="start" x="58" y="-106.5" font-family="Helvetica,sans-Serif" font-size="10.00">+ InParamReadInst()</text>
<text text-anchor="start" x="58" y="-95.5" font-family="Helvetica,sans-Serif" font-size="10.00">+ ~InParamReadInst()</text>
<text text-anchor="start" x="58" y="-84.5" font-family="Helvetica,sans-Serif" font-size="10.00">+ clearVectorFilesInstance()</text>
<text text-anchor="start" x="58" y="-73.5" font-family="Helvetica,sans-Serif" font-size="10.00">+ getVectorFilesInstance()</text>
<text text-anchor="start" x="58" y="-62.5" font-family="Helvetica,sans-Serif" font-size="10.00">+ setVectorFilesInstance()</text>
<text text-anchor="start" x="58" y="-51.5" font-family="Helvetica,sans-Serif" font-size="10.00">+ getNumFilesInstance()</text>
<text text-anchor="start" x="58" y="-40.5" font-family="Helvetica,sans-Serif" font-size="10.00">+ setVectorFilesInstanceTest()</text>
<text text-anchor="start" x="58" y="-29.5" font-family="Helvetica,sans-Serif" font-size="10.00">+ getVectorFilesInstanceTest()</text>
<text text-anchor="start" x="58" y="-18.5" font-family="Helvetica,sans-Serif" font-size="10.00">+ getNumFilesInstanceTest()</text>
<text text-anchor="start" x="58" y="-7.5" font-family="Helvetica,sans-Serif" font-size="10.00">and 35 more...</text>
</g>
<!-- Node29 -->
<g id="node2" class="node"><title>Node29</title>
<g id="a_node2"><a xlink:title="STL class. ">
<polygon fill="white" stroke="#bfbfbf" points="147.5,-474.5 147.5,-531.5 207.5,-531.5 207.5,-474.5 147.5,-474.5"/>
<text text-anchor="middle" x="177.5" y="-519.5" font-family="Helvetica,sans-Serif" font-size="10.00">std::string</text>
<polyline fill="none" stroke="#bfbfbf" points="147.5,-512.5 207.5,-512.5 "/>
<text text-anchor="middle" x="177.5" y="-500.5" font-family="Helvetica,sans-Serif" font-size="10.00"> </text>
<polyline fill="none" stroke="#bfbfbf" points="147.5,-493.5 207.5,-493.5 "/>
<text text-anchor="middle" x="177.5" y="-481.5" font-family="Helvetica,sans-Serif" font-size="10.00"> </text>
</a>
</g>
</g>
<!-- Node29&#45;&gt;Node28 -->
<g id="edge1" class="edge"><title>Node29&#45;&gt;Node28</title>
<path fill="none" stroke="#404040" d="M184.678,-474.285C192.536,-439.995 202.965,-379.908 194.5,-329 194.136,-326.812 193.748,-324.615 193.337,-322.41"/>
<polygon fill="none" stroke="#404040" points="193.319,-322.322 188.206,-317.237 190.933,-310.561 196.046,-315.646 193.319,-322.322"/>
<text text-anchor="middle" x="251" y="-401" font-family="Helvetica,sans-Serif" font-size="10.00"> #_ps_selectAttributes</text>
<text text-anchor="middle" x="251" y="-390" font-family="Helvetica,sans-Serif" font-size="10.00">#_s_separatorAttributes</text>
</g>
<!-- Node31 -->
<g id="node4" class="node"><title>Node31</title>
<polygon fill="white" stroke="#bfbfbf" points="0,-369.5 0,-426.5 125,-426.5 125,-369.5 0,-369.5"/>
<text text-anchor="middle" x="62.5" y="-414.5" font-family="Helvetica,sans-Serif" font-size="10.00">std::vector&lt; std::string &gt;</text>
<polyline fill="none" stroke="#bfbfbf" points="0,-407.5 125,-407.5 "/>
<text text-anchor="middle" x="62.5" y="-395.5" font-family="Helvetica,sans-Serif" font-size="10.00"> </text>
<polyline fill="none" stroke="#bfbfbf" points="0,-388.5 125,-388.5 "/>
<text text-anchor="middle" x="62.5" y="-376.5" font-family="Helvetica,sans-Serif" font-size="10.00"> </text>
</g>
<!-- Node29&#45;&gt;Node31 -->
<g id="edge4" class="edge"><title>Node29&#45;&gt;Node31</title>
<path fill="none" stroke="#404040" d="M151.151,-474.382C141.711,-464.831 130.843,-454.218 120.5,-445 116.506,-441.441 112.278,-437.823 107.997,-434.259"/>
<polygon fill="none" stroke="#404040" points="107.903,-434.182 100.726,-433.483 98.611,-426.589 105.788,-427.288 107.903,-434.182"/>
<text text-anchor="middle" x="158" y="-448" font-family="Helvetica,sans-Serif" font-size="10.00"> +elements</text>
</g>
<!-- Node30 -->
<g id="node3" class="node"><title>Node30</title>
<g id="a_node3"><a xlink:title="STL class. ">
<polygon fill="white" stroke="#bfbfbf" points="130,-579.5 130,-647.5 225,-647.5 225,-579.5 130,-579.5"/>
<text text-anchor="start" x="138" y="-635.5" font-family="Helvetica,sans-Serif" font-size="10.00">std::basic_string&lt;</text>
<text text-anchor="middle" x="177.5" y="-624.5" font-family="Helvetica,sans-Serif" font-size="10.00"> char &gt;</text>
<polyline fill="none" stroke="#bfbfbf" points="130,-617.5 225,-617.5 "/>
<text text-anchor="middle" x="177.5" y="-605.5" font-family="Helvetica,sans-Serif" font-size="10.00"> </text>
<polyline fill="none" stroke="#bfbfbf" points="130,-598.5 225,-598.5 "/>
<text text-anchor="middle" x="177.5" y="-586.5" font-family="Helvetica,sans-Serif" font-size="10.00"> </text>
</a>
</g>
</g>
<!-- Node30&#45;&gt;Node29 -->
<g id="edge2" class="edge"><title>Node30&#45;&gt;Node29</title>
<path fill="none" stroke="midnightblue" d="M177.5,-569.064C177.5,-556.511 177.5,-543.152 177.5,-531.827"/>
<polygon fill="none" stroke="midnightblue" points="174,-569.357 177.5,-579.357 181,-569.357 174,-569.357"/>
</g>
<!-- Node31&#45;&gt;Node28 -->
<g id="edge3" class="edge"><title>Node31&#45;&gt;Node28</title>
<path fill="none" stroke="#404040" d="M60.5445,-369.278C60.2701,-356.842 60.7833,-342.062 63.5,-329 63.9512,-326.831 64.4296,-324.654 64.9333,-322.473"/>
<polygon fill="none" stroke="#404040" points="64.9487,-322.411 62.5234,-315.62 67.8591,-310.769 70.2845,-317.56 64.9487,-322.411"/>
<text text-anchor="middle" x="129" y="-343" font-family="Helvetica,sans-Serif" font-size="10.00"> #_vectorstr_filesInstance</text>
<text text-anchor="middle" x="129" y="-332" font-family="Helvetica,sans-Serif" font-size="10.00">#_vectorstr_filesInstanceTest</text>
</g>
<!-- Node32 -->
<g id="node5" class="node"><title>Node32</title>
<g id="a_node5"><a xlink:title="STL class. ">
<polygon fill="white" stroke="#bfbfbf" points="10,-474.5 10,-531.5 99,-531.5 99,-474.5 10,-474.5"/>
<text text-anchor="middle" x="54.5" y="-519.5" font-family="Helvetica,sans-Serif" font-size="10.00">std::vector&lt; T &gt;</text>
<polyline fill="none" stroke="#bfbfbf" points="10,-512.5 99,-512.5 "/>
<text text-anchor="middle" x="54.5" y="-500.5" font-family="Helvetica,sans-Serif" font-size="10.00"> </text>
<polyline fill="none" stroke="#bfbfbf" points="10,-493.5 99,-493.5 "/>
<text text-anchor="middle" x="54.5" y="-481.5" font-family="Helvetica,sans-Serif" font-size="10.00"> </text>
</a>
</g>
</g>
<!-- Node32&#45;&gt;Node31 -->
<g id="edge5" class="edge"><title>Node32&#45;&gt;Node31</title>
<path fill="none" stroke="orange" d="M54.4612,-463.988C54.657,-457.64 54.9823,-451.128 55.5,-445 56.0032,-439.043 56.8004,-432.687 57.6796,-426.659"/>
<polygon fill="orange" stroke="orange" points="50.953,-464.349 54.2428,-474.42 57.9514,-464.495 50.953,-464.349"/>
<text text-anchor="middle" x="88" y="-448" font-family="Helvetica,sans-Serif" font-size="10.00"> &lt; std::string &gt;</text>
</g>
<!-- Node33 -->
<g id="node6" class="node"><title>Node33</title>
<polygon fill="white" stroke="#bfbfbf" points="40,-585 40,-642 69,-642 69,-585 40,-585"/>
<text text-anchor="middle" x="54.5" y="-630" font-family="Helvetica,sans-Serif" font-size="10.00">T</text>
<polyline fill="none" stroke="#bfbfbf" points="40,-623 69,-623 "/>
<text text-anchor="middle" x="54.5" y="-611" font-family="Helvetica,sans-Serif" font-size="10.00"> </text>
<polyline fill="none" stroke="#bfbfbf" points="40,-604 69,-604 "/>
<text text-anchor="middle" x="54.5" y="-592" font-family="Helvetica,sans-Serif" font-size="10.00"> </text>
</g>
<!-- Node33&#45;&gt;Node32 -->
<g id="edge6" class="edge"><title>Node33&#45;&gt;Node32</title>
<path fill="none" stroke="#404040" d="M54.5,-584.84C54.5,-572.342 54.5,-557.342 54.5,-543.676"/>
<polygon fill="none" stroke="#404040" points="54.5001,-543.609 50.5,-537.609 54.5,-531.609 58.5,-537.609 54.5001,-543.609"/>
<text text-anchor="middle" x="80" y="-553" font-family="Helvetica,sans-Serif" font-size="10.00"> +elements</text>
</g>
</g>
</svg>
        <g id="navigator" transform="translate(0 0)" fill="#404254">
                <rect fill="#f2f5e9" fill-opacity="0.5" stroke="#606060" stroke-width=".5" x="0" y="0" width="60" height="60"/>
                <use id="zoomplus" xlink:href="#zoomPlus" x="17" y="9" onmousedown="handleZoom(evt,'in')"/>
                <use id="zoomminus" xlink:href="#zoomMin" x="42" y="9" onmousedown="handleZoom(evt,'out')"/>
                <use id="reset" xlink:href="#resetDef" x="30" y="36" onmousedown="handleReset()"/>
                <g id="arrowUp" xlink:href="#dirArrow" transform="translate(30 24)" onmousedown="handlePan(0,-1)">
                  <use xlink:href="#rim" fill="#404040">
                        <set attributeName="fill" to="#808080" begin="arrowUp.mouseover" end="arrowUp.mouseout"/>
                  </use>
                  <path fill="none" stroke="white" stroke-width="1.5" d="M0,-3.0v7 M-2.5,-0.5L0,-3.0L2.5,-0.5"/>
                </g>
                <g id="arrowRight" xlink:href="#dirArrow" transform="rotate(90) translate(36 -43)" onmousedown="handlePan(1,0)">
                  <use xlink:href="#rim" fill="#404040">
                        <set attributeName="fill" to="#808080" begin="arrowRight.mouseover" end="arrowRight.mouseout"/>
                  </use>
                  <path fill="none" stroke="white" stroke-width="1.5" d="M0,-3.0v7 M-2.5,-0.5L0,-3.0L2.5,-0.5"/>
                </g>
                <g id="arrowDown" xlink:href="#dirArrow" transform="rotate(180) translate(-30 -48)" onmousedown="handlePan(0,1)">
                  <use xlink:href="#rim" fill="#404040">
                        <set attributeName="fill" to="#808080" begin="arrowDown.mouseover" end="arrowDown.mouseout"/>
                  </use>
                  <path fill="none" stroke="white" stroke-width="1.5" d="M0,-3.0v7 M-2.5,-0.5L0,-3.0L2.5,-0.5"/>
                </g>
                <g id="arrowLeft" xlink:href="#dirArrow" transform="rotate(270) translate(-36 17)" onmousedown="handlePan(-1,0)">
                  <use xlink:href="#rim" fill="#404040">
                        <set attributeName="fill" to="#808080" begin="arrowLeft.mouseover" end="arrowLeft.mouseout"/>
                  </use>
                  <path fill="none" stroke="white" stroke-width="1.5" d="M0,-3.0v7 M-2.5,-0.5L0,-3.0L2.5,-0.5"/>
                </g>
        </g>
        <svg viewBox="0 0 15 15" width="100%" height="30px" preserveAspectRatio="xMaxYMin meet">
         <g id="arrow_out" transform="scale(0.3 0.3)">
          <a xlink:href="classinout_1_1_in_param_read_inst__coll__graph_org.svg" target="_base">
           <rect id="button" ry="5" rx="5" y="6" x="6" height="38" width="38"
                fill="#f2f5e9" fill-opacity="0.5" stroke="#606060" stroke-width="1.0"/>
           <path id="arrow"
             d="M 11.500037,31.436501 C 11.940474,20.09759 22.043105,11.32322 32.158766,21.979434 L 37.068811,17.246167 C 37.068811,17.246167 37.088388,32 37.088388,32 L 22.160133,31.978069 C 22.160133,31.978069 26.997745,27.140456 26.997745,27.140456 C 18.528582,18.264221 13.291696,25.230495 11.500037,31.436501 z"
             style="fill:#404040;"/>
          </a>
         </g>
        </svg>
</svg>
