<?xml version="1.0" encoding="UTF-8" standalone="no"?>
<!DOCTYPE svg PUBLIC "-//W3C//DTD SVG 1.1//EN"
 "http://www.w3.org/Graphics/SVG/1.1/DTD/svg11.dtd">
<!-- Generated by graphviz version 2.38.0 (20140413.2041)
 -->
<!-- Title: ds::PartitionLinkedStats::changeSumInstances Pages: 1 -->
<svg width="297pt" height="78pt"
 viewBox="0.00 0.00 297.00 77.50" xmlns="http://www.w3.org/2000/svg" xmlns:xlink="http://www.w3.org/1999/xlink">
<g id="graph0" class="graph" transform="scale(1 1) rotate(0) translate(4 73.5)">
<title>ds::PartitionLinkedStats::changeSumInstances</title>
<polygon fill="white" stroke="none" points="-4,4 -4,-73.5 293,-73.5 293,4 -4,4"/>
<!-- Node18 -->
<g id="node1" class="node"><title>Node18</title>
<g id="a_node1"><a xlink:title=" ">
<polygon fill="#bfbfbf" stroke="black" points="0,-22.5 0,-52.5 122,-52.5 122,-22.5 0,-22.5"/>
<text text-anchor="start" x="8" y="-40.5" font-family="Helvetica,sans-Serif" font-size="10.00">ds::PartitionLinkedStats</text>
<text text-anchor="middle" x="61" y="-29.5" font-family="Helvetica,sans-Serif" font-size="10.00">::changeSumInstances</text>
</a>
</g>
</g>
<!-- Node19 -->
<g id="node2" class="node"><title>Node19</title>
<g id="a_node2"><a xlink:href="namespaceinterfacesse.html#a9dd5fb43ad8a83ee5cb2f5ba1bb2085b" target="_top" xlink:title=" ">
<polygon fill="white" stroke="black" points="174,-50 174,-69 273,-69 273,-50 174,-50"/>
<text text-anchor="middle" x="223.5" y="-57" font-family="Helvetica,sans-Serif" font-size="10.00">interfacesse::axpy</text>
</a>
</g>
</g>
<!-- Node18&#45;&gt;Node19 -->
<g id="edge1" class="edge"><title>Node18&#45;&gt;Node19</title>
<path fill="none" stroke="midnightblue" d="M122.221,-45.7546C135.83,-47.62 150.261,-49.598 163.806,-51.4547"/>
<polygon fill="midnightblue" stroke="midnightblue" points="163.581,-54.9565 173.964,-52.847 164.532,-48.0214 163.581,-54.9565"/>
</g>
<!-- Node20 -->
<g id="node3" class="node"><title>Node20</title>
<g id="a_node3"><a xlink:href="classmat_1_1_matrix_resizable_row.html#a9dc9ad27ad33933bfa6c0f483e24cc33" target="_top" xlink:title=" ">
<polygon fill="white" stroke="black" points="158,-0.5 158,-30.5 289,-30.5 289,-0.5 158,-0.5"/>
<text text-anchor="start" x="166" y="-18.5" font-family="Helvetica,sans-Serif" font-size="10.00">mat::MatrixResizableRow</text>
<text text-anchor="middle" x="223.5" y="-7.5" font-family="Helvetica,sans-Serif" font-size="10.00">::getRow</text>
</a>
</g>
</g>
<!-- Node18&#45;&gt;Node20 -->
<g id="edge2" class="edge"><title>Node18&#45;&gt;Node20</title>
<path fill="none" stroke="midnightblue" d="M122.221,-29.2454C130.596,-28.0974 139.282,-26.9068 147.882,-25.728"/>
<polygon fill="midnightblue" stroke="midnightblue" points="148.481,-29.1787 157.913,-24.353 147.53,-22.2435 148.481,-29.1787"/>
</g>
</g>
</svg>
