<?xml version="1.0" encoding="UTF-8" standalone="no"?>
<!DOCTYPE svg PUBLIC "-//W3C//DTD SVG 1.1//EN"
 "http://www.w3.org/Graphics/SVG/1.1/DTD/svg11.dtd">
<!-- Generated by graphviz version 2.38.0 (20140413.2041)
 -->
<!-- Title: gaencode::ChromosomeFEAC::ChromosomeFEAC Pages: 1 -->
<svg width="549pt" height="39pt"
 viewBox="0.00 0.00 549.00 39.00" xmlns="http://www.w3.org/2000/svg" xmlns:xlink="http://www.w3.org/1999/xlink">
<g id="graph0" class="graph" transform="scale(1 1) rotate(0) translate(4 35)">
<title>gaencode::ChromosomeFEAC::ChromosomeFEAC</title>
<polygon fill="white" stroke="none" points="-4,4 -4,-35 545,-35 545,4 -4,4"/>
<!-- Node2 -->
<g id="node1" class="node"><title>Node2</title>
<polygon fill="#bfbfbf" stroke="black" points="0,-0.5 0,-30.5 157,-30.5 157,-0.5 0,-0.5"/>
<text text-anchor="start" x="8" y="-18.5" font-family="Helvetica,sans-Serif" font-size="10.00">gaencode::ChromosomeFEAC</text>
<text text-anchor="middle" x="78.5" y="-7.5" font-family="Helvetica,sans-Serif" font-size="10.00">::ChromosomeFEAC</text>
</g>
<!-- Node3 -->
<g id="node2" class="node"><title>Node3</title>
<g id="a_node2"><a xlink:href="classgaencode_1_1_chromosome_f_e_a_c.html#a2121342a9a584922fa9e663e801a90a8" target="_top" xlink:title="gaencode::ChromosomeFEAC\l::ChromosomeFEAC">
<polygon fill="white" stroke="black" points="193,-0.5 193,-30.5 350,-30.5 350,-0.5 193,-0.5"/>
<text text-anchor="start" x="201" y="-18.5" font-family="Helvetica,sans-Serif" font-size="10.00">gaencode::ChromosomeFEAC</text>
<text text-anchor="middle" x="271.5" y="-7.5" font-family="Helvetica,sans-Serif" font-size="10.00">::ChromosomeFEAC</text>
</a>
</g>
</g>
<!-- Node2&#45;&gt;Node3 -->
<g id="edge1" class="edge"><title>Node2&#45;&gt;Node3</title>
<path fill="none" stroke="midnightblue" d="M157.187,-15.5C165.65,-15.5 174.306,-15.5 182.876,-15.5"/>
<polygon fill="midnightblue" stroke="midnightblue" points="182.882,-19.0001 192.882,-15.5 182.882,-12.0001 182.882,-19.0001"/>
</g>
<!-- Node4 -->
<g id="node3" class="node"><title>Node4</title>
<g id="a_node3"><a xlink:href="classgaencode_1_1_chromosome_base.html#a0c0f339b486fb7d097d2afac2539ddc8" target="_top" xlink:title="gaencode::ChromosomeBase\l::setObjetiveFunc">
<polygon fill="white" stroke="black" points="386,-0.5 386,-30.5 541,-30.5 541,-0.5 386,-0.5"/>
<text text-anchor="start" x="394" y="-18.5" font-family="Helvetica,sans-Serif" font-size="10.00">gaencode::ChromosomeBase</text>
<text text-anchor="middle" x="463.5" y="-7.5" font-family="Helvetica,sans-Serif" font-size="10.00">::setObjetiveFunc</text>
</a>
</g>
</g>
<!-- Node3&#45;&gt;Node4 -->
<g id="edge2" class="edge"><title>Node3&#45;&gt;Node4</title>
<path fill="none" stroke="midnightblue" d="M350.054,-15.5C358.536,-15.5 367.209,-15.5 375.792,-15.5"/>
<polygon fill="midnightblue" stroke="midnightblue" points="375.809,-19.0001 385.809,-15.5 375.809,-12.0001 375.809,-19.0001"/>
</g>
</g>
</svg>
