<?xml version="1.0" encoding="UTF-8" standalone="no"?>
<!DOCTYPE svg PUBLIC "-//W3C//DTD SVG 1.1//EN"
 "http://www.w3.org/Graphics/SVG/1.1/DTD/svg11.dtd">
<!-- Generated by graphviz version 2.38.0 (20140413.2041)
 -->
<!-- Title: ds::PartitionLinkedStats::operator= Pages: 1 -->
<svg width="1480pt" height="590pt"
 viewBox="0.00 0.00 1480.00 589.50" xmlns="http://www.w3.org/2000/svg" xmlns:xlink="http://www.w3.org/1999/xlink">
<g id="graph0" class="graph" transform="scale(1 1) rotate(0) translate(4 585.5)">
<title>ds::PartitionLinkedStats::operator=</title>
<polygon fill="white" stroke="none" points="-4,4 -4,-585.5 1476,-585.5 1476,4 -4,4"/>
<!-- Node152 -->
<g id="node1" class="node"><title>Node152</title>
<polygon fill="#bfbfbf" stroke="black" points="0,-284.5 0,-314.5 122,-314.5 122,-284.5 0,-284.5"/>
<text text-anchor="start" x="8" y="-302.5" font-family="Helvetica,sans-Serif" font-size="10.00">ds::PartitionLinkedStats</text>
<text text-anchor="middle" x="61" y="-291.5" font-family="Helvetica,sans-Serif" font-size="10.00">::operator=</text>
</g>
<!-- Node153 -->
<g id="node2" class="node"><title>Node153</title>
<g id="a_node2"><a xlink:href="classds_1_1_partition_linked_stats.html#adf5abdfed4d9130304eb420025a3b167" target="_top" xlink:title="ds::PartitionLinkedStats\l::addInstanceToCluster">
<polygon fill="white" stroke="black" points="158,-284.5 158,-314.5 281,-314.5 281,-284.5 158,-284.5"/>
<text text-anchor="start" x="166" y="-302.5" font-family="Helvetica,sans-Serif" font-size="10.00">ds::PartitionLinkedStats</text>
<text text-anchor="middle" x="219.5" y="-291.5" font-family="Helvetica,sans-Serif" font-size="10.00">::addInstanceToCluster</text>
</a>
</g>
</g>
<!-- Node152&#45;&gt;Node153 -->
<g id="edge1" class="edge"><title>Node152&#45;&gt;Node153</title>
<path fill="none" stroke="midnightblue" d="M122.059,-299.5C130.485,-299.5 139.209,-299.5 147.81,-299.5"/>
<polygon fill="midnightblue" stroke="midnightblue" points="147.825,-303 157.825,-299.5 147.825,-296 147.825,-303"/>
</g>
<!-- Node168 -->
<g id="node17" class="node"><title>Node168</title>
<g id="a_node17"><a xlink:href="classds_1_1_partition_linked_stats.html#ac002167e3a4f4f2b692c3b7e1c9fd785" target="_top" xlink:title="ds::PartitionLinkedStats\l::print">
<polygon fill="white" stroke="black" points="825,-225.5 825,-255.5 947,-255.5 947,-225.5 825,-225.5"/>
<text text-anchor="start" x="833" y="-243.5" font-family="Helvetica,sans-Serif" font-size="10.00">ds::PartitionLinkedStats</text>
<text text-anchor="middle" x="886" y="-232.5" font-family="Helvetica,sans-Serif" font-size="10.00">::print</text>
</a>
</g>
</g>
<!-- Node152&#45;&gt;Node168 -->
<g id="edge43" class="edge"><title>Node152&#45;&gt;Node168</title>
<path fill="none" stroke="midnightblue" d="M73.8095,-284.205C112.359,-236.17 240.19,-91.5 381.5,-91.5 381.5,-91.5 381.5,-91.5 550.5,-91.5 654.766,-91.5 690.137,-80.1788 782,-129.5 820.538,-150.191 852.49,-190.874 870.138,-216.822"/>
<polygon fill="midnightblue" stroke="midnightblue" points="867.332,-218.924 875.772,-225.329 873.168,-215.059 867.332,-218.924"/>
</g>
<!-- Node178 -->
<g id="node27" class="node"><title>Node178</title>
<g id="a_node27"><a xlink:href="classds_1_1_partition_linked.html#a0e5c64adbfb91af71f1a9d79344c9981" target="_top" xlink:title="ds::PartitionLinked\l::operator=">
<polygon fill="white" stroke="black" points="169.5,-518.5 169.5,-548.5 269.5,-548.5 269.5,-518.5 169.5,-518.5"/>
<text text-anchor="start" x="177.5" y="-536.5" font-family="Helvetica,sans-Serif" font-size="10.00">ds::PartitionLinked</text>
<text text-anchor="middle" x="219.5" y="-525.5" font-family="Helvetica,sans-Serif" font-size="10.00">::operator=</text>
</a>
</g>
</g>
<!-- Node152&#45;&gt;Node178 -->
<g id="edge36" class="edge"><title>Node152&#45;&gt;Node178</title>
<path fill="none" stroke="midnightblue" d="M72.2684,-314.853C98.9722,-354.781 170.735,-462.081 202.729,-509.92"/>
<polygon fill="midnightblue" stroke="midnightblue" points="199.929,-512.028 208.397,-518.394 205.747,-508.136 199.929,-512.028"/>
</g>
<!-- Node154 -->
<g id="node3" class="node"><title>Node154</title>
<g id="a_node3"><a xlink:href="classds_1_1_partition_linked.html#a4013f0d8892069abc3fe9c05103d60e0" target="_top" xlink:title="ds::PartitionLinked\l::addInstanceToCluster">
<polygon fill="white" stroke="black" points="321,-158.5 321,-188.5 444,-188.5 444,-158.5 321,-158.5"/>
<text text-anchor="start" x="329" y="-176.5" font-family="Helvetica,sans-Serif" font-size="10.00">ds::PartitionLinked</text>
<text text-anchor="middle" x="382.5" y="-165.5" font-family="Helvetica,sans-Serif" font-size="10.00">::addInstanceToCluster</text>
</a>
</g>
</g>
<!-- Node153&#45;&gt;Node154 -->
<g id="edge2" class="edge"><title>Node153&#45;&gt;Node154</title>
<path fill="none" stroke="midnightblue" d="M232.888,-284.206C250.068,-263.747 282.887,-227.295 317,-203.5 322.318,-199.791 328.167,-196.341 334.106,-193.2"/>
<polygon fill="midnightblue" stroke="midnightblue" points="336.072,-196.131 343.45,-188.527 332.941,-189.87 336.072,-196.131"/>
</g>
<!-- Node161 -->
<g id="node10" class="node"><title>Node161</title>
<g id="a_node10"><a xlink:href="namespaceinterfacesse.html#a9dd5fb43ad8a83ee5cb2f5ba1bb2085b" target="_top" xlink:title="interfacesse::axpy">
<polygon fill="white" stroke="black" points="1017.5,-461 1017.5,-480 1116.5,-480 1116.5,-461 1017.5,-461"/>
<text text-anchor="middle" x="1067" y="-468" font-family="Helvetica,sans-Serif" font-size="10.00">interfacesse::axpy</text>
</a>
</g>
</g>
<!-- Node153&#45;&gt;Node161 -->
<g id="edge11" class="edge"><title>Node153&#45;&gt;Node161</title>
<path fill="none" stroke="midnightblue" d="M237.57,-314.65C283.959,-354.196 417.662,-457.5 548.5,-457.5 548.5,-457.5 548.5,-457.5 717.5,-457.5 819.289,-457.5 937.685,-463.107 1006.98,-466.956"/>
<polygon fill="midnightblue" stroke="midnightblue" points="1007.07,-470.467 1017.25,-467.534 1007.46,-463.478 1007.07,-470.467"/>
</g>
<!-- Node164 -->
<g id="node13" class="node"><title>Node164</title>
<g id="a_node13"><a xlink:href="classmat_1_1_matrix_resizable_row.html#a9dc9ad27ad33933bfa6c0f483e24cc33" target="_top" xlink:title="mat::MatrixResizableRow\l::getRow">
<polygon fill="white" stroke="black" points="651,-325.5 651,-355.5 782,-355.5 782,-325.5 651,-325.5"/>
<text text-anchor="start" x="659" y="-343.5" font-family="Helvetica,sans-Serif" font-size="10.00">mat::MatrixResizableRow</text>
<text text-anchor="middle" x="716.5" y="-332.5" font-family="Helvetica,sans-Serif" font-size="10.00">::getRow</text>
</a>
</g>
</g>
<!-- Node153&#45;&gt;Node164 -->
<g id="edge14" class="edge"><title>Node153&#45;&gt;Node164</title>
<path fill="none" stroke="midnightblue" d="M276.13,-314.53C289.452,-317.797 303.678,-321.015 317,-323.5 447.521,-347.848 482.253,-347.141 615,-344.5 623.345,-344.334 632.076,-344.091 640.76,-343.804"/>
<polygon fill="midnightblue" stroke="midnightblue" points="641.034,-347.297 650.906,-343.451 640.79,-340.301 641.034,-347.297"/>
</g>
<!-- Node165 -->
<g id="node14" class="node"><title>Node165</title>
<g id="a_node14"><a xlink:href="classds_1_1_partition_linked_stats.html#aa130bcf56e35799d8d85e7b4b8b49034" target="_top" xlink:title="ds::PartitionLinkedStats\l::subInstanceFromCluster">
<polygon fill="white" stroke="black" points="317,-284.5 317,-314.5 448,-314.5 448,-284.5 317,-284.5"/>
<text text-anchor="start" x="325" y="-302.5" font-family="Helvetica,sans-Serif" font-size="10.00">ds::PartitionLinkedStats</text>
<text text-anchor="middle" x="382.5" y="-291.5" font-family="Helvetica,sans-Serif" font-size="10.00">::subInstanceFromCluster</text>
</a>
</g>
</g>
<!-- Node153&#45;&gt;Node165 -->
<g id="edge15" class="edge"><title>Node153&#45;&gt;Node165</title>
<path fill="none" stroke="midnightblue" d="M281.367,-299.5C289.597,-299.5 298.119,-299.5 306.558,-299.5"/>
<polygon fill="midnightblue" stroke="midnightblue" points="306.787,-303 316.787,-299.5 306.787,-296 306.787,-303"/>
</g>
<!-- Node155 -->
<g id="node4" class="node"><title>Node155</title>
<g id="a_node4"><a xlink:href="classds_1_1_partition_linked.html#adc3c73d4486bec92878e785229d2536e" target="_top" xlink:title="ds::PartitionLinked\l::subInstanceFromCluster">
<polygon fill="white" stroke="black" points="484,-158.5 484,-188.5 615,-188.5 615,-158.5 484,-158.5"/>
<text text-anchor="start" x="492" y="-176.5" font-family="Helvetica,sans-Serif" font-size="10.00">ds::PartitionLinked</text>
<text text-anchor="middle" x="549.5" y="-165.5" font-family="Helvetica,sans-Serif" font-size="10.00">::subInstanceFromCluster</text>
</a>
</g>
</g>
<!-- Node154&#45;&gt;Node155 -->
<g id="edge3" class="edge"><title>Node154&#45;&gt;Node155</title>
<path fill="none" stroke="midnightblue" d="M444.003,-173.5C453.628,-173.5 463.684,-173.5 473.592,-173.5"/>
<polygon fill="midnightblue" stroke="midnightblue" points="473.841,-177 483.841,-173.5 473.841,-170 473.841,-177"/>
</g>
<!-- Node156 -->
<g id="node5" class="node"><title>Node156</title>
<g id="a_node5"><a xlink:href="classds_1_1_partition_linked.html#abfd8979dbdeee0fda9d8cb22aa9062ed" target="_top" xlink:title="ds::PartitionLinked\l::changeMemberShip">
<polygon fill="white" stroke="black" points="660,-139.5 660,-169.5 773,-169.5 773,-139.5 660,-139.5"/>
<text text-anchor="start" x="668" y="-157.5" font-family="Helvetica,sans-Serif" font-size="10.00">ds::PartitionLinked</text>
<text text-anchor="middle" x="716.5" y="-146.5" font-family="Helvetica,sans-Serif" font-size="10.00">::changeMemberShip</text>
</a>
</g>
</g>
<!-- Node155&#45;&gt;Node156 -->
<g id="edge4" class="edge"><title>Node155&#45;&gt;Node156</title>
<path fill="none" stroke="midnightblue" d="M615.239,-159.436C626.506,-157.957 638.237,-156.6 649.537,-155.468"/>
<polygon fill="midnightblue" stroke="midnightblue" points="650.144,-158.926 659.767,-154.494 649.48,-151.957 650.144,-158.926"/>
</g>
<!-- Node156&#45;&gt;Node154 -->
<g id="edge5" class="edge"><title>Node156&#45;&gt;Node154</title>
<path fill="none" stroke="midnightblue" d="M659.615,-148.454C612.589,-144.465 543.66,-141.191 484,-148.5 470.774,-150.12 456.784,-152.898 443.579,-156.026"/>
<polygon fill="midnightblue" stroke="midnightblue" points="442.531,-152.68 433.661,-158.474 444.208,-159.476 442.531,-152.68"/>
</g>
<!-- Node156&#45;&gt;Node155 -->
<g id="edge10" class="edge"><title>Node156&#45;&gt;Node155</title>
<path fill="none" stroke="midnightblue" d="M659.767,-167.342C648.704,-168.894 636.92,-170.351 625.34,-171.606"/>
<polygon fill="midnightblue" stroke="midnightblue" points="624.824,-168.141 615.239,-172.654 625.547,-175.103 624.824,-168.141"/>
</g>
<!-- Node157 -->
<g id="node6" class="node"><title>Node157</title>
<g id="a_node6"><a xlink:href="classds_1_1_partition_linked.html#aaa302ea8b39c37c44507bf4276ffa8f2" target="_top" xlink:title="ds::PartitionLinked\l::getInstanceIdxOfClusterK">
<polygon fill="white" stroke="black" points="818,-69.5 818,-99.5 954,-99.5 954,-69.5 818,-69.5"/>
<text text-anchor="start" x="826" y="-87.5" font-family="Helvetica,sans-Serif" font-size="10.00">ds::PartitionLinked</text>
<text text-anchor="middle" x="886" y="-76.5" font-family="Helvetica,sans-Serif" font-size="10.00">::getInstanceIdxOfClusterK</text>
</a>
</g>
</g>
<!-- Node156&#45;&gt;Node157 -->
<g id="edge6" class="edge"><title>Node156&#45;&gt;Node157</title>
<path fill="none" stroke="midnightblue" d="M753.433,-139.483C778.628,-128.954 812.505,-114.796 839.573,-103.484"/>
<polygon fill="midnightblue" stroke="midnightblue" points="840.961,-106.698 848.838,-99.6125 838.262,-100.239 840.961,-106.698"/>
</g>
<!-- Node158 -->
<g id="node7" class="node"><title>Node158</title>
<g id="a_node7"><a xlink:href="classds_1_1_partition_linked.html#a1a20dd710247ebccba848e555f9ad9e6" target="_top" xlink:title="ds::PartitionLinked\l::joinCluster">
<polygon fill="white" stroke="black" points="1017,-0.5 1017,-30.5 1117,-30.5 1117,-0.5 1017,-0.5"/>
<text text-anchor="start" x="1025" y="-18.5" font-family="Helvetica,sans-Serif" font-size="10.00">ds::PartitionLinked</text>
<text text-anchor="middle" x="1067" y="-7.5" font-family="Helvetica,sans-Serif" font-size="10.00">::joinCluster</text>
</a>
</g>
</g>
<!-- Node157&#45;&gt;Node158 -->
<g id="edge7" class="edge"><title>Node157&#45;&gt;Node158</title>
<path fill="none" stroke="midnightblue" d="M919.111,-69.4224C939.252,-60.2287 965.883,-48.5473 990,-39.5 995.478,-37.4452 1001.22,-35.4144 1006.99,-33.4558"/>
<polygon fill="midnightblue" stroke="midnightblue" points="1008.29,-36.7103 1016.68,-30.2363 1006.09,-30.0673 1008.29,-36.7103"/>
</g>
<!-- Node159 -->
<g id="node8" class="node"><title>Node159</title>
<g id="a_node8"><a xlink:href="classds_1_1_partition_linked.html#a6a7de3bc18b0904e2e23536a336e42a8" target="_top" xlink:title="ds::PartitionLinked\l::print">
<polygon fill="white" stroke="black" points="1208,-181.5 1208,-211.5 1308,-211.5 1308,-181.5 1208,-181.5"/>
<text text-anchor="start" x="1216" y="-199.5" font-family="Helvetica,sans-Serif" font-size="10.00">ds::PartitionLinked</text>
<text text-anchor="middle" x="1258" y="-188.5" font-family="Helvetica,sans-Serif" font-size="10.00">::print</text>
</a>
</g>
</g>
<!-- Node158&#45;&gt;Node159 -->
<g id="edge8" class="edge"><title>Node158&#45;&gt;Node159</title>
<path fill="none" stroke="midnightblue" d="M1117.24,-25.9628C1126.65,-29.33 1136.04,-33.7407 1144,-39.5 1192.53,-74.6209 1228.3,-137.031 1245.52,-171.644"/>
<polygon fill="midnightblue" stroke="midnightblue" points="1242.56,-173.56 1250.08,-181.029 1248.86,-170.504 1242.56,-173.56"/>
</g>
<!-- Node160 -->
<g id="node9" class="node"><title>Node160</title>
<g id="a_node9"><a xlink:href="classds_1_1_partition_linked.html#a696f58c4d25fd41adf281d1468440dc9" target="_top" xlink:title="ds::PartitionLinked\l::getNumPartitions">
<polygon fill="white" stroke="black" points="1372,-181.5 1372,-211.5 1472,-211.5 1472,-181.5 1372,-181.5"/>
<text text-anchor="start" x="1380" y="-199.5" font-family="Helvetica,sans-Serif" font-size="10.00">ds::PartitionLinked</text>
<text text-anchor="middle" x="1422" y="-188.5" font-family="Helvetica,sans-Serif" font-size="10.00">::getNumPartitions</text>
</a>
</g>
</g>
<!-- Node159&#45;&gt;Node160 -->
<g id="edge9" class="edge"><title>Node159&#45;&gt;Node160</title>
<path fill="none" stroke="midnightblue" d="M1308.04,-196.5C1324.94,-196.5 1344.04,-196.5 1361.66,-196.5"/>
<polygon fill="midnightblue" stroke="midnightblue" points="1361.84,-200 1371.84,-196.5 1361.84,-193 1361.84,-200"/>
</g>
<!-- Node162 -->
<g id="node11" class="node"><title>Node162</title>
<g id="a_node11"><a xlink:href="namespaceinterfacesse.html#ae3f94c42a59db65b2941dbfc9f449ea1" target="_top" xlink:title="function xAXPY of blas for doubles vectors ">
<polygon fill="white" stroke="black" points="1202,-461 1202,-480 1314,-480 1314,-461 1202,-461"/>
<text text-anchor="middle" x="1258" y="-468" font-family="Helvetica,sans-Serif" font-size="10.00">interfacesse::axpyInv</text>
</a>
</g>
</g>
<!-- Node161&#45;&gt;Node162 -->
<g id="edge12" class="edge"><title>Node161&#45;&gt;Node162</title>
<path fill="none" stroke="midnightblue" d="M1116.67,-470.5C1139.55,-470.5 1167.16,-470.5 1191.81,-470.5"/>
<polygon fill="midnightblue" stroke="midnightblue" points="1191.81,-474 1201.81,-470.5 1191.81,-467 1191.81,-474"/>
</g>
<!-- Node163 -->
<g id="node12" class="node"><title>Node163</title>
<g id="a_node12"><a xlink:href="namespaceinterfacesse.html#a144ebf70bf38495c3de1aca2c8365e08" target="_top" xlink:title="scal items of the array of type T ">
<polygon fill="white" stroke="black" points="1374,-461 1374,-480 1470,-480 1470,-461 1374,-461"/>
<text text-anchor="middle" x="1422" y="-468" font-family="Helvetica,sans-Serif" font-size="10.00">interfacesse::scal</text>
</a>
</g>
</g>
<!-- Node162&#45;&gt;Node163 -->
<g id="edge13" class="edge"><title>Node162&#45;&gt;Node163</title>
<path fill="none" stroke="midnightblue" d="M1314.3,-470.5C1330.16,-470.5 1347.5,-470.5 1363.49,-470.5"/>
<polygon fill="midnightblue" stroke="midnightblue" points="1363.78,-474 1373.78,-470.5 1363.78,-467 1363.78,-474"/>
</g>
<!-- Node165&#45;&gt;Node155 -->
<g id="edge16" class="edge"><title>Node165&#45;&gt;Node155</title>
<path fill="none" stroke="midnightblue" d="M403.403,-284.301C432.718,-261.915 487.614,-219.995 520.834,-194.627"/>
<polygon fill="midnightblue" stroke="midnightblue" points="522.96,-197.407 528.783,-188.556 518.711,-191.844 522.96,-197.407"/>
</g>
<!-- Node165&#45;&gt;Node161 -->
<g id="edge18" class="edge"><title>Node165&#45;&gt;Node161</title>
<path fill="none" stroke="midnightblue" d="M412.747,-314.595C432.456,-324.265 459.274,-336.462 484,-344.5 687.015,-410.495 745.77,-396.481 954,-443.5 974.934,-448.227 997.995,-453.735 1017.72,-458.538"/>
<polygon fill="midnightblue" stroke="midnightblue" points="1017.16,-462.004 1027.71,-460.978 1018.82,-455.204 1017.16,-462.004"/>
</g>
<!-- Node165&#45;&gt;Node164 -->
<g id="edge17" class="edge"><title>Node165&#45;&gt;Node164</title>
<path fill="none" stroke="midnightblue" d="M439.263,-314.504C453.74,-317.933 469.376,-321.232 484,-323.5 536.017,-331.567 595.222,-335.828 640.737,-338.066"/>
<polygon fill="midnightblue" stroke="midnightblue" points="640.666,-341.567 650.819,-338.54 640.995,-334.574 640.666,-341.567"/>
</g>
<!-- Node166 -->
<g id="node15" class="node"><title>Node166</title>
<g id="a_node15"><a xlink:href="classds_1_1_partition_linked_stats.html#a55f8dadc883ae7dd4154d451197176d8" target="_top" xlink:title="ds::PartitionLinkedStats\l::changeSumInstances">
<polygon fill="white" stroke="black" points="488.5,-284.5 488.5,-314.5 610.5,-314.5 610.5,-284.5 488.5,-284.5"/>
<text text-anchor="start" x="496.5" y="-302.5" font-family="Helvetica,sans-Serif" font-size="10.00">ds::PartitionLinkedStats</text>
<text text-anchor="middle" x="549.5" y="-291.5" font-family="Helvetica,sans-Serif" font-size="10.00">::changeSumInstances</text>
</a>
</g>
</g>
<!-- Node165&#45;&gt;Node166 -->
<g id="edge19" class="edge"><title>Node165&#45;&gt;Node166</title>
<path fill="none" stroke="midnightblue" d="M448.239,-299.5C458.022,-299.5 468.155,-299.5 478.051,-299.5"/>
<polygon fill="midnightblue" stroke="midnightblue" points="478.255,-303 488.255,-299.5 478.255,-296 478.255,-303"/>
</g>
<!-- Node166&#45;&gt;Node161 -->
<g id="edge20" class="edge"><title>Node166&#45;&gt;Node161</title>
<path fill="none" stroke="midnightblue" d="M610.967,-299.718C657.978,-300.837 724.627,-304.511 782,-315.5 860.825,-330.598 894.249,-316.917 954,-370.5 983.329,-396.802 959.838,-426.158 990,-451.5 995.247,-455.909 1001.37,-459.318 1007.83,-461.95"/>
<polygon fill="midnightblue" stroke="midnightblue" points="1006.86,-465.32 1017.46,-465.277 1009.15,-458.704 1006.86,-465.32"/>
</g>
<!-- Node166&#45;&gt;Node164 -->
<g id="edge35" class="edge"><title>Node166&#45;&gt;Node164</title>
<path fill="none" stroke="midnightblue" d="M610.536,-314.418C621.725,-317.198 633.51,-320.127 644.98,-322.977"/>
<polygon fill="midnightblue" stroke="midnightblue" points="644.407,-326.441 654.956,-325.456 646.095,-319.647 644.407,-326.441"/>
</g>
<!-- Node167 -->
<g id="node16" class="node"><title>Node167</title>
<g id="a_node16"><a xlink:href="classds_1_1_partition_linked_stats.html#aec76b7c8e249f1291d6557947c04f31e" target="_top" xlink:title="ds::PartitionLinkedStats\l::changeMemberShip">
<polygon fill="white" stroke="black" points="655.5,-231.5 655.5,-261.5 777.5,-261.5 777.5,-231.5 655.5,-231.5"/>
<text text-anchor="start" x="663.5" y="-249.5" font-family="Helvetica,sans-Serif" font-size="10.00">ds::PartitionLinkedStats</text>
<text text-anchor="middle" x="716.5" y="-238.5" font-family="Helvetica,sans-Serif" font-size="10.00">::changeMemberShip</text>
</a>
</g>
</g>
<!-- Node166&#45;&gt;Node167 -->
<g id="edge21" class="edge"><title>Node166&#45;&gt;Node167</title>
<path fill="none" stroke="midnightblue" d="M597.341,-284.454C616.5,-278.3 638.837,-271.125 658.9,-264.681"/>
<polygon fill="midnightblue" stroke="midnightblue" points="660.091,-267.974 668.542,-261.584 657.951,-261.31 660.091,-267.974"/>
</g>
<!-- Node167&#45;&gt;Node153 -->
<g id="edge22" class="edge"><title>Node167&#45;&gt;Node153</title>
<path fill="none" stroke="midnightblue" d="M655.176,-246.292C576.618,-247.032 435.351,-251.825 317,-274.5 306.023,-276.603 294.443,-279.236 283.262,-281.998"/>
<polygon fill="midnightblue" stroke="midnightblue" points="282.403,-278.605 273.565,-284.448 284.118,-285.392 282.403,-278.605"/>
</g>
<!-- Node167&#45;&gt;Node165 -->
<g id="edge34" class="edge"><title>Node167&#45;&gt;Node165</title>
<path fill="none" stroke="midnightblue" d="M655.235,-251.732C608.333,-256.299 541.731,-263.87 484,-274.5 472.465,-276.624 460.283,-279.289 448.532,-282.081"/>
<polygon fill="midnightblue" stroke="midnightblue" points="447.679,-278.686 438.787,-284.447 449.331,-285.489 447.679,-278.686"/>
</g>
<!-- Node167&#45;&gt;Node168 -->
<g id="edge23" class="edge"><title>Node167&#45;&gt;Node168</title>
<path fill="none" stroke="midnightblue" d="M777.971,-244.334C789.904,-243.906 802.522,-243.454 814.746,-243.017"/>
<polygon fill="midnightblue" stroke="midnightblue" points="815.03,-246.509 824.898,-242.653 814.779,-239.513 815.03,-246.509"/>
</g>
<!-- Node168&#45;&gt;Node159 -->
<g id="edge31" class="edge"><title>Node168&#45;&gt;Node159</title>
<path fill="none" stroke="midnightblue" d="M941.45,-225.487C957.024,-221.684 974.091,-217.979 990,-215.5 1060.74,-204.476 1143.05,-199.84 1197.37,-197.895"/>
<polygon fill="midnightblue" stroke="midnightblue" points="1197.64,-201.388 1207.51,-197.552 1197.4,-194.392 1197.64,-201.388"/>
</g>
<!-- Node169 -->
<g id="node18" class="node"><title>Node169</title>
<g id="a_node18"><a xlink:href="classds_1_1_partition_linked_stats.html#aea3a5b61e78f2aa7bb44b1d1a9e25b59" target="_top" xlink:title="ds::PartitionLinkedStats\l::getNumPartitions">
<polygon fill="white" stroke="black" points="1006,-411.5 1006,-441.5 1128,-441.5 1128,-411.5 1006,-411.5"/>
<text text-anchor="start" x="1014" y="-429.5" font-family="Helvetica,sans-Serif" font-size="10.00">ds::PartitionLinkedStats</text>
<text text-anchor="middle" x="1067" y="-418.5" font-family="Helvetica,sans-Serif" font-size="10.00">::getNumPartitions</text>
</a>
</g>
</g>
<!-- Node168&#45;&gt;Node169 -->
<g id="edge24" class="edge"><title>Node168&#45;&gt;Node169</title>
<path fill="none" stroke="midnightblue" d="M920.992,-255.533C932.894,-262.269 945.416,-271.263 954,-282.5 987.542,-326.411 951.4,-361.961 990,-401.5 992.138,-403.69 994.47,-405.688 996.948,-407.511"/>
<polygon fill="midnightblue" stroke="midnightblue" points="995.524,-410.747 1005.86,-413.059 999.223,-404.804 995.524,-410.747"/>
</g>
<!-- Node171 -->
<g id="node20" class="node"><title>Node171</title>
<g id="a_node20"><a xlink:href="classds_1_1_iterator_partition_linked.html#ad171cb96653fadaec272389381a4f8b4" target="_top" xlink:title="ds::IteratorPartitionLinked\l::begin">
<polygon fill="white" stroke="black" points="1001.5,-362.5 1001.5,-392.5 1132.5,-392.5 1132.5,-362.5 1001.5,-362.5"/>
<text text-anchor="start" x="1009.5" y="-380.5" font-family="Helvetica,sans-Serif" font-size="10.00">ds::IteratorPartitionLinked</text>
<text text-anchor="middle" x="1067" y="-369.5" font-family="Helvetica,sans-Serif" font-size="10.00">::begin</text>
</a>
</g>
</g>
<!-- Node168&#45;&gt;Node171 -->
<g id="edge26" class="edge"><title>Node168&#45;&gt;Node171</title>
<path fill="none" stroke="midnightblue" d="M918.572,-255.627C930.728,-262.569 944.063,-271.681 954,-282.5 977.665,-308.265 963.396,-329.781 990,-352.5 991.987,-354.197 994.093,-355.779 996.288,-357.255"/>
<polygon fill="midnightblue" stroke="midnightblue" points="994.746,-360.408 1005.15,-362.434 998.279,-354.365 994.746,-360.408"/>
</g>
<!-- Node172 -->
<g id="node21" class="node"><title>Node172</title>
<g id="a_node21"><a xlink:href="classds_1_1_iterator_partition_linked.html#af0e179fae69c0d4f047082ee44783613" target="_top" xlink:title="ds::IteratorPartitionLinked::end">
<polygon fill="white" stroke="black" points="990,-324 990,-343 1144,-343 1144,-324 990,-324"/>
<text text-anchor="middle" x="1067" y="-331" font-family="Helvetica,sans-Serif" font-size="10.00">ds::IteratorPartitionLinked::end</text>
</a>
</g>
</g>
<!-- Node168&#45;&gt;Node172 -->
<g id="edge27" class="edge"><title>Node168&#45;&gt;Node172</title>
<path fill="none" stroke="midnightblue" d="M913.052,-255.574C925.709,-263.211 940.962,-272.885 954,-282.5 970.993,-295.032 971.312,-303.673 990,-313.5 995.261,-316.266 1000.93,-318.67 1006.72,-320.755"/>
<polygon fill="midnightblue" stroke="midnightblue" points="1005.93,-324.179 1016.52,-323.97 1008.11,-317.528 1005.93,-324.179"/>
</g>
<!-- Node173 -->
<g id="node22" class="node"><title>Node173</title>
<g id="a_node22"><a xlink:href="classds_1_1_iterator_partition_linked.html#a83b887be41c97dc0bdfc47a02abbc383" target="_top" xlink:title="ds::IteratorPartitionLinked\l::next">
<polygon fill="white" stroke="black" points="1001.5,-274.5 1001.5,-304.5 1132.5,-304.5 1132.5,-274.5 1001.5,-274.5"/>
<text text-anchor="start" x="1009.5" y="-292.5" font-family="Helvetica,sans-Serif" font-size="10.00">ds::IteratorPartitionLinked</text>
<text text-anchor="middle" x="1067" y="-281.5" font-family="Helvetica,sans-Serif" font-size="10.00">::next</text>
</a>
</g>
</g>
<!-- Node168&#45;&gt;Node173 -->
<g id="edge28" class="edge"><title>Node168&#45;&gt;Node173</title>
<path fill="none" stroke="midnightblue" d="M942.166,-255.601C960.884,-260.725 981.963,-266.496 1001.35,-271.803"/>
<polygon fill="midnightblue" stroke="midnightblue" points="1000.45,-275.184 1011.02,-274.448 1002.29,-268.432 1000.45,-275.184"/>
</g>
<!-- Node174 -->
<g id="node23" class="node"><title>Node174</title>
<g id="a_node23"><a xlink:href="classds_1_1_iterator_partition_linked.html#a1a031c033d0d2d1c6982ced4e0473831" target="_top" xlink:title="ds::IteratorPartitionLinked\l::getValue">
<polygon fill="white" stroke="black" points="1001.5,-225.5 1001.5,-255.5 1132.5,-255.5 1132.5,-225.5 1001.5,-225.5"/>
<text text-anchor="start" x="1009.5" y="-243.5" font-family="Helvetica,sans-Serif" font-size="10.00">ds::IteratorPartitionLinked</text>
<text text-anchor="middle" x="1067" y="-232.5" font-family="Helvetica,sans-Serif" font-size="10.00">::getValue</text>
</a>
</g>
</g>
<!-- Node168&#45;&gt;Node174 -->
<g id="edge29" class="edge"><title>Node168&#45;&gt;Node174</title>
<path fill="none" stroke="midnightblue" d="M947.102,-240.5C961.296,-240.5 976.6,-240.5 991.349,-240.5"/>
<polygon fill="midnightblue" stroke="midnightblue" points="991.452,-244 1001.45,-240.5 991.452,-237 991.452,-244"/>
</g>
<!-- Node175 -->
<g id="node24" class="node"><title>Node175</title>
<g id="a_node24"><a xlink:href="classds_1_1_partition_linked.html#a70877e6d118d2f041d9006fdf565daec" target="_top" xlink:title="ds::PartitionLinked\l::getNumInstances">
<polygon fill="white" stroke="black" points="1017,-137.5 1017,-167.5 1117,-167.5 1117,-137.5 1017,-137.5"/>
<text text-anchor="start" x="1025" y="-155.5" font-family="Helvetica,sans-Serif" font-size="10.00">ds::PartitionLinked</text>
<text text-anchor="middle" x="1067" y="-144.5" font-family="Helvetica,sans-Serif" font-size="10.00">::getNumInstances</text>
</a>
</g>
</g>
<!-- Node168&#45;&gt;Node175 -->
<g id="edge30" class="edge"><title>Node168&#45;&gt;Node175</title>
<path fill="none" stroke="midnightblue" d="M911.471,-225.462C932.029,-213.137 962.392,-195.646 990,-182.5 998.096,-178.645 1006.83,-174.865 1015.39,-171.357"/>
<polygon fill="midnightblue" stroke="midnightblue" points="1016.96,-174.498 1024.93,-167.524 1014.35,-168.002 1016.96,-174.498"/>
</g>
<!-- Node176 -->
<g id="node25" class="node"><title>Node176</title>
<g id="a_node25"><a xlink:href="namespaceinout.html#a0c10a45877a347dec0d4ec4e5b05b828" target="_top" xlink:title="inout::containerprint">
<polygon fill="white" stroke="black" points="1015.5,-99 1015.5,-118 1118.5,-118 1118.5,-99 1015.5,-99"/>
<text text-anchor="middle" x="1067" y="-106" font-family="Helvetica,sans-Serif" font-size="10.00">inout::containerprint</text>
</a>
</g>
</g>
<!-- Node168&#45;&gt;Node176 -->
<g id="edge32" class="edge"><title>Node168&#45;&gt;Node176</title>
<path fill="none" stroke="midnightblue" d="M896.383,-225.452C912.445,-200.995 947.609,-152.814 990,-127.5 994.817,-124.624 1000.05,-122.181 1005.45,-120.107"/>
<polygon fill="midnightblue" stroke="midnightblue" points="1006.95,-123.295 1015.29,-116.757 1004.69,-116.669 1006.95,-123.295"/>
</g>
<!-- Node177 -->
<g id="node26" class="node"><title>Node177</title>
<g id="a_node26"><a xlink:href="classmat_1_1_matrix_resizable_row.html#a566801d937643cf5937b61bf321b01b7" target="_top" xlink:title="mat::MatrixResizableRow\l::print">
<polygon fill="white" stroke="black" points="1001.5,-49.5 1001.5,-79.5 1132.5,-79.5 1132.5,-49.5 1001.5,-49.5"/>
<text text-anchor="start" x="1009.5" y="-67.5" font-family="Helvetica,sans-Serif" font-size="10.00">mat::MatrixResizableRow</text>
<text text-anchor="middle" x="1067" y="-56.5" font-family="Helvetica,sans-Serif" font-size="10.00">::print</text>
</a>
</g>
</g>
<!-- Node168&#45;&gt;Node177 -->
<g id="edge33" class="edge"><title>Node168&#45;&gt;Node177</title>
<path fill="none" stroke="midnightblue" d="M893.335,-225.202C906.672,-194.841 940.551,-126.701 990,-89.5 992.473,-87.6394 995.091,-85.9133 997.811,-84.3124"/>
<polygon fill="midnightblue" stroke="midnightblue" points="999.55,-87.3525 1006.79,-79.6141 996.304,-81.1507 999.55,-87.3525"/>
</g>
<!-- Node170 -->
<g id="node19" class="node"><title>Node170</title>
<g id="a_node19"><a xlink:href="classmat_1_1_matrix_base.html#ac500eedd5e203327d3292f8ab22d8f3e" target="_top" xlink:title="mat::MatrixBase::getNumRows">
<polygon fill="white" stroke="black" points="1180,-417 1180,-436 1336,-436 1336,-417 1180,-417"/>
<text text-anchor="middle" x="1258" y="-424" font-family="Helvetica,sans-Serif" font-size="10.00">mat::MatrixBase::getNumRows</text>
</a>
</g>
</g>
<!-- Node169&#45;&gt;Node170 -->
<g id="edge25" class="edge"><title>Node169&#45;&gt;Node170</title>
<path fill="none" stroke="midnightblue" d="M1128.06,-426.5C1141.28,-426.5 1155.54,-426.5 1169.6,-426.5"/>
<polygon fill="midnightblue" stroke="midnightblue" points="1169.77,-430 1179.77,-426.5 1169.77,-423 1169.77,-430"/>
</g>
<!-- Node178&#45;&gt;Node159 -->
<g id="edge42" class="edge"><title>Node178&#45;&gt;Node159</title>
<path fill="none" stroke="midnightblue" d="M269.678,-533.5C333.83,-533.5 449.559,-533.5 548.5,-533.5 548.5,-533.5 548.5,-533.5 887,-533.5 1002.88,-533.5 1054.34,-562.919 1144,-489.5 1155.03,-480.465 1223.53,-290.428 1248.18,-221.333"/>
<polygon fill="midnightblue" stroke="midnightblue" points="1251.55,-222.284 1251.61,-211.689 1244.96,-219.935 1251.55,-222.284"/>
</g>
<!-- Node179 -->
<g id="node28" class="node"><title>Node179</title>
<g id="a_node28"><a xlink:href="namespaceinterfacesse.html#a925f44ed84d40e9af5050fa0e1373396" target="_top" xlink:title="copy array aoarrayt_x in aoarrayt_y of type T ">
<polygon fill="white" stroke="black" points="333,-562 333,-581 432,-581 432,-562 333,-562"/>
<text text-anchor="middle" x="382.5" y="-569" font-family="Helvetica,sans-Serif" font-size="10.00">interfacesse::copy</text>
</a>
</g>
</g>
<!-- Node178&#45;&gt;Node179 -->
<g id="edge37" class="edge"><title>Node178&#45;&gt;Node179</title>
<path fill="none" stroke="midnightblue" d="M269.68,-545.108C289.131,-549.699 311.472,-554.972 331.046,-559.592"/>
<polygon fill="midnightblue" stroke="midnightblue" points="330.463,-563.05 341,-561.941 332.071,-556.237 330.463,-563.05"/>
</g>
<!-- Node180 -->
<g id="node29" class="node"><title>Node180</title>
<g id="a_node29"><a xlink:href="namespaceinterfacesse.html#afaa45a2a27710ea2dfa979289cf4961d" target="_top" xlink:title="swap items of aoarrayt_y to aiarrayt_x ">
<polygon fill="white" stroke="black" points="499,-562 499,-581 600,-581 600,-562 499,-562"/>
<text text-anchor="middle" x="549.5" y="-569" font-family="Helvetica,sans-Serif" font-size="10.00">interfacesse::swap</text>
</a>
</g>
</g>
<!-- Node179&#45;&gt;Node180 -->
<g id="edge38" class="edge"><title>Node179&#45;&gt;Node180</title>
<path fill="none" stroke="midnightblue" d="M432.113,-571.5C449.839,-571.5 470.091,-571.5 488.678,-571.5"/>
<polygon fill="midnightblue" stroke="midnightblue" points="488.806,-575 498.806,-571.5 488.806,-568 488.806,-575"/>
</g>
<!-- Node181 -->
<g id="node30" class="node"><title>Node181</title>
<g id="a_node30"><a xlink:href="namespaceinterfacesse.html#a2f42addf86fc8b9cd0c6620217b8a2db" target="_top" xlink:title="swap items of aoarrayt_y to aiarrayt_x ">
<polygon fill="white" stroke="black" points="670.5,-562 670.5,-581 762.5,-581 762.5,-562 670.5,-562"/>
<text text-anchor="middle" x="716.5" y="-569" font-family="Helvetica,sans-Serif" font-size="10.00">interfacesse::dot</text>
</a>
</g>
</g>
<!-- Node180&#45;&gt;Node181 -->
<g id="edge39" class="edge"><title>Node180&#45;&gt;Node181</title>
<path fill="none" stroke="midnightblue" d="M600.005,-571.5C618.914,-571.5 640.592,-571.5 660.022,-571.5"/>
<polygon fill="midnightblue" stroke="midnightblue" points="660.251,-575 670.251,-571.5 660.251,-568 660.251,-575"/>
</g>
<!-- Node182 -->
<g id="node31" class="node"><title>Node182</title>
<g id="a_node31"><a xlink:href="namespaceinterfacesse.html#a25f6950d589b92fd5bcf2007fb3fae19" target="_top" xlink:title="interfacesse::sum">
<polygon fill="white" stroke="black" points="838,-486 838,-505 934,-505 934,-486 838,-486"/>
<text text-anchor="middle" x="886" y="-493" font-family="Helvetica,sans-Serif" font-size="10.00">interfacesse::sum</text>
</a>
</g>
</g>
<!-- Node181&#45;&gt;Node182 -->
<g id="edge40" class="edge"><title>Node181&#45;&gt;Node182</title>
<path fill="none" stroke="midnightblue" d="M738.714,-561.875C768.039,-548.569 821.129,-524.48 854.646,-509.272"/>
<polygon fill="midnightblue" stroke="midnightblue" points="856.298,-512.367 863.958,-505.047 853.406,-505.992 856.298,-512.367"/>
</g>
<!-- Node182&#45;&gt;Node161 -->
<g id="edge41" class="edge"><title>Node182&#45;&gt;Node161</title>
<path fill="none" stroke="midnightblue" d="M934.03,-488.932C956.508,-485.792 983.638,-482.003 1007.44,-478.679"/>
<polygon fill="midnightblue" stroke="midnightblue" points="1007.99,-482.136 1017.41,-477.286 1007.02,-475.203 1007.99,-482.136"/>
</g>
</g>
</svg>
