<?xml version="1.0" encoding="UTF-8" standalone="no"?>
<!DOCTYPE svg PUBLIC "-//W3C//DTD SVG 1.1//EN"
 "http://www.w3.org/Graphics/SVG/1.1/DTD/svg11.dtd">
<!-- Generated by graphviz version 2.38.0 (20140413.2041)
 -->
<!-- Title: mat::BitMatrix::copyUnaligned Pages: 1 -->
<svg width="740pt" height="154pt"
 viewBox="0.00 0.00 740.00 154.00" xmlns="http://www.w3.org/2000/svg" xmlns:xlink="http://www.w3.org/1999/xlink">
<g id="graph0" class="graph" transform="scale(1 1) rotate(0) translate(4 150)">
<title>mat::BitMatrix::copyUnaligned</title>
<polygon fill="white" stroke="none" points="-4,4 -4,-150 736,-150 736,4 -4,4"/>
<!-- Node21 -->
<g id="node1" class="node"><title>Node21</title>
<polygon fill="#bfbfbf" stroke="black" points="0,-66.5 0,-85.5 151,-85.5 151,-66.5 0,-66.5"/>
<text text-anchor="middle" x="75.5" y="-73.5" font-family="Helvetica,sans-Serif" font-size="10.00">mat::BitMatrix::copyUnaligned</text>
</g>
<!-- Node22 -->
<g id="node2" class="node"><title>Node22</title>
<g id="a_node2"><a xlink:href="classds_1_1_bit_container.html#a0c47f861be90cf88b10deee48e4f7c58" target="_top" xlink:title="ds::BitContainer::copyUnaligned">
<polygon fill="white" stroke="black" points="187,-126.5 187,-145.5 349,-145.5 349,-126.5 187,-126.5"/>
<text text-anchor="middle" x="268" y="-133.5" font-family="Helvetica,sans-Serif" font-size="10.00">ds::BitContainer::copyUnaligned</text>
</a>
</g>
</g>
<!-- Node21&#45;&gt;Node22 -->
<g id="edge1" class="edge"><title>Node21&#45;&gt;Node22</title>
<path fill="none" stroke="midnightblue" d="M105.06,-85.5084C127.337,-92.8756 159.079,-103.265 187,-112 199.217,-115.822 212.522,-119.862 224.711,-123.515"/>
<polygon fill="midnightblue" stroke="midnightblue" points="224.056,-126.973 234.639,-126.48 226.059,-120.265 224.056,-126.973"/>
</g>
<!-- Node24 -->
<g id="node4" class="node"><title>Node24</title>
<g id="a_node4"><a xlink:href="classmat_1_1_bit_matrix.html#a5607bb84d71c58751390be62e798dd11" target="_top" xlink:title="mat::BitMatrix::getRow">
<polygon fill="white" stroke="black" points="594,-50.5 594,-69.5 712,-69.5 712,-50.5 594,-50.5"/>
<text text-anchor="middle" x="653" y="-57.5" font-family="Helvetica,sans-Serif" font-size="10.00">mat::BitMatrix::getRow</text>
</a>
</g>
</g>
<!-- Node21&#45;&gt;Node24 -->
<g id="edge3" class="edge"><title>Node21&#45;&gt;Node24</title>
<path fill="none" stroke="midnightblue" d="M151.091,-78.3009C163.097,-78.5918 175.39,-78.8424 187,-79 343.026,-81.1176 382.333,-81.7969 538,-71 552.747,-69.9772 568.543,-68.6207 583.535,-67.2107"/>
<polygon fill="midnightblue" stroke="midnightblue" points="584.143,-70.6685 593.763,-66.2294 583.474,-63.7005 584.143,-70.6685"/>
</g>
<!-- Node25 -->
<g id="node5" class="node"><title>Node25</title>
<g id="a_node5"><a xlink:href="classmat_1_1_bit_matrix.html#a00bc1c8502b8f7d4723656ff0a198a1a" target="_top" xlink:title="mat::BitMatrix::print\l_listAdj">
<polygon fill="white" stroke="black" points="217.5,-39 217.5,-69 318.5,-69 318.5,-39 217.5,-39"/>
<text text-anchor="start" x="225.5" y="-57" font-family="Helvetica,sans-Serif" font-size="10.00">mat::BitMatrix::print</text>
<text text-anchor="middle" x="268" y="-46" font-family="Helvetica,sans-Serif" font-size="10.00">_listAdj</text>
</a>
</g>
</g>
<!-- Node21&#45;&gt;Node25 -->
<g id="edge4" class="edge"><title>Node21&#45;&gt;Node25</title>
<path fill="none" stroke="midnightblue" d="M151.244,-67.3682C169.804,-65.2247 189.454,-62.9554 207.192,-60.9069"/>
<polygon fill="midnightblue" stroke="midnightblue" points="207.86,-64.3532 217.392,-59.729 207.057,-57.3994 207.86,-64.3532"/>
</g>
<!-- Node28 -->
<g id="node8" class="node"><title>Node28</title>
<g id="a_node8"><a xlink:href="classds_1_1_bit_container.html#a8c05ab649dca2fc2c0e62aba6e24d7a9" target="_top" xlink:title="ds::BitContainer::setArray">
<polygon fill="white" stroke="black" points="202,-0.5 202,-19.5 334,-19.5 334,-0.5 202,-0.5"/>
<text text-anchor="middle" x="268" y="-7.5" font-family="Helvetica,sans-Serif" font-size="10.00">ds::BitContainer::setArray</text>
</a>
</g>
</g>
<!-- Node21&#45;&gt;Node28 -->
<g id="edge9" class="edge"><title>Node21&#45;&gt;Node28</title>
<path fill="none" stroke="midnightblue" d="M96.9229,-66.4134C118.84,-56.3838 154.845,-40.6459 187,-30 195.683,-27.1251 205.015,-24.4395 214.131,-22.0277"/>
<polygon fill="midnightblue" stroke="midnightblue" points="215.081,-25.3975 223.897,-19.5222 213.341,-18.6171 215.081,-25.3975"/>
</g>
<!-- Node23 -->
<g id="node3" class="node"><title>Node23</title>
<g id="a_node3"><a xlink:href="classds_1_1_bit_container.html#addd9b30d11f1d2f871337a05c9cc65b6" target="_top" xlink:title="ds::BitContainer::print">
<polygon fill="white" stroke="black" points="405,-126.5 405,-145.5 518,-145.5 518,-126.5 405,-126.5"/>
<text text-anchor="middle" x="461.5" y="-133.5" font-family="Helvetica,sans-Serif" font-size="10.00">ds::BitContainer::print</text>
</a>
</g>
</g>
<!-- Node22&#45;&gt;Node23 -->
<g id="edge2" class="edge"><title>Node22&#45;&gt;Node23</title>
<path fill="none" stroke="midnightblue" d="M349.104,-136C364.343,-136 380.126,-136 394.851,-136"/>
<polygon fill="midnightblue" stroke="midnightblue" points="394.857,-139.5 404.857,-136 394.857,-132.5 394.857,-139.5"/>
</g>
<!-- Node25&#45;&gt;Node24 -->
<g id="edge5" class="edge"><title>Node25&#45;&gt;Node24</title>
<path fill="none" stroke="midnightblue" d="M318.678,-54.7782C386.24,-55.8367 507.384,-57.7345 583.527,-58.9273"/>
<polygon fill="midnightblue" stroke="midnightblue" points="583.908,-62.4336 593.962,-59.0908 584.018,-55.4345 583.908,-62.4336"/>
</g>
<!-- Node26 -->
<g id="node6" class="node"><title>Node26</title>
<g id="a_node6"><a xlink:href="classmat_1_1_bit_matrix.html#aad5655375eb32c7463915f06a0614aa1" target="_top" xlink:title="mat::BitMatrix::printByColumns">
<polygon fill="white" stroke="black" points="385,-12.5 385,-31.5 538,-31.5 538,-12.5 385,-12.5"/>
<text text-anchor="middle" x="461.5" y="-19.5" font-family="Helvetica,sans-Serif" font-size="10.00">mat::BitMatrix::printByColumns</text>
</a>
</g>
</g>
<!-- Node25&#45;&gt;Node26 -->
<g id="edge6" class="edge"><title>Node25&#45;&gt;Node26</title>
<path fill="none" stroke="midnightblue" d="M318.814,-45.6759C341.606,-41.8673 368.949,-37.2983 393.509,-33.1943"/>
<polygon fill="midnightblue" stroke="midnightblue" points="394.197,-36.628 403.483,-31.5276 393.043,-29.7237 394.197,-36.628"/>
</g>
<!-- Node26&#45;&gt;Node24 -->
<g id="edge8" class="edge"><title>Node26&#45;&gt;Node24</title>
<path fill="none" stroke="midnightblue" d="M510.319,-31.589C535.889,-36.7165 567.559,-43.0672 594.468,-48.4632"/>
<polygon fill="midnightblue" stroke="midnightblue" points="594.032,-51.9454 604.525,-50.4799 595.408,-45.0821 594.032,-51.9454"/>
</g>
<!-- Node27 -->
<g id="node7" class="node"><title>Node27</title>
<g id="a_node7"><a xlink:href="classmat_1_1_bit_matrix.html#acb0438a8816d82379fab71120540fcd1" target="_top" xlink:title="mat::BitMatrix::getNumColumns">
<polygon fill="white" stroke="black" points="574,-12.5 574,-31.5 732,-31.5 732,-12.5 574,-12.5"/>
<text text-anchor="middle" x="653" y="-19.5" font-family="Helvetica,sans-Serif" font-size="10.00">mat::BitMatrix::getNumColumns</text>
</a>
</g>
</g>
<!-- Node26&#45;&gt;Node27 -->
<g id="edge7" class="edge"><title>Node26&#45;&gt;Node27</title>
<path fill="none" stroke="midnightblue" d="M538.212,-22C546.659,-22 555.317,-22 563.902,-22"/>
<polygon fill="midnightblue" stroke="midnightblue" points="563.929,-25.5001 573.928,-22 563.928,-18.5001 563.929,-25.5001"/>
</g>
</g>
</svg>
