<?xml version="1.0" encoding="UTF-8" standalone="no"?>
<!DOCTYPE svg PUBLIC "-//W3C//DTD SVG 1.1//EN"
 "http://www.w3.org/Graphics/SVG/1.1/DTD/svg11.dtd">
<!-- Generated by graphviz version 2.38.0 (20140413.2041)
 -->
<!-- Title: inout::InParamPlotClustering::print Pages: 1 -->
<svg width="505pt" height="235pt"
 viewBox="0.00 0.00 505.00 235.00" xmlns="http://www.w3.org/2000/svg" xmlns:xlink="http://www.w3.org/1999/xlink">
<g id="graph0" class="graph" transform="scale(1 1) rotate(0) translate(4 231)">
<title>inout::InParamPlotClustering::print</title>
<polygon fill="white" stroke="none" points="-4,4 -4,-231 501,-231 501,4 -4,4"/>
<!-- Node30 -->
<g id="node1" class="node"><title>Node30</title>
<polygon fill="#bfbfbf" stroke="black" points="0,-122.5 0,-152.5 143,-152.5 143,-122.5 0,-122.5"/>
<text text-anchor="start" x="8" y="-140.5" font-family="Helvetica,sans-Serif" font-size="10.00">inout::InParamPlotClustering</text>
<text text-anchor="middle" x="71.5" y="-129.5" font-family="Helvetica,sans-Serif" font-size="10.00">::print</text>
</g>
<!-- Node31 -->
<g id="node2" class="node"><title>Node31</title>
<g id="a_node2"><a xlink:href="classinout_1_1_in_param_algorithmo.html#a97ec15acf20ba619b4538d193125a082" target="_top" xlink:title="inout::InParamAlgorithmo\l::print">
<polygon fill="white" stroke="black" points="179,-147.5 179,-177.5 308,-177.5 308,-147.5 179,-147.5"/>
<text text-anchor="start" x="187" y="-165.5" font-family="Helvetica,sans-Serif" font-size="10.00">inout::InParamAlgorithmo</text>
<text text-anchor="middle" x="243.5" y="-154.5" font-family="Helvetica,sans-Serif" font-size="10.00">::print</text>
</a>
</g>
</g>
<!-- Node30&#45;&gt;Node31 -->
<g id="edge1" class="edge"><title>Node30&#45;&gt;Node31</title>
<path fill="none" stroke="midnightblue" d="M143.118,-147.885C151.642,-149.139 160.365,-150.421 168.93,-151.681"/>
<polygon fill="midnightblue" stroke="midnightblue" points="168.488,-155.153 178.89,-153.146 169.506,-148.228 168.488,-155.153"/>
</g>
<!-- Node32 -->
<g id="node3" class="node"><title>Node32</title>
<g id="a_node3"><a xlink:href="classinout_1_1_in_param_read_inst.html#af8511d4844e09033e170fadca2e3abd2" target="_top" xlink:title="inout::InParamReadInst\l::print">
<polygon fill="white" stroke="black" points="183,-98.5 183,-128.5 304,-128.5 304,-98.5 183,-98.5"/>
<text text-anchor="start" x="191" y="-116.5" font-family="Helvetica,sans-Serif" font-size="10.00">inout::InParamReadInst</text>
<text text-anchor="middle" x="243.5" y="-105.5" font-family="Helvetica,sans-Serif" font-size="10.00">::print</text>
</a>
</g>
</g>
<!-- Node30&#45;&gt;Node32 -->
<g id="edge2" class="edge"><title>Node30&#45;&gt;Node32</title>
<path fill="none" stroke="midnightblue" d="M143.118,-127.53C152.936,-126.144 163.017,-124.721 172.817,-123.338"/>
<polygon fill="midnightblue" stroke="midnightblue" points="173.493,-126.777 182.905,-121.913 172.514,-119.846 173.493,-126.777"/>
</g>
<!-- Node33 -->
<g id="node4" class="node"><title>Node33</title>
<g id="a_node4"><a xlink:href="classinout_1_1_in_param_read_inst.html#a797250bacc8d887b96fa19247c5dd13f" target="_top" xlink:title="inout::InParamReadInst\l::getCurrentFileInstance">
<polygon fill="white" stroke="black" points="359,-196.5 359,-226.5 482,-226.5 482,-196.5 359,-196.5"/>
<text text-anchor="start" x="367" y="-214.5" font-family="Helvetica,sans-Serif" font-size="10.00">inout::InParamReadInst</text>
<text text-anchor="middle" x="420.5" y="-203.5" font-family="Helvetica,sans-Serif" font-size="10.00">::getCurrentFileInstance</text>
</a>
</g>
</g>
<!-- Node32&#45;&gt;Node33 -->
<g id="edge3" class="edge"><title>Node32&#45;&gt;Node33</title>
<path fill="none" stroke="midnightblue" d="M291.576,-128.503C297.387,-131.353 303.024,-134.669 308,-138.5 329.413,-154.985 322.045,-171.744 344,-187.5 346.102,-189.009 348.303,-190.425 350.577,-191.755"/>
<polygon fill="midnightblue" stroke="midnightblue" points="349.166,-194.966 359.654,-196.465 352.39,-188.752 349.166,-194.966"/>
</g>
<!-- Node34 -->
<g id="node5" class="node"><title>Node34</title>
<g id="a_node5"><a xlink:href="classinout_1_1_in_param_read_inst.html#a2bfdb61b53cf2421d4d7b77f1e117957" target="_top" xlink:title="inout::InParamReadInst\l::getNumInstances">
<polygon fill="white" stroke="black" points="360,-147.5 360,-177.5 481,-177.5 481,-147.5 360,-147.5"/>
<text text-anchor="start" x="368" y="-165.5" font-family="Helvetica,sans-Serif" font-size="10.00">inout::InParamReadInst</text>
<text text-anchor="middle" x="420.5" y="-154.5" font-family="Helvetica,sans-Serif" font-size="10.00">::getNumInstances</text>
</a>
</g>
</g>
<!-- Node32&#45;&gt;Node34 -->
<g id="edge4" class="edge"><title>Node32&#45;&gt;Node34</title>
<path fill="none" stroke="midnightblue" d="M298.434,-128.601C316.65,-133.702 337.153,-139.443 356.037,-144.73"/>
<polygon fill="midnightblue" stroke="midnightblue" points="355.171,-148.122 365.744,-147.448 357.058,-141.382 355.171,-148.122"/>
</g>
<!-- Node35 -->
<g id="node6" class="node"><title>Node35</title>
<g id="a_node6"><a xlink:href="classinout_1_1_in_param_read_inst.html#a175c4744ce41558415b2dc3555701edd" target="_top" xlink:title="inout::InParamReadInst\l::getNumDimensionsInstances">
<polygon fill="white" stroke="black" points="344,-98.5 344,-128.5 497,-128.5 497,-98.5 344,-98.5"/>
<text text-anchor="start" x="352" y="-116.5" font-family="Helvetica,sans-Serif" font-size="10.00">inout::InParamReadInst</text>
<text text-anchor="middle" x="420.5" y="-105.5" font-family="Helvetica,sans-Serif" font-size="10.00">::getNumDimensionsInstances</text>
</a>
</g>
</g>
<!-- Node32&#45;&gt;Node35 -->
<g id="edge5" class="edge"><title>Node32&#45;&gt;Node35</title>
<path fill="none" stroke="midnightblue" d="M304.236,-113.5C313.815,-113.5 323.891,-113.5 333.932,-113.5"/>
<polygon fill="midnightblue" stroke="midnightblue" points="333.942,-117 343.942,-113.5 333.942,-110 333.942,-117"/>
</g>
<!-- Node36 -->
<g id="node7" class="node"><title>Node36</title>
<g id="a_node7"><a xlink:href="classinout_1_1_in_param_read_inst.html#ab91dbd838ea608bd3bf963bb97398747" target="_top" xlink:title="inout::InParamReadInst\l::getCurrentFileInstanceTest">
<polygon fill="white" stroke="black" points="348.5,-49.5 348.5,-79.5 492.5,-79.5 492.5,-49.5 348.5,-49.5"/>
<text text-anchor="start" x="356.5" y="-67.5" font-family="Helvetica,sans-Serif" font-size="10.00">inout::InParamReadInst</text>
<text text-anchor="middle" x="420.5" y="-56.5" font-family="Helvetica,sans-Serif" font-size="10.00">::getCurrentFileInstanceTest</text>
</a>
</g>
</g>
<!-- Node32&#45;&gt;Node36 -->
<g id="edge6" class="edge"><title>Node32&#45;&gt;Node36</title>
<path fill="none" stroke="midnightblue" d="M298.434,-98.3986C316.65,-93.2981 337.153,-87.5571 356.037,-82.2695"/>
<polygon fill="midnightblue" stroke="midnightblue" points="357.058,-85.6183 365.744,-79.5516 355.171,-78.8776 357.058,-85.6183"/>
</g>
<!-- Node37 -->
<g id="node8" class="node"><title>Node37</title>
<g id="a_node8"><a xlink:href="classinout_1_1_in_param_read_inst.html#a6539b0e38e129a23eae4cb506e4c08f1" target="_top" xlink:title="inout::InParamReadInst\l::getNumInstancesTest">
<polygon fill="white" stroke="black" points="360,-0.5 360,-30.5 481,-30.5 481,-0.5 360,-0.5"/>
<text text-anchor="start" x="368" y="-18.5" font-family="Helvetica,sans-Serif" font-size="10.00">inout::InParamReadInst</text>
<text text-anchor="middle" x="420.5" y="-7.5" font-family="Helvetica,sans-Serif" font-size="10.00">::getNumInstancesTest</text>
</a>
</g>
</g>
<!-- Node32&#45;&gt;Node37 -->
<g id="edge7" class="edge"><title>Node32&#45;&gt;Node37</title>
<path fill="none" stroke="midnightblue" d="M261.717,-98.235C280.722,-82.0397 312.775,-56.612 344,-40.5 348.226,-38.3196 352.681,-36.2734 357.227,-34.3648"/>
<polygon fill="midnightblue" stroke="midnightblue" points="358.63,-37.5737 366.642,-30.6414 356.056,-31.0642 358.63,-37.5737"/>
</g>
</g>
</svg>
