<?xml version="1.0" encoding="UTF-8" standalone="no"?>
<!DOCTYPE svg PUBLIC "-//W3C//DTD SVG 1.1//EN"
 "http://www.w3.org/Graphics/SVG/1.1/DTD/svg11.dtd">
<!-- Generated by graphviz version 2.38.0 (20140413.2041)
 -->
<!-- Title: gaencode::ChromVariableLength::ChromVariableLength Pages: 1 -->
<svg width="1244pt" height="78pt"
 viewBox="0.00 0.00 1244.00 77.50" xmlns="http://www.w3.org/2000/svg" xmlns:xlink="http://www.w3.org/1999/xlink">
<g id="graph0" class="graph" transform="scale(1 1) rotate(0) translate(4 73.5)">
<title>gaencode::ChromVariableLength::ChromVariableLength</title>
<polygon fill="white" stroke="none" points="-4,4 -4,-73.5 1240,-73.5 1240,4 -4,4"/>
<!-- Node7 -->
<g id="node1" class="node"><title>Node7</title>
<polygon fill="#bfbfbf" stroke="black" points="0,-22.5 0,-52.5 167,-52.5 167,-22.5 0,-22.5"/>
<text text-anchor="start" x="8" y="-40.5" font-family="Helvetica,sans-Serif" font-size="10.00">gaencode::ChromVariableLength</text>
<text text-anchor="middle" x="83.5" y="-29.5" font-family="Helvetica,sans-Serif" font-size="10.00">::ChromVariableLength</text>
</g>
<!-- Node8 -->
<g id="node2" class="node"><title>Node8</title>
<g id="a_node2"><a xlink:href="namespaceinterfacesse.html#a925f44ed84d40e9af5050fa0e1373396" target="_top" xlink:title="copy array aoarrayt_x in aoarrayt_y of type T ">
<polygon fill="white" stroke="black" points="237,-50 237,-69 336,-69 336,-50 237,-50"/>
<text text-anchor="middle" x="286.5" y="-57" font-family="Helvetica,sans-Serif" font-size="10.00">interfacesse::copy</text>
</a>
</g>
</g>
<!-- Node7&#45;&gt;Node8 -->
<g id="edge1" class="edge"><title>Node7&#45;&gt;Node8</title>
<path fill="none" stroke="midnightblue" d="M167.125,-46.5435C187.132,-48.7334 208.117,-51.0302 226.767,-53.0715"/>
<polygon fill="midnightblue" stroke="midnightblue" points="226.546,-56.5681 236.867,-54.177 227.307,-49.6097 226.546,-56.5681"/>
</g>
<!-- Node15 -->
<g id="node9" class="node"><title>Node15</title>
<g id="a_node9"><a xlink:href="classgaencode_1_1_chrom_variable_length.html#ad9aade851fa130ddc0fb16a1dd9a15e1" target="_top" xlink:title="gaencode::ChromVariableLength\l::print">
<polygon fill="white" stroke="black" points="203,-0.5 203,-30.5 370,-30.5 370,-0.5 203,-0.5"/>
<text text-anchor="start" x="211" y="-18.5" font-family="Helvetica,sans-Serif" font-size="10.00">gaencode::ChromVariableLength</text>
<text text-anchor="middle" x="286.5" y="-7.5" font-family="Helvetica,sans-Serif" font-size="10.00">::print</text>
</a>
</g>
</g>
<!-- Node7&#45;&gt;Node15 -->
<g id="edge8" class="edge"><title>Node7&#45;&gt;Node15</title>
<path fill="none" stroke="midnightblue" d="M167.125,-28.4565C175.607,-27.528 184.266,-26.5803 192.848,-25.641"/>
<polygon fill="midnightblue" stroke="midnightblue" points="193.312,-29.1113 202.872,-24.5439 192.55,-22.1528 193.312,-29.1113"/>
</g>
<!-- Node9 -->
<g id="node3" class="node"><title>Node9</title>
<g id="a_node3"><a xlink:href="namespaceinterfacesse.html#afaa45a2a27710ea2dfa979289cf4961d" target="_top" xlink:title="swap items of aoarrayt_y to aiarrayt_x ">
<polygon fill="white" stroke="black" points="433,-50 433,-69 534,-69 534,-50 433,-50"/>
<text text-anchor="middle" x="483.5" y="-57" font-family="Helvetica,sans-Serif" font-size="10.00">interfacesse::swap</text>
</a>
</g>
</g>
<!-- Node8&#45;&gt;Node9 -->
<g id="edge2" class="edge"><title>Node8&#45;&gt;Node9</title>
<path fill="none" stroke="midnightblue" d="M336.204,-59.5C362.311,-59.5 394.708,-59.5 422.374,-59.5"/>
<polygon fill="midnightblue" stroke="midnightblue" points="422.723,-63.0001 432.723,-59.5 422.723,-56.0001 422.723,-63.0001"/>
</g>
<!-- Node10 -->
<g id="node4" class="node"><title>Node10</title>
<g id="a_node4"><a xlink:href="namespaceinterfacesse.html#a2f42addf86fc8b9cd0c6620217b8a2db" target="_top" xlink:title="swap items of aoarrayt_y to aiarrayt_x ">
<polygon fill="white" stroke="black" points="597,-50 597,-69 689,-69 689,-50 597,-50"/>
<text text-anchor="middle" x="643" y="-57" font-family="Helvetica,sans-Serif" font-size="10.00">interfacesse::dot</text>
</a>
</g>
</g>
<!-- Node9&#45;&gt;Node10 -->
<g id="edge3" class="edge"><title>Node9&#45;&gt;Node10</title>
<path fill="none" stroke="midnightblue" d="M534.334,-59.5C550.902,-59.5 569.454,-59.5 586.428,-59.5"/>
<polygon fill="midnightblue" stroke="midnightblue" points="586.761,-63.0001 596.761,-59.5 586.761,-56.0001 586.761,-63.0001"/>
</g>
<!-- Node11 -->
<g id="node5" class="node"><title>Node11</title>
<g id="a_node5"><a xlink:href="namespaceinterfacesse.html#a25f6950d589b92fd5bcf2007fb3fae19" target="_top" xlink:title="interfacesse::sum">
<polygon fill="white" stroke="black" points="725,-50 725,-69 821,-69 821,-50 725,-50"/>
<text text-anchor="middle" x="773" y="-57" font-family="Helvetica,sans-Serif" font-size="10.00">interfacesse::sum</text>
</a>
</g>
</g>
<!-- Node10&#45;&gt;Node11 -->
<g id="edge4" class="edge"><title>Node10&#45;&gt;Node11</title>
<path fill="none" stroke="midnightblue" d="M689.128,-59.5C697.315,-59.5 705.955,-59.5 714.442,-59.5"/>
<polygon fill="midnightblue" stroke="midnightblue" points="714.679,-63.0001 724.678,-59.5 714.678,-56.0001 714.679,-63.0001"/>
</g>
<!-- Node12 -->
<g id="node6" class="node"><title>Node12</title>
<g id="a_node6"><a xlink:href="namespaceinterfacesse.html#a9dd5fb43ad8a83ee5cb2f5ba1bb2085b" target="_top" xlink:title="interfacesse::axpy">
<polygon fill="white" stroke="black" points="857,-50 857,-69 956,-69 956,-50 857,-50"/>
<text text-anchor="middle" x="906.5" y="-57" font-family="Helvetica,sans-Serif" font-size="10.00">interfacesse::axpy</text>
</a>
</g>
</g>
<!-- Node11&#45;&gt;Node12 -->
<g id="edge5" class="edge"><title>Node11&#45;&gt;Node12</title>
<path fill="none" stroke="midnightblue" d="M821.103,-59.5C829.472,-59.5 838.281,-59.5 846.922,-59.5"/>
<polygon fill="midnightblue" stroke="midnightblue" points="846.953,-63.0001 856.953,-59.5 846.953,-56.0001 846.953,-63.0001"/>
</g>
<!-- Node13 -->
<g id="node7" class="node"><title>Node13</title>
<g id="a_node7"><a xlink:href="namespaceinterfacesse.html#ae3f94c42a59db65b2941dbfc9f449ea1" target="_top" xlink:title="function xAXPY of blas for doubles vectors ">
<polygon fill="white" stroke="black" points="992,-50 992,-69 1104,-69 1104,-50 992,-50"/>
<text text-anchor="middle" x="1048" y="-57" font-family="Helvetica,sans-Serif" font-size="10.00">interfacesse::axpyInv</text>
</a>
</g>
</g>
<!-- Node12&#45;&gt;Node13 -->
<g id="edge6" class="edge"><title>Node12&#45;&gt;Node13</title>
<path fill="none" stroke="midnightblue" d="M956.29,-59.5C964.535,-59.5 973.211,-59.5 981.794,-59.5"/>
<polygon fill="midnightblue" stroke="midnightblue" points="981.797,-63.0001 991.797,-59.5 981.797,-56.0001 981.797,-63.0001"/>
</g>
<!-- Node14 -->
<g id="node8" class="node"><title>Node14</title>
<g id="a_node8"><a xlink:href="namespaceinterfacesse.html#a144ebf70bf38495c3de1aca2c8365e08" target="_top" xlink:title="scal items of the array of type T ">
<polygon fill="white" stroke="black" points="1140,-50 1140,-69 1236,-69 1236,-50 1140,-50"/>
<text text-anchor="middle" x="1188" y="-57" font-family="Helvetica,sans-Serif" font-size="10.00">interfacesse::scal</text>
</a>
</g>
</g>
<!-- Node13&#45;&gt;Node14 -->
<g id="edge7" class="edge"><title>Node13&#45;&gt;Node14</title>
<path fill="none" stroke="midnightblue" d="M1104.33,-59.5C1112.65,-59.5 1121.24,-59.5 1129.6,-59.5"/>
<polygon fill="midnightblue" stroke="midnightblue" points="1129.65,-63.0001 1139.65,-59.5 1129.65,-56.0001 1129.65,-63.0001"/>
</g>
<!-- Node16 -->
<g id="node10" class="node"><title>Node16</title>
<g id="a_node10"><a xlink:href="classgaencode_1_1_chromosome_base.html#ab7a374a062ba8b5c6b4e674bae9a8299" target="_top" xlink:title="gaencode::ChromosomeBase\l::print">
<polygon fill="white" stroke="black" points="406,-0.5 406,-30.5 561,-30.5 561,-0.5 406,-0.5"/>
<text text-anchor="start" x="414" y="-18.5" font-family="Helvetica,sans-Serif" font-size="10.00">gaencode::ChromosomeBase</text>
<text text-anchor="middle" x="483.5" y="-7.5" font-family="Helvetica,sans-Serif" font-size="10.00">::print</text>
</a>
</g>
</g>
<!-- Node15&#45;&gt;Node16 -->
<g id="edge9" class="edge"><title>Node15&#45;&gt;Node16</title>
<path fill="none" stroke="midnightblue" d="M370.198,-15.5C378.61,-15.5 387.174,-15.5 395.629,-15.5"/>
<polygon fill="midnightblue" stroke="midnightblue" points="395.873,-19.0001 405.873,-15.5 395.872,-12.0001 395.873,-19.0001"/>
</g>
</g>
</svg>
