<?xml version="1.0" encoding="UTF-8" standalone="no"?>
<!DOCTYPE svg PUBLIC "-//W3C//DTD SVG 1.1//EN"
 "http://www.w3.org/Graphics/SVG/1.1/DTD/svg11.dtd">
<!-- Generated by graphviz version 2.38.0 (20140413.2041)
 -->
<!-- Title: gaencode::ChromosomeCBGA::optimalCodebook Pages: 1 -->
<svg width="704pt" height="142pt"
 viewBox="0.00 0.00 704.00 142.00" xmlns="http://www.w3.org/2000/svg" xmlns:xlink="http://www.w3.org/1999/xlink">
<g id="graph0" class="graph" transform="scale(1 1) rotate(0) translate(4 138)">
<title>gaencode::ChromosomeCBGA::optimalCodebook</title>
<polygon fill="white" stroke="none" points="-4,4 -4,-138 700,-138 700,4 -4,4"/>
<!-- Node27 -->
<g id="node1" class="node"><title>Node27</title>
<g id="a_node1"><a xlink:title=" ">
<polygon fill="#bfbfbf" stroke="black" points="0,-30 0,-60 160,-60 160,-30 0,-30"/>
<text text-anchor="start" x="8" y="-48" font-family="Helvetica,sans-Serif" font-size="10.00">gaencode::ChromosomeCBGA</text>
<text text-anchor="middle" x="80" y="-37" font-family="Helvetica,sans-Serif" font-size="10.00">::optimalCodebook</text>
</a>
</g>
</g>
<!-- Node28 -->
<g id="node2" class="node"><title>Node28</title>
<g id="a_node2"><a xlink:href="namespaceclusteringop.html#ab64951784015cb55d4b8a32993255713" target="_top" xlink:title=" ">
<polygon fill="white" stroke="black" points="203,-57.5 203,-76.5 349,-76.5 349,-57.5 203,-57.5"/>
<text text-anchor="middle" x="276" y="-64.5" font-family="Helvetica,sans-Serif" font-size="10.00">clusteringop::meanCentroids</text>
</a>
</g>
</g>
<!-- Node27&#45;&gt;Node28 -->
<g id="edge1" class="edge"><title>Node27&#45;&gt;Node28</title>
<path fill="none" stroke="midnightblue" d="M160.187,-53.98C170.906,-55.1955 181.925,-56.4451 192.696,-57.6666"/>
<polygon fill="midnightblue" stroke="midnightblue" points="192.599,-61.178 202.93,-58.8271 193.388,-54.2225 192.599,-61.178"/>
</g>
<!-- Node36 -->
<g id="node10" class="node"><title>Node36</title>
<g id="a_node10"><a xlink:href="classgaencode_1_1_chromosome_c_b_g_a.html#ac35b37b50e229f72f9243b872c94a82f" target="_top" xlink:title=" ">
<polygon fill="white" stroke="black" points="196,-8 196,-38 356,-38 356,-8 196,-8"/>
<text text-anchor="start" x="204" y="-26" font-family="Helvetica,sans-Serif" font-size="10.00">gaencode::ChromosomeCBGA</text>
<text text-anchor="middle" x="276" y="-15" font-family="Helvetica,sans-Serif" font-size="10.00">::setOptimalityCBGA</text>
</a>
</g>
</g>
<!-- Node27&#45;&gt;Node36 -->
<g id="edge9" class="edge"><title>Node27&#45;&gt;Node36</title>
<path fill="none" stroke="midnightblue" d="M160.187,-36.02C168.621,-35.0636 177.241,-34.086 185.781,-33.1177"/>
<polygon fill="midnightblue" stroke="midnightblue" points="186.21,-36.5915 195.752,-31.9869 185.421,-29.6361 186.21,-36.5915"/>
</g>
<!-- Node29 -->
<g id="node3" class="node"><title>Node29</title>
<g id="a_node3"><a xlink:href="classmat_1_1_matrix_base.html#ac500eedd5e203327d3292f8ab22d8f3e" target="_top" xlink:title=" ">
<polygon fill="white" stroke="black" points="392,-114.5 392,-133.5 548,-133.5 548,-114.5 392,-114.5"/>
<text text-anchor="middle" x="470" y="-121.5" font-family="Helvetica,sans-Serif" font-size="10.00">mat::MatrixBase::getNumRows</text>
</a>
</g>
</g>
<!-- Node28&#45;&gt;Node29 -->
<g id="edge2" class="edge"><title>Node28&#45;&gt;Node29</title>
<path fill="none" stroke="midnightblue" d="M304.233,-76.6583C327.419,-84.7222 361.692,-96.2675 392,-105 400.273,-107.384 409.099,-109.737 417.714,-111.931"/>
<polygon fill="midnightblue" stroke="midnightblue" points="417.133,-115.394 427.684,-114.428 418.834,-108.604 417.133,-115.394"/>
</g>
<!-- Node30 -->
<g id="node4" class="node"><title>Node30</title>
<g id="a_node4"><a xlink:href="classmat_1_1_matrix_base.html#ae3b1c4b8e9cb7e7685d7bc129f875dcd" target="_top" xlink:title=" ">
<polygon fill="white" stroke="black" points="404.5,-76.5 404.5,-95.5 535.5,-95.5 535.5,-76.5 404.5,-76.5"/>
<text text-anchor="middle" x="470" y="-83.5" font-family="Helvetica,sans-Serif" font-size="10.00">mat::MatrixBase::getRow</text>
</a>
</g>
</g>
<!-- Node28&#45;&gt;Node30 -->
<g id="edge3" class="edge"><title>Node28&#45;&gt;Node30</title>
<path fill="none" stroke="midnightblue" d="M349.04,-74.129C363.824,-75.592 379.418,-77.1351 394.294,-78.6072"/>
<polygon fill="midnightblue" stroke="midnightblue" points="394.162,-82.1112 404.459,-79.6131 394.852,-75.1452 394.162,-82.1112"/>
</g>
<!-- Node31 -->
<g id="node5" class="node"><title>Node31</title>
<g id="a_node5"><a xlink:href="namespacestats.html#a61ea16e97e098fc1598f4a2975cb0a24" target="_top" xlink:title="￼Calculate average of a vector">
<polygon fill="white" stroke="black" points="421,-38.5 421,-57.5 519,-57.5 519,-38.5 421,-38.5"/>
<text text-anchor="middle" x="470" y="-45.5" font-family="Helvetica,sans-Serif" font-size="10.00">stats::meanVector</text>
</a>
</g>
</g>
<!-- Node28&#45;&gt;Node31 -->
<g id="edge4" class="edge"><title>Node28&#45;&gt;Node31</title>
<path fill="none" stroke="midnightblue" d="M349.04,-59.871C369.334,-57.8627 391.155,-55.7034 410.548,-53.7843"/>
<polygon fill="midnightblue" stroke="midnightblue" points="411.14,-57.2429 420.747,-52.7751 410.451,-50.2769 411.14,-57.2429"/>
</g>
<!-- Node35 -->
<g id="node9" class="node"><title>Node35</title>
<g id="a_node9"><a xlink:href="classmat_1_1_matrix_base.html#a4cdb6c084f99e4aec0373760c093ee11" target="_top" xlink:title=" ">
<polygon fill="white" stroke="black" points="413,-0.5 413,-19.5 527,-19.5 527,-0.5 413,-0.5"/>
<text text-anchor="middle" x="470" y="-7.5" font-family="Helvetica,sans-Serif" font-size="10.00">mat::MatrixBase::print</text>
</a>
</g>
</g>
<!-- Node28&#45;&gt;Node35 -->
<g id="edge8" class="edge"><title>Node28&#45;&gt;Node35</title>
<path fill="none" stroke="midnightblue" d="M321.805,-57.4423C333.112,-54.5455 345.125,-51.0412 356,-47 372.768,-40.7687 375.213,-35.1807 392,-29 398.84,-26.4816 406.144,-24.1922 413.427,-22.145"/>
<polygon fill="midnightblue" stroke="midnightblue" points="414.544,-25.4693 423.301,-19.5044 412.736,-18.7069 414.544,-25.4693"/>
</g>
<!-- Node32 -->
<g id="node6" class="node"><title>Node32</title>
<g id="a_node6"><a xlink:href="namespaceinout.html#a0c10a45877a347dec0d4ec4e5b05b828" target="_top" xlink:title=" ">
<polygon fill="white" stroke="black" points="588.5,-76.5 588.5,-95.5 691.5,-95.5 691.5,-76.5 588.5,-76.5"/>
<text text-anchor="middle" x="640" y="-83.5" font-family="Helvetica,sans-Serif" font-size="10.00">inout::containerprint</text>
</a>
</g>
</g>
<!-- Node31&#45;&gt;Node32 -->
<g id="edge5" class="edge"><title>Node31&#45;&gt;Node32</title>
<path fill="none" stroke="midnightblue" d="M513.393,-57.589C535.763,-62.6487 563.398,-68.8996 587.047,-74.2488"/>
<polygon fill="midnightblue" stroke="midnightblue" points="586.386,-77.6875 596.911,-76.4799 587.93,-70.8599 586.386,-77.6875"/>
</g>
<!-- Node33 -->
<g id="node7" class="node"><title>Node33</title>
<g id="a_node7"><a xlink:href="namespaceinterfacesse.html#aa4b94bf2bf8cb7c437fa3feba8b70ff8" target="_top" xlink:title="Initializes the array with a constant .">
<polygon fill="white" stroke="black" points="587.5,-38.5 587.5,-57.5 692.5,-57.5 692.5,-38.5 587.5,-38.5"/>
<text text-anchor="middle" x="640" y="-45.5" font-family="Helvetica,sans-Serif" font-size="10.00">interfacesse::copya</text>
</a>
</g>
</g>
<!-- Node31&#45;&gt;Node33 -->
<g id="edge6" class="edge"><title>Node31&#45;&gt;Node33</title>
<path fill="none" stroke="midnightblue" d="M519.142,-48C537.224,-48 558.034,-48 577.187,-48"/>
<polygon fill="midnightblue" stroke="midnightblue" points="577.328,-51.5001 587.327,-48 577.327,-44.5001 577.328,-51.5001"/>
</g>
<!-- Node34 -->
<g id="node8" class="node"><title>Node34</title>
<g id="a_node8"><a xlink:href="namespaceinterfacesse.html#ae3f94c42a59db65b2941dbfc9f449ea1" target="_top" xlink:title="function xAXPY of blas for doubles vectors">
<polygon fill="white" stroke="black" points="584,-0.5 584,-19.5 696,-19.5 696,-0.5 584,-0.5"/>
<text text-anchor="middle" x="640" y="-7.5" font-family="Helvetica,sans-Serif" font-size="10.00">interfacesse::axpyInv</text>
</a>
</g>
</g>
<!-- Node31&#45;&gt;Node34 -->
<g id="edge7" class="edge"><title>Node31&#45;&gt;Node34</title>
<path fill="none" stroke="midnightblue" d="M513.393,-38.411C535.763,-33.3513 563.398,-27.1004 587.047,-21.7512"/>
<polygon fill="midnightblue" stroke="midnightblue" points="587.93,-25.1401 596.911,-19.5201 586.386,-18.3125 587.93,-25.1401"/>
</g>
</g>
</svg>
