<?xml version="1.0" encoding="UTF-8" standalone="no"?>
<!DOCTYPE svg PUBLIC "-//W3C//DTD SVG 1.1//EN"
 "http://www.w3.org/Graphics/SVG/1.1/DTD/svg11.dtd">
<!-- Generated by graphviz version 2.38.0 (20140413.2041)
 -->
<!-- Title: inout::InParamPcPmFk&lt; T_CLUSTERIDX, T_REAL, T_FEATURE, T_FEATURE_SUM, T_INSTANCES_CLUSTER_K &gt; Pages: 1 -->
<svg width="568pt" height="1337pt"
 viewBox="0.00 0.00 567.50 1337.00" xmlns="http://www.w3.org/2000/svg" xmlns:xlink="http://www.w3.org/1999/xlink">
<g id="graph0" class="graph" transform="scale(1 1) rotate(0) translate(4 1333)">
<title>inout::InParamPcPmFk&lt; T_CLUSTERIDX, T_REAL, T_FEATURE, T_FEATURE_SUM, T_INSTANCES_CLUSTER_K &gt;</title>
<polygon fill="white" stroke="none" points="-4,4 -4,-1333 563.5,-1333 563.5,4 -4,4"/>
<!-- Node10 -->
<g id="node1" class="node"><title>Node10</title>
<polygon fill="#bfbfbf" stroke="black" points="161,-0.5 161,-112.5 334,-112.5 334,-0.5 161,-0.5"/>
<text text-anchor="start" x="169" y="-100.5" font-family="Helvetica,sans-Serif" font-size="10.00">inout::InParamPcPmFk</text>
<text text-anchor="start" x="169" y="-89.5" font-family="Helvetica,sans-Serif" font-size="10.00">&lt; T_CLUSTERIDX, T_REAL,</text>
<text text-anchor="start" x="169" y="-78.5" font-family="Helvetica,sans-Serif" font-size="10.00"> T_FEATURE, T_FEATURE_SUM,</text>
<text text-anchor="middle" x="247.5" y="-67.5" font-family="Helvetica,sans-Serif" font-size="10.00"> T_INSTANCES_CLUSTER_K &gt;</text>
<polyline fill="none" stroke="black" points="161,-60.5 334,-60.5 "/>
<text text-anchor="middle" x="247.5" y="-48.5" font-family="Helvetica,sans-Serif" font-size="10.00"> </text>
<polyline fill="none" stroke="black" points="161,-41.5 334,-41.5 "/>
<text text-anchor="start" x="169" y="-29.5" font-family="Helvetica,sans-Serif" font-size="10.00">+ InParamPcPmFk()</text>
<text text-anchor="start" x="169" y="-18.5" font-family="Helvetica,sans-Serif" font-size="10.00">+ ~InParamPcPmFk()</text>
<text text-anchor="start" x="169" y="-7.5" font-family="Helvetica,sans-Serif" font-size="10.00">+ print()</text>
</g>
<!-- Node11 -->
<g id="node2" class="node"><title>Node11</title>
<g id="a_node2"><a xlink:href="classinout_1_1_in_param_pc_pm.html" target="_top" xlink:title="Input parameter for GA with probability crossover (Pc) and mutation (Pm) ">
<polygon fill="white" stroke="black" points="58.5,-150.5 58.5,-295.5 172.5,-295.5 172.5,-150.5 58.5,-150.5"/>
<text text-anchor="start" x="66.5" y="-283.5" font-family="Helvetica,sans-Serif" font-size="10.00">inout::InParamPcPm</text>
<text text-anchor="middle" x="115.5" y="-272.5" font-family="Helvetica,sans-Serif" font-size="10.00">&lt; T_REAL &gt;</text>
<polyline fill="none" stroke="black" points="58.5,-265.5 172.5,-265.5 "/>
<text text-anchor="start" x="66.5" y="-253.5" font-family="Helvetica,sans-Serif" font-size="10.00"># t_probCrossover</text>
<text text-anchor="start" x="66.5" y="-242.5" font-family="Helvetica,sans-Serif" font-size="10.00"># t_probMutation</text>
<polyline fill="none" stroke="black" points="58.5,-235.5 172.5,-235.5 "/>
<text text-anchor="start" x="66.5" y="-223.5" font-family="Helvetica,sans-Serif" font-size="10.00">+ InParamPcPm()</text>
<text text-anchor="start" x="66.5" y="-212.5" font-family="Helvetica,sans-Serif" font-size="10.00">+ ~InParamPcPm()</text>
<text text-anchor="start" x="66.5" y="-201.5" font-family="Helvetica,sans-Serif" font-size="10.00">+ setProbCrossover()</text>
<text text-anchor="start" x="66.5" y="-190.5" font-family="Helvetica,sans-Serif" font-size="10.00">+ getProbCrossover()</text>
<text text-anchor="start" x="66.5" y="-179.5" font-family="Helvetica,sans-Serif" font-size="10.00">+ setProbMutation()</text>
<text text-anchor="start" x="66.5" y="-168.5" font-family="Helvetica,sans-Serif" font-size="10.00">+ getProbMutation()</text>
<text text-anchor="start" x="66.5" y="-157.5" font-family="Helvetica,sans-Serif" font-size="10.00">+ print()</text>
</a>
</g>
</g>
<!-- Node11&#45;&gt;Node10 -->
<g id="edge1" class="edge"><title>Node11&#45;&gt;Node10</title>
<path fill="none" stroke="midnightblue" d="M179.096,-142.746C187.183,-132.667 195.319,-122.528 203.016,-112.936"/>
<polygon fill="none" stroke="midnightblue" points="176.158,-140.815 172.629,-150.805 181.618,-145.196 176.158,-140.815"/>
</g>
<!-- Node12 -->
<g id="node3" class="node"><title>Node12</title>
<g id="a_node3"><a xlink:href="classinout_1_1_in_param_g_a_clustering.html" target="_top" xlink:title="Input parameter for genetic algorithm. ">
<polygon fill="white" stroke="black" points="45,-333.5 45,-467.5 186,-467.5 186,-333.5 45,-333.5"/>
<text text-anchor="middle" x="115.5" y="-455.5" font-family="Helvetica,sans-Serif" font-size="10.00">inout::InParamGAClustering</text>
<polyline fill="none" stroke="black" points="45,-448.5 186,-448.5 "/>
<text text-anchor="start" x="53" y="-436.5" font-family="Helvetica,sans-Serif" font-size="10.00"># st_sizePopulation</text>
<text text-anchor="start" x="53" y="-425.5" font-family="Helvetica,sans-Serif" font-size="10.00"># t_numMaxGenerations</text>
<polyline fill="none" stroke="black" points="45,-418.5 186,-418.5 "/>
<text text-anchor="start" x="53" y="-406.5" font-family="Helvetica,sans-Serif" font-size="10.00">+ InParamGAClustering()</text>
<text text-anchor="start" x="53" y="-395.5" font-family="Helvetica,sans-Serif" font-size="10.00">+ ~InParamGAClustering()</text>
<text text-anchor="start" x="53" y="-384.5" font-family="Helvetica,sans-Serif" font-size="10.00">+ setNumMaxGenerations()</text>
<text text-anchor="start" x="53" y="-373.5" font-family="Helvetica,sans-Serif" font-size="10.00">+ getNumMaxGenerations()</text>
<text text-anchor="start" x="53" y="-362.5" font-family="Helvetica,sans-Serif" font-size="10.00">+ setSizePopulation()</text>
<text text-anchor="start" x="53" y="-351.5" font-family="Helvetica,sans-Serif" font-size="10.00">+ getSizePopulation()</text>
<text text-anchor="start" x="53" y="-340.5" font-family="Helvetica,sans-Serif" font-size="10.00">+ print()</text>
</a>
</g>
</g>
<!-- Node12&#45;&gt;Node11 -->
<g id="edge2" class="edge"><title>Node12&#45;&gt;Node11</title>
<path fill="none" stroke="midnightblue" d="M115.5,-323.007C115.5,-313.942 115.5,-304.714 115.5,-295.719"/>
<polygon fill="none" stroke="midnightblue" points="112,-323.151 115.5,-333.151 119,-323.151 112,-323.151"/>
</g>
<!-- Node13 -->
<g id="node4" class="node"><title>Node13</title>
<g id="a_node4"><a xlink:href="classinout_1_1_in_param_clustering.html" target="_top" xlink:title="Input parameter for clustering algorithm. ">
<polygon fill="white" stroke="black" points="24.5,-533 24.5,-788 206.5,-788 206.5,-533 24.5,-533"/>
<text text-anchor="middle" x="115.5" y="-776" font-family="Helvetica,sans-Serif" font-size="10.00">inout::InParamClustering</text>
<polyline fill="none" stroke="black" points="24.5,-769 206.5,-769 "/>
<text text-anchor="start" x="32.5" y="-757" font-family="Helvetica,sans-Serif" font-size="10.00"># i_opDistance</text>
<text text-anchor="start" x="32.5" y="-746" font-family="Helvetica,sans-Serif" font-size="10.00"># ps_outFileCentroids</text>
<text text-anchor="start" x="32.5" y="-735" font-family="Helvetica,sans-Serif" font-size="10.00"># ps_outFileMemberShip</text>
<text text-anchor="start" x="32.5" y="-724" font-family="Helvetica,sans-Serif" font-size="10.00"># ps_outFilePartitionsTable</text>
<text text-anchor="start" x="32.5" y="-713" font-family="Helvetica,sans-Serif" font-size="10.00"># ps_outFileGraph</text>
<text text-anchor="start" x="32.5" y="-702" font-family="Helvetica,sans-Serif" font-size="10.00"># ps_fileNamePlotStatObjetiveFunc</text>
<text text-anchor="start" x="32.5" y="-691" font-family="Helvetica,sans-Serif" font-size="10.00"># _rd_maxExecutiontime</text>
<text text-anchor="start" x="32.5" y="-680" font-family="Helvetica,sans-Serif" font-size="10.00"># _b_printCentroidsFormat</text>
<text text-anchor="start" x="32.5" y="-669" font-family="Helvetica,sans-Serif" font-size="10.00"># _b_printTableFormat</text>
<polyline fill="none" stroke="black" points="24.5,-662 206.5,-662 "/>
<text text-anchor="start" x="32.5" y="-650" font-family="Helvetica,sans-Serif" font-size="10.00">+ InParamClustering()</text>
<text text-anchor="start" x="32.5" y="-639" font-family="Helvetica,sans-Serif" font-size="10.00">+ ~InParamClustering()</text>
<text text-anchor="start" x="32.5" y="-628" font-family="Helvetica,sans-Serif" font-size="10.00">+ getFileNamePlotStatObjetiveFunc()</text>
<text text-anchor="start" x="32.5" y="-617" font-family="Helvetica,sans-Serif" font-size="10.00">+ getWithPlotStatObjetiveFunc()</text>
<text text-anchor="start" x="32.5" y="-606" font-family="Helvetica,sans-Serif" font-size="10.00">+ setFileNamePlotStatObjetiveFunc()</text>
<text text-anchor="start" x="32.5" y="-595" font-family="Helvetica,sans-Serif" font-size="10.00">+ setOutFileMemberShip()</text>
<text text-anchor="start" x="32.5" y="-584" font-family="Helvetica,sans-Serif" font-size="10.00">+ getOutFileMemberShip()</text>
<text text-anchor="start" x="32.5" y="-573" font-family="Helvetica,sans-Serif" font-size="10.00">+ setRandomSeed()</text>
<text text-anchor="start" x="32.5" y="-562" font-family="Helvetica,sans-Serif" font-size="10.00">+ setRandomSeed()</text>
<text text-anchor="start" x="32.5" y="-551" font-family="Helvetica,sans-Serif" font-size="10.00">+ getRandomSeed()</text>
<text text-anchor="start" x="32.5" y="-540" font-family="Helvetica,sans-Serif" font-size="10.00">and 15 more...</text>
</a>
</g>
</g>
<!-- Node13&#45;&gt;Node12 -->
<g id="edge3" class="edge"><title>Node13&#45;&gt;Node12</title>
<path fill="none" stroke="midnightblue" d="M115.5,-522.726C115.5,-503.546 115.5,-484.597 115.5,-467.582"/>
<polygon fill="none" stroke="midnightblue" points="112,-522.767 115.5,-532.767 119,-522.768 112,-522.767"/>
</g>
<!-- Node14 -->
<g id="node5" class="node"><title>Node14</title>
<g id="a_node5"><a xlink:href="classinout_1_1_in_param_algorithmo.html" target="_top" xlink:title="Input parameter for define propertys of the algorithmos. ">
<polygon fill="white" stroke="black" points="0,-874.5 0,-1074.5 135,-1074.5 135,-874.5 0,-874.5"/>
<text text-anchor="middle" x="67.5" y="-1062.5" font-family="Helvetica,sans-Serif" font-size="10.00">inout::InParamAlgorithmo</text>
<polyline fill="none" stroke="black" points="0,-1055.5 135,-1055.5 "/>
<text text-anchor="start" x="8" y="-1043.5" font-family="Helvetica,sans-Serif" font-size="10.00"># ato_algTypeOut</text>
<text text-anchor="start" x="8" y="-1032.5" font-family="Helvetica,sans-Serif" font-size="10.00"># ps_fileNameTimesRun</text>
<text text-anchor="start" x="8" y="-1021.5" font-family="Helvetica,sans-Serif" font-size="10.00"># b_progressBarPrinting</text>
<text text-anchor="start" x="8" y="-1010.5" font-family="Helvetica,sans-Serif" font-size="10.00"># i_timesRunAlgorithm</text>
<polyline fill="none" stroke="black" points="0,-1003.5 135,-1003.5 "/>
<text text-anchor="start" x="8" y="-991.5" font-family="Helvetica,sans-Serif" font-size="10.00">+ InParamAlgorithmo()</text>
<text text-anchor="start" x="8" y="-980.5" font-family="Helvetica,sans-Serif" font-size="10.00">+ ~InParamAlgorithmo()</text>
<text text-anchor="start" x="8" y="-969.5" font-family="Helvetica,sans-Serif" font-size="10.00">+ errorArgument()</text>
<text text-anchor="start" x="8" y="-958.5" font-family="Helvetica,sans-Serif" font-size="10.00">+ isYesNo()</text>
<text text-anchor="start" x="8" y="-947.5" font-family="Helvetica,sans-Serif" font-size="10.00">+ setFileNameTimesRun()</text>
<text text-anchor="start" x="8" y="-936.5" font-family="Helvetica,sans-Serif" font-size="10.00">+ setProgressBarPrinting()</text>
<text text-anchor="start" x="8" y="-925.5" font-family="Helvetica,sans-Serif" font-size="10.00">+ setTimesRunAlgorithm()</text>
<text text-anchor="start" x="8" y="-914.5" font-family="Helvetica,sans-Serif" font-size="10.00">+ setGnuPlotCoreStyles()</text>
<text text-anchor="start" x="8" y="-903.5" font-family="Helvetica,sans-Serif" font-size="10.00">+ getAlgorithmoAuthor()</text>
<text text-anchor="start" x="8" y="-892.5" font-family="Helvetica,sans-Serif" font-size="10.00">+ getAlgorithmoName()</text>
<text text-anchor="start" x="8" y="-881.5" font-family="Helvetica,sans-Serif" font-size="10.00">and 8 more...</text>
</a>
</g>
</g>
<!-- Node14&#45;&gt;Node13 -->
<g id="edge4" class="edge"><title>Node14&#45;&gt;Node13</title>
<path fill="none" stroke="midnightblue" d="M84.3015,-864.291C88.0856,-839.694 92.1328,-813.387 96.0164,-788.144"/>
<polygon fill="none" stroke="midnightblue" points="80.8148,-863.937 82.7535,-874.353 87.7334,-865.001 80.8148,-863.937"/>
</g>
<!-- Node15 -->
<g id="node6" class="node"><title>Node15</title>
<g id="a_node6"><a xlink:title="STL class. ">
<polygon fill="white" stroke="#bfbfbf" points="209.5,-1155.5 209.5,-1212.5 269.5,-1212.5 269.5,-1155.5 209.5,-1155.5"/>
<text text-anchor="middle" x="239.5" y="-1200.5" font-family="Helvetica,sans-Serif" font-size="10.00">std::string</text>
<polyline fill="none" stroke="#bfbfbf" points="209.5,-1193.5 269.5,-1193.5 "/>
<text text-anchor="middle" x="239.5" y="-1181.5" font-family="Helvetica,sans-Serif" font-size="10.00"> </text>
<polyline fill="none" stroke="#bfbfbf" points="209.5,-1174.5 269.5,-1174.5 "/>
<text text-anchor="middle" x="239.5" y="-1162.5" font-family="Helvetica,sans-Serif" font-size="10.00"> </text>
</a>
</g>
</g>
<!-- Node15&#45;&gt;Node13 -->
<g id="edge7" class="edge"><title>Node15&#45;&gt;Node13</title>
<path fill="none" stroke="#404040" d="M219.215,-1155.13C204.968,-1134.14 186.7,-1104.09 176.5,-1075 171.883,-1061.83 150.795,-915.228 134.694,-800.277"/>
<polygon fill="none" stroke="#404040" points="134.667,-800.084 129.874,-794.696 133.004,-788.199 137.797,-793.587 134.667,-800.084"/>
<text text-anchor="middle" x="221" y="-972" font-family="Helvetica,sans-Serif" font-size="10.00"> #_str_randomSeed</text>
</g>
<!-- Node15&#45;&gt;Node14 -->
<g id="edge5" class="edge"><title>Node15&#45;&gt;Node14</title>
<path fill="none" stroke="#404040" d="M209.409,-1179.54C163.96,-1173.62 81.2104,-1159.93 63.5,-1137 52.3207,-1122.52 47.0968,-1104.94 45.5195,-1086.78"/>
<polygon fill="none" stroke="#404040" points="45.5193,-1086.77 41.2554,-1080.95 44.9836,-1074.78 49.2474,-1080.6 45.5193,-1086.77"/>
<text text-anchor="middle" x="113" y="-1129" font-family="Helvetica,sans-Serif" font-size="10.00"> #s_algorithmoAuthor</text>
<text text-anchor="middle" x="113" y="-1118" font-family="Helvetica,sans-Serif" font-size="10.00">#s_algorithmoName</text>
<text text-anchor="middle" x="113" y="-1107" font-family="Helvetica,sans-Serif" font-size="10.00">#s_gnuplotCoreStyles</text>
<text text-anchor="middle" x="113" y="-1096" font-family="Helvetica,sans-Serif" font-size="10.00">#_s_runTimeId</text>
</g>
<!-- Node18 -->
<g id="node9" class="node"><title>Node18</title>
<g id="a_node9"><a xlink:href="classinout_1_1_in_param_read_inst.html" target="_top" xlink:title="Input parameter for read instances. ">
<polygon fill="white" stroke="black" points="247,-505.5 247,-815.5 418,-815.5 418,-505.5 247,-505.5"/>
<text text-anchor="start" x="255" y="-803.5" font-family="Helvetica,sans-Serif" font-size="10.00">inout::InParamReadInst</text>
<text text-anchor="start" x="255" y="-792.5" font-family="Helvetica,sans-Serif" font-size="10.00">&lt; T_FEATURE, T_INSTANCES</text>
<text text-anchor="middle" x="332.5" y="-781.5" font-family="Helvetica,sans-Serif" font-size="10.00">_CLUSTER_K, T_CLUSTERIDX &gt;</text>
<polyline fill="none" stroke="black" points="247,-774.5 418,-774.5 "/>
<text text-anchor="start" x="255" y="-762.5" font-family="Helvetica,sans-Serif" font-size="10.00"># _ui_idxCurrentFileInstance</text>
<text text-anchor="start" x="255" y="-751.5" font-family="Helvetica,sans-Serif" font-size="10.00"># _enum_formatInstanceFile</text>
<text text-anchor="start" x="255" y="-740.5" font-family="Helvetica,sans-Serif" font-size="10.00"># _b_haveHeaderFile</text>
<text text-anchor="start" x="255" y="-729.5" font-family="Helvetica,sans-Serif" font-size="10.00"># _ui_classInstanceColumn</text>
<text text-anchor="start" x="255" y="-718.5" font-family="Helvetica,sans-Serif" font-size="10.00"># _ui_clusterInstanceColumn</text>
<text text-anchor="start" x="255" y="-707.5" font-family="Helvetica,sans-Serif" font-size="10.00"># _ui_idInstanceColumn</text>
<text text-anchor="start" x="255" y="-696.5" font-family="Helvetica,sans-Serif" font-size="10.00"># _ui_instancesFrequencyColumn</text>
<text text-anchor="start" x="255" y="-685.5" font-family="Helvetica,sans-Serif" font-size="10.00"># _ui_idMultiInstanceColumn</text>
<text text-anchor="start" x="255" y="-674.5" font-family="Helvetica,sans-Serif" font-size="10.00"># _ui_classMultiInstColumn</text>
<text text-anchor="start" x="255" y="-663.5" font-family="Helvetica,sans-Serif" font-size="10.00"># _ui_numInstances</text>
<text text-anchor="start" x="255" y="-652.5" font-family="Helvetica,sans-Serif" font-size="10.00"># _ui_numDimensionsInstances</text>
<text text-anchor="start" x="255" y="-641.5" font-family="Helvetica,sans-Serif" font-size="10.00"># _ui_numInstancesTest</text>
<polyline fill="none" stroke="black" points="247,-634.5 418,-634.5 "/>
<text text-anchor="start" x="255" y="-622.5" font-family="Helvetica,sans-Serif" font-size="10.00">+ InParamReadInst()</text>
<text text-anchor="start" x="255" y="-611.5" font-family="Helvetica,sans-Serif" font-size="10.00">+ InParamReadInst()</text>
<text text-anchor="start" x="255" y="-600.5" font-family="Helvetica,sans-Serif" font-size="10.00">+ ~InParamReadInst()</text>
<text text-anchor="start" x="255" y="-589.5" font-family="Helvetica,sans-Serif" font-size="10.00">+ clearVectorFilesInstance()</text>
<text text-anchor="start" x="255" y="-578.5" font-family="Helvetica,sans-Serif" font-size="10.00">+ getVectorFilesInstance()</text>
<text text-anchor="start" x="255" y="-567.5" font-family="Helvetica,sans-Serif" font-size="10.00">+ setVectorFilesInstance()</text>
<text text-anchor="start" x="255" y="-556.5" font-family="Helvetica,sans-Serif" font-size="10.00">+ getNumFilesInstance()</text>
<text text-anchor="start" x="255" y="-545.5" font-family="Helvetica,sans-Serif" font-size="10.00">+ setVectorFilesInstanceTest()</text>
<text text-anchor="start" x="255" y="-534.5" font-family="Helvetica,sans-Serif" font-size="10.00">+ getVectorFilesInstanceTest()</text>
<text text-anchor="start" x="255" y="-523.5" font-family="Helvetica,sans-Serif" font-size="10.00">+ getNumFilesInstanceTest()</text>
<text text-anchor="start" x="255" y="-512.5" font-family="Helvetica,sans-Serif" font-size="10.00">and 35 more...</text>
</a>
</g>
</g>
<!-- Node15&#45;&gt;Node18 -->
<g id="edge10" class="edge"><title>Node15&#45;&gt;Node18</title>
<path fill="none" stroke="#404040" d="M248.195,-1155.26C254.749,-1133.57 263.588,-1102.59 269.5,-1075 286.793,-994.289 301.15,-903.73 311.769,-827.98"/>
<polygon fill="none" stroke="#404040" points="311.788,-827.84 308.653,-821.346 313.441,-815.954 316.576,-822.448 311.788,-827.84"/>
<text text-anchor="middle" x="358" y="-977.5" font-family="Helvetica,sans-Serif" font-size="10.00"> #_ps_selectAttributes</text>
<text text-anchor="middle" x="358" y="-966.5" font-family="Helvetica,sans-Serif" font-size="10.00">#_s_separatorAttributes</text>
</g>
<!-- Node19 -->
<g id="node10" class="node"><title>Node19</title>
<polygon fill="white" stroke="#bfbfbf" points="425,-946 425,-1003 550,-1003 550,-946 425,-946"/>
<text text-anchor="middle" x="487.5" y="-991" font-family="Helvetica,sans-Serif" font-size="10.00">std::vector&lt; std::string &gt;</text>
<polyline fill="none" stroke="#bfbfbf" points="425,-984 550,-984 "/>
<text text-anchor="middle" x="487.5" y="-972" font-family="Helvetica,sans-Serif" font-size="10.00"> </text>
<polyline fill="none" stroke="#bfbfbf" points="425,-965 550,-965 "/>
<text text-anchor="middle" x="487.5" y="-953" font-family="Helvetica,sans-Serif" font-size="10.00"> </text>
</g>
<!-- Node15&#45;&gt;Node19 -->
<g id="edge12" class="edge"><title>Node15&#45;&gt;Node19</title>
<path fill="none" stroke="#404040" d="M269.604,-1165.1C283.623,-1156.68 300.484,-1146.44 315.5,-1137 358.184,-1110.16 373.445,-1109.19 410.5,-1075 430.322,-1056.71 448.936,-1032.92 462.896,-1013.18"/>
<polygon fill="none" stroke="#404040" points="462.92,-1013.15 463.049,-1005.94 469.753,-1003.28 469.625,-1010.49 462.92,-1013.15"/>
<text text-anchor="middle" x="415" y="-1112.5" font-family="Helvetica,sans-Serif" font-size="10.00"> +elements</text>
</g>
<!-- Node16 -->
<g id="node7" class="node"><title>Node16</title>
<g id="a_node7"><a xlink:title="STL class. ">
<polygon fill="white" stroke="#bfbfbf" points="192,-1260.5 192,-1328.5 287,-1328.5 287,-1260.5 192,-1260.5"/>
<text text-anchor="start" x="200" y="-1316.5" font-family="Helvetica,sans-Serif" font-size="10.00">std::basic_string&lt;</text>
<text text-anchor="middle" x="239.5" y="-1305.5" font-family="Helvetica,sans-Serif" font-size="10.00"> char &gt;</text>
<polyline fill="none" stroke="#bfbfbf" points="192,-1298.5 287,-1298.5 "/>
<text text-anchor="middle" x="239.5" y="-1286.5" font-family="Helvetica,sans-Serif" font-size="10.00"> </text>
<polyline fill="none" stroke="#bfbfbf" points="192,-1279.5 287,-1279.5 "/>
<text text-anchor="middle" x="239.5" y="-1267.5" font-family="Helvetica,sans-Serif" font-size="10.00"> </text>
</a>
</g>
</g>
<!-- Node16&#45;&gt;Node15 -->
<g id="edge6" class="edge"><title>Node16&#45;&gt;Node15</title>
<path fill="none" stroke="midnightblue" d="M239.5,-1250.06C239.5,-1237.51 239.5,-1224.15 239.5,-1212.83"/>
<polygon fill="none" stroke="midnightblue" points="236,-1250.36 239.5,-1260.36 243,-1250.36 236,-1250.36"/>
</g>
<!-- Node17 -->
<g id="node8" class="node"><title>Node17</title>
<g id="a_node8"><a xlink:href="classinout_1_1_in_param_fk.html" target="_top" xlink:title="Input parameter for algorithms with Fixed K. ">
<polygon fill="white" stroke="black" points="191,-167 191,-279 304,-279 304,-167 191,-167"/>
<text text-anchor="start" x="199" y="-267" font-family="Helvetica,sans-Serif" font-size="10.00">inout::InParamFk&lt; T</text>
<text text-anchor="middle" x="247.5" y="-256" font-family="Helvetica,sans-Serif" font-size="10.00">_CLUSTERIDX &gt;</text>
<polyline fill="none" stroke="black" points="191,-249 304,-249 "/>
<text text-anchor="start" x="199" y="-237" font-family="Helvetica,sans-Serif" font-size="10.00"># _idxK_numClusterK</text>
<polyline fill="none" stroke="black" points="191,-230 304,-230 "/>
<text text-anchor="start" x="199" y="-218" font-family="Helvetica,sans-Serif" font-size="10.00">+ InParamFk()</text>
<text text-anchor="start" x="199" y="-207" font-family="Helvetica,sans-Serif" font-size="10.00">+ ~InParamFk()</text>
<text text-anchor="start" x="199" y="-196" font-family="Helvetica,sans-Serif" font-size="10.00">+ setNumClusterK()</text>
<text text-anchor="start" x="199" y="-185" font-family="Helvetica,sans-Serif" font-size="10.00">+ getNumClusterK()</text>
<text text-anchor="start" x="199" y="-174" font-family="Helvetica,sans-Serif" font-size="10.00">+ print()</text>
</a>
</g>
</g>
<!-- Node17&#45;&gt;Node10 -->
<g id="edge8" class="edge"><title>Node17&#45;&gt;Node10</title>
<path fill="none" stroke="midnightblue" d="M247.5,-156.358C247.5,-141.851 247.5,-126.625 247.5,-112.588"/>
<polygon fill="none" stroke="midnightblue" points="244,-156.766 247.5,-166.766 251,-156.766 244,-156.766"/>
</g>
<!-- Node18&#45;&gt;Node10 -->
<g id="edge9" class="edge"><title>Node18&#45;&gt;Node10</title>
<path fill="none" stroke="midnightblue" d="M349.262,-495.399C354.079,-393.387 350.007,-260.988 312.5,-150 308.133,-137.077 301.346,-124.353 293.776,-112.673"/>
<polygon fill="none" stroke="midnightblue" points="345.762,-495.322 348.752,-505.486 352.753,-495.676 345.762,-495.322"/>
</g>
<!-- Node19&#45;&gt;Node18 -->
<g id="edge11" class="edge"><title>Node19&#45;&gt;Node18</title>
<path fill="none" stroke="#404040" d="M473.745,-945.812C459.929,-918.002 437.441,-872.736 414.43,-826.418"/>
<polygon fill="none" stroke="#404040" points="414.387,-826.33 408.135,-822.736 409.047,-815.583 415.299,-819.176 414.387,-826.33"/>
<text text-anchor="middle" x="494" y="-848" font-family="Helvetica,sans-Serif" font-size="10.00"> #_vectorstr_filesInstance</text>
<text text-anchor="middle" x="494" y="-837" font-family="Helvetica,sans-Serif" font-size="10.00">#_vectorstr_filesInstanceTest</text>
</g>
<!-- Node20 -->
<g id="node11" class="node"><title>Node20</title>
<g id="a_node11"><a xlink:title="STL class. ">
<polygon fill="white" stroke="#bfbfbf" points="443,-1155.5 443,-1212.5 532,-1212.5 532,-1155.5 443,-1155.5"/>
<text text-anchor="middle" x="487.5" y="-1200.5" font-family="Helvetica,sans-Serif" font-size="10.00">std::vector&lt; T &gt;</text>
<polyline fill="none" stroke="#bfbfbf" points="443,-1193.5 532,-1193.5 "/>
<text text-anchor="middle" x="487.5" y="-1181.5" font-family="Helvetica,sans-Serif" font-size="10.00"> </text>
<polyline fill="none" stroke="#bfbfbf" points="443,-1174.5 532,-1174.5 "/>
<text text-anchor="middle" x="487.5" y="-1162.5" font-family="Helvetica,sans-Serif" font-size="10.00"> </text>
</a>
</g>
</g>
<!-- Node20&#45;&gt;Node19 -->
<g id="edge13" class="edge"><title>Node20&#45;&gt;Node19</title>
<path fill="none" stroke="orange" d="M487.5,-1145.31C487.5,-1104.3 487.5,-1039.74 487.5,-1003.17"/>
<polygon fill="orange" stroke="orange" points="484,-1145.45 487.5,-1155.45 491,-1145.45 484,-1145.45"/>
<text text-anchor="middle" x="520" y="-1112.5" font-family="Helvetica,sans-Serif" font-size="10.00"> &lt; std::string &gt;</text>
</g>
<!-- Node21 -->
<g id="node12" class="node"><title>Node21</title>
<polygon fill="white" stroke="#bfbfbf" points="473,-1266 473,-1323 502,-1323 502,-1266 473,-1266"/>
<text text-anchor="middle" x="487.5" y="-1311" font-family="Helvetica,sans-Serif" font-size="10.00">T</text>
<polyline fill="none" stroke="#bfbfbf" points="473,-1304 502,-1304 "/>
<text text-anchor="middle" x="487.5" y="-1292" font-family="Helvetica,sans-Serif" font-size="10.00"> </text>
<polyline fill="none" stroke="#bfbfbf" points="473,-1285 502,-1285 "/>
<text text-anchor="middle" x="487.5" y="-1273" font-family="Helvetica,sans-Serif" font-size="10.00"> </text>
</g>
<!-- Node21&#45;&gt;Node20 -->
<g id="edge14" class="edge"><title>Node21&#45;&gt;Node20</title>
<path fill="none" stroke="#404040" d="M487.5,-1265.84C487.5,-1253.34 487.5,-1238.34 487.5,-1224.68"/>
<polygon fill="none" stroke="#404040" points="487.5,-1224.61 483.5,-1218.61 487.5,-1212.61 491.5,-1218.61 487.5,-1224.61"/>
<text text-anchor="middle" x="513" y="-1234" font-family="Helvetica,sans-Serif" font-size="10.00"> +elements</text>
</g>
</g>
</svg>
