<?xml version="1.0" encoding="UTF-8" standalone="no"?>
<!DOCTYPE svg PUBLIC "-//W3C//DTD SVG 1.1//EN"
 "http://www.w3.org/Graphics/SVG/1.1/DTD/svg11.dtd">
<!-- Generated by graphviz version 2.38.0 (20140413.2041)
 -->
<!-- Title: inout::InParamGGA&lt; T_CLUSTERIDX, T_REAL, T_FEATURE, T_FEATURE_SUM, T_INSTANCES_CLUSTER_K &gt; Pages: 1 -->
<svg width="755pt" height="1180pt"
 viewBox="0.00 0.00 754.50 1180.00" xmlns="http://www.w3.org/2000/svg" xmlns:xlink="http://www.w3.org/1999/xlink">
<g id="graph0" class="graph" transform="scale(1 1) rotate(0) translate(4 1176)">
<title>inout::InParamGGA&lt; T_CLUSTERIDX, T_REAL, T_FEATURE, T_FEATURE_SUM, T_INSTANCES_CLUSTER_K &gt;</title>
<polygon fill="white" stroke="none" points="-4,4 -4,-1176 750.5,-1176 750.5,4 -4,4"/>
<!-- Node5 -->
<g id="node1" class="node"><title>Node5</title>
<g id="a_node1"><a xlink:title="Input parameter for GGA algorithm .">
<polygon fill="#bfbfbf" stroke="black" points="297.5,-0.5 297.5,-299.5 489.5,-299.5 489.5,-0.5 297.5,-0.5"/>
<text text-anchor="start" x="305.5" y="-287.5" font-family="Helvetica,sans-Serif" font-size="10.00">inout::InParamGGA&lt;</text>
<text text-anchor="start" x="305.5" y="-276.5" font-family="Helvetica,sans-Serif" font-size="10.00"> T_CLUSTERIDX, T_REAL,</text>
<text text-anchor="start" x="305.5" y="-265.5" font-family="Helvetica,sans-Serif" font-size="10.00"> T_FEATURE, T_FEATURE</text>
<text text-anchor="middle" x="393.5" y="-254.5" font-family="Helvetica,sans-Serif" font-size="10.00">_SUM, T_INSTANCES_CLUSTER_K &gt;</text>
<polyline fill="none" stroke="black" points="297.5,-247.5 489.5,-247.5 "/>
<text text-anchor="start" x="305.5" y="-235.5" font-family="Helvetica,sans-Serif" font-size="10.00"># _ui_subPopulationSize</text>
<text text-anchor="start" x="305.5" y="-224.5" font-family="Helvetica,sans-Serif" font-size="10.00"># _ui_numIsland</text>
<text text-anchor="start" x="305.5" y="-213.5" font-family="Helvetica,sans-Serif" font-size="10.00"># _rt_pe</text>
<text text-anchor="start" x="305.5" y="-202.5" font-family="Helvetica,sans-Serif" font-size="10.00"># _it_numMaxGenerations</text>
<text text-anchor="start" x="305.5" y="-191.5" font-family="Helvetica,sans-Serif" font-size="10.00"># _rt_pci</text>
<text text-anchor="start" x="305.5" y="-180.5" font-family="Helvetica,sans-Serif" font-size="10.00"># _rt_pcf</text>
<text text-anchor="start" x="305.5" y="-169.5" font-family="Helvetica,sans-Serif" font-size="10.00"># _rt_pmi</text>
<text text-anchor="start" x="305.5" y="-158.5" font-family="Helvetica,sans-Serif" font-size="10.00"># _rt_pmf</text>
<text text-anchor="start" x="305.5" y="-147.5" font-family="Helvetica,sans-Serif" font-size="10.00"># _rt_pbi</text>
<text text-anchor="start" x="305.5" y="-136.5" font-family="Helvetica,sans-Serif" font-size="10.00"># _rt_pbf</text>
<polyline fill="none" stroke="black" points="297.5,-129.5 489.5,-129.5 "/>
<text text-anchor="start" x="305.5" y="-117.5" font-family="Helvetica,sans-Serif" font-size="10.00">+ InParamGGA()</text>
<text text-anchor="start" x="305.5" y="-106.5" font-family="Helvetica,sans-Serif" font-size="10.00">+ ~InParamGGA()</text>
<text text-anchor="start" x="305.5" y="-95.5" font-family="Helvetica,sans-Serif" font-size="10.00">+ setSubPopulationSize()</text>
<text text-anchor="start" x="305.5" y="-84.5" font-family="Helvetica,sans-Serif" font-size="10.00">+ getSubPopulationSize()</text>
<text text-anchor="start" x="305.5" y="-73.5" font-family="Helvetica,sans-Serif" font-size="10.00">+ setNumIsland()</text>
<text text-anchor="start" x="305.5" y="-62.5" font-family="Helvetica,sans-Serif" font-size="10.00">+ getNumIsland()</text>
<text text-anchor="start" x="305.5" y="-51.5" font-family="Helvetica,sans-Serif" font-size="10.00">+ setPe()</text>
<text text-anchor="start" x="305.5" y="-40.5" font-family="Helvetica,sans-Serif" font-size="10.00">+ getPe()</text>
<text text-anchor="start" x="305.5" y="-29.5" font-family="Helvetica,sans-Serif" font-size="10.00">+ setNumMaxGenerations()</text>
<text text-anchor="start" x="305.5" y="-18.5" font-family="Helvetica,sans-Serif" font-size="10.00">+ getNumMaxGenerations()</text>
<text text-anchor="start" x="305.5" y="-7.5" font-family="Helvetica,sans-Serif" font-size="10.00">and 13 more...</text>
</a>
</g>
</g>
<!-- Node6 -->
<g id="node2" class="node"><title>Node6</title>
<g id="a_node2"><a xlink:href="classinout_1_1_in_param_clustering.html" target="_top" xlink:title="Input parameter for clustering algorithm.">
<polygon fill="white" stroke="black" points="85.5,-370.5 85.5,-625.5 267.5,-625.5 267.5,-370.5 85.5,-370.5"/>
<text text-anchor="middle" x="176.5" y="-613.5" font-family="Helvetica,sans-Serif" font-size="10.00">inout::InParamClustering</text>
<polyline fill="none" stroke="black" points="85.5,-606.5 267.5,-606.5 "/>
<text text-anchor="start" x="93.5" y="-594.5" font-family="Helvetica,sans-Serif" font-size="10.00"># i_opDistance</text>
<text text-anchor="start" x="93.5" y="-583.5" font-family="Helvetica,sans-Serif" font-size="10.00"># ps_outFileCentroids</text>
<text text-anchor="start" x="93.5" y="-572.5" font-family="Helvetica,sans-Serif" font-size="10.00"># ps_outFileMemberShip</text>
<text text-anchor="start" x="93.5" y="-561.5" font-family="Helvetica,sans-Serif" font-size="10.00"># ps_outFilePartitionsTable</text>
<text text-anchor="start" x="93.5" y="-550.5" font-family="Helvetica,sans-Serif" font-size="10.00"># ps_outFileGraph</text>
<text text-anchor="start" x="93.5" y="-539.5" font-family="Helvetica,sans-Serif" font-size="10.00"># ps_fileNamePlotStatObjetiveFunc</text>
<text text-anchor="start" x="93.5" y="-528.5" font-family="Helvetica,sans-Serif" font-size="10.00"># _rd_maxExecutiontime</text>
<text text-anchor="start" x="93.5" y="-517.5" font-family="Helvetica,sans-Serif" font-size="10.00"># _b_printCentroidsFormat</text>
<text text-anchor="start" x="93.5" y="-506.5" font-family="Helvetica,sans-Serif" font-size="10.00"># _b_printTableFormat</text>
<polyline fill="none" stroke="black" points="85.5,-499.5 267.5,-499.5 "/>
<text text-anchor="start" x="93.5" y="-487.5" font-family="Helvetica,sans-Serif" font-size="10.00">+ InParamClustering()</text>
<text text-anchor="start" x="93.5" y="-476.5" font-family="Helvetica,sans-Serif" font-size="10.00">+ ~InParamClustering()</text>
<text text-anchor="start" x="93.5" y="-465.5" font-family="Helvetica,sans-Serif" font-size="10.00">+ getFileNamePlotStatObjetiveFunc()</text>
<text text-anchor="start" x="93.5" y="-454.5" font-family="Helvetica,sans-Serif" font-size="10.00">+ getWithPlotStatObjetiveFunc()</text>
<text text-anchor="start" x="93.5" y="-443.5" font-family="Helvetica,sans-Serif" font-size="10.00">+ setFileNamePlotStatObjetiveFunc()</text>
<text text-anchor="start" x="93.5" y="-432.5" font-family="Helvetica,sans-Serif" font-size="10.00">+ setOutFileMemberShip()</text>
<text text-anchor="start" x="93.5" y="-421.5" font-family="Helvetica,sans-Serif" font-size="10.00">+ getOutFileMemberShip()</text>
<text text-anchor="start" x="93.5" y="-410.5" font-family="Helvetica,sans-Serif" font-size="10.00">+ setRandomSeed()</text>
<text text-anchor="start" x="93.5" y="-399.5" font-family="Helvetica,sans-Serif" font-size="10.00">+ setRandomSeed()</text>
<text text-anchor="start" x="93.5" y="-388.5" font-family="Helvetica,sans-Serif" font-size="10.00">+ getRandomSeed()</text>
<text text-anchor="start" x="93.5" y="-377.5" font-family="Helvetica,sans-Serif" font-size="10.00">and 15 more...</text>
</a>
</g>
</g>
<!-- Node6&#45;&gt;Node5 -->
<g id="edge1" class="edge"><title>Node6&#45;&gt;Node5</title>
<path fill="none" stroke="midnightblue" d="M261.501,-361.469C274.241,-341.155 287.435,-320.118 300.334,-299.551"/>
<polygon fill="none" stroke="midnightblue" points="258.419,-359.796 256.071,-370.127 264.349,-363.515 258.419,-359.796"/>
</g>
<!-- Node7 -->
<g id="node3" class="node"><title>Node7</title>
<g id="a_node3"><a xlink:href="classinout_1_1_in_param_algorithmo.html" target="_top" xlink:title="Input parameter for define propertys of the algorithmos.">
<polygon fill="white" stroke="black" points="0,-717.5 0,-917.5 135,-917.5 135,-717.5 0,-717.5"/>
<text text-anchor="middle" x="67.5" y="-905.5" font-family="Helvetica,sans-Serif" font-size="10.00">inout::InParamAlgorithmo</text>
<polyline fill="none" stroke="black" points="0,-898.5 135,-898.5 "/>
<text text-anchor="start" x="8" y="-886.5" font-family="Helvetica,sans-Serif" font-size="10.00"># ato_algTypeOut</text>
<text text-anchor="start" x="8" y="-875.5" font-family="Helvetica,sans-Serif" font-size="10.00"># ps_fileNameTimesRun</text>
<text text-anchor="start" x="8" y="-864.5" font-family="Helvetica,sans-Serif" font-size="10.00"># b_progressBarPrinting</text>
<text text-anchor="start" x="8" y="-853.5" font-family="Helvetica,sans-Serif" font-size="10.00"># i_timesRunAlgorithm</text>
<polyline fill="none" stroke="black" points="0,-846.5 135,-846.5 "/>
<text text-anchor="start" x="8" y="-834.5" font-family="Helvetica,sans-Serif" font-size="10.00">+ InParamAlgorithmo()</text>
<text text-anchor="start" x="8" y="-823.5" font-family="Helvetica,sans-Serif" font-size="10.00">+ ~InParamAlgorithmo()</text>
<text text-anchor="start" x="8" y="-812.5" font-family="Helvetica,sans-Serif" font-size="10.00">+ errorArgument()</text>
<text text-anchor="start" x="8" y="-801.5" font-family="Helvetica,sans-Serif" font-size="10.00">+ isYesNo()</text>
<text text-anchor="start" x="8" y="-790.5" font-family="Helvetica,sans-Serif" font-size="10.00">+ setFileNameTimesRun()</text>
<text text-anchor="start" x="8" y="-779.5" font-family="Helvetica,sans-Serif" font-size="10.00">+ setProgressBarPrinting()</text>
<text text-anchor="start" x="8" y="-768.5" font-family="Helvetica,sans-Serif" font-size="10.00">+ setTimesRunAlgorithm()</text>
<text text-anchor="start" x="8" y="-757.5" font-family="Helvetica,sans-Serif" font-size="10.00">+ setGnuPlotCoreStyles()</text>
<text text-anchor="start" x="8" y="-746.5" font-family="Helvetica,sans-Serif" font-size="10.00">+ getAlgorithmoAuthor()</text>
<text text-anchor="start" x="8" y="-735.5" font-family="Helvetica,sans-Serif" font-size="10.00">+ getAlgorithmoName()</text>
<text text-anchor="start" x="8" y="-724.5" font-family="Helvetica,sans-Serif" font-size="10.00">and 8 more...</text>
</a>
</g>
</g>
<!-- Node7&#45;&gt;Node6 -->
<g id="edge2" class="edge"><title>Node7&#45;&gt;Node6</title>
<path fill="none" stroke="midnightblue" d="M104.845,-707.719C113.909,-681.317 123.678,-652.862 132.999,-625.712"/>
<polygon fill="none" stroke="midnightblue" points="101.477,-706.752 101.54,-717.347 108.097,-709.025 101.477,-706.752"/>
</g>
<!-- Node8 -->
<g id="node4" class="node"><title>Node8</title>
<g id="a_node4"><a xlink:title="STL class.">
<polygon fill="white" stroke="#bfbfbf" points="209.5,-998.5 209.5,-1055.5 269.5,-1055.5 269.5,-998.5 209.5,-998.5"/>
<text text-anchor="middle" x="239.5" y="-1043.5" font-family="Helvetica,sans-Serif" font-size="10.00">std::string</text>
<polyline fill="none" stroke="#bfbfbf" points="209.5,-1036.5 269.5,-1036.5 "/>
<text text-anchor="middle" x="239.5" y="-1024.5" font-family="Helvetica,sans-Serif" font-size="10.00"> </text>
<polyline fill="none" stroke="#bfbfbf" points="209.5,-1017.5 269.5,-1017.5 "/>
<text text-anchor="middle" x="239.5" y="-1005.5" font-family="Helvetica,sans-Serif" font-size="10.00"> </text>
</a>
</g>
</g>
<!-- Node8&#45;&gt;Node6 -->
<g id="edge5" class="edge"><title>Node8&#45;&gt;Node6</title>
<path fill="none" stroke="#404040" d="M223.205,-998.207C211.707,-977.009 197.203,-946.67 190.5,-918 169.083,-826.394 165.724,-720.479 167.648,-638.057"/>
<polygon fill="none" stroke="#404040" points="167.655,-637.808 163.817,-631.703 167.976,-625.813 171.814,-631.918 167.655,-637.808"/>
<text text-anchor="middle" x="235" y="-815" font-family="Helvetica,sans-Serif" font-size="10.00"> #_str_randomSeed</text>
</g>
<!-- Node8&#45;&gt;Node7 -->
<g id="edge3" class="edge"><title>Node8&#45;&gt;Node7</title>
<path fill="none" stroke="#404040" d="M209.409,-1022.54C163.96,-1016.62 81.2104,-1002.93 63.5,-980 52.3207,-965.523 47.0968,-947.942 45.5195,-929.777"/>
<polygon fill="none" stroke="#404040" points="45.5193,-929.77 41.2554,-923.955 44.9836,-917.782 49.2474,-923.598 45.5193,-929.77"/>
<text text-anchor="middle" x="113" y="-972" font-family="Helvetica,sans-Serif" font-size="10.00"> #s_algorithmoAuthor</text>
<text text-anchor="middle" x="113" y="-961" font-family="Helvetica,sans-Serif" font-size="10.00">#s_algorithmoName</text>
<text text-anchor="middle" x="113" y="-950" font-family="Helvetica,sans-Serif" font-size="10.00">#s_gnuplotCoreStyles</text>
<text text-anchor="middle" x="113" y="-939" font-family="Helvetica,sans-Serif" font-size="10.00">#_s_runTimeId</text>
</g>
<!-- Node12 -->
<g id="node8" class="node"><title>Node12</title>
<g id="a_node8"><a xlink:href="classinout_1_1_in_param_read_inst.html" target="_top" xlink:title="Input parameter for read instances.">
<polygon fill="white" stroke="black" points="308,-337.5 308,-658.5 479,-658.5 479,-337.5 308,-337.5"/>
<text text-anchor="start" x="316" y="-646.5" font-family="Helvetica,sans-Serif" font-size="10.00">inout::InParamReadInst</text>
<text text-anchor="start" x="316" y="-635.5" font-family="Helvetica,sans-Serif" font-size="10.00">&lt; T_FEATURE, T_INSTANCES</text>
<text text-anchor="middle" x="393.5" y="-624.5" font-family="Helvetica,sans-Serif" font-size="10.00">_CLUSTER_K, T_CLUSTERIDX &gt;</text>
<polyline fill="none" stroke="black" points="308,-617.5 479,-617.5 "/>
<text text-anchor="start" x="316" y="-605.5" font-family="Helvetica,sans-Serif" font-size="10.00"># _ui_idxCurrentFileInstance</text>
<text text-anchor="start" x="316" y="-594.5" font-family="Helvetica,sans-Serif" font-size="10.00"># _enum_formatInstanceFile</text>
<text text-anchor="start" x="316" y="-583.5" font-family="Helvetica,sans-Serif" font-size="10.00"># _b_haveHeaderFile</text>
<text text-anchor="start" x="316" y="-572.5" font-family="Helvetica,sans-Serif" font-size="10.00"># _ui_classInstanceColumn</text>
<text text-anchor="start" x="316" y="-561.5" font-family="Helvetica,sans-Serif" font-size="10.00"># _ui_clusterInstanceColumn</text>
<text text-anchor="start" x="316" y="-550.5" font-family="Helvetica,sans-Serif" font-size="10.00"># _ui_idInstanceColumn</text>
<text text-anchor="start" x="316" y="-539.5" font-family="Helvetica,sans-Serif" font-size="10.00"># _ui_instancesFrequencyColumn</text>
<text text-anchor="start" x="316" y="-528.5" font-family="Helvetica,sans-Serif" font-size="10.00"># _ui_idMultiInstanceColumn</text>
<text text-anchor="start" x="316" y="-517.5" font-family="Helvetica,sans-Serif" font-size="10.00"># _ui_classMultiInstColumn</text>
<text text-anchor="start" x="316" y="-506.5" font-family="Helvetica,sans-Serif" font-size="10.00"># _ui_numInstances</text>
<text text-anchor="start" x="316" y="-495.5" font-family="Helvetica,sans-Serif" font-size="10.00"># _ui_numDimensionsInstances</text>
<text text-anchor="start" x="316" y="-484.5" font-family="Helvetica,sans-Serif" font-size="10.00"># _ui_numInstancesTest</text>
<text text-anchor="start" x="316" y="-473.5" font-family="Helvetica,sans-Serif" font-size="10.00"># _b_printMulLine</text>
<polyline fill="none" stroke="black" points="308,-466.5 479,-466.5 "/>
<text text-anchor="start" x="316" y="-454.5" font-family="Helvetica,sans-Serif" font-size="10.00">+ InParamReadInst()</text>
<text text-anchor="start" x="316" y="-443.5" font-family="Helvetica,sans-Serif" font-size="10.00">+ InParamReadInst()</text>
<text text-anchor="start" x="316" y="-432.5" font-family="Helvetica,sans-Serif" font-size="10.00">+ ~InParamReadInst()</text>
<text text-anchor="start" x="316" y="-421.5" font-family="Helvetica,sans-Serif" font-size="10.00">+ clearVectorFilesInstance()</text>
<text text-anchor="start" x="316" y="-410.5" font-family="Helvetica,sans-Serif" font-size="10.00">+ getVectorFilesInstance()</text>
<text text-anchor="start" x="316" y="-399.5" font-family="Helvetica,sans-Serif" font-size="10.00">+ setVectorFilesInstance()</text>
<text text-anchor="start" x="316" y="-388.5" font-family="Helvetica,sans-Serif" font-size="10.00">+ getNumFilesInstance()</text>
<text text-anchor="start" x="316" y="-377.5" font-family="Helvetica,sans-Serif" font-size="10.00">+ setVectorFilesInstanceTest()</text>
<text text-anchor="start" x="316" y="-366.5" font-family="Helvetica,sans-Serif" font-size="10.00">+ getVectorFilesInstanceTest()</text>
<text text-anchor="start" x="316" y="-355.5" font-family="Helvetica,sans-Serif" font-size="10.00">+ getNumFilesInstanceTest()</text>
<text text-anchor="start" x="316" y="-344.5" font-family="Helvetica,sans-Serif" font-size="10.00">and 37 more...</text>
</a>
</g>
</g>
<!-- Node8&#45;&gt;Node12 -->
<g id="edge9" class="edge"><title>Node8&#45;&gt;Node12</title>
<path fill="none" stroke="#404040" d="M251.617,-998.075C260.517,-976.558 272.269,-945.87 279.5,-918 302.201,-830.508 287.402,-804.388 310.5,-717 314.56,-701.641 319.324,-685.87 324.482,-670.174"/>
<polygon fill="none" stroke="#404040" points="324.492,-670.144 322.604,-663.184 328.303,-658.765 330.19,-665.725 324.492,-670.144"/>
<text text-anchor="middle" x="363" y="-820.5" font-family="Helvetica,sans-Serif" font-size="10.00"> #_ps_selectAttributes</text>
<text text-anchor="middle" x="363" y="-809.5" font-family="Helvetica,sans-Serif" font-size="10.00">#_s_separatorAttributes</text>
</g>
<!-- Node13 -->
<g id="node9" class="node"><title>Node13</title>
<g id="a_node9"><a xlink:title=" ">
<polygon fill="white" stroke="#bfbfbf" points="425,-789 425,-846 550,-846 550,-789 425,-789"/>
<text text-anchor="middle" x="487.5" y="-834" font-family="Helvetica,sans-Serif" font-size="10.00">std::vector&lt; std::string &gt;</text>
<polyline fill="none" stroke="#bfbfbf" points="425,-827 550,-827 "/>
<text text-anchor="middle" x="487.5" y="-815" font-family="Helvetica,sans-Serif" font-size="10.00"> </text>
<polyline fill="none" stroke="#bfbfbf" points="425,-808 550,-808 "/>
<text text-anchor="middle" x="487.5" y="-796" font-family="Helvetica,sans-Serif" font-size="10.00"> </text>
</a>
</g>
</g>
<!-- Node8&#45;&gt;Node13 -->
<g id="edge11" class="edge"><title>Node8&#45;&gt;Node13</title>
<path fill="none" stroke="#404040" d="M269.604,-1008.1C283.623,-999.682 300.484,-989.44 315.5,-980 358.184,-953.165 373.445,-952.19 410.5,-918 430.322,-899.711 448.936,-875.916 462.896,-856.182"/>
<polygon fill="none" stroke="#404040" points="462.92,-856.148 463.049,-848.938 469.753,-846.284 469.625,-853.494 462.92,-856.148"/>
<text text-anchor="middle" x="415" y="-955.5" font-family="Helvetica,sans-Serif" font-size="10.00"> +elements</text>
</g>
<!-- Node9 -->
<g id="node5" class="node"><title>Node9</title>
<g id="a_node5"><a xlink:title="STL class.">
<polygon fill="white" stroke="#bfbfbf" points="192,-1103.5 192,-1171.5 287,-1171.5 287,-1103.5 192,-1103.5"/>
<text text-anchor="start" x="200" y="-1159.5" font-family="Helvetica,sans-Serif" font-size="10.00">std::basic_string&lt;</text>
<text text-anchor="middle" x="239.5" y="-1148.5" font-family="Helvetica,sans-Serif" font-size="10.00"> char &gt;</text>
<polyline fill="none" stroke="#bfbfbf" points="192,-1141.5 287,-1141.5 "/>
<text text-anchor="middle" x="239.5" y="-1129.5" font-family="Helvetica,sans-Serif" font-size="10.00"> </text>
<polyline fill="none" stroke="#bfbfbf" points="192,-1122.5 287,-1122.5 "/>
<text text-anchor="middle" x="239.5" y="-1110.5" font-family="Helvetica,sans-Serif" font-size="10.00"> </text>
</a>
</g>
</g>
<!-- Node9&#45;&gt;Node8 -->
<g id="edge4" class="edge"><title>Node9&#45;&gt;Node8</title>
<path fill="none" stroke="midnightblue" d="M239.5,-1093.06C239.5,-1080.51 239.5,-1067.15 239.5,-1055.83"/>
<polygon fill="none" stroke="midnightblue" points="236,-1093.36 239.5,-1103.36 243,-1093.36 236,-1093.36"/>
</g>
<!-- Node10 -->
<g id="node6" class="node"><title>Node10</title>
<g id="a_node6"><a xlink:href="classinout_1_1_in_param_vk.html" target="_top" xlink:title=" ">
<polygon fill="white" stroke="black" points="519.5,-431 519.5,-565 667.5,-565 667.5,-431 519.5,-431"/>
<text text-anchor="start" x="527.5" y="-553" font-family="Helvetica,sans-Serif" font-size="10.00">inout::InParamVk&lt; T</text>
<text text-anchor="middle" x="593.5" y="-542" font-family="Helvetica,sans-Serif" font-size="10.00">_CLUSTERIDX &gt;</text>
<polyline fill="none" stroke="black" points="519.5,-535 667.5,-535 "/>
<text text-anchor="middle" x="593.5" y="-523" font-family="Helvetica,sans-Serif" font-size="10.00"> </text>
<polyline fill="none" stroke="black" points="519.5,-516 667.5,-516 "/>
<text text-anchor="start" x="527.5" y="-504" font-family="Helvetica,sans-Serif" font-size="10.00">+ InParamVk()</text>
<text text-anchor="start" x="527.5" y="-493" font-family="Helvetica,sans-Serif" font-size="10.00">+ ~InParamVk()</text>
<text text-anchor="start" x="527.5" y="-482" font-family="Helvetica,sans-Serif" font-size="10.00">+ setNumClusterKMinimum()</text>
<text text-anchor="start" x="527.5" y="-471" font-family="Helvetica,sans-Serif" font-size="10.00">+ getNumClusterKMinimum()</text>
<text text-anchor="start" x="527.5" y="-460" font-family="Helvetica,sans-Serif" font-size="10.00">+ setNumClusterKMaximum()</text>
<text text-anchor="start" x="527.5" y="-449" font-family="Helvetica,sans-Serif" font-size="10.00">+ getNumClusterKMaximum()</text>
<text text-anchor="start" x="527.5" y="-438" font-family="Helvetica,sans-Serif" font-size="10.00">+ print()</text>
</a>
</g>
</g>
<!-- Node10&#45;&gt;Node5 -->
<g id="edge6" class="edge"><title>Node10&#45;&gt;Node5</title>
<path fill="none" stroke="midnightblue" d="M550.026,-421.791C529.356,-386.031 503.887,-341.97 479.544,-299.856"/>
<polygon fill="none" stroke="midnightblue" points="547.14,-423.791 555.175,-430.697 553.2,-420.288 547.14,-423.791"/>
</g>
<!-- Node11 -->
<g id="node7" class="node"><title>Node11</title>
<g id="a_node7"><a xlink:title=" ">
<polygon fill="white" stroke="#bfbfbf" points="568.5,-789 568.5,-846 660.5,-846 660.5,-789 568.5,-789"/>
<text text-anchor="middle" x="614.5" y="-834" font-family="Helvetica,sans-Serif" font-size="10.00">T_CLUSTERIDX</text>
<polyline fill="none" stroke="#bfbfbf" points="568.5,-827 660.5,-827 "/>
<text text-anchor="middle" x="614.5" y="-815" font-family="Helvetica,sans-Serif" font-size="10.00"> </text>
<polyline fill="none" stroke="#bfbfbf" points="568.5,-808 660.5,-808 "/>
<text text-anchor="middle" x="614.5" y="-796" font-family="Helvetica,sans-Serif" font-size="10.00"> </text>
</a>
</g>
</g>
<!-- Node11&#45;&gt;Node10 -->
<g id="edge7" class="edge"><title>Node11&#45;&gt;Node10</title>
<path fill="none" stroke="#404040" d="M612.673,-788.879C609.585,-742.197 603.227,-646.067 598.679,-577.305"/>
<polygon fill="none" stroke="#404040" points="598.673,-577.206 594.285,-571.483 597.881,-565.232 602.268,-570.955 598.673,-577.206"/>
<text text-anchor="middle" x="676.5" y="-691" font-family="Helvetica,sans-Serif" font-size="10.00"> #_idxK_numClusterKMaximum</text>
<text text-anchor="middle" x="676.5" y="-680" font-family="Helvetica,sans-Serif" font-size="10.00">#_idxK_numClusterKMinimum</text>
</g>
<!-- Node12&#45;&gt;Node5 -->
<g id="edge8" class="edge"><title>Node12&#45;&gt;Node5</title>
<path fill="none" stroke="midnightblue" d="M393.5,-327.378C393.5,-318.114 393.5,-308.838 393.5,-299.655"/>
<polygon fill="none" stroke="midnightblue" points="390,-327.419 393.5,-337.419 397,-327.419 390,-327.419"/>
</g>
<!-- Node13&#45;&gt;Node12 -->
<g id="edge10" class="edge"><title>Node13&#45;&gt;Node12</title>
<path fill="none" stroke="#404040" d="M479.323,-788.879C471.169,-761.341 457.922,-716.595 444.248,-670.411"/>
<polygon fill="none" stroke="#404040" points="444.172,-670.154 438.634,-665.536 440.766,-658.647 446.304,-663.265 444.172,-670.154"/>
<text text-anchor="middle" x="518" y="-691" font-family="Helvetica,sans-Serif" font-size="10.00"> #_vectorstr_filesInstance</text>
<text text-anchor="middle" x="518" y="-680" font-family="Helvetica,sans-Serif" font-size="10.00">#_vectorstr_filesInstanceTest</text>
</g>
<!-- Node14 -->
<g id="node10" class="node"><title>Node14</title>
<g id="a_node10"><a xlink:title="STL class.">
<polygon fill="white" stroke="#bfbfbf" points="443,-998.5 443,-1055.5 532,-1055.5 532,-998.5 443,-998.5"/>
<text text-anchor="middle" x="487.5" y="-1043.5" font-family="Helvetica,sans-Serif" font-size="10.00">std::vector&lt; T &gt;</text>
<polyline fill="none" stroke="#bfbfbf" points="443,-1036.5 532,-1036.5 "/>
<text text-anchor="middle" x="487.5" y="-1024.5" font-family="Helvetica,sans-Serif" font-size="10.00"> </text>
<polyline fill="none" stroke="#bfbfbf" points="443,-1017.5 532,-1017.5 "/>
<text text-anchor="middle" x="487.5" y="-1005.5" font-family="Helvetica,sans-Serif" font-size="10.00"> </text>
</a>
</g>
</g>
<!-- Node14&#45;&gt;Node13 -->
<g id="edge12" class="edge"><title>Node14&#45;&gt;Node13</title>
<path fill="none" stroke="orange" d="M487.5,-988.308C487.5,-947.305 487.5,-882.736 487.5,-846.168"/>
<polygon fill="orange" stroke="orange" points="484,-988.446 487.5,-998.446 491,-988.446 484,-988.446"/>
<text text-anchor="middle" x="520" y="-955.5" font-family="Helvetica,sans-Serif" font-size="10.00"> &lt; std::string &gt;</text>
</g>
<!-- Node15 -->
<g id="node11" class="node"><title>Node15</title>
<g id="a_node11"><a xlink:title=" ">
<polygon fill="white" stroke="#bfbfbf" points="473,-1109 473,-1166 502,-1166 502,-1109 473,-1109"/>
<text text-anchor="middle" x="487.5" y="-1154" font-family="Helvetica,sans-Serif" font-size="10.00">T</text>
<polyline fill="none" stroke="#bfbfbf" points="473,-1147 502,-1147 "/>
<text text-anchor="middle" x="487.5" y="-1135" font-family="Helvetica,sans-Serif" font-size="10.00"> </text>
<polyline fill="none" stroke="#bfbfbf" points="473,-1128 502,-1128 "/>
<text text-anchor="middle" x="487.5" y="-1116" font-family="Helvetica,sans-Serif" font-size="10.00"> </text>
</a>
</g>
</g>
<!-- Node15&#45;&gt;Node14 -->
<g id="edge13" class="edge"><title>Node15&#45;&gt;Node14</title>
<path fill="none" stroke="#404040" d="M487.5,-1108.84C487.5,-1096.34 487.5,-1081.34 487.5,-1067.68"/>
<polygon fill="none" stroke="#404040" points="487.5,-1067.61 483.5,-1061.61 487.5,-1055.61 491.5,-1061.61 487.5,-1067.61"/>
<text text-anchor="middle" x="513" y="-1077" font-family="Helvetica,sans-Serif" font-size="10.00"> +elements</text>
</g>
</g>
</svg>
