<?xml version="1.0" encoding="UTF-8" standalone="no"?>
<!DOCTYPE svg PUBLIC "-//W3C//DTD SVG 1.1//EN"
 "http://www.w3.org/Graphics/SVG/1.1/DTD/svg11.dtd">
<!-- Generated by graphviz version 2.38.0 (20140413.2041)
 -->
<!-- Title: inout::OutParamGAMedoid::print Pages: 1 -->
<svg width="463pt" height="39pt"
 viewBox="0.00 0.00 463.00 39.00" xmlns="http://www.w3.org/2000/svg" xmlns:xlink="http://www.w3.org/1999/xlink">
<g id="graph0" class="graph" transform="scale(1 1) rotate(0) translate(4 35)">
<title>inout::OutParamGAMedoid::print</title>
<polygon fill="white" stroke="none" points="-4,4 -4,-35 459,-35 459,4 -4,4"/>
<!-- Node5 -->
<g id="node1" class="node"><title>Node5</title>
<g id="a_node1"><a xlink:title=" ">
<polygon fill="#bfbfbf" stroke="black" points="0,-0.5 0,-30.5 138,-30.5 138,-0.5 0,-0.5"/>
<text text-anchor="start" x="8" y="-18.5" font-family="Helvetica,sans-Serif" font-size="10.00">inout::OutParamGAMedoid</text>
<text text-anchor="middle" x="69" y="-7.5" font-family="Helvetica,sans-Serif" font-size="10.00">::print</text>
</a>
</g>
</g>
<!-- Node6 -->
<g id="node2" class="node"><title>Node6</title>
<g id="a_node2"><a xlink:href="classinout_1_1_out_param_g_a_c.html#a91c402c4e49d8bfdbd56e79fba872e4d" target="_top" xlink:title=" ">
<polygon fill="white" stroke="black" points="174,-0.5 174,-30.5 285,-30.5 285,-0.5 174,-0.5"/>
<text text-anchor="start" x="182" y="-18.5" font-family="Helvetica,sans-Serif" font-size="10.00">inout::OutParamGAC</text>
<text text-anchor="middle" x="229.5" y="-7.5" font-family="Helvetica,sans-Serif" font-size="10.00">::print</text>
</a>
</g>
</g>
<!-- Node5&#45;&gt;Node6 -->
<g id="edge1" class="edge"><title>Node5&#45;&gt;Node6</title>
<path fill="none" stroke="midnightblue" d="M138.138,-15.5C146.609,-15.5 155.252,-15.5 163.67,-15.5"/>
<polygon fill="midnightblue" stroke="midnightblue" points="163.801,-19.0001 173.801,-15.5 163.801,-12.0001 163.801,-19.0001"/>
</g>
<!-- Node7 -->
<g id="node3" class="node"><title>Node7</title>
<g id="a_node3"><a xlink:href="classinout_1_1_out_param_clustering.html#ac3e3e8c453f378df074da9aaac2b73dd" target="_top" xlink:title=" ">
<polygon fill="white" stroke="black" points="321,-0.5 321,-30.5 455,-30.5 455,-0.5 321,-0.5"/>
<text text-anchor="start" x="329" y="-18.5" font-family="Helvetica,sans-Serif" font-size="10.00">inout::OutParamClustering</text>
<text text-anchor="middle" x="388" y="-7.5" font-family="Helvetica,sans-Serif" font-size="10.00">::print</text>
</a>
</g>
</g>
<!-- Node6&#45;&gt;Node7 -->
<g id="edge2" class="edge"><title>Node6&#45;&gt;Node7</title>
<path fill="none" stroke="midnightblue" d="M285.236,-15.5C293.535,-15.5 302.224,-15.5 310.878,-15.5"/>
<polygon fill="midnightblue" stroke="midnightblue" points="310.995,-19.0001 320.995,-15.5 310.995,-12.0001 310.995,-19.0001"/>
</g>
</g>
</svg>
