<?xml version="1.0" encoding="UTF-8" standalone="no"?>
<!DOCTYPE svg PUBLIC "-//W3C//DTD SVG 1.1//EN"
 "http://www.w3.org/Graphics/SVG/1.1/DTD/svg11.dtd">
<!-- Generated by graphviz version 2.38.0 (20140413.2041)
 -->
<!-- Title: inout::InParamCBGA::print Pages: 1 -->
<svg width="791pt" height="289pt"
 viewBox="0.00 0.00 791.00 288.50" xmlns="http://www.w3.org/2000/svg" xmlns:xlink="http://www.w3.org/1999/xlink">
<g id="graph0" class="graph" transform="scale(1 1) rotate(0) translate(4 284.5)">
<title>inout::InParamCBGA::print</title>
<polygon fill="white" stroke="none" points="-4,4 -4,-284.5 787,-284.5 787,4 -4,4"/>
<!-- Node4 -->
<g id="node1" class="node"><title>Node4</title>
<g id="a_node1"><a xlink:title=" ">
<polygon fill="#bfbfbf" stroke="black" points="0,-217.5 0,-247.5 110,-247.5 110,-217.5 0,-217.5"/>
<text text-anchor="start" x="8" y="-235.5" font-family="Helvetica,sans-Serif" font-size="10.00">inout::InParamCBGA</text>
<text text-anchor="middle" x="55" y="-224.5" font-family="Helvetica,sans-Serif" font-size="10.00">::print</text>
</a>
</g>
</g>
<!-- Node5 -->
<g id="node2" class="node"><title>Node5</title>
<g id="a_node2"><a xlink:href="classinout_1_1_in_param_fk.html#a6e802ceda1aaf74e47470fff3eaa8b64" target="_top" xlink:title=" ">
<polygon fill="white" stroke="black" points="148.5,-261 148.5,-280 264.5,-280 264.5,-261 148.5,-261"/>
<text text-anchor="middle" x="206.5" y="-268" font-family="Helvetica,sans-Serif" font-size="10.00">inout::InParamFk::print</text>
</a>
</g>
</g>
<!-- Node4&#45;&gt;Node5 -->
<g id="edge1" class="edge"><title>Node4&#45;&gt;Node5</title>
<path fill="none" stroke="midnightblue" d="M110.396,-246.326C125.862,-250.258 142.586,-254.509 157.634,-258.333"/>
<polygon fill="midnightblue" stroke="midnightblue" points="157.194,-261.833 167.748,-260.904 158.918,-255.048 157.194,-261.833"/>
</g>
<!-- Node6 -->
<g id="node3" class="node"><title>Node6</title>
<g id="a_node3"><a xlink:href="classinout_1_1_in_param_pm.html#a7ae240ff474da7ca29908370d77e7d7f" target="_top" xlink:title=" ">
<polygon fill="white" stroke="black" points="146.5,-223 146.5,-242 266.5,-242 266.5,-223 146.5,-223"/>
<text text-anchor="middle" x="206.5" y="-230" font-family="Helvetica,sans-Serif" font-size="10.00">inout::InParamPm::print</text>
</a>
</g>
</g>
<!-- Node4&#45;&gt;Node6 -->
<g id="edge2" class="edge"><title>Node4&#45;&gt;Node6</title>
<path fill="none" stroke="midnightblue" d="M110.396,-232.5C118.797,-232.5 127.569,-232.5 136.242,-232.5"/>
<polygon fill="midnightblue" stroke="midnightblue" points="136.35,-236 146.35,-232.5 136.35,-229 136.35,-236"/>
</g>
<!-- Node10 -->
<g id="node7" class="node"><title>Node10</title>
<g id="a_node7"><a xlink:href="classinout_1_1_in_param_read_inst.html#af8511d4844e09033e170fadca2e3abd2" target="_top" xlink:title=" ">
<polygon fill="white" stroke="black" points="146,-122.5 146,-152.5 267,-152.5 267,-122.5 146,-122.5"/>
<text text-anchor="start" x="154" y="-140.5" font-family="Helvetica,sans-Serif" font-size="10.00">inout::InParamReadInst</text>
<text text-anchor="middle" x="206.5" y="-129.5" font-family="Helvetica,sans-Serif" font-size="10.00">::print</text>
</a>
</g>
</g>
<!-- Node4&#45;&gt;Node10 -->
<g id="edge6" class="edge"><title>Node4&#45;&gt;Node10</title>
<path fill="none" stroke="midnightblue" d="M79.6887,-217.447C104.8,-201.49 144.638,-176.175 172.746,-158.313"/>
<polygon fill="midnightblue" stroke="midnightblue" points="174.864,-161.115 181.427,-152.797 171.11,-155.206 174.864,-161.115"/>
</g>
<!-- Node7 -->
<g id="node4" class="node"><title>Node7</title>
<g id="a_node4"><a xlink:href="classinout_1_1_in_param_g_a_clustering.html#a5d441a0cbbc91fa20c44520560fffe30" target="_top" xlink:title=" ">
<polygon fill="white" stroke="black" points="309,-245.5 309,-275.5 450,-275.5 450,-245.5 309,-245.5"/>
<text text-anchor="start" x="317" y="-263.5" font-family="Helvetica,sans-Serif" font-size="10.00">inout::InParamGAClustering</text>
<text text-anchor="middle" x="379.5" y="-252.5" font-family="Helvetica,sans-Serif" font-size="10.00">::print</text>
</a>
</g>
</g>
<!-- Node6&#45;&gt;Node7 -->
<g id="edge3" class="edge"><title>Node6&#45;&gt;Node7</title>
<path fill="none" stroke="midnightblue" d="M265.87,-242.058C276.463,-243.792 287.676,-245.628 298.759,-247.443"/>
<polygon fill="midnightblue" stroke="midnightblue" points="298.445,-250.938 308.879,-249.1 299.576,-244.03 298.445,-250.938"/>
</g>
<!-- Node8 -->
<g id="node5" class="node"><title>Node8</title>
<g id="a_node5"><a xlink:href="classinout_1_1_in_param_clustering.html#a8c6c0fafcd08e2de1d2f336ca30894d9" target="_top" xlink:title=" ">
<polygon fill="white" stroke="black" points="492,-245.5 492,-275.5 618,-275.5 618,-245.5 492,-245.5"/>
<text text-anchor="start" x="500" y="-263.5" font-family="Helvetica,sans-Serif" font-size="10.00">inout::InParamClustering</text>
<text text-anchor="middle" x="555" y="-252.5" font-family="Helvetica,sans-Serif" font-size="10.00">::print</text>
</a>
</g>
</g>
<!-- Node7&#45;&gt;Node8 -->
<g id="edge4" class="edge"><title>Node7&#45;&gt;Node8</title>
<path fill="none" stroke="midnightblue" d="M450.069,-260.5C460.572,-260.5 471.424,-260.5 481.976,-260.5"/>
<polygon fill="midnightblue" stroke="midnightblue" points="481.981,-264 491.981,-260.5 481.981,-257 481.981,-264"/>
</g>
<!-- Node9 -->
<g id="node6" class="node"><title>Node9</title>
<g id="a_node6"><a xlink:href="classinout_1_1_in_param_algorithmo.html#a97ec15acf20ba619b4538d193125a082" target="_top" xlink:title=" ">
<polygon fill="white" stroke="black" points="654,-245.5 654,-275.5 783,-275.5 783,-245.5 654,-245.5"/>
<text text-anchor="start" x="662" y="-263.5" font-family="Helvetica,sans-Serif" font-size="10.00">inout::InParamAlgorithmo</text>
<text text-anchor="middle" x="718.5" y="-252.5" font-family="Helvetica,sans-Serif" font-size="10.00">::print</text>
</a>
</g>
</g>
<!-- Node8&#45;&gt;Node9 -->
<g id="edge5" class="edge"><title>Node8&#45;&gt;Node9</title>
<path fill="none" stroke="midnightblue" d="M618.44,-260.5C626.707,-260.5 635.244,-260.5 643.679,-260.5"/>
<polygon fill="midnightblue" stroke="midnightblue" points="643.893,-264 653.893,-260.5 643.893,-257 643.893,-264"/>
</g>
<!-- Node11 -->
<g id="node8" class="node"><title>Node11</title>
<g id="a_node8"><a xlink:href="classinout_1_1_in_param_read_inst.html#a797250bacc8d887b96fa19247c5dd13f" target="_top" xlink:title=" ">
<polygon fill="white" stroke="black" points="318,-196.5 318,-226.5 441,-226.5 441,-196.5 318,-196.5"/>
<text text-anchor="start" x="326" y="-214.5" font-family="Helvetica,sans-Serif" font-size="10.00">inout::InParamReadInst</text>
<text text-anchor="middle" x="379.5" y="-203.5" font-family="Helvetica,sans-Serif" font-size="10.00">::getCurrentFileInstance</text>
</a>
</g>
</g>
<!-- Node10&#45;&gt;Node11 -->
<g id="edge7" class="edge"><title>Node10&#45;&gt;Node11</title>
<path fill="none" stroke="midnightblue" d="M234.14,-152.575C253.009,-162.901 279.111,-176.487 303,-186.5 308.384,-188.757 314.049,-190.95 319.756,-193.039"/>
<polygon fill="midnightblue" stroke="midnightblue" points="318.761,-196.4 329.356,-196.45 321.105,-189.804 318.761,-196.4"/>
</g>
<!-- Node12 -->
<g id="node9" class="node"><title>Node12</title>
<g id="a_node9"><a xlink:href="classinout_1_1_in_param_read_inst.html#a2bfdb61b53cf2421d4d7b77f1e117957" target="_top" xlink:title=" ">
<polygon fill="white" stroke="black" points="319,-147.5 319,-177.5 440,-177.5 440,-147.5 319,-147.5"/>
<text text-anchor="start" x="327" y="-165.5" font-family="Helvetica,sans-Serif" font-size="10.00">inout::InParamReadInst</text>
<text text-anchor="middle" x="379.5" y="-154.5" font-family="Helvetica,sans-Serif" font-size="10.00">::getNumInstances</text>
</a>
</g>
</g>
<!-- Node10&#45;&gt;Node12 -->
<g id="edge8" class="edge"><title>Node10&#45;&gt;Node12</title>
<path fill="none" stroke="midnightblue" d="M267.308,-146.244C280.715,-148.204 295.052,-150.3 308.822,-152.313"/>
<polygon fill="midnightblue" stroke="midnightblue" points="308.325,-155.778 318.726,-153.761 309.338,-148.851 308.325,-155.778"/>
</g>
<!-- Node13 -->
<g id="node10" class="node"><title>Node13</title>
<g id="a_node10"><a xlink:href="classinout_1_1_in_param_read_inst.html#a175c4744ce41558415b2dc3555701edd" target="_top" xlink:title=" ">
<polygon fill="white" stroke="black" points="303,-98.5 303,-128.5 456,-128.5 456,-98.5 303,-98.5"/>
<text text-anchor="start" x="311" y="-116.5" font-family="Helvetica,sans-Serif" font-size="10.00">inout::InParamReadInst</text>
<text text-anchor="middle" x="379.5" y="-105.5" font-family="Helvetica,sans-Serif" font-size="10.00">::getNumDimensionsInstances</text>
</a>
</g>
</g>
<!-- Node10&#45;&gt;Node13 -->
<g id="edge9" class="edge"><title>Node10&#45;&gt;Node13</title>
<path fill="none" stroke="midnightblue" d="M267.308,-129.106C275.545,-127.95 284.134,-126.744 292.726,-125.539"/>
<polygon fill="midnightblue" stroke="midnightblue" points="293.377,-128.982 302.793,-124.126 292.404,-122.049 293.377,-128.982"/>
</g>
<!-- Node14 -->
<g id="node11" class="node"><title>Node14</title>
<g id="a_node11"><a xlink:href="classinout_1_1_in_param_read_inst.html#ab91dbd838ea608bd3bf963bb97398747" target="_top" xlink:title=" ">
<polygon fill="white" stroke="black" points="307.5,-49.5 307.5,-79.5 451.5,-79.5 451.5,-49.5 307.5,-49.5"/>
<text text-anchor="start" x="315.5" y="-67.5" font-family="Helvetica,sans-Serif" font-size="10.00">inout::InParamReadInst</text>
<text text-anchor="middle" x="379.5" y="-56.5" font-family="Helvetica,sans-Serif" font-size="10.00">::getCurrentFileInstanceTest</text>
</a>
</g>
</g>
<!-- Node10&#45;&gt;Node14 -->
<g id="edge10" class="edge"><title>Node10&#45;&gt;Node14</title>
<path fill="none" stroke="midnightblue" d="M234.103,-122.335C252.955,-111.968 279.052,-98.3699 303,-88.5 307.649,-86.5838 312.511,-84.7254 317.429,-82.9474"/>
<polygon fill="midnightblue" stroke="midnightblue" points="318.629,-86.2356 326.915,-79.6332 316.32,-79.6272 318.629,-86.2356"/>
</g>
<!-- Node15 -->
<g id="node12" class="node"><title>Node15</title>
<g id="a_node12"><a xlink:href="classinout_1_1_in_param_read_inst.html#a6539b0e38e129a23eae4cb506e4c08f1" target="_top" xlink:title=" ">
<polygon fill="white" stroke="black" points="319,-0.5 319,-30.5 440,-30.5 440,-0.5 319,-0.5"/>
<text text-anchor="start" x="327" y="-18.5" font-family="Helvetica,sans-Serif" font-size="10.00">inout::InParamReadInst</text>
<text text-anchor="middle" x="379.5" y="-7.5" font-family="Helvetica,sans-Serif" font-size="10.00">::getNumInstancesTest</text>
</a>
</g>
</g>
<!-- Node10&#45;&gt;Node15 -->
<g id="edge11" class="edge"><title>Node10&#45;&gt;Node15</title>
<path fill="none" stroke="midnightblue" d="M218.401,-122.298C234.542,-100.85 266.815,-61.8371 303,-39.5 305.75,-37.8022 308.632,-36.2138 311.598,-34.7292"/>
<polygon fill="midnightblue" stroke="midnightblue" points="313.052,-37.9129 320.699,-30.5804 310.148,-31.5435 313.052,-37.9129"/>
</g>
</g>
</svg>
