<?xml version="1.0" encoding="UTF-8" standalone="no"?>
<!DOCTYPE svg PUBLIC "-//W3C//DTD SVG 1.1//EN"
 "http://www.w3.org/Graphics/SVG/1.1/DTD/svg11.dtd">
<!-- Generated by graphviz version 2.38.0 (20140413.2041)
 -->
<!-- Title: inout::InParamAdaptivePcPmFk&lt; T_CLUSTERIDX, T_FEATURE, T_FEATURE_SUM, T_INSTANCES_CLUSTER_K &gt; Pages: 1 -->
<svg width="570pt" height="1154pt"
 viewBox="0.00 0.00 569.50 1154.00" xmlns="http://www.w3.org/2000/svg" xmlns:xlink="http://www.w3.org/1999/xlink">
<g id="graph0" class="graph" transform="scale(1 1) rotate(0) translate(4 1150)">
<title>inout::InParamAdaptivePcPmFk&lt; T_CLUSTERIDX, T_FEATURE, T_FEATURE_SUM, T_INSTANCES_CLUSTER_K &gt;</title>
<polygon fill="white" stroke="none" points="-4,4 -4,-1150 565.5,-1150 565.5,4 -4,4"/>
<!-- Node6 -->
<g id="node1" class="node"><title>Node6</title>
<polygon fill="#bfbfbf" stroke="black" points="170.5,-0.5 170.5,-112.5 332.5,-112.5 332.5,-0.5 170.5,-0.5"/>
<text text-anchor="start" x="178.5" y="-100.5" font-family="Helvetica,sans-Serif" font-size="10.00">inout::InParamAdaptivePc</text>
<text text-anchor="start" x="178.5" y="-89.5" font-family="Helvetica,sans-Serif" font-size="10.00">PmFk&lt; T_CLUSTERIDX, T</text>
<text text-anchor="start" x="178.5" y="-78.5" font-family="Helvetica,sans-Serif" font-size="10.00">_FEATURE, T_FEATURE_SUM,</text>
<text text-anchor="middle" x="251.5" y="-67.5" font-family="Helvetica,sans-Serif" font-size="10.00"> T_INSTANCES_CLUSTER_K &gt;</text>
<polyline fill="none" stroke="black" points="170.5,-60.5 332.5,-60.5 "/>
<text text-anchor="middle" x="251.5" y="-48.5" font-family="Helvetica,sans-Serif" font-size="10.00"> </text>
<polyline fill="none" stroke="black" points="170.5,-41.5 332.5,-41.5 "/>
<text text-anchor="start" x="178.5" y="-29.5" font-family="Helvetica,sans-Serif" font-size="10.00">+ InParamAdaptivePcPmFk()</text>
<text text-anchor="start" x="178.5" y="-18.5" font-family="Helvetica,sans-Serif" font-size="10.00">+ ~InParamAdaptivePcPmFk()</text>
<text text-anchor="start" x="178.5" y="-7.5" font-family="Helvetica,sans-Serif" font-size="10.00">+ print()</text>
</g>
<!-- Node7 -->
<g id="node2" class="node"><title>Node7</title>
<g id="a_node2"><a xlink:href="classinout_1_1_in_param_g_a_clustering.html" target="_top" xlink:title="Input parameter for genetic algorithm. ">
<polygon fill="white" stroke="black" points="36,-150.5 36,-284.5 177,-284.5 177,-150.5 36,-150.5"/>
<text text-anchor="middle" x="106.5" y="-272.5" font-family="Helvetica,sans-Serif" font-size="10.00">inout::InParamGAClustering</text>
<polyline fill="none" stroke="black" points="36,-265.5 177,-265.5 "/>
<text text-anchor="start" x="44" y="-253.5" font-family="Helvetica,sans-Serif" font-size="10.00"># st_sizePopulation</text>
<text text-anchor="start" x="44" y="-242.5" font-family="Helvetica,sans-Serif" font-size="10.00"># t_numMaxGenerations</text>
<polyline fill="none" stroke="black" points="36,-235.5 177,-235.5 "/>
<text text-anchor="start" x="44" y="-223.5" font-family="Helvetica,sans-Serif" font-size="10.00">+ InParamGAClustering()</text>
<text text-anchor="start" x="44" y="-212.5" font-family="Helvetica,sans-Serif" font-size="10.00">+ ~InParamGAClustering()</text>
<text text-anchor="start" x="44" y="-201.5" font-family="Helvetica,sans-Serif" font-size="10.00">+ setNumMaxGenerations()</text>
<text text-anchor="start" x="44" y="-190.5" font-family="Helvetica,sans-Serif" font-size="10.00">+ getNumMaxGenerations()</text>
<text text-anchor="start" x="44" y="-179.5" font-family="Helvetica,sans-Serif" font-size="10.00">+ setSizePopulation()</text>
<text text-anchor="start" x="44" y="-168.5" font-family="Helvetica,sans-Serif" font-size="10.00">+ getSizePopulation()</text>
<text text-anchor="start" x="44" y="-157.5" font-family="Helvetica,sans-Serif" font-size="10.00">+ print()</text>
</a>
</g>
</g>
<!-- Node7&#45;&gt;Node6 -->
<g id="edge1" class="edge"><title>Node7&#45;&gt;Node6</title>
<path fill="none" stroke="midnightblue" d="M173.697,-142.814C182.846,-132.783 192.108,-122.627 200.896,-112.99"/>
<polygon fill="none" stroke="midnightblue" points="170.886,-140.704 166.733,-150.451 176.058,-145.421 170.886,-140.704"/>
</g>
<!-- Node8 -->
<g id="node3" class="node"><title>Node8</title>
<g id="a_node3"><a xlink:href="classinout_1_1_in_param_clustering.html" target="_top" xlink:title="Input parameter for clustering algorithm. ">
<polygon fill="white" stroke="black" points="15.5,-350 15.5,-605 197.5,-605 197.5,-350 15.5,-350"/>
<text text-anchor="middle" x="106.5" y="-593" font-family="Helvetica,sans-Serif" font-size="10.00">inout::InParamClustering</text>
<polyline fill="none" stroke="black" points="15.5,-586 197.5,-586 "/>
<text text-anchor="start" x="23.5" y="-574" font-family="Helvetica,sans-Serif" font-size="10.00"># i_opDistance</text>
<text text-anchor="start" x="23.5" y="-563" font-family="Helvetica,sans-Serif" font-size="10.00"># ps_outFileCentroids</text>
<text text-anchor="start" x="23.5" y="-552" font-family="Helvetica,sans-Serif" font-size="10.00"># ps_outFileMemberShip</text>
<text text-anchor="start" x="23.5" y="-541" font-family="Helvetica,sans-Serif" font-size="10.00"># ps_outFilePartitionsTable</text>
<text text-anchor="start" x="23.5" y="-530" font-family="Helvetica,sans-Serif" font-size="10.00"># ps_outFileGraph</text>
<text text-anchor="start" x="23.5" y="-519" font-family="Helvetica,sans-Serif" font-size="10.00"># ps_fileNamePlotStatObjetiveFunc</text>
<text text-anchor="start" x="23.5" y="-508" font-family="Helvetica,sans-Serif" font-size="10.00"># _rd_maxExecutiontime</text>
<text text-anchor="start" x="23.5" y="-497" font-family="Helvetica,sans-Serif" font-size="10.00"># _b_printCentroidsFormat</text>
<text text-anchor="start" x="23.5" y="-486" font-family="Helvetica,sans-Serif" font-size="10.00"># _b_printTableFormat</text>
<polyline fill="none" stroke="black" points="15.5,-479 197.5,-479 "/>
<text text-anchor="start" x="23.5" y="-467" font-family="Helvetica,sans-Serif" font-size="10.00">+ InParamClustering()</text>
<text text-anchor="start" x="23.5" y="-456" font-family="Helvetica,sans-Serif" font-size="10.00">+ ~InParamClustering()</text>
<text text-anchor="start" x="23.5" y="-445" font-family="Helvetica,sans-Serif" font-size="10.00">+ getFileNamePlotStatObjetiveFunc()</text>
<text text-anchor="start" x="23.5" y="-434" font-family="Helvetica,sans-Serif" font-size="10.00">+ getWithPlotStatObjetiveFunc()</text>
<text text-anchor="start" x="23.5" y="-423" font-family="Helvetica,sans-Serif" font-size="10.00">+ setFileNamePlotStatObjetiveFunc()</text>
<text text-anchor="start" x="23.5" y="-412" font-family="Helvetica,sans-Serif" font-size="10.00">+ setOutFileMemberShip()</text>
<text text-anchor="start" x="23.5" y="-401" font-family="Helvetica,sans-Serif" font-size="10.00">+ getOutFileMemberShip()</text>
<text text-anchor="start" x="23.5" y="-390" font-family="Helvetica,sans-Serif" font-size="10.00">+ setRandomSeed()</text>
<text text-anchor="start" x="23.5" y="-379" font-family="Helvetica,sans-Serif" font-size="10.00">+ setRandomSeed()</text>
<text text-anchor="start" x="23.5" y="-368" font-family="Helvetica,sans-Serif" font-size="10.00">+ getRandomSeed()</text>
<text text-anchor="start" x="23.5" y="-357" font-family="Helvetica,sans-Serif" font-size="10.00">and 15 more...</text>
</a>
</g>
</g>
<!-- Node8&#45;&gt;Node7 -->
<g id="edge2" class="edge"><title>Node8&#45;&gt;Node7</title>
<path fill="none" stroke="midnightblue" d="M106.5,-339.726C106.5,-320.546 106.5,-301.597 106.5,-284.582"/>
<polygon fill="none" stroke="midnightblue" points="103,-339.767 106.5,-349.767 110,-339.768 103,-339.767"/>
</g>
<!-- Node9 -->
<g id="node4" class="node"><title>Node9</title>
<g id="a_node4"><a xlink:href="classinout_1_1_in_param_algorithmo.html" target="_top" xlink:title="Input parameter for define propertys of the algorithmos. ">
<polygon fill="white" stroke="black" points="0,-691.5 0,-891.5 135,-891.5 135,-691.5 0,-691.5"/>
<text text-anchor="middle" x="67.5" y="-879.5" font-family="Helvetica,sans-Serif" font-size="10.00">inout::InParamAlgorithmo</text>
<polyline fill="none" stroke="black" points="0,-872.5 135,-872.5 "/>
<text text-anchor="start" x="8" y="-860.5" font-family="Helvetica,sans-Serif" font-size="10.00"># ato_algTypeOut</text>
<text text-anchor="start" x="8" y="-849.5" font-family="Helvetica,sans-Serif" font-size="10.00"># ps_fileNameTimesRun</text>
<text text-anchor="start" x="8" y="-838.5" font-family="Helvetica,sans-Serif" font-size="10.00"># b_progressBarPrinting</text>
<text text-anchor="start" x="8" y="-827.5" font-family="Helvetica,sans-Serif" font-size="10.00"># i_timesRunAlgorithm</text>
<polyline fill="none" stroke="black" points="0,-820.5 135,-820.5 "/>
<text text-anchor="start" x="8" y="-808.5" font-family="Helvetica,sans-Serif" font-size="10.00">+ InParamAlgorithmo()</text>
<text text-anchor="start" x="8" y="-797.5" font-family="Helvetica,sans-Serif" font-size="10.00">+ ~InParamAlgorithmo()</text>
<text text-anchor="start" x="8" y="-786.5" font-family="Helvetica,sans-Serif" font-size="10.00">+ errorArgument()</text>
<text text-anchor="start" x="8" y="-775.5" font-family="Helvetica,sans-Serif" font-size="10.00">+ isYesNo()</text>
<text text-anchor="start" x="8" y="-764.5" font-family="Helvetica,sans-Serif" font-size="10.00">+ setFileNameTimesRun()</text>
<text text-anchor="start" x="8" y="-753.5" font-family="Helvetica,sans-Serif" font-size="10.00">+ setProgressBarPrinting()</text>
<text text-anchor="start" x="8" y="-742.5" font-family="Helvetica,sans-Serif" font-size="10.00">+ setTimesRunAlgorithm()</text>
<text text-anchor="start" x="8" y="-731.5" font-family="Helvetica,sans-Serif" font-size="10.00">+ setGnuPlotCoreStyles()</text>
<text text-anchor="start" x="8" y="-720.5" font-family="Helvetica,sans-Serif" font-size="10.00">+ getAlgorithmoAuthor()</text>
<text text-anchor="start" x="8" y="-709.5" font-family="Helvetica,sans-Serif" font-size="10.00">+ getAlgorithmoName()</text>
<text text-anchor="start" x="8" y="-698.5" font-family="Helvetica,sans-Serif" font-size="10.00">and 8 more...</text>
</a>
</g>
</g>
<!-- Node9&#45;&gt;Node8 -->
<g id="edge3" class="edge"><title>Node9&#45;&gt;Node8</title>
<path fill="none" stroke="midnightblue" d="M81.1512,-681.291C84.2258,-656.694 87.5142,-630.387 90.6695,-605.144"/>
<polygon fill="none" stroke="midnightblue" points="77.6609,-680.996 79.8934,-691.353 84.6068,-681.864 77.6609,-680.996"/>
</g>
<!-- Node10 -->
<g id="node5" class="node"><title>Node10</title>
<g id="a_node5"><a xlink:title="STL class. ">
<polygon fill="white" stroke="#bfbfbf" points="209.5,-972.5 209.5,-1029.5 269.5,-1029.5 269.5,-972.5 209.5,-972.5"/>
<text text-anchor="middle" x="239.5" y="-1017.5" font-family="Helvetica,sans-Serif" font-size="10.00">std::string</text>
<polyline fill="none" stroke="#bfbfbf" points="209.5,-1010.5 269.5,-1010.5 "/>
<text text-anchor="middle" x="239.5" y="-998.5" font-family="Helvetica,sans-Serif" font-size="10.00"> </text>
<polyline fill="none" stroke="#bfbfbf" points="209.5,-991.5 269.5,-991.5 "/>
<text text-anchor="middle" x="239.5" y="-979.5" font-family="Helvetica,sans-Serif" font-size="10.00"> </text>
</a>
</g>
</g>
<!-- Node10&#45;&gt;Node8 -->
<g id="edge6" class="edge"><title>Node10&#45;&gt;Node8</title>
<path fill="none" stroke="#404040" d="M219.356,-972.078C205.178,-951.06 186.936,-921.003 176.5,-892 145.849,-806.817 158.598,-780.261 143.5,-691 139.461,-667.123 135.102,-641.749 130.842,-617.158"/>
<polygon fill="none" stroke="#404040" points="130.811,-616.982 125.845,-611.754 128.76,-605.159 133.727,-610.387 130.811,-616.982"/>
<text text-anchor="middle" x="221" y="-789" font-family="Helvetica,sans-Serif" font-size="10.00"> #_str_randomSeed</text>
</g>
<!-- Node10&#45;&gt;Node9 -->
<g id="edge4" class="edge"><title>Node10&#45;&gt;Node9</title>
<path fill="none" stroke="#404040" d="M209.409,-996.54C163.96,-990.625 81.2104,-976.934 63.5,-954 52.3207,-939.523 47.0968,-921.942 45.5195,-903.777"/>
<polygon fill="none" stroke="#404040" points="45.5193,-903.77 41.2554,-897.955 44.9836,-891.782 49.2474,-897.598 45.5193,-903.77"/>
<text text-anchor="middle" x="113" y="-946" font-family="Helvetica,sans-Serif" font-size="10.00"> #s_algorithmoAuthor</text>
<text text-anchor="middle" x="113" y="-935" font-family="Helvetica,sans-Serif" font-size="10.00">#s_algorithmoName</text>
<text text-anchor="middle" x="113" y="-924" font-family="Helvetica,sans-Serif" font-size="10.00">#s_gnuplotCoreStyles</text>
<text text-anchor="middle" x="113" y="-913" font-family="Helvetica,sans-Serif" font-size="10.00">#_s_runTimeId</text>
</g>
<!-- Node13 -->
<g id="node8" class="node"><title>Node13</title>
<g id="a_node8"><a xlink:href="classinout_1_1_in_param_read_inst.html" target="_top" xlink:title="Input parameter for read instances. ">
<polygon fill="white" stroke="black" points="251,-322.5 251,-632.5 422,-632.5 422,-322.5 251,-322.5"/>
<text text-anchor="start" x="259" y="-620.5" font-family="Helvetica,sans-Serif" font-size="10.00">inout::InParamReadInst</text>
<text text-anchor="start" x="259" y="-609.5" font-family="Helvetica,sans-Serif" font-size="10.00">&lt; T_FEATURE, T_INSTANCES</text>
<text text-anchor="middle" x="336.5" y="-598.5" font-family="Helvetica,sans-Serif" font-size="10.00">_CLUSTER_K, T_CLUSTERIDX &gt;</text>
<polyline fill="none" stroke="black" points="251,-591.5 422,-591.5 "/>
<text text-anchor="start" x="259" y="-579.5" font-family="Helvetica,sans-Serif" font-size="10.00"># _ui_idxCurrentFileInstance</text>
<text text-anchor="start" x="259" y="-568.5" font-family="Helvetica,sans-Serif" font-size="10.00"># _enum_formatInstanceFile</text>
<text text-anchor="start" x="259" y="-557.5" font-family="Helvetica,sans-Serif" font-size="10.00"># _b_haveHeaderFile</text>
<text text-anchor="start" x="259" y="-546.5" font-family="Helvetica,sans-Serif" font-size="10.00"># _ui_classInstanceColumn</text>
<text text-anchor="start" x="259" y="-535.5" font-family="Helvetica,sans-Serif" font-size="10.00"># _ui_clusterInstanceColumn</text>
<text text-anchor="start" x="259" y="-524.5" font-family="Helvetica,sans-Serif" font-size="10.00"># _ui_idInstanceColumn</text>
<text text-anchor="start" x="259" y="-513.5" font-family="Helvetica,sans-Serif" font-size="10.00"># _ui_instancesFrequencyColumn</text>
<text text-anchor="start" x="259" y="-502.5" font-family="Helvetica,sans-Serif" font-size="10.00"># _ui_idMultiInstanceColumn</text>
<text text-anchor="start" x="259" y="-491.5" font-family="Helvetica,sans-Serif" font-size="10.00"># _ui_classMultiInstColumn</text>
<text text-anchor="start" x="259" y="-480.5" font-family="Helvetica,sans-Serif" font-size="10.00"># _ui_numInstances</text>
<text text-anchor="start" x="259" y="-469.5" font-family="Helvetica,sans-Serif" font-size="10.00"># _ui_numDimensionsInstances</text>
<text text-anchor="start" x="259" y="-458.5" font-family="Helvetica,sans-Serif" font-size="10.00"># _ui_numInstancesTest</text>
<polyline fill="none" stroke="black" points="251,-451.5 422,-451.5 "/>
<text text-anchor="start" x="259" y="-439.5" font-family="Helvetica,sans-Serif" font-size="10.00">+ InParamReadInst()</text>
<text text-anchor="start" x="259" y="-428.5" font-family="Helvetica,sans-Serif" font-size="10.00">+ InParamReadInst()</text>
<text text-anchor="start" x="259" y="-417.5" font-family="Helvetica,sans-Serif" font-size="10.00">+ ~InParamReadInst()</text>
<text text-anchor="start" x="259" y="-406.5" font-family="Helvetica,sans-Serif" font-size="10.00">+ clearVectorFilesInstance()</text>
<text text-anchor="start" x="259" y="-395.5" font-family="Helvetica,sans-Serif" font-size="10.00">+ getVectorFilesInstance()</text>
<text text-anchor="start" x="259" y="-384.5" font-family="Helvetica,sans-Serif" font-size="10.00">+ setVectorFilesInstance()</text>
<text text-anchor="start" x="259" y="-373.5" font-family="Helvetica,sans-Serif" font-size="10.00">+ getNumFilesInstance()</text>
<text text-anchor="start" x="259" y="-362.5" font-family="Helvetica,sans-Serif" font-size="10.00">+ setVectorFilesInstanceTest()</text>
<text text-anchor="start" x="259" y="-351.5" font-family="Helvetica,sans-Serif" font-size="10.00">+ getVectorFilesInstanceTest()</text>
<text text-anchor="start" x="259" y="-340.5" font-family="Helvetica,sans-Serif" font-size="10.00">+ getNumFilesInstanceTest()</text>
<text text-anchor="start" x="259" y="-329.5" font-family="Helvetica,sans-Serif" font-size="10.00">and 35 more...</text>
</a>
</g>
</g>
<!-- Node10&#45;&gt;Node13 -->
<g id="edge9" class="edge"><title>Node10&#45;&gt;Node13</title>
<path fill="none" stroke="#404040" d="M248.122,-972.24C254.636,-950.55 263.458,-919.562 269.5,-892 287.2,-811.252 302.391,-720.689 313.812,-644.946"/>
<polygon fill="none" stroke="#404040" points="313.835,-644.788 310.768,-638.262 315.612,-632.921 318.68,-639.447 313.835,-644.788"/>
<text text-anchor="middle" x="360" y="-794.5" font-family="Helvetica,sans-Serif" font-size="10.00"> #_ps_selectAttributes</text>
<text text-anchor="middle" x="360" y="-783.5" font-family="Helvetica,sans-Serif" font-size="10.00">#_s_separatorAttributes</text>
</g>
<!-- Node14 -->
<g id="node9" class="node"><title>Node14</title>
<polygon fill="white" stroke="#bfbfbf" points="425,-763 425,-820 550,-820 550,-763 425,-763"/>
<text text-anchor="middle" x="487.5" y="-808" font-family="Helvetica,sans-Serif" font-size="10.00">std::vector&lt; std::string &gt;</text>
<polyline fill="none" stroke="#bfbfbf" points="425,-801 550,-801 "/>
<text text-anchor="middle" x="487.5" y="-789" font-family="Helvetica,sans-Serif" font-size="10.00"> </text>
<polyline fill="none" stroke="#bfbfbf" points="425,-782 550,-782 "/>
<text text-anchor="middle" x="487.5" y="-770" font-family="Helvetica,sans-Serif" font-size="10.00"> </text>
</g>
<!-- Node10&#45;&gt;Node14 -->
<g id="edge11" class="edge"><title>Node10&#45;&gt;Node14</title>
<path fill="none" stroke="#404040" d="M269.604,-982.099C283.623,-973.682 300.484,-963.44 315.5,-954 358.184,-927.165 373.445,-926.19 410.5,-892 430.322,-873.711 448.936,-849.916 462.896,-830.182"/>
<polygon fill="none" stroke="#404040" points="462.92,-830.148 463.049,-822.938 469.753,-820.284 469.625,-827.494 462.92,-830.148"/>
<text text-anchor="middle" x="415" y="-929.5" font-family="Helvetica,sans-Serif" font-size="10.00"> +elements</text>
</g>
<!-- Node11 -->
<g id="node6" class="node"><title>Node11</title>
<g id="a_node6"><a xlink:title="STL class. ">
<polygon fill="white" stroke="#bfbfbf" points="192,-1077.5 192,-1145.5 287,-1145.5 287,-1077.5 192,-1077.5"/>
<text text-anchor="start" x="200" y="-1133.5" font-family="Helvetica,sans-Serif" font-size="10.00">std::basic_string&lt;</text>
<text text-anchor="middle" x="239.5" y="-1122.5" font-family="Helvetica,sans-Serif" font-size="10.00"> char &gt;</text>
<polyline fill="none" stroke="#bfbfbf" points="192,-1115.5 287,-1115.5 "/>
<text text-anchor="middle" x="239.5" y="-1103.5" font-family="Helvetica,sans-Serif" font-size="10.00"> </text>
<polyline fill="none" stroke="#bfbfbf" points="192,-1096.5 287,-1096.5 "/>
<text text-anchor="middle" x="239.5" y="-1084.5" font-family="Helvetica,sans-Serif" font-size="10.00"> </text>
</a>
</g>
</g>
<!-- Node11&#45;&gt;Node10 -->
<g id="edge5" class="edge"><title>Node11&#45;&gt;Node10</title>
<path fill="none" stroke="midnightblue" d="M239.5,-1067.06C239.5,-1054.51 239.5,-1041.15 239.5,-1029.83"/>
<polygon fill="none" stroke="midnightblue" points="236,-1067.36 239.5,-1077.36 243,-1067.36 236,-1067.36"/>
</g>
<!-- Node12 -->
<g id="node7" class="node"><title>Node12</title>
<g id="a_node7"><a xlink:href="classinout_1_1_in_param_fk.html" target="_top" xlink:title="Input parameter for algorithms with Fixed K. ">
<polygon fill="white" stroke="black" points="195,-161.5 195,-273.5 308,-273.5 308,-161.5 195,-161.5"/>
<text text-anchor="start" x="203" y="-261.5" font-family="Helvetica,sans-Serif" font-size="10.00">inout::InParamFk&lt; T</text>
<text text-anchor="middle" x="251.5" y="-250.5" font-family="Helvetica,sans-Serif" font-size="10.00">_CLUSTERIDX &gt;</text>
<polyline fill="none" stroke="black" points="195,-243.5 308,-243.5 "/>
<text text-anchor="start" x="203" y="-231.5" font-family="Helvetica,sans-Serif" font-size="10.00"># _idxK_numClusterK</text>
<polyline fill="none" stroke="black" points="195,-224.5 308,-224.5 "/>
<text text-anchor="start" x="203" y="-212.5" font-family="Helvetica,sans-Serif" font-size="10.00">+ InParamFk()</text>
<text text-anchor="start" x="203" y="-201.5" font-family="Helvetica,sans-Serif" font-size="10.00">+ ~InParamFk()</text>
<text text-anchor="start" x="203" y="-190.5" font-family="Helvetica,sans-Serif" font-size="10.00">+ setNumClusterK()</text>
<text text-anchor="start" x="203" y="-179.5" font-family="Helvetica,sans-Serif" font-size="10.00">+ getNumClusterK()</text>
<text text-anchor="start" x="203" y="-168.5" font-family="Helvetica,sans-Serif" font-size="10.00">+ print()</text>
</a>
</g>
</g>
<!-- Node12&#45;&gt;Node6 -->
<g id="edge7" class="edge"><title>Node12&#45;&gt;Node6</title>
<path fill="none" stroke="midnightblue" d="M251.5,-151.184C251.5,-138.356 251.5,-125.018 251.5,-112.567"/>
<polygon fill="none" stroke="midnightblue" points="248,-151.336 251.5,-161.336 255,-151.336 248,-151.336"/>
</g>
<!-- Node13&#45;&gt;Node6 -->
<g id="edge8" class="edge"><title>Node13&#45;&gt;Node6</title>
<path fill="none" stroke="midnightblue" d="M343.886,-312.135C341.702,-259.155 334.354,-200.983 316.5,-150 311.991,-137.126 305.14,-124.424 297.55,-112.75"/>
<polygon fill="none" stroke="midnightblue" points="340.394,-312.441 344.245,-322.311 347.39,-312.194 340.394,-312.441"/>
</g>
<!-- Node14&#45;&gt;Node13 -->
<g id="edge10" class="edge"><title>Node14&#45;&gt;Node13</title>
<path fill="none" stroke="#404040" d="M474.1,-762.812C460.64,-735.002 438.733,-689.736 416.316,-643.418"/>
<polygon fill="none" stroke="#404040" points="416.3,-643.384 410.085,-639.726 411.072,-632.583 417.286,-636.241 416.3,-643.384"/>
<text text-anchor="middle" x="496" y="-665" font-family="Helvetica,sans-Serif" font-size="10.00"> #_vectorstr_filesInstance</text>
<text text-anchor="middle" x="496" y="-654" font-family="Helvetica,sans-Serif" font-size="10.00">#_vectorstr_filesInstanceTest</text>
</g>
<!-- Node15 -->
<g id="node10" class="node"><title>Node15</title>
<g id="a_node10"><a xlink:title="STL class. ">
<polygon fill="white" stroke="#bfbfbf" points="443,-972.5 443,-1029.5 532,-1029.5 532,-972.5 443,-972.5"/>
<text text-anchor="middle" x="487.5" y="-1017.5" font-family="Helvetica,sans-Serif" font-size="10.00">std::vector&lt; T &gt;</text>
<polyline fill="none" stroke="#bfbfbf" points="443,-1010.5 532,-1010.5 "/>
<text text-anchor="middle" x="487.5" y="-998.5" font-family="Helvetica,sans-Serif" font-size="10.00"> </text>
<polyline fill="none" stroke="#bfbfbf" points="443,-991.5 532,-991.5 "/>
<text text-anchor="middle" x="487.5" y="-979.5" font-family="Helvetica,sans-Serif" font-size="10.00"> </text>
</a>
</g>
</g>
<!-- Node15&#45;&gt;Node14 -->
<g id="edge12" class="edge"><title>Node15&#45;&gt;Node14</title>
<path fill="none" stroke="orange" d="M487.5,-962.308C487.5,-921.305 487.5,-856.736 487.5,-820.168"/>
<polygon fill="orange" stroke="orange" points="484,-962.446 487.5,-972.446 491,-962.446 484,-962.446"/>
<text text-anchor="middle" x="520" y="-929.5" font-family="Helvetica,sans-Serif" font-size="10.00"> &lt; std::string &gt;</text>
</g>
<!-- Node16 -->
<g id="node11" class="node"><title>Node16</title>
<polygon fill="white" stroke="#bfbfbf" points="473,-1083 473,-1140 502,-1140 502,-1083 473,-1083"/>
<text text-anchor="middle" x="487.5" y="-1128" font-family="Helvetica,sans-Serif" font-size="10.00">T</text>
<polyline fill="none" stroke="#bfbfbf" points="473,-1121 502,-1121 "/>
<text text-anchor="middle" x="487.5" y="-1109" font-family="Helvetica,sans-Serif" font-size="10.00"> </text>
<polyline fill="none" stroke="#bfbfbf" points="473,-1102 502,-1102 "/>
<text text-anchor="middle" x="487.5" y="-1090" font-family="Helvetica,sans-Serif" font-size="10.00"> </text>
</g>
<!-- Node16&#45;&gt;Node15 -->
<g id="edge13" class="edge"><title>Node16&#45;&gt;Node15</title>
<path fill="none" stroke="#404040" d="M487.5,-1082.84C487.5,-1070.34 487.5,-1055.34 487.5,-1041.68"/>
<polygon fill="none" stroke="#404040" points="487.5,-1041.61 483.5,-1035.61 487.5,-1029.61 491.5,-1035.61 487.5,-1041.61"/>
<text text-anchor="middle" x="513" y="-1051" font-family="Helvetica,sans-Serif" font-size="10.00"> +elements</text>
</g>
</g>
</svg>
