<?xml version="1.0" encoding="UTF-8" standalone="no"?>
<!DOCTYPE svg PUBLIC "-//W3C//DTD SVG 1.1//EN"
 "http://www.w3.org/Graphics/SVG/1.1/DTD/svg11.dtd">
<!-- Generated by graphviz version 2.38.0 (20140413.2041)
 -->
<!-- Title: partition::PartitionLabelVector&lt; T_CLUSTERIDX &gt; Pages: 1 -->
<svg width="448pt" height="612pt"
 viewBox="0.00 0.00 448.00 612.00" xmlns="http://www.w3.org/2000/svg" xmlns:xlink="http://www.w3.org/1999/xlink">
<g id="graph0" class="graph" transform="scale(1 1) rotate(0) translate(4 608)">
<title>partition::PartitionLabelVector&lt; T_CLUSTERIDX &gt;</title>
<polygon fill="white" stroke="none" points="-4,4 -4,-608 444,-608 444,4 -4,4"/>
<!-- Node2 -->
<g id="node1" class="node"><title>Node2</title>
<polygon fill="#bfbfbf" stroke="black" points="76,-0.5 76,-156.5 216,-156.5 216,-0.5 76,-0.5"/>
<text text-anchor="start" x="84" y="-144.5" font-family="Helvetica,sans-Serif" font-size="10.00">partition::PartitionLabel</text>
<text text-anchor="middle" x="146" y="-133.5" font-family="Helvetica,sans-Serif" font-size="10.00">Vector&lt; T_CLUSTERIDX &gt;</text>
<polyline fill="none" stroke="black" points="76,-126.5 216,-126.5 "/>
<text text-anchor="middle" x="146" y="-114.5" font-family="Helvetica,sans-Serif" font-size="10.00"> </text>
<polyline fill="none" stroke="black" points="76,-107.5 216,-107.5 "/>
<text text-anchor="start" x="84" y="-95.5" font-family="Helvetica,sans-Serif" font-size="10.00">+ PartitionLabelVector()</text>
<text text-anchor="start" x="84" y="-84.5" font-family="Helvetica,sans-Serif" font-size="10.00">+ ~PartitionLabelVector()</text>
<text text-anchor="start" x="84" y="-73.5" font-family="Helvetica,sans-Serif" font-size="10.00">+ begin()</text>
<text text-anchor="start" x="84" y="-62.5" font-family="Helvetica,sans-Serif" font-size="10.00">+ next()</text>
<text text-anchor="start" x="84" y="-51.5" font-family="Helvetica,sans-Serif" font-size="10.00">+ end()</text>
<text text-anchor="start" x="84" y="-40.5" font-family="Helvetica,sans-Serif" font-size="10.00">+ getClusterIdx()</text>
<text text-anchor="start" x="84" y="-29.5" font-family="Helvetica,sans-Serif" font-size="10.00">+ getNumCluster()</text>
<text text-anchor="start" x="84" y="-18.5" font-family="Helvetica,sans-Serif" font-size="10.00">+ getNumInstances()</text>
<text text-anchor="start" x="84" y="-7.5" font-family="Helvetica,sans-Serif" font-size="10.00">+ print()</text>
</g>
<!-- Node3 -->
<g id="node2" class="node"><title>Node3</title>
<g id="a_node2"><a xlink:href="classpartition_1_1_partition.html" target="_top" xlink:title="Definition of the abstract class Partition, to build a cluster of a dataset. ">
<polygon fill="white" stroke="black" points="0,-215.5 0,-393.5 110,-393.5 110,-215.5 0,-215.5"/>
<text text-anchor="start" x="8" y="-381.5" font-family="Helvetica,sans-Serif" font-size="10.00">partition::Partition</text>
<text text-anchor="middle" x="55" y="-370.5" font-family="Helvetica,sans-Serif" font-size="10.00">&lt; T_CLUSTERIDX &gt;</text>
<polyline fill="none" stroke="black" points="0,-363.5 110,-363.5 "/>
<text text-anchor="middle" x="55" y="-351.5" font-family="Helvetica,sans-Serif" font-size="10.00"> </text>
<polyline fill="none" stroke="black" points="0,-344.5 110,-344.5 "/>
<text text-anchor="start" x="8" y="-332.5" font-family="Helvetica,sans-Serif" font-size="10.00">+ Partition()</text>
<text text-anchor="start" x="8" y="-321.5" font-family="Helvetica,sans-Serif" font-size="10.00">+ Partition()</text>
<text text-anchor="start" x="8" y="-310.5" font-family="Helvetica,sans-Serif" font-size="10.00">+ Partition()</text>
<text text-anchor="start" x="8" y="-299.5" font-family="Helvetica,sans-Serif" font-size="10.00">+ ~Partition()</text>
<text text-anchor="start" x="8" y="-288.5" font-family="Helvetica,sans-Serif" font-size="10.00">+ getClusterIdx()</text>
<text text-anchor="start" x="8" y="-277.5" font-family="Helvetica,sans-Serif" font-size="10.00">+ begin()</text>
<text text-anchor="start" x="8" y="-266.5" font-family="Helvetica,sans-Serif" font-size="10.00">+ next()</text>
<text text-anchor="start" x="8" y="-255.5" font-family="Helvetica,sans-Serif" font-size="10.00">+ end()</text>
<text text-anchor="start" x="8" y="-244.5" font-family="Helvetica,sans-Serif" font-size="10.00">+ getNumInstances()</text>
<text text-anchor="start" x="8" y="-233.5" font-family="Helvetica,sans-Serif" font-size="10.00">+ getNumCluster()</text>
<text text-anchor="start" x="8" y="-222.5" font-family="Helvetica,sans-Serif" font-size="10.00">+ print()</text>
</a>
</g>
</g>
<!-- Node3&#45;&gt;Node2 -->
<g id="edge1" class="edge"><title>Node3&#45;&gt;Node2</title>
<path fill="none" stroke="midnightblue" d="M94.731,-205.701C101.388,-189.313 108.213,-172.514 114.623,-156.736"/>
<polygon fill="none" stroke="midnightblue" points="91.3562,-204.709 90.835,-215.291 97.8414,-207.343 91.3562,-204.709"/>
</g>
<!-- Node4 -->
<g id="node3" class="node"><title>Node4</title>
<polygon fill="white" stroke="#bfbfbf" points="264,-276 264,-333 422,-333 422,-276 264,-276"/>
<text text-anchor="middle" x="343" y="-321" font-family="Helvetica,sans-Serif" font-size="10.00">std::vector&lt; T_CLUSTERIDX &gt;</text>
<polyline fill="none" stroke="#bfbfbf" points="264,-314 422,-314 "/>
<text text-anchor="middle" x="343" y="-302" font-family="Helvetica,sans-Serif" font-size="10.00"> </text>
<polyline fill="none" stroke="#bfbfbf" points="264,-295 422,-295 "/>
<text text-anchor="middle" x="343" y="-283" font-family="Helvetica,sans-Serif" font-size="10.00"> </text>
</g>
<!-- Node4&#45;&gt;Node2 -->
<g id="edge2" class="edge"><title>Node4&#45;&gt;Node2</title>
<path fill="none" stroke="#404040" d="M318.448,-275.583C294.385,-248.222 256.447,-205.084 222.274,-166.228"/>
<polygon fill="none" stroke="#404040" points="222.062,-165.986 215.096,-164.122 214.137,-156.975 221.103,-158.839 222.062,-165.986"/>
<text text-anchor="middle" x="312" y="-189" font-family="Helvetica,sans-Serif" font-size="10.00"> #_vectorcidx_idxMemberShip</text>
<text text-anchor="middle" x="312" y="-178" font-family="Helvetica,sans-Serif" font-size="10.00">#_itvec_iteratornext</text>
</g>
<!-- Node5 -->
<g id="node4" class="node"><title>Node5</title>
<polygon fill="white" stroke="#bfbfbf" points="144,-441.5 144,-498.5 236,-498.5 236,-441.5 144,-441.5"/>
<text text-anchor="middle" x="190" y="-486.5" font-family="Helvetica,sans-Serif" font-size="10.00">T_CLUSTERIDX</text>
<polyline fill="none" stroke="#bfbfbf" points="144,-479.5 236,-479.5 "/>
<text text-anchor="middle" x="190" y="-467.5" font-family="Helvetica,sans-Serif" font-size="10.00"> </text>
<polyline fill="none" stroke="#bfbfbf" points="144,-460.5 236,-460.5 "/>
<text text-anchor="middle" x="190" y="-448.5" font-family="Helvetica,sans-Serif" font-size="10.00"> </text>
</g>
<!-- Node5&#45;&gt;Node2 -->
<g id="edge6" class="edge"><title>Node5&#45;&gt;Node2</title>
<path fill="none" stroke="#404040" d="M173.861,-441.497C166.65,-427.722 158.909,-410.499 155,-394 137.344,-319.474 136.329,-232.24 139.023,-168.575"/>
<polygon fill="none" stroke="#404040" points="139.023,-168.556 135.309,-162.375 139.586,-156.569 143.3,-162.75 139.023,-168.556"/>
<text text-anchor="middle" x="205" y="-302" font-family="Helvetica,sans-Serif" font-size="10.00"> #_cidx_numClustersK</text>
</g>
<!-- Node5&#45;&gt;Node4 -->
<g id="edge3" class="edge"><title>Node5&#45;&gt;Node4</title>
<path fill="none" stroke="#404040" d="M215.954,-441.264C241.529,-413.935 280.745,-372.028 308.84,-342.005"/>
<polygon fill="none" stroke="#404040" points="308.975,-341.86 310.154,-334.746 317.174,-333.098 315.995,-340.212 308.975,-341.86"/>
<text text-anchor="middle" x="264.5" y="-415" font-family="Helvetica,sans-Serif" font-size="10.00"> +elements</text>
</g>
<!-- Node6 -->
<g id="node5" class="node"><title>Node6</title>
<g id="a_node5"><a xlink:title="STL class. ">
<polygon fill="white" stroke="#bfbfbf" points="298.5,-441.5 298.5,-498.5 387.5,-498.5 387.5,-441.5 298.5,-441.5"/>
<text text-anchor="middle" x="343" y="-486.5" font-family="Helvetica,sans-Serif" font-size="10.00">std::vector&lt; T &gt;</text>
<polyline fill="none" stroke="#bfbfbf" points="298.5,-479.5 387.5,-479.5 "/>
<text text-anchor="middle" x="343" y="-467.5" font-family="Helvetica,sans-Serif" font-size="10.00"> </text>
<polyline fill="none" stroke="#bfbfbf" points="298.5,-460.5 387.5,-460.5 "/>
<text text-anchor="middle" x="343" y="-448.5" font-family="Helvetica,sans-Serif" font-size="10.00"> </text>
</a>
</g>
</g>
<!-- Node6&#45;&gt;Node4 -->
<g id="edge4" class="edge"><title>Node6&#45;&gt;Node4</title>
<path fill="none" stroke="orange" d="M343,-431.172C343,-401.2 343,-360.026 343,-333.098"/>
<polygon fill="orange" stroke="orange" points="339.5,-431.264 343,-441.264 346.5,-431.264 339.5,-431.264"/>
<text text-anchor="middle" x="391.5" y="-415" font-family="Helvetica,sans-Serif" font-size="10.00"> &lt; T_CLUSTERIDX &gt;</text>
</g>
<!-- Node7 -->
<g id="node6" class="node"><title>Node7</title>
<polygon fill="white" stroke="#bfbfbf" points="328.5,-546.5 328.5,-603.5 357.5,-603.5 357.5,-546.5 328.5,-546.5"/>
<text text-anchor="middle" x="343" y="-591.5" font-family="Helvetica,sans-Serif" font-size="10.00">T</text>
<polyline fill="none" stroke="#bfbfbf" points="328.5,-584.5 357.5,-584.5 "/>
<text text-anchor="middle" x="343" y="-572.5" font-family="Helvetica,sans-Serif" font-size="10.00"> </text>
<polyline fill="none" stroke="#bfbfbf" points="328.5,-565.5 357.5,-565.5 "/>
<text text-anchor="middle" x="343" y="-553.5" font-family="Helvetica,sans-Serif" font-size="10.00"> </text>
</g>
<!-- Node7&#45;&gt;Node6 -->
<g id="edge5" class="edge"><title>Node7&#45;&gt;Node6</title>
<path fill="none" stroke="#404040" d="M343,-546.398C343,-535.545 343,-522.873 343,-511.049"/>
<polygon fill="none" stroke="#404040" points="343,-510.678 339,-504.678 343,-498.678 347,-504.678 343,-510.678"/>
<text text-anchor="middle" x="368.5" y="-520" font-family="Helvetica,sans-Serif" font-size="10.00"> +elements</text>
</g>
</g>
</svg>
