<?xml version="1.0" encoding="UTF-8" standalone="no"?>
<!DOCTYPE svg PUBLIC "-//W3C//DTD SVG 1.1//EN"
 "http://www.w3.org/Graphics/SVG/1.1/DTD/svg11.dtd">
<!-- Generated by graphviz version 2.38.0 (20140413.2041)
 -->
<!-- Title: gafuncobj::GAFunctionObjective&lt; T_GENE, T_METRIC &gt; Pages: 1 -->
<svg width="231pt" height="486pt"
 viewBox="0.00 0.00 231.00 486.00" xmlns="http://www.w3.org/2000/svg" xmlns:xlink="http://www.w3.org/1999/xlink">
<g id="graph0" class="graph" transform="scale(1 1) rotate(0) translate(4 482)">
<title>gafuncobj::GAFunctionObjective&lt; T_GENE, T_METRIC &gt;</title>
<polygon fill="white" stroke="none" points="-4,4 -4,-482 227,-482 227,4 -4,4"/>
<!-- Node0 -->
<g id="node1" class="node"><title>Node0</title>
<g id="a_node1"><a xlink:title="Definition of the abstract class GAFunctionObjective. It is used to evaluate an objective function,...">
<polygon fill="#bfbfbf" stroke="black" points="5.5,-376.5 5.5,-477.5 166.5,-477.5 166.5,-376.5 5.5,-376.5"/>
<text text-anchor="start" x="13.5" y="-465.5" font-family="Helvetica,sans-Serif" font-size="10.00">gafuncobj::GAFunctionObjective</text>
<text text-anchor="middle" x="86" y="-454.5" font-family="Helvetica,sans-Serif" font-size="10.00">&lt; T_GENE, T_METRIC &gt;</text>
<polyline fill="none" stroke="black" points="5.5,-447.5 166.5,-447.5 "/>
<text text-anchor="middle" x="86" y="-435.5" font-family="Helvetica,sans-Serif" font-size="10.00"> </text>
<polyline fill="none" stroke="black" points="5.5,-428.5 166.5,-428.5 "/>
<text text-anchor="start" x="13.5" y="-416.5" font-family="Helvetica,sans-Serif" font-size="10.00">+ GAFunctionObjective()</text>
<text text-anchor="start" x="13.5" y="-405.5" font-family="Helvetica,sans-Serif" font-size="10.00">+ ~GAFunctionObjective()</text>
<text text-anchor="start" x="13.5" y="-394.5" font-family="Helvetica,sans-Serif" font-size="10.00">+ getObjetiveFunc()</text>
<text text-anchor="start" x="13.5" y="-383.5" font-family="Helvetica,sans-Serif" font-size="10.00">+ getFitness()</text>
</a>
</g>
</g>
<!-- Node1 -->
<g id="node2" class="node"><title>Node1</title>
<g id="a_node2"><a xlink:href="classgafuncobj_1_1_g_a_function_objective.html" target="_top" xlink:title=" ">
<polygon fill="white" stroke="black" points="5.5,-227.5 5.5,-328.5 166.5,-328.5 166.5,-227.5 5.5,-227.5"/>
<text text-anchor="start" x="13.5" y="-316.5" font-family="Helvetica,sans-Serif" font-size="10.00">gafuncobj::GAFunctionObjective</text>
<text text-anchor="middle" x="86" y="-305.5" font-family="Helvetica,sans-Serif" font-size="10.00">&lt; T_FEATURE, T_METRIC &gt;</text>
<polyline fill="none" stroke="black" points="5.5,-298.5 166.5,-298.5 "/>
<text text-anchor="middle" x="86" y="-286.5" font-family="Helvetica,sans-Serif" font-size="10.00"> </text>
<polyline fill="none" stroke="black" points="5.5,-279.5 166.5,-279.5 "/>
<text text-anchor="start" x="13.5" y="-267.5" font-family="Helvetica,sans-Serif" font-size="10.00">+ GAFunctionObjective()</text>
<text text-anchor="start" x="13.5" y="-256.5" font-family="Helvetica,sans-Serif" font-size="10.00">+ ~GAFunctionObjective()</text>
<text text-anchor="start" x="13.5" y="-245.5" font-family="Helvetica,sans-Serif" font-size="10.00">+ getObjetiveFunc()</text>
<text text-anchor="start" x="13.5" y="-234.5" font-family="Helvetica,sans-Serif" font-size="10.00">+ getFitness()</text>
</a>
</g>
</g>
<!-- Node0&#45;&gt;Node1 -->
<g id="edge1" class="edge"><title>Node0&#45;&gt;Node1</title>
<path fill="none" stroke="orange" d="M86,-365.986C86,-353.601 86,-340.687 86,-328.716"/>
<polygon fill="orange" stroke="orange" points="82.5001,-366.232 86,-376.233 89.5001,-366.233 82.5001,-366.232"/>
<text text-anchor="middle" x="154.5" y="-350" font-family="Helvetica,sans-Serif" font-size="10.00"> &lt; T_FEATURE, T_METRIC &gt;</text>
</g>
<!-- Node2 -->
<g id="node3" class="node"><title>Node2</title>
<g id="a_node3"><a xlink:href="classgafuncobj_1_1_g_a_func_obj_s_s_e.html" target="_top" xlink:title="Definition of the class GAFuncObjSSE. .">
<polygon fill="white" stroke="black" points="0,-0.5 0,-189.5 172,-189.5 172,-0.5 0,-0.5"/>
<text text-anchor="start" x="8" y="-177.5" font-family="Helvetica,sans-Serif" font-size="10.00">gafuncobj::GAFuncObjSSE</text>
<text text-anchor="start" x="8" y="-166.5" font-family="Helvetica,sans-Serif" font-size="10.00">&lt; T_FEATURE, T_CLUSTERIDX,</text>
<text text-anchor="middle" x="86" y="-155.5" font-family="Helvetica,sans-Serif" font-size="10.00"> T_METRIC, INPUT_ITERATOR &gt;</text>
<polyline fill="none" stroke="black" points="0,-148.5 172,-148.5 "/>
<text text-anchor="start" x="8" y="-136.5" font-family="Helvetica,sans-Serif" font-size="10.00"># _cidx_numClustersK</text>
<text text-anchor="start" x="8" y="-125.5" font-family="Helvetica,sans-Serif" font-size="10.00"># _iterator_instfirst</text>
<text text-anchor="start" x="8" y="-114.5" font-family="Helvetica,sans-Serif" font-size="10.00"># _iterator_instlast</text>
<text text-anchor="start" x="8" y="-103.5" font-family="Helvetica,sans-Serif" font-size="10.00"># _func2p_dist</text>
<polyline fill="none" stroke="black" points="0,-96.5 172,-96.5 "/>
<text text-anchor="start" x="8" y="-84.5" font-family="Helvetica,sans-Serif" font-size="10.00">+ GAFuncObjSSE()</text>
<text text-anchor="start" x="8" y="-73.5" font-family="Helvetica,sans-Serif" font-size="10.00">+ ~GAFuncObjSSE()</text>
<text text-anchor="start" x="8" y="-62.5" font-family="Helvetica,sans-Serif" font-size="10.00">+ GAFuncObjSSE()</text>
<text text-anchor="start" x="8" y="-51.5" font-family="Helvetica,sans-Serif" font-size="10.00">+ GAFuncObjSSE()</text>
<text text-anchor="start" x="8" y="-40.5" font-family="Helvetica,sans-Serif" font-size="10.00">+ operator=()</text>
<text text-anchor="start" x="8" y="-29.5" font-family="Helvetica,sans-Serif" font-size="10.00">+ operator=()</text>
<text text-anchor="start" x="8" y="-18.5" font-family="Helvetica,sans-Serif" font-size="10.00">+ getObjetiveFunc()</text>
<text text-anchor="start" x="8" y="-7.5" font-family="Helvetica,sans-Serif" font-size="10.00">+ getFitness()</text>
</a>
</g>
</g>
<!-- Node1&#45;&gt;Node2 -->
<g id="edge2" class="edge"><title>Node1&#45;&gt;Node2</title>
<path fill="none" stroke="midnightblue" d="M86,-216.926C86,-208.1 86,-198.837 86,-189.532"/>
<polygon fill="none" stroke="midnightblue" points="82.5001,-217.062 86,-227.062 89.5001,-217.062 82.5001,-217.062"/>
</g>
</g>
</svg>
