<?xml version="1.0" encoding="UTF-8" standalone="no"?>
<!DOCTYPE svg PUBLIC "-//W3C//DTD SVG 1.1//EN"
 "http://www.w3.org/Graphics/SVG/1.1/DTD/svg11.dtd">
<!-- Generated by graphviz version 2.38.0 (20140413.2041)
 -->
<!-- Title: inout::OutParamGAMedoid&lt; T_METRIC, T_CLUSTERIDX &gt; Pages: 1 -->
<!--zoomable 1056 -->
<svg id="main" version="1.1" xmlns="http://www.w3.org/2000/svg" xmlns:xlink="http://www.w3.org/1999/xlink" xml:space="preserve" onload="init(evt)">
<style type="text/css"><![CDATA[
.edge:hover path { stroke: red; }
.edge:hover polygon { stroke: red; fill: red; }
]]></style>
<script type="text/javascript"><![CDATA[
var edges = document.getElementsByTagName('g');
if (edges && edges.length) {
  for (var i=0;i<edges.length;i++) {
    if (edges[i].id.substr(0,4)=='edge') {
      edges[i].setAttribute('class','edge');
    }
  }
}
]]></script>
        <defs>
                <circle id="rim" cx="0" cy="0" r="7"/>
                <circle id="rim2" cx="0" cy="0" r="3.5"/>
                <g id="zoomPlus">
                        <use xlink:href="#rim" fill="#404040">
                                <set attributeName="fill" to="#808080" begin="zoomplus.mouseover" end="zoomplus.mouseout"/>
                        </use>
                        <path d="M-4,0h8M0,-4v8" fill="none" stroke="white" stroke-width="1.5" pointer-events="none"/>
                </g>
                <g id="zoomMin">
                        <use xlink:href="#rim" fill="#404040">
                                <set attributeName="fill" to="#808080" begin="zoomminus.mouseover" end="zoomminus.mouseout"/>
                        </use>
                        <path d="M-4,0h8" fill="none" stroke="white" stroke-width="1.5" pointer-events="none"/>
                </g>
                <g id="dirArrow">
                        <path fill="none" stroke="white" stroke-width="1.5" d="M0,-3.0v7 M-2.5,-0.5L0,-3.0L2.5,-0.5"/>
                </g>
               <g id="resetDef">
                       <use xlink:href="#rim2" fill="#404040">
                               <set attributeName="fill" to="#808080" begin="reset.mouseover" end="reset.mouseout"/>
                       </use>
               </g>
        </defs>

<script type="text/javascript">
var viewWidth = 772;
var viewHeight = 1056;
var sectionId = 'dynsection-1';
</script>
<script xlink:href="svgpan.js"/>
<svg id="graph" class="graph">
<g id="viewport">
<title>inout::OutParamGAMedoid&lt; T_METRIC, T_CLUSTERIDX &gt;</title>
<polygon fill="white" stroke="none" points="-4,4 -4,-1052 767.5,-1052 767.5,4 -4,4"/>
<!-- Node4 -->
<g id="node1" class="node"><title>Node4</title>
<g id="a_node1"><a xlink:title=" ">
<polygon fill="#bfbfbf" stroke="black" points="0,-0.5 0,-112.5 167,-112.5 167,-0.5 0,-0.5"/>
<text text-anchor="start" x="8" y="-100.5" font-family="Helvetica,sans-Serif" font-size="10.00">inout::OutParamGAMedoid</text>
<text text-anchor="middle" x="83.5" y="-89.5" font-family="Helvetica,sans-Serif" font-size="10.00">&lt; T_METRIC, T_CLUSTERIDX &gt;</text>
<polyline fill="none" stroke="black" points="0,-82.5 167,-82.5 "/>
<text text-anchor="middle" x="83.5" y="-70.5" font-family="Helvetica,sans-Serif" font-size="10.00"> </text>
<polyline fill="none" stroke="black" points="0,-63.5 167,-63.5 "/>
<text text-anchor="start" x="8" y="-51.5" font-family="Helvetica,sans-Serif" font-size="10.00">+ OutParamGAMedoid()</text>
<text text-anchor="start" x="8" y="-40.5" font-family="Helvetica,sans-Serif" font-size="10.00">+ ~OutParamGAMedoid()</text>
<text text-anchor="start" x="8" y="-29.5" font-family="Helvetica,sans-Serif" font-size="10.00">+ setStringMedoid()</text>
<text text-anchor="start" x="8" y="-18.5" font-family="Helvetica,sans-Serif" font-size="10.00">+ getStringMedoid()</text>
<text text-anchor="start" x="8" y="-7.5" font-family="Helvetica,sans-Serif" font-size="10.00">+ print()</text>
</a>
</g>
</g>
<!-- Node5 -->
<g id="node2" class="node"><title>Node5</title>
<g id="a_node2"><a xlink:href="classinout_1_1_out_param_g_a_c.html" target="_top" xlink:title="Output Output parameters of the evolutionary algorithm.">
<polygon fill="white" stroke="black" points="77,-150.5 77,-306.5 244,-306.5 244,-150.5 77,-150.5"/>
<text text-anchor="start" x="85" y="-294.5" font-family="Helvetica,sans-Serif" font-size="10.00">inout::OutParamGAC</text>
<text text-anchor="middle" x="160.5" y="-283.5" font-family="Helvetica,sans-Serif" font-size="10.00">&lt; T_METRIC, T_CLUSTERIDX &gt;</text>
<polyline fill="none" stroke="black" points="77,-276.5 244,-276.5 "/>
<text text-anchor="start" x="85" y="-264.5" font-family="Helvetica,sans-Serif" font-size="10.00"># t_numTotalGenerations</text>
<polyline fill="none" stroke="black" points="77,-257.5 244,-257.5 "/>
<text text-anchor="start" x="85" y="-245.5" font-family="Helvetica,sans-Serif" font-size="10.00">+ OutParamGAC()</text>
<text text-anchor="start" x="85" y="-234.5" font-family="Helvetica,sans-Serif" font-size="10.00">+ ~OutParamGAC()</text>
<text text-anchor="start" x="85" y="-223.5" font-family="Helvetica,sans-Serif" font-size="10.00">+ initialize()</text>
<text text-anchor="start" x="85" y="-212.5" font-family="Helvetica,sans-Serif" font-size="10.00">+ getFitness()</text>
<text text-anchor="start" x="85" y="-201.5" font-family="Helvetica,sans-Serif" font-size="10.00">+ setFitness()</text>
<text text-anchor="start" x="85" y="-190.5" font-family="Helvetica,sans-Serif" font-size="10.00">+ incNumGenerations()</text>
<text text-anchor="start" x="85" y="-179.5" font-family="Helvetica,sans-Serif" font-size="10.00">+ setNumTotalGenerations()</text>
<text text-anchor="start" x="85" y="-168.5" font-family="Helvetica,sans-Serif" font-size="10.00">+ getNumTotalGenerations()</text>
<text text-anchor="start" x="85" y="-157.5" font-family="Helvetica,sans-Serif" font-size="10.00">+ print()</text>
</a>
</g>
</g>
<!-- Node5&#45;&gt;Node4 -->
<g id="edge1" class="edge"><title>Node5&#45;&gt;Node4</title>
<path fill="none" stroke="midnightblue" d="M121.43,-141.241C117.071,-131.618 112.722,-122.016 108.606,-112.929"/>
<polygon fill="none" stroke="midnightblue" points="118.29,-142.793 125.605,-150.458 124.667,-139.905 118.29,-142.793"/>
</g>
<!-- Node6 -->
<g id="node3" class="node"><title>Node6</title>
<g id="a_node3"><a xlink:href="classinout_1_1_out_param_clustering.html" target="_top" xlink:title="Output parameters for a generic clustering algorithm.">
<polygon fill="white" stroke="black" points="221,-344.5 221,-555.5 388,-555.5 388,-344.5 221,-344.5"/>
<text text-anchor="start" x="229" y="-543.5" font-family="Helvetica,sans-Serif" font-size="10.00">inout::OutParamClustering</text>
<text text-anchor="middle" x="304.5" y="-532.5" font-family="Helvetica,sans-Serif" font-size="10.00">&lt; T_METRIC, T_CLUSTERIDX &gt;</text>
<polyline fill="none" stroke="black" points="221,-525.5 388,-525.5 "/>
<text text-anchor="start" x="229" y="-513.5" font-family="Helvetica,sans-Serif" font-size="10.00"># _enum_usedObjectiveFunc</text>
<text text-anchor="start" x="229" y="-502.5" font-family="Helvetica,sans-Serif" font-size="10.00"># _it_iterationGetsBest</text>
<text text-anchor="start" x="229" y="-491.5" font-family="Helvetica,sans-Serif" font-size="10.00"># et_runTimeGetsBest</text>
<text text-anchor="start" x="229" y="-480.5" font-family="Helvetica,sans-Serif" font-size="10.00"># _l_totalInvalidOffspring</text>
<polyline fill="none" stroke="black" points="221,-473.5 388,-473.5 "/>
<text text-anchor="start" x="229" y="-461.5" font-family="Helvetica,sans-Serif" font-size="10.00">+ OutParamClustering()</text>
<text text-anchor="start" x="229" y="-450.5" font-family="Helvetica,sans-Serif" font-size="10.00">+ ~OutParamClustering()</text>
<text text-anchor="start" x="229" y="-439.5" font-family="Helvetica,sans-Serif" font-size="10.00">+ initialize()</text>
<text text-anchor="start" x="229" y="-428.5" font-family="Helvetica,sans-Serif" font-size="10.00">+ setRunTimeGetsBest()</text>
<text text-anchor="start" x="229" y="-417.5" font-family="Helvetica,sans-Serif" font-size="10.00">+ setIterationGetsBest()</text>
<text text-anchor="start" x="229" y="-406.5" font-family="Helvetica,sans-Serif" font-size="10.00">+ getRunTimeGetsBest()</text>
<text text-anchor="start" x="229" y="-395.5" font-family="Helvetica,sans-Serif" font-size="10.00">+ getIterationGetsBest()</text>
<text text-anchor="start" x="229" y="-384.5" font-family="Helvetica,sans-Serif" font-size="10.00">+ setTotalInvalidOffspring()</text>
<text text-anchor="start" x="229" y="-373.5" font-family="Helvetica,sans-Serif" font-size="10.00">+ incTotalInvalidOffspring()</text>
<text text-anchor="start" x="229" y="-362.5" font-family="Helvetica,sans-Serif" font-size="10.00">+ sumTotalInvalidOffspring()</text>
<text text-anchor="start" x="229" y="-351.5" font-family="Helvetica,sans-Serif" font-size="10.00">and 13 more...</text>
</a>
</g>
</g>
<!-- Node6&#45;&gt;Node5 -->
<g id="edge2" class="edge"><title>Node6&#45;&gt;Node5</title>
<path fill="none" stroke="midnightblue" d="M230.208,-335.756C223.761,-325.929 217.339,-316.14 211.149,-306.704"/>
<polygon fill="none" stroke="midnightblue" points="227.462,-337.951 235.874,-344.393 233.315,-334.112 227.462,-337.951"/>
</g>
<!-- Node7 -->
<g id="node4" class="node"><title>Node7</title>
<g id="a_node4"><a xlink:href="classinout_1_1_out_param_algorithm.html" target="_top" xlink:title="Output parameters for genetic algorithm.">
<polygon fill="white" stroke="black" points="619.5,-614.5 619.5,-836.5 763.5,-836.5 763.5,-614.5 619.5,-614.5"/>
<text text-anchor="middle" x="691.5" y="-824.5" font-family="Helvetica,sans-Serif" font-size="10.00">inout::OutParamAlgorithm</text>
<polyline fill="none" stroke="black" points="619.5,-817.5 763.5,-817.5 "/>
<text text-anchor="start" x="627.5" y="-805.5" font-family="Helvetica,sans-Serif" font-size="10.00"># i_numRunAlgorithm</text>
<text text-anchor="start" x="627.5" y="-794.5" font-family="Helvetica,sans-Serif" font-size="10.00"># et_algorithmRunTime</text>
<text text-anchor="start" x="627.5" y="-783.5" font-family="Helvetica,sans-Serif" font-size="10.00"># _b_endingCondition</text>
<text text-anchor="start" x="627.5" y="-772.5" font-family="Helvetica,sans-Serif" font-size="10.00"># _b_endingConditionTest</text>
<polyline fill="none" stroke="black" points="619.5,-765.5 763.5,-765.5 "/>
<text text-anchor="start" x="627.5" y="-753.5" font-family="Helvetica,sans-Serif" font-size="10.00">+ OutParamAlgorithm()</text>
<text text-anchor="start" x="627.5" y="-742.5" font-family="Helvetica,sans-Serif" font-size="10.00">+ ~OutParamAlgorithm()</text>
<text text-anchor="start" x="627.5" y="-731.5" font-family="Helvetica,sans-Serif" font-size="10.00">+ initialize()</text>
<text text-anchor="start" x="627.5" y="-720.5" font-family="Helvetica,sans-Serif" font-size="10.00">+ setAlgorithmRunTime()</text>
<text text-anchor="start" x="627.5" y="-709.5" font-family="Helvetica,sans-Serif" font-size="10.00">+ getAlgorithmRunTime()</text>
<text text-anchor="start" x="627.5" y="-698.5" font-family="Helvetica,sans-Serif" font-size="10.00">+ getNumRunningAlgorithm()</text>
<text text-anchor="start" x="627.5" y="-687.5" font-family="Helvetica,sans-Serif" font-size="10.00">+ setEndingCondition()</text>
<text text-anchor="start" x="627.5" y="-676.5" font-family="Helvetica,sans-Serif" font-size="10.00">+ setEndingConditionTest()</text>
<text text-anchor="start" x="627.5" y="-665.5" font-family="Helvetica,sans-Serif" font-size="10.00">+ setRuntimeMessage()</text>
<text text-anchor="start" x="627.5" y="-654.5" font-family="Helvetica,sans-Serif" font-size="10.00">+ getEndingCondition()</text>
<text text-anchor="start" x="627.5" y="-643.5" font-family="Helvetica,sans-Serif" font-size="10.00">+ getEndingConditionTest()</text>
<text text-anchor="start" x="627.5" y="-632.5" font-family="Helvetica,sans-Serif" font-size="10.00">+ getRuntimeMessage()</text>
<text text-anchor="start" x="627.5" y="-621.5" font-family="Helvetica,sans-Serif" font-size="10.00">+ print()</text>
</a>
</g>
</g>
<!-- Node7&#45;&gt;Node6 -->
<g id="edge3" class="edge"><title>Node7&#45;&gt;Node6</title>
<path fill="none" stroke="midnightblue" d="M612.089,-619.821C609.915,-617.822 607.717,-615.878 605.5,-614 539.754,-558.299 451.92,-513.403 388.112,-484.943"/>
<polygon fill="none" stroke="midnightblue" points="609.75,-622.427 619.393,-626.816 614.592,-617.372 609.75,-622.427"/>
</g>
<!-- Node8 -->
<g id="node5" class="node"><title>Node8</title>
<g id="a_node5"><a xlink:title="STL class.">
<polygon fill="white" stroke="#bfbfbf" points="404.5,-884.5 404.5,-941.5 464.5,-941.5 464.5,-884.5 404.5,-884.5"/>
<text text-anchor="middle" x="434.5" y="-929.5" font-family="Helvetica,sans-Serif" font-size="10.00">std::string</text>
<polyline fill="none" stroke="#bfbfbf" points="404.5,-922.5 464.5,-922.5 "/>
<text text-anchor="middle" x="434.5" y="-910.5" font-family="Helvetica,sans-Serif" font-size="10.00"> </text>
<polyline fill="none" stroke="#bfbfbf" points="404.5,-903.5 464.5,-903.5 "/>
<text text-anchor="middle" x="434.5" y="-891.5" font-family="Helvetica,sans-Serif" font-size="10.00"> </text>
</a>
</g>
</g>
<!-- Node8&#45;&gt;Node4 -->
<g id="edge10" class="edge"><title>Node8&#45;&gt;Node4</title>
<path fill="none" stroke="#404040" d="M404.29,-911.384C313.53,-907.783 49.5,-883.792 49.5,-726.5 49.5,-726.5 49.5,-726.5 49.5,-227.5 49.5,-193.223 56.2285,-155.8 63.699,-124.814"/>
<polygon fill="none" stroke="#404040" points="63.7833,-124.477 61.3611,-117.685 66.6992,-112.837 69.1214,-119.629 63.7833,-124.477"/>
<text text-anchor="middle" x="81.5" y="-447.5" font-family="Helvetica,sans-Serif" font-size="10.00"> #_str_medoid</text>
</g>
<!-- Node8&#45;&gt;Node6 -->
<g id="edge8" class="edge"><title>Node8&#45;&gt;Node6</title>
<path fill="none" stroke="#404040" d="M435.805,-884.48C438.753,-814.19 443.959,-629.679 420.5,-574 414.37,-559.45 405.694,-545.584 395.814,-532.758"/>
<polygon fill="none" stroke="#404040" points="395.594,-532.486 388.711,-530.338 388.046,-523.157 394.93,-525.306 395.594,-532.486"/>
<text text-anchor="middle" x="522" y="-723" font-family="Helvetica,sans-Serif" font-size="10.00"> #s_fileNameOutPlotStatObjetiveFunc</text>
</g>
<!-- Node8&#45;&gt;Node7 -->
<g id="edge4" class="edge"><title>Node8&#45;&gt;Node7</title>
<path fill="none" stroke="#404040" d="M464.704,-903.755C500.873,-892.816 562.011,-870.849 605.5,-837 606.969,-835.857 608.427,-834.683 609.873,-833.482"/>
<polygon fill="none" stroke="#404040" points="610.259,-833.14 612.099,-826.167 619.243,-825.183 617.403,-832.156 610.259,-833.14"/>
<text text-anchor="middle" x="625.5" y="-858" font-family="Helvetica,sans-Serif" font-size="10.00"> #_s_runtimeMessage</text>
</g>
<!-- Node9 -->
<g id="node6" class="node"><title>Node9</title>
<g id="a_node6"><a xlink:title="STL class.">
<polygon fill="white" stroke="#bfbfbf" points="387,-979.5 387,-1047.5 482,-1047.5 482,-979.5 387,-979.5"/>
<text text-anchor="start" x="395" y="-1035.5" font-family="Helvetica,sans-Serif" font-size="10.00">std::basic_string&lt;</text>
<text text-anchor="middle" x="434.5" y="-1024.5" font-family="Helvetica,sans-Serif" font-size="10.00"> char &gt;</text>
<polyline fill="none" stroke="#bfbfbf" points="387,-1017.5 482,-1017.5 "/>
<text text-anchor="middle" x="434.5" y="-1005.5" font-family="Helvetica,sans-Serif" font-size="10.00"> </text>
<polyline fill="none" stroke="#bfbfbf" points="387,-998.5 482,-998.5 "/>
<text text-anchor="middle" x="434.5" y="-986.5" font-family="Helvetica,sans-Serif" font-size="10.00"> </text>
</a>
</g>
</g>
<!-- Node9&#45;&gt;Node8 -->
<g id="edge5" class="edge"><title>Node9&#45;&gt;Node8</title>
<path fill="none" stroke="midnightblue" d="M434.5,-969.375C434.5,-959.94 434.5,-950.201 434.5,-941.571"/>
<polygon fill="none" stroke="midnightblue" points="431,-969.427 434.5,-979.427 438,-969.427 431,-969.427"/>
</g>
<!-- Node10 -->
<g id="node7" class="node"><title>Node10</title>
<g id="a_node7"><a xlink:title=" ">
<polygon fill="white" stroke="#bfbfbf" points="132.5,-697 132.5,-754 200.5,-754 200.5,-697 132.5,-697"/>
<text text-anchor="middle" x="166.5" y="-742" font-family="Helvetica,sans-Serif" font-size="10.00">T_METRIC</text>
<polyline fill="none" stroke="#bfbfbf" points="132.5,-735 200.5,-735 "/>
<text text-anchor="middle" x="166.5" y="-723" font-family="Helvetica,sans-Serif" font-size="10.00"> </text>
<polyline fill="none" stroke="#bfbfbf" points="132.5,-716 200.5,-716 "/>
<text text-anchor="middle" x="166.5" y="-704" font-family="Helvetica,sans-Serif" font-size="10.00"> </text>
</a>
</g>
</g>
<!-- Node10&#45;&gt;Node5 -->
<g id="edge9" class="edge"><title>Node10&#45;&gt;Node5</title>
<path fill="none" stroke="#404040" d="M166.165,-696.826C165.301,-625.615 162.974,-433.618 161.586,-319.087"/>
<polygon fill="none" stroke="#404040" points="161.584,-318.885 157.511,-312.934 161.438,-306.886 165.51,-312.837 161.584,-318.885"/>
<text text-anchor="middle" x="187" y="-447.5" font-family="Helvetica,sans-Serif" font-size="10.00"> #t_fitness</text>
</g>
<!-- Node10&#45;&gt;Node6 -->
<g id="edge6" class="edge"><title>Node10&#45;&gt;Node6</title>
<path fill="none" stroke="#404040" d="M169.03,-696.832C172.751,-665.608 181.559,-613.966 201.5,-574 205.176,-566.632 209.377,-559.326 213.932,-552.165"/>
<polygon fill="none" stroke="#404040" points="214.19,-551.777 214.185,-544.566 220.839,-541.788 220.845,-548.999 214.19,-551.777"/>
<text text-anchor="middle" x="251" y="-582.5" font-family="Helvetica,sans-Serif" font-size="10.00"> #_rt_objetiveFuncRun</text>
</g>
<!-- Node11 -->
<g id="node8" class="node"><title>Node11</title>
<g id="a_node8"><a xlink:title=" ">
<polygon fill="white" stroke="#bfbfbf" points="258.5,-697 258.5,-754 350.5,-754 350.5,-697 258.5,-697"/>
<text text-anchor="middle" x="304.5" y="-742" font-family="Helvetica,sans-Serif" font-size="10.00">T_CLUSTERIDX</text>
<polyline fill="none" stroke="#bfbfbf" points="258.5,-735 350.5,-735 "/>
<text text-anchor="middle" x="304.5" y="-723" font-family="Helvetica,sans-Serif" font-size="10.00"> </text>
<polyline fill="none" stroke="#bfbfbf" points="258.5,-716 350.5,-716 "/>
<text text-anchor="middle" x="304.5" y="-704" font-family="Helvetica,sans-Serif" font-size="10.00"> </text>
</a>
</g>
</g>
<!-- Node11&#45;&gt;Node6 -->
<g id="edge7" class="edge"><title>Node11&#45;&gt;Node6</title>
<path fill="none" stroke="#404040" d="M304.5,-696.77C304.5,-666.285 304.5,-615.289 304.5,-567.627"/>
<polygon fill="none" stroke="#404040" points="304.5,-567.596 300.5,-561.596 304.5,-555.596 308.5,-561.596 304.5,-567.596"/>
<text text-anchor="middle" x="362" y="-588" font-family="Helvetica,sans-Serif" font-size="10.00"> #_idxK_numClusterK</text>
<text text-anchor="middle" x="362" y="-577" font-family="Helvetica,sans-Serif" font-size="10.00">#_idxK_numClusterKTest</text>
</g>
</g>
</svg>
        <g id="navigator" transform="translate(0 0)" fill="#404254">
                <rect fill="#f2f5e9" fill-opacity="0.5" stroke="#606060" stroke-width=".5" x="0" y="0" width="60" height="60"/>
                <use id="zoomplus" xlink:href="#zoomPlus" x="17" y="9" onmousedown="handleZoom(evt,'in')"/>
                <use id="zoomminus" xlink:href="#zoomMin" x="42" y="9" onmousedown="handleZoom(evt,'out')"/>
                <use id="reset" xlink:href="#resetDef" x="30" y="36" onmousedown="handleReset()"/>
                <g id="arrowUp" xlink:href="#dirArrow" transform="translate(30 24)" onmousedown="handlePan(0,-1)">
                  <use xlink:href="#rim" fill="#404040">
                        <set attributeName="fill" to="#808080" begin="arrowUp.mouseover" end="arrowUp.mouseout"/>
                  </use>
                  <path fill="none" stroke="white" stroke-width="1.5" d="M0,-3.0v7 M-2.5,-0.5L0,-3.0L2.5,-0.5"/>
                </g>
                <g id="arrowRight" xlink:href="#dirArrow" transform="rotate(90) translate(36 -43)" onmousedown="handlePan(1,0)">
                  <use xlink:href="#rim" fill="#404040">
                        <set attributeName="fill" to="#808080" begin="arrowRight.mouseover" end="arrowRight.mouseout"/>
                  </use>
                  <path fill="none" stroke="white" stroke-width="1.5" d="M0,-3.0v7 M-2.5,-0.5L0,-3.0L2.5,-0.5"/>
                </g>
                <g id="arrowDown" xlink:href="#dirArrow" transform="rotate(180) translate(-30 -48)" onmousedown="handlePan(0,1)">
                  <use xlink:href="#rim" fill="#404040">
                        <set attributeName="fill" to="#808080" begin="arrowDown.mouseover" end="arrowDown.mouseout"/>
                  </use>
                  <path fill="none" stroke="white" stroke-width="1.5" d="M0,-3.0v7 M-2.5,-0.5L0,-3.0L2.5,-0.5"/>
                </g>
                <g id="arrowLeft" xlink:href="#dirArrow" transform="rotate(270) translate(-36 17)" onmousedown="handlePan(-1,0)">
                  <use xlink:href="#rim" fill="#404040">
                        <set attributeName="fill" to="#808080" begin="arrowLeft.mouseover" end="arrowLeft.mouseout"/>
                  </use>
                  <path fill="none" stroke="white" stroke-width="1.5" d="M0,-3.0v7 M-2.5,-0.5L0,-3.0L2.5,-0.5"/>
                </g>
        </g>
        <svg viewBox="0 0 15 15" width="100%" height="30px" preserveAspectRatio="xMaxYMin meet">
         <g id="arrow_out" transform="scale(0.3 0.3)">
          <a xlink:href="classinout_1_1_out_param_g_a_medoid__coll__graph_org.svg" target="_base">
           <rect id="button" ry="5" rx="5" y="6" x="6" height="38" width="38"
                fill="#f2f5e9" fill-opacity="0.5" stroke="#606060" stroke-width="1.0"/>
           <path id="arrow"
             d="M 11.500037,31.436501 C 11.940474,20.09759 22.043105,11.32322 32.158766,21.979434 L 37.068811,17.246167 C 37.068811,17.246167 37.088388,32 37.088388,32 L 22.160133,31.978069 C 22.160133,31.978069 26.997745,27.140456 26.997745,27.140456 C 18.528582,18.264221 13.291696,25.230495 11.500037,31.436501 z"
             style="fill:#404040;"/>
          </a>
         </g>
        </svg>
</svg>
