<?xml version="1.0" encoding="UTF-8" standalone="no"?>
<!DOCTYPE svg PUBLIC "-//W3C//DTD SVG 1.1//EN"
 "http://www.w3.org/Graphics/SVG/1.1/DTD/svg11.dtd">
<!-- Generated by graphviz version 2.38.0 (20140413.2041)
 -->
<!-- Title: inout::InParamGenWOChgVk&lt; T_BITSIZE, T_CLUSTERIDX, T_REAL, T_FEATURE, T_FEATURE_SUM, T_INSTANCES_CLUSTER_K &gt; Pages: 1 -->
<svg width="609pt" height="1530pt"
 viewBox="0.00 0.00 608.50 1530.00" xmlns="http://www.w3.org/2000/svg" xmlns:xlink="http://www.w3.org/1999/xlink">
<g id="graph0" class="graph" transform="scale(1 1) rotate(0) translate(4 1526)">
<title>inout::InParamGenWOChgVk&lt; T_BITSIZE, T_CLUSTERIDX, T_REAL, T_FEATURE, T_FEATURE_SUM, T_INSTANCES_CLUSTER_K &gt;</title>
<polygon fill="white" stroke="none" points="-4,4 -4,-1526 604.5,-1526 604.5,4 -4,4"/>
<!-- Node8 -->
<g id="node1" class="node"><title>Node8</title>
<polygon fill="#bfbfbf" stroke="black" points="195.5,-0.5 195.5,-134.5 387.5,-134.5 387.5,-0.5 195.5,-0.5"/>
<text text-anchor="start" x="203.5" y="-122.5" font-family="Helvetica,sans-Serif" font-size="10.00">inout::InParamGenWOChgVk</text>
<text text-anchor="start" x="203.5" y="-111.5" font-family="Helvetica,sans-Serif" font-size="10.00">&lt; T_BITSIZE, T_CLUSTERIDX,</text>
<text text-anchor="start" x="203.5" y="-100.5" font-family="Helvetica,sans-Serif" font-size="10.00"> T_REAL, T_FEATURE, T_FEATURE</text>
<text text-anchor="middle" x="291.5" y="-89.5" font-family="Helvetica,sans-Serif" font-size="10.00">_SUM, T_INSTANCES_CLUSTER_K &gt;</text>
<polyline fill="none" stroke="black" points="195.5,-82.5 387.5,-82.5 "/>
<text text-anchor="start" x="203.5" y="-70.5" font-family="Helvetica,sans-Serif" font-size="10.00"># _it_numNotChangeStop</text>
<polyline fill="none" stroke="black" points="195.5,-63.5 387.5,-63.5 "/>
<text text-anchor="start" x="203.5" y="-51.5" font-family="Helvetica,sans-Serif" font-size="10.00">+ InParamGenWOChgVk()</text>
<text text-anchor="start" x="203.5" y="-40.5" font-family="Helvetica,sans-Serif" font-size="10.00">+ ~InParamGenWOChgVk()</text>
<text text-anchor="start" x="203.5" y="-29.5" font-family="Helvetica,sans-Serif" font-size="10.00">+ setNumNotChangeStop()</text>
<text text-anchor="start" x="203.5" y="-18.5" font-family="Helvetica,sans-Serif" font-size="10.00">+ getNumNotChangeStop()</text>
<text text-anchor="start" x="203.5" y="-7.5" font-family="Helvetica,sans-Serif" font-size="10.00">+ print()</text>
</g>
<!-- Node9 -->
<g id="node2" class="node"><title>Node9</title>
<g id="a_node2"><a xlink:href="classinout_1_1_in_param_pc_pm_vk.html" target="_top" xlink:title="Input parameter for GA with probability Pc, Pm and Variable K. ">
<polygon fill="white" stroke="black" points="205,-172.5 205,-284.5 378,-284.5 378,-172.5 205,-172.5"/>
<text text-anchor="start" x="213" y="-272.5" font-family="Helvetica,sans-Serif" font-size="10.00">inout::InParamPcPmVk</text>
<text text-anchor="start" x="213" y="-261.5" font-family="Helvetica,sans-Serif" font-size="10.00">&lt; T_CLUSTERIDX, T_REAL,</text>
<text text-anchor="start" x="213" y="-250.5" font-family="Helvetica,sans-Serif" font-size="10.00"> T_FEATURE, T_FEATURE_SUM,</text>
<text text-anchor="middle" x="291.5" y="-239.5" font-family="Helvetica,sans-Serif" font-size="10.00"> T_INSTANCES_CLUSTER_K &gt;</text>
<polyline fill="none" stroke="black" points="205,-232.5 378,-232.5 "/>
<text text-anchor="middle" x="291.5" y="-220.5" font-family="Helvetica,sans-Serif" font-size="10.00"> </text>
<polyline fill="none" stroke="black" points="205,-213.5 378,-213.5 "/>
<text text-anchor="start" x="213" y="-201.5" font-family="Helvetica,sans-Serif" font-size="10.00">+ InParamPcPmVk()</text>
<text text-anchor="start" x="213" y="-190.5" font-family="Helvetica,sans-Serif" font-size="10.00">+ ~InParamPcPmVk()</text>
<text text-anchor="start" x="213" y="-179.5" font-family="Helvetica,sans-Serif" font-size="10.00">+ print()</text>
</a>
</g>
</g>
<!-- Node9&#45;&gt;Node8 -->
<g id="edge1" class="edge"><title>Node9&#45;&gt;Node8</title>
<path fill="none" stroke="midnightblue" d="M291.5,-162.166C291.5,-153.039 291.5,-143.653 291.5,-134.513"/>
<polygon fill="none" stroke="midnightblue" points="288,-162.336 291.5,-172.336 295,-162.336 288,-162.336"/>
</g>
<!-- Node10 -->
<g id="node3" class="node"><title>Node10</title>
<g id="a_node3"><a xlink:href="classinout_1_1_in_param_pc_pm.html" target="_top" xlink:title="Input parameter for GA with probability crossover (Pc) and mutation (Pm) ">
<polygon fill="white" stroke="black" points="85.5,-322.5 85.5,-467.5 199.5,-467.5 199.5,-322.5 85.5,-322.5"/>
<text text-anchor="start" x="93.5" y="-455.5" font-family="Helvetica,sans-Serif" font-size="10.00">inout::InParamPcPm</text>
<text text-anchor="middle" x="142.5" y="-444.5" font-family="Helvetica,sans-Serif" font-size="10.00">&lt; T_REAL &gt;</text>
<polyline fill="none" stroke="black" points="85.5,-437.5 199.5,-437.5 "/>
<text text-anchor="start" x="93.5" y="-425.5" font-family="Helvetica,sans-Serif" font-size="10.00"># t_probCrossover</text>
<text text-anchor="start" x="93.5" y="-414.5" font-family="Helvetica,sans-Serif" font-size="10.00"># t_probMutation</text>
<polyline fill="none" stroke="black" points="85.5,-407.5 199.5,-407.5 "/>
<text text-anchor="start" x="93.5" y="-395.5" font-family="Helvetica,sans-Serif" font-size="10.00">+ InParamPcPm()</text>
<text text-anchor="start" x="93.5" y="-384.5" font-family="Helvetica,sans-Serif" font-size="10.00">+ ~InParamPcPm()</text>
<text text-anchor="start" x="93.5" y="-373.5" font-family="Helvetica,sans-Serif" font-size="10.00">+ setProbCrossover()</text>
<text text-anchor="start" x="93.5" y="-362.5" font-family="Helvetica,sans-Serif" font-size="10.00">+ getProbCrossover()</text>
<text text-anchor="start" x="93.5" y="-351.5" font-family="Helvetica,sans-Serif" font-size="10.00">+ setProbMutation()</text>
<text text-anchor="start" x="93.5" y="-340.5" font-family="Helvetica,sans-Serif" font-size="10.00">+ getProbMutation()</text>
<text text-anchor="start" x="93.5" y="-329.5" font-family="Helvetica,sans-Serif" font-size="10.00">+ print()</text>
</a>
</g>
</g>
<!-- Node10&#45;&gt;Node9 -->
<g id="edge2" class="edge"><title>Node10&#45;&gt;Node9</title>
<path fill="none" stroke="midnightblue" d="M206.526,-323.314C218.235,-310.386 230.297,-297.07 241.523,-284.676"/>
<polygon fill="none" stroke="midnightblue" points="203.8,-321.109 199.681,-330.87 208.989,-325.808 203.8,-321.109"/>
</g>
<!-- Node11 -->
<g id="node4" class="node"><title>Node11</title>
<g id="a_node4"><a xlink:href="classinout_1_1_in_param_g_a_clustering.html" target="_top" xlink:title="Input parameter for genetic algorithm. ">
<polygon fill="white" stroke="black" points="72,-526.5 72,-660.5 213,-660.5 213,-526.5 72,-526.5"/>
<text text-anchor="middle" x="142.5" y="-648.5" font-family="Helvetica,sans-Serif" font-size="10.00">inout::InParamGAClustering</text>
<polyline fill="none" stroke="black" points="72,-641.5 213,-641.5 "/>
<text text-anchor="start" x="80" y="-629.5" font-family="Helvetica,sans-Serif" font-size="10.00"># st_sizePopulation</text>
<text text-anchor="start" x="80" y="-618.5" font-family="Helvetica,sans-Serif" font-size="10.00"># t_numMaxGenerations</text>
<polyline fill="none" stroke="black" points="72,-611.5 213,-611.5 "/>
<text text-anchor="start" x="80" y="-599.5" font-family="Helvetica,sans-Serif" font-size="10.00">+ InParamGAClustering()</text>
<text text-anchor="start" x="80" y="-588.5" font-family="Helvetica,sans-Serif" font-size="10.00">+ ~InParamGAClustering()</text>
<text text-anchor="start" x="80" y="-577.5" font-family="Helvetica,sans-Serif" font-size="10.00">+ setNumMaxGenerations()</text>
<text text-anchor="start" x="80" y="-566.5" font-family="Helvetica,sans-Serif" font-size="10.00">+ getNumMaxGenerations()</text>
<text text-anchor="start" x="80" y="-555.5" font-family="Helvetica,sans-Serif" font-size="10.00">+ setSizePopulation()</text>
<text text-anchor="start" x="80" y="-544.5" font-family="Helvetica,sans-Serif" font-size="10.00">+ getSizePopulation()</text>
<text text-anchor="start" x="80" y="-533.5" font-family="Helvetica,sans-Serif" font-size="10.00">+ print()</text>
</a>
</g>
</g>
<!-- Node11&#45;&gt;Node10 -->
<g id="edge3" class="edge"><title>Node11&#45;&gt;Node10</title>
<path fill="none" stroke="midnightblue" d="M142.5,-515.946C142.5,-500.066 142.5,-483.39 142.5,-467.692"/>
<polygon fill="none" stroke="midnightblue" points="139,-516.248 142.5,-526.248 146,-516.248 139,-516.248"/>
</g>
<!-- Node12 -->
<g id="node5" class="node"><title>Node12</title>
<g id="a_node5"><a xlink:href="classinout_1_1_in_param_clustering.html" target="_top" xlink:title="Input parameter for clustering algorithm. ">
<polygon fill="white" stroke="black" points="51.5,-726 51.5,-981 233.5,-981 233.5,-726 51.5,-726"/>
<text text-anchor="middle" x="142.5" y="-969" font-family="Helvetica,sans-Serif" font-size="10.00">inout::InParamClustering</text>
<polyline fill="none" stroke="black" points="51.5,-962 233.5,-962 "/>
<text text-anchor="start" x="59.5" y="-950" font-family="Helvetica,sans-Serif" font-size="10.00"># i_opDistance</text>
<text text-anchor="start" x="59.5" y="-939" font-family="Helvetica,sans-Serif" font-size="10.00"># ps_outFileCentroids</text>
<text text-anchor="start" x="59.5" y="-928" font-family="Helvetica,sans-Serif" font-size="10.00"># ps_outFileMemberShip</text>
<text text-anchor="start" x="59.5" y="-917" font-family="Helvetica,sans-Serif" font-size="10.00"># ps_outFilePartitionsTable</text>
<text text-anchor="start" x="59.5" y="-906" font-family="Helvetica,sans-Serif" font-size="10.00"># ps_outFileGraph</text>
<text text-anchor="start" x="59.5" y="-895" font-family="Helvetica,sans-Serif" font-size="10.00"># ps_fileNamePlotStatObjetiveFunc</text>
<text text-anchor="start" x="59.5" y="-884" font-family="Helvetica,sans-Serif" font-size="10.00"># _rd_maxExecutiontime</text>
<text text-anchor="start" x="59.5" y="-873" font-family="Helvetica,sans-Serif" font-size="10.00"># _b_printCentroidsFormat</text>
<text text-anchor="start" x="59.5" y="-862" font-family="Helvetica,sans-Serif" font-size="10.00"># _b_printTableFormat</text>
<polyline fill="none" stroke="black" points="51.5,-855 233.5,-855 "/>
<text text-anchor="start" x="59.5" y="-843" font-family="Helvetica,sans-Serif" font-size="10.00">+ InParamClustering()</text>
<text text-anchor="start" x="59.5" y="-832" font-family="Helvetica,sans-Serif" font-size="10.00">+ ~InParamClustering()</text>
<text text-anchor="start" x="59.5" y="-821" font-family="Helvetica,sans-Serif" font-size="10.00">+ getFileNamePlotStatObjetiveFunc()</text>
<text text-anchor="start" x="59.5" y="-810" font-family="Helvetica,sans-Serif" font-size="10.00">+ getWithPlotStatObjetiveFunc()</text>
<text text-anchor="start" x="59.5" y="-799" font-family="Helvetica,sans-Serif" font-size="10.00">+ setFileNamePlotStatObjetiveFunc()</text>
<text text-anchor="start" x="59.5" y="-788" font-family="Helvetica,sans-Serif" font-size="10.00">+ setOutFileMemberShip()</text>
<text text-anchor="start" x="59.5" y="-777" font-family="Helvetica,sans-Serif" font-size="10.00">+ getOutFileMemberShip()</text>
<text text-anchor="start" x="59.5" y="-766" font-family="Helvetica,sans-Serif" font-size="10.00">+ setRandomSeed()</text>
<text text-anchor="start" x="59.5" y="-755" font-family="Helvetica,sans-Serif" font-size="10.00">+ setRandomSeed()</text>
<text text-anchor="start" x="59.5" y="-744" font-family="Helvetica,sans-Serif" font-size="10.00">+ getRandomSeed()</text>
<text text-anchor="start" x="59.5" y="-733" font-family="Helvetica,sans-Serif" font-size="10.00">and 15 more...</text>
</a>
</g>
</g>
<!-- Node12&#45;&gt;Node11 -->
<g id="edge4" class="edge"><title>Node12&#45;&gt;Node11</title>
<path fill="none" stroke="midnightblue" d="M142.5,-715.726C142.5,-696.546 142.5,-677.597 142.5,-660.582"/>
<polygon fill="none" stroke="midnightblue" points="139,-715.767 142.5,-725.767 146,-715.768 139,-715.767"/>
</g>
<!-- Node13 -->
<g id="node6" class="node"><title>Node13</title>
<g id="a_node6"><a xlink:href="classinout_1_1_in_param_algorithmo.html" target="_top" xlink:title="Input parameter for define propertys of the algorithmos. ">
<polygon fill="white" stroke="black" points="0,-1067.5 0,-1267.5 135,-1267.5 135,-1067.5 0,-1067.5"/>
<text text-anchor="middle" x="67.5" y="-1255.5" font-family="Helvetica,sans-Serif" font-size="10.00">inout::InParamAlgorithmo</text>
<polyline fill="none" stroke="black" points="0,-1248.5 135,-1248.5 "/>
<text text-anchor="start" x="8" y="-1236.5" font-family="Helvetica,sans-Serif" font-size="10.00"># ato_algTypeOut</text>
<text text-anchor="start" x="8" y="-1225.5" font-family="Helvetica,sans-Serif" font-size="10.00"># ps_fileNameTimesRun</text>
<text text-anchor="start" x="8" y="-1214.5" font-family="Helvetica,sans-Serif" font-size="10.00"># b_progressBarPrinting</text>
<text text-anchor="start" x="8" y="-1203.5" font-family="Helvetica,sans-Serif" font-size="10.00"># i_timesRunAlgorithm</text>
<polyline fill="none" stroke="black" points="0,-1196.5 135,-1196.5 "/>
<text text-anchor="start" x="8" y="-1184.5" font-family="Helvetica,sans-Serif" font-size="10.00">+ InParamAlgorithmo()</text>
<text text-anchor="start" x="8" y="-1173.5" font-family="Helvetica,sans-Serif" font-size="10.00">+ ~InParamAlgorithmo()</text>
<text text-anchor="start" x="8" y="-1162.5" font-family="Helvetica,sans-Serif" font-size="10.00">+ errorArgument()</text>
<text text-anchor="start" x="8" y="-1151.5" font-family="Helvetica,sans-Serif" font-size="10.00">+ isYesNo()</text>
<text text-anchor="start" x="8" y="-1140.5" font-family="Helvetica,sans-Serif" font-size="10.00">+ setFileNameTimesRun()</text>
<text text-anchor="start" x="8" y="-1129.5" font-family="Helvetica,sans-Serif" font-size="10.00">+ setProgressBarPrinting()</text>
<text text-anchor="start" x="8" y="-1118.5" font-family="Helvetica,sans-Serif" font-size="10.00">+ setTimesRunAlgorithm()</text>
<text text-anchor="start" x="8" y="-1107.5" font-family="Helvetica,sans-Serif" font-size="10.00">+ setGnuPlotCoreStyles()</text>
<text text-anchor="start" x="8" y="-1096.5" font-family="Helvetica,sans-Serif" font-size="10.00">+ getAlgorithmoAuthor()</text>
<text text-anchor="start" x="8" y="-1085.5" font-family="Helvetica,sans-Serif" font-size="10.00">+ getAlgorithmoName()</text>
<text text-anchor="start" x="8" y="-1074.5" font-family="Helvetica,sans-Serif" font-size="10.00">and 8 more...</text>
</a>
</g>
</g>
<!-- Node13&#45;&gt;Node12 -->
<g id="edge5" class="edge"><title>Node13&#45;&gt;Node12</title>
<path fill="none" stroke="midnightblue" d="M93.6735,-1057.62C99.6088,-1032.93 105.962,-1006.5 112.057,-981.144"/>
<polygon fill="none" stroke="midnightblue" points="90.2678,-1056.81 91.3335,-1067.35 97.0739,-1058.45 90.2678,-1056.81"/>
</g>
<!-- Node14 -->
<g id="node7" class="node"><title>Node14</title>
<g id="a_node7"><a xlink:title="STL class. ">
<polygon fill="white" stroke="#bfbfbf" points="209.5,-1348.5 209.5,-1405.5 269.5,-1405.5 269.5,-1348.5 209.5,-1348.5"/>
<text text-anchor="middle" x="239.5" y="-1393.5" font-family="Helvetica,sans-Serif" font-size="10.00">std::string</text>
<polyline fill="none" stroke="#bfbfbf" points="209.5,-1386.5 269.5,-1386.5 "/>
<text text-anchor="middle" x="239.5" y="-1374.5" font-family="Helvetica,sans-Serif" font-size="10.00"> </text>
<polyline fill="none" stroke="#bfbfbf" points="209.5,-1367.5 269.5,-1367.5 "/>
<text text-anchor="middle" x="239.5" y="-1355.5" font-family="Helvetica,sans-Serif" font-size="10.00"> </text>
</a>
</g>
</g>
<!-- Node14&#45;&gt;Node12 -->
<g id="edge8" class="edge"><title>Node14&#45;&gt;Node12</title>
<path fill="none" stroke="#404040" d="M224.123,-1348.48C212.942,-1327.17 198.43,-1296.57 190.5,-1268 165.655,-1178.49 153.658,-1074.62 147.871,-993.373"/>
<polygon fill="none" stroke="#404040" points="147.864,-993.272 143.464,-987.559 147.045,-981.3 151.445,-987.013 147.864,-993.272"/>
<text text-anchor="middle" x="235" y="-1165" font-family="Helvetica,sans-Serif" font-size="10.00"> #_str_randomSeed</text>
</g>
<!-- Node14&#45;&gt;Node13 -->
<g id="edge6" class="edge"><title>Node14&#45;&gt;Node13</title>
<path fill="none" stroke="#404040" d="M209.409,-1372.54C163.96,-1366.62 81.2104,-1352.93 63.5,-1330 52.3207,-1315.52 47.0968,-1297.94 45.5195,-1279.78"/>
<polygon fill="none" stroke="#404040" points="45.5193,-1279.77 41.2554,-1273.95 44.9836,-1267.78 49.2474,-1273.6 45.5193,-1279.77"/>
<text text-anchor="middle" x="113" y="-1322" font-family="Helvetica,sans-Serif" font-size="10.00"> #s_algorithmoAuthor</text>
<text text-anchor="middle" x="113" y="-1311" font-family="Helvetica,sans-Serif" font-size="10.00">#s_algorithmoName</text>
<text text-anchor="middle" x="113" y="-1300" font-family="Helvetica,sans-Serif" font-size="10.00">#s_gnuplotCoreStyles</text>
<text text-anchor="middle" x="113" y="-1289" font-family="Helvetica,sans-Serif" font-size="10.00">#_s_runTimeId</text>
</g>
<!-- Node18 -->
<g id="node11" class="node"><title>Node18</title>
<g id="a_node11"><a xlink:href="classinout_1_1_in_param_read_inst.html" target="_top" xlink:title="Input parameter for read instances. ">
<polygon fill="white" stroke="black" points="354,-698.5 354,-1008.5 525,-1008.5 525,-698.5 354,-698.5"/>
<text text-anchor="start" x="362" y="-996.5" font-family="Helvetica,sans-Serif" font-size="10.00">inout::InParamReadInst</text>
<text text-anchor="start" x="362" y="-985.5" font-family="Helvetica,sans-Serif" font-size="10.00">&lt; T_FEATURE, T_INSTANCES</text>
<text text-anchor="middle" x="439.5" y="-974.5" font-family="Helvetica,sans-Serif" font-size="10.00">_CLUSTER_K, T_CLUSTERIDX &gt;</text>
<polyline fill="none" stroke="black" points="354,-967.5 525,-967.5 "/>
<text text-anchor="start" x="362" y="-955.5" font-family="Helvetica,sans-Serif" font-size="10.00"># _ui_idxCurrentFileInstance</text>
<text text-anchor="start" x="362" y="-944.5" font-family="Helvetica,sans-Serif" font-size="10.00"># _enum_formatInstanceFile</text>
<text text-anchor="start" x="362" y="-933.5" font-family="Helvetica,sans-Serif" font-size="10.00"># _b_haveHeaderFile</text>
<text text-anchor="start" x="362" y="-922.5" font-family="Helvetica,sans-Serif" font-size="10.00"># _ui_classInstanceColumn</text>
<text text-anchor="start" x="362" y="-911.5" font-family="Helvetica,sans-Serif" font-size="10.00"># _ui_clusterInstanceColumn</text>
<text text-anchor="start" x="362" y="-900.5" font-family="Helvetica,sans-Serif" font-size="10.00"># _ui_idInstanceColumn</text>
<text text-anchor="start" x="362" y="-889.5" font-family="Helvetica,sans-Serif" font-size="10.00"># _ui_instancesFrequencyColumn</text>
<text text-anchor="start" x="362" y="-878.5" font-family="Helvetica,sans-Serif" font-size="10.00"># _ui_idMultiInstanceColumn</text>
<text text-anchor="start" x="362" y="-867.5" font-family="Helvetica,sans-Serif" font-size="10.00"># _ui_classMultiInstColumn</text>
<text text-anchor="start" x="362" y="-856.5" font-family="Helvetica,sans-Serif" font-size="10.00"># _ui_numInstances</text>
<text text-anchor="start" x="362" y="-845.5" font-family="Helvetica,sans-Serif" font-size="10.00"># _ui_numDimensionsInstances</text>
<text text-anchor="start" x="362" y="-834.5" font-family="Helvetica,sans-Serif" font-size="10.00"># _ui_numInstancesTest</text>
<polyline fill="none" stroke="black" points="354,-827.5 525,-827.5 "/>
<text text-anchor="start" x="362" y="-815.5" font-family="Helvetica,sans-Serif" font-size="10.00">+ InParamReadInst()</text>
<text text-anchor="start" x="362" y="-804.5" font-family="Helvetica,sans-Serif" font-size="10.00">+ InParamReadInst()</text>
<text text-anchor="start" x="362" y="-793.5" font-family="Helvetica,sans-Serif" font-size="10.00">+ ~InParamReadInst()</text>
<text text-anchor="start" x="362" y="-782.5" font-family="Helvetica,sans-Serif" font-size="10.00">+ clearVectorFilesInstance()</text>
<text text-anchor="start" x="362" y="-771.5" font-family="Helvetica,sans-Serif" font-size="10.00">+ getVectorFilesInstance()</text>
<text text-anchor="start" x="362" y="-760.5" font-family="Helvetica,sans-Serif" font-size="10.00">+ setVectorFilesInstance()</text>
<text text-anchor="start" x="362" y="-749.5" font-family="Helvetica,sans-Serif" font-size="10.00">+ getNumFilesInstance()</text>
<text text-anchor="start" x="362" y="-738.5" font-family="Helvetica,sans-Serif" font-size="10.00">+ setVectorFilesInstanceTest()</text>
<text text-anchor="start" x="362" y="-727.5" font-family="Helvetica,sans-Serif" font-size="10.00">+ getVectorFilesInstanceTest()</text>
<text text-anchor="start" x="362" y="-716.5" font-family="Helvetica,sans-Serif" font-size="10.00">+ getNumFilesInstanceTest()</text>
<text text-anchor="start" x="362" y="-705.5" font-family="Helvetica,sans-Serif" font-size="10.00">and 35 more...</text>
</a>
</g>
</g>
<!-- Node14&#45;&gt;Node18 -->
<g id="edge12" class="edge"><title>Node14&#45;&gt;Node18</title>
<path fill="none" stroke="#404040" d="M251.617,-1348.08C260.517,-1326.56 272.269,-1295.87 279.5,-1268 302.201,-1180.51 279.564,-1151.93 310.5,-1067 320.237,-1040.27 333.512,-1013.21 347.858,-987.776"/>
<polygon fill="none" stroke="#404040" points="347.865,-987.764 347.385,-980.569 353.842,-977.359 354.322,-984.554 347.865,-987.764"/>
<text text-anchor="middle" x="363" y="-1170.5" font-family="Helvetica,sans-Serif" font-size="10.00"> #_ps_selectAttributes</text>
<text text-anchor="middle" x="363" y="-1159.5" font-family="Helvetica,sans-Serif" font-size="10.00">#_s_separatorAttributes</text>
</g>
<!-- Node19 -->
<g id="node12" class="node"><title>Node19</title>
<polygon fill="white" stroke="#bfbfbf" points="425,-1139 425,-1196 550,-1196 550,-1139 425,-1139"/>
<text text-anchor="middle" x="487.5" y="-1184" font-family="Helvetica,sans-Serif" font-size="10.00">std::vector&lt; std::string &gt;</text>
<polyline fill="none" stroke="#bfbfbf" points="425,-1177 550,-1177 "/>
<text text-anchor="middle" x="487.5" y="-1165" font-family="Helvetica,sans-Serif" font-size="10.00"> </text>
<polyline fill="none" stroke="#bfbfbf" points="425,-1158 550,-1158 "/>
<text text-anchor="middle" x="487.5" y="-1146" font-family="Helvetica,sans-Serif" font-size="10.00"> </text>
</g>
<!-- Node14&#45;&gt;Node19 -->
<g id="edge14" class="edge"><title>Node14&#45;&gt;Node19</title>
<path fill="none" stroke="#404040" d="M269.604,-1358.1C283.623,-1349.68 300.484,-1339.44 315.5,-1330 358.184,-1303.16 373.445,-1302.19 410.5,-1268 430.322,-1249.71 448.936,-1225.92 462.896,-1206.18"/>
<polygon fill="none" stroke="#404040" points="462.92,-1206.15 463.049,-1198.94 469.753,-1196.28 469.625,-1203.49 462.92,-1206.15"/>
<text text-anchor="middle" x="415" y="-1305.5" font-family="Helvetica,sans-Serif" font-size="10.00"> +elements</text>
</g>
<!-- Node15 -->
<g id="node8" class="node"><title>Node15</title>
<g id="a_node8"><a xlink:title="STL class. ">
<polygon fill="white" stroke="#bfbfbf" points="192,-1453.5 192,-1521.5 287,-1521.5 287,-1453.5 192,-1453.5"/>
<text text-anchor="start" x="200" y="-1509.5" font-family="Helvetica,sans-Serif" font-size="10.00">std::basic_string&lt;</text>
<text text-anchor="middle" x="239.5" y="-1498.5" font-family="Helvetica,sans-Serif" font-size="10.00"> char &gt;</text>
<polyline fill="none" stroke="#bfbfbf" points="192,-1491.5 287,-1491.5 "/>
<text text-anchor="middle" x="239.5" y="-1479.5" font-family="Helvetica,sans-Serif" font-size="10.00"> </text>
<polyline fill="none" stroke="#bfbfbf" points="192,-1472.5 287,-1472.5 "/>
<text text-anchor="middle" x="239.5" y="-1460.5" font-family="Helvetica,sans-Serif" font-size="10.00"> </text>
</a>
</g>
</g>
<!-- Node15&#45;&gt;Node14 -->
<g id="edge7" class="edge"><title>Node15&#45;&gt;Node14</title>
<path fill="none" stroke="midnightblue" d="M239.5,-1443.06C239.5,-1430.51 239.5,-1417.15 239.5,-1405.83"/>
<polygon fill="none" stroke="midnightblue" points="236,-1443.36 239.5,-1453.36 243,-1443.36 236,-1443.36"/>
</g>
<!-- Node16 -->
<g id="node9" class="node"><title>Node16</title>
<g id="a_node9"><a xlink:href="classinout_1_1_in_param_vk.html" target="_top" xlink:title="{inout::InParamVk\&lt; T\l_CLUSTERIDX \&gt;\n||+ InParamVk()\l+ ~InParamVk()\l+ setNumClusterKMinimum()\l+ getNumClusterKMinimum()\l+ setNumClusterKMaximum()\l+ getNumClusterKMaximum()\l+ print()\l}">
<polygon fill="white" stroke="black" points="217.5,-328 217.5,-462 365.5,-462 365.5,-328 217.5,-328"/>
<text text-anchor="start" x="225.5" y="-450" font-family="Helvetica,sans-Serif" font-size="10.00">inout::InParamVk&lt; T</text>
<text text-anchor="middle" x="291.5" y="-439" font-family="Helvetica,sans-Serif" font-size="10.00">_CLUSTERIDX &gt;</text>
<polyline fill="none" stroke="black" points="217.5,-432 365.5,-432 "/>
<text text-anchor="middle" x="291.5" y="-420" font-family="Helvetica,sans-Serif" font-size="10.00"> </text>
<polyline fill="none" stroke="black" points="217.5,-413 365.5,-413 "/>
<text text-anchor="start" x="225.5" y="-401" font-family="Helvetica,sans-Serif" font-size="10.00">+ InParamVk()</text>
<text text-anchor="start" x="225.5" y="-390" font-family="Helvetica,sans-Serif" font-size="10.00">+ ~InParamVk()</text>
<text text-anchor="start" x="225.5" y="-379" font-family="Helvetica,sans-Serif" font-size="10.00">+ setNumClusterKMinimum()</text>
<text text-anchor="start" x="225.5" y="-368" font-family="Helvetica,sans-Serif" font-size="10.00">+ getNumClusterKMinimum()</text>
<text text-anchor="start" x="225.5" y="-357" font-family="Helvetica,sans-Serif" font-size="10.00">+ setNumClusterKMaximum()</text>
<text text-anchor="start" x="225.5" y="-346" font-family="Helvetica,sans-Serif" font-size="10.00">+ getNumClusterKMaximum()</text>
<text text-anchor="start" x="225.5" y="-335" font-family="Helvetica,sans-Serif" font-size="10.00">+ print()</text>
</a>
</g>
</g>
<!-- Node16&#45;&gt;Node9 -->
<g id="edge9" class="edge"><title>Node16&#45;&gt;Node9</title>
<path fill="none" stroke="midnightblue" d="M291.5,-317.449C291.5,-306.365 291.5,-295.142 291.5,-284.591"/>
<polygon fill="none" stroke="midnightblue" points="288,-317.566 291.5,-327.566 295,-317.566 288,-317.566"/>
</g>
<!-- Node17 -->
<g id="node10" class="node"><title>Node17</title>
<polygon fill="white" stroke="#bfbfbf" points="238.5,-565 238.5,-622 330.5,-622 330.5,-565 238.5,-565"/>
<text text-anchor="middle" x="284.5" y="-610" font-family="Helvetica,sans-Serif" font-size="10.00">T_CLUSTERIDX</text>
<polyline fill="none" stroke="#bfbfbf" points="238.5,-603 330.5,-603 "/>
<text text-anchor="middle" x="284.5" y="-591" font-family="Helvetica,sans-Serif" font-size="10.00"> </text>
<polyline fill="none" stroke="#bfbfbf" points="238.5,-584 330.5,-584 "/>
<text text-anchor="middle" x="284.5" y="-572" font-family="Helvetica,sans-Serif" font-size="10.00"> </text>
</g>
<!-- Node17&#45;&gt;Node16 -->
<g id="edge10" class="edge"><title>Node17&#45;&gt;Node16</title>
<path fill="none" stroke="#404040" d="M284.327,-564.907C284.296,-543.4 284.482,-512.792 285.5,-486 285.641,-482.286 285.808,-478.487 285.994,-474.651"/>
<polygon fill="none" stroke="#404040" points="286.011,-474.314 282.335,-468.11 286.647,-462.33 290.324,-468.534 286.011,-474.314"/>
<text text-anchor="middle" x="355.5" y="-500" font-family="Helvetica,sans-Serif" font-size="10.00"> #_idxK_numClusterKMaximum</text>
<text text-anchor="middle" x="355.5" y="-489" font-family="Helvetica,sans-Serif" font-size="10.00">#_idxK_numClusterKMinimum</text>
</g>
<!-- Node18&#45;&gt;Node9 -->
<g id="edge11" class="edge"><title>Node18&#45;&gt;Node9</title>
<path fill="none" stroke="midnightblue" d="M451.105,-688.236C451.589,-577.924 437.533,-433.013 374.5,-322 367.149,-309.054 357.731,-296.367 347.894,-284.739"/>
<polygon fill="none" stroke="midnightblue" points="447.603,-688.434 451.018,-698.464 454.603,-688.494 447.603,-688.434"/>
</g>
<!-- Node19&#45;&gt;Node18 -->
<g id="edge13" class="edge"><title>Node19&#45;&gt;Node18</title>
<path fill="none" stroke="#404040" d="M483.24,-1138.81C478.998,-1111.24 472.115,-1066.5 465.052,-1020.59"/>
<polygon fill="none" stroke="#404040" points="465.03,-1020.44 460.164,-1015.12 463.205,-1008.58 468.071,-1013.9 465.03,-1020.44"/>
<text text-anchor="middle" x="535" y="-1041" font-family="Helvetica,sans-Serif" font-size="10.00"> #_vectorstr_filesInstance</text>
<text text-anchor="middle" x="535" y="-1030" font-family="Helvetica,sans-Serif" font-size="10.00">#_vectorstr_filesInstanceTest</text>
</g>
<!-- Node20 -->
<g id="node13" class="node"><title>Node20</title>
<g id="a_node13"><a xlink:title="STL class. ">
<polygon fill="white" stroke="#bfbfbf" points="443,-1348.5 443,-1405.5 532,-1405.5 532,-1348.5 443,-1348.5"/>
<text text-anchor="middle" x="487.5" y="-1393.5" font-family="Helvetica,sans-Serif" font-size="10.00">std::vector&lt; T &gt;</text>
<polyline fill="none" stroke="#bfbfbf" points="443,-1386.5 532,-1386.5 "/>
<text text-anchor="middle" x="487.5" y="-1374.5" font-family="Helvetica,sans-Serif" font-size="10.00"> </text>
<polyline fill="none" stroke="#bfbfbf" points="443,-1367.5 532,-1367.5 "/>
<text text-anchor="middle" x="487.5" y="-1355.5" font-family="Helvetica,sans-Serif" font-size="10.00"> </text>
</a>
</g>
</g>
<!-- Node20&#45;&gt;Node19 -->
<g id="edge15" class="edge"><title>Node20&#45;&gt;Node19</title>
<path fill="none" stroke="orange" d="M487.5,-1338.31C487.5,-1297.3 487.5,-1232.74 487.5,-1196.17"/>
<polygon fill="orange" stroke="orange" points="484,-1338.45 487.5,-1348.45 491,-1338.45 484,-1338.45"/>
<text text-anchor="middle" x="520" y="-1305.5" font-family="Helvetica,sans-Serif" font-size="10.00"> &lt; std::string &gt;</text>
</g>
<!-- Node21 -->
<g id="node14" class="node"><title>Node21</title>
<polygon fill="white" stroke="#bfbfbf" points="473,-1459 473,-1516 502,-1516 502,-1459 473,-1459"/>
<text text-anchor="middle" x="487.5" y="-1504" font-family="Helvetica,sans-Serif" font-size="10.00">T</text>
<polyline fill="none" stroke="#bfbfbf" points="473,-1497 502,-1497 "/>
<text text-anchor="middle" x="487.5" y="-1485" font-family="Helvetica,sans-Serif" font-size="10.00"> </text>
<polyline fill="none" stroke="#bfbfbf" points="473,-1478 502,-1478 "/>
<text text-anchor="middle" x="487.5" y="-1466" font-family="Helvetica,sans-Serif" font-size="10.00"> </text>
</g>
<!-- Node21&#45;&gt;Node20 -->
<g id="edge16" class="edge"><title>Node21&#45;&gt;Node20</title>
<path fill="none" stroke="#404040" d="M487.5,-1458.84C487.5,-1446.34 487.5,-1431.34 487.5,-1417.68"/>
<polygon fill="none" stroke="#404040" points="487.5,-1417.61 483.5,-1411.61 487.5,-1405.61 491.5,-1411.61 487.5,-1417.61"/>
<text text-anchor="middle" x="513" y="-1427" font-family="Helvetica,sans-Serif" font-size="10.00"> +elements</text>
</g>
</g>
</svg>
