<?xml version="1.0" encoding="UTF-8" standalone="no"?>
<!DOCTYPE svg PUBLIC "-//W3C//DTD SVG 1.1//EN"
 "http://www.w3.org/Graphics/SVG/1.1/DTD/svg11.dtd">
<!-- Generated by graphviz version 2.38.0 (20140413.2041)
 -->
<!-- Title: gaencode::ChromosomeIGKA::initialize Pages: 1 -->
<svg width="727pt" height="714pt"
 viewBox="0.00 0.00 727.00 713.72" xmlns="http://www.w3.org/2000/svg" xmlns:xlink="http://www.w3.org/1999/xlink">
<g id="graph0" class="graph" transform="scale(1 1) rotate(0) translate(4 709.715)">
<title>gaencode::ChromosomeIGKA::initialize</title>
<polygon fill="white" stroke="none" points="-4,4 -4,-709.715 723,-709.715 723,4 -4,4"/>
<!-- Node37 -->
<g id="node1" class="node"><title>Node37</title>
<g id="a_node1"><a xlink:title=" ">
<polygon fill="#bfbfbf" stroke="black" points="0,-251 0,-281 155,-281 155,-251 0,-251"/>
<text text-anchor="start" x="8" y="-269" font-family="Helvetica,sans-Serif" font-size="10.00">gaencode::ChromosomeIGKA</text>
<text text-anchor="middle" x="77.5" y="-258" font-family="Helvetica,sans-Serif" font-size="10.00">::initialize</text>
</a>
</g>
</g>
<!-- Node38 -->
<g id="node2" class="node"><title>Node38</title>
<g id="a_node2"><a xlink:href="namespaceinterfacesse.html#aa4b94bf2bf8cb7c437fa3feba8b70ff8" target="_top" xlink:title="Initializes the array with a constant .">
<polygon fill="white" stroke="black" points="610.5,-666.5 610.5,-685.5 715.5,-685.5 715.5,-666.5 610.5,-666.5"/>
<text text-anchor="middle" x="663" y="-673.5" font-family="Helvetica,sans-Serif" font-size="10.00">interfacesse::copya</text>
</a>
</g>
</g>
<!-- Node37&#45;&gt;Node38 -->
<g id="edge1" class="edge"><title>Node37&#45;&gt;Node38</title>
<path fill="none" stroke="midnightblue" d="M83.8215,-281.073C107.808,-346.287 212.965,-604.55 401,-687 473.773,-718.91 569.189,-701.989 622.166,-688.13"/>
<polygon fill="midnightblue" stroke="midnightblue" points="623.126,-691.496 631.863,-685.502 621.296,-684.74 623.126,-691.496"/>
</g>
<!-- Node39 -->
<g id="node3" class="node"><title>Node39</title>
<g id="a_node3"><a xlink:href="namespaceclusteringop.html#ac52fbdbee047ca93bef1426d6493f31f" target="_top" xlink:title=" ">
<polygon fill="white" stroke="black" points="211,-430.5 211,-449.5 345,-449.5 345,-430.5 211,-430.5"/>
<text text-anchor="middle" x="278" y="-437.5" font-family="Helvetica,sans-Serif" font-size="10.00">clusteringop::getCentroids</text>
</a>
</g>
</g>
<!-- Node37&#45;&gt;Node39 -->
<g id="edge2" class="edge"><title>Node37&#45;&gt;Node39</title>
<path fill="none" stroke="midnightblue" d="M85.6931,-281.389C100.754,-311.894 138.601,-380.173 191,-416 197.478,-420.429 204.757,-424.045 212.267,-426.996"/>
<polygon fill="midnightblue" stroke="midnightblue" points="211.265,-430.354 221.86,-430.39 213.6,-423.755 211.265,-430.354"/>
</g>
<!-- Node47 -->
<g id="node11" class="node"><title>Node47</title>
<g id="a_node11"><a xlink:href="classmat_1_1_matrix_row.html#a1070fba1c0ec0fbaa309f141817be412" target="_top" xlink:title=" ">
<polygon fill="white" stroke="black" points="422,-212.5 422,-231.5 550,-231.5 550,-212.5 422,-212.5"/>
<text text-anchor="middle" x="486" y="-219.5" font-family="Helvetica,sans-Serif" font-size="10.00">mat::MatrixRow::initialize</text>
</a>
</g>
</g>
<!-- Node37&#45;&gt;Node47 -->
<g id="edge23" class="edge"><title>Node37&#45;&gt;Node47</title>
<path fill="none" stroke="midnightblue" d="M87.2542,-281.138C103.63,-307.737 141.738,-362.027 191,-383 262.153,-413.293 303.761,-430.226 365,-383 414.854,-344.554 356.961,-290.989 401,-246 404.75,-242.169 409.065,-238.939 413.719,-236.216"/>
<polygon fill="midnightblue" stroke="midnightblue" points="415.634,-239.172 423.025,-231.581 412.513,-232.906 415.634,-239.172"/>
</g>
<!-- Node52 -->
<g id="node16" class="node"><title>Node52</title>
<g id="a_node16"><a xlink:href="classdata_1_1_instance.html#aa6ee19c383a86228b3d134e42bdb6830" target="_top" xlink:title=" ">
<polygon fill="white" stroke="black" points="208,-354.5 208,-373.5 348,-373.5 348,-354.5 208,-354.5"/>
<text text-anchor="middle" x="278" y="-361.5" font-family="Helvetica,sans-Serif" font-size="10.00">data::Instance::getFeatures</text>
</a>
</g>
</g>
<!-- Node37&#45;&gt;Node52 -->
<g id="edge18" class="edge"><title>Node37&#45;&gt;Node52</title>
<path fill="none" stroke="midnightblue" d="M95.4869,-281.22C116.443,-299.176 153.869,-328.648 191,-345 196.694,-347.507 202.75,-349.698 208.91,-351.608"/>
<polygon fill="midnightblue" stroke="midnightblue" points="208.06,-355.006 218.637,-354.386 209.983,-348.275 208.06,-355.006"/>
</g>
<!-- Node53 -->
<g id="node17" class="node"><title>Node53</title>
<g id="a_node17"><a xlink:href="classgaencode_1_1_chrom_fixed_length.html#ab9d0b01b82cd679c6232dcd78c13e9d2" target="_top" xlink:title=" ">
<polygon fill="white" stroke="black" points="199,-294.5 199,-335.5 357,-335.5 357,-294.5 199,-294.5"/>
<text text-anchor="start" x="207" y="-323.5" font-family="Helvetica,sans-Serif" font-size="10.00">gaencode::ChromFixedLength</text>
<text text-anchor="start" x="207" y="-312.5" font-family="Helvetica,sans-Serif" font-size="10.00">&lt; T_CLUSTERIDX, T_METRIC</text>
<text text-anchor="middle" x="278" y="-301.5" font-family="Helvetica,sans-Serif" font-size="10.00"> &gt;::getGene</text>
</a>
</g>
</g>
<!-- Node37&#45;&gt;Node53 -->
<g id="edge19" class="edge"><title>Node37&#45;&gt;Node53</title>
<path fill="none" stroke="midnightblue" d="M139.406,-281.035C155.125,-284.915 172.36,-289.17 189.154,-293.315"/>
<polygon fill="midnightblue" stroke="midnightblue" points="188.429,-296.741 198.977,-295.74 190.107,-289.945 188.429,-296.741"/>
</g>
<!-- Node54 -->
<g id="node18" class="node"><title>Node54</title>
<g id="a_node18"><a xlink:href="classdata_1_1_instance.html#a90d1eaeb66cc1470bbfdb95434fdb761" target="_top" xlink:title=" ">
<polygon fill="white" stroke="black" points="191,-256.5 191,-275.5 365,-275.5 365,-256.5 191,-256.5"/>
<text text-anchor="middle" x="278" y="-263.5" font-family="Helvetica,sans-Serif" font-size="10.00">data::Instance::getNumDimensions</text>
</a>
</g>
</g>
<!-- Node37&#45;&gt;Node54 -->
<g id="edge20" class="edge"><title>Node37&#45;&gt;Node54</title>
<path fill="none" stroke="midnightblue" d="M155.245,-266C163.636,-266 172.252,-266 180.838,-266"/>
<polygon fill="midnightblue" stroke="midnightblue" points="180.888,-269.5 190.888,-266 180.888,-262.5 180.888,-269.5"/>
</g>
<!-- Node55 -->
<g id="node19" class="node"><title>Node55</title>
<g id="a_node19"><a xlink:href="classgaencode_1_1_chrom_fixed_length.html#a4d1d15f6be16c0d0a23824033993aa71" target="_top" xlink:title=" ">
<polygon fill="white" stroke="black" points="199,-196.5 199,-237.5 357,-237.5 357,-196.5 199,-196.5"/>
<text text-anchor="start" x="207" y="-225.5" font-family="Helvetica,sans-Serif" font-size="10.00">gaencode::ChromFixedLength</text>
<text text-anchor="start" x="207" y="-214.5" font-family="Helvetica,sans-Serif" font-size="10.00">&lt; T_CLUSTERIDX, T_METRIC</text>
<text text-anchor="middle" x="278" y="-203.5" font-family="Helvetica,sans-Serif" font-size="10.00"> &gt;::getString</text>
</a>
</g>
</g>
<!-- Node37&#45;&gt;Node55 -->
<g id="edge21" class="edge"><title>Node37&#45;&gt;Node55</title>
<path fill="none" stroke="midnightblue" d="M139.406,-250.965C155.125,-247.085 172.36,-242.83 189.154,-238.685"/>
<polygon fill="midnightblue" stroke="midnightblue" points="190.107,-242.055 198.977,-236.26 188.429,-235.259 190.107,-242.055"/>
</g>
<!-- Node56 -->
<g id="node20" class="node"><title>Node56</title>
<g id="a_node20"><a xlink:href="classgaencode_1_1_chrom_fixed_length.html#aac60dd08cf0d29f08845a6381d84edad" target="_top" xlink:title=" ">
<polygon fill="white" stroke="black" points="199,-136.5 199,-177.5 357,-177.5 357,-136.5 199,-136.5"/>
<text text-anchor="start" x="207" y="-165.5" font-family="Helvetica,sans-Serif" font-size="10.00">gaencode::ChromFixedLength</text>
<text text-anchor="start" x="207" y="-154.5" font-family="Helvetica,sans-Serif" font-size="10.00">&lt; T_CLUSTERIDX, T_METRIC</text>
<text text-anchor="middle" x="278" y="-143.5" font-family="Helvetica,sans-Serif" font-size="10.00"> &gt;::getStringSize</text>
</a>
</g>
</g>
<!-- Node37&#45;&gt;Node56 -->
<g id="edge22" class="edge"><title>Node37&#45;&gt;Node56</title>
<path fill="none" stroke="midnightblue" d="M96.5944,-250.9C118.023,-233.603 155.324,-205.299 191,-187 194.72,-185.092 198.588,-183.258 202.536,-181.504"/>
<polygon fill="midnightblue" stroke="midnightblue" points="204.012,-184.679 211.855,-177.555 201.282,-178.234 204.012,-184.679"/>
</g>
<!-- Node57 -->
<g id="node21" class="node"><title>Node57</title>
<g id="a_node21"><a xlink:href="classgaencode_1_1_chromosome_base.html#a0c0f339b486fb7d097d2afac2539ddc8" target="_top" xlink:title=" ">
<polygon fill="white" stroke="black" points="200.5,-88 200.5,-118 355.5,-118 355.5,-88 200.5,-88"/>
<text text-anchor="start" x="208.5" y="-106" font-family="Helvetica,sans-Serif" font-size="10.00">gaencode::ChromosomeBase</text>
<text text-anchor="middle" x="278" y="-95" font-family="Helvetica,sans-Serif" font-size="10.00">::setObjetiveFunc</text>
</a>
</g>
</g>
<!-- Node37&#45;&gt;Node57 -->
<g id="edge24" class="edge"><title>Node37&#45;&gt;Node57</title>
<path fill="none" stroke="midnightblue" d="M86.4879,-250.866C102.41,-222.197 140.923,-159.9 191,-127 193.429,-125.404 195.964,-123.913 198.575,-122.521"/>
<polygon fill="midnightblue" stroke="midnightblue" points="200.198,-125.625 207.71,-118.154 197.179,-119.309 200.198,-125.625"/>
</g>
<!-- Node58 -->
<g id="node22" class="node"><title>Node58</title>
<g id="a_node22"><a xlink:href="classgaencode_1_1_chromosome_base.html#abac472511083c6b8c3cb5208242d0d66" target="_top" xlink:title=" ">
<polygon fill="white" stroke="black" points="200.5,-39 200.5,-69 355.5,-69 355.5,-39 200.5,-39"/>
<text text-anchor="start" x="208.5" y="-57" font-family="Helvetica,sans-Serif" font-size="10.00">gaencode::ChromosomeBase</text>
<text text-anchor="middle" x="278" y="-46" font-family="Helvetica,sans-Serif" font-size="10.00">::setValidString</text>
</a>
</g>
</g>
<!-- Node37&#45;&gt;Node58 -->
<g id="edge25" class="edge"><title>Node37&#45;&gt;Node58</title>
<path fill="none" stroke="midnightblue" d="M83.1638,-250.922C95.0154,-215.163 129.769,-124.727 191,-78 192.852,-76.5865 194.784,-75.2562 196.778,-74.0043"/>
<polygon fill="midnightblue" stroke="midnightblue" points="198.802,-76.8856 205.88,-69.0019 195.431,-70.751 198.802,-76.8856"/>
</g>
<!-- Node59 -->
<g id="node23" class="node"><title>Node59</title>
<g id="a_node23"><a xlink:href="namespaceinterfacesse.html#a25f6950d589b92fd5bcf2007fb3fae19" target="_top" xlink:title=" ">
<polygon fill="white" stroke="black" points="230,-0.5 230,-19.5 326,-19.5 326,-0.5 230,-0.5"/>
<text text-anchor="middle" x="278" y="-7.5" font-family="Helvetica,sans-Serif" font-size="10.00">interfacesse::sum</text>
</a>
</g>
</g>
<!-- Node37&#45;&gt;Node59 -->
<g id="edge26" class="edge"><title>Node37&#45;&gt;Node59</title>
<path fill="none" stroke="midnightblue" d="M80.9538,-250.964C88.6744,-208.739 116.536,-88.3005 191,-29 199.339,-22.359 209.515,-17.926 219.908,-14.9909"/>
<polygon fill="midnightblue" stroke="midnightblue" points="220.97,-18.3358 229.886,-12.6126 219.347,-11.5265 220.97,-18.3358"/>
</g>
<!-- Node39&#45;&gt;Node38 -->
<g id="edge6" class="edge"><title>Node39&#45;&gt;Node38</title>
<path fill="none" stroke="midnightblue" d="M281.008,-449.587C288.916,-484.649 321.457,-606.503 401,-657 461.121,-695.167 545.466,-693.719 601.832,-686.859"/>
<polygon fill="midnightblue" stroke="midnightblue" points="602.559,-690.294 612.02,-685.523 601.649,-683.353 602.559,-690.294"/>
</g>
<!-- Node40 -->
<g id="node4" class="node"><title>Node40</title>
<g id="a_node4"><a xlink:href="namespaceinterfacesse.html#a9dd5fb43ad8a83ee5cb2f5ba1bb2085b" target="_top" xlink:title=" ">
<polygon fill="white" stroke="black" points="436.5,-540.5 436.5,-559.5 535.5,-559.5 535.5,-540.5 436.5,-540.5"/>
<text text-anchor="middle" x="486" y="-547.5" font-family="Helvetica,sans-Serif" font-size="10.00">interfacesse::axpy</text>
</a>
</g>
</g>
<!-- Node39&#45;&gt;Node40 -->
<g id="edge3" class="edge"><title>Node39&#45;&gt;Node40</title>
<path fill="none" stroke="midnightblue" d="M288.809,-449.653C308.385,-468.352 354.44,-509.553 401,-531 408.992,-534.681 417.749,-537.674 426.497,-540.101"/>
<polygon fill="midnightblue" stroke="midnightblue" points="425.773,-543.528 436.328,-542.606 427.502,-536.745 425.773,-543.528"/>
</g>
<!-- Node41 -->
<g id="node5" class="node"><title>Node41</title>
<g id="a_node5"><a xlink:href="classpartition_1_1_partition.html#acb8de7c890e05872858fb7a7aa53b657" target="_top" xlink:title=" ">
<polygon fill="white" stroke="black" points="439.5,-491 439.5,-521 532.5,-521 532.5,-491 439.5,-491"/>
<text text-anchor="start" x="447.5" y="-509" font-family="Helvetica,sans-Serif" font-size="10.00">partition::Partition</text>
<text text-anchor="middle" x="486" y="-498" font-family="Helvetica,sans-Serif" font-size="10.00">::begin</text>
</a>
</g>
</g>
<!-- Node39&#45;&gt;Node41 -->
<g id="edge4" class="edge"><title>Node39&#45;&gt;Node41</title>
<path fill="none" stroke="midnightblue" d="M306.528,-449.557C331.196,-458.048 368.408,-470.677 401,-481 410.151,-483.898 419.893,-486.886 429.379,-489.744"/>
<polygon fill="midnightblue" stroke="midnightblue" points="428.552,-493.15 439.136,-492.665 430.56,-486.444 428.552,-493.15"/>
</g>
<!-- Node42 -->
<g id="node6" class="node"><title>Node42</title>
<g id="a_node6"><a xlink:href="namespaceinout.html#a0c10a45877a347dec0d4ec4e5b05b828" target="_top" xlink:title=" ">
<polygon fill="white" stroke="black" points="611.5,-332.5 611.5,-351.5 714.5,-351.5 714.5,-332.5 611.5,-332.5"/>
<text text-anchor="middle" x="663" y="-339.5" font-family="Helvetica,sans-Serif" font-size="10.00">inout::containerprint</text>
</a>
</g>
</g>
<!-- Node39&#45;&gt;Node42 -->
<g id="edge5" class="edge"><title>Node39&#45;&gt;Node42</title>
<path fill="none" stroke="midnightblue" d="M333.687,-430.407C345.293,-426.128 356.57,-419.943 365,-411 406.712,-366.752 352.674,-315.911 401,-279 461.045,-233.138 498.881,-256.472 571,-279 600.002,-288.06 627.895,-309.963 644.984,-325.388"/>
<polygon fill="midnightblue" stroke="midnightblue" points="642.76,-328.099 652.463,-332.355 647.531,-322.977 642.76,-328.099"/>
</g>
<!-- Node43 -->
<g id="node7" class="node"><title>Node43</title>
<g id="a_node7"><a xlink:href="classpartition_1_1_partition.html#a4a440dcaeb42e05a52a46405eb30d36e" target="_top" xlink:title=" ">
<polygon fill="white" stroke="black" points="439.5,-403 439.5,-433 532.5,-433 532.5,-403 439.5,-403"/>
<text text-anchor="start" x="447.5" y="-421" font-family="Helvetica,sans-Serif" font-size="10.00">partition::Partition</text>
<text text-anchor="middle" x="486" y="-410" font-family="Helvetica,sans-Serif" font-size="10.00">::getNumCluster</text>
</a>
</g>
</g>
<!-- Node39&#45;&gt;Node43 -->
<g id="edge7" class="edge"><title>Node39&#45;&gt;Node43</title>
<path fill="none" stroke="midnightblue" d="M345.03,-432.948C372.146,-430.052 403.203,-426.736 429.163,-423.963"/>
<polygon fill="midnightblue" stroke="midnightblue" points="429.639,-427.432 439.21,-422.89 428.895,-420.472 429.639,-427.432"/>
</g>
<!-- Node44 -->
<g id="node8" class="node"><title>Node44</title>
<g id="a_node8"><a xlink:href="classmat_1_1_matrix_base.html#a70200414022ce1479b9ddc16102b12ae" target="_top" xlink:title=" ">
<polygon fill="white" stroke="black" points="401,-364.5 401,-383.5 571,-383.5 571,-364.5 401,-364.5"/>
<text text-anchor="middle" x="486" y="-371.5" font-family="Helvetica,sans-Serif" font-size="10.00">mat::MatrixBase::getNumColumns</text>
</a>
</g>
</g>
<!-- Node39&#45;&gt;Node44 -->
<g id="edge8" class="edge"><title>Node39&#45;&gt;Node44</title>
<path fill="none" stroke="midnightblue" d="M322.238,-430.433C336.172,-426.694 351.497,-421.875 365,-416 382.194,-408.52 383.665,-401.149 401,-394 408.211,-391.026 415.961,-388.435 423.732,-386.194"/>
<polygon fill="midnightblue" stroke="midnightblue" points="424.809,-389.529 433.549,-383.54 422.982,-382.771 424.809,-389.529"/>
</g>
<!-- Node45 -->
<g id="node9" class="node"><title>Node45</title>
<g id="a_node9"><a xlink:href="classmat_1_1_matrix_base.html#ac500eedd5e203327d3292f8ab22d8f3e" target="_top" xlink:title=" ">
<polygon fill="white" stroke="black" points="408,-326.5 408,-345.5 564,-345.5 564,-326.5 408,-326.5"/>
<text text-anchor="middle" x="486" y="-333.5" font-family="Helvetica,sans-Serif" font-size="10.00">mat::MatrixBase::getNumRows</text>
</a>
</g>
</g>
<!-- Node39&#45;&gt;Node45 -->
<g id="edge9" class="edge"><title>Node39&#45;&gt;Node45</title>
<path fill="none" stroke="midnightblue" d="M336.942,-430.415C346.947,-426.984 356.763,-422.326 365,-416 389.967,-396.826 375.564,-373.548 401,-355 403.658,-353.062 406.479,-351.317 409.416,-349.745"/>
<polygon fill="midnightblue" stroke="midnightblue" points="410.919,-352.907 418.528,-345.535 407.982,-346.553 410.919,-352.907"/>
</g>
<!-- Node46 -->
<g id="node10" class="node"><title>Node46</title>
<g id="a_node10"><a xlink:href="classmat_1_1_matrix_row.html#a5391a205367fbaac82a26ddc377a80af" target="_top" xlink:title=" ">
<polygon fill="white" stroke="black" points="422.5,-288.5 422.5,-307.5 549.5,-307.5 549.5,-288.5 422.5,-288.5"/>
<text text-anchor="middle" x="486" y="-295.5" font-family="Helvetica,sans-Serif" font-size="10.00">mat::MatrixRow::getRow</text>
</a>
</g>
</g>
<!-- Node39&#45;&gt;Node46 -->
<g id="edge10" class="edge"><title>Node39&#45;&gt;Node46</title>
<path fill="none" stroke="midnightblue" d="M341.042,-430.451C349.827,-426.996 358.176,-422.32 365,-416 399.35,-384.186 365.87,-347.95 401,-317 404.664,-313.772 408.759,-311.059 413.118,-308.781"/>
<polygon fill="midnightblue" stroke="midnightblue" points="414.643,-311.933 422.377,-304.692 411.816,-305.53 414.643,-311.933"/>
</g>
<!-- Node39&#45;&gt;Node47 -->
<g id="edge11" class="edge"><title>Node39&#45;&gt;Node47</title>
<path fill="none" stroke="midnightblue" d="M344.007,-430.345C351.869,-426.87 359.166,-422.217 365,-416 417.851,-359.684 348.323,-302.478 401,-246 404.53,-242.215 408.612,-239.013 413.035,-236.305"/>
<polygon fill="midnightblue" stroke="midnightblue" points="414.655,-239.408 421.908,-231.684 411.422,-233.199 414.655,-239.408"/>
</g>
<!-- Node48 -->
<g id="node12" class="node"><title>Node48</title>
<g id="a_node12"><a xlink:href="namespacestats.html#a61ea16e97e098fc1598f4a2975cb0a24" target="_top" xlink:title="￼Calculate average of a vector">
<polygon fill="white" stroke="black" points="437,-452.5 437,-471.5 535,-471.5 535,-452.5 437,-452.5"/>
<text text-anchor="middle" x="486" y="-459.5" font-family="Helvetica,sans-Serif" font-size="10.00">stats::meanVector</text>
</a>
</g>
</g>
<!-- Node39&#45;&gt;Node48 -->
<g id="edge12" class="edge"><title>Node39&#45;&gt;Node48</title>
<path fill="none" stroke="midnightblue" d="M345.03,-447.052C371.302,-449.857 401.274,-453.058 426.724,-455.776"/>
<polygon fill="midnightblue" stroke="midnightblue" points="426.65,-459.288 436.965,-456.87 427.393,-452.328 426.65,-459.288"/>
</g>
<!-- Node50 -->
<g id="node14" class="node"><title>Node50</title>
<g id="a_node14"><a xlink:href="classpartition_1_1_partition.html#a96660ce61740ab0287189b21833eccdf" target="_top" xlink:title=" ">
<polygon fill="white" stroke="black" points="439.5,-617 439.5,-647 532.5,-647 532.5,-617 439.5,-617"/>
<text text-anchor="start" x="447.5" y="-635" font-family="Helvetica,sans-Serif" font-size="10.00">partition::Partition</text>
<text text-anchor="middle" x="486" y="-624" font-family="Helvetica,sans-Serif" font-size="10.00">::next</text>
</a>
</g>
</g>
<!-- Node39&#45;&gt;Node50 -->
<g id="edge16" class="edge"><title>Node39&#45;&gt;Node50</title>
<path fill="none" stroke="midnightblue" d="M283.246,-449.617C296.36,-478.193 339.102,-563.316 401,-607 409.573,-613.05 419.622,-617.655 429.731,-621.154"/>
<polygon fill="midnightblue" stroke="midnightblue" points="428.806,-624.532 439.395,-624.181 430.898,-617.852 428.806,-624.532"/>
</g>
<!-- Node51 -->
<g id="node15" class="node"><title>Node51</title>
<g id="a_node15"><a xlink:href="classmat_1_1_matrix_row.html#a156313f6aa515994b76321ff03780b16" target="_top" xlink:title=" ">
<polygon fill="white" stroke="black" points="431,-578.5 431,-597.5 541,-597.5 541,-578.5 431,-578.5"/>
<text text-anchor="middle" x="486" y="-585.5" font-family="Helvetica,sans-Serif" font-size="10.00">mat::MatrixRow::print</text>
</a>
</g>
</g>
<!-- Node39&#45;&gt;Node51 -->
<g id="edge17" class="edge"><title>Node39&#45;&gt;Node51</title>
<path fill="none" stroke="midnightblue" d="M285.059,-449.595C300.891,-473.815 346.094,-537.719 401,-569 407.252,-572.562 414.122,-575.456 421.157,-577.808"/>
<polygon fill="midnightblue" stroke="midnightblue" points="420.225,-581.182 430.809,-580.69 422.228,-574.475 420.225,-581.182"/>
</g>
<!-- Node48&#45;&gt;Node38 -->
<g id="edge14" class="edge"><title>Node48&#45;&gt;Node38</title>
<path fill="none" stroke="midnightblue" d="M535.263,-465.879C547.941,-468.823 560.883,-473.769 571,-482 627.327,-527.827 650.663,-616.554 658.57,-656.119"/>
<polygon fill="midnightblue" stroke="midnightblue" points="655.16,-656.921 660.442,-666.105 662.04,-655.631 655.16,-656.921"/>
</g>
<!-- Node48&#45;&gt;Node42 -->
<g id="edge13" class="edge"><title>Node48&#45;&gt;Node42</title>
<path fill="none" stroke="midnightblue" d="M535.128,-456.392C547.394,-453.577 560.163,-449.349 571,-443 606.44,-422.238 635.748,-383.031 650.884,-360.05"/>
<polygon fill="midnightblue" stroke="midnightblue" points="653.871,-361.876 656.313,-351.566 647.975,-358.103 653.871,-361.876"/>
</g>
<!-- Node49 -->
<g id="node13" class="node"><title>Node49</title>
<g id="a_node13"><a xlink:href="namespaceinterfacesse.html#ae3f94c42a59db65b2941dbfc9f449ea1" target="_top" xlink:title="function xAXPY of blas for doubles vectors">
<polygon fill="white" stroke="black" points="607,-452.5 607,-471.5 719,-471.5 719,-452.5 607,-452.5"/>
<text text-anchor="middle" x="663" y="-459.5" font-family="Helvetica,sans-Serif" font-size="10.00">interfacesse::axpyInv</text>
</a>
</g>
</g>
<!-- Node48&#45;&gt;Node49 -->
<g id="edge15" class="edge"><title>Node48&#45;&gt;Node49</title>
<path fill="none" stroke="midnightblue" d="M535.283,-462C554.237,-462 576.286,-462 596.628,-462"/>
<polygon fill="midnightblue" stroke="midnightblue" points="596.769,-465.5 606.769,-462 596.769,-458.5 596.769,-465.5"/>
</g>
</g>
</svg>
