<?xml version="1.0" encoding="UTF-8" standalone="no"?>
<!DOCTYPE svg PUBLIC "-//W3C//DTD SVG 1.1//EN"
 "http://www.w3.org/Graphics/SVG/1.1/DTD/svg11.dtd">
<!-- Generated by graphviz version 2.38.0 (20140413.2041)
 -->
<!-- Title: ds::PartitionLinkedStats::resize Pages: 1 -->
<!--zoomable 410 -->
<svg id="main" version="1.1" xmlns="http://www.w3.org/2000/svg" xmlns:xlink="http://www.w3.org/1999/xlink" xml:space="preserve" onload="init(evt)">
<style type="text/css"><![CDATA[
.edge:hover path { stroke: red; }
.edge:hover polygon { stroke: red; fill: red; }
]]></style>
<script type="text/javascript"><![CDATA[
var edges = document.getElementsByTagName('g');
if (edges && edges.length) {
  for (var i=0;i<edges.length;i++) {
    if (edges[i].id.substr(0,4)=='edge') {
      edges[i].setAttribute('class','edge');
    }
  }
}
]]></script>
        <defs>
                <circle id="rim" cx="0" cy="0" r="7"/>
                <circle id="rim2" cx="0" cy="0" r="3.5"/>
                <g id="zoomPlus">
                        <use xlink:href="#rim" fill="#404040">
                                <set attributeName="fill" to="#808080" begin="zoomplus.mouseover" end="zoomplus.mouseout"/>
                        </use>
                        <path d="M-4,0h8M0,-4v8" fill="none" stroke="white" stroke-width="1.5" pointer-events="none"/>
                </g>
                <g id="zoomMin">
                        <use xlink:href="#rim" fill="#404040">
                                <set attributeName="fill" to="#808080" begin="zoomminus.mouseover" end="zoomminus.mouseout"/>
                        </use>
                        <path d="M-4,0h8" fill="none" stroke="white" stroke-width="1.5" pointer-events="none"/>
                </g>
                <g id="dirArrow">
                        <path fill="none" stroke="white" stroke-width="1.5" d="M0,-3.0v7 M-2.5,-0.5L0,-3.0L2.5,-0.5"/>
                </g>
               <g id="resetDef">
                       <use xlink:href="#rim2" fill="#404040">
                               <set attributeName="fill" to="#808080" begin="reset.mouseover" end="reset.mouseout"/>
                       </use>
               </g>
        </defs>

<script type="text/javascript">
var viewWidth = 679;
var viewHeight = 410;
var sectionId = 'dynsection-16';
</script>
<script xlink:href="svgpan.js"/>
<svg id="graph" class="graph">
<g id="viewport">
<title>ds::PartitionLinkedStats::resize</title>
<polygon fill="white" stroke="none" points="-4,4 -4,-406 675,-406 675,4 -4,4"/>
<!-- Node195 -->
<g id="node1" class="node"><title>Node195</title>
<polygon fill="#bfbfbf" stroke="black" points="0,-171.5 0,-201.5 122,-201.5 122,-171.5 0,-171.5"/>
<text text-anchor="start" x="8" y="-189.5" font-family="Helvetica,sans-Serif" font-size="10.00">ds::PartitionLinkedStats</text>
<text text-anchor="middle" x="61" y="-178.5" font-family="Helvetica,sans-Serif" font-size="10.00">::resize</text>
</g>
<!-- Node196 -->
<g id="node2" class="node"><title>Node196</title>
<g id="a_node2"><a xlink:href="classmat_1_1_matrix_resizable_row.html#a7c0d4692782f6a5ffb48de0a8cf5cbc3" target="_top" xlink:title="mat::MatrixResizableRow\l::getNumRowsMaximum">
<polygon fill="white" stroke="black" points="158,-245.5 158,-275.5 289,-275.5 289,-245.5 158,-245.5"/>
<text text-anchor="start" x="166" y="-263.5" font-family="Helvetica,sans-Serif" font-size="10.00">mat::MatrixResizableRow</text>
<text text-anchor="middle" x="223.5" y="-252.5" font-family="Helvetica,sans-Serif" font-size="10.00">::getNumRowsMaximum</text>
</a>
</g>
</g>
<!-- Node195&#45;&gt;Node196 -->
<g id="edge1" class="edge"><title>Node195&#45;&gt;Node196</title>
<path fill="none" stroke="midnightblue" d="M89.7779,-201.631C108.753,-211.73 134.601,-225.027 158,-235.5 162.609,-237.563 167.444,-239.623 172.306,-241.625"/>
<polygon fill="midnightblue" stroke="midnightblue" points="171.055,-244.894 181.639,-245.389 173.674,-238.402 171.055,-244.894"/>
</g>
<!-- Node197 -->
<g id="node3" class="node"><title>Node197</title>
<g id="a_node3"><a xlink:href="classds_1_1_partition_linked_stats.html#ac002167e3a4f4f2b692c3b7e1c9fd785" target="_top" xlink:title="ds::PartitionLinkedStats\l::print">
<polygon fill="white" stroke="black" points="162.5,-196.5 162.5,-226.5 284.5,-226.5 284.5,-196.5 162.5,-196.5"/>
<text text-anchor="start" x="170.5" y="-214.5" font-family="Helvetica,sans-Serif" font-size="10.00">ds::PartitionLinkedStats</text>
<text text-anchor="middle" x="223.5" y="-203.5" font-family="Helvetica,sans-Serif" font-size="10.00">::print</text>
</a>
</g>
</g>
<!-- Node195&#45;&gt;Node197 -->
<g id="edge2" class="edge"><title>Node195&#45;&gt;Node197</title>
<path fill="none" stroke="midnightblue" d="M122.221,-195.88C132.094,-197.418 142.4,-199.023 152.486,-200.594"/>
<polygon fill="midnightblue" stroke="midnightblue" points="152.056,-204.07 162.475,-202.15 153.133,-197.153 152.056,-204.07"/>
</g>
<!-- Node209 -->
<g id="node15" class="node"><title>Node209</title>
<g id="a_node15"><a xlink:href="classds_1_1_partition_linked.html#a8209ccb89e9110a77986768fd1736ab9" target="_top" xlink:title="ds::PartitionLinked\l::resize">
<polygon fill="white" stroke="black" points="173.5,-147.5 173.5,-177.5 273.5,-177.5 273.5,-147.5 173.5,-147.5"/>
<text text-anchor="start" x="181.5" y="-165.5" font-family="Helvetica,sans-Serif" font-size="10.00">ds::PartitionLinked</text>
<text text-anchor="middle" x="223.5" y="-154.5" font-family="Helvetica,sans-Serif" font-size="10.00">::resize</text>
</a>
</g>
</g>
<!-- Node195&#45;&gt;Node209 -->
<g id="edge14" class="edge"><title>Node195&#45;&gt;Node209</title>
<path fill="none" stroke="midnightblue" d="M122.221,-177.495C135.689,-175.481 149.96,-173.347 163.383,-171.34"/>
<polygon fill="midnightblue" stroke="midnightblue" points="164.081,-174.774 173.454,-169.834 163.046,-167.851 164.081,-174.774"/>
</g>
<!-- Node210 -->
<g id="node16" class="node"><title>Node210</title>
<g id="a_node16"><a xlink:href="classmat_1_1_matrix_resizable_row.html#aa7e14d9fa1e1da36a879b0568811ea9c" target="_top" xlink:title="mat::MatrixResizableRow\l::resize">
<polygon fill="white" stroke="black" points="158,-98.5 158,-128.5 289,-128.5 289,-98.5 158,-98.5"/>
<text text-anchor="start" x="166" y="-116.5" font-family="Helvetica,sans-Serif" font-size="10.00">mat::MatrixResizableRow</text>
<text text-anchor="middle" x="223.5" y="-105.5" font-family="Helvetica,sans-Serif" font-size="10.00">::resize</text>
</a>
</g>
</g>
<!-- Node195&#45;&gt;Node210 -->
<g id="edge15" class="edge"><title>Node195&#45;&gt;Node210</title>
<path fill="none" stroke="midnightblue" d="M89.3183,-171.488C108.31,-161.317 134.36,-147.89 158,-137.5 162.047,-135.721 166.272,-133.955 170.538,-132.236"/>
<polygon fill="midnightblue" stroke="midnightblue" points="171.866,-135.475 179.891,-128.558 169.304,-128.96 171.866,-135.475"/>
</g>
<!-- Node198 -->
<g id="node4" class="node"><title>Node198</title>
<g id="a_node4"><a xlink:href="classds_1_1_iterator_partition_linked.html#ad171cb96653fadaec272389381a4f8b4" target="_top" xlink:title="ds::IteratorPartitionLinked\l::begin">
<polygon fill="white" stroke="black" points="336.5,-371.5 336.5,-401.5 467.5,-401.5 467.5,-371.5 336.5,-371.5"/>
<text text-anchor="start" x="344.5" y="-389.5" font-family="Helvetica,sans-Serif" font-size="10.00">ds::IteratorPartitionLinked</text>
<text text-anchor="middle" x="402" y="-378.5" font-family="Helvetica,sans-Serif" font-size="10.00">::begin</text>
</a>
</g>
</g>
<!-- Node197&#45;&gt;Node198 -->
<g id="edge3" class="edge"><title>Node197&#45;&gt;Node198</title>
<path fill="none" stroke="midnightblue" d="M278.145,-226.625C282.139,-229.144 285.836,-232.079 289,-235.5 328.547,-278.255 284.639,-319.512 325,-361.5 326.408,-362.965 327.903,-364.343 329.47,-365.641"/>
<polygon fill="midnightblue" stroke="midnightblue" points="327.642,-368.633 337.846,-371.482 331.646,-362.891 327.642,-368.633"/>
</g>
<!-- Node199 -->
<g id="node5" class="node"><title>Node199</title>
<g id="a_node5"><a xlink:href="namespaceinout.html#a0c10a45877a347dec0d4ec4e5b05b828" target="_top" xlink:title="inout::containerprint">
<polygon fill="white" stroke="black" points="350.5,-333 350.5,-352 453.5,-352 453.5,-333 350.5,-333"/>
<text text-anchor="middle" x="402" y="-340" font-family="Helvetica,sans-Serif" font-size="10.00">inout::containerprint</text>
</a>
</g>
</g>
<!-- Node197&#45;&gt;Node199 -->
<g id="edge4" class="edge"><title>Node197&#45;&gt;Node199</title>
<path fill="none" stroke="midnightblue" d="M277.12,-226.639C281.435,-229.16 285.481,-232.092 289,-235.5 319.356,-264.897 293.057,-295.836 325,-323.5 329.61,-327.493 334.938,-330.67 340.589,-333.194"/>
<polygon fill="midnightblue" stroke="midnightblue" points="339.745,-336.616 350.337,-336.855 342.206,-330.063 339.745,-336.616"/>
</g>
<!-- Node200 -->
<g id="node6" class="node"><title>Node200</title>
<g id="a_node6"><a xlink:href="classds_1_1_iterator_partition_linked.html#af0e179fae69c0d4f047082ee44783613" target="_top" xlink:title="ds::IteratorPartitionLinked::end">
<polygon fill="white" stroke="black" points="325,-295 325,-314 479,-314 479,-295 325,-295"/>
<text text-anchor="middle" x="402" y="-302" font-family="Helvetica,sans-Serif" font-size="10.00">ds::IteratorPartitionLinked::end</text>
</a>
</g>
</g>
<!-- Node197&#45;&gt;Node200 -->
<g id="edge5" class="edge"><title>Node197&#45;&gt;Node200</title>
<path fill="none" stroke="midnightblue" d="M274.315,-226.604C279.508,-229.166 284.518,-232.116 289,-235.5 310.567,-251.783 302.655,-269.303 325,-284.5 328.718,-287.028 332.738,-289.237 336.92,-291.167"/>
<polygon fill="midnightblue" stroke="midnightblue" points="335.7,-294.449 346.283,-294.961 338.329,-287.962 335.7,-294.449"/>
</g>
<!-- Node201 -->
<g id="node7" class="node"><title>Node201</title>
<g id="a_node7"><a xlink:href="classds_1_1_partition_linked.html#a70877e6d118d2f041d9006fdf565daec" target="_top" xlink:title="ds::PartitionLinked\l::getNumInstances">
<polygon fill="white" stroke="black" points="352,-245.5 352,-275.5 452,-275.5 452,-245.5 352,-245.5"/>
<text text-anchor="start" x="360" y="-263.5" font-family="Helvetica,sans-Serif" font-size="10.00">ds::PartitionLinked</text>
<text text-anchor="middle" x="402" y="-252.5" font-family="Helvetica,sans-Serif" font-size="10.00">::getNumInstances</text>
</a>
</g>
</g>
<!-- Node197&#45;&gt;Node201 -->
<g id="edge6" class="edge"><title>Node197&#45;&gt;Node201</title>
<path fill="none" stroke="midnightblue" d="M278.896,-226.601C298.916,-232.16 321.677,-238.478 342.078,-244.142"/>
<polygon fill="midnightblue" stroke="midnightblue" points="341.309,-247.561 351.881,-246.863 343.181,-240.816 341.309,-247.561"/>
</g>
<!-- Node202 -->
<g id="node8" class="node"><title>Node202</title>
<g id="a_node8"><a xlink:href="classds_1_1_partition_linked_stats.html#aea3a5b61e78f2aa7bb44b1d1a9e25b59" target="_top" xlink:title="ds::PartitionLinkedStats\l::getNumPartitions">
<polygon fill="white" stroke="black" points="341,-196.5 341,-226.5 463,-226.5 463,-196.5 341,-196.5"/>
<text text-anchor="start" x="349" y="-214.5" font-family="Helvetica,sans-Serif" font-size="10.00">ds::PartitionLinkedStats</text>
<text text-anchor="middle" x="402" y="-203.5" font-family="Helvetica,sans-Serif" font-size="10.00">::getNumPartitions</text>
</a>
</g>
</g>
<!-- Node197&#45;&gt;Node202 -->
<g id="edge7" class="edge"><title>Node197&#45;&gt;Node202</title>
<path fill="none" stroke="midnightblue" d="M284.748,-211.5C299.434,-211.5 315.275,-211.5 330.395,-211.5"/>
<polygon fill="midnightblue" stroke="midnightblue" points="330.724,-215 340.724,-211.5 330.724,-208 330.724,-215"/>
</g>
<!-- Node204 -->
<g id="node10" class="node"><title>Node204</title>
<g id="a_node10"><a xlink:href="classds_1_1_iterator_partition_linked.html#a1a031c033d0d2d1c6982ced4e0473831" target="_top" xlink:title="ds::IteratorPartitionLinked\l::getValue">
<polygon fill="white" stroke="black" points="336.5,-147.5 336.5,-177.5 467.5,-177.5 467.5,-147.5 336.5,-147.5"/>
<text text-anchor="start" x="344.5" y="-165.5" font-family="Helvetica,sans-Serif" font-size="10.00">ds::IteratorPartitionLinked</text>
<text text-anchor="middle" x="402" y="-154.5" font-family="Helvetica,sans-Serif" font-size="10.00">::getValue</text>
</a>
</g>
</g>
<!-- Node197&#45;&gt;Node204 -->
<g id="edge9" class="edge"><title>Node197&#45;&gt;Node204</title>
<path fill="none" stroke="midnightblue" d="M278.896,-196.399C297.268,-191.298 317.947,-185.557 336.993,-180.27"/>
<polygon fill="midnightblue" stroke="midnightblue" points="338.084,-183.599 346.784,-177.552 336.212,-176.854 338.084,-183.599"/>
</g>
<!-- Node205 -->
<g id="node11" class="node"><title>Node205</title>
<g id="a_node11"><a xlink:href="classds_1_1_iterator_partition_linked.html#a83b887be41c97dc0bdfc47a02abbc383" target="_top" xlink:title="ds::IteratorPartitionLinked\l::next">
<polygon fill="white" stroke="black" points="336.5,-98.5 336.5,-128.5 467.5,-128.5 467.5,-98.5 336.5,-98.5"/>
<text text-anchor="start" x="344.5" y="-116.5" font-family="Helvetica,sans-Serif" font-size="10.00">ds::IteratorPartitionLinked</text>
<text text-anchor="middle" x="402" y="-105.5" font-family="Helvetica,sans-Serif" font-size="10.00">::next</text>
</a>
</g>
</g>
<!-- Node197&#45;&gt;Node205 -->
<g id="edge10" class="edge"><title>Node197&#45;&gt;Node205</title>
<path fill="none" stroke="midnightblue" d="M272.651,-196.408C278.436,-193.582 284.042,-190.297 289,-186.5 310.456,-170.071 303.03,-153.235 325,-137.5 327.116,-135.984 329.332,-134.562 331.621,-133.227"/>
<polygon fill="midnightblue" stroke="midnightblue" points="333.484,-136.204 340.758,-128.501 330.268,-129.986 333.484,-136.204"/>
</g>
<!-- Node206 -->
<g id="node12" class="node"><title>Node206</title>
<g id="a_node12"><a xlink:href="classds_1_1_partition_linked.html#a6a7de3bc18b0904e2e23536a336e42a8" target="_top" xlink:title="ds::PartitionLinked\l::print">
<polygon fill="white" stroke="black" points="352,-49.5 352,-79.5 452,-79.5 452,-49.5 352,-49.5"/>
<text text-anchor="start" x="360" y="-67.5" font-family="Helvetica,sans-Serif" font-size="10.00">ds::PartitionLinked</text>
<text text-anchor="middle" x="402" y="-56.5" font-family="Helvetica,sans-Serif" font-size="10.00">::print</text>
</a>
</g>
</g>
<!-- Node197&#45;&gt;Node206 -->
<g id="edge11" class="edge"><title>Node197&#45;&gt;Node206</title>
<path fill="none" stroke="midnightblue" d="M276.003,-196.403C280.764,-193.627 285.213,-190.355 289,-186.5 321.519,-153.4 291.441,-120.545 325,-88.5 329.975,-83.7491 335.885,-79.9383 342.178,-76.8817"/>
<polygon fill="midnightblue" stroke="midnightblue" points="343.744,-80.0203 351.608,-72.9213 341.033,-73.5663 343.744,-80.0203"/>
</g>
<!-- Node208 -->
<g id="node14" class="node"><title>Node208</title>
<g id="a_node14"><a xlink:href="classmat_1_1_matrix_resizable_row.html#a566801d937643cf5937b61bf321b01b7" target="_top" xlink:title="mat::MatrixResizableRow\l::print">
<polygon fill="white" stroke="black" points="336.5,-0.5 336.5,-30.5 467.5,-30.5 467.5,-0.5 336.5,-0.5"/>
<text text-anchor="start" x="344.5" y="-18.5" font-family="Helvetica,sans-Serif" font-size="10.00">mat::MatrixResizableRow</text>
<text text-anchor="middle" x="402" y="-7.5" font-family="Helvetica,sans-Serif" font-size="10.00">::print</text>
</a>
</g>
</g>
<!-- Node197&#45;&gt;Node208 -->
<g id="edge13" class="edge"><title>Node197&#45;&gt;Node208</title>
<path fill="none" stroke="midnightblue" d="M277.075,-196.438C281.51,-193.663 285.593,-190.38 289,-186.5 333.383,-135.957 279.025,-88.5995 325,-39.5 325.931,-38.5058 326.903,-37.5525 327.911,-36.6385"/>
<polygon fill="midnightblue" stroke="midnightblue" points="330.369,-39.1701 336.274,-30.3733 326.172,-33.5678 330.369,-39.1701"/>
</g>
<!-- Node203 -->
<g id="node9" class="node"><title>Node203</title>
<g id="a_node9"><a xlink:href="classmat_1_1_matrix_base.html#ac500eedd5e203327d3292f8ab22d8f3e" target="_top" xlink:title="mat::MatrixBase::getNumRows">
<polygon fill="white" stroke="black" points="515,-202 515,-221 671,-221 671,-202 515,-202"/>
<text text-anchor="middle" x="593" y="-209" font-family="Helvetica,sans-Serif" font-size="10.00">mat::MatrixBase::getNumRows</text>
</a>
</g>
</g>
<!-- Node202&#45;&gt;Node203 -->
<g id="edge8" class="edge"><title>Node202&#45;&gt;Node203</title>
<path fill="none" stroke="midnightblue" d="M463.06,-211.5C476.281,-211.5 490.544,-211.5 504.596,-211.5"/>
<polygon fill="midnightblue" stroke="midnightblue" points="504.773,-215 514.773,-211.5 504.773,-208 504.773,-215"/>
</g>
<!-- Node207 -->
<g id="node13" class="node"><title>Node207</title>
<g id="a_node13"><a xlink:href="classds_1_1_partition_linked.html#a696f58c4d25fd41adf281d1468440dc9" target="_top" xlink:title="ds::PartitionLinked\l::getNumPartitions">
<polygon fill="white" stroke="black" points="543,-49.5 543,-79.5 643,-79.5 643,-49.5 543,-49.5"/>
<text text-anchor="start" x="551" y="-67.5" font-family="Helvetica,sans-Serif" font-size="10.00">ds::PartitionLinked</text>
<text text-anchor="middle" x="593" y="-56.5" font-family="Helvetica,sans-Serif" font-size="10.00">::getNumPartitions</text>
</a>
</g>
</g>
<!-- Node206&#45;&gt;Node207 -->
<g id="edge12" class="edge"><title>Node206&#45;&gt;Node207</title>
<path fill="none" stroke="midnightblue" d="M452.164,-64.5C476.786,-64.5 506.79,-64.5 532.682,-64.5"/>
<polygon fill="midnightblue" stroke="midnightblue" points="532.754,-68.0001 542.754,-64.5 532.754,-61.0001 532.754,-68.0001"/>
</g>
</g>
</svg>
        <g id="navigator" transform="translate(0 0)" fill="#404254">
                <rect fill="#f2f5e9" fill-opacity="0.5" stroke="#606060" stroke-width=".5" x="0" y="0" width="60" height="60"/>
                <use id="zoomplus" xlink:href="#zoomPlus" x="17" y="9" onmousedown="handleZoom(evt,'in')"/>
                <use id="zoomminus" xlink:href="#zoomMin" x="42" y="9" onmousedown="handleZoom(evt,'out')"/>
                <use id="reset" xlink:href="#resetDef" x="30" y="36" onmousedown="handleReset()"/>
                <g id="arrowUp" xlink:href="#dirArrow" transform="translate(30 24)" onmousedown="handlePan(0,-1)">
                  <use xlink:href="#rim" fill="#404040">
                        <set attributeName="fill" to="#808080" begin="arrowUp.mouseover" end="arrowUp.mouseout"/>
                  </use>
                  <path fill="none" stroke="white" stroke-width="1.5" d="M0,-3.0v7 M-2.5,-0.5L0,-3.0L2.5,-0.5"/>
                </g>
                <g id="arrowRight" xlink:href="#dirArrow" transform="rotate(90) translate(36 -43)" onmousedown="handlePan(1,0)">
                  <use xlink:href="#rim" fill="#404040">
                        <set attributeName="fill" to="#808080" begin="arrowRight.mouseover" end="arrowRight.mouseout"/>
                  </use>
                  <path fill="none" stroke="white" stroke-width="1.5" d="M0,-3.0v7 M-2.5,-0.5L0,-3.0L2.5,-0.5"/>
                </g>
                <g id="arrowDown" xlink:href="#dirArrow" transform="rotate(180) translate(-30 -48)" onmousedown="handlePan(0,1)">
                  <use xlink:href="#rim" fill="#404040">
                        <set attributeName="fill" to="#808080" begin="arrowDown.mouseover" end="arrowDown.mouseout"/>
                  </use>
                  <path fill="none" stroke="white" stroke-width="1.5" d="M0,-3.0v7 M-2.5,-0.5L0,-3.0L2.5,-0.5"/>
                </g>
                <g id="arrowLeft" xlink:href="#dirArrow" transform="rotate(270) translate(-36 17)" onmousedown="handlePan(-1,0)">
                  <use xlink:href="#rim" fill="#404040">
                        <set attributeName="fill" to="#808080" begin="arrowLeft.mouseover" end="arrowLeft.mouseout"/>
                  </use>
                  <path fill="none" stroke="white" stroke-width="1.5" d="M0,-3.0v7 M-2.5,-0.5L0,-3.0L2.5,-0.5"/>
                </g>
        </g>
        <svg viewBox="0 0 15 15" width="100%" height="30px" preserveAspectRatio="xMaxYMin meet">
         <g id="arrow_out" transform="scale(0.3 0.3)">
          <a xlink:href="classds_1_1_partition_linked_stats_a67b055eaf8d74128ba8cb3fa6ff1c6bb_cgraph_org.svg" target="_base">
           <rect id="button" ry="5" rx="5" y="6" x="6" height="38" width="38"
                fill="#f2f5e9" fill-opacity="0.5" stroke="#606060" stroke-width="1.0"/>
           <path id="arrow"
             d="M 11.500037,31.436501 C 11.940474,20.09759 22.043105,11.32322 32.158766,21.979434 L 37.068811,17.246167 C 37.068811,17.246167 37.088388,32 37.088388,32 L 22.160133,31.978069 C 22.160133,31.978069 26.997745,27.140456 26.997745,27.140456 C 18.528582,18.264221 13.291696,25.230495 11.500037,31.436501 z"
             style="fill:#404040;"/>
          </a>
         </g>
        </svg>
</svg>
