<?xml version="1.0" encoding="UTF-8" standalone="no"?>
<!DOCTYPE svg PUBLIC "-//W3C//DTD SVG 1.1//EN"
 "http://www.w3.org/Graphics/SVG/1.1/DTD/svg11.dtd">
<!-- Generated by graphviz version 2.38.0 (20140413.2041)
 -->
<!-- Title: inout::InParamPcPmVk::print Pages: 1 -->
<!--zoomable 298 -->
<svg id="main" version="1.1" xmlns="http://www.w3.org/2000/svg" xmlns:xlink="http://www.w3.org/1999/xlink" xml:space="preserve" onload="init(evt)">
<style type="text/css"><![CDATA[
.edge:hover path { stroke: red; }
.edge:hover polygon { stroke: red; fill: red; }
]]></style>
<script type="text/javascript"><![CDATA[
var edges = document.getElementsByTagName('g');
if (edges && edges.length) {
  for (var i=0;i<edges.length;i++) {
    if (edges[i].id.substr(0,4)=='edge') {
      edges[i].setAttribute('class','edge');
    }
  }
}
]]></script>
        <defs>
                <circle id="rim" cx="0" cy="0" r="7"/>
                <circle id="rim2" cx="0" cy="0" r="3.5"/>
                <g id="zoomPlus">
                        <use xlink:href="#rim" fill="#404040">
                                <set attributeName="fill" to="#808080" begin="zoomplus.mouseover" end="zoomplus.mouseout"/>
                        </use>
                        <path d="M-4,0h8M0,-4v8" fill="none" stroke="white" stroke-width="1.5" pointer-events="none"/>
                </g>
                <g id="zoomMin">
                        <use xlink:href="#rim" fill="#404040">
                                <set attributeName="fill" to="#808080" begin="zoomminus.mouseover" end="zoomminus.mouseout"/>
                        </use>
                        <path d="M-4,0h8" fill="none" stroke="white" stroke-width="1.5" pointer-events="none"/>
                </g>
                <g id="dirArrow">
                        <path fill="none" stroke="white" stroke-width="1.5" d="M0,-3.0v7 M-2.5,-0.5L0,-3.0L2.5,-0.5"/>
                </g>
               <g id="resetDef">
                       <use xlink:href="#rim2" fill="#404040">
                               <set attributeName="fill" to="#808080" begin="reset.mouseover" end="reset.mouseout"/>
                       </use>
               </g>
        </defs>

<script type="text/javascript">
var viewWidth = 801;
var viewHeight = 298;
var sectionId = 'dynsection-2';
</script>
<script xlink:href="svgpan.js"/>
<svg id="graph" class="graph">
<g id="viewport">
<title>inout::InParamPcPmVk::print</title>
<polygon fill="white" stroke="none" points="-4,4 -4,-293.5 797,-293.5 797,4 -4,4"/>
<!-- Node2 -->
<g id="node1" class="node"><title>Node2</title>
<polygon fill="#bfbfbf" stroke="black" points="0,-220.5 0,-250.5 120,-250.5 120,-220.5 0,-220.5"/>
<text text-anchor="start" x="8" y="-238.5" font-family="Helvetica,sans-Serif" font-size="10.00">inout::InParamPcPmVk</text>
<text text-anchor="middle" x="60" y="-227.5" font-family="Helvetica,sans-Serif" font-size="10.00">::print</text>
</g>
<!-- Node3 -->
<g id="node2" class="node"><title>Node3</title>
<g id="a_node2"><a xlink:href="classinout_1_1_in_param_vk.html#a67161e8a6f9c2167e0b0f2c913ee1d3a" target="_top" xlink:title="inout::InParamVk::print">
<polygon fill="white" stroke="black" points="158,-270 158,-289 275,-289 275,-270 158,-270"/>
<text text-anchor="middle" x="216.5" y="-277" font-family="Helvetica,sans-Serif" font-size="10.00">inout::InParamVk::print</text>
</a>
</g>
</g>
<!-- Node2&#45;&gt;Node3 -->
<g id="edge1" class="edge"><title>Node2&#45;&gt;Node3</title>
<path fill="none" stroke="midnightblue" d="M113.738,-250.519C132.768,-255.939 154.011,-261.989 172.146,-267.153"/>
<polygon fill="midnightblue" stroke="midnightblue" points="171.291,-270.549 181.867,-269.922 173.208,-263.816 171.291,-270.549"/>
</g>
<!-- Node4 -->
<g id="node3" class="node"><title>Node4</title>
<g id="a_node3"><a xlink:href="classinout_1_1_in_param_pc_pm.html#a03e0d1e22286e0bee575d6a3d1e50db3" target="_top" xlink:title="inout::InParamPcPm\l::print">
<polygon fill="white" stroke="black" points="162.5,-220.5 162.5,-250.5 270.5,-250.5 270.5,-220.5 162.5,-220.5"/>
<text text-anchor="start" x="170.5" y="-238.5" font-family="Helvetica,sans-Serif" font-size="10.00">inout::InParamPcPm</text>
<text text-anchor="middle" x="216.5" y="-227.5" font-family="Helvetica,sans-Serif" font-size="10.00">::print</text>
</a>
</g>
</g>
<!-- Node2&#45;&gt;Node4 -->
<g id="edge2" class="edge"><title>Node2&#45;&gt;Node4</title>
<path fill="none" stroke="midnightblue" d="M120.292,-235.5C130.631,-235.5 141.425,-235.5 151.875,-235.5"/>
<polygon fill="midnightblue" stroke="midnightblue" points="152.181,-239 162.181,-235.5 152.181,-232 152.181,-239"/>
</g>
<!-- Node8 -->
<g id="node7" class="node"><title>Node8</title>
<g id="a_node7"><a xlink:href="classinout_1_1_in_param_read_inst.html#af8511d4844e09033e170fadca2e3abd2" target="_top" xlink:title="inout::InParamReadInst\l::print">
<polygon fill="white" stroke="black" points="156,-122.5 156,-152.5 277,-152.5 277,-122.5 156,-122.5"/>
<text text-anchor="start" x="164" y="-140.5" font-family="Helvetica,sans-Serif" font-size="10.00">inout::InParamReadInst</text>
<text text-anchor="middle" x="216.5" y="-129.5" font-family="Helvetica,sans-Serif" font-size="10.00">::print</text>
</a>
</g>
</g>
<!-- Node2&#45;&gt;Node8 -->
<g id="edge6" class="edge"><title>Node2&#45;&gt;Node8</title>
<path fill="none" stroke="midnightblue" d="M84.802,-220.402C111.114,-203.713 153.651,-176.731 183.014,-158.106"/>
<polygon fill="midnightblue" stroke="midnightblue" points="185.101,-160.927 191.671,-152.615 181.352,-155.016 185.101,-160.927"/>
</g>
<!-- Node5 -->
<g id="node4" class="node"><title>Node5</title>
<g id="a_node4"><a xlink:href="classinout_1_1_in_param_g_a_clustering.html#a5d441a0cbbc91fa20c44520560fffe30" target="_top" xlink:title="inout::InParamGAClustering\l::print">
<polygon fill="white" stroke="black" points="319,-245.5 319,-275.5 460,-275.5 460,-245.5 319,-245.5"/>
<text text-anchor="start" x="327" y="-263.5" font-family="Helvetica,sans-Serif" font-size="10.00">inout::InParamGAClustering</text>
<text text-anchor="middle" x="389.5" y="-252.5" font-family="Helvetica,sans-Serif" font-size="10.00">::print</text>
</a>
</g>
</g>
<!-- Node4&#45;&gt;Node5 -->
<g id="edge3" class="edge"><title>Node4&#45;&gt;Node5</title>
<path fill="none" stroke="midnightblue" d="M270.668,-243.273C282.659,-245.026 295.645,-246.925 308.466,-248.799"/>
<polygon fill="midnightblue" stroke="midnightblue" points="308.29,-252.311 318.691,-250.294 309.303,-245.384 308.29,-252.311"/>
</g>
<!-- Node6 -->
<g id="node5" class="node"><title>Node6</title>
<g id="a_node5"><a xlink:href="classinout_1_1_in_param_clustering.html#a8c6c0fafcd08e2de1d2f336ca30894d9" target="_top" xlink:title="inout::InParamClustering\l::print">
<polygon fill="white" stroke="black" points="502,-245.5 502,-275.5 628,-275.5 628,-245.5 502,-245.5"/>
<text text-anchor="start" x="510" y="-263.5" font-family="Helvetica,sans-Serif" font-size="10.00">inout::InParamClustering</text>
<text text-anchor="middle" x="565" y="-252.5" font-family="Helvetica,sans-Serif" font-size="10.00">::print</text>
</a>
</g>
</g>
<!-- Node5&#45;&gt;Node6 -->
<g id="edge4" class="edge"><title>Node5&#45;&gt;Node6</title>
<path fill="none" stroke="midnightblue" d="M460.069,-260.5C470.572,-260.5 481.424,-260.5 491.976,-260.5"/>
<polygon fill="midnightblue" stroke="midnightblue" points="491.981,-264 501.981,-260.5 491.981,-257 491.981,-264"/>
</g>
<!-- Node7 -->
<g id="node6" class="node"><title>Node7</title>
<g id="a_node6"><a xlink:href="classinout_1_1_in_param_algorithmo.html#a97ec15acf20ba619b4538d193125a082" target="_top" xlink:title="inout::InParamAlgorithmo\l::print">
<polygon fill="white" stroke="black" points="664,-245.5 664,-275.5 793,-275.5 793,-245.5 664,-245.5"/>
<text text-anchor="start" x="672" y="-263.5" font-family="Helvetica,sans-Serif" font-size="10.00">inout::InParamAlgorithmo</text>
<text text-anchor="middle" x="728.5" y="-252.5" font-family="Helvetica,sans-Serif" font-size="10.00">::print</text>
</a>
</g>
</g>
<!-- Node6&#45;&gt;Node7 -->
<g id="edge5" class="edge"><title>Node6&#45;&gt;Node7</title>
<path fill="none" stroke="midnightblue" d="M628.44,-260.5C636.707,-260.5 645.244,-260.5 653.679,-260.5"/>
<polygon fill="midnightblue" stroke="midnightblue" points="653.893,-264 663.893,-260.5 653.893,-257 653.893,-264"/>
</g>
<!-- Node9 -->
<g id="node8" class="node"><title>Node9</title>
<g id="a_node8"><a xlink:href="classinout_1_1_in_param_read_inst.html#a797250bacc8d887b96fa19247c5dd13f" target="_top" xlink:title="inout::InParamReadInst\l::getCurrentFileInstance">
<polygon fill="white" stroke="black" points="328,-196.5 328,-226.5 451,-226.5 451,-196.5 328,-196.5"/>
<text text-anchor="start" x="336" y="-214.5" font-family="Helvetica,sans-Serif" font-size="10.00">inout::InParamReadInst</text>
<text text-anchor="middle" x="389.5" y="-203.5" font-family="Helvetica,sans-Serif" font-size="10.00">::getCurrentFileInstance</text>
</a>
</g>
</g>
<!-- Node8&#45;&gt;Node9 -->
<g id="edge7" class="edge"><title>Node8&#45;&gt;Node9</title>
<path fill="none" stroke="midnightblue" d="M244.14,-152.575C263.009,-162.901 289.111,-176.487 313,-186.5 318.384,-188.757 324.049,-190.95 329.756,-193.039"/>
<polygon fill="midnightblue" stroke="midnightblue" points="328.761,-196.4 339.356,-196.45 331.105,-189.804 328.761,-196.4"/>
</g>
<!-- Node10 -->
<g id="node9" class="node"><title>Node10</title>
<g id="a_node9"><a xlink:href="classinout_1_1_in_param_read_inst.html#a2bfdb61b53cf2421d4d7b77f1e117957" target="_top" xlink:title="inout::InParamReadInst\l::getNumInstances">
<polygon fill="white" stroke="black" points="329,-147.5 329,-177.5 450,-177.5 450,-147.5 329,-147.5"/>
<text text-anchor="start" x="337" y="-165.5" font-family="Helvetica,sans-Serif" font-size="10.00">inout::InParamReadInst</text>
<text text-anchor="middle" x="389.5" y="-154.5" font-family="Helvetica,sans-Serif" font-size="10.00">::getNumInstances</text>
</a>
</g>
</g>
<!-- Node8&#45;&gt;Node10 -->
<g id="edge8" class="edge"><title>Node8&#45;&gt;Node10</title>
<path fill="none" stroke="midnightblue" d="M277.308,-146.244C290.715,-148.204 305.052,-150.3 318.822,-152.313"/>
<polygon fill="midnightblue" stroke="midnightblue" points="318.325,-155.778 328.726,-153.761 319.338,-148.851 318.325,-155.778"/>
</g>
<!-- Node11 -->
<g id="node10" class="node"><title>Node11</title>
<g id="a_node10"><a xlink:href="classinout_1_1_in_param_read_inst.html#a175c4744ce41558415b2dc3555701edd" target="_top" xlink:title="inout::InParamReadInst\l::getNumDimensionsInstances">
<polygon fill="white" stroke="black" points="313,-98.5 313,-128.5 466,-128.5 466,-98.5 313,-98.5"/>
<text text-anchor="start" x="321" y="-116.5" font-family="Helvetica,sans-Serif" font-size="10.00">inout::InParamReadInst</text>
<text text-anchor="middle" x="389.5" y="-105.5" font-family="Helvetica,sans-Serif" font-size="10.00">::getNumDimensionsInstances</text>
</a>
</g>
</g>
<!-- Node8&#45;&gt;Node11 -->
<g id="edge9" class="edge"><title>Node8&#45;&gt;Node11</title>
<path fill="none" stroke="midnightblue" d="M277.308,-129.106C285.545,-127.95 294.134,-126.744 302.726,-125.539"/>
<polygon fill="midnightblue" stroke="midnightblue" points="303.377,-128.982 312.793,-124.126 302.404,-122.049 303.377,-128.982"/>
</g>
<!-- Node12 -->
<g id="node11" class="node"><title>Node12</title>
<g id="a_node11"><a xlink:href="classinout_1_1_in_param_read_inst.html#ab91dbd838ea608bd3bf963bb97398747" target="_top" xlink:title="inout::InParamReadInst\l::getCurrentFileInstanceTest">
<polygon fill="white" stroke="black" points="317.5,-49.5 317.5,-79.5 461.5,-79.5 461.5,-49.5 317.5,-49.5"/>
<text text-anchor="start" x="325.5" y="-67.5" font-family="Helvetica,sans-Serif" font-size="10.00">inout::InParamReadInst</text>
<text text-anchor="middle" x="389.5" y="-56.5" font-family="Helvetica,sans-Serif" font-size="10.00">::getCurrentFileInstanceTest</text>
</a>
</g>
</g>
<!-- Node8&#45;&gt;Node12 -->
<g id="edge10" class="edge"><title>Node8&#45;&gt;Node12</title>
<path fill="none" stroke="midnightblue" d="M244.103,-122.335C262.955,-111.968 289.052,-98.3699 313,-88.5 317.649,-86.5838 322.511,-84.7254 327.429,-82.9474"/>
<polygon fill="midnightblue" stroke="midnightblue" points="328.629,-86.2356 336.915,-79.6332 326.32,-79.6272 328.629,-86.2356"/>
</g>
<!-- Node13 -->
<g id="node12" class="node"><title>Node13</title>
<g id="a_node12"><a xlink:href="classinout_1_1_in_param_read_inst.html#a6539b0e38e129a23eae4cb506e4c08f1" target="_top" xlink:title="inout::InParamReadInst\l::getNumInstancesTest">
<polygon fill="white" stroke="black" points="329,-0.5 329,-30.5 450,-30.5 450,-0.5 329,-0.5"/>
<text text-anchor="start" x="337" y="-18.5" font-family="Helvetica,sans-Serif" font-size="10.00">inout::InParamReadInst</text>
<text text-anchor="middle" x="389.5" y="-7.5" font-family="Helvetica,sans-Serif" font-size="10.00">::getNumInstancesTest</text>
</a>
</g>
</g>
<!-- Node8&#45;&gt;Node13 -->
<g id="edge11" class="edge"><title>Node8&#45;&gt;Node13</title>
<path fill="none" stroke="midnightblue" d="M228.401,-122.298C244.542,-100.85 276.815,-61.8371 313,-39.5 315.75,-37.8022 318.632,-36.2138 321.598,-34.7292"/>
<polygon fill="midnightblue" stroke="midnightblue" points="323.052,-37.9129 330.699,-30.5804 320.148,-31.5435 323.052,-37.9129"/>
</g>
</g>
</svg>
        <g id="navigator" transform="translate(0 0)" fill="#404254">
                <rect fill="#f2f5e9" fill-opacity="0.5" stroke="#606060" stroke-width=".5" x="0" y="0" width="60" height="60"/>
                <use id="zoomplus" xlink:href="#zoomPlus" x="17" y="9" onmousedown="handleZoom(evt,'in')"/>
                <use id="zoomminus" xlink:href="#zoomMin" x="42" y="9" onmousedown="handleZoom(evt,'out')"/>
                <use id="reset" xlink:href="#resetDef" x="30" y="36" onmousedown="handleReset()"/>
                <g id="arrowUp" xlink:href="#dirArrow" transform="translate(30 24)" onmousedown="handlePan(0,-1)">
                  <use xlink:href="#rim" fill="#404040">
                        <set attributeName="fill" to="#808080" begin="arrowUp.mouseover" end="arrowUp.mouseout"/>
                  </use>
                  <path fill="none" stroke="white" stroke-width="1.5" d="M0,-3.0v7 M-2.5,-0.5L0,-3.0L2.5,-0.5"/>
                </g>
                <g id="arrowRight" xlink:href="#dirArrow" transform="rotate(90) translate(36 -43)" onmousedown="handlePan(1,0)">
                  <use xlink:href="#rim" fill="#404040">
                        <set attributeName="fill" to="#808080" begin="arrowRight.mouseover" end="arrowRight.mouseout"/>
                  </use>
                  <path fill="none" stroke="white" stroke-width="1.5" d="M0,-3.0v7 M-2.5,-0.5L0,-3.0L2.5,-0.5"/>
                </g>
                <g id="arrowDown" xlink:href="#dirArrow" transform="rotate(180) translate(-30 -48)" onmousedown="handlePan(0,1)">
                  <use xlink:href="#rim" fill="#404040">
                        <set attributeName="fill" to="#808080" begin="arrowDown.mouseover" end="arrowDown.mouseout"/>
                  </use>
                  <path fill="none" stroke="white" stroke-width="1.5" d="M0,-3.0v7 M-2.5,-0.5L0,-3.0L2.5,-0.5"/>
                </g>
                <g id="arrowLeft" xlink:href="#dirArrow" transform="rotate(270) translate(-36 17)" onmousedown="handlePan(-1,0)">
                  <use xlink:href="#rim" fill="#404040">
                        <set attributeName="fill" to="#808080" begin="arrowLeft.mouseover" end="arrowLeft.mouseout"/>
                  </use>
                  <path fill="none" stroke="white" stroke-width="1.5" d="M0,-3.0v7 M-2.5,-0.5L0,-3.0L2.5,-0.5"/>
                </g>
        </g>
        <svg viewBox="0 0 15 15" width="100%" height="30px" preserveAspectRatio="xMaxYMin meet">
         <g id="arrow_out" transform="scale(0.3 0.3)">
          <a xlink:href="classinout_1_1_in_param_pc_pm_vk_a1764c7e570942d50e91c63d3c341e8b1_cgraph_org.svg" target="_base">
           <rect id="button" ry="5" rx="5" y="6" x="6" height="38" width="38"
                fill="#f2f5e9" fill-opacity="0.5" stroke="#606060" stroke-width="1.0"/>
           <path id="arrow"
             d="M 11.500037,31.436501 C 11.940474,20.09759 22.043105,11.32322 32.158766,21.979434 L 37.068811,17.246167 C 37.068811,17.246167 37.088388,32 37.088388,32 L 22.160133,31.978069 C 22.160133,31.978069 26.997745,27.140456 26.997745,27.140456 C 18.528582,18.264221 13.291696,25.230495 11.500037,31.436501 z"
             style="fill:#404040;"/>
          </a>
         </g>
        </svg>
</svg>
