<?xml version="1.0" encoding="UTF-8" standalone="no"?>
<!DOCTYPE svg PUBLIC "-//W3C//DTD SVG 1.1//EN"
 "http://www.w3.org/Graphics/SVG/1.1/DTD/svg11.dtd">
<!-- Generated by graphviz version 2.38.0 (20140413.2041)
 -->
<!-- Title: gafuncobj::GAFuncObjSSE&lt; T_FEATURE, T_CLUSTERIDX, T_METRIC, INPUT_ITERATOR &gt; Pages: 1 -->
<svg width="386pt" height="485pt"
 viewBox="0.00 0.00 385.50 485.00" xmlns="http://www.w3.org/2000/svg" xmlns:xlink="http://www.w3.org/1999/xlink">
<g id="graph0" class="graph" transform="scale(1 1) rotate(0) translate(4 481)">
<title>gafuncobj::GAFuncObjSSE&lt; T_FEATURE, T_CLUSTERIDX, T_METRIC, INPUT_ITERATOR &gt;</title>
<polygon fill="white" stroke="none" points="-4,4 -4,-481 381.5,-481 381.5,4 -4,4"/>
<!-- Node3 -->
<g id="node1" class="node"><title>Node3</title>
<polygon fill="#bfbfbf" stroke="black" points="89.5,-0.5 89.5,-178.5 261.5,-178.5 261.5,-0.5 89.5,-0.5"/>
<text text-anchor="start" x="97.5" y="-166.5" font-family="Helvetica,sans-Serif" font-size="10.00">gafuncobj::GAFuncObjSSE</text>
<text text-anchor="start" x="97.5" y="-155.5" font-family="Helvetica,sans-Serif" font-size="10.00">&lt; T_FEATURE, T_CLUSTERIDX,</text>
<text text-anchor="middle" x="175.5" y="-144.5" font-family="Helvetica,sans-Serif" font-size="10.00"> T_METRIC, INPUT_ITERATOR &gt;</text>
<polyline fill="none" stroke="black" points="89.5,-137.5 261.5,-137.5 "/>
<text text-anchor="start" x="97.5" y="-125.5" font-family="Helvetica,sans-Serif" font-size="10.00"># _cidx_numClustersK</text>
<text text-anchor="start" x="97.5" y="-114.5" font-family="Helvetica,sans-Serif" font-size="10.00"># _iterator_instfirst</text>
<text text-anchor="start" x="97.5" y="-103.5" font-family="Helvetica,sans-Serif" font-size="10.00"># _iterator_instlast</text>
<polyline fill="none" stroke="black" points="89.5,-96.5 261.5,-96.5 "/>
<text text-anchor="start" x="97.5" y="-84.5" font-family="Helvetica,sans-Serif" font-size="10.00">+ GAFuncObjSSE()</text>
<text text-anchor="start" x="97.5" y="-73.5" font-family="Helvetica,sans-Serif" font-size="10.00">+ ~GAFuncObjSSE()</text>
<text text-anchor="start" x="97.5" y="-62.5" font-family="Helvetica,sans-Serif" font-size="10.00">+ GAFuncObjSSE()</text>
<text text-anchor="start" x="97.5" y="-51.5" font-family="Helvetica,sans-Serif" font-size="10.00">+ GAFuncObjSSE()</text>
<text text-anchor="start" x="97.5" y="-40.5" font-family="Helvetica,sans-Serif" font-size="10.00">+ operator=()</text>
<text text-anchor="start" x="97.5" y="-29.5" font-family="Helvetica,sans-Serif" font-size="10.00">+ operator=()</text>
<text text-anchor="start" x="97.5" y="-18.5" font-family="Helvetica,sans-Serif" font-size="10.00">+ getObjetiveFunc()</text>
<text text-anchor="start" x="97.5" y="-7.5" font-family="Helvetica,sans-Serif" font-size="10.00">+ getFitness()</text>
</g>
<!-- Node4 -->
<g id="node2" class="node"><title>Node4</title>
<g id="a_node2"><a xlink:href="classgafuncobj_1_1_g_a_function_objective.html" target="_top" xlink:title="{gafuncobj::GAFunctionObjective\l\&lt; T_FEATURE, T_METRIC \&gt;\n||+ GAFunctionObjective()\l+ ~GAFunctionObjective()\l+ getObjetiveFunc()\l+ getFitness()\l}">
<polygon fill="white" stroke="black" points="1,-226.5 1,-327.5 162,-327.5 162,-226.5 1,-226.5"/>
<text text-anchor="start" x="9" y="-315.5" font-family="Helvetica,sans-Serif" font-size="10.00">gafuncobj::GAFunctionObjective</text>
<text text-anchor="middle" x="81.5" y="-304.5" font-family="Helvetica,sans-Serif" font-size="10.00">&lt; T_FEATURE, T_METRIC &gt;</text>
<polyline fill="none" stroke="black" points="1,-297.5 162,-297.5 "/>
<text text-anchor="middle" x="81.5" y="-285.5" font-family="Helvetica,sans-Serif" font-size="10.00"> </text>
<polyline fill="none" stroke="black" points="1,-278.5 162,-278.5 "/>
<text text-anchor="start" x="9" y="-266.5" font-family="Helvetica,sans-Serif" font-size="10.00">+ GAFunctionObjective()</text>
<text text-anchor="start" x="9" y="-255.5" font-family="Helvetica,sans-Serif" font-size="10.00">+ ~GAFunctionObjective()</text>
<text text-anchor="start" x="9" y="-244.5" font-family="Helvetica,sans-Serif" font-size="10.00">+ getObjetiveFunc()</text>
<text text-anchor="start" x="9" y="-233.5" font-family="Helvetica,sans-Serif" font-size="10.00">+ getFitness()</text>
</a>
</g>
</g>
<!-- Node4&#45;&gt;Node3 -->
<g id="edge1" class="edge"><title>Node4&#45;&gt;Node3</title>
<path fill="none" stroke="midnightblue" d="M111.338,-217.118C117.545,-204.868 124.215,-191.706 130.824,-178.664"/>
<polygon fill="none" stroke="midnightblue" points="108.088,-215.787 106.69,-226.289 114.333,-218.951 108.088,-215.787"/>
</g>
<!-- Node5 -->
<g id="node3" class="node"><title>Node5</title>
<g id="a_node3"><a xlink:href="classgafuncobj_1_1_g_a_function_objective.html" target="_top" xlink:title="Definition of the abstract class GAFunctionObjective. It is used to evaluate an objective function...">
<polygon fill="white" stroke="black" points="0,-375.5 0,-476.5 161,-476.5 161,-375.5 0,-375.5"/>
<text text-anchor="start" x="8" y="-464.5" font-family="Helvetica,sans-Serif" font-size="10.00">gafuncobj::GAFunctionObjective</text>
<text text-anchor="middle" x="80.5" y="-453.5" font-family="Helvetica,sans-Serif" font-size="10.00">&lt; T_GENE, T_METRIC &gt;</text>
<polyline fill="none" stroke="black" points="0,-446.5 161,-446.5 "/>
<text text-anchor="middle" x="80.5" y="-434.5" font-family="Helvetica,sans-Serif" font-size="10.00"> </text>
<polyline fill="none" stroke="black" points="0,-427.5 161,-427.5 "/>
<text text-anchor="start" x="8" y="-415.5" font-family="Helvetica,sans-Serif" font-size="10.00">+ GAFunctionObjective()</text>
<text text-anchor="start" x="8" y="-404.5" font-family="Helvetica,sans-Serif" font-size="10.00">+ ~GAFunctionObjective()</text>
<text text-anchor="start" x="8" y="-393.5" font-family="Helvetica,sans-Serif" font-size="10.00">+ getObjetiveFunc()</text>
<text text-anchor="start" x="8" y="-382.5" font-family="Helvetica,sans-Serif" font-size="10.00">+ getFitness()</text>
</a>
</g>
</g>
<!-- Node5&#45;&gt;Node4 -->
<g id="edge2" class="edge"><title>Node5&#45;&gt;Node4</title>
<path fill="none" stroke="orange" d="M80.9083,-364.986C80.9925,-352.601 81.0804,-339.687 81.1618,-327.716"/>
<polygon fill="orange" stroke="orange" points="77.4068,-365.209 80.8386,-375.233 84.4066,-365.257 77.4068,-365.209"/>
<text text-anchor="middle" x="150" y="-349" font-family="Helvetica,sans-Serif" font-size="10.00"> &lt; T_FEATURE, T_METRIC &gt;</text>
</g>
<!-- Node6 -->
<g id="node4" class="node"><title>Node6</title>
<g id="a_node4"><a xlink:href="structdist_1_1_dist.html" target="_top" xlink:title="{dist::Dist\&lt; T_METRIC,\l T_FEATURE \&gt;\n||+ ~Dist()\l+ operator()()\l}">
<polygon fill="white" stroke="black" points="180,-237.5 180,-316.5 299,-316.5 299,-237.5 180,-237.5"/>
<text text-anchor="start" x="188" y="-304.5" font-family="Helvetica,sans-Serif" font-size="10.00">dist::Dist&lt; T_METRIC,</text>
<text text-anchor="middle" x="239.5" y="-293.5" font-family="Helvetica,sans-Serif" font-size="10.00"> T_FEATURE &gt;</text>
<polyline fill="none" stroke="black" points="180,-286.5 299,-286.5 "/>
<text text-anchor="middle" x="239.5" y="-274.5" font-family="Helvetica,sans-Serif" font-size="10.00"> </text>
<polyline fill="none" stroke="black" points="180,-267.5 299,-267.5 "/>
<text text-anchor="start" x="188" y="-255.5" font-family="Helvetica,sans-Serif" font-size="10.00">+ ~Dist()</text>
<text text-anchor="start" x="188" y="-244.5" font-family="Helvetica,sans-Serif" font-size="10.00">+ operator()()</text>
</a>
</g>
</g>
<!-- Node6&#45;&gt;Node3 -->
<g id="edge3" class="edge"><title>Node6&#45;&gt;Node3</title>
<path fill="none" stroke="#404040" d="M226.084,-237.113C221.289,-223.216 215.642,-206.849 209.892,-190.183"/>
<polygon fill="none" stroke="#404040" points="209.817,-189.967 204.079,-185.599 205.904,-178.623 211.642,-182.99 209.817,-189.967"/>
<text text-anchor="middle" x="247.5" y="-200" font-family="Helvetica,sans-Serif" font-size="10.00"> #_func2p_dist</text>
</g>
<!-- Node7 -->
<g id="node5" class="node"><title>Node7</title>
<g id="a_node5"><a xlink:href="structdist_1_1_dist.html" target="_top" xlink:title="Generic dist. ">
<polygon fill="white" stroke="black" points="188.5,-386.5 188.5,-465.5 292.5,-465.5 292.5,-386.5 188.5,-386.5"/>
<text text-anchor="start" x="196.5" y="-453.5" font-family="Helvetica,sans-Serif" font-size="10.00">dist::Dist&lt; T_DIST,</text>
<text text-anchor="middle" x="240.5" y="-442.5" font-family="Helvetica,sans-Serif" font-size="10.00"> T_FEATURE &gt;</text>
<polyline fill="none" stroke="black" points="188.5,-435.5 292.5,-435.5 "/>
<text text-anchor="middle" x="240.5" y="-423.5" font-family="Helvetica,sans-Serif" font-size="10.00"> </text>
<polyline fill="none" stroke="black" points="188.5,-416.5 292.5,-416.5 "/>
<text text-anchor="start" x="196.5" y="-404.5" font-family="Helvetica,sans-Serif" font-size="10.00">+ ~Dist()</text>
<text text-anchor="start" x="196.5" y="-393.5" font-family="Helvetica,sans-Serif" font-size="10.00">+ operator()()</text>
</a>
</g>
</g>
<!-- Node7&#45;&gt;Node6 -->
<g id="edge4" class="edge"><title>Node7&#45;&gt;Node6</title>
<path fill="none" stroke="orange" d="M240.168,-376.217C240.036,-356.837 239.887,-334.862 239.763,-316.62"/>
<polygon fill="orange" stroke="orange" points="236.669,-376.402 240.237,-386.377 243.669,-376.354 236.669,-376.402"/>
<text text-anchor="middle" x="309" y="-349" font-family="Helvetica,sans-Serif" font-size="10.00"> &lt; T_METRIC, T_FEATURE &gt;</text>
</g>
</g>
</svg>
