<?xml version="1.0" encoding="UTF-8" standalone="no"?>
<!DOCTYPE svg PUBLIC "-//W3C//DTD SVG 1.1//EN"
 "http://www.w3.org/Graphics/SVG/1.1/DTD/svg11.dtd">
<!-- Generated by graphviz version 2.38.0 (20140413.2041)
 -->
<!-- Title: ds::PartitionLinkedNumInst::subInstanceFromCluster Pages: 1 -->
<!--zoomable 127 -->
<svg id="main" version="1.1" xmlns="http://www.w3.org/2000/svg" xmlns:xlink="http://www.w3.org/1999/xlink" xml:space="preserve" onload="init(evt)">
<style type="text/css"><![CDATA[
.edge:hover path { stroke: red; }
.edge:hover polygon { stroke: red; fill: red; }
]]></style>
<script type="text/javascript"><![CDATA[
var edges = document.getElementsByTagName('g');
if (edges && edges.length) {
  for (var i=0;i<edges.length;i++) {
    if (edges[i].id.substr(0,4)=='edge') {
      edges[i].setAttribute('class','edge');
    }
  }
}
]]></script>
        <defs>
                <circle id="rim" cx="0" cy="0" r="7"/>
                <circle id="rim2" cx="0" cy="0" r="3.5"/>
                <g id="zoomPlus">
                        <use xlink:href="#rim" fill="#404040">
                                <set attributeName="fill" to="#808080" begin="zoomplus.mouseover" end="zoomplus.mouseout"/>
                        </use>
                        <path d="M-4,0h8M0,-4v8" fill="none" stroke="white" stroke-width="1.5" pointer-events="none"/>
                </g>
                <g id="zoomMin">
                        <use xlink:href="#rim" fill="#404040">
                                <set attributeName="fill" to="#808080" begin="zoomminus.mouseover" end="zoomminus.mouseout"/>
                        </use>
                        <path d="M-4,0h8" fill="none" stroke="white" stroke-width="1.5" pointer-events="none"/>
                </g>
                <g id="dirArrow">
                        <path fill="none" stroke="white" stroke-width="1.5" d="M0,-3.0v7 M-2.5,-0.5L0,-3.0L2.5,-0.5"/>
                </g>
               <g id="resetDef">
                       <use xlink:href="#rim2" fill="#404040">
                               <set attributeName="fill" to="#808080" begin="reset.mouseover" end="reset.mouseout"/>
                       </use>
               </g>
        </defs>

<script type="text/javascript">
var viewWidth = 1540;
var viewHeight = 127;
var sectionId = 'dynsection-10';
</script>
<script xlink:href="svgpan.js"/>
<svg id="graph" class="graph">
<g id="viewport">
<title>ds::PartitionLinkedNumInst::subInstanceFromCluster</title>
<polygon fill="white" stroke="none" points="-4,4 -4,-123.135 1536,-123.135 1536,4 -4,4"/>
<!-- Node83 -->
<g id="node1" class="node"><title>Node83</title>
<polygon fill="#bfbfbf" stroke="black" points="0,-48 0,-78 135,-78 135,-48 0,-48"/>
<text text-anchor="start" x="8" y="-66" font-family="Helvetica,sans-Serif" font-size="10.00">ds::PartitionLinkedNumInst</text>
<text text-anchor="middle" x="67.5" y="-55" font-family="Helvetica,sans-Serif" font-size="10.00">::subInstanceFromCluster</text>
</g>
<!-- Node84 -->
<g id="node2" class="node"><title>Node84</title>
<g id="a_node2"><a xlink:href="classds_1_1_partition_linked_num_inst.html#a8d95e4fb239805358d37f58d5fc4dd9a" target="_top" xlink:title="ds::PartitionLinkedNumInst\l::changeMemberShip">
<polygon fill="white" stroke="black" points="171,-26 171,-56 306,-56 306,-26 171,-26"/>
<text text-anchor="start" x="179" y="-44" font-family="Helvetica,sans-Serif" font-size="10.00">ds::PartitionLinkedNumInst</text>
<text text-anchor="middle" x="238.5" y="-33" font-family="Helvetica,sans-Serif" font-size="10.00">::changeMemberShip</text>
</a>
</g>
</g>
<!-- Node83&#45;&gt;Node84 -->
<g id="edge1" class="edge"><title>Node83&#45;&gt;Node84</title>
<path fill="none" stroke="midnightblue" d="M133.356,-47.9719C142.284,-46.6575 151.521,-45.4083 160.638,-44.2803"/>
<polygon fill="midnightblue" stroke="midnightblue" points="161.343,-47.721 170.858,-43.0611 160.514,-40.7703 161.343,-47.721"/>
</g>
<!-- Node87 -->
<g id="node5" class="node"><title>Node87</title>
<g id="a_node5"><a xlink:href="classds_1_1_partition_linked.html#adc3c73d4486bec92878e785229d2536e" target="_top" xlink:title="ds::PartitionLinked\l::subInstanceFromCluster">
<polygon fill="white" stroke="black" points="672,-70 672,-100 803,-100 803,-70 672,-70"/>
<text text-anchor="start" x="680" y="-88" font-family="Helvetica,sans-Serif" font-size="10.00">ds::PartitionLinked</text>
<text text-anchor="middle" x="737.5" y="-77" font-family="Helvetica,sans-Serif" font-size="10.00">::subInstanceFromCluster</text>
</a>
</g>
</g>
<!-- Node83&#45;&gt;Node87 -->
<g id="edge17" class="edge"><title>Node83&#45;&gt;Node87</title>
<path fill="none" stroke="midnightblue" d="M127.334,-78.0441C141.562,-81.3302 156.771,-84.5526 171,-87 374.846,-122.061 430.257,-127.266 636,-106 645.343,-105.034 655.098,-103.576 664.699,-101.87"/>
<polygon fill="midnightblue" stroke="midnightblue" points="665.44,-105.292 674.626,-100.012 664.152,-98.4114 665.44,-105.292"/>
</g>
<!-- Node84&#45;&gt;Node83 -->
<g id="edge16" class="edge"><title>Node84&#45;&gt;Node83</title>
<path fill="none" stroke="midnightblue" d="M172.572,-56.0386C163.697,-57.3448 154.517,-58.5863 145.454,-59.7084"/>
<polygon fill="midnightblue" stroke="midnightblue" points="144.808,-56.2605 135.293,-60.9215 145.638,-63.2112 144.808,-56.2605"/>
</g>
<!-- Node85 -->
<g id="node3" class="node"><title>Node85</title>
<g id="a_node3"><a xlink:href="classds_1_1_partition_linked_num_inst.html#a5bc1322aa05e6d65b6f78e73a88eb3d7" target="_top" xlink:title="ds::PartitionLinkedNumInst\l::addInstanceToCluster">
<polygon fill="white" stroke="black" points="342,-67 342,-97 477,-97 477,-67 342,-67"/>
<text text-anchor="start" x="350" y="-85" font-family="Helvetica,sans-Serif" font-size="10.00">ds::PartitionLinkedNumInst</text>
<text text-anchor="middle" x="409.5" y="-74" font-family="Helvetica,sans-Serif" font-size="10.00">::addInstanceToCluster</text>
</a>
</g>
</g>
<!-- Node84&#45;&gt;Node85 -->
<g id="edge2" class="edge"><title>Node84&#45;&gt;Node85</title>
<path fill="none" stroke="midnightblue" d="M301.47,-56.0341C312.951,-58.8194 325.031,-61.75 336.774,-64.5989"/>
<polygon fill="midnightblue" stroke="midnightblue" points="335.994,-68.0114 346.538,-66.9677 337.645,-61.2087 335.994,-68.0114"/>
</g>
<!-- Node93 -->
<g id="node11" class="node"><title>Node93</title>
<g id="a_node11"><a xlink:href="classds_1_1_partition_linked_num_inst.html#a71e57f8b0d0b94d6c96426bd1320fbb3" target="_top" xlink:title="ds::PartitionLinkedNumInst\l::print">
<polygon fill="white" stroke="black" points="342,-18 342,-48 477,-48 477,-18 342,-18"/>
<text text-anchor="start" x="350" y="-36" font-family="Helvetica,sans-Serif" font-size="10.00">ds::PartitionLinkedNumInst</text>
<text text-anchor="middle" x="409.5" y="-25" font-family="Helvetica,sans-Serif" font-size="10.00">::print</text>
</a>
</g>
</g>
<!-- Node84&#45;&gt;Node93 -->
<g id="edge13" class="edge"><title>Node84&#45;&gt;Node93</title>
<path fill="none" stroke="midnightblue" d="M306.293,-37.8382C314.624,-37.4439 323.194,-37.0381 331.661,-36.6373"/>
<polygon fill="midnightblue" stroke="midnightblue" points="332.092,-40.121 341.915,-36.1519 331.761,-33.1288 332.092,-40.121"/>
</g>
<!-- Node85&#45;&gt;Node83 -->
<g id="edge12" class="edge"><title>Node85&#45;&gt;Node83</title>
<path fill="none" stroke="midnightblue" d="M341.885,-78.2774C285.439,-75.1231 204.475,-70.5986 145.308,-67.2922"/>
<polygon fill="midnightblue" stroke="midnightblue" points="145.447,-63.7946 135.267,-66.7311 145.056,-70.7837 145.447,-63.7946"/>
</g>
<!-- Node86 -->
<g id="node4" class="node"><title>Node86</title>
<g id="a_node4"><a xlink:href="classds_1_1_partition_linked.html#a4013f0d8892069abc3fe9c05103d60e0" target="_top" xlink:title="ds::PartitionLinked\l::addInstanceToCluster">
<polygon fill="white" stroke="black" points="513,-67 513,-97 636,-97 636,-67 513,-67"/>
<text text-anchor="start" x="521" y="-85" font-family="Helvetica,sans-Serif" font-size="10.00">ds::PartitionLinked</text>
<text text-anchor="middle" x="574.5" y="-74" font-family="Helvetica,sans-Serif" font-size="10.00">::addInstanceToCluster</text>
</a>
</g>
</g>
<!-- Node85&#45;&gt;Node86 -->
<g id="edge3" class="edge"><title>Node85&#45;&gt;Node86</title>
<path fill="none" stroke="midnightblue" d="M477.269,-82C485.644,-82 494.235,-82 502.67,-82"/>
<polygon fill="midnightblue" stroke="midnightblue" points="502.857,-85.5001 512.857,-82 502.857,-78.5001 502.857,-85.5001"/>
</g>
<!-- Node86&#45;&gt;Node87 -->
<g id="edge4" class="edge"><title>Node86&#45;&gt;Node87</title>
<path fill="none" stroke="midnightblue" d="M636.367,-83.1342C644.597,-83.2875 653.119,-83.4463 661.558,-83.6036"/>
<polygon fill="midnightblue" stroke="midnightblue" points="661.724,-87.1072 671.787,-83.7942 661.854,-80.1084 661.724,-87.1072"/>
</g>
<!-- Node88 -->
<g id="node6" class="node"><title>Node88</title>
<g id="a_node6"><a xlink:href="classds_1_1_partition_linked.html#abfd8979dbdeee0fda9d8cb22aa9062ed" target="_top" xlink:title="ds::PartitionLinked\l::changeMemberShip">
<polygon fill="white" stroke="black" points="839,-59 839,-89 952,-89 952,-59 839,-59"/>
<text text-anchor="start" x="847" y="-77" font-family="Helvetica,sans-Serif" font-size="10.00">ds::PartitionLinked</text>
<text text-anchor="middle" x="895.5" y="-66" font-family="Helvetica,sans-Serif" font-size="10.00">::changeMemberShip</text>
</a>
</g>
</g>
<!-- Node87&#45;&gt;Node88 -->
<g id="edge5" class="edge"><title>Node87&#45;&gt;Node88</title>
<path fill="none" stroke="midnightblue" d="M803.303,-73.7672C811.635,-73.0694 820.174,-72.4623 828.524,-71.9739"/>
<polygon fill="midnightblue" stroke="midnightblue" points="828.79,-75.4649 838.59,-71.439 828.418,-68.4747 828.79,-75.4649"/>
</g>
<!-- Node88&#45;&gt;Node86 -->
<g id="edge6" class="edge"><title>Node88&#45;&gt;Node86</title>
<path fill="none" stroke="midnightblue" d="M838.523,-64.0593C826.823,-62.3689 814.537,-60.8775 803,-60 744.945,-55.5844 729.857,-53.4884 672,-60 662.139,-61.1098 651.816,-62.8385 641.742,-64.8503"/>
<polygon fill="midnightblue" stroke="midnightblue" points="640.843,-61.4626 631.776,-66.9441 642.282,-68.3131 640.843,-61.4626"/>
</g>
<!-- Node88&#45;&gt;Node87 -->
<g id="edge11" class="edge"><title>Node88&#45;&gt;Node87</title>
<path fill="none" stroke="midnightblue" d="M838.59,-84.4458C830.458,-85.2053 821.977,-85.8841 813.542,-86.4543"/>
<polygon fill="midnightblue" stroke="midnightblue" points="813.065,-82.9771 803.303,-87.094 813.502,-89.9635 813.065,-82.9771"/>
</g>
<!-- Node89 -->
<g id="node7" class="node"><title>Node89</title>
<g id="a_node7"><a xlink:href="classds_1_1_partition_linked.html#aaa302ea8b39c37c44507bf4276ffa8f2" target="_top" xlink:title="ds::PartitionLinked\l::getInstanceIdxOfClusterK">
<polygon fill="white" stroke="black" points="988,-39 988,-69 1124,-69 1124,-39 988,-39"/>
<text text-anchor="start" x="996" y="-57" font-family="Helvetica,sans-Serif" font-size="10.00">ds::PartitionLinked</text>
<text text-anchor="middle" x="1056" y="-46" font-family="Helvetica,sans-Serif" font-size="10.00">::getInstanceIdxOfClusterK</text>
</a>
</g>
</g>
<!-- Node88&#45;&gt;Node89 -->
<g id="edge7" class="edge"><title>Node88&#45;&gt;Node89</title>
<path fill="none" stroke="midnightblue" d="M952.381,-66.9487C960.645,-65.906 969.281,-64.8163 977.883,-63.7308"/>
<polygon fill="midnightblue" stroke="midnightblue" points="978.459,-67.186 987.942,-62.4615 977.583,-60.2411 978.459,-67.186"/>
</g>
<!-- Node90 -->
<g id="node8" class="node"><title>Node90</title>
<g id="a_node8"><a xlink:href="classds_1_1_partition_linked.html#a1a20dd710247ebccba848e555f9ad9e6" target="_top" xlink:title="ds::PartitionLinked\l::joinCluster">
<polygon fill="white" stroke="black" points="1160,-34 1160,-64 1260,-64 1260,-34 1160,-34"/>
<text text-anchor="start" x="1168" y="-52" font-family="Helvetica,sans-Serif" font-size="10.00">ds::PartitionLinked</text>
<text text-anchor="middle" x="1210" y="-41" font-family="Helvetica,sans-Serif" font-size="10.00">::joinCluster</text>
</a>
</g>
</g>
<!-- Node89&#45;&gt;Node90 -->
<g id="edge8" class="edge"><title>Node89&#45;&gt;Node90</title>
<path fill="none" stroke="midnightblue" d="M1124.11,-51.7924C1132.59,-51.5134 1141.22,-51.2295 1149.57,-50.9548"/>
<polygon fill="midnightblue" stroke="midnightblue" points="1149.71,-54.4523 1159.59,-50.6253 1149.48,-47.4561 1149.71,-54.4523"/>
</g>
<!-- Node91 -->
<g id="node9" class="node"><title>Node91</title>
<g id="a_node9"><a xlink:href="classds_1_1_partition_linked.html#a6a7de3bc18b0904e2e23536a336e42a8" target="_top" xlink:title="ds::PartitionLinked\l::print">
<polygon fill="white" stroke="black" points="1296,-9 1296,-39 1396,-39 1396,-9 1296,-9"/>
<text text-anchor="start" x="1304" y="-27" font-family="Helvetica,sans-Serif" font-size="10.00">ds::PartitionLinked</text>
<text text-anchor="middle" x="1346" y="-16" font-family="Helvetica,sans-Serif" font-size="10.00">::print</text>
</a>
</g>
</g>
<!-- Node90&#45;&gt;Node91 -->
<g id="edge9" class="edge"><title>Node90&#45;&gt;Node91</title>
<path fill="none" stroke="midnightblue" d="M1260.14,-39.8329C1268.51,-38.2704 1277.29,-36.6329 1285.89,-35.0282"/>
<polygon fill="midnightblue" stroke="midnightblue" points="1286.68,-38.4408 1295.87,-33.166 1285.4,-31.5595 1286.68,-38.4408"/>
</g>
<!-- Node92 -->
<g id="node10" class="node"><title>Node92</title>
<g id="a_node10"><a xlink:href="classds_1_1_partition_linked.html#a696f58c4d25fd41adf281d1468440dc9" target="_top" xlink:title="ds::PartitionLinked\l::getNumPartitions">
<polygon fill="white" stroke="black" points="1432,-9 1432,-39 1532,-39 1532,-9 1432,-9"/>
<text text-anchor="start" x="1440" y="-27" font-family="Helvetica,sans-Serif" font-size="10.00">ds::PartitionLinked</text>
<text text-anchor="middle" x="1482" y="-16" font-family="Helvetica,sans-Serif" font-size="10.00">::getNumPartitions</text>
</a>
</g>
</g>
<!-- Node91&#45;&gt;Node92 -->
<g id="edge10" class="edge"><title>Node91&#45;&gt;Node92</title>
<path fill="none" stroke="midnightblue" d="M1396.14,-24C1404.42,-24 1413.1,-24 1421.61,-24"/>
<polygon fill="midnightblue" stroke="midnightblue" points="1421.87,-27.5001 1431.87,-24 1421.87,-20.5001 1421.87,-27.5001"/>
</g>
<!-- Node93&#45;&gt;Node91 -->
<g id="edge15" class="edge"><title>Node93&#45;&gt;Node91</title>
<path fill="none" stroke="midnightblue" d="M477.106,-22.2858C542.852,-12.6501 646.335,-0 736.5,-0 736.5,-0 736.5,-0 1057,-0 1136.4,-0 1227.69,-9.17087 1285.82,-16.1745"/>
<polygon fill="midnightblue" stroke="midnightblue" points="1285.58,-19.6703 1295.93,-17.4102 1286.43,-12.7221 1285.58,-19.6703"/>
</g>
<!-- Node94 -->
<g id="node12" class="node"><title>Node94</title>
<g id="a_node12"><a xlink:href="namespaceinout.html#a0c10a45877a347dec0d4ec4e5b05b828" target="_top" xlink:title="inout::containerprint">
<polygon fill="white" stroke="black" points="523,-28.5 523,-47.5 626,-47.5 626,-28.5 523,-28.5"/>
<text text-anchor="middle" x="574.5" y="-35.5" font-family="Helvetica,sans-Serif" font-size="10.00">inout::containerprint</text>
</a>
</g>
</g>
<!-- Node93&#45;&gt;Node94 -->
<g id="edge14" class="edge"><title>Node93&#45;&gt;Node94</title>
<path fill="none" stroke="midnightblue" d="M477.269,-35.0481C488.847,-35.4033 500.835,-35.771 512.256,-36.1214"/>
<polygon fill="midnightblue" stroke="midnightblue" points="512.455,-39.629 522.558,-36.4374 512.67,-32.6323 512.455,-39.629"/>
</g>
</g>
</svg>
        <g id="navigator" transform="translate(0 0)" fill="#404254">
                <rect fill="#f2f5e9" fill-opacity="0.5" stroke="#606060" stroke-width=".5" x="0" y="0" width="60" height="60"/>
                <use id="zoomplus" xlink:href="#zoomPlus" x="17" y="9" onmousedown="handleZoom(evt,'in')"/>
                <use id="zoomminus" xlink:href="#zoomMin" x="42" y="9" onmousedown="handleZoom(evt,'out')"/>
                <use id="reset" xlink:href="#resetDef" x="30" y="36" onmousedown="handleReset()"/>
                <g id="arrowUp" xlink:href="#dirArrow" transform="translate(30 24)" onmousedown="handlePan(0,-1)">
                  <use xlink:href="#rim" fill="#404040">
                        <set attributeName="fill" to="#808080" begin="arrowUp.mouseover" end="arrowUp.mouseout"/>
                  </use>
                  <path fill="none" stroke="white" stroke-width="1.5" d="M0,-3.0v7 M-2.5,-0.5L0,-3.0L2.5,-0.5"/>
                </g>
                <g id="arrowRight" xlink:href="#dirArrow" transform="rotate(90) translate(36 -43)" onmousedown="handlePan(1,0)">
                  <use xlink:href="#rim" fill="#404040">
                        <set attributeName="fill" to="#808080" begin="arrowRight.mouseover" end="arrowRight.mouseout"/>
                  </use>
                  <path fill="none" stroke="white" stroke-width="1.5" d="M0,-3.0v7 M-2.5,-0.5L0,-3.0L2.5,-0.5"/>
                </g>
                <g id="arrowDown" xlink:href="#dirArrow" transform="rotate(180) translate(-30 -48)" onmousedown="handlePan(0,1)">
                  <use xlink:href="#rim" fill="#404040">
                        <set attributeName="fill" to="#808080" begin="arrowDown.mouseover" end="arrowDown.mouseout"/>
                  </use>
                  <path fill="none" stroke="white" stroke-width="1.5" d="M0,-3.0v7 M-2.5,-0.5L0,-3.0L2.5,-0.5"/>
                </g>
                <g id="arrowLeft" xlink:href="#dirArrow" transform="rotate(270) translate(-36 17)" onmousedown="handlePan(-1,0)">
                  <use xlink:href="#rim" fill="#404040">
                        <set attributeName="fill" to="#808080" begin="arrowLeft.mouseover" end="arrowLeft.mouseout"/>
                  </use>
                  <path fill="none" stroke="white" stroke-width="1.5" d="M0,-3.0v7 M-2.5,-0.5L0,-3.0L2.5,-0.5"/>
                </g>
        </g>
        <svg viewBox="0 0 15 15" width="100%" height="30px" preserveAspectRatio="xMaxYMin meet">
         <g id="arrow_out" transform="scale(0.3 0.3)">
          <a xlink:href="classds_1_1_partition_linked_num_inst_a53a9d7359466040ab970e1b84bcd58c3_cgraph_org.svg" target="_base">
           <rect id="button" ry="5" rx="5" y="6" x="6" height="38" width="38"
                fill="#f2f5e9" fill-opacity="0.5" stroke="#606060" stroke-width="1.0"/>
           <path id="arrow"
             d="M 11.500037,31.436501 C 11.940474,20.09759 22.043105,11.32322 32.158766,21.979434 L 37.068811,17.246167 C 37.068811,17.246167 37.088388,32 37.088388,32 L 22.160133,31.978069 C 22.160133,31.978069 26.997745,27.140456 26.997745,27.140456 C 18.528582,18.264221 13.291696,25.230495 11.500037,31.436501 z"
             style="fill:#404040;"/>
          </a>
         </g>
        </svg>
</svg>
