<?xml version="1.0" encoding="UTF-8" standalone="no"?>
<!DOCTYPE svg PUBLIC "-//W3C//DTD SVG 1.1//EN"
 "http://www.w3.org/Graphics/SVG/1.1/DTD/svg11.dtd">
<!-- Generated by graphviz version 2.38.0 (20140413.2041)
 -->
<!-- Title: gaencode::ChromosomeFEAC::setPartialFcC Pages: 1 -->
<svg width="1112pt" height="39pt"
 viewBox="0.00 0.00 1112.00 39.00" xmlns="http://www.w3.org/2000/svg" xmlns:xlink="http://www.w3.org/1999/xlink">
<g id="graph0" class="graph" transform="scale(1 1) rotate(0) translate(4 35)">
<title>gaencode::ChromosomeFEAC::setPartialFcC</title>
<polygon fill="white" stroke="none" points="-4,4 -4,-35 1108,-35 1108,4 -4,4"/>
<!-- Node44 -->
<g id="node1" class="node"><title>Node44</title>
<polygon fill="#bfbfbf" stroke="black" points="0,-0.5 0,-30.5 157,-30.5 157,-0.5 0,-0.5"/>
<text text-anchor="start" x="8" y="-18.5" font-family="Helvetica,sans-Serif" font-size="10.00">gaencode::ChromosomeFEAC</text>
<text text-anchor="middle" x="78.5" y="-7.5" font-family="Helvetica,sans-Serif" font-size="10.00">::setPartialFcC</text>
</g>
<!-- Node45 -->
<g id="node2" class="node"><title>Node45</title>
<g id="a_node2"><a xlink:href="namespaceinterfacesse.html#a925f44ed84d40e9af5050fa0e1373396" target="_top" xlink:title="copy array aoarrayt_x in aoarrayt_y of type T ">
<polygon fill="white" stroke="black" points="193,-6 193,-25 292,-25 292,-6 193,-6"/>
<text text-anchor="middle" x="242.5" y="-13" font-family="Helvetica,sans-Serif" font-size="10.00">interfacesse::copy</text>
</a>
</g>
</g>
<!-- Node44&#45;&gt;Node45 -->
<g id="edge1" class="edge"><title>Node44&#45;&gt;Node45</title>
<path fill="none" stroke="midnightblue" d="M157.179,-15.5C165.838,-15.5 174.549,-15.5 182.913,-15.5"/>
<polygon fill="midnightblue" stroke="midnightblue" points="182.917,-19.0001 192.917,-15.5 182.917,-12.0001 182.917,-19.0001"/>
</g>
<!-- Node46 -->
<g id="node3" class="node"><title>Node46</title>
<g id="a_node3"><a xlink:href="namespaceinterfacesse.html#afaa45a2a27710ea2dfa979289cf4961d" target="_top" xlink:title="swap items of aoarrayt_y to aiarrayt_x ">
<polygon fill="white" stroke="black" points="328,-6 328,-25 429,-25 429,-6 328,-6"/>
<text text-anchor="middle" x="378.5" y="-13" font-family="Helvetica,sans-Serif" font-size="10.00">interfacesse::swap</text>
</a>
</g>
</g>
<!-- Node45&#45;&gt;Node46 -->
<g id="edge2" class="edge"><title>Node45&#45;&gt;Node46</title>
<path fill="none" stroke="midnightblue" d="M292.256,-15.5C300.449,-15.5 309.036,-15.5 317.474,-15.5"/>
<polygon fill="midnightblue" stroke="midnightblue" points="317.655,-19.0001 327.655,-15.5 317.655,-12.0001 317.655,-19.0001"/>
</g>
<!-- Node47 -->
<g id="node4" class="node"><title>Node47</title>
<g id="a_node4"><a xlink:href="namespaceinterfacesse.html#a2f42addf86fc8b9cd0c6620217b8a2db" target="_top" xlink:title="swap items of aoarrayt_y to aiarrayt_x ">
<polygon fill="white" stroke="black" points="465,-6 465,-25 557,-25 557,-6 465,-6"/>
<text text-anchor="middle" x="511" y="-13" font-family="Helvetica,sans-Serif" font-size="10.00">interfacesse::dot</text>
</a>
</g>
</g>
<!-- Node46&#45;&gt;Node47 -->
<g id="edge3" class="edge"><title>Node46&#45;&gt;Node47</title>
<path fill="none" stroke="midnightblue" d="M429.209,-15.5C437.505,-15.5 446.156,-15.5 454.584,-15.5"/>
<polygon fill="midnightblue" stroke="midnightblue" points="454.714,-19.0001 464.714,-15.5 454.714,-12.0001 454.714,-19.0001"/>
</g>
<!-- Node48 -->
<g id="node5" class="node"><title>Node48</title>
<g id="a_node5"><a xlink:href="namespaceinterfacesse.html#a25f6950d589b92fd5bcf2007fb3fae19" target="_top" xlink:title="interfacesse::sum">
<polygon fill="white" stroke="black" points="593,-6 593,-25 689,-25 689,-6 593,-6"/>
<text text-anchor="middle" x="641" y="-13" font-family="Helvetica,sans-Serif" font-size="10.00">interfacesse::sum</text>
</a>
</g>
</g>
<!-- Node47&#45;&gt;Node48 -->
<g id="edge4" class="edge"><title>Node47&#45;&gt;Node48</title>
<path fill="none" stroke="midnightblue" d="M557.128,-15.5C565.315,-15.5 573.955,-15.5 582.442,-15.5"/>
<polygon fill="midnightblue" stroke="midnightblue" points="582.679,-19.0001 592.678,-15.5 582.678,-12.0001 582.679,-19.0001"/>
</g>
<!-- Node49 -->
<g id="node6" class="node"><title>Node49</title>
<g id="a_node6"><a xlink:href="namespaceinterfacesse.html#a9dd5fb43ad8a83ee5cb2f5ba1bb2085b" target="_top" xlink:title="interfacesse::axpy">
<polygon fill="white" stroke="black" points="725,-6 725,-25 824,-25 824,-6 725,-6"/>
<text text-anchor="middle" x="774.5" y="-13" font-family="Helvetica,sans-Serif" font-size="10.00">interfacesse::axpy</text>
</a>
</g>
</g>
<!-- Node48&#45;&gt;Node49 -->
<g id="edge5" class="edge"><title>Node48&#45;&gt;Node49</title>
<path fill="none" stroke="midnightblue" d="M689.103,-15.5C697.472,-15.5 706.281,-15.5 714.922,-15.5"/>
<polygon fill="midnightblue" stroke="midnightblue" points="714.953,-19.0001 724.953,-15.5 714.953,-12.0001 714.953,-19.0001"/>
</g>
<!-- Node50 -->
<g id="node7" class="node"><title>Node50</title>
<g id="a_node7"><a xlink:href="namespaceinterfacesse.html#ae3f94c42a59db65b2941dbfc9f449ea1" target="_top" xlink:title="function xAXPY of blas for doubles vectors ">
<polygon fill="white" stroke="black" points="860,-6 860,-25 972,-25 972,-6 860,-6"/>
<text text-anchor="middle" x="916" y="-13" font-family="Helvetica,sans-Serif" font-size="10.00">interfacesse::axpyInv</text>
</a>
</g>
</g>
<!-- Node49&#45;&gt;Node50 -->
<g id="edge6" class="edge"><title>Node49&#45;&gt;Node50</title>
<path fill="none" stroke="midnightblue" d="M824.29,-15.5C832.535,-15.5 841.211,-15.5 849.794,-15.5"/>
<polygon fill="midnightblue" stroke="midnightblue" points="849.797,-19.0001 859.797,-15.5 849.797,-12.0001 849.797,-19.0001"/>
</g>
<!-- Node51 -->
<g id="node8" class="node"><title>Node51</title>
<g id="a_node8"><a xlink:href="namespaceinterfacesse.html#a144ebf70bf38495c3de1aca2c8365e08" target="_top" xlink:title="scal items of the array of type T ">
<polygon fill="white" stroke="black" points="1008,-6 1008,-25 1104,-25 1104,-6 1008,-6"/>
<text text-anchor="middle" x="1056" y="-13" font-family="Helvetica,sans-Serif" font-size="10.00">interfacesse::scal</text>
</a>
</g>
</g>
<!-- Node50&#45;&gt;Node51 -->
<g id="edge7" class="edge"><title>Node50&#45;&gt;Node51</title>
<path fill="none" stroke="midnightblue" d="M972.335,-15.5C980.651,-15.5 989.243,-15.5 997.602,-15.5"/>
<polygon fill="midnightblue" stroke="midnightblue" points="997.647,-19.0001 1007.65,-15.5 997.647,-12.0001 997.647,-19.0001"/>
</g>
</g>
</svg>
