<?xml version="1.0" encoding="UTF-8" standalone="no"?>
<!DOCTYPE svg PUBLIC "-//W3C//DTD SVG 1.1//EN"
 "http://www.w3.org/Graphics/SVG/1.1/DTD/svg11.dtd">
<!-- Generated by graphviz version 2.38.0 (20140413.2041)
 -->
<!-- Title: partition::PartitionLabel&lt; T_CLUSTERIDX &gt; Pages: 1 -->
<svg width="253pt" height="435pt"
 viewBox="0.00 0.00 253.00 435.00" xmlns="http://www.w3.org/2000/svg" xmlns:xlink="http://www.w3.org/1999/xlink">
<g id="graph0" class="graph" transform="scale(1 1) rotate(0) translate(4 431)">
<title>partition::PartitionLabel&lt; T_CLUSTERIDX &gt;</title>
<polygon fill="white" stroke="none" points="-4,4 -4,-431 249,-431 249,4 -4,4"/>
<!-- Node2 -->
<g id="node1" class="node"><title>Node2</title>
<g id="a_node1"><a xlink:title="Partition of instances with label string assigned previous.">
<polygon fill="#bfbfbf" stroke="black" points="47.5,-0.5 47.5,-200.5 180.5,-200.5 180.5,-0.5 47.5,-0.5"/>
<text text-anchor="start" x="55.5" y="-188.5" font-family="Helvetica,sans-Serif" font-size="10.00">partition::PartitionLabel</text>
<text text-anchor="middle" x="114" y="-177.5" font-family="Helvetica,sans-Serif" font-size="10.00">&lt; T_CLUSTERIDX &gt;</text>
<polyline fill="none" stroke="black" points="47.5,-170.5 180.5,-170.5 "/>
<text text-anchor="start" x="55.5" y="-158.5" font-family="Helvetica,sans-Serif" font-size="10.00"># _arrayit_idxMemberShip</text>
<text text-anchor="start" x="55.5" y="-147.5" font-family="Helvetica,sans-Serif" font-size="10.00"># _ui_numInstances</text>
<text text-anchor="start" x="55.5" y="-136.5" font-family="Helvetica,sans-Serif" font-size="10.00"># _ptcidx_iteratornext</text>
<text text-anchor="start" x="55.5" y="-125.5" font-family="Helvetica,sans-Serif" font-size="10.00"># _ptcidx_iteratorlast</text>
<polyline fill="none" stroke="black" points="47.5,-118.5 180.5,-118.5 "/>
<text text-anchor="start" x="55.5" y="-106.5" font-family="Helvetica,sans-Serif" font-size="10.00">+ PartitionLabel()</text>
<text text-anchor="start" x="55.5" y="-95.5" font-family="Helvetica,sans-Serif" font-size="10.00">+ ~PartitionLabel()</text>
<text text-anchor="start" x="55.5" y="-84.5" font-family="Helvetica,sans-Serif" font-size="10.00">+ begin()</text>
<text text-anchor="start" x="55.5" y="-73.5" font-family="Helvetica,sans-Serif" font-size="10.00">+ next()</text>
<text text-anchor="start" x="55.5" y="-62.5" font-family="Helvetica,sans-Serif" font-size="10.00">+ end()</text>
<text text-anchor="start" x="55.5" y="-51.5" font-family="Helvetica,sans-Serif" font-size="10.00">+ getClusterIdx()</text>
<text text-anchor="start" x="55.5" y="-40.5" font-family="Helvetica,sans-Serif" font-size="10.00">+ getNumInstances()</text>
<text text-anchor="start" x="55.5" y="-29.5" font-family="Helvetica,sans-Serif" font-size="10.00">+ getNumCluster()</text>
<text text-anchor="start" x="55.5" y="-18.5" font-family="Helvetica,sans-Serif" font-size="10.00">+ setNumCluster()</text>
<text text-anchor="start" x="55.5" y="-7.5" font-family="Helvetica,sans-Serif" font-size="10.00">+ print()</text>
</a>
</g>
</g>
<!-- Node3 -->
<g id="node2" class="node"><title>Node3</title>
<g id="a_node2"><a xlink:href="classpartition_1_1_partition.html" target="_top" xlink:title="Definition of the abstract class Partition, to build a cluster of a dataset.">
<polygon fill="white" stroke="black" points="0,-248.5 0,-426.5 110,-426.5 110,-248.5 0,-248.5"/>
<text text-anchor="start" x="8" y="-414.5" font-family="Helvetica,sans-Serif" font-size="10.00">partition::Partition</text>
<text text-anchor="middle" x="55" y="-403.5" font-family="Helvetica,sans-Serif" font-size="10.00">&lt; T_CLUSTERIDX &gt;</text>
<polyline fill="none" stroke="black" points="0,-396.5 110,-396.5 "/>
<text text-anchor="middle" x="55" y="-384.5" font-family="Helvetica,sans-Serif" font-size="10.00"> </text>
<polyline fill="none" stroke="black" points="0,-377.5 110,-377.5 "/>
<text text-anchor="start" x="8" y="-365.5" font-family="Helvetica,sans-Serif" font-size="10.00">+ Partition()</text>
<text text-anchor="start" x="8" y="-354.5" font-family="Helvetica,sans-Serif" font-size="10.00">+ Partition()</text>
<text text-anchor="start" x="8" y="-343.5" font-family="Helvetica,sans-Serif" font-size="10.00">+ Partition()</text>
<text text-anchor="start" x="8" y="-332.5" font-family="Helvetica,sans-Serif" font-size="10.00">+ ~Partition()</text>
<text text-anchor="start" x="8" y="-321.5" font-family="Helvetica,sans-Serif" font-size="10.00">+ getClusterIdx()</text>
<text text-anchor="start" x="8" y="-310.5" font-family="Helvetica,sans-Serif" font-size="10.00">+ begin()</text>
<text text-anchor="start" x="8" y="-299.5" font-family="Helvetica,sans-Serif" font-size="10.00">+ next()</text>
<text text-anchor="start" x="8" y="-288.5" font-family="Helvetica,sans-Serif" font-size="10.00">+ end()</text>
<text text-anchor="start" x="8" y="-277.5" font-family="Helvetica,sans-Serif" font-size="10.00">+ getNumInstances()</text>
<text text-anchor="start" x="8" y="-266.5" font-family="Helvetica,sans-Serif" font-size="10.00">+ getNumCluster()</text>
<text text-anchor="start" x="8" y="-255.5" font-family="Helvetica,sans-Serif" font-size="10.00">+ print()</text>
</a>
</g>
</g>
<!-- Node3&#45;&gt;Node2 -->
<g id="edge1" class="edge"><title>Node3&#45;&gt;Node2</title>
<path fill="none" stroke="midnightblue" d="M79.6212,-238.432C82.7419,-226.002 85.9376,-213.274 89.0632,-200.825"/>
<polygon fill="none" stroke="midnightblue" points="76.1778,-237.775 77.1373,-248.326 82.9671,-239.479 76.1778,-237.775"/>
</g>
<!-- Node4 -->
<g id="node3" class="node"><title>Node4</title>
<g id="a_node3"><a xlink:title=" ">
<polygon fill="white" stroke="#bfbfbf" points="128,-309 128,-366 220,-366 220,-309 128,-309"/>
<text text-anchor="middle" x="174" y="-354" font-family="Helvetica,sans-Serif" font-size="10.00">T_CLUSTERIDX</text>
<polyline fill="none" stroke="#bfbfbf" points="128,-347 220,-347 "/>
<text text-anchor="middle" x="174" y="-335" font-family="Helvetica,sans-Serif" font-size="10.00"> </text>
<polyline fill="none" stroke="#bfbfbf" points="128,-328 220,-328 "/>
<text text-anchor="middle" x="174" y="-316" font-family="Helvetica,sans-Serif" font-size="10.00"> </text>
</a>
</g>
</g>
<!-- Node4&#45;&gt;Node2 -->
<g id="edge2" class="edge"><title>Node4&#45;&gt;Node2</title>
<path fill="none" stroke="#404040" d="M166.882,-308.62C160.746,-284.589 151.467,-248.244 142.385,-212.675"/>
<polygon fill="none" stroke="#404040" points="142.286,-212.288 136.926,-207.464 139.318,-200.661 144.678,-205.485 142.286,-212.288"/>
<text text-anchor="middle" x="195" y="-222" font-family="Helvetica,sans-Serif" font-size="10.00"> #_cidx_numClustersK</text>
</g>
</g>
</svg>
