<?xml version="1.0" encoding="UTF-8" standalone="no"?>
<!DOCTYPE svg PUBLIC "-//W3C//DTD SVG 1.1//EN"
 "http://www.w3.org/Graphics/SVG/1.1/DTD/svg11.dtd">
<!-- Generated by graphviz version 2.38.0 (20140413.2041)
 -->
<!-- Title: gaencode::ChromosomeIGKA::ChromosomeIGKA Pages: 1 -->
<svg width="1166pt" height="78pt"
 viewBox="0.00 0.00 1166.00 77.50" xmlns="http://www.w3.org/2000/svg" xmlns:xlink="http://www.w3.org/1999/xlink">
<g id="graph0" class="graph" transform="scale(1 1) rotate(0) translate(4 73.5)">
<title>gaencode::ChromosomeIGKA::ChromosomeIGKA</title>
<polygon fill="white" stroke="none" points="-4,4 -4,-73.5 1162,-73.5 1162,4 -4,4"/>
<!-- Node1 -->
<g id="node1" class="node"><title>Node1</title>
<polygon fill="#bfbfbf" stroke="black" points="0,-17 0,-47 155,-47 155,-17 0,-17"/>
<text text-anchor="start" x="8" y="-35" font-family="Helvetica,sans-Serif" font-size="10.00">gaencode::ChromosomeIGKA</text>
<text text-anchor="middle" x="77.5" y="-24" font-family="Helvetica,sans-Serif" font-size="10.00">::ChromosomeIGKA</text>
</g>
<!-- Node2 -->
<g id="node2" class="node"><title>Node2</title>
<g id="a_node2"><a xlink:href="classgaencode_1_1_chromosome_i_g_k_a.html#a57eb24b8fdb94fb0680815bcfb40b665" target="_top" xlink:title="gaencode::ChromosomeIGKA\l::ChromosomeIGKA">
<polygon fill="white" stroke="black" points="191,-39 191,-69 346,-69 346,-39 191,-39"/>
<text text-anchor="start" x="199" y="-57" font-family="Helvetica,sans-Serif" font-size="10.00">gaencode::ChromosomeIGKA</text>
<text text-anchor="middle" x="268.5" y="-46" font-family="Helvetica,sans-Serif" font-size="10.00">::ChromosomeIGKA</text>
</a>
</g>
</g>
<!-- Node1&#45;&gt;Node2 -->
<g id="edge1" class="edge"><title>Node1&#45;&gt;Node2</title>
<path fill="none" stroke="midnightblue" d="M155.101,-40.9165C163.559,-41.901 172.215,-42.9086 180.786,-43.9063"/>
<polygon fill="midnightblue" stroke="midnightblue" points="180.452,-47.391 190.79,-45.0708 181.262,-40.4379 180.452,-47.391"/>
</g>
<!-- Node3 -->
<g id="node3" class="node"><title>Node3</title>
<g id="a_node3"><a xlink:href="namespaceinterfacesse.html#a925f44ed84d40e9af5050fa0e1373396" target="_top" xlink:title="copy array aoarrayt_x in aoarrayt_y of type T ">
<polygon fill="white" stroke="black" points="219,-0.5 219,-19.5 318,-19.5 318,-0.5 219,-0.5"/>
<text text-anchor="middle" x="268.5" y="-7.5" font-family="Helvetica,sans-Serif" font-size="10.00">interfacesse::copy</text>
</a>
</g>
</g>
<!-- Node1&#45;&gt;Node3 -->
<g id="edge2" class="edge"><title>Node1&#45;&gt;Node3</title>
<path fill="none" stroke="midnightblue" d="M155.101,-23.0835C172.896,-21.0121 191.57,-18.8384 208.473,-16.8709"/>
<polygon fill="midnightblue" stroke="midnightblue" points="209.216,-20.3081 218.744,-15.6753 208.407,-13.355 209.216,-20.3081"/>
</g>
<!-- Node4 -->
<g id="node4" class="node"><title>Node4</title>
<g id="a_node4"><a xlink:href="namespaceinterfacesse.html#afaa45a2a27710ea2dfa979289cf4961d" target="_top" xlink:title="swap items of aoarrayt_y to aiarrayt_x ">
<polygon fill="white" stroke="black" points="382,-0.5 382,-19.5 483,-19.5 483,-0.5 382,-0.5"/>
<text text-anchor="middle" x="432.5" y="-7.5" font-family="Helvetica,sans-Serif" font-size="10.00">interfacesse::swap</text>
</a>
</g>
</g>
<!-- Node3&#45;&gt;Node4 -->
<g id="edge3" class="edge"><title>Node3&#45;&gt;Node4</title>
<path fill="none" stroke="midnightblue" d="M318.105,-10C334.934,-10 353.995,-10 371.623,-10"/>
<polygon fill="midnightblue" stroke="midnightblue" points="371.808,-13.5001 381.808,-10 371.807,-6.5001 371.808,-13.5001"/>
</g>
<!-- Node5 -->
<g id="node5" class="node"><title>Node5</title>
<g id="a_node5"><a xlink:href="namespaceinterfacesse.html#a2f42addf86fc8b9cd0c6620217b8a2db" target="_top" xlink:title="swap items of aoarrayt_y to aiarrayt_x ">
<polygon fill="white" stroke="black" points="519,-0.5 519,-19.5 611,-19.5 611,-0.5 519,-0.5"/>
<text text-anchor="middle" x="565" y="-7.5" font-family="Helvetica,sans-Serif" font-size="10.00">interfacesse::dot</text>
</a>
</g>
</g>
<!-- Node4&#45;&gt;Node5 -->
<g id="edge4" class="edge"><title>Node4&#45;&gt;Node5</title>
<path fill="none" stroke="midnightblue" d="M483.209,-10C491.505,-10 500.156,-10 508.584,-10"/>
<polygon fill="midnightblue" stroke="midnightblue" points="508.714,-13.5001 518.714,-10 508.714,-6.5001 508.714,-13.5001"/>
</g>
<!-- Node6 -->
<g id="node6" class="node"><title>Node6</title>
<g id="a_node6"><a xlink:href="namespaceinterfacesse.html#a25f6950d589b92fd5bcf2007fb3fae19" target="_top" xlink:title="interfacesse::sum">
<polygon fill="white" stroke="black" points="647,-0.5 647,-19.5 743,-19.5 743,-0.5 647,-0.5"/>
<text text-anchor="middle" x="695" y="-7.5" font-family="Helvetica,sans-Serif" font-size="10.00">interfacesse::sum</text>
</a>
</g>
</g>
<!-- Node5&#45;&gt;Node6 -->
<g id="edge5" class="edge"><title>Node5&#45;&gt;Node6</title>
<path fill="none" stroke="midnightblue" d="M611.128,-10C619.315,-10 627.955,-10 636.442,-10"/>
<polygon fill="midnightblue" stroke="midnightblue" points="636.679,-13.5001 646.678,-10 636.678,-6.5001 636.679,-13.5001"/>
</g>
<!-- Node7 -->
<g id="node7" class="node"><title>Node7</title>
<g id="a_node7"><a xlink:href="namespaceinterfacesse.html#a9dd5fb43ad8a83ee5cb2f5ba1bb2085b" target="_top" xlink:title="interfacesse::axpy">
<polygon fill="white" stroke="black" points="779,-0.5 779,-19.5 878,-19.5 878,-0.5 779,-0.5"/>
<text text-anchor="middle" x="828.5" y="-7.5" font-family="Helvetica,sans-Serif" font-size="10.00">interfacesse::axpy</text>
</a>
</g>
</g>
<!-- Node6&#45;&gt;Node7 -->
<g id="edge6" class="edge"><title>Node6&#45;&gt;Node7</title>
<path fill="none" stroke="midnightblue" d="M743.103,-10C751.472,-10 760.281,-10 768.922,-10"/>
<polygon fill="midnightblue" stroke="midnightblue" points="768.953,-13.5001 778.953,-10 768.953,-6.5001 768.953,-13.5001"/>
</g>
<!-- Node8 -->
<g id="node8" class="node"><title>Node8</title>
<g id="a_node8"><a xlink:href="namespaceinterfacesse.html#ae3f94c42a59db65b2941dbfc9f449ea1" target="_top" xlink:title="function xAXPY of blas for doubles vectors ">
<polygon fill="white" stroke="black" points="914,-0.5 914,-19.5 1026,-19.5 1026,-0.5 914,-0.5"/>
<text text-anchor="middle" x="970" y="-7.5" font-family="Helvetica,sans-Serif" font-size="10.00">interfacesse::axpyInv</text>
</a>
</g>
</g>
<!-- Node7&#45;&gt;Node8 -->
<g id="edge7" class="edge"><title>Node7&#45;&gt;Node8</title>
<path fill="none" stroke="midnightblue" d="M878.29,-10C886.535,-10 895.211,-10 903.794,-10"/>
<polygon fill="midnightblue" stroke="midnightblue" points="903.797,-13.5001 913.797,-10 903.797,-6.5001 903.797,-13.5001"/>
</g>
<!-- Node9 -->
<g id="node9" class="node"><title>Node9</title>
<g id="a_node9"><a xlink:href="namespaceinterfacesse.html#a144ebf70bf38495c3de1aca2c8365e08" target="_top" xlink:title="scal items of the array of type T ">
<polygon fill="white" stroke="black" points="1062,-0.5 1062,-19.5 1158,-19.5 1158,-0.5 1062,-0.5"/>
<text text-anchor="middle" x="1110" y="-7.5" font-family="Helvetica,sans-Serif" font-size="10.00">interfacesse::scal</text>
</a>
</g>
</g>
<!-- Node8&#45;&gt;Node9 -->
<g id="edge8" class="edge"><title>Node8&#45;&gt;Node9</title>
<path fill="none" stroke="midnightblue" d="M1026.33,-10C1034.65,-10 1043.24,-10 1051.6,-10"/>
<polygon fill="midnightblue" stroke="midnightblue" points="1051.65,-13.5001 1061.65,-10 1051.65,-6.5001 1051.65,-13.5001"/>
</g>
</g>
</svg>
