<?xml version="1.0" encoding="UTF-8" standalone="no"?>
<!DOCTYPE svg PUBLIC "-//W3C//DTD SVG 1.1//EN"
 "http://www.w3.org/Graphics/SVG/1.1/DTD/svg11.dtd">
<!-- Generated by graphviz version 2.38.0 (20140413.2041)
 -->
<!-- Title: ds::PartitionLinkedStats::subInstanceFromCluster Pages: 1 -->
<svg width="1725pt" height="592pt"
 viewBox="0.00 0.00 1725.00 592.00" xmlns="http://www.w3.org/2000/svg" xmlns:xlink="http://www.w3.org/1999/xlink">
<g id="graph0" class="graph" transform="scale(1 1) rotate(0) translate(4 588)">
<title>ds::PartitionLinkedStats::subInstanceFromCluster</title>
<polygon fill="white" stroke="none" points="-4,4 -4,-588 1721,-588 1721,4 -4,4"/>
<!-- Node212 -->
<g id="node1" class="node"><title>Node212</title>
<polygon fill="#bfbfbf" stroke="black" points="0,-87 0,-117 131,-117 131,-87 0,-87"/>
<text text-anchor="start" x="8" y="-105" font-family="Helvetica,sans-Serif" font-size="10.00">ds::PartitionLinkedStats</text>
<text text-anchor="middle" x="65.5" y="-94" font-family="Helvetica,sans-Serif" font-size="10.00">::subInstanceFromCluster</text>
</g>
<!-- Node213 -->
<g id="node2" class="node"><title>Node213</title>
<g id="a_node2"><a xlink:href="namespaceinterfacesse.html#a9dd5fb43ad8a83ee5cb2f5ba1bb2085b" target="_top" xlink:title="interfacesse::axpy">
<polygon fill="white" stroke="black" points="669.5,-154.5 669.5,-173.5 768.5,-173.5 768.5,-154.5 669.5,-154.5"/>
<text text-anchor="middle" x="719" y="-161.5" font-family="Helvetica,sans-Serif" font-size="10.00">interfacesse::axpy</text>
</a>
</g>
</g>
<!-- Node212&#45;&gt;Node213 -->
<g id="edge1" class="edge"><title>Node212&#45;&gt;Node213</title>
<path fill="none" stroke="midnightblue" d="M81.4262,-117.153C99.9017,-135.043 133.095,-164.45 167,-181 232,-212.727 253.199,-211.27 325,-220 378.826,-226.545 393.059,-225.515 447,-220 488.993,-215.707 601.031,-190.92 667.162,-175.798"/>
<polygon fill="midnightblue" stroke="midnightblue" points="668.003,-179.196 676.968,-173.55 666.439,-172.373 668.003,-179.196"/>
</g>
<!-- Node216 -->
<g id="node5" class="node"><title>Node216</title>
<g id="a_node5"><a xlink:href="classds_1_1_partition_linked_stats.html#a55f8dadc883ae7dd4154d451197176d8" target="_top" xlink:title="ds::PartitionLinkedStats\l::changeSumInstances">
<polygon fill="white" stroke="black" points="167,-113 167,-143 289,-143 289,-113 167,-113"/>
<text text-anchor="start" x="175" y="-131" font-family="Helvetica,sans-Serif" font-size="10.00">ds::PartitionLinkedStats</text>
<text text-anchor="middle" x="228" y="-120" font-family="Helvetica,sans-Serif" font-size="10.00">::changeSumInstances</text>
</a>
</g>
</g>
<!-- Node212&#45;&gt;Node216 -->
<g id="edge4" class="edge"><title>Node212&#45;&gt;Node216</title>
<path fill="none" stroke="midnightblue" d="M131.319,-112.5C139.761,-113.868 148.439,-115.274 156.962,-116.654"/>
<polygon fill="midnightblue" stroke="midnightblue" points="156.44,-120.115 166.871,-118.259 157.559,-113.205 156.44,-120.115"/>
</g>
<!-- Node220 -->
<g id="node9" class="node"><title>Node220</title>
<g id="a_node9"><a xlink:href="classds_1_1_partition_linked.html#adc3c73d4486bec92878e785229d2536e" target="_top" xlink:title="ds::PartitionLinked\l::subInstanceFromCluster">
<polygon fill="white" stroke="black" points="844.5,-64 844.5,-94 975.5,-94 975.5,-64 844.5,-64"/>
<text text-anchor="start" x="852.5" y="-82" font-family="Helvetica,sans-Serif" font-size="10.00">ds::PartitionLinked</text>
<text text-anchor="middle" x="910" y="-71" font-family="Helvetica,sans-Serif" font-size="10.00">::subInstanceFromCluster</text>
</a>
</g>
</g>
<!-- Node212&#45;&gt;Node220 -->
<g id="edge34" class="edge"><title>Node212&#45;&gt;Node220</title>
<path fill="none" stroke="midnightblue" d="M93.6753,-86.9495C147.532,-58.5765 272.361,-0 385,-0 385,-0 385,-0 545.5,-0 659.066,-0 788.132,-37.2769 857.815,-60.6182"/>
<polygon fill="midnightblue" stroke="midnightblue" points="857.062,-64.0585 867.657,-63.9548 859.31,-57.4292 857.062,-64.0585"/>
</g>
<!-- Node226 -->
<g id="node15" class="node"><title>Node226</title>
<g id="a_node15"><a xlink:href="classmat_1_1_matrix_resizable_row.html#a9dc9ad27ad33933bfa6c0f483e24cc33" target="_top" xlink:title="mat::MatrixResizableRow\l::getRow">
<polygon fill="white" stroke="black" points="653.5,-56 653.5,-86 784.5,-86 784.5,-56 653.5,-56"/>
<text text-anchor="start" x="661.5" y="-74" font-family="Helvetica,sans-Serif" font-size="10.00">mat::MatrixResizableRow</text>
<text text-anchor="middle" x="719" y="-63" font-family="Helvetica,sans-Serif" font-size="10.00">::getRow</text>
</a>
</g>
</g>
<!-- Node212&#45;&gt;Node226 -->
<g id="edge33" class="edge"><title>Node212&#45;&gt;Node226</title>
<path fill="none" stroke="midnightblue" d="M131.051,-98.0115C212.901,-93.0516 358.382,-84.5614 483,-79 536.554,-76.61 597.001,-74.567 643.178,-73.1437"/>
<polygon fill="midnightblue" stroke="midnightblue" points="643.513,-76.6353 653.401,-72.8316 643.299,-69.6385 643.513,-76.6353"/>
</g>
<!-- Node214 -->
<g id="node3" class="node"><title>Node214</title>
<g id="a_node3"><a xlink:href="namespaceinterfacesse.html#ae3f94c42a59db65b2941dbfc9f449ea1" target="_top" xlink:title="function xAXPY of blas for doubles vectors ">
<polygon fill="white" stroke="black" points="854,-154.5 854,-173.5 966,-173.5 966,-154.5 854,-154.5"/>
<text text-anchor="middle" x="910" y="-161.5" font-family="Helvetica,sans-Serif" font-size="10.00">interfacesse::axpyInv</text>
</a>
</g>
</g>
<!-- Node213&#45;&gt;Node214 -->
<g id="edge2" class="edge"><title>Node213&#45;&gt;Node214</title>
<path fill="none" stroke="midnightblue" d="M768.672,-164C791.551,-164 819.158,-164 843.812,-164"/>
<polygon fill="midnightblue" stroke="midnightblue" points="843.813,-167.5 853.813,-164 843.813,-160.5 843.813,-167.5"/>
</g>
<!-- Node215 -->
<g id="node4" class="node"><title>Node215</title>
<g id="a_node4"><a xlink:href="namespaceinterfacesse.html#a144ebf70bf38495c3de1aca2c8365e08" target="_top" xlink:title="scal items of the array of type T ">
<polygon fill="white" stroke="black" points="1032.5,-154.5 1032.5,-173.5 1128.5,-173.5 1128.5,-154.5 1032.5,-154.5"/>
<text text-anchor="middle" x="1080.5" y="-161.5" font-family="Helvetica,sans-Serif" font-size="10.00">interfacesse::scal</text>
</a>
</g>
</g>
<!-- Node214&#45;&gt;Node215 -->
<g id="edge3" class="edge"><title>Node214&#45;&gt;Node215</title>
<path fill="none" stroke="midnightblue" d="M966.173,-164C984.149,-164 1004.14,-164 1022.26,-164"/>
<polygon fill="midnightblue" stroke="midnightblue" points="1022.4,-167.5 1032.4,-164 1022.4,-160.5 1022.4,-167.5"/>
</g>
<!-- Node216&#45;&gt;Node213 -->
<g id="edge5" class="edge"><title>Node216&#45;&gt;Node213</title>
<path fill="none" stroke="midnightblue" d="M289.451,-132.45C384.03,-139.413 565.82,-152.797 659.306,-159.679"/>
<polygon fill="midnightblue" stroke="midnightblue" points="659.208,-163.181 669.438,-160.425 659.722,-156.2 659.208,-163.181"/>
</g>
<!-- Node217 -->
<g id="node6" class="node"><title>Node217</title>
<g id="a_node6"><a xlink:href="classds_1_1_partition_linked_stats.html#aec76b7c8e249f1291d6557947c04f31e" target="_top" xlink:title="ds::PartitionLinkedStats\l::changeMemberShip">
<polygon fill="white" stroke="black" points="325,-181 325,-211 447,-211 447,-181 325,-181"/>
<text text-anchor="start" x="333" y="-199" font-family="Helvetica,sans-Serif" font-size="10.00">ds::PartitionLinkedStats</text>
<text text-anchor="middle" x="386" y="-188" font-family="Helvetica,sans-Serif" font-size="10.00">::changeMemberShip</text>
</a>
</g>
</g>
<!-- Node216&#45;&gt;Node217 -->
<g id="edge6" class="edge"><title>Node216&#45;&gt;Node217</title>
<path fill="none" stroke="midnightblue" d="M263.621,-143.091C286.444,-153.04 316.531,-166.155 341.04,-176.838"/>
<polygon fill="midnightblue" stroke="midnightblue" points="339.91,-180.163 350.475,-180.951 342.707,-173.746 339.91,-180.163"/>
</g>
<!-- Node216&#45;&gt;Node226 -->
<g id="edge32" class="edge"><title>Node216&#45;&gt;Node226</title>
<path fill="none" stroke="midnightblue" d="M289.244,-119.7C340.674,-112.728 416.632,-102.699 483,-95 536.496,-88.7943 596.945,-82.6401 643.137,-78.1174"/>
<polygon fill="midnightblue" stroke="midnightblue" points="643.751,-81.5742 653.364,-77.1199 643.071,-74.6073 643.751,-81.5742"/>
</g>
<!-- Node217&#45;&gt;Node212 -->
<g id="edge31" class="edge"><title>Node217&#45;&gt;Node212</title>
<path fill="none" stroke="midnightblue" d="M324.664,-188.177C280.263,-181.38 218.861,-169.787 167,-152 144.188,-144.176 119.946,-132.232 100.988,-121.98"/>
<polygon fill="midnightblue" stroke="midnightblue" points="102.583,-118.864 92.1347,-117.109 99.2086,-124.996 102.583,-118.864"/>
</g>
<!-- Node218 -->
<g id="node7" class="node"><title>Node218</title>
<g id="a_node7"><a xlink:href="classds_1_1_partition_linked_stats.html#adf5abdfed4d9130304eb420025a3b167" target="_top" xlink:title="ds::PartitionLinkedStats\l::addInstanceToCluster">
<polygon fill="white" stroke="black" points="483,-105 483,-135 606,-135 606,-105 483,-105"/>
<text text-anchor="start" x="491" y="-123" font-family="Helvetica,sans-Serif" font-size="10.00">ds::PartitionLinkedStats</text>
<text text-anchor="middle" x="544.5" y="-112" font-family="Helvetica,sans-Serif" font-size="10.00">::addInstanceToCluster</text>
</a>
</g>
</g>
<!-- Node217&#45;&gt;Node218 -->
<g id="edge7" class="edge"><title>Node217&#45;&gt;Node218</title>
<path fill="none" stroke="midnightblue" d="M417.919,-180.985C442.383,-169.105 476.732,-152.424 503.324,-139.51"/>
<polygon fill="midnightblue" stroke="midnightblue" points="504.911,-142.631 512.377,-135.114 501.853,-136.334 504.911,-142.631"/>
</g>
<!-- Node227 -->
<g id="node16" class="node"><title>Node227</title>
<g id="a_node16"><a xlink:href="classds_1_1_partition_linked_stats.html#ac002167e3a4f4f2b692c3b7e1c9fd785" target="_top" xlink:title="ds::PartitionLinkedStats\l::print">
<polygon fill="white" stroke="black" points="483.5,-362 483.5,-392 605.5,-392 605.5,-362 483.5,-362"/>
<text text-anchor="start" x="491.5" y="-380" font-family="Helvetica,sans-Serif" font-size="10.00">ds::PartitionLinkedStats</text>
<text text-anchor="middle" x="544.5" y="-369" font-family="Helvetica,sans-Serif" font-size="10.00">::print</text>
</a>
</g>
</g>
<!-- Node217&#45;&gt;Node227 -->
<g id="edge20" class="edge"><title>Node217&#45;&gt;Node227</title>
<path fill="none" stroke="midnightblue" d="M400.074,-211.121C427.461,-242.796 491.007,-316.289 523.534,-353.909"/>
<polygon fill="midnightblue" stroke="midnightblue" points="521.165,-356.52 530.353,-361.795 526.46,-351.941 521.165,-356.52"/>
</g>
<!-- Node218&#45;&gt;Node212 -->
<g id="edge19" class="edge"><title>Node218&#45;&gt;Node212</title>
<path fill="none" stroke="midnightblue" d="M482.877,-114.886C431.348,-110.794 355.382,-105.364 289,-103 239.859,-101.25 184.574,-100.993 141.406,-101.177"/>
<polygon fill="midnightblue" stroke="midnightblue" points="141.249,-97.6778 131.267,-101.229 141.285,-104.678 141.249,-97.6778"/>
</g>
<!-- Node218&#45;&gt;Node213 -->
<g id="edge17" class="edge"><title>Node218&#45;&gt;Node213</title>
<path fill="none" stroke="midnightblue" d="M604.382,-135.019C626.106,-140.56 650.414,-146.761 670.954,-152"/>
<polygon fill="midnightblue" stroke="midnightblue" points="670.152,-155.407 680.707,-154.488 671.882,-148.625 670.152,-155.407"/>
</g>
<!-- Node219 -->
<g id="node8" class="node"><title>Node219</title>
<g id="a_node8"><a xlink:href="classds_1_1_partition_linked.html#a4013f0d8892069abc3fe9c05103d60e0" target="_top" xlink:title="ds::PartitionLinked\l::addInstanceToCluster">
<polygon fill="white" stroke="black" points="657.5,-105 657.5,-135 780.5,-135 780.5,-105 657.5,-105"/>
<text text-anchor="start" x="665.5" y="-123" font-family="Helvetica,sans-Serif" font-size="10.00">ds::PartitionLinked</text>
<text text-anchor="middle" x="719" y="-112" font-family="Helvetica,sans-Serif" font-size="10.00">::addInstanceToCluster</text>
</a>
</g>
</g>
<!-- Node218&#45;&gt;Node219 -->
<g id="edge8" class="edge"><title>Node218&#45;&gt;Node219</title>
<path fill="none" stroke="midnightblue" d="M606.317,-120C619.535,-120 633.628,-120 647.194,-120"/>
<polygon fill="midnightblue" stroke="midnightblue" points="647.442,-123.5 657.442,-120 647.442,-116.5 647.442,-123.5"/>
</g>
<!-- Node218&#45;&gt;Node226 -->
<g id="edge18" class="edge"><title>Node218&#45;&gt;Node226</title>
<path fill="none" stroke="midnightblue" d="M598.663,-104.899C616.537,-99.8215 636.644,-94.1098 655.188,-88.8423"/>
<polygon fill="midnightblue" stroke="midnightblue" points="656.349,-92.1509 665.012,-86.0516 654.436,-85.4173 656.349,-92.1509"/>
</g>
<!-- Node219&#45;&gt;Node220 -->
<g id="edge9" class="edge"><title>Node219&#45;&gt;Node220</title>
<path fill="none" stroke="midnightblue" d="M780.581,-106.858C797.708,-103.143 816.549,-99.0556 834.398,-95.1836"/>
<polygon fill="midnightblue" stroke="midnightblue" points="835.164,-98.5989 844.194,-93.0583 833.68,-91.758 835.164,-98.5989"/>
</g>
<!-- Node221 -->
<g id="node10" class="node"><title>Node221</title>
<g id="a_node10"><a xlink:href="classds_1_1_partition_linked.html#abfd8979dbdeee0fda9d8cb22aa9062ed" target="_top" xlink:title="ds::PartitionLinked\l::changeMemberShip">
<polygon fill="white" stroke="black" points="1024,-85 1024,-115 1137,-115 1137,-85 1024,-85"/>
<text text-anchor="start" x="1032" y="-103" font-family="Helvetica,sans-Serif" font-size="10.00">ds::PartitionLinked</text>
<text text-anchor="middle" x="1080.5" y="-92" font-family="Helvetica,sans-Serif" font-size="10.00">::changeMemberShip</text>
</a>
</g>
</g>
<!-- Node220&#45;&gt;Node221 -->
<g id="edge10" class="edge"><title>Node220&#45;&gt;Node221</title>
<path fill="none" stroke="midnightblue" d="M975.665,-80.4739C988.187,-81.8203 1001.32,-83.4518 1013.87,-85.2199"/>
<polygon fill="midnightblue" stroke="midnightblue" points="1013.39,-88.6868 1023.79,-86.6642 1014.4,-81.7599 1013.39,-88.6868"/>
</g>
<!-- Node221&#45;&gt;Node219 -->
<g id="edge11" class="edge"><title>Node221&#45;&gt;Node219</title>
<path fill="none" stroke="midnightblue" d="M1024,-103.088C961.325,-106.574 859.203,-112.256 790.831,-116.059"/>
<polygon fill="midnightblue" stroke="midnightblue" points="790.368,-112.58 780.578,-116.63 790.757,-119.569 790.368,-112.58"/>
</g>
<!-- Node221&#45;&gt;Node220 -->
<g id="edge16" class="edge"><title>Node221&#45;&gt;Node220</title>
<path fill="none" stroke="midnightblue" d="M1023.79,-99.4506C1011.64,-98.2507 998.58,-96.7298 985.816,-95.0365"/>
<polygon fill="midnightblue" stroke="midnightblue" points="986.047,-91.5356 975.665,-93.6443 985.096,-98.4706 986.047,-91.5356"/>
</g>
<!-- Node222 -->
<g id="node11" class="node"><title>Node222</title>
<g id="a_node11"><a xlink:href="classds_1_1_partition_linked.html#aaa302ea8b39c37c44507bf4276ffa8f2" target="_top" xlink:title="ds::PartitionLinked\l::getInstanceIdxOfClusterK">
<polygon fill="white" stroke="black" points="1173,-149 1173,-179 1309,-179 1309,-149 1173,-149"/>
<text text-anchor="start" x="1181" y="-167" font-family="Helvetica,sans-Serif" font-size="10.00">ds::PartitionLinked</text>
<text text-anchor="middle" x="1241" y="-156" font-family="Helvetica,sans-Serif" font-size="10.00">::getInstanceIdxOfClusterK</text>
</a>
</g>
</g>
<!-- Node221&#45;&gt;Node222 -->
<g id="edge12" class="edge"><title>Node221&#45;&gt;Node222</title>
<path fill="none" stroke="midnightblue" d="M1118.66,-115.005C1140.94,-124 1169.46,-135.519 1193.26,-145.127"/>
<polygon fill="midnightblue" stroke="midnightblue" points="1192.21,-148.479 1202.8,-148.978 1194.84,-141.988 1192.21,-148.479"/>
</g>
<!-- Node223 -->
<g id="node12" class="node"><title>Node223</title>
<g id="a_node12"><a xlink:href="classds_1_1_partition_linked.html#a1a20dd710247ebccba848e555f9ad9e6" target="_top" xlink:title="ds::PartitionLinked\l::joinCluster">
<polygon fill="white" stroke="black" points="1345,-213 1345,-243 1445,-243 1445,-213 1345,-213"/>
<text text-anchor="start" x="1353" y="-231" font-family="Helvetica,sans-Serif" font-size="10.00">ds::PartitionLinked</text>
<text text-anchor="middle" x="1395" y="-220" font-family="Helvetica,sans-Serif" font-size="10.00">::joinCluster</text>
</a>
</g>
</g>
<!-- Node222&#45;&gt;Node223 -->
<g id="edge13" class="edge"><title>Node222&#45;&gt;Node223</title>
<path fill="none" stroke="midnightblue" d="M1277.64,-179.005C1298.91,-187.96 1326.11,-199.416 1348.87,-208.999"/>
<polygon fill="midnightblue" stroke="midnightblue" points="1347.75,-212.323 1358.32,-212.978 1350.46,-205.872 1347.75,-212.323"/>
</g>
<!-- Node224 -->
<g id="node13" class="node"><title>Node224</title>
<g id="a_node13"><a xlink:href="classds_1_1_partition_linked.html#a6a7de3bc18b0904e2e23536a336e42a8" target="_top" xlink:title="ds::PartitionLinked\l::print">
<polygon fill="white" stroke="black" points="1481,-298 1481,-328 1581,-328 1581,-298 1481,-298"/>
<text text-anchor="start" x="1489" y="-316" font-family="Helvetica,sans-Serif" font-size="10.00">ds::PartitionLinked</text>
<text text-anchor="middle" x="1531" y="-305" font-family="Helvetica,sans-Serif" font-size="10.00">::print</text>
</a>
</g>
</g>
<!-- Node223&#45;&gt;Node224 -->
<g id="edge14" class="edge"><title>Node223&#45;&gt;Node224</title>
<path fill="none" stroke="midnightblue" d="M1419.65,-243.001C1441.33,-256.753 1473.62,-277.239 1497.68,-292.5"/>
<polygon fill="midnightblue" stroke="midnightblue" points="1495.82,-295.462 1506.14,-297.863 1499.57,-289.551 1495.82,-295.462"/>
</g>
<!-- Node225 -->
<g id="node14" class="node"><title>Node225</title>
<g id="a_node14"><a xlink:href="classds_1_1_partition_linked.html#a696f58c4d25fd41adf281d1468440dc9" target="_top" xlink:title="ds::PartitionLinked\l::getNumPartitions">
<polygon fill="white" stroke="black" points="1617,-298 1617,-328 1717,-328 1717,-298 1617,-298"/>
<text text-anchor="start" x="1625" y="-316" font-family="Helvetica,sans-Serif" font-size="10.00">ds::PartitionLinked</text>
<text text-anchor="middle" x="1667" y="-305" font-family="Helvetica,sans-Serif" font-size="10.00">::getNumPartitions</text>
</a>
</g>
</g>
<!-- Node224&#45;&gt;Node225 -->
<g id="edge15" class="edge"><title>Node224&#45;&gt;Node225</title>
<path fill="none" stroke="midnightblue" d="M1581.14,-313C1589.42,-313 1598.1,-313 1606.61,-313"/>
<polygon fill="midnightblue" stroke="midnightblue" points="1606.87,-316.5 1616.87,-313 1606.87,-309.5 1606.87,-316.5"/>
</g>
<!-- Node227&#45;&gt;Node224 -->
<g id="edge29" class="edge"><title>Node227&#45;&gt;Node224</title>
<path fill="none" stroke="midnightblue" d="M605.571,-382.867C677.594,-389.384 801.995,-399 909,-399 909,-399 909,-399 1242,-399 1334.3,-399 1436.54,-357.944 1490.92,-332.566"/>
<polygon fill="midnightblue" stroke="midnightblue" points="1492.65,-335.621 1500.19,-328.177 1489.65,-329.295 1492.65,-335.621"/>
</g>
<!-- Node228 -->
<g id="node17" class="node"><title>Node228</title>
<g id="a_node17"><a xlink:href="classds_1_1_iterator_partition_linked.html#ad171cb96653fadaec272389381a4f8b4" target="_top" xlink:title="ds::IteratorPartitionLinked\l::begin">
<polygon fill="white" stroke="black" points="653.5,-193 653.5,-223 784.5,-223 784.5,-193 653.5,-193"/>
<text text-anchor="start" x="661.5" y="-211" font-family="Helvetica,sans-Serif" font-size="10.00">ds::IteratorPartitionLinked</text>
<text text-anchor="middle" x="719" y="-200" font-family="Helvetica,sans-Serif" font-size="10.00">::begin</text>
</a>
</g>
</g>
<!-- Node227&#45;&gt;Node228 -->
<g id="edge21" class="edge"><title>Node227&#45;&gt;Node228</title>
<path fill="none" stroke="midnightblue" d="M551.488,-361.809C563.871,-332.348 595.113,-267.256 642,-232 643.842,-230.615 645.766,-229.308 647.754,-228.076"/>
<polygon fill="midnightblue" stroke="midnightblue" points="649.713,-230.995 656.818,-223.136 646.363,-224.848 649.713,-230.995"/>
</g>
<!-- Node229 -->
<g id="node18" class="node"><title>Node229</title>
<g id="a_node18"><a xlink:href="namespaceinout.html#a0c10a45877a347dec0d4ec4e5b05b828" target="_top" xlink:title="inout::containerprint">
<polygon fill="white" stroke="black" points="667.5,-564.5 667.5,-583.5 770.5,-583.5 770.5,-564.5 667.5,-564.5"/>
<text text-anchor="middle" x="719" y="-571.5" font-family="Helvetica,sans-Serif" font-size="10.00">inout::containerprint</text>
</a>
</g>
</g>
<!-- Node227&#45;&gt;Node229 -->
<g id="edge22" class="edge"><title>Node227&#45;&gt;Node229</title>
<path fill="none" stroke="midnightblue" d="M549.217,-392.123C558.517,-426.666 586.161,-511.708 642,-555 646.751,-558.684 652.127,-561.662 657.771,-564.068"/>
<polygon fill="midnightblue" stroke="midnightblue" points="656.865,-567.463 667.459,-567.601 659.264,-560.886 656.865,-567.463"/>
</g>
<!-- Node230 -->
<g id="node19" class="node"><title>Node230</title>
<g id="a_node19"><a xlink:href="classds_1_1_iterator_partition_linked.html#af0e179fae69c0d4f047082ee44783613" target="_top" xlink:title="ds::IteratorPartitionLinked::end">
<polygon fill="white" stroke="black" points="642,-526.5 642,-545.5 796,-545.5 796,-526.5 642,-526.5"/>
<text text-anchor="middle" x="719" y="-533.5" font-family="Helvetica,sans-Serif" font-size="10.00">ds::IteratorPartitionLinked::end</text>
</a>
</g>
</g>
<!-- Node227&#45;&gt;Node230 -->
<g id="edge23" class="edge"><title>Node227&#45;&gt;Node230</title>
<path fill="none" stroke="midnightblue" d="M551.649,-392.366C564.106,-421.452 595.176,-484.542 642,-517 644.882,-518.998 647.954,-520.786 651.149,-522.386"/>
<polygon fill="midnightblue" stroke="midnightblue" points="649.855,-525.64 660.422,-526.417 652.646,-519.22 649.855,-525.64"/>
</g>
<!-- Node231 -->
<g id="node20" class="node"><title>Node231</title>
<g id="a_node20"><a xlink:href="classds_1_1_partition_linked.html#a70877e6d118d2f041d9006fdf565daec" target="_top" xlink:title="ds::PartitionLinked\l::getNumInstances">
<polygon fill="white" stroke="black" points="669,-477 669,-507 769,-507 769,-477 669,-477"/>
<text text-anchor="start" x="677" y="-495" font-family="Helvetica,sans-Serif" font-size="10.00">ds::PartitionLinked</text>
<text text-anchor="middle" x="719" y="-484" font-family="Helvetica,sans-Serif" font-size="10.00">::getNumInstances</text>
</a>
</g>
</g>
<!-- Node227&#45;&gt;Node231 -->
<g id="edge24" class="edge"><title>Node227&#45;&gt;Node231</title>
<path fill="none" stroke="midnightblue" d="M557.643,-392.093C574.546,-412.162 607.052,-447.477 642,-468 647.403,-471.173 653.272,-473.974 659.274,-476.436"/>
<polygon fill="midnightblue" stroke="midnightblue" points="658.174,-479.762 668.766,-480.03 660.653,-473.215 658.174,-479.762"/>
</g>
<!-- Node232 -->
<g id="node21" class="node"><title>Node232</title>
<g id="a_node21"><a xlink:href="classds_1_1_partition_linked_stats.html#aea3a5b61e78f2aa7bb44b1d1a9e25b59" target="_top" xlink:title="ds::PartitionLinkedStats\l::getNumPartitions">
<polygon fill="white" stroke="black" points="658,-428 658,-458 780,-458 780,-428 658,-428"/>
<text text-anchor="start" x="666" y="-446" font-family="Helvetica,sans-Serif" font-size="10.00">ds::PartitionLinkedStats</text>
<text text-anchor="middle" x="719" y="-435" font-family="Helvetica,sans-Serif" font-size="10.00">::getNumPartitions</text>
</a>
</g>
</g>
<!-- Node227&#45;&gt;Node232 -->
<g id="edge25" class="edge"><title>Node227&#45;&gt;Node232</title>
<path fill="none" stroke="midnightblue" d="M585.075,-392.142C610.057,-401.7 642.515,-414.119 669.104,-424.292"/>
<polygon fill="midnightblue" stroke="midnightblue" points="668.019,-427.624 678.609,-427.929 670.52,-421.086 668.019,-427.624"/>
</g>
<!-- Node234 -->
<g id="node23" class="node"><title>Node234</title>
<g id="a_node23"><a xlink:href="classds_1_1_iterator_partition_linked.html#a1a031c033d0d2d1c6982ced4e0473831" target="_top" xlink:title="ds::IteratorPartitionLinked\l::getValue">
<polygon fill="white" stroke="black" points="653.5,-340 653.5,-370 784.5,-370 784.5,-340 653.5,-340"/>
<text text-anchor="start" x="661.5" y="-358" font-family="Helvetica,sans-Serif" font-size="10.00">ds::IteratorPartitionLinked</text>
<text text-anchor="middle" x="719" y="-347" font-family="Helvetica,sans-Serif" font-size="10.00">::getValue</text>
</a>
</g>
</g>
<!-- Node227&#45;&gt;Node234 -->
<g id="edge27" class="edge"><title>Node227&#45;&gt;Node234</title>
<path fill="none" stroke="midnightblue" d="M605.832,-369.305C617.945,-367.761 630.809,-366.12 643.341,-364.522"/>
<polygon fill="midnightblue" stroke="midnightblue" points="643.823,-367.989 653.3,-363.252 642.937,-361.045 643.823,-367.989"/>
</g>
<!-- Node235 -->
<g id="node24" class="node"><title>Node235</title>
<g id="a_node24"><a xlink:href="classds_1_1_iterator_partition_linked.html#a83b887be41c97dc0bdfc47a02abbc383" target="_top" xlink:title="ds::IteratorPartitionLinked\l::next">
<polygon fill="white" stroke="black" points="653.5,-291 653.5,-321 784.5,-321 784.5,-291 653.5,-291"/>
<text text-anchor="start" x="661.5" y="-309" font-family="Helvetica,sans-Serif" font-size="10.00">ds::IteratorPartitionLinked</text>
<text text-anchor="middle" x="719" y="-298" font-family="Helvetica,sans-Serif" font-size="10.00">::next</text>
</a>
</g>
</g>
<!-- Node227&#45;&gt;Node235 -->
<g id="edge28" class="edge"><title>Node227&#45;&gt;Node235</title>
<path fill="none" stroke="midnightblue" d="M574.632,-361.922C593.559,-352.425 618.916,-340.255 642,-331 647.534,-328.781 653.348,-326.604 659.194,-324.516"/>
<polygon fill="midnightblue" stroke="midnightblue" points="660.724,-327.69 669.017,-321.096 658.422,-321.079 660.724,-327.69"/>
</g>
<!-- Node236 -->
<g id="node25" class="node"><title>Node236</title>
<g id="a_node25"><a xlink:href="classmat_1_1_matrix_resizable_row.html#a566801d937643cf5937b61bf321b01b7" target="_top" xlink:title="mat::MatrixResizableRow\l::print">
<polygon fill="white" stroke="black" points="653.5,-242 653.5,-272 784.5,-272 784.5,-242 653.5,-242"/>
<text text-anchor="start" x="661.5" y="-260" font-family="Helvetica,sans-Serif" font-size="10.00">mat::MatrixResizableRow</text>
<text text-anchor="middle" x="719" y="-249" font-family="Helvetica,sans-Serif" font-size="10.00">::print</text>
</a>
</g>
</g>
<!-- Node227&#45;&gt;Node236 -->
<g id="edge30" class="edge"><title>Node227&#45;&gt;Node236</title>
<path fill="none" stroke="midnightblue" d="M556.967,-361.985C573.575,-341.207 606.274,-303.79 642,-282 645.372,-279.943 648.933,-278.035 652.599,-276.267"/>
<polygon fill="midnightblue" stroke="midnightblue" points="654.152,-279.407 661.88,-272.16 651.319,-273.006 654.152,-279.407"/>
</g>
<!-- Node233 -->
<g id="node22" class="node"><title>Node233</title>
<g id="a_node22"><a xlink:href="classmat_1_1_matrix_base.html#ac500eedd5e203327d3292f8ab22d8f3e" target="_top" xlink:title="mat::MatrixBase::getNumRows">
<polygon fill="white" stroke="black" points="832,-433.5 832,-452.5 988,-452.5 988,-433.5 832,-433.5"/>
<text text-anchor="middle" x="910" y="-440.5" font-family="Helvetica,sans-Serif" font-size="10.00">mat::MatrixBase::getNumRows</text>
</a>
</g>
</g>
<!-- Node232&#45;&gt;Node233 -->
<g id="edge26" class="edge"><title>Node232&#45;&gt;Node233</title>
<path fill="none" stroke="midnightblue" d="M780.06,-443C793.281,-443 807.544,-443 821.596,-443"/>
<polygon fill="midnightblue" stroke="midnightblue" points="821.773,-446.5 831.773,-443 821.773,-439.5 821.773,-446.5"/>
</g>
</g>
</svg>
