<?xml version="1.0" encoding="UTF-8" standalone="no"?>
<!DOCTYPE svg PUBLIC "-//W3C//DTD SVG 1.1//EN"
 "http://www.w3.org/Graphics/SVG/1.1/DTD/svg11.dtd">
<!-- Generated by graphviz version 2.38.0 (20140413.2041)
 -->
<!-- Title: ds::PartitionLinked::changeMemberShip Pages: 1 -->
<!--zoomable 145 -->
<svg id="main" version="1.1" xmlns="http://www.w3.org/2000/svg" xmlns:xlink="http://www.w3.org/1999/xlink" xml:space="preserve" onload="init(evt)">
<style type="text/css"><![CDATA[
.edge:hover path { stroke: red; }
.edge:hover polygon { stroke: red; fill: red; }
]]></style>
<script type="text/javascript"><![CDATA[
var edges = document.getElementsByTagName('g');
if (edges && edges.length) {
  for (var i=0;i<edges.length;i++) {
    if (edges[i].id.substr(0,4)=='edge') {
      edges[i].setAttribute('class','edge');
    }
  }
}
]]></script>
        <defs>
                <circle id="rim" cx="0" cy="0" r="7"/>
                <circle id="rim2" cx="0" cy="0" r="3.5"/>
                <g id="zoomPlus">
                        <use xlink:href="#rim" fill="#404040">
                                <set attributeName="fill" to="#808080" begin="zoomplus.mouseover" end="zoomplus.mouseout"/>
                        </use>
                        <path d="M-4,0h8M0,-4v8" fill="none" stroke="white" stroke-width="1.5" pointer-events="none"/>
                </g>
                <g id="zoomMin">
                        <use xlink:href="#rim" fill="#404040">
                                <set attributeName="fill" to="#808080" begin="zoomminus.mouseover" end="zoomminus.mouseout"/>
                        </use>
                        <path d="M-4,0h8" fill="none" stroke="white" stroke-width="1.5" pointer-events="none"/>
                </g>
                <g id="dirArrow">
                        <path fill="none" stroke="white" stroke-width="1.5" d="M0,-3.0v7 M-2.5,-0.5L0,-3.0L2.5,-0.5"/>
                </g>
               <g id="resetDef">
                       <use xlink:href="#rim2" fill="#404040">
                               <set attributeName="fill" to="#808080" begin="reset.mouseover" end="reset.mouseout"/>
                       </use>
               </g>
        </defs>

<script type="text/javascript">
var viewWidth = 732;
var viewHeight = 145;
var sectionId = 'dynsection-3';
</script>
<script xlink:href="svgpan.js"/>
<svg id="graph" class="graph">
<g id="viewport">
<title>ds::PartitionLinked::changeMemberShip</title>
<polygon fill="white" stroke="none" points="-4,4 -4,-141 728,-141 728,4 -4,4"/>
<!-- Node12 -->
<g id="node1" class="node"><title>Node12</title>
<polygon fill="#bfbfbf" stroke="black" points="0,-53.5 0,-83.5 113,-83.5 113,-53.5 0,-53.5"/>
<text text-anchor="start" x="8" y="-71.5" font-family="Helvetica,sans-Serif" font-size="10.00">ds::PartitionLinked</text>
<text text-anchor="middle" x="56.5" y="-60.5" font-family="Helvetica,sans-Serif" font-size="10.00">::changeMemberShip</text>
</g>
<!-- Node13 -->
<g id="node2" class="node"><title>Node13</title>
<g id="a_node2"><a xlink:href="classds_1_1_partition_linked.html#a4013f0d8892069abc3fe9c05103d60e0" target="_top" xlink:title="ds::PartitionLinked\l::addInstanceToCluster">
<polygon fill="white" stroke="black" points="155.5,-106.5 155.5,-136.5 278.5,-136.5 278.5,-106.5 155.5,-106.5"/>
<text text-anchor="start" x="163.5" y="-124.5" font-family="Helvetica,sans-Serif" font-size="10.00">ds::PartitionLinked</text>
<text text-anchor="middle" x="217" y="-113.5" font-family="Helvetica,sans-Serif" font-size="10.00">::addInstanceToCluster</text>
</a>
</g>
</g>
<!-- Node12&#45;&gt;Node13 -->
<g id="edge1" class="edge"><title>Node12&#45;&gt;Node13</title>
<path fill="none" stroke="midnightblue" d="M102.496,-83.5459C120.817,-89.6722 142.162,-96.8097 161.366,-103.231"/>
<polygon fill="midnightblue" stroke="midnightblue" points="160.298,-106.564 170.892,-106.416 162.518,-99.9258 160.298,-106.564"/>
</g>
<!-- Node14 -->
<g id="node3" class="node"><title>Node14</title>
<g id="a_node3"><a xlink:href="classds_1_1_partition_linked.html#adc3c73d4486bec92878e785229d2536e" target="_top" xlink:title="ds::PartitionLinked\l::subInstanceFromCluster">
<polygon fill="white" stroke="black" points="321,-53.5 321,-83.5 452,-83.5 452,-53.5 321,-53.5"/>
<text text-anchor="start" x="329" y="-71.5" font-family="Helvetica,sans-Serif" font-size="10.00">ds::PartitionLinked</text>
<text text-anchor="middle" x="386.5" y="-60.5" font-family="Helvetica,sans-Serif" font-size="10.00">::subInstanceFromCluster</text>
</a>
</g>
</g>
<!-- Node12&#45;&gt;Node14 -->
<g id="edge8" class="edge"><title>Node12&#45;&gt;Node14</title>
<path fill="none" stroke="midnightblue" d="M113.141,-63.283C167.479,-61.4443 250.545,-61.2596 310.654,-62.7289"/>
<polygon fill="midnightblue" stroke="midnightblue" points="310.756,-66.2328 320.846,-63.0006 310.943,-59.2353 310.756,-66.2328"/>
</g>
<!-- Node15 -->
<g id="node4" class="node"><title>Node15</title>
<g id="a_node4"><a xlink:href="classds_1_1_partition_linked.html#aaa302ea8b39c37c44507bf4276ffa8f2" target="_top" xlink:title="ds::PartitionLinked\l::getInstanceIdxOfClusterK">
<polygon fill="white" stroke="black" points="149,-0.5 149,-30.5 285,-30.5 285,-0.5 149,-0.5"/>
<text text-anchor="start" x="157" y="-18.5" font-family="Helvetica,sans-Serif" font-size="10.00">ds::PartitionLinked</text>
<text text-anchor="middle" x="217" y="-7.5" font-family="Helvetica,sans-Serif" font-size="10.00">::getInstanceIdxOfClusterK</text>
</a>
</g>
</g>
<!-- Node12&#45;&gt;Node15 -->
<g id="edge4" class="edge"><title>Node12&#45;&gt;Node15</title>
<path fill="none" stroke="midnightblue" d="M102.496,-53.4541C120.817,-47.3278 142.162,-40.1903 161.366,-33.7687"/>
<polygon fill="midnightblue" stroke="midnightblue" points="162.518,-37.0742 170.892,-30.5835 160.298,-30.4355 162.518,-37.0742"/>
</g>
<!-- Node13&#45;&gt;Node14 -->
<g id="edge2" class="edge"><title>Node13&#45;&gt;Node14</title>
<path fill="none" stroke="midnightblue" d="M265.551,-106.454C285,-100.3 307.675,-93.1251 328.042,-86.6808"/>
<polygon fill="midnightblue" stroke="midnightblue" points="329.352,-89.9373 337.83,-83.5835 327.24,-83.2634 329.352,-89.9373"/>
</g>
<!-- Node14&#45;&gt;Node12 -->
<g id="edge3" class="edge"><title>Node14&#45;&gt;Node12</title>
<path fill="none" stroke="midnightblue" d="M320.846,-73.9994C263.684,-75.6567 180.683,-75.6668 123.206,-74.0297"/>
<polygon fill="midnightblue" stroke="midnightblue" points="123.245,-70.5293 113.141,-73.717 123.027,-77.5259 123.245,-70.5293"/>
</g>
<!-- Node16 -->
<g id="node5" class="node"><title>Node16</title>
<g id="a_node5"><a xlink:href="classds_1_1_partition_linked.html#a1a20dd710247ebccba848e555f9ad9e6" target="_top" xlink:title="ds::PartitionLinked\l::joinCluster">
<polygon fill="white" stroke="black" points="336.5,-0.5 336.5,-30.5 436.5,-30.5 436.5,-0.5 336.5,-0.5"/>
<text text-anchor="start" x="344.5" y="-18.5" font-family="Helvetica,sans-Serif" font-size="10.00">ds::PartitionLinked</text>
<text text-anchor="middle" x="386.5" y="-7.5" font-family="Helvetica,sans-Serif" font-size="10.00">::joinCluster</text>
</a>
</g>
</g>
<!-- Node15&#45;&gt;Node16 -->
<g id="edge5" class="edge"><title>Node15&#45;&gt;Node16</title>
<path fill="none" stroke="midnightblue" d="M285.164,-15.5C298.665,-15.5 312.766,-15.5 325.985,-15.5"/>
<polygon fill="midnightblue" stroke="midnightblue" points="326.369,-19.0001 336.369,-15.5 326.369,-12.0001 326.369,-19.0001"/>
</g>
<!-- Node17 -->
<g id="node6" class="node"><title>Node17</title>
<g id="a_node6"><a xlink:href="classds_1_1_partition_linked.html#a6a7de3bc18b0904e2e23536a336e42a8" target="_top" xlink:title="ds::PartitionLinked\l::print">
<polygon fill="white" stroke="black" points="488,-0.5 488,-30.5 588,-30.5 588,-0.5 488,-0.5"/>
<text text-anchor="start" x="496" y="-18.5" font-family="Helvetica,sans-Serif" font-size="10.00">ds::PartitionLinked</text>
<text text-anchor="middle" x="538" y="-7.5" font-family="Helvetica,sans-Serif" font-size="10.00">::print</text>
</a>
</g>
</g>
<!-- Node16&#45;&gt;Node17 -->
<g id="edge6" class="edge"><title>Node16&#45;&gt;Node17</title>
<path fill="none" stroke="midnightblue" d="M436.866,-15.5C449.947,-15.5 464.204,-15.5 477.751,-15.5"/>
<polygon fill="midnightblue" stroke="midnightblue" points="477.941,-19.0001 487.941,-15.5 477.941,-12.0001 477.941,-19.0001"/>
</g>
<!-- Node18 -->
<g id="node7" class="node"><title>Node18</title>
<g id="a_node7"><a xlink:href="classds_1_1_partition_linked.html#a696f58c4d25fd41adf281d1468440dc9" target="_top" xlink:title="ds::PartitionLinked\l::getNumPartitions">
<polygon fill="white" stroke="black" points="624,-0.5 624,-30.5 724,-30.5 724,-0.5 624,-0.5"/>
<text text-anchor="start" x="632" y="-18.5" font-family="Helvetica,sans-Serif" font-size="10.00">ds::PartitionLinked</text>
<text text-anchor="middle" x="674" y="-7.5" font-family="Helvetica,sans-Serif" font-size="10.00">::getNumPartitions</text>
</a>
</g>
</g>
<!-- Node17&#45;&gt;Node18 -->
<g id="edge7" class="edge"><title>Node17&#45;&gt;Node18</title>
<path fill="none" stroke="midnightblue" d="M588.136,-15.5C596.42,-15.5 605.097,-15.5 613.608,-15.5"/>
<polygon fill="midnightblue" stroke="midnightblue" points="613.87,-19.0001 623.87,-15.5 613.87,-12.0001 613.87,-19.0001"/>
</g>
</g>
</svg>
        <g id="navigator" transform="translate(0 0)" fill="#404254">
                <rect fill="#f2f5e9" fill-opacity="0.5" stroke="#606060" stroke-width=".5" x="0" y="0" width="60" height="60"/>
                <use id="zoomplus" xlink:href="#zoomPlus" x="17" y="9" onmousedown="handleZoom(evt,'in')"/>
                <use id="zoomminus" xlink:href="#zoomMin" x="42" y="9" onmousedown="handleZoom(evt,'out')"/>
                <use id="reset" xlink:href="#resetDef" x="30" y="36" onmousedown="handleReset()"/>
                <g id="arrowUp" xlink:href="#dirArrow" transform="translate(30 24)" onmousedown="handlePan(0,-1)">
                  <use xlink:href="#rim" fill="#404040">
                        <set attributeName="fill" to="#808080" begin="arrowUp.mouseover" end="arrowUp.mouseout"/>
                  </use>
                  <path fill="none" stroke="white" stroke-width="1.5" d="M0,-3.0v7 M-2.5,-0.5L0,-3.0L2.5,-0.5"/>
                </g>
                <g id="arrowRight" xlink:href="#dirArrow" transform="rotate(90) translate(36 -43)" onmousedown="handlePan(1,0)">
                  <use xlink:href="#rim" fill="#404040">
                        <set attributeName="fill" to="#808080" begin="arrowRight.mouseover" end="arrowRight.mouseout"/>
                  </use>
                  <path fill="none" stroke="white" stroke-width="1.5" d="M0,-3.0v7 M-2.5,-0.5L0,-3.0L2.5,-0.5"/>
                </g>
                <g id="arrowDown" xlink:href="#dirArrow" transform="rotate(180) translate(-30 -48)" onmousedown="handlePan(0,1)">
                  <use xlink:href="#rim" fill="#404040">
                        <set attributeName="fill" to="#808080" begin="arrowDown.mouseover" end="arrowDown.mouseout"/>
                  </use>
                  <path fill="none" stroke="white" stroke-width="1.5" d="M0,-3.0v7 M-2.5,-0.5L0,-3.0L2.5,-0.5"/>
                </g>
                <g id="arrowLeft" xlink:href="#dirArrow" transform="rotate(270) translate(-36 17)" onmousedown="handlePan(-1,0)">
                  <use xlink:href="#rim" fill="#404040">
                        <set attributeName="fill" to="#808080" begin="arrowLeft.mouseover" end="arrowLeft.mouseout"/>
                  </use>
                  <path fill="none" stroke="white" stroke-width="1.5" d="M0,-3.0v7 M-2.5,-0.5L0,-3.0L2.5,-0.5"/>
                </g>
        </g>
        <svg viewBox="0 0 15 15" width="100%" height="30px" preserveAspectRatio="xMaxYMin meet">
         <g id="arrow_out" transform="scale(0.3 0.3)">
          <a xlink:href="classds_1_1_partition_linked_abfd8979dbdeee0fda9d8cb22aa9062ed_cgraph_org.svg" target="_base">
           <rect id="button" ry="5" rx="5" y="6" x="6" height="38" width="38"
                fill="#f2f5e9" fill-opacity="0.5" stroke="#606060" stroke-width="1.0"/>
           <path id="arrow"
             d="M 11.500037,31.436501 C 11.940474,20.09759 22.043105,11.32322 32.158766,21.979434 L 37.068811,17.246167 C 37.068811,17.246167 37.088388,32 37.088388,32 L 22.160133,31.978069 C 22.160133,31.978069 26.997745,27.140456 26.997745,27.140456 C 18.528582,18.264221 13.291696,25.230495 11.500037,31.436501 z"
             style="fill:#404040;"/>
          </a>
         </g>
        </svg>
</svg>
