<?xml version="1.0" encoding="UTF-8" standalone="no"?>
<!DOCTYPE svg PUBLIC "-//W3C//DTD SVG 1.1//EN"
 "http://www.w3.org/Graphics/SVG/1.1/DTD/svg11.dtd">
<!-- Generated by graphviz version 2.38.0 (20140413.2041)
 -->
<!-- Title: inout::InParamFEAC&lt; T_FEATURE, T_REAL, T_CLUSTERIDX, T_FEATURE_SUM, T_INSTANCES_CLUSTER_K &gt; Pages: 1 -->
<svg width="613pt" height="1262pt"
 viewBox="0.00 0.00 612.50 1262.00" xmlns="http://www.w3.org/2000/svg" xmlns:xlink="http://www.w3.org/1999/xlink">
<g id="graph0" class="graph" transform="scale(1 1) rotate(0) translate(4 1258)">
<title>inout::InParamFEAC&lt; T_FEATURE, T_REAL, T_CLUSTERIDX, T_FEATURE_SUM, T_INSTANCES_CLUSTER_K &gt;</title>
<polygon fill="white" stroke="none" points="-4,4 -4,-1258 608.5,-1258 608.5,4 -4,4"/>
<!-- Node6 -->
<g id="node1" class="node"><title>Node6</title>
<polygon fill="#bfbfbf" stroke="black" points="315.5,-0.5 315.5,-189.5 507.5,-189.5 507.5,-0.5 315.5,-0.5"/>
<text text-anchor="start" x="323.5" y="-177.5" font-family="Helvetica,sans-Serif" font-size="10.00">inout::InParamFEAC</text>
<text text-anchor="start" x="323.5" y="-166.5" font-family="Helvetica,sans-Serif" font-size="10.00">&lt; T_FEATURE, T_REAL,</text>
<text text-anchor="start" x="323.5" y="-155.5" font-family="Helvetica,sans-Serif" font-size="10.00"> T_CLUSTERIDX, T_FEATURE</text>
<text text-anchor="middle" x="411.5" y="-144.5" font-family="Helvetica,sans-Serif" font-size="10.00">_SUM, T_INSTANCES_CLUSTER_K &gt;</text>
<polyline fill="none" stroke="black" points="315.5,-137.5 507.5,-137.5 "/>
<text text-anchor="start" x="323.5" y="-125.5" font-family="Helvetica,sans-Serif" font-size="10.00"># _it_kmeansNumMaxIter</text>
<text text-anchor="start" x="323.5" y="-114.5" font-family="Helvetica,sans-Serif" font-size="10.00"># _rT_desiableObjetiveFunc</text>
<polyline fill="none" stroke="black" points="315.5,-107.5 507.5,-107.5 "/>
<text text-anchor="start" x="323.5" y="-95.5" font-family="Helvetica,sans-Serif" font-size="10.00">+ InParamFEAC()</text>
<text text-anchor="start" x="323.5" y="-84.5" font-family="Helvetica,sans-Serif" font-size="10.00">+ ~InParamFEAC()</text>
<text text-anchor="start" x="323.5" y="-73.5" font-family="Helvetica,sans-Serif" font-size="10.00">+ setKmeansNumMaxIter()</text>
<text text-anchor="start" x="323.5" y="-62.5" font-family="Helvetica,sans-Serif" font-size="10.00">+ getKmeansNumMaxIter()</text>
<text text-anchor="start" x="323.5" y="-51.5" font-family="Helvetica,sans-Serif" font-size="10.00">+ getKmeansMaxDiffCent()</text>
<text text-anchor="start" x="323.5" y="-40.5" font-family="Helvetica,sans-Serif" font-size="10.00">+ setKmeansMaxDiffCent()</text>
<text text-anchor="start" x="323.5" y="-29.5" font-family="Helvetica,sans-Serif" font-size="10.00">+ getDesiableObjetiveFunc()</text>
<text text-anchor="start" x="323.5" y="-18.5" font-family="Helvetica,sans-Serif" font-size="10.00">+ setDesiableObjetiveFunc()</text>
<text text-anchor="start" x="323.5" y="-7.5" font-family="Helvetica,sans-Serif" font-size="10.00">+ print()</text>
</g>
<!-- Node7 -->
<g id="node2" class="node"><title>Node7</title>
<g id="a_node2"><a xlink:href="classinout_1_1_in_param_g_a_clustering.html" target="_top" xlink:title="Input parameter for genetic algorithm. ">
<polygon fill="white" stroke="black" points="85,-237.5 85,-371.5 226,-371.5 226,-237.5 85,-237.5"/>
<text text-anchor="middle" x="155.5" y="-359.5" font-family="Helvetica,sans-Serif" font-size="10.00">inout::InParamGAClustering</text>
<polyline fill="none" stroke="black" points="85,-352.5 226,-352.5 "/>
<text text-anchor="start" x="93" y="-340.5" font-family="Helvetica,sans-Serif" font-size="10.00"># st_sizePopulation</text>
<text text-anchor="start" x="93" y="-329.5" font-family="Helvetica,sans-Serif" font-size="10.00"># t_numMaxGenerations</text>
<polyline fill="none" stroke="black" points="85,-322.5 226,-322.5 "/>
<text text-anchor="start" x="93" y="-310.5" font-family="Helvetica,sans-Serif" font-size="10.00">+ InParamGAClustering()</text>
<text text-anchor="start" x="93" y="-299.5" font-family="Helvetica,sans-Serif" font-size="10.00">+ ~InParamGAClustering()</text>
<text text-anchor="start" x="93" y="-288.5" font-family="Helvetica,sans-Serif" font-size="10.00">+ setNumMaxGenerations()</text>
<text text-anchor="start" x="93" y="-277.5" font-family="Helvetica,sans-Serif" font-size="10.00">+ getNumMaxGenerations()</text>
<text text-anchor="start" x="93" y="-266.5" font-family="Helvetica,sans-Serif" font-size="10.00">+ setSizePopulation()</text>
<text text-anchor="start" x="93" y="-255.5" font-family="Helvetica,sans-Serif" font-size="10.00">+ getSizePopulation()</text>
<text text-anchor="start" x="93" y="-244.5" font-family="Helvetica,sans-Serif" font-size="10.00">+ print()</text>
</a>
</g>
</g>
<!-- Node7&#45;&gt;Node6 -->
<g id="edge1" class="edge"><title>Node7&#45;&gt;Node6</title>
<path fill="none" stroke="midnightblue" d="M233.985,-239.884C259.635,-219.093 288.422,-195.76 315.227,-174.033"/>
<polygon fill="none" stroke="midnightblue" points="231.695,-237.235 226.131,-246.25 236.103,-242.673 231.695,-237.235"/>
</g>
<!-- Node8 -->
<g id="node3" class="node"><title>Node8</title>
<g id="a_node3"><a xlink:href="classinout_1_1_in_param_clustering.html" target="_top" xlink:title="Input parameter for clustering algorithm. ">
<polygon fill="white" stroke="black" points="47.5,-458 47.5,-713 229.5,-713 229.5,-458 47.5,-458"/>
<text text-anchor="middle" x="138.5" y="-701" font-family="Helvetica,sans-Serif" font-size="10.00">inout::InParamClustering</text>
<polyline fill="none" stroke="black" points="47.5,-694 229.5,-694 "/>
<text text-anchor="start" x="55.5" y="-682" font-family="Helvetica,sans-Serif" font-size="10.00"># i_opDistance</text>
<text text-anchor="start" x="55.5" y="-671" font-family="Helvetica,sans-Serif" font-size="10.00"># ps_outFileCentroids</text>
<text text-anchor="start" x="55.5" y="-660" font-family="Helvetica,sans-Serif" font-size="10.00"># ps_outFileMemberShip</text>
<text text-anchor="start" x="55.5" y="-649" font-family="Helvetica,sans-Serif" font-size="10.00"># ps_outFilePartitionsTable</text>
<text text-anchor="start" x="55.5" y="-638" font-family="Helvetica,sans-Serif" font-size="10.00"># ps_outFileGraph</text>
<text text-anchor="start" x="55.5" y="-627" font-family="Helvetica,sans-Serif" font-size="10.00"># ps_fileNamePlotStatObjetiveFunc</text>
<text text-anchor="start" x="55.5" y="-616" font-family="Helvetica,sans-Serif" font-size="10.00"># _rd_maxExecutiontime</text>
<text text-anchor="start" x="55.5" y="-605" font-family="Helvetica,sans-Serif" font-size="10.00"># _b_printCentroidsFormat</text>
<text text-anchor="start" x="55.5" y="-594" font-family="Helvetica,sans-Serif" font-size="10.00"># _b_printTableFormat</text>
<polyline fill="none" stroke="black" points="47.5,-587 229.5,-587 "/>
<text text-anchor="start" x="55.5" y="-575" font-family="Helvetica,sans-Serif" font-size="10.00">+ InParamClustering()</text>
<text text-anchor="start" x="55.5" y="-564" font-family="Helvetica,sans-Serif" font-size="10.00">+ ~InParamClustering()</text>
<text text-anchor="start" x="55.5" y="-553" font-family="Helvetica,sans-Serif" font-size="10.00">+ getFileNamePlotStatObjetiveFunc()</text>
<text text-anchor="start" x="55.5" y="-542" font-family="Helvetica,sans-Serif" font-size="10.00">+ getWithPlotStatObjetiveFunc()</text>
<text text-anchor="start" x="55.5" y="-531" font-family="Helvetica,sans-Serif" font-size="10.00">+ setFileNamePlotStatObjetiveFunc()</text>
<text text-anchor="start" x="55.5" y="-520" font-family="Helvetica,sans-Serif" font-size="10.00">+ setOutFileMemberShip()</text>
<text text-anchor="start" x="55.5" y="-509" font-family="Helvetica,sans-Serif" font-size="10.00">+ getOutFileMemberShip()</text>
<text text-anchor="start" x="55.5" y="-498" font-family="Helvetica,sans-Serif" font-size="10.00">+ setRandomSeed()</text>
<text text-anchor="start" x="55.5" y="-487" font-family="Helvetica,sans-Serif" font-size="10.00">+ setRandomSeed()</text>
<text text-anchor="start" x="55.5" y="-476" font-family="Helvetica,sans-Serif" font-size="10.00">+ getRandomSeed()</text>
<text text-anchor="start" x="55.5" y="-465" font-family="Helvetica,sans-Serif" font-size="10.00">and 15 more...</text>
</a>
</g>
</g>
<!-- Node8&#45;&gt;Node7 -->
<g id="edge2" class="edge"><title>Node8&#45;&gt;Node7</title>
<path fill="none" stroke="midnightblue" d="M146.844,-447.555C148.452,-421.168 150.067,-394.658 151.46,-371.806"/>
<polygon fill="none" stroke="midnightblue" points="143.344,-447.46 146.229,-457.654 150.331,-447.885 143.344,-447.46"/>
</g>
<!-- Node9 -->
<g id="node4" class="node"><title>Node9</title>
<g id="a_node4"><a xlink:href="classinout_1_1_in_param_algorithmo.html" target="_top" xlink:title="Input parameter for define propertys of the algorithmos. ">
<polygon fill="white" stroke="black" points="0,-799.5 0,-999.5 135,-999.5 135,-799.5 0,-799.5"/>
<text text-anchor="middle" x="67.5" y="-987.5" font-family="Helvetica,sans-Serif" font-size="10.00">inout::InParamAlgorithmo</text>
<polyline fill="none" stroke="black" points="0,-980.5 135,-980.5 "/>
<text text-anchor="start" x="8" y="-968.5" font-family="Helvetica,sans-Serif" font-size="10.00"># ato_algTypeOut</text>
<text text-anchor="start" x="8" y="-957.5" font-family="Helvetica,sans-Serif" font-size="10.00"># ps_fileNameTimesRun</text>
<text text-anchor="start" x="8" y="-946.5" font-family="Helvetica,sans-Serif" font-size="10.00"># b_progressBarPrinting</text>
<text text-anchor="start" x="8" y="-935.5" font-family="Helvetica,sans-Serif" font-size="10.00"># i_timesRunAlgorithm</text>
<polyline fill="none" stroke="black" points="0,-928.5 135,-928.5 "/>
<text text-anchor="start" x="8" y="-916.5" font-family="Helvetica,sans-Serif" font-size="10.00">+ InParamAlgorithmo()</text>
<text text-anchor="start" x="8" y="-905.5" font-family="Helvetica,sans-Serif" font-size="10.00">+ ~InParamAlgorithmo()</text>
<text text-anchor="start" x="8" y="-894.5" font-family="Helvetica,sans-Serif" font-size="10.00">+ errorArgument()</text>
<text text-anchor="start" x="8" y="-883.5" font-family="Helvetica,sans-Serif" font-size="10.00">+ isYesNo()</text>
<text text-anchor="start" x="8" y="-872.5" font-family="Helvetica,sans-Serif" font-size="10.00">+ setFileNameTimesRun()</text>
<text text-anchor="start" x="8" y="-861.5" font-family="Helvetica,sans-Serif" font-size="10.00">+ setProgressBarPrinting()</text>
<text text-anchor="start" x="8" y="-850.5" font-family="Helvetica,sans-Serif" font-size="10.00">+ setTimesRunAlgorithm()</text>
<text text-anchor="start" x="8" y="-839.5" font-family="Helvetica,sans-Serif" font-size="10.00">+ setGnuPlotCoreStyles()</text>
<text text-anchor="start" x="8" y="-828.5" font-family="Helvetica,sans-Serif" font-size="10.00">+ getAlgorithmoAuthor()</text>
<text text-anchor="start" x="8" y="-817.5" font-family="Helvetica,sans-Serif" font-size="10.00">+ getAlgorithmoName()</text>
<text text-anchor="start" x="8" y="-806.5" font-family="Helvetica,sans-Serif" font-size="10.00">and 8 more...</text>
</a>
</g>
</g>
<!-- Node9&#45;&gt;Node8 -->
<g id="edge3" class="edge"><title>Node9&#45;&gt;Node8</title>
<path fill="none" stroke="midnightblue" d="M92.3522,-789.291C97.9495,-764.694 103.936,-738.387 109.68,-713.144"/>
<polygon fill="none" stroke="midnightblue" points="88.8686,-788.825 90.0624,-799.353 95.6941,-790.378 88.8686,-788.825"/>
</g>
<!-- Node10 -->
<g id="node5" class="node"><title>Node10</title>
<g id="a_node5"><a xlink:title="STL class. ">
<polygon fill="white" stroke="#bfbfbf" points="209.5,-1080.5 209.5,-1137.5 269.5,-1137.5 269.5,-1080.5 209.5,-1080.5"/>
<text text-anchor="middle" x="239.5" y="-1125.5" font-family="Helvetica,sans-Serif" font-size="10.00">std::string</text>
<polyline fill="none" stroke="#bfbfbf" points="209.5,-1118.5 269.5,-1118.5 "/>
<text text-anchor="middle" x="239.5" y="-1106.5" font-family="Helvetica,sans-Serif" font-size="10.00"> </text>
<polyline fill="none" stroke="#bfbfbf" points="209.5,-1099.5 269.5,-1099.5 "/>
<text text-anchor="middle" x="239.5" y="-1087.5" font-family="Helvetica,sans-Serif" font-size="10.00"> </text>
</a>
</g>
</g>
<!-- Node10&#45;&gt;Node8 -->
<g id="edge6" class="edge"><title>Node10&#45;&gt;Node8</title>
<path fill="none" stroke="#404040" d="M224.201,-1080.46C213.061,-1059.14 198.566,-1028.53 190.5,-1000 165.199,-910.504 152.196,-806.633 145.52,-725.385"/>
<polygon fill="none" stroke="#404040" points="145.511,-725.274 141.048,-719.609 144.56,-713.311 149.023,-718.976 145.511,-725.274"/>
<text text-anchor="middle" x="235" y="-897" font-family="Helvetica,sans-Serif" font-size="10.00"> #_str_randomSeed</text>
</g>
<!-- Node10&#45;&gt;Node9 -->
<g id="edge4" class="edge"><title>Node10&#45;&gt;Node9</title>
<path fill="none" stroke="#404040" d="M209.409,-1104.54C163.96,-1098.62 81.2104,-1084.93 63.5,-1062 52.3207,-1047.52 47.0968,-1029.94 45.5195,-1011.78"/>
<polygon fill="none" stroke="#404040" points="45.5193,-1011.77 41.2554,-1005.95 44.9836,-999.782 49.2474,-1005.6 45.5193,-1011.77"/>
<text text-anchor="middle" x="113" y="-1054" font-family="Helvetica,sans-Serif" font-size="10.00"> #s_algorithmoAuthor</text>
<text text-anchor="middle" x="113" y="-1043" font-family="Helvetica,sans-Serif" font-size="10.00">#s_algorithmoName</text>
<text text-anchor="middle" x="113" y="-1032" font-family="Helvetica,sans-Serif" font-size="10.00">#s_gnuplotCoreStyles</text>
<text text-anchor="middle" x="113" y="-1021" font-family="Helvetica,sans-Serif" font-size="10.00">#_s_runTimeId</text>
</g>
<!-- Node14 -->
<g id="node9" class="node"><title>Node14</title>
<g id="a_node9"><a xlink:href="classinout_1_1_in_param_read_inst.html" target="_top" xlink:title="Input parameter for read instances. ">
<polygon fill="white" stroke="black" points="363,-430.5 363,-740.5 534,-740.5 534,-430.5 363,-430.5"/>
<text text-anchor="start" x="371" y="-728.5" font-family="Helvetica,sans-Serif" font-size="10.00">inout::InParamReadInst</text>
<text text-anchor="start" x="371" y="-717.5" font-family="Helvetica,sans-Serif" font-size="10.00">&lt; T_FEATURE, T_INSTANCES</text>
<text text-anchor="middle" x="448.5" y="-706.5" font-family="Helvetica,sans-Serif" font-size="10.00">_CLUSTER_K, T_CLUSTERIDX &gt;</text>
<polyline fill="none" stroke="black" points="363,-699.5 534,-699.5 "/>
<text text-anchor="start" x="371" y="-687.5" font-family="Helvetica,sans-Serif" font-size="10.00"># _ui_idxCurrentFileInstance</text>
<text text-anchor="start" x="371" y="-676.5" font-family="Helvetica,sans-Serif" font-size="10.00"># _enum_formatInstanceFile</text>
<text text-anchor="start" x="371" y="-665.5" font-family="Helvetica,sans-Serif" font-size="10.00"># _b_haveHeaderFile</text>
<text text-anchor="start" x="371" y="-654.5" font-family="Helvetica,sans-Serif" font-size="10.00"># _ui_classInstanceColumn</text>
<text text-anchor="start" x="371" y="-643.5" font-family="Helvetica,sans-Serif" font-size="10.00"># _ui_clusterInstanceColumn</text>
<text text-anchor="start" x="371" y="-632.5" font-family="Helvetica,sans-Serif" font-size="10.00"># _ui_idInstanceColumn</text>
<text text-anchor="start" x="371" y="-621.5" font-family="Helvetica,sans-Serif" font-size="10.00"># _ui_instancesFrequencyColumn</text>
<text text-anchor="start" x="371" y="-610.5" font-family="Helvetica,sans-Serif" font-size="10.00"># _ui_idMultiInstanceColumn</text>
<text text-anchor="start" x="371" y="-599.5" font-family="Helvetica,sans-Serif" font-size="10.00"># _ui_classMultiInstColumn</text>
<text text-anchor="start" x="371" y="-588.5" font-family="Helvetica,sans-Serif" font-size="10.00"># _ui_numInstances</text>
<text text-anchor="start" x="371" y="-577.5" font-family="Helvetica,sans-Serif" font-size="10.00"># _ui_numDimensionsInstances</text>
<text text-anchor="start" x="371" y="-566.5" font-family="Helvetica,sans-Serif" font-size="10.00"># _ui_numInstancesTest</text>
<polyline fill="none" stroke="black" points="363,-559.5 534,-559.5 "/>
<text text-anchor="start" x="371" y="-547.5" font-family="Helvetica,sans-Serif" font-size="10.00">+ InParamReadInst()</text>
<text text-anchor="start" x="371" y="-536.5" font-family="Helvetica,sans-Serif" font-size="10.00">+ InParamReadInst()</text>
<text text-anchor="start" x="371" y="-525.5" font-family="Helvetica,sans-Serif" font-size="10.00">+ ~InParamReadInst()</text>
<text text-anchor="start" x="371" y="-514.5" font-family="Helvetica,sans-Serif" font-size="10.00">+ clearVectorFilesInstance()</text>
<text text-anchor="start" x="371" y="-503.5" font-family="Helvetica,sans-Serif" font-size="10.00">+ getVectorFilesInstance()</text>
<text text-anchor="start" x="371" y="-492.5" font-family="Helvetica,sans-Serif" font-size="10.00">+ setVectorFilesInstance()</text>
<text text-anchor="start" x="371" y="-481.5" font-family="Helvetica,sans-Serif" font-size="10.00">+ getNumFilesInstance()</text>
<text text-anchor="start" x="371" y="-470.5" font-family="Helvetica,sans-Serif" font-size="10.00">+ setVectorFilesInstanceTest()</text>
<text text-anchor="start" x="371" y="-459.5" font-family="Helvetica,sans-Serif" font-size="10.00">+ getVectorFilesInstanceTest()</text>
<text text-anchor="start" x="371" y="-448.5" font-family="Helvetica,sans-Serif" font-size="10.00">+ getNumFilesInstanceTest()</text>
<text text-anchor="start" x="371" y="-437.5" font-family="Helvetica,sans-Serif" font-size="10.00">and 35 more...</text>
</a>
</g>
</g>
<!-- Node10&#45;&gt;Node14 -->
<g id="edge10" class="edge"><title>Node10&#45;&gt;Node14</title>
<path fill="none" stroke="#404040" d="M251.617,-1080.08C260.517,-1058.56 272.269,-1027.87 279.5,-1000 302.201,-912.508 278.108,-883.386 310.5,-799 321.544,-770.229 331.683,-766.825 348.5,-741 351.074,-737.047 353.685,-733.035 356.318,-728.986"/>
<polygon fill="none" stroke="#404040" points="356.364,-728.915 356.28,-721.704 362.903,-718.853 362.988,-726.063 356.364,-728.915"/>
<text text-anchor="middle" x="363" y="-902.5" font-family="Helvetica,sans-Serif" font-size="10.00"> #_ps_selectAttributes</text>
<text text-anchor="middle" x="363" y="-891.5" font-family="Helvetica,sans-Serif" font-size="10.00">#_s_separatorAttributes</text>
</g>
<!-- Node15 -->
<g id="node10" class="node"><title>Node15</title>
<polygon fill="white" stroke="#bfbfbf" points="425,-871 425,-928 550,-928 550,-871 425,-871"/>
<text text-anchor="middle" x="487.5" y="-916" font-family="Helvetica,sans-Serif" font-size="10.00">std::vector&lt; std::string &gt;</text>
<polyline fill="none" stroke="#bfbfbf" points="425,-909 550,-909 "/>
<text text-anchor="middle" x="487.5" y="-897" font-family="Helvetica,sans-Serif" font-size="10.00"> </text>
<polyline fill="none" stroke="#bfbfbf" points="425,-890 550,-890 "/>
<text text-anchor="middle" x="487.5" y="-878" font-family="Helvetica,sans-Serif" font-size="10.00"> </text>
</g>
<!-- Node10&#45;&gt;Node15 -->
<g id="edge12" class="edge"><title>Node10&#45;&gt;Node15</title>
<path fill="none" stroke="#404040" d="M269.604,-1090.1C283.623,-1081.68 300.484,-1071.44 315.5,-1062 358.184,-1035.16 373.445,-1034.19 410.5,-1000 430.322,-981.711 448.936,-957.916 462.896,-938.182"/>
<polygon fill="none" stroke="#404040" points="462.92,-938.148 463.049,-930.938 469.753,-928.284 469.625,-935.494 462.92,-938.148"/>
<text text-anchor="middle" x="415" y="-1037.5" font-family="Helvetica,sans-Serif" font-size="10.00"> +elements</text>
</g>
<!-- Node11 -->
<g id="node6" class="node"><title>Node11</title>
<g id="a_node6"><a xlink:title="STL class. ">
<polygon fill="white" stroke="#bfbfbf" points="192,-1185.5 192,-1253.5 287,-1253.5 287,-1185.5 192,-1185.5"/>
<text text-anchor="start" x="200" y="-1241.5" font-family="Helvetica,sans-Serif" font-size="10.00">std::basic_string&lt;</text>
<text text-anchor="middle" x="239.5" y="-1230.5" font-family="Helvetica,sans-Serif" font-size="10.00"> char &gt;</text>
<polyline fill="none" stroke="#bfbfbf" points="192,-1223.5 287,-1223.5 "/>
<text text-anchor="middle" x="239.5" y="-1211.5" font-family="Helvetica,sans-Serif" font-size="10.00"> </text>
<polyline fill="none" stroke="#bfbfbf" points="192,-1204.5 287,-1204.5 "/>
<text text-anchor="middle" x="239.5" y="-1192.5" font-family="Helvetica,sans-Serif" font-size="10.00"> </text>
</a>
</g>
</g>
<!-- Node11&#45;&gt;Node10 -->
<g id="edge5" class="edge"><title>Node11&#45;&gt;Node10</title>
<path fill="none" stroke="midnightblue" d="M239.5,-1175.06C239.5,-1162.51 239.5,-1149.15 239.5,-1137.83"/>
<polygon fill="none" stroke="midnightblue" points="236,-1175.36 239.5,-1185.36 243,-1175.36 236,-1175.36"/>
</g>
<!-- Node12 -->
<g id="node7" class="node"><title>Node12</title>
<g id="a_node7"><a xlink:href="classinout_1_1_in_param_vk.html" target="_top" xlink:title="{inout::InParamVk\&lt; T\l_CLUSTERIDX \&gt;\n||+ InParamVk()\l+ ~InParamVk()\l+ setNumClusterKMinimum()\l+ getNumClusterKMinimum()\l+ setNumClusterKMaximum()\l+ getNumClusterKMaximum()\l+ print()\l}">
<polygon fill="white" stroke="black" points="250.5,-237.5 250.5,-371.5 398.5,-371.5 398.5,-237.5 250.5,-237.5"/>
<text text-anchor="start" x="258.5" y="-359.5" font-family="Helvetica,sans-Serif" font-size="10.00">inout::InParamVk&lt; T</text>
<text text-anchor="middle" x="324.5" y="-348.5" font-family="Helvetica,sans-Serif" font-size="10.00">_CLUSTERIDX &gt;</text>
<polyline fill="none" stroke="black" points="250.5,-341.5 398.5,-341.5 "/>
<text text-anchor="middle" x="324.5" y="-329.5" font-family="Helvetica,sans-Serif" font-size="10.00"> </text>
<polyline fill="none" stroke="black" points="250.5,-322.5 398.5,-322.5 "/>
<text text-anchor="start" x="258.5" y="-310.5" font-family="Helvetica,sans-Serif" font-size="10.00">+ InParamVk()</text>
<text text-anchor="start" x="258.5" y="-299.5" font-family="Helvetica,sans-Serif" font-size="10.00">+ ~InParamVk()</text>
<text text-anchor="start" x="258.5" y="-288.5" font-family="Helvetica,sans-Serif" font-size="10.00">+ setNumClusterKMinimum()</text>
<text text-anchor="start" x="258.5" y="-277.5" font-family="Helvetica,sans-Serif" font-size="10.00">+ getNumClusterKMinimum()</text>
<text text-anchor="start" x="258.5" y="-266.5" font-family="Helvetica,sans-Serif" font-size="10.00">+ setNumClusterKMaximum()</text>
<text text-anchor="start" x="258.5" y="-255.5" font-family="Helvetica,sans-Serif" font-size="10.00">+ getNumClusterKMaximum()</text>
<text text-anchor="start" x="258.5" y="-244.5" font-family="Helvetica,sans-Serif" font-size="10.00">+ print()</text>
</a>
</g>
</g>
<!-- Node12&#45;&gt;Node6 -->
<g id="edge7" class="edge"><title>Node12&#45;&gt;Node6</title>
<path fill="none" stroke="midnightblue" d="M356.204,-227.884C361.423,-215.436 366.887,-202.405 372.263,-189.582"/>
<polygon fill="none" stroke="midnightblue" points="352.905,-226.7 352.267,-237.275 359.361,-229.406 352.905,-226.7"/>
</g>
<!-- Node13 -->
<g id="node8" class="node"><title>Node13</title>
<polygon fill="white" stroke="#bfbfbf" points="247.5,-557 247.5,-614 339.5,-614 339.5,-557 247.5,-557"/>
<text text-anchor="middle" x="293.5" y="-602" font-family="Helvetica,sans-Serif" font-size="10.00">T_CLUSTERIDX</text>
<polyline fill="none" stroke="#bfbfbf" points="247.5,-595 339.5,-595 "/>
<text text-anchor="middle" x="293.5" y="-583" font-family="Helvetica,sans-Serif" font-size="10.00"> </text>
<polyline fill="none" stroke="#bfbfbf" points="247.5,-576 339.5,-576 "/>
<text text-anchor="middle" x="293.5" y="-564" font-family="Helvetica,sans-Serif" font-size="10.00"> </text>
</g>
<!-- Node13&#45;&gt;Node12 -->
<g id="edge8" class="edge"><title>Node13&#45;&gt;Node12</title>
<path fill="none" stroke="#404040" d="M290.759,-556.863C287.647,-518.919 284.232,-448.709 294.5,-390 294.876,-387.851 295.301,-385.684 295.767,-383.507"/>
<polygon fill="none" stroke="#404040" points="295.775,-383.478 293.318,-376.698 298.631,-371.823 301.088,-378.603 295.775,-383.478"/>
<text text-anchor="middle" x="364.5" y="-404" font-family="Helvetica,sans-Serif" font-size="10.00"> #_idxK_numClusterKMaximum</text>
<text text-anchor="middle" x="364.5" y="-393" font-family="Helvetica,sans-Serif" font-size="10.00">#_idxK_numClusterKMinimum</text>
</g>
<!-- Node14&#45;&gt;Node6 -->
<g id="edge9" class="edge"><title>Node14&#45;&gt;Node6</title>
<path fill="none" stroke="midnightblue" d="M436.738,-420.081C435.987,-409.902 435.237,-399.811 434.5,-390 429.467,-322.992 423.549,-247.413 418.977,-189.666"/>
<polygon fill="none" stroke="midnightblue" points="433.264,-420.568 437.488,-430.284 440.245,-420.054 433.264,-420.568"/>
</g>
<!-- Node15&#45;&gt;Node14 -->
<g id="edge11" class="edge"><title>Node15&#45;&gt;Node14</title>
<path fill="none" stroke="#404040" d="M484.039,-870.812C480.592,-843.236 475,-798.497 469.261,-752.588"/>
<polygon fill="none" stroke="#404040" points="469.249,-752.49 464.535,-747.032 467.76,-740.583 472.474,-746.04 469.249,-752.49"/>
<text text-anchor="middle" x="539" y="-773" font-family="Helvetica,sans-Serif" font-size="10.00"> #_vectorstr_filesInstance</text>
<text text-anchor="middle" x="539" y="-762" font-family="Helvetica,sans-Serif" font-size="10.00">#_vectorstr_filesInstanceTest</text>
</g>
<!-- Node16 -->
<g id="node11" class="node"><title>Node16</title>
<g id="a_node11"><a xlink:title="STL class. ">
<polygon fill="white" stroke="#bfbfbf" points="443,-1080.5 443,-1137.5 532,-1137.5 532,-1080.5 443,-1080.5"/>
<text text-anchor="middle" x="487.5" y="-1125.5" font-family="Helvetica,sans-Serif" font-size="10.00">std::vector&lt; T &gt;</text>
<polyline fill="none" stroke="#bfbfbf" points="443,-1118.5 532,-1118.5 "/>
<text text-anchor="middle" x="487.5" y="-1106.5" font-family="Helvetica,sans-Serif" font-size="10.00"> </text>
<polyline fill="none" stroke="#bfbfbf" points="443,-1099.5 532,-1099.5 "/>
<text text-anchor="middle" x="487.5" y="-1087.5" font-family="Helvetica,sans-Serif" font-size="10.00"> </text>
</a>
</g>
</g>
<!-- Node16&#45;&gt;Node15 -->
<g id="edge13" class="edge"><title>Node16&#45;&gt;Node15</title>
<path fill="none" stroke="orange" d="M487.5,-1070.31C487.5,-1029.3 487.5,-964.736 487.5,-928.168"/>
<polygon fill="orange" stroke="orange" points="484,-1070.45 487.5,-1080.45 491,-1070.45 484,-1070.45"/>
<text text-anchor="middle" x="520" y="-1037.5" font-family="Helvetica,sans-Serif" font-size="10.00"> &lt; std::string &gt;</text>
</g>
<!-- Node17 -->
<g id="node12" class="node"><title>Node17</title>
<polygon fill="white" stroke="#bfbfbf" points="473,-1191 473,-1248 502,-1248 502,-1191 473,-1191"/>
<text text-anchor="middle" x="487.5" y="-1236" font-family="Helvetica,sans-Serif" font-size="10.00">T</text>
<polyline fill="none" stroke="#bfbfbf" points="473,-1229 502,-1229 "/>
<text text-anchor="middle" x="487.5" y="-1217" font-family="Helvetica,sans-Serif" font-size="10.00"> </text>
<polyline fill="none" stroke="#bfbfbf" points="473,-1210 502,-1210 "/>
<text text-anchor="middle" x="487.5" y="-1198" font-family="Helvetica,sans-Serif" font-size="10.00"> </text>
</g>
<!-- Node17&#45;&gt;Node16 -->
<g id="edge14" class="edge"><title>Node17&#45;&gt;Node16</title>
<path fill="none" stroke="#404040" d="M487.5,-1190.84C487.5,-1178.34 487.5,-1163.34 487.5,-1149.68"/>
<polygon fill="none" stroke="#404040" points="487.5,-1149.61 483.5,-1143.61 487.5,-1137.61 491.5,-1143.61 487.5,-1149.61"/>
<text text-anchor="middle" x="513" y="-1159" font-family="Helvetica,sans-Serif" font-size="10.00"> +elements</text>
</g>
<!-- Node18 -->
<g id="node13" class="node"><title>Node18</title>
<polygon fill="white" stroke="#bfbfbf" points="477,-276 477,-333 552,-333 552,-276 477,-276"/>
<text text-anchor="middle" x="514.5" y="-321" font-family="Helvetica,sans-Serif" font-size="10.00">T_FEATURE</text>
<polyline fill="none" stroke="#bfbfbf" points="477,-314 552,-314 "/>
<text text-anchor="middle" x="514.5" y="-302" font-family="Helvetica,sans-Serif" font-size="10.00"> </text>
<polyline fill="none" stroke="#bfbfbf" points="477,-295 552,-295 "/>
<text text-anchor="middle" x="514.5" y="-283" font-family="Helvetica,sans-Serif" font-size="10.00"> </text>
</g>
<!-- Node18&#45;&gt;Node6 -->
<g id="edge15" class="edge"><title>Node18&#45;&gt;Node6</title>
<path fill="none" stroke="#404040" d="M500.822,-275.946C491.064,-256.286 477.267,-228.492 463.429,-200.615"/>
<polygon fill="none" stroke="#404040" points="463.261,-200.276 457.011,-196.68 457.926,-189.528 464.176,-193.123 463.261,-200.276"/>
<text text-anchor="middle" x="533" y="-211" font-family="Helvetica,sans-Serif" font-size="10.00"> #_rT_kmeansMaxDiffCent</text>
</g>
</g>
</svg>
