<?xml version="1.0" encoding="UTF-8" standalone="no"?>
<!DOCTYPE svg PUBLIC "-//W3C//DTD SVG 1.1//EN"
 "http://www.w3.org/Graphics/SVG/1.1/DTD/svg11.dtd">
<!-- Generated by graphviz version 2.38.0 (20140413.2041)
 -->
<!-- Title: mat::BitArray::_maskTopWord Pages: 1 -->
<svg width="294pt" height="88pt"
 viewBox="0.00 0.00 294.00 88.00" xmlns="http://www.w3.org/2000/svg" xmlns:xlink="http://www.w3.org/1999/xlink">
<g id="graph0" class="graph" transform="scale(1 1) rotate(0) translate(4 84)">
<title>mat::BitArray::_maskTopWord</title>
<polygon fill="white" stroke="none" points="-4,4 -4,-84 290,-84 290,4 -4,4"/>
<!-- Node6 -->
<g id="node1" class="node"><title>Node6</title>
<g id="a_node1"><a xlink:title=" ">
<polygon fill="#bfbfbf" stroke="black" points="0,-30 0,-49 154,-49 154,-30 0,-30"/>
<text text-anchor="middle" x="77" y="-37" font-family="Helvetica,sans-Serif" font-size="10.00">mat::BitArray::_maskTopWord</text>
</a>
</g>
</g>
<!-- Node7 -->
<g id="node2" class="node"><title>Node7</title>
<g id="a_node2"><a xlink:href="classds_1_1_bit_container.html#a704c8b1938a9898d12c72866981bcbb7" target="_top" xlink:title=" ">
<polygon fill="white" stroke="black" points="190.5,-49.5 190.5,-79.5 285.5,-79.5 285.5,-49.5 190.5,-49.5"/>
<text text-anchor="start" x="198.5" y="-67.5" font-family="Helvetica,sans-Serif" font-size="10.00">ds::BitContainer::</text>
<text text-anchor="middle" x="238" y="-56.5" font-family="Helvetica,sans-Serif" font-size="10.00">_bitMask</text>
</a>
</g>
</g>
<!-- Node6&#45;&gt;Node7 -->
<g id="edge1" class="edge"><title>Node6&#45;&gt;Node7</title>
<path fill="none" stroke="midnightblue" d="M138.565,-49.0227C152.272,-51.1779 166.776,-53.4585 180.316,-55.5874"/>
<polygon fill="midnightblue" stroke="midnightblue" points="180.03,-59.0854 190.453,-57.1813 181.118,-52.1704 180.03,-59.0854"/>
</g>
<!-- Node8 -->
<g id="node3" class="node"><title>Node8</title>
<g id="a_node3"><a xlink:href="classds_1_1_bit_container.html#a0811dba1d14baaf495c8a98d11c0178c" target="_top" xlink:title=" ">
<polygon fill="white" stroke="black" points="190,-0.5 190,-30.5 286,-30.5 286,-0.5 190,-0.5"/>
<text text-anchor="start" x="198" y="-18.5" font-family="Helvetica,sans-Serif" font-size="10.00">ds::BitContainer::</text>
<text text-anchor="middle" x="238" y="-7.5" font-family="Helvetica,sans-Serif" font-size="10.00">_bits_in_top_word</text>
</a>
</g>
</g>
<!-- Node6&#45;&gt;Node8 -->
<g id="edge2" class="edge"><title>Node6&#45;&gt;Node8</title>
<path fill="none" stroke="midnightblue" d="M141.298,-29.9456C153.882,-28.0461 167.032,-26.0612 179.413,-24.1924"/>
<polygon fill="midnightblue" stroke="midnightblue" points="180.237,-27.6077 189.603,-22.6543 179.192,-20.6861 180.237,-27.6077"/>
</g>
</g>
</svg>
