<?xml version="1.0" encoding="UTF-8" standalone="no"?>
<!DOCTYPE svg PUBLIC "-//W3C//DTD SVG 1.1//EN"
 "http://www.w3.org/Graphics/SVG/1.1/DTD/svg11.dtd">
<!-- Generated by graphviz version 2.38.0 (20140413.2041)
 -->
<!-- Title: gaencode::ChromosomeCBGA::checkChangedCodeVectors Pages: 1 -->
<!--zoomable 439 -->
<svg id="main" version="1.1" xmlns="http://www.w3.org/2000/svg" xmlns:xlink="http://www.w3.org/1999/xlink" xml:space="preserve" onload="init(evt)">
<style type="text/css"><![CDATA[
.edge:hover path { stroke: red; }
.edge:hover polygon { stroke: red; fill: red; }
]]></style>
<script type="text/javascript"><![CDATA[
var edges = document.getElementsByTagName('g');
if (edges && edges.length) {
  for (var i=0;i<edges.length;i++) {
    if (edges[i].id.substr(0,4)=='edge') {
      edges[i].setAttribute('class','edge');
    }
  }
}
]]></script>
        <defs>
                <circle id="rim" cx="0" cy="0" r="7"/>
                <circle id="rim2" cx="0" cy="0" r="3.5"/>
                <g id="zoomPlus">
                        <use xlink:href="#rim" fill="#404040">
                                <set attributeName="fill" to="#808080" begin="zoomplus.mouseover" end="zoomplus.mouseout"/>
                        </use>
                        <path d="M-4,0h8M0,-4v8" fill="none" stroke="white" stroke-width="1.5" pointer-events="none"/>
                </g>
                <g id="zoomMin">
                        <use xlink:href="#rim" fill="#404040">
                                <set attributeName="fill" to="#808080" begin="zoomminus.mouseover" end="zoomminus.mouseout"/>
                        </use>
                        <path d="M-4,0h8" fill="none" stroke="white" stroke-width="1.5" pointer-events="none"/>
                </g>
                <g id="dirArrow">
                        <path fill="none" stroke="white" stroke-width="1.5" d="M0,-3.0v7 M-2.5,-0.5L0,-3.0L2.5,-0.5"/>
                </g>
               <g id="resetDef">
                       <use xlink:href="#rim2" fill="#404040">
                               <set attributeName="fill" to="#808080" begin="reset.mouseover" end="reset.mouseout"/>
                       </use>
               </g>
        </defs>

<script type="text/javascript">
var viewWidth = 756;
var viewHeight = 439;
var sectionId = 'dynsection-1';
</script>
<script xlink:href="svgpan.js"/>
<svg id="graph" class="graph">
<g id="viewport">
<title>gaencode::ChromosomeCBGA::checkChangedCodeVectors</title>
<polygon fill="white" stroke="none" points="-4,4 -4,-435.275 752,-435.275 752,4 -4,4"/>
<!-- Node4 -->
<g id="node1" class="node"><title>Node4</title>
<g id="a_node1"><a xlink:title=" ">
<polygon fill="#bfbfbf" stroke="black" points="0,-215.275 0,-245.275 160,-245.275 160,-215.275 0,-215.275"/>
<text text-anchor="start" x="8" y="-233.275" font-family="Helvetica,sans-Serif" font-size="10.00">gaencode::ChromosomeCBGA</text>
<text text-anchor="middle" x="80" y="-222.275" font-family="Helvetica,sans-Serif" font-size="10.00">::checkChangedCodeVectors</text>
</a>
</g>
</g>
<!-- Node5 -->
<g id="node2" class="node"><title>Node5</title>
<g id="a_node2"><a xlink:href="namespaceinout.html#a0c10a45877a347dec0d4ec4e5b05b828" target="_top" xlink:title=" ">
<polygon fill="white" stroke="black" points="427.5,-411.775 427.5,-430.775 530.5,-430.775 530.5,-411.775 427.5,-411.775"/>
<text text-anchor="middle" x="479" y="-418.775" font-family="Helvetica,sans-Serif" font-size="10.00">inout::containerprint</text>
</a>
</g>
</g>
<!-- Node4&#45;&gt;Node5 -->
<g id="edge1" class="edge"><title>Node4&#45;&gt;Node5</title>
<path fill="none" stroke="midnightblue" d="M104.622,-245.419C156.512,-278.099 285.147,-355.939 402,-401.275 409.334,-404.12 417.219,-406.698 425.036,-408.985"/>
<polygon fill="midnightblue" stroke="midnightblue" points="424.28,-412.408 434.853,-411.725 426.162,-405.666 424.28,-412.408"/>
</g>
<!-- Node6 -->
<g id="node3" class="node"><title>Node6</title>
<g id="a_node3"><a xlink:href="classmat_1_1_matrix_base.html#a70200414022ce1479b9ddc16102b12ae" target="_top" xlink:title=" ">
<polygon fill="white" stroke="black" points="196,-264.775 196,-283.775 366,-283.775 366,-264.775 196,-264.775"/>
<text text-anchor="middle" x="281" y="-271.775" font-family="Helvetica,sans-Serif" font-size="10.00">mat::MatrixBase::getNumColumns</text>
</a>
</g>
</g>
<!-- Node4&#45;&gt;Node6 -->
<g id="edge2" class="edge"><title>Node4&#45;&gt;Node6</title>
<path fill="none" stroke="midnightblue" d="M148.928,-245.294C174.445,-250.936 203.052,-257.261 227.015,-262.56"/>
<polygon fill="midnightblue" stroke="midnightblue" points="226.458,-266.021 236.978,-264.762 227.969,-259.186 226.458,-266.021"/>
</g>
<!-- Node7 -->
<g id="node4" class="node"><title>Node7</title>
<g id="a_node4"><a xlink:href="classmat_1_1_matrix_base.html#ac500eedd5e203327d3292f8ab22d8f3e" target="_top" xlink:title=" ">
<polygon fill="white" stroke="black" points="592,-154.775 592,-173.775 748,-173.775 748,-154.775 592,-154.775"/>
<text text-anchor="middle" x="670" y="-161.775" font-family="Helvetica,sans-Serif" font-size="10.00">mat::MatrixBase::getNumRows</text>
</a>
</g>
</g>
<!-- Node4&#45;&gt;Node7 -->
<g id="edge3" class="edge"><title>Node4&#45;&gt;Node7</title>
<path fill="none" stroke="midnightblue" d="M96.6073,-214.997C140.254,-173.48 269.106,-59.0412 402,-19.2749 467.572,0.346257 494.501,10.7669 556,-19.2749 610.34,-45.8196 646.147,-112.513 661.085,-145.375"/>
<polygon fill="midnightblue" stroke="midnightblue" points="657.979,-147.007 665.199,-154.762 664.391,-144.198 657.979,-147.007"/>
</g>
<!-- Node8 -->
<g id="node5" class="node"><title>Node8</title>
<g id="a_node5"><a xlink:href="classmat_1_1_matrix_resizable_row.html#a9dc9ad27ad33933bfa6c0f483e24cc33" target="_top" xlink:title=" ">
<polygon fill="white" stroke="black" points="215.5,-166.275 215.5,-196.275 346.5,-196.275 346.5,-166.275 215.5,-166.275"/>
<text text-anchor="start" x="223.5" y="-184.275" font-family="Helvetica,sans-Serif" font-size="10.00">mat::MatrixResizableRow</text>
<text text-anchor="middle" x="281" y="-173.275" font-family="Helvetica,sans-Serif" font-size="10.00">::getRow</text>
</a>
</g>
</g>
<!-- Node4&#45;&gt;Node8 -->
<g id="edge4" class="edge"><title>Node4&#45;&gt;Node8</title>
<path fill="none" stroke="midnightblue" d="M142.059,-215.24C163.262,-210.02 187.216,-204.121 209.142,-198.722"/>
<polygon fill="midnightblue" stroke="midnightblue" points="210.183,-202.071 219.057,-196.281 208.51,-195.274 210.183,-202.071"/>
</g>
<!-- Node9 -->
<g id="node6" class="node"><title>Node9</title>
<g id="a_node6"><a xlink:href="classds_1_1_partition_linked_stats.html#ac002167e3a4f4f2b692c3b7e1c9fd785" target="_top" xlink:title=" ">
<polygon fill="white" stroke="black" points="220,-215.275 220,-245.275 342,-245.275 342,-215.275 220,-215.275"/>
<text text-anchor="start" x="228" y="-233.275" font-family="Helvetica,sans-Serif" font-size="10.00">ds::PartitionLinkedStats</text>
<text text-anchor="middle" x="281" y="-222.275" font-family="Helvetica,sans-Serif" font-size="10.00">::print</text>
</a>
</g>
</g>
<!-- Node4&#45;&gt;Node9 -->
<g id="edge5" class="edge"><title>Node4&#45;&gt;Node9</title>
<path fill="none" stroke="midnightblue" d="M160.222,-230.275C176.493,-230.275 193.519,-230.275 209.459,-230.275"/>
<polygon fill="midnightblue" stroke="midnightblue" points="209.759,-233.775 219.759,-230.275 209.759,-226.775 209.759,-233.775"/>
</g>
<!-- Node9&#45;&gt;Node5 -->
<g id="edge7" class="edge"><title>Node9&#45;&gt;Node5</title>
<path fill="none" stroke="midnightblue" d="M342.389,-239.824C351.206,-243.461 359.49,-248.448 366,-255.275 412.122,-303.642 355.112,-353.651 402,-401.275 406.523,-405.869 411.965,-409.448 417.833,-412.231"/>
<polygon fill="midnightblue" stroke="midnightblue" points="416.748,-415.565 427.335,-415.98 419.317,-409.054 416.748,-415.565"/>
</g>
<!-- Node10 -->
<g id="node7" class="node"><title>Node10</title>
<g id="a_node7"><a xlink:href="classds_1_1_iterator_partition_linked.html#ad171cb96653fadaec272389381a4f8b4" target="_top" xlink:title=" ">
<polygon fill="white" stroke="black" points="413.5,-215.275 413.5,-245.275 544.5,-245.275 544.5,-215.275 413.5,-215.275"/>
<text text-anchor="start" x="421.5" y="-233.275" font-family="Helvetica,sans-Serif" font-size="10.00">ds::IteratorPartitionLinked</text>
<text text-anchor="middle" x="479" y="-222.275" font-family="Helvetica,sans-Serif" font-size="10.00">::begin</text>
</a>
</g>
</g>
<!-- Node9&#45;&gt;Node10 -->
<g id="edge6" class="edge"><title>Node9&#45;&gt;Node10</title>
<path fill="none" stroke="midnightblue" d="M342.138,-230.275C361.392,-230.275 382.948,-230.275 403.12,-230.275"/>
<polygon fill="midnightblue" stroke="midnightblue" points="403.207,-233.775 413.207,-230.275 403.207,-226.775 403.207,-233.775"/>
</g>
<!-- Node11 -->
<g id="node8" class="node"><title>Node11</title>
<g id="a_node8"><a xlink:href="classds_1_1_iterator_partition_linked.html#af0e179fae69c0d4f047082ee44783613" target="_top" xlink:title=" ">
<polygon fill="white" stroke="black" points="402,-176.775 402,-195.775 556,-195.775 556,-176.775 402,-176.775"/>
<text text-anchor="middle" x="479" y="-183.775" font-family="Helvetica,sans-Serif" font-size="10.00">ds::IteratorPartitionLinked::end</text>
</a>
</g>
</g>
<!-- Node9&#45;&gt;Node11 -->
<g id="edge8" class="edge"><title>Node9&#45;&gt;Node11</title>
<path fill="none" stroke="midnightblue" d="M342.138,-216.774C368.762,-210.798 399.791,-203.832 425.47,-198.067"/>
<polygon fill="midnightblue" stroke="midnightblue" points="426.399,-201.446 435.39,-195.84 424.866,-194.616 426.399,-201.446"/>
</g>
<!-- Node12 -->
<g id="node9" class="node"><title>Node12</title>
<g id="a_node9"><a xlink:href="classds_1_1_partition_linked.html#a70877e6d118d2f041d9006fdf565daec" target="_top" xlink:title=" ">
<polygon fill="white" stroke="black" points="429,-127.275 429,-157.275 529,-157.275 529,-127.275 429,-127.275"/>
<text text-anchor="start" x="437" y="-145.275" font-family="Helvetica,sans-Serif" font-size="10.00">ds::PartitionLinked</text>
<text text-anchor="middle" x="479" y="-134.275" font-family="Helvetica,sans-Serif" font-size="10.00">::getNumInstances</text>
</a>
</g>
</g>
<!-- Node9&#45;&gt;Node12 -->
<g id="edge9" class="edge"><title>Node9&#45;&gt;Node12</title>
<path fill="none" stroke="midnightblue" d="M342.406,-216.507C350.636,-213.44 358.74,-209.735 366,-205.275 385.823,-193.098 382.352,-179.733 402,-167.275 407.389,-163.858 413.291,-160.862 419.348,-158.247"/>
<polygon fill="midnightblue" stroke="midnightblue" points="420.937,-161.382 428.944,-154.444 418.358,-154.875 420.937,-161.382"/>
</g>
<!-- Node13 -->
<g id="node10" class="node"><title>Node13</title>
<g id="a_node10"><a xlink:href="classds_1_1_partition_linked_stats.html#aea3a5b61e78f2aa7bb44b1d1a9e25b59" target="_top" xlink:title=" ">
<polygon fill="white" stroke="black" points="418,-313.275 418,-343.275 540,-343.275 540,-313.275 418,-313.275"/>
<text text-anchor="start" x="426" y="-331.275" font-family="Helvetica,sans-Serif" font-size="10.00">ds::PartitionLinkedStats</text>
<text text-anchor="middle" x="479" y="-320.275" font-family="Helvetica,sans-Serif" font-size="10.00">::getNumPartitions</text>
</a>
</g>
</g>
<!-- Node9&#45;&gt;Node13 -->
<g id="edge10" class="edge"><title>Node9&#45;&gt;Node13</title>
<path fill="none" stroke="midnightblue" d="M342.022,-242.956C350.486,-246.191 358.758,-250.232 366,-255.275 387.883,-270.514 380.336,-287.725 402,-303.275 404.652,-305.178 407.457,-306.943 410.366,-308.578"/>
<polygon fill="midnightblue" stroke="midnightblue" points="408.844,-311.731 419.349,-313.105 411.994,-305.479 408.844,-311.731"/>
</g>
<!-- Node14 -->
<g id="node11" class="node"><title>Node14</title>
<g id="a_node11"><a xlink:href="classds_1_1_iterator_partition_linked.html#a1a031c033d0d2d1c6982ced4e0473831" target="_top" xlink:title=" ">
<polygon fill="white" stroke="black" points="413.5,-78.2749 413.5,-108.275 544.5,-108.275 544.5,-78.2749 413.5,-78.2749"/>
<text text-anchor="start" x="421.5" y="-96.2749" font-family="Helvetica,sans-Serif" font-size="10.00">ds::IteratorPartitionLinked</text>
<text text-anchor="middle" x="479" y="-85.2749" font-family="Helvetica,sans-Serif" font-size="10.00">::getValue</text>
</a>
</g>
</g>
<!-- Node9&#45;&gt;Node14 -->
<g id="edge12" class="edge"><title>Node9&#45;&gt;Node14</title>
<path fill="none" stroke="midnightblue" d="M342.42,-219.527C351.024,-216.032 359.233,-211.403 366,-205.275 397.323,-176.91 370.914,-145.899 402,-117.275 403.295,-116.083 404.648,-114.95 406.052,-113.873"/>
<polygon fill="midnightblue" stroke="midnightblue" points="408.118,-116.704 414.572,-108.302 404.287,-110.845 408.118,-116.704"/>
</g>
<!-- Node15 -->
<g id="node12" class="node"><title>Node15</title>
<g id="a_node12"><a xlink:href="classds_1_1_iterator_partition_linked.html#a83b887be41c97dc0bdfc47a02abbc383" target="_top" xlink:title=" ">
<polygon fill="white" stroke="black" points="413.5,-29.2749 413.5,-59.2749 544.5,-59.2749 544.5,-29.2749 413.5,-29.2749"/>
<text text-anchor="start" x="421.5" y="-47.2749" font-family="Helvetica,sans-Serif" font-size="10.00">ds::IteratorPartitionLinked</text>
<text text-anchor="middle" x="479" y="-36.2749" font-family="Helvetica,sans-Serif" font-size="10.00">::next</text>
</a>
</g>
</g>
<!-- Node9&#45;&gt;Node15 -->
<g id="edge13" class="edge"><title>Node9&#45;&gt;Node15</title>
<path fill="none" stroke="midnightblue" d="M342.3,-220.64C351.128,-217.013 359.438,-212.052 366,-205.275 409.792,-160.045 358.585,-113.867 402,-68.2749 403.044,-67.1789 404.137,-66.1328 405.273,-65.1342"/>
<polygon fill="midnightblue" stroke="midnightblue" points="407.351,-67.9507 413.34,-59.2106 403.208,-62.3085 407.351,-67.9507"/>
</g>
<!-- Node16 -->
<g id="node13" class="node"><title>Node16</title>
<g id="a_node13"><a xlink:href="classds_1_1_partition_linked.html#a6a7de3bc18b0904e2e23536a336e42a8" target="_top" xlink:title=" ">
<polygon fill="white" stroke="black" points="429,-362.275 429,-392.275 529,-392.275 529,-362.275 429,-362.275"/>
<text text-anchor="start" x="437" y="-380.275" font-family="Helvetica,sans-Serif" font-size="10.00">ds::PartitionLinked</text>
<text text-anchor="middle" x="479" y="-369.275" font-family="Helvetica,sans-Serif" font-size="10.00">::print</text>
</a>
</g>
</g>
<!-- Node9&#45;&gt;Node16 -->
<g id="edge14" class="edge"><title>Node9&#45;&gt;Node16</title>
<path fill="none" stroke="midnightblue" d="M342.17,-240.653C350.907,-244.193 359.224,-248.932 366,-255.275 399.573,-286.699 368.879,-320.376 402,-352.275 407.041,-357.13 413.043,-361.043 419.431,-364.196"/>
<polygon fill="midnightblue" stroke="midnightblue" points="418.429,-367.574 429,-368.292 421.185,-361.139 418.429,-367.574"/>
</g>
<!-- Node18 -->
<g id="node15" class="node"><title>Node18</title>
<g id="a_node15"><a xlink:href="classmat_1_1_matrix_resizable_row.html#a566801d937643cf5937b61bf321b01b7" target="_top" xlink:title=" ">
<polygon fill="white" stroke="black" points="413.5,-264.275 413.5,-294.275 544.5,-294.275 544.5,-264.275 413.5,-264.275"/>
<text text-anchor="start" x="421.5" y="-282.275" font-family="Helvetica,sans-Serif" font-size="10.00">mat::MatrixResizableRow</text>
<text text-anchor="middle" x="479" y="-271.275" font-family="Helvetica,sans-Serif" font-size="10.00">::print</text>
</a>
</g>
</g>
<!-- Node9&#45;&gt;Node18 -->
<g id="edge16" class="edge"><title>Node9&#45;&gt;Node18</title>
<path fill="none" stroke="midnightblue" d="M342.138,-245.31C363.021,-250.53 386.615,-256.429 408.21,-261.828"/>
<polygon fill="midnightblue" stroke="midnightblue" points="407.425,-265.239 417.975,-264.269 409.123,-258.448 407.425,-265.239"/>
</g>
<!-- Node13&#45;&gt;Node7 -->
<g id="edge11" class="edge"><title>Node13&#45;&gt;Node7</title>
<path fill="none" stroke="midnightblue" d="M537.717,-313.243C544.15,-310.433 550.394,-307.135 556,-303.275 603.408,-270.632 641.33,-212.537 658.703,-182.853"/>
<polygon fill="midnightblue" stroke="midnightblue" points="661.866,-184.371 663.791,-173.953 655.789,-180.897 661.866,-184.371"/>
</g>
<!-- Node17 -->
<g id="node14" class="node"><title>Node17</title>
<g id="a_node14"><a xlink:href="classds_1_1_partition_linked.html#a696f58c4d25fd41adf281d1468440dc9" target="_top" xlink:title=" ">
<polygon fill="white" stroke="black" points="620,-362.275 620,-392.275 720,-392.275 720,-362.275 620,-362.275"/>
<text text-anchor="start" x="628" y="-380.275" font-family="Helvetica,sans-Serif" font-size="10.00">ds::PartitionLinked</text>
<text text-anchor="middle" x="670" y="-369.275" font-family="Helvetica,sans-Serif" font-size="10.00">::getNumPartitions</text>
</a>
</g>
</g>
<!-- Node16&#45;&gt;Node17 -->
<g id="edge15" class="edge"><title>Node16&#45;&gt;Node17</title>
<path fill="none" stroke="midnightblue" d="M529.164,-377.275C553.786,-377.275 583.79,-377.275 609.682,-377.275"/>
<polygon fill="midnightblue" stroke="midnightblue" points="609.754,-380.775 619.754,-377.275 609.754,-373.775 609.754,-380.775"/>
</g>
</g>
</svg>
        <g id="navigator" transform="translate(0 0)" fill="#404254">
                <rect fill="#f2f5e9" fill-opacity="0.5" stroke="#606060" stroke-width=".5" x="0" y="0" width="60" height="60"/>
                <use id="zoomplus" xlink:href="#zoomPlus" x="17" y="9" onmousedown="handleZoom(evt,'in')"/>
                <use id="zoomminus" xlink:href="#zoomMin" x="42" y="9" onmousedown="handleZoom(evt,'out')"/>
                <use id="reset" xlink:href="#resetDef" x="30" y="36" onmousedown="handleReset()"/>
                <g id="arrowUp" xlink:href="#dirArrow" transform="translate(30 24)" onmousedown="handlePan(0,-1)">
                  <use xlink:href="#rim" fill="#404040">
                        <set attributeName="fill" to="#808080" begin="arrowUp.mouseover" end="arrowUp.mouseout"/>
                  </use>
                  <path fill="none" stroke="white" stroke-width="1.5" d="M0,-3.0v7 M-2.5,-0.5L0,-3.0L2.5,-0.5"/>
                </g>
                <g id="arrowRight" xlink:href="#dirArrow" transform="rotate(90) translate(36 -43)" onmousedown="handlePan(1,0)">
                  <use xlink:href="#rim" fill="#404040">
                        <set attributeName="fill" to="#808080" begin="arrowRight.mouseover" end="arrowRight.mouseout"/>
                  </use>
                  <path fill="none" stroke="white" stroke-width="1.5" d="M0,-3.0v7 M-2.5,-0.5L0,-3.0L2.5,-0.5"/>
                </g>
                <g id="arrowDown" xlink:href="#dirArrow" transform="rotate(180) translate(-30 -48)" onmousedown="handlePan(0,1)">
                  <use xlink:href="#rim" fill="#404040">
                        <set attributeName="fill" to="#808080" begin="arrowDown.mouseover" end="arrowDown.mouseout"/>
                  </use>
                  <path fill="none" stroke="white" stroke-width="1.5" d="M0,-3.0v7 M-2.5,-0.5L0,-3.0L2.5,-0.5"/>
                </g>
                <g id="arrowLeft" xlink:href="#dirArrow" transform="rotate(270) translate(-36 17)" onmousedown="handlePan(-1,0)">
                  <use xlink:href="#rim" fill="#404040">
                        <set attributeName="fill" to="#808080" begin="arrowLeft.mouseover" end="arrowLeft.mouseout"/>
                  </use>
                  <path fill="none" stroke="white" stroke-width="1.5" d="M0,-3.0v7 M-2.5,-0.5L0,-3.0L2.5,-0.5"/>
                </g>
        </g>
        <svg viewBox="0 0 15 15" width="100%" height="30px" preserveAspectRatio="xMaxYMin meet">
         <g id="arrow_out" transform="scale(0.3 0.3)">
          <a xlink:href="classgaencode_1_1_chromosome_c_b_g_a_ad3f2d1ca415339607fb5c691f9a7e088_cgraph_org.svg" target="_base">
           <rect id="button" ry="5" rx="5" y="6" x="6" height="38" width="38"
                fill="#f2f5e9" fill-opacity="0.5" stroke="#606060" stroke-width="1.0"/>
           <path id="arrow"
             d="M 11.500037,31.436501 C 11.940474,20.09759 22.043105,11.32322 32.158766,21.979434 L 37.068811,17.246167 C 37.068811,17.246167 37.088388,32 37.088388,32 L 22.160133,31.978069 C 22.160133,31.978069 26.997745,27.140456 26.997745,27.140456 C 18.528582,18.264221 13.291696,25.230495 11.500037,31.436501 z"
             style="fill:#404040;"/>
          </a>
         </g>
        </svg>
</svg>
