<?xml version="1.0" encoding="UTF-8" standalone="no"?>
<!DOCTYPE svg PUBLIC "-//W3C//DTD SVG 1.1//EN"
 "http://www.w3.org/Graphics/SVG/1.1/DTD/svg11.dtd">
<!-- Generated by graphviz version 2.38.0 (20140413.2041)
 -->
<!-- Title: inout::InParamTGCA&lt; T_CLUSTERIDX, T_REAL, T_FEATURE, T_FEATURE_SUM, T_INSTANCES_CLUSTER_K &gt; Pages: 1 -->
<svg width="609pt" height="1607pt"
 viewBox="0.00 0.00 608.50 1607.00" xmlns="http://www.w3.org/2000/svg" xmlns:xlink="http://www.w3.org/1999/xlink">
<g id="graph0" class="graph" transform="scale(1 1) rotate(0) translate(4 1603)">
<title>inout::InParamTGCA&lt; T_CLUSTERIDX, T_REAL, T_FEATURE, T_FEATURE_SUM, T_INSTANCES_CLUSTER_K &gt;</title>
<polygon fill="white" stroke="none" points="-4,4 -4,-1603 604.5,-1603 604.5,4 -4,4"/>
<!-- Node8 -->
<g id="node1" class="node"><title>Node8</title>
<g id="a_node1"><a xlink:title="Input parameter for TGCA a two&#45;stage genetic algorithm .">
<polygon fill="#bfbfbf" stroke="black" points="195.5,-0.5 195.5,-200.5 387.5,-200.5 387.5,-0.5 195.5,-0.5"/>
<text text-anchor="start" x="203.5" y="-188.5" font-family="Helvetica,sans-Serif" font-size="10.00">inout::InParamTGCA</text>
<text text-anchor="start" x="203.5" y="-177.5" font-family="Helvetica,sans-Serif" font-size="10.00">&lt; T_CLUSTERIDX, T_REAL,</text>
<text text-anchor="start" x="203.5" y="-166.5" font-family="Helvetica,sans-Serif" font-size="10.00"> T_FEATURE, T_FEATURE</text>
<text text-anchor="middle" x="291.5" y="-155.5" font-family="Helvetica,sans-Serif" font-size="10.00">_SUM, T_INSTANCES_CLUSTER_K &gt;</text>
<polyline fill="none" stroke="black" points="195.5,-148.5 387.5,-148.5 "/>
<text text-anchor="start" x="203.5" y="-136.5" font-family="Helvetica,sans-Serif" font-size="10.00"># _it_kmeansNumMaxIter</text>
<text text-anchor="start" x="203.5" y="-125.5" font-family="Helvetica,sans-Serif" font-size="10.00"># _ui_kmeansNumMinThreshold</text>
<text text-anchor="start" x="203.5" y="-114.5" font-family="Helvetica,sans-Serif" font-size="10.00"># _ui_numSubpopulationsCross</text>
<polyline fill="none" stroke="black" points="195.5,-107.5 387.5,-107.5 "/>
<text text-anchor="start" x="203.5" y="-95.5" font-family="Helvetica,sans-Serif" font-size="10.00">+ InParamTGCA()</text>
<text text-anchor="start" x="203.5" y="-84.5" font-family="Helvetica,sans-Serif" font-size="10.00">+ ~InParamTGCA()</text>
<text text-anchor="start" x="203.5" y="-73.5" font-family="Helvetica,sans-Serif" font-size="10.00">+ setKmeansNumMaxIter()</text>
<text text-anchor="start" x="203.5" y="-62.5" font-family="Helvetica,sans-Serif" font-size="10.00">+ getKmeansNumMaxIter()</text>
<text text-anchor="start" x="203.5" y="-51.5" font-family="Helvetica,sans-Serif" font-size="10.00">+ setKmeansMinThreshold()</text>
<text text-anchor="start" x="203.5" y="-40.5" font-family="Helvetica,sans-Serif" font-size="10.00">+ getKmeansMinThreshold()</text>
<text text-anchor="start" x="203.5" y="-29.5" font-family="Helvetica,sans-Serif" font-size="10.00">+ setNumSubpopulationsCross()</text>
<text text-anchor="start" x="203.5" y="-18.5" font-family="Helvetica,sans-Serif" font-size="10.00">+ getNumSubpopulationsCross()</text>
<text text-anchor="start" x="203.5" y="-7.5" font-family="Helvetica,sans-Serif" font-size="10.00">+ print()</text>
</a>
</g>
</g>
<!-- Node9 -->
<g id="node2" class="node"><title>Node9</title>
<g id="a_node2"><a xlink:href="classinout_1_1_in_param_pc_pm_vk.html" target="_top" xlink:title="Input parameter for GA with probability Pc, Pm and Variable K.">
<polygon fill="white" stroke="black" points="205,-238.5 205,-350.5 378,-350.5 378,-238.5 205,-238.5"/>
<text text-anchor="start" x="213" y="-338.5" font-family="Helvetica,sans-Serif" font-size="10.00">inout::InParamPcPmVk</text>
<text text-anchor="start" x="213" y="-327.5" font-family="Helvetica,sans-Serif" font-size="10.00">&lt; T_CLUSTERIDX, T_REAL,</text>
<text text-anchor="start" x="213" y="-316.5" font-family="Helvetica,sans-Serif" font-size="10.00"> T_FEATURE, T_FEATURE_SUM,</text>
<text text-anchor="middle" x="291.5" y="-305.5" font-family="Helvetica,sans-Serif" font-size="10.00"> T_INSTANCES_CLUSTER_K &gt;</text>
<polyline fill="none" stroke="black" points="205,-298.5 378,-298.5 "/>
<text text-anchor="middle" x="291.5" y="-286.5" font-family="Helvetica,sans-Serif" font-size="10.00"> </text>
<polyline fill="none" stroke="black" points="205,-279.5 378,-279.5 "/>
<text text-anchor="start" x="213" y="-267.5" font-family="Helvetica,sans-Serif" font-size="10.00">+ InParamPcPmVk()</text>
<text text-anchor="start" x="213" y="-256.5" font-family="Helvetica,sans-Serif" font-size="10.00">+ ~InParamPcPmVk()</text>
<text text-anchor="start" x="213" y="-245.5" font-family="Helvetica,sans-Serif" font-size="10.00">+ print()</text>
</a>
</g>
</g>
<!-- Node9&#45;&gt;Node8 -->
<g id="edge1" class="edge"><title>Node9&#45;&gt;Node8</title>
<path fill="none" stroke="midnightblue" d="M291.5,-228.254C291.5,-219.37 291.5,-210.094 291.5,-200.777"/>
<polygon fill="none" stroke="midnightblue" points="288,-228.48 291.5,-238.481 295,-228.481 288,-228.48"/>
</g>
<!-- Node10 -->
<g id="node3" class="node"><title>Node10</title>
<g id="a_node3"><a xlink:href="classinout_1_1_in_param_pc_pm.html" target="_top" xlink:title="Input parameter for GA with probability crossover (Pc) and mutation (Pm)">
<polygon fill="white" stroke="black" points="85.5,-388.5 85.5,-533.5 199.5,-533.5 199.5,-388.5 85.5,-388.5"/>
<text text-anchor="start" x="93.5" y="-521.5" font-family="Helvetica,sans-Serif" font-size="10.00">inout::InParamPcPm</text>
<text text-anchor="middle" x="142.5" y="-510.5" font-family="Helvetica,sans-Serif" font-size="10.00">&lt; T_REAL &gt;</text>
<polyline fill="none" stroke="black" points="85.5,-503.5 199.5,-503.5 "/>
<text text-anchor="start" x="93.5" y="-491.5" font-family="Helvetica,sans-Serif" font-size="10.00"># t_probCrossover</text>
<text text-anchor="start" x="93.5" y="-480.5" font-family="Helvetica,sans-Serif" font-size="10.00"># t_probMutation</text>
<polyline fill="none" stroke="black" points="85.5,-473.5 199.5,-473.5 "/>
<text text-anchor="start" x="93.5" y="-461.5" font-family="Helvetica,sans-Serif" font-size="10.00">+ InParamPcPm()</text>
<text text-anchor="start" x="93.5" y="-450.5" font-family="Helvetica,sans-Serif" font-size="10.00">+ ~InParamPcPm()</text>
<text text-anchor="start" x="93.5" y="-439.5" font-family="Helvetica,sans-Serif" font-size="10.00">+ setProbCrossover()</text>
<text text-anchor="start" x="93.5" y="-428.5" font-family="Helvetica,sans-Serif" font-size="10.00">+ getProbCrossover()</text>
<text text-anchor="start" x="93.5" y="-417.5" font-family="Helvetica,sans-Serif" font-size="10.00">+ setProbMutation()</text>
<text text-anchor="start" x="93.5" y="-406.5" font-family="Helvetica,sans-Serif" font-size="10.00">+ getProbMutation()</text>
<text text-anchor="start" x="93.5" y="-395.5" font-family="Helvetica,sans-Serif" font-size="10.00">+ print()</text>
</a>
</g>
</g>
<!-- Node10&#45;&gt;Node9 -->
<g id="edge2" class="edge"><title>Node10&#45;&gt;Node9</title>
<path fill="none" stroke="midnightblue" d="M206.526,-389.314C218.235,-376.386 230.297,-363.07 241.523,-350.676"/>
<polygon fill="none" stroke="midnightblue" points="203.8,-387.109 199.681,-396.87 208.989,-391.808 203.8,-387.109"/>
</g>
<!-- Node11 -->
<g id="node4" class="node"><title>Node11</title>
<g id="a_node4"><a xlink:href="classinout_1_1_in_param_g_a_clustering.html" target="_top" xlink:title="Input parameter for genetic algorithm.">
<polygon fill="white" stroke="black" points="72,-592.5 72,-726.5 213,-726.5 213,-592.5 72,-592.5"/>
<text text-anchor="middle" x="142.5" y="-714.5" font-family="Helvetica,sans-Serif" font-size="10.00">inout::InParamGAClustering</text>
<polyline fill="none" stroke="black" points="72,-707.5 213,-707.5 "/>
<text text-anchor="start" x="80" y="-695.5" font-family="Helvetica,sans-Serif" font-size="10.00"># st_sizePopulation</text>
<text text-anchor="start" x="80" y="-684.5" font-family="Helvetica,sans-Serif" font-size="10.00"># t_numMaxGenerations</text>
<polyline fill="none" stroke="black" points="72,-677.5 213,-677.5 "/>
<text text-anchor="start" x="80" y="-665.5" font-family="Helvetica,sans-Serif" font-size="10.00">+ InParamGAClustering()</text>
<text text-anchor="start" x="80" y="-654.5" font-family="Helvetica,sans-Serif" font-size="10.00">+ ~InParamGAClustering()</text>
<text text-anchor="start" x="80" y="-643.5" font-family="Helvetica,sans-Serif" font-size="10.00">+ setNumMaxGenerations()</text>
<text text-anchor="start" x="80" y="-632.5" font-family="Helvetica,sans-Serif" font-size="10.00">+ getNumMaxGenerations()</text>
<text text-anchor="start" x="80" y="-621.5" font-family="Helvetica,sans-Serif" font-size="10.00">+ setSizePopulation()</text>
<text text-anchor="start" x="80" y="-610.5" font-family="Helvetica,sans-Serif" font-size="10.00">+ getSizePopulation()</text>
<text text-anchor="start" x="80" y="-599.5" font-family="Helvetica,sans-Serif" font-size="10.00">+ print()</text>
</a>
</g>
</g>
<!-- Node11&#45;&gt;Node10 -->
<g id="edge3" class="edge"><title>Node11&#45;&gt;Node10</title>
<path fill="none" stroke="midnightblue" d="M142.5,-581.946C142.5,-566.066 142.5,-549.39 142.5,-533.692"/>
<polygon fill="none" stroke="midnightblue" points="139,-582.248 142.5,-592.248 146,-582.248 139,-582.248"/>
</g>
<!-- Node12 -->
<g id="node5" class="node"><title>Node12</title>
<g id="a_node5"><a xlink:href="classinout_1_1_in_param_clustering.html" target="_top" xlink:title="Input parameter for clustering algorithm.">
<polygon fill="white" stroke="black" points="51.5,-797.5 51.5,-1052.5 233.5,-1052.5 233.5,-797.5 51.5,-797.5"/>
<text text-anchor="middle" x="142.5" y="-1040.5" font-family="Helvetica,sans-Serif" font-size="10.00">inout::InParamClustering</text>
<polyline fill="none" stroke="black" points="51.5,-1033.5 233.5,-1033.5 "/>
<text text-anchor="start" x="59.5" y="-1021.5" font-family="Helvetica,sans-Serif" font-size="10.00"># i_opDistance</text>
<text text-anchor="start" x="59.5" y="-1010.5" font-family="Helvetica,sans-Serif" font-size="10.00"># ps_outFileCentroids</text>
<text text-anchor="start" x="59.5" y="-999.5" font-family="Helvetica,sans-Serif" font-size="10.00"># ps_outFileMemberShip</text>
<text text-anchor="start" x="59.5" y="-988.5" font-family="Helvetica,sans-Serif" font-size="10.00"># ps_outFilePartitionsTable</text>
<text text-anchor="start" x="59.5" y="-977.5" font-family="Helvetica,sans-Serif" font-size="10.00"># ps_outFileGraph</text>
<text text-anchor="start" x="59.5" y="-966.5" font-family="Helvetica,sans-Serif" font-size="10.00"># ps_fileNamePlotStatObjetiveFunc</text>
<text text-anchor="start" x="59.5" y="-955.5" font-family="Helvetica,sans-Serif" font-size="10.00"># _rd_maxExecutiontime</text>
<text text-anchor="start" x="59.5" y="-944.5" font-family="Helvetica,sans-Serif" font-size="10.00"># _b_printCentroidsFormat</text>
<text text-anchor="start" x="59.5" y="-933.5" font-family="Helvetica,sans-Serif" font-size="10.00"># _b_printTableFormat</text>
<polyline fill="none" stroke="black" points="51.5,-926.5 233.5,-926.5 "/>
<text text-anchor="start" x="59.5" y="-914.5" font-family="Helvetica,sans-Serif" font-size="10.00">+ InParamClustering()</text>
<text text-anchor="start" x="59.5" y="-903.5" font-family="Helvetica,sans-Serif" font-size="10.00">+ ~InParamClustering()</text>
<text text-anchor="start" x="59.5" y="-892.5" font-family="Helvetica,sans-Serif" font-size="10.00">+ getFileNamePlotStatObjetiveFunc()</text>
<text text-anchor="start" x="59.5" y="-881.5" font-family="Helvetica,sans-Serif" font-size="10.00">+ getWithPlotStatObjetiveFunc()</text>
<text text-anchor="start" x="59.5" y="-870.5" font-family="Helvetica,sans-Serif" font-size="10.00">+ setFileNamePlotStatObjetiveFunc()</text>
<text text-anchor="start" x="59.5" y="-859.5" font-family="Helvetica,sans-Serif" font-size="10.00">+ setOutFileMemberShip()</text>
<text text-anchor="start" x="59.5" y="-848.5" font-family="Helvetica,sans-Serif" font-size="10.00">+ getOutFileMemberShip()</text>
<text text-anchor="start" x="59.5" y="-837.5" font-family="Helvetica,sans-Serif" font-size="10.00">+ setRandomSeed()</text>
<text text-anchor="start" x="59.5" y="-826.5" font-family="Helvetica,sans-Serif" font-size="10.00">+ setRandomSeed()</text>
<text text-anchor="start" x="59.5" y="-815.5" font-family="Helvetica,sans-Serif" font-size="10.00">+ getRandomSeed()</text>
<text text-anchor="start" x="59.5" y="-804.5" font-family="Helvetica,sans-Serif" font-size="10.00">and 15 more...</text>
</a>
</g>
</g>
<!-- Node12&#45;&gt;Node11 -->
<g id="edge4" class="edge"><title>Node12&#45;&gt;Node11</title>
<path fill="none" stroke="midnightblue" d="M142.5,-787.258C142.5,-766.202 142.5,-745.315 142.5,-726.755"/>
<polygon fill="none" stroke="midnightblue" points="139,-787.267 142.5,-797.267 146,-787.267 139,-787.267"/>
</g>
<!-- Node13 -->
<g id="node6" class="node"><title>Node13</title>
<g id="a_node6"><a xlink:href="classinout_1_1_in_param_algorithmo.html" target="_top" xlink:title="Input parameter for define propertys of the algorithmos.">
<polygon fill="white" stroke="black" points="0,-1144.5 0,-1344.5 135,-1344.5 135,-1144.5 0,-1144.5"/>
<text text-anchor="middle" x="67.5" y="-1332.5" font-family="Helvetica,sans-Serif" font-size="10.00">inout::InParamAlgorithmo</text>
<polyline fill="none" stroke="black" points="0,-1325.5 135,-1325.5 "/>
<text text-anchor="start" x="8" y="-1313.5" font-family="Helvetica,sans-Serif" font-size="10.00"># ato_algTypeOut</text>
<text text-anchor="start" x="8" y="-1302.5" font-family="Helvetica,sans-Serif" font-size="10.00"># ps_fileNameTimesRun</text>
<text text-anchor="start" x="8" y="-1291.5" font-family="Helvetica,sans-Serif" font-size="10.00"># b_progressBarPrinting</text>
<text text-anchor="start" x="8" y="-1280.5" font-family="Helvetica,sans-Serif" font-size="10.00"># i_timesRunAlgorithm</text>
<polyline fill="none" stroke="black" points="0,-1273.5 135,-1273.5 "/>
<text text-anchor="start" x="8" y="-1261.5" font-family="Helvetica,sans-Serif" font-size="10.00">+ InParamAlgorithmo()</text>
<text text-anchor="start" x="8" y="-1250.5" font-family="Helvetica,sans-Serif" font-size="10.00">+ ~InParamAlgorithmo()</text>
<text text-anchor="start" x="8" y="-1239.5" font-family="Helvetica,sans-Serif" font-size="10.00">+ errorArgument()</text>
<text text-anchor="start" x="8" y="-1228.5" font-family="Helvetica,sans-Serif" font-size="10.00">+ isYesNo()</text>
<text text-anchor="start" x="8" y="-1217.5" font-family="Helvetica,sans-Serif" font-size="10.00">+ setFileNameTimesRun()</text>
<text text-anchor="start" x="8" y="-1206.5" font-family="Helvetica,sans-Serif" font-size="10.00">+ setProgressBarPrinting()</text>
<text text-anchor="start" x="8" y="-1195.5" font-family="Helvetica,sans-Serif" font-size="10.00">+ setTimesRunAlgorithm()</text>
<text text-anchor="start" x="8" y="-1184.5" font-family="Helvetica,sans-Serif" font-size="10.00">+ setGnuPlotCoreStyles()</text>
<text text-anchor="start" x="8" y="-1173.5" font-family="Helvetica,sans-Serif" font-size="10.00">+ getAlgorithmoAuthor()</text>
<text text-anchor="start" x="8" y="-1162.5" font-family="Helvetica,sans-Serif" font-size="10.00">+ getAlgorithmoName()</text>
<text text-anchor="start" x="8" y="-1151.5" font-family="Helvetica,sans-Serif" font-size="10.00">and 8 more...</text>
</a>
</g>
</g>
<!-- Node13&#45;&gt;Node12 -->
<g id="edge5" class="edge"><title>Node13&#45;&gt;Node12</title>
<path fill="none" stroke="midnightblue" d="M93.2783,-1134.37C99.4918,-1108.07 106.183,-1079.74 112.568,-1052.71"/>
<polygon fill="none" stroke="midnightblue" points="89.8147,-1133.81 90.922,-1144.35 96.6272,-1135.42 89.8147,-1133.81"/>
</g>
<!-- Node14 -->
<g id="node7" class="node"><title>Node14</title>
<g id="a_node7"><a xlink:title="STL class.">
<polygon fill="white" stroke="#bfbfbf" points="209.5,-1425.5 209.5,-1482.5 269.5,-1482.5 269.5,-1425.5 209.5,-1425.5"/>
<text text-anchor="middle" x="239.5" y="-1470.5" font-family="Helvetica,sans-Serif" font-size="10.00">std::string</text>
<polyline fill="none" stroke="#bfbfbf" points="209.5,-1463.5 269.5,-1463.5 "/>
<text text-anchor="middle" x="239.5" y="-1451.5" font-family="Helvetica,sans-Serif" font-size="10.00"> </text>
<polyline fill="none" stroke="#bfbfbf" points="209.5,-1444.5 269.5,-1444.5 "/>
<text text-anchor="middle" x="239.5" y="-1432.5" font-family="Helvetica,sans-Serif" font-size="10.00"> </text>
</a>
</g>
</g>
<!-- Node14&#45;&gt;Node12 -->
<g id="edge8" class="edge"><title>Node14&#45;&gt;Node12</title>
<path fill="none" stroke="#404040" d="M224.111,-1425.48C212.924,-1404.17 198.408,-1373.57 190.5,-1345 165.185,-1253.53 153.2,-1147.26 147.536,-1064.64"/>
<polygon fill="none" stroke="#404040" points="147.533,-1064.6 143.148,-1058.87 146.745,-1052.62 151.13,-1058.35 147.533,-1064.6"/>
<text text-anchor="middle" x="235" y="-1242" font-family="Helvetica,sans-Serif" font-size="10.00"> #_str_randomSeed</text>
</g>
<!-- Node14&#45;&gt;Node13 -->
<g id="edge6" class="edge"><title>Node14&#45;&gt;Node13</title>
<path fill="none" stroke="#404040" d="M209.409,-1449.54C163.96,-1443.62 81.2104,-1429.93 63.5,-1407 52.3207,-1392.52 47.0968,-1374.94 45.5195,-1356.78"/>
<polygon fill="none" stroke="#404040" points="45.5193,-1356.77 41.2554,-1350.95 44.9836,-1344.78 49.2474,-1350.6 45.5193,-1356.77"/>
<text text-anchor="middle" x="113" y="-1399" font-family="Helvetica,sans-Serif" font-size="10.00"> #s_algorithmoAuthor</text>
<text text-anchor="middle" x="113" y="-1388" font-family="Helvetica,sans-Serif" font-size="10.00">#s_algorithmoName</text>
<text text-anchor="middle" x="113" y="-1377" font-family="Helvetica,sans-Serif" font-size="10.00">#s_gnuplotCoreStyles</text>
<text text-anchor="middle" x="113" y="-1366" font-family="Helvetica,sans-Serif" font-size="10.00">#_s_runTimeId</text>
</g>
<!-- Node18 -->
<g id="node11" class="node"><title>Node18</title>
<g id="a_node11"><a xlink:href="classinout_1_1_in_param_read_inst.html" target="_top" xlink:title="Input parameter for read instances.">
<polygon fill="white" stroke="black" points="354,-764.5 354,-1085.5 525,-1085.5 525,-764.5 354,-764.5"/>
<text text-anchor="start" x="362" y="-1073.5" font-family="Helvetica,sans-Serif" font-size="10.00">inout::InParamReadInst</text>
<text text-anchor="start" x="362" y="-1062.5" font-family="Helvetica,sans-Serif" font-size="10.00">&lt; T_FEATURE, T_INSTANCES</text>
<text text-anchor="middle" x="439.5" y="-1051.5" font-family="Helvetica,sans-Serif" font-size="10.00">_CLUSTER_K, T_CLUSTERIDX &gt;</text>
<polyline fill="none" stroke="black" points="354,-1044.5 525,-1044.5 "/>
<text text-anchor="start" x="362" y="-1032.5" font-family="Helvetica,sans-Serif" font-size="10.00"># _ui_idxCurrentFileInstance</text>
<text text-anchor="start" x="362" y="-1021.5" font-family="Helvetica,sans-Serif" font-size="10.00"># _enum_formatInstanceFile</text>
<text text-anchor="start" x="362" y="-1010.5" font-family="Helvetica,sans-Serif" font-size="10.00"># _b_haveHeaderFile</text>
<text text-anchor="start" x="362" y="-999.5" font-family="Helvetica,sans-Serif" font-size="10.00"># _ui_classInstanceColumn</text>
<text text-anchor="start" x="362" y="-988.5" font-family="Helvetica,sans-Serif" font-size="10.00"># _ui_clusterInstanceColumn</text>
<text text-anchor="start" x="362" y="-977.5" font-family="Helvetica,sans-Serif" font-size="10.00"># _ui_idInstanceColumn</text>
<text text-anchor="start" x="362" y="-966.5" font-family="Helvetica,sans-Serif" font-size="10.00"># _ui_instancesFrequencyColumn</text>
<text text-anchor="start" x="362" y="-955.5" font-family="Helvetica,sans-Serif" font-size="10.00"># _ui_idMultiInstanceColumn</text>
<text text-anchor="start" x="362" y="-944.5" font-family="Helvetica,sans-Serif" font-size="10.00"># _ui_classMultiInstColumn</text>
<text text-anchor="start" x="362" y="-933.5" font-family="Helvetica,sans-Serif" font-size="10.00"># _ui_numInstances</text>
<text text-anchor="start" x="362" y="-922.5" font-family="Helvetica,sans-Serif" font-size="10.00"># _ui_numDimensionsInstances</text>
<text text-anchor="start" x="362" y="-911.5" font-family="Helvetica,sans-Serif" font-size="10.00"># _ui_numInstancesTest</text>
<text text-anchor="start" x="362" y="-900.5" font-family="Helvetica,sans-Serif" font-size="10.00"># _b_printMulLine</text>
<polyline fill="none" stroke="black" points="354,-893.5 525,-893.5 "/>
<text text-anchor="start" x="362" y="-881.5" font-family="Helvetica,sans-Serif" font-size="10.00">+ InParamReadInst()</text>
<text text-anchor="start" x="362" y="-870.5" font-family="Helvetica,sans-Serif" font-size="10.00">+ InParamReadInst()</text>
<text text-anchor="start" x="362" y="-859.5" font-family="Helvetica,sans-Serif" font-size="10.00">+ ~InParamReadInst()</text>
<text text-anchor="start" x="362" y="-848.5" font-family="Helvetica,sans-Serif" font-size="10.00">+ clearVectorFilesInstance()</text>
<text text-anchor="start" x="362" y="-837.5" font-family="Helvetica,sans-Serif" font-size="10.00">+ getVectorFilesInstance()</text>
<text text-anchor="start" x="362" y="-826.5" font-family="Helvetica,sans-Serif" font-size="10.00">+ setVectorFilesInstance()</text>
<text text-anchor="start" x="362" y="-815.5" font-family="Helvetica,sans-Serif" font-size="10.00">+ getNumFilesInstance()</text>
<text text-anchor="start" x="362" y="-804.5" font-family="Helvetica,sans-Serif" font-size="10.00">+ setVectorFilesInstanceTest()</text>
<text text-anchor="start" x="362" y="-793.5" font-family="Helvetica,sans-Serif" font-size="10.00">+ getVectorFilesInstanceTest()</text>
<text text-anchor="start" x="362" y="-782.5" font-family="Helvetica,sans-Serif" font-size="10.00">+ getNumFilesInstanceTest()</text>
<text text-anchor="start" x="362" y="-771.5" font-family="Helvetica,sans-Serif" font-size="10.00">and 37 more...</text>
</a>
</g>
</g>
<!-- Node14&#45;&gt;Node18 -->
<g id="edge12" class="edge"><title>Node14&#45;&gt;Node18</title>
<path fill="none" stroke="#404040" d="M251.617,-1425.08C260.517,-1403.56 272.269,-1372.87 279.5,-1345 302.201,-1257.51 280.043,-1229.1 310.5,-1144 320.268,-1116.71 333.558,-1089.01 347.91,-1062.94"/>
<polygon fill="none" stroke="#404040" points="348.029,-1062.73 347.473,-1055.54 353.896,-1052.26 354.452,-1059.45 348.029,-1062.73"/>
<text text-anchor="middle" x="363" y="-1247.5" font-family="Helvetica,sans-Serif" font-size="10.00"> #_ps_selectAttributes</text>
<text text-anchor="middle" x="363" y="-1236.5" font-family="Helvetica,sans-Serif" font-size="10.00">#_s_separatorAttributes</text>
</g>
<!-- Node19 -->
<g id="node12" class="node"><title>Node19</title>
<g id="a_node12"><a xlink:title=" ">
<polygon fill="white" stroke="#bfbfbf" points="425,-1216 425,-1273 550,-1273 550,-1216 425,-1216"/>
<text text-anchor="middle" x="487.5" y="-1261" font-family="Helvetica,sans-Serif" font-size="10.00">std::vector&lt; std::string &gt;</text>
<polyline fill="none" stroke="#bfbfbf" points="425,-1254 550,-1254 "/>
<text text-anchor="middle" x="487.5" y="-1242" font-family="Helvetica,sans-Serif" font-size="10.00"> </text>
<polyline fill="none" stroke="#bfbfbf" points="425,-1235 550,-1235 "/>
<text text-anchor="middle" x="487.5" y="-1223" font-family="Helvetica,sans-Serif" font-size="10.00"> </text>
</a>
</g>
</g>
<!-- Node14&#45;&gt;Node19 -->
<g id="edge14" class="edge"><title>Node14&#45;&gt;Node19</title>
<path fill="none" stroke="#404040" d="M269.604,-1435.1C283.623,-1426.68 300.484,-1416.44 315.5,-1407 358.184,-1380.16 373.445,-1379.19 410.5,-1345 430.322,-1326.71 448.936,-1302.92 462.896,-1283.18"/>
<polygon fill="none" stroke="#404040" points="462.92,-1283.15 463.049,-1275.94 469.753,-1273.28 469.625,-1280.49 462.92,-1283.15"/>
<text text-anchor="middle" x="415" y="-1382.5" font-family="Helvetica,sans-Serif" font-size="10.00"> +elements</text>
</g>
<!-- Node15 -->
<g id="node8" class="node"><title>Node15</title>
<g id="a_node8"><a xlink:title="STL class.">
<polygon fill="white" stroke="#bfbfbf" points="192,-1530.5 192,-1598.5 287,-1598.5 287,-1530.5 192,-1530.5"/>
<text text-anchor="start" x="200" y="-1586.5" font-family="Helvetica,sans-Serif" font-size="10.00">std::basic_string&lt;</text>
<text text-anchor="middle" x="239.5" y="-1575.5" font-family="Helvetica,sans-Serif" font-size="10.00"> char &gt;</text>
<polyline fill="none" stroke="#bfbfbf" points="192,-1568.5 287,-1568.5 "/>
<text text-anchor="middle" x="239.5" y="-1556.5" font-family="Helvetica,sans-Serif" font-size="10.00"> </text>
<polyline fill="none" stroke="#bfbfbf" points="192,-1549.5 287,-1549.5 "/>
<text text-anchor="middle" x="239.5" y="-1537.5" font-family="Helvetica,sans-Serif" font-size="10.00"> </text>
</a>
</g>
</g>
<!-- Node15&#45;&gt;Node14 -->
<g id="edge7" class="edge"><title>Node15&#45;&gt;Node14</title>
<path fill="none" stroke="midnightblue" d="M239.5,-1520.06C239.5,-1507.51 239.5,-1494.15 239.5,-1482.83"/>
<polygon fill="none" stroke="midnightblue" points="236,-1520.36 239.5,-1530.36 243,-1520.36 236,-1520.36"/>
</g>
<!-- Node16 -->
<g id="node9" class="node"><title>Node16</title>
<g id="a_node9"><a xlink:href="classinout_1_1_in_param_vk.html" target="_top" xlink:title=" ">
<polygon fill="white" stroke="black" points="217.5,-394 217.5,-528 365.5,-528 365.5,-394 217.5,-394"/>
<text text-anchor="start" x="225.5" y="-516" font-family="Helvetica,sans-Serif" font-size="10.00">inout::InParamVk&lt; T</text>
<text text-anchor="middle" x="291.5" y="-505" font-family="Helvetica,sans-Serif" font-size="10.00">_CLUSTERIDX &gt;</text>
<polyline fill="none" stroke="black" points="217.5,-498 365.5,-498 "/>
<text text-anchor="middle" x="291.5" y="-486" font-family="Helvetica,sans-Serif" font-size="10.00"> </text>
<polyline fill="none" stroke="black" points="217.5,-479 365.5,-479 "/>
<text text-anchor="start" x="225.5" y="-467" font-family="Helvetica,sans-Serif" font-size="10.00">+ InParamVk()</text>
<text text-anchor="start" x="225.5" y="-456" font-family="Helvetica,sans-Serif" font-size="10.00">+ ~InParamVk()</text>
<text text-anchor="start" x="225.5" y="-445" font-family="Helvetica,sans-Serif" font-size="10.00">+ setNumClusterKMinimum()</text>
<text text-anchor="start" x="225.5" y="-434" font-family="Helvetica,sans-Serif" font-size="10.00">+ getNumClusterKMinimum()</text>
<text text-anchor="start" x="225.5" y="-423" font-family="Helvetica,sans-Serif" font-size="10.00">+ setNumClusterKMaximum()</text>
<text text-anchor="start" x="225.5" y="-412" font-family="Helvetica,sans-Serif" font-size="10.00">+ getNumClusterKMaximum()</text>
<text text-anchor="start" x="225.5" y="-401" font-family="Helvetica,sans-Serif" font-size="10.00">+ print()</text>
</a>
</g>
</g>
<!-- Node16&#45;&gt;Node9 -->
<g id="edge9" class="edge"><title>Node16&#45;&gt;Node9</title>
<path fill="none" stroke="midnightblue" d="M291.5,-383.449C291.5,-372.365 291.5,-361.142 291.5,-350.591"/>
<polygon fill="none" stroke="midnightblue" points="288,-383.566 291.5,-393.566 295,-383.566 288,-383.566"/>
</g>
<!-- Node17 -->
<g id="node10" class="node"><title>Node17</title>
<g id="a_node10"><a xlink:title=" ">
<polygon fill="white" stroke="#bfbfbf" points="238.5,-631 238.5,-688 330.5,-688 330.5,-631 238.5,-631"/>
<text text-anchor="middle" x="284.5" y="-676" font-family="Helvetica,sans-Serif" font-size="10.00">T_CLUSTERIDX</text>
<polyline fill="none" stroke="#bfbfbf" points="238.5,-669 330.5,-669 "/>
<text text-anchor="middle" x="284.5" y="-657" font-family="Helvetica,sans-Serif" font-size="10.00"> </text>
<polyline fill="none" stroke="#bfbfbf" points="238.5,-650 330.5,-650 "/>
<text text-anchor="middle" x="284.5" y="-638" font-family="Helvetica,sans-Serif" font-size="10.00"> </text>
</a>
</g>
</g>
<!-- Node17&#45;&gt;Node16 -->
<g id="edge10" class="edge"><title>Node17&#45;&gt;Node16</title>
<path fill="none" stroke="#404040" d="M284.327,-630.907C284.296,-609.4 284.482,-578.792 285.5,-552 285.641,-548.286 285.808,-544.487 285.994,-540.651"/>
<polygon fill="none" stroke="#404040" points="286.011,-540.314 282.335,-534.11 286.647,-528.33 290.324,-534.534 286.011,-540.314"/>
<text text-anchor="middle" x="355.5" y="-566" font-family="Helvetica,sans-Serif" font-size="10.00"> #_idxK_numClusterKMaximum</text>
<text text-anchor="middle" x="355.5" y="-555" font-family="Helvetica,sans-Serif" font-size="10.00">#_idxK_numClusterKMinimum</text>
</g>
<!-- Node18&#45;&gt;Node9 -->
<g id="edge11" class="edge"><title>Node18&#45;&gt;Node9</title>
<path fill="none" stroke="midnightblue" d="M451.535,-754.178C451.857,-643.212 437.448,-498.862 374.5,-388 367.149,-375.054 357.731,-362.367 347.894,-350.739"/>
<polygon fill="none" stroke="midnightblue" points="448.034,-754.447 451.463,-764.471 455.033,-754.496 448.034,-754.447"/>
</g>
<!-- Node19&#45;&gt;Node18 -->
<g id="edge13" class="edge"><title>Node19&#45;&gt;Node18</title>
<path fill="none" stroke="#404040" d="M483.324,-1215.88C479.17,-1188.4 472.425,-1143.78 465.458,-1097.7"/>
<polygon fill="none" stroke="#404040" points="465.43,-1097.51 460.578,-1092.18 463.636,-1085.65 468.488,-1090.98 465.43,-1097.51"/>
<text text-anchor="middle" x="535" y="-1118" font-family="Helvetica,sans-Serif" font-size="10.00"> #_vectorstr_filesInstance</text>
<text text-anchor="middle" x="535" y="-1107" font-family="Helvetica,sans-Serif" font-size="10.00">#_vectorstr_filesInstanceTest</text>
</g>
<!-- Node20 -->
<g id="node13" class="node"><title>Node20</title>
<g id="a_node13"><a xlink:title="STL class.">
<polygon fill="white" stroke="#bfbfbf" points="443,-1425.5 443,-1482.5 532,-1482.5 532,-1425.5 443,-1425.5"/>
<text text-anchor="middle" x="487.5" y="-1470.5" font-family="Helvetica,sans-Serif" font-size="10.00">std::vector&lt; T &gt;</text>
<polyline fill="none" stroke="#bfbfbf" points="443,-1463.5 532,-1463.5 "/>
<text text-anchor="middle" x="487.5" y="-1451.5" font-family="Helvetica,sans-Serif" font-size="10.00"> </text>
<polyline fill="none" stroke="#bfbfbf" points="443,-1444.5 532,-1444.5 "/>
<text text-anchor="middle" x="487.5" y="-1432.5" font-family="Helvetica,sans-Serif" font-size="10.00"> </text>
</a>
</g>
</g>
<!-- Node20&#45;&gt;Node19 -->
<g id="edge15" class="edge"><title>Node20&#45;&gt;Node19</title>
<path fill="none" stroke="orange" d="M487.5,-1415.31C487.5,-1374.3 487.5,-1309.74 487.5,-1273.17"/>
<polygon fill="orange" stroke="orange" points="484,-1415.45 487.5,-1425.45 491,-1415.45 484,-1415.45"/>
<text text-anchor="middle" x="520" y="-1382.5" font-family="Helvetica,sans-Serif" font-size="10.00"> &lt; std::string &gt;</text>
</g>
<!-- Node21 -->
<g id="node14" class="node"><title>Node21</title>
<g id="a_node14"><a xlink:title=" ">
<polygon fill="white" stroke="#bfbfbf" points="473,-1536 473,-1593 502,-1593 502,-1536 473,-1536"/>
<text text-anchor="middle" x="487.5" y="-1581" font-family="Helvetica,sans-Serif" font-size="10.00">T</text>
<polyline fill="none" stroke="#bfbfbf" points="473,-1574 502,-1574 "/>
<text text-anchor="middle" x="487.5" y="-1562" font-family="Helvetica,sans-Serif" font-size="10.00"> </text>
<polyline fill="none" stroke="#bfbfbf" points="473,-1555 502,-1555 "/>
<text text-anchor="middle" x="487.5" y="-1543" font-family="Helvetica,sans-Serif" font-size="10.00"> </text>
</a>
</g>
</g>
<!-- Node21&#45;&gt;Node20 -->
<g id="edge16" class="edge"><title>Node21&#45;&gt;Node20</title>
<path fill="none" stroke="#404040" d="M487.5,-1535.84C487.5,-1523.34 487.5,-1508.34 487.5,-1494.68"/>
<polygon fill="none" stroke="#404040" points="487.5,-1494.61 483.5,-1488.61 487.5,-1482.61 491.5,-1488.61 487.5,-1494.61"/>
<text text-anchor="middle" x="513" y="-1504" font-family="Helvetica,sans-Serif" font-size="10.00"> +elements</text>
</g>
</g>
</svg>
