<?xml version="1.0" encoding="UTF-8" standalone="no"?>
<!DOCTYPE svg PUBLIC "-//W3C//DTD SVG 1.1//EN"
 "http://www.w3.org/Graphics/SVG/1.1/DTD/svg11.dtd">
<!-- Generated by graphviz version 2.38.0 (20140413.2041)
 -->
<!-- Title: inout::InParamPAM::print Pages: 1 -->
<svg width="633pt" height="298pt"
 viewBox="0.00 0.00 633.00 297.50" xmlns="http://www.w3.org/2000/svg" xmlns:xlink="http://www.w3.org/1999/xlink">
<g id="graph0" class="graph" transform="scale(1 1) rotate(0) translate(4 293.5)">
<title>inout::InParamPAM::print</title>
<polygon fill="white" stroke="none" points="-4,4 -4,-293.5 629,-293.5 629,4 -4,4"/>
<!-- Node2 -->
<g id="node1" class="node"><title>Node2</title>
<polygon fill="#bfbfbf" stroke="black" points="0,-220.5 0,-250.5 109,-250.5 109,-220.5 0,-220.5"/>
<text text-anchor="start" x="8" y="-238.5" font-family="Helvetica,sans-Serif" font-size="10.00">inout::InParamPAM::</text>
<text text-anchor="middle" x="54.5" y="-227.5" font-family="Helvetica,sans-Serif" font-size="10.00">print</text>
</g>
<!-- Node3 -->
<g id="node2" class="node"><title>Node3</title>
<g id="a_node2"><a xlink:href="classinout_1_1_in_param_fk.html#a6e802ceda1aaf74e47470fff3eaa8b64" target="_top" xlink:title="inout::InParamFk::print">
<polygon fill="white" stroke="black" points="150,-270 150,-289 266,-289 266,-270 150,-270"/>
<text text-anchor="middle" x="208" y="-277" font-family="Helvetica,sans-Serif" font-size="10.00">inout::InParamFk::print</text>
</a>
</g>
</g>
<!-- Node2&#45;&gt;Node3 -->
<g id="edge1" class="edge"><title>Node2&#45;&gt;Node3</title>
<path fill="none" stroke="midnightblue" d="M107.214,-250.519C125.701,-255.888 146.319,-261.877 163.993,-267.01"/>
<polygon fill="midnightblue" stroke="midnightblue" points="163.441,-270.494 174.02,-269.922 165.393,-263.771 163.441,-270.494"/>
</g>
<!-- Node4 -->
<g id="node3" class="node"><title>Node4</title>
<g id="a_node3"><a xlink:href="classinout_1_1_in_param_clustering_max_iter.html#a4f2b051fd8209f5658de223f35ccbcf6" target="_top" xlink:title="inout::InParamClustering\lMaxIter::print">
<polygon fill="white" stroke="black" points="145,-220.5 145,-250.5 271,-250.5 271,-220.5 145,-220.5"/>
<text text-anchor="start" x="153" y="-238.5" font-family="Helvetica,sans-Serif" font-size="10.00">inout::InParamClustering</text>
<text text-anchor="middle" x="208" y="-227.5" font-family="Helvetica,sans-Serif" font-size="10.00">MaxIter::print</text>
</a>
</g>
</g>
<!-- Node2&#45;&gt;Node4 -->
<g id="edge2" class="edge"><title>Node2&#45;&gt;Node4</title>
<path fill="none" stroke="midnightblue" d="M109.34,-235.5C117.592,-235.5 126.224,-235.5 134.796,-235.5"/>
<polygon fill="midnightblue" stroke="midnightblue" points="134.804,-239 144.804,-235.5 134.804,-232 134.804,-239"/>
</g>
<!-- Node7 -->
<g id="node6" class="node"><title>Node7</title>
<g id="a_node6"><a xlink:href="classinout_1_1_in_param_read_inst.html#af8511d4844e09033e170fadca2e3abd2" target="_top" xlink:title="inout::InParamReadInst\l::print">
<polygon fill="white" stroke="black" points="147.5,-122.5 147.5,-152.5 268.5,-152.5 268.5,-122.5 147.5,-122.5"/>
<text text-anchor="start" x="155.5" y="-140.5" font-family="Helvetica,sans-Serif" font-size="10.00">inout::InParamReadInst</text>
<text text-anchor="middle" x="208" y="-129.5" font-family="Helvetica,sans-Serif" font-size="10.00">::print</text>
</a>
</g>
</g>
<!-- Node2&#45;&gt;Node7 -->
<g id="edge5" class="edge"><title>Node2&#45;&gt;Node7</title>
<path fill="none" stroke="midnightblue" d="M78.8399,-220.402C104.64,-203.713 146.352,-176.731 175.145,-158.106"/>
<polygon fill="midnightblue" stroke="midnightblue" points="177.138,-160.985 183.634,-152.615 173.336,-155.108 177.138,-160.985"/>
</g>
<!-- Node5 -->
<g id="node4" class="node"><title>Node5</title>
<g id="a_node4"><a xlink:href="classinout_1_1_in_param_clustering.html#a8c6c0fafcd08e2de1d2f336ca30894d9" target="_top" xlink:title="inout::InParamClustering\l::print">
<polygon fill="white" stroke="black" points="320.5,-245.5 320.5,-275.5 446.5,-275.5 446.5,-245.5 320.5,-245.5"/>
<text text-anchor="start" x="328.5" y="-263.5" font-family="Helvetica,sans-Serif" font-size="10.00">inout::InParamClustering</text>
<text text-anchor="middle" x="383.5" y="-252.5" font-family="Helvetica,sans-Serif" font-size="10.00">::print</text>
</a>
</g>
</g>
<!-- Node4&#45;&gt;Node5 -->
<g id="edge3" class="edge"><title>Node4&#45;&gt;Node5</title>
<path fill="none" stroke="midnightblue" d="M271.147,-244.455C283.932,-246.297 297.494,-248.251 310.591,-250.138"/>
<polygon fill="midnightblue" stroke="midnightblue" points="310.098,-253.604 320.495,-251.566 311.096,-246.675 310.098,-253.604"/>
</g>
<!-- Node6 -->
<g id="node5" class="node"><title>Node6</title>
<g id="a_node5"><a xlink:href="classinout_1_1_in_param_algorithmo.html#a97ec15acf20ba619b4538d193125a082" target="_top" xlink:title="inout::InParamAlgorithmo\l::print">
<polygon fill="white" stroke="black" points="496,-245.5 496,-275.5 625,-275.5 625,-245.5 496,-245.5"/>
<text text-anchor="start" x="504" y="-263.5" font-family="Helvetica,sans-Serif" font-size="10.00">inout::InParamAlgorithmo</text>
<text text-anchor="middle" x="560.5" y="-252.5" font-family="Helvetica,sans-Serif" font-size="10.00">::print</text>
</a>
</g>
</g>
<!-- Node5&#45;&gt;Node6 -->
<g id="edge4" class="edge"><title>Node5&#45;&gt;Node6</title>
<path fill="none" stroke="midnightblue" d="M446.691,-260.5C459.249,-260.5 472.568,-260.5 485.486,-260.5"/>
<polygon fill="midnightblue" stroke="midnightblue" points="485.737,-264 495.737,-260.5 485.737,-257 485.737,-264"/>
</g>
<!-- Node8 -->
<g id="node7" class="node"><title>Node8</title>
<g id="a_node7"><a xlink:href="classinout_1_1_in_param_read_inst.html#a797250bacc8d887b96fa19247c5dd13f" target="_top" xlink:title="inout::InParamReadInst\l::getCurrentFileInstance">
<polygon fill="white" stroke="black" points="322,-196.5 322,-226.5 445,-226.5 445,-196.5 322,-196.5"/>
<text text-anchor="start" x="330" y="-214.5" font-family="Helvetica,sans-Serif" font-size="10.00">inout::InParamReadInst</text>
<text text-anchor="middle" x="383.5" y="-203.5" font-family="Helvetica,sans-Serif" font-size="10.00">::getCurrentFileInstance</text>
</a>
</g>
</g>
<!-- Node7&#45;&gt;Node8 -->
<g id="edge6" class="edge"><title>Node7&#45;&gt;Node8</title>
<path fill="none" stroke="midnightblue" d="M236.385,-152.524C255.77,-162.827 282.562,-176.406 307,-186.5 312.396,-188.729 318.069,-190.903 323.78,-192.981"/>
<polygon fill="midnightblue" stroke="midnightblue" points="322.791,-196.343 333.386,-196.377 325.125,-189.744 322.791,-196.343"/>
</g>
<!-- Node9 -->
<g id="node8" class="node"><title>Node9</title>
<g id="a_node8"><a xlink:href="classinout_1_1_in_param_read_inst.html#a2bfdb61b53cf2421d4d7b77f1e117957" target="_top" xlink:title="inout::InParamReadInst\l::getNumInstances">
<polygon fill="white" stroke="black" points="323,-147.5 323,-177.5 444,-177.5 444,-147.5 323,-147.5"/>
<text text-anchor="start" x="331" y="-165.5" font-family="Helvetica,sans-Serif" font-size="10.00">inout::InParamReadInst</text>
<text text-anchor="middle" x="383.5" y="-154.5" font-family="Helvetica,sans-Serif" font-size="10.00">::getNumInstances</text>
</a>
</g>
</g>
<!-- Node7&#45;&gt;Node9 -->
<g id="edge7" class="edge"><title>Node7&#45;&gt;Node9</title>
<path fill="none" stroke="midnightblue" d="M268.709,-146.104C282.965,-148.158 298.304,-150.368 312.96,-152.48"/>
<polygon fill="midnightblue" stroke="midnightblue" points="312.578,-155.961 322.975,-153.923 313.577,-149.032 312.578,-155.961"/>
</g>
<!-- Node10 -->
<g id="node9" class="node"><title>Node10</title>
<g id="a_node9"><a xlink:href="classinout_1_1_in_param_read_inst.html#a175c4744ce41558415b2dc3555701edd" target="_top" xlink:title="inout::InParamReadInst\l::getNumDimensionsInstances">
<polygon fill="white" stroke="black" points="307,-98.5 307,-128.5 460,-128.5 460,-98.5 307,-98.5"/>
<text text-anchor="start" x="315" y="-116.5" font-family="Helvetica,sans-Serif" font-size="10.00">inout::InParamReadInst</text>
<text text-anchor="middle" x="383.5" y="-105.5" font-family="Helvetica,sans-Serif" font-size="10.00">::getNumDimensionsInstances</text>
</a>
</g>
</g>
<!-- Node7&#45;&gt;Node10 -->
<g id="edge8" class="edge"><title>Node7&#45;&gt;Node10</title>
<path fill="none" stroke="midnightblue" d="M268.709,-129.241C277.707,-127.996 287.136,-126.692 296.553,-125.389"/>
<polygon fill="midnightblue" stroke="midnightblue" points="297.319,-128.816 306.745,-123.979 296.36,-121.882 297.319,-128.816"/>
</g>
<!-- Node11 -->
<g id="node10" class="node"><title>Node11</title>
<g id="a_node10"><a xlink:href="classinout_1_1_in_param_read_inst.html#ab91dbd838ea608bd3bf963bb97398747" target="_top" xlink:title="inout::InParamReadInst\l::getCurrentFileInstanceTest">
<polygon fill="white" stroke="black" points="311.5,-49.5 311.5,-79.5 455.5,-79.5 455.5,-49.5 311.5,-49.5"/>
<text text-anchor="start" x="319.5" y="-67.5" font-family="Helvetica,sans-Serif" font-size="10.00">inout::InParamReadInst</text>
<text text-anchor="middle" x="383.5" y="-56.5" font-family="Helvetica,sans-Serif" font-size="10.00">::getCurrentFileInstanceTest</text>
</a>
</g>
</g>
<!-- Node7&#45;&gt;Node11 -->
<g id="edge9" class="edge"><title>Node7&#45;&gt;Node11</title>
<path fill="none" stroke="midnightblue" d="M236.348,-122.384C255.715,-112.039 282.502,-98.4475 307,-88.5 311.737,-86.5765 316.69,-84.7056 321.697,-82.9126"/>
<polygon fill="midnightblue" stroke="midnightblue" points="323.046,-86.1493 331.348,-79.5671 320.753,-79.5354 323.046,-86.1493"/>
</g>
<!-- Node12 -->
<g id="node11" class="node"><title>Node12</title>
<g id="a_node11"><a xlink:href="classinout_1_1_in_param_read_inst.html#a6539b0e38e129a23eae4cb506e4c08f1" target="_top" xlink:title="inout::InParamReadInst\l::getNumInstancesTest">
<polygon fill="white" stroke="black" points="323,-0.5 323,-30.5 444,-30.5 444,-0.5 323,-0.5"/>
<text text-anchor="start" x="331" y="-18.5" font-family="Helvetica,sans-Serif" font-size="10.00">inout::InParamReadInst</text>
<text text-anchor="middle" x="383.5" y="-7.5" font-family="Helvetica,sans-Serif" font-size="10.00">::getNumInstancesTest</text>
</a>
</g>
</g>
<!-- Node7&#45;&gt;Node12 -->
<g id="edge10" class="edge"><title>Node7&#45;&gt;Node12</title>
<path fill="none" stroke="midnightblue" d="M220.278,-122.311C236.953,-100.88 270.205,-61.8866 307,-39.5 309.761,-37.82 312.652,-36.2462 315.625,-34.7732"/>
<polygon fill="midnightblue" stroke="midnightblue" points="317.072,-37.96 324.743,-30.6516 314.189,-31.5813 317.072,-37.96"/>
</g>
</g>
</svg>
