<?xml version="1.0" encoding="UTF-8" standalone="no"?>
<!DOCTYPE svg PUBLIC "-//W3C//DTD SVG 1.1//EN"
 "http://www.w3.org/Graphics/SVG/1.1/DTD/svg11.dtd">
<!-- Generated by graphviz version 2.38.0 (20140413.2041)
 -->
<!-- Title: mat::BitMatrix::copyAligned Pages: 1 -->
<!--zoomable 218 -->
<svg id="main" version="1.1" xmlns="http://www.w3.org/2000/svg" xmlns:xlink="http://www.w3.org/1999/xlink" xml:space="preserve" onload="init(evt)">
<style type="text/css"><![CDATA[
.edge:hover path { stroke: red; }
.edge:hover polygon { stroke: red; fill: red; }
]]></style>
<script type="text/javascript"><![CDATA[
var edges = document.getElementsByTagName('g');
if (edges && edges.length) {
  for (var i=0;i<edges.length;i++) {
    if (edges[i].id.substr(0,4)=='edge') {
      edges[i].setAttribute('class','edge');
    }
  }
}
]]></script>
        <defs>
                <circle id="rim" cx="0" cy="0" r="7"/>
                <circle id="rim2" cx="0" cy="0" r="3.5"/>
                <g id="zoomPlus">
                        <use xlink:href="#rim" fill="#404040">
                                <set attributeName="fill" to="#808080" begin="zoomplus.mouseover" end="zoomplus.mouseout"/>
                        </use>
                        <path d="M-4,0h8M0,-4v8" fill="none" stroke="white" stroke-width="1.5" pointer-events="none"/>
                </g>
                <g id="zoomMin">
                        <use xlink:href="#rim" fill="#404040">
                                <set attributeName="fill" to="#808080" begin="zoomminus.mouseover" end="zoomminus.mouseout"/>
                        </use>
                        <path d="M-4,0h8" fill="none" stroke="white" stroke-width="1.5" pointer-events="none"/>
                </g>
                <g id="dirArrow">
                        <path fill="none" stroke="white" stroke-width="1.5" d="M0,-3.0v7 M-2.5,-0.5L0,-3.0L2.5,-0.5"/>
                </g>
               <g id="resetDef">
                       <use xlink:href="#rim2" fill="#404040">
                               <set attributeName="fill" to="#808080" begin="reset.mouseover" end="reset.mouseout"/>
                       </use>
               </g>
        </defs>

<script type="text/javascript">
var viewWidth = 529;
var viewHeight = 218;
var sectionId = 'dynsection-4';
</script>
<script xlink:href="svgpan.js"/>
<svg id="graph" class="graph">
<g id="viewport">
<title>mat::BitMatrix::copyAligned</title>
<polygon fill="white" stroke="none" points="-4,4 -4,-214 525,-214 525,4 -4,4"/>
<!-- Node12 -->
<g id="node1" class="node"><title>Node12</title>
<polygon fill="#bfbfbf" stroke="black" points="0,-76.5 0,-95.5 140,-95.5 140,-76.5 0,-76.5"/>
<text text-anchor="middle" x="70" y="-83.5" font-family="Helvetica,sans-Serif" font-size="10.00">mat::BitMatrix::copyAligned</text>
</g>
<!-- Node13 -->
<g id="node2" class="node"><title>Node13</title>
<g id="a_node2"><a xlink:href="classds_1_1_bit_container.html#acf7b867d95ea6ee5083cb8d0ce404a43" target="_top" xlink:title="ds::BitContainer::copyAligned">
<polygon fill="white" stroke="black" points="176,-152.5 176,-171.5 327,-171.5 327,-152.5 176,-152.5"/>
<text text-anchor="middle" x="251.5" y="-159.5" font-family="Helvetica,sans-Serif" font-size="10.00">ds::BitContainer::copyAligned</text>
</a>
</g>
</g>
<!-- Node12&#45;&gt;Node13 -->
<g id="edge1" class="edge"><title>Node12&#45;&gt;Node13</title>
<path fill="none" stroke="midnightblue" d="M88.4672,-95.6511C109.012,-106.766 144.336,-125.142 176,-138 186.018,-142.068 197.006,-145.926 207.393,-149.311"/>
<polygon fill="midnightblue" stroke="midnightblue" points="206.525,-152.708 217.116,-152.404 208.647,-146.037 206.525,-152.708"/>
</g>
<!-- Node16 -->
<g id="node5" class="node"><title>Node16</title>
<g id="a_node5"><a xlink:href="classmat_1_1_bit_matrix.html#ae23601eca8a5adfbed3749b163f0d5d6" target="_top" xlink:title="mat::BitMatrix::getNumRows">
<polygon fill="white" stroke="black" points="370.5,-114.5 370.5,-133.5 513.5,-133.5 513.5,-114.5 370.5,-114.5"/>
<text text-anchor="middle" x="442" y="-121.5" font-family="Helvetica,sans-Serif" font-size="10.00">mat::BitMatrix::getNumRows</text>
</a>
</g>
</g>
<!-- Node12&#45;&gt;Node16 -->
<g id="edge4" class="edge"><title>Node12&#45;&gt;Node16</title>
<path fill="none" stroke="midnightblue" d="M117.615,-95.545C135.77,-98.9706 156.793,-102.581 176,-105 237.566,-112.755 307.608,-117.606 360.215,-120.464"/>
<polygon fill="midnightblue" stroke="midnightblue" points="360.325,-123.975 370.496,-121.009 360.696,-116.985 360.325,-123.975"/>
</g>
<!-- Node17 -->
<g id="node6" class="node"><title>Node17</title>
<g id="a_node6"><a xlink:href="classmat_1_1_bit_matrix.html#a5607bb84d71c58751390be62e798dd11" target="_top" xlink:title="mat::BitMatrix::getRow">
<polygon fill="white" stroke="black" points="383,-38.5 383,-57.5 501,-57.5 501,-38.5 383,-38.5"/>
<text text-anchor="middle" x="442" y="-45.5" font-family="Helvetica,sans-Serif" font-size="10.00">mat::BitMatrix::getRow</text>
</a>
</g>
</g>
<!-- Node12&#45;&gt;Node17 -->
<g id="edge5" class="edge"><title>Node12&#45;&gt;Node17</title>
<path fill="none" stroke="midnightblue" d="M117.615,-76.455C135.77,-73.0294 156.793,-69.4192 176,-67 242.639,-58.6065 319.207,-53.6143 372.848,-50.8696"/>
<polygon fill="midnightblue" stroke="midnightblue" points="373.112,-54.3609 382.925,-50.3667 372.763,-47.3696 373.112,-54.3609"/>
</g>
<!-- Node18 -->
<g id="node7" class="node"><title>Node18</title>
<g id="a_node7"><a xlink:href="classmat_1_1_bit_matrix.html#ab66a697bd20fd702cb32494da920b1af" target="_top" xlink:title="mat::BitMatrix::print">
<polygon fill="white" stroke="black" points="201,-76.5 201,-95.5 302,-95.5 302,-76.5 201,-76.5"/>
<text text-anchor="middle" x="251.5" y="-83.5" font-family="Helvetica,sans-Serif" font-size="10.00">mat::BitMatrix::print</text>
</a>
</g>
</g>
<!-- Node12&#45;&gt;Node18 -->
<g id="edge6" class="edge"><title>Node12&#45;&gt;Node18</title>
<path fill="none" stroke="midnightblue" d="M140.143,-86C156.751,-86 174.354,-86 190.507,-86"/>
<polygon fill="midnightblue" stroke="midnightblue" points="190.888,-89.5001 200.888,-86 190.888,-82.5001 190.888,-89.5001"/>
</g>
<!-- Node20 -->
<g id="node9" class="node"><title>Node20</title>
<g id="a_node9"><a xlink:href="classds_1_1_bit_container.html#a8c05ab649dca2fc2c0e62aba6e24d7a9" target="_top" xlink:title="ds::BitContainer::setArray">
<polygon fill="white" stroke="black" points="185.5,-0.5 185.5,-19.5 317.5,-19.5 317.5,-0.5 185.5,-0.5"/>
<text text-anchor="middle" x="251.5" y="-7.5" font-family="Helvetica,sans-Serif" font-size="10.00">ds::BitContainer::setArray</text>
</a>
</g>
</g>
<!-- Node12&#45;&gt;Node20 -->
<g id="edge10" class="edge"><title>Node12&#45;&gt;Node20</title>
<path fill="none" stroke="midnightblue" d="M88.4672,-76.3489C109.012,-65.2345 144.336,-46.8581 176,-34 186.018,-29.9319 197.006,-26.074 207.393,-22.6887"/>
<polygon fill="midnightblue" stroke="midnightblue" points="208.647,-25.9626 217.116,-19.5964 206.525,-19.2919 208.647,-25.9626"/>
</g>
<!-- Node14 -->
<g id="node3" class="node"><title>Node14</title>
<g id="a_node3"><a xlink:href="classds_1_1_bit_container.html#ac411be8a6a028077107ab9c7a60b5546" target="_top" xlink:title="ds::BitContainer::getBit">
<polygon fill="white" stroke="black" points="382,-152.5 382,-171.5 502,-171.5 502,-152.5 382,-152.5"/>
<text text-anchor="middle" x="442" y="-159.5" font-family="Helvetica,sans-Serif" font-size="10.00">ds::BitContainer::getBit</text>
</a>
</g>
</g>
<!-- Node13&#45;&gt;Node14 -->
<g id="edge2" class="edge"><title>Node13&#45;&gt;Node14</title>
<path fill="none" stroke="midnightblue" d="M327,-162C341.657,-162 356.982,-162 371.468,-162"/>
<polygon fill="midnightblue" stroke="midnightblue" points="371.846,-165.5 381.846,-162 371.846,-158.5 371.846,-165.5"/>
</g>
<!-- Node15 -->
<g id="node4" class="node"><title>Node15</title>
<g id="a_node4"><a xlink:href="classds_1_1_bit_container.html#addd9b30d11f1d2f871337a05c9cc65b6" target="_top" xlink:title="ds::BitContainer::print">
<polygon fill="white" stroke="black" points="385.5,-190.5 385.5,-209.5 498.5,-209.5 498.5,-190.5 385.5,-190.5"/>
<text text-anchor="middle" x="442" y="-197.5" font-family="Helvetica,sans-Serif" font-size="10.00">ds::BitContainer::print</text>
</a>
</g>
</g>
<!-- Node13&#45;&gt;Node15 -->
<g id="edge3" class="edge"><title>Node13&#45;&gt;Node15</title>
<path fill="none" stroke="midnightblue" d="M300.067,-171.589C325.501,-176.716 357.005,-183.067 383.771,-188.463"/>
<polygon fill="midnightblue" stroke="midnightblue" points="383.281,-191.935 393.776,-190.48 384.664,-185.073 383.281,-191.935"/>
</g>
<!-- Node18&#45;&gt;Node16 -->
<g id="edge8" class="edge"><title>Node18&#45;&gt;Node16</title>
<path fill="none" stroke="midnightblue" d="M300.067,-95.589C325.501,-100.716 357.005,-107.067 383.771,-112.463"/>
<polygon fill="midnightblue" stroke="midnightblue" points="383.281,-115.935 393.776,-114.48 384.664,-109.073 383.281,-115.935"/>
</g>
<!-- Node18&#45;&gt;Node17 -->
<g id="edge9" class="edge"><title>Node18&#45;&gt;Node17</title>
<path fill="none" stroke="midnightblue" d="M300.067,-76.411C325.501,-71.2835 357.005,-64.9328 383.771,-59.5368"/>
<polygon fill="midnightblue" stroke="midnightblue" points="384.664,-62.9273 393.776,-57.5201 383.281,-56.0653 384.664,-62.9273"/>
</g>
<!-- Node19 -->
<g id="node8" class="node"><title>Node19</title>
<g id="a_node8"><a xlink:href="classmat_1_1_bit_matrix.html#acb0438a8816d82379fab71120540fcd1" target="_top" xlink:title="mat::BitMatrix::getNumColumns">
<polygon fill="white" stroke="black" points="363,-76.5 363,-95.5 521,-95.5 521,-76.5 363,-76.5"/>
<text text-anchor="middle" x="442" y="-83.5" font-family="Helvetica,sans-Serif" font-size="10.00">mat::BitMatrix::getNumColumns</text>
</a>
</g>
</g>
<!-- Node18&#45;&gt;Node19 -->
<g id="edge7" class="edge"><title>Node18&#45;&gt;Node19</title>
<path fill="none" stroke="midnightblue" d="M302.026,-86C317.619,-86 335.337,-86 352.779,-86"/>
<polygon fill="midnightblue" stroke="midnightblue" points="352.999,-89.5001 362.999,-86 352.999,-82.5001 352.999,-89.5001"/>
</g>
</g>
</svg>
        <g id="navigator" transform="translate(0 0)" fill="#404254">
                <rect fill="#f2f5e9" fill-opacity="0.5" stroke="#606060" stroke-width=".5" x="0" y="0" width="60" height="60"/>
                <use id="zoomplus" xlink:href="#zoomPlus" x="17" y="9" onmousedown="handleZoom(evt,'in')"/>
                <use id="zoomminus" xlink:href="#zoomMin" x="42" y="9" onmousedown="handleZoom(evt,'out')"/>
                <use id="reset" xlink:href="#resetDef" x="30" y="36" onmousedown="handleReset()"/>
                <g id="arrowUp" xlink:href="#dirArrow" transform="translate(30 24)" onmousedown="handlePan(0,-1)">
                  <use xlink:href="#rim" fill="#404040">
                        <set attributeName="fill" to="#808080" begin="arrowUp.mouseover" end="arrowUp.mouseout"/>
                  </use>
                  <path fill="none" stroke="white" stroke-width="1.5" d="M0,-3.0v7 M-2.5,-0.5L0,-3.0L2.5,-0.5"/>
                </g>
                <g id="arrowRight" xlink:href="#dirArrow" transform="rotate(90) translate(36 -43)" onmousedown="handlePan(1,0)">
                  <use xlink:href="#rim" fill="#404040">
                        <set attributeName="fill" to="#808080" begin="arrowRight.mouseover" end="arrowRight.mouseout"/>
                  </use>
                  <path fill="none" stroke="white" stroke-width="1.5" d="M0,-3.0v7 M-2.5,-0.5L0,-3.0L2.5,-0.5"/>
                </g>
                <g id="arrowDown" xlink:href="#dirArrow" transform="rotate(180) translate(-30 -48)" onmousedown="handlePan(0,1)">
                  <use xlink:href="#rim" fill="#404040">
                        <set attributeName="fill" to="#808080" begin="arrowDown.mouseover" end="arrowDown.mouseout"/>
                  </use>
                  <path fill="none" stroke="white" stroke-width="1.5" d="M0,-3.0v7 M-2.5,-0.5L0,-3.0L2.5,-0.5"/>
                </g>
                <g id="arrowLeft" xlink:href="#dirArrow" transform="rotate(270) translate(-36 17)" onmousedown="handlePan(-1,0)">
                  <use xlink:href="#rim" fill="#404040">
                        <set attributeName="fill" to="#808080" begin="arrowLeft.mouseover" end="arrowLeft.mouseout"/>
                  </use>
                  <path fill="none" stroke="white" stroke-width="1.5" d="M0,-3.0v7 M-2.5,-0.5L0,-3.0L2.5,-0.5"/>
                </g>
        </g>
        <svg viewBox="0 0 15 15" width="100%" height="30px" preserveAspectRatio="xMaxYMin meet">
         <g id="arrow_out" transform="scale(0.3 0.3)">
          <a xlink:href="classmat_1_1_bit_matrix_aaa0899f4925f797ed21c74828cb5a36e_cgraph_org.svg" target="_base">
           <rect id="button" ry="5" rx="5" y="6" x="6" height="38" width="38"
                fill="#f2f5e9" fill-opacity="0.5" stroke="#606060" stroke-width="1.0"/>
           <path id="arrow"
             d="M 11.500037,31.436501 C 11.940474,20.09759 22.043105,11.32322 32.158766,21.979434 L 37.068811,17.246167 C 37.068811,17.246167 37.088388,32 37.088388,32 L 22.160133,31.978069 C 22.160133,31.978069 26.997745,27.140456 26.997745,27.140456 C 18.528582,18.264221 13.291696,25.230495 11.500037,31.436501 z"
             style="fill:#404040;"/>
          </a>
         </g>
        </svg>
</svg>
