<?xml version="1.0" encoding="UTF-8" standalone="no"?>
<!DOCTYPE svg PUBLIC "-//W3C//DTD SVG 1.1//EN"
 "http://www.w3.org/Graphics/SVG/1.1/DTD/svg11.dtd">
<!-- Generated by graphviz version 2.38.0 (20140413.2041)
 -->
<!-- Title: ds::PartitionLinkedNumInst::operator= Pages: 1 -->
<svg width="1227pt" height="78pt"
 viewBox="0.00 0.00 1227.00 77.50" xmlns="http://www.w3.org/2000/svg" xmlns:xlink="http://www.w3.org/1999/xlink">
<g id="graph0" class="graph" transform="scale(1 1) rotate(0) translate(4 73.5)">
<title>ds::PartitionLinkedNumInst::operator=</title>
<polygon fill="white" stroke="none" points="-4,4 -4,-73.5 1223,-73.5 1223,4 -4,4"/>
<!-- Node68 -->
<g id="node1" class="node"><title>Node68</title>
<polygon fill="#bfbfbf" stroke="black" points="0,-22.5 0,-52.5 135,-52.5 135,-22.5 0,-22.5"/>
<text text-anchor="start" x="8" y="-40.5" font-family="Helvetica,sans-Serif" font-size="10.00">ds::PartitionLinkedNumInst</text>
<text text-anchor="middle" x="67.5" y="-29.5" font-family="Helvetica,sans-Serif" font-size="10.00">::operator=</text>
</g>
<!-- Node69 -->
<g id="node2" class="node"><title>Node69</title>
<g id="a_node2"><a xlink:href="classds_1_1_partition_linked.html#a0e5c64adbfb91af71f1a9d79344c9981" target="_top" xlink:title="ds::PartitionLinked\l::operator=">
<polygon fill="white" stroke="black" points="171,-22.5 171,-52.5 271,-52.5 271,-22.5 171,-22.5"/>
<text text-anchor="start" x="179" y="-40.5" font-family="Helvetica,sans-Serif" font-size="10.00">ds::PartitionLinked</text>
<text text-anchor="middle" x="221" y="-29.5" font-family="Helvetica,sans-Serif" font-size="10.00">::operator=</text>
</a>
</g>
</g>
<!-- Node68&#45;&gt;Node69 -->
<g id="edge1" class="edge"><title>Node68&#45;&gt;Node69</title>
<path fill="none" stroke="midnightblue" d="M135.391,-37.5C143.751,-37.5 152.257,-37.5 160.495,-37.5"/>
<polygon fill="midnightblue" stroke="midnightblue" points="160.753,-41.0001 170.753,-37.5 160.753,-34.0001 160.753,-41.0001"/>
</g>
<!-- Node70 -->
<g id="node3" class="node"><title>Node70</title>
<g id="a_node3"><a xlink:href="namespaceinterfacesse.html#a925f44ed84d40e9af5050fa0e1373396" target="_top" xlink:title="copy array aoarrayt_x in aoarrayt_y of type T ">
<polygon fill="white" stroke="black" points="307.5,-50 307.5,-69 406.5,-69 406.5,-50 307.5,-50"/>
<text text-anchor="middle" x="357" y="-57" font-family="Helvetica,sans-Serif" font-size="10.00">interfacesse::copy</text>
</a>
</g>
</g>
<!-- Node69&#45;&gt;Node70 -->
<g id="edge2" class="edge"><title>Node69&#45;&gt;Node70</title>
<path fill="none" stroke="midnightblue" d="M271.136,-45.5671C279.618,-46.9597 288.513,-48.42 297.219,-49.8495"/>
<polygon fill="midnightblue" stroke="midnightblue" points="296.883,-53.341 307.318,-51.5074 298.017,-46.4335 296.883,-53.341"/>
</g>
<!-- Node77 -->
<g id="node10" class="node"><title>Node77</title>
<g id="a_node10"><a xlink:href="classds_1_1_partition_linked.html#a6a7de3bc18b0904e2e23536a336e42a8" target="_top" xlink:title="ds::PartitionLinked\l::print">
<polygon fill="white" stroke="black" points="307,-0.5 307,-30.5 407,-30.5 407,-0.5 307,-0.5"/>
<text text-anchor="start" x="315" y="-18.5" font-family="Helvetica,sans-Serif" font-size="10.00">ds::PartitionLinked</text>
<text text-anchor="middle" x="357" y="-7.5" font-family="Helvetica,sans-Serif" font-size="10.00">::print</text>
</a>
</g>
</g>
<!-- Node69&#45;&gt;Node77 -->
<g id="edge9" class="edge"><title>Node69&#45;&gt;Node77</title>
<path fill="none" stroke="midnightblue" d="M271.136,-29.4329C279.511,-28.0579 288.288,-26.6169 296.889,-25.2048"/>
<polygon fill="midnightblue" stroke="midnightblue" points="297.569,-28.64 306.87,-23.5661 296.435,-21.7325 297.569,-28.64"/>
</g>
<!-- Node71 -->
<g id="node4" class="node"><title>Node71</title>
<g id="a_node4"><a xlink:href="namespaceinterfacesse.html#afaa45a2a27710ea2dfa979289cf4961d" target="_top" xlink:title="swap items of aoarrayt_y to aiarrayt_x ">
<polygon fill="white" stroke="black" points="443,-50 443,-69 544,-69 544,-50 443,-50"/>
<text text-anchor="middle" x="493.5" y="-57" font-family="Helvetica,sans-Serif" font-size="10.00">interfacesse::swap</text>
</a>
</g>
</g>
<!-- Node70&#45;&gt;Node71 -->
<g id="edge3" class="edge"><title>Node70&#45;&gt;Node71</title>
<path fill="none" stroke="midnightblue" d="M406.558,-59.5C414.995,-59.5 423.858,-59.5 432.556,-59.5"/>
<polygon fill="midnightblue" stroke="midnightblue" points="432.656,-63.0001 442.656,-59.5 432.656,-56.0001 432.656,-63.0001"/>
</g>
<!-- Node72 -->
<g id="node5" class="node"><title>Node72</title>
<g id="a_node5"><a xlink:href="namespaceinterfacesse.html#a2f42addf86fc8b9cd0c6620217b8a2db" target="_top" xlink:title="swap items of aoarrayt_y to aiarrayt_x ">
<polygon fill="white" stroke="black" points="580,-50 580,-69 672,-69 672,-50 580,-50"/>
<text text-anchor="middle" x="626" y="-57" font-family="Helvetica,sans-Serif" font-size="10.00">interfacesse::dot</text>
</a>
</g>
</g>
<!-- Node71&#45;&gt;Node72 -->
<g id="edge4" class="edge"><title>Node71&#45;&gt;Node72</title>
<path fill="none" stroke="midnightblue" d="M544.209,-59.5C552.505,-59.5 561.156,-59.5 569.584,-59.5"/>
<polygon fill="midnightblue" stroke="midnightblue" points="569.714,-63.0001 579.714,-59.5 569.714,-56.0001 569.714,-63.0001"/>
</g>
<!-- Node73 -->
<g id="node6" class="node"><title>Node73</title>
<g id="a_node6"><a xlink:href="namespaceinterfacesse.html#a25f6950d589b92fd5bcf2007fb3fae19" target="_top" xlink:title="interfacesse::sum">
<polygon fill="white" stroke="black" points="708,-50 708,-69 804,-69 804,-50 708,-50"/>
<text text-anchor="middle" x="756" y="-57" font-family="Helvetica,sans-Serif" font-size="10.00">interfacesse::sum</text>
</a>
</g>
</g>
<!-- Node72&#45;&gt;Node73 -->
<g id="edge5" class="edge"><title>Node72&#45;&gt;Node73</title>
<path fill="none" stroke="midnightblue" d="M672.128,-59.5C680.315,-59.5 688.955,-59.5 697.442,-59.5"/>
<polygon fill="midnightblue" stroke="midnightblue" points="697.679,-63.0001 707.678,-59.5 697.678,-56.0001 697.679,-63.0001"/>
</g>
<!-- Node74 -->
<g id="node7" class="node"><title>Node74</title>
<g id="a_node7"><a xlink:href="namespaceinterfacesse.html#a9dd5fb43ad8a83ee5cb2f5ba1bb2085b" target="_top" xlink:title="interfacesse::axpy">
<polygon fill="white" stroke="black" points="840,-50 840,-69 939,-69 939,-50 840,-50"/>
<text text-anchor="middle" x="889.5" y="-57" font-family="Helvetica,sans-Serif" font-size="10.00">interfacesse::axpy</text>
</a>
</g>
</g>
<!-- Node73&#45;&gt;Node74 -->
<g id="edge6" class="edge"><title>Node73&#45;&gt;Node74</title>
<path fill="none" stroke="midnightblue" d="M804.103,-59.5C812.472,-59.5 821.281,-59.5 829.922,-59.5"/>
<polygon fill="midnightblue" stroke="midnightblue" points="829.953,-63.0001 839.953,-59.5 829.953,-56.0001 829.953,-63.0001"/>
</g>
<!-- Node75 -->
<g id="node8" class="node"><title>Node75</title>
<g id="a_node8"><a xlink:href="namespaceinterfacesse.html#ae3f94c42a59db65b2941dbfc9f449ea1" target="_top" xlink:title="function xAXPY of blas for doubles vectors ">
<polygon fill="white" stroke="black" points="975,-50 975,-69 1087,-69 1087,-50 975,-50"/>
<text text-anchor="middle" x="1031" y="-57" font-family="Helvetica,sans-Serif" font-size="10.00">interfacesse::axpyInv</text>
</a>
</g>
</g>
<!-- Node74&#45;&gt;Node75 -->
<g id="edge7" class="edge"><title>Node74&#45;&gt;Node75</title>
<path fill="none" stroke="midnightblue" d="M939.29,-59.5C947.535,-59.5 956.211,-59.5 964.794,-59.5"/>
<polygon fill="midnightblue" stroke="midnightblue" points="964.797,-63.0001 974.797,-59.5 964.797,-56.0001 964.797,-63.0001"/>
</g>
<!-- Node76 -->
<g id="node9" class="node"><title>Node76</title>
<g id="a_node9"><a xlink:href="namespaceinterfacesse.html#a144ebf70bf38495c3de1aca2c8365e08" target="_top" xlink:title="scal items of the array of type T ">
<polygon fill="white" stroke="black" points="1123,-50 1123,-69 1219,-69 1219,-50 1123,-50"/>
<text text-anchor="middle" x="1171" y="-57" font-family="Helvetica,sans-Serif" font-size="10.00">interfacesse::scal</text>
</a>
</g>
</g>
<!-- Node75&#45;&gt;Node76 -->
<g id="edge8" class="edge"><title>Node75&#45;&gt;Node76</title>
<path fill="none" stroke="midnightblue" d="M1087.33,-59.5C1095.65,-59.5 1104.24,-59.5 1112.6,-59.5"/>
<polygon fill="midnightblue" stroke="midnightblue" points="1112.65,-63.0001 1122.65,-59.5 1112.65,-56.0001 1112.65,-63.0001"/>
</g>
<!-- Node78 -->
<g id="node11" class="node"><title>Node78</title>
<g id="a_node11"><a xlink:href="classds_1_1_partition_linked.html#a696f58c4d25fd41adf281d1468440dc9" target="_top" xlink:title="ds::PartitionLinked\l::getNumPartitions">
<polygon fill="white" stroke="black" points="443.5,-0.5 443.5,-30.5 543.5,-30.5 543.5,-0.5 443.5,-0.5"/>
<text text-anchor="start" x="451.5" y="-18.5" font-family="Helvetica,sans-Serif" font-size="10.00">ds::PartitionLinked</text>
<text text-anchor="middle" x="493.5" y="-7.5" font-family="Helvetica,sans-Serif" font-size="10.00">::getNumPartitions</text>
</a>
</g>
</g>
<!-- Node77&#45;&gt;Node78 -->
<g id="edge10" class="edge"><title>Node77&#45;&gt;Node78</title>
<path fill="none" stroke="midnightblue" d="M407.319,-15.5C415.725,-15.5 424.535,-15.5 433.168,-15.5"/>
<polygon fill="midnightblue" stroke="midnightblue" points="433.187,-19.0001 443.187,-15.5 433.187,-12.0001 433.187,-19.0001"/>
</g>
</g>
</svg>
