<?xml version="1.0" encoding="UTF-8" standalone="no"?>
<!DOCTYPE svg PUBLIC "-//W3C//DTD SVG 1.1//EN"
 "http://www.w3.org/Graphics/SVG/1.1/DTD/svg11.dtd">
<!-- Generated by graphviz version 2.38.0 (20140413.2041)
 -->
<!-- Title: inout::InParamPcPmFk&lt; T_CLUSTERIDX, T_REAL, T_FEATURE, T_FEATURE_SUM, T_INSTANCES_CLUSTER_K &gt; Pages: 1 -->
<svg width="568pt" height="1348pt"
 viewBox="0.00 0.00 567.50 1348.00" xmlns="http://www.w3.org/2000/svg" xmlns:xlink="http://www.w3.org/1999/xlink">
<g id="graph0" class="graph" transform="scale(1 1) rotate(0) translate(4 1344)">
<title>inout::InParamPcPmFk&lt; T_CLUSTERIDX, T_REAL, T_FEATURE, T_FEATURE_SUM, T_INSTANCES_CLUSTER_K &gt;</title>
<polygon fill="white" stroke="none" points="-4,4 -4,-1344 563.5,-1344 563.5,4 -4,4"/>
<!-- Node10 -->
<g id="node1" class="node"><title>Node10</title>
<g id="a_node1"><a xlink:title="Input parameter for GA with probability Pc, Pm and Fixed K.">
<polygon fill="#bfbfbf" stroke="black" points="161,-0.5 161,-112.5 334,-112.5 334,-0.5 161,-0.5"/>
<text text-anchor="start" x="169" y="-100.5" font-family="Helvetica,sans-Serif" font-size="10.00">inout::InParamPcPmFk</text>
<text text-anchor="start" x="169" y="-89.5" font-family="Helvetica,sans-Serif" font-size="10.00">&lt; T_CLUSTERIDX, T_REAL,</text>
<text text-anchor="start" x="169" y="-78.5" font-family="Helvetica,sans-Serif" font-size="10.00"> T_FEATURE, T_FEATURE_SUM,</text>
<text text-anchor="middle" x="247.5" y="-67.5" font-family="Helvetica,sans-Serif" font-size="10.00"> T_INSTANCES_CLUSTER_K &gt;</text>
<polyline fill="none" stroke="black" points="161,-60.5 334,-60.5 "/>
<text text-anchor="middle" x="247.5" y="-48.5" font-family="Helvetica,sans-Serif" font-size="10.00"> </text>
<polyline fill="none" stroke="black" points="161,-41.5 334,-41.5 "/>
<text text-anchor="start" x="169" y="-29.5" font-family="Helvetica,sans-Serif" font-size="10.00">+ InParamPcPmFk()</text>
<text text-anchor="start" x="169" y="-18.5" font-family="Helvetica,sans-Serif" font-size="10.00">+ ~InParamPcPmFk()</text>
<text text-anchor="start" x="169" y="-7.5" font-family="Helvetica,sans-Serif" font-size="10.00">+ print()</text>
</a>
</g>
</g>
<!-- Node11 -->
<g id="node2" class="node"><title>Node11</title>
<g id="a_node2"><a xlink:href="classinout_1_1_in_param_pc_pm.html" target="_top" xlink:title="Input parameter for GA with probability crossover (Pc) and mutation (Pm)">
<polygon fill="white" stroke="black" points="58.5,-150.5 58.5,-295.5 172.5,-295.5 172.5,-150.5 58.5,-150.5"/>
<text text-anchor="start" x="66.5" y="-283.5" font-family="Helvetica,sans-Serif" font-size="10.00">inout::InParamPcPm</text>
<text text-anchor="middle" x="115.5" y="-272.5" font-family="Helvetica,sans-Serif" font-size="10.00">&lt; T_REAL &gt;</text>
<polyline fill="none" stroke="black" points="58.5,-265.5 172.5,-265.5 "/>
<text text-anchor="start" x="66.5" y="-253.5" font-family="Helvetica,sans-Serif" font-size="10.00"># t_probCrossover</text>
<text text-anchor="start" x="66.5" y="-242.5" font-family="Helvetica,sans-Serif" font-size="10.00"># t_probMutation</text>
<polyline fill="none" stroke="black" points="58.5,-235.5 172.5,-235.5 "/>
<text text-anchor="start" x="66.5" y="-223.5" font-family="Helvetica,sans-Serif" font-size="10.00">+ InParamPcPm()</text>
<text text-anchor="start" x="66.5" y="-212.5" font-family="Helvetica,sans-Serif" font-size="10.00">+ ~InParamPcPm()</text>
<text text-anchor="start" x="66.5" y="-201.5" font-family="Helvetica,sans-Serif" font-size="10.00">+ setProbCrossover()</text>
<text text-anchor="start" x="66.5" y="-190.5" font-family="Helvetica,sans-Serif" font-size="10.00">+ getProbCrossover()</text>
<text text-anchor="start" x="66.5" y="-179.5" font-family="Helvetica,sans-Serif" font-size="10.00">+ setProbMutation()</text>
<text text-anchor="start" x="66.5" y="-168.5" font-family="Helvetica,sans-Serif" font-size="10.00">+ getProbMutation()</text>
<text text-anchor="start" x="66.5" y="-157.5" font-family="Helvetica,sans-Serif" font-size="10.00">+ print()</text>
</a>
</g>
</g>
<!-- Node11&#45;&gt;Node10 -->
<g id="edge1" class="edge"><title>Node11&#45;&gt;Node10</title>
<path fill="none" stroke="midnightblue" d="M179.096,-142.746C187.183,-132.667 195.319,-122.528 203.016,-112.936"/>
<polygon fill="none" stroke="midnightblue" points="176.158,-140.815 172.629,-150.805 181.618,-145.196 176.158,-140.815"/>
</g>
<!-- Node12 -->
<g id="node3" class="node"><title>Node12</title>
<g id="a_node3"><a xlink:href="classinout_1_1_in_param_g_a_clustering.html" target="_top" xlink:title="Input parameter for genetic algorithm.">
<polygon fill="white" stroke="black" points="45,-333.5 45,-467.5 186,-467.5 186,-333.5 45,-333.5"/>
<text text-anchor="middle" x="115.5" y="-455.5" font-family="Helvetica,sans-Serif" font-size="10.00">inout::InParamGAClustering</text>
<polyline fill="none" stroke="black" points="45,-448.5 186,-448.5 "/>
<text text-anchor="start" x="53" y="-436.5" font-family="Helvetica,sans-Serif" font-size="10.00"># st_sizePopulation</text>
<text text-anchor="start" x="53" y="-425.5" font-family="Helvetica,sans-Serif" font-size="10.00"># t_numMaxGenerations</text>
<polyline fill="none" stroke="black" points="45,-418.5 186,-418.5 "/>
<text text-anchor="start" x="53" y="-406.5" font-family="Helvetica,sans-Serif" font-size="10.00">+ InParamGAClustering()</text>
<text text-anchor="start" x="53" y="-395.5" font-family="Helvetica,sans-Serif" font-size="10.00">+ ~InParamGAClustering()</text>
<text text-anchor="start" x="53" y="-384.5" font-family="Helvetica,sans-Serif" font-size="10.00">+ setNumMaxGenerations()</text>
<text text-anchor="start" x="53" y="-373.5" font-family="Helvetica,sans-Serif" font-size="10.00">+ getNumMaxGenerations()</text>
<text text-anchor="start" x="53" y="-362.5" font-family="Helvetica,sans-Serif" font-size="10.00">+ setSizePopulation()</text>
<text text-anchor="start" x="53" y="-351.5" font-family="Helvetica,sans-Serif" font-size="10.00">+ getSizePopulation()</text>
<text text-anchor="start" x="53" y="-340.5" font-family="Helvetica,sans-Serif" font-size="10.00">+ print()</text>
</a>
</g>
</g>
<!-- Node12&#45;&gt;Node11 -->
<g id="edge2" class="edge"><title>Node12&#45;&gt;Node11</title>
<path fill="none" stroke="midnightblue" d="M115.5,-323.007C115.5,-313.942 115.5,-304.714 115.5,-295.719"/>
<polygon fill="none" stroke="midnightblue" points="112,-323.151 115.5,-333.151 119,-323.151 112,-323.151"/>
</g>
<!-- Node13 -->
<g id="node4" class="node"><title>Node13</title>
<g id="a_node4"><a xlink:href="classinout_1_1_in_param_clustering.html" target="_top" xlink:title="Input parameter for clustering algorithm.">
<polygon fill="white" stroke="black" points="24.5,-538.5 24.5,-793.5 206.5,-793.5 206.5,-538.5 24.5,-538.5"/>
<text text-anchor="middle" x="115.5" y="-781.5" font-family="Helvetica,sans-Serif" font-size="10.00">inout::InParamClustering</text>
<polyline fill="none" stroke="black" points="24.5,-774.5 206.5,-774.5 "/>
<text text-anchor="start" x="32.5" y="-762.5" font-family="Helvetica,sans-Serif" font-size="10.00"># i_opDistance</text>
<text text-anchor="start" x="32.5" y="-751.5" font-family="Helvetica,sans-Serif" font-size="10.00"># ps_outFileCentroids</text>
<text text-anchor="start" x="32.5" y="-740.5" font-family="Helvetica,sans-Serif" font-size="10.00"># ps_outFileMemberShip</text>
<text text-anchor="start" x="32.5" y="-729.5" font-family="Helvetica,sans-Serif" font-size="10.00"># ps_outFilePartitionsTable</text>
<text text-anchor="start" x="32.5" y="-718.5" font-family="Helvetica,sans-Serif" font-size="10.00"># ps_outFileGraph</text>
<text text-anchor="start" x="32.5" y="-707.5" font-family="Helvetica,sans-Serif" font-size="10.00"># ps_fileNamePlotStatObjetiveFunc</text>
<text text-anchor="start" x="32.5" y="-696.5" font-family="Helvetica,sans-Serif" font-size="10.00"># _rd_maxExecutiontime</text>
<text text-anchor="start" x="32.5" y="-685.5" font-family="Helvetica,sans-Serif" font-size="10.00"># _b_printCentroidsFormat</text>
<text text-anchor="start" x="32.5" y="-674.5" font-family="Helvetica,sans-Serif" font-size="10.00"># _b_printTableFormat</text>
<polyline fill="none" stroke="black" points="24.5,-667.5 206.5,-667.5 "/>
<text text-anchor="start" x="32.5" y="-655.5" font-family="Helvetica,sans-Serif" font-size="10.00">+ InParamClustering()</text>
<text text-anchor="start" x="32.5" y="-644.5" font-family="Helvetica,sans-Serif" font-size="10.00">+ ~InParamClustering()</text>
<text text-anchor="start" x="32.5" y="-633.5" font-family="Helvetica,sans-Serif" font-size="10.00">+ getFileNamePlotStatObjetiveFunc()</text>
<text text-anchor="start" x="32.5" y="-622.5" font-family="Helvetica,sans-Serif" font-size="10.00">+ getWithPlotStatObjetiveFunc()</text>
<text text-anchor="start" x="32.5" y="-611.5" font-family="Helvetica,sans-Serif" font-size="10.00">+ setFileNamePlotStatObjetiveFunc()</text>
<text text-anchor="start" x="32.5" y="-600.5" font-family="Helvetica,sans-Serif" font-size="10.00">+ setOutFileMemberShip()</text>
<text text-anchor="start" x="32.5" y="-589.5" font-family="Helvetica,sans-Serif" font-size="10.00">+ getOutFileMemberShip()</text>
<text text-anchor="start" x="32.5" y="-578.5" font-family="Helvetica,sans-Serif" font-size="10.00">+ setRandomSeed()</text>
<text text-anchor="start" x="32.5" y="-567.5" font-family="Helvetica,sans-Serif" font-size="10.00">+ setRandomSeed()</text>
<text text-anchor="start" x="32.5" y="-556.5" font-family="Helvetica,sans-Serif" font-size="10.00">+ getRandomSeed()</text>
<text text-anchor="start" x="32.5" y="-545.5" font-family="Helvetica,sans-Serif" font-size="10.00">and 15 more...</text>
</a>
</g>
</g>
<!-- Node13&#45;&gt;Node12 -->
<g id="edge3" class="edge"><title>Node13&#45;&gt;Node12</title>
<path fill="none" stroke="midnightblue" d="M115.5,-528.258C115.5,-507.202 115.5,-486.315 115.5,-467.755"/>
<polygon fill="none" stroke="midnightblue" points="112,-528.267 115.5,-538.267 119,-528.267 112,-528.267"/>
</g>
<!-- Node14 -->
<g id="node5" class="node"><title>Node14</title>
<g id="a_node5"><a xlink:href="classinout_1_1_in_param_algorithmo.html" target="_top" xlink:title="Input parameter for define propertys of the algorithmos.">
<polygon fill="white" stroke="black" points="0,-885.5 0,-1085.5 135,-1085.5 135,-885.5 0,-885.5"/>
<text text-anchor="middle" x="67.5" y="-1073.5" font-family="Helvetica,sans-Serif" font-size="10.00">inout::InParamAlgorithmo</text>
<polyline fill="none" stroke="black" points="0,-1066.5 135,-1066.5 "/>
<text text-anchor="start" x="8" y="-1054.5" font-family="Helvetica,sans-Serif" font-size="10.00"># ato_algTypeOut</text>
<text text-anchor="start" x="8" y="-1043.5" font-family="Helvetica,sans-Serif" font-size="10.00"># ps_fileNameTimesRun</text>
<text text-anchor="start" x="8" y="-1032.5" font-family="Helvetica,sans-Serif" font-size="10.00"># b_progressBarPrinting</text>
<text text-anchor="start" x="8" y="-1021.5" font-family="Helvetica,sans-Serif" font-size="10.00"># i_timesRunAlgorithm</text>
<polyline fill="none" stroke="black" points="0,-1014.5 135,-1014.5 "/>
<text text-anchor="start" x="8" y="-1002.5" font-family="Helvetica,sans-Serif" font-size="10.00">+ InParamAlgorithmo()</text>
<text text-anchor="start" x="8" y="-991.5" font-family="Helvetica,sans-Serif" font-size="10.00">+ ~InParamAlgorithmo()</text>
<text text-anchor="start" x="8" y="-980.5" font-family="Helvetica,sans-Serif" font-size="10.00">+ errorArgument()</text>
<text text-anchor="start" x="8" y="-969.5" font-family="Helvetica,sans-Serif" font-size="10.00">+ isYesNo()</text>
<text text-anchor="start" x="8" y="-958.5" font-family="Helvetica,sans-Serif" font-size="10.00">+ setFileNameTimesRun()</text>
<text text-anchor="start" x="8" y="-947.5" font-family="Helvetica,sans-Serif" font-size="10.00">+ setProgressBarPrinting()</text>
<text text-anchor="start" x="8" y="-936.5" font-family="Helvetica,sans-Serif" font-size="10.00">+ setTimesRunAlgorithm()</text>
<text text-anchor="start" x="8" y="-925.5" font-family="Helvetica,sans-Serif" font-size="10.00">+ setGnuPlotCoreStyles()</text>
<text text-anchor="start" x="8" y="-914.5" font-family="Helvetica,sans-Serif" font-size="10.00">+ getAlgorithmoAuthor()</text>
<text text-anchor="start" x="8" y="-903.5" font-family="Helvetica,sans-Serif" font-size="10.00">+ getAlgorithmoName()</text>
<text text-anchor="start" x="8" y="-892.5" font-family="Helvetica,sans-Serif" font-size="10.00">and 8 more...</text>
</a>
</g>
</g>
<!-- Node14&#45;&gt;Node13 -->
<g id="edge4" class="edge"><title>Node14&#45;&gt;Node13</title>
<path fill="none" stroke="midnightblue" d="M83.9981,-875.372C87.9748,-849.068 92.2569,-820.743 96.3436,-793.712"/>
<polygon fill="none" stroke="midnightblue" points="80.5243,-874.936 82.4901,-885.347 87.4456,-875.983 80.5243,-874.936"/>
</g>
<!-- Node15 -->
<g id="node6" class="node"><title>Node15</title>
<g id="a_node6"><a xlink:title="STL class.">
<polygon fill="white" stroke="#bfbfbf" points="209.5,-1166.5 209.5,-1223.5 269.5,-1223.5 269.5,-1166.5 209.5,-1166.5"/>
<text text-anchor="middle" x="239.5" y="-1211.5" font-family="Helvetica,sans-Serif" font-size="10.00">std::string</text>
<polyline fill="none" stroke="#bfbfbf" points="209.5,-1204.5 269.5,-1204.5 "/>
<text text-anchor="middle" x="239.5" y="-1192.5" font-family="Helvetica,sans-Serif" font-size="10.00"> </text>
<polyline fill="none" stroke="#bfbfbf" points="209.5,-1185.5 269.5,-1185.5 "/>
<text text-anchor="middle" x="239.5" y="-1173.5" font-family="Helvetica,sans-Serif" font-size="10.00"> </text>
</a>
</g>
</g>
<!-- Node15&#45;&gt;Node13 -->
<g id="edge7" class="edge"><title>Node15&#45;&gt;Node13</title>
<path fill="none" stroke="#404040" d="M219.199,-1166.13C204.944,-1145.14 186.672,-1115.1 176.5,-1086 167.298,-1059.68 147.577,-917.384 133.038,-805.827"/>
<polygon fill="none" stroke="#404040" points="133.017,-805.662 128.277,-800.227 131.47,-793.762 136.21,-799.196 133.017,-805.662"/>
<text text-anchor="middle" x="221" y="-983" font-family="Helvetica,sans-Serif" font-size="10.00"> #_str_randomSeed</text>
</g>
<!-- Node15&#45;&gt;Node14 -->
<g id="edge5" class="edge"><title>Node15&#45;&gt;Node14</title>
<path fill="none" stroke="#404040" d="M209.409,-1190.54C163.96,-1184.62 81.2104,-1170.93 63.5,-1148 52.3207,-1133.52 47.0968,-1115.94 45.5195,-1097.78"/>
<polygon fill="none" stroke="#404040" points="45.5193,-1097.77 41.2554,-1091.95 44.9836,-1085.78 49.2474,-1091.6 45.5193,-1097.77"/>
<text text-anchor="middle" x="113" y="-1140" font-family="Helvetica,sans-Serif" font-size="10.00"> #s_algorithmoAuthor</text>
<text text-anchor="middle" x="113" y="-1129" font-family="Helvetica,sans-Serif" font-size="10.00">#s_algorithmoName</text>
<text text-anchor="middle" x="113" y="-1118" font-family="Helvetica,sans-Serif" font-size="10.00">#s_gnuplotCoreStyles</text>
<text text-anchor="middle" x="113" y="-1107" font-family="Helvetica,sans-Serif" font-size="10.00">#_s_runTimeId</text>
</g>
<!-- Node18 -->
<g id="node9" class="node"><title>Node18</title>
<g id="a_node9"><a xlink:href="classinout_1_1_in_param_read_inst.html" target="_top" xlink:title="Input parameter for read instances.">
<polygon fill="white" stroke="black" points="247,-505.5 247,-826.5 418,-826.5 418,-505.5 247,-505.5"/>
<text text-anchor="start" x="255" y="-814.5" font-family="Helvetica,sans-Serif" font-size="10.00">inout::InParamReadInst</text>
<text text-anchor="start" x="255" y="-803.5" font-family="Helvetica,sans-Serif" font-size="10.00">&lt; T_FEATURE, T_INSTANCES</text>
<text text-anchor="middle" x="332.5" y="-792.5" font-family="Helvetica,sans-Serif" font-size="10.00">_CLUSTER_K, T_CLUSTERIDX &gt;</text>
<polyline fill="none" stroke="black" points="247,-785.5 418,-785.5 "/>
<text text-anchor="start" x="255" y="-773.5" font-family="Helvetica,sans-Serif" font-size="10.00"># _ui_idxCurrentFileInstance</text>
<text text-anchor="start" x="255" y="-762.5" font-family="Helvetica,sans-Serif" font-size="10.00"># _enum_formatInstanceFile</text>
<text text-anchor="start" x="255" y="-751.5" font-family="Helvetica,sans-Serif" font-size="10.00"># _b_haveHeaderFile</text>
<text text-anchor="start" x="255" y="-740.5" font-family="Helvetica,sans-Serif" font-size="10.00"># _ui_classInstanceColumn</text>
<text text-anchor="start" x="255" y="-729.5" font-family="Helvetica,sans-Serif" font-size="10.00"># _ui_clusterInstanceColumn</text>
<text text-anchor="start" x="255" y="-718.5" font-family="Helvetica,sans-Serif" font-size="10.00"># _ui_idInstanceColumn</text>
<text text-anchor="start" x="255" y="-707.5" font-family="Helvetica,sans-Serif" font-size="10.00"># _ui_instancesFrequencyColumn</text>
<text text-anchor="start" x="255" y="-696.5" font-family="Helvetica,sans-Serif" font-size="10.00"># _ui_idMultiInstanceColumn</text>
<text text-anchor="start" x="255" y="-685.5" font-family="Helvetica,sans-Serif" font-size="10.00"># _ui_classMultiInstColumn</text>
<text text-anchor="start" x="255" y="-674.5" font-family="Helvetica,sans-Serif" font-size="10.00"># _ui_numInstances</text>
<text text-anchor="start" x="255" y="-663.5" font-family="Helvetica,sans-Serif" font-size="10.00"># _ui_numDimensionsInstances</text>
<text text-anchor="start" x="255" y="-652.5" font-family="Helvetica,sans-Serif" font-size="10.00"># _ui_numInstancesTest</text>
<text text-anchor="start" x="255" y="-641.5" font-family="Helvetica,sans-Serif" font-size="10.00"># _b_printMulLine</text>
<polyline fill="none" stroke="black" points="247,-634.5 418,-634.5 "/>
<text text-anchor="start" x="255" y="-622.5" font-family="Helvetica,sans-Serif" font-size="10.00">+ InParamReadInst()</text>
<text text-anchor="start" x="255" y="-611.5" font-family="Helvetica,sans-Serif" font-size="10.00">+ InParamReadInst()</text>
<text text-anchor="start" x="255" y="-600.5" font-family="Helvetica,sans-Serif" font-size="10.00">+ ~InParamReadInst()</text>
<text text-anchor="start" x="255" y="-589.5" font-family="Helvetica,sans-Serif" font-size="10.00">+ clearVectorFilesInstance()</text>
<text text-anchor="start" x="255" y="-578.5" font-family="Helvetica,sans-Serif" font-size="10.00">+ getVectorFilesInstance()</text>
<text text-anchor="start" x="255" y="-567.5" font-family="Helvetica,sans-Serif" font-size="10.00">+ setVectorFilesInstance()</text>
<text text-anchor="start" x="255" y="-556.5" font-family="Helvetica,sans-Serif" font-size="10.00">+ getNumFilesInstance()</text>
<text text-anchor="start" x="255" y="-545.5" font-family="Helvetica,sans-Serif" font-size="10.00">+ setVectorFilesInstanceTest()</text>
<text text-anchor="start" x="255" y="-534.5" font-family="Helvetica,sans-Serif" font-size="10.00">+ getVectorFilesInstanceTest()</text>
<text text-anchor="start" x="255" y="-523.5" font-family="Helvetica,sans-Serif" font-size="10.00">+ getNumFilesInstanceTest()</text>
<text text-anchor="start" x="255" y="-512.5" font-family="Helvetica,sans-Serif" font-size="10.00">and 37 more...</text>
</a>
</g>
</g>
<!-- Node15&#45;&gt;Node18 -->
<g id="edge10" class="edge"><title>Node15&#45;&gt;Node18</title>
<path fill="none" stroke="#404040" d="M248.21,-1166.26C254.772,-1144.58 263.615,-1113.6 269.5,-1086 286.683,-1005.42 300.89,-915.14 311.436,-839.076"/>
<polygon fill="none" stroke="#404040" points="311.463,-838.882 308.317,-832.393 313.097,-826.994 316.243,-833.483 311.463,-838.882"/>
<text text-anchor="middle" x="357" y="-988.5" font-family="Helvetica,sans-Serif" font-size="10.00"> #_ps_selectAttributes</text>
<text text-anchor="middle" x="357" y="-977.5" font-family="Helvetica,sans-Serif" font-size="10.00">#_s_separatorAttributes</text>
</g>
<!-- Node19 -->
<g id="node10" class="node"><title>Node19</title>
<g id="a_node10"><a xlink:title=" ">
<polygon fill="white" stroke="#bfbfbf" points="425,-957 425,-1014 550,-1014 550,-957 425,-957"/>
<text text-anchor="middle" x="487.5" y="-1002" font-family="Helvetica,sans-Serif" font-size="10.00">std::vector&lt; std::string &gt;</text>
<polyline fill="none" stroke="#bfbfbf" points="425,-995 550,-995 "/>
<text text-anchor="middle" x="487.5" y="-983" font-family="Helvetica,sans-Serif" font-size="10.00"> </text>
<polyline fill="none" stroke="#bfbfbf" points="425,-976 550,-976 "/>
<text text-anchor="middle" x="487.5" y="-964" font-family="Helvetica,sans-Serif" font-size="10.00"> </text>
</a>
</g>
</g>
<!-- Node15&#45;&gt;Node19 -->
<g id="edge12" class="edge"><title>Node15&#45;&gt;Node19</title>
<path fill="none" stroke="#404040" d="M269.604,-1176.1C283.623,-1167.68 300.484,-1157.44 315.5,-1148 358.184,-1121.16 373.445,-1120.19 410.5,-1086 430.322,-1067.71 448.936,-1043.92 462.896,-1024.18"/>
<polygon fill="none" stroke="#404040" points="462.92,-1024.15 463.049,-1016.94 469.753,-1014.28 469.625,-1021.49 462.92,-1024.15"/>
<text text-anchor="middle" x="415" y="-1123.5" font-family="Helvetica,sans-Serif" font-size="10.00"> +elements</text>
</g>
<!-- Node16 -->
<g id="node7" class="node"><title>Node16</title>
<g id="a_node7"><a xlink:title="STL class.">
<polygon fill="white" stroke="#bfbfbf" points="192,-1271.5 192,-1339.5 287,-1339.5 287,-1271.5 192,-1271.5"/>
<text text-anchor="start" x="200" y="-1327.5" font-family="Helvetica,sans-Serif" font-size="10.00">std::basic_string&lt;</text>
<text text-anchor="middle" x="239.5" y="-1316.5" font-family="Helvetica,sans-Serif" font-size="10.00"> char &gt;</text>
<polyline fill="none" stroke="#bfbfbf" points="192,-1309.5 287,-1309.5 "/>
<text text-anchor="middle" x="239.5" y="-1297.5" font-family="Helvetica,sans-Serif" font-size="10.00"> </text>
<polyline fill="none" stroke="#bfbfbf" points="192,-1290.5 287,-1290.5 "/>
<text text-anchor="middle" x="239.5" y="-1278.5" font-family="Helvetica,sans-Serif" font-size="10.00"> </text>
</a>
</g>
</g>
<!-- Node16&#45;&gt;Node15 -->
<g id="edge6" class="edge"><title>Node16&#45;&gt;Node15</title>
<path fill="none" stroke="midnightblue" d="M239.5,-1261.06C239.5,-1248.51 239.5,-1235.15 239.5,-1223.83"/>
<polygon fill="none" stroke="midnightblue" points="236,-1261.36 239.5,-1271.36 243,-1261.36 236,-1261.36"/>
</g>
<!-- Node17 -->
<g id="node8" class="node"><title>Node17</title>
<g id="a_node8"><a xlink:href="classinout_1_1_in_param_fk.html" target="_top" xlink:title="Input parameter for algorithms with Fixed K.">
<polygon fill="white" stroke="black" points="191,-167 191,-279 304,-279 304,-167 191,-167"/>
<text text-anchor="start" x="199" y="-267" font-family="Helvetica,sans-Serif" font-size="10.00">inout::InParamFk&lt; T</text>
<text text-anchor="middle" x="247.5" y="-256" font-family="Helvetica,sans-Serif" font-size="10.00">_CLUSTERIDX &gt;</text>
<polyline fill="none" stroke="black" points="191,-249 304,-249 "/>
<text text-anchor="start" x="199" y="-237" font-family="Helvetica,sans-Serif" font-size="10.00"># _idxK_numClusterK</text>
<polyline fill="none" stroke="black" points="191,-230 304,-230 "/>
<text text-anchor="start" x="199" y="-218" font-family="Helvetica,sans-Serif" font-size="10.00">+ InParamFk()</text>
<text text-anchor="start" x="199" y="-207" font-family="Helvetica,sans-Serif" font-size="10.00">+ ~InParamFk()</text>
<text text-anchor="start" x="199" y="-196" font-family="Helvetica,sans-Serif" font-size="10.00">+ setNumClusterK()</text>
<text text-anchor="start" x="199" y="-185" font-family="Helvetica,sans-Serif" font-size="10.00">+ getNumClusterK()</text>
<text text-anchor="start" x="199" y="-174" font-family="Helvetica,sans-Serif" font-size="10.00">+ print()</text>
</a>
</g>
</g>
<!-- Node17&#45;&gt;Node10 -->
<g id="edge8" class="edge"><title>Node17&#45;&gt;Node10</title>
<path fill="none" stroke="midnightblue" d="M247.5,-156.358C247.5,-141.851 247.5,-126.625 247.5,-112.588"/>
<polygon fill="none" stroke="midnightblue" points="244,-156.766 247.5,-166.766 251,-156.766 244,-156.766"/>
</g>
<!-- Node18&#45;&gt;Node10 -->
<g id="edge9" class="edge"><title>Node18&#45;&gt;Node10</title>
<path fill="none" stroke="midnightblue" d="M349.713,-495.158C354.338,-392.599 349.903,-260.756 312.5,-150 308.136,-137.076 301.35,-124.352 293.78,-112.671"/>
<polygon fill="none" stroke="midnightblue" points="346.21,-495.146 349.222,-505.304 353.201,-495.485 346.21,-495.146"/>
</g>
<!-- Node19&#45;&gt;Node18 -->
<g id="edge11" class="edge"><title>Node19&#45;&gt;Node18</title>
<path fill="none" stroke="#404040" d="M474.016,-956.879C460.486,-929.166 438.449,-884.025 415.751,-837.53"/>
<polygon fill="none" stroke="#404040" points="415.703,-837.431 409.476,-833.794 410.438,-826.647 416.665,-830.284 415.703,-837.431"/>
<text text-anchor="middle" x="494" y="-859" font-family="Helvetica,sans-Serif" font-size="10.00"> #_vectorstr_filesInstance</text>
<text text-anchor="middle" x="494" y="-848" font-family="Helvetica,sans-Serif" font-size="10.00">#_vectorstr_filesInstanceTest</text>
</g>
<!-- Node20 -->
<g id="node11" class="node"><title>Node20</title>
<g id="a_node11"><a xlink:title="STL class.">
<polygon fill="white" stroke="#bfbfbf" points="443,-1166.5 443,-1223.5 532,-1223.5 532,-1166.5 443,-1166.5"/>
<text text-anchor="middle" x="487.5" y="-1211.5" font-family="Helvetica,sans-Serif" font-size="10.00">std::vector&lt; T &gt;</text>
<polyline fill="none" stroke="#bfbfbf" points="443,-1204.5 532,-1204.5 "/>
<text text-anchor="middle" x="487.5" y="-1192.5" font-family="Helvetica,sans-Serif" font-size="10.00"> </text>
<polyline fill="none" stroke="#bfbfbf" points="443,-1185.5 532,-1185.5 "/>
<text text-anchor="middle" x="487.5" y="-1173.5" font-family="Helvetica,sans-Serif" font-size="10.00"> </text>
</a>
</g>
</g>
<!-- Node20&#45;&gt;Node19 -->
<g id="edge13" class="edge"><title>Node20&#45;&gt;Node19</title>
<path fill="none" stroke="orange" d="M487.5,-1156.31C487.5,-1115.3 487.5,-1050.74 487.5,-1014.17"/>
<polygon fill="orange" stroke="orange" points="484,-1156.45 487.5,-1166.45 491,-1156.45 484,-1156.45"/>
<text text-anchor="middle" x="520" y="-1123.5" font-family="Helvetica,sans-Serif" font-size="10.00"> &lt; std::string &gt;</text>
</g>
<!-- Node21 -->
<g id="node12" class="node"><title>Node21</title>
<g id="a_node12"><a xlink:title=" ">
<polygon fill="white" stroke="#bfbfbf" points="473,-1277 473,-1334 502,-1334 502,-1277 473,-1277"/>
<text text-anchor="middle" x="487.5" y="-1322" font-family="Helvetica,sans-Serif" font-size="10.00">T</text>
<polyline fill="none" stroke="#bfbfbf" points="473,-1315 502,-1315 "/>
<text text-anchor="middle" x="487.5" y="-1303" font-family="Helvetica,sans-Serif" font-size="10.00"> </text>
<polyline fill="none" stroke="#bfbfbf" points="473,-1296 502,-1296 "/>
<text text-anchor="middle" x="487.5" y="-1284" font-family="Helvetica,sans-Serif" font-size="10.00"> </text>
</a>
</g>
</g>
<!-- Node21&#45;&gt;Node20 -->
<g id="edge14" class="edge"><title>Node21&#45;&gt;Node20</title>
<path fill="none" stroke="#404040" d="M487.5,-1276.84C487.5,-1264.34 487.5,-1249.34 487.5,-1235.68"/>
<polygon fill="none" stroke="#404040" points="487.5,-1235.61 483.5,-1229.61 487.5,-1223.61 491.5,-1229.61 487.5,-1235.61"/>
<text text-anchor="middle" x="513" y="-1245" font-family="Helvetica,sans-Serif" font-size="10.00"> +elements</text>
</g>
</g>
</svg>
