<?xml version="1.0" encoding="UTF-8" standalone="no"?>
<!DOCTYPE svg PUBLIC "-//W3C//DTD SVG 1.1//EN"
 "http://www.w3.org/Graphics/SVG/1.1/DTD/svg11.dtd">
<!-- Generated by graphviz version 2.38.0 (20140413.2041)
 -->
<!-- Title: gaencode::ChromosomeGGA::operator= Pages: 1 -->
<svg width="735pt" height="203pt"
 viewBox="0.00 0.00 735.00 202.50" xmlns="http://www.w3.org/2000/svg" xmlns:xlink="http://www.w3.org/1999/xlink">
<g id="graph0" class="graph" transform="scale(1 1) rotate(0) translate(4 198.5)">
<title>gaencode::ChromosomeGGA::operator=</title>
<polygon fill="white" stroke="none" points="-4,4 -4,-198.5 731,-198.5 731,4 -4,4"/>
<!-- Node28 -->
<g id="node1" class="node"><title>Node28</title>
<g id="a_node1"><a xlink:title=" ">
<polygon fill="#bfbfbf" stroke="black" points="0,-109.5 0,-139.5 154,-139.5 154,-109.5 0,-109.5"/>
<text text-anchor="start" x="8" y="-127.5" font-family="Helvetica,sans-Serif" font-size="10.00">gaencode::ChromosomeGGA</text>
<text text-anchor="middle" x="77" y="-116.5" font-family="Helvetica,sans-Serif" font-size="10.00">::operator=</text>
</a>
</g>
</g>
<!-- Node29 -->
<g id="node2" class="node"><title>Node29</title>
<g id="a_node2"><a xlink:href="namespaceinterfacesse.html#a925f44ed84d40e9af5050fa0e1373396" target="_top" xlink:title="copy array aoarrayt_x in aoarrayt_y of type T">
<polygon fill="white" stroke="black" points="218,-175 218,-194 317,-194 317,-175 218,-175"/>
<text text-anchor="middle" x="267.5" y="-182" font-family="Helvetica,sans-Serif" font-size="10.00">interfacesse::copy</text>
</a>
</g>
</g>
<!-- Node28&#45;&gt;Node29 -->
<g id="edge1" class="edge"><title>Node28&#45;&gt;Node29</title>
<path fill="none" stroke="midnightblue" d="M124.567,-139.548C144.682,-146.028 168.49,-153.669 190,-160.5 201.816,-164.252 214.669,-168.299 226.408,-171.98"/>
<polygon fill="midnightblue" stroke="midnightblue" points="225.37,-175.323 235.96,-174.972 227.463,-168.643 225.37,-175.323"/>
</g>
<!-- Node30 -->
<g id="node3" class="node"><title>Node30</title>
<g id="a_node3"><a xlink:href="classgaencode_1_1_chromosome_g_g_a.html#aad4d008731eebf9615ad62aa884cc518" target="_top" xlink:title=" ">
<polygon fill="white" stroke="black" points="381.5,-120.5 381.5,-150.5 535.5,-150.5 535.5,-120.5 381.5,-120.5"/>
<text text-anchor="start" x="389.5" y="-138.5" font-family="Helvetica,sans-Serif" font-size="10.00">gaencode::ChromosomeGGA</text>
<text text-anchor="middle" x="458.5" y="-127.5" font-family="Helvetica,sans-Serif" font-size="10.00">::getNumClusterK</text>
</a>
</g>
</g>
<!-- Node28&#45;&gt;Node30 -->
<g id="edge2" class="edge"><title>Node28&#45;&gt;Node30</title>
<path fill="none" stroke="midnightblue" d="M154.341,-126.713C217.005,-128.529 305.733,-131.101 371.013,-132.993"/>
<polygon fill="midnightblue" stroke="midnightblue" points="371.184,-136.499 381.281,-133.291 371.387,-129.502 371.184,-136.499"/>
</g>
<!-- Node31 -->
<g id="node4" class="node"><title>Node31</title>
<g id="a_node4"><a xlink:href="classgaencode_1_1_chrom_fixed_length.html#ad0d128acd8d117278b0779b7a9714a18" target="_top" xlink:title=" ">
<polygon fill="white" stroke="black" points="190,-87.5 190,-117.5 345,-117.5 345,-87.5 190,-87.5"/>
<text text-anchor="start" x="198" y="-105.5" font-family="Helvetica,sans-Serif" font-size="10.00">gaencode::ChromFixedLength</text>
<text text-anchor="middle" x="267.5" y="-94.5" font-family="Helvetica,sans-Serif" font-size="10.00">::operator=</text>
</a>
</g>
</g>
<!-- Node28&#45;&gt;Node31 -->
<g id="edge3" class="edge"><title>Node28&#45;&gt;Node31</title>
<path fill="none" stroke="midnightblue" d="M154.127,-115.615C162.573,-114.629 171.22,-113.62 179.784,-112.621"/>
<polygon fill="midnightblue" stroke="midnightblue" points="180.255,-116.09 189.782,-111.454 179.444,-109.137 180.255,-116.09"/>
</g>
<!-- Node32 -->
<g id="node5" class="node"><title>Node32</title>
<g id="a_node5"><a xlink:href="classgaencode_1_1_chromosome_g_g_a.html#a1b069cf9c5179f7aff064081f72aefb6" target="_top" xlink:title=" ">
<polygon fill="white" stroke="black" points="190.5,-38.5 190.5,-68.5 344.5,-68.5 344.5,-38.5 190.5,-38.5"/>
<text text-anchor="start" x="198.5" y="-56.5" font-family="Helvetica,sans-Serif" font-size="10.00">gaencode::ChromosomeGGA</text>
<text text-anchor="middle" x="267.5" y="-45.5" font-family="Helvetica,sans-Serif" font-size="10.00">::print</text>
</a>
</g>
</g>
<!-- Node28&#45;&gt;Node32 -->
<g id="edge4" class="edge"><title>Node28&#45;&gt;Node32</title>
<path fill="none" stroke="midnightblue" d="M111.493,-109.48C133.581,-99.8147 163.265,-87.2792 190,-77.5 195.229,-75.5873 200.692,-73.6865 206.187,-71.8404"/>
<polygon fill="midnightblue" stroke="midnightblue" points="207.668,-75.0378 216.071,-68.5858 205.478,-68.3889 207.668,-75.0378"/>
</g>
<!-- Node32&#45;&gt;Node30 -->
<g id="edge8" class="edge"><title>Node32&#45;&gt;Node30</title>
<path fill="none" stroke="midnightblue" d="M320.779,-68.579C328.97,-71.3195 337.275,-74.3247 345,-77.5 371.675,-88.4652 400.569,-103.433 422.395,-115.416"/>
<polygon fill="midnightblue" stroke="midnightblue" points="420.847,-118.559 431.289,-120.349 424.242,-112.438 420.847,-118.559"/>
</g>
<!-- Node33 -->
<g id="node6" class="node"><title>Node33</title>
<g id="a_node6"><a xlink:href="classgaencode_1_1_chromosome_base.html#ab7a374a062ba8b5c6b4e674bae9a8299" target="_top" xlink:title=" ">
<polygon fill="white" stroke="black" points="381,-49.5 381,-79.5 536,-79.5 536,-49.5 381,-49.5"/>
<text text-anchor="start" x="389" y="-67.5" font-family="Helvetica,sans-Serif" font-size="10.00">gaencode::ChromosomeBase</text>
<text text-anchor="middle" x="458.5" y="-56.5" font-family="Helvetica,sans-Serif" font-size="10.00">::print</text>
</a>
</g>
</g>
<!-- Node32&#45;&gt;Node33 -->
<g id="edge5" class="edge"><title>Node32&#45;&gt;Node33</title>
<path fill="none" stroke="midnightblue" d="M344.557,-57.9266C353.182,-58.4286 362.022,-58.9431 370.771,-59.4523"/>
<polygon fill="midnightblue" stroke="midnightblue" points="370.797,-62.9596 380.984,-60.0467 371.204,-55.9715 370.797,-62.9596"/>
</g>
<!-- Node34 -->
<g id="node7" class="node"><title>Node34</title>
<g id="a_node7"><a xlink:href="classgaencode_1_1_chromosome_g_g_a.html#acf107792536ef822d20bed243aa89160" target="_top" xlink:title=" ">
<polygon fill="white" stroke="black" points="381.5,-0.5 381.5,-30.5 535.5,-30.5 535.5,-0.5 381.5,-0.5"/>
<text text-anchor="start" x="389.5" y="-18.5" font-family="Helvetica,sans-Serif" font-size="10.00">gaencode::ChromosomeGGA</text>
<text text-anchor="middle" x="458.5" y="-7.5" font-family="Helvetica,sans-Serif" font-size="10.00">::getElementSize</text>
</a>
</g>
</g>
<!-- Node32&#45;&gt;Node34 -->
<g id="edge6" class="edge"><title>Node32&#45;&gt;Node34</title>
<path fill="none" stroke="midnightblue" d="M343.198,-38.4814C352.948,-36.521 362.994,-34.5013 372.892,-32.5111"/>
<polygon fill="midnightblue" stroke="midnightblue" points="373.612,-35.9365 382.726,-30.534 372.232,-29.0738 373.612,-35.9365"/>
</g>
<!-- Node35 -->
<g id="node8" class="node"><title>Node35</title>
<g id="a_node8"><a xlink:href="classgaencode_1_1_chrom_fixed_length.html#a406e67fa48d6cdfc7a01f0c6e04f373b" target="_top" xlink:title=" ">
<polygon fill="white" stroke="black" points="572,-0.5 572,-30.5 727,-30.5 727,-0.5 572,-0.5"/>
<text text-anchor="start" x="580" y="-18.5" font-family="Helvetica,sans-Serif" font-size="10.00">gaencode::ChromFixedLength</text>
<text text-anchor="middle" x="649.5" y="-7.5" font-family="Helvetica,sans-Serif" font-size="10.00">::stcgetStringSize</text>
</a>
</g>
</g>
<!-- Node34&#45;&gt;Node35 -->
<g id="edge7" class="edge"><title>Node34&#45;&gt;Node35</title>
<path fill="none" stroke="midnightblue" d="M535.557,-15.5C544.182,-15.5 553.022,-15.5 561.771,-15.5"/>
<polygon fill="midnightblue" stroke="midnightblue" points="561.984,-19.0001 571.984,-15.5 561.983,-12.0001 561.984,-19.0001"/>
</g>
</g>
</svg>
