<?xml version="1.0" encoding="UTF-8" standalone="no"?>
<!DOCTYPE svg PUBLIC "-//W3C//DTD SVG 1.1//EN"
 "http://www.w3.org/Graphics/SVG/1.1/DTD/svg11.dtd">
<!-- Generated by graphviz version 2.38.0 (20140413.2041)
 -->
<!-- Title: gaencode::ChromosomeFEAC::ChromosomeFEAC Pages: 1 -->
<svg width="549pt" height="176pt"
 viewBox="0.00 0.00 549.00 175.50" xmlns="http://www.w3.org/2000/svg" xmlns:xlink="http://www.w3.org/1999/xlink">
<g id="graph0" class="graph" transform="scale(1 1) rotate(0) translate(4 171.5)">
<title>gaencode::ChromosomeFEAC::ChromosomeFEAC</title>
<polygon fill="white" stroke="none" points="-4,4 -4,-171.5 545,-171.5 545,4 -4,4"/>
<!-- Node5 -->
<g id="node1" class="node"><title>Node5</title>
<polygon fill="#bfbfbf" stroke="black" points="0,-87 0,-117 157,-117 157,-87 0,-87"/>
<text text-anchor="start" x="8" y="-105" font-family="Helvetica,sans-Serif" font-size="10.00">gaencode::ChromosomeFEAC</text>
<text text-anchor="middle" x="78.5" y="-94" font-family="Helvetica,sans-Serif" font-size="10.00">::ChromosomeFEAC</text>
</g>
<!-- Node6 -->
<g id="node2" class="node"><title>Node6</title>
<g id="a_node2"><a xlink:href="classgaencode_1_1_chromosome_f_e_a_c.html#a2121342a9a584922fa9e663e801a90a8" target="_top" xlink:title="gaencode::ChromosomeFEAC\l::ChromosomeFEAC">
<polygon fill="white" stroke="black" points="193,-124 193,-154 350,-154 350,-124 193,-124"/>
<text text-anchor="start" x="201" y="-142" font-family="Helvetica,sans-Serif" font-size="10.00">gaencode::ChromosomeFEAC</text>
<text text-anchor="middle" x="271.5" y="-131" font-family="Helvetica,sans-Serif" font-size="10.00">::ChromosomeFEAC</text>
</a>
</g>
</g>
<!-- Node5&#45;&gt;Node6 -->
<g id="edge1" class="edge"><title>Node5&#45;&gt;Node6</title>
<path fill="none" stroke="midnightblue" d="M157.187,-117.049C165.65,-118.689 174.306,-120.365 182.876,-122.026"/>
<polygon fill="midnightblue" stroke="midnightblue" points="182.399,-125.498 192.882,-123.964 183.73,-118.626 182.399,-125.498"/>
</g>
<!-- Node8 -->
<g id="node4" class="node"><title>Node8</title>
<g id="a_node4"><a xlink:href="classgaencode_1_1_chromosome_f_e_a_c.html#a086d0bc1d96dbfa5c6609292db07d97a" target="_top" xlink:title="gaencode::ChromosomeFEAC\l::print">
<polygon fill="white" stroke="black" points="193,-51 193,-81 350,-81 350,-51 193,-51"/>
<text text-anchor="start" x="201" y="-69" font-family="Helvetica,sans-Serif" font-size="10.00">gaencode::ChromosomeFEAC</text>
<text text-anchor="middle" x="271.5" y="-58" font-family="Helvetica,sans-Serif" font-size="10.00">::print</text>
</a>
</g>
</g>
<!-- Node5&#45;&gt;Node8 -->
<g id="edge3" class="edge"><title>Node5&#45;&gt;Node8</title>
<path fill="none" stroke="midnightblue" d="M157.187,-87.3574C165.65,-85.7624 174.306,-84.1309 182.876,-82.5155"/>
<polygon fill="midnightblue" stroke="midnightblue" points="183.703,-85.9213 192.882,-80.6296 182.407,-79.0424 183.703,-85.9213"/>
</g>
<!-- Node7 -->
<g id="node3" class="node"><title>Node7</title>
<g id="a_node3"><a xlink:href="classgaencode_1_1_chromosome_base.html#a0c0f339b486fb7d097d2afac2539ddc8" target="_top" xlink:title="gaencode::ChromosomeBase\l::setObjetiveFunc">
<polygon fill="white" stroke="black" points="386,-137 386,-167 541,-167 541,-137 386,-137"/>
<text text-anchor="start" x="394" y="-155" font-family="Helvetica,sans-Serif" font-size="10.00">gaencode::ChromosomeBase</text>
<text text-anchor="middle" x="463.5" y="-144" font-family="Helvetica,sans-Serif" font-size="10.00">::setObjetiveFunc</text>
</a>
</g>
</g>
<!-- Node6&#45;&gt;Node7 -->
<g id="edge2" class="edge"><title>Node6&#45;&gt;Node7</title>
<path fill="none" stroke="midnightblue" d="M350.054,-144.306C358.536,-144.887 367.209,-145.48 375.792,-146.067"/>
<polygon fill="midnightblue" stroke="midnightblue" points="375.593,-149.562 385.809,-146.753 376.071,-142.578 375.593,-149.562"/>
</g>
<!-- Node9 -->
<g id="node5" class="node"><title>Node9</title>
<g id="a_node5"><a xlink:href="classgaencode_1_1_chrom_fixed_length.html#a2d0b4e4d46c2f224ce34cf795407b407" target="_top" xlink:title="gaencode::ChromFixedLength\l::print">
<polygon fill="white" stroke="black" points="386,-88 386,-118 541,-118 541,-88 386,-88"/>
<text text-anchor="start" x="394" y="-106" font-family="Helvetica,sans-Serif" font-size="10.00">gaencode::ChromFixedLength</text>
<text text-anchor="middle" x="463.5" y="-95" font-family="Helvetica,sans-Serif" font-size="10.00">::print</text>
</a>
</g>
</g>
<!-- Node8&#45;&gt;Node9 -->
<g id="edge4" class="edge"><title>Node8&#45;&gt;Node9</title>
<path fill="none" stroke="midnightblue" d="M349.78,-81.0493C358.439,-82.7355 367.302,-84.4614 376.066,-86.1682"/>
<polygon fill="midnightblue" stroke="midnightblue" points="375.42,-89.6079 385.904,-88.084 376.758,-82.737 375.42,-89.6079"/>
</g>
<!-- Node10 -->
<g id="node6" class="node"><title>Node10</title>
<g id="a_node6"><a xlink:href="classmat_1_1_matrix_with_row_null.html#ac1905321ba20aa803e0401fca8d1e95d" target="_top" xlink:title="mat::MatrixWithRowNull\l::print">
<polygon fill="white" stroke="black" points="402.5,-39 402.5,-69 524.5,-69 524.5,-39 402.5,-39"/>
<text text-anchor="start" x="410.5" y="-57" font-family="Helvetica,sans-Serif" font-size="10.00">mat::MatrixWithRowNull</text>
<text text-anchor="middle" x="463.5" y="-46" font-family="Helvetica,sans-Serif" font-size="10.00">::print</text>
</a>
</g>
</g>
<!-- Node8&#45;&gt;Node10 -->
<g id="edge5" class="edge"><title>Node8&#45;&gt;Node10</title>
<path fill="none" stroke="midnightblue" d="M350.054,-61.1018C363.955,-60.2239 378.372,-59.3134 392.058,-58.449"/>
<polygon fill="midnightblue" stroke="midnightblue" points="392.602,-61.9217 402.361,-57.7982 392.161,-54.9356 392.602,-61.9217"/>
</g>
<!-- Node11 -->
<g id="node7" class="node"><title>Node11</title>
<g id="a_node7"><a xlink:href="namespaceinout.html#a0c10a45877a347dec0d4ec4e5b05b828" target="_top" xlink:title="inout::containerprint">
<polygon fill="white" stroke="black" points="412,-0.5 412,-19.5 515,-19.5 515,-0.5 412,-0.5"/>
<text text-anchor="middle" x="463.5" y="-7.5" font-family="Helvetica,sans-Serif" font-size="10.00">inout::containerprint</text>
</a>
</g>
</g>
<!-- Node8&#45;&gt;Node11 -->
<g id="edge6" class="edge"><title>Node8&#45;&gt;Node11</title>
<path fill="none" stroke="midnightblue" d="M316.202,-50.9429C337.2,-43.9166 362.79,-35.656 386,-29 394.411,-26.588 403.392,-24.1956 412.134,-21.9636"/>
<polygon fill="midnightblue" stroke="midnightblue" points="413.015,-25.3512 421.86,-19.5191 411.308,-18.5623 413.015,-25.3512"/>
</g>
</g>
</svg>
