<?xml version="1.0" encoding="UTF-8" standalone="no"?>
<!DOCTYPE svg PUBLIC "-//W3C//DTD SVG 1.1//EN"
 "http://www.w3.org/Graphics/SVG/1.1/DTD/svg11.dtd">
<!-- Generated by graphviz version 2.38.0 (20140413.2041)
 -->
<!-- Title: ds::DisjSets Pages: 1 -->
<svg width="260pt" height="535pt"
 viewBox="0.00 0.00 259.50 535.00" xmlns="http://www.w3.org/2000/svg" xmlns:xlink="http://www.w3.org/1999/xlink">
<g id="graph0" class="graph" transform="scale(1 1) rotate(0) translate(4 531)">
<title>ds::DisjSets</title>
<polygon fill="white" stroke="none" points="-4,4 -4,-531 255.5,-531 255.5,4 -4,4"/>
<!-- Node2 -->
<g id="node1" class="node"><title>Node2</title>
<g id="a_node1"><a xlink:title="Disjoint&#45;set.">
<polygon fill="#bfbfbf" stroke="black" points="85.5,-0.5 85.5,-211.5 166.5,-211.5 166.5,-0.5 85.5,-0.5"/>
<text text-anchor="middle" x="126" y="-199.5" font-family="Helvetica,sans-Serif" font-size="10.00">ds::DisjSets</text>
<polyline fill="none" stroke="black" points="85.5,-192.5 166.5,-192.5 "/>
<text text-anchor="start" x="93.5" y="-180.5" font-family="Helvetica,sans-Serif" font-size="10.00"># _m</text>
<polyline fill="none" stroke="black" points="85.5,-173.5 166.5,-173.5 "/>
<text text-anchor="start" x="93.5" y="-161.5" font-family="Helvetica,sans-Serif" font-size="10.00">+ DisjSets()</text>
<text text-anchor="start" x="93.5" y="-150.5" font-family="Helvetica,sans-Serif" font-size="10.00">+ DisjSets()</text>
<text text-anchor="start" x="93.5" y="-139.5" font-family="Helvetica,sans-Serif" font-size="10.00">+ DisjSets()</text>
<text text-anchor="start" x="93.5" y="-128.5" font-family="Helvetica,sans-Serif" font-size="10.00">+ DisjSets()</text>
<text text-anchor="start" x="93.5" y="-117.5" font-family="Helvetica,sans-Serif" font-size="10.00">+ ~ DisjSets()</text>
<text text-anchor="start" x="93.5" y="-106.5" font-family="Helvetica,sans-Serif" font-size="10.00">+ operator=()</text>
<text text-anchor="start" x="93.5" y="-95.5" font-family="Helvetica,sans-Serif" font-size="10.00">+ operator=()</text>
<text text-anchor="start" x="93.5" y="-84.5" font-family="Helvetica,sans-Serif" font-size="10.00">+ make_set()</text>
<text text-anchor="start" x="93.5" y="-73.5" font-family="Helvetica,sans-Serif" font-size="10.00">+ find()</text>
<text text-anchor="start" x="93.5" y="-62.5" font-family="Helvetica,sans-Serif" font-size="10.00">+ constfind()</text>
<text text-anchor="start" x="93.5" y="-51.5" font-family="Helvetica,sans-Serif" font-size="10.00">+ merge()</text>
<text text-anchor="start" x="93.5" y="-40.5" font-family="Helvetica,sans-Serif" font-size="10.00">+ getNumSet()</text>
<text text-anchor="start" x="93.5" y="-29.5" font-family="Helvetica,sans-Serif" font-size="10.00">+ size()</text>
<text text-anchor="start" x="93.5" y="-18.5" font-family="Helvetica,sans-Serif" font-size="10.00">+ print()</text>
<text text-anchor="start" x="93.5" y="-7.5" font-family="Helvetica,sans-Serif" font-size="10.00">&#45; link()</text>
</a>
</g>
</g>
<!-- Node3 -->
<g id="node2" class="node"><title>Node3</title>
<g id="a_node2"><a xlink:title=" ">
<polygon fill="white" stroke="#bfbfbf" points="0,-259.5 0,-316.5 110,-316.5 110,-259.5 0,-259.5"/>
<text text-anchor="middle" x="55" y="-304.5" font-family="Helvetica,sans-Serif" font-size="10.00">std::vector&lt; uintidx &gt;</text>
<polyline fill="none" stroke="#bfbfbf" points="0,-297.5 110,-297.5 "/>
<text text-anchor="start" x="8" y="-285.5" font-family="Helvetica,sans-Serif" font-size="10.00">+ elements</text>
<polyline fill="none" stroke="#bfbfbf" points="0,-278.5 110,-278.5 "/>
<text text-anchor="middle" x="55" y="-266.5" font-family="Helvetica,sans-Serif" font-size="10.00"> </text>
</a>
</g>
</g>
<!-- Node3&#45;&gt;Node2 -->
<g id="edge1" class="edge"><title>Node3&#45;&gt;Node2</title>
<path fill="none" stroke="#404040" d="M65.9382,-259.269C70.2045,-248.453 75.3992,-235.284 80.9288,-221.265"/>
<polygon fill="none" stroke="#404040" points="81.0206,-221.032 79.5012,-213.983 85.4238,-209.869 86.9432,-216.918 81.0206,-221.032"/>
<text text-anchor="middle" x="117" y="-233" font-family="Helvetica,sans-Serif" font-size="10.00"> #_vectorst_parent</text>
</g>
<!-- Node4 -->
<g id="node3" class="node"><title>Node4</title>
<g id="a_node3"><a xlink:title="STL class.">
<polygon fill="white" stroke="#bfbfbf" points="61.5,-364.5 61.5,-421.5 150.5,-421.5 150.5,-364.5 61.5,-364.5"/>
<text text-anchor="middle" x="106" y="-409.5" font-family="Helvetica,sans-Serif" font-size="10.00">std::vector&lt; T &gt;</text>
<polyline fill="none" stroke="#bfbfbf" points="61.5,-402.5 150.5,-402.5 "/>
<text text-anchor="middle" x="106" y="-390.5" font-family="Helvetica,sans-Serif" font-size="10.00"> </text>
<polyline fill="none" stroke="#bfbfbf" points="61.5,-383.5 150.5,-383.5 "/>
<text text-anchor="middle" x="106" y="-371.5" font-family="Helvetica,sans-Serif" font-size="10.00"> </text>
</a>
</g>
</g>
<!-- Node4&#45;&gt;Node3 -->
<g id="edge2" class="edge"><title>Node4&#45;&gt;Node3</title>
<path fill="none" stroke="orange" d="M87.8791,-355.403C81.5683,-342.657 74.5976,-328.579 68.7048,-316.678"/>
<polygon fill="orange" stroke="orange" points="84.759,-356.989 92.3329,-364.398 91.0321,-353.883 84.759,-356.989"/>
<text text-anchor="middle" x="108" y="-338" font-family="Helvetica,sans-Serif" font-size="10.00"> &lt; uintidx &gt;</text>
</g>
<!-- Node6 -->
<g id="node5" class="node"><title>Node6</title>
<g id="a_node5"><a xlink:title=" ">
<polygon fill="white" stroke="#bfbfbf" points="128.5,-259.5 128.5,-316.5 251.5,-316.5 251.5,-259.5 128.5,-259.5"/>
<text text-anchor="middle" x="190" y="-304.5" font-family="Helvetica,sans-Serif" font-size="10.00">std::vector&lt; unsigned &gt;</text>
<polyline fill="none" stroke="#bfbfbf" points="128.5,-297.5 251.5,-297.5 "/>
<text text-anchor="start" x="136.5" y="-285.5" font-family="Helvetica,sans-Serif" font-size="10.00">+ elements</text>
<polyline fill="none" stroke="#bfbfbf" points="128.5,-278.5 251.5,-278.5 "/>
<text text-anchor="middle" x="190" y="-266.5" font-family="Helvetica,sans-Serif" font-size="10.00"> </text>
</a>
</g>
</g>
<!-- Node4&#45;&gt;Node6 -->
<g id="edge5" class="edge"><title>Node4&#45;&gt;Node6</title>
<path fill="none" stroke="orange" d="M134.941,-356.513C145.57,-343.479 157.439,-328.926 167.427,-316.678"/>
<polygon fill="orange" stroke="orange" points="132.118,-354.436 128.51,-364.398 137.543,-358.86 132.118,-354.436"/>
<text text-anchor="middle" x="182.5" y="-338" font-family="Helvetica,sans-Serif" font-size="10.00"> &lt; unsigned &gt;</text>
</g>
<!-- Node5 -->
<g id="node4" class="node"><title>Node5</title>
<g id="a_node4"><a xlink:title=" ">
<polygon fill="white" stroke="#bfbfbf" points="91.5,-469.5 91.5,-526.5 120.5,-526.5 120.5,-469.5 91.5,-469.5"/>
<text text-anchor="middle" x="106" y="-514.5" font-family="Helvetica,sans-Serif" font-size="10.00">T</text>
<polyline fill="none" stroke="#bfbfbf" points="91.5,-507.5 120.5,-507.5 "/>
<text text-anchor="middle" x="106" y="-495.5" font-family="Helvetica,sans-Serif" font-size="10.00"> </text>
<polyline fill="none" stroke="#bfbfbf" points="91.5,-488.5 120.5,-488.5 "/>
<text text-anchor="middle" x="106" y="-476.5" font-family="Helvetica,sans-Serif" font-size="10.00"> </text>
</a>
</g>
</g>
<!-- Node5&#45;&gt;Node4 -->
<g id="edge3" class="edge"><title>Node5&#45;&gt;Node4</title>
<path fill="none" stroke="#404040" d="M106,-469.398C106,-458.545 106,-445.873 106,-434.049"/>
<polygon fill="none" stroke="#404040" points="106,-433.678 102,-427.678 106,-421.678 110,-427.678 106,-433.678"/>
<text text-anchor="middle" x="131.5" y="-443" font-family="Helvetica,sans-Serif" font-size="10.00"> +elements</text>
</g>
<!-- Node6&#45;&gt;Node2 -->
<g id="edge4" class="edge"><title>Node6&#45;&gt;Node2</title>
<path fill="none" stroke="#404040" d="M180.14,-259.269C176.47,-248.946 172.036,-236.478 167.306,-223.174"/>
<polygon fill="none" stroke="#404040" points="167.293,-223.137 161.514,-218.824 163.273,-211.831 169.052,-216.144 167.293,-223.137"/>
<text text-anchor="middle" x="210" y="-233" font-family="Helvetica,sans-Serif" font-size="10.00"> #_vectorui_rank</text>
</g>
</g>
</svg>
