<?xml version="1.0" encoding="UTF-8" standalone="no"?>
<!DOCTYPE svg PUBLIC "-//W3C//DTD SVG 1.1//EN"
 "http://www.w3.org/Graphics/SVG/1.1/DTD/svg11.dtd">
<!-- Generated by graphviz version 2.38.0 (20140413.2041)
 -->
<!-- Title: partition::PartitionDisjSets&lt; T_CLUSTERIDX &gt; Pages: 1 -->
<!--zoomable 806 -->
<svg id="main" version="1.1" xmlns="http://www.w3.org/2000/svg" xmlns:xlink="http://www.w3.org/1999/xlink" xml:space="preserve" onload="init(evt)">
<style type="text/css"><![CDATA[
.edge:hover path { stroke: red; }
.edge:hover polygon { stroke: red; fill: red; }
]]></style>
<script type="text/javascript"><![CDATA[
var edges = document.getElementsByTagName('g');
if (edges && edges.length) {
  for (var i=0;i<edges.length;i++) {
    if (edges[i].id.substr(0,4)=='edge') {
      edges[i].setAttribute('class','edge');
    }
  }
}
]]></script>
        <defs>
                <circle id="rim" cx="0" cy="0" r="7"/>
                <circle id="rim2" cx="0" cy="0" r="3.5"/>
                <g id="zoomPlus">
                        <use xlink:href="#rim" fill="#404040">
                                <set attributeName="fill" to="#808080" begin="zoomplus.mouseover" end="zoomplus.mouseout"/>
                        </use>
                        <path d="M-4,0h8M0,-4v8" fill="none" stroke="white" stroke-width="1.5" pointer-events="none"/>
                </g>
                <g id="zoomMin">
                        <use xlink:href="#rim" fill="#404040">
                                <set attributeName="fill" to="#808080" begin="zoomminus.mouseover" end="zoomminus.mouseout"/>
                        </use>
                        <path d="M-4,0h8" fill="none" stroke="white" stroke-width="1.5" pointer-events="none"/>
                </g>
                <g id="dirArrow">
                        <path fill="none" stroke="white" stroke-width="1.5" d="M0,-3.0v7 M-2.5,-0.5L0,-3.0L2.5,-0.5"/>
                </g>
               <g id="resetDef">
                       <use xlink:href="#rim2" fill="#404040">
                               <set attributeName="fill" to="#808080" begin="reset.mouseover" end="reset.mouseout"/>
                       </use>
               </g>
        </defs>

<script type="text/javascript">
var viewWidth = 490;
var viewHeight = 806;
var sectionId = 'dynsection-1';
</script>
<script xlink:href="svgpan.js"/>
<svg id="graph" class="graph">
<g id="viewport">
<title>partition::PartitionDisjSets&lt; T_CLUSTERIDX &gt;</title>
<polygon fill="white" stroke="none" points="-4,4 -4,-802 486,-802 486,4 -4,4"/>
<!-- Node3 -->
<g id="node1" class="node"><title>Node3</title>
<g id="a_node1"><a xlink:title="Partition of instances in base DisjSets data structure.">
<polygon fill="#bfbfbf" stroke="black" points="124.5,-0.5 124.5,-222.5 255.5,-222.5 255.5,-0.5 124.5,-0.5"/>
<text text-anchor="start" x="132.5" y="-210.5" font-family="Helvetica,sans-Serif" font-size="10.00">partition::PartitionDisj</text>
<text text-anchor="middle" x="190" y="-199.5" font-family="Helvetica,sans-Serif" font-size="10.00">Sets&lt; T_CLUSTERIDX &gt;</text>
<polyline fill="none" stroke="black" points="124.5,-192.5 255.5,-192.5 "/>
<text text-anchor="start" x="132.5" y="-180.5" font-family="Helvetica,sans-Serif" font-size="10.00"># _ui_iteratornext</text>
<polyline fill="none" stroke="black" points="124.5,-173.5 255.5,-173.5 "/>
<text text-anchor="start" x="132.5" y="-161.5" font-family="Helvetica,sans-Serif" font-size="10.00">+ PartitionDisjSets()</text>
<text text-anchor="start" x="132.5" y="-150.5" font-family="Helvetica,sans-Serif" font-size="10.00">+ PartitionDisjSets()</text>
<text text-anchor="start" x="132.5" y="-139.5" font-family="Helvetica,sans-Serif" font-size="10.00">+ PartitionDisjSets()</text>
<text text-anchor="start" x="132.5" y="-128.5" font-family="Helvetica,sans-Serif" font-size="10.00">+ PartitionDisjSets()</text>
<text text-anchor="start" x="132.5" y="-117.5" font-family="Helvetica,sans-Serif" font-size="10.00">+ PartitionDisjSets()</text>
<text text-anchor="start" x="132.5" y="-106.5" font-family="Helvetica,sans-Serif" font-size="10.00">+ ~PartitionDisjSets()</text>
<text text-anchor="start" x="132.5" y="-95.5" font-family="Helvetica,sans-Serif" font-size="10.00">+ begin()</text>
<text text-anchor="start" x="132.5" y="-84.5" font-family="Helvetica,sans-Serif" font-size="10.00">+ next()</text>
<text text-anchor="start" x="132.5" y="-73.5" font-family="Helvetica,sans-Serif" font-size="10.00">+ end()</text>
<text text-anchor="start" x="132.5" y="-62.5" font-family="Helvetica,sans-Serif" font-size="10.00">+ operator=()</text>
<text text-anchor="start" x="132.5" y="-51.5" font-family="Helvetica,sans-Serif" font-size="10.00">+ operator=()</text>
<text text-anchor="start" x="132.5" y="-40.5" font-family="Helvetica,sans-Serif" font-size="10.00">+ getClusterIdx()</text>
<text text-anchor="start" x="132.5" y="-29.5" font-family="Helvetica,sans-Serif" font-size="10.00">+ getNumInstances()</text>
<text text-anchor="start" x="132.5" y="-18.5" font-family="Helvetica,sans-Serif" font-size="10.00">+ getNumCluster()</text>
<text text-anchor="start" x="132.5" y="-7.5" font-family="Helvetica,sans-Serif" font-size="10.00">+ print()</text>
</a>
</g>
</g>
<!-- Node4 -->
<g id="node2" class="node"><title>Node4</title>
<g id="a_node2"><a xlink:href="classpartition_1_1_partition.html" target="_top" xlink:title="Definition of the abstract class Partition, to build a cluster of a dataset.">
<polygon fill="white" stroke="black" points="21,-277 21,-455 131,-455 131,-277 21,-277"/>
<text text-anchor="start" x="29" y="-443" font-family="Helvetica,sans-Serif" font-size="10.00">partition::Partition</text>
<text text-anchor="middle" x="76" y="-432" font-family="Helvetica,sans-Serif" font-size="10.00">&lt; T_CLUSTERIDX &gt;</text>
<polyline fill="none" stroke="black" points="21,-425 131,-425 "/>
<text text-anchor="middle" x="76" y="-413" font-family="Helvetica,sans-Serif" font-size="10.00"> </text>
<polyline fill="none" stroke="black" points="21,-406 131,-406 "/>
<text text-anchor="start" x="29" y="-394" font-family="Helvetica,sans-Serif" font-size="10.00">+ Partition()</text>
<text text-anchor="start" x="29" y="-383" font-family="Helvetica,sans-Serif" font-size="10.00">+ Partition()</text>
<text text-anchor="start" x="29" y="-372" font-family="Helvetica,sans-Serif" font-size="10.00">+ Partition()</text>
<text text-anchor="start" x="29" y="-361" font-family="Helvetica,sans-Serif" font-size="10.00">+ ~Partition()</text>
<text text-anchor="start" x="29" y="-350" font-family="Helvetica,sans-Serif" font-size="10.00">+ getClusterIdx()</text>
<text text-anchor="start" x="29" y="-339" font-family="Helvetica,sans-Serif" font-size="10.00">+ begin()</text>
<text text-anchor="start" x="29" y="-328" font-family="Helvetica,sans-Serif" font-size="10.00">+ next()</text>
<text text-anchor="start" x="29" y="-317" font-family="Helvetica,sans-Serif" font-size="10.00">+ end()</text>
<text text-anchor="start" x="29" y="-306" font-family="Helvetica,sans-Serif" font-size="10.00">+ getNumInstances()</text>
<text text-anchor="start" x="29" y="-295" font-family="Helvetica,sans-Serif" font-size="10.00">+ getNumCluster()</text>
<text text-anchor="start" x="29" y="-284" font-family="Helvetica,sans-Serif" font-size="10.00">+ print()</text>
</a>
</g>
</g>
<!-- Node4&#45;&gt;Node3 -->
<g id="edge1" class="edge"><title>Node4&#45;&gt;Node3</title>
<path fill="none" stroke="midnightblue" d="M120.172,-267.163C126.775,-252.539 133.62,-237.378 140.327,-222.521"/>
<polygon fill="none" stroke="midnightblue" points="116.797,-266.133 115.872,-276.688 123.177,-269.014 116.797,-266.133"/>
</g>
<!-- Node5 -->
<g id="node3" class="node"><title>Node5</title>
<g id="a_node3"><a xlink:href="classds_1_1_disj_sets.html" target="_top" xlink:title="Disjoint&#45;set.">
<polygon fill="white" stroke="black" points="149.5,-260.5 149.5,-471.5 230.5,-471.5 230.5,-260.5 149.5,-260.5"/>
<text text-anchor="middle" x="190" y="-459.5" font-family="Helvetica,sans-Serif" font-size="10.00">ds::DisjSets</text>
<polyline fill="none" stroke="black" points="149.5,-452.5 230.5,-452.5 "/>
<text text-anchor="start" x="157.5" y="-440.5" font-family="Helvetica,sans-Serif" font-size="10.00"># _m</text>
<polyline fill="none" stroke="black" points="149.5,-433.5 230.5,-433.5 "/>
<text text-anchor="start" x="157.5" y="-421.5" font-family="Helvetica,sans-Serif" font-size="10.00">+ DisjSets()</text>
<text text-anchor="start" x="157.5" y="-410.5" font-family="Helvetica,sans-Serif" font-size="10.00">+ DisjSets()</text>
<text text-anchor="start" x="157.5" y="-399.5" font-family="Helvetica,sans-Serif" font-size="10.00">+ DisjSets()</text>
<text text-anchor="start" x="157.5" y="-388.5" font-family="Helvetica,sans-Serif" font-size="10.00">+ DisjSets()</text>
<text text-anchor="start" x="157.5" y="-377.5" font-family="Helvetica,sans-Serif" font-size="10.00">+ ~ DisjSets()</text>
<text text-anchor="start" x="157.5" y="-366.5" font-family="Helvetica,sans-Serif" font-size="10.00">+ operator=()</text>
<text text-anchor="start" x="157.5" y="-355.5" font-family="Helvetica,sans-Serif" font-size="10.00">+ operator=()</text>
<text text-anchor="start" x="157.5" y="-344.5" font-family="Helvetica,sans-Serif" font-size="10.00">+ make_set()</text>
<text text-anchor="start" x="157.5" y="-333.5" font-family="Helvetica,sans-Serif" font-size="10.00">+ find()</text>
<text text-anchor="start" x="157.5" y="-322.5" font-family="Helvetica,sans-Serif" font-size="10.00">+ constfind()</text>
<text text-anchor="start" x="157.5" y="-311.5" font-family="Helvetica,sans-Serif" font-size="10.00">+ merge()</text>
<text text-anchor="start" x="157.5" y="-300.5" font-family="Helvetica,sans-Serif" font-size="10.00">+ getNumSet()</text>
<text text-anchor="start" x="157.5" y="-289.5" font-family="Helvetica,sans-Serif" font-size="10.00">+ size()</text>
<text text-anchor="start" x="157.5" y="-278.5" font-family="Helvetica,sans-Serif" font-size="10.00">+ print()</text>
<text text-anchor="start" x="157.5" y="-267.5" font-family="Helvetica,sans-Serif" font-size="10.00">&#45; link()</text>
</a>
</g>
</g>
<!-- Node5&#45;&gt;Node3 -->
<g id="edge2" class="edge"><title>Node5&#45;&gt;Node3</title>
<path fill="none" stroke="midnightblue" d="M190,-250.182C190,-241.024 190,-231.786 190,-222.662"/>
<polygon fill="none" stroke="midnightblue" points="186.5,-250.476 190,-260.476 193.5,-250.476 186.5,-250.476"/>
</g>
<!-- Node6 -->
<g id="node4" class="node"><title>Node6</title>
<g id="a_node4"><a xlink:title=" ">
<polygon fill="white" stroke="#bfbfbf" points="0,-525 0,-582 110,-582 110,-525 0,-525"/>
<text text-anchor="middle" x="55" y="-570" font-family="Helvetica,sans-Serif" font-size="10.00">std::vector&lt; uintidx &gt;</text>
<polyline fill="none" stroke="#bfbfbf" points="0,-563 110,-563 "/>
<text text-anchor="start" x="8" y="-551" font-family="Helvetica,sans-Serif" font-size="10.00">+ elements</text>
<polyline fill="none" stroke="#bfbfbf" points="0,-544 110,-544 "/>
<text text-anchor="middle" x="55" y="-532" font-family="Helvetica,sans-Serif" font-size="10.00"> </text>
</a>
</g>
</g>
<!-- Node6&#45;&gt;Node5 -->
<g id="edge3" class="edge"><title>Node6&#45;&gt;Node5</title>
<path fill="none" stroke="#404040" d="M72.716,-524.692C81.1648,-512.951 92.0388,-499.767 104,-490 117.856,-478.686 127.473,-484.77 140,-472 140.406,-471.586 140.81,-471.167 141.211,-470.745"/>
<polygon fill="none" stroke="#404040" points="141.425,-470.495 142.281,-463.335 149.22,-461.371 148.364,-468.531 141.425,-470.495"/>
<text text-anchor="middle" x="145" y="-493" font-family="Helvetica,sans-Serif" font-size="10.00"> #_vectorst_parent</text>
</g>
<!-- Node7 -->
<g id="node5" class="node"><title>Node7</title>
<g id="a_node5"><a xlink:title="STL class.">
<polygon fill="white" stroke="#bfbfbf" points="107.5,-635.5 107.5,-692.5 196.5,-692.5 196.5,-635.5 107.5,-635.5"/>
<text text-anchor="middle" x="152" y="-680.5" font-family="Helvetica,sans-Serif" font-size="10.00">std::vector&lt; T &gt;</text>
<polyline fill="none" stroke="#bfbfbf" points="107.5,-673.5 196.5,-673.5 "/>
<text text-anchor="middle" x="152" y="-661.5" font-family="Helvetica,sans-Serif" font-size="10.00"> </text>
<polyline fill="none" stroke="#bfbfbf" points="107.5,-654.5 196.5,-654.5 "/>
<text text-anchor="middle" x="152" y="-642.5" font-family="Helvetica,sans-Serif" font-size="10.00"> </text>
</a>
</g>
</g>
<!-- Node7&#45;&gt;Node6 -->
<g id="edge4" class="edge"><title>Node7&#45;&gt;Node6</title>
<path fill="none" stroke="orange" d="M120.546,-627.817C107.297,-612.997 92.1039,-596.003 79.683,-582.109"/>
<polygon fill="orange" stroke="orange" points="117.998,-630.218 127.272,-635.34 123.216,-625.552 117.998,-630.218"/>
<text text-anchor="middle" x="135" y="-609" font-family="Helvetica,sans-Serif" font-size="10.00"> &lt; uintidx &gt;</text>
</g>
<!-- Node9 -->
<g id="node7" class="node"><title>Node9</title>
<g id="a_node7"><a xlink:title=" ">
<polygon fill="white" stroke="#bfbfbf" points="128.5,-525 128.5,-582 251.5,-582 251.5,-525 128.5,-525"/>
<text text-anchor="middle" x="190" y="-570" font-family="Helvetica,sans-Serif" font-size="10.00">std::vector&lt; unsigned &gt;</text>
<polyline fill="none" stroke="#bfbfbf" points="128.5,-563 251.5,-563 "/>
<text text-anchor="start" x="136.5" y="-551" font-family="Helvetica,sans-Serif" font-size="10.00">+ elements</text>
<polyline fill="none" stroke="#bfbfbf" points="128.5,-544 251.5,-544 "/>
<text text-anchor="middle" x="190" y="-532" font-family="Helvetica,sans-Serif" font-size="10.00"> </text>
</a>
</g>
</g>
<!-- Node7&#45;&gt;Node9 -->
<g id="edge7" class="edge"><title>Node7&#45;&gt;Node9</title>
<path fill="none" stroke="orange" d="M165.041,-625.764C170.056,-611.445 175.688,-595.365 180.33,-582.109"/>
<polygon fill="orange" stroke="orange" points="161.69,-624.745 161.687,-635.34 168.296,-627.059 161.69,-624.745"/>
<text text-anchor="middle" x="202.5" y="-609" font-family="Helvetica,sans-Serif" font-size="10.00"> &lt; unsigned &gt;</text>
</g>
<!-- Node8 -->
<g id="node6" class="node"><title>Node8</title>
<g id="a_node6"><a xlink:title=" ">
<polygon fill="white" stroke="#bfbfbf" points="174.5,-740.5 174.5,-797.5 203.5,-797.5 203.5,-740.5 174.5,-740.5"/>
<text text-anchor="middle" x="189" y="-785.5" font-family="Helvetica,sans-Serif" font-size="10.00">T</text>
<polyline fill="none" stroke="#bfbfbf" points="174.5,-778.5 203.5,-778.5 "/>
<text text-anchor="middle" x="189" y="-766.5" font-family="Helvetica,sans-Serif" font-size="10.00"> </text>
<polyline fill="none" stroke="#bfbfbf" points="174.5,-759.5 203.5,-759.5 "/>
<text text-anchor="middle" x="189" y="-747.5" font-family="Helvetica,sans-Serif" font-size="10.00"> </text>
</a>
</g>
</g>
<!-- Node8&#45;&gt;Node7 -->
<g id="edge5" class="edge"><title>Node8&#45;&gt;Node7</title>
<path fill="none" stroke="#404040" d="M174.254,-754.176C166.339,-745.734 157.339,-734.234 153,-722 151.055,-716.517 149.951,-710.546 149.404,-704.602"/>
<polygon fill="none" stroke="#404040" points="149.404,-704.592 145.19,-698.74 148.972,-692.6 153.185,-698.452 149.404,-704.592"/>
<text text-anchor="middle" x="178.5" y="-714" font-family="Helvetica,sans-Serif" font-size="10.00"> +elements</text>
</g>
<!-- Node12 -->
<g id="node10" class="node"><title>Node12</title>
<g id="a_node10"><a xlink:title="STL class.">
<polygon fill="white" stroke="#bfbfbf" points="234,-635.5 234,-692.5 328,-692.5 328,-635.5 234,-635.5"/>
<text text-anchor="middle" x="281" y="-680.5" font-family="Helvetica,sans-Serif" font-size="10.00">std::map&lt; K, T &gt;</text>
<polyline fill="none" stroke="#bfbfbf" points="234,-673.5 328,-673.5 "/>
<text text-anchor="middle" x="281" y="-661.5" font-family="Helvetica,sans-Serif" font-size="10.00"> </text>
<polyline fill="none" stroke="#bfbfbf" points="234,-654.5 328,-654.5 "/>
<text text-anchor="middle" x="281" y="-642.5" font-family="Helvetica,sans-Serif" font-size="10.00"> </text>
</a>
</g>
</g>
<!-- Node8&#45;&gt;Node12 -->
<g id="edge12" class="edge"><title>Node8&#45;&gt;Node12</title>
<path fill="none" stroke="#404040" d="M203.634,-748.841C212.439,-737.578 224.034,-723.2 235,-711 237.803,-707.882 240.76,-704.7 243.769,-701.54"/>
<polygon fill="none" stroke="#404040" points="243.935,-701.368 245.245,-694.277 252.294,-692.758 250.985,-699.849 243.935,-701.368"/>
<text text-anchor="middle" x="260.5" y="-714" font-family="Helvetica,sans-Serif" font-size="10.00"> +elements</text>
</g>
<!-- Node9&#45;&gt;Node5 -->
<g id="edge6" class="edge"><title>Node9&#45;&gt;Node5</title>
<path fill="none" stroke="#404040" d="M190,-524.729C190,-513.245 190,-499.089 190,-484.014"/>
<polygon fill="none" stroke="#404040" points="190,-483.761 186,-477.761 190,-471.761 194,-477.761 190,-483.761"/>
<text text-anchor="middle" x="227" y="-493" font-family="Helvetica,sans-Serif" font-size="10.00"> #_vectorui_rank</text>
</g>
<!-- Node10 -->
<g id="node8" class="node"><title>Node10</title>
<g id="a_node8"><a xlink:title=" ">
<polygon fill="white" stroke="#bfbfbf" points="270,-519.5 270,-587.5 374,-587.5 374,-519.5 270,-519.5"/>
<text text-anchor="start" x="278" y="-575.5" font-family="Helvetica,sans-Serif" font-size="10.00">std::map&lt; uintidx,</text>
<text text-anchor="middle" x="322" y="-564.5" font-family="Helvetica,sans-Serif" font-size="10.00"> T_CLUSTERIDX &gt;</text>
<polyline fill="none" stroke="#bfbfbf" points="270,-557.5 374,-557.5 "/>
<text text-anchor="start" x="278" y="-545.5" font-family="Helvetica,sans-Serif" font-size="10.00">+ keys</text>
<polyline fill="none" stroke="#bfbfbf" points="270,-538.5 374,-538.5 "/>
<text text-anchor="middle" x="322" y="-526.5" font-family="Helvetica,sans-Serif" font-size="10.00"> </text>
</a>
</g>
</g>
<!-- Node10&#45;&gt;Node3 -->
<g id="edge8" class="edge"><title>Node10&#45;&gt;Node3</title>
<path fill="none" stroke="#404040" d="M313.137,-519.461C298.446,-465.125 267.807,-353.585 239,-260 236.406,-251.572 233.675,-242.892 230.886,-234.162"/>
<polygon fill="none" stroke="#404040" points="230.865,-234.097 225.22,-229.61 227.191,-222.674 232.836,-227.161 230.865,-234.097"/>
<text text-anchor="middle" x="343.5" y="-363.5" font-family="Helvetica,sans-Serif" font-size="10.00"> #_mapset_clusterk</text>
</g>
<!-- Node11 -->
<g id="node9" class="node"><title>Node11</title>
<g id="a_node9"><a xlink:title=" ">
<polygon fill="white" stroke="#bfbfbf" points="390,-635.5 390,-692.5 482,-692.5 482,-635.5 390,-635.5"/>
<text text-anchor="middle" x="436" y="-680.5" font-family="Helvetica,sans-Serif" font-size="10.00">T_CLUSTERIDX</text>
<polyline fill="none" stroke="#bfbfbf" points="390,-673.5 482,-673.5 "/>
<text text-anchor="middle" x="436" y="-661.5" font-family="Helvetica,sans-Serif" font-size="10.00"> </text>
<polyline fill="none" stroke="#bfbfbf" points="390,-654.5 482,-654.5 "/>
<text text-anchor="middle" x="436" y="-642.5" font-family="Helvetica,sans-Serif" font-size="10.00"> </text>
</a>
</g>
</g>
<!-- Node11&#45;&gt;Node10 -->
<g id="edge9" class="edge"><title>Node11&#45;&gt;Node10</title>
<path fill="none" stroke="#404040" d="M429.587,-635.393C426.214,-625.304 421.228,-614.334 414,-606 405.821,-596.568 395.47,-588.507 384.684,-581.755"/>
<polygon fill="none" stroke="#404040" points="384.634,-581.726 377.436,-582.159 374.268,-575.681 381.466,-575.248 384.634,-581.726"/>
<text text-anchor="middle" x="447.5" y="-609" font-family="Helvetica,sans-Serif" font-size="10.00"> +elements</text>
</g>
<!-- Node12&#45;&gt;Node10 -->
<g id="edge10" class="edge"><title>Node12&#45;&gt;Node10</title>
<path fill="none" stroke="orange" d="M278.268,-625.281C278.745,-618.722 279.862,-612.064 282,-606 284.259,-599.594 287.656,-593.362 291.534,-587.574"/>
<polygon fill="orange" stroke="orange" points="274.766,-625.315 277.991,-635.407 281.763,-625.506 274.766,-625.315"/>
<text text-anchor="middle" x="348" y="-609" font-family="Helvetica,sans-Serif" font-size="10.00"> &lt; uintidx, T_CLUSTERIDX &gt;</text>
</g>
<!-- Node13 -->
<g id="node11" class="node"><title>Node13</title>
<g id="a_node11"><a xlink:title=" ">
<polygon fill="white" stroke="#bfbfbf" points="285.5,-740.5 285.5,-797.5 314.5,-797.5 314.5,-740.5 285.5,-740.5"/>
<text text-anchor="middle" x="300" y="-785.5" font-family="Helvetica,sans-Serif" font-size="10.00">K</text>
<polyline fill="none" stroke="#bfbfbf" points="285.5,-778.5 314.5,-778.5 "/>
<text text-anchor="middle" x="300" y="-766.5" font-family="Helvetica,sans-Serif" font-size="10.00"> </text>
<polyline fill="none" stroke="#bfbfbf" points="285.5,-759.5 314.5,-759.5 "/>
<text text-anchor="middle" x="300" y="-747.5" font-family="Helvetica,sans-Serif" font-size="10.00"> </text>
</a>
</g>
</g>
<!-- Node13&#45;&gt;Node12 -->
<g id="edge11" class="edge"><title>Node13&#45;&gt;Node12</title>
<path fill="none" stroke="#404040" d="M294.908,-740.398C292.885,-729.43 290.519,-716.603 288.318,-704.672"/>
<polygon fill="none" stroke="#404040" points="288.283,-704.479 283.261,-699.304 286.106,-692.678 291.128,-697.853 288.283,-704.479"/>
<text text-anchor="middle" x="307.5" y="-714" font-family="Helvetica,sans-Serif" font-size="10.00"> +keys</text>
</g>
</g>
</svg>
        <g id="navigator" transform="translate(0 0)" fill="#404254">
                <rect fill="#f2f5e9" fill-opacity="0.5" stroke="#606060" stroke-width=".5" x="0" y="0" width="60" height="60"/>
                <use id="zoomplus" xlink:href="#zoomPlus" x="17" y="9" onmousedown="handleZoom(evt,'in')"/>
                <use id="zoomminus" xlink:href="#zoomMin" x="42" y="9" onmousedown="handleZoom(evt,'out')"/>
                <use id="reset" xlink:href="#resetDef" x="30" y="36" onmousedown="handleReset()"/>
                <g id="arrowUp" xlink:href="#dirArrow" transform="translate(30 24)" onmousedown="handlePan(0,-1)">
                  <use xlink:href="#rim" fill="#404040">
                        <set attributeName="fill" to="#808080" begin="arrowUp.mouseover" end="arrowUp.mouseout"/>
                  </use>
                  <path fill="none" stroke="white" stroke-width="1.5" d="M0,-3.0v7 M-2.5,-0.5L0,-3.0L2.5,-0.5"/>
                </g>
                <g id="arrowRight" xlink:href="#dirArrow" transform="rotate(90) translate(36 -43)" onmousedown="handlePan(1,0)">
                  <use xlink:href="#rim" fill="#404040">
                        <set attributeName="fill" to="#808080" begin="arrowRight.mouseover" end="arrowRight.mouseout"/>
                  </use>
                  <path fill="none" stroke="white" stroke-width="1.5" d="M0,-3.0v7 M-2.5,-0.5L0,-3.0L2.5,-0.5"/>
                </g>
                <g id="arrowDown" xlink:href="#dirArrow" transform="rotate(180) translate(-30 -48)" onmousedown="handlePan(0,1)">
                  <use xlink:href="#rim" fill="#404040">
                        <set attributeName="fill" to="#808080" begin="arrowDown.mouseover" end="arrowDown.mouseout"/>
                  </use>
                  <path fill="none" stroke="white" stroke-width="1.5" d="M0,-3.0v7 M-2.5,-0.5L0,-3.0L2.5,-0.5"/>
                </g>
                <g id="arrowLeft" xlink:href="#dirArrow" transform="rotate(270) translate(-36 17)" onmousedown="handlePan(-1,0)">
                  <use xlink:href="#rim" fill="#404040">
                        <set attributeName="fill" to="#808080" begin="arrowLeft.mouseover" end="arrowLeft.mouseout"/>
                  </use>
                  <path fill="none" stroke="white" stroke-width="1.5" d="M0,-3.0v7 M-2.5,-0.5L0,-3.0L2.5,-0.5"/>
                </g>
        </g>
        <svg viewBox="0 0 15 15" width="100%" height="30px" preserveAspectRatio="xMaxYMin meet">
         <g id="arrow_out" transform="scale(0.3 0.3)">
          <a xlink:href="classpartition_1_1_partition_disj_sets__coll__graph_org.svg" target="_base">
           <rect id="button" ry="5" rx="5" y="6" x="6" height="38" width="38"
                fill="#f2f5e9" fill-opacity="0.5" stroke="#606060" stroke-width="1.0"/>
           <path id="arrow"
             d="M 11.500037,31.436501 C 11.940474,20.09759 22.043105,11.32322 32.158766,21.979434 L 37.068811,17.246167 C 37.068811,17.246167 37.088388,32 37.088388,32 L 22.160133,31.978069 C 22.160133,31.978069 26.997745,27.140456 26.997745,27.140456 C 18.528582,18.264221 13.291696,25.230495 11.500037,31.436501 z"
             style="fill:#404040;"/>
          </a>
         </g>
        </svg>
</svg>
