<?xml version="1.0" encoding="UTF-8" standalone="no"?>
<!DOCTYPE svg PUBLIC "-//W3C//DTD SVG 1.1//EN"
 "http://www.w3.org/Graphics/SVG/1.1/DTD/svg11.dtd">
<!-- Generated by graphviz version 2.38.0 (20140413.2041)
 -->
<!-- Title: inout::InParamGCA&lt; T_CLUSTERIDX, T_INSTANCEIDX, T_REAL, T_FEATURE, T_FEATURE_SUM, T_INSTANCES_CLUSTER_K &gt; Pages: 1 -->
<svg width="568pt" height="1520pt"
 viewBox="0.00 0.00 567.50 1520.00" xmlns="http://www.w3.org/2000/svg" xmlns:xlink="http://www.w3.org/1999/xlink">
<g id="graph0" class="graph" transform="scale(1 1) rotate(0) translate(4 1516)">
<title>inout::InParamGCA&lt; T_CLUSTERIDX, T_INSTANCEIDX, T_REAL, T_FEATURE, T_FEATURE_SUM, T_INSTANCES_CLUSTER_K &gt;</title>
<polygon fill="white" stroke="none" points="-4,4 -4,-1516 563.5,-1516 563.5,4 -4,4"/>
<!-- Node9 -->
<g id="node1" class="node"><title>Node9</title>
<g id="a_node1"><a xlink:title="Input parameter for GCA algorithm k&#45;medoid clustering .">
<polygon fill="#bfbfbf" stroke="black" points="151.5,-0.5 151.5,-134.5 343.5,-134.5 343.5,-0.5 151.5,-0.5"/>
<text text-anchor="start" x="159.5" y="-122.5" font-family="Helvetica,sans-Serif" font-size="10.00">inout::InParamGCA&lt;</text>
<text text-anchor="start" x="159.5" y="-111.5" font-family="Helvetica,sans-Serif" font-size="10.00"> T_CLUSTERIDX, T_INSTANCEIDX,</text>
<text text-anchor="start" x="159.5" y="-100.5" font-family="Helvetica,sans-Serif" font-size="10.00"> T_REAL, T_FEATURE, T_FEATURE</text>
<text text-anchor="middle" x="247.5" y="-89.5" font-family="Helvetica,sans-Serif" font-size="10.00">_SUM, T_INSTANCES_CLUSTER_K &gt;</text>
<polyline fill="none" stroke="black" points="151.5,-82.5 343.5,-82.5 "/>
<text text-anchor="start" x="159.5" y="-70.5" font-family="Helvetica,sans-Serif" font-size="10.00"># t_probMixMutation</text>
<polyline fill="none" stroke="black" points="151.5,-63.5 343.5,-63.5 "/>
<text text-anchor="start" x="159.5" y="-51.5" font-family="Helvetica,sans-Serif" font-size="10.00">+ InParamGCA()</text>
<text text-anchor="start" x="159.5" y="-40.5" font-family="Helvetica,sans-Serif" font-size="10.00">+ ~InParamGCA()</text>
<text text-anchor="start" x="159.5" y="-29.5" font-family="Helvetica,sans-Serif" font-size="10.00">+ setProbMixMutation()</text>
<text text-anchor="start" x="159.5" y="-18.5" font-family="Helvetica,sans-Serif" font-size="10.00">+ getProbMixMutation()</text>
<text text-anchor="start" x="159.5" y="-7.5" font-family="Helvetica,sans-Serif" font-size="10.00">+ print()</text>
</a>
</g>
</g>
<!-- Node10 -->
<g id="node2" class="node"><title>Node10</title>
<g id="a_node2"><a xlink:href="classinout_1_1_in_param_pc_pm_fk.html" target="_top" xlink:title="Input parameter for GA with probability Pc, Pm and Fixed K.">
<polygon fill="white" stroke="black" points="161,-172.5 161,-284.5 334,-284.5 334,-172.5 161,-172.5"/>
<text text-anchor="start" x="169" y="-272.5" font-family="Helvetica,sans-Serif" font-size="10.00">inout::InParamPcPmFk</text>
<text text-anchor="start" x="169" y="-261.5" font-family="Helvetica,sans-Serif" font-size="10.00">&lt; T_CLUSTERIDX, T_REAL,</text>
<text text-anchor="start" x="169" y="-250.5" font-family="Helvetica,sans-Serif" font-size="10.00"> T_FEATURE, T_FEATURE_SUM,</text>
<text text-anchor="middle" x="247.5" y="-239.5" font-family="Helvetica,sans-Serif" font-size="10.00"> T_INSTANCES_CLUSTER_K &gt;</text>
<polyline fill="none" stroke="black" points="161,-232.5 334,-232.5 "/>
<text text-anchor="middle" x="247.5" y="-220.5" font-family="Helvetica,sans-Serif" font-size="10.00"> </text>
<polyline fill="none" stroke="black" points="161,-213.5 334,-213.5 "/>
<text text-anchor="start" x="169" y="-201.5" font-family="Helvetica,sans-Serif" font-size="10.00">+ InParamPcPmFk()</text>
<text text-anchor="start" x="169" y="-190.5" font-family="Helvetica,sans-Serif" font-size="10.00">+ ~InParamPcPmFk()</text>
<text text-anchor="start" x="169" y="-179.5" font-family="Helvetica,sans-Serif" font-size="10.00">+ print()</text>
</a>
</g>
</g>
<!-- Node10&#45;&gt;Node9 -->
<g id="edge1" class="edge"><title>Node10&#45;&gt;Node9</title>
<path fill="none" stroke="midnightblue" d="M247.5,-162.166C247.5,-153.039 247.5,-143.653 247.5,-134.513"/>
<polygon fill="none" stroke="midnightblue" points="244,-162.336 247.5,-172.336 251,-162.336 244,-162.336"/>
</g>
<!-- Node11 -->
<g id="node3" class="node"><title>Node11</title>
<g id="a_node3"><a xlink:href="classinout_1_1_in_param_pc_pm.html" target="_top" xlink:title="Input parameter for GA with probability crossover (Pc) and mutation (Pm)">
<polygon fill="white" stroke="black" points="58.5,-322.5 58.5,-467.5 172.5,-467.5 172.5,-322.5 58.5,-322.5"/>
<text text-anchor="start" x="66.5" y="-455.5" font-family="Helvetica,sans-Serif" font-size="10.00">inout::InParamPcPm</text>
<text text-anchor="middle" x="115.5" y="-444.5" font-family="Helvetica,sans-Serif" font-size="10.00">&lt; T_REAL &gt;</text>
<polyline fill="none" stroke="black" points="58.5,-437.5 172.5,-437.5 "/>
<text text-anchor="start" x="66.5" y="-425.5" font-family="Helvetica,sans-Serif" font-size="10.00"># t_probCrossover</text>
<text text-anchor="start" x="66.5" y="-414.5" font-family="Helvetica,sans-Serif" font-size="10.00"># t_probMutation</text>
<polyline fill="none" stroke="black" points="58.5,-407.5 172.5,-407.5 "/>
<text text-anchor="start" x="66.5" y="-395.5" font-family="Helvetica,sans-Serif" font-size="10.00">+ InParamPcPm()</text>
<text text-anchor="start" x="66.5" y="-384.5" font-family="Helvetica,sans-Serif" font-size="10.00">+ ~InParamPcPm()</text>
<text text-anchor="start" x="66.5" y="-373.5" font-family="Helvetica,sans-Serif" font-size="10.00">+ setProbCrossover()</text>
<text text-anchor="start" x="66.5" y="-362.5" font-family="Helvetica,sans-Serif" font-size="10.00">+ getProbCrossover()</text>
<text text-anchor="start" x="66.5" y="-351.5" font-family="Helvetica,sans-Serif" font-size="10.00">+ setProbMutation()</text>
<text text-anchor="start" x="66.5" y="-340.5" font-family="Helvetica,sans-Serif" font-size="10.00">+ getProbMutation()</text>
<text text-anchor="start" x="66.5" y="-329.5" font-family="Helvetica,sans-Serif" font-size="10.00">+ print()</text>
</a>
</g>
</g>
<!-- Node11&#45;&gt;Node10 -->
<g id="edge2" class="edge"><title>Node11&#45;&gt;Node10</title>
<path fill="none" stroke="midnightblue" d="M179.096,-314.746C187.183,-304.667 195.319,-294.528 203.016,-284.936"/>
<polygon fill="none" stroke="midnightblue" points="176.158,-312.815 172.629,-322.805 181.618,-317.196 176.158,-312.815"/>
</g>
<!-- Node12 -->
<g id="node4" class="node"><title>Node12</title>
<g id="a_node4"><a xlink:href="classinout_1_1_in_param_g_a_clustering.html" target="_top" xlink:title="Input parameter for genetic algorithm.">
<polygon fill="white" stroke="black" points="45,-505.5 45,-639.5 186,-639.5 186,-505.5 45,-505.5"/>
<text text-anchor="middle" x="115.5" y="-627.5" font-family="Helvetica,sans-Serif" font-size="10.00">inout::InParamGAClustering</text>
<polyline fill="none" stroke="black" points="45,-620.5 186,-620.5 "/>
<text text-anchor="start" x="53" y="-608.5" font-family="Helvetica,sans-Serif" font-size="10.00"># st_sizePopulation</text>
<text text-anchor="start" x="53" y="-597.5" font-family="Helvetica,sans-Serif" font-size="10.00"># t_numMaxGenerations</text>
<polyline fill="none" stroke="black" points="45,-590.5 186,-590.5 "/>
<text text-anchor="start" x="53" y="-578.5" font-family="Helvetica,sans-Serif" font-size="10.00">+ InParamGAClustering()</text>
<text text-anchor="start" x="53" y="-567.5" font-family="Helvetica,sans-Serif" font-size="10.00">+ ~InParamGAClustering()</text>
<text text-anchor="start" x="53" y="-556.5" font-family="Helvetica,sans-Serif" font-size="10.00">+ setNumMaxGenerations()</text>
<text text-anchor="start" x="53" y="-545.5" font-family="Helvetica,sans-Serif" font-size="10.00">+ getNumMaxGenerations()</text>
<text text-anchor="start" x="53" y="-534.5" font-family="Helvetica,sans-Serif" font-size="10.00">+ setSizePopulation()</text>
<text text-anchor="start" x="53" y="-523.5" font-family="Helvetica,sans-Serif" font-size="10.00">+ getSizePopulation()</text>
<text text-anchor="start" x="53" y="-512.5" font-family="Helvetica,sans-Serif" font-size="10.00">+ print()</text>
</a>
</g>
</g>
<!-- Node12&#45;&gt;Node11 -->
<g id="edge3" class="edge"><title>Node12&#45;&gt;Node11</title>
<path fill="none" stroke="midnightblue" d="M115.5,-495.007C115.5,-485.942 115.5,-476.714 115.5,-467.719"/>
<polygon fill="none" stroke="midnightblue" points="112,-495.151 115.5,-505.151 119,-495.151 112,-495.151"/>
</g>
<!-- Node13 -->
<g id="node5" class="node"><title>Node13</title>
<g id="a_node5"><a xlink:href="classinout_1_1_in_param_clustering.html" target="_top" xlink:title="Input parameter for clustering algorithm.">
<polygon fill="white" stroke="black" points="24.5,-710.5 24.5,-965.5 206.5,-965.5 206.5,-710.5 24.5,-710.5"/>
<text text-anchor="middle" x="115.5" y="-953.5" font-family="Helvetica,sans-Serif" font-size="10.00">inout::InParamClustering</text>
<polyline fill="none" stroke="black" points="24.5,-946.5 206.5,-946.5 "/>
<text text-anchor="start" x="32.5" y="-934.5" font-family="Helvetica,sans-Serif" font-size="10.00"># i_opDistance</text>
<text text-anchor="start" x="32.5" y="-923.5" font-family="Helvetica,sans-Serif" font-size="10.00"># ps_outFileCentroids</text>
<text text-anchor="start" x="32.5" y="-912.5" font-family="Helvetica,sans-Serif" font-size="10.00"># ps_outFileMemberShip</text>
<text text-anchor="start" x="32.5" y="-901.5" font-family="Helvetica,sans-Serif" font-size="10.00"># ps_outFilePartitionsTable</text>
<text text-anchor="start" x="32.5" y="-890.5" font-family="Helvetica,sans-Serif" font-size="10.00"># ps_outFileGraph</text>
<text text-anchor="start" x="32.5" y="-879.5" font-family="Helvetica,sans-Serif" font-size="10.00"># ps_fileNamePlotStatObjetiveFunc</text>
<text text-anchor="start" x="32.5" y="-868.5" font-family="Helvetica,sans-Serif" font-size="10.00"># _rd_maxExecutiontime</text>
<text text-anchor="start" x="32.5" y="-857.5" font-family="Helvetica,sans-Serif" font-size="10.00"># _b_printCentroidsFormat</text>
<text text-anchor="start" x="32.5" y="-846.5" font-family="Helvetica,sans-Serif" font-size="10.00"># _b_printTableFormat</text>
<polyline fill="none" stroke="black" points="24.5,-839.5 206.5,-839.5 "/>
<text text-anchor="start" x="32.5" y="-827.5" font-family="Helvetica,sans-Serif" font-size="10.00">+ InParamClustering()</text>
<text text-anchor="start" x="32.5" y="-816.5" font-family="Helvetica,sans-Serif" font-size="10.00">+ ~InParamClustering()</text>
<text text-anchor="start" x="32.5" y="-805.5" font-family="Helvetica,sans-Serif" font-size="10.00">+ getFileNamePlotStatObjetiveFunc()</text>
<text text-anchor="start" x="32.5" y="-794.5" font-family="Helvetica,sans-Serif" font-size="10.00">+ getWithPlotStatObjetiveFunc()</text>
<text text-anchor="start" x="32.5" y="-783.5" font-family="Helvetica,sans-Serif" font-size="10.00">+ setFileNamePlotStatObjetiveFunc()</text>
<text text-anchor="start" x="32.5" y="-772.5" font-family="Helvetica,sans-Serif" font-size="10.00">+ setOutFileMemberShip()</text>
<text text-anchor="start" x="32.5" y="-761.5" font-family="Helvetica,sans-Serif" font-size="10.00">+ getOutFileMemberShip()</text>
<text text-anchor="start" x="32.5" y="-750.5" font-family="Helvetica,sans-Serif" font-size="10.00">+ setRandomSeed()</text>
<text text-anchor="start" x="32.5" y="-739.5" font-family="Helvetica,sans-Serif" font-size="10.00">+ setRandomSeed()</text>
<text text-anchor="start" x="32.5" y="-728.5" font-family="Helvetica,sans-Serif" font-size="10.00">+ getRandomSeed()</text>
<text text-anchor="start" x="32.5" y="-717.5" font-family="Helvetica,sans-Serif" font-size="10.00">and 15 more...</text>
</a>
</g>
</g>
<!-- Node13&#45;&gt;Node12 -->
<g id="edge4" class="edge"><title>Node13&#45;&gt;Node12</title>
<path fill="none" stroke="midnightblue" d="M115.5,-700.258C115.5,-679.202 115.5,-658.315 115.5,-639.755"/>
<polygon fill="none" stroke="midnightblue" points="112,-700.267 115.5,-710.267 119,-700.267 112,-700.267"/>
</g>
<!-- Node14 -->
<g id="node6" class="node"><title>Node14</title>
<g id="a_node6"><a xlink:href="classinout_1_1_in_param_algorithmo.html" target="_top" xlink:title="Input parameter for define propertys of the algorithmos.">
<polygon fill="white" stroke="black" points="0,-1057.5 0,-1257.5 135,-1257.5 135,-1057.5 0,-1057.5"/>
<text text-anchor="middle" x="67.5" y="-1245.5" font-family="Helvetica,sans-Serif" font-size="10.00">inout::InParamAlgorithmo</text>
<polyline fill="none" stroke="black" points="0,-1238.5 135,-1238.5 "/>
<text text-anchor="start" x="8" y="-1226.5" font-family="Helvetica,sans-Serif" font-size="10.00"># ato_algTypeOut</text>
<text text-anchor="start" x="8" y="-1215.5" font-family="Helvetica,sans-Serif" font-size="10.00"># ps_fileNameTimesRun</text>
<text text-anchor="start" x="8" y="-1204.5" font-family="Helvetica,sans-Serif" font-size="10.00"># b_progressBarPrinting</text>
<text text-anchor="start" x="8" y="-1193.5" font-family="Helvetica,sans-Serif" font-size="10.00"># i_timesRunAlgorithm</text>
<polyline fill="none" stroke="black" points="0,-1186.5 135,-1186.5 "/>
<text text-anchor="start" x="8" y="-1174.5" font-family="Helvetica,sans-Serif" font-size="10.00">+ InParamAlgorithmo()</text>
<text text-anchor="start" x="8" y="-1163.5" font-family="Helvetica,sans-Serif" font-size="10.00">+ ~InParamAlgorithmo()</text>
<text text-anchor="start" x="8" y="-1152.5" font-family="Helvetica,sans-Serif" font-size="10.00">+ errorArgument()</text>
<text text-anchor="start" x="8" y="-1141.5" font-family="Helvetica,sans-Serif" font-size="10.00">+ isYesNo()</text>
<text text-anchor="start" x="8" y="-1130.5" font-family="Helvetica,sans-Serif" font-size="10.00">+ setFileNameTimesRun()</text>
<text text-anchor="start" x="8" y="-1119.5" font-family="Helvetica,sans-Serif" font-size="10.00">+ setProgressBarPrinting()</text>
<text text-anchor="start" x="8" y="-1108.5" font-family="Helvetica,sans-Serif" font-size="10.00">+ setTimesRunAlgorithm()</text>
<text text-anchor="start" x="8" y="-1097.5" font-family="Helvetica,sans-Serif" font-size="10.00">+ setGnuPlotCoreStyles()</text>
<text text-anchor="start" x="8" y="-1086.5" font-family="Helvetica,sans-Serif" font-size="10.00">+ getAlgorithmoAuthor()</text>
<text text-anchor="start" x="8" y="-1075.5" font-family="Helvetica,sans-Serif" font-size="10.00">+ getAlgorithmoName()</text>
<text text-anchor="start" x="8" y="-1064.5" font-family="Helvetica,sans-Serif" font-size="10.00">and 8 more...</text>
</a>
</g>
</g>
<!-- Node14&#45;&gt;Node13 -->
<g id="edge5" class="edge"><title>Node14&#45;&gt;Node13</title>
<path fill="none" stroke="midnightblue" d="M83.9981,-1047.37C87.9748,-1021.07 92.2569,-992.743 96.3436,-965.712"/>
<polygon fill="none" stroke="midnightblue" points="80.5243,-1046.94 82.4901,-1057.35 87.4456,-1047.98 80.5243,-1046.94"/>
</g>
<!-- Node15 -->
<g id="node7" class="node"><title>Node15</title>
<g id="a_node7"><a xlink:title="STL class.">
<polygon fill="white" stroke="#bfbfbf" points="209.5,-1338.5 209.5,-1395.5 269.5,-1395.5 269.5,-1338.5 209.5,-1338.5"/>
<text text-anchor="middle" x="239.5" y="-1383.5" font-family="Helvetica,sans-Serif" font-size="10.00">std::string</text>
<polyline fill="none" stroke="#bfbfbf" points="209.5,-1376.5 269.5,-1376.5 "/>
<text text-anchor="middle" x="239.5" y="-1364.5" font-family="Helvetica,sans-Serif" font-size="10.00"> </text>
<polyline fill="none" stroke="#bfbfbf" points="209.5,-1357.5 269.5,-1357.5 "/>
<text text-anchor="middle" x="239.5" y="-1345.5" font-family="Helvetica,sans-Serif" font-size="10.00"> </text>
</a>
</g>
</g>
<!-- Node15&#45;&gt;Node13 -->
<g id="edge8" class="edge"><title>Node15&#45;&gt;Node13</title>
<path fill="none" stroke="#404040" d="M219.199,-1338.13C204.944,-1317.14 186.672,-1287.1 176.5,-1258 167.298,-1231.68 147.577,-1089.38 133.038,-977.827"/>
<polygon fill="none" stroke="#404040" points="133.017,-977.662 128.277,-972.227 131.47,-965.762 136.21,-971.196 133.017,-977.662"/>
<text text-anchor="middle" x="221" y="-1155" font-family="Helvetica,sans-Serif" font-size="10.00"> #_str_randomSeed</text>
</g>
<!-- Node15&#45;&gt;Node14 -->
<g id="edge6" class="edge"><title>Node15&#45;&gt;Node14</title>
<path fill="none" stroke="#404040" d="M209.409,-1362.54C163.96,-1356.62 81.2104,-1342.93 63.5,-1320 52.3207,-1305.52 47.0968,-1287.94 45.5195,-1269.78"/>
<polygon fill="none" stroke="#404040" points="45.5193,-1269.77 41.2554,-1263.95 44.9836,-1257.78 49.2474,-1263.6 45.5193,-1269.77"/>
<text text-anchor="middle" x="113" y="-1312" font-family="Helvetica,sans-Serif" font-size="10.00"> #s_algorithmoAuthor</text>
<text text-anchor="middle" x="113" y="-1301" font-family="Helvetica,sans-Serif" font-size="10.00">#s_algorithmoName</text>
<text text-anchor="middle" x="113" y="-1290" font-family="Helvetica,sans-Serif" font-size="10.00">#s_gnuplotCoreStyles</text>
<text text-anchor="middle" x="113" y="-1279" font-family="Helvetica,sans-Serif" font-size="10.00">#_s_runTimeId</text>
</g>
<!-- Node18 -->
<g id="node10" class="node"><title>Node18</title>
<g id="a_node10"><a xlink:href="classinout_1_1_in_param_read_inst.html" target="_top" xlink:title="Input parameter for read instances.">
<polygon fill="white" stroke="black" points="247,-677.5 247,-998.5 418,-998.5 418,-677.5 247,-677.5"/>
<text text-anchor="start" x="255" y="-986.5" font-family="Helvetica,sans-Serif" font-size="10.00">inout::InParamReadInst</text>
<text text-anchor="start" x="255" y="-975.5" font-family="Helvetica,sans-Serif" font-size="10.00">&lt; T_FEATURE, T_INSTANCES</text>
<text text-anchor="middle" x="332.5" y="-964.5" font-family="Helvetica,sans-Serif" font-size="10.00">_CLUSTER_K, T_CLUSTERIDX &gt;</text>
<polyline fill="none" stroke="black" points="247,-957.5 418,-957.5 "/>
<text text-anchor="start" x="255" y="-945.5" font-family="Helvetica,sans-Serif" font-size="10.00"># _ui_idxCurrentFileInstance</text>
<text text-anchor="start" x="255" y="-934.5" font-family="Helvetica,sans-Serif" font-size="10.00"># _enum_formatInstanceFile</text>
<text text-anchor="start" x="255" y="-923.5" font-family="Helvetica,sans-Serif" font-size="10.00"># _b_haveHeaderFile</text>
<text text-anchor="start" x="255" y="-912.5" font-family="Helvetica,sans-Serif" font-size="10.00"># _ui_classInstanceColumn</text>
<text text-anchor="start" x="255" y="-901.5" font-family="Helvetica,sans-Serif" font-size="10.00"># _ui_clusterInstanceColumn</text>
<text text-anchor="start" x="255" y="-890.5" font-family="Helvetica,sans-Serif" font-size="10.00"># _ui_idInstanceColumn</text>
<text text-anchor="start" x="255" y="-879.5" font-family="Helvetica,sans-Serif" font-size="10.00"># _ui_instancesFrequencyColumn</text>
<text text-anchor="start" x="255" y="-868.5" font-family="Helvetica,sans-Serif" font-size="10.00"># _ui_idMultiInstanceColumn</text>
<text text-anchor="start" x="255" y="-857.5" font-family="Helvetica,sans-Serif" font-size="10.00"># _ui_classMultiInstColumn</text>
<text text-anchor="start" x="255" y="-846.5" font-family="Helvetica,sans-Serif" font-size="10.00"># _ui_numInstances</text>
<text text-anchor="start" x="255" y="-835.5" font-family="Helvetica,sans-Serif" font-size="10.00"># _ui_numDimensionsInstances</text>
<text text-anchor="start" x="255" y="-824.5" font-family="Helvetica,sans-Serif" font-size="10.00"># _ui_numInstancesTest</text>
<text text-anchor="start" x="255" y="-813.5" font-family="Helvetica,sans-Serif" font-size="10.00"># _b_printMulLine</text>
<polyline fill="none" stroke="black" points="247,-806.5 418,-806.5 "/>
<text text-anchor="start" x="255" y="-794.5" font-family="Helvetica,sans-Serif" font-size="10.00">+ InParamReadInst()</text>
<text text-anchor="start" x="255" y="-783.5" font-family="Helvetica,sans-Serif" font-size="10.00">+ InParamReadInst()</text>
<text text-anchor="start" x="255" y="-772.5" font-family="Helvetica,sans-Serif" font-size="10.00">+ ~InParamReadInst()</text>
<text text-anchor="start" x="255" y="-761.5" font-family="Helvetica,sans-Serif" font-size="10.00">+ clearVectorFilesInstance()</text>
<text text-anchor="start" x="255" y="-750.5" font-family="Helvetica,sans-Serif" font-size="10.00">+ getVectorFilesInstance()</text>
<text text-anchor="start" x="255" y="-739.5" font-family="Helvetica,sans-Serif" font-size="10.00">+ setVectorFilesInstance()</text>
<text text-anchor="start" x="255" y="-728.5" font-family="Helvetica,sans-Serif" font-size="10.00">+ getNumFilesInstance()</text>
<text text-anchor="start" x="255" y="-717.5" font-family="Helvetica,sans-Serif" font-size="10.00">+ setVectorFilesInstanceTest()</text>
<text text-anchor="start" x="255" y="-706.5" font-family="Helvetica,sans-Serif" font-size="10.00">+ getVectorFilesInstanceTest()</text>
<text text-anchor="start" x="255" y="-695.5" font-family="Helvetica,sans-Serif" font-size="10.00">+ getNumFilesInstanceTest()</text>
<text text-anchor="start" x="255" y="-684.5" font-family="Helvetica,sans-Serif" font-size="10.00">and 37 more...</text>
</a>
</g>
</g>
<!-- Node15&#45;&gt;Node18 -->
<g id="edge11" class="edge"><title>Node15&#45;&gt;Node18</title>
<path fill="none" stroke="#404040" d="M248.21,-1338.26C254.772,-1316.58 263.615,-1285.6 269.5,-1258 286.683,-1177.42 300.89,-1087.14 311.436,-1011.08"/>
<polygon fill="none" stroke="#404040" points="311.463,-1010.88 308.317,-1004.39 313.097,-998.994 316.243,-1005.48 311.463,-1010.88"/>
<text text-anchor="middle" x="357" y="-1160.5" font-family="Helvetica,sans-Serif" font-size="10.00"> #_ps_selectAttributes</text>
<text text-anchor="middle" x="357" y="-1149.5" font-family="Helvetica,sans-Serif" font-size="10.00">#_s_separatorAttributes</text>
</g>
<!-- Node19 -->
<g id="node11" class="node"><title>Node19</title>
<g id="a_node11"><a xlink:title=" ">
<polygon fill="white" stroke="#bfbfbf" points="425,-1129 425,-1186 550,-1186 550,-1129 425,-1129"/>
<text text-anchor="middle" x="487.5" y="-1174" font-family="Helvetica,sans-Serif" font-size="10.00">std::vector&lt; std::string &gt;</text>
<polyline fill="none" stroke="#bfbfbf" points="425,-1167 550,-1167 "/>
<text text-anchor="middle" x="487.5" y="-1155" font-family="Helvetica,sans-Serif" font-size="10.00"> </text>
<polyline fill="none" stroke="#bfbfbf" points="425,-1148 550,-1148 "/>
<text text-anchor="middle" x="487.5" y="-1136" font-family="Helvetica,sans-Serif" font-size="10.00"> </text>
</a>
</g>
</g>
<!-- Node15&#45;&gt;Node19 -->
<g id="edge13" class="edge"><title>Node15&#45;&gt;Node19</title>
<path fill="none" stroke="#404040" d="M269.604,-1348.1C283.623,-1339.68 300.484,-1329.44 315.5,-1320 358.184,-1293.16 373.445,-1292.19 410.5,-1258 430.322,-1239.71 448.936,-1215.92 462.896,-1196.18"/>
<polygon fill="none" stroke="#404040" points="462.92,-1196.15 463.049,-1188.94 469.753,-1186.28 469.625,-1193.49 462.92,-1196.15"/>
<text text-anchor="middle" x="415" y="-1295.5" font-family="Helvetica,sans-Serif" font-size="10.00"> +elements</text>
</g>
<!-- Node16 -->
<g id="node8" class="node"><title>Node16</title>
<g id="a_node8"><a xlink:title="STL class.">
<polygon fill="white" stroke="#bfbfbf" points="192,-1443.5 192,-1511.5 287,-1511.5 287,-1443.5 192,-1443.5"/>
<text text-anchor="start" x="200" y="-1499.5" font-family="Helvetica,sans-Serif" font-size="10.00">std::basic_string&lt;</text>
<text text-anchor="middle" x="239.5" y="-1488.5" font-family="Helvetica,sans-Serif" font-size="10.00"> char &gt;</text>
<polyline fill="none" stroke="#bfbfbf" points="192,-1481.5 287,-1481.5 "/>
<text text-anchor="middle" x="239.5" y="-1469.5" font-family="Helvetica,sans-Serif" font-size="10.00"> </text>
<polyline fill="none" stroke="#bfbfbf" points="192,-1462.5 287,-1462.5 "/>
<text text-anchor="middle" x="239.5" y="-1450.5" font-family="Helvetica,sans-Serif" font-size="10.00"> </text>
</a>
</g>
</g>
<!-- Node16&#45;&gt;Node15 -->
<g id="edge7" class="edge"><title>Node16&#45;&gt;Node15</title>
<path fill="none" stroke="midnightblue" d="M239.5,-1433.06C239.5,-1420.51 239.5,-1407.15 239.5,-1395.83"/>
<polygon fill="none" stroke="midnightblue" points="236,-1433.36 239.5,-1443.36 243,-1433.36 236,-1433.36"/>
</g>
<!-- Node17 -->
<g id="node9" class="node"><title>Node17</title>
<g id="a_node9"><a xlink:href="classinout_1_1_in_param_fk.html" target="_top" xlink:title="Input parameter for algorithms with Fixed K.">
<polygon fill="white" stroke="black" points="191,-339 191,-451 304,-451 304,-339 191,-339"/>
<text text-anchor="start" x="199" y="-439" font-family="Helvetica,sans-Serif" font-size="10.00">inout::InParamFk&lt; T</text>
<text text-anchor="middle" x="247.5" y="-428" font-family="Helvetica,sans-Serif" font-size="10.00">_CLUSTERIDX &gt;</text>
<polyline fill="none" stroke="black" points="191,-421 304,-421 "/>
<text text-anchor="start" x="199" y="-409" font-family="Helvetica,sans-Serif" font-size="10.00"># _idxK_numClusterK</text>
<polyline fill="none" stroke="black" points="191,-402 304,-402 "/>
<text text-anchor="start" x="199" y="-390" font-family="Helvetica,sans-Serif" font-size="10.00">+ InParamFk()</text>
<text text-anchor="start" x="199" y="-379" font-family="Helvetica,sans-Serif" font-size="10.00">+ ~InParamFk()</text>
<text text-anchor="start" x="199" y="-368" font-family="Helvetica,sans-Serif" font-size="10.00">+ setNumClusterK()</text>
<text text-anchor="start" x="199" y="-357" font-family="Helvetica,sans-Serif" font-size="10.00">+ getNumClusterK()</text>
<text text-anchor="start" x="199" y="-346" font-family="Helvetica,sans-Serif" font-size="10.00">+ print()</text>
</a>
</g>
</g>
<!-- Node17&#45;&gt;Node10 -->
<g id="edge9" class="edge"><title>Node17&#45;&gt;Node10</title>
<path fill="none" stroke="midnightblue" d="M247.5,-328.358C247.5,-313.851 247.5,-298.625 247.5,-284.588"/>
<polygon fill="none" stroke="midnightblue" points="244,-328.766 247.5,-338.766 251,-328.766 244,-328.766"/>
</g>
<!-- Node18&#45;&gt;Node10 -->
<g id="edge10" class="edge"><title>Node18&#45;&gt;Node10</title>
<path fill="none" stroke="midnightblue" d="M349.713,-667.158C354.338,-564.599 349.903,-432.756 312.5,-322 308.136,-309.076 301.35,-296.352 293.78,-284.671"/>
<polygon fill="none" stroke="midnightblue" points="346.21,-667.146 349.222,-677.304 353.201,-667.485 346.21,-667.146"/>
</g>
<!-- Node19&#45;&gt;Node18 -->
<g id="edge12" class="edge"><title>Node19&#45;&gt;Node18</title>
<path fill="none" stroke="#404040" d="M474.016,-1128.88C460.486,-1101.17 438.449,-1056.03 415.751,-1009.53"/>
<polygon fill="none" stroke="#404040" points="415.703,-1009.43 409.476,-1005.79 410.438,-998.647 416.665,-1002.28 415.703,-1009.43"/>
<text text-anchor="middle" x="494" y="-1031" font-family="Helvetica,sans-Serif" font-size="10.00"> #_vectorstr_filesInstance</text>
<text text-anchor="middle" x="494" y="-1020" font-family="Helvetica,sans-Serif" font-size="10.00">#_vectorstr_filesInstanceTest</text>
</g>
<!-- Node20 -->
<g id="node12" class="node"><title>Node20</title>
<g id="a_node12"><a xlink:title="STL class.">
<polygon fill="white" stroke="#bfbfbf" points="443,-1338.5 443,-1395.5 532,-1395.5 532,-1338.5 443,-1338.5"/>
<text text-anchor="middle" x="487.5" y="-1383.5" font-family="Helvetica,sans-Serif" font-size="10.00">std::vector&lt; T &gt;</text>
<polyline fill="none" stroke="#bfbfbf" points="443,-1376.5 532,-1376.5 "/>
<text text-anchor="middle" x="487.5" y="-1364.5" font-family="Helvetica,sans-Serif" font-size="10.00"> </text>
<polyline fill="none" stroke="#bfbfbf" points="443,-1357.5 532,-1357.5 "/>
<text text-anchor="middle" x="487.5" y="-1345.5" font-family="Helvetica,sans-Serif" font-size="10.00"> </text>
</a>
</g>
</g>
<!-- Node20&#45;&gt;Node19 -->
<g id="edge14" class="edge"><title>Node20&#45;&gt;Node19</title>
<path fill="none" stroke="orange" d="M487.5,-1328.31C487.5,-1287.3 487.5,-1222.74 487.5,-1186.17"/>
<polygon fill="orange" stroke="orange" points="484,-1328.45 487.5,-1338.45 491,-1328.45 484,-1328.45"/>
<text text-anchor="middle" x="520" y="-1295.5" font-family="Helvetica,sans-Serif" font-size="10.00"> &lt; std::string &gt;</text>
</g>
<!-- Node21 -->
<g id="node13" class="node"><title>Node21</title>
<g id="a_node13"><a xlink:title=" ">
<polygon fill="white" stroke="#bfbfbf" points="473,-1449 473,-1506 502,-1506 502,-1449 473,-1449"/>
<text text-anchor="middle" x="487.5" y="-1494" font-family="Helvetica,sans-Serif" font-size="10.00">T</text>
<polyline fill="none" stroke="#bfbfbf" points="473,-1487 502,-1487 "/>
<text text-anchor="middle" x="487.5" y="-1475" font-family="Helvetica,sans-Serif" font-size="10.00"> </text>
<polyline fill="none" stroke="#bfbfbf" points="473,-1468 502,-1468 "/>
<text text-anchor="middle" x="487.5" y="-1456" font-family="Helvetica,sans-Serif" font-size="10.00"> </text>
</a>
</g>
</g>
<!-- Node21&#45;&gt;Node20 -->
<g id="edge15" class="edge"><title>Node21&#45;&gt;Node20</title>
<path fill="none" stroke="#404040" d="M487.5,-1448.84C487.5,-1436.34 487.5,-1421.34 487.5,-1407.68"/>
<polygon fill="none" stroke="#404040" points="487.5,-1407.61 483.5,-1401.61 487.5,-1395.61 491.5,-1401.61 487.5,-1407.61"/>
<text text-anchor="middle" x="513" y="-1417" font-family="Helvetica,sans-Serif" font-size="10.00"> +elements</text>
</g>
</g>
</svg>
