<?xml version="1.0" encoding="UTF-8" standalone="no"?>
<!DOCTYPE svg PUBLIC "-//W3C//DTD SVG 1.1//EN"
 "http://www.w3.org/Graphics/SVG/1.1/DTD/svg11.dtd">
<!-- Generated by graphviz version 2.38.0 (20140413.2041)
 -->
<!-- Title: partition::PartitionCrispMatrix::print Pages: 1 -->
<svg width="276pt" height="186pt"
 viewBox="0.00 0.00 276.00 186.00" xmlns="http://www.w3.org/2000/svg" xmlns:xlink="http://www.w3.org/1999/xlink">
<g id="graph0" class="graph" transform="scale(1 1) rotate(0) translate(4 182)">
<title>partition::PartitionCrispMatrix::print</title>
<polygon fill="white" stroke="none" points="-4,4 -4,-182 272,-182 272,4 -4,4"/>
<!-- Node12 -->
<g id="node1" class="node"><title>Node12</title>
<polygon fill="#bfbfbf" stroke="black" points="0,-49.5 0,-79.5 116,-79.5 116,-49.5 0,-49.5"/>
<text text-anchor="start" x="8" y="-67.5" font-family="Helvetica,sans-Serif" font-size="10.00">partition::PartitionCrisp</text>
<text text-anchor="middle" x="58" y="-56.5" font-family="Helvetica,sans-Serif" font-size="10.00">Matrix::print</text>
</g>
<!-- Node13 -->
<g id="node2" class="node"><title>Node13</title>
<g id="a_node2"><a xlink:href="classpartition_1_1_partition_crisp_matrix.html#a3b3c308949101715a9e27174bbb9975e" target="_top" xlink:title="partition::PartitionCrisp\lMatrix::begin">
<polygon fill="white" stroke="black" points="152,-147.5 152,-177.5 268,-177.5 268,-147.5 152,-147.5"/>
<text text-anchor="start" x="160" y="-165.5" font-family="Helvetica,sans-Serif" font-size="10.00">partition::PartitionCrisp</text>
<text text-anchor="middle" x="210" y="-154.5" font-family="Helvetica,sans-Serif" font-size="10.00">Matrix::begin</text>
</a>
</g>
</g>
<!-- Node12&#45;&gt;Node13 -->
<g id="edge1" class="edge"><title>Node12&#45;&gt;Node13</title>
<path fill="none" stroke="midnightblue" d="M75.1233,-79.6141C92.9135,-95.7235 122.895,-121.238 152,-138.5 154.639,-140.065 157.4,-141.58 160.221,-143.036"/>
<polygon fill="midnightblue" stroke="midnightblue" points="158.843,-146.258 169.367,-147.478 161.901,-139.961 158.843,-146.258"/>
</g>
<!-- Node14 -->
<g id="node3" class="node"><title>Node14</title>
<g id="a_node3"><a xlink:href="classpartition_1_1_partition_crisp_matrix.html#a82bbe29e2192a63f6649b867b928e8c1" target="_top" xlink:title="partition::PartitionCrisp\lMatrix::end">
<polygon fill="white" stroke="black" points="152,-98.5 152,-128.5 268,-128.5 268,-98.5 152,-98.5"/>
<text text-anchor="start" x="160" y="-116.5" font-family="Helvetica,sans-Serif" font-size="10.00">partition::PartitionCrisp</text>
<text text-anchor="middle" x="210" y="-105.5" font-family="Helvetica,sans-Serif" font-size="10.00">Matrix::end</text>
</a>
</g>
</g>
<!-- Node12&#45;&gt;Node14 -->
<g id="edge2" class="edge"><title>Node12&#45;&gt;Node14</title>
<path fill="none" stroke="midnightblue" d="M105.229,-79.6014C120.413,-84.5615 137.451,-90.1274 153.264,-95.2929"/>
<polygon fill="midnightblue" stroke="midnightblue" points="152.331,-98.6702 162.924,-98.4484 154.505,-92.0162 152.331,-98.6702"/>
</g>
<!-- Node15 -->
<g id="node4" class="node"><title>Node15</title>
<g id="a_node4"><a xlink:href="classpartition_1_1_partition_crisp_matrix.html#abb64d22ef466d3518abcc753a37be6a1" target="_top" xlink:title="partition::PartitionCrisp\lMatrix::getNumCluster">
<polygon fill="white" stroke="black" points="152,-49.5 152,-79.5 268,-79.5 268,-49.5 152,-49.5"/>
<text text-anchor="start" x="160" y="-67.5" font-family="Helvetica,sans-Serif" font-size="10.00">partition::PartitionCrisp</text>
<text text-anchor="middle" x="210" y="-56.5" font-family="Helvetica,sans-Serif" font-size="10.00">Matrix::getNumCluster</text>
</a>
</g>
</g>
<!-- Node12&#45;&gt;Node15 -->
<g id="edge3" class="edge"><title>Node12&#45;&gt;Node15</title>
<path fill="none" stroke="midnightblue" d="M116.136,-57.9231C124.377,-57.7606 132.923,-57.7125 141.344,-57.7788"/>
<polygon fill="midnightblue" stroke="midnightblue" points="141.479,-61.2809 151.525,-57.9165 141.574,-54.2815 141.479,-61.2809"/>
</g>
<!-- Node16 -->
<g id="node5" class="node"><title>Node16</title>
<g id="a_node5"><a xlink:href="classpartition_1_1_partition_crisp_matrix.html#a23d4cffae77b065e90a1d74ed4f07712" target="_top" xlink:title="partition::PartitionCrisp\lMatrix::next">
<polygon fill="white" stroke="black" points="152,-0.5 152,-30.5 268,-30.5 268,-0.5 152,-0.5"/>
<text text-anchor="start" x="160" y="-18.5" font-family="Helvetica,sans-Serif" font-size="10.00">partition::PartitionCrisp</text>
<text text-anchor="middle" x="210" y="-7.5" font-family="Helvetica,sans-Serif" font-size="10.00">Matrix::next</text>
</a>
</g>
</g>
<!-- Node12&#45;&gt;Node16 -->
<g id="edge5" class="edge"><title>Node12&#45;&gt;Node16</title>
<path fill="none" stroke="midnightblue" d="M105.229,-49.3986C120.413,-44.4385 137.451,-38.8726 153.264,-33.7071"/>
<polygon fill="midnightblue" stroke="midnightblue" points="154.505,-36.9838 162.924,-30.5516 152.331,-30.3298 154.505,-36.9838"/>
</g>
<!-- Node15&#45;&gt;Node12 -->
<g id="edge4" class="edge"><title>Node15&#45;&gt;Node12</title>
<path fill="none" stroke="midnightblue" d="M151.525,-71.0835C143.277,-71.2429 134.728,-71.2878 126.311,-71.2184"/>
<polygon fill="midnightblue" stroke="midnightblue" points="126.184,-67.7164 116.136,-71.0769 126.087,-74.7157 126.184,-67.7164"/>
</g>
</g>
</svg>
