<?xml version="1.0" encoding="UTF-8" standalone="no"?>
<!DOCTYPE svg PUBLIC "-//W3C//DTD SVG 1.1//EN"
 "http://www.w3.org/Graphics/SVG/1.1/DTD/svg11.dtd">
<!-- Generated by graphviz version 2.38.0 (20140413.2041)
 -->
<!-- Title: inout::InParamSlink&lt; T_CLUSTERIDX, T_FEATURE, T_INSTANCES_CLUSTER_K &gt; Pages: 1 -->
<svg width="615pt" height="971pt"
 viewBox="0.00 0.00 614.50 971.00" xmlns="http://www.w3.org/2000/svg" xmlns:xlink="http://www.w3.org/1999/xlink">
<g id="graph0" class="graph" transform="scale(1 1) rotate(0) translate(4 967)">
<title>inout::InParamSlink&lt; T_CLUSTERIDX, T_FEATURE, T_INSTANCES_CLUSTER_K &gt;</title>
<polygon fill="white" stroke="none" points="-4,4 -4,-967 610.5,-967 610.5,4 -4,4"/>
<!-- Node5 -->
<g id="node1" class="node"><title>Node5</title>
<polygon fill="#bfbfbf" stroke="black" points="210,-0.5 210,-101.5 379,-101.5 379,-0.5 210,-0.5"/>
<text text-anchor="start" x="218" y="-89.5" font-family="Helvetica,sans-Serif" font-size="10.00">inout::InParamSlink</text>
<text text-anchor="start" x="218" y="-78.5" font-family="Helvetica,sans-Serif" font-size="10.00">&lt; T_CLUSTERIDX, T_FEATURE,</text>
<text text-anchor="middle" x="294.5" y="-67.5" font-family="Helvetica,sans-Serif" font-size="10.00"> T_INSTANCES_CLUSTER_K &gt;</text>
<polyline fill="none" stroke="black" points="210,-60.5 379,-60.5 "/>
<text text-anchor="middle" x="294.5" y="-48.5" font-family="Helvetica,sans-Serif" font-size="10.00"> </text>
<polyline fill="none" stroke="black" points="210,-41.5 379,-41.5 "/>
<text text-anchor="start" x="218" y="-29.5" font-family="Helvetica,sans-Serif" font-size="10.00">+ InParamSlink()</text>
<text text-anchor="start" x="218" y="-18.5" font-family="Helvetica,sans-Serif" font-size="10.00">+ ~InParamSlink()</text>
<text text-anchor="start" x="218" y="-7.5" font-family="Helvetica,sans-Serif" font-size="10.00">+ print()</text>
</g>
<!-- Node6 -->
<g id="node2" class="node"><title>Node6</title>
<g id="a_node2"><a xlink:href="classinout_1_1_in_param_clustering.html" target="_top" xlink:title="Input parameter for clustering algorithm. ">
<polygon fill="white" stroke="black" points="37.5,-167 37.5,-422 219.5,-422 219.5,-167 37.5,-167"/>
<text text-anchor="middle" x="128.5" y="-410" font-family="Helvetica,sans-Serif" font-size="10.00">inout::InParamClustering</text>
<polyline fill="none" stroke="black" points="37.5,-403 219.5,-403 "/>
<text text-anchor="start" x="45.5" y="-391" font-family="Helvetica,sans-Serif" font-size="10.00"># i_opDistance</text>
<text text-anchor="start" x="45.5" y="-380" font-family="Helvetica,sans-Serif" font-size="10.00"># ps_outFileCentroids</text>
<text text-anchor="start" x="45.5" y="-369" font-family="Helvetica,sans-Serif" font-size="10.00"># ps_outFileMemberShip</text>
<text text-anchor="start" x="45.5" y="-358" font-family="Helvetica,sans-Serif" font-size="10.00"># ps_outFilePartitionsTable</text>
<text text-anchor="start" x="45.5" y="-347" font-family="Helvetica,sans-Serif" font-size="10.00"># ps_outFileGraph</text>
<text text-anchor="start" x="45.5" y="-336" font-family="Helvetica,sans-Serif" font-size="10.00"># ps_fileNamePlotStatObjetiveFunc</text>
<text text-anchor="start" x="45.5" y="-325" font-family="Helvetica,sans-Serif" font-size="10.00"># _rd_maxExecutiontime</text>
<text text-anchor="start" x="45.5" y="-314" font-family="Helvetica,sans-Serif" font-size="10.00"># _b_printCentroidsFormat</text>
<text text-anchor="start" x="45.5" y="-303" font-family="Helvetica,sans-Serif" font-size="10.00"># _b_printTableFormat</text>
<polyline fill="none" stroke="black" points="37.5,-296 219.5,-296 "/>
<text text-anchor="start" x="45.5" y="-284" font-family="Helvetica,sans-Serif" font-size="10.00">+ InParamClustering()</text>
<text text-anchor="start" x="45.5" y="-273" font-family="Helvetica,sans-Serif" font-size="10.00">+ ~InParamClustering()</text>
<text text-anchor="start" x="45.5" y="-262" font-family="Helvetica,sans-Serif" font-size="10.00">+ getFileNamePlotStatObjetiveFunc()</text>
<text text-anchor="start" x="45.5" y="-251" font-family="Helvetica,sans-Serif" font-size="10.00">+ getWithPlotStatObjetiveFunc()</text>
<text text-anchor="start" x="45.5" y="-240" font-family="Helvetica,sans-Serif" font-size="10.00">+ setFileNamePlotStatObjetiveFunc()</text>
<text text-anchor="start" x="45.5" y="-229" font-family="Helvetica,sans-Serif" font-size="10.00">+ setOutFileMemberShip()</text>
<text text-anchor="start" x="45.5" y="-218" font-family="Helvetica,sans-Serif" font-size="10.00">+ getOutFileMemberShip()</text>
<text text-anchor="start" x="45.5" y="-207" font-family="Helvetica,sans-Serif" font-size="10.00">+ setRandomSeed()</text>
<text text-anchor="start" x="45.5" y="-196" font-family="Helvetica,sans-Serif" font-size="10.00">+ setRandomSeed()</text>
<text text-anchor="start" x="45.5" y="-185" font-family="Helvetica,sans-Serif" font-size="10.00">+ getRandomSeed()</text>
<text text-anchor="start" x="45.5" y="-174" font-family="Helvetica,sans-Serif" font-size="10.00">and 15 more...</text>
</a>
</g>
</g>
<!-- Node6&#45;&gt;Node5 -->
<g id="edge1" class="edge"><title>Node6&#45;&gt;Node5</title>
<path fill="none" stroke="midnightblue" d="M215.034,-158.498C219.544,-151.875 224.049,-145.345 228.5,-139 237.101,-126.739 246.679,-113.76 255.811,-101.674"/>
<polygon fill="none" stroke="midnightblue" points="212.034,-156.687 209.324,-166.929 217.829,-160.612 212.034,-156.687"/>
</g>
<!-- Node7 -->
<g id="node3" class="node"><title>Node7</title>
<g id="a_node3"><a xlink:href="classinout_1_1_in_param_algorithmo.html" target="_top" xlink:title="Input parameter for define propertys of the algorithmos. ">
<polygon fill="white" stroke="black" points="0,-508.5 0,-708.5 135,-708.5 135,-508.5 0,-508.5"/>
<text text-anchor="middle" x="67.5" y="-696.5" font-family="Helvetica,sans-Serif" font-size="10.00">inout::InParamAlgorithmo</text>
<polyline fill="none" stroke="black" points="0,-689.5 135,-689.5 "/>
<text text-anchor="start" x="8" y="-677.5" font-family="Helvetica,sans-Serif" font-size="10.00"># ato_algTypeOut</text>
<text text-anchor="start" x="8" y="-666.5" font-family="Helvetica,sans-Serif" font-size="10.00"># ps_fileNameTimesRun</text>
<text text-anchor="start" x="8" y="-655.5" font-family="Helvetica,sans-Serif" font-size="10.00"># b_progressBarPrinting</text>
<text text-anchor="start" x="8" y="-644.5" font-family="Helvetica,sans-Serif" font-size="10.00"># i_timesRunAlgorithm</text>
<polyline fill="none" stroke="black" points="0,-637.5 135,-637.5 "/>
<text text-anchor="start" x="8" y="-625.5" font-family="Helvetica,sans-Serif" font-size="10.00">+ InParamAlgorithmo()</text>
<text text-anchor="start" x="8" y="-614.5" font-family="Helvetica,sans-Serif" font-size="10.00">+ ~InParamAlgorithmo()</text>
<text text-anchor="start" x="8" y="-603.5" font-family="Helvetica,sans-Serif" font-size="10.00">+ errorArgument()</text>
<text text-anchor="start" x="8" y="-592.5" font-family="Helvetica,sans-Serif" font-size="10.00">+ isYesNo()</text>
<text text-anchor="start" x="8" y="-581.5" font-family="Helvetica,sans-Serif" font-size="10.00">+ setFileNameTimesRun()</text>
<text text-anchor="start" x="8" y="-570.5" font-family="Helvetica,sans-Serif" font-size="10.00">+ setProgressBarPrinting()</text>
<text text-anchor="start" x="8" y="-559.5" font-family="Helvetica,sans-Serif" font-size="10.00">+ setTimesRunAlgorithm()</text>
<text text-anchor="start" x="8" y="-548.5" font-family="Helvetica,sans-Serif" font-size="10.00">+ setGnuPlotCoreStyles()</text>
<text text-anchor="start" x="8" y="-537.5" font-family="Helvetica,sans-Serif" font-size="10.00">+ getAlgorithmoAuthor()</text>
<text text-anchor="start" x="8" y="-526.5" font-family="Helvetica,sans-Serif" font-size="10.00">+ getAlgorithmoName()</text>
<text text-anchor="start" x="8" y="-515.5" font-family="Helvetica,sans-Serif" font-size="10.00">and 8 more...</text>
</a>
</g>
</g>
<!-- Node7&#45;&gt;Node6 -->
<g id="edge2" class="edge"><title>Node7&#45;&gt;Node6</title>
<path fill="none" stroke="midnightblue" d="M88.8519,-498.291C93.6608,-473.694 98.8042,-447.387 103.74,-422.144"/>
<polygon fill="none" stroke="midnightblue" points="85.3685,-497.867 86.8846,-508.353 92.2384,-499.21 85.3685,-497.867"/>
</g>
<!-- Node8 -->
<g id="node4" class="node"><title>Node8</title>
<g id="a_node4"><a xlink:title="STL class. ">
<polygon fill="white" stroke="#bfbfbf" points="209.5,-789.5 209.5,-846.5 269.5,-846.5 269.5,-789.5 209.5,-789.5"/>
<text text-anchor="middle" x="239.5" y="-834.5" font-family="Helvetica,sans-Serif" font-size="10.00">std::string</text>
<polyline fill="none" stroke="#bfbfbf" points="209.5,-827.5 269.5,-827.5 "/>
<text text-anchor="middle" x="239.5" y="-815.5" font-family="Helvetica,sans-Serif" font-size="10.00"> </text>
<polyline fill="none" stroke="#bfbfbf" points="209.5,-808.5 269.5,-808.5 "/>
<text text-anchor="middle" x="239.5" y="-796.5" font-family="Helvetica,sans-Serif" font-size="10.00"> </text>
</a>
</g>
</g>
<!-- Node8&#45;&gt;Node6 -->
<g id="edge5" class="edge"><title>Node8&#45;&gt;Node6</title>
<path fill="none" stroke="#404040" d="M224.395,-789.399C213.357,-768.051 198.904,-737.433 190.5,-709 164.053,-619.519 148.533,-515.647 139.635,-434.396"/>
<polygon fill="none" stroke="#404040" points="139.62,-434.253 135.005,-428.713 138.343,-422.321 142.959,-427.862 139.62,-434.253"/>
<text text-anchor="middle" x="235" y="-606" font-family="Helvetica,sans-Serif" font-size="10.00"> #_str_randomSeed</text>
</g>
<!-- Node8&#45;&gt;Node7 -->
<g id="edge3" class="edge"><title>Node8&#45;&gt;Node7</title>
<path fill="none" stroke="#404040" d="M209.409,-813.54C163.96,-807.625 81.2104,-793.934 63.5,-771 52.3207,-756.523 47.0968,-738.942 45.5195,-720.777"/>
<polygon fill="none" stroke="#404040" points="45.5193,-720.77 41.2554,-714.955 44.9836,-708.782 49.2474,-714.598 45.5193,-720.77"/>
<text text-anchor="middle" x="113" y="-763" font-family="Helvetica,sans-Serif" font-size="10.00"> #s_algorithmoAuthor</text>
<text text-anchor="middle" x="113" y="-752" font-family="Helvetica,sans-Serif" font-size="10.00">#s_algorithmoName</text>
<text text-anchor="middle" x="113" y="-741" font-family="Helvetica,sans-Serif" font-size="10.00">#s_gnuplotCoreStyles</text>
<text text-anchor="middle" x="113" y="-730" font-family="Helvetica,sans-Serif" font-size="10.00">#_s_runTimeId</text>
</g>
<!-- Node11 -->
<g id="node7" class="node"><title>Node11</title>
<g id="a_node7"><a xlink:href="classinout_1_1_in_param_read_inst.html" target="_top" xlink:title="Input parameter for read instances. ">
<polygon fill="white" stroke="black" points="369,-139.5 369,-449.5 540,-449.5 540,-139.5 369,-139.5"/>
<text text-anchor="start" x="377" y="-437.5" font-family="Helvetica,sans-Serif" font-size="10.00">inout::InParamReadInst</text>
<text text-anchor="start" x="377" y="-426.5" font-family="Helvetica,sans-Serif" font-size="10.00">&lt; T_FEATURE, T_INSTANCES</text>
<text text-anchor="middle" x="454.5" y="-415.5" font-family="Helvetica,sans-Serif" font-size="10.00">_CLUSTER_K, T_CLUSTERIDX &gt;</text>
<polyline fill="none" stroke="black" points="369,-408.5 540,-408.5 "/>
<text text-anchor="start" x="377" y="-396.5" font-family="Helvetica,sans-Serif" font-size="10.00"># _ui_idxCurrentFileInstance</text>
<text text-anchor="start" x="377" y="-385.5" font-family="Helvetica,sans-Serif" font-size="10.00"># _enum_formatInstanceFile</text>
<text text-anchor="start" x="377" y="-374.5" font-family="Helvetica,sans-Serif" font-size="10.00"># _b_haveHeaderFile</text>
<text text-anchor="start" x="377" y="-363.5" font-family="Helvetica,sans-Serif" font-size="10.00"># _ui_classInstanceColumn</text>
<text text-anchor="start" x="377" y="-352.5" font-family="Helvetica,sans-Serif" font-size="10.00"># _ui_clusterInstanceColumn</text>
<text text-anchor="start" x="377" y="-341.5" font-family="Helvetica,sans-Serif" font-size="10.00"># _ui_idInstanceColumn</text>
<text text-anchor="start" x="377" y="-330.5" font-family="Helvetica,sans-Serif" font-size="10.00"># _ui_instancesFrequencyColumn</text>
<text text-anchor="start" x="377" y="-319.5" font-family="Helvetica,sans-Serif" font-size="10.00"># _ui_idMultiInstanceColumn</text>
<text text-anchor="start" x="377" y="-308.5" font-family="Helvetica,sans-Serif" font-size="10.00"># _ui_classMultiInstColumn</text>
<text text-anchor="start" x="377" y="-297.5" font-family="Helvetica,sans-Serif" font-size="10.00"># _ui_numInstances</text>
<text text-anchor="start" x="377" y="-286.5" font-family="Helvetica,sans-Serif" font-size="10.00"># _ui_numDimensionsInstances</text>
<text text-anchor="start" x="377" y="-275.5" font-family="Helvetica,sans-Serif" font-size="10.00"># _ui_numInstancesTest</text>
<polyline fill="none" stroke="black" points="369,-268.5 540,-268.5 "/>
<text text-anchor="start" x="377" y="-256.5" font-family="Helvetica,sans-Serif" font-size="10.00">+ InParamReadInst()</text>
<text text-anchor="start" x="377" y="-245.5" font-family="Helvetica,sans-Serif" font-size="10.00">+ InParamReadInst()</text>
<text text-anchor="start" x="377" y="-234.5" font-family="Helvetica,sans-Serif" font-size="10.00">+ ~InParamReadInst()</text>
<text text-anchor="start" x="377" y="-223.5" font-family="Helvetica,sans-Serif" font-size="10.00">+ clearVectorFilesInstance()</text>
<text text-anchor="start" x="377" y="-212.5" font-family="Helvetica,sans-Serif" font-size="10.00">+ getVectorFilesInstance()</text>
<text text-anchor="start" x="377" y="-201.5" font-family="Helvetica,sans-Serif" font-size="10.00">+ setVectorFilesInstance()</text>
<text text-anchor="start" x="377" y="-190.5" font-family="Helvetica,sans-Serif" font-size="10.00">+ getNumFilesInstance()</text>
<text text-anchor="start" x="377" y="-179.5" font-family="Helvetica,sans-Serif" font-size="10.00">+ setVectorFilesInstanceTest()</text>
<text text-anchor="start" x="377" y="-168.5" font-family="Helvetica,sans-Serif" font-size="10.00">+ getVectorFilesInstanceTest()</text>
<text text-anchor="start" x="377" y="-157.5" font-family="Helvetica,sans-Serif" font-size="10.00">+ getNumFilesInstanceTest()</text>
<text text-anchor="start" x="377" y="-146.5" font-family="Helvetica,sans-Serif" font-size="10.00">and 35 more...</text>
</a>
</g>
</g>
<!-- Node8&#45;&gt;Node11 -->
<g id="edge8" class="edge"><title>Node8&#45;&gt;Node11</title>
<path fill="none" stroke="#404040" d="M251.617,-789.075C260.517,-767.558 272.269,-736.87 279.5,-709 302.201,-621.508 273.045,-590.264 310.5,-508 324.483,-477.288 339.718,-477.339 359.5,-450 360.285,-448.916 361.069,-447.825 361.854,-446.728"/>
<polygon fill="none" stroke="#404040" points="362,-446.52 362.182,-439.312 368.906,-436.707 368.724,-443.916 362,-446.52"/>
<text text-anchor="middle" x="363" y="-611.5" font-family="Helvetica,sans-Serif" font-size="10.00"> #_ps_selectAttributes</text>
<text text-anchor="middle" x="363" y="-600.5" font-family="Helvetica,sans-Serif" font-size="10.00">#_s_separatorAttributes</text>
</g>
<!-- Node12 -->
<g id="node8" class="node"><title>Node12</title>
<polygon fill="white" stroke="#bfbfbf" points="425,-580 425,-637 550,-637 550,-580 425,-580"/>
<text text-anchor="middle" x="487.5" y="-625" font-family="Helvetica,sans-Serif" font-size="10.00">std::vector&lt; std::string &gt;</text>
<polyline fill="none" stroke="#bfbfbf" points="425,-618 550,-618 "/>
<text text-anchor="middle" x="487.5" y="-606" font-family="Helvetica,sans-Serif" font-size="10.00"> </text>
<polyline fill="none" stroke="#bfbfbf" points="425,-599 550,-599 "/>
<text text-anchor="middle" x="487.5" y="-587" font-family="Helvetica,sans-Serif" font-size="10.00"> </text>
</g>
<!-- Node8&#45;&gt;Node12 -->
<g id="edge10" class="edge"><title>Node8&#45;&gt;Node12</title>
<path fill="none" stroke="#404040" d="M269.604,-799.099C283.623,-790.682 300.484,-780.44 315.5,-771 358.184,-744.165 373.445,-743.19 410.5,-709 430.322,-690.711 448.936,-666.916 462.896,-647.182"/>
<polygon fill="none" stroke="#404040" points="462.92,-647.148 463.049,-639.938 469.753,-637.284 469.625,-644.494 462.92,-647.148"/>
<text text-anchor="middle" x="415" y="-746.5" font-family="Helvetica,sans-Serif" font-size="10.00"> +elements</text>
</g>
<!-- Node9 -->
<g id="node5" class="node"><title>Node9</title>
<g id="a_node5"><a xlink:title="STL class. ">
<polygon fill="white" stroke="#bfbfbf" points="192,-894.5 192,-962.5 287,-962.5 287,-894.5 192,-894.5"/>
<text text-anchor="start" x="200" y="-950.5" font-family="Helvetica,sans-Serif" font-size="10.00">std::basic_string&lt;</text>
<text text-anchor="middle" x="239.5" y="-939.5" font-family="Helvetica,sans-Serif" font-size="10.00"> char &gt;</text>
<polyline fill="none" stroke="#bfbfbf" points="192,-932.5 287,-932.5 "/>
<text text-anchor="middle" x="239.5" y="-920.5" font-family="Helvetica,sans-Serif" font-size="10.00"> </text>
<polyline fill="none" stroke="#bfbfbf" points="192,-913.5 287,-913.5 "/>
<text text-anchor="middle" x="239.5" y="-901.5" font-family="Helvetica,sans-Serif" font-size="10.00"> </text>
</a>
</g>
</g>
<!-- Node9&#45;&gt;Node8 -->
<g id="edge4" class="edge"><title>Node9&#45;&gt;Node8</title>
<path fill="none" stroke="midnightblue" d="M239.5,-884.064C239.5,-871.511 239.5,-858.152 239.5,-846.827"/>
<polygon fill="none" stroke="midnightblue" points="236,-884.357 239.5,-894.357 243,-884.357 236,-884.357"/>
</g>
<!-- Node10 -->
<g id="node6" class="node"><title>Node10</title>
<g id="a_node6"><a xlink:href="classinout_1_1_in_param_fk.html" target="_top" xlink:title="Input parameter for algorithms with Fixed K. ">
<polygon fill="white" stroke="black" points="238,-238.5 238,-350.5 351,-350.5 351,-238.5 238,-238.5"/>
<text text-anchor="start" x="246" y="-338.5" font-family="Helvetica,sans-Serif" font-size="10.00">inout::InParamFk&lt; T</text>
<text text-anchor="middle" x="294.5" y="-327.5" font-family="Helvetica,sans-Serif" font-size="10.00">_CLUSTERIDX &gt;</text>
<polyline fill="none" stroke="black" points="238,-320.5 351,-320.5 "/>
<text text-anchor="start" x="246" y="-308.5" font-family="Helvetica,sans-Serif" font-size="10.00"># _idxK_numClusterK</text>
<polyline fill="none" stroke="black" points="238,-301.5 351,-301.5 "/>
<text text-anchor="start" x="246" y="-289.5" font-family="Helvetica,sans-Serif" font-size="10.00">+ InParamFk()</text>
<text text-anchor="start" x="246" y="-278.5" font-family="Helvetica,sans-Serif" font-size="10.00">+ ~InParamFk()</text>
<text text-anchor="start" x="246" y="-267.5" font-family="Helvetica,sans-Serif" font-size="10.00">+ setNumClusterK()</text>
<text text-anchor="start" x="246" y="-256.5" font-family="Helvetica,sans-Serif" font-size="10.00">+ getNumClusterK()</text>
<text text-anchor="start" x="246" y="-245.5" font-family="Helvetica,sans-Serif" font-size="10.00">+ print()</text>
</a>
</g>
</g>
<!-- Node10&#45;&gt;Node5 -->
<g id="edge6" class="edge"><title>Node10&#45;&gt;Node5</title>
<path fill="none" stroke="midnightblue" d="M294.5,-228.232C294.5,-188.348 294.5,-138.143 294.5,-101.531"/>
<polygon fill="none" stroke="midnightblue" points="291,-228.398 294.5,-238.398 298,-228.398 291,-228.398"/>
</g>
<!-- Node11&#45;&gt;Node5 -->
<g id="edge7" class="edge"><title>Node11&#45;&gt;Node5</title>
<path fill="none" stroke="midnightblue" d="M363.282,-144.603C362.018,-142.72 360.757,-140.852 359.5,-139 351.133,-126.677 341.74,-113.675 332.751,-101.586"/>
<polygon fill="none" stroke="midnightblue" points="360.376,-146.554 368.831,-152.938 366.202,-142.674 360.376,-146.554"/>
</g>
<!-- Node12&#45;&gt;Node11 -->
<g id="edge9" class="edge"><title>Node12&#45;&gt;Node11</title>
<path fill="none" stroke="#404040" d="M484.571,-579.812C481.655,-552.236 476.923,-507.497 472.067,-461.588"/>
<polygon fill="none" stroke="#404040" points="472.059,-461.516 467.451,-455.97 470.797,-449.583 475.406,-455.129 472.059,-461.516"/>
<text text-anchor="middle" x="541" y="-482" font-family="Helvetica,sans-Serif" font-size="10.00"> #_vectorstr_filesInstance</text>
<text text-anchor="middle" x="541" y="-471" font-family="Helvetica,sans-Serif" font-size="10.00">#_vectorstr_filesInstanceTest</text>
</g>
<!-- Node13 -->
<g id="node9" class="node"><title>Node13</title>
<g id="a_node9"><a xlink:title="STL class. ">
<polygon fill="white" stroke="#bfbfbf" points="443,-789.5 443,-846.5 532,-846.5 532,-789.5 443,-789.5"/>
<text text-anchor="middle" x="487.5" y="-834.5" font-family="Helvetica,sans-Serif" font-size="10.00">std::vector&lt; T &gt;</text>
<polyline fill="none" stroke="#bfbfbf" points="443,-827.5 532,-827.5 "/>
<text text-anchor="middle" x="487.5" y="-815.5" font-family="Helvetica,sans-Serif" font-size="10.00"> </text>
<polyline fill="none" stroke="#bfbfbf" points="443,-808.5 532,-808.5 "/>
<text text-anchor="middle" x="487.5" y="-796.5" font-family="Helvetica,sans-Serif" font-size="10.00"> </text>
</a>
</g>
</g>
<!-- Node13&#45;&gt;Node12 -->
<g id="edge11" class="edge"><title>Node13&#45;&gt;Node12</title>
<path fill="none" stroke="orange" d="M487.5,-779.308C487.5,-738.305 487.5,-673.736 487.5,-637.168"/>
<polygon fill="orange" stroke="orange" points="484,-779.446 487.5,-789.446 491,-779.446 484,-779.446"/>
<text text-anchor="middle" x="520" y="-746.5" font-family="Helvetica,sans-Serif" font-size="10.00"> &lt; std::string &gt;</text>
</g>
<!-- Node14 -->
<g id="node10" class="node"><title>Node14</title>
<polygon fill="white" stroke="#bfbfbf" points="473,-900 473,-957 502,-957 502,-900 473,-900"/>
<text text-anchor="middle" x="487.5" y="-945" font-family="Helvetica,sans-Serif" font-size="10.00">T</text>
<polyline fill="none" stroke="#bfbfbf" points="473,-938 502,-938 "/>
<text text-anchor="middle" x="487.5" y="-926" font-family="Helvetica,sans-Serif" font-size="10.00"> </text>
<polyline fill="none" stroke="#bfbfbf" points="473,-919 502,-919 "/>
<text text-anchor="middle" x="487.5" y="-907" font-family="Helvetica,sans-Serif" font-size="10.00"> </text>
</g>
<!-- Node14&#45;&gt;Node13 -->
<g id="edge12" class="edge"><title>Node14&#45;&gt;Node13</title>
<path fill="none" stroke="#404040" d="M487.5,-899.84C487.5,-887.342 487.5,-872.342 487.5,-858.676"/>
<polygon fill="none" stroke="#404040" points="487.5,-858.609 483.5,-852.609 487.5,-846.609 491.5,-852.609 487.5,-858.609"/>
<text text-anchor="middle" x="513" y="-868" font-family="Helvetica,sans-Serif" font-size="10.00"> +elements</text>
</g>
</g>
</svg>
