<?xml version="1.0" encoding="UTF-8" standalone="no"?>
<!DOCTYPE svg PUBLIC "-//W3C//DTD SVG 1.1//EN"
 "http://www.w3.org/Graphics/SVG/1.1/DTD/svg11.dtd">
<!-- Generated by graphviz version 2.38.0 (20140413.2041)
 -->
<!-- Title: runtime::RuntimeFunctionStat&lt; T_VALUE &gt; Pages: 1 -->
<svg width="154pt" height="665pt"
 viewBox="0.00 0.00 153.50 665.00" xmlns="http://www.w3.org/2000/svg" xmlns:xlink="http://www.w3.org/1999/xlink">
<g id="graph0" class="graph" transform="scale(1 1) rotate(0) translate(4 661)">
<title>runtime::RuntimeFunctionStat&lt; T_VALUE &gt;</title>
<polygon fill="white" stroke="none" points="-4,4 -4,-661 149.5,-661 149.5,4 -4,4"/>
<!-- Node3 -->
<g id="node1" class="node"><title>Node3</title>
<g id="a_node1"><a xlink:title="Function statistical for metrics in run time.">
<polygon fill="#bfbfbf" stroke="black" points="4.5,-0.5 4.5,-134.5 132.5,-134.5 132.5,-0.5 4.5,-0.5"/>
<text text-anchor="start" x="12.5" y="-122.5" font-family="Helvetica,sans-Serif" font-size="10.00">runtime::RuntimeFunction</text>
<text text-anchor="middle" x="68.5" y="-111.5" font-family="Helvetica,sans-Serif" font-size="10.00">Stat&lt; T_VALUE &gt;</text>
<polyline fill="none" stroke="black" points="4.5,-104.5 132.5,-104.5 "/>
<text text-anchor="start" x="12.5" y="-92.5" font-family="Helvetica,sans-Serif" font-size="10.00"># c_idStatistical</text>
<polyline fill="none" stroke="black" points="4.5,-85.5 132.5,-85.5 "/>
<text text-anchor="start" x="12.5" y="-73.5" font-family="Helvetica,sans-Serif" font-size="10.00">+ RuntimeFunctionStat()</text>
<text text-anchor="start" x="12.5" y="-62.5" font-family="Helvetica,sans-Serif" font-size="10.00">+ ~RuntimeFunctionStat()</text>
<text text-anchor="start" x="12.5" y="-51.5" font-family="Helvetica,sans-Serif" font-size="10.00">+ evaluate()</text>
<text text-anchor="start" x="12.5" y="-40.5" font-family="Helvetica,sans-Serif" font-size="10.00">&#45; _sum()</text>
<text text-anchor="start" x="12.5" y="-29.5" font-family="Helvetica,sans-Serif" font-size="10.00">&#45; _avg()</text>
<text text-anchor="start" x="12.5" y="-18.5" font-family="Helvetica,sans-Serif" font-size="10.00">&#45; _var()</text>
<text text-anchor="start" x="12.5" y="-7.5" font-family="Helvetica,sans-Serif" font-size="10.00">&#45; _devstd()</text>
</a>
</g>
</g>
<!-- Node4 -->
<g id="node2" class="node"><title>Node4</title>
<g id="a_node2"><a xlink:href="classruntime_1_1_runtime_function_value.html" target="_top" xlink:title="Function store metrics in run time.">
<polygon fill="white" stroke="black" points="0,-172.5 0,-284.5 137,-284.5 137,-172.5 0,-172.5"/>
<text text-anchor="start" x="8" y="-272.5" font-family="Helvetica,sans-Serif" font-size="10.00">runtime::RuntimeFunction</text>
<text text-anchor="middle" x="68.5" y="-261.5" font-family="Helvetica,sans-Serif" font-size="10.00">Value&lt; T_VALUE &gt;</text>
<polyline fill="none" stroke="black" points="0,-254.5 137,-254.5 "/>
<text text-anchor="start" x="8" y="-242.5" font-family="Helvetica,sans-Serif" font-size="10.00"># t_value</text>
<polyline fill="none" stroke="black" points="0,-235.5 137,-235.5 "/>
<text text-anchor="start" x="8" y="-223.5" font-family="Helvetica,sans-Serif" font-size="10.00">+ RuntimeFunctionValue()</text>
<text text-anchor="start" x="8" y="-212.5" font-family="Helvetica,sans-Serif" font-size="10.00">+ ~RuntimeFunctionValue()</text>
<text text-anchor="start" x="8" y="-201.5" font-family="Helvetica,sans-Serif" font-size="10.00">+ setValue()</text>
<text text-anchor="start" x="8" y="-190.5" font-family="Helvetica,sans-Serif" font-size="10.00">+ getValue()</text>
<text text-anchor="start" x="8" y="-179.5" font-family="Helvetica,sans-Serif" font-size="10.00">+ print()</text>
</a>
</g>
</g>
<!-- Node4&#45;&gt;Node3 -->
<g id="edge1" class="edge"><title>Node4&#45;&gt;Node3</title>
<path fill="none" stroke="midnightblue" d="M68.5,-162.166C68.5,-153.039 68.5,-143.653 68.5,-134.513"/>
<polygon fill="none" stroke="midnightblue" points="65.0001,-162.336 68.5,-172.336 72.0001,-162.336 65.0001,-162.336"/>
</g>
<!-- Node5 -->
<g id="node3" class="node"><title>Node5</title>
<g id="a_node3"><a xlink:href="classruntime_1_1_runtime_function.html" target="_top" xlink:title="Function store metrics in run time.">
<polygon fill="white" stroke="black" points="4.5,-322.5 4.5,-445.5 132.5,-445.5 132.5,-322.5 4.5,-322.5"/>
<text text-anchor="middle" x="68.5" y="-433.5" font-family="Helvetica,sans-Serif" font-size="10.00">runtime::RuntimeFunction</text>
<polyline fill="none" stroke="black" points="4.5,-426.5 132.5,-426.5 "/>
<text text-anchor="start" x="12.5" y="-414.5" font-family="Helvetica,sans-Serif" font-size="10.00"># _c_typeFunc</text>
<polyline fill="none" stroke="black" points="4.5,-407.5 132.5,-407.5 "/>
<text text-anchor="start" x="12.5" y="-395.5" font-family="Helvetica,sans-Serif" font-size="10.00">+ RuntimeFunction()</text>
<text text-anchor="start" x="12.5" y="-384.5" font-family="Helvetica,sans-Serif" font-size="10.00">+ ~RuntimeFunction()</text>
<text text-anchor="start" x="12.5" y="-373.5" font-family="Helvetica,sans-Serif" font-size="10.00">+ getName()</text>
<text text-anchor="start" x="12.5" y="-362.5" font-family="Helvetica,sans-Serif" font-size="10.00">+ isNotStorage()</text>
<text text-anchor="start" x="12.5" y="-351.5" font-family="Helvetica,sans-Serif" font-size="10.00">+ isStorageBuffer()</text>
<text text-anchor="start" x="12.5" y="-340.5" font-family="Helvetica,sans-Serif" font-size="10.00">+ isStorageLinkedList()</text>
<text text-anchor="start" x="12.5" y="-329.5" font-family="Helvetica,sans-Serif" font-size="10.00">+ print()</text>
</a>
</g>
</g>
<!-- Node5&#45;&gt;Node4 -->
<g id="edge2" class="edge"><title>Node5&#45;&gt;Node4</title>
<path fill="none" stroke="midnightblue" d="M68.5,-312.055C68.5,-302.886 68.5,-293.605 68.5,-284.741"/>
<polygon fill="none" stroke="midnightblue" points="65.0001,-312.333 68.5,-322.333 72.0001,-312.333 65.0001,-312.333"/>
</g>
<!-- Node6 -->
<g id="node4" class="node"><title>Node6</title>
<g id="a_node4"><a xlink:title="STL class.">
<polygon fill="white" stroke="#bfbfbf" points="38.5,-493.5 38.5,-550.5 98.5,-550.5 98.5,-493.5 38.5,-493.5"/>
<text text-anchor="middle" x="68.5" y="-538.5" font-family="Helvetica,sans-Serif" font-size="10.00">std::string</text>
<polyline fill="none" stroke="#bfbfbf" points="38.5,-531.5 98.5,-531.5 "/>
<text text-anchor="middle" x="68.5" y="-519.5" font-family="Helvetica,sans-Serif" font-size="10.00"> </text>
<polyline fill="none" stroke="#bfbfbf" points="38.5,-512.5 98.5,-512.5 "/>
<text text-anchor="middle" x="68.5" y="-500.5" font-family="Helvetica,sans-Serif" font-size="10.00"> </text>
</a>
</g>
</g>
<!-- Node6&#45;&gt;Node5 -->
<g id="edge3" class="edge"><title>Node6&#45;&gt;Node5</title>
<path fill="none" stroke="#404040" d="M68.5,-493.478C68.5,-483.009 68.5,-470.526 68.5,-457.818"/>
<polygon fill="none" stroke="#404040" points="68.5001,-457.623 64.5,-451.623 68.5,-445.623 72.5,-451.623 68.5001,-457.623"/>
<text text-anchor="middle" x="107" y="-467" font-family="Helvetica,sans-Serif" font-size="10.00"> #_str_nameFunc</text>
</g>
<!-- Node7 -->
<g id="node5" class="node"><title>Node7</title>
<g id="a_node5"><a xlink:title="STL class.">
<polygon fill="white" stroke="#bfbfbf" points="21,-588.5 21,-656.5 116,-656.5 116,-588.5 21,-588.5"/>
<text text-anchor="start" x="29" y="-644.5" font-family="Helvetica,sans-Serif" font-size="10.00">std::basic_string&lt;</text>
<text text-anchor="middle" x="68.5" y="-633.5" font-family="Helvetica,sans-Serif" font-size="10.00"> char &gt;</text>
<polyline fill="none" stroke="#bfbfbf" points="21,-626.5 116,-626.5 "/>
<text text-anchor="middle" x="68.5" y="-614.5" font-family="Helvetica,sans-Serif" font-size="10.00"> </text>
<polyline fill="none" stroke="#bfbfbf" points="21,-607.5 116,-607.5 "/>
<text text-anchor="middle" x="68.5" y="-595.5" font-family="Helvetica,sans-Serif" font-size="10.00"> </text>
</a>
</g>
</g>
<!-- Node7&#45;&gt;Node6 -->
<g id="edge4" class="edge"><title>Node7&#45;&gt;Node6</title>
<path fill="none" stroke="midnightblue" d="M68.5,-578.375C68.5,-568.94 68.5,-559.201 68.5,-550.571"/>
<polygon fill="none" stroke="midnightblue" points="65.0001,-578.427 68.5,-588.427 72.0001,-578.427 65.0001,-578.427"/>
</g>
</g>
</svg>
