<?xml version="1.0" encoding="UTF-8" standalone="no"?>
<!DOCTYPE svg PUBLIC "-//W3C//DTD SVG 1.1//EN"
 "http://www.w3.org/Graphics/SVG/1.1/DTD/svg11.dtd">
<!-- Generated by graphviz version 2.38.0 (20140413.2041)
 -->
<!-- Title: mat::BitMatrix::getRowNumBitOn Pages: 1 -->
<svg width="314pt" height="116pt"
 viewBox="0.00 0.00 314.00 115.50" xmlns="http://www.w3.org/2000/svg" xmlns:xlink="http://www.w3.org/1999/xlink">
<g id="graph0" class="graph" transform="scale(1 1) rotate(0) translate(4 111.5)">
<title>mat::BitMatrix::getRowNumBitOn</title>
<polygon fill="white" stroke="none" points="-4,4 -4,-111.5 310,-111.5 310,4 -4,4"/>
<!-- Node36 -->
<g id="node1" class="node"><title>Node36</title>
<g id="a_node1"><a xlink:title=" ">
<polygon fill="#bfbfbf" stroke="black" points="0,-33 0,-63 138,-63 138,-33 0,-33"/>
<text text-anchor="start" x="8" y="-51" font-family="Helvetica,sans-Serif" font-size="10.00">mat::BitMatrix::getRowNum</text>
<text text-anchor="middle" x="69" y="-40" font-family="Helvetica,sans-Serif" font-size="10.00">BitOn</text>
</a>
</g>
</g>
<!-- Node37 -->
<g id="node2" class="node"><title>Node37</title>
<g id="a_node2"><a xlink:href="classds_1_1_bit_container.html#aefad9145f725e5584f59e6f9ff64e07b" target="_top" xlink:title=" ">
<polygon fill="white" stroke="black" points="175.5,-77 175.5,-107 304.5,-107 304.5,-77 175.5,-77"/>
<text text-anchor="start" x="183.5" y="-95" font-family="Helvetica,sans-Serif" font-size="10.00">ds::BitContainer::getNum</text>
<text text-anchor="middle" x="240" y="-84" font-family="Helvetica,sans-Serif" font-size="10.00">BitOn</text>
</a>
</g>
</g>
<!-- Node36&#45;&gt;Node37 -->
<g id="edge1" class="edge"><title>Node36&#45;&gt;Node37</title>
<path fill="none" stroke="midnightblue" d="M127.688,-63.0192C141.75,-66.6804 156.917,-70.6294 171.395,-74.3987"/>
<polygon fill="midnightblue" stroke="midnightblue" points="170.726,-77.8413 181.286,-76.9738 172.49,-71.0671 170.726,-77.8413"/>
</g>
<!-- Node38 -->
<g id="node3" class="node"><title>Node38</title>
<g id="a_node3"><a xlink:href="classmat_1_1_bit_matrix.html#a5607bb84d71c58751390be62e798dd11" target="_top" xlink:title=" ">
<polygon fill="white" stroke="black" points="181,-38.5 181,-57.5 299,-57.5 299,-38.5 181,-38.5"/>
<text text-anchor="middle" x="240" y="-45.5" font-family="Helvetica,sans-Serif" font-size="10.00">mat::BitMatrix::getRow</text>
</a>
</g>
</g>
<!-- Node36&#45;&gt;Node38 -->
<g id="edge2" class="edge"><title>Node36&#45;&gt;Node38</title>
<path fill="none" stroke="midnightblue" d="M138.252,-48C148.943,-48 159.994,-48 170.687,-48"/>
<polygon fill="midnightblue" stroke="midnightblue" points="170.805,-51.5001 180.805,-48 170.805,-44.5001 170.805,-51.5001"/>
</g>
<!-- Node39 -->
<g id="node4" class="node"><title>Node39</title>
<g id="a_node4"><a xlink:href="classds_1_1_bit_container.html#a8c05ab649dca2fc2c0e62aba6e24d7a9" target="_top" xlink:title=" ">
<polygon fill="white" stroke="black" points="174,-0.5 174,-19.5 306,-19.5 306,-0.5 174,-0.5"/>
<text text-anchor="middle" x="240" y="-7.5" font-family="Helvetica,sans-Serif" font-size="10.00">ds::BitContainer::setArray</text>
</a>
</g>
</g>
<!-- Node36&#45;&gt;Node39 -->
<g id="edge3" class="edge"><title>Node36&#45;&gt;Node39</title>
<path fill="none" stroke="midnightblue" d="M136.793,-32.9814C153.292,-29.2715 170.735,-25.3496 186.448,-21.8164"/>
<polygon fill="midnightblue" stroke="midnightblue" points="187.509,-25.1654 196.497,-19.5568 185.973,-18.3359 187.509,-25.1654"/>
</g>
</g>
</svg>
