<?xml version="1.0" encoding="UTF-8" standalone="no"?>
<!DOCTYPE svg PUBLIC "-//W3C//DTD SVG 1.1//EN"
 "http://www.w3.org/Graphics/SVG/1.1/DTD/svg11.dtd">
<!-- Generated by graphviz version 2.38.0 (20140413.2041)
 -->
<!-- Title: gaencode::ChromosomeCrispMatrix::ChromosomeCrispMatrix Pages: 1 -->
<svg width="366pt" height="39pt"
 viewBox="0.00 0.00 366.00 39.00" xmlns="http://www.w3.org/2000/svg" xmlns:xlink="http://www.w3.org/1999/xlink">
<g id="graph0" class="graph" transform="scale(1 1) rotate(0) translate(4 35)">
<title>gaencode::ChromosomeCrispMatrix::ChromosomeCrispMatrix</title>
<polygon fill="white" stroke="none" points="-4,4 -4,-35 362,-35 362,4 -4,4"/>
<!-- Node3 -->
<g id="node1" class="node"><title>Node3</title>
<polygon fill="#bfbfbf" stroke="black" points="0,-0.5 0,-30.5 161,-30.5 161,-0.5 0,-0.5"/>
<text text-anchor="start" x="8" y="-18.5" font-family="Helvetica,sans-Serif" font-size="10.00">gaencode::ChromosomeCrisp</text>
<text text-anchor="middle" x="80.5" y="-7.5" font-family="Helvetica,sans-Serif" font-size="10.00">Matrix::ChromosomeCrispMatrix</text>
</g>
<!-- Node4 -->
<g id="node2" class="node"><title>Node4</title>
<g id="a_node2"><a xlink:href="classgaencode_1_1_chromosome_crisp_matrix.html#ae1445eeb4b095c511e08f651ef8df8db" target="_top" xlink:title="gaencode::ChromosomeCrisp\lMatrix::ChromosomeCrispMatrix">
<polygon fill="white" stroke="black" points="197,-0.5 197,-30.5 358,-30.5 358,-0.5 197,-0.5"/>
<text text-anchor="start" x="205" y="-18.5" font-family="Helvetica,sans-Serif" font-size="10.00">gaencode::ChromosomeCrisp</text>
<text text-anchor="middle" x="277.5" y="-7.5" font-family="Helvetica,sans-Serif" font-size="10.00">Matrix::ChromosomeCrispMatrix</text>
</a>
</g>
</g>
<!-- Node3&#45;&gt;Node4 -->
<g id="edge1" class="edge"><title>Node3&#45;&gt;Node4</title>
<path fill="none" stroke="midnightblue" d="M161.095,-15.5C169.573,-15.5 178.237,-15.5 186.821,-15.5"/>
<polygon fill="midnightblue" stroke="midnightblue" points="186.843,-19.0001 196.843,-15.5 186.843,-12.0001 186.843,-19.0001"/>
</g>
</g>
</svg>
