<?xml version="1.0" encoding="UTF-8" standalone="no"?>
<!DOCTYPE svg PUBLIC "-//W3C//DTD SVG 1.1//EN"
 "http://www.w3.org/Graphics/SVG/1.1/DTD/svg11.dtd">
<!-- Generated by graphviz version 2.38.0 (20140413.2041)
 -->
<!-- Title: gaencode::ChromVariableLength::end Pages: 1 -->
<svg width="592pt" height="39pt"
 viewBox="0.00 0.00 592.00 39.00" xmlns="http://www.w3.org/2000/svg" xmlns:xlink="http://www.w3.org/1999/xlink">
<g id="graph0" class="graph" transform="scale(1 1) rotate(0) translate(4 35)">
<title>gaencode::ChromVariableLength::end</title>
<polygon fill="white" stroke="none" points="-4,4 -4,-35 588,-35 588,4 -4,4"/>
<!-- Node19 -->
<g id="node1" class="node"><title>Node19</title>
<polygon fill="#bfbfbf" stroke="black" points="0,-6 0,-25 190,-25 190,-6 0,-6"/>
<text text-anchor="middle" x="95" y="-13" font-family="Helvetica,sans-Serif" font-size="10.00">gaencode::ChromVariableLength::end</text>
</g>
<!-- Node20 -->
<g id="node2" class="node"><title>Node20</title>
<g id="a_node2"><a xlink:href="classgaencode_1_1_chrom_variable_length.html#ad9aade851fa130ddc0fb16a1dd9a15e1" target="_top" xlink:title="gaencode::ChromVariableLength\l::print">
<polygon fill="white" stroke="black" points="226,-0.5 226,-30.5 393,-30.5 393,-0.5 226,-0.5"/>
<text text-anchor="start" x="234" y="-18.5" font-family="Helvetica,sans-Serif" font-size="10.00">gaencode::ChromVariableLength</text>
<text text-anchor="middle" x="309.5" y="-7.5" font-family="Helvetica,sans-Serif" font-size="10.00">::print</text>
</a>
</g>
</g>
<!-- Node19&#45;&gt;Node20 -->
<g id="edge1" class="edge"><title>Node19&#45;&gt;Node20</title>
<path fill="none" stroke="midnightblue" d="M190.134,-15.5C198.579,-15.5 207.127,-15.5 215.562,-15.5"/>
<polygon fill="midnightblue" stroke="midnightblue" points="215.779,-19.0001 225.779,-15.5 215.779,-12.0001 215.779,-19.0001"/>
</g>
<!-- Node21 -->
<g id="node3" class="node"><title>Node21</title>
<g id="a_node3"><a xlink:href="classgaencode_1_1_chromosome_base.html#ab7a374a062ba8b5c6b4e674bae9a8299" target="_top" xlink:title="gaencode::ChromosomeBase\l::print">
<polygon fill="white" stroke="black" points="429,-0.5 429,-30.5 584,-30.5 584,-0.5 429,-0.5"/>
<text text-anchor="start" x="437" y="-18.5" font-family="Helvetica,sans-Serif" font-size="10.00">gaencode::ChromosomeBase</text>
<text text-anchor="middle" x="506.5" y="-7.5" font-family="Helvetica,sans-Serif" font-size="10.00">::print</text>
</a>
</g>
</g>
<!-- Node20&#45;&gt;Node21 -->
<g id="edge2" class="edge"><title>Node20&#45;&gt;Node21</title>
<path fill="none" stroke="midnightblue" d="M393.198,-15.5C401.61,-15.5 410.174,-15.5 418.629,-15.5"/>
<polygon fill="midnightblue" stroke="midnightblue" points="418.873,-19.0001 428.873,-15.5 418.872,-12.0001 418.873,-19.0001"/>
</g>
</g>
</svg>
