<?xml version="1.0" encoding="UTF-8" standalone="no"?>
<!DOCTYPE svg PUBLIC "-//W3C//DTD SVG 1.1//EN"
 "http://www.w3.org/Graphics/SVG/1.1/DTD/svg11.dtd">
<!-- Generated by graphviz version 2.38.0 (20140413.2041)
 -->
<!-- Title: partition::PartitionDisjSets::PartitionDisjSets Pages: 1 -->
<svg width="277pt" height="78pt"
 viewBox="0.00 0.00 277.00 77.50" xmlns="http://www.w3.org/2000/svg" xmlns:xlink="http://www.w3.org/1999/xlink">
<g id="graph0" class="graph" transform="scale(1 1) rotate(0) translate(4 73.5)">
<title>partition::PartitionDisjSets::PartitionDisjSets</title>
<polygon fill="white" stroke="none" points="-4,4 -4,-73.5 273,-73.5 273,4 -4,4"/>
<!-- Node3 -->
<g id="node1" class="node"><title>Node3</title>
<polygon fill="#bfbfbf" stroke="black" points="0,-22.5 0,-52.5 116,-52.5 116,-22.5 0,-22.5"/>
<text text-anchor="start" x="8" y="-40.5" font-family="Helvetica,sans-Serif" font-size="10.00">partition::PartitionDisj</text>
<text text-anchor="middle" x="58" y="-29.5" font-family="Helvetica,sans-Serif" font-size="10.00">Sets::PartitionDisjSets</text>
</g>
<!-- Node4 -->
<g id="node2" class="node"><title>Node4</title>
<g id="a_node2"><a xlink:href="classds_1_1_disj_sets.html#adf2c0eb56af4ef022229c7825e75c733" target="_top" xlink:title="ds::DisjSets::constfind">
<polygon fill="white" stroke="black" points="152,-50 152,-69 269,-69 269,-50 152,-50"/>
<text text-anchor="middle" x="210.5" y="-57" font-family="Helvetica,sans-Serif" font-size="10.00">ds::DisjSets::constfind</text>
</a>
</g>
</g>
<!-- Node3&#45;&gt;Node4 -->
<g id="edge1" class="edge"><title>Node3&#45;&gt;Node4</title>
<path fill="none" stroke="midnightblue" d="M116.327,-45.88C124.686,-47.1019 133.358,-48.3696 141.897,-49.6179"/>
<polygon fill="midnightblue" stroke="midnightblue" points="141.433,-53.0871 151.834,-51.0704 142.445,-46.1607 141.433,-53.0871"/>
</g>
<!-- Node5 -->
<g id="node3" class="node"><title>Node5</title>
<g id="a_node3"><a xlink:href="classpartition_1_1_partition_disj_sets.html#a34727e40fa6ed8ed2c96abec5035278d" target="_top" xlink:title="partition::PartitionDisj\lSets::PartitionDisjSets">
<polygon fill="white" stroke="black" points="152.5,-0.5 152.5,-30.5 268.5,-30.5 268.5,-0.5 152.5,-0.5"/>
<text text-anchor="start" x="160.5" y="-18.5" font-family="Helvetica,sans-Serif" font-size="10.00">partition::PartitionDisj</text>
<text text-anchor="middle" x="210.5" y="-7.5" font-family="Helvetica,sans-Serif" font-size="10.00">Sets::PartitionDisjSets</text>
</a>
</g>
</g>
<!-- Node3&#45;&gt;Node5 -->
<g id="edge2" class="edge"><title>Node3&#45;&gt;Node5</title>
<path fill="none" stroke="midnightblue" d="M116.327,-29.12C124.805,-27.8806 133.606,-26.5942 142.263,-25.3287"/>
<polygon fill="midnightblue" stroke="midnightblue" points="142.944,-28.7664 152.332,-23.8567 141.931,-21.84 142.944,-28.7664"/>
</g>
</g>
</svg>
