<?xml version="1.0" encoding="UTF-8" standalone="no"?>
<!DOCTYPE svg PUBLIC "-//W3C//DTD SVG 1.1//EN"
 "http://www.w3.org/Graphics/SVG/1.1/DTD/svg11.dtd">
<!-- Generated by graphviz version 2.38.0 (20140413.2041)
 -->
<!-- Title: inout::InParamPcPm::print Pages: 1 -->
<svg width="620pt" height="39pt"
 viewBox="0.00 0.00 620.00 39.00" xmlns="http://www.w3.org/2000/svg" xmlns:xlink="http://www.w3.org/1999/xlink">
<g id="graph0" class="graph" transform="scale(1 1) rotate(0) translate(4 35)">
<title>inout::InParamPcPm::print</title>
<polygon fill="white" stroke="none" points="-4,4 -4,-35 616,-35 616,4 -4,4"/>
<!-- Node4 -->
<g id="node1" class="node"><title>Node4</title>
<g id="a_node1"><a xlink:title=" ">
<polygon fill="#bfbfbf" stroke="black" points="0,-0.5 0,-30.5 108,-30.5 108,-0.5 0,-0.5"/>
<text text-anchor="start" x="8" y="-18.5" font-family="Helvetica,sans-Serif" font-size="10.00">inout::InParamPcPm</text>
<text text-anchor="middle" x="54" y="-7.5" font-family="Helvetica,sans-Serif" font-size="10.00">::print</text>
</a>
</g>
</g>
<!-- Node5 -->
<g id="node2" class="node"><title>Node5</title>
<g id="a_node2"><a xlink:href="classinout_1_1_in_param_g_a_clustering.html#a5d441a0cbbc91fa20c44520560fffe30" target="_top" xlink:title=" ">
<polygon fill="white" stroke="black" points="144,-0.5 144,-30.5 285,-30.5 285,-0.5 144,-0.5"/>
<text text-anchor="start" x="152" y="-18.5" font-family="Helvetica,sans-Serif" font-size="10.00">inout::InParamGAClustering</text>
<text text-anchor="middle" x="214.5" y="-7.5" font-family="Helvetica,sans-Serif" font-size="10.00">::print</text>
</a>
</g>
</g>
<!-- Node4&#45;&gt;Node5 -->
<g id="edge1" class="edge"><title>Node4&#45;&gt;Node5</title>
<path fill="none" stroke="midnightblue" d="M108.219,-15.5C116.428,-15.5 125.057,-15.5 133.694,-15.5"/>
<polygon fill="midnightblue" stroke="midnightblue" points="133.813,-19.0001 143.813,-15.5 133.813,-12.0001 133.813,-19.0001"/>
</g>
<!-- Node6 -->
<g id="node3" class="node"><title>Node6</title>
<g id="a_node3"><a xlink:href="classinout_1_1_in_param_clustering.html#a8c6c0fafcd08e2de1d2f336ca30894d9" target="_top" xlink:title=" ">
<polygon fill="white" stroke="black" points="321,-0.5 321,-30.5 447,-30.5 447,-0.5 321,-0.5"/>
<text text-anchor="start" x="329" y="-18.5" font-family="Helvetica,sans-Serif" font-size="10.00">inout::InParamClustering</text>
<text text-anchor="middle" x="384" y="-7.5" font-family="Helvetica,sans-Serif" font-size="10.00">::print</text>
</a>
</g>
</g>
<!-- Node5&#45;&gt;Node6 -->
<g id="edge2" class="edge"><title>Node5&#45;&gt;Node6</title>
<path fill="none" stroke="midnightblue" d="M285.08,-15.5C293.515,-15.5 302.147,-15.5 310.622,-15.5"/>
<polygon fill="midnightblue" stroke="midnightblue" points="310.856,-19.0001 320.856,-15.5 310.856,-12.0001 310.856,-19.0001"/>
</g>
<!-- Node7 -->
<g id="node4" class="node"><title>Node7</title>
<g id="a_node4"><a xlink:href="classinout_1_1_in_param_algorithmo.html#a97ec15acf20ba619b4538d193125a082" target="_top" xlink:title=" ">
<polygon fill="white" stroke="black" points="483,-0.5 483,-30.5 612,-30.5 612,-0.5 483,-0.5"/>
<text text-anchor="start" x="491" y="-18.5" font-family="Helvetica,sans-Serif" font-size="10.00">inout::InParamAlgorithmo</text>
<text text-anchor="middle" x="547.5" y="-7.5" font-family="Helvetica,sans-Serif" font-size="10.00">::print</text>
</a>
</g>
</g>
<!-- Node6&#45;&gt;Node7 -->
<g id="edge3" class="edge"><title>Node6&#45;&gt;Node7</title>
<path fill="none" stroke="midnightblue" d="M447.44,-15.5C455.707,-15.5 464.244,-15.5 472.679,-15.5"/>
<polygon fill="midnightblue" stroke="midnightblue" points="472.893,-19.0001 482.893,-15.5 472.893,-12.0001 472.893,-19.0001"/>
</g>
</g>
</svg>
