<?xml version="1.0" encoding="UTF-8" standalone="no"?>
<!DOCTYPE svg PUBLIC "-//W3C//DTD SVG 1.1//EN"
 "http://www.w3.org/Graphics/SVG/1.1/DTD/svg11.dtd">
<!-- Generated by graphviz version 2.38.0 (20140413.2041)
 -->
<!-- Title: inout::InParamAlgorithmo Pages: 1 -->
<svg width="175pt" height="453pt"
 viewBox="0.00 0.00 174.50 453.00" xmlns="http://www.w3.org/2000/svg" xmlns:xlink="http://www.w3.org/1999/xlink">
<g id="graph0" class="graph" transform="scale(1 1) rotate(0) translate(4 449)">
<title>inout::InParamAlgorithmo</title>
<polygon fill="white" stroke="none" points="-4,4 -4,-449 170.5,-449 170.5,4 -4,4"/>
<!-- Node32 -->
<g id="node1" class="node"><title>Node32</title>
<polygon fill="#bfbfbf" stroke="black" points="0,-0.5 0,-200.5 135,-200.5 135,-0.5 0,-0.5"/>
<text text-anchor="middle" x="67.5" y="-188.5" font-family="Helvetica,sans-Serif" font-size="10.00">inout::InParamAlgorithmo</text>
<polyline fill="none" stroke="black" points="0,-181.5 135,-181.5 "/>
<text text-anchor="start" x="8" y="-169.5" font-family="Helvetica,sans-Serif" font-size="10.00"># ato_algTypeOut</text>
<text text-anchor="start" x="8" y="-158.5" font-family="Helvetica,sans-Serif" font-size="10.00"># ps_fileNameTimesRun</text>
<text text-anchor="start" x="8" y="-147.5" font-family="Helvetica,sans-Serif" font-size="10.00"># b_progressBarPrinting</text>
<text text-anchor="start" x="8" y="-136.5" font-family="Helvetica,sans-Serif" font-size="10.00"># i_timesRunAlgorithm</text>
<polyline fill="none" stroke="black" points="0,-129.5 135,-129.5 "/>
<text text-anchor="start" x="8" y="-117.5" font-family="Helvetica,sans-Serif" font-size="10.00">+ InParamAlgorithmo()</text>
<text text-anchor="start" x="8" y="-106.5" font-family="Helvetica,sans-Serif" font-size="10.00">+ ~InParamAlgorithmo()</text>
<text text-anchor="start" x="8" y="-95.5" font-family="Helvetica,sans-Serif" font-size="10.00">+ errorArgument()</text>
<text text-anchor="start" x="8" y="-84.5" font-family="Helvetica,sans-Serif" font-size="10.00">+ isYesNo()</text>
<text text-anchor="start" x="8" y="-73.5" font-family="Helvetica,sans-Serif" font-size="10.00">+ setFileNameTimesRun()</text>
<text text-anchor="start" x="8" y="-62.5" font-family="Helvetica,sans-Serif" font-size="10.00">+ setProgressBarPrinting()</text>
<text text-anchor="start" x="8" y="-51.5" font-family="Helvetica,sans-Serif" font-size="10.00">+ setTimesRunAlgorithm()</text>
<text text-anchor="start" x="8" y="-40.5" font-family="Helvetica,sans-Serif" font-size="10.00">+ setGnuPlotCoreStyles()</text>
<text text-anchor="start" x="8" y="-29.5" font-family="Helvetica,sans-Serif" font-size="10.00">+ getAlgorithmoAuthor()</text>
<text text-anchor="start" x="8" y="-18.5" font-family="Helvetica,sans-Serif" font-size="10.00">+ getAlgorithmoName()</text>
<text text-anchor="start" x="8" y="-7.5" font-family="Helvetica,sans-Serif" font-size="10.00">and 8 more...</text>
</g>
<!-- Node33 -->
<g id="node2" class="node"><title>Node33</title>
<g id="a_node2"><a xlink:title="STL class. ">
<polygon fill="white" stroke="#bfbfbf" points="37.5,-281.5 37.5,-338.5 97.5,-338.5 97.5,-281.5 37.5,-281.5"/>
<text text-anchor="middle" x="67.5" y="-326.5" font-family="Helvetica,sans-Serif" font-size="10.00">std::string</text>
<polyline fill="none" stroke="#bfbfbf" points="37.5,-319.5 97.5,-319.5 "/>
<text text-anchor="middle" x="67.5" y="-307.5" font-family="Helvetica,sans-Serif" font-size="10.00"> </text>
<polyline fill="none" stroke="#bfbfbf" points="37.5,-300.5 97.5,-300.5 "/>
<text text-anchor="middle" x="67.5" y="-288.5" font-family="Helvetica,sans-Serif" font-size="10.00"> </text>
</a>
</g>
</g>
<!-- Node33&#45;&gt;Node32 -->
<g id="edge1" class="edge"><title>Node33&#45;&gt;Node32</title>
<path fill="none" stroke="#404040" d="M67.5,-281.446C67.5,-263.363 67.5,-238.399 67.5,-212.818"/>
<polygon fill="none" stroke="#404040" points="67.5001,-212.642 63.5,-206.642 67.5,-200.642 71.5,-206.642 67.5001,-212.642"/>
<text text-anchor="middle" x="117" y="-255" font-family="Helvetica,sans-Serif" font-size="10.00"> #s_algorithmoAuthor</text>
<text text-anchor="middle" x="117" y="-244" font-family="Helvetica,sans-Serif" font-size="10.00">#s_algorithmoName</text>
<text text-anchor="middle" x="117" y="-233" font-family="Helvetica,sans-Serif" font-size="10.00">#s_gnuplotCoreStyles</text>
<text text-anchor="middle" x="117" y="-222" font-family="Helvetica,sans-Serif" font-size="10.00">#_s_runTimeId</text>
</g>
<!-- Node34 -->
<g id="node3" class="node"><title>Node34</title>
<g id="a_node3"><a xlink:title="STL class. ">
<polygon fill="white" stroke="#bfbfbf" points="20,-376.5 20,-444.5 115,-444.5 115,-376.5 20,-376.5"/>
<text text-anchor="start" x="28" y="-432.5" font-family="Helvetica,sans-Serif" font-size="10.00">std::basic_string&lt;</text>
<text text-anchor="middle" x="67.5" y="-421.5" font-family="Helvetica,sans-Serif" font-size="10.00"> char &gt;</text>
<polyline fill="none" stroke="#bfbfbf" points="20,-414.5 115,-414.5 "/>
<text text-anchor="middle" x="67.5" y="-402.5" font-family="Helvetica,sans-Serif" font-size="10.00"> </text>
<polyline fill="none" stroke="#bfbfbf" points="20,-395.5 115,-395.5 "/>
<text text-anchor="middle" x="67.5" y="-383.5" font-family="Helvetica,sans-Serif" font-size="10.00"> </text>
</a>
</g>
</g>
<!-- Node34&#45;&gt;Node33 -->
<g id="edge2" class="edge"><title>Node34&#45;&gt;Node33</title>
<path fill="none" stroke="midnightblue" d="M67.5,-366.375C67.5,-356.94 67.5,-347.201 67.5,-338.571"/>
<polygon fill="none" stroke="midnightblue" points="64.0001,-366.427 67.5,-376.427 71.0001,-366.427 64.0001,-366.427"/>
</g>
</g>
</svg>
