<?xml version="1.0" encoding="UTF-8" standalone="no"?>
<!DOCTYPE svg PUBLIC "-//W3C//DTD SVG 1.1//EN"
 "http://www.w3.org/Graphics/SVG/1.1/DTD/svg11.dtd">
<!-- Generated by graphviz version 2.38.0 (20140413.2041)
 -->
<!-- Title: graph::AlgorithmsDFS Pages: 1 -->
<svg width="475pt" height="585pt"
 viewBox="0.00 0.00 475.00 585.00" xmlns="http://www.w3.org/2000/svg" xmlns:xlink="http://www.w3.org/1999/xlink">
<g id="graph0" class="graph" transform="scale(1 1) rotate(0) translate(4 581)">
<title>graph::AlgorithmsDFS</title>
<polygon fill="white" stroke="none" points="-4,4 -4,-581 471,-581 471,4 -4,4"/>
<!-- Node1 -->
<g id="node1" class="node"><title>Node1</title>
<g id="a_node1"><a xlink:title="Depth&#45;first search algorithms.">
<polygon fill="#bfbfbf" stroke="black" points="147,-0.5 147,-123.5 271,-123.5 271,-0.5 147,-0.5"/>
<text text-anchor="middle" x="209" y="-111.5" font-family="Helvetica,sans-Serif" font-size="10.00">graph::AlgorithmsDFS</text>
<polyline fill="none" stroke="black" points="147,-104.5 271,-104.5 "/>
<text text-anchor="start" x="155" y="-92.5" font-family="Helvetica,sans-Serif" font-size="10.00">&#45; _uintidx_time</text>
<polyline fill="none" stroke="black" points="147,-85.5 271,-85.5 "/>
<text text-anchor="start" x="155" y="-73.5" font-family="Helvetica,sans-Serif" font-size="10.00">+ AlgorithmsDFS()</text>
<text text-anchor="start" x="155" y="-62.5" font-family="Helvetica,sans-Serif" font-size="10.00">+ ~AlgorithmsDFS()</text>
<text text-anchor="start" x="155" y="-51.5" font-family="Helvetica,sans-Serif" font-size="10.00">+ resolve()</text>
<text text-anchor="start" x="155" y="-40.5" font-family="Helvetica,sans-Serif" font-size="10.00">+ resolve()</text>
<text text-anchor="start" x="155" y="-29.5" font-family="Helvetica,sans-Serif" font-size="10.00">+ dfs_visit()</text>
<text text-anchor="start" x="155" y="-18.5" font-family="Helvetica,sans-Serif" font-size="10.00">+ getVertexReachable()</text>
<text text-anchor="start" x="155" y="-7.5" font-family="Helvetica,sans-Serif" font-size="10.00">+ print()</text>
</a>
</g>
</g>
<!-- Node2 -->
<g id="node2" class="node"><title>Node2</title>
<g id="a_node2"><a xlink:title=" ">
<polygon fill="white" stroke="#bfbfbf" points="0,-199 0,-256 110,-256 110,-199 0,-199"/>
<text text-anchor="middle" x="55" y="-244" font-family="Helvetica,sans-Serif" font-size="10.00">std::vector&lt; uintidx &gt;</text>
<polyline fill="none" stroke="#bfbfbf" points="0,-237 110,-237 "/>
<text text-anchor="start" x="8" y="-225" font-family="Helvetica,sans-Serif" font-size="10.00">+ elements</text>
<polyline fill="none" stroke="#bfbfbf" points="0,-218 110,-218 "/>
<text text-anchor="middle" x="55" y="-206" font-family="Helvetica,sans-Serif" font-size="10.00"> </text>
</a>
</g>
</g>
<!-- Node2&#45;&gt;Node1 -->
<g id="edge1" class="edge"><title>Node2&#45;&gt;Node1</title>
<path fill="none" stroke="#404040" d="M70.444,-198.708C80.7383,-181.436 95.2377,-159.304 111,-142 119.057,-133.155 128.15,-124.479 137.468,-116.306"/>
<polygon fill="none" stroke="#404040" points="137.704,-116.104 139.67,-109.166 146.831,-108.312 144.865,-115.25 137.704,-116.104"/>
<text text-anchor="middle" x="158" y="-167" font-family="Helvetica,sans-Serif" font-size="10.00"> &#45;_vectorvertexidx_pi</text>
<text text-anchor="middle" x="158" y="-156" font-family="Helvetica,sans-Serif" font-size="10.00">&#45;d</text>
<text text-anchor="middle" x="158" y="-145" font-family="Helvetica,sans-Serif" font-size="10.00">&#45;f</text>
</g>
<!-- Node3 -->
<g id="node3" class="node"><title>Node3</title>
<g id="a_node3"><a xlink:title="STL class.">
<polygon fill="white" stroke="#bfbfbf" points="177.5,-309.5 177.5,-366.5 266.5,-366.5 266.5,-309.5 177.5,-309.5"/>
<text text-anchor="middle" x="222" y="-354.5" font-family="Helvetica,sans-Serif" font-size="10.00">std::vector&lt; T &gt;</text>
<polyline fill="none" stroke="#bfbfbf" points="177.5,-347.5 266.5,-347.5 "/>
<text text-anchor="middle" x="222" y="-335.5" font-family="Helvetica,sans-Serif" font-size="10.00"> </text>
<polyline fill="none" stroke="#bfbfbf" points="177.5,-328.5 266.5,-328.5 "/>
<text text-anchor="middle" x="222" y="-316.5" font-family="Helvetica,sans-Serif" font-size="10.00"> </text>
</a>
</g>
</g>
<!-- Node3&#45;&gt;Node2 -->
<g id="edge2" class="edge"><title>Node3&#45;&gt;Node2</title>
<path fill="none" stroke="orange" d="M168.116,-310.879C156.625,-304.747 144.727,-297.959 134,-291 117.861,-280.53 101.006,-267.518 87.0295,-256.082"/>
<polygon fill="orange" stroke="orange" points="166.731,-314.105 177.213,-315.647 169.98,-307.905 166.731,-314.105"/>
<text text-anchor="middle" x="159" y="-283" font-family="Helvetica,sans-Serif" font-size="10.00"> &lt; uintidx &gt;</text>
</g>
<!-- Node5 -->
<g id="node5" class="node"><title>Node5</title>
<g id="a_node5"><a xlink:title=" ">
<polygon fill="white" stroke="#bfbfbf" points="128,-199 128,-256 290,-256 290,-199 128,-199"/>
<text text-anchor="middle" x="209" y="-244" font-family="Helvetica,sans-Serif" font-size="10.00">std::vector&lt; GraphStateVertex &gt;</text>
<polyline fill="none" stroke="#bfbfbf" points="128,-237 290,-237 "/>
<text text-anchor="start" x="136" y="-225" font-family="Helvetica,sans-Serif" font-size="10.00">+ elements</text>
<polyline fill="none" stroke="#bfbfbf" points="128,-218 290,-218 "/>
<text text-anchor="middle" x="209" y="-206" font-family="Helvetica,sans-Serif" font-size="10.00"> </text>
</a>
</g>
</g>
<!-- Node3&#45;&gt;Node5 -->
<g id="edge5" class="edge"><title>Node3&#45;&gt;Node5</title>
<path fill="none" stroke="orange" d="M192.9,-300.396C191.357,-297.329 190.023,-294.181 189,-291 185.338,-279.612 188.044,-267.052 192.511,-256.196"/>
<polygon fill="orange" stroke="orange" points="190.019,-302.406 198.059,-309.307 196.077,-298.899 190.019,-302.406"/>
<text text-anchor="middle" x="240" y="-283" font-family="Helvetica,sans-Serif" font-size="10.00"> &lt; GraphStateVertex &gt;</text>
</g>
<!-- Node6 -->
<g id="node6" class="node"><title>Node6</title>
<g id="a_node6"><a xlink:title=" ">
<polygon fill="white" stroke="#bfbfbf" points="308,-193.5 308,-261.5 412,-261.5 412,-193.5 308,-193.5"/>
<text text-anchor="start" x="316" y="-249.5" font-family="Helvetica,sans-Serif" font-size="10.00">std::vector&lt; std::list</text>
<text text-anchor="middle" x="360" y="-238.5" font-family="Helvetica,sans-Serif" font-size="10.00">&lt; uintidx &gt; &gt;</text>
<polyline fill="none" stroke="#bfbfbf" points="308,-231.5 412,-231.5 "/>
<text text-anchor="middle" x="360" y="-219.5" font-family="Helvetica,sans-Serif" font-size="10.00"> </text>
<polyline fill="none" stroke="#bfbfbf" points="308,-212.5 412,-212.5 "/>
<text text-anchor="middle" x="360" y="-200.5" font-family="Helvetica,sans-Serif" font-size="10.00"> </text>
</a>
</g>
</g>
<!-- Node3&#45;&gt;Node6 -->
<g id="edge10" class="edge"><title>Node3&#45;&gt;Node6</title>
<path fill="none" stroke="orange" d="M273.946,-303.581C279.789,-299.467 285.583,-295.222 291,-291 302.601,-281.959 314.673,-271.448 325.416,-261.655"/>
<polygon fill="orange" stroke="orange" points="271.625,-300.931 265.39,-309.497 275.606,-306.689 271.625,-300.931"/>
<text text-anchor="middle" x="352" y="-283" font-family="Helvetica,sans-Serif" font-size="10.00"> &lt; std::list&lt; uintidx &gt; &gt;</text>
</g>
<!-- Node4 -->
<g id="node4" class="node"><title>Node4</title>
<g id="a_node4"><a xlink:title=" ">
<polygon fill="white" stroke="#bfbfbf" points="243.5,-519.5 243.5,-576.5 272.5,-576.5 272.5,-519.5 243.5,-519.5"/>
<text text-anchor="middle" x="258" y="-564.5" font-family="Helvetica,sans-Serif" font-size="10.00">T</text>
<polyline fill="none" stroke="#bfbfbf" points="243.5,-557.5 272.5,-557.5 "/>
<text text-anchor="middle" x="258" y="-545.5" font-family="Helvetica,sans-Serif" font-size="10.00"> </text>
<polyline fill="none" stroke="#bfbfbf" points="243.5,-538.5 272.5,-538.5 "/>
<text text-anchor="middle" x="258" y="-526.5" font-family="Helvetica,sans-Serif" font-size="10.00"> </text>
</a>
</g>
</g>
<!-- Node4&#45;&gt;Node3 -->
<g id="edge3" class="edge"><title>Node4&#45;&gt;Node3</title>
<path fill="none" stroke="#404040" d="M247.001,-519.299C241.912,-505.331 236.279,-488 233,-472 226.664,-441.084 223.957,-405.414 222.81,-378.802"/>
<polygon fill="none" stroke="#404040" points="222.8,-378.518 218.584,-372.668 222.363,-366.526 226.579,-372.377 222.8,-378.518"/>
<text text-anchor="middle" x="258.5" y="-440.5" font-family="Helvetica,sans-Serif" font-size="10.00"> +elements</text>
</g>
<!-- Node8 -->
<g id="node8" class="node"><title>Node8</title>
<g id="a_node8"><a xlink:title="STL class.">
<polygon fill="white" stroke="#bfbfbf" points="293,-414.5 293,-471.5 367,-471.5 367,-414.5 293,-414.5"/>
<text text-anchor="middle" x="330" y="-459.5" font-family="Helvetica,sans-Serif" font-size="10.00">std::list&lt; T &gt;</text>
<polyline fill="none" stroke="#bfbfbf" points="293,-452.5 367,-452.5 "/>
<text text-anchor="middle" x="330" y="-440.5" font-family="Helvetica,sans-Serif" font-size="10.00"> </text>
<polyline fill="none" stroke="#bfbfbf" points="293,-433.5 367,-433.5 "/>
<text text-anchor="middle" x="330" y="-421.5" font-family="Helvetica,sans-Serif" font-size="10.00"> </text>
</a>
</g>
</g>
<!-- Node4&#45;&gt;Node8 -->
<g id="edge9" class="edge"><title>Node4&#45;&gt;Node8</title>
<path fill="none" stroke="#404040" d="M272.57,-526.156C281.451,-513.452 293.067,-496.834 303.528,-481.87"/>
<polygon fill="none" stroke="#404040" points="303.661,-481.679 303.821,-474.47 310.537,-471.844 310.377,-479.053 303.661,-481.679"/>
<text text-anchor="middle" x="321.5" y="-493" font-family="Helvetica,sans-Serif" font-size="10.00"> +elements</text>
</g>
<!-- Node5&#45;&gt;Node1 -->
<g id="edge4" class="edge"><title>Node5&#45;&gt;Node1</title>
<path fill="none" stroke="#404040" d="M209,-198.764C209,-181.468 209,-158.333 209,-136.067"/>
<polygon fill="none" stroke="#404040" points="209,-135.829 205,-129.829 209,-123.829 213,-129.829 209,-135.829"/>
<text text-anchor="middle" x="255" y="-156" font-family="Helvetica,sans-Serif" font-size="10.00"> &#45;_vectorenum_color</text>
</g>
<!-- Node6&#45;&gt;Node1 -->
<g id="edge6" class="edge"><title>Node6&#45;&gt;Node1</title>
<path fill="none" stroke="#404040" d="M341.534,-193.142C331.745,-176.878 318.885,-157.527 305,-142 297.472,-133.581 289.01,-125.304 280.312,-117.461"/>
<polygon fill="none" stroke="#404040" points="280.211,-117.372 273.063,-116.422 271.19,-109.458 278.339,-110.409 280.211,-117.372"/>
<text text-anchor="middle" x="368.5" y="-156" font-family="Helvetica,sans-Serif" font-size="10.00"> &#45;_vectorlistadj_g</text>
</g>
<!-- Node7 -->
<g id="node7" class="node"><title>Node7</title>
<g id="a_node7"><a xlink:title=" ">
<polygon fill="white" stroke="#bfbfbf" points="353.5,-309.5 353.5,-366.5 448.5,-366.5 448.5,-309.5 353.5,-309.5"/>
<text text-anchor="middle" x="401" y="-354.5" font-family="Helvetica,sans-Serif" font-size="10.00">std::list&lt; uintidx &gt;</text>
<polyline fill="none" stroke="#bfbfbf" points="353.5,-347.5 448.5,-347.5 "/>
<text text-anchor="start" x="361.5" y="-335.5" font-family="Helvetica,sans-Serif" font-size="10.00">+ elements</text>
<polyline fill="none" stroke="#bfbfbf" points="353.5,-328.5 448.5,-328.5 "/>
<text text-anchor="middle" x="401" y="-316.5" font-family="Helvetica,sans-Serif" font-size="10.00"> </text>
</a>
</g>
</g>
<!-- Node7&#45;&gt;Node6 -->
<g id="edge7" class="edge"><title>Node7&#45;&gt;Node6</title>
<path fill="none" stroke="#404040" d="M414.134,-309.403C416.907,-299.855 417.955,-289.237 414,-280 412.773,-277.134 411.3,-274.352 409.637,-271.664"/>
<polygon fill="none" stroke="#404040" points="409.49,-271.463 402.72,-268.981 402.407,-261.776 409.177,-264.258 409.49,-271.463"/>
<text text-anchor="middle" x="441.5" y="-283" font-family="Helvetica,sans-Serif" font-size="10.00"> +elements</text>
</g>
<!-- Node8&#45;&gt;Node7 -->
<g id="edge8" class="edge"><title>Node8&#45;&gt;Node7</title>
<path fill="none" stroke="orange" d="M354.716,-406.144C363.635,-393.205 373.558,-378.811 381.921,-366.678"/>
<polygon fill="orange" stroke="orange" points="351.82,-404.178 349.027,-414.398 357.584,-408.151 351.82,-404.178"/>
<text text-anchor="middle" x="392" y="-388" font-family="Helvetica,sans-Serif" font-size="10.00"> &lt; uintidx &gt;</text>
</g>
</g>
</svg>
