<?xml version="1.0" encoding="UTF-8" standalone="no"?>
<!DOCTYPE svg PUBLIC "-//W3C//DTD SVG 1.1//EN"
 "http://www.w3.org/Graphics/SVG/1.1/DTD/svg11.dtd">
<!-- Generated by graphviz version 2.38.0 (20140413.2041)
 -->
<!-- Title: gaencode::ChromVariableLength::operator= Pages: 1 -->
<svg width="569pt" height="127pt"
 viewBox="0.00 0.00 569.00 126.50" xmlns="http://www.w3.org/2000/svg" xmlns:xlink="http://www.w3.org/1999/xlink">
<g id="graph0" class="graph" transform="scale(1 1) rotate(0) translate(4 122.5)">
<title>gaencode::ChromVariableLength::operator=</title>
<polygon fill="white" stroke="none" points="-4,4 -4,-122.5 565,-122.5 565,4 -4,4"/>
<!-- Node17 -->
<g id="node1" class="node"><title>Node17</title>
<g id="a_node1"><a xlink:title=" ">
<polygon fill="#bfbfbf" stroke="black" points="0,-49.5 0,-79.5 167,-79.5 167,-49.5 0,-49.5"/>
<text text-anchor="start" x="8" y="-67.5" font-family="Helvetica,sans-Serif" font-size="10.00">gaencode::ChromVariableLength</text>
<text text-anchor="middle" x="83.5" y="-56.5" font-family="Helvetica,sans-Serif" font-size="10.00">::operator=</text>
</a>
</g>
</g>
<!-- Node18 -->
<g id="node2" class="node"><title>Node18</title>
<g id="a_node2"><a xlink:href="namespaceinterfacesse.html#a925f44ed84d40e9af5050fa0e1373396" target="_top" xlink:title="copy array aoarrayt_x in aoarrayt_y of type T">
<polygon fill="white" stroke="black" points="237,-99 237,-118 336,-118 336,-99 237,-99"/>
<text text-anchor="middle" x="286.5" y="-106" font-family="Helvetica,sans-Serif" font-size="10.00">interfacesse::copy</text>
</a>
</g>
</g>
<!-- Node17&#45;&gt;Node18 -->
<g id="edge1" class="edge"><title>Node17&#45;&gt;Node18</title>
<path fill="none" stroke="midnightblue" d="M153.111,-79.5192C178.884,-85.1612 207.779,-91.4864 231.983,-96.7847"/>
<polygon fill="midnightblue" stroke="midnightblue" points="231.528,-100.268 242.046,-98.9876 233.025,-93.43 231.528,-100.268"/>
</g>
<!-- Node19 -->
<g id="node3" class="node"><title>Node19</title>
<g id="a_node3"><a xlink:href="classgaencode_1_1_chromosome_string.html#a14a37ed8af3740413e0585949bb859d2" target="_top" xlink:title=" ">
<polygon fill="white" stroke="black" points="208.5,-49.5 208.5,-79.5 364.5,-79.5 364.5,-49.5 208.5,-49.5"/>
<text text-anchor="start" x="216.5" y="-67.5" font-family="Helvetica,sans-Serif" font-size="10.00">gaencode::ChromosomeString</text>
<text text-anchor="middle" x="286.5" y="-56.5" font-family="Helvetica,sans-Serif" font-size="10.00">::operator=</text>
</a>
</g>
</g>
<!-- Node17&#45;&gt;Node19 -->
<g id="edge2" class="edge"><title>Node17&#45;&gt;Node19</title>
<path fill="none" stroke="midnightblue" d="M167.125,-64.5C177.357,-64.5 187.845,-64.5 198.145,-64.5"/>
<polygon fill="midnightblue" stroke="midnightblue" points="198.366,-68.0001 208.366,-64.5 198.366,-61.0001 198.366,-68.0001"/>
</g>
<!-- Node20 -->
<g id="node4" class="node"><title>Node20</title>
<g id="a_node4"><a xlink:href="classgaencode_1_1_chrom_variable_length.html#ad9aade851fa130ddc0fb16a1dd9a15e1" target="_top" xlink:title=" ">
<polygon fill="white" stroke="black" points="203,-0.5 203,-30.5 370,-30.5 370,-0.5 203,-0.5"/>
<text text-anchor="start" x="211" y="-18.5" font-family="Helvetica,sans-Serif" font-size="10.00">gaencode::ChromVariableLength</text>
<text text-anchor="middle" x="286.5" y="-7.5" font-family="Helvetica,sans-Serif" font-size="10.00">::print</text>
</a>
</g>
</g>
<!-- Node17&#45;&gt;Node20 -->
<g id="edge3" class="edge"><title>Node17&#45;&gt;Node20</title>
<path fill="none" stroke="midnightblue" d="M146.173,-49.4654C167.588,-44.2446 191.784,-38.3463 213.93,-32.9474"/>
<polygon fill="midnightblue" stroke="midnightblue" points="215.058,-36.2751 223.944,-30.5062 213.4,-29.4743 215.058,-36.2751"/>
</g>
<!-- Node21 -->
<g id="node5" class="node"><title>Node21</title>
<g id="a_node5"><a xlink:href="classgaencode_1_1_chromosome_base.html#ab7a374a062ba8b5c6b4e674bae9a8299" target="_top" xlink:title=" ">
<polygon fill="white" stroke="black" points="406,-0.5 406,-30.5 561,-30.5 561,-0.5 406,-0.5"/>
<text text-anchor="start" x="414" y="-18.5" font-family="Helvetica,sans-Serif" font-size="10.00">gaencode::ChromosomeBase</text>
<text text-anchor="middle" x="483.5" y="-7.5" font-family="Helvetica,sans-Serif" font-size="10.00">::print</text>
</a>
</g>
</g>
<!-- Node20&#45;&gt;Node21 -->
<g id="edge4" class="edge"><title>Node20&#45;&gt;Node21</title>
<path fill="none" stroke="midnightblue" d="M370.198,-15.5C378.61,-15.5 387.174,-15.5 395.629,-15.5"/>
<polygon fill="midnightblue" stroke="midnightblue" points="395.873,-19.0001 405.873,-15.5 395.872,-12.0001 395.873,-19.0001"/>
</g>
</g>
</svg>
