<?xml version="1.0" encoding="UTF-8" standalone="no"?>
<!DOCTYPE svg PUBLIC "-//W3C//DTD SVG 1.1//EN"
 "http://www.w3.org/Graphics/SVG/1.1/DTD/svg11.dtd">
<!-- Generated by graphviz version 2.38.0 (20140413.2041)
 -->
<!-- Title: ds::PartitionLinkedNumInst&lt; T_CLUSTERIDX, T_INSTANCES_CLUSTER_K &gt; Pages: 1 -->
<!--zoomable 787 -->
<svg id="main" version="1.1" xmlns="http://www.w3.org/2000/svg" xmlns:xlink="http://www.w3.org/1999/xlink" xml:space="preserve" onload="init(evt)">
<style type="text/css"><![CDATA[
.edge:hover path { stroke: red; }
.edge:hover polygon { stroke: red; fill: red; }
]]></style>
<script type="text/javascript"><![CDATA[
var edges = document.getElementsByTagName('g');
if (edges && edges.length) {
  for (var i=0;i<edges.length;i++) {
    if (edges[i].id.substr(0,4)=='edge') {
      edges[i].setAttribute('class','edge');
    }
  }
}
]]></script>
        <defs>
                <circle id="rim" cx="0" cy="0" r="7"/>
                <circle id="rim2" cx="0" cy="0" r="3.5"/>
                <g id="zoomPlus">
                        <use xlink:href="#rim" fill="#404040">
                                <set attributeName="fill" to="#808080" begin="zoomplus.mouseover" end="zoomplus.mouseout"/>
                        </use>
                        <path d="M-4,0h8M0,-4v8" fill="none" stroke="white" stroke-width="1.5" pointer-events="none"/>
                </g>
                <g id="zoomMin">
                        <use xlink:href="#rim" fill="#404040">
                                <set attributeName="fill" to="#808080" begin="zoomminus.mouseover" end="zoomminus.mouseout"/>
                        </use>
                        <path d="M-4,0h8" fill="none" stroke="white" stroke-width="1.5" pointer-events="none"/>
                </g>
                <g id="dirArrow">
                        <path fill="none" stroke="white" stroke-width="1.5" d="M0,-3.0v7 M-2.5,-0.5L0,-3.0L2.5,-0.5"/>
                </g>
               <g id="resetDef">
                       <use xlink:href="#rim2" fill="#404040">
                               <set attributeName="fill" to="#808080" begin="reset.mouseover" end="reset.mouseout"/>
                       </use>
               </g>
        </defs>

<script type="text/javascript">
var viewWidth = 353;
var viewHeight = 787;
var sectionId = 'dynsection-1';
</script>
<script xlink:href="svgpan.js"/>
<svg id="graph" class="graph">
<g id="viewport">
<title>ds::PartitionLinkedNumInst&lt; T_CLUSTERIDX, T_INSTANCES_CLUSTER_K &gt;</title>
<polygon fill="white" stroke="none" points="-4,4 -4,-783 349,-783 349,4 -4,4"/>
<!-- Node2 -->
<g id="node1" class="node"><title>Node2</title>
<g id="a_node1"><a xlink:title="A data structure for managing an instance partition with the number of instances per cluster.">
<polygon fill="#bfbfbf" stroke="black" points="77.5,-0.5 77.5,-189.5 254.5,-189.5 254.5,-0.5 77.5,-0.5"/>
<text text-anchor="start" x="85.5" y="-177.5" font-family="Helvetica,sans-Serif" font-size="10.00">ds::PartitionLinkedNumInst</text>
<text text-anchor="start" x="85.5" y="-166.5" font-family="Helvetica,sans-Serif" font-size="10.00">&lt; T_CLUSTERIDX, T_INSTANCES</text>
<text text-anchor="middle" x="166" y="-155.5" font-family="Helvetica,sans-Serif" font-size="10.00">_CLUSTER_K &gt;</text>
<polyline fill="none" stroke="black" points="77.5,-148.5 254.5,-148.5 "/>
<text text-anchor="middle" x="166" y="-136.5" font-family="Helvetica,sans-Serif" font-size="10.00"> </text>
<polyline fill="none" stroke="black" points="77.5,-129.5 254.5,-129.5 "/>
<text text-anchor="start" x="85.5" y="-117.5" font-family="Helvetica,sans-Serif" font-size="10.00">+ PartitionLinkedNumInst()</text>
<text text-anchor="start" x="85.5" y="-106.5" font-family="Helvetica,sans-Serif" font-size="10.00">+ PartitionLinkedNumInst()</text>
<text text-anchor="start" x="85.5" y="-95.5" font-family="Helvetica,sans-Serif" font-size="10.00">+ PartitionLinkedNumInst()</text>
<text text-anchor="start" x="85.5" y="-84.5" font-family="Helvetica,sans-Serif" font-size="10.00">+ PartitionLinkedNumInst()</text>
<text text-anchor="start" x="85.5" y="-73.5" font-family="Helvetica,sans-Serif" font-size="10.00">+ ~PartitionLinkedNumInst()</text>
<text text-anchor="start" x="85.5" y="-62.5" font-family="Helvetica,sans-Serif" font-size="10.00">+ getNumInstClusterK()</text>
<text text-anchor="start" x="85.5" y="-51.5" font-family="Helvetica,sans-Serif" font-size="10.00">+ getVectorNumInstClusterK()</text>
<text text-anchor="start" x="85.5" y="-40.5" font-family="Helvetica,sans-Serif" font-size="10.00">+ haveNullCluster()</text>
<text text-anchor="start" x="85.5" y="-29.5" font-family="Helvetica,sans-Serif" font-size="10.00">+ getNumNullCluster()</text>
<text text-anchor="start" x="85.5" y="-18.5" font-family="Helvetica,sans-Serif" font-size="10.00">+ operator=()</text>
<text text-anchor="start" x="85.5" y="-7.5" font-family="Helvetica,sans-Serif" font-size="10.00">and 6 more...</text>
</a>
</g>
</g>
<!-- Node3 -->
<g id="node2" class="node"><title>Node3</title>
<g id="a_node2"><a xlink:href="classds_1_1_partition_linked.html" target="_top" xlink:title="Data structure to define the instances that belong to a cluster consecutively.">
<polygon fill="white" stroke="black" points="21,-227.5 21,-405.5 139,-405.5 139,-227.5 21,-227.5"/>
<text text-anchor="start" x="29" y="-393.5" font-family="Helvetica,sans-Serif" font-size="10.00">ds::PartitionLinked</text>
<text text-anchor="middle" x="80" y="-382.5" font-family="Helvetica,sans-Serif" font-size="10.00">&lt; T_CLUSTERIDX &gt;</text>
<polyline fill="none" stroke="black" points="21,-375.5 139,-375.5 "/>
<text text-anchor="middle" x="80" y="-363.5" font-family="Helvetica,sans-Serif" font-size="10.00"> </text>
<polyline fill="none" stroke="black" points="21,-356.5 139,-356.5 "/>
<text text-anchor="start" x="29" y="-344.5" font-family="Helvetica,sans-Serif" font-size="10.00">+ PartitionLinked()</text>
<text text-anchor="start" x="29" y="-333.5" font-family="Helvetica,sans-Serif" font-size="10.00">+ PartitionLinked()</text>
<text text-anchor="start" x="29" y="-322.5" font-family="Helvetica,sans-Serif" font-size="10.00">+ PartitionLinked()</text>
<text text-anchor="start" x="29" y="-311.5" font-family="Helvetica,sans-Serif" font-size="10.00">+ PartitionLinked()</text>
<text text-anchor="start" x="29" y="-300.5" font-family="Helvetica,sans-Serif" font-size="10.00">+ ~PartitionLinked()</text>
<text text-anchor="start" x="29" y="-289.5" font-family="Helvetica,sans-Serif" font-size="10.00">+ resize()</text>
<text text-anchor="start" x="29" y="-278.5" font-family="Helvetica,sans-Serif" font-size="10.00">+ getNumPartitions()</text>
<text text-anchor="start" x="29" y="-267.5" font-family="Helvetica,sans-Serif" font-size="10.00">+ getFirstInstClusterK()</text>
<text text-anchor="start" x="29" y="-256.5" font-family="Helvetica,sans-Serif" font-size="10.00">+ getNumInstances()</text>
<text text-anchor="start" x="29" y="-245.5" font-family="Helvetica,sans-Serif" font-size="10.00">+ operator=()</text>
<text text-anchor="start" x="29" y="-234.5" font-family="Helvetica,sans-Serif" font-size="10.00">and 8 more...</text>
</a>
</g>
</g>
<!-- Node3&#45;&gt;Node2 -->
<g id="edge1" class="edge"><title>Node3&#45;&gt;Node2</title>
<path fill="none" stroke="midnightblue" d="M118.153,-218.121C121.843,-208.704 125.58,-199.165 129.255,-189.784"/>
<polygon fill="none" stroke="midnightblue" points="114.873,-216.898 114.484,-227.486 121.391,-219.452 114.873,-216.898"/>
</g>
<!-- Node4 -->
<g id="node3" class="node"><title>Node4</title>
<g id="a_node3"><a xlink:title=" ">
<polygon fill="white" stroke="#bfbfbf" points="0,-511.5 0,-568.5 110,-568.5 110,-511.5 0,-511.5"/>
<text text-anchor="middle" x="55" y="-556.5" font-family="Helvetica,sans-Serif" font-size="10.00">std::vector&lt; uintidx &gt;</text>
<polyline fill="none" stroke="#bfbfbf" points="0,-549.5 110,-549.5 "/>
<text text-anchor="start" x="8" y="-537.5" font-family="Helvetica,sans-Serif" font-size="10.00">+ elements</text>
<polyline fill="none" stroke="#bfbfbf" points="0,-530.5 110,-530.5 "/>
<text text-anchor="middle" x="55" y="-518.5" font-family="Helvetica,sans-Serif" font-size="10.00"> </text>
</a>
</g>
</g>
<!-- Node4&#45;&gt;Node3 -->
<g id="edge2" class="edge"><title>Node4&#45;&gt;Node3</title>
<path fill="none" stroke="#404040" d="M29.624,-511.474C25.6717,-505.743 22.1803,-499.466 20,-493 10.2017,-463.941 12.2191,-453.663 20,-424 20.6058,-421.691 21.2742,-419.379 21.9985,-417.069"/>
<polygon fill="none" stroke="#404040" points="22.0669,-416.874 20.2887,-409.886 26.0556,-405.557 27.8338,-412.545 22.0669,-416.874"/>
<text text-anchor="start" x="20" y="-467" font-family="Helvetica,sans-Serif" font-size="10.00"> #_vectorInstIdx_firstCluster</text>
<text text-anchor="middle" x="85" y="-456" font-family="Helvetica,sans-Serif" font-size="10.00">K</text>
<text text-anchor="middle" x="85" y="-445" font-family="Helvetica,sans-Serif" font-size="10.00">#_vectorInstIdx_nextClusterK</text>
</g>
<!-- Node5 -->
<g id="node4" class="node"><title>Node5</title>
<g id="a_node4"><a xlink:title="STL class.">
<polygon fill="white" stroke="#bfbfbf" points="56.5,-616.5 56.5,-673.5 145.5,-673.5 145.5,-616.5 56.5,-616.5"/>
<text text-anchor="middle" x="101" y="-661.5" font-family="Helvetica,sans-Serif" font-size="10.00">std::vector&lt; T &gt;</text>
<polyline fill="none" stroke="#bfbfbf" points="56.5,-654.5 145.5,-654.5 "/>
<text text-anchor="middle" x="101" y="-642.5" font-family="Helvetica,sans-Serif" font-size="10.00"> </text>
<polyline fill="none" stroke="#bfbfbf" points="56.5,-635.5 145.5,-635.5 "/>
<text text-anchor="middle" x="101" y="-623.5" font-family="Helvetica,sans-Serif" font-size="10.00"> </text>
</a>
</g>
</g>
<!-- Node5&#45;&gt;Node4 -->
<g id="edge3" class="edge"><title>Node5&#45;&gt;Node4</title>
<path fill="none" stroke="orange" d="M84.4897,-607.031C78.8415,-594.384 72.6247,-580.464 67.3612,-568.678"/>
<polygon fill="orange" stroke="orange" points="81.3992,-608.694 88.6728,-616.398 87.7907,-605.84 81.3992,-608.694"/>
<text text-anchor="middle" x="105" y="-590" font-family="Helvetica,sans-Serif" font-size="10.00"> &lt; uintidx &gt;</text>
</g>
<!-- Node7 -->
<g id="node6" class="node"><title>Node7</title>
<g id="a_node6"><a xlink:title=" ">
<polygon fill="white" stroke="#bfbfbf" points="159.5,-424.5 159.5,-492.5 302.5,-492.5 302.5,-424.5 159.5,-424.5"/>
<text text-anchor="start" x="167.5" y="-480.5" font-family="Helvetica,sans-Serif" font-size="10.00">std::vector&lt; T_INSTANCES</text>
<text text-anchor="middle" x="231" y="-469.5" font-family="Helvetica,sans-Serif" font-size="10.00">_CLUSTER_K &gt;</text>
<polyline fill="none" stroke="#bfbfbf" points="159.5,-462.5 302.5,-462.5 "/>
<text text-anchor="start" x="167.5" y="-450.5" font-family="Helvetica,sans-Serif" font-size="10.00">+ elements</text>
<polyline fill="none" stroke="#bfbfbf" points="159.5,-443.5 302.5,-443.5 "/>
<text text-anchor="middle" x="231" y="-431.5" font-family="Helvetica,sans-Serif" font-size="10.00"> </text>
</a>
</g>
</g>
<!-- Node5&#45;&gt;Node7 -->
<g id="edge6" class="edge"><title>Node5&#45;&gt;Node7</title>
<path fill="none" stroke="orange" d="M126.895,-607.985C129.302,-604.614 131.7,-601.245 134,-598 159.464,-562.076 188.39,-520.7 207.978,-492.595"/>
<polygon fill="orange" stroke="orange" points="123.915,-606.136 120.944,-616.306 129.609,-610.208 123.915,-606.136"/>
<text text-anchor="middle" x="219.5" y="-590" font-family="Helvetica,sans-Serif" font-size="10.00"> &lt; T_INSTANCES_CLUSTER_K &gt;</text>
</g>
<!-- Node6 -->
<g id="node5" class="node"><title>Node6</title>
<g id="a_node5"><a xlink:title=" ">
<polygon fill="white" stroke="#bfbfbf" points="86.5,-721.5 86.5,-778.5 115.5,-778.5 115.5,-721.5 86.5,-721.5"/>
<text text-anchor="middle" x="101" y="-766.5" font-family="Helvetica,sans-Serif" font-size="10.00">T</text>
<polyline fill="none" stroke="#bfbfbf" points="86.5,-759.5 115.5,-759.5 "/>
<text text-anchor="middle" x="101" y="-747.5" font-family="Helvetica,sans-Serif" font-size="10.00"> </text>
<polyline fill="none" stroke="#bfbfbf" points="86.5,-740.5 115.5,-740.5 "/>
<text text-anchor="middle" x="101" y="-728.5" font-family="Helvetica,sans-Serif" font-size="10.00"> </text>
</a>
</g>
</g>
<!-- Node6&#45;&gt;Node5 -->
<g id="edge4" class="edge"><title>Node6&#45;&gt;Node5</title>
<path fill="none" stroke="#404040" d="M101,-721.398C101,-710.545 101,-697.873 101,-686.049"/>
<polygon fill="none" stroke="#404040" points="101,-685.678 97,-679.678 101,-673.678 105,-679.678 101,-685.678"/>
<text text-anchor="middle" x="126.5" y="-695" font-family="Helvetica,sans-Serif" font-size="10.00"> +elements</text>
</g>
<!-- Node7&#45;&gt;Node2 -->
<g id="edge5" class="edge"><title>Node7&#45;&gt;Node2</title>
<path fill="none" stroke="#404040" d="M225.059,-424.461C216.075,-374.496 198.638,-277.516 185.029,-201.83"/>
<polygon fill="none" stroke="#404040" points="185.003,-201.687 180.005,-196.489 182.88,-189.876 187.878,-195.073 185.003,-201.687"/>
<text text-anchor="middle" x="283" y="-314" font-family="Helvetica,sans-Serif" font-size="10.00"> #_vectorit_numInstClusterK</text>
</g>
</g>
</svg>
        <g id="navigator" transform="translate(0 0)" fill="#404254">
                <rect fill="#f2f5e9" fill-opacity="0.5" stroke="#606060" stroke-width=".5" x="0" y="0" width="60" height="60"/>
                <use id="zoomplus" xlink:href="#zoomPlus" x="17" y="9" onmousedown="handleZoom(evt,'in')"/>
                <use id="zoomminus" xlink:href="#zoomMin" x="42" y="9" onmousedown="handleZoom(evt,'out')"/>
                <use id="reset" xlink:href="#resetDef" x="30" y="36" onmousedown="handleReset()"/>
                <g id="arrowUp" xlink:href="#dirArrow" transform="translate(30 24)" onmousedown="handlePan(0,-1)">
                  <use xlink:href="#rim" fill="#404040">
                        <set attributeName="fill" to="#808080" begin="arrowUp.mouseover" end="arrowUp.mouseout"/>
                  </use>
                  <path fill="none" stroke="white" stroke-width="1.5" d="M0,-3.0v7 M-2.5,-0.5L0,-3.0L2.5,-0.5"/>
                </g>
                <g id="arrowRight" xlink:href="#dirArrow" transform="rotate(90) translate(36 -43)" onmousedown="handlePan(1,0)">
                  <use xlink:href="#rim" fill="#404040">
                        <set attributeName="fill" to="#808080" begin="arrowRight.mouseover" end="arrowRight.mouseout"/>
                  </use>
                  <path fill="none" stroke="white" stroke-width="1.5" d="M0,-3.0v7 M-2.5,-0.5L0,-3.0L2.5,-0.5"/>
                </g>
                <g id="arrowDown" xlink:href="#dirArrow" transform="rotate(180) translate(-30 -48)" onmousedown="handlePan(0,1)">
                  <use xlink:href="#rim" fill="#404040">
                        <set attributeName="fill" to="#808080" begin="arrowDown.mouseover" end="arrowDown.mouseout"/>
                  </use>
                  <path fill="none" stroke="white" stroke-width="1.5" d="M0,-3.0v7 M-2.5,-0.5L0,-3.0L2.5,-0.5"/>
                </g>
                <g id="arrowLeft" xlink:href="#dirArrow" transform="rotate(270) translate(-36 17)" onmousedown="handlePan(-1,0)">
                  <use xlink:href="#rim" fill="#404040">
                        <set attributeName="fill" to="#808080" begin="arrowLeft.mouseover" end="arrowLeft.mouseout"/>
                  </use>
                  <path fill="none" stroke="white" stroke-width="1.5" d="M0,-3.0v7 M-2.5,-0.5L0,-3.0L2.5,-0.5"/>
                </g>
        </g>
        <svg viewBox="0 0 15 15" width="100%" height="30px" preserveAspectRatio="xMaxYMin meet">
         <g id="arrow_out" transform="scale(0.3 0.3)">
          <a xlink:href="classds_1_1_partition_linked_num_inst__coll__graph_org.svg" target="_base">
           <rect id="button" ry="5" rx="5" y="6" x="6" height="38" width="38"
                fill="#f2f5e9" fill-opacity="0.5" stroke="#606060" stroke-width="1.0"/>
           <path id="arrow"
             d="M 11.500037,31.436501 C 11.940474,20.09759 22.043105,11.32322 32.158766,21.979434 L 37.068811,17.246167 C 37.068811,17.246167 37.088388,32 37.088388,32 L 22.160133,31.978069 C 22.160133,31.978069 26.997745,27.140456 26.997745,27.140456 C 18.528582,18.264221 13.291696,25.230495 11.500037,31.436501 z"
             style="fill:#404040;"/>
          </a>
         </g>
        </svg>
</svg>
