<?xml version="1.0" encoding="UTF-8" standalone="no"?>
<!DOCTYPE svg PUBLIC "-//W3C//DTD SVG 1.1//EN"
 "http://www.w3.org/Graphics/SVG/1.1/DTD/svg11.dtd">
<!-- Generated by graphviz version 2.38.0 (20140413.2041)
 -->
<!-- Title: inout::InParamPCAtransmatrix&lt; T_FEATURE, T_INSTANCES_CLUSTER_K, T_CLUSTERIDX &gt; Pages: 1 -->
<svg width="499pt" height="872pt"
 viewBox="0.00 0.00 498.50 872.00" xmlns="http://www.w3.org/2000/svg" xmlns:xlink="http://www.w3.org/1999/xlink">
<g id="graph0" class="graph" transform="scale(1 1) rotate(0) translate(4 868)">
<title>inout::InParamPCAtransmatrix&lt; T_FEATURE, T_INSTANCES_CLUSTER_K, T_CLUSTERIDX &gt;</title>
<polygon fill="white" stroke="none" points="-4,4 -4,-868 494.5,-868 494.5,4 -4,4"/>
<!-- Node3 -->
<g id="node1" class="node"><title>Node3</title>
<polygon fill="#bfbfbf" stroke="black" points="83,-0.5 83,-178.5 254,-178.5 254,-0.5 83,-0.5"/>
<text text-anchor="start" x="91" y="-166.5" font-family="Helvetica,sans-Serif" font-size="10.00">inout::InParamPCAtransmatrix</text>
<text text-anchor="start" x="91" y="-155.5" font-family="Helvetica,sans-Serif" font-size="10.00">&lt; T_FEATURE, T_INSTANCES</text>
<text text-anchor="middle" x="168.5" y="-144.5" font-family="Helvetica,sans-Serif" font-size="10.00">_CLUSTER_K, T_CLUSTERIDX &gt;</text>
<polyline fill="none" stroke="black" points="83,-137.5 254,-137.5 "/>
<text text-anchor="start" x="91" y="-125.5" font-family="Helvetica,sans-Serif" font-size="10.00"># _ps_outFileTransMatrix</text>
<polyline fill="none" stroke="black" points="83,-118.5 254,-118.5 "/>
<text text-anchor="start" x="91" y="-106.5" font-family="Helvetica,sans-Serif" font-size="10.00">+ InParamPCAtransmatrix()</text>
<text text-anchor="start" x="91" y="-95.5" font-family="Helvetica,sans-Serif" font-size="10.00">+ ~InParamPCAtransmatrix()</text>
<text text-anchor="start" x="91" y="-84.5" font-family="Helvetica,sans-Serif" font-size="10.00">+ setOutFileTransMatrix()</text>
<text text-anchor="start" x="91" y="-73.5" font-family="Helvetica,sans-Serif" font-size="10.00">+ getOutFileTransMatrix()</text>
<text text-anchor="start" x="91" y="-62.5" font-family="Helvetica,sans-Serif" font-size="10.00">+ print()</text>
<text text-anchor="start" x="91" y="-51.5" font-family="Helvetica,sans-Serif" font-size="10.00">+ InParamPCAtransmatrix()</text>
<text text-anchor="start" x="91" y="-40.5" font-family="Helvetica,sans-Serif" font-size="10.00">+ ~InParamPCAtransmatrix()</text>
<text text-anchor="start" x="91" y="-29.5" font-family="Helvetica,sans-Serif" font-size="10.00">+ setOutFileTransMatrix()</text>
<text text-anchor="start" x="91" y="-18.5" font-family="Helvetica,sans-Serif" font-size="10.00">+ getOutFileTransMatrix()</text>
<text text-anchor="start" x="91" y="-7.5" font-family="Helvetica,sans-Serif" font-size="10.00">+ print()</text>
</g>
<!-- Node4 -->
<g id="node2" class="node"><title>Node4</title>
<g id="a_node2"><a xlink:href="classinout_1_1_in_param_algorithmo.html" target="_top" xlink:title="Input parameter for define propertys of the algorithmos. ">
<polygon fill="white" stroke="black" points="0,-271.5 0,-471.5 135,-471.5 135,-271.5 0,-271.5"/>
<text text-anchor="middle" x="67.5" y="-459.5" font-family="Helvetica,sans-Serif" font-size="10.00">inout::InParamAlgorithmo</text>
<polyline fill="none" stroke="black" points="0,-452.5 135,-452.5 "/>
<text text-anchor="start" x="8" y="-440.5" font-family="Helvetica,sans-Serif" font-size="10.00"># ato_algTypeOut</text>
<text text-anchor="start" x="8" y="-429.5" font-family="Helvetica,sans-Serif" font-size="10.00"># ps_fileNameTimesRun</text>
<text text-anchor="start" x="8" y="-418.5" font-family="Helvetica,sans-Serif" font-size="10.00"># b_progressBarPrinting</text>
<text text-anchor="start" x="8" y="-407.5" font-family="Helvetica,sans-Serif" font-size="10.00"># i_timesRunAlgorithm</text>
<polyline fill="none" stroke="black" points="0,-400.5 135,-400.5 "/>
<text text-anchor="start" x="8" y="-388.5" font-family="Helvetica,sans-Serif" font-size="10.00">+ InParamAlgorithmo()</text>
<text text-anchor="start" x="8" y="-377.5" font-family="Helvetica,sans-Serif" font-size="10.00">+ ~InParamAlgorithmo()</text>
<text text-anchor="start" x="8" y="-366.5" font-family="Helvetica,sans-Serif" font-size="10.00">+ errorArgument()</text>
<text text-anchor="start" x="8" y="-355.5" font-family="Helvetica,sans-Serif" font-size="10.00">+ isYesNo()</text>
<text text-anchor="start" x="8" y="-344.5" font-family="Helvetica,sans-Serif" font-size="10.00">+ setFileNameTimesRun()</text>
<text text-anchor="start" x="8" y="-333.5" font-family="Helvetica,sans-Serif" font-size="10.00">+ setProgressBarPrinting()</text>
<text text-anchor="start" x="8" y="-322.5" font-family="Helvetica,sans-Serif" font-size="10.00">+ setTimesRunAlgorithm()</text>
<text text-anchor="start" x="8" y="-311.5" font-family="Helvetica,sans-Serif" font-size="10.00">+ setGnuPlotCoreStyles()</text>
<text text-anchor="start" x="8" y="-300.5" font-family="Helvetica,sans-Serif" font-size="10.00">+ getAlgorithmoAuthor()</text>
<text text-anchor="start" x="8" y="-289.5" font-family="Helvetica,sans-Serif" font-size="10.00">+ getAlgorithmoName()</text>
<text text-anchor="start" x="8" y="-278.5" font-family="Helvetica,sans-Serif" font-size="10.00">and 8 more...</text>
</a>
</g>
</g>
<!-- Node4&#45;&gt;Node3 -->
<g id="edge1" class="edge"><title>Node4&#45;&gt;Node3</title>
<path fill="none" stroke="midnightblue" d="M100.131,-261.746C109.773,-234.264 120.389,-205.09 130.342,-178.757"/>
<polygon fill="none" stroke="midnightblue" points="96.7562,-260.794 96.7636,-271.388 103.365,-263.101 96.7562,-260.794"/>
</g>
<!-- Node4&#45;&gt;Node3 -->
<g id="edge10" class="edge"><title>Node4&#45;&gt;Node3</title>
<path fill="none" stroke="midnightblue" d="M113.327,-261.746C123.511,-234.264 133.943,-205.09 142.987,-178.757"/>
<polygon fill="none" stroke="midnightblue" points="109.947,-260.796 109.738,-271.388 116.507,-263.238 109.947,-260.796"/>
</g>
<!-- Node5 -->
<g id="node3" class="node"><title>Node5</title>
<g id="a_node3"><a xlink:title="STL class. ">
<polygon fill="white" stroke="#bfbfbf" points="172.5,-690.5 172.5,-747.5 232.5,-747.5 232.5,-690.5 172.5,-690.5"/>
<text text-anchor="middle" x="202.5" y="-735.5" font-family="Helvetica,sans-Serif" font-size="10.00">std::string</text>
<polyline fill="none" stroke="#bfbfbf" points="172.5,-728.5 232.5,-728.5 "/>
<text text-anchor="middle" x="202.5" y="-716.5" font-family="Helvetica,sans-Serif" font-size="10.00"> </text>
<polyline fill="none" stroke="#bfbfbf" points="172.5,-709.5 232.5,-709.5 "/>
<text text-anchor="middle" x="202.5" y="-697.5" font-family="Helvetica,sans-Serif" font-size="10.00"> </text>
</a>
</g>
</g>
<!-- Node5&#45;&gt;Node4 -->
<g id="edge2" class="edge"><title>Node5&#45;&gt;Node4</title>
<path fill="none" stroke="#404040" d="M172.347,-702.982C150.06,-690.208 121,-669.692 105.5,-643 77.8319,-595.352 67.4509,-535.237 64.3645,-483.785"/>
<polygon fill="none" stroke="#404040" points="64.3541,-483.574 60.0609,-477.78 63.7578,-471.588 68.051,-477.382 64.3541,-483.574"/>
<text text-anchor="middle" x="155" y="-628" font-family="Helvetica,sans-Serif" font-size="10.00"> #s_algorithmoAuthor</text>
<text text-anchor="middle" x="155" y="-617" font-family="Helvetica,sans-Serif" font-size="10.00">#s_algorithmoName</text>
<text text-anchor="middle" x="155" y="-606" font-family="Helvetica,sans-Serif" font-size="10.00">#s_gnuplotCoreStyles</text>
<text text-anchor="middle" x="155" y="-595" font-family="Helvetica,sans-Serif" font-size="10.00">#_s_runTimeId</text>
</g>
<!-- Node7 -->
<g id="node5" class="node"><title>Node7</title>
<g id="a_node5"><a xlink:href="classinout_1_1_in_param_read_inst.html" target="_top" xlink:title="Input parameter for read instances. ">
<polygon fill="white" stroke="black" points="153,-216.5 153,-526.5 324,-526.5 324,-216.5 153,-216.5"/>
<text text-anchor="start" x="161" y="-514.5" font-family="Helvetica,sans-Serif" font-size="10.00">inout::InParamReadInst</text>
<text text-anchor="start" x="161" y="-503.5" font-family="Helvetica,sans-Serif" font-size="10.00">&lt; T_FEATURE, T_INSTANCES</text>
<text text-anchor="middle" x="238.5" y="-492.5" font-family="Helvetica,sans-Serif" font-size="10.00">_CLUSTER_K, T_CLUSTERIDX &gt;</text>
<polyline fill="none" stroke="black" points="153,-485.5 324,-485.5 "/>
<text text-anchor="start" x="161" y="-473.5" font-family="Helvetica,sans-Serif" font-size="10.00"># _ui_idxCurrentFileInstance</text>
<text text-anchor="start" x="161" y="-462.5" font-family="Helvetica,sans-Serif" font-size="10.00"># _enum_formatInstanceFile</text>
<text text-anchor="start" x="161" y="-451.5" font-family="Helvetica,sans-Serif" font-size="10.00"># _b_haveHeaderFile</text>
<text text-anchor="start" x="161" y="-440.5" font-family="Helvetica,sans-Serif" font-size="10.00"># _ui_classInstanceColumn</text>
<text text-anchor="start" x="161" y="-429.5" font-family="Helvetica,sans-Serif" font-size="10.00"># _ui_clusterInstanceColumn</text>
<text text-anchor="start" x="161" y="-418.5" font-family="Helvetica,sans-Serif" font-size="10.00"># _ui_idInstanceColumn</text>
<text text-anchor="start" x="161" y="-407.5" font-family="Helvetica,sans-Serif" font-size="10.00"># _ui_instancesFrequencyColumn</text>
<text text-anchor="start" x="161" y="-396.5" font-family="Helvetica,sans-Serif" font-size="10.00"># _ui_idMultiInstanceColumn</text>
<text text-anchor="start" x="161" y="-385.5" font-family="Helvetica,sans-Serif" font-size="10.00"># _ui_classMultiInstColumn</text>
<text text-anchor="start" x="161" y="-374.5" font-family="Helvetica,sans-Serif" font-size="10.00"># _ui_numInstances</text>
<text text-anchor="start" x="161" y="-363.5" font-family="Helvetica,sans-Serif" font-size="10.00"># _ui_numDimensionsInstances</text>
<text text-anchor="start" x="161" y="-352.5" font-family="Helvetica,sans-Serif" font-size="10.00"># _ui_numInstancesTest</text>
<polyline fill="none" stroke="black" points="153,-345.5 324,-345.5 "/>
<text text-anchor="start" x="161" y="-333.5" font-family="Helvetica,sans-Serif" font-size="10.00">+ InParamReadInst()</text>
<text text-anchor="start" x="161" y="-322.5" font-family="Helvetica,sans-Serif" font-size="10.00">+ InParamReadInst()</text>
<text text-anchor="start" x="161" y="-311.5" font-family="Helvetica,sans-Serif" font-size="10.00">+ ~InParamReadInst()</text>
<text text-anchor="start" x="161" y="-300.5" font-family="Helvetica,sans-Serif" font-size="10.00">+ clearVectorFilesInstance()</text>
<text text-anchor="start" x="161" y="-289.5" font-family="Helvetica,sans-Serif" font-size="10.00">+ getVectorFilesInstance()</text>
<text text-anchor="start" x="161" y="-278.5" font-family="Helvetica,sans-Serif" font-size="10.00">+ setVectorFilesInstance()</text>
<text text-anchor="start" x="161" y="-267.5" font-family="Helvetica,sans-Serif" font-size="10.00">+ getNumFilesInstance()</text>
<text text-anchor="start" x="161" y="-256.5" font-family="Helvetica,sans-Serif" font-size="10.00">+ setVectorFilesInstanceTest()</text>
<text text-anchor="start" x="161" y="-245.5" font-family="Helvetica,sans-Serif" font-size="10.00">+ getVectorFilesInstanceTest()</text>
<text text-anchor="start" x="161" y="-234.5" font-family="Helvetica,sans-Serif" font-size="10.00">+ getNumFilesInstanceTest()</text>
<text text-anchor="start" x="161" y="-223.5" font-family="Helvetica,sans-Serif" font-size="10.00">and 35 more...</text>
</a>
</g>
</g>
<!-- Node5&#45;&gt;Node7 -->
<g id="edge5" class="edge"><title>Node5&#45;&gt;Node7</title>
<path fill="none" stroke="#404040" d="M204.194,-690.457C205.939,-663.538 208.906,-621.409 212.5,-585 213.984,-569.968 215.652,-554.353 217.408,-538.72"/>
<polygon fill="none" stroke="#404040" points="217.411,-538.693 214.115,-532.28 218.767,-526.77 222.063,-533.184 217.411,-538.693"/>
<text text-anchor="middle" x="265" y="-617" font-family="Helvetica,sans-Serif" font-size="10.00"> #_ps_selectAttributes</text>
<text text-anchor="middle" x="265" y="-606" font-family="Helvetica,sans-Serif" font-size="10.00">#_s_separatorAttributes</text>
</g>
<!-- Node8 -->
<g id="node6" class="node"><title>Node8</title>
<polygon fill="white" stroke="#bfbfbf" points="326,-585.5 326,-642.5 451,-642.5 451,-585.5 326,-585.5"/>
<text text-anchor="middle" x="388.5" y="-630.5" font-family="Helvetica,sans-Serif" font-size="10.00">std::vector&lt; std::string &gt;</text>
<polyline fill="none" stroke="#bfbfbf" points="326,-623.5 451,-623.5 "/>
<text text-anchor="middle" x="388.5" y="-611.5" font-family="Helvetica,sans-Serif" font-size="10.00"> </text>
<polyline fill="none" stroke="#bfbfbf" points="326,-604.5 451,-604.5 "/>
<text text-anchor="middle" x="388.5" y="-592.5" font-family="Helvetica,sans-Serif" font-size="10.00"> </text>
</g>
<!-- Node5&#45;&gt;Node8 -->
<g id="edge7" class="edge"><title>Node5&#45;&gt;Node8</title>
<path fill="none" stroke="#404040" d="M232.798,-701.222C258.509,-686.984 296.188,-666.119 328.04,-648.481"/>
<polygon fill="none" stroke="#404040" points="328.094,-648.45 331.406,-642.044 338.592,-642.637 335.281,-649.043 328.094,-648.45"/>
<text text-anchor="middle" x="327" y="-664" font-family="Helvetica,sans-Serif" font-size="10.00"> +elements</text>
</g>
<!-- Node6 -->
<g id="node4" class="node"><title>Node6</title>
<g id="a_node4"><a xlink:title="STL class. ">
<polygon fill="white" stroke="#bfbfbf" points="155,-795.5 155,-863.5 250,-863.5 250,-795.5 155,-795.5"/>
<text text-anchor="start" x="163" y="-851.5" font-family="Helvetica,sans-Serif" font-size="10.00">std::basic_string&lt;</text>
<text text-anchor="middle" x="202.5" y="-840.5" font-family="Helvetica,sans-Serif" font-size="10.00"> char &gt;</text>
<polyline fill="none" stroke="#bfbfbf" points="155,-833.5 250,-833.5 "/>
<text text-anchor="middle" x="202.5" y="-821.5" font-family="Helvetica,sans-Serif" font-size="10.00"> </text>
<polyline fill="none" stroke="#bfbfbf" points="155,-814.5 250,-814.5 "/>
<text text-anchor="middle" x="202.5" y="-802.5" font-family="Helvetica,sans-Serif" font-size="10.00"> </text>
</a>
</g>
</g>
<!-- Node6&#45;&gt;Node5 -->
<g id="edge3" class="edge"><title>Node6&#45;&gt;Node5</title>
<path fill="none" stroke="midnightblue" d="M202.5,-785.064C202.5,-772.511 202.5,-759.152 202.5,-747.827"/>
<polygon fill="none" stroke="midnightblue" points="199,-785.357 202.5,-795.357 206,-785.357 199,-785.357"/>
</g>
<!-- Node7&#45;&gt;Node3 -->
<g id="edge4" class="edge"><title>Node7&#45;&gt;Node3</title>
<path fill="none" stroke="midnightblue" d="M190.791,-206.303C188.507,-196.883 186.303,-187.614 184.222,-178.673"/>
<polygon fill="none" stroke="midnightblue" points="187.427,-207.282 193.198,-216.167 194.228,-205.622 187.427,-207.282"/>
</g>
<!-- Node7&#45;&gt;Node3 -->
<g id="edge11" class="edge"><title>Node7&#45;&gt;Node3</title>
<path fill="none" stroke="midnightblue" d="M204.11,-206.303C201.684,-196.883 199.254,-187.614 196.864,-178.673"/>
<polygon fill="none" stroke="midnightblue" points="200.765,-207.347 206.635,-216.167 207.546,-205.611 200.765,-207.347"/>
</g>
<!-- Node8&#45;&gt;Node7 -->
<g id="edge6" class="edge"><title>Node8&#45;&gt;Node7</title>
<path fill="none" stroke="#404040" d="M371.293,-585.412C360.674,-568.386 346.134,-545.073 330.557,-520.098"/>
<polygon fill="none" stroke="#404040" points="330.418,-519.874 323.848,-516.9 324.067,-509.692 330.636,-512.667 330.418,-519.874"/>
<text text-anchor="middle" x="425" y="-559" font-family="Helvetica,sans-Serif" font-size="10.00"> #_vectorstr_filesInstance</text>
<text text-anchor="middle" x="425" y="-548" font-family="Helvetica,sans-Serif" font-size="10.00">#_vectorstr_filesInstanceTest</text>
</g>
<!-- Node9 -->
<g id="node7" class="node"><title>Node9</title>
<g id="a_node7"><a xlink:title="STL class. ">
<polygon fill="white" stroke="#bfbfbf" points="344,-690.5 344,-747.5 433,-747.5 433,-690.5 344,-690.5"/>
<text text-anchor="middle" x="388.5" y="-735.5" font-family="Helvetica,sans-Serif" font-size="10.00">std::vector&lt; T &gt;</text>
<polyline fill="none" stroke="#bfbfbf" points="344,-728.5 433,-728.5 "/>
<text text-anchor="middle" x="388.5" y="-716.5" font-family="Helvetica,sans-Serif" font-size="10.00"> </text>
<polyline fill="none" stroke="#bfbfbf" points="344,-709.5 433,-709.5 "/>
<text text-anchor="middle" x="388.5" y="-697.5" font-family="Helvetica,sans-Serif" font-size="10.00"> </text>
</a>
</g>
</g>
<!-- Node9&#45;&gt;Node8 -->
<g id="edge8" class="edge"><title>Node9&#45;&gt;Node8</title>
<path fill="none" stroke="orange" d="M388.5,-680.286C388.5,-667.839 388.5,-654.233 388.5,-642.678"/>
<polygon fill="orange" stroke="orange" points="385,-680.398 388.5,-690.398 392,-680.398 385,-680.398"/>
<text text-anchor="middle" x="421" y="-664" font-family="Helvetica,sans-Serif" font-size="10.00"> &lt; std::string &gt;</text>
</g>
<!-- Node10 -->
<g id="node8" class="node"><title>Node10</title>
<polygon fill="white" stroke="#bfbfbf" points="374,-801 374,-858 403,-858 403,-801 374,-801"/>
<text text-anchor="middle" x="388.5" y="-846" font-family="Helvetica,sans-Serif" font-size="10.00">T</text>
<polyline fill="none" stroke="#bfbfbf" points="374,-839 403,-839 "/>
<text text-anchor="middle" x="388.5" y="-827" font-family="Helvetica,sans-Serif" font-size="10.00"> </text>
<polyline fill="none" stroke="#bfbfbf" points="374,-820 403,-820 "/>
<text text-anchor="middle" x="388.5" y="-808" font-family="Helvetica,sans-Serif" font-size="10.00"> </text>
</g>
<!-- Node10&#45;&gt;Node9 -->
<g id="edge9" class="edge"><title>Node10&#45;&gt;Node9</title>
<path fill="none" stroke="#404040" d="M388.5,-800.84C388.5,-788.342 388.5,-773.342 388.5,-759.676"/>
<polygon fill="none" stroke="#404040" points="388.5,-759.609 384.5,-753.609 388.5,-747.609 392.5,-753.609 388.5,-759.609"/>
<text text-anchor="middle" x="414" y="-769" font-family="Helvetica,sans-Serif" font-size="10.00"> +elements</text>
</g>
</g>
</svg>
