<?xml version="1.0" encoding="UTF-8" standalone="no"?>
<!DOCTYPE svg PUBLIC "-//W3C//DTD SVG 1.1//EN"
 "http://www.w3.org/Graphics/SVG/1.1/DTD/svg11.dtd">
<!-- Generated by graphviz version 2.38.0 (20140413.2041)
 -->
<!-- Title: partition::PartitionMedoids::getClusterIdx Pages: 1 -->
<svg width="956pt" height="178pt"
 viewBox="0.00 0.00 956.00 178.00" xmlns="http://www.w3.org/2000/svg" xmlns:xlink="http://www.w3.org/1999/xlink">
<g id="graph0" class="graph" transform="scale(1 1) rotate(0) translate(4 174)">
<title>partition::PartitionMedoids::getClusterIdx</title>
<polygon fill="white" stroke="none" points="-4,4 -4,-174 952,-174 952,4 -4,4"/>
<!-- Node5 -->
<g id="node1" class="node"><title>Node5</title>
<polygon fill="#bfbfbf" stroke="black" points="0,-86 0,-116 133,-116 133,-86 0,-86"/>
<text text-anchor="start" x="8" y="-104" font-family="Helvetica,sans-Serif" font-size="10.00">partition::PartitionMedoids</text>
<text text-anchor="middle" x="66.5" y="-93" font-family="Helvetica,sans-Serif" font-size="10.00">::getClusterIdx</text>
</g>
<!-- Node6 -->
<g id="node2" class="node"><title>Node6</title>
<g id="a_node2"><a xlink:href="namespacenearest.html#a3c4239101cf18ab4ca62e654a4179995" target="_top" xlink:title="nearest::medoidsNN">
<polygon fill="white" stroke="black" points="169,-91.5 169,-110.5 279,-110.5 279,-91.5 169,-91.5"/>
<text text-anchor="middle" x="224" y="-98.5" font-family="Helvetica,sans-Serif" font-size="10.00">nearest::medoidsNN</text>
</a>
</g>
</g>
<!-- Node5&#45;&gt;Node6 -->
<g id="edge1" class="edge"><title>Node5&#45;&gt;Node6</title>
<path fill="none" stroke="midnightblue" d="M133.446,-101C141.803,-101 150.345,-101 158.676,-101"/>
<polygon fill="midnightblue" stroke="midnightblue" points="158.706,-104.5 168.706,-101 158.706,-97.5001 158.706,-104.5"/>
</g>
<!-- Node7 -->
<g id="node3" class="node"><title>Node7</title>
<g id="a_node3"><a xlink:href="namespacenearest.html#a8b0d89680acfe7ef438ae465bd633fb1" target="_top" xlink:title="NN Find the centroid closest to an instance. ">
<polygon fill="white" stroke="black" points="315,-72.5 315,-91.5 385,-91.5 385,-72.5 315,-72.5"/>
<text text-anchor="middle" x="350" y="-79.5" font-family="Helvetica,sans-Serif" font-size="10.00">nearest::NN</text>
</a>
</g>
</g>
<!-- Node6&#45;&gt;Node7 -->
<g id="edge2" class="edge"><title>Node6&#45;&gt;Node7</title>
<path fill="none" stroke="midnightblue" d="M279.027,-92.7216C287.658,-91.3992 296.497,-90.0447 304.863,-88.7629"/>
<polygon fill="midnightblue" stroke="midnightblue" points="305.431,-92.2168 314.786,-87.2425 304.371,-85.2976 305.431,-92.2168"/>
</g>
<!-- Node8 -->
<g id="node4" class="node"><title>Node8</title>
<g id="a_node4"><a xlink:href="namespacenearest.html#a9508313369f30f2f3334215bcc46b0cd" target="_top" xlink:title="Find the centroid closest to an instance and check null centroids. ">
<polygon fill="white" stroke="black" points="421,-110.5 421,-129.5 578,-129.5 578,-110.5 421,-110.5"/>
<text text-anchor="middle" x="499.5" y="-117.5" font-family="Helvetica,sans-Serif" font-size="10.00">nearest::checkNullCentroidsNN</text>
</a>
</g>
</g>
<!-- Node7&#45;&gt;Node8 -->
<g id="edge3" class="edge"><title>Node7&#45;&gt;Node8</title>
<path fill="none" stroke="midnightblue" d="M385.135,-91.4459C396.525,-94.5496 409.295,-97.9772 421,-101 429.964,-103.315 439.529,-105.716 448.771,-108.001"/>
<polygon fill="midnightblue" stroke="midnightblue" points="448.082,-111.435 458.628,-110.424 449.753,-104.638 448.082,-111.435"/>
</g>
<!-- Node9 -->
<g id="node5" class="node"><title>Node9</title>
<g id="a_node5"><a xlink:href="classmat_1_1_matrix_base.html#a70200414022ce1479b9ddc16102b12ae" target="_top" xlink:title="mat::MatrixBase::getNumColumns">
<polygon fill="white" stroke="black" points="614,-0.5 614,-19.5 784,-19.5 784,-0.5 614,-0.5"/>
<text text-anchor="middle" x="699" y="-7.5" font-family="Helvetica,sans-Serif" font-size="10.00">mat::MatrixBase::getNumColumns</text>
</a>
</g>
</g>
<!-- Node7&#45;&gt;Node9 -->
<g id="edge10" class="edge"><title>Node7&#45;&gt;Node9</title>
<path fill="none" stroke="midnightblue" d="M367.69,-72.3738C381.528,-64.8304 401.947,-54.6899 421,-49 480.468,-31.2407 549.593,-21.4935 603.912,-16.1847"/>
<polygon fill="midnightblue" stroke="midnightblue" points="604.25,-19.6684 613.877,-15.2441 603.592,-12.6994 604.25,-19.6684"/>
</g>
<!-- Node10 -->
<g id="node6" class="node"><title>Node10</title>
<g id="a_node6"><a xlink:href="classmat_1_1_matrix_base.html#ac500eedd5e203327d3292f8ab22d8f3e" target="_top" xlink:title="mat::MatrixBase::getNumRows">
<polygon fill="white" stroke="black" points="621,-46.5 621,-65.5 777,-65.5 777,-46.5 621,-46.5"/>
<text text-anchor="middle" x="699" y="-53.5" font-family="Helvetica,sans-Serif" font-size="10.00">mat::MatrixBase::getNumRows</text>
</a>
</g>
</g>
<!-- Node7&#45;&gt;Node10 -->
<g id="edge11" class="edge"><title>Node7&#45;&gt;Node10</title>
<path fill="none" stroke="midnightblue" d="M379.96,-72.4643C392.442,-68.7933 407.294,-65.0036 421,-63 484.071,-53.7801 556.06,-52.2292 610.839,-52.8784"/>
<polygon fill="midnightblue" stroke="midnightblue" points="610.811,-56.3783 620.861,-53.0239 610.913,-49.3791 610.811,-56.3783"/>
</g>
<!-- Node14 -->
<g id="node10" class="node"><title>Node14</title>
<g id="a_node10"><a xlink:href="classmat_1_1_matrix_row.html#a5391a205367fbaac82a26ddc377a80af" target="_top" xlink:title="mat::MatrixRow::getRow">
<polygon fill="white" stroke="black" points="436,-72.5 436,-91.5 563,-91.5 563,-72.5 436,-72.5"/>
<text text-anchor="middle" x="499.5" y="-79.5" font-family="Helvetica,sans-Serif" font-size="10.00">mat::MatrixRow::getRow</text>
</a>
</g>
</g>
<!-- Node7&#45;&gt;Node14 -->
<g id="edge12" class="edge"><title>Node7&#45;&gt;Node14</title>
<path fill="none" stroke="midnightblue" d="M385.21,-82C397.331,-82 411.476,-82 425.58,-82"/>
<polygon fill="midnightblue" stroke="midnightblue" points="425.813,-85.5001 435.813,-82 425.813,-78.5001 425.813,-85.5001"/>
</g>
<!-- Node8&#45;&gt;Node6 -->
<g id="edge9" class="edge"><title>Node8&#45;&gt;Node6</title>
<path fill="none" stroke="midnightblue" d="M420.755,-114.599C379.099,-111.705 328.405,-108.184 289.043,-105.449"/>
<polygon fill="midnightblue" stroke="midnightblue" points="289.253,-101.955 279.035,-104.754 288.768,-108.938 289.253,-101.955"/>
</g>
<!-- Node8&#45;&gt;Node9 -->
<g id="edge4" class="edge"><title>Node8&#45;&gt;Node9</title>
<path fill="none" stroke="midnightblue" d="M561.147,-110.399C567.171,-107.936 572.925,-104.854 578,-101 603.992,-81.2646 588.72,-57.6402 614,-37 621.058,-31.2372 629.372,-26.6948 637.976,-23.1167"/>
<polygon fill="midnightblue" stroke="midnightblue" points="639.24,-26.3808 647.381,-19.6004 636.788,-19.8241 639.24,-26.3808"/>
</g>
<!-- Node8&#45;&gt;Node10 -->
<g id="edge5" class="edge"><title>Node8&#45;&gt;Node10</title>
<path fill="none" stroke="midnightblue" d="M543.386,-110.446C554.715,-107.661 566.882,-104.434 578,-101 608.082,-91.7078 641.572,-78.9392 665.512,-69.3764"/>
<polygon fill="midnightblue" stroke="midnightblue" points="666.861,-72.6064 674.829,-65.6238 664.246,-66.1132 666.861,-72.6064"/>
</g>
<!-- Node11 -->
<g id="node7" class="node"><title>Node11</title>
<g id="a_node7"><a xlink:href="classmat_1_1_matrix_base.html#ae3b1c4b8e9cb7e7685d7bc129f875dcd" target="_top" xlink:title="mat::MatrixBase::getRow">
<polygon fill="white" stroke="black" points="633.5,-150.5 633.5,-169.5 764.5,-169.5 764.5,-150.5 633.5,-150.5"/>
<text text-anchor="middle" x="699" y="-157.5" font-family="Helvetica,sans-Serif" font-size="10.00">mat::MatrixBase::getRow</text>
</a>
</g>
</g>
<!-- Node8&#45;&gt;Node11 -->
<g id="edge6" class="edge"><title>Node8&#45;&gt;Node11</title>
<path fill="none" stroke="midnightblue" d="M547.555,-129.53C575.642,-135.219 611.499,-142.481 641.162,-148.488"/>
<polygon fill="midnightblue" stroke="midnightblue" points="640.468,-151.919 650.963,-150.474 641.857,-145.058 640.468,-151.919"/>
</g>
<!-- Node12 -->
<g id="node8" class="node"><title>Node12</title>
<g id="a_node8"><a xlink:href="classdata_1_1_instance.html#abd8d5a6a290d0783a57931dcce0a871d" target="_top" xlink:title="data::Instance::isInfinite\lFeature">
<polygon fill="white" stroke="black" points="638,-101 638,-131 760,-131 760,-101 638,-101"/>
<text text-anchor="start" x="646" y="-119" font-family="Helvetica,sans-Serif" font-size="10.00">data::Instance::isInfinite</text>
<text text-anchor="middle" x="699" y="-108" font-family="Helvetica,sans-Serif" font-size="10.00">Feature</text>
</a>
</g>
</g>
<!-- Node8&#45;&gt;Node12 -->
<g id="edge7" class="edge"><title>Node8&#45;&gt;Node12</title>
<path fill="none" stroke="midnightblue" d="M578.274,-118.425C594.478,-118.097 611.473,-117.752 627.401,-117.43"/>
<polygon fill="midnightblue" stroke="midnightblue" points="627.768,-120.923 637.695,-117.221 627.626,-113.925 627.768,-120.923"/>
</g>
<!-- Node13 -->
<g id="node9" class="node"><title>Node13</title>
<g id="a_node9"><a xlink:href="classdata_1_1_instance.html#a02d828c30db46d999f1830ea7b4d9c74" target="_top" xlink:title="data::Instance::getInfinite\lFeature">
<polygon fill="white" stroke="black" points="820,-101 820,-131 948,-131 948,-101 820,-101"/>
<text text-anchor="start" x="828" y="-119" font-family="Helvetica,sans-Serif" font-size="10.00">data::Instance::getInfinite</text>
<text text-anchor="middle" x="884" y="-108" font-family="Helvetica,sans-Serif" font-size="10.00">Feature</text>
</a>
</g>
</g>
<!-- Node12&#45;&gt;Node13 -->
<g id="edge8" class="edge"><title>Node12&#45;&gt;Node13</title>
<path fill="none" stroke="midnightblue" d="M760.175,-116C776.048,-116 793.352,-116 809.829,-116"/>
<polygon fill="midnightblue" stroke="midnightblue" points="809.962,-119.5 819.962,-116 809.962,-112.5 809.962,-119.5"/>
</g>
</g>
</svg>
