<?xml version="1.0" encoding="UTF-8" standalone="no"?>
<!DOCTYPE svg PUBLIC "-//W3C//DTD SVG 1.1//EN"
 "http://www.w3.org/Graphics/SVG/1.1/DTD/svg11.dtd">
<!-- Generated by graphviz version 2.38.0 (20140413.2041)
 -->
<!-- Title: ds::PartitionLinkedStats::changeMemberShip Pages: 1 -->
<!--zoomable 669 -->
<svg id="main" version="1.1" xmlns="http://www.w3.org/2000/svg" xmlns:xlink="http://www.w3.org/1999/xlink" xml:space="preserve" onload="init(evt)">
<style type="text/css"><![CDATA[
.edge:hover path { stroke: red; }
.edge:hover polygon { stroke: red; fill: red; }
]]></style>
<script type="text/javascript"><![CDATA[
var edges = document.getElementsByTagName('g');
if (edges && edges.length) {
  for (var i=0;i<edges.length;i++) {
    if (edges[i].id.substr(0,4)=='edge') {
      edges[i].setAttribute('class','edge');
    }
  }
}
]]></script>
        <defs>
                <circle id="rim" cx="0" cy="0" r="7"/>
                <circle id="rim2" cx="0" cy="0" r="3.5"/>
                <g id="zoomPlus">
                        <use xlink:href="#rim" fill="#404040">
                                <set attributeName="fill" to="#808080" begin="zoomplus.mouseover" end="zoomplus.mouseout"/>
                        </use>
                        <path d="M-4,0h8M0,-4v8" fill="none" stroke="white" stroke-width="1.5" pointer-events="none"/>
                </g>
                <g id="zoomMin">
                        <use xlink:href="#rim" fill="#404040">
                                <set attributeName="fill" to="#808080" begin="zoomminus.mouseover" end="zoomminus.mouseout"/>
                        </use>
                        <path d="M-4,0h8" fill="none" stroke="white" stroke-width="1.5" pointer-events="none"/>
                </g>
                <g id="dirArrow">
                        <path fill="none" stroke="white" stroke-width="1.5" d="M0,-3.0v7 M-2.5,-0.5L0,-3.0L2.5,-0.5"/>
                </g>
               <g id="resetDef">
                       <use xlink:href="#rim2" fill="#404040">
                               <set attributeName="fill" to="#808080" begin="reset.mouseover" end="reset.mouseout"/>
                       </use>
               </g>
        </defs>

<script type="text/javascript">
var viewWidth = 1418;
var viewHeight = 669;
var sectionId = 'dynsection-5';
</script>
<script xlink:href="svgpan.js"/>
<svg id="graph" class="graph">
<g id="viewport">
<title>ds::PartitionLinkedStats::changeMemberShip</title>
<polygon fill="white" stroke="none" points="-4,4 -4,-665.438 1414,-665.438 1414,4 -4,4"/>
<!-- Node48 -->
<g id="node1" class="node"><title>Node48</title>
<polygon fill="#bfbfbf" stroke="black" points="0,-515 0,-545 122,-545 122,-515 0,-515"/>
<text text-anchor="start" x="8" y="-533" font-family="Helvetica,sans-Serif" font-size="10.00">ds::PartitionLinkedStats</text>
<text text-anchor="middle" x="61" y="-522" font-family="Helvetica,sans-Serif" font-size="10.00">::changeMemberShip</text>
</g>
<!-- Node49 -->
<g id="node2" class="node"><title>Node49</title>
<g id="a_node2"><a xlink:href="classds_1_1_partition_linked_stats.html#adf5abdfed4d9130304eb420025a3b167" target="_top" xlink:title="ds::PartitionLinkedStats\l::addInstanceToCluster">
<polygon fill="white" stroke="black" points="158,-493 158,-523 281,-523 281,-493 158,-493"/>
<text text-anchor="start" x="166" y="-511" font-family="Helvetica,sans-Serif" font-size="10.00">ds::PartitionLinkedStats</text>
<text text-anchor="middle" x="219.5" y="-500" font-family="Helvetica,sans-Serif" font-size="10.00">::addInstanceToCluster</text>
</a>
</g>
</g>
<!-- Node48&#45;&gt;Node49 -->
<g id="edge1" class="edge"><title>Node48&#45;&gt;Node49</title>
<path fill="none" stroke="midnightblue" d="M122.059,-521.557C130.485,-520.373 139.209,-519.146 147.81,-517.937"/>
<polygon fill="midnightblue" stroke="midnightblue" points="148.41,-521.387 157.825,-516.529 147.435,-514.456 148.41,-521.387"/>
</g>
<!-- Node61 -->
<g id="node14" class="node"><title>Node61</title>
<g id="a_node14"><a xlink:href="classds_1_1_partition_linked_stats.html#aa130bcf56e35799d8d85e7b4b8b49034" target="_top" xlink:title="ds::PartitionLinkedStats\l::subInstanceFromCluster">
<polygon fill="white" stroke="black" points="328.5,-537 328.5,-567 459.5,-567 459.5,-537 328.5,-537"/>
<text text-anchor="start" x="336.5" y="-555" font-family="Helvetica,sans-Serif" font-size="10.00">ds::PartitionLinkedStats</text>
<text text-anchor="middle" x="394" y="-544" font-family="Helvetica,sans-Serif" font-size="10.00">::subInstanceFromCluster</text>
</a>
</g>
</g>
<!-- Node48&#45;&gt;Node61 -->
<g id="edge34" class="edge"><title>Node48&#45;&gt;Node61</title>
<path fill="none" stroke="midnightblue" d="M122.326,-534.01C177.41,-537.671 259.037,-543.096 318.24,-547.031"/>
<polygon fill="midnightblue" stroke="midnightblue" points="318.071,-550.527 328.281,-547.698 318.535,-543.543 318.071,-550.527"/>
</g>
<!-- Node63 -->
<g id="node16" class="node"><title>Node63</title>
<g id="a_node16"><a xlink:href="classds_1_1_partition_linked_stats.html#ac002167e3a4f4f2b692c3b7e1c9fd785" target="_top" xlink:title="ds::PartitionLinkedStats\l::print">
<polygon fill="white" stroke="black" points="158.5,-201 158.5,-231 280.5,-231 280.5,-201 158.5,-201"/>
<text text-anchor="start" x="166.5" y="-219" font-family="Helvetica,sans-Serif" font-size="10.00">ds::PartitionLinkedStats</text>
<text text-anchor="middle" x="219.5" y="-208" font-family="Helvetica,sans-Serif" font-size="10.00">::print</text>
</a>
</g>
</g>
<!-- Node48&#45;&gt;Node63 -->
<g id="edge23" class="edge"><title>Node48&#45;&gt;Node63</title>
<path fill="none" stroke="midnightblue" d="M69.5483,-514.855C94.6437,-464.504 175.435,-302.404 206.33,-240.417"/>
<polygon fill="midnightblue" stroke="midnightblue" points="209.516,-241.872 210.844,-231.361 203.251,-238.749 209.516,-241.872"/>
</g>
<!-- Node50 -->
<g id="node3" class="node"><title>Node50</title>
<g id="a_node3"><a xlink:href="classds_1_1_partition_linked.html#a4013f0d8892069abc3fe9c05103d60e0" target="_top" xlink:title="ds::PartitionLinked\l::addInstanceToCluster">
<polygon fill="white" stroke="black" points="332.5,-449 332.5,-479 455.5,-479 455.5,-449 332.5,-449"/>
<text text-anchor="start" x="340.5" y="-467" font-family="Helvetica,sans-Serif" font-size="10.00">ds::PartitionLinked</text>
<text text-anchor="middle" x="394" y="-456" font-family="Helvetica,sans-Serif" font-size="10.00">::addInstanceToCluster</text>
</a>
</g>
</g>
<!-- Node49&#45;&gt;Node50 -->
<g id="edge2" class="edge"><title>Node49&#45;&gt;Node50</title>
<path fill="none" stroke="midnightblue" d="M279.382,-492.981C293.736,-489.32 309.217,-485.371 323.995,-481.601"/>
<polygon fill="midnightblue" stroke="midnightblue" points="325.266,-484.889 334.09,-479.026 323.536,-478.106 325.266,-484.889"/>
</g>
<!-- Node57 -->
<g id="node10" class="node"><title>Node57</title>
<g id="a_node10"><a xlink:href="namespaceinterfacesse.html#a9dd5fb43ad8a83ee5cb2f5ba1bb2085b" target="_top" xlink:title="interfacesse::axpy">
<polygon fill="white" stroke="black" points="715,-618.5 715,-637.5 814,-637.5 814,-618.5 715,-618.5"/>
<text text-anchor="middle" x="764.5" y="-625.5" font-family="Helvetica,sans-Serif" font-size="10.00">interfacesse::axpy</text>
</a>
</g>
</g>
<!-- Node49&#45;&gt;Node57 -->
<g id="edge11" class="edge"><title>Node49&#45;&gt;Node57</title>
<path fill="none" stroke="midnightblue" d="M239.243,-523.168C258.096,-537.941 288.393,-560.393 317,-576 396.986,-619.638 417.568,-635.567 507,-653 575.052,-666.266 594.181,-661.431 663,-653 683.177,-650.528 705.135,-645.363 723.365,-640.366"/>
<polygon fill="midnightblue" stroke="midnightblue" points="724.401,-643.711 733.074,-637.626 722.499,-636.974 724.401,-643.711"/>
</g>
<!-- Node60 -->
<g id="node13" class="node"><title>Node60</title>
<g id="a_node13"><a xlink:href="classmat_1_1_matrix_resizable_row.html#a9dc9ad27ad33933bfa6c0f483e24cc33" target="_top" xlink:title="mat::MatrixResizableRow\l::getRow">
<polygon fill="white" stroke="black" points="699,-531 699,-561 830,-561 830,-531 699,-531"/>
<text text-anchor="start" x="707" y="-549" font-family="Helvetica,sans-Serif" font-size="10.00">mat::MatrixResizableRow</text>
<text text-anchor="middle" x="764.5" y="-538" font-family="Helvetica,sans-Serif" font-size="10.00">::getRow</text>
</a>
</g>
</g>
<!-- Node49&#45;&gt;Node60 -->
<g id="edge14" class="edge"><title>Node49&#45;&gt;Node60</title>
<path fill="none" stroke="midnightblue" d="M281.208,-512.248C381.209,-519.247 580.28,-533.178 688.775,-540.771"/>
<polygon fill="midnightblue" stroke="midnightblue" points="688.765,-544.278 698.985,-541.485 689.254,-537.295 688.765,-544.278"/>
</g>
<!-- Node49&#45;&gt;Node61 -->
<g id="edge15" class="edge"><title>Node49&#45;&gt;Node61</title>
<path fill="none" stroke="midnightblue" d="M279.382,-523.019C293.736,-526.68 309.217,-530.629 323.995,-534.399"/>
<polygon fill="midnightblue" stroke="midnightblue" points="323.536,-537.894 334.09,-536.974 325.266,-531.111 323.536,-537.894"/>
</g>
<!-- Node51 -->
<g id="node4" class="node"><title>Node51</title>
<g id="a_node4"><a xlink:href="classds_1_1_partition_linked.html#adc3c73d4486bec92878e785229d2536e" target="_top" xlink:title="ds::PartitionLinked\l::subInstanceFromCluster">
<polygon fill="white" stroke="black" points="519.5,-449 519.5,-479 650.5,-479 650.5,-449 519.5,-449"/>
<text text-anchor="start" x="527.5" y="-467" font-family="Helvetica,sans-Serif" font-size="10.00">ds::PartitionLinked</text>
<text text-anchor="middle" x="585" y="-456" font-family="Helvetica,sans-Serif" font-size="10.00">::subInstanceFromCluster</text>
</a>
</g>
</g>
<!-- Node50&#45;&gt;Node51 -->
<g id="edge3" class="edge"><title>Node50&#45;&gt;Node51</title>
<path fill="none" stroke="midnightblue" d="M455.581,-464C472.549,-464 491.2,-464 508.902,-464"/>
<polygon fill="midnightblue" stroke="midnightblue" points="509.195,-467.5 519.194,-464 509.194,-460.5 509.195,-467.5"/>
</g>
<!-- Node52 -->
<g id="node5" class="node"><title>Node52</title>
<g id="a_node5"><a xlink:href="classds_1_1_partition_linked.html#abfd8979dbdeee0fda9d8cb22aa9062ed" target="_top" xlink:title="ds::PartitionLinked\l::changeMemberShip">
<polygon fill="white" stroke="black" points="708,-430 708,-460 821,-460 821,-430 708,-430"/>
<text text-anchor="start" x="716" y="-448" font-family="Helvetica,sans-Serif" font-size="10.00">ds::PartitionLinked</text>
<text text-anchor="middle" x="764.5" y="-437" font-family="Helvetica,sans-Serif" font-size="10.00">::changeMemberShip</text>
</a>
</g>
</g>
<!-- Node51&#45;&gt;Node52 -->
<g id="edge4" class="edge"><title>Node51&#45;&gt;Node52</title>
<path fill="none" stroke="midnightblue" d="M650.584,-450.564C665.952,-448.623 682.366,-446.859 697.785,-445.491"/>
<polygon fill="midnightblue" stroke="midnightblue" points="698.081,-448.978 707.752,-444.651 697.493,-442.003 698.081,-448.978"/>
</g>
<!-- Node52&#45;&gt;Node50 -->
<g id="edge5" class="edge"><title>Node52&#45;&gt;Node50</title>
<path fill="none" stroke="midnightblue" d="M707.973,-441.091C693.352,-440.225 677.588,-439.435 663,-439 593.697,-436.933 575.916,-431.402 507,-439 492.036,-440.65 476.148,-443.504 461.186,-446.707"/>
<polygon fill="midnightblue" stroke="midnightblue" points="460,-443.385 450.997,-448.97 461.518,-450.219 460,-443.385"/>
</g>
<!-- Node52&#45;&gt;Node51 -->
<g id="edge10" class="edge"><title>Node52&#45;&gt;Node51</title>
<path fill="none" stroke="midnightblue" d="M707.752,-457.284C692.868,-459.286 676.541,-461.153 660.812,-462.667"/>
<polygon fill="midnightblue" stroke="midnightblue" points="660.221,-459.207 650.584,-463.609 660.863,-466.177 660.221,-459.207"/>
</g>
<!-- Node53 -->
<g id="node6" class="node"><title>Node53</title>
<g id="a_node6"><a xlink:href="classds_1_1_partition_linked.html#aaa302ea8b39c37c44507bf4276ffa8f2" target="_top" xlink:title="ds::PartitionLinked\l::getInstanceIdxOfClusterK">
<polygon fill="white" stroke="black" points="866,-421 866,-451 1002,-451 1002,-421 866,-421"/>
<text text-anchor="start" x="874" y="-439" font-family="Helvetica,sans-Serif" font-size="10.00">ds::PartitionLinked</text>
<text text-anchor="middle" x="934" y="-428" font-family="Helvetica,sans-Serif" font-size="10.00">::getInstanceIdxOfClusterK</text>
</a>
</g>
</g>
<!-- Node52&#45;&gt;Node53 -->
<g id="edge6" class="edge"><title>Node52&#45;&gt;Node53</title>
<path fill="none" stroke="midnightblue" d="M821.275,-442.003C832.316,-441.41 844.09,-440.777 855.697,-440.154"/>
<polygon fill="midnightblue" stroke="midnightblue" points="856.035,-443.641 865.833,-439.609 855.659,-436.651 856.035,-443.641"/>
</g>
<!-- Node54 -->
<g id="node7" class="node"><title>Node54</title>
<g id="a_node7"><a xlink:href="classds_1_1_partition_linked.html#a1a20dd710247ebccba848e555f9ad9e6" target="_top" xlink:title="ds::PartitionLinked\l::joinCluster">
<polygon fill="white" stroke="black" points="1038,-416 1038,-446 1138,-446 1138,-416 1038,-416"/>
<text text-anchor="start" x="1046" y="-434" font-family="Helvetica,sans-Serif" font-size="10.00">ds::PartitionLinked</text>
<text text-anchor="middle" x="1088" y="-423" font-family="Helvetica,sans-Serif" font-size="10.00">::joinCluster</text>
</a>
</g>
</g>
<!-- Node53&#45;&gt;Node54 -->
<g id="edge7" class="edge"><title>Node53&#45;&gt;Node54</title>
<path fill="none" stroke="midnightblue" d="M1002.11,-433.792C1010.59,-433.513 1019.22,-433.229 1027.57,-432.955"/>
<polygon fill="midnightblue" stroke="midnightblue" points="1027.71,-436.452 1037.59,-432.625 1027.48,-429.456 1027.71,-436.452"/>
</g>
<!-- Node55 -->
<g id="node8" class="node"><title>Node55</title>
<g id="a_node8"><a xlink:href="classds_1_1_partition_linked.html#a6a7de3bc18b0904e2e23536a336e42a8" target="_top" xlink:title="ds::PartitionLinked\l::print">
<polygon fill="white" stroke="black" points="1174,-391 1174,-421 1274,-421 1274,-391 1174,-391"/>
<text text-anchor="start" x="1182" y="-409" font-family="Helvetica,sans-Serif" font-size="10.00">ds::PartitionLinked</text>
<text text-anchor="middle" x="1224" y="-398" font-family="Helvetica,sans-Serif" font-size="10.00">::print</text>
</a>
</g>
</g>
<!-- Node54&#45;&gt;Node55 -->
<g id="edge8" class="edge"><title>Node54&#45;&gt;Node55</title>
<path fill="none" stroke="midnightblue" d="M1138.14,-421.833C1146.51,-420.27 1155.29,-418.633 1163.89,-417.028"/>
<polygon fill="midnightblue" stroke="midnightblue" points="1164.68,-420.441 1173.87,-415.166 1163.4,-413.559 1164.68,-420.441"/>
</g>
<!-- Node56 -->
<g id="node9" class="node"><title>Node56</title>
<g id="a_node9"><a xlink:href="classds_1_1_partition_linked.html#a696f58c4d25fd41adf281d1468440dc9" target="_top" xlink:title="ds::PartitionLinked\l::getNumPartitions">
<polygon fill="white" stroke="black" points="1310,-391 1310,-421 1410,-421 1410,-391 1310,-391"/>
<text text-anchor="start" x="1318" y="-409" font-family="Helvetica,sans-Serif" font-size="10.00">ds::PartitionLinked</text>
<text text-anchor="middle" x="1360" y="-398" font-family="Helvetica,sans-Serif" font-size="10.00">::getNumPartitions</text>
</a>
</g>
</g>
<!-- Node55&#45;&gt;Node56 -->
<g id="edge9" class="edge"><title>Node55&#45;&gt;Node56</title>
<path fill="none" stroke="midnightblue" d="M1274.14,-406C1282.42,-406 1291.1,-406 1299.61,-406"/>
<polygon fill="midnightblue" stroke="midnightblue" points="1299.87,-409.5 1309.87,-406 1299.87,-402.5 1299.87,-409.5"/>
</g>
<!-- Node58 -->
<g id="node11" class="node"><title>Node58</title>
<g id="a_node11"><a xlink:href="namespaceinterfacesse.html#ae3f94c42a59db65b2941dbfc9f449ea1" target="_top" xlink:title="function xAXPY of blas for doubles vectors ">
<polygon fill="white" stroke="black" points="878,-618.5 878,-637.5 990,-637.5 990,-618.5 878,-618.5"/>
<text text-anchor="middle" x="934" y="-625.5" font-family="Helvetica,sans-Serif" font-size="10.00">interfacesse::axpyInv</text>
</a>
</g>
</g>
<!-- Node57&#45;&gt;Node58 -->
<g id="edge12" class="edge"><title>Node57&#45;&gt;Node58</title>
<path fill="none" stroke="midnightblue" d="M814.398,-628C831.027,-628 849.886,-628 867.594,-628"/>
<polygon fill="midnightblue" stroke="midnightblue" points="867.862,-631.5 877.862,-628 867.862,-624.5 867.862,-631.5"/>
</g>
<!-- Node59 -->
<g id="node12" class="node"><title>Node59</title>
<g id="a_node12"><a xlink:href="namespaceinterfacesse.html#a144ebf70bf38495c3de1aca2c8365e08" target="_top" xlink:title="scal items of the array of type T ">
<polygon fill="white" stroke="black" points="1040,-618.5 1040,-637.5 1136,-637.5 1136,-618.5 1040,-618.5"/>
<text text-anchor="middle" x="1088" y="-625.5" font-family="Helvetica,sans-Serif" font-size="10.00">interfacesse::scal</text>
</a>
</g>
</g>
<!-- Node58&#45;&gt;Node59 -->
<g id="edge13" class="edge"><title>Node58&#45;&gt;Node59</title>
<path fill="none" stroke="midnightblue" d="M990.305,-628C1003.17,-628 1016.88,-628 1029.82,-628"/>
<polygon fill="midnightblue" stroke="midnightblue" points="1030,-631.5 1040,-628 1030,-624.5 1030,-631.5"/>
</g>
<!-- Node61&#45;&gt;Node51 -->
<g id="edge16" class="edge"><title>Node61&#45;&gt;Node51</title>
<path fill="none" stroke="midnightblue" d="M427.49,-536.872C459.23,-522.094 507.678,-499.536 542.258,-483.435"/>
<polygon fill="midnightblue" stroke="midnightblue" points="544.03,-486.471 551.618,-479.077 541.075,-480.125 544.03,-486.471"/>
</g>
<!-- Node61&#45;&gt;Node57 -->
<g id="edge18" class="edge"><title>Node61&#45;&gt;Node57</title>
<path fill="none" stroke="midnightblue" d="M459.598,-563.733C513.98,-573.802 593.745,-589.019 663,-604 680.133,-607.706 698.83,-612.08 715.4,-616.071"/>
<polygon fill="midnightblue" stroke="midnightblue" points="714.866,-619.543 725.409,-618.498 716.515,-612.74 714.866,-619.543"/>
</g>
<!-- Node61&#45;&gt;Node60 -->
<g id="edge17" class="edge"><title>Node61&#45;&gt;Node60</title>
<path fill="none" stroke="midnightblue" d="M459.609,-550.948C523.615,-549.906 621.556,-548.311 688.852,-547.215"/>
<polygon fill="midnightblue" stroke="midnightblue" points="689.023,-550.713 698.965,-547.051 688.909,-543.714 689.023,-550.713"/>
</g>
<!-- Node62 -->
<g id="node15" class="node"><title>Node62</title>
<g id="a_node15"><a xlink:href="classds_1_1_partition_linked_stats.html#a55f8dadc883ae7dd4154d451197176d8" target="_top" xlink:title="ds::PartitionLinkedStats\l::changeSumInstances">
<polygon fill="white" stroke="black" points="524,-613 524,-643 646,-643 646,-613 524,-613"/>
<text text-anchor="start" x="532" y="-631" font-family="Helvetica,sans-Serif" font-size="10.00">ds::PartitionLinkedStats</text>
<text text-anchor="middle" x="585" y="-620" font-family="Helvetica,sans-Serif" font-size="10.00">::changeSumInstances</text>
</a>
</g>
</g>
<!-- Node61&#45;&gt;Node62 -->
<g id="edge19" class="edge"><title>Node61&#45;&gt;Node62</title>
<path fill="none" stroke="midnightblue" d="M431.249,-567.083C453.143,-576.145 481.629,-587.848 507,-598 516.095,-601.639 525.816,-605.471 535.183,-609.135"/>
<polygon fill="midnightblue" stroke="midnightblue" points="534.186,-612.502 544.774,-612.876 536.729,-605.981 534.186,-612.502"/>
</g>
<!-- Node62&#45;&gt;Node48 -->
<g id="edge22" class="edge"><title>Node62&#45;&gt;Node48</title>
<path fill="none" stroke="midnightblue" d="M523.724,-619.324C440.909,-607.027 287.468,-582.898 158,-555 147.729,-552.787 136.902,-550.209 126.367,-547.566"/>
<polygon fill="midnightblue" stroke="midnightblue" points="126.938,-544.099 116.383,-545.021 125.209,-550.882 126.938,-544.099"/>
</g>
<!-- Node62&#45;&gt;Node57 -->
<g id="edge21" class="edge"><title>Node62&#45;&gt;Node57</title>
<path fill="none" stroke="midnightblue" d="M646.093,-628C665.017,-628 685.888,-628 704.719,-628"/>
<polygon fill="midnightblue" stroke="midnightblue" points="704.946,-631.5 714.946,-628 704.946,-624.5 704.946,-631.5"/>
</g>
<!-- Node62&#45;&gt;Node60 -->
<g id="edge20" class="edge"><title>Node62&#45;&gt;Node60</title>
<path fill="none" stroke="midnightblue" d="M618.556,-612.96C647.49,-599.593 689.96,-579.974 721.455,-565.424"/>
<polygon fill="midnightblue" stroke="midnightblue" points="723.24,-568.455 730.85,-561.083 720.304,-562.1 723.24,-568.455"/>
</g>
<!-- Node63&#45;&gt;Node55 -->
<g id="edge31" class="edge"><title>Node63&#45;&gt;Node55</title>
<path fill="none" stroke="midnightblue" d="M225.454,-231.333C236.359,-262.287 265.641,-331.855 317,-362 419.627,-422.236 465.001,-382 584,-382 584,-382 584,-382 935,-382 1014.4,-382 1105.69,-391.171 1163.82,-398.175"/>
<polygon fill="midnightblue" stroke="midnightblue" points="1163.58,-401.67 1173.93,-399.41 1164.43,-394.722 1163.58,-401.67"/>
</g>
<!-- Node64 -->
<g id="node17" class="node"><title>Node64</title>
<g id="a_node17"><a xlink:href="classds_1_1_partition_linked_stats.html#aea3a5b61e78f2aa7bb44b1d1a9e25b59" target="_top" xlink:title="ds::PartitionLinkedStats\l::getNumPartitions">
<polygon fill="white" stroke="black" points="333,-274 333,-304 455,-304 455,-274 333,-274"/>
<text text-anchor="start" x="341" y="-292" font-family="Helvetica,sans-Serif" font-size="10.00">ds::PartitionLinkedStats</text>
<text text-anchor="middle" x="394" y="-281" font-family="Helvetica,sans-Serif" font-size="10.00">::getNumPartitions</text>
</a>
</g>
</g>
<!-- Node63&#45;&gt;Node64 -->
<g id="edge24" class="edge"><title>Node63&#45;&gt;Node64</title>
<path fill="none" stroke="midnightblue" d="M248.298,-231.16C267.317,-241.199 293.287,-254.261 317,-264 322.433,-266.231 328.144,-268.407 333.893,-270.485"/>
<polygon fill="midnightblue" stroke="midnightblue" points="332.969,-273.87 343.563,-273.883 335.289,-267.266 332.969,-273.87"/>
</g>
<!-- Node66 -->
<g id="node19" class="node"><title>Node66</title>
<g id="a_node19"><a xlink:href="classds_1_1_iterator_partition_linked.html#ad171cb96653fadaec272389381a4f8b4" target="_top" xlink:title="ds::IteratorPartitionLinked\l::begin">
<polygon fill="white" stroke="black" points="328.5,-39 328.5,-69 459.5,-69 459.5,-39 328.5,-39"/>
<text text-anchor="start" x="336.5" y="-57" font-family="Helvetica,sans-Serif" font-size="10.00">ds::IteratorPartitionLinked</text>
<text text-anchor="middle" x="394" y="-46" font-family="Helvetica,sans-Serif" font-size="10.00">::begin</text>
</a>
</g>
</g>
<!-- Node63&#45;&gt;Node66 -->
<g id="edge26" class="edge"><title>Node63&#45;&gt;Node66</title>
<path fill="none" stroke="midnightblue" d="M227.094,-200.665C240.094,-172.233 271.751,-111.215 317,-78 319.05,-76.4955 321.196,-75.0833 323.416,-73.758"/>
<polygon fill="midnightblue" stroke="midnightblue" points="325.084,-76.8351 332.287,-69.0648 321.811,-70.6477 325.084,-76.8351"/>
</g>
<!-- Node67 -->
<g id="node20" class="node"><title>Node67</title>
<g id="a_node20"><a xlink:href="classds_1_1_iterator_partition_linked.html#af0e179fae69c0d4f047082ee44783613" target="_top" xlink:title="ds::IteratorPartitionLinked::end">
<polygon fill="white" stroke="black" points="317,-0.5 317,-19.5 471,-19.5 471,-0.5 317,-0.5"/>
<text text-anchor="middle" x="394" y="-7.5" font-family="Helvetica,sans-Serif" font-size="10.00">ds::IteratorPartitionLinked::end</text>
</a>
</g>
</g>
<!-- Node63&#45;&gt;Node67 -->
<g id="edge27" class="edge"><title>Node63&#45;&gt;Node67</title>
<path fill="none" stroke="midnightblue" d="M223.783,-200.929C232.377,-165.201 258.999,-74.9222 317,-29 319.299,-27.1796 321.75,-25.5311 324.311,-24.0384"/>
<polygon fill="midnightblue" stroke="midnightblue" points="325.978,-27.1188 333.382,-19.5403 322.868,-20.8476 325.978,-27.1188"/>
</g>
<!-- Node68 -->
<g id="node21" class="node"><title>Node68</title>
<g id="a_node21"><a xlink:href="classds_1_1_iterator_partition_linked.html#a83b887be41c97dc0bdfc47a02abbc383" target="_top" xlink:title="ds::IteratorPartitionLinked\l::next">
<polygon fill="white" stroke="black" points="328.5,-323 328.5,-353 459.5,-353 459.5,-323 328.5,-323"/>
<text text-anchor="start" x="336.5" y="-341" font-family="Helvetica,sans-Serif" font-size="10.00">ds::IteratorPartitionLinked</text>
<text text-anchor="middle" x="394" y="-330" font-family="Helvetica,sans-Serif" font-size="10.00">::next</text>
</a>
</g>
</g>
<!-- Node63&#45;&gt;Node68 -->
<g id="edge28" class="edge"><title>Node63&#45;&gt;Node68</title>
<path fill="none" stroke="midnightblue" d="M231.895,-231.343C248.419,-252.573 281.017,-290.795 317,-313 320.361,-315.074 323.914,-316.996 327.573,-318.774"/>
<polygon fill="midnightblue" stroke="midnightblue" points="326.284,-322.031 336.843,-322.901 329.131,-315.636 326.284,-322.031"/>
</g>
<!-- Node69 -->
<g id="node22" class="node"><title>Node69</title>
<g id="a_node22"><a xlink:href="classds_1_1_iterator_partition_linked.html#a1a031c033d0d2d1c6982ced4e0473831" target="_top" xlink:title="ds::IteratorPartitionLinked\l::getValue">
<polygon fill="white" stroke="black" points="328.5,-225 328.5,-255 459.5,-255 459.5,-225 328.5,-225"/>
<text text-anchor="start" x="336.5" y="-243" font-family="Helvetica,sans-Serif" font-size="10.00">ds::IteratorPartitionLinked</text>
<text text-anchor="middle" x="394" y="-232" font-family="Helvetica,sans-Serif" font-size="10.00">::getValue</text>
</a>
</g>
</g>
<!-- Node63&#45;&gt;Node69 -->
<g id="edge29" class="edge"><title>Node63&#45;&gt;Node69</title>
<path fill="none" stroke="midnightblue" d="M280.832,-224.394C292.945,-226.079 305.809,-227.869 318.341,-229.613"/>
<polygon fill="midnightblue" stroke="midnightblue" points="317.913,-233.087 328.3,-230.998 318.877,-226.153 317.913,-233.087"/>
</g>
<!-- Node70 -->
<g id="node23" class="node"><title>Node70</title>
<g id="a_node23"><a xlink:href="classds_1_1_partition_linked.html#a70877e6d118d2f041d9006fdf565daec" target="_top" xlink:title="ds::PartitionLinked\l::getNumInstances">
<polygon fill="white" stroke="black" points="344,-176 344,-206 444,-206 444,-176 344,-176"/>
<text text-anchor="start" x="352" y="-194" font-family="Helvetica,sans-Serif" font-size="10.00">ds::PartitionLinked</text>
<text text-anchor="middle" x="394" y="-183" font-family="Helvetica,sans-Serif" font-size="10.00">::getNumInstances</text>
</a>
</g>
</g>
<!-- Node63&#45;&gt;Node70 -->
<g id="edge30" class="edge"><title>Node63&#45;&gt;Node70</title>
<path fill="none" stroke="midnightblue" d="M280.832,-207.256C297.889,-204.784 316.437,-202.096 333.448,-199.631"/>
<polygon fill="midnightblue" stroke="midnightblue" points="334.419,-203.027 343.814,-198.128 333.415,-196.099 334.419,-203.027"/>
</g>
<!-- Node71 -->
<g id="node24" class="node"><title>Node71</title>
<g id="a_node24"><a xlink:href="namespaceinout.html#a0c10a45877a347dec0d4ec4e5b05b828" target="_top" xlink:title="inout::containerprint">
<polygon fill="white" stroke="black" points="342.5,-137.5 342.5,-156.5 445.5,-156.5 445.5,-137.5 342.5,-137.5"/>
<text text-anchor="middle" x="394" y="-144.5" font-family="Helvetica,sans-Serif" font-size="10.00">inout::containerprint</text>
</a>
</g>
</g>
<!-- Node63&#45;&gt;Node71 -->
<g id="edge32" class="edge"><title>Node63&#45;&gt;Node71</title>
<path fill="none" stroke="midnightblue" d="M245.555,-200.953C264.609,-190.026 291.762,-175.543 317,-166 323.496,-163.544 330.424,-161.311 337.354,-159.311"/>
<polygon fill="midnightblue" stroke="midnightblue" points="338.735,-162.562 347.457,-156.548 336.888,-155.81 338.735,-162.562"/>
</g>
<!-- Node72 -->
<g id="node25" class="node"><title>Node72</title>
<g id="a_node25"><a xlink:href="classmat_1_1_matrix_resizable_row.html#a566801d937643cf5937b61bf321b01b7" target="_top" xlink:title="mat::MatrixResizableRow\l::print">
<polygon fill="white" stroke="black" points="328.5,-88 328.5,-118 459.5,-118 459.5,-88 328.5,-88"/>
<text text-anchor="start" x="336.5" y="-106" font-family="Helvetica,sans-Serif" font-size="10.00">mat::MatrixResizableRow</text>
<text text-anchor="middle" x="394" y="-95" font-family="Helvetica,sans-Serif" font-size="10.00">::print</text>
</a>
</g>
</g>
<!-- Node63&#45;&gt;Node72 -->
<g id="edge33" class="edge"><title>Node63&#45;&gt;Node72</title>
<path fill="none" stroke="midnightblue" d="M233.374,-200.822C250.595,-181.4 282.932,-147.896 317,-128 320.643,-125.872 324.492,-123.898 328.446,-122.069"/>
<polygon fill="midnightblue" stroke="midnightblue" points="329.995,-125.214 337.816,-118.067 327.245,-118.776 329.995,-125.214"/>
</g>
<!-- Node65 -->
<g id="node18" class="node"><title>Node65</title>
<g id="a_node18"><a xlink:href="classmat_1_1_matrix_base.html#ac500eedd5e203327d3292f8ab22d8f3e" target="_top" xlink:title="mat::MatrixBase::getNumRows">
<polygon fill="white" stroke="black" points="507,-279.5 507,-298.5 663,-298.5 663,-279.5 507,-279.5"/>
<text text-anchor="middle" x="585" y="-286.5" font-family="Helvetica,sans-Serif" font-size="10.00">mat::MatrixBase::getNumRows</text>
</a>
</g>
</g>
<!-- Node64&#45;&gt;Node65 -->
<g id="edge25" class="edge"><title>Node64&#45;&gt;Node65</title>
<path fill="none" stroke="midnightblue" d="M455.06,-289C468.281,-289 482.544,-289 496.596,-289"/>
<polygon fill="midnightblue" stroke="midnightblue" points="496.773,-292.5 506.773,-289 496.773,-285.5 496.773,-292.5"/>
</g>
</g>
</svg>
        <g id="navigator" transform="translate(0 0)" fill="#404254">
                <rect fill="#f2f5e9" fill-opacity="0.5" stroke="#606060" stroke-width=".5" x="0" y="0" width="60" height="60"/>
                <use id="zoomplus" xlink:href="#zoomPlus" x="17" y="9" onmousedown="handleZoom(evt,'in')"/>
                <use id="zoomminus" xlink:href="#zoomMin" x="42" y="9" onmousedown="handleZoom(evt,'out')"/>
                <use id="reset" xlink:href="#resetDef" x="30" y="36" onmousedown="handleReset()"/>
                <g id="arrowUp" xlink:href="#dirArrow" transform="translate(30 24)" onmousedown="handlePan(0,-1)">
                  <use xlink:href="#rim" fill="#404040">
                        <set attributeName="fill" to="#808080" begin="arrowUp.mouseover" end="arrowUp.mouseout"/>
                  </use>
                  <path fill="none" stroke="white" stroke-width="1.5" d="M0,-3.0v7 M-2.5,-0.5L0,-3.0L2.5,-0.5"/>
                </g>
                <g id="arrowRight" xlink:href="#dirArrow" transform="rotate(90) translate(36 -43)" onmousedown="handlePan(1,0)">
                  <use xlink:href="#rim" fill="#404040">
                        <set attributeName="fill" to="#808080" begin="arrowRight.mouseover" end="arrowRight.mouseout"/>
                  </use>
                  <path fill="none" stroke="white" stroke-width="1.5" d="M0,-3.0v7 M-2.5,-0.5L0,-3.0L2.5,-0.5"/>
                </g>
                <g id="arrowDown" xlink:href="#dirArrow" transform="rotate(180) translate(-30 -48)" onmousedown="handlePan(0,1)">
                  <use xlink:href="#rim" fill="#404040">
                        <set attributeName="fill" to="#808080" begin="arrowDown.mouseover" end="arrowDown.mouseout"/>
                  </use>
                  <path fill="none" stroke="white" stroke-width="1.5" d="M0,-3.0v7 M-2.5,-0.5L0,-3.0L2.5,-0.5"/>
                </g>
                <g id="arrowLeft" xlink:href="#dirArrow" transform="rotate(270) translate(-36 17)" onmousedown="handlePan(-1,0)">
                  <use xlink:href="#rim" fill="#404040">
                        <set attributeName="fill" to="#808080" begin="arrowLeft.mouseover" end="arrowLeft.mouseout"/>
                  </use>
                  <path fill="none" stroke="white" stroke-width="1.5" d="M0,-3.0v7 M-2.5,-0.5L0,-3.0L2.5,-0.5"/>
                </g>
        </g>
        <svg viewBox="0 0 15 15" width="100%" height="30px" preserveAspectRatio="xMaxYMin meet">
         <g id="arrow_out" transform="scale(0.3 0.3)">
          <a xlink:href="classds_1_1_partition_linked_stats_aec76b7c8e249f1291d6557947c04f31e_cgraph_org.svg" target="_base">
           <rect id="button" ry="5" rx="5" y="6" x="6" height="38" width="38"
                fill="#f2f5e9" fill-opacity="0.5" stroke="#606060" stroke-width="1.0"/>
           <path id="arrow"
             d="M 11.500037,31.436501 C 11.940474,20.09759 22.043105,11.32322 32.158766,21.979434 L 37.068811,17.246167 C 37.068811,17.246167 37.088388,32 37.088388,32 L 22.160133,31.978069 C 22.160133,31.978069 26.997745,27.140456 26.997745,27.140456 C 18.528582,18.264221 13.291696,25.230495 11.500037,31.436501 z"
             style="fill:#404040;"/>
          </a>
         </g>
        </svg>
</svg>
