<?xml version="1.0" encoding="UTF-8" standalone="no"?>
<!DOCTYPE svg PUBLIC "-//W3C//DTD SVG 1.1//EN"
 "http://www.w3.org/Graphics/SVG/1.1/DTD/svg11.dtd">
<!-- Generated by graphviz version 2.38.0 (20140413.2041)
 -->
<!-- Title: inout::InParamDBSCAN::print Pages: 1 -->
<svg width="482pt" height="284pt"
 viewBox="0.00 0.00 482.00 284.00" xmlns="http://www.w3.org/2000/svg" xmlns:xlink="http://www.w3.org/1999/xlink">
<g id="graph0" class="graph" transform="scale(1 1) rotate(0) translate(4 280)">
<title>inout::InParamDBSCAN::print</title>
<polygon fill="white" stroke="none" points="-4,4 -4,-280 478,-280 478,4 -4,4"/>
<!-- Node8 -->
<g id="node1" class="node"><title>Node8</title>
<polygon fill="#bfbfbf" stroke="black" points="0,-171.5 0,-201.5 123,-201.5 123,-171.5 0,-171.5"/>
<text text-anchor="start" x="8" y="-189.5" font-family="Helvetica,sans-Serif" font-size="10.00">inout::InParamDBSCAN</text>
<text text-anchor="middle" x="61.5" y="-178.5" font-family="Helvetica,sans-Serif" font-size="10.00">::print</text>
</g>
<!-- Node9 -->
<g id="node2" class="node"><title>Node9</title>
<g id="a_node2"><a xlink:href="classinout_1_1_in_param_clustering.html#a8c6c0fafcd08e2de1d2f336ca30894d9" target="_top" xlink:title="inout::InParamClustering\l::print">
<polygon fill="white" stroke="black" points="159,-220.5 159,-250.5 285,-250.5 285,-220.5 159,-220.5"/>
<text text-anchor="start" x="167" y="-238.5" font-family="Helvetica,sans-Serif" font-size="10.00">inout::InParamClustering</text>
<text text-anchor="middle" x="222" y="-227.5" font-family="Helvetica,sans-Serif" font-size="10.00">::print</text>
</a>
</g>
</g>
<!-- Node8&#45;&gt;Node9 -->
<g id="edge1" class="edge"><title>Node8&#45;&gt;Node9</title>
<path fill="none" stroke="midnightblue" d="M111.349,-201.601C127.544,-206.608 145.737,-212.232 162.578,-217.439"/>
<polygon fill="midnightblue" stroke="midnightblue" points="161.725,-220.839 172.313,-220.448 163.793,-214.151 161.725,-220.839"/>
</g>
<!-- Node11 -->
<g id="node4" class="node"><title>Node11</title>
<g id="a_node4"><a xlink:href="classinout_1_1_in_param_read_inst.html#af8511d4844e09033e170fadca2e3abd2" target="_top" xlink:title="inout::InParamReadInst\l::print">
<polygon fill="white" stroke="black" points="161.5,-122.5 161.5,-152.5 282.5,-152.5 282.5,-122.5 161.5,-122.5"/>
<text text-anchor="start" x="169.5" y="-140.5" font-family="Helvetica,sans-Serif" font-size="10.00">inout::InParamReadInst</text>
<text text-anchor="middle" x="222" y="-129.5" font-family="Helvetica,sans-Serif" font-size="10.00">::print</text>
</a>
</g>
</g>
<!-- Node8&#45;&gt;Node11 -->
<g id="edge3" class="edge"><title>Node8&#45;&gt;Node11</title>
<path fill="none" stroke="midnightblue" d="M111.349,-171.399C127.544,-166.392 145.737,-160.768 162.578,-155.561"/>
<polygon fill="midnightblue" stroke="midnightblue" points="163.793,-158.849 172.313,-152.552 161.725,-152.161 163.793,-158.849"/>
</g>
<!-- Node10 -->
<g id="node3" class="node"><title>Node10</title>
<g id="a_node3"><a xlink:href="classinout_1_1_in_param_algorithmo.html#a97ec15acf20ba619b4538d193125a082" target="_top" xlink:title="inout::InParamAlgorithmo\l::print">
<polygon fill="white" stroke="black" points="333,-245.5 333,-275.5 462,-275.5 462,-245.5 333,-245.5"/>
<text text-anchor="start" x="341" y="-263.5" font-family="Helvetica,sans-Serif" font-size="10.00">inout::InParamAlgorithmo</text>
<text text-anchor="middle" x="397.5" y="-252.5" font-family="Helvetica,sans-Serif" font-size="10.00">::print</text>
</a>
</g>
</g>
<!-- Node9&#45;&gt;Node10 -->
<g id="edge2" class="edge"><title>Node9&#45;&gt;Node10</title>
<path fill="none" stroke="midnightblue" d="M285.147,-244.455C297.347,-246.213 310.253,-248.073 322.788,-249.879"/>
<polygon fill="midnightblue" stroke="midnightblue" points="322.344,-253.351 332.741,-251.313 323.342,-246.422 322.344,-253.351"/>
</g>
<!-- Node12 -->
<g id="node5" class="node"><title>Node12</title>
<g id="a_node5"><a xlink:href="classinout_1_1_in_param_read_inst.html#a797250bacc8d887b96fa19247c5dd13f" target="_top" xlink:title="inout::InParamReadInst\l::getCurrentFileInstance">
<polygon fill="white" stroke="black" points="336,-196.5 336,-226.5 459,-226.5 459,-196.5 336,-196.5"/>
<text text-anchor="start" x="344" y="-214.5" font-family="Helvetica,sans-Serif" font-size="10.00">inout::InParamReadInst</text>
<text text-anchor="middle" x="397.5" y="-203.5" font-family="Helvetica,sans-Serif" font-size="10.00">::getCurrentFileInstance</text>
</a>
</g>
</g>
<!-- Node11&#45;&gt;Node12 -->
<g id="edge4" class="edge"><title>Node11&#45;&gt;Node12</title>
<path fill="none" stroke="midnightblue" d="M249.48,-152.509C268.889,-163.138 296.089,-177.266 321,-187.5 325.729,-189.443 330.677,-191.327 335.68,-193.13"/>
<polygon fill="midnightblue" stroke="midnightblue" points="334.731,-196.505 345.326,-196.488 337.033,-189.894 334.731,-196.505"/>
</g>
<!-- Node13 -->
<g id="node6" class="node"><title>Node13</title>
<g id="a_node6"><a xlink:href="classinout_1_1_in_param_read_inst.html#a2bfdb61b53cf2421d4d7b77f1e117957" target="_top" xlink:title="inout::InParamReadInst\l::getNumInstances">
<polygon fill="white" stroke="black" points="337,-147.5 337,-177.5 458,-177.5 458,-147.5 337,-147.5"/>
<text text-anchor="start" x="345" y="-165.5" font-family="Helvetica,sans-Serif" font-size="10.00">inout::InParamReadInst</text>
<text text-anchor="middle" x="397.5" y="-154.5" font-family="Helvetica,sans-Serif" font-size="10.00">::getNumInstances</text>
</a>
</g>
</g>
<!-- Node11&#45;&gt;Node13 -->
<g id="edge5" class="edge"><title>Node11&#45;&gt;Node13</title>
<path fill="none" stroke="midnightblue" d="M282.709,-146.104C296.965,-148.158 312.304,-150.368 326.96,-152.48"/>
<polygon fill="midnightblue" stroke="midnightblue" points="326.578,-155.961 336.975,-153.923 327.577,-149.032 326.578,-155.961"/>
</g>
<!-- Node14 -->
<g id="node7" class="node"><title>Node14</title>
<g id="a_node7"><a xlink:href="classinout_1_1_in_param_read_inst.html#a175c4744ce41558415b2dc3555701edd" target="_top" xlink:title="inout::InParamReadInst\l::getNumDimensionsInstances">
<polygon fill="white" stroke="black" points="321,-98.5 321,-128.5 474,-128.5 474,-98.5 321,-98.5"/>
<text text-anchor="start" x="329" y="-116.5" font-family="Helvetica,sans-Serif" font-size="10.00">inout::InParamReadInst</text>
<text text-anchor="middle" x="397.5" y="-105.5" font-family="Helvetica,sans-Serif" font-size="10.00">::getNumDimensionsInstances</text>
</a>
</g>
</g>
<!-- Node11&#45;&gt;Node14 -->
<g id="edge6" class="edge"><title>Node11&#45;&gt;Node14</title>
<path fill="none" stroke="midnightblue" d="M282.709,-129.241C291.707,-127.996 301.136,-126.692 310.553,-125.389"/>
<polygon fill="midnightblue" stroke="midnightblue" points="311.319,-128.816 320.745,-123.979 310.36,-121.882 311.319,-128.816"/>
</g>
<!-- Node15 -->
<g id="node8" class="node"><title>Node15</title>
<g id="a_node8"><a xlink:href="classinout_1_1_in_param_read_inst.html#ab91dbd838ea608bd3bf963bb97398747" target="_top" xlink:title="inout::InParamReadInst\l::getCurrentFileInstanceTest">
<polygon fill="white" stroke="black" points="325.5,-49.5 325.5,-79.5 469.5,-79.5 469.5,-49.5 325.5,-49.5"/>
<text text-anchor="start" x="333.5" y="-67.5" font-family="Helvetica,sans-Serif" font-size="10.00">inout::InParamReadInst</text>
<text text-anchor="middle" x="397.5" y="-56.5" font-family="Helvetica,sans-Serif" font-size="10.00">::getCurrentFileInstanceTest</text>
</a>
</g>
</g>
<!-- Node11&#45;&gt;Node15 -->
<g id="edge7" class="edge"><title>Node11&#45;&gt;Node15</title>
<path fill="none" stroke="midnightblue" d="M251.264,-122.386C270.594,-112.367 296.971,-99.3102 321,-89.5 326.487,-87.26 332.256,-85.0683 338.059,-82.9717"/>
<polygon fill="midnightblue" stroke="midnightblue" points="339.54,-86.161 347.812,-79.5414 337.218,-79.5575 339.54,-86.161"/>
</g>
<!-- Node16 -->
<g id="node9" class="node"><title>Node16</title>
<g id="a_node9"><a xlink:href="classinout_1_1_in_param_read_inst.html#a6539b0e38e129a23eae4cb506e4c08f1" target="_top" xlink:title="inout::InParamReadInst\l::getNumInstancesTest">
<polygon fill="white" stroke="black" points="337,-0.5 337,-30.5 458,-30.5 458,-0.5 337,-0.5"/>
<text text-anchor="start" x="345" y="-18.5" font-family="Helvetica,sans-Serif" font-size="10.00">inout::InParamReadInst</text>
<text text-anchor="middle" x="397.5" y="-7.5" font-family="Helvetica,sans-Serif" font-size="10.00">::getNumInstancesTest</text>
</a>
</g>
</g>
<!-- Node11&#45;&gt;Node16 -->
<g id="edge8" class="edge"><title>Node11&#45;&gt;Node16</title>
<path fill="none" stroke="midnightblue" d="M234.632,-122.176C251.484,-100.968 284.673,-62.7729 321,-40.5 324.412,-38.4081 328.019,-36.4695 331.733,-34.6762"/>
<polygon fill="midnightblue" stroke="midnightblue" points="333.41,-37.7617 341.137,-30.5133 330.576,-31.3608 333.41,-37.7617"/>
</g>
</g>
</svg>
