<?xml version="1.0" encoding="UTF-8" standalone="no"?>
<!DOCTYPE svg PUBLIC "-//W3C//DTD SVG 1.1//EN"
 "http://www.w3.org/Graphics/SVG/1.1/DTD/svg11.dtd">
<!-- Generated by graphviz version 2.38.0 (20140413.2041)
 -->
<!-- Title: data::InstanceClassFreq&lt; T_FEATURE, T_INSTANCE_FREQUENCY, T_INSTANCES_CLUSTER_K, T_CLUSTERIDX &gt; Pages: 1 -->
<!--zoomable 1589 -->
<svg id="main" version="1.1" xmlns="http://www.w3.org/2000/svg" xmlns:xlink="http://www.w3.org/1999/xlink" xml:space="preserve" onload="init(evt)">
<style type="text/css"><![CDATA[
.edge:hover path { stroke: red; }
.edge:hover polygon { stroke: red; fill: red; }
]]></style>
<script type="text/javascript"><![CDATA[
var edges = document.getElementsByTagName('g');
if (edges && edges.length) {
  for (var i=0;i<edges.length;i++) {
    if (edges[i].id.substr(0,4)=='edge') {
      edges[i].setAttribute('class','edge');
    }
  }
}
]]></script>
        <defs>
                <circle id="rim" cx="0" cy="0" r="7"/>
                <circle id="rim2" cx="0" cy="0" r="3.5"/>
                <g id="zoomPlus">
                        <use xlink:href="#rim" fill="#404040">
                                <set attributeName="fill" to="#808080" begin="zoomplus.mouseover" end="zoomplus.mouseout"/>
                        </use>
                        <path d="M-4,0h8M0,-4v8" fill="none" stroke="white" stroke-width="1.5" pointer-events="none"/>
                </g>
                <g id="zoomMin">
                        <use xlink:href="#rim" fill="#404040">
                                <set attributeName="fill" to="#808080" begin="zoomminus.mouseover" end="zoomminus.mouseout"/>
                        </use>
                        <path d="M-4,0h8" fill="none" stroke="white" stroke-width="1.5" pointer-events="none"/>
                </g>
                <g id="dirArrow">
                        <path fill="none" stroke="white" stroke-width="1.5" d="M0,-3.0v7 M-2.5,-0.5L0,-3.0L2.5,-0.5"/>
                </g>
               <g id="resetDef">
                       <use xlink:href="#rim2" fill="#404040">
                               <set attributeName="fill" to="#808080" begin="reset.mouseover" end="reset.mouseout"/>
                       </use>
               </g>
        </defs>

<script type="text/javascript">
var viewWidth = 756;
var viewHeight = 1589;
var sectionId = 'dynsection-1';
</script>
<script xlink:href="svgpan.js"/>
<svg id="graph" class="graph">
<g id="viewport">
<title>data::InstanceClassFreq&lt; T_FEATURE, T_INSTANCE_FREQUENCY, T_INSTANCES_CLUSTER_K, T_CLUSTERIDX &gt;</title>
<polygon fill="white" stroke="none" points="-4,4 -4,-1585 751.5,-1585 751.5,4 -4,4"/>
<!-- Node4 -->
<g id="node1" class="node"><title>Node4</title>
<g id="a_node1"><a xlink:title="Patterns, usually vectors in a multidimensional space, which is classified and with a number of occur...">
<polygon fill="#bfbfbf" stroke="black" points="99,-0.5 99,-167.5 270,-167.5 270,-0.5 99,-0.5"/>
<text text-anchor="start" x="107" y="-155.5" font-family="Helvetica,sans-Serif" font-size="10.00">data::InstanceClassFreq</text>
<text text-anchor="start" x="107" y="-144.5" font-family="Helvetica,sans-Serif" font-size="10.00">&lt; T_FEATURE, T_INSTANCE</text>
<text text-anchor="start" x="107" y="-133.5" font-family="Helvetica,sans-Serif" font-size="10.00">_FREQUENCY, T_INSTANCES</text>
<text text-anchor="middle" x="184.5" y="-122.5" font-family="Helvetica,sans-Serif" font-size="10.00">_CLUSTER_K, T_CLUSTERIDX &gt;</text>
<polyline fill="none" stroke="black" points="99,-115.5 270,-115.5 "/>
<text text-anchor="middle" x="184.5" y="-103.5" font-family="Helvetica,sans-Serif" font-size="10.00"> </text>
<polyline fill="none" stroke="black" points="99,-96.5 270,-96.5 "/>
<text text-anchor="start" x="107" y="-84.5" font-family="Helvetica,sans-Serif" font-size="10.00">+ InstanceClassFreq()</text>
<text text-anchor="start" x="107" y="-73.5" font-family="Helvetica,sans-Serif" font-size="10.00">+ InstanceClassFreq()</text>
<text text-anchor="start" x="107" y="-62.5" font-family="Helvetica,sans-Serif" font-size="10.00">+ InstanceClassFreq()</text>
<text text-anchor="start" x="107" y="-51.5" font-family="Helvetica,sans-Serif" font-size="10.00">+ ~InstanceClassFreq()</text>
<text text-anchor="start" x="107" y="-40.5" font-family="Helvetica,sans-Serif" font-size="10.00">+ operator=()</text>
<text text-anchor="start" x="107" y="-29.5" font-family="Helvetica,sans-Serif" font-size="10.00">+ operator=()</text>
<text text-anchor="start" x="107" y="-18.5" font-family="Helvetica,sans-Serif" font-size="10.00">+ print()</text>
<text text-anchor="start" x="107" y="-7.5" font-family="Helvetica,sans-Serif" font-size="10.00">+ getToString()</text>
</a>
</g>
</g>
<!-- Node5 -->
<g id="node2" class="node"><title>Node5</title>
<g id="a_node2"><a xlink:href="classdata_1_1_instance_freq.html" target="_top" xlink:title="Patterns, usually vectors in a multidimensional space, with an attribute to store occurrences of inst...">
<polygon fill="white" stroke="black" points="2,-222 2,-411 155,-411 155,-222 2,-222"/>
<text text-anchor="start" x="10" y="-399" font-family="Helvetica,sans-Serif" font-size="10.00">data::InstanceFreq</text>
<text text-anchor="start" x="10" y="-388" font-family="Helvetica,sans-Serif" font-size="10.00">&lt; T_FEATURE, T_INSTANCE</text>
<text text-anchor="middle" x="78.5" y="-377" font-family="Helvetica,sans-Serif" font-size="10.00">_FREQUENCY &gt;</text>
<polyline fill="none" stroke="black" points="2,-370 155,-370 "/>
<text text-anchor="start" x="10" y="-358" font-family="Helvetica,sans-Serif" font-size="10.00"># _t_frequency</text>
<polyline fill="none" stroke="black" points="2,-351 155,-351 "/>
<text text-anchor="start" x="10" y="-339" font-family="Helvetica,sans-Serif" font-size="10.00">+ InstanceFreq()</text>
<text text-anchor="start" x="10" y="-328" font-family="Helvetica,sans-Serif" font-size="10.00">+ InstanceFreq()</text>
<text text-anchor="start" x="10" y="-317" font-family="Helvetica,sans-Serif" font-size="10.00">+ InstanceFreq()</text>
<text text-anchor="start" x="10" y="-306" font-family="Helvetica,sans-Serif" font-size="10.00">+ InstanceFreq()</text>
<text text-anchor="start" x="10" y="-295" font-family="Helvetica,sans-Serif" font-size="10.00">+ ~InstanceFreq()</text>
<text text-anchor="start" x="10" y="-284" font-family="Helvetica,sans-Serif" font-size="10.00">+ operator=()</text>
<text text-anchor="start" x="10" y="-273" font-family="Helvetica,sans-Serif" font-size="10.00">+ operator=()</text>
<text text-anchor="start" x="10" y="-262" font-family="Helvetica,sans-Serif" font-size="10.00">+ setFrequency()</text>
<text text-anchor="start" x="10" y="-251" font-family="Helvetica,sans-Serif" font-size="10.00">+ getFrequency()</text>
<text text-anchor="start" x="10" y="-240" font-family="Helvetica,sans-Serif" font-size="10.00">+ print()</text>
<text text-anchor="start" x="10" y="-229" font-family="Helvetica,sans-Serif" font-size="10.00">+ getToString()</text>
</a>
</g>
</g>
<!-- Node5&#45;&gt;Node4 -->
<g id="edge1" class="edge"><title>Node5&#45;&gt;Node4</title>
<path fill="none" stroke="midnightblue" d="M125.895,-212.438C132.804,-197.414 139.842,-182.111 146.531,-167.565"/>
<polygon fill="none" stroke="midnightblue" points="122.613,-211.199 121.614,-221.747 128.972,-214.124 122.613,-211.199"/>
</g>
<!-- Node6 -->
<g id="node3" class="node"><title>Node6</title>
<g id="a_node3"><a xlink:href="classdata_1_1_instance.html" target="_top" xlink:title="Patterns, usually vectors in a multidimensional space.">
<polygon fill="white" stroke="black" points="0,-475.5 0,-796.5 157,-796.5 157,-475.5 0,-475.5"/>
<text text-anchor="middle" x="78.5" y="-784.5" font-family="Helvetica,sans-Serif" font-size="10.00">data::Instance&lt; T_FEATURE &gt;</text>
<polyline fill="none" stroke="black" points="0,-777.5 157,-777.5 "/>
<text text-anchor="start" x="8" y="-765.5" font-family="Helvetica,sans-Serif" font-size="10.00"># _ptc_id</text>
<text text-anchor="start" x="8" y="-754.5" font-family="Helvetica,sans-Serif" font-size="10.00"># _arrayt_feature</text>
<text text-anchor="start" x="8" y="-743.5" font-family="Helvetica,sans-Serif" font-size="10.00"># _stcuintidx_numDimensions</text>
<text text-anchor="start" x="8" y="-732.5" font-family="Helvetica,sans-Serif" font-size="10.00"># _stcb_homogeneousCoord</text>
<polyline fill="none" stroke="black" points="0,-725.5 157,-725.5 "/>
<text text-anchor="start" x="8" y="-713.5" font-family="Helvetica,sans-Serif" font-size="10.00">+ Instance()</text>
<text text-anchor="start" x="8" y="-702.5" font-family="Helvetica,sans-Serif" font-size="10.00">+ Instance()</text>
<text text-anchor="start" x="8" y="-691.5" font-family="Helvetica,sans-Serif" font-size="10.00">+ Instance()</text>
<text text-anchor="start" x="8" y="-680.5" font-family="Helvetica,sans-Serif" font-size="10.00">+ Instance()</text>
<text text-anchor="start" x="8" y="-669.5" font-family="Helvetica,sans-Serif" font-size="10.00">+ ~Instance()</text>
<text text-anchor="start" x="8" y="-658.5" font-family="Helvetica,sans-Serif" font-size="10.00">+ operator=()</text>
<text text-anchor="start" x="8" y="-647.5" font-family="Helvetica,sans-Serif" font-size="10.00">+ operator=()</text>
<text text-anchor="start" x="8" y="-636.5" font-family="Helvetica,sans-Serif" font-size="10.00">+ getFeatures()</text>
<text text-anchor="start" x="8" y="-625.5" font-family="Helvetica,sans-Serif" font-size="10.00">+ getFeatures()</text>
<text text-anchor="start" x="8" y="-614.5" font-family="Helvetica,sans-Serif" font-size="10.00">+ getAttribute()</text>
<text text-anchor="start" x="8" y="-603.5" font-family="Helvetica,sans-Serif" font-size="10.00">+ readFeature()</text>
<text text-anchor="start" x="8" y="-592.5" font-family="Helvetica,sans-Serif" font-size="10.00">+ setId()</text>
<text text-anchor="start" x="8" y="-581.5" font-family="Helvetica,sans-Serif" font-size="10.00">+ getId()</text>
<text text-anchor="start" x="8" y="-570.5" font-family="Helvetica,sans-Serif" font-size="10.00">+ getToString()</text>
<text text-anchor="start" x="8" y="-559.5" font-family="Helvetica,sans-Serif" font-size="10.00">+ print()</text>
<text text-anchor="start" x="8" y="-548.5" font-family="Helvetica,sans-Serif" font-size="10.00">+ setNumDimensions()</text>
<text text-anchor="start" x="8" y="-537.5" font-family="Helvetica,sans-Serif" font-size="10.00">+ getNumDimensions()</text>
<text text-anchor="start" x="8" y="-526.5" font-family="Helvetica,sans-Serif" font-size="10.00">+ setHomogeneousCoord()</text>
<text text-anchor="start" x="8" y="-515.5" font-family="Helvetica,sans-Serif" font-size="10.00">+ getHomogeneousCoord()</text>
<text text-anchor="start" x="8" y="-504.5" font-family="Helvetica,sans-Serif" font-size="10.00">+ type()</text>
<text text-anchor="start" x="8" y="-493.5" font-family="Helvetica,sans-Serif" font-size="10.00">+ getInfiniteFeature()</text>
<text text-anchor="start" x="8" y="-482.5" font-family="Helvetica,sans-Serif" font-size="10.00">+ isInfiniteFeature()</text>
</a>
</g>
</g>
<!-- Node6&#45;&gt;Node5 -->
<g id="edge2" class="edge"><title>Node6&#45;&gt;Node5</title>
<path fill="none" stroke="midnightblue" d="M78.5,-465.306C78.5,-446.757 78.5,-428.409 78.5,-411.281"/>
<polygon fill="none" stroke="midnightblue" points="75.0001,-465.32 78.5,-475.32 82.0001,-465.32 75.0001,-465.32"/>
</g>
<!-- Node7 -->
<g id="node4" class="node"><title>Node7</title>
<g id="a_node4"><a xlink:href="classdata_1_1_instance_iterfaz_class.html" target="_top" xlink:title="Instance with class.">
<polygon fill="white" stroke="black" points="173.5,-205.5 173.5,-427.5 335.5,-427.5 335.5,-205.5 173.5,-205.5"/>
<text text-anchor="start" x="181.5" y="-415.5" font-family="Helvetica,sans-Serif" font-size="10.00">data::InstanceIterfazClass</text>
<text text-anchor="start" x="181.5" y="-404.5" font-family="Helvetica,sans-Serif" font-size="10.00">&lt; T_INSTANCES_CLUSTER_K,</text>
<text text-anchor="middle" x="254.5" y="-393.5" font-family="Helvetica,sans-Serif" font-size="10.00"> T_CLUSTERIDX &gt;</text>
<polyline fill="none" stroke="black" points="173.5,-386.5 335.5,-386.5 "/>
<text text-anchor="start" x="181.5" y="-374.5" font-family="Helvetica,sans-Serif" font-size="10.00"># _cidx_classIdx</text>
<text text-anchor="start" x="181.5" y="-363.5" font-family="Helvetica,sans-Serif" font-size="10.00"># _idxmcT_consecutiveClass</text>
<polyline fill="none" stroke="black" points="173.5,-356.5 335.5,-356.5 "/>
<text text-anchor="start" x="181.5" y="-344.5" font-family="Helvetica,sans-Serif" font-size="10.00">+ InstanceIterfazClass()</text>
<text text-anchor="start" x="181.5" y="-333.5" font-family="Helvetica,sans-Serif" font-size="10.00">+ InstanceIterfazClass()</text>
<text text-anchor="start" x="181.5" y="-322.5" font-family="Helvetica,sans-Serif" font-size="10.00">+ InstanceIterfazClass()</text>
<text text-anchor="start" x="181.5" y="-311.5" font-family="Helvetica,sans-Serif" font-size="10.00">+ ~InstanceIterfazClass()</text>
<text text-anchor="start" x="181.5" y="-300.5" font-family="Helvetica,sans-Serif" font-size="10.00">+ operator=()</text>
<text text-anchor="start" x="181.5" y="-289.5" font-family="Helvetica,sans-Serif" font-size="10.00">+ operator=()</text>
<text text-anchor="start" x="181.5" y="-278.5" font-family="Helvetica,sans-Serif" font-size="10.00">+ setClassIdx()</text>
<text text-anchor="start" x="181.5" y="-267.5" font-family="Helvetica,sans-Serif" font-size="10.00">+ getClassIdx()</text>
<text text-anchor="start" x="181.5" y="-256.5" font-family="Helvetica,sans-Serif" font-size="10.00">+ print()</text>
<text text-anchor="start" x="181.5" y="-245.5" font-family="Helvetica,sans-Serif" font-size="10.00">+ initialize()</text>
<text text-anchor="start" x="181.5" y="-234.5" font-family="Helvetica,sans-Serif" font-size="10.00">+ setVectorClassLabel()</text>
<text text-anchor="start" x="181.5" y="-223.5" font-family="Helvetica,sans-Serif" font-size="10.00">+ getVectorClassLabel()</text>
<text text-anchor="start" x="181.5" y="-212.5" font-family="Helvetica,sans-Serif" font-size="10.00">+ getLabelClass()</text>
</a>
</g>
</g>
<!-- Node7&#45;&gt;Node4 -->
<g id="edge3" class="edge"><title>Node7&#45;&gt;Node4</title>
<path fill="none" stroke="midnightblue" d="M218.073,-195.549C215.229,-186.185 212.397,-176.861 209.654,-167.827"/>
<polygon fill="none" stroke="midnightblue" points="214.783,-196.762 221.038,-205.313 221.481,-194.728 214.783,-196.762"/>
</g>
<!-- Node8 -->
<g id="node5" class="node"><title>Node8</title>
<g id="a_node5"><a xlink:title="STL class.">
<polygon fill="white" stroke="#bfbfbf" points="183.5,-949 183.5,-1006 277.5,-1006 277.5,-949 183.5,-949"/>
<text text-anchor="middle" x="230.5" y="-994" font-family="Helvetica,sans-Serif" font-size="10.00">std::map&lt; K, T &gt;</text>
<polyline fill="none" stroke="#bfbfbf" points="183.5,-987 277.5,-987 "/>
<text text-anchor="middle" x="230.5" y="-975" font-family="Helvetica,sans-Serif" font-size="10.00"> </text>
<polyline fill="none" stroke="#bfbfbf" points="183.5,-968 277.5,-968 "/>
<text text-anchor="middle" x="230.5" y="-956" font-family="Helvetica,sans-Serif" font-size="10.00"> </text>
</a>
</g>
</g>
<!-- Node8&#45;&gt;Node7 -->
<g id="edge4" class="edge"><title>Node8&#45;&gt;Node7</title>
<path fill="none" stroke="#404040" d="M230.249,-948.745C229.724,-872.834 229.306,-655.403 239.5,-475 240.151,-463.482 240.992,-451.504 241.943,-439.527"/>
<polygon fill="none" stroke="#404040" points="241.943,-439.527 238.449,-433.219 242.928,-427.567 246.422,-433.876 241.943,-439.527"/>
<text text-anchor="middle" x="294.5" y="-633.5" font-family="Helvetica,sans-Serif" font-size="10.00"> #_stmap_instanceClass</text>
</g>
<!-- Node9 -->
<g id="node6" class="node"><title>Node9</title>
<g id="a_node6"><a xlink:title=" ">
<polygon fill="white" stroke="#bfbfbf" points="207,-1230 207,-1287 236,-1287 236,-1230 207,-1230"/>
<text text-anchor="middle" x="221.5" y="-1275" font-family="Helvetica,sans-Serif" font-size="10.00">K</text>
<polyline fill="none" stroke="#bfbfbf" points="207,-1268 236,-1268 "/>
<text text-anchor="middle" x="221.5" y="-1256" font-family="Helvetica,sans-Serif" font-size="10.00"> </text>
<polyline fill="none" stroke="#bfbfbf" points="207,-1249 236,-1249 "/>
<text text-anchor="middle" x="221.5" y="-1237" font-family="Helvetica,sans-Serif" font-size="10.00"> </text>
</a>
</g>
</g>
<!-- Node9&#45;&gt;Node8 -->
<g id="edge5" class="edge"><title>Node9&#45;&gt;Node8</title>
<path fill="none" stroke="#404040" d="M221.223,-1229.75C221.03,-1199.55 221.026,-1149.83 222.5,-1107 223.526,-1077.19 225.657,-1043.54 227.461,-1018.15"/>
<polygon fill="none" stroke="#404040" points="227.47,-1018.02 223.916,-1011.75 228.341,-1006.05 231.895,-1012.33 227.47,-1018.02"/>
<text text-anchor="middle" x="238" y="-1115.5" font-family="Helvetica,sans-Serif" font-size="10.00"> +keys</text>
</g>
<!-- Node10 -->
<g id="node7" class="node"><title>Node10</title>
<g id="a_node7"><a xlink:title=" ">
<polygon fill="white" stroke="#bfbfbf" points="298,-1230 298,-1287 327,-1287 327,-1230 298,-1230"/>
<text text-anchor="middle" x="312.5" y="-1275" font-family="Helvetica,sans-Serif" font-size="10.00">T</text>
<polyline fill="none" stroke="#bfbfbf" points="298,-1268 327,-1268 "/>
<text text-anchor="middle" x="312.5" y="-1256" font-family="Helvetica,sans-Serif" font-size="10.00"> </text>
<polyline fill="none" stroke="#bfbfbf" points="298,-1249 327,-1249 "/>
<text text-anchor="middle" x="312.5" y="-1237" font-family="Helvetica,sans-Serif" font-size="10.00"> </text>
</a>
</g>
</g>
<!-- Node10&#45;&gt;Node8 -->
<g id="edge6" class="edge"><title>Node10&#45;&gt;Node8</title>
<path fill="none" stroke="#404040" d="M304.413,-1229.98C289.808,-1180.29 258.983,-1075.41 242.122,-1018.04"/>
<polygon fill="none" stroke="#404040" points="242.031,-1017.73 236.502,-1013.11 238.648,-1006.22 244.177,-1010.85 242.031,-1017.73"/>
<text text-anchor="middle" x="300" y="-1115.5" font-family="Helvetica,sans-Serif" font-size="10.00"> +elements</text>
</g>
<!-- Node16 -->
<g id="node13" class="node"><title>Node16</title>
<g id="a_node13"><a xlink:title="STL class.">
<polygon fill="white" stroke="#bfbfbf" points="305,-949 305,-1006 394,-1006 394,-949 305,-949"/>
<text text-anchor="middle" x="349.5" y="-994" font-family="Helvetica,sans-Serif" font-size="10.00">std::vector&lt; T &gt;</text>
<polyline fill="none" stroke="#bfbfbf" points="305,-987 394,-987 "/>
<text text-anchor="middle" x="349.5" y="-975" font-family="Helvetica,sans-Serif" font-size="10.00"> </text>
<polyline fill="none" stroke="#bfbfbf" points="305,-968 394,-968 "/>
<text text-anchor="middle" x="349.5" y="-956" font-family="Helvetica,sans-Serif" font-size="10.00"> </text>
</a>
</g>
</g>
<!-- Node10&#45;&gt;Node16 -->
<g id="edge14" class="edge"><title>Node10&#45;&gt;Node16</title>
<path fill="none" stroke="#404040" d="M316.149,-1229.98C322.725,-1180.39 336.589,-1075.85 344.208,-1018.4"/>
<polygon fill="none" stroke="#404040" points="344.246,-1018.12 341.07,-1011.64 345.824,-1006.22 349,-1012.7 344.246,-1018.12"/>
<text text-anchor="middle" x="358" y="-1115.5" font-family="Helvetica,sans-Serif" font-size="10.00"> +elements</text>
</g>
<!-- Node11 -->
<g id="node8" class="node"><title>Node11</title>
<g id="a_node8"><a xlink:title=" ">
<polygon fill="white" stroke="#bfbfbf" points="358.5,-596.5 358.5,-675.5 536.5,-675.5 536.5,-596.5 358.5,-596.5"/>
<text text-anchor="start" x="366.5" y="-663.5" font-family="Helvetica,sans-Serif" font-size="10.00">std::vector&lt; data::</text>
<text text-anchor="start" x="366.5" y="-652.5" font-family="Helvetica,sans-Serif" font-size="10.00">CountLabel&lt; T_CLUSTERIDX,</text>
<text text-anchor="middle" x="447.5" y="-641.5" font-family="Helvetica,sans-Serif" font-size="10.00"> T_INSTANCES_CLUSTER_K &gt; * &gt;</text>
<polyline fill="none" stroke="#bfbfbf" points="358.5,-634.5 536.5,-634.5 "/>
<text text-anchor="middle" x="447.5" y="-622.5" font-family="Helvetica,sans-Serif" font-size="10.00"> </text>
<polyline fill="none" stroke="#bfbfbf" points="358.5,-615.5 536.5,-615.5 "/>
<text text-anchor="middle" x="447.5" y="-603.5" font-family="Helvetica,sans-Serif" font-size="10.00"> </text>
</a>
</g>
</g>
<!-- Node11&#45;&gt;Node7 -->
<g id="edge7" class="edge"><title>Node11&#45;&gt;Node7</title>
<path fill="none" stroke="#404040" d="M424.027,-596.386C400.148,-557.102 361.901,-494.182 327.774,-438.041"/>
<polygon fill="none" stroke="#404040" points="327.687,-437.898 321.152,-434.849 321.454,-427.644 327.988,-430.693 327.687,-437.898"/>
<text text-anchor="middle" x="389" y="-449" font-family="Helvetica,sans-Serif" font-size="10.00"> #_stcvector_classLabel</text>
</g>
<!-- Node12 -->
<g id="node9" class="node"><title>Node12</title>
<g id="a_node9"><a xlink:href="classdata_1_1_count_label.html" target="_top" xlink:title=" ">
<polygon fill="white" stroke="black" points="453,-866.5 453,-1088.5 614,-1088.5 614,-866.5 453,-866.5"/>
<text text-anchor="start" x="461" y="-1076.5" font-family="Helvetica,sans-Serif" font-size="10.00">data::CountLabel&lt; T</text>
<text text-anchor="start" x="461" y="-1065.5" font-family="Helvetica,sans-Serif" font-size="10.00">_CLUSTERIDX, T_INSTANCES</text>
<text text-anchor="middle" x="533.5" y="-1054.5" font-family="Helvetica,sans-Serif" font-size="10.00">_CLUSTER_K &gt;</text>
<polyline fill="none" stroke="black" points="453,-1047.5 614,-1047.5 "/>
<text text-anchor="start" x="461" y="-1035.5" font-family="Helvetica,sans-Serif" font-size="10.00"># _idx_label</text>
<text text-anchor="start" x="461" y="-1024.5" font-family="Helvetica,sans-Serif" font-size="10.00"># _t_coutlabel</text>
<polyline fill="none" stroke="black" points="453,-1017.5 614,-1017.5 "/>
<text text-anchor="start" x="461" y="-1005.5" font-family="Helvetica,sans-Serif" font-size="10.00">+ CountLabel()</text>
<text text-anchor="start" x="461" y="-994.5" font-family="Helvetica,sans-Serif" font-size="10.00">+ CountLabel()</text>
<text text-anchor="start" x="461" y="-983.5" font-family="Helvetica,sans-Serif" font-size="10.00">+ CountLabel()</text>
<text text-anchor="start" x="461" y="-972.5" font-family="Helvetica,sans-Serif" font-size="10.00">+ CountLabel()</text>
<text text-anchor="start" x="461" y="-961.5" font-family="Helvetica,sans-Serif" font-size="10.00">+ ~CountLabel()</text>
<text text-anchor="start" x="461" y="-950.5" font-family="Helvetica,sans-Serif" font-size="10.00">+ operator=()</text>
<text text-anchor="start" x="461" y="-939.5" font-family="Helvetica,sans-Serif" font-size="10.00">+ operator=()</text>
<text text-anchor="start" x="461" y="-928.5" font-family="Helvetica,sans-Serif" font-size="10.00">+ getLabel()</text>
<text text-anchor="start" x="461" y="-917.5" font-family="Helvetica,sans-Serif" font-size="10.00">+ getIdxLabel()</text>
<text text-anchor="start" x="461" y="-906.5" font-family="Helvetica,sans-Serif" font-size="10.00">+ getNumLabel()</text>
<text text-anchor="start" x="461" y="-895.5" font-family="Helvetica,sans-Serif" font-size="10.00">+ increasesCountLabel()</text>
<text text-anchor="start" x="461" y="-884.5" font-family="Helvetica,sans-Serif" font-size="10.00">+ operator&lt;()</text>
<text text-anchor="start" x="461" y="-873.5" font-family="Helvetica,sans-Serif" font-size="10.00">+ print()</text>
</a>
</g>
</g>
<!-- Node12&#45;&gt;Node11 -->
<g id="edge8" class="edge"><title>Node12&#45;&gt;Node11</title>
<path fill="none" stroke="#404040" d="M521.664,-866.455C518.895,-849.123 515.54,-831.491 511.5,-815 500.652,-770.725 482.752,-722.131 468.637,-686.919"/>
<polygon fill="none" stroke="#404040" points="468.522,-686.636 462.56,-682.58 464.01,-675.516 469.973,-679.572 468.522,-686.636"/>
<text text-anchor="middle" x="543" y="-829" font-family="Helvetica,sans-Serif" font-size="10.00"> +elements</text>
</g>
<!-- Node13 -->
<g id="node10" class="node"><title>Node13</title>
<g id="a_node10"><a xlink:title="STL class.">
<polygon fill="white" stroke="#bfbfbf" points="481.5,-1417.5 481.5,-1474.5 541.5,-1474.5 541.5,-1417.5 481.5,-1417.5"/>
<text text-anchor="middle" x="511.5" y="-1462.5" font-family="Helvetica,sans-Serif" font-size="10.00">std::string</text>
<polyline fill="none" stroke="#bfbfbf" points="481.5,-1455.5 541.5,-1455.5 "/>
<text text-anchor="middle" x="511.5" y="-1443.5" font-family="Helvetica,sans-Serif" font-size="10.00"> </text>
<polyline fill="none" stroke="#bfbfbf" points="481.5,-1436.5 541.5,-1436.5 "/>
<text text-anchor="middle" x="511.5" y="-1424.5" font-family="Helvetica,sans-Serif" font-size="10.00"> </text>
</a>
</g>
</g>
<!-- Node13&#45;&gt;Node12 -->
<g id="edge9" class="edge"><title>Node13&#45;&gt;Node12</title>
<path fill="none" stroke="#404040" d="M508.29,-1417.26C506.814,-1403.14 505.23,-1385.68 504.5,-1370 499.89,-1271 496.064,-1245.75 504.5,-1147 505.776,-1132.06 507.677,-1116.46 509.907,-1101.04"/>
<polygon fill="none" stroke="#404040" points="509.974,-1100.6 506.911,-1094.07 511.76,-1088.73 514.822,-1095.26 509.974,-1100.6"/>
<text text-anchor="middle" x="530.5" y="-1256" font-family="Helvetica,sans-Serif" font-size="10.00"> #_str_label</text>
</g>
<!-- Node15 -->
<g id="node12" class="node"><title>Node15</title>
<g id="a_node12"><a xlink:href="classdata_1_1_count_label.html" target="_top" xlink:title="Stores the number of occurrences of a label for an attribute in a dataset.">
<polygon fill="white" stroke="black" points="565.5,-1147.5 565.5,-1369.5 693.5,-1369.5 693.5,-1147.5 565.5,-1147.5"/>
<text text-anchor="start" x="573.5" y="-1357.5" font-family="Helvetica,sans-Serif" font-size="10.00">data::CountLabel&lt; T</text>
<text text-anchor="start" x="573.5" y="-1346.5" font-family="Helvetica,sans-Serif" font-size="10.00">_IDX_LABEL, T_COUNT</text>
<text text-anchor="middle" x="629.5" y="-1335.5" font-family="Helvetica,sans-Serif" font-size="10.00">_LABEL &gt;</text>
<polyline fill="none" stroke="black" points="565.5,-1328.5 693.5,-1328.5 "/>
<text text-anchor="start" x="573.5" y="-1316.5" font-family="Helvetica,sans-Serif" font-size="10.00"># _idx_label</text>
<text text-anchor="start" x="573.5" y="-1305.5" font-family="Helvetica,sans-Serif" font-size="10.00"># _t_coutlabel</text>
<polyline fill="none" stroke="black" points="565.5,-1298.5 693.5,-1298.5 "/>
<text text-anchor="start" x="573.5" y="-1286.5" font-family="Helvetica,sans-Serif" font-size="10.00">+ CountLabel()</text>
<text text-anchor="start" x="573.5" y="-1275.5" font-family="Helvetica,sans-Serif" font-size="10.00">+ CountLabel()</text>
<text text-anchor="start" x="573.5" y="-1264.5" font-family="Helvetica,sans-Serif" font-size="10.00">+ CountLabel()</text>
<text text-anchor="start" x="573.5" y="-1253.5" font-family="Helvetica,sans-Serif" font-size="10.00">+ CountLabel()</text>
<text text-anchor="start" x="573.5" y="-1242.5" font-family="Helvetica,sans-Serif" font-size="10.00">+ ~CountLabel()</text>
<text text-anchor="start" x="573.5" y="-1231.5" font-family="Helvetica,sans-Serif" font-size="10.00">+ operator=()</text>
<text text-anchor="start" x="573.5" y="-1220.5" font-family="Helvetica,sans-Serif" font-size="10.00">+ operator=()</text>
<text text-anchor="start" x="573.5" y="-1209.5" font-family="Helvetica,sans-Serif" font-size="10.00">+ getLabel()</text>
<text text-anchor="start" x="573.5" y="-1198.5" font-family="Helvetica,sans-Serif" font-size="10.00">+ getIdxLabel()</text>
<text text-anchor="start" x="573.5" y="-1187.5" font-family="Helvetica,sans-Serif" font-size="10.00">+ getNumLabel()</text>
<text text-anchor="start" x="573.5" y="-1176.5" font-family="Helvetica,sans-Serif" font-size="10.00">+ increasesCountLabel()</text>
<text text-anchor="start" x="573.5" y="-1165.5" font-family="Helvetica,sans-Serif" font-size="10.00">+ operator&lt;()</text>
<text text-anchor="start" x="573.5" y="-1154.5" font-family="Helvetica,sans-Serif" font-size="10.00">+ print()</text>
</a>
</g>
</g>
<!-- Node13&#45;&gt;Node15 -->
<g id="edge12" class="edge"><title>Node13&#45;&gt;Node15</title>
<path fill="none" stroke="#404040" d="M529.166,-1417.23C537.443,-1404.22 547.9,-1387.78 558.919,-1370.46"/>
<polygon fill="none" stroke="#404040" points="559.018,-1370.3 558.864,-1363.09 565.459,-1360.17 565.614,-1367.38 559.018,-1370.3"/>
<text text-anchor="middle" x="571.5" y="-1391" font-family="Helvetica,sans-Serif" font-size="10.00"> #_str_label</text>
</g>
<!-- Node14 -->
<g id="node11" class="node"><title>Node14</title>
<g id="a_node11"><a xlink:title="STL class.">
<polygon fill="white" stroke="#bfbfbf" points="464,-1512.5 464,-1580.5 559,-1580.5 559,-1512.5 464,-1512.5"/>
<text text-anchor="start" x="472" y="-1568.5" font-family="Helvetica,sans-Serif" font-size="10.00">std::basic_string&lt;</text>
<text text-anchor="middle" x="511.5" y="-1557.5" font-family="Helvetica,sans-Serif" font-size="10.00"> char &gt;</text>
<polyline fill="none" stroke="#bfbfbf" points="464,-1550.5 559,-1550.5 "/>
<text text-anchor="middle" x="511.5" y="-1538.5" font-family="Helvetica,sans-Serif" font-size="10.00"> </text>
<polyline fill="none" stroke="#bfbfbf" points="464,-1531.5 559,-1531.5 "/>
<text text-anchor="middle" x="511.5" y="-1519.5" font-family="Helvetica,sans-Serif" font-size="10.00"> </text>
</a>
</g>
</g>
<!-- Node14&#45;&gt;Node13 -->
<g id="edge10" class="edge"><title>Node14&#45;&gt;Node13</title>
<path fill="none" stroke="midnightblue" d="M511.5,-1502.38C511.5,-1492.94 511.5,-1483.2 511.5,-1474.57"/>
<polygon fill="none" stroke="midnightblue" points="508,-1502.43 511.5,-1512.43 515,-1502.43 508,-1502.43"/>
</g>
<!-- Node15&#45;&gt;Node12 -->
<g id="edge11" class="edge"><title>Node15&#45;&gt;Node12</title>
<path fill="none" stroke="orange" d="M588.289,-1137.73C582.708,-1121.51 577.002,-1104.93 571.481,-1088.88"/>
<polygon fill="orange" stroke="orange" points="584.995,-1138.91 591.558,-1147.23 591.614,-1136.64 584.995,-1138.91"/>
<text text-anchor="start" x="583.5" y="-1121" font-family="Helvetica,sans-Serif" font-size="10.00"> &lt; T_CLUSTERIDX, T_INSTANCES</text>
<text text-anchor="middle" x="665.5" y="-1110" font-family="Helvetica,sans-Serif" font-size="10.00">_CLUSTER_K &gt;</text>
</g>
<!-- Node16&#45;&gt;Node11 -->
<g id="edge13" class="edge"><title>Node16&#45;&gt;Node11</title>
<path fill="none" stroke="orange" d="M343.035,-938.63C338.721,-905.45 335.619,-856.226 346.5,-815 360.237,-762.953 393.088,-710.169 417.618,-675.748"/>
<polygon fill="orange" stroke="orange" points="339.607,-939.391 344.462,-948.808 346.539,-938.419 339.607,-939.391"/>
<text text-anchor="start" x="346.5" y="-840" font-family="Helvetica,sans-Serif" font-size="10.00"> &lt; data::CountLabel</text>
<text text-anchor="start" x="346.5" y="-829" font-family="Helvetica,sans-Serif" font-size="10.00">&lt; T_CLUSTERIDX, T_INSTANCES</text>
<text text-anchor="middle" x="427" y="-818" font-family="Helvetica,sans-Serif" font-size="10.00">_CLUSTER_K &gt; * &gt;</text>
</g>
</g>
</svg>
        <g id="navigator" transform="translate(0 0)" fill="#404254">
                <rect fill="#f2f5e9" fill-opacity="0.5" stroke="#606060" stroke-width=".5" x="0" y="0" width="60" height="60"/>
                <use id="zoomplus" xlink:href="#zoomPlus" x="17" y="9" onmousedown="handleZoom(evt,'in')"/>
                <use id="zoomminus" xlink:href="#zoomMin" x="42" y="9" onmousedown="handleZoom(evt,'out')"/>
                <use id="reset" xlink:href="#resetDef" x="30" y="36" onmousedown="handleReset()"/>
                <g id="arrowUp" xlink:href="#dirArrow" transform="translate(30 24)" onmousedown="handlePan(0,-1)">
                  <use xlink:href="#rim" fill="#404040">
                        <set attributeName="fill" to="#808080" begin="arrowUp.mouseover" end="arrowUp.mouseout"/>
                  </use>
                  <path fill="none" stroke="white" stroke-width="1.5" d="M0,-3.0v7 M-2.5,-0.5L0,-3.0L2.5,-0.5"/>
                </g>
                <g id="arrowRight" xlink:href="#dirArrow" transform="rotate(90) translate(36 -43)" onmousedown="handlePan(1,0)">
                  <use xlink:href="#rim" fill="#404040">
                        <set attributeName="fill" to="#808080" begin="arrowRight.mouseover" end="arrowRight.mouseout"/>
                  </use>
                  <path fill="none" stroke="white" stroke-width="1.5" d="M0,-3.0v7 M-2.5,-0.5L0,-3.0L2.5,-0.5"/>
                </g>
                <g id="arrowDown" xlink:href="#dirArrow" transform="rotate(180) translate(-30 -48)" onmousedown="handlePan(0,1)">
                  <use xlink:href="#rim" fill="#404040">
                        <set attributeName="fill" to="#808080" begin="arrowDown.mouseover" end="arrowDown.mouseout"/>
                  </use>
                  <path fill="none" stroke="white" stroke-width="1.5" d="M0,-3.0v7 M-2.5,-0.5L0,-3.0L2.5,-0.5"/>
                </g>
                <g id="arrowLeft" xlink:href="#dirArrow" transform="rotate(270) translate(-36 17)" onmousedown="handlePan(-1,0)">
                  <use xlink:href="#rim" fill="#404040">
                        <set attributeName="fill" to="#808080" begin="arrowLeft.mouseover" end="arrowLeft.mouseout"/>
                  </use>
                  <path fill="none" stroke="white" stroke-width="1.5" d="M0,-3.0v7 M-2.5,-0.5L0,-3.0L2.5,-0.5"/>
                </g>
        </g>
        <svg viewBox="0 0 15 15" width="100%" height="30px" preserveAspectRatio="xMaxYMin meet">
         <g id="arrow_out" transform="scale(0.3 0.3)">
          <a xlink:href="classdata_1_1_instance_class_freq__coll__graph_org.svg" target="_base">
           <rect id="button" ry="5" rx="5" y="6" x="6" height="38" width="38"
                fill="#f2f5e9" fill-opacity="0.5" stroke="#606060" stroke-width="1.0"/>
           <path id="arrow"
             d="M 11.500037,31.436501 C 11.940474,20.09759 22.043105,11.32322 32.158766,21.979434 L 37.068811,17.246167 C 37.068811,17.246167 37.088388,32 37.088388,32 L 22.160133,31.978069 C 22.160133,31.978069 26.997745,27.140456 26.997745,27.140456 C 18.528582,18.264221 13.291696,25.230495 11.500037,31.436501 z"
             style="fill:#404040;"/>
          </a>
         </g>
        </svg>
</svg>
