<?xml version="1.0" encoding="UTF-8" standalone="no"?>
<!DOCTYPE svg PUBLIC "-//W3C//DTD SVG 1.1//EN"
 "http://www.w3.org/Graphics/SVG/1.1/DTD/svg11.dtd">
<!-- Generated by graphviz version 2.38.0 (20140413.2041)
 -->
<!-- Title: inout::InParamVk&lt; T_CLUSTERIDX &gt; Pages: 1 -->
<svg width="610pt" height="705pt"
 viewBox="0.00 0.00 610.00 705.00" xmlns="http://www.w3.org/2000/svg" xmlns:xlink="http://www.w3.org/1999/xlink">
<g id="graph0" class="graph" transform="scale(1 1) rotate(0) translate(4 701)">
<title>inout::InParamVk&lt; T_CLUSTERIDX &gt;</title>
<polygon fill="white" stroke="none" points="-4,4 -4,-701 606,-701 606,4 -4,4"/>
<!-- Node0 -->
<g id="node1" class="node"><title>Node0</title>
<polygon fill="#bfbfbf" stroke="black" points="229.5,-551.5 229.5,-696.5 385.5,-696.5 385.5,-551.5 229.5,-551.5"/>
<text text-anchor="start" x="237.5" y="-684.5" font-family="Helvetica,sans-Serif" font-size="10.00">inout::InParamVk&lt; T</text>
<text text-anchor="middle" x="307.5" y="-673.5" font-family="Helvetica,sans-Serif" font-size="10.00">_CLUSTERIDX &gt;</text>
<polyline fill="none" stroke="black" points="229.5,-666.5 385.5,-666.5 "/>
<text text-anchor="start" x="237.5" y="-654.5" font-family="Helvetica,sans-Serif" font-size="10.00"># _idxK_numClusterKMinimum</text>
<text text-anchor="start" x="237.5" y="-643.5" font-family="Helvetica,sans-Serif" font-size="10.00"># _idxK_numClusterKMaximum</text>
<polyline fill="none" stroke="black" points="229.5,-636.5 385.5,-636.5 "/>
<text text-anchor="start" x="237.5" y="-624.5" font-family="Helvetica,sans-Serif" font-size="10.00">+ InParamVk()</text>
<text text-anchor="start" x="237.5" y="-613.5" font-family="Helvetica,sans-Serif" font-size="10.00">+ ~InParamVk()</text>
<text text-anchor="start" x="237.5" y="-602.5" font-family="Helvetica,sans-Serif" font-size="10.00">+ setNumClusterKMinimum()</text>
<text text-anchor="start" x="237.5" y="-591.5" font-family="Helvetica,sans-Serif" font-size="10.00">+ getNumClusterKMinimum()</text>
<text text-anchor="start" x="237.5" y="-580.5" font-family="Helvetica,sans-Serif" font-size="10.00">+ setNumClusterKMaximum()</text>
<text text-anchor="start" x="237.5" y="-569.5" font-family="Helvetica,sans-Serif" font-size="10.00">+ getNumClusterKMaximum()</text>
<text text-anchor="start" x="237.5" y="-558.5" font-family="Helvetica,sans-Serif" font-size="10.00">+ print()</text>
</g>
<!-- Node1 -->
<g id="node2" class="node"><title>Node1</title>
<g id="a_node2"><a xlink:href="classinout_1_1_in_param_f_e_a_c.html" target="_top" xlink:title="Input parameter Fast Evolutionary Algorithm for Clustering F&#45;EAC . ">
<polygon fill="white" stroke="black" points="0,-287 0,-465 145,-465 145,-287 0,-287"/>
<text text-anchor="start" x="8" y="-453" font-family="Helvetica,sans-Serif" font-size="10.00">inout::InParamFEAC</text>
<text text-anchor="middle" x="72.5" y="-442" font-family="Helvetica,sans-Serif" font-size="10.00">&lt; T_CLUSTERIDX &gt;</text>
<polyline fill="none" stroke="black" points="0,-435 145,-435 "/>
<text text-anchor="start" x="8" y="-423" font-family="Helvetica,sans-Serif" font-size="10.00"># _it_kmeansNumMaxIter</text>
<text text-anchor="start" x="8" y="-412" font-family="Helvetica,sans-Serif" font-size="10.00"># _rT_kmeansMaxDiffCent</text>
<text text-anchor="start" x="8" y="-401" font-family="Helvetica,sans-Serif" font-size="10.00"># _rT_desiableObjetiveFunc</text>
<polyline fill="none" stroke="black" points="0,-394 145,-394 "/>
<text text-anchor="start" x="8" y="-382" font-family="Helvetica,sans-Serif" font-size="10.00">+ InParamFEAC()</text>
<text text-anchor="start" x="8" y="-371" font-family="Helvetica,sans-Serif" font-size="10.00">+ ~InParamFEAC()</text>
<text text-anchor="start" x="8" y="-360" font-family="Helvetica,sans-Serif" font-size="10.00">+ setKmeansNumMaxIter()</text>
<text text-anchor="start" x="8" y="-349" font-family="Helvetica,sans-Serif" font-size="10.00">+ getKmeansNumMaxIter()</text>
<text text-anchor="start" x="8" y="-338" font-family="Helvetica,sans-Serif" font-size="10.00">+ getKmeansMaxDiffCent()</text>
<text text-anchor="start" x="8" y="-327" font-family="Helvetica,sans-Serif" font-size="10.00">+ setKmeansMaxDiffCent()</text>
<text text-anchor="start" x="8" y="-316" font-family="Helvetica,sans-Serif" font-size="10.00">+ getDesiableObjetiveFunc()</text>
<text text-anchor="start" x="8" y="-305" font-family="Helvetica,sans-Serif" font-size="10.00">+ setDesiableObjetiveFunc()</text>
<text text-anchor="start" x="8" y="-294" font-family="Helvetica,sans-Serif" font-size="10.00">+ print()</text>
</a>
</g>
</g>
<!-- Node0&#45;&gt;Node1 -->
<g id="edge1" class="edge"><title>Node0&#45;&gt;Node1</title>
<path fill="none" stroke="midnightblue" d="M220.829,-571.256C197.676,-555.022 173.763,-535.839 154.5,-515 140.785,-500.163 128.261,-482.662 117.354,-465.195"/>
<polygon fill="none" stroke="midnightblue" points="219.094,-574.311 229.315,-577.101 223.065,-568.546 219.094,-574.311"/>
</g>
<!-- Node2 -->
<g id="node3" class="node"><title>Node2</title>
<g id="a_node3"><a xlink:href="classinout_1_1_in_param_g_g_a.html" target="_top" xlink:title="Input parameter for GGA algorithm . ">
<polygon fill="white" stroke="black" points="163,-237.5 163,-514.5 304,-514.5 304,-237.5 163,-237.5"/>
<text text-anchor="start" x="171" y="-502.5" font-family="Helvetica,sans-Serif" font-size="10.00">inout::InParamGGA&lt;</text>
<text text-anchor="middle" x="233.5" y="-491.5" font-family="Helvetica,sans-Serif" font-size="10.00"> T_CLUSTERIDX &gt;</text>
<polyline fill="none" stroke="black" points="163,-484.5 304,-484.5 "/>
<text text-anchor="start" x="171" y="-472.5" font-family="Helvetica,sans-Serif" font-size="10.00"># _ui_subPopulationSize</text>
<text text-anchor="start" x="171" y="-461.5" font-family="Helvetica,sans-Serif" font-size="10.00"># _ui_numIsland</text>
<text text-anchor="start" x="171" y="-450.5" font-family="Helvetica,sans-Serif" font-size="10.00"># _rt_pe</text>
<text text-anchor="start" x="171" y="-439.5" font-family="Helvetica,sans-Serif" font-size="10.00"># _it_numMaxGenerations</text>
<text text-anchor="start" x="171" y="-428.5" font-family="Helvetica,sans-Serif" font-size="10.00"># _rt_pci</text>
<text text-anchor="start" x="171" y="-417.5" font-family="Helvetica,sans-Serif" font-size="10.00"># _rt_pcf</text>
<text text-anchor="start" x="171" y="-406.5" font-family="Helvetica,sans-Serif" font-size="10.00"># _rt_pmi</text>
<text text-anchor="start" x="171" y="-395.5" font-family="Helvetica,sans-Serif" font-size="10.00"># _rt_pmf</text>
<text text-anchor="start" x="171" y="-384.5" font-family="Helvetica,sans-Serif" font-size="10.00"># _rt_pbi</text>
<text text-anchor="start" x="171" y="-373.5" font-family="Helvetica,sans-Serif" font-size="10.00"># _rt_pbf</text>
<polyline fill="none" stroke="black" points="163,-366.5 304,-366.5 "/>
<text text-anchor="start" x="171" y="-354.5" font-family="Helvetica,sans-Serif" font-size="10.00">+ InParamGGA()</text>
<text text-anchor="start" x="171" y="-343.5" font-family="Helvetica,sans-Serif" font-size="10.00">+ ~InParamGGA()</text>
<text text-anchor="start" x="171" y="-332.5" font-family="Helvetica,sans-Serif" font-size="10.00">+ setSubPopulationSize()</text>
<text text-anchor="start" x="171" y="-321.5" font-family="Helvetica,sans-Serif" font-size="10.00">+ getSubPopulationSize()</text>
<text text-anchor="start" x="171" y="-310.5" font-family="Helvetica,sans-Serif" font-size="10.00">+ setNumIsland()</text>
<text text-anchor="start" x="171" y="-299.5" font-family="Helvetica,sans-Serif" font-size="10.00">+ getNumIsland()</text>
<text text-anchor="start" x="171" y="-288.5" font-family="Helvetica,sans-Serif" font-size="10.00">+ setPe()</text>
<text text-anchor="start" x="171" y="-277.5" font-family="Helvetica,sans-Serif" font-size="10.00">+ getPe()</text>
<text text-anchor="start" x="171" y="-266.5" font-family="Helvetica,sans-Serif" font-size="10.00">+ setNumMaxGenerations()</text>
<text text-anchor="start" x="171" y="-255.5" font-family="Helvetica,sans-Serif" font-size="10.00">+ getNumMaxGenerations()</text>
<text text-anchor="start" x="171" y="-244.5" font-family="Helvetica,sans-Serif" font-size="10.00">and 13 more...</text>
</a>
</g>
</g>
<!-- Node0&#45;&gt;Node2 -->
<g id="edge2" class="edge"><title>Node0&#45;&gt;Node2</title>
<path fill="none" stroke="midnightblue" d="M282.981,-541.49C280.359,-532.775 277.643,-523.745 274.894,-514.606"/>
<polygon fill="none" stroke="midnightblue" points="279.665,-542.617 285.897,-551.185 286.368,-540.601 279.665,-542.617"/>
</g>
<!-- Node3 -->
<g id="node4" class="node"><title>Node3</title>
<g id="a_node4"><a xlink:href="classinout_1_1_in_param_pc_pm_vk.html" target="_top" xlink:title="Input parameter for GA with probability Pc, Pm and Variable K. ">
<polygon fill="white" stroke="black" points="322.5,-331 322.5,-421 442.5,-421 442.5,-331 322.5,-331"/>
<text text-anchor="start" x="330.5" y="-409" font-family="Helvetica,sans-Serif" font-size="10.00">inout::InParamPcPmVk</text>
<text text-anchor="middle" x="382.5" y="-398" font-family="Helvetica,sans-Serif" font-size="10.00">&lt; T_CLUSTERIDX &gt;</text>
<polyline fill="none" stroke="black" points="322.5,-391 442.5,-391 "/>
<text text-anchor="middle" x="382.5" y="-379" font-family="Helvetica,sans-Serif" font-size="10.00"> </text>
<polyline fill="none" stroke="black" points="322.5,-372 442.5,-372 "/>
<text text-anchor="start" x="330.5" y="-360" font-family="Helvetica,sans-Serif" font-size="10.00">+ InParamPcPmVk()</text>
<text text-anchor="start" x="330.5" y="-349" font-family="Helvetica,sans-Serif" font-size="10.00">+ ~InParamPcPmVk()</text>
<text text-anchor="start" x="330.5" y="-338" font-family="Helvetica,sans-Serif" font-size="10.00">+ print()</text>
</a>
</g>
</g>
<!-- Node0&#45;&gt;Node3 -->
<g id="edge3" class="edge"><title>Node0&#45;&gt;Node3</title>
<path fill="none" stroke="midnightblue" d="M332.377,-541.402C344.617,-501.256 358.888,-454.447 369.065,-421.067"/>
<polygon fill="none" stroke="midnightblue" points="328.963,-540.599 329.395,-551.185 335.659,-542.641 328.963,-540.599"/>
</g>
<!-- Node6 -->
<g id="node7" class="node"><title>Node6</title>
<g id="a_node7"><a xlink:href="classinout_1_1_in_param_without_pc_pm_vk.html" target="_top" xlink:title="Input parameter for GA without probability crossover (Pc) and mutation (Pm). ">
<polygon fill="white" stroke="black" points="461,-336.5 461,-415.5 602,-415.5 602,-336.5 461,-336.5"/>
<text text-anchor="start" x="469" y="-403.5" font-family="Helvetica,sans-Serif" font-size="10.00">inout::InParamWithoutPcPm</text>
<text text-anchor="middle" x="531.5" y="-392.5" font-family="Helvetica,sans-Serif" font-size="10.00">Vk&lt; T_CLUSTERIDX &gt;</text>
<polyline fill="none" stroke="black" points="461,-385.5 602,-385.5 "/>
<text text-anchor="middle" x="531.5" y="-373.5" font-family="Helvetica,sans-Serif" font-size="10.00"> </text>
<polyline fill="none" stroke="black" points="461,-366.5 602,-366.5 "/>
<text text-anchor="start" x="469" y="-354.5" font-family="Helvetica,sans-Serif" font-size="10.00">+ InParamWithoutPcPmVk()</text>
<text text-anchor="start" x="469" y="-343.5" font-family="Helvetica,sans-Serif" font-size="10.00">+ print()</text>
</a>
</g>
</g>
<!-- Node0&#45;&gt;Node6 -->
<g id="edge6" class="edge"><title>Node0&#45;&gt;Node6</title>
<path fill="none" stroke="midnightblue" d="M393.642,-567.249C413.989,-551.781 434.644,-533.975 451.5,-515 478.076,-485.083 500.139,-444.972 514.316,-415.706"/>
<polygon fill="none" stroke="midnightblue" points="391.482,-564.494 385.566,-573.283 395.672,-570.102 391.482,-564.494"/>
</g>
<!-- Node4 -->
<g id="node5" class="node"><title>Node4</title>
<g id="a_node5"><a xlink:href="classinout_1_1_in_param_gen_w_o_chg_vk.html" target="_top" xlink:title="Input parameter Document clustering into an unknown number of clusters using a genetic algorithm ...">
<polygon fill="white" stroke="black" points="195,-33.5 195,-167.5 368,-167.5 368,-33.5 195,-33.5"/>
<text text-anchor="start" x="203" y="-155.5" font-family="Helvetica,sans-Serif" font-size="10.00">inout::InParamGenWOChgVk</text>
<text text-anchor="start" x="203" y="-144.5" font-family="Helvetica,sans-Serif" font-size="10.00">&lt; T_CLUSTERIDX, T_REAL,</text>
<text text-anchor="start" x="203" y="-133.5" font-family="Helvetica,sans-Serif" font-size="10.00"> T_FEATURE, T_FEATURE_SUM,</text>
<text text-anchor="middle" x="281.5" y="-122.5" font-family="Helvetica,sans-Serif" font-size="10.00"> T_INSTANCES_CLUSTER_K &gt;</text>
<polyline fill="none" stroke="black" points="195,-115.5 368,-115.5 "/>
<text text-anchor="start" x="203" y="-103.5" font-family="Helvetica,sans-Serif" font-size="10.00"># _it_numNotChangeStop</text>
<polyline fill="none" stroke="black" points="195,-96.5 368,-96.5 "/>
<text text-anchor="start" x="203" y="-84.5" font-family="Helvetica,sans-Serif" font-size="10.00">+ InParamGenWOChgVk()</text>
<text text-anchor="start" x="203" y="-73.5" font-family="Helvetica,sans-Serif" font-size="10.00">+ ~InParamGenWOChgVk()</text>
<text text-anchor="start" x="203" y="-62.5" font-family="Helvetica,sans-Serif" font-size="10.00">+ setNumNotChangeStop()</text>
<text text-anchor="start" x="203" y="-51.5" font-family="Helvetica,sans-Serif" font-size="10.00">+ getNumNotChangeStop()</text>
<text text-anchor="start" x="203" y="-40.5" font-family="Helvetica,sans-Serif" font-size="10.00">+ print()</text>
</a>
</g>
</g>
<!-- Node3&#45;&gt;Node4 -->
<g id="edge4" class="edge"><title>Node3&#45;&gt;Node4</title>
<path fill="none" stroke="midnightblue" d="M362.594,-321.097C346.34,-277.083 323.3,-214.692 305.93,-167.655"/>
<polygon fill="none" stroke="midnightblue" points="359.413,-322.585 366.16,-330.754 365.979,-320.16 359.413,-322.585"/>
</g>
<!-- Node5 -->
<g id="node6" class="node"><title>Node5</title>
<g id="a_node6"><a xlink:href="classinout_1_1_in_param_t_g_c_a.html" target="_top" xlink:title="Input parameter for TGCA a two&#45;stage genetic algorithm . ">
<polygon fill="white" stroke="black" points="386.5,-0.5 386.5,-200.5 578.5,-200.5 578.5,-0.5 386.5,-0.5"/>
<text text-anchor="start" x="394.5" y="-188.5" font-family="Helvetica,sans-Serif" font-size="10.00">inout::InParamTGCA</text>
<text text-anchor="start" x="394.5" y="-177.5" font-family="Helvetica,sans-Serif" font-size="10.00">&lt; T_CLUSTERIDX, T_REAL,</text>
<text text-anchor="start" x="394.5" y="-166.5" font-family="Helvetica,sans-Serif" font-size="10.00"> T_FEATURE, T_FEATURE</text>
<text text-anchor="middle" x="482.5" y="-155.5" font-family="Helvetica,sans-Serif" font-size="10.00">_SUM, T_INSTANCES_CLUSTER_K &gt;</text>
<polyline fill="none" stroke="black" points="386.5,-148.5 578.5,-148.5 "/>
<text text-anchor="start" x="394.5" y="-136.5" font-family="Helvetica,sans-Serif" font-size="10.00"># _it_kmeansNumMaxIter</text>
<text text-anchor="start" x="394.5" y="-125.5" font-family="Helvetica,sans-Serif" font-size="10.00"># _ui_kmeansNumMinThreshold</text>
<text text-anchor="start" x="394.5" y="-114.5" font-family="Helvetica,sans-Serif" font-size="10.00"># _ui_numSubpopulationsCross</text>
<polyline fill="none" stroke="black" points="386.5,-107.5 578.5,-107.5 "/>
<text text-anchor="start" x="394.5" y="-95.5" font-family="Helvetica,sans-Serif" font-size="10.00">+ InParamTGCA()</text>
<text text-anchor="start" x="394.5" y="-84.5" font-family="Helvetica,sans-Serif" font-size="10.00">+ ~InParamTGCA()</text>
<text text-anchor="start" x="394.5" y="-73.5" font-family="Helvetica,sans-Serif" font-size="10.00">+ setKmeansNumMaxIter()</text>
<text text-anchor="start" x="394.5" y="-62.5" font-family="Helvetica,sans-Serif" font-size="10.00">+ getKmeansNumMaxIter()</text>
<text text-anchor="start" x="394.5" y="-51.5" font-family="Helvetica,sans-Serif" font-size="10.00">+ setKmeansMinThreshold()</text>
<text text-anchor="start" x="394.5" y="-40.5" font-family="Helvetica,sans-Serif" font-size="10.00">+ getKmeansMinThreshold()</text>
<text text-anchor="start" x="394.5" y="-29.5" font-family="Helvetica,sans-Serif" font-size="10.00">+ setNumSubpopulationsCross()</text>
<text text-anchor="start" x="394.5" y="-18.5" font-family="Helvetica,sans-Serif" font-size="10.00">+ getNumSubpopulationsCross()</text>
<text text-anchor="start" x="394.5" y="-7.5" font-family="Helvetica,sans-Serif" font-size="10.00">+ print()</text>
</a>
</g>
</g>
<!-- Node3&#45;&gt;Node5 -->
<g id="edge5" class="edge"><title>Node3&#45;&gt;Node5</title>
<path fill="none" stroke="midnightblue" d="M402.264,-320.945C414.794,-286.676 431.38,-241.313 446.219,-200.729"/>
<polygon fill="none" stroke="midnightblue" points="398.825,-320.16 398.678,-330.754 405.399,-322.564 398.825,-320.16"/>
</g>
</g>
</svg>
