<?xml version="1.0" encoding="UTF-8" standalone="no"?>
<!DOCTYPE svg PUBLIC "-//W3C//DTD SVG 1.1//EN"
 "http://www.w3.org/Graphics/SVG/1.1/DTD/svg11.dtd">
<!-- Generated by graphviz version 2.38.0 (20140413.2041)
 -->
<!-- Title: mat::BitArray::initializeOn Pages: 1 -->
<svg width="459pt" height="88pt"
 viewBox="0.00 0.00 459.00 88.00" xmlns="http://www.w3.org/2000/svg" xmlns:xlink="http://www.w3.org/1999/xlink">
<g id="graph0" class="graph" transform="scale(1 1) rotate(0) translate(4 84)">
<title>mat::BitArray::initializeOn</title>
<polygon fill="white" stroke="none" points="-4,4 -4,-84 455,-84 455,4 -4,4"/>
<!-- Node9 -->
<g id="node1" class="node"><title>Node9</title>
<g id="a_node1"><a xlink:title=" ">
<polygon fill="#bfbfbf" stroke="black" points="0,-30 0,-49 129,-49 129,-30 0,-30"/>
<text text-anchor="middle" x="64.5" y="-37" font-family="Helvetica,sans-Serif" font-size="10.00">mat::BitArray::initializeOn</text>
</a>
</g>
</g>
<!-- Node10 -->
<g id="node2" class="node"><title>Node10</title>
<g id="a_node2"><a xlink:href="classmat_1_1_bit_array.html#a13ee4408d85281a97b8ff88026f2299f" target="_top" xlink:title=" ">
<polygon fill="white" stroke="black" points="165,-30 165,-49 319,-49 319,-30 165,-30"/>
<text text-anchor="middle" x="242" y="-37" font-family="Helvetica,sans-Serif" font-size="10.00">mat::BitArray::_maskTopWord</text>
</a>
</g>
</g>
<!-- Node9&#45;&gt;Node10 -->
<g id="edge1" class="edge"><title>Node9&#45;&gt;Node10</title>
<path fill="none" stroke="midnightblue" d="M129.356,-39.5C137.668,-39.5 146.29,-39.5 154.891,-39.5"/>
<polygon fill="midnightblue" stroke="midnightblue" points="154.958,-43.0001 164.958,-39.5 154.958,-36.0001 154.958,-43.0001"/>
</g>
<!-- Node11 -->
<g id="node3" class="node"><title>Node11</title>
<g id="a_node3"><a xlink:href="classds_1_1_bit_container.html#a704c8b1938a9898d12c72866981bcbb7" target="_top" xlink:title=" ">
<polygon fill="white" stroke="black" points="355.5,-49.5 355.5,-79.5 450.5,-79.5 450.5,-49.5 355.5,-49.5"/>
<text text-anchor="start" x="363.5" y="-67.5" font-family="Helvetica,sans-Serif" font-size="10.00">ds::BitContainer::</text>
<text text-anchor="middle" x="403" y="-56.5" font-family="Helvetica,sans-Serif" font-size="10.00">_bitMask</text>
</a>
</g>
</g>
<!-- Node10&#45;&gt;Node11 -->
<g id="edge2" class="edge"><title>Node10&#45;&gt;Node11</title>
<path fill="none" stroke="midnightblue" d="M303.565,-49.0227C317.272,-51.1779 331.776,-53.4585 345.316,-55.5874"/>
<polygon fill="midnightblue" stroke="midnightblue" points="345.03,-59.0854 355.453,-57.1813 346.118,-52.1704 345.03,-59.0854"/>
</g>
<!-- Node12 -->
<g id="node4" class="node"><title>Node12</title>
<g id="a_node4"><a xlink:href="classds_1_1_bit_container.html#a0811dba1d14baaf495c8a98d11c0178c" target="_top" xlink:title=" ">
<polygon fill="white" stroke="black" points="355,-0.5 355,-30.5 451,-30.5 451,-0.5 355,-0.5"/>
<text text-anchor="start" x="363" y="-18.5" font-family="Helvetica,sans-Serif" font-size="10.00">ds::BitContainer::</text>
<text text-anchor="middle" x="403" y="-7.5" font-family="Helvetica,sans-Serif" font-size="10.00">_bits_in_top_word</text>
</a>
</g>
</g>
<!-- Node10&#45;&gt;Node12 -->
<g id="edge3" class="edge"><title>Node10&#45;&gt;Node12</title>
<path fill="none" stroke="midnightblue" d="M306.298,-29.9456C318.882,-28.0461 332.032,-26.0612 344.413,-24.1924"/>
<polygon fill="midnightblue" stroke="midnightblue" points="345.237,-27.6077 354.603,-22.6543 344.192,-20.6861 345.237,-27.6077"/>
</g>
</g>
</svg>
