<?xml version="1.0" encoding="UTF-8" standalone="no"?>
<!DOCTYPE svg PUBLIC "-//W3C//DTD SVG 1.1//EN"
 "http://www.w3.org/Graphics/SVG/1.1/DTD/svg11.dtd">
<!-- Generated by graphviz version 2.38.0 (20140413.2041)
 -->
<!-- Title: ds::PartitionLinkedStats::operator= Pages: 1 -->
<!--zoomable 450 -->
<svg id="main" version="1.1" xmlns="http://www.w3.org/2000/svg" xmlns:xlink="http://www.w3.org/1999/xlink" xml:space="preserve" onload="init(evt)">
<style type="text/css"><![CDATA[
.edge:hover path { stroke: red; }
.edge:hover polygon { stroke: red; fill: red; }
]]></style>
<script type="text/javascript"><![CDATA[
var edges = document.getElementsByTagName('g');
if (edges && edges.length) {
  for (var i=0;i<edges.length;i++) {
    if (edges[i].id.substr(0,4)=='edge') {
      edges[i].setAttribute('class','edge');
    }
  }
}
]]></script>
        <defs>
                <circle id="rim" cx="0" cy="0" r="7"/>
                <circle id="rim2" cx="0" cy="0" r="3.5"/>
                <g id="zoomPlus">
                        <use xlink:href="#rim" fill="#404040">
                                <set attributeName="fill" to="#808080" begin="zoomplus.mouseover" end="zoomplus.mouseout"/>
                        </use>
                        <path d="M-4,0h8M0,-4v8" fill="none" stroke="white" stroke-width="1.5" pointer-events="none"/>
                </g>
                <g id="zoomMin">
                        <use xlink:href="#rim" fill="#404040">
                                <set attributeName="fill" to="#808080" begin="zoomminus.mouseover" end="zoomminus.mouseout"/>
                        </use>
                        <path d="M-4,0h8" fill="none" stroke="white" stroke-width="1.5" pointer-events="none"/>
                </g>
                <g id="dirArrow">
                        <path fill="none" stroke="white" stroke-width="1.5" d="M0,-3.0v7 M-2.5,-0.5L0,-3.0L2.5,-0.5"/>
                </g>
               <g id="resetDef">
                       <use xlink:href="#rim2" fill="#404040">
                               <set attributeName="fill" to="#808080" begin="reset.mouseover" end="reset.mouseout"/>
                       </use>
               </g>
        </defs>

<script type="text/javascript">
var viewWidth = 670;
var viewHeight = 450;
var sectionId = 'dynsection-14';
</script>
<script xlink:href="svgpan.js"/>
<svg id="graph" class="graph">
<g id="viewport">
<title>ds::PartitionLinkedStats::operator=</title>
<polygon fill="white" stroke="none" points="-4,4 -4,-445.5 666,-445.5 666,4 -4,4"/>
<!-- Node55 -->
<g id="node1" class="node"><title>Node55</title>
<g id="a_node1"><a xlink:title=" ">
<polygon fill="#bfbfbf" stroke="black" points="0,-301.5 0,-331.5 122,-331.5 122,-301.5 0,-301.5"/>
<text text-anchor="start" x="8" y="-319.5" font-family="Helvetica,sans-Serif" font-size="10.00">ds::PartitionLinkedStats</text>
<text text-anchor="middle" x="61" y="-308.5" font-family="Helvetica,sans-Serif" font-size="10.00">::operator=</text>
</a>
</g>
</g>
<!-- Node56 -->
<g id="node2" class="node"><title>Node56</title>
<g id="a_node2"><a xlink:href="classds_1_1_partition_linked.html#a0e5c64adbfb91af71f1a9d79344c9981" target="_top" xlink:title=" ">
<polygon fill="white" stroke="black" points="169,-372.5 169,-402.5 269,-402.5 269,-372.5 169,-372.5"/>
<text text-anchor="start" x="177" y="-390.5" font-family="Helvetica,sans-Serif" font-size="10.00">ds::PartitionLinked</text>
<text text-anchor="middle" x="219" y="-379.5" font-family="Helvetica,sans-Serif" font-size="10.00">::operator=</text>
</a>
</g>
</g>
<!-- Node55&#45;&gt;Node56 -->
<g id="edge1" class="edge"><title>Node55&#45;&gt;Node56</title>
<path fill="none" stroke="midnightblue" d="M95.0836,-331.557C118.558,-342.241 150.267,-356.673 175.598,-368.202"/>
<polygon fill="midnightblue" stroke="midnightblue" points="174.413,-371.508 184.964,-372.464 177.312,-365.136 174.413,-371.508"/>
</g>
<!-- Node60 -->
<g id="node6" class="node"><title>Node60</title>
<g id="a_node6"><a xlink:href="classds_1_1_partition_linked_stats.html#ac002167e3a4f4f2b692c3b7e1c9fd785" target="_top" xlink:title=" ">
<polygon fill="white" stroke="black" points="158,-208.5 158,-238.5 280,-238.5 280,-208.5 158,-208.5"/>
<text text-anchor="start" x="166" y="-226.5" font-family="Helvetica,sans-Serif" font-size="10.00">ds::PartitionLinkedStats</text>
<text text-anchor="middle" x="219" y="-215.5" font-family="Helvetica,sans-Serif" font-size="10.00">::print</text>
</a>
</g>
</g>
<!-- Node55&#45;&gt;Node60 -->
<g id="edge5" class="edge"><title>Node55&#45;&gt;Node60</title>
<path fill="none" stroke="midnightblue" d="M87.4113,-301.351C113.701,-285.678 154.909,-261.112 183.993,-243.773"/>
<polygon fill="midnightblue" stroke="midnightblue" points="185.802,-246.77 192.6,-238.643 182.218,-240.757 185.802,-246.77"/>
</g>
<!-- Node57 -->
<g id="node3" class="node"><title>Node57</title>
<g id="a_node3"><a xlink:href="namespaceinterfacesse.html#a925f44ed84d40e9af5050fa0e1373396" target="_top" xlink:title="copy array aoarrayt_x in aoarrayt_y of type T">
<polygon fill="white" stroke="black" points="343.5,-422 343.5,-441 442.5,-441 442.5,-422 343.5,-422"/>
<text text-anchor="middle" x="393" y="-429" font-family="Helvetica,sans-Serif" font-size="10.00">interfacesse::copy</text>
</a>
</g>
</g>
<!-- Node56&#45;&gt;Node57 -->
<g id="edge2" class="edge"><title>Node56&#45;&gt;Node57</title>
<path fill="none" stroke="midnightblue" d="M269.307,-400.439C284.294,-404.345 300.814,-408.625 316,-412.5 324.903,-414.772 334.401,-417.168 343.559,-419.465"/>
<polygon fill="midnightblue" stroke="midnightblue" points="342.768,-422.875 353.318,-421.907 344.467,-416.084 342.768,-422.875"/>
</g>
<!-- Node58 -->
<g id="node4" class="node"><title>Node58</title>
<g id="a_node4"><a xlink:href="classds_1_1_partition_linked.html#a6a7de3bc18b0904e2e23536a336e42a8" target="_top" xlink:title=" ">
<polygon fill="white" stroke="black" points="343,-372.5 343,-402.5 443,-402.5 443,-372.5 343,-372.5"/>
<text text-anchor="start" x="351" y="-390.5" font-family="Helvetica,sans-Serif" font-size="10.00">ds::PartitionLinked</text>
<text text-anchor="middle" x="393" y="-379.5" font-family="Helvetica,sans-Serif" font-size="10.00">::print</text>
</a>
</g>
</g>
<!-- Node56&#45;&gt;Node58 -->
<g id="edge3" class="edge"><title>Node56&#45;&gt;Node58</title>
<path fill="none" stroke="midnightblue" d="M269.288,-387.5C288.99,-387.5 311.856,-387.5 332.473,-387.5"/>
<polygon fill="midnightblue" stroke="midnightblue" points="332.705,-391 342.705,-387.5 332.704,-384 332.705,-391"/>
</g>
<!-- Node59 -->
<g id="node5" class="node"><title>Node59</title>
<g id="a_node5"><a xlink:href="classds_1_1_partition_linked.html#a696f58c4d25fd41adf281d1468440dc9" target="_top" xlink:title=" ">
<polygon fill="white" stroke="black" points="534,-372.5 534,-402.5 634,-402.5 634,-372.5 534,-372.5"/>
<text text-anchor="start" x="542" y="-390.5" font-family="Helvetica,sans-Serif" font-size="10.00">ds::PartitionLinked</text>
<text text-anchor="middle" x="584" y="-379.5" font-family="Helvetica,sans-Serif" font-size="10.00">::getNumPartitions</text>
</a>
</g>
</g>
<!-- Node58&#45;&gt;Node59 -->
<g id="edge4" class="edge"><title>Node58&#45;&gt;Node59</title>
<path fill="none" stroke="midnightblue" d="M443.164,-387.5C467.786,-387.5 497.79,-387.5 523.682,-387.5"/>
<polygon fill="midnightblue" stroke="midnightblue" points="523.754,-391 533.754,-387.5 523.754,-384 523.754,-391"/>
</g>
<!-- Node60&#45;&gt;Node58 -->
<g id="edge13" class="edge"><title>Node60&#45;&gt;Node58</title>
<path fill="none" stroke="midnightblue" d="M226.278,-238.61C238.945,-267.258 270.303,-329.633 316,-363.5 321.18,-367.339 326.991,-370.575 333.034,-373.301"/>
<polygon fill="midnightblue" stroke="midnightblue" points="332.077,-376.689 342.661,-377.179 334.692,-370.196 332.077,-376.689"/>
</g>
<!-- Node61 -->
<g id="node7" class="node"><title>Node61</title>
<g id="a_node7"><a xlink:href="classds_1_1_partition_linked_stats.html#aea3a5b61e78f2aa7bb44b1d1a9e25b59" target="_top" xlink:title=" ">
<polygon fill="white" stroke="black" points="332,-323.5 332,-353.5 454,-353.5 454,-323.5 332,-323.5"/>
<text text-anchor="start" x="340" y="-341.5" font-family="Helvetica,sans-Serif" font-size="10.00">ds::PartitionLinkedStats</text>
<text text-anchor="middle" x="393" y="-330.5" font-family="Helvetica,sans-Serif" font-size="10.00">::getNumPartitions</text>
</a>
</g>
</g>
<!-- Node60&#45;&gt;Node61 -->
<g id="edge6" class="edge"><title>Node60&#45;&gt;Node61</title>
<path fill="none" stroke="midnightblue" d="M232.063,-238.597C248.859,-258.668 281.174,-293.988 316,-314.5 318.861,-316.185 321.854,-317.766 324.929,-319.246"/>
<polygon fill="midnightblue" stroke="midnightblue" points="323.785,-322.566 334.347,-323.39 326.604,-316.159 323.785,-322.566"/>
</g>
<!-- Node63 -->
<g id="node9" class="node"><title>Node63</title>
<g id="a_node9"><a xlink:href="classds_1_1_iterator_partition_linked.html#ad171cb96653fadaec272389381a4f8b4" target="_top" xlink:title=" ">
<polygon fill="white" stroke="black" points="327.5,-274.5 327.5,-304.5 458.5,-304.5 458.5,-274.5 327.5,-274.5"/>
<text text-anchor="start" x="335.5" y="-292.5" font-family="Helvetica,sans-Serif" font-size="10.00">ds::IteratorPartitionLinked</text>
<text text-anchor="middle" x="393" y="-281.5" font-family="Helvetica,sans-Serif" font-size="10.00">::begin</text>
</a>
</g>
</g>
<!-- Node60&#45;&gt;Node63 -->
<g id="edge8" class="edge"><title>Node60&#45;&gt;Node63</title>
<path fill="none" stroke="midnightblue" d="M253.479,-238.634C271.793,-246.701 294.974,-256.568 316,-264.5 321.885,-266.72 328.066,-268.937 334.253,-271.082"/>
<polygon fill="midnightblue" stroke="midnightblue" points="333.347,-274.471 343.942,-274.384 335.606,-267.845 333.347,-274.471"/>
</g>
<!-- Node64 -->
<g id="node10" class="node"><title>Node64</title>
<g id="a_node10"><a xlink:href="classds_1_1_iterator_partition_linked.html#af0e179fae69c0d4f047082ee44783613" target="_top" xlink:title=" ">
<polygon fill="white" stroke="black" points="316,-236 316,-255 470,-255 470,-236 316,-236"/>
<text text-anchor="middle" x="393" y="-243" font-family="Helvetica,sans-Serif" font-size="10.00">ds::IteratorPartitionLinked::end</text>
</a>
</g>
</g>
<!-- Node60&#45;&gt;Node64 -->
<g id="edge9" class="edge"><title>Node60&#45;&gt;Node64</title>
<path fill="none" stroke="midnightblue" d="M280.157,-231.195C289.05,-232.332 298.349,-233.521 307.623,-234.708"/>
<polygon fill="midnightblue" stroke="midnightblue" points="307.293,-238.194 317.656,-235.991 308.181,-231.25 307.293,-238.194"/>
</g>
<!-- Node65 -->
<g id="node11" class="node"><title>Node65</title>
<g id="a_node11"><a xlink:href="classds_1_1_iterator_partition_linked.html#a83b887be41c97dc0bdfc47a02abbc383" target="_top" xlink:title=" ">
<polygon fill="white" stroke="black" points="327.5,-186.5 327.5,-216.5 458.5,-216.5 458.5,-186.5 327.5,-186.5"/>
<text text-anchor="start" x="335.5" y="-204.5" font-family="Helvetica,sans-Serif" font-size="10.00">ds::IteratorPartitionLinked</text>
<text text-anchor="middle" x="393" y="-193.5" font-family="Helvetica,sans-Serif" font-size="10.00">::next</text>
</a>
</g>
</g>
<!-- Node60&#45;&gt;Node65 -->
<g id="edge10" class="edge"><title>Node60&#45;&gt;Node65</title>
<path fill="none" stroke="midnightblue" d="M280.157,-215.805C292.235,-214.261 305.062,-212.62 317.558,-211.022"/>
<polygon fill="midnightblue" stroke="midnightblue" points="318.012,-214.492 327.487,-209.752 317.124,-207.549 318.012,-214.492"/>
</g>
<!-- Node66 -->
<g id="node12" class="node"><title>Node66</title>
<g id="a_node12"><a xlink:href="classds_1_1_iterator_partition_linked.html#a1a031c033d0d2d1c6982ced4e0473831" target="_top" xlink:title=" ">
<polygon fill="white" stroke="black" points="327.5,-137.5 327.5,-167.5 458.5,-167.5 458.5,-137.5 327.5,-137.5"/>
<text text-anchor="start" x="335.5" y="-155.5" font-family="Helvetica,sans-Serif" font-size="10.00">ds::IteratorPartitionLinked</text>
<text text-anchor="middle" x="393" y="-144.5" font-family="Helvetica,sans-Serif" font-size="10.00">::getValue</text>
</a>
</g>
</g>
<!-- Node60&#45;&gt;Node66 -->
<g id="edge11" class="edge"><title>Node60&#45;&gt;Node66</title>
<path fill="none" stroke="midnightblue" d="M248.973,-208.411C267.797,-198.909 293.023,-186.739 316,-177.5 321.531,-175.276 327.344,-173.095 333.189,-171.005"/>
<polygon fill="midnightblue" stroke="midnightblue" points="334.72,-174.178 343.011,-167.582 332.416,-167.568 334.72,-174.178"/>
</g>
<!-- Node67 -->
<g id="node13" class="node"><title>Node67</title>
<g id="a_node13"><a xlink:href="classds_1_1_partition_linked.html#a70877e6d118d2f041d9006fdf565daec" target="_top" xlink:title=" ">
<polygon fill="white" stroke="black" points="343,-88.5 343,-118.5 443,-118.5 443,-88.5 343,-88.5"/>
<text text-anchor="start" x="351" y="-106.5" font-family="Helvetica,sans-Serif" font-size="10.00">ds::PartitionLinked</text>
<text text-anchor="middle" x="393" y="-95.5" font-family="Helvetica,sans-Serif" font-size="10.00">::getNumInstances</text>
</a>
</g>
</g>
<!-- Node60&#45;&gt;Node67 -->
<g id="edge12" class="edge"><title>Node60&#45;&gt;Node67</title>
<path fill="none" stroke="midnightblue" d="M231.39,-208.482C247.892,-187.7 280.396,-150.279 316,-128.5 321.365,-125.218 327.21,-122.315 333.198,-119.759"/>
<polygon fill="midnightblue" stroke="midnightblue" points="334.654,-122.947 342.675,-116.025 332.088,-116.435 334.654,-122.947"/>
</g>
<!-- Node68 -->
<g id="node14" class="node"><title>Node68</title>
<g id="a_node14"><a xlink:href="namespaceinout.html#a0c10a45877a347dec0d4ec4e5b05b828" target="_top" xlink:title=" ">
<polygon fill="white" stroke="black" points="341.5,-50 341.5,-69 444.5,-69 444.5,-50 341.5,-50"/>
<text text-anchor="middle" x="393" y="-57" font-family="Helvetica,sans-Serif" font-size="10.00">inout::containerprint</text>
</a>
</g>
</g>
<!-- Node60&#45;&gt;Node68 -->
<g id="edge14" class="edge"><title>Node60&#45;&gt;Node68</title>
<path fill="none" stroke="midnightblue" d="M225.818,-208.212C237.891,-178.603 268.561,-113.371 316,-79.5 320.837,-76.0463 326.229,-73.1889 331.846,-70.8248"/>
<polygon fill="midnightblue" stroke="midnightblue" points="333.275,-74.0284 341.454,-67.2939 330.861,-67.458 333.275,-74.0284"/>
</g>
<!-- Node69 -->
<g id="node15" class="node"><title>Node69</title>
<g id="a_node15"><a xlink:href="classmat_1_1_matrix_resizable_row.html#a566801d937643cf5937b61bf321b01b7" target="_top" xlink:title=" ">
<polygon fill="white" stroke="black" points="327.5,-0.5 327.5,-30.5 458.5,-30.5 458.5,-0.5 327.5,-0.5"/>
<text text-anchor="start" x="335.5" y="-18.5" font-family="Helvetica,sans-Serif" font-size="10.00">mat::MatrixResizableRow</text>
<text text-anchor="middle" x="393" y="-7.5" font-family="Helvetica,sans-Serif" font-size="10.00">::print</text>
</a>
</g>
</g>
<!-- Node60&#45;&gt;Node69 -->
<g id="edge15" class="edge"><title>Node60&#45;&gt;Node69</title>
<path fill="none" stroke="midnightblue" d="M223.77,-208.243C233.174,-173.341 260.972,-87.107 316,-40.5 317.994,-38.8112 320.105,-37.2355 322.306,-35.7656"/>
<polygon fill="midnightblue" stroke="midnightblue" points="324.294,-38.6581 331.178,-30.604 320.774,-32.6076 324.294,-38.6581"/>
</g>
<!-- Node62 -->
<g id="node8" class="node"><title>Node62</title>
<g id="a_node8"><a xlink:href="classmat_1_1_matrix_base.html#ac500eedd5e203327d3292f8ab22d8f3e" target="_top" xlink:title=" ">
<polygon fill="white" stroke="black" points="506,-329 506,-348 662,-348 662,-329 506,-329"/>
<text text-anchor="middle" x="584" y="-336" font-family="Helvetica,sans-Serif" font-size="10.00">mat::MatrixBase::getNumRows</text>
</a>
</g>
</g>
<!-- Node61&#45;&gt;Node62 -->
<g id="edge7" class="edge"><title>Node61&#45;&gt;Node62</title>
<path fill="none" stroke="midnightblue" d="M454.06,-338.5C467.281,-338.5 481.544,-338.5 495.596,-338.5"/>
<polygon fill="midnightblue" stroke="midnightblue" points="495.773,-342 505.773,-338.5 495.773,-335 495.773,-342"/>
</g>
</g>
</svg>
        <g id="navigator" transform="translate(0 0)" fill="#404254">
                <rect fill="#f2f5e9" fill-opacity="0.5" stroke="#606060" stroke-width=".5" x="0" y="0" width="60" height="60"/>
                <use id="zoomplus" xlink:href="#zoomPlus" x="17" y="9" onmousedown="handleZoom(evt,'in')"/>
                <use id="zoomminus" xlink:href="#zoomMin" x="42" y="9" onmousedown="handleZoom(evt,'out')"/>
                <use id="reset" xlink:href="#resetDef" x="30" y="36" onmousedown="handleReset()"/>
                <g id="arrowUp" xlink:href="#dirArrow" transform="translate(30 24)" onmousedown="handlePan(0,-1)">
                  <use xlink:href="#rim" fill="#404040">
                        <set attributeName="fill" to="#808080" begin="arrowUp.mouseover" end="arrowUp.mouseout"/>
                  </use>
                  <path fill="none" stroke="white" stroke-width="1.5" d="M0,-3.0v7 M-2.5,-0.5L0,-3.0L2.5,-0.5"/>
                </g>
                <g id="arrowRight" xlink:href="#dirArrow" transform="rotate(90) translate(36 -43)" onmousedown="handlePan(1,0)">
                  <use xlink:href="#rim" fill="#404040">
                        <set attributeName="fill" to="#808080" begin="arrowRight.mouseover" end="arrowRight.mouseout"/>
                  </use>
                  <path fill="none" stroke="white" stroke-width="1.5" d="M0,-3.0v7 M-2.5,-0.5L0,-3.0L2.5,-0.5"/>
                </g>
                <g id="arrowDown" xlink:href="#dirArrow" transform="rotate(180) translate(-30 -48)" onmousedown="handlePan(0,1)">
                  <use xlink:href="#rim" fill="#404040">
                        <set attributeName="fill" to="#808080" begin="arrowDown.mouseover" end="arrowDown.mouseout"/>
                  </use>
                  <path fill="none" stroke="white" stroke-width="1.5" d="M0,-3.0v7 M-2.5,-0.5L0,-3.0L2.5,-0.5"/>
                </g>
                <g id="arrowLeft" xlink:href="#dirArrow" transform="rotate(270) translate(-36 17)" onmousedown="handlePan(-1,0)">
                  <use xlink:href="#rim" fill="#404040">
                        <set attributeName="fill" to="#808080" begin="arrowLeft.mouseover" end="arrowLeft.mouseout"/>
                  </use>
                  <path fill="none" stroke="white" stroke-width="1.5" d="M0,-3.0v7 M-2.5,-0.5L0,-3.0L2.5,-0.5"/>
                </g>
        </g>
        <svg viewBox="0 0 15 15" width="100%" height="30px" preserveAspectRatio="xMaxYMin meet">
         <g id="arrow_out" transform="scale(0.3 0.3)">
          <a xlink:href="classds_1_1_partition_linked_stats_a58f0589237d457c74ca3c36d3044b83a_cgraph_org.svg" target="_base">
           <rect id="button" ry="5" rx="5" y="6" x="6" height="38" width="38"
                fill="#f2f5e9" fill-opacity="0.5" stroke="#606060" stroke-width="1.0"/>
           <path id="arrow"
             d="M 11.500037,31.436501 C 11.940474,20.09759 22.043105,11.32322 32.158766,21.979434 L 37.068811,17.246167 C 37.068811,17.246167 37.088388,32 37.088388,32 L 22.160133,31.978069 C 22.160133,31.978069 26.997745,27.140456 26.997745,27.140456 C 18.528582,18.264221 13.291696,25.230495 11.500037,31.436501 z"
             style="fill:#404040;"/>
          </a>
         </g>
        </svg>
</svg>
