<?xml version="1.0" encoding="UTF-8" standalone="no"?>
<!DOCTYPE svg PUBLIC "-//W3C//DTD SVG 1.1//EN"
 "http://www.w3.org/Graphics/SVG/1.1/DTD/svg11.dtd">
<!-- Generated by graphviz version 2.38.0 (20140413.2041)
 -->
<!-- Title: gaencode::ChromosomeMatrixWithRowNull::ChromosomeMatrixWithRowNull Pages: 1 -->
<svg width="418pt" height="50pt"
 viewBox="0.00 0.00 418.00 50.00" xmlns="http://www.w3.org/2000/svg" xmlns:xlink="http://www.w3.org/1999/xlink">
<g id="graph0" class="graph" transform="scale(1 1) rotate(0) translate(4 46)">
<title>gaencode::ChromosomeMatrixWithRowNull::ChromosomeMatrixWithRowNull</title>
<polygon fill="white" stroke="none" points="-4,4 -4,-46 414,-46 414,4 -4,4"/>
<!-- Node1 -->
<g id="node1" class="node"><title>Node1</title>
<polygon fill="#bfbfbf" stroke="black" points="0,-0.5 0,-41.5 187,-41.5 187,-0.5 0,-0.5"/>
<text text-anchor="start" x="8" y="-29.5" font-family="Helvetica,sans-Serif" font-size="10.00">gaencode::ChromosomeMatrix</text>
<text text-anchor="start" x="8" y="-18.5" font-family="Helvetica,sans-Serif" font-size="10.00">WithRowNull::ChromosomeMatrixWith</text>
<text text-anchor="middle" x="93.5" y="-7.5" font-family="Helvetica,sans-Serif" font-size="10.00">RowNull</text>
</g>
<!-- Node2 -->
<g id="node2" class="node"><title>Node2</title>
<g id="a_node2"><a xlink:href="classgaencode_1_1_chromosome_matrix_with_row_null.html#a2d841ab211ac613d6d2b2530da7b9750" target="_top" xlink:title="gaencode::ChromosomeMatrix\lWithRowNull::ChromosomeMatrixWith\lRowNull">
<polygon fill="white" stroke="black" points="223,-0.5 223,-41.5 410,-41.5 410,-0.5 223,-0.5"/>
<text text-anchor="start" x="231" y="-29.5" font-family="Helvetica,sans-Serif" font-size="10.00">gaencode::ChromosomeMatrix</text>
<text text-anchor="start" x="231" y="-18.5" font-family="Helvetica,sans-Serif" font-size="10.00">WithRowNull::ChromosomeMatrixWith</text>
<text text-anchor="middle" x="316.5" y="-7.5" font-family="Helvetica,sans-Serif" font-size="10.00">RowNull</text>
</a>
</g>
</g>
<!-- Node1&#45;&gt;Node2 -->
<g id="edge1" class="edge"><title>Node1&#45;&gt;Node2</title>
<path fill="none" stroke="midnightblue" d="M187.263,-21C195.753,-21 204.387,-21 212.956,-21"/>
<polygon fill="midnightblue" stroke="midnightblue" points="212.974,-24.5001 222.974,-21 212.974,-17.5001 212.974,-24.5001"/>
</g>
</g>
</svg>
