<?xml version="1.0" encoding="UTF-8" standalone="no"?>
<!DOCTYPE svg PUBLIC "-//W3C//DTD SVG 1.1//EN"
 "http://www.w3.org/Graphics/SVG/1.1/DTD/svg11.dtd">
<!-- Generated by graphviz version 2.38.0 (20140413.2041)
 -->
<!-- Title: include/clustering_operator_label.hpp Pages: 1 -->
<svg width="1502pt" height="375pt"
 viewBox="0.00 0.00 1502.00 375.00" xmlns="http://www.w3.org/2000/svg" xmlns:xlink="http://www.w3.org/1999/xlink">
<g id="graph0" class="graph" transform="scale(1 1) rotate(0) translate(4 371)">
<title>include/clustering_operator_label.hpp</title>
<polygon fill="white" stroke="none" points="-4,4 -4,-371 1498,-371 1498,4 -4,4"/>
<!-- Node0 -->
<g id="node1" class="node"><title>Node0</title>
<polygon fill="#bfbfbf" stroke="black" points="834,-336.5 834,-366.5 938,-366.5 938,-336.5 834,-336.5"/>
<text text-anchor="start" x="842" y="-354.5" font-family="Helvetica,sans-Serif" font-size="10.00">include/clustering</text>
<text text-anchor="middle" x="886" y="-343.5" font-family="Helvetica,sans-Serif" font-size="10.00">_operator_label.hpp</text>
</g>
<!-- Node1 -->
<g id="node2" class="node"><title>Node1</title>
<polygon fill="white" stroke="#bfbfbf" points="975,-56.5 975,-75.5 1019,-75.5 1019,-56.5 975,-56.5"/>
<text text-anchor="middle" x="997" y="-63.5" font-family="Helvetica,sans-Serif" font-size="10.00">vector</text>
</g>
<!-- Node0&#45;&gt;Node1 -->
<g id="edge1" class="edge"><title>Node0&#45;&gt;Node1</title>
<path fill="none" stroke="midnightblue" d="M927.923,-336.423C969.486,-319.501 1027,-286.737 1027,-235 1027,-235 1027,-235 1027,-177 1027,-143.64 1014,-106.532 1005.11,-85.0673"/>
<polygon fill="midnightblue" stroke="midnightblue" points="1008.22,-83.4213 1001.05,-75.6212 1001.79,-86.1901 1008.22,-83.4213"/>
</g>
<!-- Node2 -->
<g id="node3" class="node"><title>Node2</title>
<g id="a_node3"><a xlink:href="partition__disjsets_8hpp.html" target="_top" xlink:title="Partition based on structure of disjoint joint data. ">
<polygon fill="white" stroke="black" points="672.5,-280.5 672.5,-299.5 781.5,-299.5 781.5,-280.5 672.5,-280.5"/>
<text text-anchor="middle" x="727" y="-287.5" font-family="Helvetica,sans-Serif" font-size="10.00">partition_disjsets.hpp</text>
</a>
</g>
</g>
<!-- Node0&#45;&gt;Node2 -->
<g id="edge2" class="edge"><title>Node0&#45;&gt;Node2</title>
<path fill="none" stroke="midnightblue" d="M848.319,-336.399C821.404,-326.327 785.548,-312.909 759.807,-303.277"/>
<polygon fill="midnightblue" stroke="midnightblue" points="760.728,-299.885 750.136,-299.658 758.275,-306.441 760.728,-299.885"/>
</g>
<!-- Node3 -->
<g id="node4" class="node"><title>Node3</title>
<polygon fill="white" stroke="#bfbfbf" points="774,-224.5 774,-243.5 810,-243.5 810,-224.5 774,-224.5"/>
<text text-anchor="middle" x="792" y="-231.5" font-family="Helvetica,sans-Serif" font-size="10.00">map</text>
</g>
<!-- Node2&#45;&gt;Node3 -->
<g id="edge3" class="edge"><title>Node2&#45;&gt;Node3</title>
<path fill="none" stroke="midnightblue" d="M737.443,-280.324C747.146,-272.263 761.815,-260.077 773.5,-250.369"/>
<polygon fill="midnightblue" stroke="midnightblue" points="775.911,-252.916 781.367,-243.834 771.438,-247.532 775.911,-252.916"/>
</g>
<!-- Node4 -->
<g id="node5" class="node"><title>Node4</title>
<g id="a_node5"><a xlink:href="partition_8hpp.html" target="_top" xlink:title="partition ">
<polygon fill="white" stroke="black" points="799.5,-112.5 799.5,-131.5 868.5,-131.5 868.5,-112.5 799.5,-112.5"/>
<text text-anchor="middle" x="834" y="-119.5" font-family="Helvetica,sans-Serif" font-size="10.00">partition.hpp</text>
</a>
</g>
</g>
<!-- Node2&#45;&gt;Node4 -->
<g id="edge4" class="edge"><title>Node2&#45;&gt;Node4</title>
<path fill="none" stroke="midnightblue" d="M731.732,-280.472C738.743,-267.94 752.418,-243.883 765,-224 784.116,-193.792 807.928,-159.639 821.993,-139.791"/>
<polygon fill="midnightblue" stroke="midnightblue" points="824.94,-141.687 827.886,-131.51 819.236,-137.629 824.94,-141.687"/>
</g>
<!-- Node9 -->
<g id="node10" class="node"><title>Node9</title>
<g id="a_node10"><a xlink:href="disjsets_8hpp.html" target="_top" xlink:title="disjoint sets ">
<polygon fill="white" stroke="black" points="673.5,-112.5 673.5,-131.5 742.5,-131.5 742.5,-112.5 673.5,-112.5"/>
<text text-anchor="middle" x="708" y="-119.5" font-family="Helvetica,sans-Serif" font-size="10.00">disjsets.hpp</text>
</a>
</g>
</g>
<!-- Node2&#45;&gt;Node9 -->
<g id="edge9" class="edge"><title>Node2&#45;&gt;Node9</title>
<path fill="none" stroke="midnightblue" d="M725.978,-280.075C722.988,-253.945 714.205,-177.211 710.126,-141.577"/>
<polygon fill="midnightblue" stroke="midnightblue" points="713.595,-141.105 708.981,-131.568 706.641,-141.901 713.595,-141.105"/>
</g>
<!-- Node13 -->
<g id="node14" class="node"><title>Node13</title>
<g id="a_node14"><a xlink:href="verbose__global_8hpp.html" target="_top" xlink:title="verbose global ">
<polygon fill="white" stroke="black" points="619,-56.5 619,-75.5 723,-75.5 723,-56.5 619,-56.5"/>
<text text-anchor="middle" x="671" y="-63.5" font-family="Helvetica,sans-Serif" font-size="10.00">verbose_global.hpp</text>
</a>
</g>
</g>
<!-- Node2&#45;&gt;Node13 -->
<g id="edge73" class="edge"><title>Node2&#45;&gt;Node13</title>
<path fill="none" stroke="midnightblue" d="M672.193,-289.361C591.511,-288.591 446.761,-281.808 414,-244 391.444,-217.969 308.991,-237.934 423,-112 435.404,-98.299 539.441,-83.0836 608.768,-74.3195"/>
<polygon fill="midnightblue" stroke="midnightblue" points="609.241,-77.7877 618.729,-73.0742 608.372,-70.8418 609.241,-77.7877"/>
</g>
<!-- Node14 -->
<g id="node15" class="node"><title>Node14</title>
<g id="a_node15"><a xlink:href="nearestinstance__operator_8hpp.html" target="_top" xlink:title="nearest instance operator ">
<polygon fill="white" stroke="black" points="423.5,-224.5 423.5,-243.5 572.5,-243.5 572.5,-224.5 423.5,-224.5"/>
<text text-anchor="middle" x="498" y="-231.5" font-family="Helvetica,sans-Serif" font-size="10.00">nearestinstance_operator.hpp</text>
</a>
</g>
</g>
<!-- Node2&#45;&gt;Node14 -->
<g id="edge16" class="edge"><title>Node2&#45;&gt;Node14</title>
<path fill="none" stroke="midnightblue" d="M690.714,-280.444C651.017,-271.083 587.293,-256.056 544.088,-245.868"/>
<polygon fill="midnightblue" stroke="midnightblue" points="544.652,-242.405 534.116,-243.516 543.046,-249.218 544.652,-242.405"/>
</g>
<!-- Node5 -->
<g id="node6" class="node"><title>Node5</title>
<polygon fill="white" stroke="#bfbfbf" points="743,-56.5 743,-75.5 799,-75.5 799,-56.5 743,-56.5"/>
<text text-anchor="middle" x="771" y="-63.5" font-family="Helvetica,sans-Serif" font-size="10.00">iostream</text>
</g>
<!-- Node4&#45;&gt;Node5 -->
<g id="edge5" class="edge"><title>Node4&#45;&gt;Node5</title>
<path fill="none" stroke="midnightblue" d="M823.878,-112.324C814.474,-104.263 800.256,-92.0765 788.931,-82.3695"/>
<polygon fill="midnightblue" stroke="midnightblue" points="791.177,-79.6844 781.306,-75.8339 786.621,-84.9993 791.177,-79.6844"/>
</g>
<!-- Node6 -->
<g id="node7" class="node"><title>Node6</title>
<polygon fill="white" stroke="#bfbfbf" points="892,-56.5 892,-75.5 942,-75.5 942,-56.5 892,-56.5"/>
<text text-anchor="middle" x="917" y="-63.5" font-family="Helvetica,sans-Serif" font-size="10.00">fstream</text>
</g>
<!-- Node4&#45;&gt;Node6 -->
<g id="edge6" class="edge"><title>Node4&#45;&gt;Node6</title>
<path fill="none" stroke="midnightblue" d="M847.335,-112.324C860.162,-103.979 879.785,-91.2122 894.94,-81.3524"/>
<polygon fill="midnightblue" stroke="midnightblue" points="897.224,-84.0417 903.698,-75.6545 893.407,-78.1742 897.224,-84.0417"/>
</g>
<!-- Node7 -->
<g id="node8" class="node"><title>Node7</title>
<polygon fill="white" stroke="#bfbfbf" points="1057.5,-56.5 1057.5,-75.5 1110.5,-75.5 1110.5,-56.5 1057.5,-56.5"/>
<text text-anchor="middle" x="1084" y="-63.5" font-family="Helvetica,sans-Serif" font-size="10.00">sstream</text>
</g>
<!-- Node4&#45;&gt;Node7 -->
<g id="edge7" class="edge"><title>Node4&#45;&gt;Node7</title>
<path fill="none" stroke="midnightblue" d="M868.761,-113.492C915.759,-103.34 999.2,-85.3169 1047.22,-74.9451"/>
<polygon fill="midnightblue" stroke="midnightblue" points="1048.15,-78.3242 1057.19,-72.7918 1046.67,-71.482 1048.15,-78.3242"/>
</g>
<!-- Node8 -->
<g id="node9" class="node"><title>Node8</title>
<polygon fill="white" stroke="#bfbfbf" points="824.5,-56.5 824.5,-75.5 865.5,-75.5 865.5,-56.5 824.5,-56.5"/>
<text text-anchor="middle" x="845" y="-63.5" font-family="Helvetica,sans-Serif" font-size="10.00">string</text>
</g>
<!-- Node4&#45;&gt;Node8 -->
<g id="edge8" class="edge"><title>Node4&#45;&gt;Node8</title>
<path fill="none" stroke="midnightblue" d="M835.816,-112.083C837.274,-104.927 839.371,-94.6353 841.193,-85.6911"/>
<polygon fill="midnightblue" stroke="midnightblue" points="844.651,-86.2485 843.217,-75.7511 837.792,-84.8512 844.651,-86.2485"/>
</g>
<!-- Node9&#45;&gt;Node1 -->
<g id="edge11" class="edge"><title>Node9&#45;&gt;Node1</title>
<path fill="none" stroke="midnightblue" d="M742.628,-114.701C789.782,-106.098 876.82,-90.1248 951,-76 955.437,-75.1552 960.112,-74.2537 964.713,-73.3598"/>
<polygon fill="midnightblue" stroke="midnightblue" points="965.404,-76.7911 974.548,-71.4399 964.062,-69.9208 965.404,-76.7911"/>
</g>
<!-- Node9&#45;&gt;Node5 -->
<g id="edge10" class="edge"><title>Node9&#45;&gt;Node5</title>
<path fill="none" stroke="midnightblue" d="M718.122,-112.324C727.526,-104.263 741.744,-92.0765 753.069,-82.3695"/>
<polygon fill="midnightblue" stroke="midnightblue" points="755.379,-84.9993 760.694,-75.8339 750.823,-79.6844 755.379,-84.9993"/>
</g>
<!-- Node10 -->
<g id="node11" class="node"><title>Node10</title>
<g id="a_node11"><a xlink:href="common_8hpp.html" target="_top" xlink:title="common ">
<polygon fill="white" stroke="black" points="462,-56.5 462,-75.5 536,-75.5 536,-56.5 462,-56.5"/>
<text text-anchor="middle" x="499" y="-63.5" font-family="Helvetica,sans-Serif" font-size="10.00">common.hpp</text>
</a>
</g>
</g>
<!-- Node9&#45;&gt;Node10 -->
<g id="edge12" class="edge"><title>Node9&#45;&gt;Node10</title>
<path fill="none" stroke="midnightblue" d="M674.883,-112.444C638.882,-103.142 581.23,-88.246 541.814,-78.062"/>
<polygon fill="midnightblue" stroke="midnightblue" points="542.519,-74.6294 531.962,-75.5164 540.768,-81.4068 542.519,-74.6294"/>
</g>
<!-- Node9&#45;&gt;Node13 -->
<g id="edge15" class="edge"><title>Node9&#45;&gt;Node13</title>
<path fill="none" stroke="midnightblue" d="M701.89,-112.083C696.718,-104.534 689.154,-93.4948 682.806,-84.2298"/>
<polygon fill="midnightblue" stroke="midnightblue" points="685.536,-82.0221 676.996,-75.7511 679.761,-85.9787 685.536,-82.0221"/>
</g>
<!-- Node11 -->
<g id="node12" class="node"><title>Node11</title>
<polygon fill="white" stroke="#bfbfbf" points="475.5,-0.5 475.5,-19.5 522.5,-19.5 522.5,-0.5 475.5,-0.5"/>
<text text-anchor="middle" x="499" y="-7.5" font-family="Helvetica,sans-Serif" font-size="10.00">stdint.h</text>
</g>
<!-- Node10&#45;&gt;Node11 -->
<g id="edge13" class="edge"><title>Node10&#45;&gt;Node11</title>
<path fill="none" stroke="midnightblue" d="M499,-56.083C499,-49.0059 499,-38.8611 499,-29.9865"/>
<polygon fill="midnightblue" stroke="midnightblue" points="502.5,-29.751 499,-19.7511 495.5,-29.7511 502.5,-29.751"/>
</g>
<!-- Node12 -->
<g id="node13" class="node"><title>Node12</title>
<polygon fill="white" stroke="#bfbfbf" points="156.5,-0.5 156.5,-19.5 195.5,-19.5 195.5,-0.5 156.5,-0.5"/>
<text text-anchor="middle" x="176" y="-7.5" font-family="Helvetica,sans-Serif" font-size="10.00">limits</text>
</g>
<!-- Node10&#45;&gt;Node12 -->
<g id="edge14" class="edge"><title>Node10&#45;&gt;Node12</title>
<path fill="none" stroke="midnightblue" d="M461.948,-58.8055C397.365,-48.0084 265.413,-25.9483 206.079,-16.0287"/>
<polygon fill="midnightblue" stroke="midnightblue" points="206.318,-12.5202 195.878,-14.3232 205.164,-19.4243 206.318,-12.5202"/>
</g>
<!-- Node14&#45;&gt;Node13 -->
<g id="edge72" class="edge"><title>Node14&#45;&gt;Node13</title>
<path fill="none" stroke="midnightblue" d="M487.076,-224.352C461.924,-203.423 404.352,-149.044 435,-112 456.66,-85.8193 546.344,-74.736 608.691,-70.1375"/>
<polygon fill="midnightblue" stroke="midnightblue" points="609.101,-73.6175 618.833,-69.4283 608.613,-66.6345 609.101,-73.6175"/>
</g>
<!-- Node15 -->
<g id="node16" class="node"><title>Node15</title>
<g id="a_node16"><a xlink:href="instance_8hpp.html" target="_top" xlink:title="Module for the handling of instances or also called objects or points. ">
<polygon fill="white" stroke="black" points="210,-168.5 210,-187.5 282,-187.5 282,-168.5 210,-168.5"/>
<text text-anchor="middle" x="246" y="-175.5" font-family="Helvetica,sans-Serif" font-size="10.00">instance.hpp</text>
</a>
</g>
</g>
<!-- Node14&#45;&gt;Node15 -->
<g id="edge17" class="edge"><title>Node14&#45;&gt;Node15</title>
<path fill="none" stroke="midnightblue" d="M458.07,-224.444C412.945,-214.774 339.609,-199.059 292.091,-188.877"/>
<polygon fill="midnightblue" stroke="midnightblue" points="292.58,-185.402 282.069,-186.729 291.113,-192.247 292.58,-185.402"/>
</g>
<!-- Node20 -->
<g id="node21" class="node"><title>Node20</title>
<g id="a_node21"><a xlink:href="matrix_8hpp.html" target="_top" xlink:title="matrix ">
<polygon fill="white" stroke="black" points="1123,-168.5 1123,-187.5 1185,-187.5 1185,-168.5 1123,-168.5"/>
<text text-anchor="middle" x="1154" y="-175.5" font-family="Helvetica,sans-Serif" font-size="10.00">matrix.hpp</text>
</a>
</g>
</g>
<!-- Node14&#45;&gt;Node20 -->
<g id="edge31" class="edge"><title>Node14&#45;&gt;Node20</title>
<path fill="none" stroke="midnightblue" d="M572.613,-226.858C711.222,-215.448 1004.19,-191.332 1112.56,-182.411"/>
<polygon fill="midnightblue" stroke="midnightblue" points="1113.08,-185.88 1122.76,-181.572 1112.51,-178.904 1113.08,-185.88"/>
</g>
<!-- Node30 -->
<g id="node31" class="node"><title>Node30</title>
<g id="a_node31"><a xlink:href="matrix__triangular_8hpp.html" target="_top" xlink:title="matrix triangular ">
<polygon fill="white" stroke="black" points="444,-112.5 444,-131.5 552,-131.5 552,-112.5 444,-112.5"/>
<text text-anchor="middle" x="498" y="-119.5" font-family="Helvetica,sans-Serif" font-size="10.00">matrix_triangular.hpp</text>
</a>
</g>
</g>
<!-- Node14&#45;&gt;Node30 -->
<g id="edge60" class="edge"><title>Node14&#45;&gt;Node30</title>
<path fill="none" stroke="midnightblue" d="M498,-224.368C498,-206.617 498,-165.666 498,-141.597"/>
<polygon fill="midnightblue" stroke="midnightblue" points="501.5,-141.591 498,-131.591 494.5,-141.591 501.5,-141.591"/>
</g>
<!-- Node31 -->
<g id="node32" class="node"><title>Node31</title>
<g id="a_node32"><a xlink:href="dist_8hpp.html" target="_top" xlink:title="operations for the calculation of distances between objects ">
<polygon fill="white" stroke="black" points="300,-168.5 300,-187.5 350,-187.5 350,-168.5 300,-168.5"/>
<text text-anchor="middle" x="325" y="-175.5" font-family="Helvetica,sans-Serif" font-size="10.00">dist.hpp</text>
</a>
</g>
</g>
<!-- Node14&#45;&gt;Node31 -->
<g id="edge63" class="edge"><title>Node14&#45;&gt;Node31</title>
<path fill="none" stroke="midnightblue" d="M470.588,-224.444C440.54,-215.064 392.271,-199.998 359.628,-189.809"/>
<polygon fill="midnightblue" stroke="midnightblue" points="360.626,-186.454 350.037,-186.815 358.54,-193.136 360.626,-186.454"/>
</g>
<!-- Node32 -->
<g id="node33" class="node"><title>Node32</title>
<g id="a_node33"><a xlink:href="vector__utils_8hpp.html" target="_top" xlink:title="Operations for vector manipulation. ">
<polygon fill="white" stroke="black" points="570.5,-112.5 570.5,-131.5 655.5,-131.5 655.5,-112.5 570.5,-112.5"/>
<text text-anchor="middle" x="613" y="-119.5" font-family="Helvetica,sans-Serif" font-size="10.00">vector_utils.hpp</text>
</a>
</g>
</g>
<!-- Node14&#45;&gt;Node32 -->
<g id="edge65" class="edge"><title>Node14&#45;&gt;Node32</title>
<path fill="none" stroke="midnightblue" d="M507.024,-224.368C526.338,-205.894 571.921,-162.293 596.541,-138.744"/>
<polygon fill="midnightblue" stroke="midnightblue" points="599.211,-141.033 604.018,-131.591 594.372,-135.974 599.211,-141.033"/>
</g>
<!-- Node15&#45;&gt;Node10 -->
<g id="edge30" class="edge"><title>Node15&#45;&gt;Node10</title>
<path fill="none" stroke="midnightblue" d="M256.399,-168.426C273.484,-154.723 309,-127.825 343,-112 378.051,-95.6865 420.323,-83.9364 452.017,-76.5426"/>
<polygon fill="midnightblue" stroke="midnightblue" points="452.936,-79.9229 461.913,-74.2948 451.386,-73.0968 452.936,-79.9229"/>
</g>
<!-- Node15&#45;&gt;Node12 -->
<g id="edge19" class="edge"><title>Node15&#45;&gt;Node12</title>
<path fill="none" stroke="midnightblue" d="M209.839,-173.148C183.687,-168.259 150.067,-157.167 133,-132 117.802,-109.589 145.56,-100.543 157,-76 163.985,-61.0149 169.029,-42.8792 172.157,-29.5761"/>
<polygon fill="midnightblue" stroke="midnightblue" points="175.597,-30.2327 174.335,-19.7133 168.761,-28.7237 175.597,-30.2327"/>
</g>
<!-- Node16 -->
<g id="node17" class="node"><title>Node16</title>
<polygon fill="white" stroke="#bfbfbf" points="0,-0.5 0,-19.5 44,-19.5 44,-0.5 0,-0.5"/>
<text text-anchor="middle" x="22" y="-7.5" font-family="Helvetica,sans-Serif" font-size="10.00">cmath</text>
</g>
<!-- Node15&#45;&gt;Node16 -->
<g id="edge18" class="edge"><title>Node15&#45;&gt;Node16</title>
<path fill="none" stroke="midnightblue" d="M209.698,-171.294C160.401,-161.43 73.7669,-136.126 33,-76 23.8674,-62.5306 21.4862,-43.9716 21.1741,-30.1319"/>
<polygon fill="midnightblue" stroke="midnightblue" points="24.6773,-29.8726 21.2957,-19.8319 17.6778,-29.7899 24.6773,-29.8726"/>
</g>
<!-- Node17 -->
<g id="node18" class="node"><title>Node17</title>
<g id="a_node18"><a xlink:href="line__split_8hpp.html" target="_top" xlink:title="line split ">
<polygon fill="white" stroke="black" points="925.5,-112.5 925.5,-131.5 998.5,-131.5 998.5,-112.5 925.5,-112.5"/>
<text text-anchor="middle" x="962" y="-119.5" font-family="Helvetica,sans-Serif" font-size="10.00">line_split.hpp</text>
</a>
</g>
</g>
<!-- Node15&#45;&gt;Node17 -->
<g id="edge20" class="edge"><title>Node15&#45;&gt;Node17</title>
<path fill="none" stroke="midnightblue" d="M282.279,-169.304C285.222,-168.814 288.156,-168.37 291,-168 549.755,-134.335 616.972,-153.743 877,-132 889.362,-130.966 902.714,-129.648 915.091,-128.341"/>
<polygon fill="midnightblue" stroke="midnightblue" points="915.647,-131.802 925.215,-127.253 914.899,-124.842 915.647,-131.802"/>
</g>
<!-- Node17&#45;&gt;Node1 -->
<g id="edge25" class="edge"><title>Node17&#45;&gt;Node1</title>
<path fill="none" stroke="midnightblue" d="M967.78,-112.083C972.672,-104.534 979.827,-93.4948 985.833,-84.2298"/>
<polygon fill="midnightblue" stroke="midnightblue" points="988.826,-86.0463 991.328,-75.7511 982.952,-82.239 988.826,-86.0463"/>
</g>
<!-- Node17&#45;&gt;Node5 -->
<g id="edge21" class="edge"><title>Node17&#45;&gt;Node5</title>
<path fill="none" stroke="midnightblue" d="M931.735,-112.444C898.468,-103.038 844.969,-87.9127 808.927,-77.7227"/>
<polygon fill="midnightblue" stroke="midnightblue" points="809.83,-74.341 799.255,-74.9883 807.926,-81.077 809.83,-74.341"/>
</g>
<!-- Node17&#45;&gt;Node6 -->
<g id="edge23" class="edge"><title>Node17&#45;&gt;Node6</title>
<path fill="none" stroke="midnightblue" d="M954.569,-112.083C948.147,-104.377 938.694,-93.0333 930.878,-83.6531"/>
<polygon fill="midnightblue" stroke="midnightblue" points="933.383,-81.1927 924.293,-75.7511 928.006,-85.674 933.383,-81.1927"/>
</g>
<!-- Node17&#45;&gt;Node7 -->
<g id="edge22" class="edge"><title>Node17&#45;&gt;Node7</title>
<path fill="none" stroke="midnightblue" d="M981.331,-112.444C1001.32,-103.596 1032.74,-89.6875 1055.56,-79.5865"/>
<polygon fill="midnightblue" stroke="midnightblue" points="1057.03,-82.7645 1064.76,-75.5164 1054.2,-76.3635 1057.03,-82.7645"/>
</g>
<!-- Node17&#45;&gt;Node8 -->
<g id="edge26" class="edge"><title>Node17&#45;&gt;Node8</title>
<path fill="none" stroke="midnightblue" d="M943.461,-112.444C924.377,-103.636 894.425,-89.8116 872.564,-79.722"/>
<polygon fill="midnightblue" stroke="midnightblue" points="873.999,-76.5292 863.452,-75.5164 871.065,-82.8849 873.999,-76.5292"/>
</g>
<!-- Node17&#45;&gt;Node10 -->
<g id="edge28" class="edge"><title>Node17&#45;&gt;Node10</title>
<path fill="none" stroke="midnightblue" d="M925.282,-116.718C841.976,-107.002 638.727,-83.2965 546.231,-72.5085"/>
<polygon fill="midnightblue" stroke="midnightblue" points="546.381,-69.0025 536.043,-71.3204 545.57,-75.9553 546.381,-69.0025"/>
</g>
<!-- Node17&#45;&gt;Node13 -->
<g id="edge29" class="edge"><title>Node17&#45;&gt;Node13</title>
<path fill="none" stroke="midnightblue" d="M925.439,-114.216C875.614,-104.97 785.909,-88.3234 727.421,-77.4699"/>
<polygon fill="midnightblue" stroke="midnightblue" points="727.71,-73.9638 717.239,-75.5805 726.433,-80.8463 727.71,-73.9638"/>
</g>
<!-- Node18 -->
<g id="node19" class="node"><title>Node18</title>
<polygon fill="white" stroke="#bfbfbf" points="1146,-56.5 1146,-75.5 1206,-75.5 1206,-56.5 1146,-56.5"/>
<text text-anchor="middle" x="1176" y="-63.5" font-family="Helvetica,sans-Serif" font-size="10.00">stdexcept</text>
</g>
<!-- Node17&#45;&gt;Node18 -->
<g id="edge24" class="edge"><title>Node17&#45;&gt;Node18</title>
<path fill="none" stroke="midnightblue" d="M995.909,-112.444C1033.94,-102.848 1095.56,-87.2991 1135.93,-77.1111"/>
<polygon fill="midnightblue" stroke="midnightblue" points="1136.87,-80.4837 1145.71,-74.6433 1135.16,-73.6965 1136.87,-80.4837"/>
</g>
<!-- Node19 -->
<g id="node20" class="node"><title>Node19</title>
<polygon fill="white" stroke="#bfbfbf" points="1224,-56.5 1224,-75.5 1272,-75.5 1272,-56.5 1224,-56.5"/>
<text text-anchor="middle" x="1248" y="-63.5" font-family="Helvetica,sans-Serif" font-size="10.00">string.h</text>
</g>
<!-- Node17&#45;&gt;Node19 -->
<g id="edge27" class="edge"><title>Node17&#45;&gt;Node19</title>
<path fill="none" stroke="midnightblue" d="M998.657,-115.544C1046.17,-108.239 1131.77,-94.2885 1214.15,-76.0281"/>
<polygon fill="midnightblue" stroke="midnightblue" points="1214.92,-79.4415 1223.91,-73.839 1213.39,-72.611 1214.92,-79.4415"/>
</g>
<!-- Node20&#45;&gt;Node1 -->
<g id="edge41" class="edge"><title>Node20&#45;&gt;Node1</title>
<path fill="none" stroke="midnightblue" d="M1151.03,-168.151C1145.96,-154.312 1134.37,-127.525 1116,-112 1090.94,-90.8233 1054.9,-79.0715 1029.06,-72.9367"/>
<polygon fill="midnightblue" stroke="midnightblue" points="1029.53,-69.457 1019.01,-70.7109 1028.02,-76.2913 1029.53,-69.457"/>
</g>
<!-- Node20&#45;&gt;Node5 -->
<g id="edge32" class="edge"><title>Node20&#45;&gt;Node5</title>
<path fill="none" stroke="midnightblue" d="M1122.91,-177.385C1044.22,-177.719 839.842,-174.384 790,-132 776.725,-120.711 772.453,-100.705 771.208,-85.8605"/>
<polygon fill="midnightblue" stroke="midnightblue" points="774.699,-85.575 770.748,-75.7444 767.706,-85.8932 774.699,-85.575"/>
</g>
<!-- Node20&#45;&gt;Node7 -->
<g id="edge33" class="edge"><title>Node20&#45;&gt;Node7</title>
<path fill="none" stroke="midnightblue" d="M1155.56,-168.325C1157.45,-155.182 1159.25,-129.866 1149,-112 1141.14,-98.302 1127.21,-87.8263 1114.26,-80.4437"/>
<polygon fill="midnightblue" stroke="midnightblue" points="1115.58,-77.1831 1105.1,-75.6129 1112.31,-83.3745 1115.58,-77.1831"/>
</g>
<!-- Node20&#45;&gt;Node8 -->
<g id="edge39" class="edge"><title>Node20&#45;&gt;Node8</title>
<path fill="none" stroke="midnightblue" d="M1122.99,-176.481C1075.86,-174.549 984.439,-166.257 916,-132 892.764,-120.369 871.562,-98.8889 858.495,-83.814"/>
<polygon fill="midnightblue" stroke="midnightblue" points="860.89,-81.2225 851.788,-75.8012 855.523,-85.7158 860.89,-81.2225"/>
</g>
<!-- Node20&#45;&gt;Node17 -->
<g id="edge59" class="edge"><title>Node20&#45;&gt;Node17</title>
<path fill="none" stroke="midnightblue" d="M1123.58,-168.444C1090.72,-159.201 1038.22,-144.436 1002.03,-134.257"/>
<polygon fill="midnightblue" stroke="midnightblue" points="1002.85,-130.855 992.281,-131.516 1000.96,-137.593 1002.85,-130.855"/>
</g>
<!-- Node20&#45;&gt;Node18 -->
<g id="edge36" class="edge"><title>Node20&#45;&gt;Node18</title>
<path fill="none" stroke="midnightblue" d="M1185.23,-177.301C1219.46,-175.741 1272.97,-167.333 1299,-132 1304.27,-124.843 1304.09,-119.286 1299,-112 1289.16,-97.9157 1248.06,-84.7764 1216.05,-76.3756"/>
<polygon fill="midnightblue" stroke="midnightblue" points="1216.58,-72.8991 1206.02,-73.8194 1214.85,-79.682 1216.58,-72.8991"/>
</g>
<!-- Node20&#45;&gt;Node19 -->
<g id="edge40" class="edge"><title>Node20&#45;&gt;Node19</title>
<path fill="none" stroke="midnightblue" d="M1185.03,-172.798C1227.24,-166.372 1299.34,-152.634 1315,-132 1330.2,-111.966 1302.36,-92.3372 1278.07,-79.9829"/>
<polygon fill="midnightblue" stroke="midnightblue" points="1279.55,-76.815 1269.03,-75.6186 1276.51,-83.1186 1279.55,-76.815"/>
</g>
<!-- Node21 -->
<g id="node22" class="node"><title>Node21</title>
<polygon fill="white" stroke="#bfbfbf" points="1055,-112.5 1055,-131.5 1107,-131.5 1107,-112.5 1055,-112.5"/>
<text text-anchor="middle" x="1081" y="-119.5" font-family="Helvetica,sans-Serif" font-size="10.00">iomanip</text>
</g>
<!-- Node20&#45;&gt;Node21 -->
<g id="edge34" class="edge"><title>Node20&#45;&gt;Node21</title>
<path fill="none" stroke="midnightblue" d="M1142.27,-168.324C1131.16,-160.107 1114.26,-147.602 1101.02,-137.807"/>
<polygon fill="midnightblue" stroke="midnightblue" points="1103.06,-134.967 1092.94,-131.834 1098.9,-140.595 1103.06,-134.967"/>
</g>
<!-- Node22 -->
<g id="node23" class="node"><title>Node22</title>
<polygon fill="white" stroke="#bfbfbf" points="1306.5,-56.5 1306.5,-75.5 1357.5,-75.5 1357.5,-56.5 1306.5,-56.5"/>
<text text-anchor="middle" x="1332" y="-63.5" font-family="Helvetica,sans-Serif" font-size="10.00">typeinfo</text>
</g>
<!-- Node20&#45;&gt;Node22 -->
<g id="edge35" class="edge"><title>Node20&#45;&gt;Node22</title>
<path fill="none" stroke="midnightblue" d="M1185.17,-173.677C1231.28,-168.048 1314.13,-154.949 1332,-132 1342.07,-119.073 1340.71,-99.9016 1337.66,-85.7268"/>
<polygon fill="midnightblue" stroke="midnightblue" points="1340.94,-84.4371 1335.03,-75.6449 1334.17,-86.2046 1340.94,-84.4371"/>
</g>
<!-- Node23 -->
<g id="node24" class="node"><title>Node23</title>
<polygon fill="white" stroke="#bfbfbf" points="1384,-56.5 1384,-75.5 1422,-75.5 1422,-56.5 1384,-56.5"/>
<text text-anchor="middle" x="1403" y="-63.5" font-family="Helvetica,sans-Serif" font-size="10.00">utility</text>
</g>
<!-- Node20&#45;&gt;Node23 -->
<g id="edge37" class="edge"><title>Node20&#45;&gt;Node23</title>
<path fill="none" stroke="midnightblue" d="M1185.21,-176.002C1225.99,-173.389 1298.26,-164.166 1350,-132 1368.87,-120.27 1384.07,-99.433 1393.28,-84.5111"/>
<polygon fill="midnightblue" stroke="midnightblue" points="1396.4,-86.1109 1398.44,-75.7147 1390.36,-82.5685 1396.4,-86.1109"/>
</g>
<!-- Node24 -->
<g id="node25" class="node"><title>Node24</title>
<polygon fill="white" stroke="#bfbfbf" points="1444,-56.5 1444,-75.5 1494,-75.5 1494,-56.5 1444,-56.5"/>
<text text-anchor="middle" x="1469" y="-63.5" font-family="Helvetica,sans-Serif" font-size="10.00">cassert</text>
</g>
<!-- Node20&#45;&gt;Node24 -->
<g id="edge38" class="edge"><title>Node20&#45;&gt;Node24</title>
<path fill="none" stroke="midnightblue" d="M1185.35,-174.694C1229.47,-170.563 1311.66,-159.581 1376,-132 1404.94,-119.594 1434,-97.339 1451.74,-82.3712"/>
<polygon fill="midnightblue" stroke="midnightblue" points="1454.21,-84.8657 1459.5,-75.6838 1449.64,-79.5652 1454.21,-84.8657"/>
</g>
<!-- Node25 -->
<g id="node26" class="node"><title>Node25</title>
<g id="a_node26"><a xlink:href="matrix__base_8hpp.html" target="_top" xlink:title="matrix base ">
<polygon fill="white" stroke="black" points="1201.5,-112.5 1201.5,-131.5 1290.5,-131.5 1290.5,-112.5 1201.5,-112.5"/>
<text text-anchor="middle" x="1246" y="-119.5" font-family="Helvetica,sans-Serif" font-size="10.00">matrix_base.hpp</text>
</a>
</g>
</g>
<!-- Node20&#45;&gt;Node25 -->
<g id="edge42" class="edge"><title>Node20&#45;&gt;Node25</title>
<path fill="none" stroke="midnightblue" d="M1168.78,-168.324C1183.27,-159.822 1205.57,-146.729 1222.49,-136.797"/>
<polygon fill="midnightblue" stroke="midnightblue" points="1224.4,-139.735 1231.26,-131.655 1220.86,-133.698 1224.4,-139.735"/>
</g>
<!-- Node26 -->
<g id="node27" class="node"><title>Node26</title>
<g id="a_node27"><a xlink:href="linear__algebra__level1_8hpp.html" target="_top" xlink:title="linear algebra level1 ">
<polygon fill="white" stroke="black" points="142,-112.5 142,-131.5 274,-131.5 274,-112.5 142,-112.5"/>
<text text-anchor="middle" x="208" y="-119.5" font-family="Helvetica,sans-Serif" font-size="10.00">linear_algebra_level1.hpp</text>
</a>
</g>
</g>
<!-- Node20&#45;&gt;Node26 -->
<g id="edge53" class="edge"><title>Node20&#45;&gt;Node26</title>
<path fill="none" stroke="midnightblue" d="M1122.79,-175.219C991.271,-167.711 479.931,-138.522 284.513,-127.368"/>
<polygon fill="midnightblue" stroke="midnightblue" points="284.514,-123.862 274.331,-126.786 284.115,-130.851 284.514,-123.862"/>
</g>
<!-- Node25&#45;&gt;Node1 -->
<g id="edge50" class="edge"><title>Node25&#45;&gt;Node1</title>
<path fill="none" stroke="midnightblue" d="M1206.55,-112.444C1157.44,-101.794 1074.52,-83.8106 1029.1,-73.9623"/>
<polygon fill="midnightblue" stroke="midnightblue" points="1029.72,-70.5152 1019.21,-71.8162 1028.24,-77.3562 1029.72,-70.5152"/>
</g>
<!-- Node25&#45;&gt;Node5 -->
<g id="edge43" class="edge"><title>Node25&#45;&gt;Node5</title>
<path fill="none" stroke="midnightblue" d="M1201.45,-117.793C1123.04,-111.826 955.346,-97.6272 815,-76 813.093,-75.7061 811.143,-75.3849 809.177,-75.0444"/>
<polygon fill="midnightblue" stroke="midnightblue" points="809.8,-71.6004 799.33,-73.2187 808.524,-78.4831 809.8,-71.6004"/>
</g>
<!-- Node25&#45;&gt;Node7 -->
<g id="edge44" class="edge"><title>Node25&#45;&gt;Node7</title>
<path fill="none" stroke="midnightblue" d="M1220.33,-112.444C1193.08,-103.359 1149.82,-88.9388 1119.35,-78.7831"/>
<polygon fill="midnightblue" stroke="midnightblue" points="1120.14,-75.3584 1109.55,-75.5164 1117.93,-81.9992 1120.14,-75.3584"/>
</g>
<!-- Node25&#45;&gt;Node10 -->
<g id="edge51" class="edge"><title>Node25&#45;&gt;Node10</title>
<path fill="none" stroke="midnightblue" d="M1201.22,-117.892C1076.26,-109.209 725.342,-84.7563 610,-76 589.068,-74.411 565.926,-72.5509 546.212,-70.9356"/>
<polygon fill="midnightblue" stroke="midnightblue" points="546.499,-67.4474 536.246,-70.1159 545.925,-74.4239 546.499,-67.4474"/>
</g>
<!-- Node25&#45;&gt;Node13 -->
<g id="edge52" class="edge"><title>Node25&#45;&gt;Node13</title>
<path fill="none" stroke="midnightblue" d="M1201.4,-117.898C1112.39,-111.526 906.413,-95.8772 734,-76 733.78,-75.9747 733.561,-75.9492 733.34,-75.9236"/>
<polygon fill="midnightblue" stroke="midnightblue" points="733.577,-72.4266 723.226,-74.6832 732.725,-79.3745 733.577,-72.4266"/>
</g>
<!-- Node25&#45;&gt;Node18 -->
<g id="edge46" class="edge"><title>Node25&#45;&gt;Node18</title>
<path fill="none" stroke="midnightblue" d="M1234.75,-112.324C1224.2,-104.185 1208.2,-91.8395 1195.56,-82.0874"/>
<polygon fill="midnightblue" stroke="midnightblue" points="1197.51,-79.1707 1187.45,-75.8339 1193.23,-84.7132 1197.51,-79.1707"/>
</g>
<!-- Node25&#45;&gt;Node19 -->
<g id="edge49" class="edge"><title>Node25&#45;&gt;Node19</title>
<path fill="none" stroke="midnightblue" d="M1246.33,-112.083C1246.59,-105.006 1246.97,-94.8611 1247.3,-85.9865"/>
<polygon fill="midnightblue" stroke="midnightblue" points="1250.8,-85.8738 1247.68,-75.7511 1243.81,-85.6147 1250.8,-85.8738"/>
</g>
<!-- Node25&#45;&gt;Node22 -->
<g id="edge45" class="edge"><title>Node25&#45;&gt;Node22</title>
<path fill="none" stroke="midnightblue" d="M1259.82,-112.324C1273.23,-103.9 1293.82,-90.9709 1309.59,-81.0741"/>
<polygon fill="midnightblue" stroke="midnightblue" points="1311.61,-83.9364 1318.22,-75.6545 1307.89,-78.0081 1311.61,-83.9364"/>
</g>
<!-- Node25&#45;&gt;Node23 -->
<g id="edge47" class="edge"><title>Node25&#45;&gt;Node23</title>
<path fill="none" stroke="midnightblue" d="M1270.88,-112.444C1298.88,-102.813 1344.31,-87.1868 1373.92,-77.0011"/>
<polygon fill="midnightblue" stroke="midnightblue" points="1375.37,-80.2061 1383.68,-73.6439 1373.09,-73.5867 1375.37,-80.2061"/>
</g>
<!-- Node25&#45;&gt;Node24 -->
<g id="edge48" class="edge"><title>Node25&#45;&gt;Node24</title>
<path fill="none" stroke="midnightblue" d="M1281.34,-112.444C1323.11,-102.327 1392.22,-85.5934 1433.89,-75.5011"/>
<polygon fill="midnightblue" stroke="midnightblue" points="1434.97,-78.8417 1443.87,-73.0865 1433.32,-72.0383 1434.97,-78.8417"/>
</g>
<!-- Node27 -->
<g id="node28" class="node"><title>Node27</title>
<g id="a_node28"><a xlink:href="interface__level1_8hpp.html" target="_top" xlink:title="Interface_level 1. ">
<polygon fill="white" stroke="black" points="42,-56.5 42,-75.5 148,-75.5 148,-56.5 42,-56.5"/>
<text text-anchor="middle" x="95" y="-63.5" font-family="Helvetica,sans-Serif" font-size="10.00">interface_level1.hpp</text>
</a>
</g>
</g>
<!-- Node26&#45;&gt;Node27 -->
<g id="edge54" class="edge"><title>Node26&#45;&gt;Node27</title>
<path fill="none" stroke="midnightblue" d="M190.095,-112.444C171.746,-103.675 142.995,-89.9355 121.906,-79.8579"/>
<polygon fill="midnightblue" stroke="midnightblue" points="123.353,-76.6703 112.821,-75.5164 120.335,-82.9862 123.353,-76.6703"/>
</g>
<!-- Node27&#45;&gt;Node12 -->
<g id="edge57" class="edge"><title>Node27&#45;&gt;Node12</title>
<path fill="none" stroke="midnightblue" d="M108.014,-56.324C120.532,-47.979 139.682,-35.2122 154.471,-25.3524"/>
<polygon fill="midnightblue" stroke="midnightblue" points="156.639,-28.1137 163.018,-19.6545 152.756,-22.2894 156.639,-28.1137"/>
</g>
<!-- Node27&#45;&gt;Node16 -->
<g id="edge58" class="edge"><title>Node27&#45;&gt;Node16</title>
<path fill="none" stroke="midnightblue" d="M83.2713,-56.324C72.1626,-48.1066 55.2578,-35.6017 42.0167,-25.8069"/>
<polygon fill="midnightblue" stroke="midnightblue" points="44.0631,-22.9671 33.9421,-19.8339 39.9001,-28.5948 44.0631,-22.9671"/>
</g>
<!-- Node28 -->
<g id="node29" class="node"><title>Node28</title>
<polygon fill="white" stroke="#bfbfbf" points="544,-0.5 544,-19.5 602,-19.5 602,-0.5 544,-0.5"/>
<text text-anchor="middle" x="573" y="-7.5" font-family="Helvetica,sans-Serif" font-size="10.00">algorithm</text>
</g>
<!-- Node27&#45;&gt;Node28 -->
<g id="edge55" class="edge"><title>Node27&#45;&gt;Node28</title>
<path fill="none" stroke="midnightblue" d="M148.262,-61.3705C230.654,-55.3359 393.831,-41.71 531,-20 531.902,-19.8572 532.814,-19.7074 533.733,-19.5518"/>
<polygon fill="midnightblue" stroke="midnightblue" points="534.509,-22.9676 543.703,-17.7011 533.232,-16.0851 534.509,-22.9676"/>
</g>
<!-- Node29 -->
<g id="node30" class="node"><title>Node29</title>
<polygon fill="white" stroke="#bfbfbf" points="69,-0.5 69,-19.5 121,-19.5 121,-0.5 69,-0.5"/>
<text text-anchor="middle" x="95" y="-7.5" font-family="Helvetica,sans-Serif" font-size="10.00">numeric</text>
</g>
<!-- Node27&#45;&gt;Node29 -->
<g id="edge56" class="edge"><title>Node27&#45;&gt;Node29</title>
<path fill="none" stroke="midnightblue" d="M95,-56.083C95,-49.0059 95,-38.8611 95,-29.9865"/>
<polygon fill="midnightblue" stroke="midnightblue" points="98.5001,-29.751 95,-19.7511 91.5001,-29.7511 98.5001,-29.751"/>
</g>
<!-- Node30&#45;&gt;Node5 -->
<g id="edge61" class="edge"><title>Node30&#45;&gt;Node5</title>
<path fill="none" stroke="midnightblue" d="M545.163,-112.457C592.495,-103.76 667.443,-89.6514 732,-76 732.331,-75.9299 732.664,-75.8592 732.999,-75.788"/>
<polygon fill="midnightblue" stroke="midnightblue" points="733.891,-79.1755 742.908,-73.6127 732.39,-72.3383 733.891,-79.1755"/>
</g>
<!-- Node30&#45;&gt;Node10 -->
<g id="edge62" class="edge"><title>Node30&#45;&gt;Node10</title>
<path fill="none" stroke="midnightblue" d="M498.165,-112.083C498.296,-105.006 498.484,-94.8611 498.648,-85.9865"/>
<polygon fill="midnightblue" stroke="midnightblue" points="502.152,-85.8142 498.838,-75.7511 495.153,-85.6845 502.152,-85.8142"/>
</g>
<!-- Node31&#45;&gt;Node10 -->
<g id="edge64" class="edge"><title>Node31&#45;&gt;Node10</title>
<path fill="none" stroke="midnightblue" d="M328.037,-168.063C333.228,-154.102 345.112,-127.152 364,-112 389.23,-91.7611 423.963,-80.4536 451.879,-74.2356"/>
<polygon fill="midnightblue" stroke="midnightblue" points="452.748,-77.63 461.826,-72.1679 451.323,-70.7766 452.748,-77.63"/>
</g>
<!-- Node32&#45;&gt;Node1 -->
<g id="edge67" class="edge"><title>Node32&#45;&gt;Node1</title>
<path fill="none" stroke="midnightblue" d="M655.551,-113.327C658.408,-112.863 661.244,-112.416 664,-112 791.117,-92.8235 824.066,-96.3539 951,-76 955.459,-75.2849 960.147,-74.4569 964.755,-73.5985"/>
<polygon fill="midnightblue" stroke="midnightblue" points="965.437,-77.0316 974.594,-71.7029 964.112,-70.158 965.437,-77.0316"/>
</g>
<!-- Node32&#45;&gt;Node5 -->
<g id="edge66" class="edge"><title>Node32&#45;&gt;Node5</title>
<path fill="none" stroke="midnightblue" d="M638.036,-112.444C664.616,-103.359 706.809,-88.9388 736.523,-78.7831"/>
<polygon fill="midnightblue" stroke="midnightblue" points="737.751,-82.0625 746.082,-75.5164 735.487,-75.4386 737.751,-82.0625"/>
</g>
<!-- Node32&#45;&gt;Node8 -->
<g id="edge68" class="edge"><title>Node32&#45;&gt;Node8</title>
<path fill="none" stroke="midnightblue" d="M650.778,-112.421C690.084,-103.462 753.401,-88.9398 808,-76 810.06,-75.5117 812.185,-75.0046 814.324,-74.4912"/>
<polygon fill="midnightblue" stroke="midnightblue" points="815.369,-77.8396 824.267,-72.0888 813.725,-71.0354 815.369,-77.8396"/>
</g>
<!-- Node32&#45;&gt;Node10 -->
<g id="edge70" class="edge"><title>Node32&#45;&gt;Node10</title>
<path fill="none" stroke="midnightblue" d="M594.936,-112.444C576.425,-103.675 547.419,-89.9355 526.145,-79.8579"/>
<polygon fill="midnightblue" stroke="midnightblue" points="527.515,-76.6343 516.979,-75.5164 524.518,-82.9604 527.515,-76.6343"/>
</g>
<!-- Node32&#45;&gt;Node13 -->
<g id="edge71" class="edge"><title>Node32&#45;&gt;Node13</title>
<path fill="none" stroke="midnightblue" d="M622.319,-112.324C630.893,-104.341 643.812,-92.3128 654.188,-82.6529"/>
<polygon fill="midnightblue" stroke="midnightblue" points="656.578,-85.2098 661.512,-75.8339 651.808,-80.0865 656.578,-85.2098"/>
</g>
<!-- Node32&#45;&gt;Node28 -->
<g id="edge69" class="edge"><title>Node32&#45;&gt;Node28</title>
<path fill="none" stroke="midnightblue" d="M609.861,-112.368C603.377,-94.5366 588.38,-53.2953 579.644,-29.2717"/>
<polygon fill="midnightblue" stroke="midnightblue" points="582.831,-27.7932 576.124,-19.5914 576.252,-30.1855 582.831,-27.7932"/>
</g>
</g>
</svg>
