<?xml version="1.0" encoding="UTF-8" standalone="no"?>
<!DOCTYPE svg PUBLIC "-//W3C//DTD SVG 1.1//EN"
 "http://www.w3.org/Graphics/SVG/1.1/DTD/svg11.dtd">
<!-- Generated by graphviz version 2.38.0 (20140413.2041)
 -->
<!-- Title: include/container_out.hpp Pages: 1 -->
<svg width="2845pt" height="542pt"
 viewBox="0.00 0.00 2844.50 542.00" xmlns="http://www.w3.org/2000/svg" xmlns:xlink="http://www.w3.org/1999/xlink">
<g id="graph0" class="graph" transform="scale(1 1) rotate(0) translate(4 538)">
<title>include/container_out.hpp</title>
<polygon fill="white" stroke="none" points="-4,4 -4,-538 2840.5,-538 2840.5,4 -4,4"/>
<!-- Node14 -->
<g id="node1" class="node"><title>Node14</title>
<g id="a_node1"><a xlink:title="container out">
<polygon fill="#bfbfbf" stroke="black" points="1682.5,-514.5 1682.5,-533.5 1812.5,-533.5 1812.5,-514.5 1682.5,-514.5"/>
<text text-anchor="middle" x="1747.5" y="-521.5" font-family="Helvetica,sans-Serif" font-size="10.00">include/container_out.hpp</text>
</a>
</g>
</g>
<!-- Node15 -->
<g id="node2" class="node"><title>Node15</title>
<g id="a_node2"><a xlink:href="partition__linked__stats_8hpp.html" target="_top" xlink:title="Linked partition data structure with statistics.">
<polygon fill="white" stroke="black" points="1196,-313.5 1196,-343.5 1315,-343.5 1315,-313.5 1196,-313.5"/>
<text text-anchor="start" x="1204" y="-331.5" font-family="Helvetica,sans-Serif" font-size="10.00">include/partition_linked</text>
<text text-anchor="middle" x="1255.5" y="-320.5" font-family="Helvetica,sans-Serif" font-size="10.00">_stats.hpp</text>
</a>
</g>
</g>
<!-- Node14&#45;&gt;Node15 -->
<g id="edge1" class="edge"><title>Node14&#45;&gt;Node15</title>
<path fill="none" stroke="midnightblue" d="M1692.59,-512.368C1656.25,-504.601 1607.87,-492.847 1566.5,-478 1456.12,-438.386 1332.46,-372.383 1280.55,-343.62"/>
<polygon fill="midnightblue" stroke="midnightblue" points="1691.99,-515.819 1702.5,-514.452 1693.43,-508.969 1691.99,-515.819"/>
</g>
<!-- Node25 -->
<g id="node12" class="node"><title>Node25</title>
<g id="a_node12"><a xlink:href="gaclustering__vktreebinary_8hpp.html" target="_top" xlink:title="GA Clustering &#160;x.">
<polygon fill="white" stroke="black" points="2522.5,-0.5 2522.5,-19.5 2692.5,-19.5 2692.5,-0.5 2522.5,-0.5"/>
<text text-anchor="middle" x="2607.5" y="-7.5" font-family="Helvetica,sans-Serif" font-size="10.00">eac/gaclustering_vktreebinary.hpp</text>
</a>
</g>
</g>
<!-- Node14&#45;&gt;Node25 -->
<g id="edge62" class="edge"><title>Node14&#45;&gt;Node25</title>
<path fill="none" stroke="midnightblue" d="M1822.53,-519.57C1854.88,-514.269 1890.67,-502.655 1914.5,-478 1940.35,-451.255 1933.5,-433.694 1933.5,-396.5 1933.5,-396.5 1933.5,-396.5 1933.5,-126.5 1933.5,25.9256 2151.43,-52.1438 2513.5,-20 2516.44,-19.7391 2519.43,-19.4703 2522.45,-19.1961"/>
<polygon fill="midnightblue" stroke="midnightblue" points="1822,-516.109 1812.62,-521.02 1823.02,-523.035 1822,-516.109"/>
</g>
<!-- Node37 -->
<g id="node24" class="node"><title>Node37</title>
<g id="a_node24"><a xlink:href="tgca__vkcentroid_8hpp.html" target="_top" xlink:title="TGCA .">
<polygon fill="white" stroke="black" points="2710.5,-0.5 2710.5,-19.5 2836.5,-19.5 2836.5,-0.5 2710.5,-0.5"/>
<text text-anchor="middle" x="2773.5" y="-7.5" font-family="Helvetica,sans-Serif" font-size="10.00">eac/tgca_vkcentroid.hpp</text>
</a>
</g>
</g>
<!-- Node14&#45;&gt;Node37 -->
<g id="edge63" class="edge"><title>Node14&#45;&gt;Node37</title>
<path fill="none" stroke="midnightblue" d="M1822.59,-513.26C1932.31,-496.898 2123.5,-459.364 2123.5,-396.5 2123.5,-396.5 2123.5,-396.5 2123.5,-126.5 2123.5,-96.8971 2546.95,-39.8376 2710.29,-18.9286"/>
<polygon fill="midnightblue" stroke="midnightblue" points="1821.95,-509.817 1812.56,-514.731 1822.97,-516.743 1821.95,-509.817"/>
</g>
<!-- Node42 -->
<g id="node29" class="node"><title>Node42</title>
<g id="a_node29"><a xlink:href="partition__linked__numinst_8hpp.html" target="_top" xlink:title="Linked partition data structure with number of instances.">
<polygon fill="white" stroke="black" points="1610,-447.5 1610,-477.5 1729,-477.5 1729,-447.5 1610,-447.5"/>
<text text-anchor="start" x="1618" y="-465.5" font-family="Helvetica,sans-Serif" font-size="10.00">include/partition_linked</text>
<text text-anchor="middle" x="1669.5" y="-454.5" font-family="Helvetica,sans-Serif" font-size="10.00">_numinst.hpp</text>
</a>
</g>
</g>
<!-- Node14&#45;&gt;Node42 -->
<g id="edge35" class="edge"><title>Node14&#45;&gt;Node42</title>
<path fill="none" stroke="midnightblue" d="M1728.09,-508.195C1715.79,-498.813 1699.98,-486.751 1687.88,-477.523"/>
<polygon fill="midnightblue" stroke="midnightblue" points="1726.25,-511.193 1736.32,-514.475 1730.5,-505.627 1726.25,-511.193"/>
</g>
<!-- Node43 -->
<g id="node30" class="node"><title>Node43</title>
<g id="a_node30"><a xlink:href="unsupervised__measures_8hpp.html" target="_top" xlink:title="Unsupervised measures.">
<polygon fill="white" stroke="black" points="1613.5,-380.5 1613.5,-410.5 1725.5,-410.5 1725.5,-380.5 1613.5,-380.5"/>
<text text-anchor="start" x="1621.5" y="-398.5" font-family="Helvetica,sans-Serif" font-size="10.00">include/unsupervised</text>
<text text-anchor="middle" x="1669.5" y="-387.5" font-family="Helvetica,sans-Serif" font-size="10.00">_measures.hpp</text>
</a>
</g>
</g>
<!-- Node14&#45;&gt;Node43 -->
<g id="edge43" class="edge"><title>Node14&#45;&gt;Node43</title>
<path fill="none" stroke="midnightblue" d="M1672.55,-518.181C1645.41,-512.366 1617.32,-500.742 1600.5,-478 1592.31,-466.923 1594.27,-459.287 1600.5,-447 1608.56,-431.114 1624.22,-419.025 1638.59,-410.664"/>
<polygon fill="midnightblue" stroke="midnightblue" points="1672.01,-521.64 1682.49,-520.07 1673.32,-514.763 1672.01,-521.64"/>
</g>
<!-- Node46 -->
<g id="node33" class="node"><title>Node46</title>
<g id="a_node33"><a xlink:href="partition__label_8hpp.html" target="_top" xlink:title="Partition based on the label of the instances.">
<polygon fill="white" stroke="black" points="1478,-319 1478,-338 1609,-338 1609,-319 1478,-319"/>
<text text-anchor="middle" x="1543.5" y="-326" font-family="Helvetica,sans-Serif" font-size="10.00">include/partition_label.hpp</text>
</a>
</g>
</g>
<!-- Node14&#45;&gt;Node46 -->
<g id="edge44" class="edge"><title>Node14&#45;&gt;Node46</title>
<path fill="none" stroke="midnightblue" d="M1672.41,-516.322C1643.91,-510.268 1613.14,-498.965 1591.5,-478 1550.63,-438.411 1544.51,-363.845 1543.63,-338.326"/>
<polygon fill="midnightblue" stroke="midnightblue" points="1671.89,-519.787 1682.38,-518.252 1673.22,-512.915 1671.89,-519.787"/>
</g>
<!-- Node47 -->
<g id="node34" class="node"><title>Node47</title>
<g id="a_node34"><a xlink:href="clustering__operator__hierarchical_8hpp.html" target="_top" xlink:title="Clustering operator hierarchical.">
<polygon fill="white" stroke="black" points="1961.5,-112.5 1961.5,-142.5 2095.5,-142.5 2095.5,-112.5 1961.5,-112.5"/>
<text text-anchor="start" x="1969.5" y="-130.5" font-family="Helvetica,sans-Serif" font-size="10.00">include/clustering</text>
<text text-anchor="middle" x="2028.5" y="-119.5" font-family="Helvetica,sans-Serif" font-size="10.00">_operator_hierarchical.hpp</text>
</a>
</g>
</g>
<!-- Node14&#45;&gt;Node47 -->
<g id="edge50" class="edge"><title>Node14&#45;&gt;Node47</title>
<path fill="none" stroke="midnightblue" d="M1822.97,-516.801C1897.53,-506.058 2000.5,-476.703 2000.5,-396.5 2000.5,-396.5 2000.5,-396.5 2000.5,-260.5 2000.5,-216.692 2015.44,-166.452 2023.49,-142.551"/>
<polygon fill="midnightblue" stroke="midnightblue" points="1822.09,-513.387 1812.65,-518.196 1823.03,-520.324 1822.09,-513.387"/>
</g>
<!-- Node48 -->
<g id="node35" class="node"><title>Node48</title>
<g id="a_node35"><a xlink:href="probability__distribution_8hpp.html" target="_top" xlink:title="probability distribution">
<polygon fill="white" stroke="black" points="1104,-246.5 1104,-276.5 1201,-276.5 1201,-246.5 1104,-246.5"/>
<text text-anchor="start" x="1112" y="-264.5" font-family="Helvetica,sans-Serif" font-size="10.00">include/probability</text>
<text text-anchor="middle" x="1152.5" y="-253.5" font-family="Helvetica,sans-Serif" font-size="10.00">_distribution.hpp</text>
</a>
</g>
</g>
<!-- Node14&#45;&gt;Node48 -->
<g id="edge53" class="edge"><title>Node14&#45;&gt;Node48</title>
<path fill="none" stroke="midnightblue" d="M1672.11,-514.962C1619.58,-508.153 1548.31,-496.487 1487.5,-478 1347.39,-435.41 1288.82,-448.761 1186.5,-344 1167.97,-325.025 1158.96,-294.477 1155.06,-276.662"/>
<polygon fill="midnightblue" stroke="midnightblue" points="1672,-518.475 1682.36,-516.259 1672.87,-511.531 1672,-518.475"/>
</g>
<!-- Node49 -->
<g id="node36" class="node"><title>Node49</title>
<g id="a_node36"><a xlink:href="partition__labelvector_8hpp.html" target="_top" xlink:title="Partition based on the label vector.">
<polygon fill="white" stroke="black" points="1747,-453 1747,-472 1906,-472 1906,-453 1747,-453"/>
<text text-anchor="middle" x="1826.5" y="-460" font-family="Helvetica,sans-Serif" font-size="10.00">include/partition_labelvector.hpp</text>
</a>
</g>
</g>
<!-- Node14&#45;&gt;Node49 -->
<g id="edge57" class="edge"><title>Node14&#45;&gt;Node49</title>
<path fill="none" stroke="midnightblue" d="M1767.03,-508.294C1782.18,-496.88 1802.66,-481.458 1815.2,-472.009"/>
<polygon fill="midnightblue" stroke="midnightblue" points="1764.7,-505.663 1758.82,-514.475 1768.91,-511.255 1764.7,-505.663"/>
</g>
<!-- Node50 -->
<g id="node37" class="node"><title>Node50</title>
<g id="a_node37"><a xlink:href="instances__read_8hpp.html" target="_top" xlink:title="instances read">
<polygon fill="white" stroke="black" points="2164,-447.5 2164,-477.5 2285,-477.5 2285,-447.5 2164,-447.5"/>
<text text-anchor="start" x="2172" y="-465.5" font-family="Helvetica,sans-Serif" font-size="10.00">include_inout/instances</text>
<text text-anchor="middle" x="2224.5" y="-454.5" font-family="Helvetica,sans-Serif" font-size="10.00">_read.hpp</text>
</a>
</g>
</g>
<!-- Node14&#45;&gt;Node50 -->
<g id="edge59" class="edge"><title>Node14&#45;&gt;Node50</title>
<path fill="none" stroke="midnightblue" d="M1823.14,-515.411C1901.82,-507.25 2028.5,-493.361 2137.5,-478 2145.99,-476.803 2154.93,-475.436 2163.72,-474.031"/>
<polygon fill="midnightblue" stroke="midnightblue" points="1822.43,-511.966 1812.84,-516.475 1823.14,-518.929 1822.43,-511.966"/>
</g>
<!-- Node16 -->
<g id="node3" class="node"><title>Node16</title>
<g id="a_node3"><a xlink:href="chromosome__cbga_8hpp.html" target="_top" xlink:title="chromosome CBGA">
<polygon fill="white" stroke="black" points="1255,-179.5 1255,-209.5 1366,-209.5 1366,-179.5 1255,-179.5"/>
<text text-anchor="start" x="1263" y="-197.5" font-family="Helvetica,sans-Serif" font-size="10.00">include/chromosome</text>
<text text-anchor="middle" x="1310.5" y="-186.5" font-family="Helvetica,sans-Serif" font-size="10.00">_cbga.hpp</text>
</a>
</g>
</g>
<!-- Node15&#45;&gt;Node16 -->
<g id="edge2" class="edge"><title>Node15&#45;&gt;Node16</title>
<path fill="none" stroke="midnightblue" d="M1265.24,-304.116C1276.67,-276.682 1295.26,-232.086 1304.66,-209.525"/>
<polygon fill="midnightblue" stroke="midnightblue" points="1262,-302.797 1261.39,-313.374 1268.46,-305.489 1262,-302.797"/>
</g>
<!-- Node38 -->
<g id="node25" class="node"><title>Node38</title>
<g id="a_node25"><a xlink:href="clustering__operator__centroids_8hpp.html" target="_top" xlink:title="clustering operator centroids">
<polygon fill="white" stroke="black" points="1334.5,-246.5 1334.5,-276.5 1458.5,-276.5 1458.5,-246.5 1334.5,-246.5"/>
<text text-anchor="start" x="1342.5" y="-264.5" font-family="Helvetica,sans-Serif" font-size="10.00">include/clustering</text>
<text text-anchor="middle" x="1396.5" y="-253.5" font-family="Helvetica,sans-Serif" font-size="10.00">_operator_centroids.hpp</text>
</a>
</g>
</g>
<!-- Node15&#45;&gt;Node38 -->
<g id="edge24" class="edge"><title>Node15&#45;&gt;Node38</title>
<path fill="none" stroke="midnightblue" d="M1295.35,-309.131C1317.75,-298.802 1345.28,-286.11 1365.96,-276.577"/>
<polygon fill="midnightblue" stroke="midnightblue" points="1293.71,-306.031 1286.09,-313.396 1296.64,-312.388 1293.71,-306.031"/>
</g>
<!-- Node17 -->
<g id="node4" class="node"><title>Node17</title>
<g id="a_node4"><a xlink:href="ga__clustering__operator_8hpp.html" target="_top" xlink:title="genetic operators oriented to clustering">
<polygon fill="white" stroke="black" points="1180.5,-112.5 1180.5,-142.5 1292.5,-142.5 1292.5,-112.5 1180.5,-112.5"/>
<text text-anchor="start" x="1188.5" y="-130.5" font-family="Helvetica,sans-Serif" font-size="10.00">include/ga_clustering</text>
<text text-anchor="middle" x="1236.5" y="-119.5" font-family="Helvetica,sans-Serif" font-size="10.00">_operator.hpp</text>
</a>
</g>
</g>
<!-- Node16&#45;&gt;Node17 -->
<g id="edge3" class="edge"><title>Node16&#45;&gt;Node17</title>
<path fill="none" stroke="midnightblue" d="M1286.7,-172.598C1275.53,-162.783 1262.51,-151.344 1252.53,-142.577"/>
<polygon fill="midnightblue" stroke="midnightblue" points="1284.62,-175.426 1294.44,-179.396 1289.24,-170.167 1284.62,-175.426"/>
</g>
<!-- Node18 -->
<g id="node5" class="node"><title>Node18</title>
<g id="a_node5"><a xlink:href="leac_8hpp.html" target="_top" xlink:title="LEAC.">
<polygon fill="white" stroke="black" points="1426,-56.5 1426,-75.5 1515,-75.5 1515,-56.5 1426,-56.5"/>
<text text-anchor="middle" x="1470.5" y="-63.5" font-family="Helvetica,sans-Serif" font-size="10.00">include/leac.hpp</text>
</a>
</g>
</g>
<!-- Node17&#45;&gt;Node18 -->
<g id="edge4" class="edge"><title>Node17&#45;&gt;Node18</title>
<path fill="none" stroke="midnightblue" d="M1301.42,-109.993C1345.44,-98.8005 1401.81,-84.4663 1437.05,-75.5064"/>
<polygon fill="midnightblue" stroke="midnightblue" points="1300.49,-106.618 1291.66,-112.475 1302.21,-113.402 1300.49,-106.618"/>
</g>
<!-- Node19 -->
<g id="node6" class="node"><title>Node19</title>
<g id="a_node6"><a xlink:href="cbga__fkcentroid_8hpp.html" target="_top" xlink:title="CBGA .">
<polygon fill="white" stroke="black" points="1105.5,-0.5 1105.5,-19.5 1231.5,-19.5 1231.5,-0.5 1105.5,-0.5"/>
<text text-anchor="middle" x="1168.5" y="-7.5" font-family="Helvetica,sans-Serif" font-size="10.00">eac/cbga_fkcentroid.hpp</text>
</a>
</g>
</g>
<!-- Node18&#45;&gt;Node19 -->
<g id="edge5" class="edge"><title>Node18&#45;&gt;Node19</title>
<path fill="none" stroke="midnightblue" d="M1416.03,-55.2611C1359.07,-45.0758 1270.55,-29.2474 1216.24,-19.536"/>
<polygon fill="midnightblue" stroke="midnightblue" points="1415.48,-58.7172 1425.94,-57.0321 1416.71,-51.8265 1415.48,-58.7172"/>
</g>
<!-- Node20 -->
<g id="node7" class="node"><title>Node20</title>
<g id="a_node7"><a xlink:href="cga__vklabel_8hpp.html" target="_top" xlink:title="CGA &#160;&#160;.">
<polygon fill="white" stroke="black" points="1249.5,-0.5 1249.5,-19.5 1359.5,-19.5 1359.5,-0.5 1249.5,-0.5"/>
<text text-anchor="middle" x="1304.5" y="-7.5" font-family="Helvetica,sans-Serif" font-size="10.00">eac/cga_vklabel.hpp</text>
</a>
</g>
</g>
<!-- Node18&#45;&gt;Node20 -->
<g id="edge6" class="edge"><title>Node18&#45;&gt;Node20</title>
<path fill="none" stroke="midnightblue" d="M1434.55,-53.3044C1403.27,-43.1294 1358.68,-28.6246 1330.68,-19.5164"/>
<polygon fill="midnightblue" stroke="midnightblue" points="1433.6,-56.6783 1444.2,-56.4435 1435.77,-50.0217 1433.6,-56.6783"/>
</g>
<!-- Node21 -->
<g id="node8" class="node"><title>Node21</title>
<g id="a_node8"><a xlink:href="clustering__vksubclusterbinary_8hpp.html" target="_top" xlink:title="CLUSTERING .">
<polygon fill="white" stroke="black" points="1378,-0.5 1378,-19.5 1563,-19.5 1563,-0.5 1378,-0.5"/>
<text text-anchor="middle" x="1470.5" y="-7.5" font-family="Helvetica,sans-Serif" font-size="10.00">eac/clustering_vksubclusterbinary.hpp</text>
</a>
</g>
</g>
<!-- Node18&#45;&gt;Node21 -->
<g id="edge7" class="edge"><title>Node18&#45;&gt;Node21</title>
<path fill="none" stroke="midnightblue" d="M1470.5,-45.8045C1470.5,-36.9102 1470.5,-26.7798 1470.5,-19.7511"/>
<polygon fill="midnightblue" stroke="midnightblue" points="1467,-46.083 1470.5,-56.083 1474,-46.083 1467,-46.083"/>
</g>
<!-- Node22 -->
<g id="node9" class="node"><title>Node22</title>
<g id="a_node9"><a xlink:href="feac__vklabel_8hpp.html" target="_top" xlink:title="EAC, EACI, EACII, EACIII and FEAC &#160;and .">
<polygon fill="white" stroke="black" points="1580.5,-0.5 1580.5,-19.5 1692.5,-19.5 1692.5,-0.5 1580.5,-0.5"/>
<text text-anchor="middle" x="1636.5" y="-7.5" font-family="Helvetica,sans-Serif" font-size="10.00">eac/feac_vklabel.hpp</text>
</a>
</g>
</g>
<!-- Node18&#45;&gt;Node22 -->
<g id="edge8" class="edge"><title>Node18&#45;&gt;Node22</title>
<path fill="none" stroke="midnightblue" d="M1506.45,-53.3044C1537.73,-43.1294 1582.32,-28.6246 1610.32,-19.5164"/>
<polygon fill="midnightblue" stroke="midnightblue" points="1505.23,-50.0217 1496.8,-56.4435 1507.4,-56.6783 1505.23,-50.0217"/>
</g>
<!-- Node23 -->
<g id="node10" class="node"><title>Node23</title>
<g id="a_node10"><a xlink:href="gaclustering__fkcrispmatrix_8hpp.html" target="_top" xlink:title="GA CLUSTERING .">
<polygon fill="white" stroke="black" points="1710.5,-0.5 1710.5,-19.5 1880.5,-19.5 1880.5,-0.5 1710.5,-0.5"/>
<text text-anchor="middle" x="1795.5" y="-7.5" font-family="Helvetica,sans-Serif" font-size="10.00">eac/gaclustering_fkcrispmatrix.hpp</text>
</a>
</g>
</g>
<!-- Node18&#45;&gt;Node23 -->
<g id="edge9" class="edge"><title>Node18&#45;&gt;Node23</title>
<path fill="none" stroke="midnightblue" d="M1525.24,-55.9054C1586.39,-45.7438 1684.63,-29.4209 1744.31,-19.5052"/>
<polygon fill="midnightblue" stroke="midnightblue" points="1524.3,-52.5129 1515.01,-57.6048 1525.45,-59.4183 1524.3,-52.5129"/>
</g>
<!-- Node24 -->
<g id="node11" class="node"><title>Node24</title>
<g id="a_node11"><a xlink:href="gaclustering__fklabel_8hpp.html" target="_top" xlink:title="GA Clustering .">
<polygon fill="white" stroke="black" points="1898.5,-0.5 1898.5,-19.5 2042.5,-19.5 2042.5,-0.5 1898.5,-0.5"/>
<text text-anchor="middle" x="1970.5" y="-7.5" font-family="Helvetica,sans-Serif" font-size="10.00">eac/gaclustering_fklabel.hpp</text>
</a>
</g>
</g>
<!-- Node18&#45;&gt;Node24 -->
<g id="edge10" class="edge"><title>Node18&#45;&gt;Node24</title>
<path fill="none" stroke="midnightblue" d="M1525.49,-59.1593C1605.58,-50.6379 1758.99,-34.2584 1889.5,-20 1892.31,-19.6927 1895.18,-19.3784 1898.08,-19.0602"/>
<polygon fill="midnightblue" stroke="midnightblue" points="1524.73,-55.7204 1515.15,-60.2586 1525.47,-62.6812 1524.73,-55.7204"/>
</g>
<!-- Node18&#45;&gt;Node25 -->
<g id="edge11" class="edge"><title>Node18&#45;&gt;Node25</title>
<path fill="none" stroke="midnightblue" d="M1525.23,-63.6483C1680.32,-59.6005 2135.92,-46.2029 2513.5,-20 2516.44,-19.7957 2519.44,-19.5756 2522.46,-19.343"/>
<polygon fill="midnightblue" stroke="midnightblue" points="1524.93,-60.1549 1515.02,-63.9126 1525.11,-67.1526 1524.93,-60.1549"/>
</g>
<!-- Node26 -->
<g id="node13" class="node"><title>Node26</title>
<g id="a_node13"><a xlink:href="gagr__fkcentroid_8hpp.html" target="_top" xlink:title="GAGR .">
<polygon fill="white" stroke="black" points="2061,-0.5 2061,-19.5 2186,-19.5 2186,-0.5 2061,-0.5"/>
<text text-anchor="middle" x="2123.5" y="-7.5" font-family="Helvetica,sans-Serif" font-size="10.00">eac/gagr_fkcentroid.hpp</text>
</a>
</g>
</g>
<!-- Node18&#45;&gt;Node26 -->
<g id="edge12" class="edge"><title>Node18&#45;&gt;Node26</title>
<path fill="none" stroke="midnightblue" d="M1525.19,-61.6255C1628.28,-55.0738 1858.33,-39.5428 2051.5,-20 2054.51,-19.6957 2057.58,-19.3693 2060.69,-19.0277"/>
<polygon fill="midnightblue" stroke="midnightblue" points="1524.79,-58.1441 1515.03,-62.2685 1525.23,-65.1301 1524.79,-58.1441"/>
</g>
<!-- Node27 -->
<g id="node14" class="node"><title>Node27</title>
<g id="a_node14"><a xlink:href="gaprototypes__fkmedoid_8hpp.html" target="_top" xlink:title="GA&#45;Prototypes .">
<polygon fill="white" stroke="black" points="2204,-0.5 2204,-19.5 2365,-19.5 2365,-0.5 2204,-0.5"/>
<text text-anchor="middle" x="2284.5" y="-7.5" font-family="Helvetica,sans-Serif" font-size="10.00">eac/gaprototypes_fkmedoid.hpp</text>
</a>
</g>
</g>
<!-- Node18&#45;&gt;Node27 -->
<g id="edge13" class="edge"><title>Node18&#45;&gt;Node27</title>
<path fill="none" stroke="midnightblue" d="M1525.13,-62.3073C1645.92,-56.1997 1944.77,-40.2406 2194.5,-20 2197.47,-19.759 2200.5,-19.5042 2203.56,-19.2389"/>
<polygon fill="midnightblue" stroke="midnightblue" points="1524.84,-58.8174 1515.03,-62.8161 1525.19,-65.8086 1524.84,-58.8174"/>
</g>
<!-- Node28 -->
<g id="node15" class="node"><title>Node28</title>
<g id="a_node15"><a xlink:href="gas__fkcentroid_8hpp.html" target="_top" xlink:title="GAS .">
<polygon fill="white" stroke="black" points="2383,-0.5 2383,-19.5 2504,-19.5 2504,-0.5 2383,-0.5"/>
<text text-anchor="middle" x="2443.5" y="-7.5" font-family="Helvetica,sans-Serif" font-size="10.00">eac/gas_fkcentroid.hpp</text>
</a>
</g>
</g>
<!-- Node18&#45;&gt;Node28 -->
<g id="edge14" class="edge"><title>Node18&#45;&gt;Node28</title>
<path fill="none" stroke="midnightblue" d="M1525.33,-63.7586C1666.31,-60.2436 2052.81,-48.5628 2373.5,-20 2376.55,-19.7282 2379.67,-19.4237 2382.83,-19.0955"/>
<polygon fill="midnightblue" stroke="midnightblue" points="1525.13,-60.2625 1515.22,-64.0073 1525.3,-67.2604 1525.13,-60.2625"/>
</g>
<!-- Node29 -->
<g id="node16" class="node"><title>Node29</title>
<g id="a_node16"><a xlink:href="gca__fkmedoid_8hpp.html" target="_top" xlink:title="GCA .">
<polygon fill="white" stroke="black" points="125,-0.5 125,-19.5 244,-19.5 244,-0.5 125,-0.5"/>
<text text-anchor="middle" x="184.5" y="-7.5" font-family="Helvetica,sans-Serif" font-size="10.00">eac/gca_fkmedoid.hpp</text>
</a>
</g>
</g>
<!-- Node18&#45;&gt;Node29 -->
<g id="edge15" class="edge"><title>Node18&#45;&gt;Node29</title>
<path fill="none" stroke="midnightblue" d="M1415.89,-64.7834C1244.38,-63.7172 701.298,-57.402 253.5,-20 250.49,-19.7486 247.41,-19.4605 244.303,-19.1452"/>
<polygon fill="midnightblue" stroke="midnightblue" points="1415.91,-68.2835 1425.93,-64.8424 1415.95,-61.2836 1415.91,-68.2835"/>
</g>
<!-- Node30 -->
<g id="node17" class="node"><title>Node30</title>
<g id="a_node17"><a xlink:href="gcuk__vkcentroid_8hpp.html" target="_top" xlink:title="GCUK .">
<polygon fill="white" stroke="black" points="262.5,-0.5 262.5,-19.5 390.5,-19.5 390.5,-0.5 262.5,-0.5"/>
<text text-anchor="middle" x="326.5" y="-7.5" font-family="Helvetica,sans-Serif" font-size="10.00">eac/gcuk_vkcentroid.hpp</text>
</a>
</g>
</g>
<!-- Node18&#45;&gt;Node30 -->
<g id="edge16" class="edge"><title>Node18&#45;&gt;Node30</title>
<path fill="none" stroke="midnightblue" d="M1415.37,-64.2523C1257.09,-61.7678 787.72,-52.0347 399.5,-20 396.573,-19.7585 393.583,-19.4877 390.564,-19.1949"/>
<polygon fill="midnightblue" stroke="midnightblue" points="1415.73,-67.7582 1425.78,-64.4123 1415.84,-60.759 1415.73,-67.7582"/>
</g>
<!-- Node31 -->
<g id="node18" class="node"><title>Node31</title>
<g id="a_node18"><a xlink:href="gga__vklabel_8hpp.html" target="_top" xlink:title="GGA .">
<polygon fill="white" stroke="black" points="408.5,-0.5 408.5,-19.5 518.5,-19.5 518.5,-0.5 408.5,-0.5"/>
<text text-anchor="middle" x="463.5" y="-7.5" font-family="Helvetica,sans-Serif" font-size="10.00">eac/gga_vklabel.hpp</text>
</a>
</g>
</g>
<!-- Node18&#45;&gt;Node31 -->
<g id="edge17" class="edge"><title>Node18&#45;&gt;Node31</title>
<path fill="none" stroke="midnightblue" d="M1415.3,-64.1394C1269.79,-61.4869 863.807,-51.6033 527.5,-20 524.595,-19.7271 521.621,-19.4167 518.62,-19.0794"/>
<polygon fill="midnightblue" stroke="midnightblue" points="1415.67,-67.6464 1425.73,-64.3252 1415.79,-60.6475 1415.67,-67.6464"/>
</g>
<!-- Node32 -->
<g id="node19" class="node"><title>Node32</title>
<g id="a_node19"><a xlink:href="gka__fklabel_8hpp.html" target="_top" xlink:title="GKA Clustering .">
<polygon fill="white" stroke="black" points="0,-0.5 0,-19.5 107,-19.5 107,-0.5 0,-0.5"/>
<text text-anchor="middle" x="53.5" y="-7.5" font-family="Helvetica,sans-Serif" font-size="10.00">eac/gka_fklabel.hpp</text>
</a>
</g>
</g>
<!-- Node18&#45;&gt;Node32 -->
<g id="edge18" class="edge"><title>Node18&#45;&gt;Node32</title>
<path fill="none" stroke="midnightblue" d="M1415.72,-65.3573C1231.72,-66.0932 619.164,-64.7804 115.5,-20 112.792,-19.7592 110.021,-19.4796 107.226,-19.1711"/>
<polygon fill="midnightblue" stroke="midnightblue" points="1415.96,-68.8564 1425.94,-65.3124 1415.93,-61.8564 1415.96,-68.8564"/>
</g>
<!-- Node33 -->
<g id="node20" class="node"><title>Node33</title>
<g id="a_node20"><a xlink:href="hka__fkmedoid_8hpp.html" target="_top" xlink:title="HKA .">
<polygon fill="white" stroke="black" points="537,-0.5 537,-19.5 656,-19.5 656,-0.5 537,-0.5"/>
<text text-anchor="middle" x="596.5" y="-7.5" font-family="Helvetica,sans-Serif" font-size="10.00">eac/hka_fkmedoid.hpp</text>
</a>
</g>
</g>
<!-- Node18&#45;&gt;Node33 -->
<g id="edge19" class="edge"><title>Node18&#45;&gt;Node33</title>
<path fill="none" stroke="midnightblue" d="M1415.72,-63.3747C1285.34,-59.1937 946.399,-46.486 664.5,-20 661.773,-19.7438 658.987,-19.461 656.175,-19.1584"/>
<polygon fill="midnightblue" stroke="midnightblue" points="1415.74,-66.8771 1425.85,-63.6957 1415.97,-59.8806 1415.74,-66.8771"/>
</g>
<!-- Node34 -->
<g id="node21" class="node"><title>Node34</title>
<g id="a_node21"><a xlink:href="igka__fklabel_8hpp.html" target="_top" xlink:title="IGKA &#160;and FGKA .">
<polygon fill="white" stroke="black" points="674,-0.5 674,-19.5 783,-19.5 783,-0.5 674,-0.5"/>
<text text-anchor="middle" x="728.5" y="-7.5" font-family="Helvetica,sans-Serif" font-size="10.00">eac/igka_fklabel.hpp</text>
</a>
</g>
</g>
<!-- Node18&#45;&gt;Node34 -->
<g id="edge20" class="edge"><title>Node18&#45;&gt;Node34</title>
<path fill="none" stroke="midnightblue" d="M1415.91,-62.7865C1300.43,-57.796 1023.04,-44.1761 791.5,-20 788.753,-19.7132 785.941,-19.3965 783.104,-19.0586"/>
<polygon fill="midnightblue" stroke="midnightblue" points="1415.77,-66.2839 1425.91,-63.2148 1416.07,-59.2903 1415.77,-66.2839"/>
</g>
<!-- Node35 -->
<g id="node22" class="node"><title>Node35</title>
<g id="a_node22"><a xlink:href="kga__fkcentroid_8hpp.html" target="_top" xlink:title="KGA .">
<polygon fill="white" stroke="black" points="801,-0.5 801,-19.5 922,-19.5 922,-0.5 801,-0.5"/>
<text text-anchor="middle" x="861.5" y="-7.5" font-family="Helvetica,sans-Serif" font-size="10.00">eac/kga_fkcentroid.hpp</text>
</a>
</g>
</g>
<!-- Node18&#45;&gt;Node35 -->
<g id="edge21" class="edge"><title>Node18&#45;&gt;Node35</title>
<path fill="none" stroke="midnightblue" d="M1415.77,-61.2852C1318.15,-54.4711 1107.62,-38.9213 930.5,-20 927.737,-19.7049 924.914,-19.3901 922.063,-19.0616"/>
<polygon fill="midnightblue" stroke="midnightblue" points="1415.76,-64.7933 1425.98,-61.9951 1416.25,-57.8101 1415.76,-64.7933"/>
</g>
<!-- Node36 -->
<g id="node23" class="node"><title>Node36</title>
<g id="a_node23"><a xlink:href="main__gas__clustering_8cpp.html" target="_top" xlink:title="Main program of Evolutionary Algorithms.">
<polygon fill="white" stroke="black" points="940,-0.5 940,-19.5 1087,-19.5 1087,-0.5 940,-0.5"/>
<text text-anchor="middle" x="1013.5" y="-7.5" font-family="Helvetica,sans-Serif" font-size="10.00">eac/main_gas_clustering.cpp</text>
</a>
</g>
</g>
<!-- Node18&#45;&gt;Node36 -->
<g id="edge22" class="edge"><title>Node18&#45;&gt;Node36</title>
<path fill="none" stroke="midnightblue" d="M1415.68,-58.5226C1333.21,-48.7777 1177.15,-30.3374 1085.57,-19.5158"/>
<polygon fill="midnightblue" stroke="midnightblue" points="1415.51,-62.0262 1425.85,-59.7239 1416.33,-55.0746 1415.51,-62.0262"/>
</g>
<!-- Node18&#45;&gt;Node37 -->
<g id="edge23" class="edge"><title>Node18&#45;&gt;Node37</title>
<path fill="none" stroke="midnightblue" d="M1525.13,-64.712C1697.92,-63.4353 2247.93,-56.5675 2701.5,-20 2704.39,-19.7672 2707.34,-19.5035 2710.32,-19.2165"/>
<polygon fill="midnightblue" stroke="midnightblue" points="1525,-61.2128 1515.02,-64.7835 1525.04,-68.2126 1525,-61.2128"/>
</g>
<!-- Node38&#45;&gt;Node16 -->
<g id="edge25" class="edge"><title>Node38&#45;&gt;Node16</title>
<path fill="none" stroke="midnightblue" d="M1369.6,-240.168C1356.45,-230.228 1340.95,-218.514 1329.12,-209.577"/>
<polygon fill="midnightblue" stroke="midnightblue" points="1367.75,-243.158 1377.84,-246.396 1371.97,-237.574 1367.75,-243.158"/>
</g>
<!-- Node38&#45;&gt;Node18 -->
<g id="edge34" class="edge"><title>Node38&#45;&gt;Node18</title>
<path fill="none" stroke="midnightblue" d="M1408.64,-237.259C1420.49,-213.909 1438.44,-176.657 1450.5,-143 1459.06,-119.11 1465.74,-89.8153 1468.75,-75.5809"/>
<polygon fill="midnightblue" stroke="midnightblue" points="1405.42,-235.869 1403.97,-246.364 1411.65,-239.063 1405.42,-235.869"/>
</g>
<!-- Node39 -->
<g id="node26" class="node"><title>Node39</title>
<g id="a_node26"><a xlink:href="chromosome__igka_8hpp.html" target="_top" xlink:title="chromosome IGKA &#160;and">
<polygon fill="white" stroke="black" points="1499,-179.5 1499,-209.5 1610,-209.5 1610,-179.5 1499,-179.5"/>
<text text-anchor="start" x="1507" y="-197.5" font-family="Helvetica,sans-Serif" font-size="10.00">include/chromosome</text>
<text text-anchor="middle" x="1554.5" y="-186.5" font-family="Helvetica,sans-Serif" font-size="10.00">_igka.hpp</text>
</a>
</g>
</g>
<!-- Node38&#45;&gt;Node39 -->
<g id="edge26" class="edge"><title>Node38&#45;&gt;Node39</title>
<path fill="none" stroke="midnightblue" d="M1440.15,-242.544C1465.43,-232.143 1496.8,-219.238 1520.28,-209.577"/>
<polygon fill="midnightblue" stroke="midnightblue" points="1438.7,-239.355 1430.78,-246.396 1441.36,-245.828 1438.7,-239.355"/>
</g>
<!-- Node40 -->
<g id="node27" class="node"><title>Node40</title>
<g id="a_node27"><a xlink:href="clustering__operator__crispmatrix_8hpp.html" target="_top" xlink:title="clustering operator crispmatrix">
<polygon fill="white" stroke="black" points="1311,-112.5 1311,-142.5 1442,-142.5 1442,-112.5 1311,-112.5"/>
<text text-anchor="start" x="1319" y="-130.5" font-family="Helvetica,sans-Serif" font-size="10.00">include/clustering</text>
<text text-anchor="middle" x="1376.5" y="-119.5" font-family="Helvetica,sans-Serif" font-size="10.00">_operator_crispmatrix.hpp</text>
</a>
</g>
</g>
<!-- Node38&#45;&gt;Node40 -->
<g id="edge28" class="edge"><title>Node38&#45;&gt;Node40</title>
<path fill="none" stroke="midnightblue" d="M1392.85,-236.39C1388.68,-208.901 1382.01,-164.888 1378.62,-142.525"/>
<polygon fill="midnightblue" stroke="midnightblue" points="1389.4,-237.011 1394.36,-246.374 1396.32,-235.962 1389.4,-237.011"/>
</g>
<!-- Node41 -->
<g id="node28" class="node"><title>Node41</title>
<g id="a_node28"><a xlink:href="ga__integer__operator_8hpp.html" target="_top" xlink:title="genetic integer operators">
<polygon fill="white" stroke="black" points="1098.5,-179.5 1098.5,-209.5 1198.5,-209.5 1198.5,-179.5 1098.5,-179.5"/>
<text text-anchor="start" x="1106.5" y="-197.5" font-family="Helvetica,sans-Serif" font-size="10.00">include/ga_integer</text>
<text text-anchor="middle" x="1148.5" y="-186.5" font-family="Helvetica,sans-Serif" font-size="10.00">_operator.hpp</text>
</a>
</g>
</g>
<!-- Node38&#45;&gt;Node41 -->
<g id="edge30" class="edge"><title>Node38&#45;&gt;Node41</title>
<path fill="none" stroke="midnightblue" d="M1333.19,-243.906C1291.37,-232.946 1237.34,-218.784 1198.53,-208.613"/>
<polygon fill="midnightblue" stroke="midnightblue" points="1332.43,-247.326 1342.99,-246.476 1334.21,-240.555 1332.43,-247.326"/>
</g>
<!-- Node39&#45;&gt;Node18 -->
<g id="edge27" class="edge"><title>Node39&#45;&gt;Node18</title>
<path fill="none" stroke="midnightblue" d="M1539.56,-171.002C1520.74,-142.653 1489.28,-95.2817 1476.34,-75.7885"/>
<polygon fill="midnightblue" stroke="midnightblue" points="1536.74,-173.084 1545.19,-179.479 1542.57,-169.212 1536.74,-173.084"/>
</g>
<!-- Node40&#45;&gt;Node18 -->
<g id="edge29" class="edge"><title>Node40&#45;&gt;Node18</title>
<path fill="none" stroke="midnightblue" d="M1407.66,-106.776C1424.32,-96.2315 1443.99,-83.7834 1456.82,-75.6578"/>
<polygon fill="midnightblue" stroke="midnightblue" points="1405.35,-104.094 1398.78,-112.399 1409.1,-110.008 1405.35,-104.094"/>
</g>
<!-- Node41&#45;&gt;Node17 -->
<g id="edge31" class="edge"><title>Node41&#45;&gt;Node17</title>
<path fill="none" stroke="midnightblue" d="M1175.64,-173.451C1189.18,-163.452 1205.23,-151.6 1217.44,-142.577"/>
<polygon fill="midnightblue" stroke="midnightblue" points="1173.56,-170.639 1167.59,-179.396 1177.72,-176.27 1173.56,-170.639"/>
</g>
<!-- Node41&#45;&gt;Node18 -->
<g id="edge32" class="edge"><title>Node41&#45;&gt;Node18</title>
<path fill="none" stroke="midnightblue" d="M1148.66,-169.261C1150.16,-150.804 1155.37,-126.223 1171.5,-112 1208.46,-79.4114 1352.03,-70.4194 1425.96,-67.9411"/>
<polygon fill="midnightblue" stroke="midnightblue" points="1145.17,-169.131 1148.15,-179.296 1152.16,-169.486 1145.17,-169.131"/>
</g>
<!-- Node41&#45;&gt;Node32 -->
<g id="edge33" class="edge"><title>Node41&#45;&gt;Node32</title>
<path fill="none" stroke="midnightblue" d="M1088.21,-183.451C893.745,-151.041 285.269,-49.6282 104.582,-19.5136"/>
<polygon fill="midnightblue" stroke="midnightblue" points="1087.8,-186.932 1098.24,-185.124 1088.96,-180.028 1087.8,-186.932"/>
</g>
<!-- Node42&#45;&gt;Node43 -->
<g id="edge36" class="edge"><title>Node42&#45;&gt;Node43</title>
<path fill="none" stroke="midnightblue" d="M1669.5,-437.108C1669.5,-428.154 1669.5,-418.323 1669.5,-410.577"/>
<polygon fill="midnightblue" stroke="midnightblue" points="1666,-437.396 1669.5,-447.396 1673,-437.396 1666,-437.396"/>
</g>
<!-- Node43&#45;&gt;Node18 -->
<g id="edge42" class="edge"><title>Node43&#45;&gt;Node18</title>
<path fill="none" stroke="midnightblue" d="M1694.69,-373.46C1720.39,-349.5 1756.5,-307.77 1756.5,-262.5 1756.5,-262.5 1756.5,-262.5 1756.5,-193.5 1756.5,-89.2576 1595.62,-70.2226 1515.19,-67.2202"/>
<polygon fill="midnightblue" stroke="midnightblue" points="1692.18,-371.011 1687.11,-380.31 1696.87,-376.207 1692.18,-371.011"/>
</g>
<!-- Node44 -->
<g id="node31" class="node"><title>Node44</title>
<g id="a_node31"><a xlink:href="nearestcentroids__operator_8hpp.html" target="_top" xlink:title="nearest centroids operator">
<polygon fill="white" stroke="black" points="1333,-313.5 1333,-343.5 1460,-343.5 1460,-313.5 1333,-313.5"/>
<text text-anchor="start" x="1341" y="-331.5" font-family="Helvetica,sans-Serif" font-size="10.00">include/nearestcentroids</text>
<text text-anchor="middle" x="1396.5" y="-320.5" font-family="Helvetica,sans-Serif" font-size="10.00">_operator.hpp</text>
</a>
</g>
</g>
<!-- Node43&#45;&gt;Node44 -->
<g id="edge37" class="edge"><title>Node43&#45;&gt;Node44</title>
<path fill="none" stroke="midnightblue" d="M1603.28,-378.735C1558.18,-367.994 1498.98,-353.901 1455.49,-343.546"/>
<polygon fill="midnightblue" stroke="midnightblue" points="1602.73,-382.199 1613.27,-381.111 1604.35,-375.39 1602.73,-382.199"/>
</g>
<!-- Node45 -->
<g id="node32" class="node"><title>Node45</title>
<g id="a_node32"><a xlink:href="ga__function__objective__sse_8hpp.html" target="_top" xlink:title="function objective SSE">
<polygon fill="white" stroke="black" points="1625,-246.5 1625,-276.5 1728,-276.5 1728,-246.5 1625,-246.5"/>
<text text-anchor="start" x="1633" y="-264.5" font-family="Helvetica,sans-Serif" font-size="10.00">include/ga_function</text>
<text text-anchor="middle" x="1676.5" y="-253.5" font-family="Helvetica,sans-Serif" font-size="10.00">_objective_sse.hpp</text>
</a>
</g>
</g>
<!-- Node43&#45;&gt;Node45 -->
<g id="edge40" class="edge"><title>Node43&#45;&gt;Node45</title>
<path fill="none" stroke="midnightblue" d="M1670.8,-370.024C1672.26,-342.512 1674.58,-298.789 1675.76,-276.525"/>
<polygon fill="midnightblue" stroke="midnightblue" points="1667.28,-370.202 1670.25,-380.374 1674.27,-370.573 1667.28,-370.202"/>
</g>
<!-- Node44&#45;&gt;Node16 -->
<g id="edge38" class="edge"><title>Node44&#45;&gt;Node16</title>
<path fill="none" stroke="midnightblue" d="M1358.21,-308.06C1345.98,-300.038 1333.54,-289.626 1325.5,-277 1312.28,-256.252 1310.03,-226.858 1309.99,-209.626"/>
<polygon fill="midnightblue" stroke="midnightblue" points="1356.67,-311.218 1367.02,-313.477 1360.33,-305.256 1356.67,-311.218"/>
</g>
<!-- Node44&#45;&gt;Node38 -->
<g id="edge39" class="edge"><title>Node44&#45;&gt;Node38</title>
<path fill="none" stroke="midnightblue" d="M1396.5,-303.108C1396.5,-294.154 1396.5,-284.323 1396.5,-276.577"/>
<polygon fill="midnightblue" stroke="midnightblue" points="1393,-303.396 1396.5,-313.396 1400,-303.396 1393,-303.396"/>
</g>
<!-- Node45&#45;&gt;Node18 -->
<g id="edge41" class="edge"><title>Node45&#45;&gt;Node18</title>
<path fill="none" stroke="midnightblue" d="M1680.05,-236.015C1683.31,-203.381 1683.66,-145.827 1652.5,-112 1634.2,-92.1288 1563.11,-79.1068 1515.38,-72.4068"/>
<polygon fill="midnightblue" stroke="midnightblue" points="1676.56,-235.718 1678.88,-246.056 1683.51,-236.53 1676.56,-235.718"/>
</g>
<!-- Node46&#45;&gt;Node17 -->
<g id="edge48" class="edge"><title>Node46&#45;&gt;Node17</title>
<path fill="none" stroke="midnightblue" d="M1529.74,-310.921C1515.14,-293.785 1490.99,-266.695 1467.5,-246 1429.28,-212.321 1419.51,-202.865 1374.5,-179 1345.99,-163.881 1311.96,-151.373 1284.82,-142.587"/>
<polygon fill="midnightblue" stroke="midnightblue" points="1527.33,-313.493 1536.45,-318.888 1532.69,-308.984 1527.33,-313.493"/>
</g>
<!-- Node46&#45;&gt;Node18 -->
<g id="edge49" class="edge"><title>Node46&#45;&gt;Node18</title>
<path fill="none" stroke="midnightblue" d="M1561.54,-312.052C1590.73,-285.097 1642.72,-227.696 1618.5,-179 1591.81,-125.336 1525.78,-90.5284 1491.66,-75.5054"/>
<polygon fill="midnightblue" stroke="midnightblue" points="1559.11,-309.535 1554,-318.815 1563.78,-314.748 1559.11,-309.535"/>
</g>
<!-- Node46&#45;&gt;Node38 -->
<g id="edge45" class="edge"><title>Node46&#45;&gt;Node38</title>
<path fill="none" stroke="midnightblue" d="M1514.7,-314.767C1489.82,-303.766 1453.92,-287.892 1428.23,-276.528"/>
<polygon fill="midnightblue" stroke="midnightblue" points="1513.42,-318.025 1523.98,-318.869 1516.25,-311.623 1513.42,-318.025"/>
</g>
<!-- Node46&#45;&gt;Node39 -->
<g id="edge46" class="edge"><title>Node46&#45;&gt;Node39</title>
<path fill="none" stroke="midnightblue" d="M1545.08,-308.531C1547.31,-281.812 1551.32,-233.691 1553.31,-209.783"/>
<polygon fill="midnightblue" stroke="midnightblue" points="1541.56,-308.583 1544.22,-318.839 1548.54,-309.164 1541.56,-308.583"/>
</g>
<!-- Node46&#45;&gt;Node41 -->
<g id="edge47" class="edge"><title>Node46&#45;&gt;Node41</title>
<path fill="none" stroke="midnightblue" d="M1492.16,-316.871C1437.84,-305.4 1355.87,-287.387 1325.5,-277 1269.96,-258.004 1208.4,-227.321 1174.5,-209.519"/>
<polygon fill="midnightblue" stroke="midnightblue" points="1491.45,-320.299 1501.96,-318.933 1492.89,-313.449 1491.45,-320.299"/>
</g>
<!-- Node47&#45;&gt;Node18 -->
<g id="edge51" class="edge"><title>Node47&#45;&gt;Node18</title>
<path fill="none" stroke="midnightblue" d="M1951.39,-118.277C1832.98,-105.651 1610.12,-81.8878 1515.17,-71.7634"/>
<polygon fill="midnightblue" stroke="midnightblue" points="1951.15,-121.772 1961.47,-119.352 1951.9,-114.812 1951.15,-121.772"/>
</g>
<!-- Node47&#45;&gt;Node37 -->
<g id="edge52" class="edge"><title>Node47&#45;&gt;Node37</title>
<path fill="none" stroke="midnightblue" d="M2046.27,-104.671C2061.21,-88.0714 2084.14,-66.377 2109.5,-56 2231.48,-6.0784 2570.27,-32.18 2701.5,-20 2704.38,-19.7322 2707.33,-19.44 2710.31,-19.1297"/>
<polygon fill="midnightblue" stroke="midnightblue" points="2043.52,-102.495 2039.6,-112.338 2048.8,-107.089 2043.52,-102.495"/>
</g>
<!-- Node48&#45;&gt;Node17 -->
<g id="edge54" class="edge"><title>Node48&#45;&gt;Node17</title>
<path fill="none" stroke="midnightblue" d="M1180.02,-239.906C1189.76,-231.507 1200.12,-221.146 1207.5,-210 1221.6,-188.713 1229.76,-159.758 1233.65,-142.706"/>
<polygon fill="midnightblue" stroke="midnightblue" points="1177.55,-237.41 1172.06,-246.475 1182,-242.808 1177.55,-237.41"/>
</g>
<!-- Node48&#45;&gt;Node18 -->
<g id="edge56" class="edge"><title>Node48&#45;&gt;Node18</title>
<path fill="none" stroke="midnightblue" d="M1116.93,-240.692C1106.07,-232.691 1095.45,-222.386 1089.5,-210 1067.4,-163.959 1104.44,-136.029 1149.5,-112 1196.49,-86.9456 1349.43,-74.3419 1425.99,-69.4727"/>
<polygon fill="midnightblue" stroke="midnightblue" points="1114.97,-243.593 1125.2,-246.358 1118.93,-237.818 1114.97,-243.593"/>
</g>
<!-- Node48&#45;&gt;Node41 -->
<g id="edge55" class="edge"><title>Node48&#45;&gt;Node41</title>
<path fill="none" stroke="midnightblue" d="M1151.02,-236.403C1150.46,-227.37 1149.85,-217.408 1149.37,-209.577"/>
<polygon fill="midnightblue" stroke="midnightblue" points="1147.52,-236.63 1151.63,-246.396 1154.51,-236.2 1147.52,-236.63"/>
</g>
<!-- Node49&#45;&gt;Node18 -->
<g id="edge58" class="edge"><title>Node49&#45;&gt;Node18</title>
<path fill="none" stroke="midnightblue" d="M1823.02,-442.794C1818.59,-417.282 1811.5,-370.102 1811.5,-329.5 1811.5,-329.5 1811.5,-329.5 1811.5,-193.5 1811.5,-144.574 1780.43,-135.468 1737.5,-112 1699.97,-91.481 1580.85,-77.393 1515.12,-70.9629"/>
<polygon fill="midnightblue" stroke="midnightblue" points="1819.62,-443.666 1824.84,-452.89 1826.51,-442.428 1819.62,-443.666"/>
</g>
<!-- Node51 -->
<g id="node38" class="node"><title>Node51</title>
<g id="a_node38"><a xlink:href="main__plot__clustering_8cpp.html" target="_top" xlink:title="Main program for plot clustering.">
<polygon fill="white" stroke="black" points="2151.5,-386 2151.5,-405 2297.5,-405 2297.5,-386 2151.5,-386"/>
<text text-anchor="middle" x="2224.5" y="-393" font-family="Helvetica,sans-Serif" font-size="10.00">eac/main_plot_clustering.cpp</text>
</a>
</g>
</g>
<!-- Node50&#45;&gt;Node51 -->
<g id="edge60" class="edge"><title>Node50&#45;&gt;Node51</title>
<path fill="none" stroke="midnightblue" d="M2224.5,-437.25C2224.5,-426.017 2224.5,-413.377 2224.5,-405.195"/>
<polygon fill="midnightblue" stroke="midnightblue" points="2221,-437.396 2224.5,-447.396 2228,-437.396 2221,-437.396"/>
</g>
<!-- Node52 -->
<g id="node39" class="node"><title>Node52</title>
<g id="a_node39"><a xlink:href="main__stdvar__milligan__cooper1988_8cpp.html" target="_top" xlink:title="Main program for the standardization of instances .">
<polygon fill="white" stroke="black" points="2316,-380.5 2316,-410.5 2447,-410.5 2447,-380.5 2316,-380.5"/>
<text text-anchor="start" x="2324" y="-398.5" font-family="Helvetica,sans-Serif" font-size="10.00">eac/main_stdvar_milligan</text>
<text text-anchor="middle" x="2381.5" y="-387.5" font-family="Helvetica,sans-Serif" font-size="10.00">_cooper1988.cpp</text>
</a>
</g>
</g>
<!-- Node50&#45;&gt;Node52 -->
<g id="edge61" class="edge"><title>Node50&#45;&gt;Node52</title>
<path fill="none" stroke="midnightblue" d="M2267.87,-443.544C2292.99,-433.143 2324.16,-420.238 2347.5,-410.577"/>
<polygon fill="midnightblue" stroke="midnightblue" points="2266.47,-440.337 2258.57,-447.396 2269.14,-446.804 2266.47,-440.337"/>
</g>
</g>
</svg>
