<?xml version="1.0" encoding="UTF-8" standalone="no"?>
<!DOCTYPE svg PUBLIC "-//W3C//DTD SVG 1.1//EN"
 "http://www.w3.org/Graphics/SVG/1.1/DTD/svg11.dtd">
<!-- Generated by graphviz version 2.38.0 (20140413.2041)
 -->
<!-- Title: include/dist_matrix_dissimilarity.hpp Pages: 1 -->
<svg width="202pt" height="207pt"
 viewBox="0.00 0.00 201.50 207.00" xmlns="http://www.w3.org/2000/svg" xmlns:xlink="http://www.w3.org/1999/xlink">
<g id="graph0" class="graph" transform="scale(1 1) rotate(0) translate(4 203)">
<title>include/dist_matrix_dissimilarity.hpp</title>
<polygon fill="white" stroke="none" points="-4,4 -4,-203 197.5,-203 197.5,4 -4,4"/>
<!-- Node0 -->
<g id="node1" class="node"><title>Node0</title>
<g id="a_node1"><a xlink:title="distance matrix between objects">
<polygon fill="#bfbfbf" stroke="black" points="52,-168.5 52,-198.5 152,-198.5 152,-168.5 52,-168.5"/>
<text text-anchor="start" x="60" y="-186.5" font-family="Helvetica,sans-Serif" font-size="10.00">include/dist_matrix</text>
<text text-anchor="middle" x="102" y="-175.5" font-family="Helvetica,sans-Serif" font-size="10.00">_dissimilarity.hpp</text>
</a>
</g>
</g>
<!-- Node1 -->
<g id="node2" class="node"><title>Node1</title>
<g id="a_node2"><a xlink:href="matrix__triangular_8hpp.html" target="_top" xlink:title="matrix triangular">
<polygon fill="white" stroke="black" points="0,-112.5 0,-131.5 108,-131.5 108,-112.5 0,-112.5"/>
<text text-anchor="middle" x="54" y="-119.5" font-family="Helvetica,sans-Serif" font-size="10.00">matrix_triangular.hpp</text>
</a>
</g>
</g>
<!-- Node0&#45;&gt;Node1 -->
<g id="edge1" class="edge"><title>Node0&#45;&gt;Node1</title>
<path fill="none" stroke="midnightblue" d="M90.6247,-168.399C83.6497,-159.753 74.686,-148.642 67.3722,-139.576"/>
<polygon fill="midnightblue" stroke="midnightblue" points="69.9874,-137.243 60.9844,-131.658 64.5392,-141.638 69.9874,-137.243"/>
</g>
<!-- Node6 -->
<g id="node7" class="node"><title>Node6</title>
<g id="a_node7"><a xlink:href="dist_8hpp.html" target="_top" xlink:title="operations for the calculation of distances between objects">
<polygon fill="white" stroke="black" points="126,-112.5 126,-131.5 176,-131.5 176,-112.5 126,-112.5"/>
<text text-anchor="middle" x="151" y="-119.5" font-family="Helvetica,sans-Serif" font-size="10.00">dist.hpp</text>
</a>
</g>
</g>
<!-- Node0&#45;&gt;Node6 -->
<g id="edge6" class="edge"><title>Node0&#45;&gt;Node6</title>
<path fill="none" stroke="midnightblue" d="M113.612,-168.399C120.733,-159.753 129.883,-148.642 137.349,-139.576"/>
<polygon fill="midnightblue" stroke="midnightblue" points="140.215,-141.602 143.87,-131.658 134.811,-137.152 140.215,-141.602"/>
</g>
<!-- Node2 -->
<g id="node3" class="node"><title>Node2</title>
<g id="a_node3"><a xlink:title=" ">
<polygon fill="white" stroke="#bfbfbf" points="26,-56.5 26,-75.5 82,-75.5 82,-56.5 26,-56.5"/>
<text text-anchor="middle" x="54" y="-63.5" font-family="Helvetica,sans-Serif" font-size="10.00">iostream</text>
</a>
</g>
</g>
<!-- Node1&#45;&gt;Node2 -->
<g id="edge2" class="edge"><title>Node1&#45;&gt;Node2</title>
<path fill="none" stroke="midnightblue" d="M54,-112.083C54,-105.006 54,-94.8611 54,-85.9865"/>
<polygon fill="midnightblue" stroke="midnightblue" points="57.5001,-85.751 54,-75.7511 50.5001,-85.7511 57.5001,-85.751"/>
</g>
<!-- Node3 -->
<g id="node4" class="node"><title>Node3</title>
<g id="a_node4"><a xlink:href="common_8hpp.html" target="_top" xlink:title="common">
<polygon fill="white" stroke="black" points="107,-56.5 107,-75.5 181,-75.5 181,-56.5 107,-56.5"/>
<text text-anchor="middle" x="144" y="-63.5" font-family="Helvetica,sans-Serif" font-size="10.00">common.hpp</text>
</a>
</g>
</g>
<!-- Node1&#45;&gt;Node3 -->
<g id="edge3" class="edge"><title>Node1&#45;&gt;Node3</title>
<path fill="none" stroke="midnightblue" d="M68.4601,-112.324C82.4996,-103.9 104.048,-90.9709 120.543,-81.0741"/>
<polygon fill="midnightblue" stroke="midnightblue" points="122.802,-83.8007 129.576,-75.6545 119.2,-77.7983 122.802,-83.8007"/>
</g>
<!-- Node4 -->
<g id="node5" class="node"><title>Node4</title>
<g id="a_node5"><a xlink:title=" ">
<polygon fill="white" stroke="#bfbfbf" points="89.5,-0.5 89.5,-19.5 136.5,-19.5 136.5,-0.5 89.5,-0.5"/>
<text text-anchor="middle" x="113" y="-7.5" font-family="Helvetica,sans-Serif" font-size="10.00">stdint.h</text>
</a>
</g>
</g>
<!-- Node3&#45;&gt;Node4 -->
<g id="edge4" class="edge"><title>Node3&#45;&gt;Node4</title>
<path fill="none" stroke="midnightblue" d="M138.881,-56.083C134.592,-48.6127 128.342,-37.7244 123.058,-28.5199"/>
<polygon fill="midnightblue" stroke="midnightblue" points="126.038,-26.6811 118.024,-19.7511 119.967,-30.1662 126.038,-26.6811"/>
</g>
<!-- Node5 -->
<g id="node6" class="node"><title>Node5</title>
<g id="a_node6"><a xlink:title=" ">
<polygon fill="white" stroke="#bfbfbf" points="154.5,-0.5 154.5,-19.5 193.5,-19.5 193.5,-0.5 154.5,-0.5"/>
<text text-anchor="middle" x="174" y="-7.5" font-family="Helvetica,sans-Serif" font-size="10.00">limits</text>
</a>
</g>
</g>
<!-- Node3&#45;&gt;Node5 -->
<g id="edge5" class="edge"><title>Node3&#45;&gt;Node5</title>
<path fill="none" stroke="midnightblue" d="M148.954,-56.083C153.104,-48.6127 159.153,-37.7244 164.267,-28.5199"/>
<polygon fill="midnightblue" stroke="midnightblue" points="167.341,-30.1924 169.138,-19.7511 161.222,-26.7929 167.341,-30.1924"/>
</g>
<!-- Node6&#45;&gt;Node3 -->
<g id="edge7" class="edge"><title>Node6&#45;&gt;Node3</title>
<path fill="none" stroke="midnightblue" d="M149.844,-112.083C148.916,-104.927 147.582,-94.6353 146.423,-85.6911"/>
<polygon fill="midnightblue" stroke="midnightblue" points="149.891,-85.2181 145.134,-75.7511 142.949,-86.1181 149.891,-85.2181"/>
</g>
</g>
</svg>
