<?xml version="1.0" encoding="UTF-8" standalone="no"?>
<!DOCTYPE svg PUBLIC "-//W3C//DTD SVG 1.1//EN"
 "http://www.w3.org/Graphics/SVG/1.1/DTD/svg11.dtd">
<!-- Generated by graphviz version 2.38.0 (20140413.2041)
 -->
<!-- Title: include/dist_euclidean.hpp Pages: 1 -->
<svg width="1292pt" height="420pt"
 viewBox="0.00 0.00 1292.00 420.00" xmlns="http://www.w3.org/2000/svg" xmlns:xlink="http://www.w3.org/1999/xlink">
<g id="graph0" class="graph" transform="scale(1 1) rotate(0) translate(4 416)">
<title>include/dist_euclidean.hpp</title>
<polygon fill="white" stroke="none" points="-4,4 -4,-416 1288,-416 1288,4 -4,4"/>
<!-- Node0 -->
<g id="node1" class="node"><title>Node0</title>
<g id="a_node1"><a xlink:title="Euclidean distance.">
<polygon fill="#bfbfbf" stroke="black" points="560.5,-392.5 560.5,-411.5 695.5,-411.5 695.5,-392.5 560.5,-392.5"/>
<text text-anchor="middle" x="628" y="-399.5" font-family="Helvetica,sans-Serif" font-size="10.00">include/dist_euclidean.hpp</text>
</a>
</g>
</g>
<!-- Node1 -->
<g id="node2" class="node"><title>Node1</title>
<g id="a_node2"><a xlink:title=" ">
<polygon fill="white" stroke="#bfbfbf" points="810,-56.5 810,-75.5 866,-75.5 866,-56.5 810,-56.5"/>
<text text-anchor="middle" x="838" y="-63.5" font-family="Helvetica,sans-Serif" font-size="10.00">iostream</text>
</a>
</g>
</g>
<!-- Node0&#45;&gt;Node1 -->
<g id="edge1" class="edge"><title>Node0&#45;&gt;Node1</title>
<path fill="none" stroke="midnightblue" d="M655.85,-392.478C695.638,-378.372 764,-346.117 764,-291 764,-291 764,-291 764,-177 764,-146.902 766.387,-137.097 783,-112 791.168,-99.6612 803.754,-89.0066 814.827,-81.1664"/>
<polygon fill="midnightblue" stroke="midnightblue" points="816.914,-83.9811 823.269,-75.5037 813.014,-78.1678 816.914,-83.9811"/>
</g>
<!-- Node2 -->
<g id="node3" class="node"><title>Node2</title>
<g id="a_node3"><a xlink:title=" ">
<polygon fill="white" stroke="#bfbfbf" points="54,-0.5 54,-19.5 98,-19.5 98,-0.5 54,-0.5"/>
<text text-anchor="middle" x="76" y="-7.5" font-family="Helvetica,sans-Serif" font-size="10.00">cmath</text>
</a>
</g>
</g>
<!-- Node0&#45;&gt;Node2 -->
<g id="edge2" class="edge"><title>Node0&#45;&gt;Node2</title>
<path fill="none" stroke="midnightblue" d="M560.373,-401.377C430.506,-401.163 151.408,-395.898 65,-356 27.9082,-338.873 0,-331.855 0,-291 0,-291 0,-291 0,-121 0,-81.2757 33.9641,-45.5045 56.4821,-26.1536"/>
<polygon fill="midnightblue" stroke="midnightblue" points="58.9755,-28.6337 64.4572,-19.5672 54.518,-23.2364 58.9755,-28.6337"/>
</g>
<!-- Node3 -->
<g id="node4" class="node"><title>Node3</title>
<g id="a_node4"><a xlink:title=" ">
<polygon fill="white" stroke="#bfbfbf" points="1216,-56.5 1216,-75.5 1276,-75.5 1276,-56.5 1216,-56.5"/>
<text text-anchor="middle" x="1246" y="-63.5" font-family="Helvetica,sans-Serif" font-size="10.00">stdexcept</text>
</a>
</g>
</g>
<!-- Node0&#45;&gt;Node3 -->
<g id="edge3" class="edge"><title>Node0&#45;&gt;Node3</title>
<path fill="none" stroke="midnightblue" d="M695.799,-400.229C789.737,-397.905 964.271,-389.043 1109,-356 1189.89,-337.533 1284,-373.97 1284,-291 1284,-291 1284,-291 1284,-177 1284,-142.813 1267.4,-105.764 1256.14,-84.5707"/>
<polygon fill="midnightblue" stroke="midnightblue" points="1259.18,-82.832 1251.28,-75.769 1253.05,-86.2151 1259.18,-82.832"/>
</g>
<!-- Node4 -->
<g id="node5" class="node"><title>Node4</title>
<g id="a_node5"><a xlink:href="dist_8hpp.html" target="_top" xlink:title="operations for the calculation of distances between objects">
<polygon fill="white" stroke="black" points="328,-336.5 328,-355.5 378,-355.5 378,-336.5 328,-336.5"/>
<text text-anchor="middle" x="353" y="-343.5" font-family="Helvetica,sans-Serif" font-size="10.00">dist.hpp</text>
</a>
</g>
</g>
<!-- Node0&#45;&gt;Node4 -->
<g id="edge4" class="edge"><title>Node0&#45;&gt;Node4</title>
<path fill="none" stroke="midnightblue" d="M584.425,-392.444C530.131,-381.782 438.408,-363.771 388.29,-353.93"/>
<polygon fill="midnightblue" stroke="midnightblue" points="388.743,-350.452 378.256,-351.959 387.394,-357.321 388.743,-350.452"/>
</g>
<!-- Node5 -->
<g id="node6" class="node"><title>Node5</title>
<g id="a_node6"><a xlink:href="common_8hpp.html" target="_top" xlink:title="common">
<polygon fill="white" stroke="black" points="191,-56.5 191,-75.5 265,-75.5 265,-56.5 191,-56.5"/>
<text text-anchor="middle" x="228" y="-63.5" font-family="Helvetica,sans-Serif" font-size="10.00">common.hpp</text>
</a>
</g>
</g>
<!-- Node0&#45;&gt;Node5 -->
<g id="edge77" class="edge"><title>Node0&#45;&gt;Node5</title>
<path fill="none" stroke="midnightblue" d="M560.323,-400.336C473.961,-398.052 320.592,-389.15 194,-356 123.713,-337.594 44,-363.657 44,-291 44,-291 44,-291 44,-233 44,-152.805 141.549,-101.387 194.592,-79.3557"/>
<polygon fill="midnightblue" stroke="midnightblue" points="195.98,-82.57 203.945,-75.5836 193.362,-76.078 195.98,-82.57"/>
</g>
<!-- Node8 -->
<g id="node9" class="node"><title>Node8</title>
<g id="a_node9"><a xlink:href="matrix_8hpp.html" target="_top" xlink:title="matrix">
<polygon fill="white" stroke="black" points="860,-168.5 860,-187.5 922,-187.5 922,-168.5 860,-168.5"/>
<text text-anchor="middle" x="891" y="-175.5" font-family="Helvetica,sans-Serif" font-size="10.00">matrix.hpp</text>
</a>
</g>
</g>
<!-- Node0&#45;&gt;Node8 -->
<g id="edge8" class="edge"><title>Node0&#45;&gt;Node8</title>
<path fill="none" stroke="midnightblue" d="M690.567,-392.485C719.393,-386.129 752.728,-375.094 778,-356 792.843,-344.786 855.846,-238.945 880.781,-196.491"/>
<polygon fill="midnightblue" stroke="midnightblue" points="883.838,-198.197 885.874,-187.799 877.798,-194.658 883.838,-198.197"/>
</g>
<!-- Node19 -->
<g id="node20" class="node"><title>Node19</title>
<g id="a_node20"><a xlink:href="linear__algebra__level1_8hpp.html" target="_top" xlink:title="linear algebra level1">
<polygon fill="white" stroke="black" points="294,-112.5 294,-131.5 426,-131.5 426,-112.5 294,-112.5"/>
<text text-anchor="middle" x="360" y="-119.5" font-family="Helvetica,sans-Serif" font-size="10.00">linear_algebra_level1.hpp</text>
</a>
</g>
</g>
<!-- Node0&#45;&gt;Node19 -->
<g id="edge71" class="edge"><title>Node0&#45;&gt;Node19</title>
<path fill="none" stroke="midnightblue" d="M629.309,-392.493C634.238,-356.93 647.699,-219.617 571,-168 549.005,-153.198 486.815,-141.006 435.61,-133.064"/>
<polygon fill="midnightblue" stroke="midnightblue" points="435.942,-129.574 425.53,-131.532 434.891,-136.495 435.942,-129.574"/>
</g>
<!-- Node25 -->
<g id="node26" class="node"><title>Node25</title>
<g id="a_node26"><a xlink:href="instance_8hpp.html" target="_top" xlink:title="Module for the handling of instances or also called objects or points.">
<polygon fill="white" stroke="black" points="116,-168.5 116,-187.5 188,-187.5 188,-168.5 116,-168.5"/>
<text text-anchor="middle" x="152" y="-175.5" font-family="Helvetica,sans-Serif" font-size="10.00">instance.hpp</text>
</a>
</g>
</g>
<!-- Node0&#45;&gt;Node25 -->
<g id="edge46" class="edge"><title>Node0&#45;&gt;Node25</title>
<path fill="none" stroke="midnightblue" d="M560.061,-397.609C438.608,-389.907 192.395,-366.298 144,-300 121.844,-269.647 134.475,-222.795 144.153,-197.209"/>
<polygon fill="midnightblue" stroke="midnightblue" points="147.511,-198.238 148.01,-187.655 141.02,-195.618 147.511,-198.238"/>
</g>
<!-- Node26 -->
<g id="node27" class="node"><title>Node26</title>
<g id="a_node27"><a xlink:href="distance__operation_8hpp.html" target="_top" xlink:title="Distance operation.">
<polygon fill="white" stroke="black" points="830,-336.5 830,-355.5 950,-355.5 950,-336.5 830,-336.5"/>
<text text-anchor="middle" x="890" y="-343.5" font-family="Helvetica,sans-Serif" font-size="10.00">distance_operation.hpp</text>
</a>
</g>
</g>
<!-- Node0&#45;&gt;Node26 -->
<g id="edge51" class="edge"><title>Node0&#45;&gt;Node26</title>
<path fill="none" stroke="midnightblue" d="M669.515,-392.444C715.412,-382.984 789.38,-367.738 838.826,-357.547"/>
<polygon fill="midnightblue" stroke="midnightblue" points="839.592,-360.963 848.68,-355.516 838.179,-354.107 839.592,-360.963"/>
</g>
<!-- Node28 -->
<g id="node29" class="node"><title>Node28</title>
<g id="a_node29"><a xlink:href="matrix__operation_8hpp.html" target="_top" xlink:title="matrix operation">
<polygon fill="white" stroke="black" points="444.5,-336.5 444.5,-355.5 553.5,-355.5 553.5,-336.5 444.5,-336.5"/>
<text text-anchor="middle" x="499" y="-343.5" font-family="Helvetica,sans-Serif" font-size="10.00">matrix_operation.hpp</text>
</a>
</g>
</g>
<!-- Node0&#45;&gt;Node28 -->
<g id="edge53" class="edge"><title>Node0&#45;&gt;Node28</title>
<path fill="none" stroke="midnightblue" d="M607.56,-392.444C586.33,-383.557 552.901,-369.563 528.745,-359.451"/>
<polygon fill="midnightblue" stroke="midnightblue" points="529.921,-356.149 519.345,-355.516 527.218,-362.606 529.921,-356.149"/>
</g>
<!-- Node36 -->
<g id="node37" class="node"><title>Node36</title>
<g id="a_node37"><a xlink:href="linear__algebra__level2_8hpp.html" target="_top" xlink:title="linear algebra level 2">
<polygon fill="white" stroke="black" points="968,-336.5 968,-355.5 1100,-355.5 1100,-336.5 968,-336.5"/>
<text text-anchor="middle" x="1034" y="-343.5" font-family="Helvetica,sans-Serif" font-size="10.00">linear_algebra_level2.hpp</text>
</a>
</g>
</g>
<!-- Node0&#45;&gt;Node36 -->
<g id="edge72" class="edge"><title>Node0&#45;&gt;Node36</title>
<path fill="none" stroke="midnightblue" d="M692.332,-392.444C765.088,-382.767 883.365,-367.035 959.918,-356.853"/>
<polygon fill="midnightblue" stroke="midnightblue" points="960.518,-360.304 969.969,-355.516 959.595,-353.366 960.518,-360.304"/>
</g>
<!-- Node4&#45;&gt;Node5 -->
<g id="edge5" class="edge"><title>Node4&#45;&gt;Node5</title>
<path fill="none" stroke="midnightblue" d="M327.759,-339.106C287.448,-328.179 209.749,-300.552 177,-244 163.756,-221.13 187.223,-212.554 197,-188 210.92,-153.041 220.212,-109.883 224.755,-85.701"/>
<polygon fill="midnightblue" stroke="midnightblue" points="228.219,-86.2112 226.555,-75.7479 221.331,-84.9652 228.219,-86.2112"/>
</g>
<!-- Node6 -->
<g id="node7" class="node"><title>Node6</title>
<g id="a_node7"><a xlink:title=" ">
<polygon fill="white" stroke="#bfbfbf" points="224.5,-0.5 224.5,-19.5 271.5,-19.5 271.5,-0.5 224.5,-0.5"/>
<text text-anchor="middle" x="248" y="-7.5" font-family="Helvetica,sans-Serif" font-size="10.00">stdint.h</text>
</a>
</g>
</g>
<!-- Node5&#45;&gt;Node6 -->
<g id="edge6" class="edge"><title>Node5&#45;&gt;Node6</title>
<path fill="none" stroke="midnightblue" d="M231.303,-56.083C233.982,-48.8486 237.849,-38.4087 241.186,-29.3968"/>
<polygon fill="midnightblue" stroke="midnightblue" points="244.568,-30.3442 244.759,-19.7511 238.004,-27.9129 244.568,-30.3442"/>
</g>
<!-- Node7 -->
<g id="node8" class="node"><title>Node7</title>
<g id="a_node8"><a xlink:title=" ">
<polygon fill="white" stroke="#bfbfbf" points="167.5,-0.5 167.5,-19.5 206.5,-19.5 206.5,-0.5 167.5,-0.5"/>
<text text-anchor="middle" x="187" y="-7.5" font-family="Helvetica,sans-Serif" font-size="10.00">limits</text>
</a>
</g>
</g>
<!-- Node5&#45;&gt;Node7 -->
<g id="edge7" class="edge"><title>Node5&#45;&gt;Node7</title>
<path fill="none" stroke="midnightblue" d="M221.23,-56.083C215.438,-48.4554 206.942,-37.2645 199.862,-27.9408"/>
<polygon fill="midnightblue" stroke="midnightblue" points="202.479,-25.5991 193.644,-19.7511 196.904,-29.8321 202.479,-25.5991"/>
</g>
<!-- Node8&#45;&gt;Node1 -->
<g id="edge9" class="edge"><title>Node8&#45;&gt;Node1</title>
<path fill="none" stroke="midnightblue" d="M886.841,-168.368C878.172,-150.376 858.02,-108.55 846.493,-84.6267"/>
<polygon fill="midnightblue" stroke="midnightblue" points="849.633,-83.081 842.14,-75.5914 843.327,-86.1195 849.633,-83.081"/>
</g>
<!-- Node8&#45;&gt;Node3 -->
<g id="edge13" class="edge"><title>Node8&#45;&gt;Node3</title>
<path fill="none" stroke="midnightblue" d="M922.41,-172.084C976.828,-163.371 1086.34,-144.923 1123,-132 1160.4,-118.816 1200.43,-95.8031 1224.32,-80.9939"/>
<polygon fill="midnightblue" stroke="midnightblue" points="1226.34,-83.8594 1232.94,-75.5723 1222.62,-77.9341 1226.34,-83.8594"/>
</g>
<!-- Node9 -->
<g id="node10" class="node"><title>Node9</title>
<g id="a_node10"><a xlink:title=" ">
<polygon fill="white" stroke="#bfbfbf" points="950.5,-56.5 950.5,-75.5 1003.5,-75.5 1003.5,-56.5 950.5,-56.5"/>
<text text-anchor="middle" x="977" y="-63.5" font-family="Helvetica,sans-Serif" font-size="10.00">sstream</text>
</a>
</g>
</g>
<!-- Node8&#45;&gt;Node9 -->
<g id="edge10" class="edge"><title>Node8&#45;&gt;Node9</title>
<path fill="none" stroke="midnightblue" d="M922.245,-171.727C960.657,-164.535 1022.44,-150.409 1036,-132 1050,-112.997 1025.47,-93.1966 1003.9,-80.519"/>
<polygon fill="midnightblue" stroke="midnightblue" points="1005.4,-77.3483 994.959,-75.5449 1002,-83.4653 1005.4,-77.3483"/>
</g>
<!-- Node10 -->
<g id="node11" class="node"><title>Node10</title>
<g id="a_node11"><a xlink:title=" ">
<polygon fill="white" stroke="#bfbfbf" points="792,-112.5 792,-131.5 844,-131.5 844,-112.5 792,-112.5"/>
<text text-anchor="middle" x="818" y="-119.5" font-family="Helvetica,sans-Serif" font-size="10.00">iomanip</text>
</a>
</g>
</g>
<!-- Node8&#45;&gt;Node10 -->
<g id="edge11" class="edge"><title>Node8&#45;&gt;Node10</title>
<path fill="none" stroke="midnightblue" d="M879.271,-168.324C868.163,-160.107 851.258,-147.602 838.017,-137.807"/>
<polygon fill="midnightblue" stroke="midnightblue" points="840.063,-134.967 829.942,-131.834 835.9,-140.595 840.063,-134.967"/>
</g>
<!-- Node11 -->
<g id="node12" class="node"><title>Node11</title>
<g id="a_node12"><a xlink:title=" ">
<polygon fill="white" stroke="#bfbfbf" points="1146.5,-56.5 1146.5,-75.5 1197.5,-75.5 1197.5,-56.5 1146.5,-56.5"/>
<text text-anchor="middle" x="1172" y="-63.5" font-family="Helvetica,sans-Serif" font-size="10.00">typeinfo</text>
</a>
</g>
</g>
<!-- Node8&#45;&gt;Node11 -->
<g id="edge12" class="edge"><title>Node8&#45;&gt;Node11</title>
<path fill="none" stroke="midnightblue" d="M922.102,-171.898C970.941,-163.583 1063.13,-146.571 1093,-132 1118.05,-119.78 1142.08,-98.1144 1156.92,-83.177"/>
<polygon fill="midnightblue" stroke="midnightblue" points="1159.74,-85.2971 1164.17,-75.6733 1154.7,-80.4333 1159.74,-85.2971"/>
</g>
<!-- Node12 -->
<g id="node13" class="node"><title>Node12</title>
<g id="a_node13"><a xlink:title=" ">
<polygon fill="white" stroke="#bfbfbf" points="1022,-56.5 1022,-75.5 1060,-75.5 1060,-56.5 1022,-56.5"/>
<text text-anchor="middle" x="1041" y="-63.5" font-family="Helvetica,sans-Serif" font-size="10.00">utility</text>
</a>
</g>
</g>
<!-- Node8&#45;&gt;Node12 -->
<g id="edge14" class="edge"><title>Node8&#45;&gt;Node12</title>
<path fill="none" stroke="midnightblue" d="M922.138,-170.464C966.904,-160.757 1044.99,-142.545 1053,-132 1063.28,-118.473 1057.66,-98.8501 1051.08,-84.7075"/>
<polygon fill="midnightblue" stroke="midnightblue" points="1054.05,-82.8187 1046.35,-75.5435 1047.83,-86.0339 1054.05,-82.8187"/>
</g>
<!-- Node13 -->
<g id="node14" class="node"><title>Node13</title>
<g id="a_node14"><a xlink:title=" ">
<polygon fill="white" stroke="#bfbfbf" points="1078,-56.5 1078,-75.5 1128,-75.5 1128,-56.5 1078,-56.5"/>
<text text-anchor="middle" x="1103" y="-63.5" font-family="Helvetica,sans-Serif" font-size="10.00">cassert</text>
</a>
</g>
</g>
<!-- Node8&#45;&gt;Node13 -->
<g id="edge15" class="edge"><title>Node8&#45;&gt;Node13</title>
<path fill="none" stroke="midnightblue" d="M922.253,-172.334C967.239,-165.095 1047.34,-150.091 1070,-132 1084.66,-120.298 1093.41,-100.357 1098.17,-85.6406"/>
<polygon fill="midnightblue" stroke="midnightblue" points="1101.65,-86.2071 1101.07,-75.6281 1094.93,-84.2591 1101.65,-86.2071"/>
</g>
<!-- Node14 -->
<g id="node15" class="node"><title>Node14</title>
<g id="a_node15"><a xlink:title=" ">
<polygon fill="white" stroke="#bfbfbf" points="455.5,-56.5 455.5,-75.5 496.5,-75.5 496.5,-56.5 455.5,-56.5"/>
<text text-anchor="middle" x="476" y="-63.5" font-family="Helvetica,sans-Serif" font-size="10.00">string</text>
</a>
</g>
</g>
<!-- Node8&#45;&gt;Node14 -->
<g id="edge16" class="edge"><title>Node8&#45;&gt;Node14</title>
<path fill="none" stroke="midnightblue" d="M859.837,-175.996C767.275,-172.697 498.787,-160.713 473,-132 461.932,-119.677 464.527,-100.147 468.764,-85.7081"/>
<polygon fill="midnightblue" stroke="midnightblue" points="472.207,-86.4574 472.126,-75.8628 465.582,-84.1955 472.207,-86.4574"/>
</g>
<!-- Node15 -->
<g id="node16" class="node"><title>Node15</title>
<g id="a_node16"><a xlink:title=" ">
<polygon fill="white" stroke="#bfbfbf" points="884,-56.5 884,-75.5 932,-75.5 932,-56.5 884,-56.5"/>
<text text-anchor="middle" x="908" y="-63.5" font-family="Helvetica,sans-Serif" font-size="10.00">string.h</text>
</a>
</g>
</g>
<!-- Node8&#45;&gt;Node15 -->
<g id="edge17" class="edge"><title>Node8&#45;&gt;Node15</title>
<path fill="none" stroke="midnightblue" d="M892.334,-168.368C895.077,-150.617 901.406,-109.666 905.126,-85.5974"/>
<polygon fill="midnightblue" stroke="midnightblue" points="908.604,-86.0087 906.672,-75.5914 901.686,-84.9395 908.604,-86.0087"/>
</g>
<!-- Node16 -->
<g id="node17" class="node"><title>Node16</title>
<g id="a_node17"><a xlink:title=" ">
<polygon fill="white" stroke="#bfbfbf" points="558,-56.5 558,-75.5 602,-75.5 602,-56.5 558,-56.5"/>
<text text-anchor="middle" x="580" y="-63.5" font-family="Helvetica,sans-Serif" font-size="10.00">vector</text>
</a>
</g>
</g>
<!-- Node8&#45;&gt;Node16 -->
<g id="edge18" class="edge"><title>Node8&#45;&gt;Node16</title>
<path fill="none" stroke="midnightblue" d="M859.663,-176.345C812.493,-174.229 721.485,-165.691 653,-132 629.103,-120.244 607.071,-98.474 593.598,-83.3857"/>
<polygon fill="midnightblue" stroke="midnightblue" points="596.225,-81.072 587.037,-75.7968 590.93,-85.6505 596.225,-81.072"/>
</g>
<!-- Node17 -->
<g id="node18" class="node"><title>Node17</title>
<g id="a_node18"><a xlink:href="matrix__base_8hpp.html" target="_top" xlink:title="matrix base">
<polygon fill="white" stroke="black" points="938.5,-112.5 938.5,-131.5 1027.5,-131.5 1027.5,-112.5 938.5,-112.5"/>
<text text-anchor="middle" x="983" y="-119.5" font-family="Helvetica,sans-Serif" font-size="10.00">matrix_base.hpp</text>
</a>
</g>
</g>
<!-- Node8&#45;&gt;Node17 -->
<g id="edge19" class="edge"><title>Node8&#45;&gt;Node17</title>
<path fill="none" stroke="midnightblue" d="M905.781,-168.324C920.267,-159.822 942.573,-146.729 959.493,-136.797"/>
<polygon fill="midnightblue" stroke="midnightblue" points="961.403,-139.735 968.255,-131.655 957.859,-133.698 961.403,-139.735"/>
</g>
<!-- Node8&#45;&gt;Node19 -->
<g id="edge30" class="edge"><title>Node8&#45;&gt;Node19</title>
<path fill="none" stroke="midnightblue" d="M859.82,-174.025C786.546,-167.004 597.67,-148.734 440,-132 438.888,-131.882 437.768,-131.763 436.64,-131.642"/>
<polygon fill="midnightblue" stroke="midnightblue" points="436.665,-128.124 426.347,-130.529 435.913,-135.084 436.665,-128.124"/>
</g>
<!-- Node23 -->
<g id="node24" class="node"><title>Node23</title>
<g id="a_node24"><a xlink:href="line__split_8hpp.html" target="_top" xlink:title="line split">
<polygon fill="white" stroke="black" points="662.5,-112.5 662.5,-131.5 735.5,-131.5 735.5,-112.5 662.5,-112.5"/>
<text text-anchor="middle" x="699" y="-119.5" font-family="Helvetica,sans-Serif" font-size="10.00">line_split.hpp</text>
</a>
</g>
</g>
<!-- Node8&#45;&gt;Node23 -->
<g id="edge36" class="edge"><title>Node8&#45;&gt;Node23</title>
<path fill="none" stroke="midnightblue" d="M860.577,-168.444C827.715,-159.201 775.215,-144.436 739.026,-134.257"/>
<polygon fill="midnightblue" stroke="midnightblue" points="739.855,-130.855 729.281,-131.516 737.96,-137.593 739.855,-130.855"/>
</g>
<!-- Node17&#45;&gt;Node1 -->
<g id="edge20" class="edge"><title>Node17&#45;&gt;Node1</title>
<path fill="none" stroke="midnightblue" d="M960.024,-112.444C935.843,-103.438 897.582,-89.1891 870.354,-79.049"/>
<polygon fill="midnightblue" stroke="midnightblue" points="871.461,-75.7265 860.868,-75.5164 869.018,-82.2864 871.461,-75.7265"/>
</g>
<!-- Node17&#45;&gt;Node3 -->
<g id="edge23" class="edge"><title>Node17&#45;&gt;Node3</title>
<path fill="none" stroke="midnightblue" d="M1026.64,-112.49C1071.64,-103.647 1143.81,-89.2691 1206,-76 1206.1,-75.9786 1206.2,-75.9573 1206.3,-75.9358"/>
<polygon fill="midnightblue" stroke="midnightblue" points="1206.85,-79.3988 1215.87,-73.8533 1205.36,-72.5588 1206.85,-79.3988"/>
</g>
<!-- Node17&#45;&gt;Node5 -->
<g id="edge28" class="edge"><title>Node17&#45;&gt;Node5</title>
<path fill="none" stroke="midnightblue" d="M938.482,-117.84C913.381,-116.078 881.444,-113.869 853,-112 598.991,-95.3109 531.439,-108.48 275.073,-75.9669"/>
<polygon fill="midnightblue" stroke="midnightblue" points="275.452,-72.487 265.089,-74.6898 274.564,-79.4304 275.452,-72.487"/>
</g>
<!-- Node17&#45;&gt;Node9 -->
<g id="edge21" class="edge"><title>Node17&#45;&gt;Node9</title>
<path fill="none" stroke="midnightblue" d="M982.009,-112.083C981.214,-104.927 980.071,-94.6353 979.077,-85.6911"/>
<polygon fill="midnightblue" stroke="midnightblue" points="982.555,-85.3034 977.972,-75.7511 975.598,-86.0765 982.555,-85.3034"/>
</g>
<!-- Node17&#45;&gt;Node11 -->
<g id="edge22" class="edge"><title>Node17&#45;&gt;Node11</title>
<path fill="none" stroke="midnightblue" d="M1012.95,-112.444C1046.48,-102.862 1100.8,-87.3435 1136.46,-77.1548"/>
<polygon fill="midnightblue" stroke="midnightblue" points="1137.78,-80.4168 1146.44,-74.3042 1135.86,-73.6861 1137.78,-80.4168"/>
</g>
<!-- Node17&#45;&gt;Node12 -->
<g id="edge24" class="edge"><title>Node17&#45;&gt;Node12</title>
<path fill="none" stroke="midnightblue" d="M992.319,-112.324C1000.89,-104.341 1013.81,-92.3128 1024.19,-82.6529"/>
<polygon fill="midnightblue" stroke="midnightblue" points="1026.58,-85.2098 1031.51,-75.8339 1021.81,-80.0865 1026.58,-85.2098"/>
</g>
<!-- Node17&#45;&gt;Node13 -->
<g id="edge25" class="edge"><title>Node17&#45;&gt;Node13</title>
<path fill="none" stroke="midnightblue" d="M1002.01,-112.444C1021.59,-103.636 1052.31,-89.8116 1074.73,-79.722"/>
<polygon fill="midnightblue" stroke="midnightblue" points="1076.39,-82.8119 1084.07,-75.5164 1073.52,-76.4284 1076.39,-82.8119"/>
</g>
<!-- Node17&#45;&gt;Node15 -->
<g id="edge26" class="edge"><title>Node17&#45;&gt;Node15</title>
<path fill="none" stroke="midnightblue" d="M970.95,-112.324C959.537,-104.107 942.169,-91.6017 928.565,-81.8069"/>
<polygon fill="midnightblue" stroke="midnightblue" points="930.43,-78.8366 920.269,-75.8339 926.34,-84.5174 930.43,-78.8366"/>
</g>
<!-- Node17&#45;&gt;Node16 -->
<g id="edge27" class="edge"><title>Node17&#45;&gt;Node16</title>
<path fill="none" stroke="midnightblue" d="M938.246,-117.943C869.849,-112.757 735.145,-100.523 612.204,-75.9496"/>
<polygon fill="midnightblue" stroke="midnightblue" points="612.74,-72.4871 602.243,-73.9259 611.346,-79.3469 612.74,-72.4871"/>
</g>
<!-- Node18 -->
<g id="node19" class="node"><title>Node18</title>
<g id="a_node19"><a xlink:href="verbose__global_8hpp.html" target="_top" xlink:title="verbose global">
<polygon fill="white" stroke="black" points="688,-56.5 688,-75.5 792,-75.5 792,-56.5 688,-56.5"/>
<text text-anchor="middle" x="740" y="-63.5" font-family="Helvetica,sans-Serif" font-size="10.00">verbose_global.hpp</text>
</a>
</g>
</g>
<!-- Node17&#45;&gt;Node18 -->
<g id="edge29" class="edge"><title>Node17&#45;&gt;Node18</title>
<path fill="none" stroke="midnightblue" d="M944.496,-112.444C902.194,-103.043 834.181,-87.9291 788.327,-77.7393"/>
<polygon fill="midnightblue" stroke="midnightblue" points="788.845,-74.2692 778.324,-75.5164 787.327,-81.1025 788.845,-74.2692"/>
</g>
<!-- Node20 -->
<g id="node21" class="node"><title>Node20</title>
<g id="a_node21"><a xlink:href="interface__level1_8hpp.html" target="_top" xlink:title="Interface_level 1.">
<polygon fill="white" stroke="black" points="283,-56.5 283,-75.5 389,-75.5 389,-56.5 283,-56.5"/>
<text text-anchor="middle" x="336" y="-63.5" font-family="Helvetica,sans-Serif" font-size="10.00">interface_level1.hpp</text>
</a>
</g>
</g>
<!-- Node19&#45;&gt;Node20 -->
<g id="edge31" class="edge"><title>Node19&#45;&gt;Node20</title>
<path fill="none" stroke="midnightblue" d="M356.037,-112.083C352.787,-104.77 348.081,-94.1814 344.046,-85.1034"/>
<polygon fill="midnightblue" stroke="midnightblue" points="347.149,-83.4677 339.889,-75.7511 340.752,-86.3107 347.149,-83.4677"/>
</g>
<!-- Node20&#45;&gt;Node2 -->
<g id="edge35" class="edge"><title>Node20&#45;&gt;Node2</title>
<path fill="none" stroke="midnightblue" d="M294.802,-56.4435C243.018,-45.6884 155.223,-27.4541 108.126,-17.6724"/>
<polygon fill="midnightblue" stroke="midnightblue" points="108.675,-14.2117 98.1718,-15.6049 107.251,-21.0654 108.675,-14.2117"/>
</g>
<!-- Node20&#45;&gt;Node7 -->
<g id="edge34" class="edge"><title>Node20&#45;&gt;Node7</title>
<path fill="none" stroke="midnightblue" d="M312.391,-56.4435C286.373,-47.0143 244.493,-31.8364 216.374,-21.6458"/>
<polygon fill="midnightblue" stroke="midnightblue" points="217.287,-18.2536 206.692,-18.1368 214.901,-24.8347 217.287,-18.2536"/>
</g>
<!-- Node21 -->
<g id="node22" class="node"><title>Node21</title>
<g id="a_node22"><a xlink:title=" ">
<polygon fill="white" stroke="#bfbfbf" points="438,-0.5 438,-19.5 496,-19.5 496,-0.5 438,-0.5"/>
<text text-anchor="middle" x="467" y="-7.5" font-family="Helvetica,sans-Serif" font-size="10.00">algorithm</text>
</a>
</g>
</g>
<!-- Node20&#45;&gt;Node21 -->
<g id="edge32" class="edge"><title>Node20&#45;&gt;Node21</title>
<path fill="none" stroke="midnightblue" d="M356.757,-56.4435C378.316,-47.5566 412.263,-33.5632 436.794,-23.4514"/>
<polygon fill="midnightblue" stroke="midnightblue" points="438.428,-26.5634 446.34,-19.5164 435.761,-20.0917 438.428,-26.5634"/>
</g>
<!-- Node22 -->
<g id="node23" class="node"><title>Node22</title>
<g id="a_node23"><a xlink:title=" ">
<polygon fill="white" stroke="#bfbfbf" points="310,-0.5 310,-19.5 362,-19.5 362,-0.5 310,-0.5"/>
<text text-anchor="middle" x="336" y="-7.5" font-family="Helvetica,sans-Serif" font-size="10.00">numeric</text>
</a>
</g>
</g>
<!-- Node20&#45;&gt;Node22 -->
<g id="edge33" class="edge"><title>Node20&#45;&gt;Node22</title>
<path fill="none" stroke="midnightblue" d="M336,-56.083C336,-49.0059 336,-38.8611 336,-29.9865"/>
<polygon fill="midnightblue" stroke="midnightblue" points="339.5,-29.751 336,-19.7511 332.5,-29.7511 339.5,-29.751"/>
</g>
<!-- Node23&#45;&gt;Node1 -->
<g id="edge37" class="edge"><title>Node23&#45;&gt;Node1</title>
<path fill="none" stroke="midnightblue" d="M721.025,-112.444C744.104,-103.478 780.562,-89.314 806.641,-79.1827"/>
<polygon fill="midnightblue" stroke="midnightblue" points="808.024,-82.4002 816.078,-75.5164 805.489,-75.8753 808.024,-82.4002"/>
</g>
<!-- Node23&#45;&gt;Node3 -->
<g id="edge40" class="edge"><title>Node23&#45;&gt;Node3</title>
<path fill="none" stroke="midnightblue" d="M735.782,-116.883C750.463,-115.286 767.525,-113.487 783,-112 970.814,-93.9486 1019.53,-104.776 1206,-76 1206.1,-75.9844 1206.2,-75.9687 1206.3,-75.9529"/>
<polygon fill="midnightblue" stroke="midnightblue" points="1206.72,-79.4345 1215.94,-74.2246 1205.48,-72.5444 1206.72,-79.4345"/>
</g>
<!-- Node23&#45;&gt;Node5 -->
<g id="edge44" class="edge"><title>Node23&#45;&gt;Node5</title>
<path fill="none" stroke="midnightblue" d="M662.478,-118.22C590.431,-112.501 424.738,-98.1906 275.377,-76.0864"/>
<polygon fill="midnightblue" stroke="midnightblue" points="275.516,-72.5683 265.109,-74.5504 274.481,-79.4913 275.516,-72.5683"/>
</g>
<!-- Node23&#45;&gt;Node9 -->
<g id="edge38" class="edge"><title>Node23&#45;&gt;Node9</title>
<path fill="none" stroke="midnightblue" d="M735.628,-114.907C781.201,-107.169 861.612,-92.9997 940.231,-76.0554"/>
<polygon fill="midnightblue" stroke="midnightblue" points="941.277,-79.4099 950.306,-73.8663 939.791,-72.5695 941.277,-79.4099"/>
</g>
<!-- Node23&#45;&gt;Node14 -->
<g id="edge42" class="edge"><title>Node23&#45;&gt;Node14</title>
<path fill="none" stroke="midnightblue" d="M663.665,-112.444C620.394,-101.965 547.809,-84.3888 506.745,-74.445"/>
<polygon fill="midnightblue" stroke="midnightblue" points="507.321,-70.9834 496.778,-72.0315 505.674,-77.7868 507.321,-70.9834"/>
</g>
<!-- Node23&#45;&gt;Node15 -->
<g id="edge43" class="edge"><title>Node23&#45;&gt;Node15</title>
<path fill="none" stroke="midnightblue" d="M733.111,-112.45C766.588,-104.02 819.35,-90.6351 874.001,-76.2349"/>
<polygon fill="midnightblue" stroke="midnightblue" points="875.086,-79.5682 883.861,-73.6309 873.299,-72.8002 875.086,-79.5682"/>
</g>
<!-- Node23&#45;&gt;Node16 -->
<g id="edge41" class="edge"><title>Node23&#45;&gt;Node16</title>
<path fill="none" stroke="midnightblue" d="M680.144,-112.444C660.734,-103.636 630.27,-89.8116 608.035,-79.722"/>
<polygon fill="midnightblue" stroke="midnightblue" points="609.32,-76.4615 598.768,-75.5164 606.428,-82.836 609.32,-76.4615"/>
</g>
<!-- Node23&#45;&gt;Node18 -->
<g id="edge45" class="edge"><title>Node23&#45;&gt;Node18</title>
<path fill="none" stroke="midnightblue" d="M705.77,-112.083C711.562,-104.455 720.058,-93.2645 727.138,-83.9408"/>
<polygon fill="midnightblue" stroke="midnightblue" points="730.096,-85.8321 733.356,-75.7511 724.521,-81.5991 730.096,-85.8321"/>
</g>
<!-- Node24 -->
<g id="node25" class="node"><title>Node24</title>
<g id="a_node25"><a xlink:title=" ">
<polygon fill="white" stroke="#bfbfbf" points="620,-56.5 620,-75.5 670,-75.5 670,-56.5 620,-56.5"/>
<text text-anchor="middle" x="645" y="-63.5" font-family="Helvetica,sans-Serif" font-size="10.00">fstream</text>
</a>
</g>
</g>
<!-- Node23&#45;&gt;Node24 -->
<g id="edge39" class="edge"><title>Node23&#45;&gt;Node24</title>
<path fill="none" stroke="midnightblue" d="M690.083,-112.083C682.22,-104.22 670.569,-92.5688 661.081,-83.0813"/>
<polygon fill="midnightblue" stroke="midnightblue" points="663.297,-80.3473 653.751,-75.7511 658.347,-85.2971 663.297,-80.3473"/>
</g>
<!-- Node25&#45;&gt;Node2 -->
<g id="edge47" class="edge"><title>Node25&#45;&gt;Node2</title>
<path fill="none" stroke="midnightblue" d="M147.914,-168.075C135.847,-141.719 100.209,-63.878 84.0856,-28.6608"/>
<polygon fill="midnightblue" stroke="midnightblue" points="87.2679,-27.2035 79.9227,-19.5681 80.9032,-30.1175 87.2679,-27.2035"/>
</g>
<!-- Node25&#45;&gt;Node5 -->
<g id="edge50" class="edge"><title>Node25&#45;&gt;Node5</title>
<path fill="none" stroke="midnightblue" d="M157.964,-168.368C170.506,-150.215 199.81,-107.802 216.261,-83.9902"/>
<polygon fill="midnightblue" stroke="midnightblue" points="219.259,-85.8083 222.064,-75.5914 213.5,-81.8292 219.259,-85.8083"/>
</g>
<!-- Node25&#45;&gt;Node7 -->
<g id="edge48" class="edge"><title>Node25&#45;&gt;Node7</title>
<path fill="none" stroke="midnightblue" d="M153.882,-168.075C159.391,-141.945 175.57,-65.2106 183.083,-29.577"/>
<polygon fill="midnightblue" stroke="midnightblue" points="186.555,-30.0751 185.193,-19.5681 179.706,-28.6309 186.555,-30.0751"/>
</g>
<!-- Node25&#45;&gt;Node23 -->
<g id="edge49" class="edge"><title>Node25&#45;&gt;Node23</title>
<path fill="none" stroke="midnightblue" d="M188.314,-173.415C284.378,-163.932 545.122,-138.191 652.17,-127.623"/>
<polygon fill="midnightblue" stroke="midnightblue" points="652.733,-131.085 662.34,-126.619 652.045,-124.118 652.733,-131.085"/>
</g>
<!-- Node27 -->
<g id="node28" class="node"><title>Node27</title>
<g id="a_node28"><a xlink:href="dist__template_8hpp.html" target="_top" xlink:title="distance template">
<polygon fill="white" stroke="black" points="843,-280.5 843,-299.5 937,-299.5 937,-280.5 843,-280.5"/>
<text text-anchor="middle" x="890" y="-287.5" font-family="Helvetica,sans-Serif" font-size="10.00">dist_template.hpp</text>
</a>
</g>
</g>
<!-- Node26&#45;&gt;Node27 -->
<g id="edge52" class="edge"><title>Node26&#45;&gt;Node27</title>
<path fill="none" stroke="midnightblue" d="M890,-336.083C890,-329.006 890,-318.861 890,-309.986"/>
<polygon fill="midnightblue" stroke="midnightblue" points="893.5,-309.751 890,-299.751 886.5,-309.751 893.5,-309.751"/>
</g>
<!-- Node29 -->
<g id="node30" class="node"><title>Node29</title>
<g id="a_node30"><a xlink:href="matop__withoutopenblas_8hpp.html" target="_top" xlink:title="Matrix operations.">
<polygon fill="white" stroke="black" points="340,-280.5 340,-299.5 480,-299.5 480,-280.5 340,-280.5"/>
<text text-anchor="middle" x="410" y="-287.5" font-family="Helvetica,sans-Serif" font-size="10.00">matop_withoutopenblas.hpp</text>
</a>
</g>
</g>
<!-- Node28&#45;&gt;Node29 -->
<g id="edge54" class="edge"><title>Node28&#45;&gt;Node29</title>
<path fill="none" stroke="midnightblue" d="M484.701,-336.324C470.817,-327.9 449.508,-314.971 433.196,-305.074"/>
<polygon fill="midnightblue" stroke="midnightblue" points="434.629,-301.85 424.264,-299.655 430.998,-307.834 434.629,-301.85"/>
</g>
<!-- Node29&#45;&gt;Node2 -->
<g id="edge58" class="edge"><title>Node29&#45;&gt;Node2</title>
<path fill="none" stroke="midnightblue" d="M339.763,-284.3C292.057,-279.017 228.52,-267.8 177,-244 140.831,-227.291 127.303,-222.28 107,-188 76.8511,-137.096 74.3582,-64.4793 75.0917,-30.2526"/>
<polygon fill="midnightblue" stroke="midnightblue" points="78.6036,-29.959 75.4456,-19.8458 71.6076,-29.721 78.6036,-29.959"/>
</g>
<!-- Node29&#45;&gt;Node16 -->
<g id="edge55" class="edge"><title>Node29&#45;&gt;Node16</title>
<path fill="none" stroke="midnightblue" d="M480.23,-282.337C530.829,-275.915 592.913,-264.131 609,-244 646.862,-196.62 610.324,-118.877 590.68,-84.4001"/>
<polygon fill="midnightblue" stroke="midnightblue" points="593.541,-82.3602 585.445,-75.5258 587.512,-85.9171 593.541,-82.3602"/>
</g>
<!-- Node29&#45;&gt;Node20 -->
<g id="edge70" class="edge"><title>Node29&#45;&gt;Node20</title>
<path fill="none" stroke="midnightblue" d="M417.879,-280.215C428.398,-267.363 444.548,-242.91 434,-224 396.086,-156.031 322.914,-199.969 285,-132 274.431,-113.054 294.154,-93.8055 312.063,-81.2259"/>
<polygon fill="midnightblue" stroke="midnightblue" points="314.147,-84.0439 320.568,-75.6167 310.293,-78.2002 314.147,-84.0439"/>
</g>
<!-- Node30 -->
<g id="node31" class="node"><title>Node30</title>
<g id="a_node31"><a xlink:title=" ">
<polygon fill="white" stroke="#bfbfbf" points="186,-224.5 186,-243.5 224,-243.5 224,-224.5 186,-224.5"/>
<text text-anchor="middle" x="205" y="-231.5" font-family="Helvetica,sans-Serif" font-size="10.00">tuple</text>
</a>
</g>
</g>
<!-- Node29&#45;&gt;Node30 -->
<g id="edge56" class="edge"><title>Node29&#45;&gt;Node30</title>
<path fill="none" stroke="midnightblue" d="M373.551,-280.433C339.674,-272.316 287.615,-259.449 233.918,-244.139"/>
<polygon fill="midnightblue" stroke="midnightblue" points="234.809,-240.753 224.232,-241.355 232.876,-247.481 234.809,-240.753"/>
</g>
<!-- Node31 -->
<g id="node32" class="node"><title>Node31</title>
<g id="a_node32"><a xlink:title=" ">
<polygon fill="white" stroke="#bfbfbf" points="242,-224.5 242,-243.5 290,-243.5 290,-224.5 242,-224.5"/>
<text text-anchor="middle" x="266" y="-231.5" font-family="Helvetica,sans-Serif" font-size="10.00">ctype.h</text>
</a>
</g>
</g>
<!-- Node29&#45;&gt;Node31 -->
<g id="edge57" class="edge"><title>Node29&#45;&gt;Node31</title>
<path fill="none" stroke="midnightblue" d="M387.183,-280.444C363.168,-271.438 325.171,-257.189 298.131,-247.049"/>
<polygon fill="midnightblue" stroke="midnightblue" points="299.303,-243.751 288.71,-243.516 296.845,-250.305 299.303,-243.751"/>
</g>
<!-- Node32 -->
<g id="node33" class="node"><title>Node32</title>
<g id="a_node33"><a xlink:href="matrix__inverse__lup_8hpp.html" target="_top" xlink:title="Reverse of a matrix by the LUP method.">
<polygon fill="white" stroke="black" points="482,-224.5 482,-243.5 600,-243.5 600,-224.5 482,-224.5"/>
<text text-anchor="middle" x="541" y="-231.5" font-family="Helvetica,sans-Serif" font-size="10.00">matrix_inverse_lup.hpp</text>
</a>
</g>
</g>
<!-- Node29&#45;&gt;Node32 -->
<g id="edge59" class="edge"><title>Node29&#45;&gt;Node32</title>
<path fill="none" stroke="midnightblue" d="M430.757,-280.444C452.316,-271.557 486.263,-257.563 510.794,-247.451"/>
<polygon fill="midnightblue" stroke="midnightblue" points="512.428,-250.563 520.34,-243.516 509.761,-244.092 512.428,-250.563"/>
</g>
<!-- Node35 -->
<g id="node36" class="node"><title>Node35</title>
<g id="a_node36"><a xlink:href="jacobi__eigenvalue_8hpp.html" target="_top" xlink:title="Function jacobi_eigenvalue are part of.">
<polygon fill="white" stroke="black" points="308.5,-224.5 308.5,-243.5 425.5,-243.5 425.5,-224.5 308.5,-224.5"/>
<text text-anchor="middle" x="367" y="-231.5" font-family="Helvetica,sans-Serif" font-size="10.00">jacobi_eigenvalue.hpp</text>
</a>
</g>
</g>
<!-- Node29&#45;&gt;Node35 -->
<g id="edge69" class="edge"><title>Node29&#45;&gt;Node35</title>
<path fill="none" stroke="midnightblue" d="M402.899,-280.083C396.763,-272.377 387.73,-261.033 380.261,-251.653"/>
<polygon fill="midnightblue" stroke="midnightblue" points="382.936,-249.394 373.968,-243.751 377.46,-253.754 382.936,-249.394"/>
</g>
<!-- Node32&#45;&gt;Node8 -->
<g id="edge61" class="edge"><title>Node32&#45;&gt;Node8</title>
<path fill="none" stroke="midnightblue" d="M596.459,-224.444C666.938,-213.57 786.971,-195.05 849.835,-185.351"/>
<polygon fill="midnightblue" stroke="midnightblue" points="850.434,-188.8 859.784,-183.816 849.367,-181.882 850.434,-188.8"/>
</g>
<!-- Node33 -->
<g id="node34" class="node"><title>Node33</title>
<g id="a_node34"><a xlink:title=" ">
<polygon fill="white" stroke="#bfbfbf" points="516,-168.5 516,-187.5 562,-187.5 562,-168.5 516,-168.5"/>
<text text-anchor="middle" x="539" y="-175.5" font-family="Helvetica,sans-Serif" font-size="10.00">stdio.h</text>
</a>
</g>
</g>
<!-- Node32&#45;&gt;Node33 -->
<g id="edge60" class="edge"><title>Node32&#45;&gt;Node33</title>
<path fill="none" stroke="midnightblue" d="M540.67,-224.083C540.408,-217.006 540.032,-206.861 539.703,-197.986"/>
<polygon fill="midnightblue" stroke="midnightblue" points="543.192,-197.615 539.324,-187.751 536.197,-197.874 543.192,-197.615"/>
</g>
<!-- Node34 -->
<g id="node35" class="node"><title>Node34</title>
<g id="a_node35"><a xlink:href="vector__utils_8hpp.html" target="_top" xlink:title="Operations for vector manipulation.">
<polygon fill="white" stroke="black" points="482.5,-112.5 482.5,-131.5 567.5,-131.5 567.5,-112.5 482.5,-112.5"/>
<text text-anchor="middle" x="525" y="-119.5" font-family="Helvetica,sans-Serif" font-size="10.00">vector_utils.hpp</text>
</a>
</g>
</g>
<!-- Node32&#45;&gt;Node34 -->
<g id="edge62" class="edge"><title>Node32&#45;&gt;Node34</title>
<path fill="none" stroke="midnightblue" d="M550.047,-224.254C561.724,-211.851 579.578,-188.392 571,-168 565.974,-156.053 556.056,-145.692 546.713,-137.934"/>
<polygon fill="midnightblue" stroke="midnightblue" points="548.84,-135.155 538.787,-131.811 544.561,-140.694 548.84,-135.155"/>
</g>
<!-- Node34&#45;&gt;Node1 -->
<g id="edge63" class="edge"><title>Node34&#45;&gt;Node1</title>
<path fill="none" stroke="midnightblue" d="M567.739,-115.074C620.176,-107.573 711.985,-93.6969 799.9,-76.0988"/>
<polygon fill="midnightblue" stroke="midnightblue" points="800.66,-79.5161 809.768,-74.1042 799.273,-72.6548 800.66,-79.5161"/>
</g>
<!-- Node34&#45;&gt;Node5 -->
<g id="edge67" class="edge"><title>Node34&#45;&gt;Node5</title>
<path fill="none" stroke="midnightblue" d="M482.327,-113.561C434.404,-105.16 354.036,-90.9312 275.246,-76.2113"/>
<polygon fill="midnightblue" stroke="midnightblue" points="275.621,-72.7207 265.147,-74.3203 274.332,-79.6011 275.621,-72.7207"/>
</g>
<!-- Node34&#45;&gt;Node14 -->
<g id="edge65" class="edge"><title>Node34&#45;&gt;Node14</title>
<path fill="none" stroke="midnightblue" d="M516.909,-112.083C509.845,-104.298 499.412,-92.8015 490.851,-83.3665"/>
<polygon fill="midnightblue" stroke="midnightblue" points="493.253,-80.8047 483.941,-75.7511 488.069,-85.5087 493.253,-80.8047"/>
</g>
<!-- Node34&#45;&gt;Node16 -->
<g id="edge64" class="edge"><title>Node34&#45;&gt;Node16</title>
<path fill="none" stroke="midnightblue" d="M534.082,-112.083C542.171,-104.141 554.195,-92.3354 563.91,-82.7973"/>
<polygon fill="midnightblue" stroke="midnightblue" points="566.403,-85.2545 571.087,-75.7511 561.499,-80.2595 566.403,-85.2545"/>
</g>
<!-- Node34&#45;&gt;Node18 -->
<g id="edge68" class="edge"><title>Node34&#45;&gt;Node18</title>
<path fill="none" stroke="midnightblue" d="M559.067,-112.444C596.18,-103.122 655.661,-88.1828 696.215,-77.9972"/>
<polygon fill="midnightblue" stroke="midnightblue" points="697.246,-81.347 706.092,-75.5164 695.541,-74.5579 697.246,-81.347"/>
</g>
<!-- Node34&#45;&gt;Node21 -->
<g id="edge66" class="edge"><title>Node34&#45;&gt;Node21</title>
<path fill="none" stroke="midnightblue" d="M523.452,-112.147C520.936,-99.2096 515.187,-74.6519 505,-56 499.192,-45.3656 490.619,-34.9342 483.085,-26.7966"/>
<polygon fill="midnightblue" stroke="midnightblue" points="485.503,-24.2622 476.038,-19.501 480.468,-29.1253 485.503,-24.2622"/>
</g>
<!-- Node37 -->
<g id="node38" class="node"><title>Node37</title>
<g id="a_node38"><a xlink:href="interface__level2_8hpp.html" target="_top" xlink:title="Interface_level 2.">
<polygon fill="white" stroke="black" points="981,-224.5 981,-243.5 1087,-243.5 1087,-224.5 981,-224.5"/>
<text text-anchor="middle" x="1034" y="-231.5" font-family="Helvetica,sans-Serif" font-size="10.00">interface_level2.hpp</text>
</a>
</g>
</g>
<!-- Node36&#45;&gt;Node37 -->
<g id="edge73" class="edge"><title>Node36&#45;&gt;Node37</title>
<path fill="none" stroke="midnightblue" d="M1034,-336.368C1034,-318.617 1034,-277.666 1034,-253.597"/>
<polygon fill="midnightblue" stroke="midnightblue" points="1037.5,-253.591 1034,-243.591 1030.5,-253.591 1037.5,-253.591"/>
</g>
<!-- Node37&#45;&gt;Node3 -->
<g id="edge74" class="edge"><title>Node37&#45;&gt;Node3</title>
<path fill="none" stroke="midnightblue" d="M1052.69,-224.398C1069.84,-216.129 1095.6,-202.742 1116,-188 1161.58,-155.064 1208.2,-107.643 1231.24,-83.0925"/>
<polygon fill="midnightblue" stroke="midnightblue" points="1233.87,-85.4046 1238.11,-75.6976 1228.74,-80.6384 1233.87,-85.4046"/>
</g>
<!-- Node37&#45;&gt;Node8 -->
<g id="edge76" class="edge"><title>Node37&#45;&gt;Node8</title>
<path fill="none" stroke="midnightblue" d="M1011.34,-224.444C987.598,-215.478 950.091,-201.314 923.262,-191.183"/>
<polygon fill="midnightblue" stroke="midnightblue" points="924.144,-187.775 913.553,-187.516 921.671,-194.324 924.144,-187.775"/>
</g>
<!-- Node38 -->
<g id="node39" class="node"><title>Node38</title>
<g id="a_node39"><a xlink:href="common__interfacelapack_8hpp.html" target="_top" xlink:title="common interfacelapack">
<polygon fill="white" stroke="black" points="960.5,-168.5 960.5,-187.5 1107.5,-187.5 1107.5,-168.5 960.5,-168.5"/>
<text text-anchor="middle" x="1034" y="-175.5" font-family="Helvetica,sans-Serif" font-size="10.00">common_interfacelapack.hpp</text>
</a>
</g>
</g>
<!-- Node37&#45;&gt;Node38 -->
<g id="edge75" class="edge"><title>Node37&#45;&gt;Node38</title>
<path fill="none" stroke="midnightblue" d="M1034,-224.083C1034,-217.006 1034,-206.861 1034,-197.986"/>
<polygon fill="midnightblue" stroke="midnightblue" points="1037.5,-197.751 1034,-187.751 1030.5,-197.751 1037.5,-197.751"/>
</g>
</g>
</svg>
