<?xml version="1.0" encoding="UTF-8" standalone="no"?>
<!DOCTYPE svg PUBLIC "-//W3C//DTD SVG 1.1//EN"
 "http://www.w3.org/Graphics/SVG/1.1/DTD/svg11.dtd">
<!-- Generated by graphviz version 2.38.0 (20140413.2041)
 -->
<!-- Title: include_inout/file_utils.hpp Pages: 1 -->
<svg width="469pt" height="173pt"
 viewBox="0.00 0.00 469.00 173.00" xmlns="http://www.w3.org/2000/svg" xmlns:xlink="http://www.w3.org/1999/xlink">
<g id="graph0" class="graph" transform="scale(1 1) rotate(0) translate(4 169)">
<title>include_inout/file_utils.hpp</title>
<polygon fill="white" stroke="none" points="-4,4 -4,-169 465,-169 465,4 -4,4"/>
<!-- Node9 -->
<g id="node1" class="node"><title>Node9</title>
<polygon fill="#bfbfbf" stroke="black" points="271,-134.5 271,-164.5 362,-164.5 362,-134.5 271,-134.5"/>
<text text-anchor="start" x="279" y="-152.5" font-family="Helvetica,sans-Serif" font-size="10.00">include_inout/file</text>
<text text-anchor="middle" x="316.5" y="-141.5" font-family="Helvetica,sans-Serif" font-size="10.00">_utils.hpp</text>
</g>
<!-- Node10 -->
<g id="node2" class="node"><title>Node10</title>
<g id="a_node2"><a xlink:href="inparamclustering__getparameter_8hpp.html" target="_top" xlink:title="inparam clustering get parameter ">
<polygon fill="white" stroke="black" points="172,-67.5 172,-97.5 329,-97.5 329,-67.5 172,-67.5"/>
<text text-anchor="start" x="180" y="-85.5" font-family="Helvetica,sans-Serif" font-size="10.00">include_inout/inparamclustering</text>
<text text-anchor="middle" x="250.5" y="-74.5" font-family="Helvetica,sans-Serif" font-size="10.00">_getparameter.hpp</text>
</a>
</g>
</g>
<!-- Node9&#45;&gt;Node10 -->
<g id="edge1" class="edge"><title>Node9&#45;&gt;Node10</title>
<path fill="none" stroke="midnightblue" d="M294.985,-127.311C285.085,-117.561 273.609,-106.259 264.793,-97.5765"/>
<polygon fill="midnightblue" stroke="midnightblue" points="292.598,-129.873 302.179,-134.396 297.51,-124.885 292.598,-129.873"/>
</g>
<!-- Node13 -->
<g id="node5" class="node"><title>Node13</title>
<g id="a_node5"><a xlink:href="main__stdvar__milligan__cooper1988_8cpp.html" target="_top" xlink:title="Main program for the standardization of instances . ">
<polygon fill="white" stroke="black" points="330,-0.5 330,-30.5 461,-30.5 461,-0.5 330,-0.5"/>
<text text-anchor="start" x="338" y="-18.5" font-family="Helvetica,sans-Serif" font-size="10.00">eac/main_stdvar_milligan</text>
<text text-anchor="middle" x="395.5" y="-7.5" font-family="Helvetica,sans-Serif" font-size="10.00">_cooper1988.cpp</text>
</a>
</g>
</g>
<!-- Node9&#45;&gt;Node13 -->
<g id="edge5" class="edge"><title>Node9&#45;&gt;Node13</title>
<path fill="none" stroke="midnightblue" d="M330.28,-125.476C346.68,-98.0734 373.544,-53.1852 387.106,-30.5247"/>
<polygon fill="midnightblue" stroke="midnightblue" points="327.087,-123.996 324.954,-134.374 333.093,-127.59 327.087,-123.996"/>
</g>
<!-- Node11 -->
<g id="node3" class="node"><title>Node11</title>
<g id="a_node3"><a xlink:href="main__gas__clustering_8cpp.html" target="_top" xlink:title="Main program of Evolutionary Algorithms. ">
<polygon fill="white" stroke="black" points="0,-6 0,-25 147,-25 147,-6 0,-6"/>
<text text-anchor="middle" x="73.5" y="-13" font-family="Helvetica,sans-Serif" font-size="10.00">eac/main_gas_clustering.cpp</text>
</a>
</g>
</g>
<!-- Node10&#45;&gt;Node11 -->
<g id="edge2" class="edge"><title>Node10&#45;&gt;Node11</title>
<path fill="none" stroke="midnightblue" d="M202.699,-63.9459C168.321,-51.3213 123.469,-34.8502 96.6652,-25.007"/>
<polygon fill="midnightblue" stroke="midnightblue" points="201.5,-67.2342 212.094,-67.396 203.913,-60.6632 201.5,-67.2342"/>
</g>
<!-- Node12 -->
<g id="node4" class="node"><title>Node12</title>
<g id="a_node4"><a xlink:href="main__plot__clustering_8cpp.html" target="_top" xlink:title="Main program for plot clustering. ">
<polygon fill="white" stroke="black" points="165.5,-6 165.5,-25 311.5,-25 311.5,-6 165.5,-6"/>
<text text-anchor="middle" x="238.5" y="-13" font-family="Helvetica,sans-Serif" font-size="10.00">eac/main_plot_clustering.cpp</text>
</a>
</g>
</g>
<!-- Node10&#45;&gt;Node12 -->
<g id="edge3" class="edge"><title>Node10&#45;&gt;Node12</title>
<path fill="none" stroke="midnightblue" d="M246.023,-57.2495C243.949,-46.017 241.616,-33.3767 240.105,-25.1945"/>
<polygon fill="midnightblue" stroke="midnightblue" points="242.639,-58.1976 247.896,-67.396 249.522,-56.9267 242.639,-58.1976"/>
</g>
<!-- Node10&#45;&gt;Node13 -->
<g id="edge4" class="edge"><title>Node10&#45;&gt;Node13</title>
<path fill="none" stroke="midnightblue" d="M291.17,-63.2687C314.265,-52.9159 342.736,-40.1528 364.099,-30.5765"/>
<polygon fill="midnightblue" stroke="midnightblue" points="289.656,-60.1116 281.963,-67.396 292.52,-66.4991 289.656,-60.1116"/>
</g>
</g>
</svg>
