<?xml version="1.0" encoding="UTF-8" standalone="no"?>
<!DOCTYPE svg PUBLIC "-//W3C//DTD SVG 1.1//EN"
 "http://www.w3.org/Graphics/SVG/1.1/DTD/svg11.dtd">
<!-- Generated by graphviz version 2.38.0 (20140413.2041)
 -->
<!-- Title: include/ga_generic_operator.hpp Pages: 1 -->
<svg width="1327pt" height="319pt"
 viewBox="0.00 0.00 1327.00 319.00" xmlns="http://www.w3.org/2000/svg" xmlns:xlink="http://www.w3.org/1999/xlink">
<g id="graph0" class="graph" transform="scale(1 1) rotate(0) translate(4 315)">
<title>include/ga_generic_operator.hpp</title>
<polygon fill="white" stroke="none" points="-4,4 -4,-315 1323,-315 1323,4 -4,4"/>
<!-- Node0 -->
<g id="node1" class="node"><title>Node0</title>
<polygon fill="#bfbfbf" stroke="black" points="688,-280.5 688,-310.5 791,-310.5 791,-280.5 688,-280.5"/>
<text text-anchor="start" x="696" y="-298.5" font-family="Helvetica,sans-Serif" font-size="10.00">include/ga_generic</text>
<text text-anchor="middle" x="739.5" y="-287.5" font-family="Helvetica,sans-Serif" font-size="10.00">_operator.hpp</text>
</g>
<!-- Node1 -->
<g id="node2" class="node"><title>Node1</title>
<polygon fill="white" stroke="#bfbfbf" points="0,-168.5 0,-187.5 47,-187.5 47,-168.5 0,-168.5"/>
<text text-anchor="middle" x="23.5" y="-175.5" font-family="Helvetica,sans-Serif" font-size="10.00">iterator</text>
</g>
<!-- Node0&#45;&gt;Node1 -->
<g id="edge1" class="edge"><title>Node0&#45;&gt;Node1</title>
<path fill="none" stroke="midnightblue" d="M687.617,-294.705C588.715,-294.014 366.97,-287.258 186.5,-244 136.292,-231.965 81.1274,-207.38 49.5707,-192.134"/>
<polygon fill="midnightblue" stroke="midnightblue" points="51.0874,-188.979 40.5669,-187.727 48.0098,-195.267 51.0874,-188.979"/>
</g>
<!-- Node2 -->
<g id="node3" class="node"><title>Node2</title>
<g id="a_node3"><a xlink:href="random__ext_8hpp.html" target="_top" xlink:title="Operation for the generation of pseudo random numbers. ">
<polygon fill="white" stroke="black" points="195.5,-224.5 195.5,-243.5 283.5,-243.5 283.5,-224.5 195.5,-224.5"/>
<text text-anchor="middle" x="239.5" y="-231.5" font-family="Helvetica,sans-Serif" font-size="10.00">random_ext.hpp</text>
</a>
</g>
</g>
<!-- Node0&#45;&gt;Node2 -->
<g id="edge2" class="edge"><title>Node0&#45;&gt;Node2</title>
<path fill="none" stroke="midnightblue" d="M687.874,-288.357C592.783,-277.041 390.823,-253.007 293.781,-241.459"/>
<polygon fill="midnightblue" stroke="midnightblue" points="293.945,-237.954 283.601,-240.248 293.117,-244.905 293.945,-237.954"/>
</g>
<!-- Node9 -->
<g id="node10" class="node"><title>Node9</title>
<g id="a_node10"><a xlink:href="chromosome__string_8hpp.html" target="_top" xlink:title="chromosome string ">
<polygon fill="white" stroke="black" points="869,-168.5 869,-187.5 992,-187.5 992,-168.5 869,-168.5"/>
<text text-anchor="middle" x="930.5" y="-175.5" font-family="Helvetica,sans-Serif" font-size="10.00">chromosome_string.hpp</text>
</a>
</g>
</g>
<!-- Node0&#45;&gt;Node9 -->
<g id="edge10" class="edge"><title>Node0&#45;&gt;Node9</title>
<path fill="none" stroke="midnightblue" d="M762.92,-280.337C799.68,-258.108 870.505,-215.28 907.194,-193.093"/>
<polygon fill="midnightblue" stroke="midnightblue" points="909.418,-195.839 916.164,-187.669 905.795,-189.849 909.418,-195.839"/>
</g>
<!-- Node20 -->
<g id="node21" class="node"><title>Node20</title>
<g id="a_node21"><a xlink:href="verbose__global_8hpp.html" target="_top" xlink:title="verbose global ">
<polygon fill="white" stroke="black" points="389.5,-56.5 389.5,-75.5 493.5,-75.5 493.5,-56.5 389.5,-56.5"/>
<text text-anchor="middle" x="441.5" y="-63.5" font-family="Helvetica,sans-Serif" font-size="10.00">verbose_global.hpp</text>
</a>
</g>
</g>
<!-- Node0&#45;&gt;Node20 -->
<g id="edge48" class="edge"><title>Node0&#45;&gt;Node20</title>
<path fill="none" stroke="midnightblue" d="M687.766,-285.01C631.694,-272.191 542.955,-244.158 488.5,-188 460.485,-159.109 448.685,-111.647 444.109,-85.5813"/>
<polygon fill="midnightblue" stroke="midnightblue" points="447.541,-84.8757 442.524,-75.5444 440.627,-85.9681 447.541,-84.8757"/>
</g>
<!-- Node21 -->
<g id="node22" class="node"><title>Node21</title>
<g id="a_node22"><a xlink:href="chromosome__fixedlength_8hpp.html" target="_top" xlink:title="chromosome fixed length ">
<polygon fill="white" stroke="black" points="665.5,-224.5 665.5,-243.5 813.5,-243.5 813.5,-224.5 665.5,-224.5"/>
<text text-anchor="middle" x="739.5" y="-231.5" font-family="Helvetica,sans-Serif" font-size="10.00">chromosome_fixedlength.hpp</text>
</a>
</g>
</g>
<!-- Node0&#45;&gt;Node21 -->
<g id="edge26" class="edge"><title>Node0&#45;&gt;Node21</title>
<path fill="none" stroke="midnightblue" d="M739.5,-280.399C739.5,-272.466 739.5,-262.458 739.5,-253.858"/>
<polygon fill="midnightblue" stroke="midnightblue" points="743,-253.658 739.5,-243.658 736,-253.658 743,-253.658"/>
</g>
<!-- Node26 -->
<g id="node27" class="node"><title>Node26</title>
<g id="a_node27"><a xlink:href="chromosome__variablelength_8hpp.html" target="_top" xlink:title="chromosome variable length ">
<polygon fill="white" stroke="black" points="1007.5,-224.5 1007.5,-243.5 1169.5,-243.5 1169.5,-224.5 1007.5,-224.5"/>
<text text-anchor="middle" x="1088.5" y="-231.5" font-family="Helvetica,sans-Serif" font-size="10.00">chromosome_variablelength.hpp</text>
</a>
</g>
</g>
<!-- Node0&#45;&gt;Node26 -->
<g id="edge40" class="edge"><title>Node0&#45;&gt;Node26</title>
<path fill="none" stroke="midnightblue" d="M791.372,-285.656C854.767,-274.848 961.824,-256.597 1028.65,-245.204"/>
<polygon fill="midnightblue" stroke="midnightblue" points="1029.34,-248.637 1038.61,-243.506 1028.16,-241.736 1029.34,-248.637"/>
</g>
<!-- Node27 -->
<g id="node28" class="node"><title>Node27</title>
<g id="a_node28"><a xlink:href="ga__function__objective_8hpp.html" target="_top" xlink:title="definition of the abstract class function objective ">
<polygon fill="white" stroke="black" points="1188,-224.5 1188,-243.5 1319,-243.5 1319,-224.5 1188,-224.5"/>
<text text-anchor="middle" x="1253.5" y="-231.5" font-family="Helvetica,sans-Serif" font-size="10.00">ga_function_objective.hpp</text>
</a>
</g>
</g>
<!-- Node0&#45;&gt;Node27 -->
<g id="edge47" class="edge"><title>Node0&#45;&gt;Node27</title>
<path fill="none" stroke="midnightblue" d="M791.209,-288.635C871.457,-279.514 1031.12,-261.295 1177.58,-244.104"/>
<polygon fill="midnightblue" stroke="midnightblue" points="1178.13,-247.563 1187.65,-242.92 1177.31,-240.611 1178.13,-247.563"/>
</g>
<!-- Node2&#45;&gt;Node1 -->
<g id="edge5" class="edge"><title>Node2&#45;&gt;Node1</title>
<path fill="none" stroke="midnightblue" d="M205.274,-224.444C164.675,-214.294 97.4329,-197.483 57.1069,-187.402"/>
<polygon fill="midnightblue" stroke="midnightblue" points="57.7735,-183.961 47.2231,-184.931 56.0757,-190.752 57.7735,-183.961"/>
</g>
<!-- Node3 -->
<g id="node4" class="node"><title>Node3</title>
<polygon fill="white" stroke="#bfbfbf" points="180.5,-56.5 180.5,-75.5 238.5,-75.5 238.5,-56.5 180.5,-56.5"/>
<text text-anchor="middle" x="209.5" y="-63.5" font-family="Helvetica,sans-Serif" font-size="10.00">algorithm</text>
</g>
<!-- Node2&#45;&gt;Node3 -->
<g id="edge3" class="edge"><title>Node2&#45;&gt;Node3</title>
<path fill="none" stroke="midnightblue" d="M195.257,-225.193C157.216,-217.474 106.616,-204.446 94.5,-188 62.7114,-144.85 136.862,-100.899 180.482,-79.822"/>
<polygon fill="midnightblue" stroke="midnightblue" points="181.979,-82.9858 189.537,-75.5611 178.998,-76.652 181.979,-82.9858"/>
</g>
<!-- Node4 -->
<g id="node5" class="node"><title>Node4</title>
<polygon fill="white" stroke="#bfbfbf" points="104,-168.5 104,-187.5 163,-187.5 163,-168.5 104,-168.5"/>
<text text-anchor="middle" x="133.5" y="-175.5" font-family="Helvetica,sans-Serif" font-size="10.00">functional</text>
</g>
<!-- Node2&#45;&gt;Node4 -->
<g id="edge4" class="edge"><title>Node2&#45;&gt;Node4</title>
<path fill="none" stroke="midnightblue" d="M222.469,-224.324C205.47,-215.664 179.124,-202.242 159.507,-192.249"/>
<polygon fill="midnightblue" stroke="midnightblue" points="160.988,-189.075 150.488,-187.655 157.81,-195.312 160.988,-189.075"/>
</g>
<!-- Node5 -->
<g id="node6" class="node"><title>Node5</title>
<polygon fill="white" stroke="#bfbfbf" points="181,-168.5 181,-187.5 232,-187.5 232,-168.5 181,-168.5"/>
<text text-anchor="middle" x="206.5" y="-175.5" font-family="Helvetica,sans-Serif" font-size="10.00">random</text>
</g>
<!-- Node2&#45;&gt;Node5 -->
<g id="edge6" class="edge"><title>Node2&#45;&gt;Node5</title>
<path fill="none" stroke="midnightblue" d="M234.051,-224.083C229.486,-216.613 222.832,-205.724 217.207,-196.52"/>
<polygon fill="midnightblue" stroke="midnightblue" points="220.049,-194.459 211.848,-187.751 214.076,-198.109 220.049,-194.459"/>
</g>
<!-- Node6 -->
<g id="node7" class="node"><title>Node6</title>
<polygon fill="white" stroke="#bfbfbf" points="250.5,-168.5 250.5,-187.5 294.5,-187.5 294.5,-168.5 250.5,-168.5"/>
<text text-anchor="middle" x="272.5" y="-175.5" font-family="Helvetica,sans-Serif" font-size="10.00">vector</text>
</g>
<!-- Node2&#45;&gt;Node6 -->
<g id="edge7" class="edge"><title>Node2&#45;&gt;Node6</title>
<path fill="none" stroke="midnightblue" d="M244.949,-224.083C249.514,-216.613 256.168,-205.724 261.793,-196.52"/>
<polygon fill="midnightblue" stroke="midnightblue" points="264.924,-198.109 267.152,-187.751 258.951,-194.459 264.924,-198.109"/>
</g>
<!-- Node7 -->
<g id="node8" class="node"><title>Node7</title>
<polygon fill="white" stroke="#bfbfbf" points="313,-168.5 313,-187.5 354,-187.5 354,-168.5 313,-168.5"/>
<text text-anchor="middle" x="333.5" y="-175.5" font-family="Helvetica,sans-Serif" font-size="10.00">string</text>
</g>
<!-- Node2&#45;&gt;Node7 -->
<g id="edge8" class="edge"><title>Node2&#45;&gt;Node7</title>
<path fill="none" stroke="midnightblue" d="M254.603,-224.324C269.403,-215.822 292.194,-202.729 309.482,-192.797"/>
<polygon fill="midnightblue" stroke="midnightblue" points="311.507,-195.671 318.435,-187.655 308.02,-189.601 311.507,-195.671"/>
</g>
<!-- Node8 -->
<g id="node9" class="node"><title>Node8</title>
<polygon fill="white" stroke="#bfbfbf" points="372,-168.5 372,-187.5 425,-187.5 425,-168.5 372,-168.5"/>
<text text-anchor="middle" x="398.5" y="-175.5" font-family="Helvetica,sans-Serif" font-size="10.00">sstream</text>
</g>
<!-- Node2&#45;&gt;Node8 -->
<g id="edge9" class="edge"><title>Node2&#45;&gt;Node8</title>
<path fill="none" stroke="midnightblue" d="M264.694,-224.444C291.443,-215.359 333.903,-200.939 363.805,-190.783"/>
<polygon fill="midnightblue" stroke="midnightblue" points="365.081,-194.046 373.424,-187.516 362.829,-187.418 365.081,-194.046"/>
</g>
<!-- Node10 -->
<g id="node11" class="node"><title>Node10</title>
<polygon fill="white" stroke="#bfbfbf" points="1013.5,-56.5 1013.5,-75.5 1069.5,-75.5 1069.5,-56.5 1013.5,-56.5"/>
<text text-anchor="middle" x="1041.5" y="-63.5" font-family="Helvetica,sans-Serif" font-size="10.00">iostream</text>
</g>
<!-- Node9&#45;&gt;Node10 -->
<g id="edge11" class="edge"><title>Node9&#45;&gt;Node10</title>
<path fill="none" stroke="midnightblue" d="M948.117,-168.475C963.26,-160.535 985.039,-147.595 1000.5,-132 1014.26,-118.124 1025.69,-98.8513 1032.96,-84.8979"/>
<polygon fill="midnightblue" stroke="midnightblue" points="1036.15,-86.3412 1037.49,-75.8311 1029.89,-83.2132 1036.15,-86.3412"/>
</g>
<!-- Node11 -->
<g id="node12" class="node"><title>Node11</title>
<polygon fill="white" stroke="#bfbfbf" points="1173.5,-112.5 1173.5,-131.5 1233.5,-131.5 1233.5,-112.5 1173.5,-112.5"/>
<text text-anchor="middle" x="1203.5" y="-119.5" font-family="Helvetica,sans-Serif" font-size="10.00">stdexcept</text>
</g>
<!-- Node9&#45;&gt;Node11 -->
<g id="edge12" class="edge"><title>Node9&#45;&gt;Node11</title>
<path fill="none" stroke="midnightblue" d="M977.663,-168.457C1022.87,-160.151 1093.27,-146.908 1163.4,-132.175"/>
<polygon fill="midnightblue" stroke="midnightblue" points="1164.23,-135.577 1173.29,-130.087 1162.78,-128.728 1164.23,-135.577"/>
</g>
<!-- Node12 -->
<g id="node13" class="node"><title>Node12</title>
<polygon fill="white" stroke="#bfbfbf" points="806,-0.5 806,-19.5 845,-19.5 845,-0.5 806,-0.5"/>
<text text-anchor="middle" x="825.5" y="-7.5" font-family="Helvetica,sans-Serif" font-size="10.00">limits</text>
</g>
<!-- Node9&#45;&gt;Node12 -->
<g id="edge13" class="edge"><title>Node9&#45;&gt;Node12</title>
<path fill="none" stroke="midnightblue" d="M899.065,-168.43C880.265,-161.646 857.563,-150.211 844.5,-132 822.574,-101.432 821.878,-55.3298 823.541,-29.7599"/>
<polygon fill="midnightblue" stroke="midnightblue" points="827.047,-29.8459 824.404,-19.586 820.072,-29.2547 827.047,-29.8459"/>
</g>
<!-- Node13 -->
<g id="node14" class="node"><title>Node13</title>
<polygon fill="white" stroke="#bfbfbf" points="745.5,-112.5 745.5,-131.5 797.5,-131.5 797.5,-112.5 745.5,-112.5"/>
<text text-anchor="middle" x="771.5" y="-119.5" font-family="Helvetica,sans-Serif" font-size="10.00">assert.h</text>
</g>
<!-- Node9&#45;&gt;Node13 -->
<g id="edge14" class="edge"><title>Node9&#45;&gt;Node13</title>
<path fill="none" stroke="midnightblue" d="M905.306,-168.444C878.557,-159.359 836.097,-144.939 806.195,-134.783"/>
<polygon fill="midnightblue" stroke="midnightblue" points="807.171,-131.418 796.576,-131.516 804.919,-138.046 807.171,-131.418"/>
</g>
<!-- Node14 -->
<g id="node15" class="node"><title>Node14</title>
<g id="a_node15"><a xlink:href="outfilename_8hpp.html" target="_top" xlink:title="out file name ">
<polygon fill="white" stroke="black" points="1069.5,-112.5 1069.5,-131.5 1155.5,-131.5 1155.5,-112.5 1069.5,-112.5"/>
<text text-anchor="middle" x="1112.5" y="-119.5" font-family="Helvetica,sans-Serif" font-size="10.00">outfilename.hpp</text>
</a>
</g>
</g>
<!-- Node9&#45;&gt;Node14 -->
<g id="edge15" class="edge"><title>Node9&#45;&gt;Node14</title>
<path fill="none" stroke="midnightblue" d="M959.338,-168.444C990.356,-159.241 1039.83,-144.562 1074.12,-134.388"/>
<polygon fill="midnightblue" stroke="midnightblue" points="1075.21,-137.716 1083.8,-131.516 1073.21,-131.006 1075.21,-137.716"/>
</g>
<!-- Node17 -->
<g id="node18" class="node"><title>Node17</title>
<g id="a_node18"><a xlink:href="chromosome__base_8hpp.html" target="_top" xlink:title="chromosome base ">
<polygon fill="white" stroke="black" points="853.5,-112.5 853.5,-131.5 975.5,-131.5 975.5,-112.5 853.5,-112.5"/>
<text text-anchor="middle" x="914.5" y="-119.5" font-family="Helvetica,sans-Serif" font-size="10.00">chromosome_base.hpp</text>
</a>
</g>
</g>
<!-- Node9&#45;&gt;Node17 -->
<g id="edge19" class="edge"><title>Node9&#45;&gt;Node17</title>
<path fill="none" stroke="midnightblue" d="M927.858,-168.083C925.714,-160.849 922.621,-150.409 919.951,-141.397"/>
<polygon fill="midnightblue" stroke="midnightblue" points="923.29,-140.345 917.093,-131.751 916.578,-142.333 923.29,-140.345"/>
</g>
<!-- Node18 -->
<g id="node19" class="node"><title>Node18</title>
<g id="a_node19"><a xlink:href="common_8hpp.html" target="_top" xlink:title="common ">
<polygon fill="white" stroke="black" points="877.5,-56.5 877.5,-75.5 951.5,-75.5 951.5,-56.5 877.5,-56.5"/>
<text text-anchor="middle" x="914.5" y="-63.5" font-family="Helvetica,sans-Serif" font-size="10.00">common.hpp</text>
</a>
</g>
</g>
<!-- Node9&#45;&gt;Node18 -->
<g id="edge25" class="edge"><title>Node9&#45;&gt;Node18</title>
<path fill="none" stroke="midnightblue" d="M946.992,-168.364C967.051,-156.635 996.803,-134.534 984.5,-112 976.681,-97.6789 962.138,-87.2355 948.324,-80.0358"/>
<polygon fill="midnightblue" stroke="midnightblue" points="949.501,-76.7188 938.969,-75.5617 946.481,-83.0338 949.501,-76.7188"/>
</g>
<!-- Node14&#45;&gt;Node10 -->
<g id="edge16" class="edge"><title>Node14&#45;&gt;Node10</title>
<path fill="none" stroke="midnightblue" d="M1101.09,-112.324C1090.39,-104.185 1074.16,-91.8395 1061.34,-82.0874"/>
<polygon fill="midnightblue" stroke="midnightblue" points="1063.19,-79.1018 1053.11,-75.8339 1058.96,-84.6734 1063.19,-79.1018"/>
</g>
<!-- Node15 -->
<g id="node16" class="node"><title>Node15</title>
<polygon fill="white" stroke="#bfbfbf" points="1087.5,-56.5 1087.5,-75.5 1137.5,-75.5 1137.5,-56.5 1087.5,-56.5"/>
<text text-anchor="middle" x="1112.5" y="-63.5" font-family="Helvetica,sans-Serif" font-size="10.00">fstream</text>
</g>
<!-- Node14&#45;&gt;Node15 -->
<g id="edge17" class="edge"><title>Node14&#45;&gt;Node15</title>
<path fill="none" stroke="midnightblue" d="M1112.5,-112.083C1112.5,-105.006 1112.5,-94.8611 1112.5,-85.9865"/>
<polygon fill="midnightblue" stroke="midnightblue" points="1116,-85.751 1112.5,-75.7511 1109,-85.7511 1116,-85.751"/>
</g>
<!-- Node16 -->
<g id="node17" class="node"><title>Node16</title>
<polygon fill="white" stroke="#bfbfbf" points="1155.5,-56.5 1155.5,-75.5 1203.5,-75.5 1203.5,-56.5 1155.5,-56.5"/>
<text text-anchor="middle" x="1179.5" y="-63.5" font-family="Helvetica,sans-Serif" font-size="10.00">string.h</text>
</g>
<!-- Node14&#45;&gt;Node16 -->
<g id="edge18" class="edge"><title>Node14&#45;&gt;Node16</title>
<path fill="none" stroke="midnightblue" d="M1123.26,-112.324C1133.27,-104.263 1148.39,-92.0765 1160.43,-82.3695"/>
<polygon fill="midnightblue" stroke="midnightblue" points="1162.95,-84.8343 1168.54,-75.8339 1158.56,-79.3841 1162.95,-84.8343"/>
</g>
<!-- Node17&#45;&gt;Node10 -->
<g id="edge20" class="edge"><title>Node17&#45;&gt;Node10</title>
<path fill="none" stroke="midnightblue" d="M934.624,-112.444C955.524,-103.557 988.435,-89.5632 1012.22,-79.4514"/>
<polygon fill="midnightblue" stroke="midnightblue" points="1013.64,-82.6504 1021.47,-75.5164 1010.9,-76.2085 1013.64,-82.6504"/>
</g>
<!-- Node17&#45;&gt;Node18 -->
<g id="edge21" class="edge"><title>Node17&#45;&gt;Node18</title>
<path fill="none" stroke="midnightblue" d="M914.5,-112.083C914.5,-105.006 914.5,-94.8611 914.5,-85.9865"/>
<polygon fill="midnightblue" stroke="midnightblue" points="918,-85.751 914.5,-75.7511 911,-85.7511 918,-85.751"/>
</g>
<!-- Node17&#45;&gt;Node20 -->
<g id="edge24" class="edge"><title>Node17&#45;&gt;Node20</title>
<path fill="none" stroke="midnightblue" d="M853.336,-115.047C774.85,-107.245 634.228,-92.721 503.89,-76.1378"/>
<polygon fill="midnightblue" stroke="midnightblue" points="504.089,-72.6348 493.726,-74.8376 503.201,-79.5782 504.089,-72.6348"/>
</g>
<!-- Node18&#45;&gt;Node12 -->
<g id="edge23" class="edge"><title>Node18&#45;&gt;Node12</title>
<path fill="none" stroke="midnightblue" d="M900.201,-56.324C886.317,-47.9002 865.008,-34.9709 848.696,-25.0741"/>
<polygon fill="midnightblue" stroke="midnightblue" points="850.129,-21.8495 839.764,-19.6545 846.498,-27.8341 850.129,-21.8495"/>
</g>
<!-- Node19 -->
<g id="node20" class="node"><title>Node19</title>
<polygon fill="white" stroke="#bfbfbf" points="891,-0.5 891,-19.5 938,-19.5 938,-0.5 891,-0.5"/>
<text text-anchor="middle" x="914.5" y="-7.5" font-family="Helvetica,sans-Serif" font-size="10.00">stdint.h</text>
</g>
<!-- Node18&#45;&gt;Node19 -->
<g id="edge22" class="edge"><title>Node18&#45;&gt;Node19</title>
<path fill="none" stroke="midnightblue" d="M914.5,-56.083C914.5,-49.0059 914.5,-38.8611 914.5,-29.9865"/>
<polygon fill="midnightblue" stroke="midnightblue" points="918,-29.751 914.5,-19.7511 911,-29.7511 918,-29.751"/>
</g>
<!-- Node21&#45;&gt;Node9 -->
<g id="edge32" class="edge"><title>Node21&#45;&gt;Node9</title>
<path fill="none" stroke="midnightblue" d="M769.765,-224.444C802.455,-215.201 854.682,-200.436 890.683,-190.257"/>
<polygon fill="midnightblue" stroke="midnightblue" points="891.706,-193.605 900.377,-187.516 889.802,-186.869 891.706,-193.605"/>
</g>
<!-- Node21&#45;&gt;Node10 -->
<g id="edge27" class="edge"><title>Node21&#45;&gt;Node10</title>
<path fill="none" stroke="midnightblue" d="M735.839,-224.389C727.208,-202.583 708.35,-144.608 736.5,-112 745.161,-101.967 923.065,-80.5141 1003.09,-71.3241"/>
<polygon fill="midnightblue" stroke="midnightblue" points="1003.71,-74.7756 1013.25,-70.1626 1002.92,-67.8209 1003.71,-74.7756"/>
</g>
<!-- Node21&#45;&gt;Node11 -->
<g id="edge28" class="edge"><title>Node21&#45;&gt;Node11</title>
<path fill="none" stroke="midnightblue" d="M813.707,-226.258C874.136,-219.688 961.282,-207.745 1035.5,-188 1086.44,-174.447 1143.14,-150.561 1175.92,-135.825"/>
<polygon fill="midnightblue" stroke="midnightblue" points="1177.64,-138.89 1185.3,-131.567 1174.74,-132.516 1177.64,-138.89"/>
</g>
<!-- Node21&#45;&gt;Node12 -->
<g id="edge29" class="edge"><title>Node21&#45;&gt;Node12</title>
<path fill="none" stroke="midnightblue" d="M734.116,-224.443C728.944,-215.678 721.488,-201.467 718.5,-188 714.533,-170.119 717.331,-123.174 722.5,-112 740.105,-73.9405 778.743,-42.4606 803.369,-25.2347"/>
<polygon fill="midnightblue" stroke="midnightblue" points="805.437,-28.0612 811.743,-19.5475 801.504,-22.2705 805.437,-28.0612"/>
</g>
<!-- Node21&#45;&gt;Node13 -->
<g id="edge30" class="edge"><title>Node21&#45;&gt;Node13</title>
<path fill="none" stroke="midnightblue" d="M742.011,-224.368C747.198,-206.537 759.196,-165.295 766.185,-141.272"/>
<polygon fill="midnightblue" stroke="midnightblue" points="769.568,-142.171 769.001,-131.591 762.847,-140.216 769.568,-142.171"/>
</g>
<!-- Node21&#45;&gt;Node14 -->
<g id="edge31" class="edge"><title>Node21&#45;&gt;Node14</title>
<path fill="none" stroke="midnightblue" d="M813.603,-227.422C867.097,-221.695 940.369,-210.309 1001.5,-188 1035.83,-175.473 1071.62,-152.405 1092.98,-137.389"/>
<polygon fill="midnightblue" stroke="midnightblue" points="1095.11,-140.168 1101.21,-131.501 1091.04,-134.476 1095.11,-140.168"/>
</g>
<!-- Node21&#45;&gt;Node20 -->
<g id="edge39" class="edge"><title>Node21&#45;&gt;Node20</title>
<path fill="none" stroke="midnightblue" d="M665.466,-225.207C608.293,-217.966 534.939,-205.631 510.5,-188 479.026,-165.294 486.763,-145.691 467.5,-112 462.285,-102.88 456.436,-92.7465 451.607,-84.4086"/>
<polygon fill="midnightblue" stroke="midnightblue" points="454.551,-82.5088 446.508,-75.6135 448.496,-86.0201 454.551,-82.5088"/>
</g>
<!-- Node22 -->
<g id="node23" class="node"><title>Node22</title>
<g id="a_node23"><a xlink:href="linear__algebra__level1_8hpp.html" target="_top" xlink:title="linear algebra level1 ">
<polygon fill="white" stroke="black" points="519.5,-168.5 519.5,-187.5 651.5,-187.5 651.5,-168.5 519.5,-168.5"/>
<text text-anchor="middle" x="585.5" y="-175.5" font-family="Helvetica,sans-Serif" font-size="10.00">linear_algebra_level1.hpp</text>
</a>
</g>
</g>
<!-- Node21&#45;&gt;Node22 -->
<g id="edge33" class="edge"><title>Node21&#45;&gt;Node22</title>
<path fill="none" stroke="midnightblue" d="M715.098,-224.444C689.303,-215.399 648.423,-201.064 619.482,-190.916"/>
<polygon fill="midnightblue" stroke="midnightblue" points="620.382,-187.523 609.788,-187.516 618.066,-194.128 620.382,-187.523"/>
</g>
<!-- Node23 -->
<g id="node24" class="node"><title>Node23</title>
<g id="a_node24"><a xlink:href="interface__level1_8hpp.html" target="_top" xlink:title="Interface_level 1. ">
<polygon fill="white" stroke="black" points="532.5,-112.5 532.5,-131.5 638.5,-131.5 638.5,-112.5 532.5,-112.5"/>
<text text-anchor="middle" x="585.5" y="-119.5" font-family="Helvetica,sans-Serif" font-size="10.00">interface_level1.hpp</text>
</a>
</g>
</g>
<!-- Node22&#45;&gt;Node23 -->
<g id="edge34" class="edge"><title>Node22&#45;&gt;Node23</title>
<path fill="none" stroke="midnightblue" d="M585.5,-168.083C585.5,-161.006 585.5,-150.861 585.5,-141.986"/>
<polygon fill="midnightblue" stroke="midnightblue" points="589,-141.751 585.5,-131.751 582,-141.751 589,-141.751"/>
</g>
<!-- Node23&#45;&gt;Node3 -->
<g id="edge35" class="edge"><title>Node23&#45;&gt;Node3</title>
<path fill="none" stroke="midnightblue" d="M532.426,-113.378C456.142,-102.422 317.215,-82.4697 249.182,-72.6991"/>
<polygon fill="midnightblue" stroke="midnightblue" points="249.289,-69.1785 238.893,-71.2213 248.294,-76.1074 249.289,-69.1785"/>
</g>
<!-- Node23&#45;&gt;Node12 -->
<g id="edge37" class="edge"><title>Node23&#45;&gt;Node12</title>
<path fill="none" stroke="midnightblue" d="M595.306,-112.444C611.429,-98.7667 645.003,-71.9038 677.5,-56 716.34,-36.9916 764.871,-24.0925 795.537,-17.1374"/>
<polygon fill="midnightblue" stroke="midnightblue" points="796.579,-20.4918 805.593,-14.9249 795.075,-13.6553 796.579,-20.4918"/>
</g>
<!-- Node24 -->
<g id="node25" class="node"><title>Node24</title>
<polygon fill="white" stroke="#bfbfbf" points="511.5,-56.5 511.5,-75.5 563.5,-75.5 563.5,-56.5 511.5,-56.5"/>
<text text-anchor="middle" x="537.5" y="-63.5" font-family="Helvetica,sans-Serif" font-size="10.00">numeric</text>
</g>
<!-- Node23&#45;&gt;Node24 -->
<g id="edge36" class="edge"><title>Node23&#45;&gt;Node24</title>
<path fill="none" stroke="midnightblue" d="M577.574,-112.083C570.654,-104.298 560.435,-92.8015 552.048,-83.3665"/>
<polygon fill="midnightblue" stroke="midnightblue" points="554.538,-80.8999 545.279,-75.7511 549.306,-85.5505 554.538,-80.8999"/>
</g>
<!-- Node25 -->
<g id="node26" class="node"><title>Node25</title>
<polygon fill="white" stroke="#bfbfbf" points="581.5,-56.5 581.5,-75.5 625.5,-75.5 625.5,-56.5 581.5,-56.5"/>
<text text-anchor="middle" x="603.5" y="-63.5" font-family="Helvetica,sans-Serif" font-size="10.00">cmath</text>
</g>
<!-- Node23&#45;&gt;Node25 -->
<g id="edge38" class="edge"><title>Node23&#45;&gt;Node25</title>
<path fill="none" stroke="midnightblue" d="M588.472,-112.083C590.884,-104.849 594.364,-94.4087 597.368,-85.3968"/>
<polygon fill="midnightblue" stroke="midnightblue" points="600.741,-86.3447 600.583,-75.7511 594.1,-84.1311 600.741,-86.3447"/>
</g>
<!-- Node26&#45;&gt;Node9 -->
<g id="edge46" class="edge"><title>Node26&#45;&gt;Node9</title>
<path fill="none" stroke="midnightblue" d="M1063.46,-224.444C1036.88,-215.359 994.691,-200.939 964.977,-190.783"/>
<polygon fill="midnightblue" stroke="midnightblue" points="966.013,-187.439 955.418,-187.516 963.749,-194.062 966.013,-187.439"/>
</g>
<!-- Node26&#45;&gt;Node10 -->
<g id="edge41" class="edge"><title>Node26&#45;&gt;Node10</title>
<path fill="none" stroke="midnightblue" d="M1117.64,-224.464C1172.95,-206.828 1284.05,-163.666 1242.5,-112 1197.65,-56.2353 1154.86,-89.7865 1079.6,-75.9862"/>
<polygon fill="midnightblue" stroke="midnightblue" points="1080.27,-72.5498 1069.77,-73.9449 1078.85,-79.4038 1080.27,-72.5498"/>
</g>
<!-- Node26&#45;&gt;Node11 -->
<g id="edge42" class="edge"><title>Node26&#45;&gt;Node11</title>
<path fill="none" stroke="midnightblue" d="M1097.52,-224.368C1116.84,-205.894 1162.42,-162.293 1187.04,-138.744"/>
<polygon fill="midnightblue" stroke="midnightblue" points="1189.71,-141.033 1194.52,-131.591 1184.87,-135.974 1189.71,-141.033"/>
</g>
<!-- Node26&#45;&gt;Node12 -->
<g id="edge43" class="edge"><title>Node26&#45;&gt;Node12</title>
<path fill="none" stroke="midnightblue" d="M1155.72,-224.419C1182.74,-218.091 1212.62,-207.097 1234.5,-188 1261.4,-164.526 1272.89,-145.482 1260.5,-112 1249.13,-81.2556 1241.5,-71.2899 1212.5,-56 1147.05,-21.489 954.828,-29.8735 881.5,-20 872.897,-18.8416 863.578,-17.4138 855.057,-16.0394"/>
<polygon fill="midnightblue" stroke="midnightblue" points="855.596,-12.5811 845.16,-14.4113 854.459,-19.4882 855.596,-12.5811"/>
</g>
<!-- Node26&#45;&gt;Node13 -->
<g id="edge44" class="edge"><title>Node26&#45;&gt;Node13</title>
<path fill="none" stroke="midnightblue" d="M1007.46,-225.901C962.421,-219.812 906.216,-208.589 859.5,-188 831.971,-175.867 804.82,-153.866 788.118,-138.851"/>
<polygon fill="midnightblue" stroke="midnightblue" points="790.114,-135.931 780.389,-131.726 785.369,-141.078 790.114,-135.931"/>
</g>
<!-- Node26&#45;&gt;Node14 -->
<g id="edge45" class="edge"><title>Node26&#45;&gt;Node14</title>
<path fill="none" stroke="midnightblue" d="M1090.38,-224.368C1094.26,-206.617 1103.19,-165.666 1108.44,-141.597"/>
<polygon fill="midnightblue" stroke="midnightblue" points="1111.91,-142.108 1110.63,-131.591 1105.07,-140.615 1111.91,-142.108"/>
</g>
</g>
</svg>
