<?xml version="1.0" encoding="UTF-8" standalone="no"?>
<!DOCTYPE svg PUBLIC "-//W3C//DTD SVG 1.1//EN"
 "http://www.w3.org/Graphics/SVG/1.1/DTD/svg11.dtd">
<!-- Generated by graphviz version 2.38.0 (20140413.2041)
 -->
<!-- Title: gnuplot_plot_x Pages: 1 -->
<svg width="463pt" height="47pt"
 viewBox="0.00 0.00 463.00 47.00" xmlns="http://www.w3.org/2000/svg" xmlns:xlink="http://www.w3.org/1999/xlink">
<g id="graph0" class="graph" transform="scale(1 1) rotate(0) translate(4 43)">
<title>gnuplot_plot_x</title>
<polygon fill="white" stroke="none" points="-4,4 -4,-43 459,-43 459,4 -4,4"/>
<!-- Node21 -->
<g id="node1" class="node"><title>Node21</title>
<polygon fill="#bfbfbf" stroke="black" points="0,-19.5 0,-38.5 80,-38.5 80,-19.5 0,-19.5"/>
<text text-anchor="middle" x="40" y="-26.5" font-family="Helvetica,sans-Serif" font-size="10.00">gnuplot_plot_x</text>
</g>
<!-- Node22 -->
<g id="node2" class="node"><title>Node22</title>
<g id="a_node2"><a xlink:href="gnuplot__i_8c.html#a8c234882663df2fd8ef372390a69bd71" target="_top" xlink:title="gnuplot_plot_atmpfile">
<polygon fill="white" stroke="black" points="235,-19.5 235,-38.5 345,-38.5 345,-19.5 235,-19.5"/>
<text text-anchor="middle" x="290" y="-26.5" font-family="Helvetica,sans-Serif" font-size="10.00">gnuplot_plot_atmpfile</text>
</a>
</g>
</g>
<!-- Node21&#45;&gt;Node22 -->
<g id="edge1" class="edge"><title>Node21&#45;&gt;Node22</title>
<path fill="none" stroke="midnightblue" d="M80.0228,-29C118.702,-29 178.635,-29 224.417,-29"/>
<polygon fill="midnightblue" stroke="midnightblue" points="224.546,-32.5001 234.546,-29 224.546,-25.5001 224.546,-32.5001"/>
</g>
<!-- Node24 -->
<g id="node4" class="node"><title>Node24</title>
<g id="a_node4"><a xlink:href="gnuplot__i_8c.html#ac940b4f5082e5ddc01a8300156f8a808" target="_top" xlink:title="gnuplot_tmpfile">
<polygon fill="white" stroke="black" points="116,-0.5 116,-19.5 199,-19.5 199,-0.5 116,-0.5"/>
<text text-anchor="middle" x="157.5" y="-7.5" font-family="Helvetica,sans-Serif" font-size="10.00">gnuplot_tmpfile</text>
</a>
</g>
</g>
<!-- Node21&#45;&gt;Node24 -->
<g id="edge3" class="edge"><title>Node21&#45;&gt;Node24</title>
<path fill="none" stroke="midnightblue" d="M80.103,-22.5675C88.3817,-21.2056 97.2331,-19.7495 105.869,-18.3289"/>
<polygon fill="midnightblue" stroke="midnightblue" points="106.561,-21.7622 115.86,-16.6853 105.425,-14.855 106.561,-21.7622"/>
</g>
<!-- Node23 -->
<g id="node3" class="node"><title>Node23</title>
<g id="a_node3"><a xlink:href="gnuplot__i_8c.html#a75592ae4645188c20c119007f4c35474" target="_top" xlink:title="Sends a command to an active gnuplot session. ">
<polygon fill="white" stroke="black" points="381,-19.5 381,-38.5 455,-38.5 455,-19.5 381,-19.5"/>
<text text-anchor="middle" x="418" y="-26.5" font-family="Helvetica,sans-Serif" font-size="10.00">gnuplot_cmd</text>
</a>
</g>
</g>
<!-- Node22&#45;&gt;Node23 -->
<g id="edge2" class="edge"><title>Node22&#45;&gt;Node23</title>
<path fill="none" stroke="midnightblue" d="M345.167,-29C353.608,-29 362.266,-29 370.517,-29"/>
<polygon fill="midnightblue" stroke="midnightblue" points="370.704,-32.5001 380.704,-29 370.703,-25.5001 370.704,-32.5001"/>
</g>
<!-- Node24&#45;&gt;Node22 -->
<g id="edge4" class="edge"><title>Node24&#45;&gt;Node22</title>
<path fill="none" stroke="midnightblue" d="M199.076,-15.9076C207.142,-17.082 215.799,-18.3424 224.44,-19.6004"/>
<polygon fill="midnightblue" stroke="midnightblue" points="224.139,-23.0935 234.539,-21.0709 225.148,-16.1665 224.139,-23.0935"/>
</g>
</g>
</svg>
