<?xml version="1.0" encoding="UTF-8" standalone="no"?>
<!DOCTYPE svg PUBLIC "-//W3C//DTD SVG 1.1//EN"
 "http://www.w3.org/Graphics/SVG/1.1/DTD/svg11.dtd">
<!-- Generated by graphviz version 2.38.0 (20140413.2041)
 -->
<!-- Title: gnuplot_plot_xy Pages: 1 -->
<svg width="228pt" height="28pt"
 viewBox="0.00 0.00 228.00 28.00" xmlns="http://www.w3.org/2000/svg" xmlns:xlink="http://www.w3.org/1999/xlink">
<g id="graph0" class="graph" transform="scale(1 1) rotate(0) translate(4 24)">
<title>gnuplot_plot_xy</title>
<polygon fill="white" stroke="none" points="-4,4 -4,-24 224,-24 224,4 -4,4"/>
<!-- Node54 -->
<g id="node1" class="node"><title>Node54</title>
<g id="a_node1"><a xlink:title="Plot a 2d graph from a list of points.">
<polygon fill="#bfbfbf" stroke="black" points="134,-0.5 134,-19.5 220,-19.5 220,-0.5 134,-0.5"/>
<text text-anchor="middle" x="177" y="-7.5" font-family="Helvetica,sans-Serif" font-size="10.00">gnuplot_plot_xy</text>
</a>
</g>
</g>
<!-- Node55 -->
<g id="node2" class="node"><title>Node55</title>
<g id="a_node2"><a xlink:href="gnuplot__i_8h.html#aa39b56b6bb882ace839a3be677d1f665" target="_top" xlink:title="Open a new session, plot a signal, close the session.">
<polygon fill="white" stroke="black" points="-7.10543e-15,-0.5 -7.10543e-15,-19.5 98,-19.5 98,-0.5 -7.10543e-15,-0.5"/>
<text text-anchor="middle" x="49" y="-7.5" font-family="Helvetica,sans-Serif" font-size="10.00">gnuplot_plot_once</text>
</a>
</g>
</g>
<!-- Node54&#45;&gt;Node55 -->
<g id="edge1" class="edge"><title>Node54&#45;&gt;Node55</title>
<path fill="none" stroke="midnightblue" d="M123.559,-10C115.111,-10 106.401,-10 98.0621,-10"/>
<polygon fill="midnightblue" stroke="midnightblue" points="123.693,-13.5001 133.693,-10 123.693,-6.5001 123.693,-13.5001"/>
</g>
</g>
</svg>
