<?xml version="1.0" encoding="UTF-8" standalone="no"?>
<!DOCTYPE svg PUBLIC "-//W3C//DTD SVG 1.1//EN"
 "http://www.w3.org/Graphics/SVG/1.1/DTD/svg11.dtd">
<!-- Generated by graphviz version 2.38.0 (20140413.2041)
 -->
<!-- Title: gnuplot_tmpfile Pages: 1 -->
<svg width="347pt" height="104pt"
 viewBox="0.00 0.00 347.00 104.00" xmlns="http://www.w3.org/2000/svg" xmlns:xlink="http://www.w3.org/1999/xlink">
<g id="graph0" class="graph" transform="scale(1 1) rotate(0) translate(4 100)">
<title>gnuplot_tmpfile</title>
<polygon fill="white" stroke="none" points="-4,4 -4,-100 343,-100 343,4 -4,4"/>
<!-- Node72 -->
<g id="node1" class="node"><title>Node72</title>
<g id="a_node1"><a xlink:title=" ">
<polygon fill="#bfbfbf" stroke="black" points="256,-38.5 256,-57.5 339,-57.5 339,-38.5 256,-38.5"/>
<text text-anchor="middle" x="297.5" y="-45.5" font-family="Helvetica,sans-Serif" font-size="10.00">gnuplot_tmpfile</text>
</a>
</g>
</g>
<!-- Node73 -->
<g id="node2" class="node"><title>Node73</title>
<g id="a_node2"><a xlink:href="gnuplot__i_8h.html#a896d09b95a3b5cbe0f2d0b417bba45a2" target="_top" xlink:title="Plots a 2d graph from a list of doubles.">
<polygon fill="white" stroke="black" points="137,-76.5 137,-95.5 217,-95.5 217,-76.5 137,-76.5"/>
<text text-anchor="middle" x="177" y="-83.5" font-family="Helvetica,sans-Serif" font-size="10.00">gnuplot_plot_x</text>
</a>
</g>
</g>
<!-- Node72&#45;&gt;Node73 -->
<g id="edge1" class="edge"><title>Node72&#45;&gt;Node73</title>
<path fill="none" stroke="midnightblue" d="M256.957,-60.6804C240.946,-65.8148 222.768,-71.6441 207.893,-76.4141"/>
<polygon fill="midnightblue" stroke="midnightblue" points="258.144,-63.9755 266.597,-57.589 256.006,-57.3098 258.144,-63.9755"/>
</g>
<!-- Node75 -->
<g id="node4" class="node"><title>Node75</title>
<g id="a_node4"><a xlink:href="gnuplot__i_8h.html#a5ebac8e8968aaa93480e9ac79a5ebdc1" target="_top" xlink:title="Plot a 2d graph from a list of points.">
<polygon fill="white" stroke="black" points="134,-38.5 134,-57.5 220,-57.5 220,-38.5 134,-38.5"/>
<text text-anchor="middle" x="177" y="-45.5" font-family="Helvetica,sans-Serif" font-size="10.00">gnuplot_plot_xy</text>
</a>
</g>
</g>
<!-- Node72&#45;&gt;Node75 -->
<g id="edge3" class="edge"><title>Node72&#45;&gt;Node75</title>
<path fill="none" stroke="midnightblue" d="M245.522,-48C237.029,-48 228.305,-48 220.065,-48"/>
<polygon fill="midnightblue" stroke="midnightblue" points="245.719,-51.5001 255.719,-48 245.719,-44.5001 245.719,-51.5001"/>
</g>
<!-- Node76 -->
<g id="node5" class="node"><title>Node76</title>
<g id="a_node5"><a xlink:href="main__plot__clustering_8cpp.html#a3c04138a5bfe5d72780bb7e82a18e627" target="_top" xlink:title=" ">
<polygon fill="white" stroke="black" points="158,-0.5 158,-19.5 196,-19.5 196,-0.5 158,-0.5"/>
<text text-anchor="middle" x="177" y="-7.5" font-family="Helvetica,sans-Serif" font-size="10.00">main</text>
</a>
</g>
</g>
<!-- Node72&#45;&gt;Node76 -->
<g id="edge5" class="edge"><title>Node72&#45;&gt;Node76</title>
<path fill="none" stroke="midnightblue" d="M256.839,-35.2818C236.279,-28.6885 212.171,-20.9578 196.078,-15.7972"/>
<polygon fill="midnightblue" stroke="midnightblue" points="256.006,-38.6902 266.597,-38.411 258.144,-32.0245 256.006,-38.6902"/>
</g>
<!-- Node74 -->
<g id="node3" class="node"><title>Node74</title>
<g id="a_node3"><a xlink:href="gnuplot__i_8h.html#aa39b56b6bb882ace839a3be677d1f665" target="_top" xlink:title="Open a new session, plot a signal, close the session.">
<polygon fill="white" stroke="black" points="-7.10543e-15,-57.5 -7.10543e-15,-76.5 98,-76.5 98,-57.5 -7.10543e-15,-57.5"/>
<text text-anchor="middle" x="49" y="-64.5" font-family="Helvetica,sans-Serif" font-size="10.00">gnuplot_plot_once</text>
</a>
</g>
</g>
<!-- Node73&#45;&gt;Node74 -->
<g id="edge2" class="edge"><title>Node73&#45;&gt;Node74</title>
<path fill="none" stroke="midnightblue" d="M126.78,-78.578C117.328,-77.1526 107.44,-75.6616 98.0255,-74.2419"/>
<polygon fill="midnightblue" stroke="midnightblue" points="126.413,-82.0621 136.823,-80.0924 127.457,-75.1404 126.413,-82.0621"/>
</g>
<!-- Node75&#45;&gt;Node74 -->
<g id="edge4" class="edge"><title>Node75&#45;&gt;Node74</title>
<path fill="none" stroke="midnightblue" d="M123.559,-55.9077C115.111,-57.1817 106.401,-58.4951 98.0621,-59.7525"/>
<polygon fill="midnightblue" stroke="midnightblue" points="124.327,-59.3316 133.693,-54.3796 123.283,-52.4099 124.327,-59.3316"/>
</g>
</g>
</svg>
