<?xml version="1.0" encoding="UTF-8" standalone="no"?>
<!DOCTYPE svg PUBLIC "-//W3C//DTD SVG 1.1//EN"
 "http://www.w3.org/Graphics/SVG/1.1/DTD/svg11.dtd">
<!-- Generated by graphviz version 2.38.0 (20140413.2041)
 -->
<!-- Title: gnuplot_plot_xy Pages: 1 -->
<svg width="350pt" height="66pt"
 viewBox="0.00 0.00 350.00 66.00" xmlns="http://www.w3.org/2000/svg" xmlns:xlink="http://www.w3.org/1999/xlink">
<g id="graph0" class="graph" transform="scale(1 1) rotate(0) translate(4 62)">
<title>gnuplot_plot_xy</title>
<polygon fill="white" stroke="none" points="-4,4 -4,-62 346,-62 346,4 -4,4"/>
<!-- Node50 -->
<g id="node1" class="node"><title>Node50</title>
<g id="a_node1"><a xlink:title="Plot a 2d graph from a list of points.">
<polygon fill="#bfbfbf" stroke="black" points="0,-19.5 0,-38.5 86,-38.5 86,-19.5 0,-19.5"/>
<text text-anchor="middle" x="43" y="-26.5" font-family="Helvetica,sans-Serif" font-size="10.00">gnuplot_plot_xy</text>
</a>
</g>
</g>
<!-- Node51 -->
<g id="node2" class="node"><title>Node51</title>
<g id="a_node2"><a xlink:href="gnuplot__i_8c.html#a8c234882663df2fd8ef372390a69bd71" target="_top" xlink:title=" ">
<polygon fill="white" stroke="black" points="122,-38.5 122,-57.5 232,-57.5 232,-38.5 122,-38.5"/>
<text text-anchor="middle" x="177" y="-45.5" font-family="Helvetica,sans-Serif" font-size="10.00">gnuplot_plot_atmpfile</text>
</a>
</g>
</g>
<!-- Node50&#45;&gt;Node51 -->
<g id="edge1" class="edge"><title>Node50&#45;&gt;Node51</title>
<path fill="none" stroke="midnightblue" d="M86.1285,-35.064C94.2631,-36.2348 102.957,-37.4862 111.613,-38.7322"/>
<polygon fill="midnightblue" stroke="midnightblue" points="111.326,-42.2269 121.723,-40.1874 112.323,-35.2983 111.326,-42.2269"/>
</g>
<!-- Node53 -->
<g id="node4" class="node"><title>Node53</title>
<g id="a_node4"><a xlink:href="gnuplot__i_8c.html#ac940b4f5082e5ddc01a8300156f8a808" target="_top" xlink:title=" ">
<polygon fill="white" stroke="black" points="135.5,-0.5 135.5,-19.5 218.5,-19.5 218.5,-0.5 135.5,-0.5"/>
<text text-anchor="middle" x="177" y="-7.5" font-family="Helvetica,sans-Serif" font-size="10.00">gnuplot_tmpfile</text>
</a>
</g>
</g>
<!-- Node50&#45;&gt;Node53 -->
<g id="edge3" class="edge"><title>Node50&#45;&gt;Node53</title>
<path fill="none" stroke="midnightblue" d="M86.1285,-22.936C98.5119,-21.1536 112.191,-19.1846 125.063,-17.3319"/>
<polygon fill="midnightblue" stroke="midnightblue" points="125.773,-20.7658 135.172,-15.8767 124.775,-13.8372 125.773,-20.7658"/>
</g>
<!-- Node52 -->
<g id="node3" class="node"><title>Node52</title>
<g id="a_node3"><a xlink:href="gnuplot__i_8c.html#a75592ae4645188c20c119007f4c35474" target="_top" xlink:title="Sends a command to an active gnuplot session.">
<polygon fill="white" stroke="black" points="268,-38.5 268,-57.5 342,-57.5 342,-38.5 268,-38.5"/>
<text text-anchor="middle" x="305" y="-45.5" font-family="Helvetica,sans-Serif" font-size="10.00">gnuplot_cmd</text>
</a>
</g>
</g>
<!-- Node51&#45;&gt;Node52 -->
<g id="edge2" class="edge"><title>Node51&#45;&gt;Node52</title>
<path fill="none" stroke="midnightblue" d="M232.167,-48C240.608,-48 249.266,-48 257.517,-48"/>
<polygon fill="midnightblue" stroke="midnightblue" points="257.704,-51.5001 267.704,-48 257.703,-44.5001 257.704,-51.5001"/>
</g>
</g>
</svg>
