<?xml version="1.0" encoding="UTF-8" standalone="no"?>
<!DOCTYPE svg PUBLIC "-//W3C//DTD SVG 1.1//EN"
 "http://www.w3.org/Graphics/SVG/1.1/DTD/svg11.dtd">
<!-- Generated by graphviz version 2.38.0 (20140413.2041)
 -->
<!-- Title: gnuplot_plot_atmpfile Pages: 1 -->
<svg width="374pt" height="66pt"
 viewBox="0.00 0.00 374.00 66.00" xmlns="http://www.w3.org/2000/svg" xmlns:xlink="http://www.w3.org/1999/xlink">
<g id="graph0" class="graph" transform="scale(1 1) rotate(0) translate(4 62)">
<title>gnuplot_plot_atmpfile</title>
<polygon fill="white" stroke="none" points="-4,4 -4,-62 370,-62 370,4 -4,4"/>
<!-- Node22 -->
<g id="node1" class="node"><title>Node22</title>
<g id="a_node1"><a xlink:title=" ">
<polygon fill="#bfbfbf" stroke="black" points="256,-19.5 256,-38.5 366,-38.5 366,-19.5 256,-19.5"/>
<text text-anchor="middle" x="311" y="-26.5" font-family="Helvetica,sans-Serif" font-size="10.00">gnuplot_plot_atmpfile</text>
</a>
</g>
</g>
<!-- Node23 -->
<g id="node2" class="node"><title>Node23</title>
<g id="a_node2"><a xlink:href="gnuplot__i_8h.html#a896d09b95a3b5cbe0f2d0b417bba45a2" target="_top" xlink:title="Plots a 2d graph from a list of doubles.">
<polygon fill="white" stroke="black" points="137,-38.5 137,-57.5 217,-57.5 217,-38.5 137,-38.5"/>
<text text-anchor="middle" x="177" y="-45.5" font-family="Helvetica,sans-Serif" font-size="10.00">gnuplot_plot_x</text>
</a>
</g>
</g>
<!-- Node22&#45;&gt;Node23 -->
<g id="edge1" class="edge"><title>Node22&#45;&gt;Node23</title>
<path fill="none" stroke="midnightblue" d="M245.817,-38.2385C236.059,-39.643 226.249,-41.055 217.24,-42.3518"/>
<polygon fill="midnightblue" stroke="midnightblue" points="246.53,-41.6719 255.93,-36.7828 245.533,-34.7433 246.53,-41.6719"/>
</g>
<!-- Node25 -->
<g id="node4" class="node"><title>Node25</title>
<g id="a_node4"><a xlink:href="gnuplot__i_8h.html#a5ebac8e8968aaa93480e9ac79a5ebdc1" target="_top" xlink:title="Plot a 2d graph from a list of points.">
<polygon fill="white" stroke="black" points="134,-0.5 134,-19.5 220,-19.5 220,-0.5 134,-0.5"/>
<text text-anchor="middle" x="177" y="-7.5" font-family="Helvetica,sans-Serif" font-size="10.00">gnuplot_plot_xy</text>
</a>
</g>
</g>
<!-- Node22&#45;&gt;Node25 -->
<g id="edge3" class="edge"><title>Node22&#45;&gt;Node25</title>
<path fill="none" stroke="midnightblue" d="M246.03,-19.7922C237.214,-18.5232 228.349,-17.2472 220.066,-16.055"/>
<polygon fill="midnightblue" stroke="midnightblue" points="245.533,-23.2567 255.93,-21.2172 246.53,-16.3281 245.533,-23.2567"/>
</g>
<!-- Node24 -->
<g id="node3" class="node"><title>Node24</title>
<g id="a_node3"><a xlink:href="gnuplot__i_8h.html#aa39b56b6bb882ace839a3be677d1f665" target="_top" xlink:title="Open a new session, plot a signal, close the session.">
<polygon fill="white" stroke="black" points="-7.10543e-15,-19.5 -7.10543e-15,-38.5 98,-38.5 98,-19.5 -7.10543e-15,-19.5"/>
<text text-anchor="middle" x="49" y="-26.5" font-family="Helvetica,sans-Serif" font-size="10.00">gnuplot_plot_once</text>
</a>
</g>
</g>
<!-- Node23&#45;&gt;Node24 -->
<g id="edge2" class="edge"><title>Node23&#45;&gt;Node24</title>
<path fill="none" stroke="midnightblue" d="M126.78,-40.578C117.328,-39.1526 107.44,-37.6616 98.0255,-36.2419"/>
<polygon fill="midnightblue" stroke="midnightblue" points="126.413,-44.0621 136.823,-42.0924 127.457,-37.1404 126.413,-44.0621"/>
</g>
<!-- Node25&#45;&gt;Node24 -->
<g id="edge4" class="edge"><title>Node25&#45;&gt;Node24</title>
<path fill="none" stroke="midnightblue" d="M123.559,-17.9077C115.111,-19.1817 106.401,-20.4951 98.0621,-21.7525"/>
<polygon fill="midnightblue" stroke="midnightblue" points="124.327,-21.3316 133.693,-16.3796 123.283,-14.4099 124.327,-21.3316"/>
</g>
</g>
</svg>
