<?xml version="1.0" encoding="UTF-8" standalone="no"?>
<!DOCTYPE svg PUBLIC "-//W3C//DTD SVG 1.1//EN"
 "http://www.w3.org/Graphics/SVG/1.1/DTD/svg11.dtd">
<!-- Generated by graphviz version 2.38.0 (20140413.2041)
 -->
<!-- Title: gnuplot_setstyle Pages: 1 -->
<svg width="333pt" height="66pt"
 viewBox="0.00 0.00 333.00 66.00" xmlns="http://www.w3.org/2000/svg" xmlns:xlink="http://www.w3.org/1999/xlink">
<g id="graph0" class="graph" transform="scale(1 1) rotate(0) translate(4 62)">
<title>gnuplot_setstyle</title>
<polygon fill="white" stroke="none" points="-4,4 -4,-62 329,-62 329,4 -4,4"/>
<!-- Node67 -->
<g id="node1" class="node"><title>Node67</title>
<g id="a_node1"><a xlink:title="Change the plotting style of a gnuplot session.">
<polygon fill="#bfbfbf" stroke="black" points="236,-19.5 236,-38.5 325,-38.5 325,-19.5 236,-19.5"/>
<text text-anchor="middle" x="280.5" y="-26.5" font-family="Helvetica,sans-Serif" font-size="10.00">gnuplot_setstyle</text>
</a>
</g>
</g>
<!-- Node68 -->
<g id="node2" class="node"><title>Node68</title>
<g id="a_node2"><a xlink:href="gnuplot__i_8h.html#af38602f2bf3bf427b4c6af1e3cc6f371" target="_top" xlink:title="Opens up a gnuplot session, ready to receive commands.">
<polygon fill="white" stroke="black" points="134,-0.5 134,-19.5 200,-19.5 200,-0.5 134,-0.5"/>
<text text-anchor="middle" x="167" y="-7.5" font-family="Helvetica,sans-Serif" font-size="10.00">gnuplot_init</text>
</a>
</g>
</g>
<!-- Node67&#45;&gt;Node68 -->
<g id="edge1" class="edge"><title>Node67&#45;&gt;Node68</title>
<path fill="none" stroke="midnightblue" d="M225.636,-19.8214C216.952,-18.3416 208.207,-16.8514 200.245,-15.4946"/>
<polygon fill="midnightblue" stroke="midnightblue" points="225.306,-23.3156 235.752,-21.5452 226.482,-16.4151 225.306,-23.3156"/>
</g>
<!-- Node69 -->
<g id="node3" class="node"><title>Node69</title>
<g id="a_node3"><a xlink:href="gnuplot__i_8h.html#aa39b56b6bb882ace839a3be677d1f665" target="_top" xlink:title="Open a new session, plot a signal, close the session.">
<polygon fill="white" stroke="black" points="-7.10543e-15,-38.5 -7.10543e-15,-57.5 98,-57.5 98,-38.5 -7.10543e-15,-38.5"/>
<text text-anchor="middle" x="49" y="-45.5" font-family="Helvetica,sans-Serif" font-size="10.00">gnuplot_plot_once</text>
</a>
</g>
</g>
<!-- Node67&#45;&gt;Node69 -->
<g id="edge4" class="edge"><title>Node67&#45;&gt;Node69</title>
<path fill="none" stroke="midnightblue" d="M225.777,-33.4477C187.183,-36.6428 135.601,-40.9132 98.3053,-44.0009"/>
<polygon fill="midnightblue" stroke="midnightblue" points="226.116,-36.9317 235.793,-32.6185 225.538,-29.9556 226.116,-36.9317"/>
</g>
<!-- Node68&#45;&gt;Node69 -->
<g id="edge2" class="edge"><title>Node68&#45;&gt;Node69</title>
<path fill="none" stroke="midnightblue" d="M126.847,-22.8259C111.282,-27.9247 93.6859,-33.6891 79.2623,-38.4141"/>
<polygon fill="midnightblue" stroke="midnightblue" points="128.315,-26.0282 136.728,-19.589 126.136,-19.3761 128.315,-26.0282"/>
</g>
<!-- Node70 -->
<g id="node4" class="node"><title>Node70</title>
<g id="a_node4"><a xlink:href="main__plot__clustering_8cpp.html#a3c04138a5bfe5d72780bb7e82a18e627" target="_top" xlink:title=" ">
<polygon fill="white" stroke="black" points="30,-0.5 30,-19.5 68,-19.5 68,-0.5 30,-0.5"/>
<text text-anchor="middle" x="49" y="-7.5" font-family="Helvetica,sans-Serif" font-size="10.00">main</text>
</a>
</g>
</g>
<!-- Node68&#45;&gt;Node70 -->
<g id="edge3" class="edge"><title>Node68&#45;&gt;Node70</title>
<path fill="none" stroke="midnightblue" d="M123.958,-10C104.788,-10 83.0957,-10 68.1868,-10"/>
<polygon fill="midnightblue" stroke="midnightblue" points="123.995,-13.5001 133.995,-10 123.995,-6.5001 123.995,-13.5001"/>
</g>
</g>
</svg>
