<?xml version="1.0" encoding="UTF-8" standalone="no"?>
<!DOCTYPE svg PUBLIC "-//W3C//DTD SVG 1.1//EN"
 "http://www.w3.org/Graphics/SVG/1.1/DTD/svg11.dtd">
<!-- Generated by graphviz version 2.38.0 (20140413.2041)
 -->
<!-- Title: gnuplot_plot_once Pages: 1 -->
<!--zoomable 256 -->
<svg id="main" version="1.1" xmlns="http://www.w3.org/2000/svg" xmlns:xlink="http://www.w3.org/1999/xlink" xml:space="preserve" onload="init(evt)">
<style type="text/css"><![CDATA[
.edge:hover path { stroke: red; }
.edge:hover polygon { stroke: red; fill: red; }
]]></style>
<script type="text/javascript"><![CDATA[
var edges = document.getElementsByTagName('g');
if (edges && edges.length) {
  for (var i=0;i<edges.length;i++) {
    if (edges[i].id.substr(0,4)=='edge') {
      edges[i].setAttribute('class','edge');
    }
  }
}
]]></script>
        <defs>
                <circle id="rim" cx="0" cy="0" r="7"/>
                <circle id="rim2" cx="0" cy="0" r="3.5"/>
                <g id="zoomPlus">
                        <use xlink:href="#rim" fill="#404040">
                                <set attributeName="fill" to="#808080" begin="zoomplus.mouseover" end="zoomplus.mouseout"/>
                        </use>
                        <path d="M-4,0h8M0,-4v8" fill="none" stroke="white" stroke-width="1.5" pointer-events="none"/>
                </g>
                <g id="zoomMin">
                        <use xlink:href="#rim" fill="#404040">
                                <set attributeName="fill" to="#808080" begin="zoomminus.mouseover" end="zoomminus.mouseout"/>
                        </use>
                        <path d="M-4,0h8" fill="none" stroke="white" stroke-width="1.5" pointer-events="none"/>
                </g>
                <g id="dirArrow">
                        <path fill="none" stroke="white" stroke-width="1.5" d="M0,-3.0v7 M-2.5,-0.5L0,-3.0L2.5,-0.5"/>
                </g>
               <g id="resetDef">
                       <use xlink:href="#rim2" fill="#404040">
                               <set attributeName="fill" to="#808080" begin="reset.mouseover" end="reset.mouseout"/>
                       </use>
               </g>
        </defs>

<script type="text/javascript">
var viewWidth = 620;
var viewHeight = 256;
var sectionId = 'dynsection-5';
</script>
<script xlink:href="svgpan.js"/>
<svg id="graph" class="graph">
<g id="viewport">
<title>gnuplot_plot_once</title>
<polygon fill="white" stroke="none" points="-4,4 -4,-252 616,-252 616,4 -4,4"/>
<!-- Node8 -->
<g id="node1" class="node"><title>Node8</title>
<polygon fill="#bfbfbf" stroke="black" points="0,-114.5 0,-133.5 98,-133.5 98,-114.5 0,-114.5"/>
<text text-anchor="middle" x="49" y="-121.5" font-family="Helvetica,sans-Serif" font-size="10.00">gnuplot_plot_once</text>
</g>
<!-- Node9 -->
<g id="node2" class="node"><title>Node9</title>
<g id="a_node2"><a xlink:href="gnuplot__i_8c.html#a416bd48453ce016d6419f0f39fa5c625" target="_top" xlink:title="Closes a gnuplot session previously opened by gnuplot_init() ">
<polygon fill="white" stroke="black" points="137.5,-228.5 137.5,-247.5 216.5,-247.5 216.5,-228.5 137.5,-228.5"/>
<text text-anchor="middle" x="177" y="-235.5" font-family="Helvetica,sans-Serif" font-size="10.00">gnuplot_close</text>
</a>
</g>
</g>
<!-- Node8&#45;&gt;Node9 -->
<g id="edge1" class="edge"><title>Node8&#45;&gt;Node9</title>
<path fill="none" stroke="midnightblue" d="M56.3475,-133.555C69.1151,-152.158 99.6352,-193.637 134,-219 136.218,-220.637 138.598,-222.177 141.059,-223.617"/>
<polygon fill="midnightblue" stroke="midnightblue" points="139.683,-226.847 150.165,-228.386 142.931,-220.646 139.683,-226.847"/>
</g>
<!-- Node10 -->
<g id="node3" class="node"><title>Node10</title>
<g id="a_node3"><a xlink:href="gnuplot__i_8c.html#af38602f2bf3bf427b4c6af1e3cc6f371" target="_top" xlink:title="Opens up a gnuplot session, ready to receive commands. ">
<polygon fill="white" stroke="black" points="144,-190.5 144,-209.5 210,-209.5 210,-190.5 144,-190.5"/>
<text text-anchor="middle" x="177" y="-197.5" font-family="Helvetica,sans-Serif" font-size="10.00">gnuplot_init</text>
</a>
</g>
</g>
<!-- Node8&#45;&gt;Node10 -->
<g id="edge2" class="edge"><title>Node8&#45;&gt;Node10</title>
<path fill="none" stroke="midnightblue" d="M65.077,-133.555C81.8142,-144.11 109.679,-161.529 134,-176 139.052,-179.006 144.482,-182.162 149.704,-185.162"/>
<polygon fill="midnightblue" stroke="midnightblue" points="148.336,-188.411 158.756,-190.327 151.805,-182.331 148.336,-188.411"/>
</g>
<!-- Node11 -->
<g id="node4" class="node"><title>Node11</title>
<g id="a_node4"><a xlink:href="gnuplot__i_8c.html#a56672f9c858d7cff5fcae4cdcaf99421" target="_top" xlink:title="Change the plotting style of a gnuplot session. ">
<polygon fill="white" stroke="black" points="261.5,-190.5 261.5,-209.5 350.5,-209.5 350.5,-190.5 261.5,-190.5"/>
<text text-anchor="middle" x="306" y="-197.5" font-family="Helvetica,sans-Serif" font-size="10.00">gnuplot_setstyle</text>
</a>
</g>
</g>
<!-- Node8&#45;&gt;Node11 -->
<g id="edge16" class="edge"><title>Node8&#45;&gt;Node11</title>
<path fill="none" stroke="midnightblue" d="M82.0377,-133.548C127.936,-147.228 212.453,-172.417 263.212,-187.546"/>
<polygon fill="midnightblue" stroke="midnightblue" points="262.31,-190.929 272.893,-190.431 264.309,-184.22 262.31,-190.929"/>
</g>
<!-- Node12 -->
<g id="node5" class="node"><title>Node12</title>
<g id="a_node5"><a xlink:href="gnuplot__i_8c.html#a896d09b95a3b5cbe0f2d0b417bba45a2" target="_top" xlink:title="Plots a 2d graph from a list of doubles. ">
<polygon fill="white" stroke="black" points="137,-114.5 137,-133.5 217,-133.5 217,-114.5 137,-114.5"/>
<text text-anchor="middle" x="177" y="-121.5" font-family="Helvetica,sans-Serif" font-size="10.00">gnuplot_plot_x</text>
</a>
</g>
</g>
<!-- Node8&#45;&gt;Node12 -->
<g id="edge4" class="edge"><title>Node8&#45;&gt;Node12</title>
<path fill="none" stroke="midnightblue" d="M98.3545,-124C107.632,-124 117.359,-124 126.667,-124"/>
<polygon fill="midnightblue" stroke="midnightblue" points="126.953,-127.5 136.953,-124 126.953,-120.5 126.953,-127.5"/>
</g>
<!-- Node16 -->
<g id="node9" class="node"><title>Node16</title>
<g id="a_node9"><a xlink:href="gnuplot__i_8c.html#a5ebac8e8968aaa93480e9ac79a5ebdc1" target="_top" xlink:title="Plot a 2d graph from a list of points. ">
<polygon fill="white" stroke="black" points="134,-76.5 134,-95.5 220,-95.5 220,-76.5 134,-76.5"/>
<text text-anchor="middle" x="177" y="-83.5" font-family="Helvetica,sans-Serif" font-size="10.00">gnuplot_plot_xy</text>
</a>
</g>
</g>
<!-- Node8&#45;&gt;Node16 -->
<g id="edge9" class="edge"><title>Node8&#45;&gt;Node16</title>
<path fill="none" stroke="midnightblue" d="M81.7951,-114.411C97.7621,-109.596 117.307,-103.701 134.447,-98.532"/>
<polygon fill="midnightblue" stroke="midnightblue" points="135.652,-101.824 144.215,-95.5859 133.63,-95.1225 135.652,-101.824"/>
</g>
<!-- Node17 -->
<g id="node10" class="node"><title>Node17</title>
<g id="a_node10"><a xlink:href="gnuplot__i_8c.html#a72859e0edb25462d1ce828ed772c110d" target="_top" xlink:title="Sets the x label of a gnuplot session. ">
<polygon fill="white" stroke="black" points="397,-38.5 397,-57.5 497,-57.5 497,-38.5 397,-38.5"/>
<text text-anchor="middle" x="447" y="-45.5" font-family="Helvetica,sans-Serif" font-size="10.00">gnuplot_set_xlabel</text>
</a>
</g>
</g>
<!-- Node8&#45;&gt;Node17 -->
<g id="edge12" class="edge"><title>Node8&#45;&gt;Node17</title>
<path fill="none" stroke="midnightblue" d="M60.3727,-114.169C75.2953,-100.725 104.307,-77.1212 134,-67 218.175,-38.3078 322.435,-38.564 386.571,-42.4639"/>
<polygon fill="midnightblue" stroke="midnightblue" points="386.691,-45.9793 396.899,-43.1447 387.151,-38.9944 386.691,-45.9793"/>
</g>
<!-- Node18 -->
<g id="node11" class="node"><title>Node18</title>
<g id="a_node11"><a xlink:href="gnuplot__i_8c.html#aa0afc033a613ef66128d9022ba772f32" target="_top" xlink:title="Sets the y label of a gnuplot session. ">
<polygon fill="white" stroke="black" points="256,-0.5 256,-19.5 356,-19.5 356,-0.5 256,-0.5"/>
<text text-anchor="middle" x="306" y="-7.5" font-family="Helvetica,sans-Serif" font-size="10.00">gnuplot_set_ylabel</text>
</a>
</g>
</g>
<!-- Node8&#45;&gt;Node18 -->
<g id="edge14" class="edge"><title>Node8&#45;&gt;Node18</title>
<path fill="none" stroke="midnightblue" d="M55.7371,-114.381C67.6412,-95.3852 97.0254,-53.2331 134,-34 168.225,-16.1971 211.252,-10.2281 245.583,-8.69418"/>
<polygon fill="midnightblue" stroke="midnightblue" points="246.06,-12.1804 255.939,-8.35234 245.829,-5.18425 246.06,-12.1804"/>
</g>
<!-- Node10&#45;&gt;Node11 -->
<g id="edge3" class="edge"><title>Node10&#45;&gt;Node11</title>
<path fill="none" stroke="midnightblue" d="M210.047,-200C222.583,-200 237.306,-200 251.368,-200"/>
<polygon fill="midnightblue" stroke="midnightblue" points="251.449,-203.5 261.449,-200 251.449,-196.5 251.449,-203.5"/>
</g>
<!-- Node13 -->
<g id="node6" class="node"><title>Node13</title>
<g id="a_node6"><a xlink:href="gnuplot__i_8c.html#a8c234882663df2fd8ef372390a69bd71" target="_top" xlink:title="gnuplot_plot_atmpfile">
<polygon fill="white" stroke="black" points="392,-95.5 392,-114.5 502,-114.5 502,-95.5 392,-95.5"/>
<text text-anchor="middle" x="447" y="-102.5" font-family="Helvetica,sans-Serif" font-size="10.00">gnuplot_plot_atmpfile</text>
</a>
</g>
</g>
<!-- Node12&#45;&gt;Node13 -->
<g id="edge5" class="edge"><title>Node12&#45;&gt;Node13</title>
<path fill="none" stroke="midnightblue" d="M209.563,-133.506C223.634,-137.27 240.501,-141.14 256,-143 300.128,-148.297 312.439,-151.819 356,-143 378.582,-138.428 402.54,-128.008 420.055,-119.234"/>
<polygon fill="midnightblue" stroke="midnightblue" points="421.795,-122.275 429.074,-114.577 418.583,-116.056 421.795,-122.275"/>
</g>
<!-- Node15 -->
<g id="node8" class="node"><title>Node15</title>
<g id="a_node8"><a xlink:href="gnuplot__i_8c.html#ac940b4f5082e5ddc01a8300156f8a808" target="_top" xlink:title="gnuplot_tmpfile">
<polygon fill="white" stroke="black" points="264.5,-114.5 264.5,-133.5 347.5,-133.5 347.5,-114.5 264.5,-114.5"/>
<text text-anchor="middle" x="306" y="-121.5" font-family="Helvetica,sans-Serif" font-size="10.00">gnuplot_tmpfile</text>
</a>
</g>
</g>
<!-- Node12&#45;&gt;Node15 -->
<g id="edge7" class="edge"><title>Node12&#45;&gt;Node15</title>
<path fill="none" stroke="midnightblue" d="M217.14,-124C228.87,-124 241.906,-124 254.269,-124"/>
<polygon fill="midnightblue" stroke="midnightblue" points="254.452,-127.5 264.452,-124 254.452,-120.5 254.452,-127.5"/>
</g>
<!-- Node14 -->
<g id="node7" class="node"><title>Node14</title>
<g id="a_node7"><a xlink:href="gnuplot__i_8c.html#a75592ae4645188c20c119007f4c35474" target="_top" xlink:title="Sends a command to an active gnuplot session. ">
<polygon fill="white" stroke="black" points="538,-38.5 538,-57.5 612,-57.5 612,-38.5 538,-38.5"/>
<text text-anchor="middle" x="575" y="-45.5" font-family="Helvetica,sans-Serif" font-size="10.00">gnuplot_cmd</text>
</a>
</g>
</g>
<!-- Node13&#45;&gt;Node14 -->
<g id="edge6" class="edge"><title>Node13&#45;&gt;Node14</title>
<path fill="none" stroke="midnightblue" d="M469.09,-95.4595C489.441,-86.2528 520.472,-72.2153 543.511,-61.7926"/>
<polygon fill="midnightblue" stroke="midnightblue" points="545.173,-64.8823 552.842,-57.5716 542.288,-58.5045 545.173,-64.8823"/>
</g>
<!-- Node15&#45;&gt;Node13 -->
<g id="edge8" class="edge"><title>Node15&#45;&gt;Node13</title>
<path fill="none" stroke="midnightblue" d="M347.578,-118.453C358.3,-116.988 370.14,-115.369 381.781,-113.778"/>
<polygon fill="midnightblue" stroke="midnightblue" points="382.493,-117.213 391.927,-112.391 381.545,-110.278 382.493,-117.213"/>
</g>
<!-- Node16&#45;&gt;Node13 -->
<g id="edge10" class="edge"><title>Node16&#45;&gt;Node13</title>
<path fill="none" stroke="midnightblue" d="M220.17,-88.9897C263.472,-92.0596 331.427,-96.8773 381.49,-100.427"/>
<polygon fill="midnightblue" stroke="midnightblue" points="381.346,-103.925 391.568,-101.141 381.841,-96.9425 381.346,-103.925"/>
</g>
<!-- Node16&#45;&gt;Node15 -->
<g id="edge11" class="edge"><title>Node16&#45;&gt;Node15</title>
<path fill="none" stroke="midnightblue" d="M210.047,-95.589C226.141,-100.404 245.841,-106.299 263.117,-111.468"/>
<polygon fill="midnightblue" stroke="midnightblue" points="262.379,-114.901 272.963,-114.414 264.386,-108.194 262.379,-114.901"/>
</g>
<!-- Node17&#45;&gt;Node14 -->
<g id="edge13" class="edge"><title>Node17&#45;&gt;Node14</title>
<path fill="none" stroke="midnightblue" d="M497.076,-48C507.127,-48 517.677,-48 527.63,-48"/>
<polygon fill="midnightblue" stroke="midnightblue" points="527.74,-51.5001 537.74,-48 527.74,-44.5001 527.74,-51.5001"/>
</g>
<!-- Node18&#45;&gt;Node14 -->
<g id="edge15" class="edge"><title>Node18&#45;&gt;Node14</title>
<path fill="none" stroke="midnightblue" d="M356.184,-12.5968C395.793,-15.2141 452.785,-20.1679 502,-29 512.021,-30.7983 522.689,-33.2881 532.659,-35.8739"/>
<polygon fill="midnightblue" stroke="midnightblue" points="531.782,-39.2621 542.347,-38.4696 533.593,-32.5006 531.782,-39.2621"/>
</g>
</g>
</svg>
        <g id="navigator" transform="translate(0 0)" fill="#404254">
                <rect fill="#f2f5e9" fill-opacity="0.5" stroke="#606060" stroke-width=".5" x="0" y="0" width="60" height="60"/>
                <use id="zoomplus" xlink:href="#zoomPlus" x="17" y="9" onmousedown="handleZoom(evt,'in')"/>
                <use id="zoomminus" xlink:href="#zoomMin" x="42" y="9" onmousedown="handleZoom(evt,'out')"/>
                <use id="reset" xlink:href="#resetDef" x="30" y="36" onmousedown="handleReset()"/>
                <g id="arrowUp" xlink:href="#dirArrow" transform="translate(30 24)" onmousedown="handlePan(0,-1)">
                  <use xlink:href="#rim" fill="#404040">
                        <set attributeName="fill" to="#808080" begin="arrowUp.mouseover" end="arrowUp.mouseout"/>
                  </use>
                  <path fill="none" stroke="white" stroke-width="1.5" d="M0,-3.0v7 M-2.5,-0.5L0,-3.0L2.5,-0.5"/>
                </g>
                <g id="arrowRight" xlink:href="#dirArrow" transform="rotate(90) translate(36 -43)" onmousedown="handlePan(1,0)">
                  <use xlink:href="#rim" fill="#404040">
                        <set attributeName="fill" to="#808080" begin="arrowRight.mouseover" end="arrowRight.mouseout"/>
                  </use>
                  <path fill="none" stroke="white" stroke-width="1.5" d="M0,-3.0v7 M-2.5,-0.5L0,-3.0L2.5,-0.5"/>
                </g>
                <g id="arrowDown" xlink:href="#dirArrow" transform="rotate(180) translate(-30 -48)" onmousedown="handlePan(0,1)">
                  <use xlink:href="#rim" fill="#404040">
                        <set attributeName="fill" to="#808080" begin="arrowDown.mouseover" end="arrowDown.mouseout"/>
                  </use>
                  <path fill="none" stroke="white" stroke-width="1.5" d="M0,-3.0v7 M-2.5,-0.5L0,-3.0L2.5,-0.5"/>
                </g>
                <g id="arrowLeft" xlink:href="#dirArrow" transform="rotate(270) translate(-36 17)" onmousedown="handlePan(-1,0)">
                  <use xlink:href="#rim" fill="#404040">
                        <set attributeName="fill" to="#808080" begin="arrowLeft.mouseover" end="arrowLeft.mouseout"/>
                  </use>
                  <path fill="none" stroke="white" stroke-width="1.5" d="M0,-3.0v7 M-2.5,-0.5L0,-3.0L2.5,-0.5"/>
                </g>
        </g>
        <svg viewBox="0 0 15 15" width="100%" height="30px" preserveAspectRatio="xMaxYMin meet">
         <g id="arrow_out" transform="scale(0.3 0.3)">
          <a xlink:href="gnuplot__i_8h_aa39b56b6bb882ace839a3be677d1f665_cgraph_org.svg" target="_base">
           <rect id="button" ry="5" rx="5" y="6" x="6" height="38" width="38"
                fill="#f2f5e9" fill-opacity="0.5" stroke="#606060" stroke-width="1.0"/>
           <path id="arrow"
             d="M 11.500037,31.436501 C 11.940474,20.09759 22.043105,11.32322 32.158766,21.979434 L 37.068811,17.246167 C 37.068811,17.246167 37.088388,32 37.088388,32 L 22.160133,31.978069 C 22.160133,31.978069 26.997745,27.140456 26.997745,27.140456 C 18.528582,18.264221 13.291696,25.230495 11.500037,31.436501 z"
             style="fill:#404040;"/>
          </a>
         </g>
        </svg>
</svg>
