<?xml version="1.0" encoding="UTF-8" standalone="no"?>
<!DOCTYPE svg PUBLIC "-//W3C//DTD SVG 1.1//EN"
 "http://www.w3.org/Graphics/SVG/1.1/DTD/svg11.dtd">
<!-- Generated by graphviz version 2.38.0 (20140413.2041)
 -->
<!-- Title: gnuplot_plot_x Pages: 1 -->
<svg width="344pt" height="66pt"
 viewBox="0.00 0.00 344.00 66.00" xmlns="http://www.w3.org/2000/svg" xmlns:xlink="http://www.w3.org/1999/xlink">
<g id="graph0" class="graph" transform="scale(1 1) rotate(0) translate(4 62)">
<title>gnuplot_plot_x</title>
<polygon fill="white" stroke="none" points="-4,4 -4,-62 340,-62 340,4 -4,4"/>
<!-- Node44 -->
<g id="node1" class="node"><title>Node44</title>
<g id="a_node1"><a xlink:title="Plots a 2d graph from a list of doubles.">
<polygon fill="#bfbfbf" stroke="black" points="0,-19.5 0,-38.5 80,-38.5 80,-19.5 0,-19.5"/>
<text text-anchor="middle" x="40" y="-26.5" font-family="Helvetica,sans-Serif" font-size="10.00">gnuplot_plot_x</text>
</a>
</g>
</g>
<!-- Node45 -->
<g id="node2" class="node"><title>Node45</title>
<g id="a_node2"><a xlink:href="gnuplot__i_8c.html#a8c234882663df2fd8ef372390a69bd71" target="_top" xlink:title=" ">
<polygon fill="white" stroke="black" points="116,-38.5 116,-57.5 226,-57.5 226,-38.5 116,-38.5"/>
<text text-anchor="middle" x="171" y="-45.5" font-family="Helvetica,sans-Serif" font-size="10.00">gnuplot_plot_atmpfile</text>
</a>
</g>
</g>
<!-- Node44&#45;&gt;Node45 -->
<g id="edge1" class="edge"><title>Node44&#45;&gt;Node45</title>
<path fill="none" stroke="midnightblue" d="M80.0543,-34.7522C88.244,-35.9584 97.0854,-37.2606 105.916,-38.5613"/>
<polygon fill="midnightblue" stroke="midnightblue" points="105.444,-42.0294 115.847,-40.024 106.464,-35.1041 105.444,-42.0294"/>
</g>
<!-- Node47 -->
<g id="node4" class="node"><title>Node47</title>
<g id="a_node4"><a xlink:href="gnuplot__i_8c.html#ac940b4f5082e5ddc01a8300156f8a808" target="_top" xlink:title=" ">
<polygon fill="white" stroke="black" points="129.5,-0.5 129.5,-19.5 212.5,-19.5 212.5,-0.5 129.5,-0.5"/>
<text text-anchor="middle" x="171" y="-7.5" font-family="Helvetica,sans-Serif" font-size="10.00">gnuplot_tmpfile</text>
</a>
</g>
</g>
<!-- Node44&#45;&gt;Node47 -->
<g id="edge3" class="edge"><title>Node44&#45;&gt;Node47</title>
<path fill="none" stroke="midnightblue" d="M80.0543,-23.2478C92.3423,-21.438 106.098,-19.412 119.083,-17.4993"/>
<polygon fill="midnightblue" stroke="midnightblue" points="119.907,-20.9159 129.29,-15.996 118.887,-13.9906 119.907,-20.9159"/>
</g>
<!-- Node46 -->
<g id="node3" class="node"><title>Node46</title>
<g id="a_node3"><a xlink:href="gnuplot__i_8c.html#a75592ae4645188c20c119007f4c35474" target="_top" xlink:title="Sends a command to an active gnuplot session.">
<polygon fill="white" stroke="black" points="262,-38.5 262,-57.5 336,-57.5 336,-38.5 262,-38.5"/>
<text text-anchor="middle" x="299" y="-45.5" font-family="Helvetica,sans-Serif" font-size="10.00">gnuplot_cmd</text>
</a>
</g>
</g>
<!-- Node45&#45;&gt;Node46 -->
<g id="edge2" class="edge"><title>Node45&#45;&gt;Node46</title>
<path fill="none" stroke="midnightblue" d="M226.167,-48C234.608,-48 243.266,-48 251.517,-48"/>
<polygon fill="midnightblue" stroke="midnightblue" points="251.704,-51.5001 261.704,-48 251.703,-44.5001 251.704,-51.5001"/>
</g>
</g>
</svg>
