<?xml version="1.0" encoding="UTF-8" standalone="no"?>
<!DOCTYPE svg PUBLIC "-//W3C//DTD SVG 1.1//EN"
 "http://www.w3.org/Graphics/SVG/1.1/DTD/svg11.dtd">
<!-- Generated by graphviz version 2.38.0 (20140413.2041)
 -->
<!-- Title: gnuplot_plot_once Pages: 1 -->
<svg width="484pt" height="256pt"
 viewBox="0.00 0.00 484.00 256.00" xmlns="http://www.w3.org/2000/svg" xmlns:xlink="http://www.w3.org/1999/xlink">
<g id="graph0" class="graph" transform="scale(1 1) rotate(0) translate(4 252)">
<title>gnuplot_plot_once</title>
<polygon fill="white" stroke="none" points="-4,4 -4,-252 480,-252 480,4 -4,4"/>
<!-- Node29 -->
<g id="node1" class="node"><title>Node29</title>
<g id="a_node1"><a xlink:title="Open a new session, plot a signal, close the session.">
<polygon fill="#bfbfbf" stroke="black" points="0,-114.5 0,-133.5 98,-133.5 98,-114.5 0,-114.5"/>
<text text-anchor="middle" x="49" y="-121.5" font-family="Helvetica,sans-Serif" font-size="10.00">gnuplot_plot_once</text>
</a>
</g>
</g>
<!-- Node30 -->
<g id="node2" class="node"><title>Node30</title>
<g id="a_node2"><a xlink:href="gnuplot__i_8c.html#a416bd48453ce016d6419f0f39fa5c625" target="_top" xlink:title="Closes a gnuplot session previously opened by gnuplot_init()">
<polygon fill="white" stroke="black" points="137.5,-228.5 137.5,-247.5 216.5,-247.5 216.5,-228.5 137.5,-228.5"/>
<text text-anchor="middle" x="177" y="-235.5" font-family="Helvetica,sans-Serif" font-size="10.00">gnuplot_close</text>
</a>
</g>
</g>
<!-- Node29&#45;&gt;Node30 -->
<g id="edge1" class="edge"><title>Node29&#45;&gt;Node30</title>
<path fill="none" stroke="midnightblue" d="M56.3475,-133.555C69.1151,-152.158 99.6352,-193.637 134,-219 136.218,-220.637 138.598,-222.177 141.059,-223.617"/>
<polygon fill="midnightblue" stroke="midnightblue" points="139.683,-226.847 150.165,-228.386 142.931,-220.646 139.683,-226.847"/>
</g>
<!-- Node31 -->
<g id="node3" class="node"><title>Node31</title>
<g id="a_node3"><a xlink:href="gnuplot__i_8c.html#af38602f2bf3bf427b4c6af1e3cc6f371" target="_top" xlink:title="Opens up a gnuplot session, ready to receive commands.">
<polygon fill="white" stroke="black" points="144,-190.5 144,-209.5 210,-209.5 210,-190.5 144,-190.5"/>
<text text-anchor="middle" x="177" y="-197.5" font-family="Helvetica,sans-Serif" font-size="10.00">gnuplot_init</text>
</a>
</g>
</g>
<!-- Node29&#45;&gt;Node31 -->
<g id="edge2" class="edge"><title>Node29&#45;&gt;Node31</title>
<path fill="none" stroke="midnightblue" d="M65.077,-133.555C81.8142,-144.11 109.679,-161.529 134,-176 139.052,-179.006 144.482,-182.162 149.704,-185.162"/>
<polygon fill="midnightblue" stroke="midnightblue" points="148.336,-188.411 158.756,-190.327 151.805,-182.331 148.336,-188.411"/>
</g>
<!-- Node32 -->
<g id="node4" class="node"><title>Node32</title>
<g id="a_node4"><a xlink:href="gnuplot__i_8c.html#a56672f9c858d7cff5fcae4cdcaf99421" target="_top" xlink:title="Change the plotting style of a gnuplot session.">
<polygon fill="white" stroke="black" points="266.5,-171.5 266.5,-190.5 355.5,-190.5 355.5,-171.5 266.5,-171.5"/>
<text text-anchor="middle" x="311" y="-178.5" font-family="Helvetica,sans-Serif" font-size="10.00">gnuplot_setstyle</text>
</a>
</g>
</g>
<!-- Node29&#45;&gt;Node32 -->
<g id="edge15" class="edge"><title>Node29&#45;&gt;Node32</title>
<path fill="none" stroke="midnightblue" d="M91.8542,-133.552C105.306,-136.599 120.277,-139.967 134,-143 174.976,-152.058 221.377,-162.066 256.243,-169.536"/>
<polygon fill="midnightblue" stroke="midnightblue" points="255.704,-173 266.215,-171.671 257.17,-166.155 255.704,-173"/>
</g>
<!-- Node33 -->
<g id="node5" class="node"><title>Node33</title>
<g id="a_node5"><a xlink:href="gnuplot__i_8c.html#a896d09b95a3b5cbe0f2d0b417bba45a2" target="_top" xlink:title="Plots a 2d graph from a list of doubles.">
<polygon fill="white" stroke="black" points="137,-76.5 137,-95.5 217,-95.5 217,-76.5 137,-76.5"/>
<text text-anchor="middle" x="177" y="-83.5" font-family="Helvetica,sans-Serif" font-size="10.00">gnuplot_plot_x</text>
</a>
</g>
</g>
<!-- Node29&#45;&gt;Node33 -->
<g id="edge4" class="edge"><title>Node29&#45;&gt;Node33</title>
<path fill="none" stroke="midnightblue" d="M81.7951,-114.411C97.7621,-109.596 117.307,-103.701 134.447,-98.532"/>
<polygon fill="midnightblue" stroke="midnightblue" points="135.652,-101.824 144.215,-95.5859 133.63,-95.1225 135.652,-101.824"/>
</g>
<!-- Node37 -->
<g id="node9" class="node"><title>Node37</title>
<g id="a_node9"><a xlink:href="gnuplot__i_8c.html#a5ebac8e8968aaa93480e9ac79a5ebdc1" target="_top" xlink:title="Plot a 2d graph from a list of points.">
<polygon fill="white" stroke="black" points="134,-114.5 134,-133.5 220,-133.5 220,-114.5 134,-114.5"/>
<text text-anchor="middle" x="177" y="-121.5" font-family="Helvetica,sans-Serif" font-size="10.00">gnuplot_plot_xy</text>
</a>
</g>
</g>
<!-- Node29&#45;&gt;Node37 -->
<g id="edge8" class="edge"><title>Node29&#45;&gt;Node37</title>
<path fill="none" stroke="midnightblue" d="M98.3545,-124C106.643,-124 115.29,-124 123.677,-124"/>
<polygon fill="midnightblue" stroke="midnightblue" points="123.737,-127.5 133.737,-124 123.737,-120.5 123.737,-127.5"/>
</g>
<!-- Node38 -->
<g id="node10" class="node"><title>Node38</title>
<g id="a_node10"><a xlink:href="gnuplot__i_8c.html#a72859e0edb25462d1ce828ed772c110d" target="_top" xlink:title="Sets the x label of a gnuplot session.">
<polygon fill="white" stroke="black" points="261,-38.5 261,-57.5 361,-57.5 361,-38.5 261,-38.5"/>
<text text-anchor="middle" x="311" y="-45.5" font-family="Helvetica,sans-Serif" font-size="10.00">gnuplot_set_xlabel</text>
</a>
</g>
</g>
<!-- Node29&#45;&gt;Node38 -->
<g id="edge11" class="edge"><title>Node29&#45;&gt;Node38</title>
<path fill="none" stroke="midnightblue" d="M60.4408,-114.361C75.4443,-101.146 104.552,-77.8119 134,-67 171.286,-53.3104 215.783,-48.6006 250.706,-47.2928"/>
<polygon fill="midnightblue" stroke="midnightblue" points="250.858,-50.7899 260.752,-46.9996 250.654,-43.7929 250.858,-50.7899"/>
</g>
<!-- Node39 -->
<g id="node11" class="node"><title>Node39</title>
<g id="a_node11"><a xlink:href="gnuplot__i_8c.html#aa0afc033a613ef66128d9022ba772f32" target="_top" xlink:title="Sets the y label of a gnuplot session.">
<polygon fill="white" stroke="black" points="261,-0.5 261,-19.5 361,-19.5 361,-0.5 261,-0.5"/>
<text text-anchor="middle" x="311" y="-7.5" font-family="Helvetica,sans-Serif" font-size="10.00">gnuplot_set_ylabel</text>
</a>
</g>
</g>
<!-- Node29&#45;&gt;Node39 -->
<g id="edge13" class="edge"><title>Node29&#45;&gt;Node39</title>
<path fill="none" stroke="midnightblue" d="M57.1277,-114.427C70.2923,-97.4953 100.183,-62.4134 134,-45 170.175,-26.3725 215.249,-17.6418 250.726,-13.5581"/>
<polygon fill="midnightblue" stroke="midnightblue" points="251.357,-17.011 260.933,-12.4795 250.621,-10.0498 251.357,-17.011"/>
</g>
<!-- Node31&#45;&gt;Node32 -->
<g id="edge3" class="edge"><title>Node31&#45;&gt;Node32</title>
<path fill="none" stroke="midnightblue" d="M210.291,-195.352C224.065,-193.369 240.517,-191.001 256.048,-188.766"/>
<polygon fill="midnightblue" stroke="midnightblue" points="256.684,-192.21 266.083,-187.321 255.686,-185.282 256.684,-192.21"/>
</g>
<!-- Node34 -->
<g id="node6" class="node"><title>Node34</title>
<g id="a_node6"><a xlink:href="gnuplot__i_8c.html#ac940b4f5082e5ddc01a8300156f8a808" target="_top" xlink:title=" ">
<polygon fill="white" stroke="black" points="269.5,-76.5 269.5,-95.5 352.5,-95.5 352.5,-76.5 269.5,-76.5"/>
<text text-anchor="middle" x="311" y="-83.5" font-family="Helvetica,sans-Serif" font-size="10.00">gnuplot_tmpfile</text>
</a>
</g>
</g>
<!-- Node33&#45;&gt;Node34 -->
<g id="edge5" class="edge"><title>Node33&#45;&gt;Node34</title>
<path fill="none" stroke="midnightblue" d="M217.247,-86C230.328,-86 245.096,-86 258.939,-86"/>
<polygon fill="midnightblue" stroke="midnightblue" points="259.302,-89.5001 269.302,-86 259.302,-82.5001 259.302,-89.5001"/>
</g>
<!-- Node35 -->
<g id="node7" class="node"><title>Node35</title>
<g id="a_node7"><a xlink:href="gnuplot__i_8c.html#a8c234882663df2fd8ef372390a69bd71" target="_top" xlink:title=" ">
<polygon fill="white" stroke="black" points="256,-114.5 256,-133.5 366,-133.5 366,-114.5 256,-114.5"/>
<text text-anchor="middle" x="311" y="-121.5" font-family="Helvetica,sans-Serif" font-size="10.00">gnuplot_plot_atmpfile</text>
</a>
</g>
</g>
<!-- Node33&#45;&gt;Node35 -->
<g id="edge6" class="edge"><title>Node33&#45;&gt;Node35</title>
<path fill="none" stroke="midnightblue" d="M211.309,-95.589C228.193,-100.449 248.895,-106.409 266.971,-111.613"/>
<polygon fill="midnightblue" stroke="midnightblue" points="266.123,-115.011 276.701,-114.414 268.06,-108.284 266.123,-115.011"/>
</g>
<!-- Node36 -->
<g id="node8" class="node"><title>Node36</title>
<g id="a_node8"><a xlink:href="gnuplot__i_8c.html#a75592ae4645188c20c119007f4c35474" target="_top" xlink:title="Sends a command to an active gnuplot session.">
<polygon fill="white" stroke="black" points="402,-38.5 402,-57.5 476,-57.5 476,-38.5 402,-38.5"/>
<text text-anchor="middle" x="439" y="-45.5" font-family="Helvetica,sans-Serif" font-size="10.00">gnuplot_cmd</text>
</a>
</g>
</g>
<!-- Node35&#45;&gt;Node36 -->
<g id="edge7" class="edge"><title>Node35&#45;&gt;Node36</title>
<path fill="none" stroke="midnightblue" d="M344.738,-114.439C351.94,-111.804 359.386,-108.648 366,-105 386.306,-93.8014 406.781,-76.9274 420.677,-64.4424"/>
<polygon fill="midnightblue" stroke="midnightblue" points="423.049,-67.0161 428.048,-57.6747 418.315,-61.86 423.049,-67.0161"/>
</g>
<!-- Node37&#45;&gt;Node34 -->
<g id="edge9" class="edge"><title>Node37&#45;&gt;Node34</title>
<path fill="none" stroke="midnightblue" d="M211.309,-114.411C228.193,-109.551 248.895,-103.591 266.971,-98.3873"/>
<polygon fill="midnightblue" stroke="midnightblue" points="268.06,-101.716 276.701,-95.5859 266.123,-94.989 268.06,-101.716"/>
</g>
<!-- Node37&#45;&gt;Node35 -->
<g id="edge10" class="edge"><title>Node37&#45;&gt;Node35</title>
<path fill="none" stroke="midnightblue" d="M220.129,-124C228.263,-124 236.957,-124 245.613,-124"/>
<polygon fill="midnightblue" stroke="midnightblue" points="245.723,-127.5 255.723,-124 245.723,-120.5 245.723,-127.5"/>
</g>
<!-- Node38&#45;&gt;Node36 -->
<g id="edge12" class="edge"><title>Node38&#45;&gt;Node36</title>
<path fill="none" stroke="midnightblue" d="M361.076,-48C371.127,-48 381.677,-48 391.63,-48"/>
<polygon fill="midnightblue" stroke="midnightblue" points="391.74,-51.5001 401.74,-48 391.74,-44.5001 391.74,-51.5001"/>
</g>
<!-- Node39&#45;&gt;Node36 -->
<g id="edge14" class="edge"><title>Node39&#45;&gt;Node36</title>
<path fill="none" stroke="midnightblue" d="M343.795,-19.589C359.762,-24.4044 379.307,-30.2988 396.447,-35.468"/>
<polygon fill="midnightblue" stroke="midnightblue" points="395.63,-38.8775 406.215,-38.4141 397.652,-32.1756 395.63,-38.8775"/>
</g>
</g>
</svg>
