<?xml version="1.0" encoding="UTF-8" standalone="no"?>
<!DOCTYPE svg PUBLIC "-//W3C//DTD SVG 1.1//EN"
 "http://www.w3.org/Graphics/SVG/1.1/DTD/svg11.dtd">
<!-- Generated by graphviz version 2.38.0 (20140413.2041)
 -->
<!-- Title: Graphical Class Hierarchy Pages: 1 -->
<svg width="338pt" height="99pt"
 viewBox="0.00 0.00 338.00 98.50" xmlns="http://www.w3.org/2000/svg" xmlns:xlink="http://www.w3.org/1999/xlink">
<g id="graph0" class="graph" transform="scale(1 1) rotate(0) translate(4 94.5)">
<title>Graphical Class Hierarchy</title>
<polygon fill="white" stroke="none" points="-4,4 -4,-94.5 334,-94.5 334,4 -4,4"/>
<!-- Node0 -->
<g id="node1" class="node"><title>Node0</title>
<g id="a_node1"><a xlink:href="classmat_1_1_matrix_base.html" target="_top" xlink:title="mat::MatrixBase\&lt; T\l_FEATURE_SUM \&gt;">
<polygon fill="white" stroke="black" points="0,-27.5 0,-57.5 107,-57.5 107,-27.5 0,-27.5"/>
<text text-anchor="start" x="8" y="-45.5" font-family="Helvetica,sans-Serif" font-size="10.00">mat::MatrixBase&lt; T</text>
<text text-anchor="middle" x="53.5" y="-34.5" font-family="Helvetica,sans-Serif" font-size="10.00">_FEATURE_SUM &gt;</text>
</a>
</g>
</g>
<!-- Node1 -->
<g id="node2" class="node"><title>Node1</title>
<g id="a_node2"><a xlink:href="classmat_1_1_matrix_resizable_row.html" target="_top" xlink:title="mat::MatrixResizableRow\l\&lt; T_FEATURE_SUM, T_INSTANCES\l_CLUSTER_K \&gt;">
<polygon fill="white" stroke="black" points="143,-49 143,-90 330,-90 330,-49 143,-49"/>
<text text-anchor="start" x="151" y="-78" font-family="Helvetica,sans-Serif" font-size="10.00">mat::MatrixResizableRow</text>
<text text-anchor="start" x="151" y="-67" font-family="Helvetica,sans-Serif" font-size="10.00">&lt; T_FEATURE_SUM, T_INSTANCES</text>
<text text-anchor="middle" x="236.5" y="-56" font-family="Helvetica,sans-Serif" font-size="10.00">_CLUSTER_K &gt;</text>
</a>
</g>
</g>
<!-- Node0&#45;&gt;Node1 -->
<g id="edge1" class="edge"><title>Node0&#45;&gt;Node1</title>
<path fill="none" stroke="midnightblue" d="M117.233,-51.858C125.502,-53.0914 134.112,-54.3758 142.75,-55.6643"/>
<polygon fill="midnightblue" stroke="midnightblue" points="117.746,-48.3959 107.339,-50.3821 116.713,-55.3193 117.746,-48.3959"/>
</g>
<!-- Node2 -->
<g id="node3" class="node"><title>Node2</title>
<g id="a_node3"><a xlink:href="classmat_1_1_matrix_row.html" target="_top" xlink:title="mat::MatrixRow\&lt; T_FEATURE\l_SUM \&gt;">
<polygon fill="white" stroke="black" points="159.5,-0.5 159.5,-30.5 313.5,-30.5 313.5,-0.5 159.5,-0.5"/>
<text text-anchor="start" x="167.5" y="-18.5" font-family="Helvetica,sans-Serif" font-size="10.00">mat::MatrixRow&lt; T_FEATURE</text>
<text text-anchor="middle" x="236.5" y="-7.5" font-family="Helvetica,sans-Serif" font-size="10.00">_SUM &gt;</text>
</a>
</g>
</g>
<!-- Node0&#45;&gt;Node2 -->
<g id="edge2" class="edge"><title>Node0&#45;&gt;Node2</title>
<path fill="none" stroke="midnightblue" d="M117.481,-33.1051C131.003,-31.0879 145.432,-28.9356 159.391,-26.8532"/>
<polygon fill="midnightblue" stroke="midnightblue" points="116.713,-29.6807 107.339,-34.6179 117.746,-36.6041 116.713,-29.6807"/>
</g>
</g>
</svg>
