<?xml version="1.0" encoding="UTF-8" standalone="no"?>
<!DOCTYPE svg PUBLIC "-//W3C//DTD SVG 1.1//EN"
 "http://www.w3.org/Graphics/SVG/1.1/DTD/svg11.dtd">
<!-- Generated by graphviz version 2.38.0 (20140413.2041)
 -->
<!-- Title: Graphical Class Hierarchy Pages: 1 -->
<svg width="456pt" height="137pt"
 viewBox="0.00 0.00 456.00 137.00" xmlns="http://www.w3.org/2000/svg" xmlns:xlink="http://www.w3.org/1999/xlink">
<g id="graph0" class="graph" transform="scale(1 1) rotate(0) translate(4 133)">
<title>Graphical Class Hierarchy</title>
<polygon fill="white" stroke="none" points="-4,4 -4,-133 452,-133 452,4 -4,4"/>
<!-- Node0 -->
<g id="node1" class="node"><title>Node0</title>
<g id="a_node1"><a xlink:href="structdist_1_1_dist.html" target="_top" xlink:title="Generic dist.">
<polygon fill="white" stroke="black" points="0,-49.5 0,-79.5 104,-79.5 104,-49.5 0,-49.5"/>
<text text-anchor="start" x="8" y="-67.5" font-family="Helvetica,sans-Serif" font-size="10.00">dist::Dist&lt; T_DIST,</text>
<text text-anchor="middle" x="52" y="-56.5" font-family="Helvetica,sans-Serif" font-size="10.00"> T_FEATURE &gt;</text>
</a>
</g>
</g>
<!-- Node1 -->
<g id="node2" class="node"><title>Node1</title>
<g id="a_node2"><a xlink:href="structdist_1_1_euclidean.html" target="_top" xlink:title="Euclidean distance.">
<polygon fill="white" stroke="black" points="148.5,-98.5 148.5,-128.5 267.5,-128.5 267.5,-98.5 148.5,-98.5"/>
<text text-anchor="start" x="156.5" y="-116.5" font-family="Helvetica,sans-Serif" font-size="10.00">dist::Euclidean&lt; T</text>
<text text-anchor="middle" x="208" y="-105.5" font-family="Helvetica,sans-Serif" font-size="10.00">_DIST, T_FEATURE &gt;</text>
</a>
</g>
</g>
<!-- Node0&#45;&gt;Node1 -->
<g id="edge1" class="edge"><title>Node0&#45;&gt;Node1</title>
<path fill="none" stroke="midnightblue" d="M110.386,-82.7591C126.629,-87.9273 144.119,-93.4924 159.695,-98.4484"/>
<polygon fill="midnightblue" stroke="midnightblue" points="111.052,-79.2983 100.462,-79.6014 108.93,-85.9688 111.052,-79.2983"/>
</g>
<!-- Node2 -->
<g id="node3" class="node"><title>Node2</title>
<g id="a_node3"><a xlink:href="structdist_1_1_euclidean_squared.html" target="_top" xlink:title="Euclidean distance sqrt.">
<polygon fill="white" stroke="black" points="140,-49.5 140,-79.5 276,-79.5 276,-49.5 140,-49.5"/>
<text text-anchor="start" x="148" y="-67.5" font-family="Helvetica,sans-Serif" font-size="10.00">dist::EuclideanSquared</text>
<text text-anchor="middle" x="208" y="-56.5" font-family="Helvetica,sans-Serif" font-size="10.00">&lt; T_DIST, T_FEATURE &gt;</text>
</a>
</g>
</g>
<!-- Node0&#45;&gt;Node2 -->
<g id="edge2" class="edge"><title>Node0&#45;&gt;Node2</title>
<path fill="none" stroke="midnightblue" d="M114.328,-64.5C122.693,-64.5 131.316,-64.5 139.779,-64.5"/>
<polygon fill="midnightblue" stroke="midnightblue" points="114.28,-61.0001 104.28,-64.5 114.28,-68.0001 114.28,-61.0001"/>
</g>
<!-- Node3 -->
<g id="node4" class="node"><title>Node3</title>
<g id="a_node4"><a xlink:href="structdist_1_1_induced.html" target="_top" xlink:title="Dist induced for real number &#160;&#160;.">
<polygon fill="white" stroke="black" points="146.5,-0.5 146.5,-30.5 269.5,-30.5 269.5,-0.5 146.5,-0.5"/>
<text text-anchor="start" x="154.5" y="-18.5" font-family="Helvetica,sans-Serif" font-size="10.00">dist::Induced&lt; T_DIST,</text>
<text text-anchor="middle" x="208" y="-7.5" font-family="Helvetica,sans-Serif" font-size="10.00"> T_FEATURE &gt;</text>
</a>
</g>
</g>
<!-- Node0&#45;&gt;Node3 -->
<g id="edge3" class="edge"><title>Node0&#45;&gt;Node3</title>
<path fill="none" stroke="midnightblue" d="M110.386,-46.2409C126.629,-41.0727 144.119,-35.5076 159.695,-30.5516"/>
<polygon fill="midnightblue" stroke="midnightblue" points="108.93,-43.0312 100.462,-49.3986 111.052,-49.7017 108.93,-43.0312"/>
</g>
<!-- Node4 -->
<g id="node5" class="node"><title>Node4</title>
<g id="a_node5"><a xlink:href="structdist_1_1_induced_square_root.html" target="_top" xlink:title="Dist induced sqrt for real number &#160;&#160;.">
<polygon fill="white" stroke="black" points="312,-0.5 312,-30.5 448,-30.5 448,-0.5 312,-0.5"/>
<text text-anchor="start" x="320" y="-18.5" font-family="Helvetica,sans-Serif" font-size="10.00">dist::InducedSquareRoot</text>
<text text-anchor="middle" x="380" y="-7.5" font-family="Helvetica,sans-Serif" font-size="10.00">&lt; T_DIST, T_FEATURE &gt;</text>
</a>
</g>
</g>
<!-- Node3&#45;&gt;Node4 -->
<g id="edge4" class="edge"><title>Node3&#45;&gt;Node4</title>
<path fill="none" stroke="midnightblue" d="M279.929,-15.5C290.514,-15.5 301.399,-15.5 311.902,-15.5"/>
<polygon fill="midnightblue" stroke="midnightblue" points="279.894,-12.0001 269.894,-15.5 279.894,-19.0001 279.894,-12.0001"/>
</g>
</g>
</svg>
