<?xml version="1.0" encoding="UTF-8" standalone="no"?>
<!DOCTYPE svg PUBLIC "-//W3C//DTD SVG 1.1//EN"
 "http://www.w3.org/Graphics/SVG/1.1/DTD/svg11.dtd">
<!-- Generated by graphviz version 2.38.0 (20140413.2041)
 -->
<!-- Title: include_inout/inparam_tgca.hpp Pages: 1 -->
<svg width="687pt" height="431pt"
 viewBox="0.00 0.00 686.50 431.00" xmlns="http://www.w3.org/2000/svg" xmlns:xlink="http://www.w3.org/1999/xlink">
<g id="graph0" class="graph" transform="scale(1 1) rotate(0) translate(4 427)">
<title>include_inout/inparam_tgca.hpp</title>
<polygon fill="white" stroke="none" points="-4,4 -4,-427 682.5,-427 682.5,4 -4,4"/>
<!-- Node0 -->
<g id="node1" class="node"><title>Node0</title>
<g id="a_node1"><a xlink:title="Definition of TGCA program parameters.">
<polygon fill="#bfbfbf" stroke="black" points="430,-392.5 430,-422.5 544,-422.5 544,-392.5 430,-392.5"/>
<text text-anchor="start" x="438" y="-410.5" font-family="Helvetica,sans-Serif" font-size="10.00">include_inout/inparam</text>
<text text-anchor="middle" x="487" y="-399.5" font-family="Helvetica,sans-Serif" font-size="10.00">_tgca.hpp</text>
</a>
</g>
</g>
<!-- Node1 -->
<g id="node2" class="node"><title>Node1</title>
<g id="a_node2"><a xlink:href="inparam__pcpmvk_8hpp.html" target="_top" xlink:title="Definition of input parameters.">
<polygon fill="white" stroke="black" points="432,-336.5 432,-355.5 542,-355.5 542,-336.5 432,-336.5"/>
<text text-anchor="middle" x="487" y="-343.5" font-family="Helvetica,sans-Serif" font-size="10.00">inparam_pcpmvk.hpp</text>
</a>
</g>
</g>
<!-- Node0&#45;&gt;Node1 -->
<g id="edge1" class="edge"><title>Node0&#45;&gt;Node1</title>
<path fill="none" stroke="midnightblue" d="M487,-392.399C487,-384.466 487,-374.458 487,-365.858"/>
<polygon fill="midnightblue" stroke="midnightblue" points="490.5,-365.658 487,-355.658 483.5,-365.658 490.5,-365.658"/>
</g>
<!-- Node2 -->
<g id="node3" class="node"><title>Node2</title>
<g id="a_node3"><a xlink:href="inparam__pcpm_8hpp.html" target="_top" xlink:title="Definition of input parameters.">
<polygon fill="white" stroke="black" points="297,-280.5 297,-299.5 397,-299.5 397,-280.5 297,-280.5"/>
<text text-anchor="middle" x="347" y="-287.5" font-family="Helvetica,sans-Serif" font-size="10.00">inparam_pcpm.hpp</text>
</a>
</g>
</g>
<!-- Node1&#45;&gt;Node2 -->
<g id="edge2" class="edge"><title>Node1&#45;&gt;Node2</title>
<path fill="none" stroke="midnightblue" d="M464.817,-336.444C441.572,-327.478 404.851,-313.314 378.585,-303.183"/>
<polygon fill="midnightblue" stroke="midnightblue" points="379.669,-299.85 369.08,-299.516 377.15,-306.381 379.669,-299.85"/>
</g>
<!-- Node16 -->
<g id="node17" class="node"><title>Node16</title>
<g id="a_node17"><a xlink:href="inparam__variablek_8hpp.html" target="_top" xlink:title="Definition of input parameters.">
<polygon fill="white" stroke="black" points="561.5,-280.5 561.5,-299.5 678.5,-299.5 678.5,-280.5 561.5,-280.5"/>
<text text-anchor="middle" x="620" y="-287.5" font-family="Helvetica,sans-Serif" font-size="10.00">inparam_variablek.hpp</text>
</a>
</g>
</g>
<!-- Node1&#45;&gt;Node16 -->
<g id="edge19" class="edge"><title>Node1&#45;&gt;Node16</title>
<path fill="none" stroke="midnightblue" d="M508.074,-336.444C530.06,-327.517 564.734,-313.439 589.664,-303.317"/>
<polygon fill="midnightblue" stroke="midnightblue" points="591.076,-306.521 599.024,-299.516 588.442,-300.035 591.076,-306.521"/>
</g>
<!-- Node17 -->
<g id="node18" class="node"><title>Node17</title>
<g id="a_node18"><a xlink:href="inparam__readinst_8hpp.html" target="_top" xlink:title="Definition of input parameters.">
<polygon fill="white" stroke="black" points="431,-280.5 431,-299.5 543,-299.5 543,-280.5 431,-280.5"/>
<text text-anchor="middle" x="487" y="-287.5" font-family="Helvetica,sans-Serif" font-size="10.00">inparam_readinst.hpp</text>
</a>
</g>
</g>
<!-- Node1&#45;&gt;Node17 -->
<g id="edge20" class="edge"><title>Node1&#45;&gt;Node17</title>
<path fill="none" stroke="midnightblue" d="M487,-336.083C487,-329.006 487,-318.861 487,-309.986"/>
<polygon fill="midnightblue" stroke="midnightblue" points="490.5,-309.751 487,-299.751 483.5,-309.751 490.5,-309.751"/>
</g>
<!-- Node3 -->
<g id="node4" class="node"><title>Node3</title>
<g id="a_node4"><a xlink:href="inparam__gaclustering_8hpp.html" target="_top" xlink:title="Definition of input parameters.">
<polygon fill="white" stroke="black" points="250.5,-224.5 250.5,-243.5 381.5,-243.5 381.5,-224.5 250.5,-224.5"/>
<text text-anchor="middle" x="316" y="-231.5" font-family="Helvetica,sans-Serif" font-size="10.00">inparam_gaclustering.hpp</text>
</a>
</g>
</g>
<!-- Node2&#45;&gt;Node3 -->
<g id="edge3" class="edge"><title>Node2&#45;&gt;Node3</title>
<path fill="none" stroke="midnightblue" d="M341.881,-280.083C337.592,-272.613 331.342,-261.724 326.058,-252.52"/>
<polygon fill="midnightblue" stroke="midnightblue" points="329.038,-250.681 321.024,-243.751 322.967,-254.166 329.038,-250.681"/>
</g>
<!-- Node4 -->
<g id="node5" class="node"><title>Node4</title>
<g id="a_node5"><a xlink:href="inparam__clustering_8hpp.html" target="_top" xlink:title="Definition of input parameters.">
<polygon fill="white" stroke="black" points="233.5,-168.5 233.5,-187.5 352.5,-187.5 352.5,-168.5 233.5,-168.5"/>
<text text-anchor="middle" x="293" y="-175.5" font-family="Helvetica,sans-Serif" font-size="10.00">inparam_clustering.hpp</text>
</a>
</g>
</g>
<!-- Node3&#45;&gt;Node4 -->
<g id="edge4" class="edge"><title>Node3&#45;&gt;Node4</title>
<path fill="none" stroke="midnightblue" d="M312.202,-224.083C309.087,-216.77 304.577,-206.181 300.711,-197.103"/>
<polygon fill="midnightblue" stroke="midnightblue" points="303.866,-195.58 296.727,-187.751 297.426,-198.323 303.866,-195.58"/>
</g>
<!-- Node5 -->
<g id="node6" class="node"><title>Node5</title>
<g id="a_node6"><a xlink:title=" ">
<polygon fill="white" stroke="#bfbfbf" points="278,-0.5 278,-19.5 334,-19.5 334,-0.5 278,-0.5"/>
<text text-anchor="middle" x="306" y="-7.5" font-family="Helvetica,sans-Serif" font-size="10.00">iostream</text>
</a>
</g>
</g>
<!-- Node4&#45;&gt;Node5 -->
<g id="edge5" class="edge"><title>Node4&#45;&gt;Node5</title>
<path fill="none" stroke="midnightblue" d="M300.097,-168.349C306.678,-159.736 316.034,-145.838 320,-132 329.307,-99.5268 326.411,-89.3445 321,-56 319.532,-46.9568 316.508,-37.275 313.556,-29.2176"/>
<polygon fill="midnightblue" stroke="midnightblue" points="316.756,-27.7907 309.856,-19.7514 310.237,-30.3393 316.756,-27.7907"/>
</g>
<!-- Node6 -->
<g id="node7" class="node"><title>Node6</title>
<g id="a_node7"><a xlink:title=" ">
<polygon fill="white" stroke="#bfbfbf" points="352,-0.5 352,-19.5 402,-19.5 402,-0.5 352,-0.5"/>
<text text-anchor="middle" x="377" y="-7.5" font-family="Helvetica,sans-Serif" font-size="10.00">fstream</text>
</a>
</g>
</g>
<!-- Node4&#45;&gt;Node6 -->
<g id="edge6" class="edge"><title>Node4&#45;&gt;Node6</title>
<path fill="none" stroke="midnightblue" d="M303.84,-168.43C313.738,-160.086 328.138,-146.561 337,-132 357.149,-98.8925 368.452,-54.4391 373.581,-29.6686"/>
<polygon fill="midnightblue" stroke="midnightblue" points="377.03,-30.2698 375.513,-19.7841 370.16,-28.9271 377.03,-30.2698"/>
</g>
<!-- Node7 -->
<g id="node8" class="node"><title>Node7</title>
<g id="a_node8"><a xlink:title=" ">
<polygon fill="white" stroke="#bfbfbf" points="421.5,-112.5 421.5,-131.5 462.5,-131.5 462.5,-112.5 421.5,-112.5"/>
<text text-anchor="middle" x="442" y="-119.5" font-family="Helvetica,sans-Serif" font-size="10.00">string</text>
</a>
</g>
</g>
<!-- Node4&#45;&gt;Node7 -->
<g id="edge7" class="edge"><title>Node4&#45;&gt;Node7</title>
<path fill="none" stroke="midnightblue" d="M316.609,-168.444C342.335,-159.12 383.568,-144.177 411.673,-133.991"/>
<polygon fill="midnightblue" stroke="midnightblue" points="413.171,-137.171 421.38,-130.473 410.786,-130.59 413.171,-137.171"/>
</g>
<!-- Node8 -->
<g id="node9" class="node"><title>Node8</title>
<g id="a_node9"><a xlink:href="inparam_8hpp.html" target="_top" xlink:title="Definition of input parameters.">
<polygon fill="white" stroke="black" points="93.5,-112.5 93.5,-131.5 164.5,-131.5 164.5,-112.5 93.5,-112.5"/>
<text text-anchor="middle" x="129" y="-119.5" font-family="Helvetica,sans-Serif" font-size="10.00">inparam.hpp</text>
</a>
</g>
</g>
<!-- Node4&#45;&gt;Node8 -->
<g id="edge8" class="edge"><title>Node4&#45;&gt;Node8</title>
<path fill="none" stroke="midnightblue" d="M267.014,-168.444C239.304,-159.32 195.248,-144.813 164.384,-134.651"/>
<polygon fill="midnightblue" stroke="midnightblue" points="165.458,-131.32 154.865,-131.516 163.268,-137.968 165.458,-131.32"/>
</g>
<!-- Node15 -->
<g id="node16" class="node"><title>Node15</title>
<g id="a_node16"><a xlink:href="standardize__variable_8hpp.html" target="_top" xlink:title="definition standardize variable">
<polygon fill="white" stroke="black" points="182.5,-112.5 182.5,-131.5 311.5,-131.5 311.5,-112.5 182.5,-112.5"/>
<text text-anchor="middle" x="247" y="-119.5" font-family="Helvetica,sans-Serif" font-size="10.00">standardize_variable.hpp</text>
</a>
</g>
</g>
<!-- Node4&#45;&gt;Node15 -->
<g id="edge18" class="edge"><title>Node4&#45;&gt;Node15</title>
<path fill="none" stroke="midnightblue" d="M285.404,-168.083C278.773,-160.298 268.979,-148.801 260.942,-139.367"/>
<polygon fill="midnightblue" stroke="midnightblue" points="263.604,-137.094 254.455,-131.751 258.275,-141.633 263.604,-137.094"/>
</g>
<!-- Node9 -->
<g id="node10" class="node"><title>Node9</title>
<g id="a_node10"><a xlink:title=" ">
<polygon fill="white" stroke="#bfbfbf" points="0,-56.5 0,-75.5 50,-75.5 50,-56.5 0,-56.5"/>
<text text-anchor="middle" x="25" y="-63.5" font-family="Helvetica,sans-Serif" font-size="10.00">cstddef</text>
</a>
</g>
</g>
<!-- Node8&#45;&gt;Node9 -->
<g id="edge9" class="edge"><title>Node8&#45;&gt;Node9</title>
<path fill="none" stroke="midnightblue" d="M112.291,-112.324C95.6881,-103.703 69.9979,-90.3643 50.7795,-80.3855"/>
<polygon fill="midnightblue" stroke="midnightblue" points="52.1558,-77.1565 41.6679,-75.6545 48.93,-83.3689 52.1558,-77.1565"/>
</g>
<!-- Node10 -->
<g id="node11" class="node"><title>Node10</title>
<g id="a_node11"><a xlink:title=" ">
<polygon fill="white" stroke="#bfbfbf" points="68.5,-56.5 68.5,-75.5 111.5,-75.5 111.5,-56.5 68.5,-56.5"/>
<text text-anchor="middle" x="90" y="-63.5" font-family="Helvetica,sans-Serif" font-size="10.00">time.h</text>
</a>
</g>
</g>
<!-- Node8&#45;&gt;Node10 -->
<g id="edge10" class="edge"><title>Node8&#45;&gt;Node10</title>
<path fill="none" stroke="midnightblue" d="M122.56,-112.083C117.051,-104.455 108.969,-93.2645 102.235,-83.9408"/>
<polygon fill="midnightblue" stroke="midnightblue" points="105.013,-81.8087 96.3202,-75.7511 99.3378,-85.9071 105.013,-81.8087"/>
</g>
<!-- Node11 -->
<g id="node12" class="node"><title>Node11</title>
<g id="a_node12"><a xlink:href="outfilename_8hpp.html" target="_top" xlink:title="out file name">
<polygon fill="white" stroke="black" points="226,-56.5 226,-75.5 312,-75.5 312,-56.5 226,-56.5"/>
<text text-anchor="middle" x="269" y="-63.5" font-family="Helvetica,sans-Serif" font-size="10.00">outfilename.hpp</text>
</a>
</g>
</g>
<!-- Node8&#45;&gt;Node11 -->
<g id="edge11" class="edge"><title>Node8&#45;&gt;Node11</title>
<path fill="none" stroke="midnightblue" d="M151.183,-112.444C174.428,-103.478 211.149,-89.314 237.415,-79.1827"/>
<polygon fill="midnightblue" stroke="midnightblue" points="238.85,-82.3807 246.92,-75.5164 236.331,-75.8497 238.85,-82.3807"/>
</g>
<!-- Node13 -->
<g id="node14" class="node"><title>Node13</title>
<g id="a_node14"><a xlink:href="getsubopt_8hpp.html" target="_top" xlink:title=" ">
<polygon fill="white" stroke="black" points="130,-56.5 130,-75.5 208,-75.5 208,-56.5 130,-56.5"/>
<text text-anchor="middle" x="169" y="-63.5" font-family="Helvetica,sans-Serif" font-size="10.00">getsubopt.hpp</text>
</a>
</g>
</g>
<!-- Node8&#45;&gt;Node13 -->
<g id="edge15" class="edge"><title>Node8&#45;&gt;Node13</title>
<path fill="none" stroke="midnightblue" d="M135.605,-112.083C141.255,-104.455 149.545,-93.2645 156.451,-83.9408"/>
<polygon fill="midnightblue" stroke="midnightblue" points="159.378,-85.87 162.518,-75.7511 153.753,-81.7034 159.378,-85.87"/>
</g>
<!-- Node11&#45;&gt;Node5 -->
<g id="edge12" class="edge"><title>Node11&#45;&gt;Node5</title>
<path fill="none" stroke="midnightblue" d="M275.11,-56.083C280.282,-48.5341 287.846,-37.4948 294.194,-28.2298"/>
<polygon fill="midnightblue" stroke="midnightblue" points="297.239,-29.9787 300.004,-19.7511 291.464,-26.0221 297.239,-29.9787"/>
</g>
<!-- Node11&#45;&gt;Node6 -->
<g id="edge13" class="edge"><title>Node11&#45;&gt;Node6</title>
<path fill="none" stroke="midnightblue" d="M286.352,-56.324C303.672,-47.6641 330.515,-34.2424 350.502,-24.249"/>
<polygon fill="midnightblue" stroke="midnightblue" points="352.312,-27.2572 359.691,-19.6545 349.181,-20.9962 352.312,-27.2572"/>
</g>
<!-- Node12 -->
<g id="node13" class="node"><title>Node12</title>
<g id="a_node13"><a xlink:title=" ">
<polygon fill="white" stroke="#bfbfbf" points="212,-0.5 212,-19.5 260,-19.5 260,-0.5 212,-0.5"/>
<text text-anchor="middle" x="236" y="-7.5" font-family="Helvetica,sans-Serif" font-size="10.00">string.h</text>
</a>
</g>
</g>
<!-- Node11&#45;&gt;Node12 -->
<g id="edge14" class="edge"><title>Node11&#45;&gt;Node12</title>
<path fill="none" stroke="midnightblue" d="M263.551,-56.083C258.986,-48.6127 252.332,-37.7244 246.707,-28.5199"/>
<polygon fill="midnightblue" stroke="midnightblue" points="249.549,-26.4588 241.348,-19.7511 243.576,-30.109 249.549,-26.4588"/>
</g>
<!-- Node13&#45;&gt;Node12 -->
<g id="edge17" class="edge"><title>Node13&#45;&gt;Node12</title>
<path fill="none" stroke="midnightblue" d="M179.765,-56.324C189.766,-48.2631 204.887,-36.0765 216.93,-26.3695"/>
<polygon fill="midnightblue" stroke="midnightblue" points="219.45,-28.8343 225.039,-19.8339 215.057,-23.3841 219.45,-28.8343"/>
</g>
<!-- Node14 -->
<g id="node15" class="node"><title>Node14</title>
<g id="a_node15"><a xlink:title=" ">
<polygon fill="white" stroke="#bfbfbf" points="145.5,-0.5 145.5,-19.5 192.5,-19.5 192.5,-0.5 145.5,-0.5"/>
<text text-anchor="middle" x="169" y="-7.5" font-family="Helvetica,sans-Serif" font-size="10.00">stdlib.h</text>
</a>
</g>
</g>
<!-- Node13&#45;&gt;Node14 -->
<g id="edge16" class="edge"><title>Node13&#45;&gt;Node14</title>
<path fill="none" stroke="midnightblue" d="M169,-56.083C169,-49.0059 169,-38.8611 169,-29.9865"/>
<polygon fill="midnightblue" stroke="midnightblue" points="172.5,-29.751 169,-19.7511 165.5,-29.7511 172.5,-29.751"/>
</g>
<!-- Node17&#45;&gt;Node7 -->
<g id="edge21" class="edge"><title>Node17&#45;&gt;Node7</title>
<path fill="none" stroke="midnightblue" d="M488.675,-280.37C492.234,-259.931 498.984,-207.334 483,-168 478.357,-156.573 469.426,-146.213 461.082,-138.321"/>
<polygon fill="midnightblue" stroke="midnightblue" points="463.234,-135.552 453.422,-131.557 458.601,-140.8 463.234,-135.552"/>
</g>
<!-- Node18 -->
<g id="node19" class="node"><title>Node18</title>
<g id="a_node19"><a xlink:title=" ">
<polygon fill="white" stroke="#bfbfbf" points="531,-224.5 531,-243.5 575,-243.5 575,-224.5 531,-224.5"/>
<text text-anchor="middle" x="553" y="-231.5" font-family="Helvetica,sans-Serif" font-size="10.00">vector</text>
</a>
</g>
</g>
<!-- Node17&#45;&gt;Node18 -->
<g id="edge22" class="edge"><title>Node17&#45;&gt;Node18</title>
<path fill="none" stroke="midnightblue" d="M497.604,-280.324C507.456,-272.263 522.351,-260.077 534.215,-250.369"/>
<polygon fill="midnightblue" stroke="midnightblue" points="536.68,-252.875 542.203,-243.834 532.247,-247.457 536.68,-252.875"/>
</g>
<!-- Node19 -->
<g id="node20" class="node"><title>Node19</title>
<g id="a_node20"><a xlink:href="common_8hpp.html" target="_top" xlink:title="common">
<polygon fill="white" stroke="black" points="401,-224.5 401,-243.5 475,-243.5 475,-224.5 401,-224.5"/>
<text text-anchor="middle" x="438" y="-231.5" font-family="Helvetica,sans-Serif" font-size="10.00">common.hpp</text>
</a>
</g>
</g>
<!-- Node17&#45;&gt;Node19 -->
<g id="edge23" class="edge"><title>Node17&#45;&gt;Node19</title>
<path fill="none" stroke="midnightblue" d="M478.909,-280.083C471.845,-272.298 461.412,-260.801 452.851,-251.367"/>
<polygon fill="midnightblue" stroke="midnightblue" points="455.253,-248.805 445.941,-243.751 450.069,-253.509 455.253,-248.805"/>
</g>
<!-- Node20 -->
<g id="node21" class="node"><title>Node20</title>
<g id="a_node21"><a xlink:title=" ">
<polygon fill="white" stroke="#bfbfbf" points="427.5,-168.5 427.5,-187.5 474.5,-187.5 474.5,-168.5 427.5,-168.5"/>
<text text-anchor="middle" x="451" y="-175.5" font-family="Helvetica,sans-Serif" font-size="10.00">stdint.h</text>
</a>
</g>
</g>
<!-- Node19&#45;&gt;Node20 -->
<g id="edge24" class="edge"><title>Node19&#45;&gt;Node20</title>
<path fill="none" stroke="midnightblue" d="M440.147,-224.083C441.869,-216.927 444.347,-206.635 446.5,-197.691"/>
<polygon fill="midnightblue" stroke="midnightblue" points="449.955,-198.293 448.893,-187.751 443.15,-196.654 449.955,-198.293"/>
</g>
<!-- Node21 -->
<g id="node22" class="node"><title>Node21</title>
<g id="a_node22"><a xlink:title=" ">
<polygon fill="white" stroke="#bfbfbf" points="370.5,-168.5 370.5,-187.5 409.5,-187.5 409.5,-168.5 370.5,-168.5"/>
<text text-anchor="middle" x="390" y="-175.5" font-family="Helvetica,sans-Serif" font-size="10.00">limits</text>
</a>
</g>
</g>
<!-- Node19&#45;&gt;Node21 -->
<g id="edge25" class="edge"><title>Node19&#45;&gt;Node21</title>
<path fill="none" stroke="midnightblue" d="M430.074,-224.083C423.154,-216.298 412.935,-204.801 404.548,-195.367"/>
<polygon fill="midnightblue" stroke="midnightblue" points="407.038,-192.9 397.779,-187.751 401.806,-197.55 407.038,-192.9"/>
</g>
</g>
</svg>
