<?xml version="1.0" encoding="UTF-8" standalone="no"?>
<!DOCTYPE svg PUBLIC "-//W3C//DTD SVG 1.1//EN"
 "http://www.w3.org/Graphics/SVG/1.1/DTD/svg11.dtd">
<!-- Generated by graphviz version 2.38.0 (20140413.2041)
 -->
<!-- Title: include_inout/inparam_variablek.hpp Pages: 1 -->
<svg width="786pt" height="229pt"
 viewBox="0.00 0.00 786.00 229.00" xmlns="http://www.w3.org/2000/svg" xmlns:xlink="http://www.w3.org/1999/xlink">
<g id="graph0" class="graph" transform="scale(1 1) rotate(0) translate(4 225)">
<title>include_inout/inparam_variablek.hpp</title>
<polygon fill="white" stroke="none" points="-4,4 -4,-225 782,-225 782,4 -4,4"/>
<!-- Node1 -->
<g id="node1" class="node"><title>Node1</title>
<polygon fill="#bfbfbf" stroke="black" points="362,-190.5 362,-220.5 476,-220.5 476,-190.5 362,-190.5"/>
<text text-anchor="start" x="370" y="-208.5" font-family="Helvetica,sans-Serif" font-size="10.00">include_inout/inparam</text>
<text text-anchor="middle" x="419" y="-197.5" font-family="Helvetica,sans-Serif" font-size="10.00">_variablek.hpp</text>
</g>
<!-- Node2 -->
<g id="node2" class="node"><title>Node2</title>
<g id="a_node2"><a xlink:href="inparam__feac_8hpp.html" target="_top" xlink:title="Definition of FEAC program parameters. ">
<polygon fill="white" stroke="black" points="64,-123.5 64,-153.5 178,-153.5 178,-123.5 64,-123.5"/>
<text text-anchor="start" x="72" y="-141.5" font-family="Helvetica,sans-Serif" font-size="10.00">include_inout/inparam</text>
<text text-anchor="middle" x="121" y="-130.5" font-family="Helvetica,sans-Serif" font-size="10.00">_feac.hpp</text>
</a>
</g>
</g>
<!-- Node1&#45;&gt;Node2 -->
<g id="edge1" class="edge"><title>Node1&#45;&gt;Node2</title>
<path fill="none" stroke="midnightblue" d="M352.035,-189.894C299.719,-178.482 227.799,-162.795 178.165,-151.969"/>
<polygon fill="midnightblue" stroke="midnightblue" points="351.379,-193.333 361.895,-192.044 352.871,-186.493 351.379,-193.333"/>
</g>
<!-- Node4 -->
<g id="node4" class="node"><title>Node4</title>
<g id="a_node4"><a xlink:href="inparam__pcpmvk_8hpp.html" target="_top" xlink:title="Definition of input parameters. ">
<polygon fill="white" stroke="black" points="279,-123.5 279,-153.5 393,-153.5 393,-123.5 279,-123.5"/>
<text text-anchor="start" x="287" y="-141.5" font-family="Helvetica,sans-Serif" font-size="10.00">include_inout/inparam</text>
<text text-anchor="middle" x="336" y="-130.5" font-family="Helvetica,sans-Serif" font-size="10.00">_pcpmvk.hpp</text>
</a>
</g>
</g>
<!-- Node1&#45;&gt;Node4 -->
<g id="edge3" class="edge"><title>Node1&#45;&gt;Node4</title>
<path fill="none" stroke="midnightblue" d="M393.037,-184.168C380.345,-174.228 365.388,-162.514 353.975,-153.577"/>
<polygon fill="midnightblue" stroke="midnightblue" points="390.959,-186.986 400.99,-190.396 395.275,-181.475 390.959,-186.986"/>
</g>
<!-- Node10 -->
<g id="node10" class="node"><title>Node10</title>
<g id="a_node10"><a xlink:href="inparam__gga_8hpp.html" target="_top" xlink:title="Definition of GGA program parameters. ">
<polygon fill="white" stroke="black" points="446,-123.5 446,-153.5 560,-153.5 560,-123.5 446,-123.5"/>
<text text-anchor="start" x="454" y="-141.5" font-family="Helvetica,sans-Serif" font-size="10.00">include_inout/inparam</text>
<text text-anchor="middle" x="503" y="-130.5" font-family="Helvetica,sans-Serif" font-size="10.00">_gga.hpp</text>
</a>
</g>
</g>
<!-- Node1&#45;&gt;Node10 -->
<g id="edge9" class="edge"><title>Node1&#45;&gt;Node10</title>
<path fill="none" stroke="midnightblue" d="M445.276,-184.168C458.12,-174.228 473.258,-162.514 484.809,-153.577"/>
<polygon fill="midnightblue" stroke="midnightblue" points="442.994,-181.508 437.227,-190.396 447.277,-187.044 442.994,-181.508"/>
</g>
<!-- Node12 -->
<g id="node12" class="node"><title>Node12</title>
<g id="a_node12"><a xlink:href="inparam__withoutpcpmvk_8hpp.html" target="_top" xlink:title="Definition of GA program parameters. ">
<polygon fill="white" stroke="black" points="648,-123.5 648,-153.5 762,-153.5 762,-123.5 648,-123.5"/>
<text text-anchor="start" x="656" y="-141.5" font-family="Helvetica,sans-Serif" font-size="10.00">include_inout/inparam</text>
<text text-anchor="middle" x="705" y="-130.5" font-family="Helvetica,sans-Serif" font-size="10.00">_withoutpcpmvk.hpp</text>
</a>
</g>
</g>
<!-- Node1&#45;&gt;Node12 -->
<g id="edge11" class="edge"><title>Node1&#45;&gt;Node12</title>
<path fill="none" stroke="midnightblue" d="M486.098,-189.251C535.258,-178.078 601.271,-163.075 647.91,-152.475"/>
<polygon fill="midnightblue" stroke="midnightblue" points="485.165,-185.873 476.189,-191.503 486.716,-192.699 485.165,-185.873"/>
</g>
<!-- Node3 -->
<g id="node3" class="node"><title>Node3</title>
<g id="a_node3"><a xlink:href="feac__vklabel_8hpp.html" target="_top" xlink:title="EAC, EACI, EACII, EACIII and FEAC &#160;and . ">
<polygon fill="white" stroke="black" points="0,-62 0,-81 112,-81 112,-62 0,-62"/>
<text text-anchor="middle" x="56" y="-69" font-family="Helvetica,sans-Serif" font-size="10.00">eac/feac_vklabel.hpp</text>
</a>
</g>
</g>
<!-- Node2&#45;&gt;Node3 -->
<g id="edge2" class="edge"><title>Node2&#45;&gt;Node3</title>
<path fill="none" stroke="midnightblue" d="M99.4967,-115.997C87.6323,-104.132 73.5516,-90.0516 64.6945,-81.1945"/>
<polygon fill="midnightblue" stroke="midnightblue" points="97.35,-118.8 106.896,-123.396 102.3,-113.85 97.35,-118.8"/>
</g>
<!-- Node5 -->
<g id="node5" class="node"><title>Node5</title>
<g id="a_node5"><a xlink:href="inparam__genwochgvk_8hpp.html" target="_top" xlink:title="Definition of GA program parameters. ">
<polygon fill="white" stroke="black" points="130,-56.5 130,-86.5 244,-86.5 244,-56.5 130,-56.5"/>
<text text-anchor="start" x="138" y="-74.5" font-family="Helvetica,sans-Serif" font-size="10.00">include_inout/inparam</text>
<text text-anchor="middle" x="187" y="-63.5" font-family="Helvetica,sans-Serif" font-size="10.00">_genwochgvk.hpp</text>
</a>
</g>
</g>
<!-- Node4&#45;&gt;Node5 -->
<g id="edge4" class="edge"><title>Node4&#45;&gt;Node5</title>
<path fill="none" stroke="midnightblue" d="M294.208,-119.269C270.476,-108.916 241.22,-96.1528 219.268,-86.5765"/>
<polygon fill="midnightblue" stroke="midnightblue" points="293.104,-122.605 303.669,-123.396 295.903,-116.189 293.104,-122.605"/>
</g>
<!-- Node7 -->
<g id="node7" class="node"><title>Node7</title>
<g id="a_node7"><a xlink:href="inparam__tgca_8hpp.html" target="_top" xlink:title="Definition of TGCA program parameters. ">
<polygon fill="white" stroke="black" points="262,-56.5 262,-86.5 376,-86.5 376,-56.5 262,-56.5"/>
<text text-anchor="start" x="270" y="-74.5" font-family="Helvetica,sans-Serif" font-size="10.00">include_inout/inparam</text>
<text text-anchor="middle" x="319" y="-63.5" font-family="Helvetica,sans-Serif" font-size="10.00">_tgca.hpp</text>
</a>
</g>
</g>
<!-- Node4&#45;&gt;Node7 -->
<g id="edge6" class="edge"><title>Node4&#45;&gt;Node7</title>
<path fill="none" stroke="midnightblue" d="M329.775,-113.697C327.392,-104.587 324.752,-94.4929 322.682,-86.5765"/>
<polygon fill="midnightblue" stroke="midnightblue" points="326.395,-114.607 332.311,-123.396 333.167,-112.836 326.395,-114.607"/>
</g>
<!-- Node9 -->
<g id="node9" class="node"><title>Node9</title>
<g id="a_node9"><a xlink:href="gcuk__vkcentroid_8hpp.html" target="_top" xlink:title="GCUK . ">
<polygon fill="white" stroke="black" points="394,-62 394,-81 522,-81 522,-62 394,-62"/>
<text text-anchor="middle" x="458" y="-69" font-family="Helvetica,sans-Serif" font-size="10.00">eac/gcuk_vkcentroid.hpp</text>
</a>
</g>
</g>
<!-- Node4&#45;&gt;Node9 -->
<g id="edge8" class="edge"><title>Node4&#45;&gt;Node9</title>
<path fill="none" stroke="midnightblue" d="M371.403,-118.638C394.742,-106.203 424.19,-90.5137 442.033,-81.007"/>
<polygon fill="midnightblue" stroke="midnightblue" points="369.652,-115.605 362.472,-123.396 372.943,-121.783 369.652,-115.605"/>
</g>
<!-- Node6 -->
<g id="node6" class="node"><title>Node6</title>
<g id="a_node6"><a xlink:href="gaclustering__vktreebinary_8hpp.html" target="_top" xlink:title="GA Clustering &#160;x. ">
<polygon fill="white" stroke="black" points="85,-0.5 85,-19.5 255,-19.5 255,-0.5 85,-0.5"/>
<text text-anchor="middle" x="170" y="-7.5" font-family="Helvetica,sans-Serif" font-size="10.00">eac/gaclustering_vktreebinary.hpp</text>
</a>
</g>
</g>
<!-- Node5&#45;&gt;Node6 -->
<g id="edge5" class="edge"><title>Node5&#45;&gt;Node6</title>
<path fill="none" stroke="midnightblue" d="M180.169,-46.5932C177.451,-37.0768 174.494,-26.73 172.474,-19.6578"/>
<polygon fill="midnightblue" stroke="midnightblue" points="176.859,-47.7456 182.971,-56.3993 183.589,-45.8225 176.859,-47.7456"/>
</g>
<!-- Node8 -->
<g id="node8" class="node"><title>Node8</title>
<g id="a_node8"><a xlink:href="tgca__vkcentroid_8hpp.html" target="_top" xlink:title="TGCA . ">
<polygon fill="white" stroke="black" points="273,-0.5 273,-19.5 399,-19.5 399,-0.5 273,-0.5"/>
<text text-anchor="middle" x="336" y="-7.5" font-family="Helvetica,sans-Serif" font-size="10.00">eac/tgca_vkcentroid.hpp</text>
</a>
</g>
</g>
<!-- Node7&#45;&gt;Node8 -->
<g id="edge7" class="edge"><title>Node7&#45;&gt;Node8</title>
<path fill="none" stroke="midnightblue" d="M325.831,-46.5932C328.549,-37.0768 331.506,-26.73 333.526,-19.6578"/>
<polygon fill="midnightblue" stroke="midnightblue" points="322.411,-45.8225 323.029,-56.3993 329.141,-47.7456 322.411,-45.8225"/>
</g>
<!-- Node11 -->
<g id="node11" class="node"><title>Node11</title>
<g id="a_node11"><a xlink:href="gga__vklabel_8hpp.html" target="_top" xlink:title="GGA . ">
<polygon fill="white" stroke="black" points="540,-62 540,-81 650,-81 650,-62 540,-62"/>
<text text-anchor="middle" x="595" y="-69" font-family="Helvetica,sans-Serif" font-size="10.00">eac/gga_vklabel.hpp</text>
</a>
</g>
</g>
<!-- Node10&#45;&gt;Node11 -->
<g id="edge10" class="edge"><title>Node10&#45;&gt;Node11</title>
<path fill="none" stroke="midnightblue" d="M531.583,-117.306C548.859,-105.1 569.98,-90.1772 582.959,-81.007"/>
<polygon fill="midnightblue" stroke="midnightblue" points="529.11,-114.767 522.963,-123.396 533.149,-120.484 529.11,-114.767"/>
</g>
<!-- Node13 -->
<g id="node13" class="node"><title>Node13</title>
<g id="a_node13"><a xlink:href="cga__vklabel_8hpp.html" target="_top" xlink:title="CGA &#160;&#160;. ">
<polygon fill="white" stroke="black" points="668,-62 668,-81 778,-81 778,-62 668,-62"/>
<text text-anchor="middle" x="723" y="-69" font-family="Helvetica,sans-Serif" font-size="10.00">eac/cga_vklabel.hpp</text>
</a>
</g>
</g>
<!-- Node12&#45;&gt;Node13 -->
<g id="edge12" class="edge"><title>Node12&#45;&gt;Node13</title>
<path fill="none" stroke="midnightblue" d="M711.619,-113.596C714.754,-102.278 718.303,-89.4611 720.592,-81.1945"/>
<polygon fill="midnightblue" stroke="midnightblue" points="708.202,-112.825 708.906,-123.396 714.948,-114.693 708.202,-112.825"/>
</g>
</g>
</svg>
