<?xml version="1.0" encoding="UTF-8" standalone="no"?>
<!DOCTYPE svg PUBLIC "-//W3C//DTD SVG 1.1//EN"
 "http://www.w3.org/Graphics/SVG/1.1/DTD/svg11.dtd">
<!-- Generated by graphviz version 2.38.0 (20140413.2041)
 -->
<!-- Title: include_inout/inparam_pcpmvk.hpp Pages: 1 -->
<svg width="453pt" height="162pt"
 viewBox="0.00 0.00 453.00 162.00" xmlns="http://www.w3.org/2000/svg" xmlns:xlink="http://www.w3.org/1999/xlink">
<g id="graph0" class="graph" transform="scale(1 1) rotate(0) translate(4 158)">
<title>include_inout/inparam_pcpmvk.hpp</title>
<polygon fill="white" stroke="none" points="-4,4 -4,-158 449,-158 449,4 -4,4"/>
<!-- Node21 -->
<g id="node1" class="node"><title>Node21</title>
<g id="a_node1"><a xlink:title="Definition of input parameters.">
<polygon fill="#bfbfbf" stroke="black" points="185,-123.5 185,-153.5 299,-153.5 299,-123.5 185,-123.5"/>
<text text-anchor="start" x="193" y="-141.5" font-family="Helvetica,sans-Serif" font-size="10.00">include_inout/inparam</text>
<text text-anchor="middle" x="242" y="-130.5" font-family="Helvetica,sans-Serif" font-size="10.00">_pcpmvk.hpp</text>
</a>
</g>
</g>
<!-- Node22 -->
<g id="node2" class="node"><title>Node22</title>
<g id="a_node2"><a xlink:href="inparam__genwochgvk_8hpp.html" target="_top" xlink:title="Definition of GA program parameters.">
<polygon fill="white" stroke="black" points="36,-56.5 36,-86.5 150,-86.5 150,-56.5 36,-56.5"/>
<text text-anchor="start" x="44" y="-74.5" font-family="Helvetica,sans-Serif" font-size="10.00">include_inout/inparam</text>
<text text-anchor="middle" x="93" y="-63.5" font-family="Helvetica,sans-Serif" font-size="10.00">_genwochgvk.hpp</text>
</a>
</g>
</g>
<!-- Node21&#45;&gt;Node22 -->
<g id="edge1" class="edge"><title>Node21&#45;&gt;Node22</title>
<path fill="none" stroke="midnightblue" d="M200.208,-119.269C176.476,-108.916 147.22,-96.1528 125.268,-86.5765"/>
<polygon fill="midnightblue" stroke="midnightblue" points="199.104,-122.605 209.669,-123.396 201.903,-116.189 199.104,-122.605"/>
</g>
<!-- Node24 -->
<g id="node4" class="node"><title>Node24</title>
<g id="a_node4"><a xlink:href="inparam__tgca_8hpp.html" target="_top" xlink:title="Definition of TGCA program parameters.">
<polygon fill="white" stroke="black" points="185,-56.5 185,-86.5 299,-86.5 299,-56.5 185,-56.5"/>
<text text-anchor="start" x="193" y="-74.5" font-family="Helvetica,sans-Serif" font-size="10.00">include_inout/inparam</text>
<text text-anchor="middle" x="242" y="-63.5" font-family="Helvetica,sans-Serif" font-size="10.00">_tgca.hpp</text>
</a>
</g>
</g>
<!-- Node21&#45;&gt;Node24 -->
<g id="edge3" class="edge"><title>Node21&#45;&gt;Node24</title>
<path fill="none" stroke="midnightblue" d="M242,-113.108C242,-104.154 242,-94.3227 242,-86.5765"/>
<polygon fill="midnightblue" stroke="midnightblue" points="238.5,-113.396 242,-123.396 245.5,-113.396 238.5,-113.396"/>
</g>
<!-- Node26 -->
<g id="node6" class="node"><title>Node26</title>
<g id="a_node6"><a xlink:href="gcuk__vkcentroid_8hpp.html" target="_top" xlink:title="GCUK .">
<polygon fill="white" stroke="black" points="317,-62 317,-81 445,-81 445,-62 317,-62"/>
<text text-anchor="middle" x="381" y="-69" font-family="Helvetica,sans-Serif" font-size="10.00">eac/gcuk_vkcentroid.hpp</text>
</a>
</g>
</g>
<!-- Node21&#45;&gt;Node26 -->
<g id="edge5" class="edge"><title>Node21&#45;&gt;Node26</title>
<path fill="none" stroke="midnightblue" d="M281.28,-119.131C308.035,-106.62 342.209,-90.6399 362.808,-81.007"/>
<polygon fill="midnightblue" stroke="midnightblue" points="279.737,-115.989 272.161,-123.396 282.702,-122.33 279.737,-115.989"/>
</g>
<!-- Node23 -->
<g id="node3" class="node"><title>Node23</title>
<g id="a_node3"><a xlink:href="gaclustering__vktreebinary_8hpp.html" target="_top" xlink:title="GA Clustering &#160;x.">
<polygon fill="white" stroke="black" points="0,-0.5 0,-19.5 170,-19.5 170,-0.5 0,-0.5"/>
<text text-anchor="middle" x="85" y="-7.5" font-family="Helvetica,sans-Serif" font-size="10.00">eac/gaclustering_vktreebinary.hpp</text>
</a>
</g>
</g>
<!-- Node22&#45;&gt;Node23 -->
<g id="edge2" class="edge"><title>Node22&#45;&gt;Node23</title>
<path fill="none" stroke="midnightblue" d="M89.7448,-46.2892C88.4766,-36.857 87.1048,-26.6548 86.1641,-19.6578"/>
<polygon fill="midnightblue" stroke="midnightblue" points="86.3027,-46.9549 91.1041,-56.3993 93.2403,-46.0221 86.3027,-46.9549"/>
</g>
<!-- Node25 -->
<g id="node5" class="node"><title>Node25</title>
<g id="a_node5"><a xlink:href="tgca__vkcentroid_8hpp.html" target="_top" xlink:title="TGCA .">
<polygon fill="white" stroke="black" points="188,-0.5 188,-19.5 314,-19.5 314,-0.5 188,-0.5"/>
<text text-anchor="middle" x="251" y="-7.5" font-family="Helvetica,sans-Serif" font-size="10.00">eac/tgca_vkcentroid.hpp</text>
</a>
</g>
</g>
<!-- Node24&#45;&gt;Node25 -->
<g id="edge4" class="edge"><title>Node24&#45;&gt;Node25</title>
<path fill="none" stroke="midnightblue" d="M245.662,-46.2892C247.089,-36.857 248.632,-26.6548 249.69,-19.6578"/>
<polygon fill="midnightblue" stroke="midnightblue" points="242.168,-45.9883 244.133,-56.3993 249.089,-47.0353 242.168,-45.9883"/>
</g>
</g>
</svg>
