<?xml version="1.0" encoding="UTF-8" standalone="no"?>
<!DOCTYPE svg PUBLIC "-//W3C//DTD SVG 1.1//EN"
 "http://www.w3.org/Graphics/SVG/1.1/DTD/svg11.dtd">
<!-- Generated by graphviz version 2.38.0 (20140413.2041)
 -->
<!-- Title: include_inout/inparam_gca.hpp Pages: 1 -->
<svg width="262pt" height="162pt"
 viewBox="0.00 0.00 262.00 162.00" xmlns="http://www.w3.org/2000/svg" xmlns:xlink="http://www.w3.org/1999/xlink">
<g id="graph0" class="graph" transform="scale(1 1) rotate(0) translate(4 158)">
<title>include_inout/inparam_gca.hpp</title>
<polygon fill="white" stroke="none" points="-4,4 -4,-158 258,-158 258,4 -4,4"/>
<!-- Node22 -->
<g id="node1" class="node"><title>Node22</title>
<polygon fill="#bfbfbf" stroke="black" points="69.5,-123.5 69.5,-153.5 183.5,-153.5 183.5,-123.5 69.5,-123.5"/>
<text text-anchor="start" x="77.5" y="-141.5" font-family="Helvetica,sans-Serif" font-size="10.00">include_inout/inparam</text>
<text text-anchor="middle" x="126.5" y="-130.5" font-family="Helvetica,sans-Serif" font-size="10.00">_gca.hpp</text>
</g>
<!-- Node23 -->
<g id="node2" class="node"><title>Node23</title>
<g id="a_node2"><a xlink:href="inparam__hka_8hpp.html" target="_top" xlink:title="Definition of HKA program parameters. ">
<polygon fill="white" stroke="black" points="2.5,-56.5 2.5,-86.5 116.5,-86.5 116.5,-56.5 2.5,-56.5"/>
<text text-anchor="start" x="10.5" y="-74.5" font-family="Helvetica,sans-Serif" font-size="10.00">include_inout/inparam</text>
<text text-anchor="middle" x="59.5" y="-63.5" font-family="Helvetica,sans-Serif" font-size="10.00">_hka.hpp</text>
</a>
</g>
</g>
<!-- Node22&#45;&gt;Node23 -->
<g id="edge1" class="edge"><title>Node22&#45;&gt;Node23</title>
<path fill="none" stroke="midnightblue" d="M104.66,-116.311C94.6092,-106.561 82.9593,-95.259 74.0096,-86.5765"/>
<polygon fill="midnightblue" stroke="midnightblue" points="102.347,-118.945 111.962,-123.396 107.222,-113.921 102.347,-118.945"/>
</g>
<!-- Node25 -->
<g id="node4" class="node"><title>Node25</title>
<g id="a_node4"><a xlink:href="gca__fkmedoid_8hpp.html" target="_top" xlink:title="GCA . ">
<polygon fill="white" stroke="black" points="135,-62 135,-81 254,-81 254,-62 135,-62"/>
<text text-anchor="middle" x="194.5" y="-69" font-family="Helvetica,sans-Serif" font-size="10.00">eac/gca_fkmedoid.hpp</text>
</a>
</g>
</g>
<!-- Node22&#45;&gt;Node25 -->
<g id="edge3" class="edge"><title>Node22&#45;&gt;Node25</title>
<path fill="none" stroke="midnightblue" d="M148.642,-116.335C161.127,-104.401 176.05,-90.1359 185.404,-81.1945"/>
<polygon fill="midnightblue" stroke="midnightblue" points="146.065,-113.956 141.255,-123.396 150.902,-119.016 146.065,-113.956"/>
</g>
<!-- Node24 -->
<g id="node3" class="node"><title>Node24</title>
<g id="a_node3"><a xlink:href="hka__fkmedoid_8hpp.html" target="_top" xlink:title="HKA . ">
<polygon fill="white" stroke="black" points="0,-0.5 0,-19.5 119,-19.5 119,-0.5 0,-0.5"/>
<text text-anchor="middle" x="59.5" y="-7.5" font-family="Helvetica,sans-Serif" font-size="10.00">eac/hka_fkmedoid.hpp</text>
</a>
</g>
</g>
<!-- Node23&#45;&gt;Node24 -->
<g id="edge2" class="edge"><title>Node23&#45;&gt;Node24</title>
<path fill="none" stroke="midnightblue" d="M59.5,-46.2892C59.5,-36.857 59.5,-26.6548 59.5,-19.6578"/>
<polygon fill="midnightblue" stroke="midnightblue" points="56.0001,-46.3993 59.5,-56.3993 63.0001,-46.3994 56.0001,-46.3993"/>
</g>
</g>
</svg>
