<?xml version="1.0" encoding="UTF-8" standalone="no"?>
<!DOCTYPE svg PUBLIC "-//W3C//DTD SVG 1.1//EN"
 "http://www.w3.org/Graphics/SVG/1.1/DTD/svg11.dtd">
<!-- Generated by graphviz version 2.38.0 (20140413.2041)
 -->
<!-- Title: include_inout/inparam_pm.hpp Pages: 1 -->
<svg width="387pt" height="162pt"
 viewBox="0.00 0.00 386.50 162.00" xmlns="http://www.w3.org/2000/svg" xmlns:xlink="http://www.w3.org/1999/xlink">
<g id="graph0" class="graph" transform="scale(1 1) rotate(0) translate(4 158)">
<title>include_inout/inparam_pm.hpp</title>
<polygon fill="white" stroke="none" points="-4,4 -4,-158 382.5,-158 382.5,4 -4,4"/>
<!-- Node14 -->
<g id="node1" class="node"><title>Node14</title>
<polygon fill="#bfbfbf" stroke="black" points="74,-123.5 74,-153.5 188,-153.5 188,-123.5 74,-123.5"/>
<text text-anchor="start" x="82" y="-141.5" font-family="Helvetica,sans-Serif" font-size="10.00">include_inout/inparam</text>
<text text-anchor="middle" x="131" y="-130.5" font-family="Helvetica,sans-Serif" font-size="10.00">_pm.hpp</text>
</g>
<!-- Node15 -->
<g id="node2" class="node"><title>Node15</title>
<g id="a_node2"><a xlink:href="inparam__cbga_8hpp.html" target="_top" xlink:title="Definition of CBGA program parameters. ">
<polygon fill="white" stroke="black" points="7,-56.5 7,-86.5 121,-86.5 121,-56.5 7,-56.5"/>
<text text-anchor="start" x="15" y="-74.5" font-family="Helvetica,sans-Serif" font-size="10.00">include_inout/inparam</text>
<text text-anchor="middle" x="64" y="-63.5" font-family="Helvetica,sans-Serif" font-size="10.00">_cbga.hpp</text>
</a>
</g>
</g>
<!-- Node14&#45;&gt;Node15 -->
<g id="edge1" class="edge"><title>Node14&#45;&gt;Node15</title>
<path fill="none" stroke="midnightblue" d="M109.16,-116.311C99.1092,-106.561 87.4593,-95.259 78.5096,-86.5765"/>
<polygon fill="midnightblue" stroke="midnightblue" points="106.847,-118.945 116.462,-123.396 111.722,-113.921 106.847,-118.945"/>
</g>
<!-- Node17 -->
<g id="node4" class="node"><title>Node17</title>
<g id="a_node4"><a xlink:href="inparam__pmfk_8hpp.html" target="_top" xlink:title="Definition of GKA program parameters. ">
<polygon fill="white" stroke="black" points="141,-56.5 141,-86.5 255,-86.5 255,-56.5 141,-56.5"/>
<text text-anchor="start" x="149" y="-74.5" font-family="Helvetica,sans-Serif" font-size="10.00">include_inout/inparam</text>
<text text-anchor="middle" x="198" y="-63.5" font-family="Helvetica,sans-Serif" font-size="10.00">_pmfk.hpp</text>
</a>
</g>
</g>
<!-- Node14&#45;&gt;Node17 -->
<g id="edge3" class="edge"><title>Node14&#45;&gt;Node17</title>
<path fill="none" stroke="midnightblue" d="M152.84,-116.311C162.891,-106.561 174.541,-95.259 183.49,-86.5765"/>
<polygon fill="midnightblue" stroke="midnightblue" points="150.278,-113.921 145.538,-123.396 155.153,-118.945 150.278,-113.921"/>
</g>
<!-- Node16 -->
<g id="node3" class="node"><title>Node16</title>
<g id="a_node3"><a xlink:href="cbga__fkcentroid_8hpp.html" target="_top" xlink:title="CBGA . ">
<polygon fill="white" stroke="black" points="0,-0.5 0,-19.5 126,-19.5 126,-0.5 0,-0.5"/>
<text text-anchor="middle" x="63" y="-7.5" font-family="Helvetica,sans-Serif" font-size="10.00">eac/cbga_fkcentroid.hpp</text>
</a>
</g>
</g>
<!-- Node15&#45;&gt;Node16 -->
<g id="edge2" class="edge"><title>Node15&#45;&gt;Node16</title>
<path fill="none" stroke="midnightblue" d="M63.5931,-46.2892C63.4346,-36.857 63.2631,-26.6548 63.1455,-19.6578"/>
<polygon fill="midnightblue" stroke="midnightblue" points="60.0954,-46.4596 63.763,-56.3993 67.0944,-46.3419 60.0954,-46.4596"/>
</g>
<!-- Node18 -->
<g id="node5" class="node"><title>Node18</title>
<g id="a_node5"><a xlink:href="gka__fklabel_8hpp.html" target="_top" xlink:title="GKA Clustering . ">
<polygon fill="white" stroke="black" points="144.5,-0.5 144.5,-19.5 251.5,-19.5 251.5,-0.5 144.5,-0.5"/>
<text text-anchor="middle" x="198" y="-7.5" font-family="Helvetica,sans-Serif" font-size="10.00">eac/gka_fklabel.hpp</text>
</a>
</g>
</g>
<!-- Node17&#45;&gt;Node18 -->
<g id="edge4" class="edge"><title>Node17&#45;&gt;Node18</title>
<path fill="none" stroke="midnightblue" d="M198,-46.2892C198,-36.857 198,-26.6548 198,-19.6578"/>
<polygon fill="midnightblue" stroke="midnightblue" points="194.5,-46.3993 198,-56.3993 201.5,-46.3994 194.5,-46.3993"/>
</g>
<!-- Node19 -->
<g id="node6" class="node"><title>Node19</title>
<g id="a_node6"><a xlink:href="igka__fklabel_8hpp.html" target="_top" xlink:title="IGKA &#160;and FGKA . ">
<polygon fill="white" stroke="black" points="269.5,-0.5 269.5,-19.5 378.5,-19.5 378.5,-0.5 269.5,-0.5"/>
<text text-anchor="middle" x="324" y="-7.5" font-family="Helvetica,sans-Serif" font-size="10.00">eac/igka_fklabel.hpp</text>
</a>
</g>
</g>
<!-- Node17&#45;&gt;Node19 -->
<g id="edge5" class="edge"><title>Node17&#45;&gt;Node19</title>
<path fill="none" stroke="midnightblue" d="M236.998,-52.0841C259.885,-41.2763 287.742,-28.1219 305.666,-19.6578"/>
<polygon fill="midnightblue" stroke="midnightblue" points="235.408,-48.9643 227.86,-56.3993 238.397,-55.2941 235.408,-48.9643"/>
</g>
</g>
</svg>
