<?xml version="1.0" encoding="UTF-8" standalone="no"?>
<!DOCTYPE svg PUBLIC "-//W3C//DTD SVG 1.1//EN"
 "http://www.w3.org/Graphics/SVG/1.1/DTD/svg11.dtd">
<!-- Generated by graphviz version 2.38.0 (20140413.2041)
 -->
<!-- Title: include_inout/inparam_pcpm.hpp Pages: 1 -->
<svg width="1356pt" height="296pt"
 viewBox="0.00 0.00 1356.00 296.00" xmlns="http://www.w3.org/2000/svg" xmlns:xlink="http://www.w3.org/1999/xlink">
<g id="graph0" class="graph" transform="scale(1 1) rotate(0) translate(4 292)">
<title>include_inout/inparam_pcpm.hpp</title>
<polygon fill="white" stroke="none" points="-4,4 -4,-292 1352,-292 1352,4 -4,4"/>
<!-- Node14 -->
<g id="node1" class="node"><title>Node14</title>
<polygon fill="#bfbfbf" stroke="black" points="884.5,-257.5 884.5,-287.5 998.5,-287.5 998.5,-257.5 884.5,-257.5"/>
<text text-anchor="start" x="892.5" y="-275.5" font-family="Helvetica,sans-Serif" font-size="10.00">include_inout/inparam</text>
<text text-anchor="middle" x="941.5" y="-264.5" font-family="Helvetica,sans-Serif" font-size="10.00">_pcpm.hpp</text>
</g>
<!-- Node15 -->
<g id="node2" class="node"><title>Node15</title>
<g id="a_node2"><a xlink:href="inparam__pcpmfk_8hpp.html" target="_top" xlink:title="Definition of input parameters. ">
<polygon fill="white" stroke="black" points="402.5,-190.5 402.5,-220.5 516.5,-220.5 516.5,-190.5 402.5,-190.5"/>
<text text-anchor="start" x="410.5" y="-208.5" font-family="Helvetica,sans-Serif" font-size="10.00">include_inout/inparam</text>
<text text-anchor="middle" x="459.5" y="-197.5" font-family="Helvetica,sans-Serif" font-size="10.00">_pcpmfk.hpp</text>
</a>
</g>
</g>
<!-- Node14&#45;&gt;Node15 -->
<g id="edge1" class="edge"><title>Node14&#45;&gt;Node15</title>
<path fill="none" stroke="midnightblue" d="M874.208,-262.425C778.848,-249.566 606.068,-226.265 516.61,-214.202"/>
<polygon fill="midnightblue" stroke="midnightblue" points="873.937,-265.92 884.315,-263.788 874.873,-258.983 873.937,-265.92"/>
</g>
<!-- Node25 -->
<g id="node12" class="node"><title>Node25</title>
<g id="a_node12"><a xlink:href="inparam__pcpmvk_8hpp.html" target="_top" xlink:title="Definition of input parameters. ">
<polygon fill="white" stroke="black" points="884.5,-190.5 884.5,-220.5 998.5,-220.5 998.5,-190.5 884.5,-190.5"/>
<text text-anchor="start" x="892.5" y="-208.5" font-family="Helvetica,sans-Serif" font-size="10.00">include_inout/inparam</text>
<text text-anchor="middle" x="941.5" y="-197.5" font-family="Helvetica,sans-Serif" font-size="10.00">_pcpmvk.hpp</text>
</a>
</g>
</g>
<!-- Node14&#45;&gt;Node25 -->
<g id="edge11" class="edge"><title>Node14&#45;&gt;Node25</title>
<path fill="none" stroke="midnightblue" d="M941.5,-247.108C941.5,-238.154 941.5,-228.323 941.5,-220.577"/>
<polygon fill="midnightblue" stroke="midnightblue" points="938,-247.396 941.5,-257.396 945,-247.396 938,-247.396"/>
</g>
<!-- Node31 -->
<g id="node18" class="node"><title>Node31</title>
<g id="a_node18"><a xlink:href="inparam__subclusterbinaryvk_8hpp.html" target="_top" xlink:title="Definition of CLUSTERING program parameters. ">
<polygon fill="white" stroke="black" points="1105.5,-190.5 1105.5,-220.5 1227.5,-220.5 1227.5,-190.5 1105.5,-190.5"/>
<text text-anchor="start" x="1113.5" y="-208.5" font-family="Helvetica,sans-Serif" font-size="10.00">include_inout/inparam</text>
<text text-anchor="middle" x="1166.5" y="-197.5" font-family="Helvetica,sans-Serif" font-size="10.00">_subclusterbinaryvk.hpp</text>
</a>
</g>
</g>
<!-- Node14&#45;&gt;Node31 -->
<g id="edge17" class="edge"><title>Node14&#45;&gt;Node31</title>
<path fill="none" stroke="midnightblue" d="M1000.07,-254.58C1036.61,-244.022 1083.1,-230.592 1117.65,-220.611"/>
<polygon fill="midnightblue" stroke="midnightblue" points="998.68,-251.338 990.045,-257.476 1000.62,-258.063 998.68,-251.338"/>
</g>
<!-- Node16 -->
<g id="node3" class="node"><title>Node16</title>
<g id="a_node3"><a xlink:href="inparam__gaprototypesfk_8hpp.html" target="_top" xlink:title="Definition of GA&#45;Prototypes program parameters. ">
<polygon fill="white" stroke="black" points="35.5,-123.5 35.5,-153.5 149.5,-153.5 149.5,-123.5 35.5,-123.5"/>
<text text-anchor="start" x="43.5" y="-141.5" font-family="Helvetica,sans-Serif" font-size="10.00">include_inout/inparam</text>
<text text-anchor="middle" x="92.5" y="-130.5" font-family="Helvetica,sans-Serif" font-size="10.00">_gaprototypesfk.hpp</text>
</a>
</g>
</g>
<!-- Node15&#45;&gt;Node16 -->
<g id="edge2" class="edge"><title>Node15&#45;&gt;Node16</title>
<path fill="none" stroke="midnightblue" d="M392.567,-193.015C333.969,-182.91 246.552,-167.713 170.5,-154 163.722,-152.778 156.617,-151.48 149.57,-150.183"/>
<polygon fill="midnightblue" stroke="midnightblue" points="391.99,-196.467 402.439,-194.716 393.179,-189.569 391.99,-196.467"/>
</g>
<!-- Node18 -->
<g id="node5" class="node"><title>Node18</title>
<g id="a_node5"><a xlink:href="inparam__gca_8hpp.html" target="_top" xlink:title="Definition of GCA program parameters. ">
<polygon fill="white" stroke="black" points="179.5,-123.5 179.5,-153.5 293.5,-153.5 293.5,-123.5 179.5,-123.5"/>
<text text-anchor="start" x="187.5" y="-141.5" font-family="Helvetica,sans-Serif" font-size="10.00">include_inout/inparam</text>
<text text-anchor="middle" x="236.5" y="-130.5" font-family="Helvetica,sans-Serif" font-size="10.00">_gca.hpp</text>
</a>
</g>
</g>
<!-- Node15&#45;&gt;Node18 -->
<g id="edge4" class="edge"><title>Node15&#45;&gt;Node18</title>
<path fill="none" stroke="midnightblue" d="M401.451,-187.58C365.231,-177.022 319.155,-163.592 284.911,-153.611"/>
<polygon fill="midnightblue" stroke="midnightblue" points="400.807,-191.038 411.387,-190.476 402.766,-184.317 400.807,-191.038"/>
</g>
<!-- Node22 -->
<g id="node9" class="node"><title>Node22</title>
<g id="a_node9"><a xlink:href="gaclustering__fklabel_8hpp.html" target="_top" xlink:title="GA Clustering . ">
<polygon fill="white" stroke="black" points="311.5,-129 311.5,-148 455.5,-148 455.5,-129 311.5,-129"/>
<text text-anchor="middle" x="383.5" y="-136" font-family="Helvetica,sans-Serif" font-size="10.00">eac/gaclustering_fklabel.hpp</text>
</a>
</g>
</g>
<!-- Node15&#45;&gt;Node22 -->
<g id="edge8" class="edge"><title>Node15&#45;&gt;Node22</title>
<path fill="none" stroke="midnightblue" d="M435.147,-183.672C421.115,-171.671 404.219,-157.22 393.666,-148.195"/>
<polygon fill="midnightblue" stroke="midnightblue" points="433.135,-186.556 443.009,-190.396 437.684,-181.236 433.135,-186.556"/>
</g>
<!-- Node23 -->
<g id="node10" class="node"><title>Node23</title>
<g id="a_node10"><a xlink:href="gas__fkcentroid_8hpp.html" target="_top" xlink:title="GAS . ">
<polygon fill="white" stroke="black" points="474,-129 474,-148 595,-148 595,-129 474,-129"/>
<text text-anchor="middle" x="534.5" y="-136" font-family="Helvetica,sans-Serif" font-size="10.00">eac/gas_fkcentroid.hpp</text>
</a>
</g>
</g>
<!-- Node15&#45;&gt;Node23 -->
<g id="edge9" class="edge"><title>Node15&#45;&gt;Node23</title>
<path fill="none" stroke="midnightblue" d="M483.532,-183.672C497.38,-171.671 514.054,-157.22 524.468,-148.195"/>
<polygon fill="midnightblue" stroke="midnightblue" points="481.039,-181.202 475.774,-190.396 485.623,-186.492 481.039,-181.202"/>
</g>
<!-- Node24 -->
<g id="node11" class="node"><title>Node24</title>
<g id="a_node11"><a xlink:href="kga__fkcentroid_8hpp.html" target="_top" xlink:title="KGA . ">
<polygon fill="white" stroke="black" points="613,-129 613,-148 734,-148 734,-129 613,-129"/>
<text text-anchor="middle" x="673.5" y="-136" font-family="Helvetica,sans-Serif" font-size="10.00">eac/kga_fkcentroid.hpp</text>
</a>
</g>
</g>
<!-- Node15&#45;&gt;Node24 -->
<g id="edge10" class="edge"><title>Node15&#45;&gt;Node24</title>
<path fill="none" stroke="midnightblue" d="M515.436,-187.51C557.199,-174.825 612.52,-158.022 645.421,-148.029"/>
<polygon fill="midnightblue" stroke="midnightblue" points="514.222,-184.221 505.671,-190.476 516.257,-190.919 514.222,-184.221"/>
</g>
<!-- Node17 -->
<g id="node4" class="node"><title>Node17</title>
<g id="a_node4"><a xlink:href="gaprototypes__fkmedoid_8hpp.html" target="_top" xlink:title="GA&#45;Prototypes . ">
<polygon fill="white" stroke="black" points="0,-62 0,-81 161,-81 161,-62 0,-62"/>
<text text-anchor="middle" x="80.5" y="-69" font-family="Helvetica,sans-Serif" font-size="10.00">eac/gaprototypes_fkmedoid.hpp</text>
</a>
</g>
</g>
<!-- Node16&#45;&gt;Node17 -->
<g id="edge3" class="edge"><title>Node16&#45;&gt;Node17</title>
<path fill="none" stroke="midnightblue" d="M88.023,-113.25C85.9493,-102.017 83.6157,-89.3767 82.1051,-81.1945"/>
<polygon fill="midnightblue" stroke="midnightblue" points="84.6388,-114.198 89.8962,-123.396 91.5225,-112.927 84.6388,-114.198"/>
</g>
<!-- Node19 -->
<g id="node6" class="node"><title>Node19</title>
<g id="a_node6"><a xlink:href="inparam__hka_8hpp.html" target="_top" xlink:title="Definition of HKA program parameters. ">
<polygon fill="white" stroke="black" points="179.5,-56.5 179.5,-86.5 293.5,-86.5 293.5,-56.5 179.5,-56.5"/>
<text text-anchor="start" x="187.5" y="-74.5" font-family="Helvetica,sans-Serif" font-size="10.00">include_inout/inparam</text>
<text text-anchor="middle" x="236.5" y="-63.5" font-family="Helvetica,sans-Serif" font-size="10.00">_hka.hpp</text>
</a>
</g>
</g>
<!-- Node18&#45;&gt;Node19 -->
<g id="edge5" class="edge"><title>Node18&#45;&gt;Node19</title>
<path fill="none" stroke="midnightblue" d="M236.5,-113.108C236.5,-104.154 236.5,-94.3227 236.5,-86.5765"/>
<polygon fill="midnightblue" stroke="midnightblue" points="233,-113.396 236.5,-123.396 240,-113.396 233,-113.396"/>
</g>
<!-- Node21 -->
<g id="node8" class="node"><title>Node21</title>
<g id="a_node8"><a xlink:href="gca__fkmedoid_8hpp.html" target="_top" xlink:title="GCA . ">
<polygon fill="white" stroke="black" points="312,-62 312,-81 431,-81 431,-62 312,-62"/>
<text text-anchor="middle" x="371.5" y="-69" font-family="Helvetica,sans-Serif" font-size="10.00">eac/gca_fkmedoid.hpp</text>
</a>
</g>
</g>
<!-- Node18&#45;&gt;Node21 -->
<g id="edge7" class="edge"><title>Node18&#45;&gt;Node21</title>
<path fill="none" stroke="midnightblue" d="M274.991,-118.967C300.924,-106.481 333.912,-90.5978 353.832,-81.007"/>
<polygon fill="midnightblue" stroke="midnightblue" points="273.285,-115.904 265.793,-123.396 276.321,-122.211 273.285,-115.904"/>
</g>
<!-- Node20 -->
<g id="node7" class="node"><title>Node20</title>
<g id="a_node7"><a xlink:href="hka__fkmedoid_8hpp.html" target="_top" xlink:title="HKA . ">
<polygon fill="white" stroke="black" points="177,-0.5 177,-19.5 296,-19.5 296,-0.5 177,-0.5"/>
<text text-anchor="middle" x="236.5" y="-7.5" font-family="Helvetica,sans-Serif" font-size="10.00">eac/hka_fkmedoid.hpp</text>
</a>
</g>
</g>
<!-- Node19&#45;&gt;Node20 -->
<g id="edge6" class="edge"><title>Node19&#45;&gt;Node20</title>
<path fill="none" stroke="midnightblue" d="M236.5,-46.2892C236.5,-36.857 236.5,-26.6548 236.5,-19.6578"/>
<polygon fill="midnightblue" stroke="midnightblue" points="233,-46.3993 236.5,-56.3993 240,-46.3994 233,-46.3993"/>
</g>
<!-- Node26 -->
<g id="node13" class="node"><title>Node26</title>
<g id="a_node13"><a xlink:href="inparam__genwochgvk_8hpp.html" target="_top" xlink:title="Definition of GA program parameters. ">
<polygon fill="white" stroke="black" points="752.5,-123.5 752.5,-153.5 866.5,-153.5 866.5,-123.5 752.5,-123.5"/>
<text text-anchor="start" x="760.5" y="-141.5" font-family="Helvetica,sans-Serif" font-size="10.00">include_inout/inparam</text>
<text text-anchor="middle" x="809.5" y="-130.5" font-family="Helvetica,sans-Serif" font-size="10.00">_genwochgvk.hpp</text>
</a>
</g>
</g>
<!-- Node25&#45;&gt;Node26 -->
<g id="edge12" class="edge"><title>Node25&#45;&gt;Node26</title>
<path fill="none" stroke="midnightblue" d="M903.633,-185.853C882.762,-175.576 857.274,-163.025 838.086,-153.577"/>
<polygon fill="midnightblue" stroke="midnightblue" points="902.34,-189.118 912.858,-190.396 905.433,-182.838 902.34,-189.118"/>
</g>
<!-- Node28 -->
<g id="node15" class="node"><title>Node28</title>
<g id="a_node15"><a xlink:href="inparam__tgca_8hpp.html" target="_top" xlink:title="Definition of TGCA program parameters. ">
<polygon fill="white" stroke="black" points="884.5,-123.5 884.5,-153.5 998.5,-153.5 998.5,-123.5 884.5,-123.5"/>
<text text-anchor="start" x="892.5" y="-141.5" font-family="Helvetica,sans-Serif" font-size="10.00">include_inout/inparam</text>
<text text-anchor="middle" x="941.5" y="-130.5" font-family="Helvetica,sans-Serif" font-size="10.00">_tgca.hpp</text>
</a>
</g>
</g>
<!-- Node25&#45;&gt;Node28 -->
<g id="edge14" class="edge"><title>Node25&#45;&gt;Node28</title>
<path fill="none" stroke="midnightblue" d="M941.5,-180.108C941.5,-171.154 941.5,-161.323 941.5,-153.577"/>
<polygon fill="midnightblue" stroke="midnightblue" points="938,-180.396 941.5,-190.396 945,-180.396 938,-180.396"/>
</g>
<!-- Node30 -->
<g id="node17" class="node"><title>Node30</title>
<g id="a_node17"><a xlink:href="gcuk__vkcentroid_8hpp.html" target="_top" xlink:title="GCUK . ">
<polygon fill="white" stroke="black" points="1016.5,-129 1016.5,-148 1144.5,-148 1144.5,-129 1016.5,-129"/>
<text text-anchor="middle" x="1080.5" y="-136" font-family="Helvetica,sans-Serif" font-size="10.00">eac/gcuk_vkcentroid.hpp</text>
</a>
</g>
</g>
<!-- Node25&#45;&gt;Node30 -->
<g id="edge16" class="edge"><title>Node25&#45;&gt;Node30</title>
<path fill="none" stroke="midnightblue" d="M980.78,-186.131C1007.53,-173.62 1041.71,-157.64 1062.31,-148.007"/>
<polygon fill="midnightblue" stroke="midnightblue" points="979.237,-182.989 971.661,-190.396 982.202,-189.33 979.237,-182.989"/>
</g>
<!-- Node27 -->
<g id="node14" class="node"><title>Node27</title>
<g id="a_node14"><a xlink:href="gaclustering__vktreebinary_8hpp.html" target="_top" xlink:title="GA Clustering &#160;x. ">
<polygon fill="white" stroke="black" points="707.5,-62 707.5,-81 877.5,-81 877.5,-62 707.5,-62"/>
<text text-anchor="middle" x="792.5" y="-69" font-family="Helvetica,sans-Serif" font-size="10.00">eac/gaclustering_vktreebinary.hpp</text>
</a>
</g>
</g>
<!-- Node26&#45;&gt;Node27 -->
<g id="edge13" class="edge"><title>Node26&#45;&gt;Node27</title>
<path fill="none" stroke="midnightblue" d="M803.248,-113.596C800.288,-102.278 796.936,-89.4611 794.774,-81.1945"/>
<polygon fill="midnightblue" stroke="midnightblue" points="799.895,-114.607 805.811,-123.396 806.667,-112.836 799.895,-114.607"/>
</g>
<!-- Node29 -->
<g id="node16" class="node"><title>Node29</title>
<g id="a_node16"><a xlink:href="tgca__vkcentroid_8hpp.html" target="_top" xlink:title="TGCA . ">
<polygon fill="white" stroke="black" points="895.5,-62 895.5,-81 1021.5,-81 1021.5,-62 895.5,-62"/>
<text text-anchor="middle" x="958.5" y="-69" font-family="Helvetica,sans-Serif" font-size="10.00">eac/tgca_vkcentroid.hpp</text>
</a>
</g>
</g>
<!-- Node28&#45;&gt;Node29 -->
<g id="edge15" class="edge"><title>Node28&#45;&gt;Node29</title>
<path fill="none" stroke="midnightblue" d="M947.752,-113.596C950.712,-102.278 954.064,-89.4611 956.226,-81.1945"/>
<polygon fill="midnightblue" stroke="midnightblue" points="944.333,-112.836 945.189,-123.396 951.105,-114.607 944.333,-112.836"/>
</g>
<!-- Node32 -->
<g id="node19" class="node"><title>Node32</title>
<g id="a_node19"><a xlink:href="clustering__vksubclusterbinary_8hpp.html" target="_top" xlink:title="CLUSTERING . ">
<polygon fill="white" stroke="black" points="1163,-129 1163,-148 1348,-148 1348,-129 1163,-129"/>
<text text-anchor="middle" x="1255.5" y="-136" font-family="Helvetica,sans-Serif" font-size="10.00">eac/clustering_vksubclusterbinary.hpp</text>
</a>
</g>
</g>
<!-- Node31&#45;&gt;Node32 -->
<g id="edge18" class="edge"><title>Node31&#45;&gt;Node32</title>
<path fill="none" stroke="midnightblue" d="M1194.15,-184.306C1210.86,-172.1 1231.3,-157.177 1243.85,-148.007"/>
<polygon fill="midnightblue" stroke="midnightblue" points="1191.82,-181.672 1185.81,-190.396 1195.95,-187.324 1191.82,-181.672"/>
</g>
</g>
</svg>
