<?xml version="1.0" encoding="UTF-8" standalone="no"?>
<!DOCTYPE svg PUBLIC "-//W3C//DTD SVG 1.1//EN"
 "http://www.w3.org/Graphics/SVG/1.1/DTD/svg11.dtd">
<!-- Generated by graphviz version 2.38.0 (20140413.2041)
 -->
<!-- Title: include_inout/inparam_readinst.hpp Pages: 1 -->
<svg width="216pt" height="151pt"
 viewBox="0.00 0.00 216.00 151.00" xmlns="http://www.w3.org/2000/svg" xmlns:xlink="http://www.w3.org/1999/xlink">
<g id="graph0" class="graph" transform="scale(1 1) rotate(0) translate(4 147)">
<title>include_inout/inparam_readinst.hpp</title>
<polygon fill="white" stroke="none" points="-4,4 -4,-147 212,-147 212,4 -4,4"/>
<!-- Node0 -->
<g id="node1" class="node"><title>Node0</title>
<g id="a_node1"><a xlink:title="Definition of input parameters.">
<polygon fill="#bfbfbf" stroke="black" points="24.5,-112.5 24.5,-142.5 138.5,-142.5 138.5,-112.5 24.5,-112.5"/>
<text text-anchor="start" x="32.5" y="-130.5" font-family="Helvetica,sans-Serif" font-size="10.00">include_inout/inparam</text>
<text text-anchor="middle" x="81.5" y="-119.5" font-family="Helvetica,sans-Serif" font-size="10.00">_readinst.hpp</text>
</a>
</g>
</g>
<!-- Node1 -->
<g id="node2" class="node"><title>Node1</title>
<g id="a_node2"><a xlink:title=" ">
<polygon fill="white" stroke="#bfbfbf" points="0,-56.5 0,-75.5 41,-75.5 41,-56.5 0,-56.5"/>
<text text-anchor="middle" x="20.5" y="-63.5" font-family="Helvetica,sans-Serif" font-size="10.00">string</text>
</a>
</g>
</g>
<!-- Node0&#45;&gt;Node1 -->
<g id="edge1" class="edge"><title>Node0&#45;&gt;Node1</title>
<path fill="none" stroke="midnightblue" d="M67.0439,-112.399C57.9057,-103.486 46.0814,-91.9523 36.6376,-82.7408"/>
<polygon fill="midnightblue" stroke="midnightblue" points="38.9785,-80.1348 29.376,-75.6578 34.0907,-85.1458 38.9785,-80.1348"/>
</g>
<!-- Node2 -->
<g id="node3" class="node"><title>Node2</title>
<g id="a_node3"><a xlink:title=" ">
<polygon fill="white" stroke="#bfbfbf" points="59.5,-56.5 59.5,-75.5 103.5,-75.5 103.5,-56.5 59.5,-56.5"/>
<text text-anchor="middle" x="81.5" y="-63.5" font-family="Helvetica,sans-Serif" font-size="10.00">vector</text>
</a>
</g>
</g>
<!-- Node0&#45;&gt;Node2 -->
<g id="edge2" class="edge"><title>Node0&#45;&gt;Node2</title>
<path fill="none" stroke="midnightblue" d="M81.5,-112.399C81.5,-104.466 81.5,-94.458 81.5,-85.8583"/>
<polygon fill="midnightblue" stroke="midnightblue" points="85.0001,-85.6577 81.5,-75.6578 78.0001,-85.6578 85.0001,-85.6577"/>
</g>
<!-- Node3 -->
<g id="node4" class="node"><title>Node3</title>
<g id="a_node4"><a xlink:href="common_8hpp.html" target="_top" xlink:title="common">
<polygon fill="white" stroke="black" points="121.5,-56.5 121.5,-75.5 195.5,-75.5 195.5,-56.5 121.5,-56.5"/>
<text text-anchor="middle" x="158.5" y="-63.5" font-family="Helvetica,sans-Serif" font-size="10.00">common.hpp</text>
</a>
</g>
</g>
<!-- Node0&#45;&gt;Node3 -->
<g id="edge3" class="edge"><title>Node0&#45;&gt;Node3</title>
<path fill="none" stroke="midnightblue" d="M99.7479,-112.399C111.629,-103.218 127.107,-91.2579 139.194,-81.9182"/>
<polygon fill="midnightblue" stroke="midnightblue" points="141.523,-84.5418 147.296,-75.6578 137.243,-79.0028 141.523,-84.5418"/>
</g>
<!-- Node4 -->
<g id="node5" class="node"><title>Node4</title>
<g id="a_node5"><a xlink:title=" ">
<polygon fill="white" stroke="#bfbfbf" points="104,-0.5 104,-19.5 151,-19.5 151,-0.5 104,-0.5"/>
<text text-anchor="middle" x="127.5" y="-7.5" font-family="Helvetica,sans-Serif" font-size="10.00">stdint.h</text>
</a>
</g>
</g>
<!-- Node3&#45;&gt;Node4 -->
<g id="edge4" class="edge"><title>Node3&#45;&gt;Node4</title>
<path fill="none" stroke="midnightblue" d="M153.381,-56.083C149.092,-48.6127 142.842,-37.7244 137.558,-28.5199"/>
<polygon fill="midnightblue" stroke="midnightblue" points="140.538,-26.6811 132.524,-19.7511 134.467,-30.1662 140.538,-26.6811"/>
</g>
<!-- Node5 -->
<g id="node6" class="node"><title>Node5</title>
<g id="a_node6"><a xlink:title=" ">
<polygon fill="white" stroke="#bfbfbf" points="169,-0.5 169,-19.5 208,-19.5 208,-0.5 169,-0.5"/>
<text text-anchor="middle" x="188.5" y="-7.5" font-family="Helvetica,sans-Serif" font-size="10.00">limits</text>
</a>
</g>
</g>
<!-- Node3&#45;&gt;Node5 -->
<g id="edge5" class="edge"><title>Node3&#45;&gt;Node5</title>
<path fill="none" stroke="midnightblue" d="M163.454,-56.083C167.604,-48.6127 173.653,-37.7244 178.767,-28.5199"/>
<polygon fill="midnightblue" stroke="midnightblue" points="181.841,-30.1924 183.638,-19.7511 175.722,-26.7929 181.841,-30.1924"/>
</g>
</g>
</svg>
