<?xml version="1.0" encoding="UTF-8" standalone="no"?>
<!DOCTYPE svg PUBLIC "-//W3C//DTD SVG 1.1//EN"
 "http://www.w3.org/Graphics/SVG/1.1/DTD/svg11.dtd">
<!-- Generated by graphviz version 2.38.0 (20140413.2041)
 -->
<!-- Title: include_inout/inparam_pcpmfk.hpp Pages: 1 -->
<!--zoomable 229 -->
<svg id="main" version="1.1" xmlns="http://www.w3.org/2000/svg" xmlns:xlink="http://www.w3.org/1999/xlink" xml:space="preserve" onload="init(evt)">
<style type="text/css"><![CDATA[
.edge:hover path { stroke: red; }
.edge:hover polygon { stroke: red; fill: red; }
]]></style>
<script type="text/javascript"><![CDATA[
var edges = document.getElementsByTagName('g');
if (edges && edges.length) {
  for (var i=0;i<edges.length;i++) {
    if (edges[i].id.substr(0,4)=='edge') {
      edges[i].setAttribute('class','edge');
    }
  }
}
]]></script>
        <defs>
                <circle id="rim" cx="0" cy="0" r="7"/>
                <circle id="rim2" cx="0" cy="0" r="3.5"/>
                <g id="zoomPlus">
                        <use xlink:href="#rim" fill="#404040">
                                <set attributeName="fill" to="#808080" begin="zoomplus.mouseover" end="zoomplus.mouseout"/>
                        </use>
                        <path d="M-4,0h8M0,-4v8" fill="none" stroke="white" stroke-width="1.5" pointer-events="none"/>
                </g>
                <g id="zoomMin">
                        <use xlink:href="#rim" fill="#404040">
                                <set attributeName="fill" to="#808080" begin="zoomminus.mouseover" end="zoomminus.mouseout"/>
                        </use>
                        <path d="M-4,0h8" fill="none" stroke="white" stroke-width="1.5" pointer-events="none"/>
                </g>
                <g id="dirArrow">
                        <path fill="none" stroke="white" stroke-width="1.5" d="M0,-3.0v7 M-2.5,-0.5L0,-3.0L2.5,-0.5"/>
                </g>
               <g id="resetDef">
                       <use xlink:href="#rim2" fill="#404040">
                               <set attributeName="fill" to="#808080" begin="reset.mouseover" end="reset.mouseout"/>
                       </use>
               </g>
        </defs>

<script type="text/javascript">
var viewWidth = 742;
var viewHeight = 229;
var sectionId = 'dynsection-1';
</script>
<script xlink:href="svgpan.js"/>
<svg id="graph" class="graph">
<g id="viewport">
<title>include_inout/inparam_pcpmfk.hpp</title>
<polygon fill="white" stroke="none" points="-4,4 -4,-225 738,-225 738,4 -4,4"/>
<!-- Node21 -->
<g id="node1" class="node"><title>Node21</title>
<polygon fill="#bfbfbf" stroke="black" points="326.5,-190.5 326.5,-220.5 440.5,-220.5 440.5,-190.5 326.5,-190.5"/>
<text text-anchor="start" x="334.5" y="-208.5" font-family="Helvetica,sans-Serif" font-size="10.00">include_inout/inparam</text>
<text text-anchor="middle" x="383.5" y="-197.5" font-family="Helvetica,sans-Serif" font-size="10.00">_pcpmfk.hpp</text>
</g>
<!-- Node22 -->
<g id="node2" class="node"><title>Node22</title>
<g id="a_node2"><a xlink:href="inparam__gaprototypesfk_8hpp.html" target="_top" xlink:title="Definition of GA&#45;Prototypes program parameters. ">
<polygon fill="white" stroke="black" points="35.5,-123.5 35.5,-153.5 149.5,-153.5 149.5,-123.5 35.5,-123.5"/>
<text text-anchor="start" x="43.5" y="-141.5" font-family="Helvetica,sans-Serif" font-size="10.00">include_inout/inparam</text>
<text text-anchor="middle" x="92.5" y="-130.5" font-family="Helvetica,sans-Serif" font-size="10.00">_gaprototypesfk.hpp</text>
</a>
</g>
</g>
<!-- Node21&#45;&gt;Node22 -->
<g id="edge1" class="edge"><title>Node21&#45;&gt;Node22</title>
<path fill="none" stroke="midnightblue" d="M316.502,-189.535C265.977,-178.249 197.426,-162.937 149.514,-152.235"/>
<polygon fill="midnightblue" stroke="midnightblue" points="315.832,-192.971 326.355,-191.736 317.358,-186.14 315.832,-192.971"/>
</g>
<!-- Node24 -->
<g id="node4" class="node"><title>Node24</title>
<g id="a_node4"><a xlink:href="inparam__gca_8hpp.html" target="_top" xlink:title="Definition of GCA program parameters. ">
<polygon fill="white" stroke="black" points="179.5,-123.5 179.5,-153.5 293.5,-153.5 293.5,-123.5 179.5,-123.5"/>
<text text-anchor="start" x="187.5" y="-141.5" font-family="Helvetica,sans-Serif" font-size="10.00">include_inout/inparam</text>
<text text-anchor="middle" x="236.5" y="-130.5" font-family="Helvetica,sans-Serif" font-size="10.00">_gca.hpp</text>
</a>
</g>
</g>
<!-- Node21&#45;&gt;Node24 -->
<g id="edge3" class="edge"><title>Node21&#45;&gt;Node24</title>
<path fill="none" stroke="midnightblue" d="M342.269,-186.269C318.856,-175.916 289.992,-163.153 268.335,-153.577"/>
<polygon fill="midnightblue" stroke="midnightblue" points="341.042,-189.553 351.603,-190.396 343.873,-183.151 341.042,-189.553"/>
</g>
<!-- Node28 -->
<g id="node8" class="node"><title>Node28</title>
<g id="a_node8"><a xlink:href="gaclustering__fklabel_8hpp.html" target="_top" xlink:title="GA Clustering . ">
<polygon fill="white" stroke="black" points="311.5,-129 311.5,-148 455.5,-148 455.5,-129 311.5,-129"/>
<text text-anchor="middle" x="383.5" y="-136" font-family="Helvetica,sans-Serif" font-size="10.00">eac/gaclustering_fklabel.hpp</text>
</a>
</g>
</g>
<!-- Node21&#45;&gt;Node28 -->
<g id="edge7" class="edge"><title>Node21&#45;&gt;Node28</title>
<path fill="none" stroke="midnightblue" d="M383.5,-180.25C383.5,-169.017 383.5,-156.377 383.5,-148.195"/>
<polygon fill="midnightblue" stroke="midnightblue" points="380,-180.396 383.5,-190.396 387,-180.396 380,-180.396"/>
</g>
<!-- Node29 -->
<g id="node9" class="node"><title>Node29</title>
<g id="a_node9"><a xlink:href="gas__fkcentroid_8hpp.html" target="_top" xlink:title="GAS . ">
<polygon fill="white" stroke="black" points="474,-129 474,-148 595,-148 595,-129 474,-129"/>
<text text-anchor="middle" x="534.5" y="-136" font-family="Helvetica,sans-Serif" font-size="10.00">eac/gas_fkcentroid.hpp</text>
</a>
</g>
</g>
<!-- Node21&#45;&gt;Node29 -->
<g id="edge8" class="edge"><title>Node21&#45;&gt;Node29</title>
<path fill="none" stroke="midnightblue" d="M425.791,-186.295C454.911,-173.76 492.262,-157.682 514.738,-148.007"/>
<polygon fill="midnightblue" stroke="midnightblue" points="424.066,-183.227 416.265,-190.396 426.834,-189.657 424.066,-183.227"/>
</g>
<!-- Node30 -->
<g id="node10" class="node"><title>Node30</title>
<g id="a_node10"><a xlink:href="kga__fkcentroid_8hpp.html" target="_top" xlink:title="KGA . ">
<polygon fill="white" stroke="black" points="613,-129 613,-148 734,-148 734,-129 613,-129"/>
<text text-anchor="middle" x="673.5" y="-136" font-family="Helvetica,sans-Serif" font-size="10.00">eac/kga_fkcentroid.hpp</text>
</a>
</g>
</g>
<!-- Node21&#45;&gt;Node30 -->
<g id="edge9" class="edge"><title>Node21&#45;&gt;Node30</title>
<path fill="none" stroke="midnightblue" d="M450.856,-189.403C508.161,-176.559 588.412,-158.571 635.278,-148.067"/>
<polygon fill="midnightblue" stroke="midnightblue" points="449.787,-186.056 440.795,-191.658 451.318,-192.886 449.787,-186.056"/>
</g>
<!-- Node23 -->
<g id="node3" class="node"><title>Node23</title>
<g id="a_node3"><a xlink:href="gaprototypes__fkmedoid_8hpp.html" target="_top" xlink:title="GA&#45;Prototypes . ">
<polygon fill="white" stroke="black" points="0,-62 0,-81 161,-81 161,-62 0,-62"/>
<text text-anchor="middle" x="80.5" y="-69" font-family="Helvetica,sans-Serif" font-size="10.00">eac/gaprototypes_fkmedoid.hpp</text>
</a>
</g>
</g>
<!-- Node22&#45;&gt;Node23 -->
<g id="edge2" class="edge"><title>Node22&#45;&gt;Node23</title>
<path fill="none" stroke="midnightblue" d="M88.023,-113.25C85.9493,-102.017 83.6157,-89.3767 82.1051,-81.1945"/>
<polygon fill="midnightblue" stroke="midnightblue" points="84.6388,-114.198 89.8962,-123.396 91.5225,-112.927 84.6388,-114.198"/>
</g>
<!-- Node25 -->
<g id="node5" class="node"><title>Node25</title>
<g id="a_node5"><a xlink:href="inparam__hka_8hpp.html" target="_top" xlink:title="Definition of HKA program parameters. ">
<polygon fill="white" stroke="black" points="179.5,-56.5 179.5,-86.5 293.5,-86.5 293.5,-56.5 179.5,-56.5"/>
<text text-anchor="start" x="187.5" y="-74.5" font-family="Helvetica,sans-Serif" font-size="10.00">include_inout/inparam</text>
<text text-anchor="middle" x="236.5" y="-63.5" font-family="Helvetica,sans-Serif" font-size="10.00">_hka.hpp</text>
</a>
</g>
</g>
<!-- Node24&#45;&gt;Node25 -->
<g id="edge4" class="edge"><title>Node24&#45;&gt;Node25</title>
<path fill="none" stroke="midnightblue" d="M236.5,-113.108C236.5,-104.154 236.5,-94.3227 236.5,-86.5765"/>
<polygon fill="midnightblue" stroke="midnightblue" points="233,-113.396 236.5,-123.396 240,-113.396 233,-113.396"/>
</g>
<!-- Node27 -->
<g id="node7" class="node"><title>Node27</title>
<g id="a_node7"><a xlink:href="gca__fkmedoid_8hpp.html" target="_top" xlink:title="GCA . ">
<polygon fill="white" stroke="black" points="312,-62 312,-81 431,-81 431,-62 312,-62"/>
<text text-anchor="middle" x="371.5" y="-69" font-family="Helvetica,sans-Serif" font-size="10.00">eac/gca_fkmedoid.hpp</text>
</a>
</g>
</g>
<!-- Node24&#45;&gt;Node27 -->
<g id="edge6" class="edge"><title>Node24&#45;&gt;Node27</title>
<path fill="none" stroke="midnightblue" d="M274.991,-118.967C300.924,-106.481 333.912,-90.5978 353.832,-81.007"/>
<polygon fill="midnightblue" stroke="midnightblue" points="273.285,-115.904 265.793,-123.396 276.321,-122.211 273.285,-115.904"/>
</g>
<!-- Node26 -->
<g id="node6" class="node"><title>Node26</title>
<g id="a_node6"><a xlink:href="hka__fkmedoid_8hpp.html" target="_top" xlink:title="HKA . ">
<polygon fill="white" stroke="black" points="177,-0.5 177,-19.5 296,-19.5 296,-0.5 177,-0.5"/>
<text text-anchor="middle" x="236.5" y="-7.5" font-family="Helvetica,sans-Serif" font-size="10.00">eac/hka_fkmedoid.hpp</text>
</a>
</g>
</g>
<!-- Node25&#45;&gt;Node26 -->
<g id="edge5" class="edge"><title>Node25&#45;&gt;Node26</title>
<path fill="none" stroke="midnightblue" d="M236.5,-46.2892C236.5,-36.857 236.5,-26.6548 236.5,-19.6578"/>
<polygon fill="midnightblue" stroke="midnightblue" points="233,-46.3993 236.5,-56.3993 240,-46.3994 233,-46.3993"/>
</g>
</g>
</svg>
        <g id="navigator" transform="translate(0 0)" fill="#404254">
                <rect fill="#f2f5e9" fill-opacity="0.5" stroke="#606060" stroke-width=".5" x="0" y="0" width="60" height="60"/>
                <use id="zoomplus" xlink:href="#zoomPlus" x="17" y="9" onmousedown="handleZoom(evt,'in')"/>
                <use id="zoomminus" xlink:href="#zoomMin" x="42" y="9" onmousedown="handleZoom(evt,'out')"/>
                <use id="reset" xlink:href="#resetDef" x="30" y="36" onmousedown="handleReset()"/>
                <g id="arrowUp" xlink:href="#dirArrow" transform="translate(30 24)" onmousedown="handlePan(0,-1)">
                  <use xlink:href="#rim" fill="#404040">
                        <set attributeName="fill" to="#808080" begin="arrowUp.mouseover" end="arrowUp.mouseout"/>
                  </use>
                  <path fill="none" stroke="white" stroke-width="1.5" d="M0,-3.0v7 M-2.5,-0.5L0,-3.0L2.5,-0.5"/>
                </g>
                <g id="arrowRight" xlink:href="#dirArrow" transform="rotate(90) translate(36 -43)" onmousedown="handlePan(1,0)">
                  <use xlink:href="#rim" fill="#404040">
                        <set attributeName="fill" to="#808080" begin="arrowRight.mouseover" end="arrowRight.mouseout"/>
                  </use>
                  <path fill="none" stroke="white" stroke-width="1.5" d="M0,-3.0v7 M-2.5,-0.5L0,-3.0L2.5,-0.5"/>
                </g>
                <g id="arrowDown" xlink:href="#dirArrow" transform="rotate(180) translate(-30 -48)" onmousedown="handlePan(0,1)">
                  <use xlink:href="#rim" fill="#404040">
                        <set attributeName="fill" to="#808080" begin="arrowDown.mouseover" end="arrowDown.mouseout"/>
                  </use>
                  <path fill="none" stroke="white" stroke-width="1.5" d="M0,-3.0v7 M-2.5,-0.5L0,-3.0L2.5,-0.5"/>
                </g>
                <g id="arrowLeft" xlink:href="#dirArrow" transform="rotate(270) translate(-36 17)" onmousedown="handlePan(-1,0)">
                  <use xlink:href="#rim" fill="#404040">
                        <set attributeName="fill" to="#808080" begin="arrowLeft.mouseover" end="arrowLeft.mouseout"/>
                  </use>
                  <path fill="none" stroke="white" stroke-width="1.5" d="M0,-3.0v7 M-2.5,-0.5L0,-3.0L2.5,-0.5"/>
                </g>
        </g>
        <svg viewBox="0 0 15 15" width="100%" height="30px" preserveAspectRatio="xMaxYMin meet">
         <g id="arrow_out" transform="scale(0.3 0.3)">
          <a xlink:href="inparam__pcpmfk_8hpp__dep__incl_org.svg" target="_base">
           <rect id="button" ry="5" rx="5" y="6" x="6" height="38" width="38"
                fill="#f2f5e9" fill-opacity="0.5" stroke="#606060" stroke-width="1.0"/>
           <path id="arrow"
             d="M 11.500037,31.436501 C 11.940474,20.09759 22.043105,11.32322 32.158766,21.979434 L 37.068811,17.246167 C 37.068811,17.246167 37.088388,32 37.088388,32 L 22.160133,31.978069 C 22.160133,31.978069 26.997745,27.140456 26.997745,27.140456 C 18.528582,18.264221 13.291696,25.230495 11.500037,31.436501 z"
             style="fill:#404040;"/>
          </a>
         </g>
        </svg>
</svg>
