<?xml version="1.0" encoding="UTF-8" standalone="no"?>
<!DOCTYPE svg PUBLIC "-//W3C//DTD SVG 1.1//EN"
 "http://www.w3.org/Graphics/SVG/1.1/DTD/svg11.dtd">
<!-- Generated by graphviz version 2.38.0 (20140413.2041)
 -->
<!-- Title: include_inout/inparam_fcm.hpp Pages: 1 -->
<svg width="599pt" height="330pt"
 viewBox="0.00 0.00 599.00 330.00" xmlns="http://www.w3.org/2000/svg" xmlns:xlink="http://www.w3.org/1999/xlink">
<g id="graph0" class="graph" transform="scale(1 1) rotate(0) translate(4 326)">
<title>include_inout/inparam_fcm.hpp</title>
<polygon fill="white" stroke="none" points="-4,4 -4,-326 595,-326 595,4 -4,4"/>
<!-- Node0 -->
<g id="node1" class="node"><title>Node0</title>
<g id="a_node1"><a xlink:title="Definition of FCM program parameters.">
<polygon fill="#bfbfbf" stroke="black" points="309,-291.5 309,-321.5 423,-321.5 423,-291.5 309,-291.5"/>
<text text-anchor="start" x="317" y="-309.5" font-family="Helvetica,sans-Serif" font-size="10.00">include_inout/inparam</text>
<text text-anchor="middle" x="366" y="-298.5" font-family="Helvetica,sans-Serif" font-size="10.00">_fcm.hpp</text>
</a>
</g>
</g>
<!-- Node1 -->
<g id="node2" class="node"><title>Node1</title>
<g id="a_node2"><a xlink:href="inparam__clustering__max__iter_8hpp.html" target="_top" xlink:title="Definition of input parameters.">
<polygon fill="white" stroke="black" points="195.5,-224.5 195.5,-254.5 296.5,-254.5 296.5,-224.5 195.5,-224.5"/>
<text text-anchor="start" x="203.5" y="-242.5" font-family="Helvetica,sans-Serif" font-size="10.00">inparam_clustering</text>
<text text-anchor="middle" x="246" y="-231.5" font-family="Helvetica,sans-Serif" font-size="10.00">_max_iter.hpp</text>
</a>
</g>
</g>
<!-- Node0&#45;&gt;Node1 -->
<g id="edge1" class="edge"><title>Node0&#45;&gt;Node1</title>
<path fill="none" stroke="midnightblue" d="M339.962,-291.396C322.664,-282.026 299.752,-269.615 280.883,-259.395"/>
<polygon fill="midnightblue" stroke="midnightblue" points="282.447,-256.262 271.987,-254.577 279.113,-262.417 282.447,-256.262"/>
</g>
<!-- Node14 -->
<g id="node15" class="node"><title>Node14</title>
<g id="a_node15"><a xlink:href="inparam__fixedk_8hpp.html" target="_top" xlink:title="Definition of input parameters.">
<polygon fill="white" stroke="black" points="314.5,-230 314.5,-249 417.5,-249 417.5,-230 314.5,-230"/>
<text text-anchor="middle" x="366" y="-237" font-family="Helvetica,sans-Serif" font-size="10.00">inparam_fixedk.hpp</text>
</a>
</g>
</g>
<!-- Node0&#45;&gt;Node14 -->
<g id="edge17" class="edge"><title>Node0&#45;&gt;Node14</title>
<path fill="none" stroke="midnightblue" d="M366,-291.396C366,-282.064 366,-269.714 366,-259.517"/>
<polygon fill="midnightblue" stroke="midnightblue" points="369.5,-259.195 366,-249.195 362.5,-259.195 369.5,-259.195"/>
</g>
<!-- Node15 -->
<g id="node16" class="node"><title>Node15</title>
<g id="a_node16"><a xlink:href="inparam__readinst_8hpp.html" target="_top" xlink:title="Definition of input parameters.">
<polygon fill="white" stroke="black" points="436,-230 436,-249 548,-249 548,-230 436,-230"/>
<text text-anchor="middle" x="492" y="-237" font-family="Helvetica,sans-Serif" font-size="10.00">inparam_readinst.hpp</text>
</a>
</g>
</g>
<!-- Node0&#45;&gt;Node15 -->
<g id="edge19" class="edge"><title>Node0&#45;&gt;Node15</title>
<path fill="none" stroke="midnightblue" d="M393.34,-291.396C415.057,-280.193 445.203,-264.641 466.441,-253.685"/>
<polygon fill="midnightblue" stroke="midnightblue" points="468.227,-256.702 475.51,-249.007 465.018,-250.481 468.227,-256.702"/>
</g>
<!-- Node2 -->
<g id="node3" class="node"><title>Node2</title>
<g id="a_node3"><a xlink:href="inparam__clustering_8hpp.html" target="_top" xlink:title="Definition of input parameters.">
<polygon fill="white" stroke="black" points="279.5,-168.5 279.5,-187.5 398.5,-187.5 398.5,-168.5 279.5,-168.5"/>
<text text-anchor="middle" x="339" y="-175.5" font-family="Helvetica,sans-Serif" font-size="10.00">inparam_clustering.hpp</text>
</a>
</g>
</g>
<!-- Node1&#45;&gt;Node2 -->
<g id="edge2" class="edge"><title>Node1&#45;&gt;Node2</title>
<path fill="none" stroke="midnightblue" d="M268.04,-224.399C282.808,-214.951 302.177,-202.559 316.947,-193.109"/>
<polygon fill="midnightblue" stroke="midnightblue" points="318.93,-195.995 325.468,-187.658 315.158,-190.099 318.93,-195.995"/>
</g>
<!-- Node3 -->
<g id="node4" class="node"><title>Node3</title>
<g id="a_node4"><a xlink:title=" ">
<polygon fill="white" stroke="#bfbfbf" points="278,-0.5 278,-19.5 334,-19.5 334,-0.5 278,-0.5"/>
<text text-anchor="middle" x="306" y="-7.5" font-family="Helvetica,sans-Serif" font-size="10.00">iostream</text>
</a>
</g>
</g>
<!-- Node2&#45;&gt;Node3 -->
<g id="edge3" class="edge"><title>Node2&#45;&gt;Node3</title>
<path fill="none" stroke="midnightblue" d="M338.239,-168.394C336.362,-148.433 330.928,-97.5181 321,-56 318.869,-47.0897 315.758,-37.4253 312.92,-29.3451"/>
<polygon fill="midnightblue" stroke="midnightblue" points="316.166,-28.0291 309.453,-19.832 309.589,-30.426 316.166,-28.0291"/>
</g>
<!-- Node4 -->
<g id="node5" class="node"><title>Node4</title>
<g id="a_node5"><a xlink:title=" ">
<polygon fill="white" stroke="#bfbfbf" points="352,-0.5 352,-19.5 402,-19.5 402,-0.5 352,-0.5"/>
<text text-anchor="middle" x="377" y="-7.5" font-family="Helvetica,sans-Serif" font-size="10.00">fstream</text>
</a>
</g>
</g>
<!-- Node2&#45;&gt;Node4 -->
<g id="edge4" class="edge"><title>Node2&#45;&gt;Node4</title>
<path fill="none" stroke="midnightblue" d="M341.043,-168.075C347.025,-141.945 364.59,-65.2106 372.747,-29.577"/>
<polygon fill="midnightblue" stroke="midnightblue" points="376.219,-30.097 375.039,-19.5681 369.395,-28.5349 376.219,-30.097"/>
</g>
<!-- Node5 -->
<g id="node6" class="node"><title>Node5</title>
<g id="a_node6"><a xlink:title=" ">
<polygon fill="white" stroke="#bfbfbf" points="406.5,-112.5 406.5,-131.5 447.5,-131.5 447.5,-112.5 406.5,-112.5"/>
<text text-anchor="middle" x="427" y="-119.5" font-family="Helvetica,sans-Serif" font-size="10.00">string</text>
</a>
</g>
</g>
<!-- Node2&#45;&gt;Node5 -->
<g id="edge5" class="edge"><title>Node2&#45;&gt;Node5</title>
<path fill="none" stroke="midnightblue" d="M353.139,-168.324C366.866,-159.9 387.936,-146.971 404.064,-137.074"/>
<polygon fill="midnightblue" stroke="midnightblue" points="406.204,-139.868 412.896,-131.655 402.543,-133.902 406.204,-139.868"/>
</g>
<!-- Node6 -->
<g id="node7" class="node"><title>Node6</title>
<g id="a_node7"><a xlink:href="inparam_8hpp.html" target="_top" xlink:title="Definition of input parameters.">
<polygon fill="white" stroke="black" points="93.5,-112.5 93.5,-131.5 164.5,-131.5 164.5,-112.5 93.5,-112.5"/>
<text text-anchor="middle" x="129" y="-119.5" font-family="Helvetica,sans-Serif" font-size="10.00">inparam.hpp</text>
</a>
</g>
</g>
<!-- Node2&#45;&gt;Node6 -->
<g id="edge6" class="edge"><title>Node2&#45;&gt;Node6</title>
<path fill="none" stroke="midnightblue" d="M305.725,-168.444C269.552,-159.142 211.623,-144.246 172.019,-134.062"/>
<polygon fill="midnightblue" stroke="midnightblue" points="172.676,-130.617 162.119,-131.516 170.933,-137.397 172.676,-130.617"/>
</g>
<!-- Node13 -->
<g id="node14" class="node"><title>Node13</title>
<g id="a_node14"><a xlink:href="standardize__variable_8hpp.html" target="_top" xlink:title="definition standardize variable">
<polygon fill="white" stroke="black" points="182.5,-112.5 182.5,-131.5 311.5,-131.5 311.5,-112.5 182.5,-112.5"/>
<text text-anchor="middle" x="247" y="-119.5" font-family="Helvetica,sans-Serif" font-size="10.00">standardize_variable.hpp</text>
</a>
</g>
</g>
<!-- Node2&#45;&gt;Node13 -->
<g id="edge16" class="edge"><title>Node2&#45;&gt;Node13</title>
<path fill="none" stroke="midnightblue" d="M324.219,-168.324C309.733,-159.822 287.427,-146.729 270.507,-136.797"/>
<polygon fill="midnightblue" stroke="midnightblue" points="272.141,-133.698 261.745,-131.655 268.597,-139.735 272.141,-133.698"/>
</g>
<!-- Node7 -->
<g id="node8" class="node"><title>Node7</title>
<g id="a_node8"><a xlink:title=" ">
<polygon fill="white" stroke="#bfbfbf" points="0,-56.5 0,-75.5 50,-75.5 50,-56.5 0,-56.5"/>
<text text-anchor="middle" x="25" y="-63.5" font-family="Helvetica,sans-Serif" font-size="10.00">cstddef</text>
</a>
</g>
</g>
<!-- Node6&#45;&gt;Node7 -->
<g id="edge7" class="edge"><title>Node6&#45;&gt;Node7</title>
<path fill="none" stroke="midnightblue" d="M112.291,-112.324C95.6881,-103.703 69.9979,-90.3643 50.7795,-80.3855"/>
<polygon fill="midnightblue" stroke="midnightblue" points="52.1558,-77.1565 41.6679,-75.6545 48.93,-83.3689 52.1558,-77.1565"/>
</g>
<!-- Node8 -->
<g id="node9" class="node"><title>Node8</title>
<g id="a_node9"><a xlink:title=" ">
<polygon fill="white" stroke="#bfbfbf" points="68.5,-56.5 68.5,-75.5 111.5,-75.5 111.5,-56.5 68.5,-56.5"/>
<text text-anchor="middle" x="90" y="-63.5" font-family="Helvetica,sans-Serif" font-size="10.00">time.h</text>
</a>
</g>
</g>
<!-- Node6&#45;&gt;Node8 -->
<g id="edge8" class="edge"><title>Node6&#45;&gt;Node8</title>
<path fill="none" stroke="midnightblue" d="M122.56,-112.083C117.051,-104.455 108.969,-93.2645 102.235,-83.9408"/>
<polygon fill="midnightblue" stroke="midnightblue" points="105.013,-81.8087 96.3202,-75.7511 99.3378,-85.9071 105.013,-81.8087"/>
</g>
<!-- Node9 -->
<g id="node10" class="node"><title>Node9</title>
<g id="a_node10"><a xlink:href="outfilename_8hpp.html" target="_top" xlink:title="out file name">
<polygon fill="white" stroke="black" points="226,-56.5 226,-75.5 312,-75.5 312,-56.5 226,-56.5"/>
<text text-anchor="middle" x="269" y="-63.5" font-family="Helvetica,sans-Serif" font-size="10.00">outfilename.hpp</text>
</a>
</g>
</g>
<!-- Node6&#45;&gt;Node9 -->
<g id="edge9" class="edge"><title>Node6&#45;&gt;Node9</title>
<path fill="none" stroke="midnightblue" d="M151.183,-112.444C174.428,-103.478 211.149,-89.314 237.415,-79.1827"/>
<polygon fill="midnightblue" stroke="midnightblue" points="238.85,-82.3807 246.92,-75.5164 236.331,-75.8497 238.85,-82.3807"/>
</g>
<!-- Node11 -->
<g id="node12" class="node"><title>Node11</title>
<g id="a_node12"><a xlink:href="getsubopt_8hpp.html" target="_top" xlink:title=" ">
<polygon fill="white" stroke="black" points="130,-56.5 130,-75.5 208,-75.5 208,-56.5 130,-56.5"/>
<text text-anchor="middle" x="169" y="-63.5" font-family="Helvetica,sans-Serif" font-size="10.00">getsubopt.hpp</text>
</a>
</g>
</g>
<!-- Node6&#45;&gt;Node11 -->
<g id="edge13" class="edge"><title>Node6&#45;&gt;Node11</title>
<path fill="none" stroke="midnightblue" d="M135.605,-112.083C141.255,-104.455 149.545,-93.2645 156.451,-83.9408"/>
<polygon fill="midnightblue" stroke="midnightblue" points="159.378,-85.87 162.518,-75.7511 153.753,-81.7034 159.378,-85.87"/>
</g>
<!-- Node9&#45;&gt;Node3 -->
<g id="edge10" class="edge"><title>Node9&#45;&gt;Node3</title>
<path fill="none" stroke="midnightblue" d="M275.11,-56.083C280.282,-48.5341 287.846,-37.4948 294.194,-28.2298"/>
<polygon fill="midnightblue" stroke="midnightblue" points="297.239,-29.9787 300.004,-19.7511 291.464,-26.0221 297.239,-29.9787"/>
</g>
<!-- Node9&#45;&gt;Node4 -->
<g id="edge11" class="edge"><title>Node9&#45;&gt;Node4</title>
<path fill="none" stroke="midnightblue" d="M286.352,-56.324C303.672,-47.6641 330.515,-34.2424 350.502,-24.249"/>
<polygon fill="midnightblue" stroke="midnightblue" points="352.312,-27.2572 359.691,-19.6545 349.181,-20.9962 352.312,-27.2572"/>
</g>
<!-- Node10 -->
<g id="node11" class="node"><title>Node10</title>
<g id="a_node11"><a xlink:title=" ">
<polygon fill="white" stroke="#bfbfbf" points="212,-0.5 212,-19.5 260,-19.5 260,-0.5 212,-0.5"/>
<text text-anchor="middle" x="236" y="-7.5" font-family="Helvetica,sans-Serif" font-size="10.00">string.h</text>
</a>
</g>
</g>
<!-- Node9&#45;&gt;Node10 -->
<g id="edge12" class="edge"><title>Node9&#45;&gt;Node10</title>
<path fill="none" stroke="midnightblue" d="M263.551,-56.083C258.986,-48.6127 252.332,-37.7244 246.707,-28.5199"/>
<polygon fill="midnightblue" stroke="midnightblue" points="249.549,-26.4588 241.348,-19.7511 243.576,-30.109 249.549,-26.4588"/>
</g>
<!-- Node11&#45;&gt;Node10 -->
<g id="edge15" class="edge"><title>Node11&#45;&gt;Node10</title>
<path fill="none" stroke="midnightblue" d="M179.765,-56.324C189.766,-48.2631 204.887,-36.0765 216.93,-26.3695"/>
<polygon fill="midnightblue" stroke="midnightblue" points="219.45,-28.8343 225.039,-19.8339 215.057,-23.3841 219.45,-28.8343"/>
</g>
<!-- Node12 -->
<g id="node13" class="node"><title>Node12</title>
<g id="a_node13"><a xlink:title=" ">
<polygon fill="white" stroke="#bfbfbf" points="145.5,-0.5 145.5,-19.5 192.5,-19.5 192.5,-0.5 145.5,-0.5"/>
<text text-anchor="middle" x="169" y="-7.5" font-family="Helvetica,sans-Serif" font-size="10.00">stdlib.h</text>
</a>
</g>
</g>
<!-- Node11&#45;&gt;Node12 -->
<g id="edge14" class="edge"><title>Node11&#45;&gt;Node12</title>
<path fill="none" stroke="midnightblue" d="M169,-56.083C169,-49.0059 169,-38.8611 169,-29.9865"/>
<polygon fill="midnightblue" stroke="midnightblue" points="172.5,-29.751 169,-19.7511 165.5,-29.7511 172.5,-29.751"/>
</g>
<!-- Node14&#45;&gt;Node2 -->
<g id="edge18" class="edge"><title>Node14&#45;&gt;Node2</title>
<path fill="none" stroke="midnightblue" d="M362.132,-229.975C358.202,-221.315 352,-207.649 347.007,-196.645"/>
<polygon fill="midnightblue" stroke="midnightblue" points="350.181,-195.169 342.861,-187.509 343.806,-198.062 350.181,-195.169"/>
</g>
<!-- Node15&#45;&gt;Node5 -->
<g id="edge20" class="edge"><title>Node15&#45;&gt;Node5</title>
<path fill="none" stroke="midnightblue" d="M481.753,-229.85C471.328,-220.525 455.406,-204.752 446,-188 437.906,-173.584 432.971,-155.392 430.167,-141.923"/>
<polygon fill="midnightblue" stroke="midnightblue" points="433.572,-141.09 428.29,-131.906 426.692,-142.379 433.572,-141.09"/>
</g>
<!-- Node16 -->
<g id="node17" class="node"><title>Node16</title>
<g id="a_node17"><a xlink:title=" ">
<polygon fill="white" stroke="#bfbfbf" points="547,-168.5 547,-187.5 591,-187.5 591,-168.5 547,-168.5"/>
<text text-anchor="middle" x="569" y="-175.5" font-family="Helvetica,sans-Serif" font-size="10.00">vector</text>
</a>
</g>
</g>
<!-- Node15&#45;&gt;Node16 -->
<g id="edge21" class="edge"><title>Node15&#45;&gt;Node16</title>
<path fill="none" stroke="midnightblue" d="M503.032,-229.975C515.268,-220.52 535.229,-205.096 549.993,-193.687"/>
<polygon fill="midnightblue" stroke="midnightblue" points="552.215,-196.393 557.988,-187.509 547.935,-190.854 552.215,-196.393"/>
</g>
<!-- Node17 -->
<g id="node18" class="node"><title>Node17</title>
<g id="a_node18"><a xlink:href="common_8hpp.html" target="_top" xlink:title="common">
<polygon fill="white" stroke="black" points="455,-168.5 455,-187.5 529,-187.5 529,-168.5 455,-168.5"/>
<text text-anchor="middle" x="492" y="-175.5" font-family="Helvetica,sans-Serif" font-size="10.00">common.hpp</text>
</a>
</g>
</g>
<!-- Node15&#45;&gt;Node17 -->
<g id="edge22" class="edge"><title>Node15&#45;&gt;Node17</title>
<path fill="none" stroke="midnightblue" d="M492,-229.975C492,-221.58 492,-208.481 492,-197.663"/>
<polygon fill="midnightblue" stroke="midnightblue" points="495.5,-197.509 492,-187.509 488.5,-197.509 495.5,-197.509"/>
</g>
<!-- Node18 -->
<g id="node19" class="node"><title>Node18</title>
<g id="a_node19"><a xlink:title=" ">
<polygon fill="white" stroke="#bfbfbf" points="466.5,-112.5 466.5,-131.5 513.5,-131.5 513.5,-112.5 466.5,-112.5"/>
<text text-anchor="middle" x="490" y="-119.5" font-family="Helvetica,sans-Serif" font-size="10.00">stdint.h</text>
</a>
</g>
</g>
<!-- Node17&#45;&gt;Node18 -->
<g id="edge23" class="edge"><title>Node17&#45;&gt;Node18</title>
<path fill="none" stroke="midnightblue" d="M491.67,-168.083C491.408,-161.006 491.032,-150.861 490.703,-141.986"/>
<polygon fill="midnightblue" stroke="midnightblue" points="494.192,-141.615 490.324,-131.751 487.197,-141.874 494.192,-141.615"/>
</g>
<!-- Node19 -->
<g id="node20" class="node"><title>Node19</title>
<g id="a_node20"><a xlink:title=" ">
<polygon fill="white" stroke="#bfbfbf" points="531.5,-112.5 531.5,-131.5 570.5,-131.5 570.5,-112.5 531.5,-112.5"/>
<text text-anchor="middle" x="551" y="-119.5" font-family="Helvetica,sans-Serif" font-size="10.00">limits</text>
</a>
</g>
</g>
<!-- Node17&#45;&gt;Node19 -->
<g id="edge24" class="edge"><title>Node17&#45;&gt;Node19</title>
<path fill="none" stroke="midnightblue" d="M501.479,-168.324C510.201,-160.341 523.343,-148.313 533.898,-138.653"/>
<polygon fill="midnightblue" stroke="midnightblue" points="536.334,-141.167 541.348,-131.834 531.608,-136.004 536.334,-141.167"/>
</g>
</g>
</svg>
