<?xml version="1.0" encoding="UTF-8" standalone="no"?>
<!DOCTYPE svg PUBLIC "-//W3C//DTD SVG 1.1//EN"
 "http://www.w3.org/Graphics/SVG/1.1/DTD/svg11.dtd">
<!-- Generated by graphviz version 2.38.0 (20140413.2041)
 -->
<!-- Title: include_inout/inparam_clustering_max_iter.hpp Pages: 1 -->
<svg width="518pt" height="106pt"
 viewBox="0.00 0.00 518.00 106.00" xmlns="http://www.w3.org/2000/svg" xmlns:xlink="http://www.w3.org/1999/xlink">
<g id="graph0" class="graph" transform="scale(1 1) rotate(0) translate(4 102)">
<title>include_inout/inparam_clustering_max_iter.hpp</title>
<polygon fill="white" stroke="none" points="-4,4 -4,-102 514,-102 514,4 -4,4"/>
<!-- Node13 -->
<g id="node1" class="node"><title>Node13</title>
<g id="a_node1"><a xlink:title="Definition of input parameters.">
<polygon fill="#bfbfbf" stroke="black" points="192,-67.5 192,-97.5 318,-97.5 318,-67.5 192,-67.5"/>
<text text-anchor="start" x="200" y="-85.5" font-family="Helvetica,sans-Serif" font-size="10.00">include_inout/inparam</text>
<text text-anchor="middle" x="255" y="-74.5" font-family="Helvetica,sans-Serif" font-size="10.00">_clustering_max_iter.hpp</text>
</a>
</g>
</g>
<!-- Node14 -->
<g id="node2" class="node"><title>Node14</title>
<g id="a_node2"><a xlink:href="inparam__fcm_8hpp.html" target="_top" xlink:title="Definition of FCM program parameters.">
<polygon fill="white" stroke="black" points="0,-0.5 0,-30.5 114,-30.5 114,-0.5 0,-0.5"/>
<text text-anchor="start" x="8" y="-18.5" font-family="Helvetica,sans-Serif" font-size="10.00">include_inout/inparam</text>
<text text-anchor="middle" x="57" y="-7.5" font-family="Helvetica,sans-Serif" font-size="10.00">_fcm.hpp</text>
</a>
</g>
</g>
<!-- Node13&#45;&gt;Node14 -->
<g id="edge1" class="edge"><title>Node13&#45;&gt;Node14</title>
<path fill="none" stroke="midnightblue" d="M202.386,-64.2278C170.357,-53.7131 129.958,-40.4508 99.8792,-30.5765"/>
<polygon fill="midnightblue" stroke="midnightblue" points="201.444,-67.6022 212.037,-67.396 203.628,-60.9514 201.444,-67.6022"/>
</g>
<!-- Node15 -->
<g id="node3" class="node"><title>Node15</title>
<g id="a_node3"><a xlink:href="inparam__isodata_8hpp.html" target="_top" xlink:title="Definition of ISODATA program parameters.">
<polygon fill="white" stroke="black" points="132,-0.5 132,-30.5 246,-30.5 246,-0.5 132,-0.5"/>
<text text-anchor="start" x="140" y="-18.5" font-family="Helvetica,sans-Serif" font-size="10.00">include_inout/inparam</text>
<text text-anchor="middle" x="189" y="-7.5" font-family="Helvetica,sans-Serif" font-size="10.00">_isodata.hpp</text>
</a>
</g>
</g>
<!-- Node13&#45;&gt;Node15 -->
<g id="edge2" class="edge"><title>Node13&#45;&gt;Node15</title>
<path fill="none" stroke="midnightblue" d="M233.485,-60.3115C223.585,-50.5612 212.109,-39.259 203.293,-30.5765"/>
<polygon fill="midnightblue" stroke="midnightblue" points="231.098,-62.8728 240.679,-67.396 236.01,-57.8853 231.098,-62.8728"/>
</g>
<!-- Node16 -->
<g id="node4" class="node"><title>Node16</title>
<g id="a_node4"><a xlink:href="inparam__kmeans_8hpp.html" target="_top" xlink:title="Definition of clustering clasic program parameters.">
<polygon fill="white" stroke="black" points="264,-0.5 264,-30.5 378,-30.5 378,-0.5 264,-0.5"/>
<text text-anchor="start" x="272" y="-18.5" font-family="Helvetica,sans-Serif" font-size="10.00">include_inout/inparam</text>
<text text-anchor="middle" x="321" y="-7.5" font-family="Helvetica,sans-Serif" font-size="10.00">_kmeans.hpp</text>
</a>
</g>
</g>
<!-- Node13&#45;&gt;Node16 -->
<g id="edge3" class="edge"><title>Node13&#45;&gt;Node16</title>
<path fill="none" stroke="midnightblue" d="M276.515,-60.3115C286.415,-50.5612 297.891,-39.259 306.707,-30.5765"/>
<polygon fill="midnightblue" stroke="midnightblue" points="273.99,-57.8853 269.321,-67.396 278.902,-62.8728 273.99,-57.8853"/>
</g>
<!-- Node17 -->
<g id="node5" class="node"><title>Node17</title>
<g id="a_node5"><a xlink:href="inparam__pam_8hpp.html" target="_top" xlink:title="Definition of PAM program parameters.">
<polygon fill="white" stroke="black" points="396,-0.5 396,-30.5 510,-30.5 510,-0.5 396,-0.5"/>
<text text-anchor="start" x="404" y="-18.5" font-family="Helvetica,sans-Serif" font-size="10.00">include_inout/inparam</text>
<text text-anchor="middle" x="453" y="-7.5" font-family="Helvetica,sans-Serif" font-size="10.00">_pam.hpp</text>
</a>
</g>
</g>
<!-- Node13&#45;&gt;Node17 -->
<g id="edge4" class="edge"><title>Node13&#45;&gt;Node17</title>
<path fill="none" stroke="midnightblue" d="M307.614,-64.2278C339.643,-53.7131 380.042,-40.4508 410.121,-30.5765"/>
<polygon fill="midnightblue" stroke="midnightblue" points="306.372,-60.9514 297.963,-67.396 308.556,-67.6022 306.372,-60.9514"/>
</g>
</g>
</svg>
