<?xml version="1.0" encoding="UTF-8" standalone="no"?>
<!DOCTYPE svg PUBLIC "-//W3C//DTD SVG 1.1//EN"
 "http://www.w3.org/Graphics/SVG/1.1/DTD/svg11.dtd">
<!-- Generated by graphviz version 2.38.0 (20140413.2041)
 -->
<!-- Title: include_inout/inparam_pcatransmatrix.hpp Pages: 1 -->
<svg width="547pt" height="207pt"
 viewBox="0.00 0.00 546.50 207.00" xmlns="http://www.w3.org/2000/svg" xmlns:xlink="http://www.w3.org/1999/xlink">
<g id="graph0" class="graph" transform="scale(1 1) rotate(0) translate(4 203)">
<title>include_inout/inparam_pcatransmatrix.hpp</title>
<polygon fill="white" stroke="none" points="-4,4 -4,-203 542.5,-203 542.5,4 -4,4"/>
<!-- Node0 -->
<g id="node1" class="node"><title>Node0</title>
<g id="a_node1"><a xlink:title="Definition of PCA program parameters for calculate transformation matrix.">
<polygon fill="#bfbfbf" stroke="black" points="220,-168.5 220,-198.5 334,-198.5 334,-168.5 220,-168.5"/>
<text text-anchor="start" x="228" y="-186.5" font-family="Helvetica,sans-Serif" font-size="10.00">include_inout/inparam</text>
<text text-anchor="middle" x="277" y="-175.5" font-family="Helvetica,sans-Serif" font-size="10.00">_pcatransmatrix.hpp</text>
</a>
</g>
</g>
<!-- Node1 -->
<g id="node2" class="node"><title>Node1</title>
<g id="a_node2"><a xlink:href="inparam_8hpp.html" target="_top" xlink:title="Definition of input parameters.">
<polygon fill="white" stroke="black" points="137.5,-112.5 137.5,-131.5 208.5,-131.5 208.5,-112.5 137.5,-112.5"/>
<text text-anchor="middle" x="173" y="-119.5" font-family="Helvetica,sans-Serif" font-size="10.00">inparam.hpp</text>
</a>
</g>
</g>
<!-- Node0&#45;&gt;Node1 -->
<g id="edge1" class="edge"><title>Node0&#45;&gt;Node1</title>
<path fill="none" stroke="midnightblue" d="M252.353,-168.399C235.683,-158.862 213.769,-146.325 197.195,-136.842"/>
<polygon fill="midnightblue" stroke="midnightblue" points="198.551,-133.586 188.133,-131.658 195.075,-139.662 198.551,-133.586"/>
</g>
<!-- Node10 -->
<g id="node11" class="node"><title>Node10</title>
<g id="a_node11"><a xlink:href="inparam__readinst_8hpp.html" target="_top" xlink:title="Definition of input parameters.">
<polygon fill="white" stroke="black" points="325,-112.5 325,-131.5 437,-131.5 437,-112.5 325,-112.5"/>
<text text-anchor="middle" x="381" y="-119.5" font-family="Helvetica,sans-Serif" font-size="10.00">inparam_readinst.hpp</text>
</a>
</g>
</g>
<!-- Node0&#45;&gt;Node10 -->
<g id="edge11" class="edge"><title>Node0&#45;&gt;Node10</title>
<path fill="none" stroke="midnightblue" d="M301.647,-168.399C318.317,-158.862 340.231,-146.325 356.805,-136.842"/>
<polygon fill="midnightblue" stroke="midnightblue" points="358.925,-139.662 365.867,-131.658 355.449,-133.586 358.925,-139.662"/>
</g>
<!-- Node2 -->
<g id="node3" class="node"><title>Node2</title>
<g id="a_node3"><a xlink:title=" ">
<polygon fill="white" stroke="#bfbfbf" points="0,-56.5 0,-75.5 50,-75.5 50,-56.5 0,-56.5"/>
<text text-anchor="middle" x="25" y="-63.5" font-family="Helvetica,sans-Serif" font-size="10.00">cstddef</text>
</a>
</g>
</g>
<!-- Node1&#45;&gt;Node2 -->
<g id="edge2" class="edge"><title>Node1&#45;&gt;Node2</title>
<path fill="none" stroke="midnightblue" d="M149.549,-112.444C124.867,-103.438 85.8147,-89.1891 58.0233,-79.049"/>
<polygon fill="midnightblue" stroke="midnightblue" points="58.9352,-75.6561 48.3413,-75.5164 56.5359,-82.2321 58.9352,-75.6561"/>
</g>
<!-- Node3 -->
<g id="node4" class="node"><title>Node3</title>
<g id="a_node4"><a xlink:title=" ">
<polygon fill="white" stroke="#bfbfbf" points="68.5,-56.5 68.5,-75.5 111.5,-75.5 111.5,-56.5 68.5,-56.5"/>
<text text-anchor="middle" x="90" y="-63.5" font-family="Helvetica,sans-Serif" font-size="10.00">time.h</text>
</a>
</g>
</g>
<!-- Node1&#45;&gt;Node3 -->
<g id="edge3" class="edge"><title>Node1&#45;&gt;Node3</title>
<path fill="none" stroke="midnightblue" d="M159.665,-112.324C146.838,-103.979 127.215,-91.2122 112.06,-81.3524"/>
<polygon fill="midnightblue" stroke="midnightblue" points="113.593,-78.1742 103.302,-75.6545 109.776,-84.0417 113.593,-78.1742"/>
</g>
<!-- Node4 -->
<g id="node5" class="node"><title>Node4</title>
<g id="a_node5"><a xlink:href="outfilename_8hpp.html" target="_top" xlink:title="out file name">
<polygon fill="white" stroke="black" points="130,-56.5 130,-75.5 216,-75.5 216,-56.5 130,-56.5"/>
<text text-anchor="middle" x="173" y="-63.5" font-family="Helvetica,sans-Serif" font-size="10.00">outfilename.hpp</text>
</a>
</g>
</g>
<!-- Node1&#45;&gt;Node4 -->
<g id="edge4" class="edge"><title>Node1&#45;&gt;Node4</title>
<path fill="none" stroke="midnightblue" d="M173,-112.083C173,-105.006 173,-94.8611 173,-85.9865"/>
<polygon fill="midnightblue" stroke="midnightblue" points="176.5,-85.751 173,-75.7511 169.5,-85.7511 176.5,-85.751"/>
</g>
<!-- Node8 -->
<g id="node9" class="node"><title>Node8</title>
<g id="a_node9"><a xlink:href="getsubopt_8hpp.html" target="_top" xlink:title=" ">
<polygon fill="white" stroke="black" points="234,-56.5 234,-75.5 312,-75.5 312,-56.5 234,-56.5"/>
<text text-anchor="middle" x="273" y="-63.5" font-family="Helvetica,sans-Serif" font-size="10.00">getsubopt.hpp</text>
</a>
</g>
</g>
<!-- Node1&#45;&gt;Node8 -->
<g id="edge8" class="edge"><title>Node1&#45;&gt;Node8</title>
<path fill="none" stroke="midnightblue" d="M189.067,-112.324C204.958,-103.743 229.507,-90.486 247.958,-80.5224"/>
<polygon fill="midnightblue" stroke="midnightblue" points="249.837,-83.4857 256.973,-75.6545 246.511,-77.3264 249.837,-83.4857"/>
</g>
<!-- Node5 -->
<g id="node6" class="node"><title>Node5</title>
<g id="a_node6"><a xlink:title=" ">
<polygon fill="white" stroke="#bfbfbf" points="74,-0.5 74,-19.5 130,-19.5 130,-0.5 74,-0.5"/>
<text text-anchor="middle" x="102" y="-7.5" font-family="Helvetica,sans-Serif" font-size="10.00">iostream</text>
</a>
</g>
</g>
<!-- Node4&#45;&gt;Node5 -->
<g id="edge5" class="edge"><title>Node4&#45;&gt;Node5</title>
<path fill="none" stroke="midnightblue" d="M161.593,-56.324C150.891,-48.1849 134.659,-35.8395 121.837,-26.0874"/>
<polygon fill="midnightblue" stroke="midnightblue" points="123.693,-23.1018 113.615,-19.8339 119.456,-28.6734 123.693,-23.1018"/>
</g>
<!-- Node6 -->
<g id="node7" class="node"><title>Node6</title>
<g id="a_node7"><a xlink:title=" ">
<polygon fill="white" stroke="#bfbfbf" points="148,-0.5 148,-19.5 198,-19.5 198,-0.5 148,-0.5"/>
<text text-anchor="middle" x="173" y="-7.5" font-family="Helvetica,sans-Serif" font-size="10.00">fstream</text>
</a>
</g>
</g>
<!-- Node4&#45;&gt;Node6 -->
<g id="edge6" class="edge"><title>Node4&#45;&gt;Node6</title>
<path fill="none" stroke="midnightblue" d="M173,-56.083C173,-49.0059 173,-38.8611 173,-29.9865"/>
<polygon fill="midnightblue" stroke="midnightblue" points="176.5,-29.751 173,-19.7511 169.5,-29.7511 176.5,-29.751"/>
</g>
<!-- Node7 -->
<g id="node8" class="node"><title>Node7</title>
<g id="a_node8"><a xlink:title=" ">
<polygon fill="white" stroke="#bfbfbf" points="216,-0.5 216,-19.5 264,-19.5 264,-0.5 216,-0.5"/>
<text text-anchor="middle" x="240" y="-7.5" font-family="Helvetica,sans-Serif" font-size="10.00">string.h</text>
</a>
</g>
</g>
<!-- Node4&#45;&gt;Node7 -->
<g id="edge7" class="edge"><title>Node4&#45;&gt;Node7</title>
<path fill="none" stroke="midnightblue" d="M183.765,-56.324C193.766,-48.2631 208.887,-36.0765 220.93,-26.3695"/>
<polygon fill="midnightblue" stroke="midnightblue" points="223.45,-28.8343 229.039,-19.8339 219.057,-23.3841 223.45,-28.8343"/>
</g>
<!-- Node8&#45;&gt;Node7 -->
<g id="edge10" class="edge"><title>Node8&#45;&gt;Node7</title>
<path fill="none" stroke="midnightblue" d="M267.551,-56.083C262.986,-48.6127 256.332,-37.7244 250.707,-28.5199"/>
<polygon fill="midnightblue" stroke="midnightblue" points="253.549,-26.4588 245.348,-19.7511 247.576,-30.109 253.549,-26.4588"/>
</g>
<!-- Node9 -->
<g id="node10" class="node"><title>Node9</title>
<g id="a_node10"><a xlink:title=" ">
<polygon fill="white" stroke="#bfbfbf" points="282.5,-0.5 282.5,-19.5 329.5,-19.5 329.5,-0.5 282.5,-0.5"/>
<text text-anchor="middle" x="306" y="-7.5" font-family="Helvetica,sans-Serif" font-size="10.00">stdlib.h</text>
</a>
</g>
</g>
<!-- Node8&#45;&gt;Node9 -->
<g id="edge9" class="edge"><title>Node8&#45;&gt;Node9</title>
<path fill="none" stroke="midnightblue" d="M278.449,-56.083C283.014,-48.6127 289.668,-37.7244 295.293,-28.5199"/>
<polygon fill="midnightblue" stroke="midnightblue" points="298.424,-30.109 300.652,-19.7511 292.451,-26.4588 298.424,-30.109"/>
</g>
<!-- Node11 -->
<g id="node12" class="node"><title>Node11</title>
<g id="a_node12"><a xlink:title=" ">
<polygon fill="white" stroke="#bfbfbf" points="330.5,-56.5 330.5,-75.5 371.5,-75.5 371.5,-56.5 330.5,-56.5"/>
<text text-anchor="middle" x="351" y="-63.5" font-family="Helvetica,sans-Serif" font-size="10.00">string</text>
</a>
</g>
</g>
<!-- Node10&#45;&gt;Node11 -->
<g id="edge12" class="edge"><title>Node10&#45;&gt;Node11</title>
<path fill="none" stroke="midnightblue" d="M376.046,-112.083C371.896,-104.613 365.847,-93.7244 360.733,-84.5199"/>
<polygon fill="midnightblue" stroke="midnightblue" points="363.778,-82.7929 355.862,-75.7511 357.659,-86.1924 363.778,-82.7929"/>
</g>
<!-- Node12 -->
<g id="node13" class="node"><title>Node12</title>
<g id="a_node13"><a xlink:title=" ">
<polygon fill="white" stroke="#bfbfbf" points="390,-56.5 390,-75.5 434,-75.5 434,-56.5 390,-56.5"/>
<text text-anchor="middle" x="412" y="-63.5" font-family="Helvetica,sans-Serif" font-size="10.00">vector</text>
</a>
</g>
</g>
<!-- Node10&#45;&gt;Node12 -->
<g id="edge13" class="edge"><title>Node10&#45;&gt;Node12</title>
<path fill="none" stroke="midnightblue" d="M386.119,-112.083C390.408,-104.613 396.658,-93.7244 401.942,-84.5199"/>
<polygon fill="midnightblue" stroke="midnightblue" points="405.033,-86.1662 406.976,-75.7511 398.962,-82.6811 405.033,-86.1662"/>
</g>
<!-- Node13 -->
<g id="node14" class="node"><title>Node13</title>
<g id="a_node14"><a xlink:href="common_8hpp.html" target="_top" xlink:title="common">
<polygon fill="white" stroke="black" points="452,-56.5 452,-75.5 526,-75.5 526,-56.5 452,-56.5"/>
<text text-anchor="middle" x="489" y="-63.5" font-family="Helvetica,sans-Serif" font-size="10.00">common.hpp</text>
</a>
</g>
</g>
<!-- Node10&#45;&gt;Node13 -->
<g id="edge14" class="edge"><title>Node10&#45;&gt;Node13</title>
<path fill="none" stroke="midnightblue" d="M398.352,-112.324C415.672,-103.664 442.515,-90.2424 462.502,-80.249"/>
<polygon fill="midnightblue" stroke="midnightblue" points="464.312,-83.2572 471.691,-75.6545 461.181,-76.9962 464.312,-83.2572"/>
</g>
<!-- Node14 -->
<g id="node15" class="node"><title>Node14</title>
<g id="a_node15"><a xlink:title=" ">
<polygon fill="white" stroke="#bfbfbf" points="434.5,-0.5 434.5,-19.5 481.5,-19.5 481.5,-0.5 434.5,-0.5"/>
<text text-anchor="middle" x="458" y="-7.5" font-family="Helvetica,sans-Serif" font-size="10.00">stdint.h</text>
</a>
</g>
</g>
<!-- Node13&#45;&gt;Node14 -->
<g id="edge15" class="edge"><title>Node13&#45;&gt;Node14</title>
<path fill="none" stroke="midnightblue" d="M483.881,-56.083C479.592,-48.6127 473.342,-37.7244 468.058,-28.5199"/>
<polygon fill="midnightblue" stroke="midnightblue" points="471.038,-26.6811 463.024,-19.7511 464.967,-30.1662 471.038,-26.6811"/>
</g>
<!-- Node15 -->
<g id="node16" class="node"><title>Node15</title>
<g id="a_node16"><a xlink:title=" ">
<polygon fill="white" stroke="#bfbfbf" points="499.5,-0.5 499.5,-19.5 538.5,-19.5 538.5,-0.5 499.5,-0.5"/>
<text text-anchor="middle" x="519" y="-7.5" font-family="Helvetica,sans-Serif" font-size="10.00">limits</text>
</a>
</g>
</g>
<!-- Node13&#45;&gt;Node15 -->
<g id="edge16" class="edge"><title>Node13&#45;&gt;Node15</title>
<path fill="none" stroke="midnightblue" d="M493.954,-56.083C498.104,-48.6127 504.153,-37.7244 509.267,-28.5199"/>
<polygon fill="midnightblue" stroke="midnightblue" points="512.341,-30.1924 514.138,-19.7511 506.222,-26.7929 512.341,-30.1924"/>
</g>
</g>
</svg>
