<?xml version="1.0" encoding="UTF-8" standalone="no"?>
<!DOCTYPE svg PUBLIC "-//W3C//DTD SVG 1.1//EN"
 "http://www.w3.org/Graphics/SVG/1.1/DTD/svg11.dtd">
<!-- Generated by graphviz version 2.38.0 (20140413.2041)
 -->
<!-- Title: include/insertion_operator.hpp Pages: 1 -->
<svg width="210pt" height="140pt"
 viewBox="0.00 0.00 210.00 140.00" xmlns="http://www.w3.org/2000/svg" xmlns:xlink="http://www.w3.org/1999/xlink">
<g id="graph0" class="graph" transform="scale(1 1) rotate(0) translate(4 136)">
<title>include/insertion_operator.hpp</title>
<polygon fill="white" stroke="none" points="-4,4 -4,-136 206,-136 206,4 -4,4"/>
<!-- Node0 -->
<g id="node1" class="node"><title>Node0</title>
<polygon fill="#bfbfbf" stroke="black" points="-1.42109e-14,-112.5 -1.42109e-14,-131.5 150,-131.5 150,-112.5 -1.42109e-14,-112.5"/>
<text text-anchor="middle" x="75" y="-119.5" font-family="Helvetica,sans-Serif" font-size="10.00">include/insertion_operator.hpp</text>
</g>
<!-- Node1 -->
<g id="node2" class="node"><title>Node1</title>
<polygon fill="white" stroke="#bfbfbf" points="12,-0.5 12,-19.5 68,-19.5 68,-0.5 12,-0.5"/>
<text text-anchor="middle" x="40" y="-7.5" font-family="Helvetica,sans-Serif" font-size="10.00">iostream</text>
</g>
<!-- Node0&#45;&gt;Node1 -->
<g id="edge1" class="edge"><title>Node0&#45;&gt;Node1</title>
<path fill="none" stroke="midnightblue" d="M71.7855,-112.423C68.4446,-103.406 63.136,-88.7798 59,-76 53.9658,-60.4449 48.7943,-42.609 45.1202,-29.5603"/>
<polygon fill="midnightblue" stroke="midnightblue" points="48.4787,-28.5734 42.4221,-19.8804 41.7357,-30.453 48.4787,-28.5734"/>
</g>
<!-- Node2 -->
<g id="node3" class="node"><title>Node2</title>
<g id="a_node3"><a xlink:href="outfilename_8hpp.html" target="_top" xlink:title="out file name ">
<polygon fill="white" stroke="black" points="68,-56.5 68,-75.5 154,-75.5 154,-56.5 68,-56.5"/>
<text text-anchor="middle" x="111" y="-63.5" font-family="Helvetica,sans-Serif" font-size="10.00">outfilename.hpp</text>
</a>
</g>
</g>
<!-- Node0&#45;&gt;Node2 -->
<g id="edge2" class="edge"><title>Node0&#45;&gt;Node2</title>
<path fill="none" stroke="midnightblue" d="M80.9447,-112.083C85.9773,-104.534 93.3368,-93.4948 99.5135,-84.2298"/>
<polygon fill="midnightblue" stroke="midnightblue" points="102.531,-86.0131 105.166,-75.7511 96.7067,-82.1301 102.531,-86.0131"/>
</g>
<!-- Node2&#45;&gt;Node1 -->
<g id="edge3" class="edge"><title>Node2&#45;&gt;Node1</title>
<path fill="none" stroke="midnightblue" d="M99.5926,-56.324C88.8912,-48.1849 72.6593,-35.8395 59.8372,-26.0874"/>
<polygon fill="midnightblue" stroke="midnightblue" points="61.6932,-23.1018 51.6149,-19.8339 57.4556,-28.6734 61.6932,-23.1018"/>
</g>
<!-- Node3 -->
<g id="node4" class="node"><title>Node3</title>
<polygon fill="white" stroke="#bfbfbf" points="86,-0.5 86,-19.5 136,-19.5 136,-0.5 86,-0.5"/>
<text text-anchor="middle" x="111" y="-7.5" font-family="Helvetica,sans-Serif" font-size="10.00">fstream</text>
</g>
<!-- Node2&#45;&gt;Node3 -->
<g id="edge4" class="edge"><title>Node2&#45;&gt;Node3</title>
<path fill="none" stroke="midnightblue" d="M111,-56.083C111,-49.0059 111,-38.8611 111,-29.9865"/>
<polygon fill="midnightblue" stroke="midnightblue" points="114.5,-29.751 111,-19.7511 107.5,-29.7511 114.5,-29.751"/>
</g>
<!-- Node4 -->
<g id="node5" class="node"><title>Node4</title>
<polygon fill="white" stroke="#bfbfbf" points="154,-0.5 154,-19.5 202,-19.5 202,-0.5 154,-0.5"/>
<text text-anchor="middle" x="178" y="-7.5" font-family="Helvetica,sans-Serif" font-size="10.00">string.h</text>
</g>
<!-- Node2&#45;&gt;Node4 -->
<g id="edge5" class="edge"><title>Node2&#45;&gt;Node4</title>
<path fill="none" stroke="midnightblue" d="M121.765,-56.324C131.766,-48.2631 146.887,-36.0765 158.93,-26.3695"/>
<polygon fill="midnightblue" stroke="midnightblue" points="161.45,-28.8343 167.039,-19.8339 157.057,-23.3841 161.45,-28.8343"/>
</g>
</g>
</svg>
