<?xml version="1.0" encoding="UTF-8" standalone="no"?>
<!DOCTYPE svg PUBLIC "-//W3C//DTD SVG 1.1//EN"
 "http://www.w3.org/Graphics/SVG/1.1/DTD/svg11.dtd">
<!-- Generated by graphviz version 2.38.0 (20140413.2041)
 -->
<!-- Title: include/instance_interfazclass.hpp Pages: 1 -->
<svg width="394pt" height="140pt"
 viewBox="0.00 0.00 393.50 140.00" xmlns="http://www.w3.org/2000/svg" xmlns:xlink="http://www.w3.org/1999/xlink">
<g id="graph0" class="graph" transform="scale(1 1) rotate(0) translate(4 136)">
<title>include/instance_interfazclass.hpp</title>
<polygon fill="white" stroke="none" points="-4,4 -4,-136 389.5,-136 389.5,4 -4,4"/>
<!-- Node0 -->
<g id="node1" class="node"><title>Node0</title>
<polygon fill="#bfbfbf" stroke="black" points="38.5,-112.5 38.5,-131.5 207.5,-131.5 207.5,-112.5 38.5,-112.5"/>
<text text-anchor="middle" x="123" y="-119.5" font-family="Helvetica,sans-Serif" font-size="10.00">include/instance_interfazclass.hpp</text>
</g>
<!-- Node1 -->
<g id="node2" class="node"><title>Node1</title>
<g id="a_node2"><a xlink:href="common__clustering_8hpp.html" target="_top" xlink:title="common clustering ">
<polygon fill="white" stroke="black" points="1,-56.5 1,-75.5 123,-75.5 123,-56.5 1,-56.5"/>
<text text-anchor="middle" x="62" y="-63.5" font-family="Helvetica,sans-Serif" font-size="10.00">common_clustering.hpp</text>
</a>
</g>
</g>
<!-- Node0&#45;&gt;Node1 -->
<g id="edge1" class="edge"><title>Node0&#45;&gt;Node1</title>
<path fill="none" stroke="midnightblue" d="M113.199,-112.324C104.182,-104.341 90.594,-92.3128 79.682,-82.6529"/>
<polygon fill="midnightblue" stroke="midnightblue" points="81.7866,-79.8416 71.979,-75.8339 77.1467,-85.083 81.7866,-79.8416"/>
</g>
<!-- Node2 -->
<g id="node3" class="node"><title>Node2</title>
<g id="a_node3"><a xlink:href="count__label_8hpp.html" target="_top" xlink:title="count label ">
<polygon fill="white" stroke="black" points="141,-56.5 141,-75.5 227,-75.5 227,-56.5 141,-56.5"/>
<text text-anchor="middle" x="184" y="-63.5" font-family="Helvetica,sans-Serif" font-size="10.00">count_label.hpp</text>
</a>
</g>
</g>
<!-- Node0&#45;&gt;Node2 -->
<g id="edge2" class="edge"><title>Node0&#45;&gt;Node2</title>
<path fill="none" stroke="midnightblue" d="M132.801,-112.324C141.818,-104.341 155.406,-92.3128 166.318,-82.6529"/>
<polygon fill="midnightblue" stroke="midnightblue" points="168.853,-85.083 174.021,-75.8339 164.213,-79.8416 168.853,-85.083"/>
</g>
<!-- Node3 -->
<g id="node4" class="node"><title>Node3</title>
<polygon fill="white" stroke="#bfbfbf" points="0,-0.5 0,-19.5 44,-19.5 44,-0.5 0,-0.5"/>
<text text-anchor="middle" x="22" y="-7.5" font-family="Helvetica,sans-Serif" font-size="10.00">vector</text>
</g>
<!-- Node2&#45;&gt;Node3 -->
<g id="edge3" class="edge"><title>Node2&#45;&gt;Node3</title>
<path fill="none" stroke="midnightblue" d="M158.331,-56.4435C130.035,-47.0118 84.4847,-31.8282 53.9124,-21.6375"/>
<polygon fill="midnightblue" stroke="midnightblue" points="54.7589,-18.2304 44.1652,-18.3884 52.5452,-24.8711 54.7589,-18.2304"/>
</g>
<!-- Node4 -->
<g id="node5" class="node"><title>Node4</title>
<polygon fill="white" stroke="#bfbfbf" points="62,-0.5 62,-19.5 98,-19.5 98,-0.5 62,-0.5"/>
<text text-anchor="middle" x="80" y="-7.5" font-family="Helvetica,sans-Serif" font-size="10.00">map</text>
</g>
<!-- Node2&#45;&gt;Node4 -->
<g id="edge4" class="edge"><title>Node2&#45;&gt;Node4</title>
<path fill="none" stroke="midnightblue" d="M167.291,-56.324C150.688,-47.7034 124.998,-34.3643 105.78,-24.3855"/>
<polygon fill="midnightblue" stroke="midnightblue" points="107.156,-21.1565 96.6679,-19.6545 103.93,-27.3689 107.156,-21.1565"/>
</g>
<!-- Node5 -->
<g id="node6" class="node"><title>Node5</title>
<polygon fill="white" stroke="#bfbfbf" points="116,-0.5 116,-19.5 174,-19.5 174,-0.5 116,-0.5"/>
<text text-anchor="middle" x="145" y="-7.5" font-family="Helvetica,sans-Serif" font-size="10.00">algorithm</text>
</g>
<!-- Node2&#45;&gt;Node5 -->
<g id="edge5" class="edge"><title>Node2&#45;&gt;Node5</title>
<path fill="none" stroke="midnightblue" d="M177.56,-56.083C172.051,-48.4554 163.969,-37.2645 157.235,-27.9408"/>
<polygon fill="midnightblue" stroke="midnightblue" points="160.013,-25.8087 151.32,-19.7511 154.338,-29.9071 160.013,-25.8087"/>
</g>
<!-- Node6 -->
<g id="node7" class="node"><title>Node6</title>
<polygon fill="white" stroke="#bfbfbf" points="192.5,-0.5 192.5,-19.5 251.5,-19.5 251.5,-0.5 192.5,-0.5"/>
<text text-anchor="middle" x="222" y="-7.5" font-family="Helvetica,sans-Serif" font-size="10.00">functional</text>
</g>
<!-- Node2&#45;&gt;Node6 -->
<g id="edge6" class="edge"><title>Node2&#45;&gt;Node6</title>
<path fill="none" stroke="midnightblue" d="M190.275,-56.083C195.642,-48.4554 203.518,-37.2645 210.079,-27.9408"/>
<polygon fill="midnightblue" stroke="midnightblue" points="212.949,-29.9434 215.842,-19.7511 207.225,-25.9149 212.949,-29.9434"/>
</g>
<!-- Node7 -->
<g id="node8" class="node"><title>Node7</title>
<polygon fill="white" stroke="#bfbfbf" points="270,-0.5 270,-19.5 326,-19.5 326,-0.5 270,-0.5"/>
<text text-anchor="middle" x="298" y="-7.5" font-family="Helvetica,sans-Serif" font-size="10.00">iostream</text>
</g>
<!-- Node2&#45;&gt;Node7 -->
<g id="edge7" class="edge"><title>Node2&#45;&gt;Node7</title>
<path fill="none" stroke="midnightblue" d="M202.064,-56.4435C220.575,-47.6751 249.581,-33.9355 270.855,-23.8579"/>
<polygon fill="midnightblue" stroke="midnightblue" points="272.482,-26.9604 280.021,-19.5164 269.485,-20.6343 272.482,-26.9604"/>
</g>
<!-- Node8 -->
<g id="node9" class="node"><title>Node8</title>
<polygon fill="white" stroke="#bfbfbf" points="344.5,-0.5 344.5,-19.5 385.5,-19.5 385.5,-0.5 344.5,-0.5"/>
<text text-anchor="middle" x="365" y="-7.5" font-family="Helvetica,sans-Serif" font-size="10.00">string</text>
</g>
<!-- Node2&#45;&gt;Node8 -->
<g id="edge8" class="edge"><title>Node2&#45;&gt;Node8</title>
<path fill="none" stroke="midnightblue" d="M212.671,-56.4725C241.15,-47.9986 286.316,-34.5495 334.641,-20.1033"/>
<polygon fill="midnightblue" stroke="midnightblue" points="335.766,-23.4201 344.345,-17.202 333.761,-16.7135 335.766,-23.4201"/>
</g>
</g>
</svg>
