<?xml version="1.0" encoding="UTF-8" standalone="no"?>
<!DOCTYPE svg PUBLIC "-//W3C//DTD SVG 1.1//EN"
 "http://www.w3.org/Graphics/SVG/1.1/DTD/svg11.dtd">
<!-- Generated by graphviz version 2.38.0 (20140413.2041)
 -->
<!-- Title: include/instance_class_frequency.hpp Pages: 1 -->
<svg width="469pt" height="173pt"
 viewBox="0.00 0.00 469.00 173.00" xmlns="http://www.w3.org/2000/svg" xmlns:xlink="http://www.w3.org/1999/xlink">
<g id="graph0" class="graph" transform="scale(1 1) rotate(0) translate(4 169)">
<title>include/instance_class_frequency.hpp</title>
<polygon fill="white" stroke="none" points="-4,4 -4,-169 465,-169 465,4 -4,4"/>
<!-- Node22 -->
<g id="node1" class="node"><title>Node22</title>
<polygon fill="#bfbfbf" stroke="black" points="179,-134.5 179,-164.5 298,-164.5 298,-134.5 179,-134.5"/>
<text text-anchor="start" x="187" y="-152.5" font-family="Helvetica,sans-Serif" font-size="10.00">include/instance_class</text>
<text text-anchor="middle" x="238.5" y="-141.5" font-family="Helvetica,sans-Serif" font-size="10.00">_frequency.hpp</text>
</g>
<!-- Node23 -->
<g id="node2" class="node"><title>Node23</title>
<g id="a_node2"><a xlink:href="instances__read_8hpp.html" target="_top" xlink:title="instances read ">
<polygon fill="white" stroke="black" points="178,-67.5 178,-97.5 299,-97.5 299,-67.5 178,-67.5"/>
<text text-anchor="start" x="186" y="-85.5" font-family="Helvetica,sans-Serif" font-size="10.00">include_inout/instances</text>
<text text-anchor="middle" x="238.5" y="-74.5" font-family="Helvetica,sans-Serif" font-size="10.00">_read.hpp</text>
</a>
</g>
</g>
<!-- Node22&#45;&gt;Node23 -->
<g id="edge1" class="edge"><title>Node22&#45;&gt;Node23</title>
<path fill="none" stroke="midnightblue" d="M238.5,-124.108C238.5,-115.154 238.5,-105.323 238.5,-97.5765"/>
<polygon fill="midnightblue" stroke="midnightblue" points="235,-124.396 238.5,-134.396 242,-124.396 235,-124.396"/>
</g>
<!-- Node24 -->
<g id="node3" class="node"><title>Node24</title>
<g id="a_node3"><a xlink:href="main__gas__clustering_8cpp.html" target="_top" xlink:title="Main program of Evolutionary Algorithms. ">
<polygon fill="white" stroke="black" points="0,-6 0,-25 147,-25 147,-6 0,-6"/>
<text text-anchor="middle" x="73.5" y="-13" font-family="Helvetica,sans-Serif" font-size="10.00">eac/main_gas_clustering.cpp</text>
</a>
</g>
</g>
<!-- Node23&#45;&gt;Node24 -->
<g id="edge2" class="edge"><title>Node23&#45;&gt;Node24</title>
<path fill="none" stroke="midnightblue" d="M193.116,-63.6214C161.179,-51.0403 119.868,-34.7661 95.0947,-25.007"/>
<polygon fill="midnightblue" stroke="midnightblue" points="192.111,-66.9871 202.697,-67.396 194.676,-60.4742 192.111,-66.9871"/>
</g>
<!-- Node25 -->
<g id="node4" class="node"><title>Node25</title>
<g id="a_node4"><a xlink:href="main__plot__clustering_8cpp.html" target="_top" xlink:title="Main program for plot clustering. ">
<polygon fill="white" stroke="black" points="165.5,-6 165.5,-25 311.5,-25 311.5,-6 165.5,-6"/>
<text text-anchor="middle" x="238.5" y="-13" font-family="Helvetica,sans-Serif" font-size="10.00">eac/main_plot_clustering.cpp</text>
</a>
</g>
</g>
<!-- Node23&#45;&gt;Node25 -->
<g id="edge3" class="edge"><title>Node23&#45;&gt;Node25</title>
<path fill="none" stroke="midnightblue" d="M238.5,-57.2495C238.5,-46.017 238.5,-33.3767 238.5,-25.1945"/>
<polygon fill="midnightblue" stroke="midnightblue" points="235,-57.3959 238.5,-67.396 242,-57.396 235,-57.3959"/>
</g>
<!-- Node26 -->
<g id="node5" class="node"><title>Node26</title>
<g id="a_node5"><a xlink:href="main__stdvar__milligan__cooper1988_8cpp.html" target="_top" xlink:title="Main program for the standardization of instances . ">
<polygon fill="white" stroke="black" points="330,-0.5 330,-30.5 461,-30.5 461,-0.5 330,-0.5"/>
<text text-anchor="start" x="338" y="-18.5" font-family="Helvetica,sans-Serif" font-size="10.00">eac/main_stdvar_milligan</text>
<text text-anchor="middle" x="395.5" y="-7.5" font-family="Helvetica,sans-Serif" font-size="10.00">_cooper1988.cpp</text>
</a>
</g>
</g>
<!-- Node23&#45;&gt;Node26 -->
<g id="edge4" class="edge"><title>Node23&#45;&gt;Node26</title>
<path fill="none" stroke="midnightblue" d="M281.87,-63.5442C306.993,-53.143 338.164,-40.238 361.5,-30.5765"/>
<polygon fill="midnightblue" stroke="midnightblue" points="280.467,-60.3368 272.567,-67.396 283.145,-66.8045 280.467,-60.3368"/>
</g>
</g>
</svg>
