<?xml version="1.0" encoding="UTF-8" standalone="no"?>
<!DOCTYPE svg PUBLIC "-//W3C//DTD SVG 1.1//EN"
 "http://www.w3.org/Graphics/SVG/1.1/DTD/svg11.dtd">
<!-- Generated by graphviz version 2.38.0 (20140413.2041)
 -->
<!-- Title: include_inout/instances_read.hpp Pages: 1 -->
<!--zoomable 375 -->
<svg id="main" version="1.1" xmlns="http://www.w3.org/2000/svg" xmlns:xlink="http://www.w3.org/1999/xlink" xml:space="preserve" onload="init(evt)">
<style type="text/css"><![CDATA[
.edge:hover path { stroke: red; }
.edge:hover polygon { stroke: red; fill: red; }
]]></style>
<script type="text/javascript"><![CDATA[
var edges = document.getElementsByTagName('g');
if (edges && edges.length) {
  for (var i=0;i<edges.length;i++) {
    if (edges[i].id.substr(0,4)=='edge') {
      edges[i].setAttribute('class','edge');
    }
  }
}
]]></script>
        <defs>
                <circle id="rim" cx="0" cy="0" r="7"/>
                <circle id="rim2" cx="0" cy="0" r="3.5"/>
                <g id="zoomPlus">
                        <use xlink:href="#rim" fill="#404040">
                                <set attributeName="fill" to="#808080" begin="zoomplus.mouseover" end="zoomplus.mouseout"/>
                        </use>
                        <path d="M-4,0h8M0,-4v8" fill="none" stroke="white" stroke-width="1.5" pointer-events="none"/>
                </g>
                <g id="zoomMin">
                        <use xlink:href="#rim" fill="#404040">
                                <set attributeName="fill" to="#808080" begin="zoomminus.mouseover" end="zoomminus.mouseout"/>
                        </use>
                        <path d="M-4,0h8" fill="none" stroke="white" stroke-width="1.5" pointer-events="none"/>
                </g>
                <g id="dirArrow">
                        <path fill="none" stroke="white" stroke-width="1.5" d="M0,-3.0v7 M-2.5,-0.5L0,-3.0L2.5,-0.5"/>
                </g>
               <g id="resetDef">
                       <use xlink:href="#rim2" fill="#404040">
                               <set attributeName="fill" to="#808080" begin="reset.mouseover" end="reset.mouseout"/>
                       </use>
               </g>
        </defs>

<script type="text/javascript">
var viewWidth = 1645;
var viewHeight = 375;
var sectionId = 'dynsection-0';
</script>
<script xlink:href="svgpan.js"/>
<svg id="graph" class="graph">
<g id="viewport">
<title>include_inout/instances_read.hpp</title>
<polygon fill="white" stroke="none" points="-4,4 -4,-371 1641,-371 1641,4 -4,4"/>
<!-- Node0 -->
<g id="node1" class="node"><title>Node0</title>
<g id="a_node1"><a xlink:title="instances read">
<polygon fill="#bfbfbf" stroke="black" points="954.5,-336.5 954.5,-366.5 1075.5,-366.5 1075.5,-336.5 954.5,-336.5"/>
<text text-anchor="start" x="962.5" y="-354.5" font-family="Helvetica,sans-Serif" font-size="10.00">include_inout/instances</text>
<text text-anchor="middle" x="1015" y="-343.5" font-family="Helvetica,sans-Serif" font-size="10.00">_read.hpp</text>
</a>
</g>
</g>
<!-- Node1 -->
<g id="node2" class="node"><title>Node1</title>
<g id="a_node2"><a xlink:title=" ">
<polygon fill="white" stroke="#bfbfbf" points="803,-56.5 803,-75.5 859,-75.5 859,-56.5 803,-56.5"/>
<text text-anchor="middle" x="831" y="-63.5" font-family="Helvetica,sans-Serif" font-size="10.00">iostream</text>
</a>
</g>
</g>
<!-- Node0&#45;&gt;Node1 -->
<g id="edge1" class="edge"><title>Node0&#45;&gt;Node1</title>
<path fill="none" stroke="midnightblue" d="M972.779,-336.34C915.653,-314.622 816.058,-267.084 774,-188 754.31,-150.976 790.763,-105.976 813.949,-82.676"/>
<polygon fill="midnightblue" stroke="midnightblue" points="816.455,-85.1207 821.203,-75.6491 811.585,-80.0929 816.455,-85.1207"/>
</g>
<!-- Node2 -->
<g id="node3" class="node"><title>Node2</title>
<g id="a_node3"><a xlink:title=" ">
<polygon fill="white" stroke="#bfbfbf" points="72.5,-56.5 72.5,-75.5 125.5,-75.5 125.5,-56.5 72.5,-56.5"/>
<text text-anchor="middle" x="99" y="-63.5" font-family="Helvetica,sans-Serif" font-size="10.00">sstream</text>
</a>
</g>
</g>
<!-- Node0&#45;&gt;Node2 -->
<g id="edge2" class="edge"><title>Node0&#45;&gt;Node2</title>
<path fill="none" stroke="midnightblue" d="M954.443,-349.047C762.713,-344.187 176.869,-327.252 96,-300 47.1712,-283.545 0,-286.527 0,-235 0,-235 0,-235 0,-177 0,-133.183 43.9362,-98.9282 73.2695,-80.9413"/>
<polygon fill="midnightblue" stroke="midnightblue" points="75.3633,-83.7703 82.206,-75.6816 71.8126,-77.7377 75.3633,-83.7703"/>
</g>
<!-- Node3 -->
<g id="node4" class="node"><title>Node3</title>
<g id="a_node4"><a xlink:title=" ">
<polygon fill="white" stroke="#bfbfbf" points="1065,-56.5 1065,-75.5 1115,-75.5 1115,-56.5 1065,-56.5"/>
<text text-anchor="middle" x="1090" y="-63.5" font-family="Helvetica,sans-Serif" font-size="10.00">fstream</text>
</a>
</g>
</g>
<!-- Node0&#45;&gt;Node3 -->
<g id="edge3" class="edge"><title>Node0&#45;&gt;Node3</title>
<path fill="none" stroke="midnightblue" d="M1075.68,-348.343C1150.25,-342.071 1267,-318.86 1267,-235 1267,-235 1267,-235 1267,-177 1267,-136.458 1236.78,-134.423 1203,-112 1178.94,-96.0273 1148.34,-84.2778 1125.05,-76.7978"/>
<polygon fill="midnightblue" stroke="midnightblue" points="1125.82,-73.3737 1115.24,-73.7577 1123.75,-80.0601 1125.82,-73.3737"/>
</g>
<!-- Node4 -->
<g id="node5" class="node"><title>Node4</title>
<g id="a_node5"><a xlink:title=" ">
<polygon fill="white" stroke="#bfbfbf" points="439.5,-56.5 439.5,-75.5 480.5,-75.5 480.5,-56.5 439.5,-56.5"/>
<text text-anchor="middle" x="460" y="-63.5" font-family="Helvetica,sans-Serif" font-size="10.00">string</text>
</a>
</g>
</g>
<!-- Node0&#45;&gt;Node4 -->
<g id="edge4" class="edge"><title>Node0&#45;&gt;Node4</title>
<path fill="none" stroke="midnightblue" d="M954.463,-349.595C797.16,-346.754 378.483,-335.944 245,-300 182.24,-283.1 114,-299.995 114,-235 114,-235 114,-235 114,-177 114,-146.902 110.048,-131.47 133,-112 181.52,-70.8398 349.59,-87.9478 429.282,-75.5252"/>
<polygon fill="midnightblue" stroke="midnightblue" points="430.254,-78.9056 439.462,-73.6655 428.996,-72.0196 430.254,-78.9056"/>
</g>
<!-- Node5 -->
<g id="node6" class="node"><title>Node5</title>
<g id="a_node6"><a xlink:title=" ">
<polygon fill="white" stroke="#bfbfbf" points="987,-56.5 987,-75.5 1047,-75.5 1047,-56.5 987,-56.5"/>
<text text-anchor="middle" x="1017" y="-63.5" font-family="Helvetica,sans-Serif" font-size="10.00">stdexcept</text>
</a>
</g>
</g>
<!-- Node0&#45;&gt;Node5 -->
<g id="edge5" class="edge"><title>Node0&#45;&gt;Node5</title>
<path fill="none" stroke="midnightblue" d="M1075.75,-343.697C1139.02,-332.842 1229,-305.083 1229,-235 1229,-235 1229,-235 1229,-177 1229,-138.577 1204.42,-132.628 1172,-112 1162.15,-105.733 1099.45,-88.5573 1056.87,-77.3302"/>
<polygon fill="midnightblue" stroke="midnightblue" points="1057.62,-73.9079 1047.06,-74.7534 1055.84,-80.6784 1057.62,-73.9079"/>
</g>
<!-- Node6 -->
<g id="node7" class="node"><title>Node6</title>
<g id="a_node7"><a xlink:title=" ">
<polygon fill="white" stroke="#bfbfbf" points="592,-56.5 592,-75.5 636,-75.5 636,-56.5 592,-56.5"/>
<text text-anchor="middle" x="614" y="-63.5" font-family="Helvetica,sans-Serif" font-size="10.00">vector</text>
</a>
</g>
</g>
<!-- Node0&#45;&gt;Node6 -->
<g id="edge6" class="edge"><title>Node0&#45;&gt;Node6</title>
<path fill="none" stroke="midnightblue" d="M954.144,-336.625C924.821,-328.449 889.848,-316.435 861,-300 764.912,-245.257 781.898,-184.047 698,-112 682.367,-98.575 662.061,-87.5611 645.331,-79.7901"/>
<polygon fill="midnightblue" stroke="midnightblue" points="646.513,-76.4848 635.956,-75.5957 643.654,-82.8745 646.513,-76.4848"/>
</g>
<!-- Node7 -->
<g id="node8" class="node"><title>Node7</title>
<g id="a_node8"><a xlink:title=" ">
<polygon fill="white" stroke="#bfbfbf" points="1277,-56.5 1277,-75.5 1313,-75.5 1313,-56.5 1277,-56.5"/>
<text text-anchor="middle" x="1295" y="-63.5" font-family="Helvetica,sans-Serif" font-size="10.00">map</text>
</a>
</g>
</g>
<!-- Node0&#45;&gt;Node7 -->
<g id="edge7" class="edge"><title>Node0&#45;&gt;Node7</title>
<path fill="none" stroke="midnightblue" d="M1075.76,-351.157C1139.33,-349.453 1240.36,-339.845 1317,-300 1352.97,-281.299 1381,-275.542 1381,-235 1381,-235 1381,-235 1381,-177 1381,-135.583 1342.69,-100.453 1317.21,-81.6658"/>
<polygon fill="midnightblue" stroke="midnightblue" points="1319,-78.6436 1308.82,-75.7187 1314.95,-84.3555 1319,-78.6436"/>
</g>
<!-- Node8 -->
<g id="node9" class="node"><title>Node8</title>
<g id="a_node9"><a xlink:title=" ">
<polygon fill="white" stroke="#bfbfbf" points="911,-56.5 911,-75.5 969,-75.5 969,-56.5 911,-56.5"/>
<text text-anchor="middle" x="940" y="-63.5" font-family="Helvetica,sans-Serif" font-size="10.00">algorithm</text>
</a>
</g>
</g>
<!-- Node0&#45;&gt;Node8 -->
<g id="edge8" class="edge"><title>Node0&#45;&gt;Node8</title>
<path fill="none" stroke="midnightblue" d="M1030.31,-336.411C1062.19,-305.3 1130.11,-228.68 1097,-168 1082.7,-141.792 1007.67,-100.998 966.729,-80.1841"/>
<polygon fill="midnightblue" stroke="midnightblue" points="968.093,-76.9525 957.587,-75.5814 964.945,-83.2047 968.093,-76.9525"/>
</g>
<!-- Node9 -->
<g id="node10" class="node"><title>Node9</title>
<g id="a_node10"><a xlink:title=" ">
<polygon fill="white" stroke="#bfbfbf" points="1199.5,-56.5 1199.5,-75.5 1258.5,-75.5 1258.5,-56.5 1199.5,-56.5"/>
<text text-anchor="middle" x="1229" y="-63.5" font-family="Helvetica,sans-Serif" font-size="10.00">functional</text>
</a>
</g>
</g>
<!-- Node0&#45;&gt;Node9 -->
<g id="edge9" class="edge"><title>Node0&#45;&gt;Node9</title>
<path fill="none" stroke="midnightblue" d="M1075.67,-350.375C1133.29,-347.78 1220.6,-337.234 1286,-300 1319.39,-280.99 1343,-273.423 1343,-235 1343,-235 1343,-235 1343,-177 1343,-130.115 1292.45,-96.8944 1258.67,-79.9302"/>
<polygon fill="midnightblue" stroke="midnightblue" points="1260.17,-76.7687 1249.64,-75.5787 1257.13,-83.0742 1260.17,-76.7687"/>
</g>
<!-- Node10 -->
<g id="node11" class="node"><title>Node10</title>
<g id="a_node11"><a xlink:title=" ">
<polygon fill="white" stroke="#bfbfbf" points="1041.5,-168.5 1041.5,-187.5 1088.5,-187.5 1088.5,-168.5 1041.5,-168.5"/>
<text text-anchor="middle" x="1065" y="-175.5" font-family="Helvetica,sans-Serif" font-size="10.00">iterator</text>
</a>
</g>
</g>
<!-- Node0&#45;&gt;Node10 -->
<g id="edge10" class="edge"><title>Node0&#45;&gt;Node10</title>
<path fill="none" stroke="midnightblue" d="M1019.09,-336.465C1028.1,-305.57 1049.64,-231.69 1059.68,-197.251"/>
<polygon fill="midnightblue" stroke="midnightblue" points="1063.07,-198.14 1062.5,-187.56 1056.35,-196.18 1063.07,-198.14"/>
</g>
<!-- Node11 -->
<g id="node12" class="node"><title>Node11</title>
<g id="a_node12"><a xlink:title=" ">
<polygon fill="white" stroke="#bfbfbf" points="1409,-280.5 1409,-299.5 1455,-299.5 1455,-280.5 1409,-280.5"/>
<text text-anchor="middle" x="1432" y="-287.5" font-family="Helvetica,sans-Serif" font-size="10.00">cstring</text>
</a>
</g>
</g>
<!-- Node0&#45;&gt;Node11 -->
<g id="edge11" class="edge"><title>Node0&#45;&gt;Node11</title>
<path fill="none" stroke="midnightblue" d="M1075.54,-344.467C1150.79,-336.506 1282.98,-321.005 1395,-300 1396.28,-299.76 1397.58,-299.504 1398.89,-299.235"/>
<polygon fill="midnightblue" stroke="midnightblue" points="1399.98,-302.579 1408.99,-296.999 1398.47,-295.744 1399.98,-302.579"/>
</g>
<!-- Node12 -->
<g id="node13" class="node"><title>Node12</title>
<g id="a_node13"><a xlink:title=" ">
<polygon fill="white" stroke="#bfbfbf" points="1473,-280.5 1473,-299.5 1511,-299.5 1511,-280.5 1473,-280.5"/>
<text text-anchor="middle" x="1492" y="-287.5" font-family="Helvetica,sans-Serif" font-size="10.00">utility</text>
</a>
</g>
</g>
<!-- Node0&#45;&gt;Node12 -->
<g id="edge12" class="edge"><title>Node0&#45;&gt;Node12</title>
<path fill="none" stroke="midnightblue" d="M1075.53,-347.521C1160.41,-342.501 1319.56,-330.013 1463,-299.817"/>
<polygon fill="midnightblue" stroke="midnightblue" points="1463.81,-303.222 1472.86,-297.708 1462.35,-296.377 1463.81,-303.222"/>
</g>
<!-- Node13 -->
<g id="node14" class="node"><title>Node13</title>
<g id="a_node14"><a xlink:title=" ">
<polygon fill="white" stroke="#bfbfbf" points="1529,-280.5 1529,-299.5 1581,-299.5 1581,-280.5 1529,-280.5"/>
<text text-anchor="middle" x="1555" y="-287.5" font-family="Helvetica,sans-Serif" font-size="10.00">stddef.h</text>
</a>
</g>
</g>
<!-- Node0&#45;&gt;Node13 -->
<g id="edge13" class="edge"><title>Node0&#45;&gt;Node13</title>
<path fill="none" stroke="midnightblue" d="M1075.65,-347.42C1169.02,-342.023 1353.63,-328.752 1518.87,-299.954"/>
<polygon fill="midnightblue" stroke="midnightblue" points="1519.48,-303.4 1528.72,-298.214 1518.26,-296.507 1519.48,-303.4"/>
</g>
<!-- Node14 -->
<g id="node15" class="node"><title>Node14</title>
<g id="a_node15"><a xlink:title=" ">
<polygon fill="white" stroke="#bfbfbf" points="1133,-56.5 1133,-75.5 1181,-75.5 1181,-56.5 1133,-56.5"/>
<text text-anchor="middle" x="1157" y="-63.5" font-family="Helvetica,sans-Serif" font-size="10.00">string.h</text>
</a>
</g>
</g>
<!-- Node0&#45;&gt;Node14 -->
<g id="edge14" class="edge"><title>Node0&#45;&gt;Node14</title>
<path fill="none" stroke="midnightblue" d="M1075.69,-349.672C1127.56,-346.342 1202.27,-335.1 1257,-300 1287.23,-280.614 1305,-270.912 1305,-235 1305,-235 1305,-235 1305,-177 1305,-147.088 1226.14,-102.234 1183.55,-80.1891"/>
<polygon fill="midnightblue" stroke="midnightblue" points="1185.06,-77.0282 1174.56,-75.5951 1181.87,-83.2617 1185.06,-77.0282"/>
</g>
<!-- Node15 -->
<g id="node16" class="node"><title>Node15</title>
<g id="a_node16"><a xlink:title=" ">
<polygon fill="white" stroke="#bfbfbf" points="1599,-280.5 1599,-299.5 1637,-299.5 1637,-280.5 1599,-280.5"/>
<text text-anchor="middle" x="1618" y="-287.5" font-family="Helvetica,sans-Serif" font-size="10.00">tuple</text>
</a>
</g>
</g>
<!-- Node0&#45;&gt;Node15 -->
<g id="edge15" class="edge"><title>Node0&#45;&gt;Node15</title>
<path fill="none" stroke="midnightblue" d="M1075.65,-349.609C1179.4,-347.119 1397.47,-337.679 1588.91,-299.774"/>
<polygon fill="midnightblue" stroke="midnightblue" points="1589.76,-303.174 1598.87,-297.771 1588.38,-296.311 1589.76,-303.174"/>
</g>
<!-- Node16 -->
<g id="node17" class="node"><title>Node16</title>
<g id="a_node17"><a xlink:href="instance__class_8hpp.html" target="_top" xlink:title="instance with class">
<polygon fill="white" stroke="black" points="511.5,-224.5 511.5,-243.5 612.5,-243.5 612.5,-224.5 511.5,-224.5"/>
<text text-anchor="middle" x="562" y="-231.5" font-family="Helvetica,sans-Serif" font-size="10.00">instance_class.hpp</text>
</a>
</g>
</g>
<!-- Node0&#45;&gt;Node16 -->
<g id="edge16" class="edge"><title>Node0&#45;&gt;Node16</title>
<path fill="none" stroke="midnightblue" d="M954.264,-347.359C859.938,-341.689 683.223,-327.675 627,-300 604.498,-288.924 585.127,-266.951 573.524,-251.634"/>
<polygon fill="midnightblue" stroke="midnightblue" points="576.335,-249.549 567.624,-243.517 570.673,-253.664 576.335,-249.549"/>
</g>
<!-- Node23 -->
<g id="node24" class="node"><title>Node23</title>
<g id="a_node24"><a xlink:href="verbose__global_8hpp.html" target="_top" xlink:title="verbose global">
<polygon fill="white" stroke="black" points="317,-56.5 317,-75.5 421,-75.5 421,-56.5 317,-56.5"/>
<text text-anchor="middle" x="369" y="-63.5" font-family="Helvetica,sans-Serif" font-size="10.00">verbose_global.hpp</text>
</a>
</g>
</g>
<!-- Node0&#45;&gt;Node23 -->
<g id="edge72" class="edge"><title>Node0&#45;&gt;Node23</title>
<path fill="none" stroke="midnightblue" d="M954.419,-349.545C768.25,-346.259 212.628,-333.705 139,-300 102.419,-283.254 76,-275.231 76,-235 76,-235 76,-235 76,-177 76,-143.537 86.5377,-131.121 114,-112 129.648,-101.105 236.551,-84.8867 306.883,-75.186"/>
<polygon fill="midnightblue" stroke="midnightblue" points="307.547,-78.6278 316.98,-73.8034 306.597,-71.6925 307.547,-78.6278"/>
</g>
<!-- Node27 -->
<g id="node28" class="node"><title>Node27</title>
<g id="a_node28"><a xlink:href="instance__frequency_8hpp.html" target="_top" xlink:title="instance with frequency">
<polygon fill="white" stroke="black" points="233,-224.5 233,-243.5 355,-243.5 355,-224.5 233,-224.5"/>
<text text-anchor="middle" x="294" y="-231.5" font-family="Helvetica,sans-Serif" font-size="10.00">instance_frequency.hpp</text>
</a>
</g>
</g>
<!-- Node0&#45;&gt;Node27 -->
<g id="edge42" class="edge"><title>Node0&#45;&gt;Node27</title>
<path fill="none" stroke="midnightblue" d="M954.281,-350.921C787.405,-351.448 331.17,-348.407 286,-300 274.515,-287.692 278.991,-267.878 284.808,-253.357"/>
<polygon fill="midnightblue" stroke="midnightblue" points="288.151,-254.458 289.071,-243.903 281.769,-251.58 288.151,-254.458"/>
</g>
<!-- Node28 -->
<g id="node29" class="node"><title>Node28</title>
<g id="a_node29"><a xlink:href="instance__class__frequency_8hpp.html" target="_top" xlink:title="instance class with frequency">
<polygon fill="white" stroke="black" points="295.5,-280.5 295.5,-299.5 446.5,-299.5 446.5,-280.5 295.5,-280.5"/>
<text text-anchor="middle" x="371" y="-287.5" font-family="Helvetica,sans-Serif" font-size="10.00">instance_class_frequency.hpp</text>
</a>
</g>
</g>
<!-- Node0&#45;&gt;Node28 -->
<g id="edge44" class="edge"><title>Node0&#45;&gt;Node28</title>
<path fill="none" stroke="midnightblue" d="M954.321,-345.144C852.383,-336.107 640.303,-317.137 461,-300 459.681,-299.874 458.351,-299.746 457.013,-299.618"/>
<polygon fill="midnightblue" stroke="midnightblue" points="456.908,-296.091 446.617,-298.61 456.233,-303.059 456.908,-296.091"/>
</g>
<!-- Node29 -->
<g id="node30" class="node"><title>Node29</title>
<g id="a_node30"><a xlink:href="vector__utils_8hpp.html" target="_top" xlink:title="Operations for vector manipulation.">
<polygon fill="white" stroke="black" points="372.5,-112.5 372.5,-131.5 457.5,-131.5 457.5,-112.5 372.5,-112.5"/>
<text text-anchor="middle" x="415" y="-119.5" font-family="Helvetica,sans-Serif" font-size="10.00">vector_utils.hpp</text>
</a>
</g>
</g>
<!-- Node0&#45;&gt;Node29 -->
<g id="edge47" class="edge"><title>Node0&#45;&gt;Node29</title>
<path fill="none" stroke="midnightblue" d="M954.458,-350.884C871.594,-349.701 719.203,-341.372 597,-300 550.576,-284.283 538.193,-277.049 502,-244 467.591,-212.58 438.539,-165.484 424.335,-140.318"/>
<polygon fill="midnightblue" stroke="midnightblue" points="427.386,-138.603 419.486,-131.544 421.26,-141.989 427.386,-138.603"/>
</g>
<!-- Node30 -->
<g id="node31" class="node"><title>Node30</title>
<g id="a_node31"><a xlink:href="container__out_8hpp.html" target="_top" xlink:title="container out">
<polygon fill="white" stroke="black" points="879.5,-224.5 879.5,-243.5 974.5,-243.5 974.5,-224.5 879.5,-224.5"/>
<text text-anchor="middle" x="927" y="-231.5" font-family="Helvetica,sans-Serif" font-size="10.00">container_out.hpp</text>
</a>
</g>
</g>
<!-- Node0&#45;&gt;Node30 -->
<g id="edge54" class="edge"><title>Node0&#45;&gt;Node30</title>
<path fill="none" stroke="midnightblue" d="M1004.21,-336.337C987.922,-314.96 957.118,-274.53 939.747,-251.731"/>
<polygon fill="midnightblue" stroke="midnightblue" points="942.45,-249.503 933.605,-243.669 936.882,-253.745 942.45,-249.503"/>
</g>
<!-- Node34 -->
<g id="node35" class="node"><title>Node34</title>
<g id="a_node35"><a xlink:href="inparam__readinst_8hpp.html" target="_top" xlink:title="Definition of input parameters.">
<polygon fill="white" stroke="black" points="142,-112.5 142,-131.5 254,-131.5 254,-112.5 142,-112.5"/>
<text text-anchor="middle" x="198" y="-119.5" font-family="Helvetica,sans-Serif" font-size="10.00">inparam_readinst.hpp</text>
</a>
</g>
</g>
<!-- Node0&#45;&gt;Node34 -->
<g id="edge68" class="edge"><title>Node0&#45;&gt;Node34</title>
<path fill="none" stroke="midnightblue" d="M954.267,-348.946C788.295,-344.335 335.436,-329.203 275,-300 215.407,-271.205 201.935,-181.488 198.889,-141.991"/>
<polygon fill="midnightblue" stroke="midnightblue" points="202.374,-141.632 198.258,-131.869 195.387,-142.068 202.374,-141.632"/>
</g>
<!-- Node17 -->
<g id="node18" class="node"><title>Node17</title>
<g id="a_node18"><a xlink:href="instance_8hpp.html" target="_top" xlink:title="Module for the handling of instances or also called objects or points.">
<polygon fill="white" stroke="black" points="258,-168.5 258,-187.5 330,-187.5 330,-168.5 258,-168.5"/>
<text text-anchor="middle" x="294" y="-175.5" font-family="Helvetica,sans-Serif" font-size="10.00">instance.hpp</text>
</a>
</g>
</g>
<!-- Node16&#45;&gt;Node17 -->
<g id="edge17" class="edge"><title>Node16&#45;&gt;Node17</title>
<path fill="none" stroke="midnightblue" d="M519.535,-224.444C470.653,-214.594 390.644,-198.473 340.229,-188.315"/>
<polygon fill="midnightblue" stroke="midnightblue" points="340.745,-184.848 330.25,-186.304 339.362,-191.711 340.745,-184.848"/>
</g>
<!-- Node24 -->
<g id="node25" class="node"><title>Node24</title>
<g id="a_node25"><a xlink:href="instance__interfazclass_8hpp.html" target="_top" xlink:title="Instance with class.">
<polygon fill="white" stroke="black" points="479,-168.5 479,-187.5 613,-187.5 613,-168.5 479,-168.5"/>
<text text-anchor="middle" x="546" y="-175.5" font-family="Helvetica,sans-Serif" font-size="10.00">instance_interfazclass.hpp</text>
</a>
</g>
</g>
<!-- Node16&#45;&gt;Node24 -->
<g id="edge33" class="edge"><title>Node16&#45;&gt;Node24</title>
<path fill="none" stroke="midnightblue" d="M559.358,-224.083C557.214,-216.849 554.121,-206.409 551.451,-197.397"/>
<polygon fill="midnightblue" stroke="midnightblue" points="554.79,-196.345 548.593,-187.751 548.078,-198.333 554.79,-196.345"/>
</g>
<!-- Node18 -->
<g id="node19" class="node"><title>Node18</title>
<g id="a_node19"><a xlink:title=" ">
<polygon fill="white" stroke="#bfbfbf" points="272,-112.5 272,-131.5 316,-131.5 316,-112.5 272,-112.5"/>
<text text-anchor="middle" x="294" y="-119.5" font-family="Helvetica,sans-Serif" font-size="10.00">cmath</text>
</a>
</g>
</g>
<!-- Node17&#45;&gt;Node18 -->
<g id="edge18" class="edge"><title>Node17&#45;&gt;Node18</title>
<path fill="none" stroke="midnightblue" d="M294,-168.083C294,-161.006 294,-150.861 294,-141.986"/>
<polygon fill="midnightblue" stroke="midnightblue" points="297.5,-141.751 294,-131.751 290.5,-141.751 297.5,-141.751"/>
</g>
<!-- Node19 -->
<g id="node20" class="node"><title>Node19</title>
<g id="a_node20"><a xlink:title=" ">
<polygon fill="white" stroke="#bfbfbf" points="45.5,-0.5 45.5,-19.5 84.5,-19.5 84.5,-0.5 45.5,-0.5"/>
<text text-anchor="middle" x="65" y="-7.5" font-family="Helvetica,sans-Serif" font-size="10.00">limits</text>
</a>
</g>
</g>
<!-- Node17&#45;&gt;Node19 -->
<g id="edge19" class="edge"><title>Node17&#45;&gt;Node19</title>
<path fill="none" stroke="midnightblue" d="M257.871,-172.436C222.344,-166.816 167.426,-155.035 125,-132 92.3679,-114.282 78.0764,-109.933 63,-76 56.5537,-61.4909 57.793,-43.3084 60.2194,-29.8662"/>
<polygon fill="midnightblue" stroke="midnightblue" points="63.6873,-30.39 62.3942,-19.8744 56.8474,-28.9013 63.6873,-30.39"/>
</g>
<!-- Node20 -->
<g id="node21" class="node"><title>Node20</title>
<g id="a_node21"><a xlink:href="line__split_8hpp.html" target="_top" xlink:title="line split">
<polygon fill="white" stroke="black" points="475.5,-112.5 475.5,-131.5 548.5,-131.5 548.5,-112.5 475.5,-112.5"/>
<text text-anchor="middle" x="512" y="-119.5" font-family="Helvetica,sans-Serif" font-size="10.00">line_split.hpp</text>
</a>
</g>
</g>
<!-- Node17&#45;&gt;Node20 -->
<g id="edge20" class="edge"><title>Node17&#45;&gt;Node20</title>
<path fill="none" stroke="midnightblue" d="M328.543,-168.444C366.253,-159.102 426.74,-144.119 467.865,-133.933"/>
<polygon fill="midnightblue" stroke="midnightblue" points="468.754,-137.318 477.619,-131.516 467.071,-130.524 468.754,-137.318"/>
</g>
<!-- Node21 -->
<g id="node22" class="node"><title>Node21</title>
<g id="a_node22"><a xlink:href="common_8hpp.html" target="_top" xlink:title="common">
<polygon fill="white" stroke="black" points="193,-56.5 193,-75.5 267,-75.5 267,-56.5 193,-56.5"/>
<text text-anchor="middle" x="230" y="-63.5" font-family="Helvetica,sans-Serif" font-size="10.00">common.hpp</text>
</a>
</g>
</g>
<!-- Node17&#45;&gt;Node21 -->
<g id="edge32" class="edge"><title>Node17&#45;&gt;Node21</title>
<path fill="none" stroke="midnightblue" d="M257.873,-172.008C215.187,-165.284 148.044,-151.825 133,-132 114.486,-107.602 151.611,-89.3618 185.15,-78.5095"/>
<polygon fill="midnightblue" stroke="midnightblue" points="186.387,-81.7914 194.921,-75.5129 184.334,-75.099 186.387,-81.7914"/>
</g>
<!-- Node20&#45;&gt;Node1 -->
<g id="edge21" class="edge"><title>Node20&#45;&gt;Node1</title>
<path fill="none" stroke="midnightblue" d="M548.64,-113.729C551.803,-113.132 554.957,-112.548 558,-112 641.542,-96.9455 739.836,-81.2319 792.705,-72.943"/>
<polygon fill="midnightblue" stroke="midnightblue" points="793.317,-76.39 802.655,-71.3866 792.235,-69.4741 793.317,-76.39"/>
</g>
<!-- Node20&#45;&gt;Node2 -->
<g id="edge22" class="edge"><title>Node20&#45;&gt;Node2</title>
<path fill="none" stroke="midnightblue" d="M475.384,-113.592C472.215,-113.025 469.054,-112.485 466,-112 402.825,-101.96 215.578,-80.2782 135.736,-71.1668"/>
<polygon fill="midnightblue" stroke="midnightblue" points="135.984,-67.6725 125.652,-70.0178 135.191,-74.6275 135.984,-67.6725"/>
</g>
<!-- Node20&#45;&gt;Node3 -->
<g id="edge23" class="edge"><title>Node20&#45;&gt;Node3</title>
<path fill="none" stroke="midnightblue" d="M548.592,-113.426C551.766,-112.895 554.935,-112.409 558,-112 774.738,-83.0716 835.352,-111.688 1054.96,-75.8546"/>
<polygon fill="midnightblue" stroke="midnightblue" points="1055.57,-79.3017 1064.86,-74.2133 1054.43,-72.3959 1055.57,-79.3017"/>
</g>
<!-- Node20&#45;&gt;Node4 -->
<g id="edge26" class="edge"><title>Node20&#45;&gt;Node4</title>
<path fill="none" stroke="midnightblue" d="M503.413,-112.083C495.841,-104.22 484.622,-92.5688 475.486,-83.0813"/>
<polygon fill="midnightblue" stroke="midnightblue" points="477.885,-80.5266 468.427,-75.7511 472.842,-85.3821 477.885,-80.5266"/>
</g>
<!-- Node20&#45;&gt;Node5 -->
<g id="edge24" class="edge"><title>Node20&#45;&gt;Node5</title>
<path fill="none" stroke="midnightblue" d="M548.598,-113.47C551.771,-112.93 554.938,-112.43 558,-112 740.273,-86.4329 791.15,-104.477 976.755,-75.9763"/>
<polygon fill="midnightblue" stroke="midnightblue" points="977.508,-79.4013 986.849,-74.4012 976.429,-72.4849 977.508,-79.4013"/>
</g>
<!-- Node20&#45;&gt;Node6 -->
<g id="edge25" class="edge"><title>Node20&#45;&gt;Node6</title>
<path fill="none" stroke="midnightblue" d="M528.388,-112.324C544.671,-103.703 569.867,-90.3643 588.716,-80.3855"/>
<polygon fill="midnightblue" stroke="midnightblue" points="590.452,-83.4267 597.653,-75.6545 587.177,-77.2402 590.452,-83.4267"/>
</g>
<!-- Node20&#45;&gt;Node14 -->
<g id="edge27" class="edge"><title>Node20&#45;&gt;Node14</title>
<path fill="none" stroke="midnightblue" d="M548.588,-113.397C551.763,-112.872 554.933,-112.396 558,-112 804.694,-80.158 873.547,-116.393 1122.88,-75.8248"/>
<polygon fill="midnightblue" stroke="midnightblue" points="1123.68,-79.241 1132.97,-74.1574 1122.54,-72.3346 1123.68,-79.241"/>
</g>
<!-- Node20&#45;&gt;Node21 -->
<g id="edge28" class="edge"><title>Node20&#45;&gt;Node21</title>
<path fill="none" stroke="midnightblue" d="M475.345,-113.812C472.184,-113.197 469.036,-112.586 466,-112 400.566,-99.3605 324.88,-84.9693 277.228,-75.9364"/>
<polygon fill="midnightblue" stroke="midnightblue" points="277.684,-72.4605 267.207,-74.0374 276.38,-79.3381 277.684,-72.4605"/>
</g>
<!-- Node20&#45;&gt;Node23 -->
<g id="edge31" class="edge"><title>Node20&#45;&gt;Node23</title>
<path fill="none" stroke="midnightblue" d="M489.341,-112.444C465.598,-103.478 428.091,-89.314 401.262,-79.1827"/>
<polygon fill="midnightblue" stroke="midnightblue" points="402.144,-75.7749 391.553,-75.5164 399.671,-82.3235 402.144,-75.7749"/>
</g>
<!-- Node21&#45;&gt;Node19 -->
<g id="edge30" class="edge"><title>Node21&#45;&gt;Node19</title>
<path fill="none" stroke="midnightblue" d="M203.855,-56.4435C174.138,-46.7178 125.733,-30.8764 94.6379,-20.6997"/>
<polygon fill="midnightblue" stroke="midnightblue" points="95.4007,-17.2667 84.808,-17.4826 93.2234,-23.9195 95.4007,-17.2667"/>
</g>
<!-- Node22 -->
<g id="node23" class="node"><title>Node22</title>
<g id="a_node23"><a xlink:title=" ">
<polygon fill="white" stroke="#bfbfbf" points="206.5,-0.5 206.5,-19.5 253.5,-19.5 253.5,-0.5 206.5,-0.5"/>
<text text-anchor="middle" x="230" y="-7.5" font-family="Helvetica,sans-Serif" font-size="10.00">stdint.h</text>
</a>
</g>
</g>
<!-- Node21&#45;&gt;Node22 -->
<g id="edge29" class="edge"><title>Node21&#45;&gt;Node22</title>
<path fill="none" stroke="midnightblue" d="M230,-56.083C230,-49.0059 230,-38.8611 230,-29.9865"/>
<polygon fill="midnightblue" stroke="midnightblue" points="233.5,-29.751 230,-19.7511 226.5,-29.7511 233.5,-29.751"/>
</g>
<!-- Node25 -->
<g id="node26" class="node"><title>Node25</title>
<g id="a_node26"><a xlink:href="common__clustering_8hpp.html" target="_top" xlink:title="common clustering">
<polygon fill="white" stroke="black" points="567,-112.5 567,-131.5 689,-131.5 689,-112.5 567,-112.5"/>
<text text-anchor="middle" x="628" y="-119.5" font-family="Helvetica,sans-Serif" font-size="10.00">common_clustering.hpp</text>
</a>
</g>
</g>
<!-- Node24&#45;&gt;Node25 -->
<g id="edge34" class="edge"><title>Node24&#45;&gt;Node25</title>
<path fill="none" stroke="midnightblue" d="M559.175,-168.324C571.847,-159.979 591.233,-147.212 606.206,-137.352"/>
<polygon fill="midnightblue" stroke="midnightblue" points="608.431,-140.078 614.858,-131.655 604.581,-134.231 608.431,-140.078"/>
</g>
<!-- Node26 -->
<g id="node27" class="node"><title>Node26</title>
<g id="a_node27"><a xlink:href="count__label_8hpp.html" target="_top" xlink:title="count label">
<polygon fill="white" stroke="black" points="897,-112.5 897,-131.5 983,-131.5 983,-112.5 897,-112.5"/>
<text text-anchor="middle" x="940" y="-119.5" font-family="Helvetica,sans-Serif" font-size="10.00">count_label.hpp</text>
</a>
</g>
</g>
<!-- Node24&#45;&gt;Node26 -->
<g id="edge35" class="edge"><title>Node24&#45;&gt;Node26</title>
<path fill="none" stroke="midnightblue" d="M608.43,-168.444C685.159,-157.927 814.058,-140.261 886.467,-130.337"/>
<polygon fill="midnightblue" stroke="midnightblue" points="887.295,-133.756 896.727,-128.931 886.345,-126.821 887.295,-133.756"/>
</g>
<!-- Node26&#45;&gt;Node1 -->
<g id="edge40" class="edge"><title>Node26&#45;&gt;Node1</title>
<path fill="none" stroke="midnightblue" d="M922.487,-112.324C904.928,-103.625 877.669,-90.1202 857.469,-80.113"/>
<polygon fill="midnightblue" stroke="midnightblue" points="858.984,-76.9575 848.469,-75.6545 855.876,-83.23 858.984,-76.9575"/>
</g>
<!-- Node26&#45;&gt;Node4 -->
<g id="edge41" class="edge"><title>Node26&#45;&gt;Node4</title>
<path fill="none" stroke="midnightblue" d="M896.981,-116.16C801.417,-105.409 573.381,-79.7554 490.65,-70.4481"/>
<polygon fill="midnightblue" stroke="midnightblue" points="490.961,-66.9611 480.632,-69.3211 490.178,-73.9172 490.961,-66.9611"/>
</g>
<!-- Node26&#45;&gt;Node6 -->
<g id="edge36" class="edge"><title>Node26&#45;&gt;Node6</title>
<path fill="none" stroke="midnightblue" d="M896.71,-113.829C830.373,-102.841 705.083,-82.0874 646.161,-72.3273"/>
<polygon fill="midnightblue" stroke="midnightblue" points="646.731,-68.874 636.293,-70.6927 645.587,-75.7799 646.731,-68.874"/>
</g>
<!-- Node26&#45;&gt;Node7 -->
<g id="edge37" class="edge"><title>Node26&#45;&gt;Node7</title>
<path fill="none" stroke="midnightblue" d="M983.018,-117.488C1045.95,-111.809 1166.56,-98.8688 1267,-76 1267.1,-75.9773 1267.2,-75.9545 1267.3,-75.9314"/>
<polygon fill="midnightblue" stroke="midnightblue" points="1268.02,-79.3636 1276.75,-73.3695 1266.18,-72.6073 1268.02,-79.3636"/>
</g>
<!-- Node26&#45;&gt;Node8 -->
<g id="edge38" class="edge"><title>Node26&#45;&gt;Node8</title>
<path fill="none" stroke="midnightblue" d="M940,-112.083C940,-105.006 940,-94.8611 940,-85.9865"/>
<polygon fill="midnightblue" stroke="midnightblue" points="943.5,-85.751 940,-75.7511 936.5,-85.7511 943.5,-85.751"/>
</g>
<!-- Node26&#45;&gt;Node9 -->
<g id="edge39" class="edge"><title>Node26&#45;&gt;Node9</title>
<path fill="none" stroke="midnightblue" d="M983.032,-113.909C1030.9,-105.877 1110.75,-92.0461 1189.17,-76.088"/>
<polygon fill="midnightblue" stroke="midnightblue" points="1190.13,-79.4646 1199.22,-74.029 1188.72,-72.607 1190.13,-79.4646"/>
</g>
<!-- Node27&#45;&gt;Node17 -->
<g id="edge43" class="edge"><title>Node27&#45;&gt;Node17</title>
<path fill="none" stroke="midnightblue" d="M294,-224.083C294,-217.006 294,-206.861 294,-197.986"/>
<polygon fill="midnightblue" stroke="midnightblue" points="297.5,-197.751 294,-187.751 290.5,-197.751 297.5,-197.751"/>
</g>
<!-- Node28&#45;&gt;Node24 -->
<g id="edge46" class="edge"><title>Node28&#45;&gt;Node24</title>
<path fill="none" stroke="midnightblue" d="M384.732,-280.368C414.89,-261.412 487.135,-216.001 523.819,-192.942"/>
<polygon fill="midnightblue" stroke="midnightblue" points="525.728,-195.876 532.332,-187.591 522.003,-189.95 525.728,-195.876"/>
</g>
<!-- Node28&#45;&gt;Node27 -->
<g id="edge45" class="edge"><title>Node28&#45;&gt;Node27</title>
<path fill="none" stroke="midnightblue" d="M358.629,-280.324C346.842,-272.058 328.868,-259.453 314.864,-249.632"/>
<polygon fill="midnightblue" stroke="midnightblue" points="316.538,-246.531 306.341,-243.655 312.518,-252.262 316.538,-246.531"/>
</g>
<!-- Node29&#45;&gt;Node1 -->
<g id="edge48" class="edge"><title>Node29&#45;&gt;Node1</title>
<path fill="none" stroke="midnightblue" d="M457.55,-113.321C460.407,-112.858 463.244,-112.413 466,-112 584.975,-94.1805 726.542,-78.2145 792.995,-71.0268"/>
<polygon fill="midnightblue" stroke="midnightblue" points="793.432,-74.5 803,-69.9496 792.683,-67.5402 793.432,-74.5"/>
</g>
<!-- Node29&#45;&gt;Node4 -->
<g id="edge50" class="edge"><title>Node29&#45;&gt;Node4</title>
<path fill="none" stroke="midnightblue" d="M422.431,-112.083C428.853,-104.377 438.306,-93.0333 446.122,-83.6531"/>
<polygon fill="midnightblue" stroke="midnightblue" points="448.994,-85.674 452.707,-75.7511 443.617,-81.1927 448.994,-85.674"/>
</g>
<!-- Node29&#45;&gt;Node6 -->
<g id="edge49" class="edge"><title>Node29&#45;&gt;Node6</title>
<path fill="none" stroke="midnightblue" d="M446.532,-112.444C483.597,-102.386 544.767,-85.7869 582.024,-75.677"/>
<polygon fill="midnightblue" stroke="midnightblue" points="583.124,-79.0052 591.858,-73.0084 581.29,-72.2495 583.124,-79.0052"/>
</g>
<!-- Node29&#45;&gt;Node8 -->
<g id="edge51" class="edge"><title>Node29&#45;&gt;Node8</title>
<path fill="none" stroke="midnightblue" d="M457.535,-113.214C460.395,-112.777 463.237,-112.367 466,-112 643.821,-88.3916 689.641,-95.1277 868,-76 878.615,-74.8616 890.093,-73.4905 900.699,-72.1657"/>
<polygon fill="midnightblue" stroke="midnightblue" points="901.469,-75.5961 910.95,-70.8665 900.589,-68.6517 901.469,-75.5961"/>
</g>
<!-- Node29&#45;&gt;Node21 -->
<g id="edge52" class="edge"><title>Node29&#45;&gt;Node21</title>
<path fill="none" stroke="midnightblue" d="M385.686,-112.444C354.158,-103.241 303.869,-88.5617 269.014,-78.3879"/>
<polygon fill="midnightblue" stroke="midnightblue" points="269.757,-74.9587 259.177,-75.5164 267.795,-81.6783 269.757,-74.9587"/>
</g>
<!-- Node29&#45;&gt;Node23 -->
<g id="edge53" class="edge"><title>Node29&#45;&gt;Node23</title>
<path fill="none" stroke="midnightblue" d="M407.404,-112.083C400.773,-104.298 390.979,-92.8015 382.942,-83.3665"/>
<polygon fill="midnightblue" stroke="midnightblue" points="385.604,-81.0939 376.455,-75.7511 380.275,-85.6332 385.604,-81.0939"/>
</g>
<!-- Node30&#45;&gt;Node1 -->
<g id="edge55" class="edge"><title>Node30&#45;&gt;Node1</title>
<path fill="none" stroke="midnightblue" d="M906.674,-224.366C891.549,-216.905 871.594,-204.685 860,-188 838.3,-156.772 832.731,-111.275 831.369,-85.9002"/>
<polygon fill="midnightblue" stroke="midnightblue" points="834.862,-85.6454 830.997,-75.781 827.867,-85.9029 834.862,-85.6454"/>
</g>
<!-- Node30&#45;&gt;Node6 -->
<g id="edge56" class="edge"><title>Node30&#45;&gt;Node6</title>
<path fill="none" stroke="midnightblue" d="M879.225,-228.388C846.659,-223.139 804.142,-211.929 774,-188 743.604,-163.87 760.393,-137.343 731,-112 706.663,-91.016 671.477,-79.2679 646.053,-73.0824"/>
<polygon fill="midnightblue" stroke="midnightblue" points="646.682,-69.6361 636.155,-70.8329 645.13,-76.462 646.682,-69.6361"/>
</g>
<!-- Node30&#45;&gt;Node7 -->
<g id="edge58" class="edge"><title>Node30&#45;&gt;Node7</title>
<path fill="none" stroke="midnightblue" d="M973.659,-224.461C1008.51,-217.18 1056.85,-205.148 1097,-188 1166.72,-158.222 1240.93,-106.84 1275.35,-81.7061"/>
<polygon fill="midnightblue" stroke="midnightblue" points="1277.62,-84.381 1283.6,-75.6311 1273.47,-78.7456 1277.62,-84.381"/>
</g>
<!-- Node30&#45;&gt;Node8 -->
<g id="edge59" class="edge"><title>Node30&#45;&gt;Node8</title>
<path fill="none" stroke="midnightblue" d="M949.459,-224.382C964.769,-217.184 983.863,-205.288 993,-188 998.674,-177.264 1006.4,-142.77 992,-112 986.15,-99.4967 974.976,-89.1081 964.482,-81.4745"/>
<polygon fill="midnightblue" stroke="midnightblue" points="966.205,-78.4151 955.957,-75.7243 962.29,-84.2182 966.205,-78.4151"/>
</g>
<!-- Node30&#45;&gt;Node10 -->
<g id="edge60" class="edge"><title>Node30&#45;&gt;Node10</title>
<path fill="none" stroke="midnightblue" d="M948.867,-224.444C971.779,-215.478 1007.98,-201.314 1033.87,-191.183"/>
<polygon fill="midnightblue" stroke="midnightblue" points="1035.2,-194.42 1043.24,-187.516 1032.65,-187.901 1035.2,-194.42"/>
</g>
<!-- Node30&#45;&gt;Node21 -->
<g id="edge61" class="edge"><title>Node30&#45;&gt;Node21</title>
<path fill="none" stroke="midnightblue" d="M891.012,-224.452C834.129,-211.141 719.847,-185.204 622,-168 507.538,-147.875 473.632,-167.596 363,-132 344.832,-126.154 342.072,-120.531 325,-112 302.618,-100.815 276.962,-88.7039 257.958,-79.8662"/>
<polygon fill="midnightblue" stroke="midnightblue" points="259.224,-76.5953 248.679,-75.5654 256.28,-82.9463 259.224,-76.5953"/>
</g>
<!-- Node31 -->
<g id="node32" class="node"><title>Node31</title>
<g id="a_node32"><a xlink:title=" ">
<polygon fill="white" stroke="#bfbfbf" points="783.5,-168.5 783.5,-187.5 812.5,-187.5 812.5,-168.5 783.5,-168.5"/>
<text text-anchor="middle" x="798" y="-175.5" font-family="Helvetica,sans-Serif" font-size="10.00">list</text>
</a>
</g>
</g>
<!-- Node30&#45;&gt;Node31 -->
<g id="edge57" class="edge"><title>Node30&#45;&gt;Node31</title>
<path fill="none" stroke="midnightblue" d="M906.56,-224.444C883.581,-214.825 846.312,-199.224 821.978,-189.037"/>
<polygon fill="midnightblue" stroke="midnightblue" points="823.303,-185.798 812.727,-185.165 820.6,-192.255 823.303,-185.798"/>
</g>
<!-- Node32 -->
<g id="node33" class="node"><title>Node32</title>
<g id="a_node33"><a xlink:href="insertion__operator_8hpp.html" target="_top" xlink:title="insertion operator">
<polygon fill="white" stroke="black" points="869.5,-168.5 869.5,-187.5 984.5,-187.5 984.5,-168.5 869.5,-168.5"/>
<text text-anchor="middle" x="927" y="-175.5" font-family="Helvetica,sans-Serif" font-size="10.00">insertion_operator.hpp</text>
</a>
</g>
</g>
<!-- Node30&#45;&gt;Node32 -->
<g id="edge62" class="edge"><title>Node30&#45;&gt;Node32</title>
<path fill="none" stroke="midnightblue" d="M927,-224.083C927,-217.006 927,-206.861 927,-197.986"/>
<polygon fill="midnightblue" stroke="midnightblue" points="930.5,-197.751 927,-187.751 923.5,-197.751 930.5,-197.751"/>
</g>
<!-- Node32&#45;&gt;Node1 -->
<g id="edge63" class="edge"><title>Node32&#45;&gt;Node1</title>
<path fill="none" stroke="midnightblue" d="M919.467,-168.368C903.484,-150.055 865.952,-107.049 845.28,-83.3624"/>
<polygon fill="midnightblue" stroke="midnightblue" points="847.71,-80.8243 838.498,-75.5914 842.436,-85.4271 847.71,-80.8243"/>
</g>
<!-- Node33 -->
<g id="node34" class="node"><title>Node33</title>
<g id="a_node34"><a xlink:href="outfilename_8hpp.html" target="_top" xlink:title="out file name">
<polygon fill="white" stroke="black" points="1077,-112.5 1077,-131.5 1163,-131.5 1163,-112.5 1077,-112.5"/>
<text text-anchor="middle" x="1120" y="-119.5" font-family="Helvetica,sans-Serif" font-size="10.00">outfilename.hpp</text>
</a>
</g>
</g>
<!-- Node32&#45;&gt;Node33 -->
<g id="edge64" class="edge"><title>Node32&#45;&gt;Node33</title>
<path fill="none" stroke="midnightblue" d="M957.581,-168.444C990.615,-159.201 1043.39,-144.436 1079.77,-134.257"/>
<polygon fill="midnightblue" stroke="midnightblue" points="1080.87,-137.582 1089.56,-131.516 1078.99,-130.84 1080.87,-137.582"/>
</g>
<!-- Node33&#45;&gt;Node1 -->
<g id="edge65" class="edge"><title>Node33&#45;&gt;Node1</title>
<path fill="none" stroke="midnightblue" d="M1076.73,-112.916C1020.49,-102.406 923.125,-84.2136 869.387,-74.1726"/>
<polygon fill="midnightblue" stroke="midnightblue" points="869.719,-70.6741 859.246,-72.2778 868.433,-77.5551 869.719,-70.6741"/>
</g>
<!-- Node33&#45;&gt;Node3 -->
<g id="edge66" class="edge"><title>Node33&#45;&gt;Node3</title>
<path fill="none" stroke="midnightblue" d="M1115.05,-112.083C1110.9,-104.613 1104.85,-93.7244 1099.73,-84.5199"/>
<polygon fill="midnightblue" stroke="midnightblue" points="1102.78,-82.7929 1094.86,-75.7511 1096.66,-86.1924 1102.78,-82.7929"/>
</g>
<!-- Node33&#45;&gt;Node14 -->
<g id="edge67" class="edge"><title>Node33&#45;&gt;Node14</title>
<path fill="none" stroke="midnightblue" d="M1126.11,-112.083C1131.28,-104.534 1138.85,-93.4948 1145.19,-84.2298"/>
<polygon fill="midnightblue" stroke="midnightblue" points="1148.24,-85.9787 1151,-75.7511 1142.46,-82.0221 1148.24,-85.9787"/>
</g>
<!-- Node34&#45;&gt;Node4 -->
<g id="edge69" class="edge"><title>Node34&#45;&gt;Node4</title>
<path fill="none" stroke="midnightblue" d="M249.924,-112.459C294.942,-104.708 362.001,-92.34 429.464,-75.9214"/>
<polygon fill="midnightblue" stroke="midnightblue" points="430.545,-79.2598 439.418,-73.4697 428.871,-72.4629 430.545,-79.2598"/>
</g>
<!-- Node34&#45;&gt;Node6 -->
<g id="edge70" class="edge"><title>Node34&#45;&gt;Node6</title>
<path fill="none" stroke="midnightblue" d="M254.015,-113.208C257.054,-112.796 260.064,-112.391 263,-112 380.194,-96.3745 519.544,-78.8116 581.511,-71.0542"/>
<polygon fill="midnightblue" stroke="midnightblue" points="582.326,-74.4797 591.814,-69.7656 581.457,-67.5338 582.326,-74.4797"/>
</g>
<!-- Node34&#45;&gt;Node21 -->
<g id="edge71" class="edge"><title>Node34&#45;&gt;Node21</title>
<path fill="none" stroke="midnightblue" d="M203.284,-112.083C207.711,-104.613 214.163,-93.7244 219.618,-84.5199"/>
<polygon fill="midnightblue" stroke="midnightblue" points="222.727,-86.1383 224.814,-75.7511 216.705,-82.5697 222.727,-86.1383"/>
</g>
</g>
</svg>
        <g id="navigator" transform="translate(0 0)" fill="#404254">
                <rect fill="#f2f5e9" fill-opacity="0.5" stroke="#606060" stroke-width=".5" x="0" y="0" width="60" height="60"/>
                <use id="zoomplus" xlink:href="#zoomPlus" x="17" y="9" onmousedown="handleZoom(evt,'in')"/>
                <use id="zoomminus" xlink:href="#zoomMin" x="42" y="9" onmousedown="handleZoom(evt,'out')"/>
                <use id="reset" xlink:href="#resetDef" x="30" y="36" onmousedown="handleReset()"/>
                <g id="arrowUp" xlink:href="#dirArrow" transform="translate(30 24)" onmousedown="handlePan(0,-1)">
                  <use xlink:href="#rim" fill="#404040">
                        <set attributeName="fill" to="#808080" begin="arrowUp.mouseover" end="arrowUp.mouseout"/>
                  </use>
                  <path fill="none" stroke="white" stroke-width="1.5" d="M0,-3.0v7 M-2.5,-0.5L0,-3.0L2.5,-0.5"/>
                </g>
                <g id="arrowRight" xlink:href="#dirArrow" transform="rotate(90) translate(36 -43)" onmousedown="handlePan(1,0)">
                  <use xlink:href="#rim" fill="#404040">
                        <set attributeName="fill" to="#808080" begin="arrowRight.mouseover" end="arrowRight.mouseout"/>
                  </use>
                  <path fill="none" stroke="white" stroke-width="1.5" d="M0,-3.0v7 M-2.5,-0.5L0,-3.0L2.5,-0.5"/>
                </g>
                <g id="arrowDown" xlink:href="#dirArrow" transform="rotate(180) translate(-30 -48)" onmousedown="handlePan(0,1)">
                  <use xlink:href="#rim" fill="#404040">
                        <set attributeName="fill" to="#808080" begin="arrowDown.mouseover" end="arrowDown.mouseout"/>
                  </use>
                  <path fill="none" stroke="white" stroke-width="1.5" d="M0,-3.0v7 M-2.5,-0.5L0,-3.0L2.5,-0.5"/>
                </g>
                <g id="arrowLeft" xlink:href="#dirArrow" transform="rotate(270) translate(-36 17)" onmousedown="handlePan(-1,0)">
                  <use xlink:href="#rim" fill="#404040">
                        <set attributeName="fill" to="#808080" begin="arrowLeft.mouseover" end="arrowLeft.mouseout"/>
                  </use>
                  <path fill="none" stroke="white" stroke-width="1.5" d="M0,-3.0v7 M-2.5,-0.5L0,-3.0L2.5,-0.5"/>
                </g>
        </g>
        <svg viewBox="0 0 15 15" width="100%" height="30px" preserveAspectRatio="xMaxYMin meet">
         <g id="arrow_out" transform="scale(0.3 0.3)">
          <a xlink:href="instances__read_8hpp__incl_org.svg" target="_base">
           <rect id="button" ry="5" rx="5" y="6" x="6" height="38" width="38"
                fill="#f2f5e9" fill-opacity="0.5" stroke="#606060" stroke-width="1.0"/>
           <path id="arrow"
             d="M 11.500037,31.436501 C 11.940474,20.09759 22.043105,11.32322 32.158766,21.979434 L 37.068811,17.246167 C 37.068811,17.246167 37.088388,32 37.088388,32 L 22.160133,31.978069 C 22.160133,31.978069 26.997745,27.140456 26.997745,27.140456 C 18.528582,18.264221 13.291696,25.230495 11.500037,31.436501 z"
             style="fill:#404040;"/>
          </a>
         </g>
        </svg>
</svg>
