<?xml version="1.0" encoding="UTF-8" standalone="no"?>
<!DOCTYPE svg PUBLIC "-//W3C//DTD SVG 1.1//EN"
 "http://www.w3.org/Graphics/SVG/1.1/DTD/svg11.dtd">
<!-- Generated by graphviz version 2.38.0 (20140413.2041)
 -->
<!-- Title: include/instance_class.hpp Pages: 1 -->
<!--zoomable 218 -->
<svg id="main" version="1.1" xmlns="http://www.w3.org/2000/svg" xmlns:xlink="http://www.w3.org/1999/xlink" xml:space="preserve" onload="init(evt)">
<style type="text/css"><![CDATA[
.edge:hover path { stroke: red; }
.edge:hover polygon { stroke: red; fill: red; }
]]></style>
<script type="text/javascript"><![CDATA[
var edges = document.getElementsByTagName('g');
if (edges && edges.length) {
  for (var i=0;i<edges.length;i++) {
    if (edges[i].id.substr(0,4)=='edge') {
      edges[i].setAttribute('class','edge');
    }
  }
}
]]></script>
        <defs>
                <circle id="rim" cx="0" cy="0" r="7"/>
                <circle id="rim2" cx="0" cy="0" r="3.5"/>
                <g id="zoomPlus">
                        <use xlink:href="#rim" fill="#404040">
                                <set attributeName="fill" to="#808080" begin="zoomplus.mouseover" end="zoomplus.mouseout"/>
                        </use>
                        <path d="M-4,0h8M0,-4v8" fill="none" stroke="white" stroke-width="1.5" pointer-events="none"/>
                </g>
                <g id="zoomMin">
                        <use xlink:href="#rim" fill="#404040">
                                <set attributeName="fill" to="#808080" begin="zoomminus.mouseover" end="zoomminus.mouseout"/>
                        </use>
                        <path d="M-4,0h8" fill="none" stroke="white" stroke-width="1.5" pointer-events="none"/>
                </g>
                <g id="dirArrow">
                        <path fill="none" stroke="white" stroke-width="1.5" d="M0,-3.0v7 M-2.5,-0.5L0,-3.0L2.5,-0.5"/>
                </g>
               <g id="resetDef">
                       <use xlink:href="#rim2" fill="#404040">
                               <set attributeName="fill" to="#808080" begin="reset.mouseover" end="reset.mouseout"/>
                       </use>
               </g>
        </defs>

<script type="text/javascript">
var viewWidth = 2844;
var viewHeight = 218;
var sectionId = 'dynsection-1';
</script>
<script xlink:href="svgpan.js"/>
<svg id="graph" class="graph">
<g id="viewport">
<title>include/instance_class.hpp</title>
<polygon fill="white" stroke="none" points="-4,4 -4,-214 2840,-214 2840,4 -4,4"/>
<!-- Node21 -->
<g id="node1" class="node"><title>Node21</title>
<g id="a_node1"><a xlink:title="instance with class">
<polygon fill="#bfbfbf" stroke="black" points="1529.5,-190.5 1529.5,-209.5 1666.5,-209.5 1666.5,-190.5 1529.5,-190.5"/>
<text text-anchor="middle" x="1598" y="-197.5" font-family="Helvetica,sans-Serif" font-size="10.00">include/instance_class.hpp</text>
</a>
</g>
</g>
<!-- Node22 -->
<g id="node2" class="node"><title>Node22</title>
<g id="a_node2"><a xlink:href="clustering__operator__crispmatrix_8hpp.html" target="_top" xlink:title="clustering operator crispmatrix">
<polygon fill="white" stroke="black" points="1460.5,-123.5 1460.5,-153.5 1591.5,-153.5 1591.5,-123.5 1460.5,-123.5"/>
<text text-anchor="start" x="1468.5" y="-141.5" font-family="Helvetica,sans-Serif" font-size="10.00">include/clustering</text>
<text text-anchor="middle" x="1526" y="-130.5" font-family="Helvetica,sans-Serif" font-size="10.00">_operator_crispmatrix.hpp</text>
</a>
</g>
</g>
<!-- Node21&#45;&gt;Node22 -->
<g id="edge1" class="edge"><title>Node21&#45;&gt;Node22</title>
<path fill="none" stroke="midnightblue" d="M1579.75,-183.921C1568.45,-174.579 1554.03,-162.662 1542.97,-153.523"/>
<polygon fill="midnightblue" stroke="midnightblue" points="1577.75,-186.803 1587.68,-190.475 1582.21,-181.407 1577.75,-186.803"/>
</g>
<!-- Node43 -->
<g id="node23" class="node"><title>Node43</title>
<g id="a_node23"><a xlink:href="instances__read_8hpp.html" target="_top" xlink:title="instances read">
<polygon fill="white" stroke="black" points="1609.5,-123.5 1609.5,-153.5 1730.5,-153.5 1730.5,-123.5 1609.5,-123.5"/>
<text text-anchor="start" x="1617.5" y="-141.5" font-family="Helvetica,sans-Serif" font-size="10.00">include_inout/instances</text>
<text text-anchor="middle" x="1670" y="-130.5" font-family="Helvetica,sans-Serif" font-size="10.00">_read.hpp</text>
</a>
</g>
</g>
<!-- Node21&#45;&gt;Node43 -->
<g id="edge22" class="edge"><title>Node21&#45;&gt;Node43</title>
<path fill="none" stroke="midnightblue" d="M1616.25,-183.921C1627.55,-174.579 1641.97,-162.662 1653.03,-153.523"/>
<polygon fill="midnightblue" stroke="midnightblue" points="1613.79,-181.407 1608.32,-190.475 1618.25,-186.803 1613.79,-181.407"/>
</g>
<!-- Node23 -->
<g id="node3" class="node"><title>Node23</title>
<g id="a_node3"><a xlink:href="leac_8hpp.html" target="_top" xlink:title="LEAC.">
<polygon fill="white" stroke="black" points="1481.5,-62 1481.5,-81 1570.5,-81 1570.5,-62 1481.5,-62"/>
<text text-anchor="middle" x="1526" y="-69" font-family="Helvetica,sans-Serif" font-size="10.00">include/leac.hpp</text>
</a>
</g>
</g>
<!-- Node22&#45;&gt;Node23 -->
<g id="edge2" class="edge"><title>Node22&#45;&gt;Node23</title>
<path fill="none" stroke="midnightblue" d="M1526,-113.25C1526,-102.017 1526,-89.3767 1526,-81.1945"/>
<polygon fill="midnightblue" stroke="midnightblue" points="1522.5,-113.396 1526,-123.396 1529.5,-113.396 1522.5,-113.396"/>
</g>
<!-- Node24 -->
<g id="node4" class="node"><title>Node24</title>
<g id="a_node4"><a xlink:href="cbga__fkcentroid_8hpp.html" target="_top" xlink:title="CBGA .">
<polygon fill="white" stroke="black" points="0,-0.5 0,-19.5 126,-19.5 126,-0.5 0,-0.5"/>
<text text-anchor="middle" x="63" y="-7.5" font-family="Helvetica,sans-Serif" font-size="10.00">eac/cbga_fkcentroid.hpp</text>
</a>
</g>
</g>
<!-- Node23&#45;&gt;Node24 -->
<g id="edge3" class="edge"><title>Node23&#45;&gt;Node24</title>
<path fill="none" stroke="midnightblue" d="M1471.36,-70.2442C1284.51,-69.0011 653.906,-61.7694 135,-20 132.112,-19.7675 129.162,-19.5042 126.184,-19.2174"/>
<polygon fill="midnightblue" stroke="midnightblue" points="1471.45,-73.7448 1481.48,-70.3085 1471.5,-66.7449 1471.45,-73.7448"/>
</g>
<!-- Node25 -->
<g id="node5" class="node"><title>Node25</title>
<g id="a_node5"><a xlink:href="cga__vklabel_8hpp.html" target="_top" xlink:title="CGA &#160;&#160;.">
<polygon fill="white" stroke="black" points="144,-0.5 144,-19.5 254,-19.5 254,-0.5 144,-0.5"/>
<text text-anchor="middle" x="199" y="-7.5" font-family="Helvetica,sans-Serif" font-size="10.00">eac/cga_vklabel.hpp</text>
</a>
</g>
</g>
<!-- Node23&#45;&gt;Node25 -->
<g id="edge4" class="edge"><title>Node23&#45;&gt;Node25</title>
<path fill="none" stroke="midnightblue" d="M1471.4,-70.26C1295.72,-69.0723 729.354,-62.0084 263,-20 260.094,-19.7383 257.119,-19.4369 254.118,-19.1066"/>
<polygon fill="midnightblue" stroke="midnightblue" points="1471.41,-73.76 1481.43,-70.3242 1471.45,-66.7601 1471.41,-73.76"/>
</g>
<!-- Node26 -->
<g id="node6" class="node"><title>Node26</title>
<g id="a_node6"><a xlink:href="clustering__vksubclusterbinary_8hpp.html" target="_top" xlink:title="CLUSTERING .">
<polygon fill="white" stroke="black" points="272.5,-0.5 272.5,-19.5 457.5,-19.5 457.5,-0.5 272.5,-0.5"/>
<text text-anchor="middle" x="365" y="-7.5" font-family="Helvetica,sans-Serif" font-size="10.00">eac/clustering_vksubclusterbinary.hpp</text>
</a>
</g>
</g>
<!-- Node23&#45;&gt;Node26 -->
<g id="edge5" class="edge"><title>Node23&#45;&gt;Node26</title>
<path fill="none" stroke="midnightblue" d="M1470.94,-68.6789C1313.88,-63.3116 850.289,-46.2646 466,-20 463.278,-19.8139 460.515,-19.6174 457.726,-19.4124"/>
<polygon fill="midnightblue" stroke="midnightblue" points="1471.16,-72.1884 1481.27,-69.0304 1471.4,-65.1925 1471.16,-72.1884"/>
</g>
<!-- Node27 -->
<g id="node7" class="node"><title>Node27</title>
<g id="a_node7"><a xlink:href="feac__vklabel_8hpp.html" target="_top" xlink:title="EAC, EACI, EACII, EACIII and FEAC &#160;and .">
<polygon fill="white" stroke="black" points="475,-0.5 475,-19.5 587,-19.5 587,-0.5 475,-0.5"/>
<text text-anchor="middle" x="531" y="-7.5" font-family="Helvetica,sans-Serif" font-size="10.00">eac/feac_vklabel.hpp</text>
</a>
</g>
</g>
<!-- Node23&#45;&gt;Node27 -->
<g id="edge6" class="edge"><title>Node23&#45;&gt;Node27</title>
<path fill="none" stroke="midnightblue" d="M1471.06,-69.1152C1327.12,-65.1415 927.319,-51.8771 596,-20 593.165,-19.7272 590.264,-19.4219 587.336,-19.093"/>
<polygon fill="midnightblue" stroke="midnightblue" points="1471.28,-72.6226 1481.38,-69.3962 1471.47,-65.6252 1471.28,-72.6226"/>
</g>
<!-- Node28 -->
<g id="node8" class="node"><title>Node28</title>
<g id="a_node8"><a xlink:href="gaclustering__fkcrispmatrix_8hpp.html" target="_top" xlink:title="GA CLUSTERING .">
<polygon fill="white" stroke="black" points="605,-0.5 605,-19.5 775,-19.5 775,-0.5 605,-0.5"/>
<text text-anchor="middle" x="690" y="-7.5" font-family="Helvetica,sans-Serif" font-size="10.00">eac/gaclustering_fkcrispmatrix.hpp</text>
</a>
</g>
</g>
<!-- Node23&#45;&gt;Node28 -->
<g id="edge7" class="edge"><title>Node23&#45;&gt;Node28</title>
<path fill="none" stroke="midnightblue" d="M1470.93,-67.2714C1347.75,-59.9365 1040.65,-41.0161 784,-20 781.059,-19.7592 778.067,-19.5077 775.045,-19.2483"/>
<polygon fill="midnightblue" stroke="midnightblue" points="1471.03,-70.7837 1481.22,-67.8829 1471.45,-63.796 1471.03,-70.7837"/>
</g>
<!-- Node29 -->
<g id="node9" class="node"><title>Node29</title>
<g id="a_node9"><a xlink:href="gaclustering__fklabel_8hpp.html" target="_top" xlink:title="GA Clustering .">
<polygon fill="white" stroke="black" points="793,-0.5 793,-19.5 937,-19.5 937,-0.5 793,-0.5"/>
<text text-anchor="middle" x="865" y="-7.5" font-family="Helvetica,sans-Serif" font-size="10.00">eac/gaclustering_fklabel.hpp</text>
</a>
</g>
</g>
<!-- Node23&#45;&gt;Node29 -->
<g id="edge8" class="edge"><title>Node23&#45;&gt;Node29</title>
<path fill="none" stroke="midnightblue" d="M1471.05,-66.1541C1368.01,-57.9077 1138.78,-39.1003 946,-20 943.184,-19.721 940.314,-19.4307 937.414,-19.1325"/>
<polygon fill="midnightblue" stroke="midnightblue" points="1470.97,-69.6584 1481.21,-66.9659 1471.52,-62.6806 1470.97,-69.6584"/>
</g>
<!-- Node30 -->
<g id="node10" class="node"><title>Node30</title>
<g id="a_node10"><a xlink:href="gaclustering__vktreebinary_8hpp.html" target="_top" xlink:title="GA Clustering &#160;x.">
<polygon fill="white" stroke="black" points="955,-0.5 955,-19.5 1125,-19.5 1125,-0.5 955,-0.5"/>
<text text-anchor="middle" x="1040" y="-7.5" font-family="Helvetica,sans-Serif" font-size="10.00">eac/gaclustering_vktreebinary.hpp</text>
</a>
</g>
</g>
<!-- Node23&#45;&gt;Node30 -->
<g id="edge9" class="edge"><title>Node23&#45;&gt;Node30</title>
<path fill="none" stroke="midnightblue" d="M1471,-63.767C1382.09,-52.8815 1206.92,-31.4359 1109.5,-19.5091"/>
<polygon fill="midnightblue" stroke="midnightblue" points="1470.8,-67.2678 1481.15,-65.009 1471.65,-60.3197 1470.8,-67.2678"/>
</g>
<!-- Node31 -->
<g id="node11" class="node"><title>Node31</title>
<g id="a_node11"><a xlink:href="gagr__fkcentroid_8hpp.html" target="_top" xlink:title="GAGR .">
<polygon fill="white" stroke="black" points="1143.5,-0.5 1143.5,-19.5 1268.5,-19.5 1268.5,-0.5 1143.5,-0.5"/>
<text text-anchor="middle" x="1206" y="-7.5" font-family="Helvetica,sans-Serif" font-size="10.00">eac/gagr_fkcentroid.hpp</text>
</a>
</g>
</g>
<!-- Node23&#45;&gt;Node31 -->
<g id="edge10" class="edge"><title>Node23&#45;&gt;Node31</title>
<path fill="none" stroke="midnightblue" d="M1471.2,-60.3103C1409.32,-48.8046 1309.74,-30.2886 1251.82,-19.52"/>
<polygon fill="midnightblue" stroke="midnightblue" points="1470.7,-63.777 1481.17,-62.1641 1471.98,-56.895 1470.7,-63.777"/>
</g>
<!-- Node32 -->
<g id="node12" class="node"><title>Node32</title>
<g id="a_node12"><a xlink:href="gaprototypes__fkmedoid_8hpp.html" target="_top" xlink:title="GA&#45;Prototypes .">
<polygon fill="white" stroke="black" points="1286.5,-0.5 1286.5,-19.5 1447.5,-19.5 1447.5,-0.5 1286.5,-0.5"/>
<text text-anchor="middle" x="1367" y="-7.5" font-family="Helvetica,sans-Serif" font-size="10.00">eac/gaprototypes_fkmedoid.hpp</text>
</a>
</g>
</g>
<!-- Node23&#45;&gt;Node32 -->
<g id="edge11" class="edge"><title>Node23&#45;&gt;Node32</title>
<path fill="none" stroke="midnightblue" d="M1493.75,-58.4329C1462.85,-46.8683 1416.99,-29.7083 1389.74,-19.5091"/>
<polygon fill="midnightblue" stroke="midnightblue" points="1492.63,-61.7483 1503.22,-61.9751 1495.08,-55.1923 1492.63,-61.7483"/>
</g>
<!-- Node33 -->
<g id="node13" class="node"><title>Node33</title>
<g id="a_node13"><a xlink:href="gas__fkcentroid_8hpp.html" target="_top" xlink:title="GAS .">
<polygon fill="white" stroke="black" points="1465.5,-0.5 1465.5,-19.5 1586.5,-19.5 1586.5,-0.5 1465.5,-0.5"/>
<text text-anchor="middle" x="1526" y="-7.5" font-family="Helvetica,sans-Serif" font-size="10.00">eac/gas_fkcentroid.hpp</text>
</a>
</g>
</g>
<!-- Node23&#45;&gt;Node33 -->
<g id="edge12" class="edge"><title>Node23&#45;&gt;Node33</title>
<path fill="none" stroke="midnightblue" d="M1526,-51.8165C1526,-40.9962 1526,-27.898 1526,-19.5091"/>
<polygon fill="midnightblue" stroke="midnightblue" points="1522.5,-51.9751 1526,-61.9751 1529.5,-51.9751 1522.5,-51.9751"/>
</g>
<!-- Node34 -->
<g id="node14" class="node"><title>Node34</title>
<g id="a_node14"><a xlink:href="gca__fkmedoid_8hpp.html" target="_top" xlink:title="GCA .">
<polygon fill="white" stroke="black" points="1604.5,-0.5 1604.5,-19.5 1723.5,-19.5 1723.5,-0.5 1604.5,-0.5"/>
<text text-anchor="middle" x="1664" y="-7.5" font-family="Helvetica,sans-Serif" font-size="10.00">eac/gca_fkmedoid.hpp</text>
</a>
</g>
</g>
<!-- Node23&#45;&gt;Node34 -->
<g id="edge13" class="edge"><title>Node23&#45;&gt;Node34</title>
<path fill="none" stroke="midnightblue" d="M1555.04,-57.9795C1581.84,-46.4238 1620.92,-29.5758 1644.26,-19.5091"/>
<polygon fill="midnightblue" stroke="midnightblue" points="1553.57,-54.8018 1545.77,-61.9751 1556.34,-61.2298 1553.57,-54.8018"/>
</g>
<!-- Node35 -->
<g id="node15" class="node"><title>Node35</title>
<g id="a_node15"><a xlink:href="gcuk__vkcentroid_8hpp.html" target="_top" xlink:title="GCUK .">
<polygon fill="white" stroke="black" points="1742,-0.5 1742,-19.5 1870,-19.5 1870,-0.5 1742,-0.5"/>
<text text-anchor="middle" x="1806" y="-7.5" font-family="Helvetica,sans-Serif" font-size="10.00">eac/gcuk_vkcentroid.hpp</text>
</a>
</g>
</g>
<!-- Node23&#45;&gt;Node35 -->
<g id="edge14" class="edge"><title>Node23&#45;&gt;Node35</title>
<path fill="none" stroke="midnightblue" d="M1568.79,-59.5725C1573.91,-58.3336 1579.06,-57.1165 1584,-56 1644.99,-42.203 1715.85,-28.1854 1760.8,-19.5435"/>
<polygon fill="midnightblue" stroke="midnightblue" points="1567.94,-56.1765 1559.06,-61.961 1569.61,-62.9744 1567.94,-56.1765"/>
</g>
<!-- Node36 -->
<g id="node16" class="node"><title>Node36</title>
<g id="a_node16"><a xlink:href="gga__vklabel_8hpp.html" target="_top" xlink:title="GGA .">
<polygon fill="white" stroke="black" points="1888,-0.5 1888,-19.5 1998,-19.5 1998,-0.5 1888,-0.5"/>
<text text-anchor="middle" x="1943" y="-7.5" font-family="Helvetica,sans-Serif" font-size="10.00">eac/gga_vklabel.hpp</text>
</a>
</g>
</g>
<!-- Node23&#45;&gt;Node36 -->
<g id="edge15" class="edge"><title>Node23&#45;&gt;Node36</title>
<path fill="none" stroke="midnightblue" d="M1567.13,-59.5524C1572.78,-58.2452 1578.51,-57.0164 1584,-56 1713.87,-31.9366 1748.04,-37.1974 1879,-20 1881.89,-19.6202 1884.86,-19.2246 1887.85,-18.8206"/>
<polygon fill="midnightblue" stroke="midnightblue" points="1566.05,-56.2129 1557.15,-61.9611 1567.69,-63.0175 1566.05,-56.2129"/>
</g>
<!-- Node37 -->
<g id="node17" class="node"><title>Node37</title>
<g id="a_node17"><a xlink:href="gka__fklabel_8hpp.html" target="_top" xlink:title="GKA Clustering .">
<polygon fill="white" stroke="black" points="2016.5,-0.5 2016.5,-19.5 2123.5,-19.5 2123.5,-0.5 2016.5,-0.5"/>
<text text-anchor="middle" x="2070" y="-7.5" font-family="Helvetica,sans-Serif" font-size="10.00">eac/gka_fklabel.hpp</text>
</a>
</g>
</g>
<!-- Node23&#45;&gt;Node37 -->
<g id="edge16" class="edge"><title>Node23&#45;&gt;Node37</title>
<path fill="none" stroke="midnightblue" d="M1566.07,-59.5985C1572.05,-58.2298 1578.16,-56.9717 1584,-56 1770.12,-25.0201 1819.53,-41.3503 2007,-20 2010.07,-19.6499 2013.23,-19.2688 2016.41,-18.8675"/>
<polygon fill="midnightblue" stroke="midnightblue" points="1565.11,-56.2292 1556.21,-61.9754 1566.75,-63.0342 1565.11,-56.2292"/>
</g>
<!-- Node38 -->
<g id="node18" class="node"><title>Node38</title>
<g id="a_node18"><a xlink:href="hka__fkmedoid_8hpp.html" target="_top" xlink:title="HKA .">
<polygon fill="white" stroke="black" points="2141.5,-0.5 2141.5,-19.5 2260.5,-19.5 2260.5,-0.5 2141.5,-0.5"/>
<text text-anchor="middle" x="2201" y="-7.5" font-family="Helvetica,sans-Serif" font-size="10.00">eac/hka_fkmedoid.hpp</text>
</a>
</g>
</g>
<!-- Node23&#45;&gt;Node38 -->
<g id="edge17" class="edge"><title>Node23&#45;&gt;Node38</title>
<path fill="none" stroke="midnightblue" d="M1565.85,-59.5414C1571.9,-58.1692 1578.09,-56.9252 1584,-56 1825.58,-18.1949 1889.66,-44.055 2133,-20 2135.73,-19.7306 2138.51,-19.4369 2141.32,-19.1255"/>
<polygon fill="midnightblue" stroke="midnightblue" points="1564.8,-56.1954 1555.89,-61.9381 1566.43,-63.0011 1564.8,-56.1954"/>
</g>
<!-- Node39 -->
<g id="node19" class="node"><title>Node39</title>
<g id="a_node19"><a xlink:href="igka__fklabel_8hpp.html" target="_top" xlink:title="IGKA &#160;and FGKA .">
<polygon fill="white" stroke="black" points="2278.5,-0.5 2278.5,-19.5 2387.5,-19.5 2387.5,-0.5 2278.5,-0.5"/>
<text text-anchor="middle" x="2333" y="-7.5" font-family="Helvetica,sans-Serif" font-size="10.00">eac/igka_fklabel.hpp</text>
</a>
</g>
</g>
<!-- Node23&#45;&gt;Node39 -->
<g id="edge18" class="edge"><title>Node23&#45;&gt;Node39</title>
<path fill="none" stroke="midnightblue" d="M1565.64,-59.5173C1571.75,-58.1366 1578.02,-56.8965 1584,-56 1885.94,-10.7664 1966.13,-49.6182 2270,-20 2272.75,-19.732 2275.56,-19.4306 2278.4,-19.1047"/>
<polygon fill="midnightblue" stroke="midnightblue" points="1564.49,-56.195 1555.58,-61.938 1566.12,-63.0006 1564.49,-56.195"/>
</g>
<!-- Node40 -->
<g id="node20" class="node"><title>Node40</title>
<g id="a_node20"><a xlink:href="kga__fkcentroid_8hpp.html" target="_top" xlink:title="KGA .">
<polygon fill="white" stroke="black" points="2405.5,-0.5 2405.5,-19.5 2526.5,-19.5 2526.5,-0.5 2405.5,-0.5"/>
<text text-anchor="middle" x="2466" y="-7.5" font-family="Helvetica,sans-Serif" font-size="10.00">eac/kga_fkcentroid.hpp</text>
</a>
</g>
</g>
<!-- Node23&#45;&gt;Node40 -->
<g id="edge19" class="edge"><title>Node23&#45;&gt;Node40</title>
<path fill="none" stroke="midnightblue" d="M1565.43,-59.5189C1571.61,-58.1258 1577.95,-56.8816 1584,-56 1941.91,-3.87666 2036.68,-51.4188 2397,-20 2399.77,-19.7586 2402.6,-19.488 2405.45,-19.1953"/>
<polygon fill="midnightblue" stroke="midnightblue" points="1564.18,-56.2205 1555.28,-61.9663 1565.82,-63.0257 1564.18,-56.2205"/>
</g>
<!-- Node41 -->
<g id="node21" class="node"><title>Node41</title>
<g id="a_node21"><a xlink:href="main__gas__clustering_8cpp.html" target="_top" xlink:title="Main program of Evolutionary Algorithms.">
<polygon fill="white" stroke="black" points="2544.5,-0.5 2544.5,-19.5 2691.5,-19.5 2691.5,-0.5 2544.5,-0.5"/>
<text text-anchor="middle" x="2618" y="-7.5" font-family="Helvetica,sans-Serif" font-size="10.00">eac/main_gas_clustering.cpp</text>
</a>
</g>
</g>
<!-- Node23&#45;&gt;Node41 -->
<g id="edge20" class="edge"><title>Node23&#45;&gt;Node41</title>
<path fill="none" stroke="midnightblue" d="M1565.43,-59.4842C1571.6,-58.0957 1577.94,-56.862 1584,-56 2003.19,3.66629 2113.73,-51.1173 2536,-20 2538.71,-19.8 2541.48,-19.5802 2544.27,-19.3444"/>
<polygon fill="midnightblue" stroke="midnightblue" points="1564.18,-56.1854 1555.27,-61.9288 1565.81,-62.991 1564.18,-56.1854"/>
</g>
<!-- Node42 -->
<g id="node22" class="node"><title>Node42</title>
<g id="a_node22"><a xlink:href="tgca__vkcentroid_8hpp.html" target="_top" xlink:title="TGCA .">
<polygon fill="white" stroke="black" points="2710,-0.5 2710,-19.5 2836,-19.5 2836,-0.5 2710,-0.5"/>
<text text-anchor="middle" x="2773" y="-7.5" font-family="Helvetica,sans-Serif" font-size="10.00">eac/tgca_vkcentroid.hpp</text>
</a>
</g>
</g>
<!-- Node23&#45;&gt;Node42 -->
<g id="edge21" class="edge"><title>Node23&#45;&gt;Node42</title>
<path fill="none" stroke="midnightblue" d="M1564.77,-59.6023C1571.15,-58.1572 1577.73,-56.8752 1584,-56 2075.94,12.6219 2205.82,-58.8454 2701,-20 2703.89,-19.7734 2706.84,-19.5149 2709.82,-19.232"/>
<polygon fill="midnightblue" stroke="midnightblue" points="1563.87,-56.2186 1554.97,-61.9724 1565.51,-63.0222 1563.87,-56.2186"/>
</g>
<!-- Node44 -->
<g id="node24" class="node"><title>Node44</title>
<g id="a_node24"><a xlink:href="main__plot__clustering_8cpp.html" target="_top" xlink:title="Main program for plot clustering.">
<polygon fill="white" stroke="black" points="1593,-62 1593,-81 1739,-81 1739,-62 1593,-62"/>
<text text-anchor="middle" x="1666" y="-69" font-family="Helvetica,sans-Serif" font-size="10.00">eac/main_plot_clustering.cpp</text>
</a>
</g>
</g>
<!-- Node43&#45;&gt;Node44 -->
<g id="edge23" class="edge"><title>Node43&#45;&gt;Node44</title>
<path fill="none" stroke="midnightblue" d="M1668.51,-113.25C1667.82,-102.017 1667.04,-89.3767 1666.54,-81.1945"/>
<polygon fill="midnightblue" stroke="midnightblue" points="1665.02,-113.63 1669.13,-123.396 1672.01,-113.2 1665.02,-113.63"/>
</g>
<!-- Node45 -->
<g id="node25" class="node"><title>Node45</title>
<g id="a_node25"><a xlink:href="main__stdvar__milligan__cooper1988_8cpp.html" target="_top" xlink:title="Main program for the standardization of instances .">
<polygon fill="white" stroke="black" points="1757.5,-56.5 1757.5,-86.5 1888.5,-86.5 1888.5,-56.5 1757.5,-56.5"/>
<text text-anchor="start" x="1765.5" y="-74.5" font-family="Helvetica,sans-Serif" font-size="10.00">eac/main_stdvar_milligan</text>
<text text-anchor="middle" x="1823" y="-63.5" font-family="Helvetica,sans-Serif" font-size="10.00">_cooper1988.cpp</text>
</a>
</g>
</g>
<!-- Node43&#45;&gt;Node45 -->
<g id="edge24" class="edge"><title>Node43&#45;&gt;Node45</title>
<path fill="none" stroke="midnightblue" d="M1712.59,-119.407C1737.02,-109.029 1767.22,-96.1954 1789.87,-86.5765"/>
<polygon fill="midnightblue" stroke="midnightblue" points="1711.03,-116.264 1703.2,-123.396 1713.77,-122.707 1711.03,-116.264"/>
</g>
</g>
</svg>
        <g id="navigator" transform="translate(0 0)" fill="#404254">
                <rect fill="#f2f5e9" fill-opacity="0.5" stroke="#606060" stroke-width=".5" x="0" y="0" width="60" height="60"/>
                <use id="zoomplus" xlink:href="#zoomPlus" x="17" y="9" onmousedown="handleZoom(evt,'in')"/>
                <use id="zoomminus" xlink:href="#zoomMin" x="42" y="9" onmousedown="handleZoom(evt,'out')"/>
                <use id="reset" xlink:href="#resetDef" x="30" y="36" onmousedown="handleReset()"/>
                <g id="arrowUp" xlink:href="#dirArrow" transform="translate(30 24)" onmousedown="handlePan(0,-1)">
                  <use xlink:href="#rim" fill="#404040">
                        <set attributeName="fill" to="#808080" begin="arrowUp.mouseover" end="arrowUp.mouseout"/>
                  </use>
                  <path fill="none" stroke="white" stroke-width="1.5" d="M0,-3.0v7 M-2.5,-0.5L0,-3.0L2.5,-0.5"/>
                </g>
                <g id="arrowRight" xlink:href="#dirArrow" transform="rotate(90) translate(36 -43)" onmousedown="handlePan(1,0)">
                  <use xlink:href="#rim" fill="#404040">
                        <set attributeName="fill" to="#808080" begin="arrowRight.mouseover" end="arrowRight.mouseout"/>
                  </use>
                  <path fill="none" stroke="white" stroke-width="1.5" d="M0,-3.0v7 M-2.5,-0.5L0,-3.0L2.5,-0.5"/>
                </g>
                <g id="arrowDown" xlink:href="#dirArrow" transform="rotate(180) translate(-30 -48)" onmousedown="handlePan(0,1)">
                  <use xlink:href="#rim" fill="#404040">
                        <set attributeName="fill" to="#808080" begin="arrowDown.mouseover" end="arrowDown.mouseout"/>
                  </use>
                  <path fill="none" stroke="white" stroke-width="1.5" d="M0,-3.0v7 M-2.5,-0.5L0,-3.0L2.5,-0.5"/>
                </g>
                <g id="arrowLeft" xlink:href="#dirArrow" transform="rotate(270) translate(-36 17)" onmousedown="handlePan(-1,0)">
                  <use xlink:href="#rim" fill="#404040">
                        <set attributeName="fill" to="#808080" begin="arrowLeft.mouseover" end="arrowLeft.mouseout"/>
                  </use>
                  <path fill="none" stroke="white" stroke-width="1.5" d="M0,-3.0v7 M-2.5,-0.5L0,-3.0L2.5,-0.5"/>
                </g>
        </g>
        <svg viewBox="0 0 15 15" width="100%" height="30px" preserveAspectRatio="xMaxYMin meet">
         <g id="arrow_out" transform="scale(0.3 0.3)">
          <a xlink:href="instance__class_8hpp__dep__incl_org.svg" target="_base">
           <rect id="button" ry="5" rx="5" y="6" x="6" height="38" width="38"
                fill="#f2f5e9" fill-opacity="0.5" stroke="#606060" stroke-width="1.0"/>
           <path id="arrow"
             d="M 11.500037,31.436501 C 11.940474,20.09759 22.043105,11.32322 32.158766,21.979434 L 37.068811,17.246167 C 37.068811,17.246167 37.088388,32 37.088388,32 L 22.160133,31.978069 C 22.160133,31.978069 26.997745,27.140456 26.997745,27.140456 C 18.528582,18.264221 13.291696,25.230495 11.500037,31.436501 z"
             style="fill:#404040;"/>
          </a>
         </g>
        </svg>
</svg>
