<?xml version="1.0" encoding="UTF-8" standalone="no"?>
<!DOCTYPE svg PUBLIC "-//W3C//DTD SVG 1.1//EN"
 "http://www.w3.org/Graphics/SVG/1.1/DTD/svg11.dtd">
<!-- Generated by graphviz version 2.38.0 (20140413.2041)
 -->
<!-- Title: include/interface_level2.hpp Pages: 1 -->
<!--zoomable 252 -->
<svg id="main" version="1.1" xmlns="http://www.w3.org/2000/svg" xmlns:xlink="http://www.w3.org/1999/xlink" xml:space="preserve" onload="init(evt)">
<style type="text/css"><![CDATA[
.edge:hover path { stroke: red; }
.edge:hover polygon { stroke: red; fill: red; }
]]></style>
<script type="text/javascript"><![CDATA[
var edges = document.getElementsByTagName('g');
if (edges && edges.length) {
  for (var i=0;i<edges.length;i++) {
    if (edges[i].id.substr(0,4)=='edge') {
      edges[i].setAttribute('class','edge');
    }
  }
}
]]></script>
        <defs>
                <circle id="rim" cx="0" cy="0" r="7"/>
                <circle id="rim2" cx="0" cy="0" r="3.5"/>
                <g id="zoomPlus">
                        <use xlink:href="#rim" fill="#404040">
                                <set attributeName="fill" to="#808080" begin="zoomplus.mouseover" end="zoomplus.mouseout"/>
                        </use>
                        <path d="M-4,0h8M0,-4v8" fill="none" stroke="white" stroke-width="1.5" pointer-events="none"/>
                </g>
                <g id="zoomMin">
                        <use xlink:href="#rim" fill="#404040">
                                <set attributeName="fill" to="#808080" begin="zoomminus.mouseover" end="zoomminus.mouseout"/>
                        </use>
                        <path d="M-4,0h8" fill="none" stroke="white" stroke-width="1.5" pointer-events="none"/>
                </g>
                <g id="dirArrow">
                        <path fill="none" stroke="white" stroke-width="1.5" d="M0,-3.0v7 M-2.5,-0.5L0,-3.0L2.5,-0.5"/>
                </g>
               <g id="resetDef">
                       <use xlink:href="#rim2" fill="#404040">
                               <set attributeName="fill" to="#808080" begin="reset.mouseover" end="reset.mouseout"/>
                       </use>
               </g>
        </defs>

<script type="text/javascript">
var viewWidth = 1048;
var viewHeight = 252;
var sectionId = 'dynsection-0';
</script>
<script xlink:href="svgpan.js"/>
<svg id="graph" class="graph">
<g id="viewport">
<title>include/interface_level2.hpp</title>
<polygon fill="white" stroke="none" points="-4,4 -4,-248 1043.5,-248 1043.5,4 -4,4"/>
<!-- Node0 -->
<g id="node1" class="node"><title>Node0</title>
<g id="a_node1"><a xlink:title="Interface_level 2.">
<polygon fill="#bfbfbf" stroke="black" points="584,-224.5 584,-243.5 725,-243.5 725,-224.5 584,-224.5"/>
<text text-anchor="middle" x="654.5" y="-231.5" font-family="Helvetica,sans-Serif" font-size="10.00">include/interface_level2.hpp</text>
</a>
</g>
</g>
<!-- Node1 -->
<g id="node2" class="node"><title>Node1</title>
<g id="a_node2"><a xlink:title=" ">
<polygon fill="white" stroke="#bfbfbf" points="749.5,-56.5 749.5,-75.5 809.5,-75.5 809.5,-56.5 749.5,-56.5"/>
<text text-anchor="middle" x="779.5" y="-63.5" font-family="Helvetica,sans-Serif" font-size="10.00">stdexcept</text>
</a>
</g>
</g>
<!-- Node0&#45;&gt;Node1 -->
<g id="edge1" class="edge"><title>Node0&#45;&gt;Node1</title>
<path fill="none" stroke="midnightblue" d="M686.829,-224.465C727.195,-211.848 794.358,-183.907 822.5,-132 832.185,-114.135 815.707,-94.8603 800.43,-81.9783"/>
<polygon fill="midnightblue" stroke="midnightblue" points="802.262,-78.966 792.24,-75.5289 797.931,-84.4655 802.262,-78.966"/>
</g>
<!-- Node2 -->
<g id="node3" class="node"><title>Node2</title>
<g id="a_node3"><a xlink:href="common__interfacelapack_8hpp.html" target="_top" xlink:title="common interfacelapack">
<polygon fill="white" stroke="black" points="581,-168.5 581,-187.5 728,-187.5 728,-168.5 581,-168.5"/>
<text text-anchor="middle" x="654.5" y="-175.5" font-family="Helvetica,sans-Serif" font-size="10.00">common_interfacelapack.hpp</text>
</a>
</g>
</g>
<!-- Node0&#45;&gt;Node2 -->
<g id="edge2" class="edge"><title>Node0&#45;&gt;Node2</title>
<path fill="none" stroke="midnightblue" d="M654.5,-224.083C654.5,-217.006 654.5,-206.861 654.5,-197.986"/>
<polygon fill="midnightblue" stroke="midnightblue" points="658,-197.751 654.5,-187.751 651,-197.751 658,-197.751"/>
</g>
<!-- Node3 -->
<g id="node4" class="node"><title>Node3</title>
<g id="a_node4"><a xlink:href="matrix_8hpp.html" target="_top" xlink:title="matrix">
<polygon fill="white" stroke="black" points="379.5,-168.5 379.5,-187.5 441.5,-187.5 441.5,-168.5 379.5,-168.5"/>
<text text-anchor="middle" x="410.5" y="-175.5" font-family="Helvetica,sans-Serif" font-size="10.00">matrix.hpp</text>
</a>
</g>
</g>
<!-- Node0&#45;&gt;Node3 -->
<g id="edge3" class="edge"><title>Node0&#45;&gt;Node3</title>
<path fill="none" stroke="midnightblue" d="M615.837,-224.444C570.988,-214.518 497.355,-198.222 451.524,-188.079"/>
<polygon fill="midnightblue" stroke="midnightblue" points="452.146,-184.632 441.626,-185.889 450.634,-191.467 452.146,-184.632"/>
</g>
<!-- Node3&#45;&gt;Node1 -->
<g id="edge8" class="edge"><title>Node3&#45;&gt;Node1</title>
<path fill="none" stroke="midnightblue" d="M441.631,-170.138C477.034,-162.081 536.421,-147.798 586.5,-132 610.511,-124.426 615.73,-120.299 639.5,-112 673.847,-100.008 713.335,-87.423 741.598,-78.6212"/>
<polygon fill="midnightblue" stroke="midnightblue" points="742.959,-81.8637 751.473,-75.5577 740.885,-75.178 742.959,-81.8637"/>
</g>
<!-- Node4 -->
<g id="node5" class="node"><title>Node4</title>
<g id="a_node5"><a xlink:title=" ">
<polygon fill="white" stroke="#bfbfbf" points="193.5,-56.5 193.5,-75.5 249.5,-75.5 249.5,-56.5 193.5,-56.5"/>
<text text-anchor="middle" x="221.5" y="-63.5" font-family="Helvetica,sans-Serif" font-size="10.00">iostream</text>
</a>
</g>
</g>
<!-- Node3&#45;&gt;Node4 -->
<g id="edge4" class="edge"><title>Node3&#45;&gt;Node4</title>
<path fill="none" stroke="midnightblue" d="M385.191,-168.398C363.136,-160.408 330.674,-147.439 304.5,-132 280.067,-117.589 254.797,-96.803 238.658,-82.6433"/>
<polygon fill="midnightblue" stroke="midnightblue" points="240.899,-79.9514 231.104,-75.9115 236.241,-85.1775 240.899,-79.9514"/>
</g>
<!-- Node5 -->
<g id="node6" class="node"><title>Node5</title>
<g id="a_node6"><a xlink:title=" ">
<polygon fill="white" stroke="#bfbfbf" points="268,-56.5 268,-75.5 321,-75.5 321,-56.5 268,-56.5"/>
<text text-anchor="middle" x="294.5" y="-63.5" font-family="Helvetica,sans-Serif" font-size="10.00">sstream</text>
</a>
</g>
</g>
<!-- Node3&#45;&gt;Node5 -->
<g id="edge5" class="edge"><title>Node3&#45;&gt;Node5</title>
<path fill="none" stroke="midnightblue" d="M381.167,-168.439C361.701,-161.431 336.823,-149.74 320.5,-132 308.552,-119.015 301.793,-99.8512 298.181,-85.6941"/>
<polygon fill="midnightblue" stroke="midnightblue" points="301.526,-84.6171 295.92,-75.6274 294.697,-86.1514 301.526,-84.6171"/>
</g>
<!-- Node6 -->
<g id="node7" class="node"><title>Node6</title>
<g id="a_node7"><a xlink:title=" ">
<polygon fill="white" stroke="#bfbfbf" points="183.5,-112.5 183.5,-131.5 235.5,-131.5 235.5,-112.5 183.5,-112.5"/>
<text text-anchor="middle" x="209.5" y="-119.5" font-family="Helvetica,sans-Serif" font-size="10.00">iomanip</text>
</a>
</g>
</g>
<!-- Node3&#45;&gt;Node6 -->
<g id="edge6" class="edge"><title>Node3&#45;&gt;Node6</title>
<path fill="none" stroke="midnightblue" d="M379.094,-168.562C342.963,-158.856 283.74,-142.945 245.701,-132.726"/>
<polygon fill="midnightblue" stroke="midnightblue" points="246.137,-129.219 235.571,-130.004 244.321,-135.979 246.137,-129.219"/>
</g>
<!-- Node7 -->
<g id="node8" class="node"><title>Node7</title>
<g id="a_node8"><a xlink:title=" ">
<polygon fill="white" stroke="#bfbfbf" points="0,-56.5 0,-75.5 51,-75.5 51,-56.5 0,-56.5"/>
<text text-anchor="middle" x="25.5" y="-63.5" font-family="Helvetica,sans-Serif" font-size="10.00">typeinfo</text>
</a>
</g>
</g>
<!-- Node3&#45;&gt;Node7 -->
<g id="edge7" class="edge"><title>Node3&#45;&gt;Node7</title>
<path fill="none" stroke="midnightblue" d="M379.467,-176.305C325.91,-174.196 213.419,-165.746 125.5,-132 94.1516,-119.968 62.3924,-97.097 43.3218,-81.9474"/>
<polygon fill="midnightblue" stroke="midnightblue" points="45.4691,-79.1825 35.4995,-75.5967 41.057,-84.617 45.4691,-79.1825"/>
</g>
<!-- Node8 -->
<g id="node9" class="node"><title>Node8</title>
<g id="a_node9"><a xlink:title=" ">
<polygon fill="white" stroke="#bfbfbf" points="69.5,-56.5 69.5,-75.5 107.5,-75.5 107.5,-56.5 69.5,-56.5"/>
<text text-anchor="middle" x="88.5" y="-63.5" font-family="Helvetica,sans-Serif" font-size="10.00">utility</text>
</a>
</g>
</g>
<!-- Node3&#45;&gt;Node8 -->
<g id="edge9" class="edge"><title>Node3&#45;&gt;Node8</title>
<path fill="none" stroke="midnightblue" d="M379.374,-177.171C329.6,-176.239 230.201,-169.354 156.5,-132 133.85,-120.52 113.629,-99.0077 101.242,-83.8839"/>
<polygon fill="midnightblue" stroke="midnightblue" points="103.837,-81.523 94.8947,-75.8417 98.3427,-85.8598 103.837,-81.523"/>
</g>
<!-- Node9 -->
<g id="node10" class="node"><title>Node9</title>
<g id="a_node10"><a xlink:title=" ">
<polygon fill="white" stroke="#bfbfbf" points="125.5,-56.5 125.5,-75.5 175.5,-75.5 175.5,-56.5 125.5,-56.5"/>
<text text-anchor="middle" x="150.5" y="-63.5" font-family="Helvetica,sans-Serif" font-size="10.00">cassert</text>
</a>
</g>
</g>
<!-- Node3&#45;&gt;Node9 -->
<g id="edge10" class="edge"><title>Node3&#45;&gt;Node9</title>
<path fill="none" stroke="midnightblue" d="M379.354,-174.821C322.527,-170.253 205.055,-157.88 174.5,-132 160.895,-120.476 154.999,-100.507 152.445,-85.7355"/>
<polygon fill="midnightblue" stroke="midnightblue" points="155.893,-85.1129 151.072,-75.6783 148.957,-86.0599 155.893,-85.1129"/>
</g>
<!-- Node10 -->
<g id="node11" class="node"><title>Node10</title>
<g id="a_node11"><a xlink:title=" ">
<polygon fill="white" stroke="#bfbfbf" points="828,-56.5 828,-75.5 869,-75.5 869,-56.5 828,-56.5"/>
<text text-anchor="middle" x="848.5" y="-63.5" font-family="Helvetica,sans-Serif" font-size="10.00">string</text>
</a>
</g>
</g>
<!-- Node3&#45;&gt;Node10 -->
<g id="edge11" class="edge"><title>Node3&#45;&gt;Node10</title>
<path fill="none" stroke="midnightblue" d="M441.582,-172.695C484.2,-166.311 562.856,-152.803 627.5,-132 648.334,-125.295 651.795,-119.092 672.5,-112 732.763,-91.3593 752.214,-93.3563 817.852,-76.0333"/>
<polygon fill="midnightblue" stroke="midnightblue" points="819.136,-79.3123 827.882,-73.3323 817.316,-72.5531 819.136,-79.3123"/>
</g>
<!-- Node11 -->
<g id="node12" class="node"><title>Node11</title>
<g id="a_node12"><a xlink:title=" ">
<polygon fill="white" stroke="#bfbfbf" points="431.5,-56.5 431.5,-75.5 479.5,-75.5 479.5,-56.5 431.5,-56.5"/>
<text text-anchor="middle" x="455.5" y="-63.5" font-family="Helvetica,sans-Serif" font-size="10.00">string.h</text>
</a>
</g>
</g>
<!-- Node3&#45;&gt;Node11 -->
<g id="edge12" class="edge"><title>Node3&#45;&gt;Node11</title>
<path fill="none" stroke="midnightblue" d="M414.031,-168.368C421.359,-150.456 438.35,-108.923 448.158,-84.9482"/>
<polygon fill="midnightblue" stroke="midnightblue" points="451.438,-86.1721 451.985,-75.5914 444.96,-83.5217 451.438,-86.1721"/>
</g>
<!-- Node12 -->
<g id="node13" class="node"><title>Node12</title>
<g id="a_node13"><a xlink:title=" ">
<polygon fill="white" stroke="#bfbfbf" points="619.5,-56.5 619.5,-75.5 663.5,-75.5 663.5,-56.5 619.5,-56.5"/>
<text text-anchor="middle" x="641.5" y="-63.5" font-family="Helvetica,sans-Serif" font-size="10.00">vector</text>
</a>
</g>
</g>
<!-- Node3&#45;&gt;Node12 -->
<g id="edge13" class="edge"><title>Node3&#45;&gt;Node12</title>
<path fill="none" stroke="midnightblue" d="M441.59,-170.919C472.236,-164.147 519.816,-151.514 557.5,-132 583.157,-118.714 608.874,-97.3415 624.967,-82.7585"/>
<polygon fill="midnightblue" stroke="midnightblue" points="627.491,-85.1912 632.454,-75.8303 622.737,-80.0535 627.491,-85.1912"/>
</g>
<!-- Node13 -->
<g id="node14" class="node"><title>Node13</title>
<g id="a_node14"><a xlink:href="matrix__base_8hpp.html" target="_top" xlink:title="matrix base">
<polygon fill="white" stroke="black" points="330,-112.5 330,-131.5 419,-131.5 419,-112.5 330,-112.5"/>
<text text-anchor="middle" x="374.5" y="-119.5" font-family="Helvetica,sans-Serif" font-size="10.00">matrix_base.hpp</text>
</a>
</g>
</g>
<!-- Node3&#45;&gt;Node13 -->
<g id="edge14" class="edge"><title>Node3&#45;&gt;Node13</title>
<path fill="none" stroke="midnightblue" d="M404.555,-168.083C399.523,-160.534 392.163,-149.495 385.987,-140.23"/>
<polygon fill="midnightblue" stroke="midnightblue" points="388.793,-138.13 380.334,-131.751 382.969,-142.013 388.793,-138.13"/>
</g>
<!-- Node18 -->
<g id="node19" class="node"><title>Node18</title>
<g id="a_node19"><a xlink:href="linear__algebra__level1_8hpp.html" target="_top" xlink:title="linear algebra level1">
<polygon fill="white" stroke="black" points="681.5,-112.5 681.5,-131.5 813.5,-131.5 813.5,-112.5 681.5,-112.5"/>
<text text-anchor="middle" x="747.5" y="-119.5" font-family="Helvetica,sans-Serif" font-size="10.00">linear_algebra_level1.hpp</text>
</a>
</g>
</g>
<!-- Node3&#45;&gt;Node18 -->
<g id="edge27" class="edge"><title>Node3&#45;&gt;Node18</title>
<path fill="none" stroke="midnightblue" d="M441.6,-172.017C496.613,-163.201 612.087,-144.698 684.363,-133.117"/>
<polygon fill="midnightblue" stroke="midnightblue" points="684.944,-136.569 694.264,-131.53 683.836,-129.657 684.944,-136.569"/>
</g>
<!-- Node23 -->
<g id="node24" class="node"><title>Node23</title>
<g id="a_node24"><a xlink:href="line__split_8hpp.html" target="_top" xlink:title="line split">
<polygon fill="white" stroke="black" points="476,-112.5 476,-131.5 549,-131.5 549,-112.5 476,-112.5"/>
<text text-anchor="middle" x="512.5" y="-119.5" font-family="Helvetica,sans-Serif" font-size="10.00">line_split.hpp</text>
</a>
</g>
</g>
<!-- Node3&#45;&gt;Node23 -->
<g id="edge33" class="edge"><title>Node3&#45;&gt;Node23</title>
<path fill="none" stroke="midnightblue" d="M426.888,-168.324C443.171,-159.703 468.367,-146.364 487.216,-136.386"/>
<polygon fill="midnightblue" stroke="midnightblue" points="488.952,-139.427 496.153,-131.655 485.677,-133.24 488.952,-139.427"/>
</g>
<!-- Node13&#45;&gt;Node1 -->
<g id="edge18" class="edge"><title>Node13&#45;&gt;Node1</title>
<path fill="none" stroke="midnightblue" d="M419.034,-116.115C498.779,-107.274 663.934,-88.5165 739.309,-76.0114"/>
<polygon fill="midnightblue" stroke="midnightblue" points="740.067,-79.4325 749.33,-74.2901 738.882,-72.5336 740.067,-79.4325"/>
</g>
<!-- Node13&#45;&gt;Node4 -->
<g id="edge15" class="edge"><title>Node13&#45;&gt;Node4</title>
<path fill="none" stroke="midnightblue" d="M350.257,-112.444C324.629,-103.399 284.015,-89.064 255.262,-78.9158"/>
<polygon fill="midnightblue" stroke="midnightblue" points="256.225,-75.5442 245.63,-75.5164 253.895,-82.1452 256.225,-75.5442"/>
</g>
<!-- Node13&#45;&gt;Node5 -->
<g id="edge16" class="edge"><title>Node13&#45;&gt;Node5</title>
<path fill="none" stroke="midnightblue" d="M361.647,-112.324C349.284,-103.979 330.37,-91.2122 315.763,-81.3524"/>
<polygon fill="midnightblue" stroke="midnightblue" points="317.568,-78.3483 307.321,-75.6545 313.652,-84.1503 317.568,-78.3483"/>
</g>
<!-- Node13&#45;&gt;Node7 -->
<g id="edge17" class="edge"><title>Node13&#45;&gt;Node7</title>
<path fill="none" stroke="midnightblue" d="M329.78,-116.151C270.551,-109.386 162.694,-95.8779 60.873,-75.868"/>
<polygon fill="midnightblue" stroke="midnightblue" points="61.5309,-72.4304 51.0401,-73.9113 60.1647,-79.2958 61.5309,-72.4304"/>
</g>
<!-- Node13&#45;&gt;Node8 -->
<g id="edge19" class="edge"><title>Node13&#45;&gt;Node8</title>
<path fill="none" stroke="midnightblue" d="M329.828,-115.124C280.097,-108.159 197.234,-95.2948 117.398,-75.9428"/>
<polygon fill="midnightblue" stroke="midnightblue" points="118.226,-72.5422 107.679,-73.5506 116.553,-79.3393 118.226,-72.5422"/>
</g>
<!-- Node13&#45;&gt;Node9 -->
<g id="edge20" class="edge"><title>Node13&#45;&gt;Node9</title>
<path fill="none" stroke="midnightblue" d="M337.295,-112.492C300.962,-104.116 243.86,-90.774 185.489,-76.2022"/>
<polygon fill="midnightblue" stroke="midnightblue" points="186.283,-72.7929 175.732,-73.7578 184.582,-79.5831 186.283,-72.7929"/>
</g>
<!-- Node13&#45;&gt;Node11 -->
<g id="edge21" class="edge"><title>Node13&#45;&gt;Node11</title>
<path fill="none" stroke="midnightblue" d="M387.514,-112.324C400.032,-103.979 419.182,-91.2122 433.971,-81.3524"/>
<polygon fill="midnightblue" stroke="midnightblue" points="436.139,-84.1137 442.518,-75.6545 432.256,-78.2894 436.139,-84.1137"/>
</g>
<!-- Node13&#45;&gt;Node12 -->
<g id="edge22" class="edge"><title>Node13&#45;&gt;Node12</title>
<path fill="none" stroke="midnightblue" d="M419.133,-113.779C464.648,-106.129 537.477,-93.1001 609.118,-76.158"/>
<polygon fill="midnightblue" stroke="midnightblue" points="610.305,-79.4728 619.216,-73.7416 608.676,-72.665 610.305,-79.4728"/>
</g>
<!-- Node14 -->
<g id="node15" class="node"><title>Node14</title>
<g id="a_node15"><a xlink:href="common_8hpp.html" target="_top" xlink:title="common">
<polygon fill="white" stroke="black" points="339.5,-56.5 339.5,-75.5 413.5,-75.5 413.5,-56.5 339.5,-56.5"/>
<text text-anchor="middle" x="376.5" y="-63.5" font-family="Helvetica,sans-Serif" font-size="10.00">common.hpp</text>
</a>
</g>
</g>
<!-- Node13&#45;&gt;Node14 -->
<g id="edge23" class="edge"><title>Node13&#45;&gt;Node14</title>
<path fill="none" stroke="midnightblue" d="M374.83,-112.083C375.092,-105.006 375.468,-94.8611 375.797,-85.9865"/>
<polygon fill="midnightblue" stroke="midnightblue" points="379.303,-85.8738 376.176,-75.7511 372.308,-85.6147 379.303,-85.8738"/>
</g>
<!-- Node17 -->
<g id="node18" class="node"><title>Node17</title>
<g id="a_node18"><a xlink:href="verbose__global_8hpp.html" target="_top" xlink:title="verbose global">
<polygon fill="white" stroke="black" points="497.5,-56.5 497.5,-75.5 601.5,-75.5 601.5,-56.5 497.5,-56.5"/>
<text text-anchor="middle" x="549.5" y="-63.5" font-family="Helvetica,sans-Serif" font-size="10.00">verbose_global.hpp</text>
</a>
</g>
</g>
<!-- Node13&#45;&gt;Node17 -->
<g id="edge26" class="edge"><title>Node13&#45;&gt;Node17</title>
<path fill="none" stroke="midnightblue" d="M402.229,-112.444C431.926,-103.28 479.216,-88.6876 512.169,-78.5192"/>
<polygon fill="midnightblue" stroke="midnightblue" points="513.377,-81.8094 521.9,-75.5164 511.313,-75.1206 513.377,-81.8094"/>
</g>
<!-- Node15 -->
<g id="node16" class="node"><title>Node15</title>
<g id="a_node16"><a xlink:title=" ">
<polygon fill="white" stroke="#bfbfbf" points="353,-0.5 353,-19.5 400,-19.5 400,-0.5 353,-0.5"/>
<text text-anchor="middle" x="376.5" y="-7.5" font-family="Helvetica,sans-Serif" font-size="10.00">stdint.h</text>
</a>
</g>
</g>
<!-- Node14&#45;&gt;Node15 -->
<g id="edge24" class="edge"><title>Node14&#45;&gt;Node15</title>
<path fill="none" stroke="midnightblue" d="M376.5,-56.083C376.5,-49.0059 376.5,-38.8611 376.5,-29.9865"/>
<polygon fill="midnightblue" stroke="midnightblue" points="380,-29.751 376.5,-19.7511 373,-29.7511 380,-29.751"/>
</g>
<!-- Node16 -->
<g id="node17" class="node"><title>Node16</title>
<g id="a_node17"><a xlink:title=" ">
<polygon fill="white" stroke="#bfbfbf" points="605,-0.5 605,-19.5 644,-19.5 644,-0.5 605,-0.5"/>
<text text-anchor="middle" x="624.5" y="-7.5" font-family="Helvetica,sans-Serif" font-size="10.00">limits</text>
</a>
</g>
</g>
<!-- Node14&#45;&gt;Node16 -->
<g id="edge25" class="edge"><title>Node14&#45;&gt;Node16</title>
<path fill="none" stroke="midnightblue" d="M413.628,-56.9157C463.145,-46.1337 549.804,-27.2644 595.072,-17.4078"/>
<polygon fill="midnightblue" stroke="midnightblue" points="595.833,-20.8241 604.859,-15.2766 594.344,-13.9844 595.833,-20.8241"/>
</g>
<!-- Node19 -->
<g id="node20" class="node"><title>Node19</title>
<g id="a_node20"><a xlink:href="interface__level1_8hpp.html" target="_top" xlink:title="Interface_level 1.">
<polygon fill="white" stroke="black" points="887.5,-56.5 887.5,-75.5 993.5,-75.5 993.5,-56.5 887.5,-56.5"/>
<text text-anchor="middle" x="940.5" y="-63.5" font-family="Helvetica,sans-Serif" font-size="10.00">interface_level1.hpp</text>
</a>
</g>
</g>
<!-- Node18&#45;&gt;Node19 -->
<g id="edge28" class="edge"><title>Node18&#45;&gt;Node19</title>
<path fill="none" stroke="midnightblue" d="M778.081,-112.444C811.115,-103.201 863.888,-88.4356 900.266,-78.2572"/>
<polygon fill="midnightblue" stroke="midnightblue" points="901.375,-81.5815 910.062,-75.5164 899.488,-74.8404 901.375,-81.5815"/>
</g>
<!-- Node19&#45;&gt;Node16 -->
<g id="edge31" class="edge"><title>Node19&#45;&gt;Node16</title>
<path fill="none" stroke="midnightblue" d="M890.429,-56.4435C823.862,-45.0682 708.337,-25.3266 654.156,-16.0678"/>
<polygon fill="midnightblue" stroke="midnightblue" points="654.617,-12.5959 644.17,-14.3614 653.438,-19.4959 654.617,-12.5959"/>
</g>
<!-- Node20 -->
<g id="node21" class="node"><title>Node20</title>
<g id="a_node21"><a xlink:title=" ">
<polygon fill="white" stroke="#bfbfbf" points="911.5,-0.5 911.5,-19.5 969.5,-19.5 969.5,-0.5 911.5,-0.5"/>
<text text-anchor="middle" x="940.5" y="-7.5" font-family="Helvetica,sans-Serif" font-size="10.00">algorithm</text>
</a>
</g>
</g>
<!-- Node19&#45;&gt;Node20 -->
<g id="edge29" class="edge"><title>Node19&#45;&gt;Node20</title>
<path fill="none" stroke="midnightblue" d="M940.5,-56.083C940.5,-49.0059 940.5,-38.8611 940.5,-29.9865"/>
<polygon fill="midnightblue" stroke="midnightblue" points="944,-29.751 940.5,-19.7511 937,-29.7511 944,-29.751"/>
</g>
<!-- Node21 -->
<g id="node22" class="node"><title>Node21</title>
<g id="a_node22"><a xlink:title=" ">
<polygon fill="white" stroke="#bfbfbf" points="987.5,-0.5 987.5,-19.5 1039.5,-19.5 1039.5,-0.5 987.5,-0.5"/>
<text text-anchor="middle" x="1013.5" y="-7.5" font-family="Helvetica,sans-Serif" font-size="10.00">numeric</text>
</a>
</g>
</g>
<!-- Node19&#45;&gt;Node21 -->
<g id="edge30" class="edge"><title>Node19&#45;&gt;Node21</title>
<path fill="none" stroke="midnightblue" d="M952.229,-56.324C963.337,-48.1066 980.242,-35.6017 993.483,-25.8069"/>
<polygon fill="midnightblue" stroke="midnightblue" points="995.6,-28.5948 1001.56,-19.8339 991.437,-22.9671 995.6,-28.5948"/>
</g>
<!-- Node22 -->
<g id="node23" class="node"><title>Node22</title>
<g id="a_node23"><a xlink:title=" ">
<polygon fill="white" stroke="#bfbfbf" points="849.5,-0.5 849.5,-19.5 893.5,-19.5 893.5,-0.5 849.5,-0.5"/>
<text text-anchor="middle" x="871.5" y="-7.5" font-family="Helvetica,sans-Serif" font-size="10.00">cmath</text>
</a>
</g>
</g>
<!-- Node19&#45;&gt;Node22 -->
<g id="edge32" class="edge"><title>Node19&#45;&gt;Node22</title>
<path fill="none" stroke="midnightblue" d="M929.414,-56.324C919.014,-48.1849 903.239,-35.8395 890.778,-26.0874"/>
<polygon fill="midnightblue" stroke="midnightblue" points="892.82,-23.2407 882.788,-19.8339 888.506,-28.7533 892.82,-23.2407"/>
</g>
<!-- Node23&#45;&gt;Node1 -->
<g id="edge37" class="edge"><title>Node23&#45;&gt;Node1</title>
<path fill="none" stroke="midnightblue" d="M549.299,-114.112C592.492,-105.944 666.522,-91.6885 739.471,-76.1698"/>
<polygon fill="midnightblue" stroke="midnightblue" points="740.24,-79.5847 749.288,-74.0724 738.777,-72.7392 740.24,-79.5847"/>
</g>
<!-- Node23&#45;&gt;Node4 -->
<g id="edge34" class="edge"><title>Node23&#45;&gt;Node4</title>
<path fill="none" stroke="midnightblue" d="M475.766,-115.241C428.134,-107.609 342.277,-93.2956 259.549,-76.1176"/>
<polygon fill="midnightblue" stroke="midnightblue" points="260.245,-72.6875 249.74,-74.064 258.81,-79.5389 260.245,-72.6875"/>
</g>
<!-- Node23&#45;&gt;Node5 -->
<g id="edge35" class="edge"><title>Node23&#45;&gt;Node5</title>
<path fill="none" stroke="midnightblue" d="M477.941,-112.483C443.329,-103.948 388.268,-90.3517 331.162,-76.1599"/>
<polygon fill="midnightblue" stroke="midnightblue" points="331.783,-72.7079 321.234,-73.6918 330.095,-79.5011 331.783,-72.7079"/>
</g>
<!-- Node23&#45;&gt;Node10 -->
<g id="edge39" class="edge"><title>Node23&#45;&gt;Node10</title>
<path fill="none" stroke="midnightblue" d="M549.083,-117.361C604.994,-111.423 715.152,-98.2392 818.017,-75.7961"/>
<polygon fill="midnightblue" stroke="midnightblue" points="818.941,-79.1763 827.947,-73.5952 817.427,-72.3421 818.941,-79.1763"/>
</g>
<!-- Node23&#45;&gt;Node11 -->
<g id="edge40" class="edge"><title>Node23&#45;&gt;Node11</title>
<path fill="none" stroke="midnightblue" d="M503.342,-112.324C494.999,-104.42 482.468,-92.5482 472.323,-82.9377"/>
<polygon fill="midnightblue" stroke="midnightblue" points="474.491,-80.1705 464.825,-75.8339 469.677,-85.2522 474.491,-80.1705"/>
</g>
<!-- Node23&#45;&gt;Node12 -->
<g id="edge38" class="edge"><title>Node23&#45;&gt;Node12</title>
<path fill="none" stroke="midnightblue" d="M532.94,-112.444C554.17,-103.557 587.599,-89.5632 611.755,-79.4514"/>
<polygon fill="midnightblue" stroke="midnightblue" points="613.282,-82.6064 621.155,-75.5164 610.579,-76.1493 613.282,-82.6064"/>
</g>
<!-- Node23&#45;&gt;Node14 -->
<g id="edge41" class="edge"><title>Node23&#45;&gt;Node14</title>
<path fill="none" stroke="midnightblue" d="M490.95,-112.444C468.469,-103.517 433.012,-89.4387 407.52,-79.3168"/>
<polygon fill="midnightblue" stroke="midnightblue" points="408.535,-75.9539 397.949,-75.5164 405.951,-82.4598 408.535,-75.9539"/>
</g>
<!-- Node23&#45;&gt;Node17 -->
<g id="edge42" class="edge"><title>Node23&#45;&gt;Node17</title>
<path fill="none" stroke="midnightblue" d="M518.61,-112.083C523.782,-104.534 531.346,-93.4948 537.694,-84.2298"/>
<polygon fill="midnightblue" stroke="midnightblue" points="540.739,-85.9787 543.504,-75.7511 534.964,-82.0221 540.739,-85.9787"/>
</g>
<!-- Node24 -->
<g id="node25" class="node"><title>Node24</title>
<g id="a_node25"><a xlink:title=" ">
<polygon fill="white" stroke="#bfbfbf" points="681.5,-56.5 681.5,-75.5 731.5,-75.5 731.5,-56.5 681.5,-56.5"/>
<text text-anchor="middle" x="706.5" y="-63.5" font-family="Helvetica,sans-Serif" font-size="10.00">fstream</text>
</a>
</g>
</g>
<!-- Node23&#45;&gt;Node24 -->
<g id="edge36" class="edge"><title>Node23&#45;&gt;Node24</title>
<path fill="none" stroke="midnightblue" d="M543.24,-112.444C578.202,-102.712 635.163,-86.8567 671.721,-76.6807"/>
<polygon fill="midnightblue" stroke="midnightblue" points="672.761,-80.0244 681.456,-73.971 670.884,-73.2808 672.761,-80.0244"/>
</g>
</g>
</svg>
        <g id="navigator" transform="translate(0 0)" fill="#404254">
                <rect fill="#f2f5e9" fill-opacity="0.5" stroke="#606060" stroke-width=".5" x="0" y="0" width="60" height="60"/>
                <use id="zoomplus" xlink:href="#zoomPlus" x="17" y="9" onmousedown="handleZoom(evt,'in')"/>
                <use id="zoomminus" xlink:href="#zoomMin" x="42" y="9" onmousedown="handleZoom(evt,'out')"/>
                <use id="reset" xlink:href="#resetDef" x="30" y="36" onmousedown="handleReset()"/>
                <g id="arrowUp" xlink:href="#dirArrow" transform="translate(30 24)" onmousedown="handlePan(0,-1)">
                  <use xlink:href="#rim" fill="#404040">
                        <set attributeName="fill" to="#808080" begin="arrowUp.mouseover" end="arrowUp.mouseout"/>
                  </use>
                  <path fill="none" stroke="white" stroke-width="1.5" d="M0,-3.0v7 M-2.5,-0.5L0,-3.0L2.5,-0.5"/>
                </g>
                <g id="arrowRight" xlink:href="#dirArrow" transform="rotate(90) translate(36 -43)" onmousedown="handlePan(1,0)">
                  <use xlink:href="#rim" fill="#404040">
                        <set attributeName="fill" to="#808080" begin="arrowRight.mouseover" end="arrowRight.mouseout"/>
                  </use>
                  <path fill="none" stroke="white" stroke-width="1.5" d="M0,-3.0v7 M-2.5,-0.5L0,-3.0L2.5,-0.5"/>
                </g>
                <g id="arrowDown" xlink:href="#dirArrow" transform="rotate(180) translate(-30 -48)" onmousedown="handlePan(0,1)">
                  <use xlink:href="#rim" fill="#404040">
                        <set attributeName="fill" to="#808080" begin="arrowDown.mouseover" end="arrowDown.mouseout"/>
                  </use>
                  <path fill="none" stroke="white" stroke-width="1.5" d="M0,-3.0v7 M-2.5,-0.5L0,-3.0L2.5,-0.5"/>
                </g>
                <g id="arrowLeft" xlink:href="#dirArrow" transform="rotate(270) translate(-36 17)" onmousedown="handlePan(-1,0)">
                  <use xlink:href="#rim" fill="#404040">
                        <set attributeName="fill" to="#808080" begin="arrowLeft.mouseover" end="arrowLeft.mouseout"/>
                  </use>
                  <path fill="none" stroke="white" stroke-width="1.5" d="M0,-3.0v7 M-2.5,-0.5L0,-3.0L2.5,-0.5"/>
                </g>
        </g>
        <svg viewBox="0 0 15 15" width="100%" height="30px" preserveAspectRatio="xMaxYMin meet">
         <g id="arrow_out" transform="scale(0.3 0.3)">
          <a xlink:href="interface__level2_8hpp__incl_org.svg" target="_base">
           <rect id="button" ry="5" rx="5" y="6" x="6" height="38" width="38"
                fill="#f2f5e9" fill-opacity="0.5" stroke="#606060" stroke-width="1.0"/>
           <path id="arrow"
             d="M 11.500037,31.436501 C 11.940474,20.09759 22.043105,11.32322 32.158766,21.979434 L 37.068811,17.246167 C 37.068811,17.246167 37.088388,32 37.088388,32 L 22.160133,31.978069 C 22.160133,31.978069 26.997745,27.140456 26.997745,27.140456 C 18.528582,18.264221 13.291696,25.230495 11.500037,31.436501 z"
             style="fill:#404040;"/>
          </a>
         </g>
        </svg>
</svg>
