<?xml version="1.0" encoding="UTF-8" standalone="no"?>
<!DOCTYPE svg PUBLIC "-//W3C//DTD SVG 1.1//EN"
 "http://www.w3.org/Graphics/SVG/1.1/DTD/svg11.dtd">
<!-- Generated by graphviz version 2.38.0 (20140413.2041)
 -->
<!-- Title: include/interface_sse_level1_64bits.hpp Pages: 1 -->
<svg width="426pt" height="151pt"
 viewBox="0.00 0.00 426.00 151.00" xmlns="http://www.w3.org/2000/svg" xmlns:xlink="http://www.w3.org/1999/xlink">
<g id="graph0" class="graph" transform="scale(1 1) rotate(0) translate(4 147)">
<title>include/interface_sse_level1_64bits.hpp</title>
<polygon fill="white" stroke="none" points="-4,4 -4,-147 422,-147 422,4 -4,4"/>
<!-- Node0 -->
<g id="node1" class="node"><title>Node0</title>
<g id="a_node1"><a xlink:title="interface sse level1 64bits">
<polygon fill="#bfbfbf" stroke="black" points="85,-112.5 85,-142.5 197,-142.5 197,-112.5 85,-112.5"/>
<text text-anchor="start" x="93" y="-130.5" font-family="Helvetica,sans-Serif" font-size="10.00">include/interface_sse</text>
<text text-anchor="middle" x="141" y="-119.5" font-family="Helvetica,sans-Serif" font-size="10.00">_level1_64bits.hpp</text>
</a>
</g>
</g>
<!-- Node1 -->
<g id="node2" class="node"><title>Node1</title>
<g id="a_node2"><a xlink:title=" ">
<polygon fill="white" stroke="#bfbfbf" points="0,-56.5 0,-75.5 48,-75.5 48,-56.5 0,-56.5"/>
<text text-anchor="middle" x="24" y="-63.5" font-family="Helvetica,sans-Serif" font-size="10.00">string.h</text>
</a>
</g>
</g>
<!-- Node0&#45;&gt;Node1 -->
<g id="edge1" class="edge"><title>Node0&#45;&gt;Node1</title>
<path fill="none" stroke="midnightblue" d="M113.273,-112.399C94.1679,-102.684 68.9419,-89.8551 50.1799,-80.3137"/>
<polygon fill="midnightblue" stroke="midnightblue" points="51.5247,-77.071 41.0245,-75.6578 48.3516,-83.3106 51.5247,-77.071"/>
</g>
<!-- Node2 -->
<g id="node3" class="node"><title>Node2</title>
<g id="a_node3"><a xlink:title=" ">
<polygon fill="white" stroke="#bfbfbf" points="54.5,-0.5 54.5,-19.5 101.5,-19.5 101.5,-0.5 54.5,-0.5"/>
<text text-anchor="middle" x="78" y="-7.5" font-family="Helvetica,sans-Serif" font-size="10.00">stdint.h</text>
</a>
</g>
</g>
<!-- Node0&#45;&gt;Node2 -->
<g id="edge2" class="edge"><title>Node0&#45;&gt;Node2</title>
<path fill="none" stroke="midnightblue" d="M124.334,-112.117C114.465,-102.755 102.468,-89.7582 95,-76 87.1749,-61.5839 82.817,-43.3922 80.4783,-29.9229"/>
<polygon fill="midnightblue" stroke="midnightblue" points="83.9189,-29.267 78.9569,-19.9059 76.9983,-30.3181 83.9189,-29.267"/>
</g>
<!-- Node3 -->
<g id="node4" class="node"><title>Node3</title>
<g id="a_node4"><a xlink:href="common_8hpp.html" target="_top" xlink:title="common">
<polygon fill="white" stroke="black" points="104,-56.5 104,-75.5 178,-75.5 178,-56.5 104,-56.5"/>
<text text-anchor="middle" x="141" y="-63.5" font-family="Helvetica,sans-Serif" font-size="10.00">common.hpp</text>
</a>
</g>
</g>
<!-- Node0&#45;&gt;Node3 -->
<g id="edge3" class="edge"><title>Node0&#45;&gt;Node3</title>
<path fill="none" stroke="midnightblue" d="M141,-112.399C141,-104.466 141,-94.458 141,-85.8583"/>
<polygon fill="midnightblue" stroke="midnightblue" points="144.5,-85.6577 141,-75.6578 137.5,-85.6578 144.5,-85.6577"/>
</g>
<!-- Node5 -->
<g id="node6" class="node"><title>Node5</title>
<g id="a_node6"><a xlink:title=" ">
<polygon fill="white" stroke="#bfbfbf" points="196.5,-56.5 196.5,-75.5 351.5,-75.5 351.5,-56.5 196.5,-56.5"/>
<text text-anchor="middle" x="274" y="-63.5" font-family="Helvetica,sans-Serif" font-size="10.00">common_ssekernel_64bits.hpp</text>
</a>
</g>
</g>
<!-- Node0&#45;&gt;Node5 -->
<g id="edge6" class="edge"><title>Node0&#45;&gt;Node5</title>
<path fill="none" stroke="midnightblue" d="M172.519,-112.399C194.635,-102.505 223.967,-89.3832 245.406,-79.7919"/>
<polygon fill="midnightblue" stroke="midnightblue" points="246.948,-82.9364 254.647,-75.6578 244.09,-76.5466 246.948,-82.9364"/>
</g>
<!-- Node6 -->
<g id="node7" class="node"><title>Node6</title>
<g id="a_node7"><a xlink:title=" ">
<polygon fill="white" stroke="#bfbfbf" points="370,-56.5 370,-75.5 418,-75.5 418,-56.5 370,-56.5"/>
<text text-anchor="middle" x="394" y="-63.5" font-family="Helvetica,sans-Serif" font-size="10.00">cblas.h</text>
</a>
</g>
</g>
<!-- Node0&#45;&gt;Node6 -->
<g id="edge7" class="edge"><title>Node0&#45;&gt;Node6</title>
<path fill="none" stroke="midnightblue" d="M197.213,-114.257C239.493,-104.897 299.082,-91.3874 360.08,-76.1584"/>
<polygon fill="midnightblue" stroke="midnightblue" points="361.031,-79.5282 369.879,-73.6998 359.328,-72.7386 361.031,-79.5282"/>
</g>
<!-- Node3&#45;&gt;Node2 -->
<g id="edge4" class="edge"><title>Node3&#45;&gt;Node2</title>
<path fill="none" stroke="midnightblue" d="M130.878,-56.324C121.474,-48.2631 107.256,-36.0765 95.931,-26.3695"/>
<polygon fill="midnightblue" stroke="midnightblue" points="98.1766,-23.6844 88.3062,-19.8339 93.621,-28.9993 98.1766,-23.6844"/>
</g>
<!-- Node4 -->
<g id="node5" class="node"><title>Node4</title>
<g id="a_node5"><a xlink:title=" ">
<polygon fill="white" stroke="#bfbfbf" points="121.5,-0.5 121.5,-19.5 160.5,-19.5 160.5,-0.5 121.5,-0.5"/>
<text text-anchor="middle" x="141" y="-7.5" font-family="Helvetica,sans-Serif" font-size="10.00">limits</text>
</a>
</g>
</g>
<!-- Node3&#45;&gt;Node4 -->
<g id="edge5" class="edge"><title>Node3&#45;&gt;Node4</title>
<path fill="none" stroke="midnightblue" d="M141,-56.083C141,-49.0059 141,-38.8611 141,-29.9865"/>
<polygon fill="midnightblue" stroke="midnightblue" points="144.5,-29.751 141,-19.7511 137.5,-29.7511 144.5,-29.751"/>
</g>
</g>
</svg>
