<?xml version="1.0" encoding="UTF-8" standalone="no"?>
<!DOCTYPE svg PUBLIC "-//W3C//DTD SVG 1.1//EN"
 "http://www.w3.org/Graphics/SVG/1.1/DTD/svg11.dtd">
<!-- Generated by graphviz version 2.38.0 (20140413.2041)
 -->
<!-- Title: include/matrix_resizablerow.hpp Pages: 1 -->
<!--zoomable 196 -->
<svg id="main" version="1.1" xmlns="http://www.w3.org/2000/svg" xmlns:xlink="http://www.w3.org/1999/xlink" xml:space="preserve" onload="init(evt)">
<style type="text/css"><![CDATA[
.edge:hover path { stroke: red; }
.edge:hover polygon { stroke: red; fill: red; }
]]></style>
<script type="text/javascript"><![CDATA[
var edges = document.getElementsByTagName('g');
if (edges && edges.length) {
  for (var i=0;i<edges.length;i++) {
    if (edges[i].id.substr(0,4)=='edge') {
      edges[i].setAttribute('class','edge');
    }
  }
}
]]></script>
        <defs>
                <circle id="rim" cx="0" cy="0" r="7"/>
                <circle id="rim2" cx="0" cy="0" r="3.5"/>
                <g id="zoomPlus">
                        <use xlink:href="#rim" fill="#404040">
                                <set attributeName="fill" to="#808080" begin="zoomplus.mouseover" end="zoomplus.mouseout"/>
                        </use>
                        <path d="M-4,0h8M0,-4v8" fill="none" stroke="white" stroke-width="1.5" pointer-events="none"/>
                </g>
                <g id="zoomMin">
                        <use xlink:href="#rim" fill="#404040">
                                <set attributeName="fill" to="#808080" begin="zoomminus.mouseover" end="zoomminus.mouseout"/>
                        </use>
                        <path d="M-4,0h8" fill="none" stroke="white" stroke-width="1.5" pointer-events="none"/>
                </g>
                <g id="dirArrow">
                        <path fill="none" stroke="white" stroke-width="1.5" d="M0,-3.0v7 M-2.5,-0.5L0,-3.0L2.5,-0.5"/>
                </g>
               <g id="resetDef">
                       <use xlink:href="#rim2" fill="#404040">
                               <set attributeName="fill" to="#808080" begin="reset.mouseover" end="reset.mouseout"/>
                       </use>
               </g>
        </defs>

<script type="text/javascript">
var viewWidth = 768;
var viewHeight = 196;
var sectionId = 'dynsection-0';
</script>
<script xlink:href="svgpan.js"/>
<svg id="graph" class="graph">
<g id="viewport">
<title>include/matrix_resizablerow.hpp</title>
<polygon fill="white" stroke="none" points="-4,4 -4,-192 763.632,-192 763.632,4 -4,4"/>
<!-- Node0 -->
<g id="node1" class="node"><title>Node0</title>
<g id="a_node1"><a xlink:title="Matrix with resizable number of rows.">
<polygon fill="#bfbfbf" stroke="black" points="63.6317,-168.5 63.6317,-187.5 223.632,-187.5 223.632,-168.5 63.6317,-168.5"/>
<text text-anchor="middle" x="143.632" y="-175.5" font-family="Helvetica,sans-Serif" font-size="10.00">include/matrix_resizablerow.hpp</text>
</a>
</g>
</g>
<!-- Node1 -->
<g id="node2" class="node"><title>Node1</title>
<g id="a_node2"><a xlink:title=" ">
<polygon fill="white" stroke="#bfbfbf" points="246.132,-0.5 246.132,-19.5 285.132,-19.5 285.132,-0.5 246.132,-0.5"/>
<text text-anchor="middle" x="265.632" y="-7.5" font-family="Helvetica,sans-Serif" font-size="10.00">limits</text>
</a>
</g>
</g>
<!-- Node0&#45;&gt;Node1 -->
<g id="edge1" class="edge"><title>Node0&#45;&gt;Node1</title>
<path fill="none" stroke="midnightblue" d="M119.602,-168.36C71.1948,-149.687 -30.1733,-103.412 9.6317,-56 38.2355,-21.9297 174.627,-13.647 235.812,-11.6394"/>
<polygon fill="midnightblue" stroke="midnightblue" points="236.086,-15.1329 245.979,-11.3414 235.881,-8.13593 236.086,-15.1329"/>
</g>
<!-- Node2 -->
<g id="node3" class="node"><title>Node2</title>
<g id="a_node3"><a xlink:title=" ">
<polygon fill="white" stroke="#bfbfbf" points="121.632,-112.5 121.632,-131.5 165.632,-131.5 165.632,-112.5 121.632,-112.5"/>
<text text-anchor="middle" x="143.632" y="-119.5" font-family="Helvetica,sans-Serif" font-size="10.00">cmath</text>
</a>
</g>
</g>
<!-- Node0&#45;&gt;Node2 -->
<g id="edge2" class="edge"><title>Node0&#45;&gt;Node2</title>
<path fill="none" stroke="midnightblue" d="M143.632,-168.083C143.632,-161.006 143.632,-150.861 143.632,-141.986"/>
<polygon fill="midnightblue" stroke="midnightblue" points="147.132,-141.751 143.632,-131.751 140.132,-141.751 147.132,-141.751"/>
</g>
<!-- Node3 -->
<g id="node4" class="node"><title>Node3</title>
<g id="a_node4"><a xlink:href="matrix__base_8hpp.html" target="_top" xlink:title="matrix base">
<polygon fill="white" stroke="black" points="286.132,-112.5 286.132,-131.5 375.132,-131.5 375.132,-112.5 286.132,-112.5"/>
<text text-anchor="middle" x="330.632" y="-119.5" font-family="Helvetica,sans-Serif" font-size="10.00">matrix_base.hpp</text>
</a>
</g>
</g>
<!-- Node0&#45;&gt;Node3 -->
<g id="edge3" class="edge"><title>Node0&#45;&gt;Node3</title>
<path fill="none" stroke="midnightblue" d="M173.262,-168.444C205.132,-159.241 255.964,-144.562 291.196,-134.388"/>
<polygon fill="midnightblue" stroke="midnightblue" points="292.503,-137.653 301.14,-131.516 290.561,-130.928 292.503,-137.653"/>
</g>
<!-- Node4 -->
<g id="node5" class="node"><title>Node4</title>
<g id="a_node5"><a xlink:title=" ">
<polygon fill="white" stroke="#bfbfbf" points="18.6317,-56.5 18.6317,-75.5 74.6317,-75.5 74.6317,-56.5 18.6317,-56.5"/>
<text text-anchor="middle" x="46.6317" y="-63.5" font-family="Helvetica,sans-Serif" font-size="10.00">iostream</text>
</a>
</g>
</g>
<!-- Node3&#45;&gt;Node4 -->
<g id="edge4" class="edge"><title>Node3&#45;&gt;Node4</title>
<path fill="none" stroke="midnightblue" d="M285.856,-113.652C238.385,-105.681 160.99,-92.1748 85.0866,-76.2141"/>
<polygon fill="midnightblue" stroke="midnightblue" points="85.383,-72.6993 74.8746,-74.0497 83.9316,-79.5471 85.383,-72.6993"/>
</g>
<!-- Node5 -->
<g id="node6" class="node"><title>Node5</title>
<g id="a_node6"><a xlink:title=" ">
<polygon fill="white" stroke="#bfbfbf" points="93.1317,-56.5 93.1317,-75.5 146.132,-75.5 146.132,-56.5 93.1317,-56.5"/>
<text text-anchor="middle" x="119.632" y="-63.5" font-family="Helvetica,sans-Serif" font-size="10.00">sstream</text>
</a>
</g>
</g>
<!-- Node3&#45;&gt;Node5 -->
<g id="edge5" class="edge"><title>Node3&#45;&gt;Node5</title>
<path fill="none" stroke="midnightblue" d="M297.215,-112.471C263.816,-103.942 210.722,-90.3765 156.213,-76.4034"/>
<polygon fill="midnightblue" stroke="midnightblue" points="156.94,-72.9765 146.384,-73.8831 155.201,-79.7571 156.94,-72.9765"/>
</g>
<!-- Node6 -->
<g id="node7" class="node"><title>Node6</title>
<g id="a_node7"><a xlink:title=" ">
<polygon fill="white" stroke="#bfbfbf" points="164.132,-56.5 164.132,-75.5 215.132,-75.5 215.132,-56.5 164.132,-56.5"/>
<text text-anchor="middle" x="189.632" y="-63.5" font-family="Helvetica,sans-Serif" font-size="10.00">typeinfo</text>
</a>
</g>
</g>
<!-- Node3&#45;&gt;Node6 -->
<g id="edge6" class="edge"><title>Node3&#45;&gt;Node6</title>
<path fill="none" stroke="midnightblue" d="M308.29,-112.444C284.879,-103.478 247.896,-89.314 221.442,-79.1827"/>
<polygon fill="midnightblue" stroke="midnightblue" points="222.459,-75.8245 211.869,-75.5164 219.956,-82.3615 222.459,-75.8245"/>
</g>
<!-- Node7 -->
<g id="node8" class="node"><title>Node7</title>
<g id="a_node8"><a xlink:title=" ">
<polygon fill="white" stroke="#bfbfbf" points="233.632,-56.5 233.632,-75.5 293.632,-75.5 293.632,-56.5 233.632,-56.5"/>
<text text-anchor="middle" x="263.632" y="-63.5" font-family="Helvetica,sans-Serif" font-size="10.00">stdexcept</text>
</a>
</g>
</g>
<!-- Node3&#45;&gt;Node7 -->
<g id="edge7" class="edge"><title>Node3&#45;&gt;Node7</title>
<path fill="none" stroke="midnightblue" d="M319.867,-112.324C309.866,-104.263 294.745,-92.0765 282.701,-82.3695"/>
<polygon fill="midnightblue" stroke="midnightblue" points="284.575,-79.3841 274.592,-75.8339 280.182,-84.8343 284.575,-79.3841"/>
</g>
<!-- Node8 -->
<g id="node9" class="node"><title>Node8</title>
<g id="a_node9"><a xlink:title=" ">
<polygon fill="white" stroke="#bfbfbf" points="311.632,-56.5 311.632,-75.5 349.632,-75.5 349.632,-56.5 311.632,-56.5"/>
<text text-anchor="middle" x="330.632" y="-63.5" font-family="Helvetica,sans-Serif" font-size="10.00">utility</text>
</a>
</g>
</g>
<!-- Node3&#45;&gt;Node8 -->
<g id="edge8" class="edge"><title>Node3&#45;&gt;Node8</title>
<path fill="none" stroke="midnightblue" d="M330.632,-112.083C330.632,-105.006 330.632,-94.8611 330.632,-85.9865"/>
<polygon fill="midnightblue" stroke="midnightblue" points="334.132,-85.751 330.632,-75.7511 327.132,-85.7511 334.132,-85.751"/>
</g>
<!-- Node9 -->
<g id="node10" class="node"><title>Node9</title>
<g id="a_node10"><a xlink:title=" ">
<polygon fill="white" stroke="#bfbfbf" points="367.632,-56.5 367.632,-75.5 417.632,-75.5 417.632,-56.5 367.632,-56.5"/>
<text text-anchor="middle" x="392.632" y="-63.5" font-family="Helvetica,sans-Serif" font-size="10.00">cassert</text>
</a>
</g>
</g>
<!-- Node3&#45;&gt;Node9 -->
<g id="edge9" class="edge"><title>Node3&#45;&gt;Node9</title>
<path fill="none" stroke="midnightblue" d="M340.593,-112.324C349.758,-104.341 363.569,-92.3128 374.66,-82.6529"/>
<polygon fill="midnightblue" stroke="midnightblue" points="377.247,-85.041 382.489,-75.8339 372.649,-79.7624 377.247,-85.041"/>
</g>
<!-- Node10 -->
<g id="node11" class="node"><title>Node10</title>
<g id="a_node11"><a xlink:title=" ">
<polygon fill="white" stroke="#bfbfbf" points="435.632,-56.5 435.632,-75.5 483.632,-75.5 483.632,-56.5 435.632,-56.5"/>
<text text-anchor="middle" x="459.632" y="-63.5" font-family="Helvetica,sans-Serif" font-size="10.00">string.h</text>
</a>
</g>
</g>
<!-- Node3&#45;&gt;Node10 -->
<g id="edge10" class="edge"><title>Node3&#45;&gt;Node10</title>
<path fill="none" stroke="midnightblue" d="M351.072,-112.444C372.302,-103.557 405.731,-89.5632 429.887,-79.4514"/>
<polygon fill="midnightblue" stroke="midnightblue" points="431.414,-82.6064 439.287,-75.5164 428.711,-76.1493 431.414,-82.6064"/>
</g>
<!-- Node11 -->
<g id="node12" class="node"><title>Node11</title>
<g id="a_node12"><a xlink:title=" ">
<polygon fill="white" stroke="#bfbfbf" points="501.632,-56.5 501.632,-75.5 545.632,-75.5 545.632,-56.5 501.632,-56.5"/>
<text text-anchor="middle" x="523.632" y="-63.5" font-family="Helvetica,sans-Serif" font-size="10.00">vector</text>
</a>
</g>
</g>
<!-- Node3&#45;&gt;Node11 -->
<g id="edge11" class="edge"><title>Node3&#45;&gt;Node11</title>
<path fill="none" stroke="midnightblue" d="M361.718,-112.48C392.377,-104.052 440.825,-90.6664 491.752,-76.227"/>
<polygon fill="midnightblue" stroke="midnightblue" points="492.962,-79.5219 501.625,-73.4231 491.05,-72.7881 492.962,-79.5219"/>
</g>
<!-- Node12 -->
<g id="node13" class="node"><title>Node12</title>
<g id="a_node13"><a xlink:href="common_8hpp.html" target="_top" xlink:title="common">
<polygon fill="white" stroke="black" points="563.632,-56.5 563.632,-75.5 637.632,-75.5 637.632,-56.5 563.632,-56.5"/>
<text text-anchor="middle" x="600.632" y="-63.5" font-family="Helvetica,sans-Serif" font-size="10.00">common.hpp</text>
</a>
</g>
</g>
<!-- Node3&#45;&gt;Node12 -->
<g id="edge12" class="edge"><title>Node3&#45;&gt;Node12</title>
<path fill="none" stroke="midnightblue" d="M373.414,-112.444C422.382,-102.65 502.356,-86.655 553.194,-76.4875"/>
<polygon fill="midnightblue" stroke="midnightblue" points="554.147,-79.8663 563.267,-74.473 552.774,-73.0022 554.147,-79.8663"/>
</g>
<!-- Node14 -->
<g id="node15" class="node"><title>Node14</title>
<g id="a_node15"><a xlink:href="verbose__global_8hpp.html" target="_top" xlink:title="verbose global">
<polygon fill="white" stroke="black" points="655.632,-56.5 655.632,-75.5 759.632,-75.5 759.632,-56.5 655.632,-56.5"/>
<text text-anchor="middle" x="707.632" y="-63.5" font-family="Helvetica,sans-Serif" font-size="10.00">verbose_global.hpp</text>
</a>
</g>
</g>
<!-- Node3&#45;&gt;Node14 -->
<g id="edge15" class="edge"><title>Node3&#45;&gt;Node14</title>
<path fill="none" stroke="midnightblue" d="M375.384,-114.699C434.712,-106.331 542.941,-91.0084 645.487,-76.1605"/>
<polygon fill="midnightblue" stroke="midnightblue" points="645.996,-79.6233 655.391,-74.7253 644.992,-72.6956 645.996,-79.6233"/>
</g>
<!-- Node12&#45;&gt;Node1 -->
<g id="edge14" class="edge"><title>Node12&#45;&gt;Node1</title>
<path fill="none" stroke="midnightblue" d="M563.498,-57.6065C560.501,-57.0489 557.517,-56.5067 554.632,-56 460.117,-39.402 347.655,-22.7869 295.249,-15.2249"/>
<polygon fill="midnightblue" stroke="midnightblue" points="295.695,-11.7531 285.298,-13.7939 294.698,-18.6818 295.695,-11.7531"/>
</g>
<!-- Node13 -->
<g id="node14" class="node"><title>Node13</title>
<g id="a_node14"><a xlink:title=" ">
<polygon fill="white" stroke="#bfbfbf" points="577.132,-0.5 577.132,-19.5 624.132,-19.5 624.132,-0.5 577.132,-0.5"/>
<text text-anchor="middle" x="600.632" y="-7.5" font-family="Helvetica,sans-Serif" font-size="10.00">stdint.h</text>
</a>
</g>
</g>
<!-- Node12&#45;&gt;Node13 -->
<g id="edge13" class="edge"><title>Node12&#45;&gt;Node13</title>
<path fill="none" stroke="midnightblue" d="M600.632,-56.083C600.632,-49.0059 600.632,-38.8611 600.632,-29.9865"/>
<polygon fill="midnightblue" stroke="midnightblue" points="604.132,-29.751 600.632,-19.7511 597.132,-29.7511 604.132,-29.751"/>
</g>
</g>
</svg>
        <g id="navigator" transform="translate(0 0)" fill="#404254">
                <rect fill="#f2f5e9" fill-opacity="0.5" stroke="#606060" stroke-width=".5" x="0" y="0" width="60" height="60"/>
                <use id="zoomplus" xlink:href="#zoomPlus" x="17" y="9" onmousedown="handleZoom(evt,'in')"/>
                <use id="zoomminus" xlink:href="#zoomMin" x="42" y="9" onmousedown="handleZoom(evt,'out')"/>
                <use id="reset" xlink:href="#resetDef" x="30" y="36" onmousedown="handleReset()"/>
                <g id="arrowUp" xlink:href="#dirArrow" transform="translate(30 24)" onmousedown="handlePan(0,-1)">
                  <use xlink:href="#rim" fill="#404040">
                        <set attributeName="fill" to="#808080" begin="arrowUp.mouseover" end="arrowUp.mouseout"/>
                  </use>
                  <path fill="none" stroke="white" stroke-width="1.5" d="M0,-3.0v7 M-2.5,-0.5L0,-3.0L2.5,-0.5"/>
                </g>
                <g id="arrowRight" xlink:href="#dirArrow" transform="rotate(90) translate(36 -43)" onmousedown="handlePan(1,0)">
                  <use xlink:href="#rim" fill="#404040">
                        <set attributeName="fill" to="#808080" begin="arrowRight.mouseover" end="arrowRight.mouseout"/>
                  </use>
                  <path fill="none" stroke="white" stroke-width="1.5" d="M0,-3.0v7 M-2.5,-0.5L0,-3.0L2.5,-0.5"/>
                </g>
                <g id="arrowDown" xlink:href="#dirArrow" transform="rotate(180) translate(-30 -48)" onmousedown="handlePan(0,1)">
                  <use xlink:href="#rim" fill="#404040">
                        <set attributeName="fill" to="#808080" begin="arrowDown.mouseover" end="arrowDown.mouseout"/>
                  </use>
                  <path fill="none" stroke="white" stroke-width="1.5" d="M0,-3.0v7 M-2.5,-0.5L0,-3.0L2.5,-0.5"/>
                </g>
                <g id="arrowLeft" xlink:href="#dirArrow" transform="rotate(270) translate(-36 17)" onmousedown="handlePan(-1,0)">
                  <use xlink:href="#rim" fill="#404040">
                        <set attributeName="fill" to="#808080" begin="arrowLeft.mouseover" end="arrowLeft.mouseout"/>
                  </use>
                  <path fill="none" stroke="white" stroke-width="1.5" d="M0,-3.0v7 M-2.5,-0.5L0,-3.0L2.5,-0.5"/>
                </g>
        </g>
        <svg viewBox="0 0 15 15" width="100%" height="30px" preserveAspectRatio="xMaxYMin meet">
         <g id="arrow_out" transform="scale(0.3 0.3)">
          <a xlink:href="matrix__resizablerow_8hpp__incl_org.svg" target="_base">
           <rect id="button" ry="5" rx="5" y="6" x="6" height="38" width="38"
                fill="#f2f5e9" fill-opacity="0.5" stroke="#606060" stroke-width="1.0"/>
           <path id="arrow"
             d="M 11.500037,31.436501 C 11.940474,20.09759 22.043105,11.32322 32.158766,21.979434 L 37.068811,17.246167 C 37.068811,17.246167 37.088388,32 37.088388,32 L 22.160133,31.978069 C 22.160133,31.978069 26.997745,27.140456 26.997745,27.140456 C 18.528582,18.264221 13.291696,25.230495 11.500037,31.436501 z"
             style="fill:#404040;"/>
          </a>
         </g>
        </svg>
</svg>
