<?xml version="1.0" encoding="UTF-8" standalone="no"?>
<!DOCTYPE svg PUBLIC "-//W3C//DTD SVG 1.1//EN"
 "http://www.w3.org/Graphics/SVG/1.1/DTD/svg11.dtd">
<!-- Generated by graphviz version 2.38.0 (20140413.2041)
 -->
<!-- Title: include/matrix_triangular.hpp Pages: 1 -->
<svg width="2845pt" height="665pt"
 viewBox="0.00 0.00 2844.50 665.00" xmlns="http://www.w3.org/2000/svg" xmlns:xlink="http://www.w3.org/1999/xlink">
<g id="graph0" class="graph" transform="scale(1 1) rotate(0) translate(4 661)">
<title>include/matrix_triangular.hpp</title>
<polygon fill="white" stroke="none" points="-4,4 -4,-661 2840.5,-661 2840.5,4 -4,4"/>
<!-- Node5 -->
<g id="node1" class="node"><title>Node5</title>
<polygon fill="#bfbfbf" stroke="black" points="1716.5,-637.5 1716.5,-656.5 1859.5,-656.5 1859.5,-637.5 1716.5,-637.5"/>
<text text-anchor="middle" x="1788" y="-644.5" font-family="Helvetica,sans-Serif" font-size="10.00">include/matrix_triangular.hpp</text>
</g>
<!-- Node6 -->
<g id="node2" class="node"><title>Node6</title>
<g id="a_node2"><a xlink:href="nearestinstance__operator_8hpp.html" target="_top" xlink:title="nearest instance operator ">
<polygon fill="white" stroke="black" points="1449.5,-570.5 1449.5,-600.5 1572.5,-600.5 1572.5,-570.5 1449.5,-570.5"/>
<text text-anchor="start" x="1457.5" y="-588.5" font-family="Helvetica,sans-Serif" font-size="10.00">include/nearestinstance</text>
<text text-anchor="middle" x="1511" y="-577.5" font-family="Helvetica,sans-Serif" font-size="10.00">_operator.hpp</text>
</a>
</g>
</g>
<!-- Node5&#45;&gt;Node6 -->
<g id="edge1" class="edge"><title>Node5&#45;&gt;Node6</title>
<path fill="none" stroke="midnightblue" d="M1738.49,-635.365C1692.08,-625.396 1622.55,-610.461 1572.58,-599.727"/>
<polygon fill="midnightblue" stroke="midnightblue" points="1737.8,-638.797 1748.31,-637.475 1739.27,-631.953 1737.8,-638.797"/>
</g>
<!-- Node43 -->
<g id="node39" class="node"><title>Node43</title>
<g id="a_node39"><a xlink:href="partition__medoids_8hpp.html" target="_top" xlink:title="Partition based on centroids medoids. ">
<polygon fill="white" stroke="black" points="1764.5,-514.5 1764.5,-533.5 1913.5,-533.5 1913.5,-514.5 1764.5,-514.5"/>
<text text-anchor="middle" x="1839" y="-521.5" font-family="Helvetica,sans-Serif" font-size="10.00">include/partition_medoids.hpp</text>
</a>
</g>
</g>
<!-- Node5&#45;&gt;Node43 -->
<g id="edge63" class="edge"><title>Node5&#45;&gt;Node43</title>
<path fill="none" stroke="midnightblue" d="M1795.56,-628.052C1806.7,-601.625 1827.09,-553.256 1835.37,-533.623"/>
<polygon fill="midnightblue" stroke="midnightblue" points="1792.33,-626.724 1791.67,-637.298 1798.78,-629.442 1792.33,-626.724"/>
</g>
<!-- Node44 -->
<g id="node40" class="node"><title>Node44</title>
<g id="a_node40"><a xlink:href="dist__matrix__dissimilarity_8hpp.html" target="_top" xlink:title="distance matrix between objects ">
<polygon fill="white" stroke="black" points="1693,-570.5 1693,-600.5 1793,-600.5 1793,-570.5 1693,-570.5"/>
<text text-anchor="start" x="1701" y="-588.5" font-family="Helvetica,sans-Serif" font-size="10.00">include/dist_matrix</text>
<text text-anchor="middle" x="1743" y="-577.5" font-family="Helvetica,sans-Serif" font-size="10.00">_dissimilarity.hpp</text>
</a>
</g>
</g>
<!-- Node5&#45;&gt;Node44 -->
<g id="edge59" class="edge"><title>Node5&#45;&gt;Node44</title>
<path fill="none" stroke="midnightblue" d="M1775.33,-629.247C1768.48,-620.187 1760.11,-609.124 1753.61,-600.523"/>
<polygon fill="midnightblue" stroke="midnightblue" points="1772.73,-631.611 1781.55,-637.475 1778.31,-627.388 1772.73,-631.611"/>
</g>
<!-- Node45 -->
<g id="node41" class="node"><title>Node45</title>
<g id="a_node41"><a xlink:href="graph__utils_8hpp.html" target="_top" xlink:title="algorithms and utilities for graphs ">
<polygon fill="white" stroke="black" points="1932,-514.5 1932,-533.5 2050,-533.5 2050,-514.5 1932,-514.5"/>
<text text-anchor="middle" x="1991" y="-521.5" font-family="Helvetica,sans-Serif" font-size="10.00">include/graph_utils.hpp</text>
</a>
</g>
</g>
<!-- Node5&#45;&gt;Node45 -->
<g id="edge61" class="edge"><title>Node5&#45;&gt;Node45</title>
<path fill="none" stroke="midnightblue" d="M1811,-632.291C1853.15,-607.168 1941.64,-554.423 1976.47,-533.661"/>
<polygon fill="midnightblue" stroke="midnightblue" points="1809.07,-629.365 1802.27,-637.492 1812.66,-635.378 1809.07,-629.365"/>
</g>
<!-- Node7 -->
<g id="node3" class="node"><title>Node7</title>
<g id="a_node3"><a xlink:href="partition__linked_8hpp.html" target="_top" xlink:title="Linked partition data structure. ">
<polygon fill="white" stroke="black" points="1565.5,-514.5 1565.5,-533.5 1702.5,-533.5 1702.5,-514.5 1565.5,-514.5"/>
<text text-anchor="middle" x="1634" y="-521.5" font-family="Helvetica,sans-Serif" font-size="10.00">include/partition_linked.hpp</text>
</a>
</g>
</g>
<!-- Node6&#45;&gt;Node7 -->
<g id="edge2" class="edge"><title>Node6&#45;&gt;Node7</title>
<path fill="none" stroke="midnightblue" d="M1549.37,-565.94C1571.65,-555.159 1598.68,-542.084 1616.1,-533.658"/>
<polygon fill="midnightblue" stroke="midnightblue" points="1547.63,-562.894 1540.15,-570.399 1550.68,-569.195 1547.63,-562.894"/>
</g>
<!-- Node31 -->
<g id="node27" class="node"><title>Node31</title>
<g id="a_node27"><a xlink:href="clustering__operator__centroids_8hpp.html" target="_top" xlink:title="clustering operator centroids ">
<polygon fill="white" stroke="black" points="1455,-246.5 1455,-276.5 1579,-276.5 1579,-246.5 1455,-246.5"/>
<text text-anchor="start" x="1463" y="-264.5" font-family="Helvetica,sans-Serif" font-size="10.00">include/clustering</text>
<text text-anchor="middle" x="1517" y="-253.5" font-family="Helvetica,sans-Serif" font-size="10.00">_operator_centroids.hpp</text>
</a>
</g>
</g>
<!-- Node6&#45;&gt;Node31 -->
<g id="edge48" class="edge"><title>Node6&#45;&gt;Node31</title>
<path fill="none" stroke="midnightblue" d="M1501.21,-560.909C1492.13,-536.848 1480,-498.224 1480,-463.5 1480,-463.5 1480,-463.5 1480,-394.5 1480,-350.232 1499.53,-300.609 1510.21,-276.781"/>
<polygon fill="midnightblue" stroke="midnightblue" points="1497.97,-562.236 1504.88,-570.275 1504.49,-559.687 1497.97,-562.236"/>
</g>
<!-- Node33 -->
<g id="node29" class="node"><title>Node33</title>
<g id="a_node29"><a xlink:href="clustering__operator__crispmatrix_8hpp.html" target="_top" xlink:title="clustering operator crispmatrix ">
<polygon fill="white" stroke="black" points="1267.5,-179.5 1267.5,-209.5 1398.5,-209.5 1398.5,-179.5 1267.5,-179.5"/>
<text text-anchor="start" x="1275.5" y="-197.5" font-family="Helvetica,sans-Serif" font-size="10.00">include/clustering</text>
<text text-anchor="middle" x="1333" y="-186.5" font-family="Helvetica,sans-Serif" font-size="10.00">_operator_crispmatrix.hpp</text>
</a>
</g>
</g>
<!-- Node6&#45;&gt;Node33 -->
<g id="edge54" class="edge"><title>Node6&#45;&gt;Node33</title>
<path fill="none" stroke="midnightblue" d="M1439.16,-576.988C1371.35,-565.451 1280,-536.383 1280,-463.5 1280,-463.5 1280,-463.5 1280,-327.5 1280,-281.814 1307.68,-233.224 1323.03,-209.786"/>
<polygon fill="midnightblue" stroke="midnightblue" points="1438.97,-580.503 1449.4,-578.63 1440.08,-573.591 1438.97,-580.503"/>
</g>
<!-- Node35 -->
<g id="node31" class="node"><title>Node35</title>
<g id="a_node31"><a xlink:href="partition__linked__numinst_8hpp.html" target="_top" xlink:title="Linked partition data structure with number of instances. ">
<polygon fill="white" stroke="black" points="1508.5,-447.5 1508.5,-477.5 1627.5,-477.5 1627.5,-447.5 1508.5,-447.5"/>
<text text-anchor="start" x="1516.5" y="-465.5" font-family="Helvetica,sans-Serif" font-size="10.00">include/partition_linked</text>
<text text-anchor="middle" x="1568" y="-454.5" font-family="Helvetica,sans-Serif" font-size="10.00">_numinst.hpp</text>
</a>
</g>
</g>
<!-- Node6&#45;&gt;Node35 -->
<g id="edge47" class="edge"><title>Node6&#45;&gt;Node35</title>
<path fill="none" stroke="midnightblue" d="M1522.18,-560.776C1533.8,-536.108 1551.61,-498.294 1561.25,-477.837"/>
<polygon fill="midnightblue" stroke="midnightblue" points="1518.86,-559.606 1517.76,-570.145 1525.19,-562.59 1518.86,-559.606"/>
</g>
<!-- Node40 -->
<g id="node36" class="node"><title>Node40</title>
<g id="a_node36"><a xlink:href="partition__disjsets_8hpp.html" target="_top" xlink:title="Partition based on structure of disjoint joint data. ">
<polygon fill="white" stroke="black" points="1308,-319 1308,-338 1452,-338 1452,-319 1308,-319"/>
<text text-anchor="middle" x="1380" y="-326" font-family="Helvetica,sans-Serif" font-size="10.00">include/partition_disjsets.hpp</text>
</a>
</g>
</g>
<!-- Node6&#45;&gt;Node40 -->
<g id="edge49" class="edge"><title>Node6&#45;&gt;Node40</title>
<path fill="none" stroke="midnightblue" d="M1488.82,-562.807C1480.93,-554.321 1472.43,-544.188 1466,-534 1421.81,-463.972 1391.18,-367.328 1382.51,-338.167"/>
<polygon fill="midnightblue" stroke="midnightblue" points="1486.35,-565.297 1495.8,-570.091 1491.41,-560.451 1486.35,-565.297"/>
</g>
<!-- Node42 -->
<g id="node38" class="node"><title>Node42</title>
<g id="a_node38"><a xlink:href="partition__centroids_8hpp.html" target="_top" xlink:title="Partition based on centroids. ">
<polygon fill="white" stroke="black" points="1100.5,-386 1100.5,-405 1251.5,-405 1251.5,-386 1100.5,-386"/>
<text text-anchor="middle" x="1176" y="-393" font-family="Helvetica,sans-Serif" font-size="10.00">include/partition_centroids.hpp</text>
</a>
</g>
</g>
<!-- Node6&#45;&gt;Node42 -->
<g id="edge55" class="edge"><title>Node6&#45;&gt;Node42</title>
<path fill="none" stroke="midnightblue" d="M1439.15,-584.028C1387.06,-580.469 1317.09,-568.746 1266,-534 1216.69,-500.466 1187.91,-430.04 1179,-405.311"/>
<polygon fill="midnightblue" stroke="midnightblue" points="1439.12,-587.533 1449.31,-584.635 1439.54,-580.545 1439.12,-587.533"/>
</g>
<!-- Node6&#45;&gt;Node43 -->
<g id="edge57" class="edge"><title>Node6&#45;&gt;Node43</title>
<path fill="none" stroke="midnightblue" d="M1582.65,-571.503C1646.18,-559.977 1737.16,-543.474 1791.92,-533.541"/>
<polygon fill="midnightblue" stroke="midnightblue" points="1581.91,-568.08 1572.69,-573.309 1583.16,-574.967 1581.91,-568.08"/>
</g>
<!-- Node8 -->
<g id="node4" class="node"><title>Node8</title>
<g id="a_node4"><a xlink:href="partition__linked__stats_8hpp.html" target="_top" xlink:title="Linked partition data structure with statistics. ">
<polygon fill="white" stroke="black" points="1508.5,-313.5 1508.5,-343.5 1627.5,-343.5 1627.5,-313.5 1508.5,-313.5"/>
<text text-anchor="start" x="1516.5" y="-331.5" font-family="Helvetica,sans-Serif" font-size="10.00">include/partition_linked</text>
<text text-anchor="middle" x="1568" y="-320.5" font-family="Helvetica,sans-Serif" font-size="10.00">_stats.hpp</text>
</a>
</g>
</g>
<!-- Node7&#45;&gt;Node8 -->
<g id="edge3" class="edge"><title>Node7&#45;&gt;Node8</title>
<path fill="none" stroke="midnightblue" d="M1637.4,-504.433C1639.57,-488.828 1641.12,-466.079 1636,-447 1625,-406.027 1595.85,-364.582 1579.51,-343.585"/>
<polygon fill="midnightblue" stroke="midnightblue" points="1633.93,-503.949 1635.79,-514.379 1640.84,-505.064 1633.93,-503.949"/>
</g>
<!-- Node7&#45;&gt;Node35 -->
<g id="edge37" class="edge"><title>Node7&#45;&gt;Node35</title>
<path fill="none" stroke="midnightblue" d="M1616.97,-507.646C1606.65,-498.346 1593.59,-486.572 1583.55,-477.523"/>
<polygon fill="midnightblue" stroke="midnightblue" points="1614.77,-510.379 1624.54,-514.475 1619.46,-505.18 1614.77,-510.379"/>
</g>
<!-- Node39 -->
<g id="node35" class="node"><title>Node39</title>
<g id="a_node35"><a xlink:href="clustering__operator__medoids_8hpp.html" target="_top" xlink:title="clustering operator medoids ">
<polygon fill="white" stroke="black" points="1684,-447.5 1684,-477.5 1806,-477.5 1806,-447.5 1684,-447.5"/>
<text text-anchor="start" x="1692" y="-465.5" font-family="Helvetica,sans-Serif" font-size="10.00">include/clustering</text>
<text text-anchor="middle" x="1745" y="-454.5" font-family="Helvetica,sans-Serif" font-size="10.00">_operator_medoids.hpp</text>
</a>
</g>
</g>
<!-- Node7&#45;&gt;Node39 -->
<g id="edge45" class="edge"><title>Node7&#45;&gt;Node39</title>
<path fill="none" stroke="midnightblue" d="M1659.11,-509.542C1676.92,-499.991 1700.79,-487.199 1718.84,-477.523"/>
<polygon fill="midnightblue" stroke="midnightblue" points="1657.06,-506.666 1649.9,-514.475 1660.37,-512.835 1657.06,-506.666"/>
</g>
<!-- Node9 -->
<g id="node5" class="node"><title>Node9</title>
<g id="a_node5"><a xlink:href="chromosome__cbga_8hpp.html" target="_top" xlink:title="chromosome CBGA ">
<polygon fill="white" stroke="black" points="1661.5,-179.5 1661.5,-209.5 1772.5,-209.5 1772.5,-179.5 1661.5,-179.5"/>
<text text-anchor="start" x="1669.5" y="-197.5" font-family="Helvetica,sans-Serif" font-size="10.00">include/chromosome</text>
<text text-anchor="middle" x="1717" y="-186.5" font-family="Helvetica,sans-Serif" font-size="10.00">_cbga.hpp</text>
</a>
</g>
</g>
<!-- Node8&#45;&gt;Node9 -->
<g id="edge4" class="edge"><title>Node8&#45;&gt;Node9</title>
<path fill="none" stroke="midnightblue" d="M1591.6,-306.593C1622.25,-279.441 1674.92,-232.779 1701.17,-209.525"/>
<polygon fill="midnightblue" stroke="midnightblue" points="1589.11,-304.123 1583.95,-313.374 1593.75,-309.362 1589.11,-304.123"/>
</g>
<!-- Node8&#45;&gt;Node31 -->
<g id="edge26" class="edge"><title>Node8&#45;&gt;Node31</title>
<path fill="none" stroke="midnightblue" d="M1550.7,-305.447C1543.21,-295.899 1534.66,-285.004 1528.04,-276.577"/>
<polygon fill="midnightblue" stroke="midnightblue" points="1548.01,-307.689 1556.93,-313.396 1553.51,-303.368 1548.01,-307.689"/>
</g>
<!-- Node10 -->
<g id="node6" class="node"><title>Node10</title>
<g id="a_node6"><a xlink:href="ga__clustering__operator_8hpp.html" target="_top" xlink:title="genetic operators oriented to clustering ">
<polygon fill="white" stroke="black" points="1661,-112.5 1661,-142.5 1773,-142.5 1773,-112.5 1661,-112.5"/>
<text text-anchor="start" x="1669" y="-130.5" font-family="Helvetica,sans-Serif" font-size="10.00">include/ga_clustering</text>
<text text-anchor="middle" x="1717" y="-119.5" font-family="Helvetica,sans-Serif" font-size="10.00">_operator.hpp</text>
</a>
</g>
</g>
<!-- Node9&#45;&gt;Node10 -->
<g id="edge5" class="edge"><title>Node9&#45;&gt;Node10</title>
<path fill="none" stroke="midnightblue" d="M1717,-169.108C1717,-160.154 1717,-150.323 1717,-142.577"/>
<polygon fill="midnightblue" stroke="midnightblue" points="1713.5,-169.396 1717,-179.396 1720.5,-169.396 1713.5,-169.396"/>
</g>
<!-- Node11 -->
<g id="node7" class="node"><title>Node11</title>
<g id="a_node7"><a xlink:href="leac_8hpp.html" target="_top" xlink:title="LEAC. ">
<polygon fill="white" stroke="black" points="1546.5,-56.5 1546.5,-75.5 1635.5,-75.5 1635.5,-56.5 1546.5,-56.5"/>
<text text-anchor="middle" x="1591" y="-63.5" font-family="Helvetica,sans-Serif" font-size="10.00">include/leac.hpp</text>
</a>
</g>
</g>
<!-- Node10&#45;&gt;Node11 -->
<g id="edge6" class="edge"><title>Node10&#45;&gt;Node11</title>
<path fill="none" stroke="midnightblue" d="M1678,-108.084C1655.11,-97.2763 1627.26,-84.1219 1609.33,-75.6578"/>
<polygon fill="midnightblue" stroke="midnightblue" points="1676.6,-111.294 1687.14,-112.399 1679.59,-104.964 1676.6,-111.294"/>
</g>
<!-- Node12 -->
<g id="node8" class="node"><title>Node12</title>
<g id="a_node8"><a xlink:href="cbga__fkcentroid_8hpp.html" target="_top" xlink:title="CBGA . ">
<polygon fill="white" stroke="black" points="2585,-0.5 2585,-19.5 2711,-19.5 2711,-0.5 2585,-0.5"/>
<text text-anchor="middle" x="2648" y="-7.5" font-family="Helvetica,sans-Serif" font-size="10.00">eac/cbga_fkcentroid.hpp</text>
</a>
</g>
</g>
<!-- Node11&#45;&gt;Node12 -->
<g id="edge7" class="edge"><title>Node11&#45;&gt;Node12</title>
<path fill="none" stroke="midnightblue" d="M1646.04,-64.004C1795.69,-60.9679 2222.46,-50.1253 2576,-20 2578.89,-19.754 2581.84,-19.4796 2584.81,-19.1838"/>
<polygon fill="midnightblue" stroke="midnightblue" points="1645.68,-60.5104 1635.75,-64.2093 1645.82,-67.5091 1645.68,-60.5104"/>
</g>
<!-- Node13 -->
<g id="node9" class="node"><title>Node13</title>
<g id="a_node9"><a xlink:href="cga__vklabel_8hpp.html" target="_top" xlink:title="CGA &#160;&#160;. ">
<polygon fill="white" stroke="black" points="0,-0.5 0,-19.5 110,-19.5 110,-0.5 0,-0.5"/>
<text text-anchor="middle" x="55" y="-7.5" font-family="Helvetica,sans-Serif" font-size="10.00">eac/cga_vklabel.hpp</text>
</a>
</g>
</g>
<!-- Node11&#45;&gt;Node13 -->
<g id="edge8" class="edge"><title>Node11&#45;&gt;Node13</title>
<path fill="none" stroke="midnightblue" d="M1536.12,-65.4781C1342.1,-66.7096 670.573,-67.072 119,-20 116.093,-19.7519 113.117,-19.4614 110.115,-19.1396"/>
<polygon fill="midnightblue" stroke="midnightblue" points="1536.36,-68.9766 1546.34,-65.4095 1536.31,-61.9768 1536.36,-68.9766"/>
</g>
<!-- Node14 -->
<g id="node10" class="node"><title>Node14</title>
<g id="a_node10"><a xlink:href="clustering__vksubclusterbinary_8hpp.html" target="_top" xlink:title="CLUSTERING . ">
<polygon fill="white" stroke="black" points="128.5,-0.5 128.5,-19.5 313.5,-19.5 313.5,-0.5 128.5,-0.5"/>
<text text-anchor="middle" x="221" y="-7.5" font-family="Helvetica,sans-Serif" font-size="10.00">eac/clustering_vksubclusterbinary.hpp</text>
</a>
</g>
</g>
<!-- Node11&#45;&gt;Node14 -->
<g id="edge9" class="edge"><title>Node11&#45;&gt;Node14</title>
<path fill="none" stroke="midnightblue" d="M1536.22,-64.103C1359.93,-60.9928 791.478,-49.2205 322,-20 319.277,-19.8305 316.513,-19.6485 313.723,-19.4562"/>
<polygon fill="midnightblue" stroke="midnightblue" points="1536.22,-67.6036 1546.28,-64.2787 1536.34,-60.6046 1536.22,-67.6036"/>
</g>
<!-- Node15 -->
<g id="node11" class="node"><title>Node15</title>
<g id="a_node11"><a xlink:href="feac__vklabel_8hpp.html" target="_top" xlink:title="EAC, EACI, EACII, EACIII and FEAC &#160;and . ">
<polygon fill="white" stroke="black" points="331,-0.5 331,-19.5 443,-19.5 443,-0.5 331,-0.5"/>
<text text-anchor="middle" x="387" y="-7.5" font-family="Helvetica,sans-Serif" font-size="10.00">eac/feac_vklabel.hpp</text>
</a>
</g>
</g>
<!-- Node11&#45;&gt;Node15 -->
<g id="edge10" class="edge"><title>Node11&#45;&gt;Node15</title>
<path fill="none" stroke="midnightblue" d="M1536.04,-64.7378C1371.37,-63.5422 867.672,-56.8989 452,-20 449.163,-19.7482 446.26,-19.4597 443.332,-19.1441"/>
<polygon fill="midnightblue" stroke="midnightblue" points="1536.37,-68.24 1546.39,-64.8089 1536.42,-61.2402 1536.37,-68.24"/>
</g>
<!-- Node16 -->
<g id="node12" class="node"><title>Node16</title>
<g id="a_node12"><a xlink:href="gaclustering__fkcrispmatrix_8hpp.html" target="_top" xlink:title="GA CLUSTERING . ">
<polygon fill="white" stroke="black" points="461,-0.5 461,-19.5 631,-19.5 631,-0.5 461,-0.5"/>
<text text-anchor="middle" x="546" y="-7.5" font-family="Helvetica,sans-Serif" font-size="10.00">eac/gaclustering_fkcrispmatrix.hpp</text>
</a>
</g>
</g>
<!-- Node11&#45;&gt;Node16 -->
<g id="edge11" class="edge"><title>Node11&#45;&gt;Node16</title>
<path fill="none" stroke="midnightblue" d="M1536.36,-63.3361C1390.62,-58.6984 980.524,-44.344 640,-20 637.057,-19.7896 634.062,-19.5642 631.039,-19.3272"/>
<polygon fill="midnightblue" stroke="midnightblue" points="1536.29,-66.8354 1546.39,-63.6532 1536.51,-59.8389 1536.29,-66.8354"/>
</g>
<!-- Node17 -->
<g id="node13" class="node"><title>Node17</title>
<g id="a_node13"><a xlink:href="gaclustering__fklabel_8hpp.html" target="_top" xlink:title="GA Clustering . ">
<polygon fill="white" stroke="black" points="649,-0.5 649,-19.5 793,-19.5 793,-0.5 649,-0.5"/>
<text text-anchor="middle" x="721" y="-7.5" font-family="Helvetica,sans-Serif" font-size="10.00">eac/gaclustering_fklabel.hpp</text>
</a>
</g>
</g>
<!-- Node11&#45;&gt;Node17 -->
<g id="edge12" class="edge"><title>Node11&#45;&gt;Node17</title>
<path fill="none" stroke="midnightblue" d="M1536.1,-62.8844C1407.59,-57.7106 1077.27,-43.1261 802,-20 799.18,-19.7631 796.306,-19.5083 793.405,-19.2398"/>
<polygon fill="midnightblue" stroke="midnightblue" points="1536.32,-66.396 1546.45,-63.2984 1536.6,-59.4016 1536.32,-66.396"/>
</g>
<!-- Node18 -->
<g id="node14" class="node"><title>Node18</title>
<g id="a_node14"><a xlink:href="gaclustering__vktreebinary_8hpp.html" target="_top" xlink:title="GA Clustering &#160;x. ">
<polygon fill="white" stroke="black" points="811,-0.5 811,-19.5 981,-19.5 981,-0.5 811,-0.5"/>
<text text-anchor="middle" x="896" y="-7.5" font-family="Helvetica,sans-Serif" font-size="10.00">eac/gaclustering_vktreebinary.hpp</text>
</a>
</g>
</g>
<!-- Node11&#45;&gt;Node18 -->
<g id="edge13" class="edge"><title>Node11&#45;&gt;Node18</title>
<path fill="none" stroke="midnightblue" d="M1536.39,-61.2918C1430.8,-54.0368 1191.28,-37.1696 990,-20 987.06,-19.7492 984.068,-19.4892 981.047,-19.2224"/>
<polygon fill="midnightblue" stroke="midnightblue" points="1536.27,-64.7917 1546.49,-61.9842 1536.75,-57.8081 1536.27,-64.7917"/>
</g>
<!-- Node19 -->
<g id="node15" class="node"><title>Node19</title>
<g id="a_node15"><a xlink:href="gagr__fkcentroid_8hpp.html" target="_top" xlink:title="GAGR . ">
<polygon fill="white" stroke="black" points="999.5,-0.5 999.5,-19.5 1124.5,-19.5 1124.5,-0.5 999.5,-0.5"/>
<text text-anchor="middle" x="1062" y="-7.5" font-family="Helvetica,sans-Serif" font-size="10.00">eac/gagr_fkcentroid.hpp</text>
</a>
</g>
</g>
<!-- Node11&#45;&gt;Node19 -->
<g id="edge14" class="edge"><title>Node11&#45;&gt;Node19</title>
<path fill="none" stroke="midnightblue" d="M1536.38,-60.1343C1450.46,-52.3681 1278.53,-36.3701 1133,-20 1130.28,-19.6945 1127.51,-19.3749 1124.71,-19.0462"/>
<polygon fill="midnightblue" stroke="midnightblue" points="1536.15,-63.6277 1546.42,-61.0401 1536.78,-56.656 1536.15,-63.6277"/>
</g>
<!-- Node20 -->
<g id="node16" class="node"><title>Node20</title>
<g id="a_node16"><a xlink:href="gaprototypes__fkmedoid_8hpp.html" target="_top" xlink:title="GA&#45;Prototypes . ">
<polygon fill="white" stroke="black" points="1142.5,-0.5 1142.5,-19.5 1303.5,-19.5 1303.5,-0.5 1142.5,-0.5"/>
<text text-anchor="middle" x="1223" y="-7.5" font-family="Helvetica,sans-Serif" font-size="10.00">eac/gaprototypes_fkmedoid.hpp</text>
</a>
</g>
</g>
<!-- Node11&#45;&gt;Node20 -->
<g id="edge15" class="edge"><title>Node11&#45;&gt;Node20</title>
<path fill="none" stroke="midnightblue" d="M1536.09,-56.9422C1467.59,-46.8903 1350.98,-29.7797 1281.05,-19.5179"/>
<polygon fill="midnightblue" stroke="midnightblue" points="1535.84,-60.4435 1546.24,-58.4325 1536.86,-53.5177 1535.84,-60.4435"/>
</g>
<!-- Node21 -->
<g id="node17" class="node"><title>Node21</title>
<g id="a_node17"><a xlink:href="gas__fkcentroid_8hpp.html" target="_top" xlink:title="GAS . ">
<polygon fill="white" stroke="black" points="1321.5,-0.5 1321.5,-19.5 1442.5,-19.5 1442.5,-0.5 1321.5,-0.5"/>
<text text-anchor="middle" x="1382" y="-7.5" font-family="Helvetica,sans-Serif" font-size="10.00">eac/gas_fkcentroid.hpp</text>
</a>
</g>
</g>
<!-- Node11&#45;&gt;Node21 -->
<g id="edge16" class="edge"><title>Node11&#45;&gt;Node21</title>
<path fill="none" stroke="midnightblue" d="M1548.02,-53.8941C1508.55,-43.6966 1450.9,-28.802 1414.96,-19.5164"/>
<polygon fill="midnightblue" stroke="midnightblue" points="1547.33,-57.3306 1557.88,-56.4435 1549.08,-50.5532 1547.33,-57.3306"/>
</g>
<!-- Node22 -->
<g id="node18" class="node"><title>Node22</title>
<g id="a_node18"><a xlink:href="gca__fkmedoid_8hpp.html" target="_top" xlink:title="GCA . ">
<polygon fill="white" stroke="black" points="1460.5,-0.5 1460.5,-19.5 1579.5,-19.5 1579.5,-0.5 1460.5,-0.5"/>
<text text-anchor="middle" x="1520" y="-7.5" font-family="Helvetica,sans-Serif" font-size="10.00">eac/gca_fkmedoid.hpp</text>
</a>
</g>
</g>
<!-- Node11&#45;&gt;Node22 -->
<g id="edge17" class="edge"><title>Node11&#45;&gt;Node22</title>
<path fill="none" stroke="midnightblue" d="M1571.41,-50.1008C1558.63,-40.3824 1542.39,-28.0269 1531.61,-19.8339"/>
<polygon fill="midnightblue" stroke="midnightblue" points="1569.51,-53.0561 1579.59,-56.324 1573.75,-47.4844 1569.51,-53.0561"/>
</g>
<!-- Node23 -->
<g id="node19" class="node"><title>Node23</title>
<g id="a_node19"><a xlink:href="gcuk__vkcentroid_8hpp.html" target="_top" xlink:title="GCUK . ">
<polygon fill="white" stroke="black" points="1598,-0.5 1598,-19.5 1726,-19.5 1726,-0.5 1598,-0.5"/>
<text text-anchor="middle" x="1662" y="-7.5" font-family="Helvetica,sans-Serif" font-size="10.00">eac/gcuk_vkcentroid.hpp</text>
</a>
</g>
</g>
<!-- Node11&#45;&gt;Node23 -->
<g id="edge18" class="edge"><title>Node11&#45;&gt;Node23</title>
<path fill="none" stroke="midnightblue" d="M1610.59,-50.1008C1623.37,-40.3824 1639.61,-28.0269 1650.39,-19.8339"/>
<polygon fill="midnightblue" stroke="midnightblue" points="1608.25,-47.4844 1602.41,-56.324 1612.49,-53.0561 1608.25,-47.4844"/>
</g>
<!-- Node24 -->
<g id="node20" class="node"><title>Node24</title>
<g id="a_node20"><a xlink:href="gga__vklabel_8hpp.html" target="_top" xlink:title="GGA . ">
<polygon fill="white" stroke="black" points="1744,-0.5 1744,-19.5 1854,-19.5 1854,-0.5 1744,-0.5"/>
<text text-anchor="middle" x="1799" y="-7.5" font-family="Helvetica,sans-Serif" font-size="10.00">eac/gga_vklabel.hpp</text>
</a>
</g>
</g>
<!-- Node11&#45;&gt;Node24 -->
<g id="edge19" class="edge"><title>Node11&#45;&gt;Node24</title>
<path fill="none" stroke="midnightblue" d="M1633.78,-53.8941C1673.06,-43.6966 1730.43,-28.802 1766.2,-19.5164"/>
<polygon fill="midnightblue" stroke="midnightblue" points="1632.76,-50.5429 1623.96,-56.4435 1634.52,-57.3183 1632.76,-50.5429"/>
</g>
<!-- Node25 -->
<g id="node21" class="node"><title>Node25</title>
<g id="a_node21"><a xlink:href="gka__fklabel_8hpp.html" target="_top" xlink:title="GKA Clustering . ">
<polygon fill="white" stroke="black" points="2729.5,-0.5 2729.5,-19.5 2836.5,-19.5 2836.5,-0.5 2729.5,-0.5"/>
<text text-anchor="middle" x="2783" y="-7.5" font-family="Helvetica,sans-Serif" font-size="10.00">eac/gka_fklabel.hpp</text>
</a>
</g>
</g>
<!-- Node11&#45;&gt;Node25 -->
<g id="edge20" class="edge"><title>Node11&#45;&gt;Node25</title>
<path fill="none" stroke="midnightblue" d="M1645.55,-63.5651C1841.25,-58.3022 2507.57,-39.3563 2720,-20 2723.08,-19.7193 2726.24,-19.3923 2729.43,-19.0325"/>
<polygon fill="midnightblue" stroke="midnightblue" points="1645.41,-60.0676 1635.51,-63.8343 1645.6,-67.0651 1645.41,-60.0676"/>
</g>
<!-- Node26 -->
<g id="node22" class="node"><title>Node26</title>
<g id="a_node22"><a xlink:href="hka__fkmedoid_8hpp.html" target="_top" xlink:title="HKA . ">
<polygon fill="white" stroke="black" points="1872.5,-0.5 1872.5,-19.5 1991.5,-19.5 1991.5,-0.5 1872.5,-0.5"/>
<text text-anchor="middle" x="1932" y="-7.5" font-family="Helvetica,sans-Serif" font-size="10.00">eac/hka_fkmedoid.hpp</text>
</a>
</g>
</g>
<!-- Node11&#45;&gt;Node26 -->
<g id="edge21" class="edge"><title>Node11&#45;&gt;Node26</title>
<path fill="none" stroke="midnightblue" d="M1645.46,-56.3755C1709.33,-46.2618 1814.53,-29.6026 1878.14,-19.5299"/>
<polygon fill="midnightblue" stroke="midnightblue" points="1644.91,-52.9193 1635.58,-57.9404 1646,-59.8332 1644.91,-52.9193"/>
</g>
<!-- Node27 -->
<g id="node23" class="node"><title>Node27</title>
<g id="a_node23"><a xlink:href="igka__fklabel_8hpp.html" target="_top" xlink:title="IGKA &#160;and FGKA . ">
<polygon fill="white" stroke="black" points="2009.5,-0.5 2009.5,-19.5 2118.5,-19.5 2118.5,-0.5 2009.5,-0.5"/>
<text text-anchor="middle" x="2064" y="-7.5" font-family="Helvetica,sans-Serif" font-size="10.00">eac/igka_fklabel.hpp</text>
</a>
</g>
</g>
<!-- Node11&#45;&gt;Node27 -->
<g id="edge22" class="edge"><title>Node11&#45;&gt;Node27</title>
<path fill="none" stroke="midnightblue" d="M1645.67,-59.5135C1724.17,-51.5159 1873.32,-35.8728 2000,-20 2003.01,-19.6234 2006.09,-19.2261 2009.2,-18.8166"/>
<polygon fill="midnightblue" stroke="midnightblue" points="1645.13,-56.0506 1635.53,-60.5438 1645.84,-63.0147 1645.13,-56.0506"/>
</g>
<!-- Node28 -->
<g id="node24" class="node"><title>Node28</title>
<g id="a_node24"><a xlink:href="kga__fkcentroid_8hpp.html" target="_top" xlink:title="KGA . ">
<polygon fill="white" stroke="black" points="2136.5,-0.5 2136.5,-19.5 2257.5,-19.5 2257.5,-0.5 2136.5,-0.5"/>
<text text-anchor="middle" x="2197" y="-7.5" font-family="Helvetica,sans-Serif" font-size="10.00">eac/kga_fkcentroid.hpp</text>
</a>
</g>
</g>
<!-- Node11&#45;&gt;Node28 -->
<g id="edge23" class="edge"><title>Node11&#45;&gt;Node28</title>
<path fill="none" stroke="midnightblue" d="M1645.69,-61.2088C1742.74,-54.303 1951.39,-38.6515 2127,-20 2130.05,-19.6765 2133.16,-19.3303 2136.31,-18.969"/>
<polygon fill="midnightblue" stroke="midnightblue" points="1645.26,-57.7304 1635.53,-61.9286 1645.76,-64.7129 1645.26,-57.7304"/>
</g>
<!-- Node29 -->
<g id="node25" class="node"><title>Node29</title>
<g id="a_node25"><a xlink:href="main__gas__clustering_8cpp.html" target="_top" xlink:title="Main program of Evolutionary Algorithms. ">
<polygon fill="white" stroke="black" points="2275.5,-0.5 2275.5,-19.5 2422.5,-19.5 2422.5,-0.5 2275.5,-0.5"/>
<text text-anchor="middle" x="2349" y="-7.5" font-family="Helvetica,sans-Serif" font-size="10.00">eac/main_gas_clustering.cpp</text>
</a>
</g>
</g>
<!-- Node11&#45;&gt;Node29 -->
<g id="edge24" class="edge"><title>Node11&#45;&gt;Node29</title>
<path fill="none" stroke="midnightblue" d="M1645.99,-62.1085C1761.12,-55.8834 2035.96,-40.1311 2266,-20 2269.03,-19.7346 2272.13,-19.4523 2275.25,-19.1574"/>
<polygon fill="midnightblue" stroke="midnightblue" points="1645.47,-58.631 1635.67,-62.6635 1645.85,-65.6208 1645.47,-58.631"/>
</g>
<!-- Node30 -->
<g id="node26" class="node"><title>Node30</title>
<g id="a_node26"><a xlink:href="tgca__vkcentroid_8hpp.html" target="_top" xlink:title="TGCA . ">
<polygon fill="white" stroke="black" points="2441,-0.5 2441,-19.5 2567,-19.5 2567,-0.5 2441,-0.5"/>
<text text-anchor="middle" x="2504" y="-7.5" font-family="Helvetica,sans-Serif" font-size="10.00">eac/tgca_vkcentroid.hpp</text>
</a>
</g>
</g>
<!-- Node11&#45;&gt;Node30 -->
<g id="edge25" class="edge"><title>Node11&#45;&gt;Node30</title>
<path fill="none" stroke="midnightblue" d="M1645.72,-63.3792C1779.81,-59.1225 2135.38,-46.1097 2431,-20 2434.18,-19.7191 2437.44,-19.4073 2440.72,-19.0732"/>
<polygon fill="midnightblue" stroke="midnightblue" points="1645.58,-59.8817 1635.7,-63.6941 1645.8,-66.8783 1645.58,-59.8817"/>
</g>
<!-- Node31&#45;&gt;Node9 -->
<g id="edge27" class="edge"><title>Node31&#45;&gt;Node9</title>
<path fill="none" stroke="midnightblue" d="M1570.15,-243.228C1602.5,-232.713 1643.31,-219.451 1673.69,-209.577"/>
<polygon fill="midnightblue" stroke="midnightblue" points="1568.83,-239.976 1560.4,-246.396 1570.99,-246.634 1568.83,-239.976"/>
</g>
<!-- Node31&#45;&gt;Node11 -->
<g id="edge36" class="edge"><title>Node31&#45;&gt;Node11</title>
<path fill="none" stroke="midnightblue" d="M1501.75,-237.302C1483.47,-206.27 1458.31,-150.677 1484,-112 1497.88,-91.1011 1523.57,-79.8865 1546.3,-73.8795"/>
<polygon fill="midnightblue" stroke="midnightblue" points="1498.93,-239.4 1507.14,-246.098 1504.9,-235.743 1498.93,-239.4"/>
</g>
<!-- Node32 -->
<g id="node28" class="node"><title>Node32</title>
<g id="a_node28"><a xlink:href="chromosome__igka_8hpp.html" target="_top" xlink:title="chromosome IGKA &#160;and &#160;">
<polygon fill="white" stroke="black" points="1493.5,-112.5 1493.5,-142.5 1604.5,-142.5 1604.5,-112.5 1493.5,-112.5"/>
<text text-anchor="start" x="1501.5" y="-130.5" font-family="Helvetica,sans-Serif" font-size="10.00">include/chromosome</text>
<text text-anchor="middle" x="1549" y="-119.5" font-family="Helvetica,sans-Serif" font-size="10.00">_igka.hpp</text>
</a>
</g>
</g>
<!-- Node31&#45;&gt;Node32 -->
<g id="edge28" class="edge"><title>Node31&#45;&gt;Node32</title>
<path fill="none" stroke="midnightblue" d="M1521.56,-236.017C1524.71,-219.77 1529.2,-198.016 1534,-179 1537.13,-166.585 1541.33,-152.646 1544.48,-142.562"/>
<polygon fill="midnightblue" stroke="midnightblue" points="1518.03,-235.805 1519.59,-246.284 1524.91,-237.118 1518.03,-235.805"/>
</g>
<!-- Node31&#45;&gt;Node33 -->
<g id="edge30" class="edge"><title>Node31&#45;&gt;Node33</title>
<path fill="none" stroke="midnightblue" d="M1467.33,-242.955C1437.7,-232.485 1400.56,-219.366 1372.85,-209.577"/>
<polygon fill="midnightblue" stroke="midnightblue" points="1466.48,-246.365 1477.07,-246.396 1468.81,-239.765 1466.48,-246.365"/>
</g>
<!-- Node34 -->
<g id="node30" class="node"><title>Node34</title>
<g id="a_node30"><a xlink:href="ga__integer__operator_8hpp.html" target="_top" xlink:title="genetic integer operators ">
<polygon fill="white" stroke="black" points="1543,-179.5 1543,-209.5 1643,-209.5 1643,-179.5 1543,-179.5"/>
<text text-anchor="start" x="1551" y="-197.5" font-family="Helvetica,sans-Serif" font-size="10.00">include/ga_integer</text>
<text text-anchor="middle" x="1593" y="-186.5" font-family="Helvetica,sans-Serif" font-size="10.00">_operator.hpp</text>
</a>
</g>
</g>
<!-- Node31&#45;&gt;Node34 -->
<g id="edge32" class="edge"><title>Node31&#45;&gt;Node34</title>
<path fill="none" stroke="midnightblue" d="M1541.11,-239.883C1552.66,-230.005 1566.19,-218.429 1576.54,-209.577"/>
<polygon fill="midnightblue" stroke="midnightblue" points="1538.82,-237.236 1533.49,-246.396 1543.37,-242.556 1538.82,-237.236"/>
</g>
<!-- Node32&#45;&gt;Node11 -->
<g id="edge29" class="edge"><title>Node32&#45;&gt;Node11</title>
<path fill="none" stroke="midnightblue" d="M1564.81,-104.104C1571.81,-94.1868 1579.63,-83.1062 1584.89,-75.6578"/>
<polygon fill="midnightblue" stroke="midnightblue" points="1561.86,-102.211 1558.95,-112.399 1567.58,-106.248 1561.86,-102.211"/>
</g>
<!-- Node33&#45;&gt;Node11 -->
<g id="edge31" class="edge"><title>Node33&#45;&gt;Node11</title>
<path fill="none" stroke="midnightblue" d="M1321.91,-169.819C1315.35,-151.912 1310.65,-127.794 1324,-112 1351.96,-78.9311 1477.98,-70.1531 1546.43,-67.8302"/>
<polygon fill="midnightblue" stroke="midnightblue" points="1318.75,-171.338 1325.76,-179.284 1325.24,-168.702 1318.75,-171.338"/>
</g>
<!-- Node34&#45;&gt;Node10 -->
<g id="edge33" class="edge"><title>Node34&#45;&gt;Node10</title>
<path fill="none" stroke="midnightblue" d="M1628.84,-174.714C1648.39,-164.463 1672.2,-151.983 1690.15,-142.577"/>
<polygon fill="midnightblue" stroke="midnightblue" points="1627.14,-171.653 1619.91,-179.396 1630.39,-177.853 1627.14,-171.653"/>
</g>
<!-- Node34&#45;&gt;Node11 -->
<g id="edge34" class="edge"><title>Node34&#45;&gt;Node11</title>
<path fill="none" stroke="midnightblue" d="M1604.35,-170.21C1607.85,-161.837 1611.25,-152.188 1613,-143 1615.58,-129.466 1616.11,-125.423 1613,-112 1609.86,-98.4442 1602.05,-84.255 1596.64,-75.5194"/>
<polygon fill="midnightblue" stroke="midnightblue" points="1601.15,-168.791 1600.28,-179.35 1607.54,-171.639 1601.15,-168.791"/>
</g>
<!-- Node34&#45;&gt;Node25 -->
<g id="edge35" class="edge"><title>Node34&#45;&gt;Node25</title>
<path fill="none" stroke="midnightblue" d="M1653.21,-178.928C1797.48,-152.412 2524.46,-47.9899 2729.27,-18.6796"/>
<polygon fill="midnightblue" stroke="midnightblue" points="1652.31,-175.536 1643.14,-180.839 1653.62,-182.413 1652.31,-175.536"/>
</g>
<!-- Node36 -->
<g id="node32" class="node"><title>Node36</title>
<g id="a_node32"><a xlink:href="unsupervised__measures_8hpp.html" target="_top" xlink:title="Unsupervised measures. ">
<polygon fill="white" stroke="black" points="1710,-380.5 1710,-410.5 1822,-410.5 1822,-380.5 1710,-380.5"/>
<text text-anchor="start" x="1718" y="-398.5" font-family="Helvetica,sans-Serif" font-size="10.00">include/unsupervised</text>
<text text-anchor="middle" x="1766" y="-387.5" font-family="Helvetica,sans-Serif" font-size="10.00">_measures.hpp</text>
</a>
</g>
</g>
<!-- Node35&#45;&gt;Node36 -->
<g id="edge38" class="edge"><title>Node35&#45;&gt;Node36</title>
<path fill="none" stroke="midnightblue" d="M1620.61,-444.228C1652.64,-433.713 1693.04,-420.451 1723.12,-410.577"/>
<polygon fill="midnightblue" stroke="midnightblue" points="1619.37,-440.951 1610.96,-447.396 1621.56,-447.602 1619.37,-440.951"/>
</g>
<!-- Node36&#45;&gt;Node11 -->
<g id="edge44" class="edge"><title>Node36&#45;&gt;Node11</title>
<path fill="none" stroke="midnightblue" d="M1786.99,-372.84C1808.56,-348.215 1839,-305.791 1839,-262.5 1839,-262.5 1839,-262.5 1839,-193.5 1839,-153.901 1833.74,-136.961 1803,-112 1777.81,-91.5438 1690.31,-78.2235 1635.91,-71.7104"/>
<polygon fill="midnightblue" stroke="midnightblue" points="1784.19,-370.72 1780.08,-380.484 1789.38,-375.417 1784.19,-370.72"/>
</g>
<!-- Node37 -->
<g id="node33" class="node"><title>Node37</title>
<g id="a_node33"><a xlink:href="nearestcentroids__operator_8hpp.html" target="_top" xlink:title="nearest centroids operator ">
<polygon fill="white" stroke="black" points="1645.5,-313.5 1645.5,-343.5 1772.5,-343.5 1772.5,-313.5 1645.5,-313.5"/>
<text text-anchor="start" x="1653.5" y="-331.5" font-family="Helvetica,sans-Serif" font-size="10.00">include/nearestcentroids</text>
<text text-anchor="middle" x="1709" y="-320.5" font-family="Helvetica,sans-Serif" font-size="10.00">_operator.hpp</text>
</a>
</g>
</g>
<!-- Node36&#45;&gt;Node37 -->
<g id="edge39" class="edge"><title>Node36&#45;&gt;Node37</title>
<path fill="none" stroke="midnightblue" d="M1746.91,-372.736C1738.48,-363.119 1728.81,-352.089 1721.34,-343.577"/>
<polygon fill="midnightblue" stroke="midnightblue" points="1744.41,-375.185 1753.63,-380.396 1749.67,-370.57 1744.41,-375.185"/>
</g>
<!-- Node38 -->
<g id="node34" class="node"><title>Node38</title>
<g id="a_node34"><a xlink:href="ga__function__objective__sse_8hpp.html" target="_top" xlink:title="function objective SSE ">
<polygon fill="white" stroke="black" points="1707.5,-246.5 1707.5,-276.5 1810.5,-276.5 1810.5,-246.5 1707.5,-246.5"/>
<text text-anchor="start" x="1715.5" y="-264.5" font-family="Helvetica,sans-Serif" font-size="10.00">include/ga_function</text>
<text text-anchor="middle" x="1759" y="-253.5" font-family="Helvetica,sans-Serif" font-size="10.00">_objective_sse.hpp</text>
</a>
</g>
</g>
<!-- Node36&#45;&gt;Node38 -->
<g id="edge42" class="edge"><title>Node36&#45;&gt;Node38</title>
<path fill="none" stroke="midnightblue" d="M1775.32,-370.546C1780.44,-354.277 1785.02,-332.295 1781,-313 1778.31,-300.08 1772.13,-286.415 1767,-276.562"/>
<polygon fill="midnightblue" stroke="midnightblue" points="1771.9,-369.732 1771.96,-380.326 1778.52,-372.007 1771.9,-369.732"/>
</g>
<!-- Node37&#45;&gt;Node9 -->
<g id="edge40" class="edge"><title>Node37&#45;&gt;Node9</title>
<path fill="none" stroke="midnightblue" d="M1701.81,-303.513C1697.9,-287.23 1694.5,-265.243 1698,-246 1700.31,-233.282 1705.65,-219.601 1710.09,-209.691"/>
<polygon fill="midnightblue" stroke="midnightblue" points="1698.46,-304.525 1704.39,-313.304 1705.23,-302.742 1698.46,-304.525"/>
</g>
<!-- Node37&#45;&gt;Node31 -->
<g id="edge41" class="edge"><title>Node37&#45;&gt;Node31</title>
<path fill="none" stroke="midnightblue" d="M1657.58,-310.092C1626.58,-299.599 1587.62,-286.408 1558.58,-276.577"/>
<polygon fill="midnightblue" stroke="midnightblue" points="1656.74,-313.504 1667.34,-313.396 1658.99,-306.874 1656.74,-313.504"/>
</g>
<!-- Node38&#45;&gt;Node11 -->
<g id="edge43" class="edge"><title>Node38&#45;&gt;Node11</title>
<path fill="none" stroke="midnightblue" d="M1772.24,-237.482C1788.54,-205.737 1810.77,-148.331 1782,-112 1764.08,-89.364 1686.16,-76.9755 1635.54,-71.188"/>
<polygon fill="midnightblue" stroke="midnightblue" points="1769.06,-235.99 1767.43,-246.458 1775.24,-239.295 1769.06,-235.99"/>
</g>
<!-- Node39&#45;&gt;Node11 -->
<g id="edge46" class="edge"><title>Node39&#45;&gt;Node11</title>
<path fill="none" stroke="midnightblue" d="M1784.98,-442.603C1823.83,-421.144 1877,-382.156 1877,-329.5 1877,-329.5 1877,-329.5 1877,-193.5 1877,-151.906 1864.82,-136.206 1831,-112 1800.32,-90.0425 1696.27,-76.864 1635.72,-70.8717"/>
<polygon fill="midnightblue" stroke="midnightblue" points="1783.12,-439.628 1775.95,-447.424 1786.42,-445.803 1783.12,-439.628"/>
</g>
<!-- Node40&#45;&gt;Node11 -->
<g id="edge53" class="edge"><title>Node40&#45;&gt;Node11</title>
<path fill="none" stroke="midnightblue" d="M1354.2,-314.078C1312.54,-290.4 1237.15,-238.09 1258,-179 1270.72,-142.934 1278.93,-131.208 1312,-112 1351.03,-89.3304 1478.09,-76.0013 1546.47,-70.2968"/>
<polygon fill="midnightblue" stroke="midnightblue" points="1352.57,-317.176 1363.01,-318.949 1355.95,-311.049 1352.57,-317.176"/>
</g>
<!-- Node40&#45;&gt;Node31 -->
<g id="edge50" class="edge"><title>Node40&#45;&gt;Node31</title>
<path fill="none" stroke="midnightblue" d="M1407.46,-314.474C1430.62,-303.485 1463.69,-287.791 1487.43,-276.528"/>
<polygon fill="midnightblue" stroke="midnightblue" points="1405.73,-311.42 1398.19,-318.869 1408.73,-317.744 1405.73,-311.42"/>
</g>
<!-- Node41 -->
<g id="node37" class="node"><title>Node41</title>
<g id="a_node37"><a xlink:href="clustering__operator__label_8hpp.html" target="_top" xlink:title="clustering operator label ">
<polygon fill="white" stroke="black" points="1333,-112.5 1333,-142.5 1437,-142.5 1437,-112.5 1333,-112.5"/>
<text text-anchor="start" x="1341" y="-130.5" font-family="Helvetica,sans-Serif" font-size="10.00">include/clustering</text>
<text text-anchor="middle" x="1385" y="-119.5" font-family="Helvetica,sans-Serif" font-size="10.00">_operator_label.hpp</text>
</a>
</g>
</g>
<!-- Node40&#45;&gt;Node41 -->
<g id="edge51" class="edge"><title>Node40&#45;&gt;Node41</title>
<path fill="none" stroke="midnightblue" d="M1387.78,-309.459C1398.85,-281.452 1416.76,-225.859 1407,-179 1404.31,-166.08 1398.13,-152.415 1393,-142.562"/>
<polygon fill="midnightblue" stroke="midnightblue" points="1384.52,-308.187 1383.95,-318.766 1390.99,-310.853 1384.52,-308.187"/>
</g>
<!-- Node41&#45;&gt;Node11 -->
<g id="edge52" class="edge"><title>Node41&#45;&gt;Node11</title>
<path fill="none" stroke="midnightblue" d="M1443.62,-109.568C1482.15,-98.44 1530.92,-84.3534 1561.55,-75.5064"/>
<polygon fill="midnightblue" stroke="midnightblue" points="1442.19,-106.337 1433.56,-112.475 1444.14,-113.062 1442.19,-106.337"/>
</g>
<!-- Node42&#45;&gt;Node11 -->
<g id="edge56" class="edge"><title>Node42&#45;&gt;Node11</title>
<path fill="none" stroke="midnightblue" d="M1179.01,-375.775C1182.85,-350.242 1189,-303.037 1189,-262.5 1189,-262.5 1189,-262.5 1189,-193.5 1189,-142.117 1224.98,-134.859 1271,-112 1318.48,-88.4147 1470.27,-75.1269 1546.47,-69.7871"/>
<polygon fill="midnightblue" stroke="midnightblue" points="1175.52,-375.461 1177.44,-385.88 1182.44,-376.537 1175.52,-375.461"/>
</g>
<!-- Node43&#45;&gt;Node11 -->
<g id="edge58" class="edge"><title>Node43&#45;&gt;Node11</title>
<path fill="none" stroke="midnightblue" d="M1856.2,-507.295C1878.62,-485.018 1915,-441.878 1915,-396.5 1915,-396.5 1915,-396.5 1915,-193.5 1915,-150.292 1898.16,-135.656 1862,-112 1825.48,-88.1075 1702.69,-75.3788 1635.63,-70.0622"/>
<polygon fill="midnightblue" stroke="midnightblue" points="1853.72,-504.822 1848.94,-514.274 1858.57,-509.871 1853.72,-504.822"/>
</g>
<!-- Node44&#45;&gt;Node39 -->
<g id="edge60" class="edge"><title>Node44&#45;&gt;Node39</title>
<path fill="none" stroke="midnightblue" d="M1743.4,-560.116C1743.81,-535.437 1744.43,-498.112 1744.76,-477.837"/>
<polygon fill="midnightblue" stroke="midnightblue" points="1739.9,-560.088 1743.24,-570.145 1746.9,-560.204 1739.9,-560.088"/>
</g>
<!-- Node45&#45;&gt;Node11 -->
<g id="edge62" class="edge"><title>Node45&#45;&gt;Node11</title>
<path fill="none" stroke="midnightblue" d="M1991,-504.303C1991,-479.617 1991,-434.798 1991,-396.5 1991,-396.5 1991,-396.5 1991,-193.5 1991,-137.531 1945.98,-135.099 1895,-112 1809.1,-73.0812 1696.9,-66.4526 1635.67,-66.0783"/>
<polygon fill="midnightblue" stroke="midnightblue" points="1987.5,-504.411 1991,-514.411 1994.5,-504.411 1987.5,-504.411"/>
</g>
</g>
</svg>
