<?xml version="1.0" encoding="UTF-8" standalone="no"?>
<!DOCTYPE svg PUBLIC "-//W3C//DTD SVG 1.1//EN"
 "http://www.w3.org/Graphics/SVG/1.1/DTD/svg11.dtd">
<!-- Generated by graphviz version 2.38.0 (20140413.2041)
 -->
<!-- Title: prob::getIdxVectorRoulette Pages: 1 -->
<!--zoomable 135 -->
<svg id="main" version="1.1" xmlns="http://www.w3.org/2000/svg" xmlns:xlink="http://www.w3.org/1999/xlink" xml:space="preserve" onload="init(evt)">
<style type="text/css"><![CDATA[
.edge:hover path { stroke: red; }
.edge:hover polygon { stroke: red; fill: red; }
]]></style>
<script type="text/javascript"><![CDATA[
var edges = document.getElementsByTagName('g');
if (edges && edges.length) {
  for (var i=0;i<edges.length;i++) {
    if (edges[i].id.substr(0,4)=='edge') {
      edges[i].setAttribute('class','edge');
    }
  }
}
]]></script>
        <defs>
                <circle id="rim" cx="0" cy="0" r="7"/>
                <circle id="rim2" cx="0" cy="0" r="3.5"/>
                <g id="zoomPlus">
                        <use xlink:href="#rim" fill="#404040">
                                <set attributeName="fill" to="#808080" begin="zoomplus.mouseover" end="zoomplus.mouseout"/>
                        </use>
                        <path d="M-4,0h8M0,-4v8" fill="none" stroke="white" stroke-width="1.5" pointer-events="none"/>
                </g>
                <g id="zoomMin">
                        <use xlink:href="#rim" fill="#404040">
                                <set attributeName="fill" to="#808080" begin="zoomminus.mouseover" end="zoomminus.mouseout"/>
                        </use>
                        <path d="M-4,0h8" fill="none" stroke="white" stroke-width="1.5" pointer-events="none"/>
                </g>
                <g id="dirArrow">
                        <path fill="none" stroke="white" stroke-width="1.5" d="M0,-3.0v7 M-2.5,-0.5L0,-3.0L2.5,-0.5"/>
                </g>
               <g id="resetDef">
                       <use xlink:href="#rim2" fill="#404040">
                               <set attributeName="fill" to="#808080" begin="reset.mouseover" end="reset.mouseout"/>
                       </use>
               </g>
        </defs>

<script type="text/javascript">
var viewWidth = 1413;
var viewHeight = 135;
var sectionId = 'dynsection-3';
</script>
<script xlink:href="svgpan.js"/>
<svg id="graph" class="graph">
<g id="viewport">
<title>prob::getIdxVectorRoulette</title>
<polygon fill="white" stroke="none" points="-4,4 -4,-130.5 1409,-130.5 1409,4 -4,4"/>
<!-- Node28 -->
<g id="node1" class="node"><title>Node28</title>
<polygon fill="#bfbfbf" stroke="black" points="0,-79.5 0,-98.5 136,-98.5 136,-79.5 0,-79.5"/>
<text text-anchor="middle" x="68" y="-86.5" font-family="Helvetica,sans-Serif" font-size="10.00">prob::getIdxVectorRoulette</text>
</g>
<!-- Node29 -->
<g id="node2" class="node"><title>Node29</title>
<g id="a_node2"><a xlink:href="namespacegaselect.html#ae9cfd02b23815a3c1291b4adb0b7658a" target="_top" xlink:title="Selection a random index in [IdxBegin,n]. ">
<polygon fill="white" stroke="black" points="172,-96 172,-126 298,-126 298,-96 172,-96"/>
<text text-anchor="start" x="180" y="-114" font-family="Helvetica,sans-Serif" font-size="10.00">gaselect::getIdxRoulette</text>
<text text-anchor="middle" x="235" y="-103" font-family="Helvetica,sans-Serif" font-size="10.00">Wheel</text>
</a>
</g>
</g>
<!-- Node28&#45;&gt;Node29 -->
<g id="edge1" class="edge"><title>Node28&#45;&gt;Node29</title>
<path fill="none" stroke="midnightblue" d="M136.112,-97.9482C144.577,-99.0769 153.266,-100.235 161.805,-101.374"/>
<polygon fill="midnightblue" stroke="midnightblue" points="161.363,-104.846 171.738,-102.698 162.288,-97.9074 161.363,-104.846"/>
</g>
<!-- Node31 -->
<g id="node4" class="node"><title>Node31</title>
<g id="a_node4"><a xlink:href="namespaceprob.html#a65b0579bfb13bf332dfbaadb9e5fe2d2" target="_top" xlink:title="Get two random number diferent. ">
<polygon fill="white" stroke="black" points="172,-57.5 172,-76.5 298,-76.5 298,-57.5 172,-57.5"/>
<text text-anchor="middle" x="235" y="-64.5" font-family="Helvetica,sans-Serif" font-size="10.00">prob::getRandPairUnlike</text>
</a>
</g>
</g>
<!-- Node28&#45;&gt;Node31 -->
<g id="edge3" class="edge"><title>Node28&#45;&gt;Node31</title>
<path fill="none" stroke="midnightblue" d="M136.112,-80.0518C144.577,-78.9231 153.266,-77.7646 161.805,-76.626"/>
<polygon fill="midnightblue" stroke="midnightblue" points="162.288,-80.0926 171.738,-75.3016 161.363,-73.154 162.288,-80.0926"/>
</g>
<!-- Node30 -->
<g id="node3" class="node"><title>Node30</title>
<g id="a_node3"><a xlink:href="namespacegaselect.html#a8c112d058e3c23e488ec889223dc6b5e" target="_top" xlink:title="gaselect::tournament">
<polygon fill="white" stroke="black" points="353.5,-101.5 353.5,-120.5 464.5,-120.5 464.5,-101.5 353.5,-101.5"/>
<text text-anchor="middle" x="409" y="-108.5" font-family="Helvetica,sans-Serif" font-size="10.00">gaselect::tournament</text>
</a>
</g>
</g>
<!-- Node29&#45;&gt;Node30 -->
<g id="edge2" class="edge"><title>Node29&#45;&gt;Node30</title>
<path fill="none" stroke="midnightblue" d="M298.096,-111C312.794,-111 328.505,-111 343.315,-111"/>
<polygon fill="midnightblue" stroke="midnightblue" points="343.401,-114.5 353.401,-111 343.401,-107.5 343.401,-114.5"/>
</g>
<!-- Node32 -->
<g id="node5" class="node"><title>Node32</title>
<g id="a_node5"><a xlink:href="namespaceprob.html#a736bde3100258c3c2d13ebfe2b6746f8" target="_top" xlink:title="Get two random number diferent in order. ">
<polygon fill="white" stroke="black" points="334,-57.5 334,-76.5 484,-76.5 484,-57.5 334,-57.5"/>
<text text-anchor="middle" x="409" y="-64.5" font-family="Helvetica,sans-Serif" font-size="10.00">prob::getRandPairUnlikeInOrd</text>
</a>
</g>
</g>
<!-- Node31&#45;&gt;Node32 -->
<g id="edge4" class="edge"><title>Node31&#45;&gt;Node32</title>
<path fill="none" stroke="midnightblue" d="M298.096,-67C306.465,-67 315.161,-67 323.833,-67"/>
<polygon fill="midnightblue" stroke="midnightblue" points="323.98,-70.5001 333.98,-67 323.98,-63.5001 323.98,-70.5001"/>
</g>
<!-- Node33 -->
<g id="node6" class="node"><title>Node33</title>
<g id="a_node6"><a xlink:href="namespaceinterfacesse.html#afaa45a2a27710ea2dfa979289cf4961d" target="_top" xlink:title="swap items of aoarrayt_y to aiarrayt_x ">
<polygon fill="white" stroke="black" points="540.5,-76.5 540.5,-95.5 641.5,-95.5 641.5,-76.5 540.5,-76.5"/>
<text text-anchor="middle" x="591" y="-83.5" font-family="Helvetica,sans-Serif" font-size="10.00">interfacesse::swap</text>
</a>
</g>
</g>
<!-- Node32&#45;&gt;Node33 -->
<g id="edge5" class="edge"><title>Node32&#45;&gt;Node33</title>
<path fill="none" stroke="midnightblue" d="M484.252,-74.8377C499.595,-76.4573 515.569,-78.1434 530.314,-79.6998"/>
<polygon fill="midnightblue" stroke="midnightblue" points="529.99,-83.185 540.302,-80.7541 530.725,-76.2237 529.99,-83.185"/>
</g>
<!-- Node39 -->
<g id="node12" class="node"><title>Node39</title>
<g id="a_node12"><a xlink:href="namespaceprob.html#a15090755bafc59aa295f2d02be64af8c" target="_top" xlink:title="Get a set of random number diferent. ">
<polygon fill="white" stroke="black" points="520,-38.5 520,-57.5 662,-57.5 662,-38.5 520,-38.5"/>
<text text-anchor="middle" x="591" y="-45.5" font-family="Helvetica,sans-Serif" font-size="10.00">prob::getWithoutRepeatsSet</text>
</a>
</g>
</g>
<!-- Node32&#45;&gt;Node39 -->
<g id="edge11" class="edge"><title>Node32&#45;&gt;Node39</title>
<path fill="none" stroke="midnightblue" d="M484.252,-59.1623C492.744,-58.2659 501.429,-57.3492 509.992,-56.4453"/>
<polygon fill="midnightblue" stroke="midnightblue" points="510.391,-59.9227 519.968,-55.3922 509.656,-52.9614 510.391,-59.9227"/>
</g>
<!-- Node34 -->
<g id="node7" class="node"><title>Node34</title>
<g id="a_node7"><a xlink:href="namespaceinterfacesse.html#a2f42addf86fc8b9cd0c6620217b8a2db" target="_top" xlink:title="swap items of aoarrayt_y to aiarrayt_x ">
<polygon fill="white" stroke="black" points="706,-76.5 706,-95.5 798,-95.5 798,-76.5 706,-76.5"/>
<text text-anchor="middle" x="752" y="-83.5" font-family="Helvetica,sans-Serif" font-size="10.00">interfacesse::dot</text>
</a>
</g>
</g>
<!-- Node33&#45;&gt;Node34 -->
<g id="edge6" class="edge"><title>Node33&#45;&gt;Node34</title>
<path fill="none" stroke="midnightblue" d="M641.872,-86C659.002,-86 678.273,-86 695.801,-86"/>
<polygon fill="midnightblue" stroke="midnightblue" points="695.89,-89.5001 705.89,-86 695.89,-82.5001 695.89,-89.5001"/>
</g>
<!-- Node35 -->
<g id="node8" class="node"><title>Node35</title>
<g id="a_node8"><a xlink:href="namespaceinterfacesse.html#a25f6950d589b92fd5bcf2007fb3fae19" target="_top" xlink:title="interfacesse::sum">
<polygon fill="white" stroke="black" points="855.5,-76.5 855.5,-95.5 951.5,-95.5 951.5,-76.5 855.5,-76.5"/>
<text text-anchor="middle" x="903.5" y="-83.5" font-family="Helvetica,sans-Serif" font-size="10.00">interfacesse::sum</text>
</a>
</g>
</g>
<!-- Node34&#45;&gt;Node35 -->
<g id="edge7" class="edge"><title>Node34&#45;&gt;Node35</title>
<path fill="none" stroke="midnightblue" d="M798.261,-86C813.065,-86 829.708,-86 845.276,-86"/>
<polygon fill="midnightblue" stroke="midnightblue" points="845.321,-89.5001 855.321,-86 845.321,-82.5001 845.321,-89.5001"/>
</g>
<!-- Node36 -->
<g id="node9" class="node"><title>Node36</title>
<g id="a_node9"><a xlink:href="namespaceinterfacesse.html#a9dd5fb43ad8a83ee5cb2f5ba1bb2085b" target="_top" xlink:title="interfacesse::axpy">
<polygon fill="white" stroke="black" points="1013.5,-76.5 1013.5,-95.5 1112.5,-95.5 1112.5,-76.5 1013.5,-76.5"/>
<text text-anchor="middle" x="1063" y="-83.5" font-family="Helvetica,sans-Serif" font-size="10.00">interfacesse::axpy</text>
</a>
</g>
</g>
<!-- Node35&#45;&gt;Node36 -->
<g id="edge8" class="edge"><title>Node35&#45;&gt;Node36</title>
<path fill="none" stroke="midnightblue" d="M951.755,-86C967.888,-86 986.132,-86 1003.07,-86"/>
<polygon fill="midnightblue" stroke="midnightblue" points="1003.41,-89.5001 1013.41,-86 1003.41,-82.5001 1003.41,-89.5001"/>
</g>
<!-- Node37 -->
<g id="node10" class="node"><title>Node37</title>
<g id="a_node10"><a xlink:href="namespaceinterfacesse.html#ae3f94c42a59db65b2941dbfc9f449ea1" target="_top" xlink:title="function xAXPY of blas for doubles vectors ">
<polygon fill="white" stroke="black" points="1161,-76.5 1161,-95.5 1273,-95.5 1273,-76.5 1161,-76.5"/>
<text text-anchor="middle" x="1217" y="-83.5" font-family="Helvetica,sans-Serif" font-size="10.00">interfacesse::axpyInv</text>
</a>
</g>
</g>
<!-- Node36&#45;&gt;Node37 -->
<g id="edge9" class="edge"><title>Node36&#45;&gt;Node37</title>
<path fill="none" stroke="midnightblue" d="M1112.51,-86C1124.65,-86 1137.86,-86 1150.66,-86"/>
<polygon fill="midnightblue" stroke="midnightblue" points="1150.81,-89.5001 1160.81,-86 1150.81,-82.5001 1150.81,-89.5001"/>
</g>
<!-- Node38 -->
<g id="node11" class="node"><title>Node38</title>
<g id="a_node11"><a xlink:href="namespaceinterfacesse.html#a144ebf70bf38495c3de1aca2c8365e08" target="_top" xlink:title="scal items of the array of type T ">
<polygon fill="white" stroke="black" points="1309,-76.5 1309,-95.5 1405,-95.5 1405,-76.5 1309,-76.5"/>
<text text-anchor="middle" x="1357" y="-83.5" font-family="Helvetica,sans-Serif" font-size="10.00">interfacesse::scal</text>
</a>
</g>
</g>
<!-- Node37&#45;&gt;Node38 -->
<g id="edge10" class="edge"><title>Node37&#45;&gt;Node38</title>
<path fill="none" stroke="midnightblue" d="M1273.33,-86C1281.65,-86 1290.24,-86 1298.6,-86"/>
<polygon fill="midnightblue" stroke="midnightblue" points="1298.65,-89.5001 1308.65,-86 1298.65,-82.5001 1298.65,-89.5001"/>
</g>
<!-- Node40 -->
<g id="node13" class="node"><title>Node40</title>
<g id="a_node13"><a xlink:href="namespaceinout.html#a0c10a45877a347dec0d4ec4e5b05b828" target="_top" xlink:title="inout::containerprint">
<polygon fill="white" stroke="black" points="700.5,-38.5 700.5,-57.5 803.5,-57.5 803.5,-38.5 700.5,-38.5"/>
<text text-anchor="middle" x="752" y="-45.5" font-family="Helvetica,sans-Serif" font-size="10.00">inout::containerprint</text>
</a>
</g>
</g>
<!-- Node39&#45;&gt;Node40 -->
<g id="edge12" class="edge"><title>Node39&#45;&gt;Node40</title>
<path fill="none" stroke="midnightblue" d="M662.203,-48C671.511,-48 680.992,-48 690.125,-48"/>
<polygon fill="midnightblue" stroke="midnightblue" points="690.261,-51.5001 700.261,-48 690.261,-44.5001 690.261,-51.5001"/>
</g>
<!-- Node41 -->
<g id="node14" class="node"><title>Node41</title>
<g id="a_node14"><a xlink:href="namespaceprob.html#abffb9a5b780336aceaf8eb78387dcd0c" target="_top" xlink:title="A random different than a given at_unlike. ">
<polygon fill="white" stroke="black" points="698,-0.5 698,-19.5 806,-19.5 806,-0.5 698,-0.5"/>
<text text-anchor="middle" x="752" y="-7.5" font-family="Helvetica,sans-Serif" font-size="10.00">prob::getRandUnlike</text>
</a>
</g>
</g>
<!-- Node39&#45;&gt;Node41 -->
<g id="edge13" class="edge"><title>Node39&#45;&gt;Node41</title>
<path fill="none" stroke="midnightblue" d="M632.122,-38.411C653.104,-33.3965 678.982,-27.2119 701.23,-21.8947"/>
<polygon fill="midnightblue" stroke="midnightblue" points="702.254,-25.2487 711.166,-19.5201 700.626,-18.4405 702.254,-25.2487"/>
</g>
<!-- Node42 -->
<g id="node15" class="node"><title>Node42</title>
<g id="a_node15"><a xlink:href="namespaceprob.html#a7fd4fb1dca3ca869c8cbb930c031a837" target="_top" xlink:title="Selection a random un like to set items. ">
<polygon fill="white" stroke="black" points="842,-0.5 842,-19.5 965,-19.5 965,-0.5 842,-0.5"/>
<text text-anchor="middle" x="903.5" y="-7.5" font-family="Helvetica,sans-Serif" font-size="10.00">prob::getRandSetUnlike</text>
</a>
</g>
</g>
<!-- Node41&#45;&gt;Node42 -->
<g id="edge14" class="edge"><title>Node41&#45;&gt;Node42</title>
<path fill="none" stroke="midnightblue" d="M806.129,-10C814.454,-10 823.169,-10 831.813,-10"/>
<polygon fill="midnightblue" stroke="midnightblue" points="831.898,-13.5001 841.898,-10 831.898,-6.5001 831.898,-13.5001"/>
</g>
<!-- Node43 -->
<g id="node16" class="node"><title>Node43</title>
<g id="a_node16"><a xlink:href="namespaceprob.html#a5d7baf9636f685ea992784431fca725c" target="_top" xlink:title="Selection a pair random index. ">
<polygon fill="white" stroke="black" points="1001,-0.5 1001,-19.5 1125,-19.5 1125,-0.5 1001,-0.5"/>
<text text-anchor="middle" x="1063" y="-7.5" font-family="Helvetica,sans-Serif" font-size="10.00">prob::getElitistPairCross</text>
</a>
</g>
</g>
<!-- Node42&#45;&gt;Node43 -->
<g id="edge15" class="edge"><title>Node42&#45;&gt;Node43</title>
<path fill="none" stroke="midnightblue" d="M965.394,-10C973.64,-10 982.162,-10 990.572,-10"/>
<polygon fill="midnightblue" stroke="midnightblue" points="990.749,-13.5001 1000.75,-10 990.749,-6.5001 990.749,-13.5001"/>
</g>
</g>
</svg>
        <g id="navigator" transform="translate(0 0)" fill="#404254">
                <rect fill="#f2f5e9" fill-opacity="0.5" stroke="#606060" stroke-width=".5" x="0" y="0" width="60" height="60"/>
                <use id="zoomplus" xlink:href="#zoomPlus" x="17" y="9" onmousedown="handleZoom(evt,'in')"/>
                <use id="zoomminus" xlink:href="#zoomMin" x="42" y="9" onmousedown="handleZoom(evt,'out')"/>
                <use id="reset" xlink:href="#resetDef" x="30" y="36" onmousedown="handleReset()"/>
                <g id="arrowUp" xlink:href="#dirArrow" transform="translate(30 24)" onmousedown="handlePan(0,-1)">
                  <use xlink:href="#rim" fill="#404040">
                        <set attributeName="fill" to="#808080" begin="arrowUp.mouseover" end="arrowUp.mouseout"/>
                  </use>
                  <path fill="none" stroke="white" stroke-width="1.5" d="M0,-3.0v7 M-2.5,-0.5L0,-3.0L2.5,-0.5"/>
                </g>
                <g id="arrowRight" xlink:href="#dirArrow" transform="rotate(90) translate(36 -43)" onmousedown="handlePan(1,0)">
                  <use xlink:href="#rim" fill="#404040">
                        <set attributeName="fill" to="#808080" begin="arrowRight.mouseover" end="arrowRight.mouseout"/>
                  </use>
                  <path fill="none" stroke="white" stroke-width="1.5" d="M0,-3.0v7 M-2.5,-0.5L0,-3.0L2.5,-0.5"/>
                </g>
                <g id="arrowDown" xlink:href="#dirArrow" transform="rotate(180) translate(-30 -48)" onmousedown="handlePan(0,1)">
                  <use xlink:href="#rim" fill="#404040">
                        <set attributeName="fill" to="#808080" begin="arrowDown.mouseover" end="arrowDown.mouseout"/>
                  </use>
                  <path fill="none" stroke="white" stroke-width="1.5" d="M0,-3.0v7 M-2.5,-0.5L0,-3.0L2.5,-0.5"/>
                </g>
                <g id="arrowLeft" xlink:href="#dirArrow" transform="rotate(270) translate(-36 17)" onmousedown="handlePan(-1,0)">
                  <use xlink:href="#rim" fill="#404040">
                        <set attributeName="fill" to="#808080" begin="arrowLeft.mouseover" end="arrowLeft.mouseout"/>
                  </use>
                  <path fill="none" stroke="white" stroke-width="1.5" d="M0,-3.0v7 M-2.5,-0.5L0,-3.0L2.5,-0.5"/>
                </g>
        </g>
        <svg viewBox="0 0 15 15" width="100%" height="30px" preserveAspectRatio="xMaxYMin meet">
         <g id="arrow_out" transform="scale(0.3 0.3)">
          <a xlink:href="namespaceprob_acb45371263f36abbfdf479f7b0ccf4bb_cgraph_org.svg" target="_base">
           <rect id="button" ry="5" rx="5" y="6" x="6" height="38" width="38"
                fill="#f2f5e9" fill-opacity="0.5" stroke="#606060" stroke-width="1.0"/>
           <path id="arrow"
             d="M 11.500037,31.436501 C 11.940474,20.09759 22.043105,11.32322 32.158766,21.979434 L 37.068811,17.246167 C 37.068811,17.246167 37.088388,32 37.088388,32 L 22.160133,31.978069 C 22.160133,31.978069 26.997745,27.140456 26.997745,27.140456 C 18.528582,18.264221 13.291696,25.230495 11.500037,31.436501 z"
             style="fill:#404040;"/>
          </a>
         </g>
        </svg>
</svg>
