<?xml version="1.0" encoding="UTF-8" standalone="no"?>
<!DOCTYPE svg PUBLIC "-//W3C//DTD SVG 1.1//EN"
 "http://www.w3.org/Graphics/SVG/1.1/DTD/svg11.dtd">
<!-- Generated by graphviz version 2.38.0 (20140413.2041)
 -->
<!-- Title: clusteringop::computeCostInstanceClusterJ Pages: 1 -->
<svg width="334pt" height="176pt"
 viewBox="0.00 0.00 334.00 176.00" xmlns="http://www.w3.org/2000/svg" xmlns:xlink="http://www.w3.org/1999/xlink">
<g id="graph0" class="graph" transform="scale(1 1) rotate(0) translate(4 172)">
<title>clusteringop::computeCostInstanceClusterJ</title>
<polygon fill="white" stroke="none" points="-4,4 -4,-172 330,-172 330,4 -4,4"/>
<!-- Node1 -->
<g id="node1" class="node"><title>Node1</title>
<g id="a_node1"><a xlink:title="computeCostInstanceClusterJ">
<polygon fill="#bfbfbf" stroke="black" points="0,-71.5 0,-101.5 136,-101.5 136,-71.5 0,-71.5"/>
<text text-anchor="start" x="8" y="-89.5" font-family="Helvetica,sans-Serif" font-size="10.00">clusteringop::computeCost</text>
<text text-anchor="middle" x="68" y="-78.5" font-family="Helvetica,sans-Serif" font-size="10.00">InstanceClusterJ</text>
</a>
</g>
</g>
<!-- Node2 -->
<g id="node2" class="node"><title>Node2</title>
<g id="a_node2"><a xlink:href="classds_1_1_iterator_partition_linked.html#ad171cb96653fadaec272389381a4f8b4" target="_top" xlink:title=" ">
<polygon fill="white" stroke="black" points="183.5,-137.5 183.5,-167.5 314.5,-167.5 314.5,-137.5 183.5,-137.5"/>
<text text-anchor="start" x="191.5" y="-155.5" font-family="Helvetica,sans-Serif" font-size="10.00">ds::IteratorPartitionLinked</text>
<text text-anchor="middle" x="249" y="-144.5" font-family="Helvetica,sans-Serif" font-size="10.00">::begin</text>
</a>
</g>
</g>
<!-- Node1&#45;&gt;Node2 -->
<g id="edge1" class="edge"><title>Node1&#45;&gt;Node2</title>
<path fill="none" stroke="midnightblue" d="M105.498,-101.658C125.102,-109.639 149.748,-119.42 172,-127.5 178.228,-129.762 184.774,-132.048 191.303,-134.272"/>
<polygon fill="midnightblue" stroke="midnightblue" points="190.224,-137.602 200.818,-137.476 192.457,-130.968 190.224,-137.602"/>
</g>
<!-- Node3 -->
<g id="node3" class="node"><title>Node3</title>
<g id="a_node3"><a xlink:href="classds_1_1_iterator_partition_linked.html#af0e179fae69c0d4f047082ee44783613" target="_top" xlink:title=" ">
<polygon fill="white" stroke="black" points="172,-99 172,-118 326,-118 326,-99 172,-99"/>
<text text-anchor="middle" x="249" y="-106" font-family="Helvetica,sans-Serif" font-size="10.00">ds::IteratorPartitionLinked::end</text>
</a>
</g>
</g>
<!-- Node1&#45;&gt;Node3 -->
<g id="edge2" class="edge"><title>Node1&#45;&gt;Node3</title>
<path fill="none" stroke="midnightblue" d="M136.162,-94.7546C144.505,-95.7799 153.124,-96.8392 161.703,-97.8937"/>
<polygon fill="midnightblue" stroke="midnightblue" points="161.386,-101.381 171.738,-99.127 162.24,-94.4332 161.386,-101.381"/>
</g>
<!-- Node4 -->
<g id="node4" class="node"><title>Node4</title>
<g id="a_node4"><a xlink:href="classds_1_1_iterator_partition_linked.html#a1a031c033d0d2d1c6982ced4e0473831" target="_top" xlink:title=" ">
<polygon fill="white" stroke="black" points="183.5,-49.5 183.5,-79.5 314.5,-79.5 314.5,-49.5 183.5,-49.5"/>
<text text-anchor="start" x="191.5" y="-67.5" font-family="Helvetica,sans-Serif" font-size="10.00">ds::IteratorPartitionLinked</text>
<text text-anchor="middle" x="249" y="-56.5" font-family="Helvetica,sans-Serif" font-size="10.00">::getValue</text>
</a>
</g>
</g>
<!-- Node1&#45;&gt;Node4 -->
<g id="edge3" class="edge"><title>Node1&#45;&gt;Node4</title>
<path fill="none" stroke="midnightblue" d="M136.162,-78.2454C148.253,-76.7595 160.924,-75.2021 173.215,-73.6915"/>
<polygon fill="midnightblue" stroke="midnightblue" points="173.93,-77.13 183.428,-72.4362 173.076,-70.1823 173.93,-77.13"/>
</g>
<!-- Node5 -->
<g id="node5" class="node"><title>Node5</title>
<g id="a_node5"><a xlink:href="classds_1_1_iterator_partition_linked.html#a83b887be41c97dc0bdfc47a02abbc383" target="_top" xlink:title=" ">
<polygon fill="white" stroke="black" points="183.5,-0.5 183.5,-30.5 314.5,-30.5 314.5,-0.5 183.5,-0.5"/>
<text text-anchor="start" x="191.5" y="-18.5" font-family="Helvetica,sans-Serif" font-size="10.00">ds::IteratorPartitionLinked</text>
<text text-anchor="middle" x="249" y="-7.5" font-family="Helvetica,sans-Serif" font-size="10.00">::next</text>
</a>
</g>
</g>
<!-- Node1&#45;&gt;Node5 -->
<g id="edge4" class="edge"><title>Node1&#45;&gt;Node5</title>
<path fill="none" stroke="midnightblue" d="M100.659,-71.3518C120.853,-61.9416 147.705,-49.8926 172,-40.5 177.781,-38.2649 183.857,-36.0493 189.947,-33.9144"/>
<polygon fill="midnightblue" stroke="midnightblue" points="191.172,-37.1946 199.492,-30.6348 188.897,-30.5746 191.172,-37.1946"/>
</g>
</g>
</svg>
