<?xml version="1.0" encoding="UTF-8" standalone="no"?>
<!DOCTYPE svg PUBLIC "-//W3C//DTD SVG 1.1//EN"
 "http://www.w3.org/Graphics/SVG/1.1/DTD/svg11.dtd">
<!-- Generated by graphviz version 2.38.0 (20140413.2041)
 -->
<!-- Title: clusteringop::reassignCluster Pages: 1 -->
<svg width="537pt" height="142pt"
 viewBox="0.00 0.00 537.00 142.00" xmlns="http://www.w3.org/2000/svg" xmlns:xlink="http://www.w3.org/1999/xlink">
<g id="graph0" class="graph" transform="scale(1 1) rotate(0) translate(4 138)">
<title>clusteringop::reassignCluster</title>
<polygon fill="white" stroke="none" points="-4,4 -4,-138 533,-138 533,4 -4,4"/>
<!-- Node211 -->
<g id="node1" class="node"><title>Node211</title>
<g id="a_node1"><a xlink:title="Change each instance to the nearest cluster.">
<polygon fill="#bfbfbf" stroke="black" points="0,-76.5 0,-95.5 147,-95.5 147,-76.5 0,-76.5"/>
<text text-anchor="middle" x="73.5" y="-83.5" font-family="Helvetica,sans-Serif" font-size="10.00">clusteringop::reassignCluster</text>
</a>
</g>
</g>
<!-- Node212 -->
<g id="node2" class="node"><title>Node212</title>
<g id="a_node2"><a xlink:href="namespaceinout.html#a0c10a45877a347dec0d4ec4e5b05b828" target="_top" xlink:title=" ">
<polygon fill="white" stroke="black" points="201.5,-114.5 201.5,-133.5 304.5,-133.5 304.5,-114.5 201.5,-114.5"/>
<text text-anchor="middle" x="253" y="-121.5" font-family="Helvetica,sans-Serif" font-size="10.00">inout::containerprint</text>
</a>
</g>
</g>
<!-- Node211&#45;&gt;Node212 -->
<g id="edge1" class="edge"><title>Node211&#45;&gt;Node212</title>
<path fill="none" stroke="midnightblue" d="M119.291,-95.589C143.03,-100.671 172.384,-106.955 197.444,-112.32"/>
<polygon fill="midnightblue" stroke="midnightblue" points="197.02,-115.809 207.531,-114.48 198.486,-108.964 197.02,-115.809"/>
</g>
<!-- Node213 -->
<g id="node3" class="node"><title>Node213</title>
<g id="a_node3"><a xlink:href="classdata_1_1_instance.html#aa6ee19c383a86228b3d134e42bdb6830" target="_top" xlink:title=" ">
<polygon fill="white" stroke="black" points="183,-76.5 183,-95.5 323,-95.5 323,-76.5 183,-76.5"/>
<text text-anchor="middle" x="253" y="-83.5" font-family="Helvetica,sans-Serif" font-size="10.00">data::Instance::getFeatures</text>
</a>
</g>
</g>
<!-- Node211&#45;&gt;Node213 -->
<g id="edge2" class="edge"><title>Node211&#45;&gt;Node213</title>
<path fill="none" stroke="midnightblue" d="M147.208,-86C155.58,-86 164.149,-86 172.604,-86"/>
<polygon fill="midnightblue" stroke="midnightblue" points="172.839,-89.5001 182.839,-86 172.839,-82.5001 172.839,-89.5001"/>
</g>
<!-- Node214 -->
<g id="node4" class="node"><title>Node214</title>
<g id="a_node4"><a xlink:href="namespacenearest.html#a8b0d89680acfe7ef438ae465bd633fb1" target="_top" xlink:title="NN Find the centroid closest to an instance.">
<polygon fill="white" stroke="black" points="218,-38.5 218,-57.5 288,-57.5 288,-38.5 218,-38.5"/>
<text text-anchor="middle" x="253" y="-45.5" font-family="Helvetica,sans-Serif" font-size="10.00">nearest::NN</text>
</a>
</g>
</g>
<!-- Node211&#45;&gt;Node214 -->
<g id="edge3" class="edge"><title>Node211&#45;&gt;Node214</title>
<path fill="none" stroke="midnightblue" d="M119.291,-76.411C146.429,-70.6012 180.903,-63.2208 207.913,-57.4384"/>
<polygon fill="midnightblue" stroke="midnightblue" points="208.822,-60.823 217.868,-55.3071 207.357,-53.9781 208.822,-60.823"/>
</g>
<!-- Node215 -->
<g id="node5" class="node"><title>Node215</title>
<g id="a_node5"><a xlink:href="classmat_1_1_matrix_row.html#a5391a205367fbaac82a26ddc377a80af" target="_top" xlink:title=" ">
<polygon fill="white" stroke="black" points="380.5,-76.5 380.5,-95.5 507.5,-95.5 507.5,-76.5 380.5,-76.5"/>
<text text-anchor="middle" x="444" y="-83.5" font-family="Helvetica,sans-Serif" font-size="10.00">mat::MatrixRow::getRow</text>
</a>
</g>
</g>
<!-- Node214&#45;&gt;Node215 -->
<g id="edge4" class="edge"><title>Node214&#45;&gt;Node215</title>
<path fill="none" stroke="midnightblue" d="M288.226,-54.8815C315.295,-60.3239 353.687,-68.043 385.462,-74.4314"/>
<polygon fill="midnightblue" stroke="midnightblue" points="385.029,-77.9144 395.523,-76.4543 386.409,-71.0518 385.029,-77.9144"/>
</g>
<!-- Node216 -->
<g id="node6" class="node"><title>Node216</title>
<g id="a_node6"><a xlink:href="classmat_1_1_matrix_base.html#a70200414022ce1479b9ddc16102b12ae" target="_top" xlink:title=" ">
<polygon fill="white" stroke="black" points="359,-38.5 359,-57.5 529,-57.5 529,-38.5 359,-38.5"/>
<text text-anchor="middle" x="444" y="-45.5" font-family="Helvetica,sans-Serif" font-size="10.00">mat::MatrixBase::getNumColumns</text>
</a>
</g>
</g>
<!-- Node214&#45;&gt;Node216 -->
<g id="edge5" class="edge"><title>Node214&#45;&gt;Node216</title>
<path fill="none" stroke="midnightblue" d="M288.226,-48C305.307,-48 326.897,-48 348.488,-48"/>
<polygon fill="midnightblue" stroke="midnightblue" points="348.728,-51.5001 358.728,-48 348.728,-44.5001 348.728,-51.5001"/>
</g>
<!-- Node217 -->
<g id="node7" class="node"><title>Node217</title>
<g id="a_node7"><a xlink:href="classmat_1_1_matrix_base.html#ac500eedd5e203327d3292f8ab22d8f3e" target="_top" xlink:title=" ">
<polygon fill="white" stroke="black" points="366,-0.5 366,-19.5 522,-19.5 522,-0.5 366,-0.5"/>
<text text-anchor="middle" x="444" y="-7.5" font-family="Helvetica,sans-Serif" font-size="10.00">mat::MatrixBase::getNumRows</text>
</a>
</g>
</g>
<!-- Node214&#45;&gt;Node217 -->
<g id="edge6" class="edge"><title>Node214&#45;&gt;Node217</title>
<path fill="none" stroke="midnightblue" d="M288.226,-41.1185C315.295,-35.6761 353.687,-27.957 385.462,-21.5686"/>
<polygon fill="midnightblue" stroke="midnightblue" points="386.409,-24.9482 395.523,-19.5457 385.029,-18.0856 386.409,-24.9482"/>
</g>
</g>
</svg>
