<?xml version="1.0" encoding="UTF-8" standalone="no"?>
<!DOCTYPE svg PUBLIC "-//W3C//DTD SVG 1.1//EN"
 "http://www.w3.org/Graphics/SVG/1.1/DTD/svg11.dtd">
<!-- Generated by graphviz version 2.38.0 (20140413.2041)
 -->
<!-- Title: interfacesse::transy Pages: 1 -->
<svg width="545pt" height="28pt"
 viewBox="0.00 0.00 545.00 28.00" xmlns="http://www.w3.org/2000/svg" xmlns:xlink="http://www.w3.org/1999/xlink">
<g id="graph0" class="graph" transform="scale(1 1) rotate(0) translate(4 24)">
<title>interfacesse::transy</title>
<polygon fill="white" stroke="none" points="-4,4 -4,-24 541,-24 541,4 -4,4"/>
<!-- Node281 -->
<g id="node1" class="node"><title>Node281</title>
<polygon fill="#bfbfbf" stroke="black" points="0,-0.5 0,-19.5 104,-19.5 104,-0.5 0,-0.5"/>
<text text-anchor="middle" x="52" y="-7.5" font-family="Helvetica,sans-Serif" font-size="10.00">interfacesse::transy</text>
</g>
<!-- Node282 -->
<g id="node2" class="node"><title>Node282</title>
<g id="a_node2"><a xlink:href="namespaceinterfacesse.html#a3ef732d695e1172d5e8404cc0e44865a" target="_top" xlink:title="translate the aoarrayt_y array ">
<polygon fill="white" stroke="black" points="140,-0.5 140,-19.5 244,-19.5 244,-0.5 140,-0.5"/>
<text text-anchor="middle" x="192" y="-7.5" font-family="Helvetica,sans-Serif" font-size="10.00">interfacesse::transy</text>
</a>
</g>
</g>
<!-- Node281&#45;&gt;Node282 -->
<g id="edge1" class="edge"><title>Node281&#45;&gt;Node282</title>
<path fill="none" stroke="midnightblue" d="M104.386,-10C112.558,-10 121.083,-10 129.46,-10"/>
<polygon fill="midnightblue" stroke="midnightblue" points="129.571,-13.5001 139.571,-10 129.571,-6.5001 129.571,-13.5001"/>
</g>
<!-- Node283 -->
<g id="node3" class="node"><title>Node283</title>
<g id="a_node3"><a xlink:href="namespaceinterfacesse.html#ace6b5b44901bf38644ed492778c620f5" target="_top" xlink:title="For a matrix each items change for constant and a vector. ">
<polygon fill="white" stroke="black" points="280,-0.5 280,-19.5 391,-19.5 391,-0.5 280,-0.5"/>
<text text-anchor="middle" x="335.5" y="-7.5" font-family="Helvetica,sans-Serif" font-size="10.00">interfacesse::aasxpa</text>
</a>
</g>
</g>
<!-- Node282&#45;&gt;Node283 -->
<g id="edge2" class="edge"><title>Node282&#45;&gt;Node283</title>
<path fill="none" stroke="midnightblue" d="M244.085,-10C252.302,-10 260.903,-10 269.395,-10"/>
<polygon fill="midnightblue" stroke="midnightblue" points="269.666,-13.5001 279.666,-10 269.666,-6.5001 269.666,-13.5001"/>
</g>
<!-- Node284 -->
<g id="node4" class="node"><title>Node284</title>
<g id="a_node4"><a xlink:href="namespaceinterfacesse.html#a0569818171fd8f88efe5d7f86e6e0b5d" target="_top" xlink:title="extension of xAXPY operation for T result ">
<polygon fill="white" stroke="black" points="427,-0.5 427,-19.5 537,-19.5 537,-0.5 427,-0.5"/>
<text text-anchor="middle" x="482" y="-7.5" font-family="Helvetica,sans-Serif" font-size="10.00">interfacesse::aysxpy</text>
</a>
</g>
</g>
<!-- Node283&#45;&gt;Node284 -->
<g id="edge3" class="edge"><title>Node283&#45;&gt;Node284</title>
<path fill="none" stroke="midnightblue" d="M391.129,-10C399.425,-10 408.051,-10 416.532,-10"/>
<polygon fill="midnightblue" stroke="midnightblue" points="416.773,-13.5001 426.773,-10 416.773,-6.5001 416.773,-13.5001"/>
</g>
</g>
</svg>
