<?xml version="1.0" encoding="UTF-8" standalone="no"?>
<!DOCTYPE svg PUBLIC "-//W3C//DTD SVG 1.1//EN"
 "http://www.w3.org/Graphics/SVG/1.1/DTD/svg11.dtd">
<!-- Generated by graphviz version 2.38.0 (20140413.2041)
 -->
<!-- Title: um::SSE Pages: 1 -->
<svg width="446pt" height="142pt"
 viewBox="0.00 0.00 446.00 142.00" xmlns="http://www.w3.org/2000/svg" xmlns:xlink="http://www.w3.org/1999/xlink">
<g id="graph0" class="graph" transform="scale(1 1) rotate(0) translate(4 138)">
<title>um::SSE</title>
<polygon fill="white" stroke="none" points="-4,4 -4,-138 442,-138 442,4 -4,4"/>
<!-- Node323 -->
<g id="node1" class="node"><title>Node323</title>
<g id="a_node1"><a xlink:title="SSE &#160;. A boolean is also returned to indicate if the partition is valid.">
<polygon fill="#bfbfbf" stroke="black" points="0,-76.5 0,-95.5 56,-95.5 56,-76.5 0,-76.5"/>
<text text-anchor="middle" x="28" y="-83.5" font-family="Helvetica,sans-Serif" font-size="10.00">um::SSE</text>
</a>
</g>
</g>
<!-- Node324 -->
<g id="node2" class="node"><title>Node324</title>
<g id="a_node2"><a xlink:href="classdata_1_1_instance.html#aa6ee19c383a86228b3d134e42bdb6830" target="_top" xlink:title=" ">
<polygon fill="white" stroke="black" points="92,-114.5 92,-133.5 232,-133.5 232,-114.5 92,-114.5"/>
<text text-anchor="middle" x="162" y="-121.5" font-family="Helvetica,sans-Serif" font-size="10.00">data::Instance::getFeatures</text>
</a>
</g>
</g>
<!-- Node323&#45;&gt;Node324 -->
<g id="edge1" class="edge"><title>Node323&#45;&gt;Node324</title>
<path fill="none" stroke="midnightblue" d="M56.0307,-93.7816C73.9209,-98.9318 97.7627,-105.795 118.203,-111.68"/>
<polygon fill="midnightblue" stroke="midnightblue" points="117.344,-115.075 127.922,-114.478 119.281,-108.348 117.344,-115.075"/>
</g>
<!-- Node325 -->
<g id="node3" class="node"><title>Node325</title>
<g id="a_node3"><a xlink:href="classmat_1_1_matrix_base.html#ac500eedd5e203327d3292f8ab22d8f3e" target="_top" xlink:title=" ">
<polygon fill="white" stroke="black" points="275,-76.5 275,-95.5 431,-95.5 431,-76.5 275,-76.5"/>
<text text-anchor="middle" x="353" y="-83.5" font-family="Helvetica,sans-Serif" font-size="10.00">mat::MatrixBase::getNumRows</text>
</a>
</g>
</g>
<!-- Node323&#45;&gt;Node325 -->
<g id="edge2" class="edge"><title>Node323&#45;&gt;Node325</title>
<path fill="none" stroke="midnightblue" d="M56.2604,-86C101.779,-86 195.131,-86 264.844,-86"/>
<polygon fill="midnightblue" stroke="midnightblue" points="264.949,-89.5001 274.949,-86 264.949,-82.5001 264.949,-89.5001"/>
</g>
<!-- Node326 -->
<g id="node4" class="node"><title>Node326</title>
<g id="a_node4"><a xlink:href="namespacenearest.html#a8b0d89680acfe7ef438ae465bd633fb1" target="_top" xlink:title="NN Find the centroid closest to an instance.">
<polygon fill="white" stroke="black" points="127,-38.5 127,-57.5 197,-57.5 197,-38.5 127,-38.5"/>
<text text-anchor="middle" x="162" y="-45.5" font-family="Helvetica,sans-Serif" font-size="10.00">nearest::NN</text>
</a>
</g>
</g>
<!-- Node323&#45;&gt;Node326 -->
<g id="edge3" class="edge"><title>Node323&#45;&gt;Node326</title>
<path fill="none" stroke="midnightblue" d="M56.0307,-78.2184C73.9209,-73.0682 97.7627,-66.2047 118.203,-60.3205"/>
<polygon fill="midnightblue" stroke="midnightblue" points="119.281,-63.6523 127.922,-57.5223 117.344,-56.9254 119.281,-63.6523"/>
</g>
<!-- Node326&#45;&gt;Node325 -->
<g id="edge5" class="edge"><title>Node326&#45;&gt;Node325</title>
<path fill="none" stroke="midnightblue" d="M197.226,-54.8815C224.295,-60.3239 262.687,-68.043 294.462,-74.4314"/>
<polygon fill="midnightblue" stroke="midnightblue" points="294.029,-77.9144 304.523,-76.4543 295.409,-71.0518 294.029,-77.9144"/>
</g>
<!-- Node327 -->
<g id="node5" class="node"><title>Node327</title>
<g id="a_node5"><a xlink:href="classmat_1_1_matrix_base.html#a70200414022ce1479b9ddc16102b12ae" target="_top" xlink:title=" ">
<polygon fill="white" stroke="black" points="268,-38.5 268,-57.5 438,-57.5 438,-38.5 268,-38.5"/>
<text text-anchor="middle" x="353" y="-45.5" font-family="Helvetica,sans-Serif" font-size="10.00">mat::MatrixBase::getNumColumns</text>
</a>
</g>
</g>
<!-- Node326&#45;&gt;Node327 -->
<g id="edge4" class="edge"><title>Node326&#45;&gt;Node327</title>
<path fill="none" stroke="midnightblue" d="M197.226,-48C214.307,-48 235.897,-48 257.488,-48"/>
<polygon fill="midnightblue" stroke="midnightblue" points="257.728,-51.5001 267.728,-48 257.728,-44.5001 257.728,-51.5001"/>
</g>
<!-- Node328 -->
<g id="node6" class="node"><title>Node328</title>
<g id="a_node6"><a xlink:href="classmat_1_1_matrix_row.html#a5391a205367fbaac82a26ddc377a80af" target="_top" xlink:title=" ">
<polygon fill="white" stroke="black" points="289.5,-0.5 289.5,-19.5 416.5,-19.5 416.5,-0.5 289.5,-0.5"/>
<text text-anchor="middle" x="353" y="-7.5" font-family="Helvetica,sans-Serif" font-size="10.00">mat::MatrixRow::getRow</text>
</a>
</g>
</g>
<!-- Node326&#45;&gt;Node328 -->
<g id="edge6" class="edge"><title>Node326&#45;&gt;Node328</title>
<path fill="none" stroke="midnightblue" d="M197.226,-41.1185C224.295,-35.6761 262.687,-27.957 294.462,-21.5686"/>
<polygon fill="midnightblue" stroke="midnightblue" points="295.409,-24.9482 304.523,-19.5457 294.029,-18.0856 295.409,-24.9482"/>
</g>
</g>
</svg>
