<?xml version="1.0" encoding="UTF-8" standalone="no"?>
<!DOCTYPE svg PUBLIC "-//W3C//DTD SVG 1.1//EN"
 "http://www.w3.org/Graphics/SVG/1.1/DTD/svg11.dtd">
<!-- Generated by graphviz version 2.38.0 (20140413.2041)
 -->
<!-- Title: mat::inverse Pages: 1 -->
<svg width="286pt" height="142pt"
 viewBox="0.00 0.00 286.00 142.00" xmlns="http://www.w3.org/2000/svg" xmlns:xlink="http://www.w3.org/1999/xlink">
<g id="graph0" class="graph" transform="scale(1 1) rotate(0) translate(4 138)">
<title>mat::inverse</title>
<polygon fill="white" stroke="none" points="-4,4 -4,-138 282,-138 282,4 -4,4"/>
<!-- Node56 -->
<g id="node1" class="node"><title>Node56</title>
<g id="a_node1"><a xlink:title=" ">
<polygon fill="#bfbfbf" stroke="black" points="0,-57.5 0,-76.5 72,-76.5 72,-57.5 0,-57.5"/>
<text text-anchor="middle" x="36" y="-64.5" font-family="Helvetica,sans-Serif" font-size="10.00">mat::inverse</text>
</a>
</g>
</g>
<!-- Node57 -->
<g id="node2" class="node"><title>Node57</title>
<g id="a_node2"><a xlink:href="classmat_1_1_matrix_base.html#a70200414022ce1479b9ddc16102b12ae" target="_top" xlink:title=" ">
<polygon fill="white" stroke="black" points="108,-114.5 108,-133.5 278,-133.5 278,-114.5 108,-114.5"/>
<text text-anchor="middle" x="193" y="-121.5" font-family="Helvetica,sans-Serif" font-size="10.00">mat::MatrixBase::getNumColumns</text>
</a>
</g>
</g>
<!-- Node56&#45;&gt;Node57 -->
<g id="edge1" class="edge"><title>Node56&#45;&gt;Node57</title>
<path fill="none" stroke="midnightblue" d="M51.9527,-76.5418C65.9505,-85.095 87.6955,-97.4284 108,-105 115.013,-107.615 122.496,-109.934 129.996,-111.973"/>
<polygon fill="midnightblue" stroke="midnightblue" points="129.273,-115.401 139.829,-114.493 131.011,-108.62 129.273,-115.401"/>
</g>
<!-- Node58 -->
<g id="node3" class="node"><title>Node58</title>
<g id="a_node3"><a xlink:href="classmat_1_1_matrix_base.html#ac500eedd5e203327d3292f8ab22d8f3e" target="_top" xlink:title=" ">
<polygon fill="white" stroke="black" points="115,-76.5 115,-95.5 271,-95.5 271,-76.5 115,-76.5"/>
<text text-anchor="middle" x="193" y="-83.5" font-family="Helvetica,sans-Serif" font-size="10.00">mat::MatrixBase::getNumRows</text>
</a>
</g>
</g>
<!-- Node56&#45;&gt;Node58 -->
<g id="edge2" class="edge"><title>Node56&#45;&gt;Node58</title>
<path fill="none" stroke="midnightblue" d="M72.1719,-71.3114C82.0508,-72.5224 93.2532,-73.8956 104.747,-75.3044"/>
<polygon fill="midnightblue" stroke="midnightblue" points="104.544,-78.8057 114.896,-76.5485 105.396,-71.8577 104.544,-78.8057"/>
</g>
<!-- Node59 -->
<g id="node4" class="node"><title>Node59</title>
<g id="a_node4"><a xlink:href="classmat_1_1_matrix_row.html#a156313f6aa515994b76321ff03780b16" target="_top" xlink:title=" ">
<polygon fill="white" stroke="black" points="138,-38.5 138,-57.5 248,-57.5 248,-38.5 138,-38.5"/>
<text text-anchor="middle" x="193" y="-45.5" font-family="Helvetica,sans-Serif" font-size="10.00">mat::MatrixRow::print</text>
</a>
</g>
</g>
<!-- Node56&#45;&gt;Node59 -->
<g id="edge3" class="edge"><title>Node56&#45;&gt;Node59</title>
<path fill="none" stroke="midnightblue" d="M72.1719,-62.6886C88.6014,-60.6747 108.692,-58.212 127.693,-55.8829"/>
<polygon fill="midnightblue" stroke="midnightblue" points="128.304,-59.3342 137.804,-54.6434 127.452,-52.3862 128.304,-59.3342"/>
</g>
<!-- Node60 -->
<g id="node5" class="node"><title>Node60</title>
<g id="a_node5"><a xlink:href="classmat_1_1_matrix_row.html#a2879a2578666e3da78f3588e78b5e982" target="_top" xlink:title=" ">
<polygon fill="white" stroke="black" points="130.5,-0.5 130.5,-19.5 255.5,-19.5 255.5,-0.5 130.5,-0.5"/>
<text text-anchor="middle" x="193" y="-7.5" font-family="Helvetica,sans-Serif" font-size="10.00">mat::MatrixRow::toArray</text>
</a>
</g>
</g>
<!-- Node56&#45;&gt;Node60 -->
<g id="edge4" class="edge"><title>Node56&#45;&gt;Node60</title>
<path fill="none" stroke="midnightblue" d="M51.9527,-57.4582C65.9505,-48.905 87.6955,-36.5716 108,-29 115.013,-26.3847 122.496,-24.0656 129.996,-22.027"/>
<polygon fill="midnightblue" stroke="midnightblue" points="131.011,-25.3803 139.829,-19.5072 129.273,-18.5994 131.011,-25.3803"/>
</g>
</g>
</svg>
