<?xml version="1.0" encoding="UTF-8" standalone="no"?>
<!DOCTYPE svg PUBLIC "-//W3C//DTD SVG 1.1//EN"
 "http://www.w3.org/Graphics/SVG/1.1/DTD/svg11.dtd">
<!-- Generated by graphviz version 2.38.0 (20140413.2041)
 -->
<!-- Title: nearest::recalculateDistNearestCentroids Pages: 1 -->
<svg width="1551pt" height="154pt"
 viewBox="0.00 0.00 1551.00 153.50" xmlns="http://www.w3.org/2000/svg" xmlns:xlink="http://www.w3.org/1999/xlink">
<g id="graph0" class="graph" transform="scale(1 1) rotate(0) translate(4 149.5)">
<title>nearest::recalculateDistNearestCentroids</title>
<polygon fill="white" stroke="none" points="-4,4 -4,-149.5 1547,-149.5 1547,4 -4,4"/>
<!-- Node115 -->
<g id="node1" class="node"><title>Node115</title>
<polygon fill="#bfbfbf" stroke="black" points="0,-74 0,-104 123,-104 123,-74 0,-74"/>
<text text-anchor="start" x="8" y="-92" font-family="Helvetica,sans-Serif" font-size="10.00">nearest::recalculateDist</text>
<text text-anchor="middle" x="61.5" y="-81" font-family="Helvetica,sans-Serif" font-size="10.00">NearestCentroids</text>
</g>
<!-- Node116 -->
<g id="node2" class="node"><title>Node116</title>
<g id="a_node2"><a xlink:href="namespacenearest.html#a42d33c1da05f3657dfb177d48ac19365" target="_top" xlink:title="Find the nearest pair of centroids. ">
<polygon fill="white" stroke="black" points="169.5,-109.5 169.5,-128.5 320.5,-128.5 320.5,-109.5 169.5,-109.5"/>
<text text-anchor="middle" x="245" y="-116.5" font-family="Helvetica,sans-Serif" font-size="10.00">nearest::findNearestCentroids</text>
</a>
</g>
</g>
<!-- Node115&#45;&gt;Node116 -->
<g id="edge1" class="edge"><title>Node115&#45;&gt;Node116</title>
<path fill="none" stroke="midnightblue" d="M123.189,-99.0313C140.246,-101.851 158.9,-104.934 176.337,-107.816"/>
<polygon fill="midnightblue" stroke="midnightblue" points="176.004,-111.308 186.441,-109.486 177.145,-104.402 176.004,-111.308"/>
</g>
<!-- Node125 -->
<g id="node11" class="node"><title>Node125</title>
<g id="a_node11"><a xlink:href="namespacenearest.html#ae11d0bb55d785136c13f44f2505fbe54" target="_top" xlink:title="Find the centroid Cjp closest to the centroid Cj. ">
<polygon fill="white" stroke="black" points="159,-49.5 159,-68.5 331,-68.5 331,-49.5 159,-49.5"/>
<text text-anchor="middle" x="245" y="-56.5" font-family="Helvetica,sans-Serif" font-size="10.00">nearest::findTwoNearestCentroids</text>
</a>
</g>
</g>
<!-- Node115&#45;&gt;Node125 -->
<g id="edge10" class="edge"><title>Node115&#45;&gt;Node125</title>
<path fill="none" stroke="midnightblue" d="M123.189,-78.9687C140.246,-76.1494 158.9,-73.0661 176.337,-70.184"/>
<polygon fill="midnightblue" stroke="midnightblue" points="177.145,-73.5979 186.441,-68.5139 176.004,-66.6916 177.145,-73.5979"/>
</g>
<!-- Node117 -->
<g id="node3" class="node"><title>Node117</title>
<g id="a_node3"><a xlink:href="namespacenearest.html#a0c0aa8e52b55ae477e92bcecc6ca0000" target="_top" xlink:title="Mark pairs of centroids that depend on the pair to be joined. ">
<polygon fill="white" stroke="black" points="382,-115 382,-145 522,-145 522,-115 382,-115"/>
<text text-anchor="start" x="390" y="-133" font-family="Helvetica,sans-Serif" font-size="10.00">nearest::markRecalculation</text>
<text text-anchor="middle" x="452" y="-122" font-family="Helvetica,sans-Serif" font-size="10.00">Nearest</text>
</a>
</g>
</g>
<!-- Node116&#45;&gt;Node117 -->
<g id="edge2" class="edge"><title>Node116&#45;&gt;Node117</title>
<path fill="none" stroke="midnightblue" d="M320.59,-123.002C337.18,-123.893 354.827,-124.84 371.603,-125.74"/>
<polygon fill="midnightblue" stroke="midnightblue" points="371.746,-129.252 381.919,-126.293 372.121,-122.262 371.746,-129.252"/>
</g>
<!-- Node118 -->
<g id="node4" class="node"><title>Node118</title>
<g id="a_node4"><a xlink:href="namespacenearest.html#a7384baf6c6bb160a2f2c48b8ec108433" target="_top" xlink:title="Delete a nearest::NearestCentroids. ">
<polygon fill="white" stroke="black" points="573,-120.5 573,-139.5 731,-139.5 731,-120.5 573,-120.5"/>
<text text-anchor="middle" x="652" y="-127.5" font-family="Helvetica,sans-Serif" font-size="10.00">nearest::deleteNearestCentroid</text>
</a>
</g>
</g>
<!-- Node117&#45;&gt;Node118 -->
<g id="edge3" class="edge"><title>Node117&#45;&gt;Node118</title>
<path fill="none" stroke="midnightblue" d="M522.251,-130C535.314,-130 549.139,-130 562.694,-130"/>
<polygon fill="midnightblue" stroke="midnightblue" points="562.989,-133.5 572.989,-130 562.989,-126.5 562.989,-133.5"/>
</g>
<!-- Node119 -->
<g id="node5" class="node"><title>Node119</title>
<g id="a_node5"><a xlink:href="namespaceinterfacesse.html#afaa45a2a27710ea2dfa979289cf4961d" target="_top" xlink:title="swap items of aoarrayt_y to aiarrayt_x ">
<polygon fill="white" stroke="black" points="767,-120.5 767,-139.5 868,-139.5 868,-120.5 767,-120.5"/>
<text text-anchor="middle" x="817.5" y="-127.5" font-family="Helvetica,sans-Serif" font-size="10.00">interfacesse::swap</text>
</a>
</g>
</g>
<!-- Node118&#45;&gt;Node119 -->
<g id="edge4" class="edge"><title>Node118&#45;&gt;Node119</title>
<path fill="none" stroke="midnightblue" d="M731.398,-130C739.811,-130 748.272,-130 756.423,-130"/>
<polygon fill="midnightblue" stroke="midnightblue" points="756.554,-133.5 766.554,-130 756.554,-126.5 756.554,-133.5"/>
</g>
<!-- Node120 -->
<g id="node6" class="node"><title>Node120</title>
<g id="a_node6"><a xlink:href="namespaceinterfacesse.html#a2f42addf86fc8b9cd0c6620217b8a2db" target="_top" xlink:title="swap items of aoarrayt_y to aiarrayt_x ">
<polygon fill="white" stroke="black" points="904,-120.5 904,-139.5 996,-139.5 996,-120.5 904,-120.5"/>
<text text-anchor="middle" x="950" y="-127.5" font-family="Helvetica,sans-Serif" font-size="10.00">interfacesse::dot</text>
</a>
</g>
</g>
<!-- Node119&#45;&gt;Node120 -->
<g id="edge5" class="edge"><title>Node119&#45;&gt;Node120</title>
<path fill="none" stroke="midnightblue" d="M868.209,-130C876.505,-130 885.156,-130 893.584,-130"/>
<polygon fill="midnightblue" stroke="midnightblue" points="893.714,-133.5 903.714,-130 893.714,-126.5 893.714,-133.5"/>
</g>
<!-- Node121 -->
<g id="node7" class="node"><title>Node121</title>
<g id="a_node7"><a xlink:href="namespaceinterfacesse.html#a25f6950d589b92fd5bcf2007fb3fae19" target="_top" xlink:title="interfacesse::sum">
<polygon fill="white" stroke="black" points="1032,-120.5 1032,-139.5 1128,-139.5 1128,-120.5 1032,-120.5"/>
<text text-anchor="middle" x="1080" y="-127.5" font-family="Helvetica,sans-Serif" font-size="10.00">interfacesse::sum</text>
</a>
</g>
</g>
<!-- Node120&#45;&gt;Node121 -->
<g id="edge6" class="edge"><title>Node120&#45;&gt;Node121</title>
<path fill="none" stroke="midnightblue" d="M996.128,-130C1004.32,-130 1012.96,-130 1021.44,-130"/>
<polygon fill="midnightblue" stroke="midnightblue" points="1021.68,-133.5 1031.68,-130 1021.68,-126.5 1021.68,-133.5"/>
</g>
<!-- Node122 -->
<g id="node8" class="node"><title>Node122</title>
<g id="a_node8"><a xlink:href="namespaceinterfacesse.html#a9dd5fb43ad8a83ee5cb2f5ba1bb2085b" target="_top" xlink:title="interfacesse::axpy">
<polygon fill="white" stroke="black" points="1164,-120.5 1164,-139.5 1263,-139.5 1263,-120.5 1164,-120.5"/>
<text text-anchor="middle" x="1213.5" y="-127.5" font-family="Helvetica,sans-Serif" font-size="10.00">interfacesse::axpy</text>
</a>
</g>
</g>
<!-- Node121&#45;&gt;Node122 -->
<g id="edge7" class="edge"><title>Node121&#45;&gt;Node122</title>
<path fill="none" stroke="midnightblue" d="M1128.1,-130C1136.47,-130 1145.28,-130 1153.92,-130"/>
<polygon fill="midnightblue" stroke="midnightblue" points="1153.95,-133.5 1163.95,-130 1153.95,-126.5 1153.95,-133.5"/>
</g>
<!-- Node123 -->
<g id="node9" class="node"><title>Node123</title>
<g id="a_node9"><a xlink:href="namespaceinterfacesse.html#ae3f94c42a59db65b2941dbfc9f449ea1" target="_top" xlink:title="function xAXPY of blas for doubles vectors ">
<polygon fill="white" stroke="black" points="1299,-120.5 1299,-139.5 1411,-139.5 1411,-120.5 1299,-120.5"/>
<text text-anchor="middle" x="1355" y="-127.5" font-family="Helvetica,sans-Serif" font-size="10.00">interfacesse::axpyInv</text>
</a>
</g>
</g>
<!-- Node122&#45;&gt;Node123 -->
<g id="edge8" class="edge"><title>Node122&#45;&gt;Node123</title>
<path fill="none" stroke="midnightblue" d="M1263.29,-130C1271.54,-130 1280.21,-130 1288.79,-130"/>
<polygon fill="midnightblue" stroke="midnightblue" points="1288.8,-133.5 1298.8,-130 1288.8,-126.5 1288.8,-133.5"/>
</g>
<!-- Node124 -->
<g id="node10" class="node"><title>Node124</title>
<g id="a_node10"><a xlink:href="namespaceinterfacesse.html#a144ebf70bf38495c3de1aca2c8365e08" target="_top" xlink:title="scal items of the array of type T ">
<polygon fill="white" stroke="black" points="1447,-120.5 1447,-139.5 1543,-139.5 1543,-120.5 1447,-120.5"/>
<text text-anchor="middle" x="1495" y="-127.5" font-family="Helvetica,sans-Serif" font-size="10.00">interfacesse::scal</text>
</a>
</g>
</g>
<!-- Node123&#45;&gt;Node124 -->
<g id="edge9" class="edge"><title>Node123&#45;&gt;Node124</title>
<path fill="none" stroke="midnightblue" d="M1411.33,-130C1419.65,-130 1428.24,-130 1436.6,-130"/>
<polygon fill="midnightblue" stroke="midnightblue" points="1436.65,-133.5 1446.65,-130 1436.65,-126.5 1436.65,-133.5"/>
</g>
<!-- Node126 -->
<g id="node12" class="node"><title>Node126</title>
<g id="a_node12"><a xlink:href="classmat_1_1_matrix_base.html#a70200414022ce1479b9ddc16102b12ae" target="_top" xlink:title="mat::MatrixBase::getNumColumns">
<polygon fill="white" stroke="black" points="367,-76.5 367,-95.5 537,-95.5 537,-76.5 367,-76.5"/>
<text text-anchor="middle" x="452" y="-83.5" font-family="Helvetica,sans-Serif" font-size="10.00">mat::MatrixBase::getNumColumns</text>
</a>
</g>
</g>
<!-- Node125&#45;&gt;Node126 -->
<g id="edge11" class="edge"><title>Node125&#45;&gt;Node126</title>
<path fill="none" stroke="midnightblue" d="M318.275,-68.5192C334.504,-70.6566 351.843,-72.9402 368.454,-75.1281"/>
<polygon fill="midnightblue" stroke="midnightblue" points="368.315,-78.6399 378.686,-76.4758 369.229,-71.6999 368.315,-78.6399"/>
</g>
<!-- Node127 -->
<g id="node13" class="node"><title>Node127</title>
<g id="a_node13"><a xlink:href="classmat_1_1_matrix_base.html#ac500eedd5e203327d3292f8ab22d8f3e" target="_top" xlink:title="mat::MatrixBase::getNumRows">
<polygon fill="white" stroke="black" points="374,-38.5 374,-57.5 530,-57.5 530,-38.5 374,-38.5"/>
<text text-anchor="middle" x="452" y="-45.5" font-family="Helvetica,sans-Serif" font-size="10.00">mat::MatrixBase::getNumRows</text>
</a>
</g>
</g>
<!-- Node125&#45;&gt;Node127 -->
<g id="edge12" class="edge"><title>Node125&#45;&gt;Node127</title>
<path fill="none" stroke="midnightblue" d="M331.158,-54.4306C341.912,-53.8535 352.928,-53.2624 363.714,-52.6836"/>
<polygon fill="midnightblue" stroke="midnightblue" points="364.171,-56.1642 373.969,-52.1333 363.796,-49.1743 364.171,-56.1642"/>
</g>
<!-- Node128 -->
<g id="node14" class="node"><title>Node128</title>
<g id="a_node14"><a xlink:href="classmat_1_1_matrix_base.html#ae3b1c4b8e9cb7e7685d7bc129f875dcd" target="_top" xlink:title="mat::MatrixBase::getRow">
<polygon fill="white" stroke="black" points="386.5,-0.5 386.5,-19.5 517.5,-19.5 517.5,-0.5 386.5,-0.5"/>
<text text-anchor="middle" x="452" y="-7.5" font-family="Helvetica,sans-Serif" font-size="10.00">mat::MatrixBase::getRow</text>
</a>
</g>
</g>
<!-- Node125&#45;&gt;Node128 -->
<g id="edge13" class="edge"><title>Node125&#45;&gt;Node128</title>
<path fill="none" stroke="midnightblue" d="M283.559,-49.4764C307.426,-43.4772 338.991,-35.6391 367,-29 376.929,-26.6464 387.535,-24.1973 397.75,-21.8708"/>
<polygon fill="midnightblue" stroke="midnightblue" points="398.817,-25.2178 407.796,-19.5934 397.269,-18.3911 398.817,-25.2178"/>
</g>
</g>
</svg>
