<?xml version="1.0" encoding="UTF-8" standalone="no"?>
<!DOCTYPE svg PUBLIC "-//W3C//DTD SVG 1.1//EN"
 "http://www.w3.org/Graphics/SVG/1.1/DTD/svg11.dtd">
<!-- Generated by graphviz version 2.38.0 (20140413.2041)
 -->
<!-- Title: um::silhouette Pages: 1 -->
<svg width="277pt" height="263pt"
 viewBox="0.00 0.00 277.00 263.00" xmlns="http://www.w3.org/2000/svg" xmlns:xlink="http://www.w3.org/1999/xlink">
<g id="graph0" class="graph" transform="scale(1 1) rotate(0) translate(4 259)">
<title>um::silhouette</title>
<polygon fill="white" stroke="none" points="-4,4 -4,-259 273,-259 273,4 -4,4"/>
<!-- Node276 -->
<g id="node1" class="node"><title>Node276</title>
<g id="a_node1"><a xlink:title="Silhouette .">
<polygon fill="#bfbfbf" stroke="black" points="0,-126 0,-145 79,-145 79,-126 0,-126"/>
<text text-anchor="middle" x="39.5" y="-133" font-family="Helvetica,sans-Serif" font-size="10.00">um::silhouette</text>
</a>
</g>
</g>
<!-- Node277 -->
<g id="node2" class="node"><title>Node277</title>
<g id="a_node2"><a xlink:href="classds_1_1_iterator_partition_linked.html#ad171cb96653fadaec272389381a4f8b4" target="_top" xlink:title=" ">
<polygon fill="white" stroke="black" points="126.5,-224.5 126.5,-254.5 257.5,-254.5 257.5,-224.5 126.5,-224.5"/>
<text text-anchor="start" x="134.5" y="-242.5" font-family="Helvetica,sans-Serif" font-size="10.00">ds::IteratorPartitionLinked</text>
<text text-anchor="middle" x="192" y="-231.5" font-family="Helvetica,sans-Serif" font-size="10.00">::begin</text>
</a>
</g>
</g>
<!-- Node276&#45;&gt;Node277 -->
<g id="edge1" class="edge"><title>Node276&#45;&gt;Node277</title>
<path fill="none" stroke="midnightblue" d="M47.1459,-145.236C58.932,-161.794 85.0901,-195.486 115,-214.5 118.176,-216.519 121.531,-218.391 124.991,-220.123"/>
<polygon fill="midnightblue" stroke="midnightblue" points="123.797,-223.425 134.348,-224.392 126.703,-217.057 123.797,-223.425"/>
</g>
<!-- Node278 -->
<g id="node3" class="node"><title>Node278</title>
<g id="a_node3"><a xlink:href="namespaceinout.html#a0c10a45877a347dec0d4ec4e5b05b828" target="_top" xlink:title=" ">
<polygon fill="white" stroke="black" points="140.5,-186 140.5,-205 243.5,-205 243.5,-186 140.5,-186"/>
<text text-anchor="middle" x="192" y="-193" font-family="Helvetica,sans-Serif" font-size="10.00">inout::containerprint</text>
</a>
</g>
</g>
<!-- Node276&#45;&gt;Node278 -->
<g id="edge2" class="edge"><title>Node276&#45;&gt;Node278</title>
<path fill="none" stroke="midnightblue" d="M55.071,-145.004C69.7023,-154.184 93.1493,-167.923 115,-176.5 121.294,-178.971 128.011,-181.198 134.747,-183.184"/>
<polygon fill="midnightblue" stroke="midnightblue" points="134.013,-186.613 144.585,-185.921 135.889,-179.869 134.013,-186.613"/>
</g>
<!-- Node279 -->
<g id="node4" class="node"><title>Node279</title>
<g id="a_node4"><a xlink:href="classds_1_1_iterator_partition_linked.html#af0e179fae69c0d4f047082ee44783613" target="_top" xlink:title=" ">
<polygon fill="white" stroke="black" points="115,-148 115,-167 269,-167 269,-148 115,-148"/>
<text text-anchor="middle" x="192" y="-155" font-family="Helvetica,sans-Serif" font-size="10.00">ds::IteratorPartitionLinked::end</text>
</a>
</g>
</g>
<!-- Node276&#45;&gt;Node279 -->
<g id="edge3" class="edge"><title>Node276&#45;&gt;Node279</title>
<path fill="none" stroke="midnightblue" d="M79.2575,-141.166C90.4593,-142.803 103.085,-144.649 115.711,-146.494"/>
<polygon fill="midnightblue" stroke="midnightblue" points="115.41,-149.987 125.811,-147.971 116.422,-143.061 115.41,-149.987"/>
</g>
<!-- Node280 -->
<g id="node5" class="node"><title>Node280</title>
<g id="a_node5"><a xlink:href="classds_1_1_partition_linked.html#a696f58c4d25fd41adf281d1468440dc9" target="_top" xlink:title=" ">
<polygon fill="white" stroke="black" points="142,-98.5 142,-128.5 242,-128.5 242,-98.5 142,-98.5"/>
<text text-anchor="start" x="150" y="-116.5" font-family="Helvetica,sans-Serif" font-size="10.00">ds::PartitionLinked</text>
<text text-anchor="middle" x="192" y="-105.5" font-family="Helvetica,sans-Serif" font-size="10.00">::getNumPartitions</text>
</a>
</g>
</g>
<!-- Node276&#45;&gt;Node280 -->
<g id="edge4" class="edge"><title>Node276&#45;&gt;Node280</title>
<path fill="none" stroke="midnightblue" d="M79.2575,-129.834C95.2018,-127.504 114.03,-124.751 131.642,-122.177"/>
<polygon fill="midnightblue" stroke="midnightblue" points="132.451,-125.596 141.839,-120.686 131.438,-118.67 132.451,-125.596"/>
</g>
<!-- Node281 -->
<g id="node6" class="node"><title>Node281</title>
<g id="a_node6"><a xlink:href="classds_1_1_iterator_partition_linked.html#a1a031c033d0d2d1c6982ced4e0473831" target="_top" xlink:title=" ">
<polygon fill="white" stroke="black" points="126.5,-49.5 126.5,-79.5 257.5,-79.5 257.5,-49.5 126.5,-49.5"/>
<text text-anchor="start" x="134.5" y="-67.5" font-family="Helvetica,sans-Serif" font-size="10.00">ds::IteratorPartitionLinked</text>
<text text-anchor="middle" x="192" y="-56.5" font-family="Helvetica,sans-Serif" font-size="10.00">::getValue</text>
</a>
</g>
</g>
<!-- Node276&#45;&gt;Node281 -->
<g id="edge5" class="edge"><title>Node276&#45;&gt;Node281</title>
<path fill="none" stroke="midnightblue" d="M53.9581,-125.837C68.4747,-115.743 92.535,-99.9521 115,-89.5 119.88,-87.2295 125.024,-85.0736 130.24,-83.0495"/>
<polygon fill="midnightblue" stroke="midnightblue" points="131.508,-86.3124 139.666,-79.5524 129.073,-79.7495 131.508,-86.3124"/>
</g>
<!-- Node282 -->
<g id="node7" class="node"><title>Node282</title>
<g id="a_node7"><a xlink:href="classds_1_1_iterator_partition_linked.html#a83b887be41c97dc0bdfc47a02abbc383" target="_top" xlink:title=" ">
<polygon fill="white" stroke="black" points="126.5,-0.5 126.5,-30.5 257.5,-30.5 257.5,-0.5 126.5,-0.5"/>
<text text-anchor="start" x="134.5" y="-18.5" font-family="Helvetica,sans-Serif" font-size="10.00">ds::IteratorPartitionLinked</text>
<text text-anchor="middle" x="192" y="-7.5" font-family="Helvetica,sans-Serif" font-size="10.00">::next</text>
</a>
</g>
</g>
<!-- Node276&#45;&gt;Node282 -->
<g id="edge6" class="edge"><title>Node276&#45;&gt;Node282</title>
<path fill="none" stroke="midnightblue" d="M45.4749,-125.887C55.8289,-106.807 81.5415,-63.9734 115,-40.5 117.729,-38.5854 120.614,-36.8101 123.602,-35.1648"/>
<polygon fill="midnightblue" stroke="midnightblue" points="125.408,-38.1768 132.823,-30.6094 122.307,-31.9009 125.408,-38.1768"/>
</g>
</g>
</svg>
