<?xml version="1.0" encoding="UTF-8" standalone="no"?>
<!DOCTYPE svg PUBLIC "-//W3C//DTD SVG 1.1//EN"
 "http://www.w3.org/Graphics/SVG/1.1/DTD/svg11.dtd">
<!-- Generated by graphviz version 2.38.0 (20140413.2041)
 -->
<!-- Title: um::silhouette Pages: 1 -->
<!--zoomable 570 -->
<svg id="main" version="1.1" xmlns="http://www.w3.org/2000/svg" xmlns:xlink="http://www.w3.org/1999/xlink" xml:space="preserve" onload="init(evt)">
<style type="text/css"><![CDATA[
.edge:hover path { stroke: red; }
.edge:hover polygon { stroke: red; fill: red; }
]]></style>
<script type="text/javascript"><![CDATA[
var edges = document.getElementsByTagName('g');
if (edges && edges.length) {
  for (var i=0;i<edges.length;i++) {
    if (edges[i].id.substr(0,4)=='edge') {
      edges[i].setAttribute('class','edge');
    }
  }
}
]]></script>
        <defs>
                <circle id="rim" cx="0" cy="0" r="7"/>
                <circle id="rim2" cx="0" cy="0" r="3.5"/>
                <g id="zoomPlus">
                        <use xlink:href="#rim" fill="#404040">
                                <set attributeName="fill" to="#808080" begin="zoomplus.mouseover" end="zoomplus.mouseout"/>
                        </use>
                        <path d="M-4,0h8M0,-4v8" fill="none" stroke="white" stroke-width="1.5" pointer-events="none"/>
                </g>
                <g id="zoomMin">
                        <use xlink:href="#rim" fill="#404040">
                                <set attributeName="fill" to="#808080" begin="zoomminus.mouseover" end="zoomminus.mouseout"/>
                        </use>
                        <path d="M-4,0h8" fill="none" stroke="white" stroke-width="1.5" pointer-events="none"/>
                </g>
                <g id="dirArrow">
                        <path fill="none" stroke="white" stroke-width="1.5" d="M0,-3.0v7 M-2.5,-0.5L0,-3.0L2.5,-0.5"/>
                </g>
               <g id="resetDef">
                       <use xlink:href="#rim2" fill="#404040">
                               <set attributeName="fill" to="#808080" begin="reset.mouseover" end="reset.mouseout"/>
                       </use>
               </g>
        </defs>

<script type="text/javascript">
var viewWidth = 623;
var viewHeight = 570;
var sectionId = 'dynsection-30';
</script>
<script xlink:href="svgpan.js"/>
<svg id="graph" class="graph">
<g id="viewport">
<title>um::silhouette</title>
<polygon fill="white" stroke="none" points="-4,4 -4,-566 619,-566 619,4 -4,4"/>
<!-- Node707 -->
<g id="node1" class="node"><title>Node707</title>
<polygon fill="#bfbfbf" stroke="black" points="0,-241 0,-260 79,-260 79,-241 0,-241"/>
<text text-anchor="middle" x="39.5" y="-248" font-family="Helvetica,sans-Serif" font-size="10.00">um::silhouette</text>
</g>
<!-- Node708 -->
<g id="node2" class="node"><title>Node708</title>
<g id="a_node2"><a xlink:href="classds_1_1_iterator_partition_linked.html#ad171cb96653fadaec272389381a4f8b4" target="_top" xlink:title="ds::IteratorPartitionLinked\l::begin">
<polygon fill="white" stroke="black" points="336.5,-531.5 336.5,-561.5 467.5,-561.5 467.5,-531.5 336.5,-531.5"/>
<text text-anchor="start" x="344.5" y="-549.5" font-family="Helvetica,sans-Serif" font-size="10.00">ds::IteratorPartitionLinked</text>
<text text-anchor="middle" x="402" y="-538.5" font-family="Helvetica,sans-Serif" font-size="10.00">::begin</text>
</a>
</g>
</g>
<!-- Node707&#45;&gt;Node708 -->
<g id="edge1" class="edge"><title>Node707&#45;&gt;Node708</title>
<path fill="none" stroke="midnightblue" d="M40.5545,-260.45C41.315,-295.799 48.8495,-416.464 115,-477.5 172.191,-530.269 262.602,-544.668 326.439,-547.677"/>
<polygon fill="midnightblue" stroke="midnightblue" points="326.318,-551.175 336.447,-548.067 326.59,-544.18 326.318,-551.175"/>
</g>
<!-- Node709 -->
<g id="node3" class="node"><title>Node709</title>
<g id="a_node3"><a xlink:href="classds_1_1_iterator_partition_linked.html#af0e179fae69c0d4f047082ee44783613" target="_top" xlink:title="ds::IteratorPartitionLinked::end">
<polygon fill="white" stroke="black" points="325,-493 325,-512 479,-512 479,-493 325,-493"/>
<text text-anchor="middle" x="402" y="-500" font-family="Helvetica,sans-Serif" font-size="10.00">ds::IteratorPartitionLinked::end</text>
</a>
</g>
</g>
<!-- Node707&#45;&gt;Node709 -->
<g id="edge2" class="edge"><title>Node707&#45;&gt;Node709</title>
<path fill="none" stroke="midnightblue" d="M41.4867,-260.042C45.1169,-290.064 60.5003,-383.39 115,-430.5 170.132,-478.156 252.362,-495.077 314.519,-500.708"/>
<polygon fill="midnightblue" stroke="midnightblue" points="314.451,-504.214 324.705,-501.546 315.026,-497.238 314.451,-504.214"/>
</g>
<!-- Node710 -->
<g id="node4" class="node"><title>Node710</title>
<g id="a_node4"><a xlink:href="classdata_1_1_instance.html#aa6ee19c383a86228b3d134e42bdb6830" target="_top" xlink:title="data::Instance::getFeatures">
<polygon fill="white" stroke="black" points="132,-137 132,-156 272,-156 272,-137 132,-137"/>
<text text-anchor="middle" x="202" y="-144" font-family="Helvetica,sans-Serif" font-size="10.00">data::Instance::getFeatures</text>
</a>
</g>
</g>
<!-- Node707&#45;&gt;Node710 -->
<g id="edge3" class="edge"><title>Node707&#45;&gt;Node710</title>
<path fill="none" stroke="midnightblue" d="M46.8409,-240.76C58.3528,-223.863 84.356,-189.143 115,-170.5 122.505,-165.934 130.902,-162.214 139.427,-159.188"/>
<polygon fill="midnightblue" stroke="midnightblue" points="140.637,-162.475 149.068,-156.059 138.476,-155.817 140.637,-162.475"/>
</g>
<!-- Node711 -->
<g id="node5" class="node"><title>Node711</title>
<g id="a_node5"><a xlink:href="classdata_1_1_instance.html#a90d1eaeb66cc1470bbfdb95434fdb761" target="_top" xlink:title="data::Instance::getNumDimensions">
<polygon fill="white" stroke="black" points="115,-99 115,-118 289,-118 289,-99 115,-99"/>
<text text-anchor="middle" x="202" y="-106" font-family="Helvetica,sans-Serif" font-size="10.00">data::Instance::getNumDimensions</text>
</a>
</g>
</g>
<!-- Node707&#45;&gt;Node711 -->
<g id="edge4" class="edge"><title>Node707&#45;&gt;Node711</title>
<path fill="none" stroke="midnightblue" d="M43.4605,-240.663C51.0975,-217.066 73.8059,-157.022 115,-127.5 117.672,-125.585 120.502,-123.858 123.444,-122.3"/>
<polygon fill="midnightblue" stroke="midnightblue" points="124.933,-125.468 132.563,-118.118 122.014,-119.105 124.933,-125.468"/>
</g>
<!-- Node712 -->
<g id="node6" class="node"><title>Node712</title>
<g id="a_node6"><a xlink:href="classds_1_1_partition_linked.html#a70877e6d118d2f041d9006fdf565daec" target="_top" xlink:title="ds::PartitionLinked\l::getNumInstances">
<polygon fill="white" stroke="black" points="352,-443.5 352,-473.5 452,-473.5 452,-443.5 352,-443.5"/>
<text text-anchor="start" x="360" y="-461.5" font-family="Helvetica,sans-Serif" font-size="10.00">ds::PartitionLinked</text>
<text text-anchor="middle" x="402" y="-450.5" font-family="Helvetica,sans-Serif" font-size="10.00">::getNumInstances</text>
</a>
</g>
</g>
<!-- Node707&#45;&gt;Node712 -->
<g id="edge5" class="edge"><title>Node707&#45;&gt;Node712</title>
<path fill="none" stroke="midnightblue" d="M43.0529,-260.361C50.0286,-285.272 71.8359,-351.119 115,-384.5 181.294,-435.769 279.48,-451.738 341.835,-456.582"/>
<polygon fill="midnightblue" stroke="midnightblue" points="341.683,-460.08 351.905,-457.292 342.175,-453.097 341.683,-460.08"/>
</g>
<!-- Node713 -->
<g id="node7" class="node"><title>Node713</title>
<g id="a_node7"><a xlink:href="classds_1_1_partition_linked_num_inst.html#ad76918161cd8aca239bb211082756ec7" target="_top" xlink:title="ds::PartitionLinkedNumInst\l::getNumInstClusterK">
<polygon fill="white" stroke="black" points="134.5,-49.5 134.5,-79.5 269.5,-79.5 269.5,-49.5 134.5,-49.5"/>
<text text-anchor="start" x="142.5" y="-67.5" font-family="Helvetica,sans-Serif" font-size="10.00">ds::PartitionLinkedNumInst</text>
<text text-anchor="middle" x="202" y="-56.5" font-family="Helvetica,sans-Serif" font-size="10.00">::getNumInstClusterK</text>
</a>
</g>
</g>
<!-- Node707&#45;&gt;Node713 -->
<g id="edge6" class="edge"><title>Node707&#45;&gt;Node713</title>
<path fill="none" stroke="midnightblue" d="M42.1014,-240.858C47.2433,-212.993 65.9574,-131.667 115,-89.5 118.095,-86.8391 121.459,-84.461 125.005,-82.3357"/>
<polygon fill="midnightblue" stroke="midnightblue" points="126.905,-85.2921 134.144,-77.5565 123.661,-79.0891 126.905,-85.2921"/>
</g>
<!-- Node714 -->
<g id="node8" class="node"><title>Node714</title>
<g id="a_node8"><a xlink:href="classds_1_1_partition_linked_num_inst.html#af8457f94fcc829541f4d13e4984129c0" target="_top" xlink:title="ds::PartitionLinkedNumInst\l::getNumNullCluster">
<polygon fill="white" stroke="black" points="134.5,-0.5 134.5,-30.5 269.5,-30.5 269.5,-0.5 134.5,-0.5"/>
<text text-anchor="start" x="142.5" y="-18.5" font-family="Helvetica,sans-Serif" font-size="10.00">ds::PartitionLinkedNumInst</text>
<text text-anchor="middle" x="202" y="-7.5" font-family="Helvetica,sans-Serif" font-size="10.00">::getNumNullCluster</text>
</a>
</g>
</g>
<!-- Node707&#45;&gt;Node714 -->
<g id="edge7" class="edge"><title>Node707&#45;&gt;Node714</title>
<path fill="none" stroke="midnightblue" d="M40.8986,-240.853C42.8072,-207.622 53.7032,-96.806 115,-39.5 118.121,-36.5822 121.567,-34.0145 125.231,-31.7553"/>
<polygon fill="midnightblue" stroke="midnightblue" points="126.943,-34.8094 134.129,-27.0243 123.656,-28.6288 126.943,-34.8094"/>
</g>
<!-- Node715 -->
<g id="node9" class="node"><title>Node715</title>
<g id="a_node9"><a xlink:href="classds_1_1_partition_linked.html#a696f58c4d25fd41adf281d1468440dc9" target="_top" xlink:title="ds::PartitionLinked\l::getNumPartitions">
<polygon fill="white" stroke="black" points="515,-169.5 515,-199.5 615,-199.5 615,-169.5 515,-169.5"/>
<text text-anchor="start" x="523" y="-187.5" font-family="Helvetica,sans-Serif" font-size="10.00">ds::PartitionLinked</text>
<text text-anchor="middle" x="565" y="-176.5" font-family="Helvetica,sans-Serif" font-size="10.00">::getNumPartitions</text>
</a>
</g>
</g>
<!-- Node707&#45;&gt;Node715 -->
<g id="edge8" class="edge"><title>Node707&#45;&gt;Node715</title>
<path fill="none" stroke="midnightblue" d="M52.968,-240.93C67.2123,-230.458 91.5865,-213.909 115,-204.5 137.142,-195.602 301.27,-162.014 325,-159.5 393.064,-152.289 411.254,-149.744 479,-159.5 489.841,-161.061 501.227,-163.688 512.016,-166.667"/>
<polygon fill="midnightblue" stroke="midnightblue" points="511.145,-170.058 521.724,-169.481 513.094,-163.335 511.145,-170.058"/>
</g>
<!-- Node716 -->
<g id="node10" class="node"><title>Node716</title>
<g id="a_node10"><a xlink:href="classds_1_1_iterator_partition_linked.html#a1a031c033d0d2d1c6982ced4e0473831" target="_top" xlink:title="ds::IteratorPartitionLinked\l::getValue">
<polygon fill="white" stroke="black" points="336.5,-306.5 336.5,-336.5 467.5,-336.5 467.5,-306.5 336.5,-306.5"/>
<text text-anchor="start" x="344.5" y="-324.5" font-family="Helvetica,sans-Serif" font-size="10.00">ds::IteratorPartitionLinked</text>
<text text-anchor="middle" x="402" y="-313.5" font-family="Helvetica,sans-Serif" font-size="10.00">::getValue</text>
</a>
</g>
</g>
<!-- Node707&#45;&gt;Node716 -->
<g id="edge9" class="edge"><title>Node707&#45;&gt;Node716</title>
<path fill="none" stroke="midnightblue" d="M68.2059,-260.017C82.1265,-264.552 99.3265,-269.783 115,-273.5 185.938,-290.324 268.132,-303.473 326.151,-311.722"/>
<polygon fill="midnightblue" stroke="midnightblue" points="325.942,-315.227 336.332,-313.154 326.917,-308.295 325.942,-315.227"/>
</g>
<!-- Node717 -->
<g id="node11" class="node"><title>Node717</title>
<g id="a_node11"><a xlink:href="classds_1_1_iterator_partition_linked.html#a83b887be41c97dc0bdfc47a02abbc383" target="_top" xlink:title="ds::IteratorPartitionLinked\l::next">
<polygon fill="white" stroke="black" points="336.5,-257.5 336.5,-287.5 467.5,-287.5 467.5,-257.5 336.5,-257.5"/>
<text text-anchor="start" x="344.5" y="-275.5" font-family="Helvetica,sans-Serif" font-size="10.00">ds::IteratorPartitionLinked</text>
<text text-anchor="middle" x="402" y="-264.5" font-family="Helvetica,sans-Serif" font-size="10.00">::next</text>
</a>
</g>
</g>
<!-- Node707&#45;&gt;Node717 -->
<g id="edge10" class="edge"><title>Node707&#45;&gt;Node717</title>
<path fill="none" stroke="midnightblue" d="M79.0798,-252.854C137.803,-256.438 250.719,-263.329 325.976,-267.922"/>
<polygon fill="midnightblue" stroke="midnightblue" points="326.141,-271.438 336.335,-268.554 326.567,-264.451 326.141,-271.438"/>
</g>
<!-- Node718 -->
<g id="node12" class="node"><title>Node718</title>
<g id="a_node12"><a xlink:href="classds_1_1_partition_linked_num_inst.html#a71e57f8b0d0b94d6c96426bd1320fbb3" target="_top" xlink:title="ds::PartitionLinkedNumInst\l::print">
<polygon fill="white" stroke="black" points="134.5,-213.5 134.5,-243.5 269.5,-243.5 269.5,-213.5 134.5,-213.5"/>
<text text-anchor="start" x="142.5" y="-231.5" font-family="Helvetica,sans-Serif" font-size="10.00">ds::PartitionLinkedNumInst</text>
<text text-anchor="middle" x="202" y="-220.5" font-family="Helvetica,sans-Serif" font-size="10.00">::print</text>
</a>
</g>
</g>
<!-- Node707&#45;&gt;Node718 -->
<g id="edge11" class="edge"><title>Node707&#45;&gt;Node718</title>
<path fill="none" stroke="midnightblue" d="M79.3526,-245.174C92.8991,-243.318 108.613,-241.164 124.156,-239.033"/>
<polygon fill="midnightblue" stroke="midnightblue" points="124.889,-242.466 134.321,-237.64 123.938,-235.53 124.889,-242.466"/>
</g>
<!-- Node721 -->
<g id="node15" class="node"><title>Node721</title>
<g id="a_node15"><a xlink:href="namespaceum.html#a5cd2a0a7fb84c32e07af00e249d880d2" target="_top" xlink:title="Silhouette . ">
<polygon fill="white" stroke="black" points="162.5,-356 162.5,-375 241.5,-375 241.5,-356 162.5,-356"/>
<text text-anchor="middle" x="202" y="-363" font-family="Helvetica,sans-Serif" font-size="10.00">um::silhouette</text>
</a>
</g>
</g>
<!-- Node707&#45;&gt;Node721 -->
<g id="edge15" class="edge"><title>Node707&#45;&gt;Node721</title>
<path fill="none" stroke="midnightblue" d="M47.2597,-260.147C59.2176,-276.594 85.6277,-310.243 115,-330.5 128.154,-339.572 144.015,-346.865 158.515,-352.398"/>
<polygon fill="midnightblue" stroke="midnightblue" points="157.692,-355.823 168.286,-355.948 160.082,-349.244 157.692,-355.823"/>
</g>
<!-- Node719 -->
<g id="node13" class="node"><title>Node719</title>
<g id="a_node13"><a xlink:href="namespaceinout.html#a0c10a45877a347dec0d4ec4e5b05b828" target="_top" xlink:title="inout::containerprint">
<polygon fill="white" stroke="black" points="350.5,-219 350.5,-238 453.5,-238 453.5,-219 350.5,-219"/>
<text text-anchor="middle" x="402" y="-226" font-family="Helvetica,sans-Serif" font-size="10.00">inout::containerprint</text>
</a>
</g>
</g>
<!-- Node718&#45;&gt;Node719 -->
<g id="edge12" class="edge"><title>Node718&#45;&gt;Node719</title>
<path fill="none" stroke="midnightblue" d="M269.758,-228.5C292.637,-228.5 318.095,-228.5 340.454,-228.5"/>
<polygon fill="midnightblue" stroke="midnightblue" points="340.489,-232 350.489,-228.5 340.489,-225 340.489,-232"/>
</g>
<!-- Node720 -->
<g id="node14" class="node"><title>Node720</title>
<g id="a_node14"><a xlink:href="classds_1_1_partition_linked.html#a6a7de3bc18b0904e2e23536a336e42a8" target="_top" xlink:title="ds::PartitionLinked\l::print">
<polygon fill="white" stroke="black" points="352,-169.5 352,-199.5 452,-199.5 452,-169.5 352,-169.5"/>
<text text-anchor="start" x="360" y="-187.5" font-family="Helvetica,sans-Serif" font-size="10.00">ds::PartitionLinked</text>
<text text-anchor="middle" x="402" y="-176.5" font-family="Helvetica,sans-Serif" font-size="10.00">::print</text>
</a>
</g>
</g>
<!-- Node718&#45;&gt;Node720 -->
<g id="edge13" class="edge"><title>Node718&#45;&gt;Node720</title>
<path fill="none" stroke="midnightblue" d="M269.758,-213.665C293.131,-208.471 319.196,-202.679 341.899,-197.634"/>
<polygon fill="midnightblue" stroke="midnightblue" points="342.735,-201.033 351.738,-195.447 341.216,-194.2 342.735,-201.033"/>
</g>
<!-- Node720&#45;&gt;Node715 -->
<g id="edge14" class="edge"><title>Node720&#45;&gt;Node715</title>
<path fill="none" stroke="midnightblue" d="M452.18,-184.5C468.8,-184.5 487.531,-184.5 504.842,-184.5"/>
<polygon fill="midnightblue" stroke="midnightblue" points="504.844,-188 514.844,-184.5 504.844,-181 504.844,-188"/>
</g>
<!-- Node721&#45;&gt;Node708 -->
<g id="edge16" class="edge"><title>Node721&#45;&gt;Node708</title>
<path fill="none" stroke="midnightblue" d="M207.881,-375.167C222.095,-402.355 266.202,-480.191 325,-521.5 327.728,-523.416 330.612,-525.193 333.599,-526.84"/>
<polygon fill="midnightblue" stroke="midnightblue" points="332.302,-530.103 342.818,-531.398 335.405,-523.828 332.302,-530.103"/>
</g>
<!-- Node721&#45;&gt;Node709 -->
<g id="edge18" class="edge"><title>Node721&#45;&gt;Node709</title>
<path fill="none" stroke="midnightblue" d="M210.049,-375.179C227.086,-397.841 272.96,-454.606 325,-483.5 329.165,-485.813 333.614,-487.848 338.19,-489.639"/>
<polygon fill="midnightblue" stroke="midnightblue" points="337.118,-492.972 347.713,-492.982 339.437,-486.368 337.118,-492.972"/>
</g>
<!-- Node721&#45;&gt;Node712 -->
<g id="edge19" class="edge"><title>Node721&#45;&gt;Node712</title>
<path fill="none" stroke="midnightblue" d="M217.508,-375.035C239.859,-389.412 284.389,-416.835 325,-434.5 330.446,-436.869 336.202,-439.118 342.012,-441.221"/>
<polygon fill="midnightblue" stroke="midnightblue" points="341.198,-444.644 351.793,-444.618 343.495,-438.031 341.198,-444.644"/>
</g>
<!-- Node721&#45;&gt;Node715 -->
<g id="edge20" class="edge"><title>Node721&#45;&gt;Node715</title>
<path fill="none" stroke="midnightblue" d="M241.914,-373.879C298.966,-383.891 406.396,-393.877 479,-346.5 527.298,-314.984 549.844,-246.676 558.871,-209.623"/>
<polygon fill="midnightblue" stroke="midnightblue" points="562.339,-210.159 561.161,-199.63 555.516,-208.595 562.339,-210.159"/>
</g>
<!-- Node721&#45;&gt;Node716 -->
<g id="edge21" class="edge"><title>Node721&#45;&gt;Node716</title>
<path fill="none" stroke="midnightblue" d="M241.646,-356.912C265.707,-351.565 297.459,-344.509 326.284,-338.104"/>
<polygon fill="midnightblue" stroke="midnightblue" points="327.337,-341.455 336.34,-335.869 325.819,-334.622 327.337,-341.455"/>
</g>
<!-- Node721&#45;&gt;Node717 -->
<g id="edge23" class="edge"><title>Node721&#45;&gt;Node717</title>
<path fill="none" stroke="midnightblue" d="M217.928,-355.948C240.46,-341.818 284.803,-315.121 325,-297.5 330.089,-295.269 335.442,-293.125 340.854,-291.096"/>
<polygon fill="midnightblue" stroke="midnightblue" points="342.397,-294.26 350.614,-287.571 340.02,-287.676 342.397,-294.26"/>
</g>
<!-- Node721&#45;&gt;Node719 -->
<g id="edge17" class="edge"><title>Node721&#45;&gt;Node719</title>
<path fill="none" stroke="midnightblue" d="M210.092,-355.948C227.225,-333.575 273.29,-277.486 325,-248.5 329.835,-245.79 335.049,-243.436 340.401,-241.394"/>
<polygon fill="midnightblue" stroke="midnightblue" points="341.813,-244.609 350.129,-238.045 339.535,-237.991 341.813,-244.609"/>
</g>
<!-- Node722 -->
<g id="node16" class="node"><title>Node722</title>
<g id="a_node16"><a xlink:href="classds_1_1_partition_linked_num_inst.html#aadf6edf749179e9d965dfebfd3967cde" target="_top" xlink:title="ds::PartitionLinkedNumInst\l::getVectorNumInstClusterK">
<polygon fill="white" stroke="black" points="332,-394.5 332,-424.5 472,-424.5 472,-394.5 332,-394.5"/>
<text text-anchor="start" x="340" y="-412.5" font-family="Helvetica,sans-Serif" font-size="10.00">ds::PartitionLinkedNumInst</text>
<text text-anchor="middle" x="402" y="-401.5" font-family="Helvetica,sans-Serif" font-size="10.00">::getVectorNumInstClusterK</text>
</a>
</g>
</g>
<!-- Node721&#45;&gt;Node722 -->
<g id="edge22" class="edge"><title>Node721&#45;&gt;Node722</title>
<path fill="none" stroke="midnightblue" d="M241.646,-374.088C264.902,-379.256 295.342,-386.02 323.38,-392.251"/>
<polygon fill="midnightblue" stroke="midnightblue" points="322.66,-395.676 333.181,-394.429 324.178,-388.843 322.66,-395.676"/>
</g>
</g>
</svg>
        <g id="navigator" transform="translate(0 0)" fill="#404254">
                <rect fill="#f2f5e9" fill-opacity="0.5" stroke="#606060" stroke-width=".5" x="0" y="0" width="60" height="60"/>
                <use id="zoomplus" xlink:href="#zoomPlus" x="17" y="9" onmousedown="handleZoom(evt,'in')"/>
                <use id="zoomminus" xlink:href="#zoomMin" x="42" y="9" onmousedown="handleZoom(evt,'out')"/>
                <use id="reset" xlink:href="#resetDef" x="30" y="36" onmousedown="handleReset()"/>
                <g id="arrowUp" xlink:href="#dirArrow" transform="translate(30 24)" onmousedown="handlePan(0,-1)">
                  <use xlink:href="#rim" fill="#404040">
                        <set attributeName="fill" to="#808080" begin="arrowUp.mouseover" end="arrowUp.mouseout"/>
                  </use>
                  <path fill="none" stroke="white" stroke-width="1.5" d="M0,-3.0v7 M-2.5,-0.5L0,-3.0L2.5,-0.5"/>
                </g>
                <g id="arrowRight" xlink:href="#dirArrow" transform="rotate(90) translate(36 -43)" onmousedown="handlePan(1,0)">
                  <use xlink:href="#rim" fill="#404040">
                        <set attributeName="fill" to="#808080" begin="arrowRight.mouseover" end="arrowRight.mouseout"/>
                  </use>
                  <path fill="none" stroke="white" stroke-width="1.5" d="M0,-3.0v7 M-2.5,-0.5L0,-3.0L2.5,-0.5"/>
                </g>
                <g id="arrowDown" xlink:href="#dirArrow" transform="rotate(180) translate(-30 -48)" onmousedown="handlePan(0,1)">
                  <use xlink:href="#rim" fill="#404040">
                        <set attributeName="fill" to="#808080" begin="arrowDown.mouseover" end="arrowDown.mouseout"/>
                  </use>
                  <path fill="none" stroke="white" stroke-width="1.5" d="M0,-3.0v7 M-2.5,-0.5L0,-3.0L2.5,-0.5"/>
                </g>
                <g id="arrowLeft" xlink:href="#dirArrow" transform="rotate(270) translate(-36 17)" onmousedown="handlePan(-1,0)">
                  <use xlink:href="#rim" fill="#404040">
                        <set attributeName="fill" to="#808080" begin="arrowLeft.mouseover" end="arrowLeft.mouseout"/>
                  </use>
                  <path fill="none" stroke="white" stroke-width="1.5" d="M0,-3.0v7 M-2.5,-0.5L0,-3.0L2.5,-0.5"/>
                </g>
        </g>
        <svg viewBox="0 0 15 15" width="100%" height="30px" preserveAspectRatio="xMaxYMin meet">
         <g id="arrow_out" transform="scale(0.3 0.3)">
          <a xlink:href="namespaceum_abfb804a3adf4382c6b4efe519f2ce6cb_cgraph_org.svg" target="_base">
           <rect id="button" ry="5" rx="5" y="6" x="6" height="38" width="38"
                fill="#f2f5e9" fill-opacity="0.5" stroke="#606060" stroke-width="1.0"/>
           <path id="arrow"
             d="M 11.500037,31.436501 C 11.940474,20.09759 22.043105,11.32322 32.158766,21.979434 L 37.068811,17.246167 C 37.068811,17.246167 37.088388,32 37.088388,32 L 22.160133,31.978069 C 22.160133,31.978069 26.997745,27.140456 26.997745,27.140456 C 18.528582,18.264221 13.291696,25.230495 11.500037,31.436501 z"
             style="fill:#404040;"/>
          </a>
         </g>
        </svg>
</svg>
