<?xml version="1.0" encoding="UTF-8" standalone="no"?>
<!DOCTYPE svg PUBLIC "-//W3C//DTD SVG 1.1//EN"
 "http://www.w3.org/Graphics/SVG/1.1/DTD/svg11.dtd">
<!-- Generated by graphviz version 2.38.0 (20140413.2041)
 -->
<!-- Title: clusteringop::nearestRepresentative Pages: 1 -->
<svg width="332pt" height="78pt"
 viewBox="0.00 0.00 332.00 77.50" xmlns="http://www.w3.org/2000/svg" xmlns:xlink="http://www.w3.org/1999/xlink">
<g id="graph0" class="graph" transform="scale(1 1) rotate(0) translate(4 73.5)">
<title>clusteringop::nearestRepresentative</title>
<polygon fill="white" stroke="none" points="-4,4 -4,-73.5 328,-73.5 328,4 -4,4"/>
<!-- Node142 -->
<g id="node1" class="node"><title>Node142</title>
<g id="a_node1"><a xlink:title="nearestRepresentative">
<polygon fill="#bfbfbf" stroke="black" points="0,-22.5 0,-41.5 178,-41.5 178,-22.5 0,-22.5"/>
<text text-anchor="middle" x="89" y="-29.5" font-family="Helvetica,sans-Serif" font-size="10.00">clusteringop::nearestRepresentative</text>
</a>
</g>
</g>
<!-- Node143 -->
<g id="node2" class="node"><title>Node143</title>
<g id="a_node2"><a xlink:href="classmat_1_1_matrix_triang.html#ae8e385b7959c85519692bdee1d4c3aed" target="_top" xlink:title=" ">
<polygon fill="white" stroke="black" points="218,-39 218,-69 320,-69 320,-39 218,-39"/>
<text text-anchor="start" x="226" y="-57" font-family="Helvetica,sans-Serif" font-size="10.00">mat::MatrixTriang::</text>
<text text-anchor="middle" x="269" y="-46" font-family="Helvetica,sans-Serif" font-size="10.00">getNumRows</text>
</a>
</g>
</g>
<!-- Node142&#45;&gt;Node143 -->
<g id="edge1" class="edge"><title>Node142&#45;&gt;Node143</title>
<path fill="none" stroke="midnightblue" d="M167.038,-41.5216C180.606,-43.1984 194.551,-44.922 207.581,-46.5325"/>
<polygon fill="midnightblue" stroke="midnightblue" points="207.457,-50.0437 217.811,-47.7968 208.316,-43.0966 207.457,-50.0437"/>
</g>
<!-- Node144 -->
<g id="node3" class="node"><title>Node144</title>
<g id="a_node3"><a xlink:href="namespacenearest.html#a3c4239101cf18ab4ca62e654a4179995" target="_top" xlink:title=" ">
<polygon fill="white" stroke="black" points="214,-0.5 214,-19.5 324,-19.5 324,-0.5 214,-0.5"/>
<text text-anchor="middle" x="269" y="-7.5" font-family="Helvetica,sans-Serif" font-size="10.00">nearest::medoidsNN</text>
</a>
</g>
</g>
<!-- Node142&#45;&gt;Node144 -->
<g id="edge2" class="edge"><title>Node142&#45;&gt;Node144</title>
<path fill="none" stroke="midnightblue" d="M167.038,-22.4784C179.247,-20.9695 191.761,-19.4228 203.64,-17.9546"/>
<polygon fill="midnightblue" stroke="midnightblue" points="204.397,-21.3878 213.892,-16.6875 203.538,-14.4407 204.397,-21.3878"/>
</g>
</g>
</svg>
