<?xml version="1.0" encoding="UTF-8" standalone="no"?>
<!DOCTYPE svg PUBLIC "-//W3C//DTD SVG 1.1//EN"
 "http://www.w3.org/Graphics/SVG/1.1/DTD/svg11.dtd">
<!-- Generated by graphviz version 2.38.0 (20140413.2041)
 -->
<!-- Title: sm::getMatchingMatrix Pages: 1 -->
<svg width="506pt" height="271pt"
 viewBox="0.00 0.00 506.00 270.50" xmlns="http://www.w3.org/2000/svg" xmlns:xlink="http://www.w3.org/1999/xlink">
<g id="graph0" class="graph" transform="scale(1 1) rotate(0) translate(4 266.5)">
<title>sm::getMatchingMatrix</title>
<polygon fill="white" stroke="none" points="-4,4 -4,-266.5 502,-266.5 502,4 -4,4"/>
<!-- Node17 -->
<g id="node1" class="node"><title>Node17</title>
<g id="a_node1"><a xlink:title=" ">
<polygon fill="#bfbfbf" stroke="black" points="0,-139.5 0,-158.5 118,-158.5 118,-139.5 0,-139.5"/>
<text text-anchor="middle" x="59" y="-146.5" font-family="Helvetica,sans-Serif" font-size="10.00">sm::getMatchingMatrix</text>
</a>
</g>
</g>
<!-- Node18 -->
<g id="node2" class="node"><title>Node18</title>
<g id="a_node2"><a xlink:href="classpartition_1_1_partition.html#acb8de7c890e05872858fb7a7aa53b657" target="_top" xlink:title=" ">
<polygon fill="white" stroke="black" points="190,-232 190,-262 283,-262 283,-232 190,-232"/>
<text text-anchor="start" x="198" y="-250" font-family="Helvetica,sans-Serif" font-size="10.00">partition::Partition</text>
<text text-anchor="middle" x="236.5" y="-239" font-family="Helvetica,sans-Serif" font-size="10.00">::begin</text>
</a>
</g>
</g>
<!-- Node17&#45;&gt;Node18 -->
<g id="edge1" class="edge"><title>Node17&#45;&gt;Node18</title>
<path fill="none" stroke="midnightblue" d="M69.5417,-158.597C85.6063,-174.243 119.674,-205.276 154,-223 162.181,-227.224 171.218,-230.815 180.207,-233.831"/>
<polygon fill="midnightblue" stroke="midnightblue" points="179.31,-237.218 189.9,-236.88 181.411,-230.541 179.31,-237.218"/>
</g>
<!-- Node19 -->
<g id="node3" class="node"><title>Node19</title>
<g id="a_node3"><a xlink:href="classpartition_1_1_partition.html#a4a440dcaeb42e05a52a46405eb30d36e" target="_top" xlink:title=" ">
<polygon fill="white" stroke="black" points="190,-183 190,-213 283,-213 283,-183 190,-183"/>
<text text-anchor="start" x="198" y="-201" font-family="Helvetica,sans-Serif" font-size="10.00">partition::Partition</text>
<text text-anchor="middle" x="236.5" y="-190" font-family="Helvetica,sans-Serif" font-size="10.00">::getNumCluster</text>
</a>
</g>
</g>
<!-- Node17&#45;&gt;Node19 -->
<g id="edge2" class="edge"><title>Node17&#45;&gt;Node19</title>
<path fill="none" stroke="midnightblue" d="M94.2548,-158.564C118.615,-165.366 151.87,-174.65 179.993,-182.502"/>
<polygon fill="midnightblue" stroke="midnightblue" points="179.131,-185.895 189.704,-185.214 181.013,-179.153 179.131,-185.895"/>
</g>
<!-- Node20 -->
<g id="node4" class="node"><title>Node20</title>
<g id="a_node4"><a xlink:href="classmat_1_1_matrix_row.html#a1070fba1c0ec0fbaa309f141817be412" target="_top" xlink:title=" ">
<polygon fill="white" stroke="black" points="154,-134 154,-164 319,-164 319,-134 154,-134"/>
<text text-anchor="start" x="162" y="-152" font-family="Helvetica,sans-Serif" font-size="10.00">mat::MatrixRow&lt; T_INSTANCES</text>
<text text-anchor="middle" x="236.5" y="-141" font-family="Helvetica,sans-Serif" font-size="10.00">_CLUSTER_K &gt;::initialize</text>
</a>
</g>
</g>
<!-- Node17&#45;&gt;Node20 -->
<g id="edge3" class="edge"><title>Node17&#45;&gt;Node20</title>
<path fill="none" stroke="midnightblue" d="M118.439,-149C126.609,-149 135.162,-149 143.767,-149"/>
<polygon fill="midnightblue" stroke="midnightblue" points="143.871,-152.5 153.871,-149 143.871,-145.5 143.871,-152.5"/>
</g>
<!-- Node21 -->
<g id="node5" class="node"><title>Node21</title>
<g id="a_node5"><a xlink:href="classpartition_1_1_partition.html#a96660ce61740ab0287189b21833eccdf" target="_top" xlink:title=" ">
<polygon fill="white" stroke="black" points="190,-85 190,-115 283,-115 283,-85 190,-85"/>
<text text-anchor="start" x="198" y="-103" font-family="Helvetica,sans-Serif" font-size="10.00">partition::Partition</text>
<text text-anchor="middle" x="236.5" y="-92" font-family="Helvetica,sans-Serif" font-size="10.00">::next</text>
</a>
</g>
</g>
<!-- Node17&#45;&gt;Node21 -->
<g id="edge4" class="edge"><title>Node17&#45;&gt;Node21</title>
<path fill="none" stroke="midnightblue" d="M94.2548,-139.436C118.615,-132.634 151.87,-123.35 179.993,-115.498"/>
<polygon fill="midnightblue" stroke="midnightblue" points="181.013,-118.847 189.704,-112.786 179.131,-112.105 181.013,-118.847"/>
</g>
<!-- Node22 -->
<g id="node6" class="node"><title>Node22</title>
<g id="a_node6"><a xlink:href="classsm_1_1_partition_matrix.html#a287f8807a0b9c0066b2f799f2814c721" target="_top" xlink:title=" ">
<polygon fill="white" stroke="black" points="184.5,-36 184.5,-66 288.5,-66 288.5,-36 184.5,-36"/>
<text text-anchor="start" x="192.5" y="-54" font-family="Helvetica,sans-Serif" font-size="10.00">sm::PartitionMatrix</text>
<text text-anchor="middle" x="236.5" y="-43" font-family="Helvetica,sans-Serif" font-size="10.00">::sumPartitionTable</text>
</a>
</g>
</g>
<!-- Node17&#45;&gt;Node22 -->
<g id="edge5" class="edge"><title>Node17&#45;&gt;Node22</title>
<path fill="none" stroke="midnightblue" d="M69.8524,-139.335C86.0928,-123.895 120.076,-93.617 154,-76 160.502,-72.6237 167.536,-69.6184 174.654,-66.9668"/>
<polygon fill="midnightblue" stroke="midnightblue" points="176.086,-70.1738 184.37,-63.5687 173.776,-63.5662 176.086,-70.1738"/>
</g>
<!-- Node23 -->
<g id="node7" class="node"><title>Node23</title>
<g id="a_node7"><a xlink:href="classmat_1_1_matrix_base.html#ac500eedd5e203327d3292f8ab22d8f3e" target="_top" xlink:title=" ">
<polygon fill="white" stroke="black" points="355,-60.5 355,-101.5 498,-101.5 498,-60.5 355,-60.5"/>
<text text-anchor="start" x="363" y="-89.5" font-family="Helvetica,sans-Serif" font-size="10.00">mat::MatrixBase&lt; T</text>
<text text-anchor="start" x="363" y="-78.5" font-family="Helvetica,sans-Serif" font-size="10.00">_INSTANCES_CLUSTER_K</text>
<text text-anchor="middle" x="426.5" y="-67.5" font-family="Helvetica,sans-Serif" font-size="10.00"> &gt;::getNumRows</text>
</a>
</g>
</g>
<!-- Node22&#45;&gt;Node23 -->
<g id="edge6" class="edge"><title>Node22&#45;&gt;Node23</title>
<path fill="none" stroke="midnightblue" d="M288.872,-59.1976C306.105,-61.9476 325.763,-65.0845 344.693,-68.1052"/>
<polygon fill="midnightblue" stroke="midnightblue" points="344.384,-71.6001 354.81,-69.7197 345.487,-64.6876 344.384,-71.6001"/>
</g>
<!-- Node24 -->
<g id="node8" class="node"><title>Node24</title>
<g id="a_node8"><a xlink:href="classmat_1_1_matrix_base.html#a70200414022ce1479b9ddc16102b12ae" target="_top" xlink:title=" ">
<polygon fill="white" stroke="black" points="355,-0.5 355,-41.5 498,-41.5 498,-0.5 355,-0.5"/>
<text text-anchor="start" x="363" y="-29.5" font-family="Helvetica,sans-Serif" font-size="10.00">mat::MatrixBase&lt; T</text>
<text text-anchor="start" x="363" y="-18.5" font-family="Helvetica,sans-Serif" font-size="10.00">_INSTANCES_CLUSTER_K</text>
<text text-anchor="middle" x="426.5" y="-7.5" font-family="Helvetica,sans-Serif" font-size="10.00"> &gt;::getNumColumns</text>
</a>
</g>
</g>
<!-- Node22&#45;&gt;Node24 -->
<g id="edge7" class="edge"><title>Node22&#45;&gt;Node24</title>
<path fill="none" stroke="midnightblue" d="M288.872,-42.8024C306.105,-40.0524 325.763,-36.9155 344.693,-33.8948"/>
<polygon fill="midnightblue" stroke="midnightblue" points="345.487,-37.3124 354.81,-32.2803 344.384,-30.3999 345.487,-37.3124"/>
</g>
</g>
</svg>
