<?xml version="1.0" encoding="UTF-8" standalone="no"?>
<!DOCTYPE svg PUBLIC "-//W3C//DTD SVG 1.1//EN"
 "http://www.w3.org/Graphics/SVG/1.1/DTD/svg11.dtd">
<!-- Generated by graphviz version 2.38.0 (20140413.2041)
 -->
<!-- Title: interfacesse::copya Pages: 1 -->
<svg width="1201pt" height="28pt"
 viewBox="0.00 0.00 1201.00 28.00" xmlns="http://www.w3.org/2000/svg" xmlns:xlink="http://www.w3.org/1999/xlink">
<g id="graph0" class="graph" transform="scale(1 1) rotate(0) translate(4 24)">
<title>interfacesse::copya</title>
<polygon fill="white" stroke="none" points="-4,4 -4,-24 1197,-24 1197,4 -4,4"/>
<!-- Node116 -->
<g id="node1" class="node"><title>Node116</title>
<polygon fill="#bfbfbf" stroke="black" points="0,-0.5 0,-19.5 105,-19.5 105,-0.5 0,-0.5"/>
<text text-anchor="middle" x="52.5" y="-7.5" font-family="Helvetica,sans-Serif" font-size="10.00">interfacesse::copya</text>
</g>
<!-- Node117 -->
<g id="node2" class="node"><title>Node117</title>
<g id="a_node2"><a xlink:href="namespaceinterfacesse.html#aa4b94bf2bf8cb7c437fa3feba8b70ff8" target="_top" xlink:title="Initializes the array with a constant . ">
<polygon fill="white" stroke="black" points="141,-0.5 141,-19.5 246,-19.5 246,-0.5 141,-0.5"/>
<text text-anchor="middle" x="193.5" y="-7.5" font-family="Helvetica,sans-Serif" font-size="10.00">interfacesse::copya</text>
</a>
</g>
</g>
<!-- Node116&#45;&gt;Node117 -->
<g id="edge1" class="edge"><title>Node116&#45;&gt;Node117</title>
<path fill="none" stroke="midnightblue" d="M105.258,-10C113.49,-10 122.077,-10 130.514,-10"/>
<polygon fill="midnightblue" stroke="midnightblue" points="130.698,-13.5001 140.698,-10 130.698,-6.5001 130.698,-13.5001"/>
</g>
<!-- Node118 -->
<g id="node3" class="node"><title>Node118</title>
<g id="a_node3"><a xlink:href="namespaceinterfacesse.html#a925f44ed84d40e9af5050fa0e1373396" target="_top" xlink:title="copy array aoarrayt_x in aoarrayt_y of type T ">
<polygon fill="white" stroke="black" points="282,-0.5 282,-19.5 381,-19.5 381,-0.5 282,-0.5"/>
<text text-anchor="middle" x="331.5" y="-7.5" font-family="Helvetica,sans-Serif" font-size="10.00">interfacesse::copy</text>
</a>
</g>
</g>
<!-- Node117&#45;&gt;Node118 -->
<g id="edge2" class="edge"><title>Node117&#45;&gt;Node118</title>
<path fill="none" stroke="midnightblue" d="M246.304,-10C254.629,-10 263.298,-10 271.772,-10"/>
<polygon fill="midnightblue" stroke="midnightblue" points="271.974,-13.5001 281.974,-10 271.974,-6.5001 271.974,-13.5001"/>
</g>
<!-- Node119 -->
<g id="node4" class="node"><title>Node119</title>
<g id="a_node4"><a xlink:href="namespaceinterfacesse.html#afaa45a2a27710ea2dfa979289cf4961d" target="_top" xlink:title="swap items of aoarrayt_y to aiarrayt_x ">
<polygon fill="white" stroke="black" points="417,-0.5 417,-19.5 518,-19.5 518,-0.5 417,-0.5"/>
<text text-anchor="middle" x="467.5" y="-7.5" font-family="Helvetica,sans-Serif" font-size="10.00">interfacesse::swap</text>
</a>
</g>
</g>
<!-- Node118&#45;&gt;Node119 -->
<g id="edge3" class="edge"><title>Node118&#45;&gt;Node119</title>
<path fill="none" stroke="midnightblue" d="M381.256,-10C389.449,-10 398.036,-10 406.474,-10"/>
<polygon fill="midnightblue" stroke="midnightblue" points="406.655,-13.5001 416.655,-10 406.655,-6.5001 406.655,-13.5001"/>
</g>
<!-- Node120 -->
<g id="node5" class="node"><title>Node120</title>
<g id="a_node5"><a xlink:href="namespaceinterfacesse.html#a2f42addf86fc8b9cd0c6620217b8a2db" target="_top" xlink:title="swap items of aoarrayt_y to aiarrayt_x ">
<polygon fill="white" stroke="black" points="554,-0.5 554,-19.5 646,-19.5 646,-0.5 554,-0.5"/>
<text text-anchor="middle" x="600" y="-7.5" font-family="Helvetica,sans-Serif" font-size="10.00">interfacesse::dot</text>
</a>
</g>
</g>
<!-- Node119&#45;&gt;Node120 -->
<g id="edge4" class="edge"><title>Node119&#45;&gt;Node120</title>
<path fill="none" stroke="midnightblue" d="M518.209,-10C526.505,-10 535.156,-10 543.584,-10"/>
<polygon fill="midnightblue" stroke="midnightblue" points="543.714,-13.5001 553.714,-10 543.714,-6.5001 543.714,-13.5001"/>
</g>
<!-- Node121 -->
<g id="node6" class="node"><title>Node121</title>
<g id="a_node6"><a xlink:href="namespaceinterfacesse.html#a25f6950d589b92fd5bcf2007fb3fae19" target="_top" xlink:title="interfacesse::sum">
<polygon fill="white" stroke="black" points="682,-0.5 682,-19.5 778,-19.5 778,-0.5 682,-0.5"/>
<text text-anchor="middle" x="730" y="-7.5" font-family="Helvetica,sans-Serif" font-size="10.00">interfacesse::sum</text>
</a>
</g>
</g>
<!-- Node120&#45;&gt;Node121 -->
<g id="edge5" class="edge"><title>Node120&#45;&gt;Node121</title>
<path fill="none" stroke="midnightblue" d="M646.128,-10C654.315,-10 662.955,-10 671.442,-10"/>
<polygon fill="midnightblue" stroke="midnightblue" points="671.679,-13.5001 681.678,-10 671.678,-6.5001 671.679,-13.5001"/>
</g>
<!-- Node122 -->
<g id="node7" class="node"><title>Node122</title>
<g id="a_node7"><a xlink:href="namespaceinterfacesse.html#a9dd5fb43ad8a83ee5cb2f5ba1bb2085b" target="_top" xlink:title="interfacesse::axpy">
<polygon fill="white" stroke="black" points="814,-0.5 814,-19.5 913,-19.5 913,-0.5 814,-0.5"/>
<text text-anchor="middle" x="863.5" y="-7.5" font-family="Helvetica,sans-Serif" font-size="10.00">interfacesse::axpy</text>
</a>
</g>
</g>
<!-- Node121&#45;&gt;Node122 -->
<g id="edge6" class="edge"><title>Node121&#45;&gt;Node122</title>
<path fill="none" stroke="midnightblue" d="M778.103,-10C786.472,-10 795.281,-10 803.922,-10"/>
<polygon fill="midnightblue" stroke="midnightblue" points="803.953,-13.5001 813.953,-10 803.953,-6.5001 803.953,-13.5001"/>
</g>
<!-- Node123 -->
<g id="node8" class="node"><title>Node123</title>
<g id="a_node8"><a xlink:href="namespaceinterfacesse.html#ae3f94c42a59db65b2941dbfc9f449ea1" target="_top" xlink:title="function xAXPY of blas for doubles vectors ">
<polygon fill="white" stroke="black" points="949,-0.5 949,-19.5 1061,-19.5 1061,-0.5 949,-0.5"/>
<text text-anchor="middle" x="1005" y="-7.5" font-family="Helvetica,sans-Serif" font-size="10.00">interfacesse::axpyInv</text>
</a>
</g>
</g>
<!-- Node122&#45;&gt;Node123 -->
<g id="edge7" class="edge"><title>Node122&#45;&gt;Node123</title>
<path fill="none" stroke="midnightblue" d="M913.29,-10C921.535,-10 930.211,-10 938.794,-10"/>
<polygon fill="midnightblue" stroke="midnightblue" points="938.797,-13.5001 948.797,-10 938.797,-6.5001 938.797,-13.5001"/>
</g>
<!-- Node124 -->
<g id="node9" class="node"><title>Node124</title>
<g id="a_node9"><a xlink:href="namespaceinterfacesse.html#a144ebf70bf38495c3de1aca2c8365e08" target="_top" xlink:title="scal items of the array of type T ">
<polygon fill="white" stroke="black" points="1097,-0.5 1097,-19.5 1193,-19.5 1193,-0.5 1097,-0.5"/>
<text text-anchor="middle" x="1145" y="-7.5" font-family="Helvetica,sans-Serif" font-size="10.00">interfacesse::scal</text>
</a>
</g>
</g>
<!-- Node123&#45;&gt;Node124 -->
<g id="edge8" class="edge"><title>Node123&#45;&gt;Node124</title>
<path fill="none" stroke="midnightblue" d="M1061.33,-10C1069.65,-10 1078.24,-10 1086.6,-10"/>
<polygon fill="midnightblue" stroke="midnightblue" points="1086.65,-13.5001 1096.65,-10 1086.65,-6.5001 1086.65,-13.5001"/>
</g>
</g>
</svg>
