<?xml version="1.0" encoding="UTF-8" standalone="no"?>
<!DOCTYPE svg PUBLIC "-//W3C//DTD SVG 1.1//EN"
 "http://www.w3.org/Graphics/SVG/1.1/DTD/svg11.dtd">
<!-- Generated by graphviz version 2.38.0 (20140413.2041)
 -->
<!-- Title: interfacesse::gemm Pages: 1 -->
<svg width="320pt" height="142pt"
 viewBox="0.00 0.00 320.00 142.00" xmlns="http://www.w3.org/2000/svg" xmlns:xlink="http://www.w3.org/1999/xlink">
<g id="graph0" class="graph" transform="scale(1 1) rotate(0) translate(4 138)">
<title>interfacesse::gemm</title>
<polygon fill="white" stroke="none" points="-4,4 -4,-138 316,-138 316,4 -4,4"/>
<!-- Node34 -->
<g id="node1" class="node"><title>Node34</title>
<g id="a_node1"><a xlink:title=" ">
<polygon fill="#bfbfbf" stroke="black" points="0,-57.5 0,-76.5 106,-76.5 106,-57.5 0,-57.5"/>
<text text-anchor="middle" x="53" y="-64.5" font-family="Helvetica,sans-Serif" font-size="10.00">interfacesse::gemm</text>
</a>
</g>
</g>
<!-- Node35 -->
<g id="node2" class="node"><title>Node35</title>
<g id="a_node2"><a xlink:href="classmat_1_1_matrix_base.html#a70200414022ce1479b9ddc16102b12ae" target="_top" xlink:title=" ">
<polygon fill="white" stroke="black" points="142,-114.5 142,-133.5 312,-133.5 312,-114.5 142,-114.5"/>
<text text-anchor="middle" x="227" y="-121.5" font-family="Helvetica,sans-Serif" font-size="10.00">mat::MatrixBase::getNumColumns</text>
</a>
</g>
</g>
<!-- Node34&#45;&gt;Node35 -->
<g id="edge1" class="edge"><title>Node34&#45;&gt;Node35</title>
<path fill="none" stroke="midnightblue" d="M73.1735,-76.5087C90.7378,-84.9208 117.634,-97.0592 142,-105 149.97,-107.597 158.477,-109.968 166.905,-112.087"/>
<polygon fill="midnightblue" stroke="midnightblue" points="166.183,-115.513 176.725,-114.458 167.825,-108.709 166.183,-115.513"/>
</g>
<!-- Node36 -->
<g id="node3" class="node"><title>Node36</title>
<g id="a_node3"><a xlink:href="classmat_1_1_matrix_base.html#ac500eedd5e203327d3292f8ab22d8f3e" target="_top" xlink:title=" ">
<polygon fill="white" stroke="black" points="149,-76.5 149,-95.5 305,-95.5 305,-76.5 149,-76.5"/>
<text text-anchor="middle" x="227" y="-83.5" font-family="Helvetica,sans-Serif" font-size="10.00">mat::MatrixBase::getNumRows</text>
</a>
</g>
</g>
<!-- Node34&#45;&gt;Node36 -->
<g id="edge2" class="edge"><title>Node34&#45;&gt;Node36</title>
<path fill="none" stroke="midnightblue" d="M106.072,-72.7522C116.368,-73.8895 127.436,-75.1121 138.536,-76.3383"/>
<polygon fill="midnightblue" stroke="midnightblue" points="138.395,-79.8439 148.718,-77.4631 139.163,-72.8862 138.395,-79.8439"/>
</g>
<!-- Node37 -->
<g id="node4" class="node"><title>Node37</title>
<g id="a_node4"><a xlink:href="classmat_1_1_matrix_row.html#a5391a205367fbaac82a26ddc377a80af" target="_top" xlink:title=" ">
<polygon fill="white" stroke="black" points="163.5,-38.5 163.5,-57.5 290.5,-57.5 290.5,-38.5 163.5,-38.5"/>
<text text-anchor="middle" x="227" y="-45.5" font-family="Helvetica,sans-Serif" font-size="10.00">mat::MatrixRow::getRow</text>
</a>
</g>
</g>
<!-- Node34&#45;&gt;Node37 -->
<g id="edge3" class="edge"><title>Node34&#45;&gt;Node37</title>
<path fill="none" stroke="midnightblue" d="M106.072,-61.2478C120.915,-59.6082 137.364,-57.7912 153.201,-56.0418"/>
<polygon fill="midnightblue" stroke="midnightblue" points="153.941,-59.4814 163.496,-54.9045 153.173,-52.5237 153.941,-59.4814"/>
</g>
<!-- Node38 -->
<g id="node5" class="node"><title>Node38</title>
<g id="a_node5"><a xlink:href="namespaceinterfacesse.html#a25f6950d589b92fd5bcf2007fb3fae19" target="_top" xlink:title=" ">
<polygon fill="white" stroke="black" points="179,-0.5 179,-19.5 275,-19.5 275,-0.5 179,-0.5"/>
<text text-anchor="middle" x="227" y="-7.5" font-family="Helvetica,sans-Serif" font-size="10.00">interfacesse::sum</text>
</a>
</g>
</g>
<!-- Node34&#45;&gt;Node38 -->
<g id="edge4" class="edge"><title>Node34&#45;&gt;Node38</title>
<path fill="none" stroke="midnightblue" d="M73.1735,-57.4913C90.7378,-49.0792 117.634,-36.9408 142,-29 150.665,-26.1761 159.966,-23.6199 169.108,-21.3638"/>
<polygon fill="midnightblue" stroke="midnightblue" points="170.007,-24.748 178.929,-19.0352 168.392,-17.9368 170.007,-24.748"/>
</g>
</g>
</svg>
