<?xml version="1.0" encoding="UTF-8" standalone="no"?>
<!DOCTYPE svg PUBLIC "-//W3C//DTD SVG 1.1//EN"
 "http://www.w3.org/Graphics/SVG/1.1/DTD/svg11.dtd">
<!-- Generated by graphviz version 2.38.0 (20140413.2041)
 -->
<!-- Title: sm::getConfusionMatrix Pages: 1 -->
<!--zoomable 271 -->
<svg id="main" version="1.1" xmlns="http://www.w3.org/2000/svg" xmlns:xlink="http://www.w3.org/1999/xlink" xml:space="preserve" onload="init(evt)">
<style type="text/css"><![CDATA[
.edge:hover path { stroke: red; }
.edge:hover polygon { stroke: red; fill: red; }
]]></style>
<script type="text/javascript"><![CDATA[
var edges = document.getElementsByTagName('g');
if (edges && edges.length) {
  for (var i=0;i<edges.length;i++) {
    if (edges[i].id.substr(0,4)=='edge') {
      edges[i].setAttribute('class','edge');
    }
  }
}
]]></script>
        <defs>
                <circle id="rim" cx="0" cy="0" r="7"/>
                <circle id="rim2" cx="0" cy="0" r="3.5"/>
                <g id="zoomPlus">
                        <use xlink:href="#rim" fill="#404040">
                                <set attributeName="fill" to="#808080" begin="zoomplus.mouseover" end="zoomplus.mouseout"/>
                        </use>
                        <path d="M-4,0h8M0,-4v8" fill="none" stroke="white" stroke-width="1.5" pointer-events="none"/>
                </g>
                <g id="zoomMin">
                        <use xlink:href="#rim" fill="#404040">
                                <set attributeName="fill" to="#808080" begin="zoomminus.mouseover" end="zoomminus.mouseout"/>
                        </use>
                        <path d="M-4,0h8" fill="none" stroke="white" stroke-width="1.5" pointer-events="none"/>
                </g>
                <g id="dirArrow">
                        <path fill="none" stroke="white" stroke-width="1.5" d="M0,-3.0v7 M-2.5,-0.5L0,-3.0L2.5,-0.5"/>
                </g>
               <g id="resetDef">
                       <use xlink:href="#rim2" fill="#404040">
                               <set attributeName="fill" to="#808080" begin="reset.mouseover" end="reset.mouseout"/>
                       </use>
               </g>
        </defs>

<script type="text/javascript">
var viewWidth = 664;
var viewHeight = 271;
var sectionId = 'dynsection-1';
</script>
<script xlink:href="svgpan.js"/>
<svg id="graph" class="graph">
<g id="viewport">
<title>sm::getConfusionMatrix</title>
<polygon fill="white" stroke="none" points="-4,4 -4,-266.5 660,-266.5 660,4 -4,4"/>
<!-- Node7 -->
<g id="node1" class="node"><title>Node7</title>
<polygon fill="#bfbfbf" stroke="black" points="0,-140.5 0,-159.5 122,-159.5 122,-140.5 0,-140.5"/>
<text text-anchor="middle" x="61" y="-147.5" font-family="Helvetica,sans-Serif" font-size="10.00">sm::getConfusionMatrix</text>
</g>
<!-- Node8 -->
<g id="node2" class="node"><title>Node8</title>
<g id="a_node2"><a xlink:href="classpartition_1_1_partition.html#acb8de7c890e05872858fb7a7aa53b657" target="_top" xlink:title="partition::Partition\l::begin">
<polygon fill="white" stroke="black" points="348,-232 348,-262 441,-262 441,-232 348,-232"/>
<text text-anchor="start" x="356" y="-250" font-family="Helvetica,sans-Serif" font-size="10.00">partition::Partition</text>
<text text-anchor="middle" x="394.5" y="-239" font-family="Helvetica,sans-Serif" font-size="10.00">::begin</text>
</a>
</g>
</g>
<!-- Node7&#45;&gt;Node8 -->
<g id="edge1" class="edge"><title>Node7&#45;&gt;Node8</title>
<path fill="none" stroke="midnightblue" d="M74.2141,-159.718C91.6955,-173.09 125.356,-196.879 158,-209 217.081,-230.937 289.137,-240.221 337.866,-244.144"/>
<polygon fill="midnightblue" stroke="midnightblue" points="337.662,-247.638 347.897,-244.902 338.19,-240.658 337.662,-247.638"/>
</g>
<!-- Node9 -->
<g id="node3" class="node"><title>Node9</title>
<g id="a_node3"><a xlink:href="namespacesm.html#a226e6de3b0fb7d8d42ddd0a6e346e21e" target="_top" xlink:title="sm::getMatchingMatrix">
<polygon fill="white" stroke="black" points="158,-159.5 158,-178.5 276,-178.5 276,-159.5 158,-159.5"/>
<text text-anchor="middle" x="217" y="-166.5" font-family="Helvetica,sans-Serif" font-size="10.00">sm::getMatchingMatrix</text>
</a>
</g>
</g>
<!-- Node7&#45;&gt;Node9 -->
<g id="edge2" class="edge"><title>Node7&#45;&gt;Node9</title>
<path fill="none" stroke="midnightblue" d="M122.423,-157.455C130.69,-158.475 139.225,-159.528 147.621,-160.564"/>
<polygon fill="midnightblue" stroke="midnightblue" points="147.414,-164.065 157.767,-161.815 148.271,-157.117 147.414,-164.065"/>
</g>
<!-- Node10 -->
<g id="node4" class="node"><title>Node10</title>
<g id="a_node4"><a xlink:href="classpartition_1_1_partition.html#a4a440dcaeb42e05a52a46405eb30d36e" target="_top" xlink:title="partition::Partition\l::getNumCluster">
<polygon fill="white" stroke="black" points="348,-183 348,-213 441,-213 441,-183 348,-183"/>
<text text-anchor="start" x="356" y="-201" font-family="Helvetica,sans-Serif" font-size="10.00">partition::Partition</text>
<text text-anchor="middle" x="394.5" y="-190" font-family="Helvetica,sans-Serif" font-size="10.00">::getNumCluster</text>
</a>
</g>
</g>
<!-- Node7&#45;&gt;Node10 -->
<g id="edge10" class="edge"><title>Node7&#45;&gt;Node10</title>
<path fill="none" stroke="midnightblue" d="M80.5407,-159.505C99.4612,-168.679 129.948,-182.031 158,-188 218.41,-200.855 289.443,-202.028 337.578,-200.826"/>
<polygon fill="midnightblue" stroke="midnightblue" points="337.897,-204.318 347.79,-200.527 337.692,-197.321 337.897,-204.318"/>
</g>
<!-- Node11 -->
<g id="node5" class="node"><title>Node11</title>
<g id="a_node5"><a xlink:href="classmat_1_1_matrix_row.html#a1070fba1c0ec0fbaa309f141817be412" target="_top" xlink:title="mat::MatrixRow\&lt; T_INSTANCES\l_CLUSTER_K \&gt;::initialize">
<polygon fill="white" stroke="black" points="312,-134 312,-164 477,-164 477,-134 312,-134"/>
<text text-anchor="start" x="320" y="-152" font-family="Helvetica,sans-Serif" font-size="10.00">mat::MatrixRow&lt; T_INSTANCES</text>
<text text-anchor="middle" x="394.5" y="-141" font-family="Helvetica,sans-Serif" font-size="10.00">_CLUSTER_K &gt;::initialize</text>
</a>
</g>
</g>
<!-- Node7&#45;&gt;Node11 -->
<g id="edge11" class="edge"><title>Node7&#45;&gt;Node11</title>
<path fill="none" stroke="midnightblue" d="M122.032,-149.819C172.108,-149.668 244.278,-149.45 301.619,-149.277"/>
<polygon fill="midnightblue" stroke="midnightblue" points="301.79,-152.777 311.78,-149.247 301.769,-145.777 301.79,-152.777"/>
</g>
<!-- Node12 -->
<g id="node6" class="node"><title>Node12</title>
<g id="a_node6"><a xlink:href="classpartition_1_1_partition.html#a96660ce61740ab0287189b21833eccdf" target="_top" xlink:title="partition::Partition\l::next">
<polygon fill="white" stroke="black" points="348,-85 348,-115 441,-115 441,-85 348,-85"/>
<text text-anchor="start" x="356" y="-103" font-family="Helvetica,sans-Serif" font-size="10.00">partition::Partition</text>
<text text-anchor="middle" x="394.5" y="-92" font-family="Helvetica,sans-Serif" font-size="10.00">::next</text>
</a>
</g>
</g>
<!-- Node7&#45;&gt;Node12 -->
<g id="edge12" class="edge"><title>Node7&#45;&gt;Node12</title>
<path fill="none" stroke="midnightblue" d="M122.032,-140.945C183.411,-131.688 277.986,-117.423 337.759,-108.407"/>
<polygon fill="midnightblue" stroke="midnightblue" points="338.405,-111.85 347.771,-106.897 337.36,-104.928 338.405,-111.85"/>
</g>
<!-- Node13 -->
<g id="node7" class="node"><title>Node13</title>
<g id="a_node7"><a xlink:href="classsm_1_1_partition_matrix.html#a287f8807a0b9c0066b2f799f2814c721" target="_top" xlink:title="sm::PartitionMatrix\l::sumPartitionTable">
<polygon fill="white" stroke="black" points="342.5,-36 342.5,-66 446.5,-66 446.5,-36 342.5,-36"/>
<text text-anchor="start" x="350.5" y="-54" font-family="Helvetica,sans-Serif" font-size="10.00">sm::PartitionMatrix</text>
<text text-anchor="middle" x="394.5" y="-43" font-family="Helvetica,sans-Serif" font-size="10.00">::sumPartitionTable</text>
</a>
</g>
</g>
<!-- Node7&#45;&gt;Node13 -->
<g id="edge13" class="edge"><title>Node7&#45;&gt;Node13</title>
<path fill="none" stroke="midnightblue" d="M87.5036,-140.41C106.754,-133.308 133.882,-123.589 158,-116 216.735,-97.5189 284.588,-79.0954 332.329,-66.6075"/>
<polygon fill="midnightblue" stroke="midnightblue" points="333.407,-69.9437 342.201,-64.0349 331.642,-63.1699 333.407,-69.9437"/>
</g>
<!-- Node9&#45;&gt;Node8 -->
<g id="edge5" class="edge"><title>Node9&#45;&gt;Node8</title>
<path fill="none" stroke="midnightblue" d="M232.789,-178.671C250.885,-190.186 282.734,-209.436 312,-222 320.201,-225.521 329.061,-228.77 337.814,-231.681"/>
<polygon fill="midnightblue" stroke="midnightblue" points="337.02,-235.101 347.611,-234.819 339.155,-228.435 337.02,-235.101"/>
</g>
<!-- Node9&#45;&gt;Node10 -->
<g id="edge3" class="edge"><title>Node9&#45;&gt;Node10</title>
<path fill="none" stroke="midnightblue" d="M275.952,-178.576C295.847,-181.864 318.061,-185.534 337.775,-188.792"/>
<polygon fill="midnightblue" stroke="midnightblue" points="337.395,-192.276 347.831,-190.454 338.536,-185.37 337.395,-192.276"/>
</g>
<!-- Node9&#45;&gt;Node11 -->
<g id="edge4" class="edge"><title>Node9&#45;&gt;Node11</title>
<path fill="none" stroke="midnightblue" d="M276.439,-162.34C284.609,-161.409 293.162,-160.434 301.767,-159.454"/>
<polygon fill="midnightblue" stroke="midnightblue" points="302.332,-162.912 311.871,-158.302 301.539,-155.957 302.332,-162.912"/>
</g>
<!-- Node9&#45;&gt;Node12 -->
<g id="edge6" class="edge"><title>Node9&#45;&gt;Node12</title>
<path fill="none" stroke="midnightblue" d="M235.991,-159.32C254.636,-149.545 284.804,-134.437 312,-124 320.304,-120.813 329.219,-117.796 337.995,-115.045"/>
<polygon fill="midnightblue" stroke="midnightblue" points="339.259,-118.319 347.805,-112.058 337.219,-111.623 339.259,-118.319"/>
</g>
<!-- Node9&#45;&gt;Node13 -->
<g id="edge7" class="edge"><title>Node9&#45;&gt;Node13</title>
<path fill="none" stroke="midnightblue" d="M224.877,-159.446C239.019,-140.491 273.305,-97.9796 312,-75 318.365,-71.2201 325.367,-67.9999 332.511,-65.2652"/>
<polygon fill="midnightblue" stroke="midnightblue" points="334.019,-68.4452 342.294,-61.8299 331.7,-61.8405 334.019,-68.4452"/>
</g>
<!-- Node14 -->
<g id="node8" class="node"><title>Node14</title>
<g id="a_node8"><a xlink:href="classmat_1_1_matrix_base.html#ac500eedd5e203327d3292f8ab22d8f3e" target="_top" xlink:title="mat::MatrixBase\&lt; T\l_INSTANCES_CLUSTER_K\l \&gt;::getNumRows">
<polygon fill="white" stroke="black" points="513,-60.5 513,-101.5 656,-101.5 656,-60.5 513,-60.5"/>
<text text-anchor="start" x="521" y="-89.5" font-family="Helvetica,sans-Serif" font-size="10.00">mat::MatrixBase&lt; T</text>
<text text-anchor="start" x="521" y="-78.5" font-family="Helvetica,sans-Serif" font-size="10.00">_INSTANCES_CLUSTER_K</text>
<text text-anchor="middle" x="584.5" y="-67.5" font-family="Helvetica,sans-Serif" font-size="10.00"> &gt;::getNumRows</text>
</a>
</g>
</g>
<!-- Node13&#45;&gt;Node14 -->
<g id="edge8" class="edge"><title>Node13&#45;&gt;Node14</title>
<path fill="none" stroke="midnightblue" d="M446.872,-59.1976C464.105,-61.9476 483.763,-65.0845 502.693,-68.1052"/>
<polygon fill="midnightblue" stroke="midnightblue" points="502.384,-71.6001 512.81,-69.7197 503.487,-64.6876 502.384,-71.6001"/>
</g>
<!-- Node15 -->
<g id="node9" class="node"><title>Node15</title>
<g id="a_node9"><a xlink:href="classmat_1_1_matrix_base.html#a70200414022ce1479b9ddc16102b12ae" target="_top" xlink:title="mat::MatrixBase\&lt; T\l_INSTANCES_CLUSTER_K\l \&gt;::getNumColumns">
<polygon fill="white" stroke="black" points="513,-0.5 513,-41.5 656,-41.5 656,-0.5 513,-0.5"/>
<text text-anchor="start" x="521" y="-29.5" font-family="Helvetica,sans-Serif" font-size="10.00">mat::MatrixBase&lt; T</text>
<text text-anchor="start" x="521" y="-18.5" font-family="Helvetica,sans-Serif" font-size="10.00">_INSTANCES_CLUSTER_K</text>
<text text-anchor="middle" x="584.5" y="-7.5" font-family="Helvetica,sans-Serif" font-size="10.00"> &gt;::getNumColumns</text>
</a>
</g>
</g>
<!-- Node13&#45;&gt;Node15 -->
<g id="edge9" class="edge"><title>Node13&#45;&gt;Node15</title>
<path fill="none" stroke="midnightblue" d="M446.872,-42.8024C464.105,-40.0524 483.763,-36.9155 502.693,-33.8948"/>
<polygon fill="midnightblue" stroke="midnightblue" points="503.487,-37.3124 512.81,-32.2803 502.384,-30.3999 503.487,-37.3124"/>
</g>
</g>
</svg>
        <g id="navigator" transform="translate(0 0)" fill="#404254">
                <rect fill="#f2f5e9" fill-opacity="0.5" stroke="#606060" stroke-width=".5" x="0" y="0" width="60" height="60"/>
                <use id="zoomplus" xlink:href="#zoomPlus" x="17" y="9" onmousedown="handleZoom(evt,'in')"/>
                <use id="zoomminus" xlink:href="#zoomMin" x="42" y="9" onmousedown="handleZoom(evt,'out')"/>
                <use id="reset" xlink:href="#resetDef" x="30" y="36" onmousedown="handleReset()"/>
                <g id="arrowUp" xlink:href="#dirArrow" transform="translate(30 24)" onmousedown="handlePan(0,-1)">
                  <use xlink:href="#rim" fill="#404040">
                        <set attributeName="fill" to="#808080" begin="arrowUp.mouseover" end="arrowUp.mouseout"/>
                  </use>
                  <path fill="none" stroke="white" stroke-width="1.5" d="M0,-3.0v7 M-2.5,-0.5L0,-3.0L2.5,-0.5"/>
                </g>
                <g id="arrowRight" xlink:href="#dirArrow" transform="rotate(90) translate(36 -43)" onmousedown="handlePan(1,0)">
                  <use xlink:href="#rim" fill="#404040">
                        <set attributeName="fill" to="#808080" begin="arrowRight.mouseover" end="arrowRight.mouseout"/>
                  </use>
                  <path fill="none" stroke="white" stroke-width="1.5" d="M0,-3.0v7 M-2.5,-0.5L0,-3.0L2.5,-0.5"/>
                </g>
                <g id="arrowDown" xlink:href="#dirArrow" transform="rotate(180) translate(-30 -48)" onmousedown="handlePan(0,1)">
                  <use xlink:href="#rim" fill="#404040">
                        <set attributeName="fill" to="#808080" begin="arrowDown.mouseover" end="arrowDown.mouseout"/>
                  </use>
                  <path fill="none" stroke="white" stroke-width="1.5" d="M0,-3.0v7 M-2.5,-0.5L0,-3.0L2.5,-0.5"/>
                </g>
                <g id="arrowLeft" xlink:href="#dirArrow" transform="rotate(270) translate(-36 17)" onmousedown="handlePan(-1,0)">
                  <use xlink:href="#rim" fill="#404040">
                        <set attributeName="fill" to="#808080" begin="arrowLeft.mouseover" end="arrowLeft.mouseout"/>
                  </use>
                  <path fill="none" stroke="white" stroke-width="1.5" d="M0,-3.0v7 M-2.5,-0.5L0,-3.0L2.5,-0.5"/>
                </g>
        </g>
        <svg viewBox="0 0 15 15" width="100%" height="30px" preserveAspectRatio="xMaxYMin meet">
         <g id="arrow_out" transform="scale(0.3 0.3)">
          <a xlink:href="namespacesm_a201c007d3707ab2ea936402fd091cf1e_cgraph_org.svg" target="_base">
           <rect id="button" ry="5" rx="5" y="6" x="6" height="38" width="38"
                fill="#f2f5e9" fill-opacity="0.5" stroke="#606060" stroke-width="1.0"/>
           <path id="arrow"
             d="M 11.500037,31.436501 C 11.940474,20.09759 22.043105,11.32322 32.158766,21.979434 L 37.068811,17.246167 C 37.068811,17.246167 37.088388,32 37.088388,32 L 22.160133,31.978069 C 22.160133,31.978069 26.997745,27.140456 26.997745,27.140456 C 18.528582,18.264221 13.291696,25.230495 11.500037,31.436501 z"
             style="fill:#404040;"/>
          </a>
         </g>
        </svg>
</svg>
