<?xml version="1.0" encoding="UTF-8" standalone="no"?>
<!DOCTYPE svg PUBLIC "-//W3C//DTD SVG 1.1//EN"
 "http://www.w3.org/Graphics/SVG/1.1/DTD/svg11.dtd">
<!-- Generated by graphviz version 2.38.0 (20140413.2041)
 -->
<!-- Title: um::ssb Pages: 1 -->
<svg width="3486pt" height="2654pt"
 viewBox="0.00 0.00 3486.00 2653.57" xmlns="http://www.w3.org/2000/svg" xmlns:xlink="http://www.w3.org/1999/xlink">
<g id="graph0" class="graph" transform="scale(1 1) rotate(0) translate(4 2649.57)">
<title>um::ssb</title>
<polygon fill="white" stroke="none" points="-4,4 -4,-2649.57 3482,-2649.57 3482,4 -4,4"/>
<!-- Node799 -->
<g id="node1" class="node"><title>Node799</title>
<polygon fill="#bfbfbf" stroke="black" points="0,-1480 0,-1499 52,-1499 52,-1480 0,-1480"/>
<text text-anchor="middle" x="26" y="-1487" font-family="Helvetica,sans-Serif" font-size="10.00">um::ssb</text>
</g>
<!-- Node800 -->
<g id="node2" class="node"><title>Node800</title>
<g id="a_node2"><a xlink:href="classmat_1_1_matrix_base.html#a70200414022ce1479b9ddc16102b12ae" target="_top" xlink:title="mat::MatrixBase::getNumColumns">
<polygon fill="white" stroke="black" points="2761,-2326 2761,-2345 2931,-2345 2931,-2326 2761,-2326"/>
<text text-anchor="middle" x="2846" y="-2333" font-family="Helvetica,sans-Serif" font-size="10.00">mat::MatrixBase::getNumColumns</text>
</a>
</g>
</g>
<!-- Node799&#45;&gt;Node800 -->
<g id="edge1" class="edge"><title>Node799&#45;&gt;Node800</title>
<path fill="none" stroke="midnightblue" d="M27.2386,-1499.14C29.5527,-1590.47 48.7685,-2301.67 88,-2386.5 125.273,-2467.09 142.708,-2525.5 231.5,-2525.5 231.5,-2525.5 231.5,-2525.5 1649,-2525.5 1771.69,-2525.5 1801.66,-2510.75 1924,-2501.5 2021.25,-2494.15 2045.47,-2487.5 2143,-2487.5 2143,-2487.5 2143,-2487.5 2477,-2487.5 2588.79,-2487.5 2633.57,-2509.82 2725,-2445.5 2751.69,-2426.72 2737.79,-2404.45 2761,-2381.5 2774.94,-2367.72 2793.85,-2356.88 2810.2,-2349.19"/>
<polygon fill="midnightblue" stroke="midnightblue" points="2811.78,-2352.32 2819.47,-2345.03 2808.91,-2345.93 2811.78,-2352.32"/>
</g>
<!-- Node801 -->
<g id="node3" class="node"><title>Node801</title>
<g id="a_node3"><a xlink:href="classmat_1_1_matrix_base.html#ac500eedd5e203327d3292f8ab22d8f3e" target="_top" xlink:title="mat::MatrixBase::getNumRows">
<polygon fill="white" stroke="black" points="2768,-1946 2768,-1965 2924,-1965 2924,-1946 2768,-1946"/>
<text text-anchor="middle" x="2846" y="-1953" font-family="Helvetica,sans-Serif" font-size="10.00">mat::MatrixBase::getNumRows</text>
</a>
</g>
</g>
<!-- Node799&#45;&gt;Node801 -->
<g id="edge2" class="edge"><title>Node799&#45;&gt;Node801</title>
<path fill="none" stroke="midnightblue" d="M26.8945,-1499.46C26.2235,-1575.92 24.4134,-2070.41 88,-2202.5 118.817,-2266.52 138.313,-2285.42 204,-2312.5 611.514,-2480.5 754.715,-2335.5 1195.5,-2335.5 1195.5,-2335.5 1195.5,-2335.5 1988.5,-2335.5 2182.05,-2335.5 2206.77,-2229.71 2389,-2164.5 2535.46,-2112.09 2589.63,-2143.13 2725,-2066.5 2769.18,-2041.49 2810.22,-1997.22 2830.93,-1972.83"/>
<polygon fill="midnightblue" stroke="midnightblue" points="2833.66,-1975.02 2837.38,-1965.1 2828.28,-1970.54 2833.66,-1975.02"/>
</g>
<!-- Node802 -->
<g id="node4" class="node"><title>Node802</title>
<g id="a_node4"><a xlink:href="classmat_1_1_matrix_row.html#a5391a205367fbaac82a26ddc377a80af" target="_top" xlink:title="mat::MatrixRow::getRow">
<polygon fill="white" stroke="black" points="2782.5,-2250 2782.5,-2269 2909.5,-2269 2909.5,-2250 2782.5,-2250"/>
<text text-anchor="middle" x="2846" y="-2257" font-family="Helvetica,sans-Serif" font-size="10.00">mat::MatrixRow::getRow</text>
</a>
</g>
</g>
<!-- Node799&#45;&gt;Node802 -->
<g id="edge3" class="edge"><title>Node799&#45;&gt;Node802</title>
<path fill="none" stroke="midnightblue" d="M26.8337,-1499.06C25.3022,-1601.19 18.1578,-2487.5 231.5,-2487.5 231.5,-2487.5 231.5,-2487.5 458.5,-2487.5 643.052,-2487.5 687.448,-2449.5 872,-2449.5 872,-2449.5 872,-2449.5 1988.5,-2449.5 2315.62,-2449.5 2696.69,-2315.77 2810.96,-2272.7"/>
<polygon fill="midnightblue" stroke="midnightblue" points="2812.46,-2275.87 2820.57,-2269.05 2809.98,-2269.33 2812.46,-2275.87"/>
</g>
<!-- Node803 -->
<g id="node5" class="node"><title>Node803</title>
<g id="a_node5"><a xlink:href="namespaceum.html#a68fe0b2b154800cd10afb48bb8b33eb1" target="_top" xlink:title="um::ssbreeval">
<polygon fill="white" stroke="black" points="88,-2174 88,-2193 168,-2193 168,-2174 88,-2174"/>
<text text-anchor="middle" x="128" y="-2181" font-family="Helvetica,sans-Serif" font-size="10.00">um::ssbreeval</text>
</a>
</g>
</g>
<!-- Node799&#45;&gt;Node803 -->
<g id="edge4" class="edge"><title>Node799&#45;&gt;Node803</title>
<path fill="none" stroke="midnightblue" d="M28.3756,-1499.05C39.0706,-1573.27 108.918,-2058.01 124.093,-2163.33"/>
<polygon fill="midnightblue" stroke="midnightblue" points="120.673,-2164.13 125.564,-2173.53 127.602,-2163.13 120.673,-2164.13"/>
</g>
<!-- Node803&#45;&gt;Node800 -->
<g id="edge78" class="edge"><title>Node803&#45;&gt;Node800</title>
<path fill="none" stroke="midnightblue" d="M133.987,-2193.23C144.372,-2212.54 170.191,-2255.88 204,-2279.5 299.998,-2346.57 377.963,-2411.5 722.5,-2411.5 722.5,-2411.5 722.5,-2411.5 1197.5,-2411.5 1820.42,-2411.5 1976.09,-2422.39 2599,-2425.5 2655,-2425.78 2674.39,-2449.48 2725,-2425.5 2747.83,-2414.68 2741.56,-2397.64 2761,-2381.5 2776.61,-2368.54 2796.43,-2357.48 2812.89,-2349.45"/>
<polygon fill="midnightblue" stroke="midnightblue" points="2814.59,-2352.52 2822.14,-2345.09 2811.61,-2346.19 2814.59,-2352.52"/>
</g>
<!-- Node803&#45;&gt;Node801 -->
<g id="edge76" class="edge"><title>Node803&#45;&gt;Node801</title>
<path fill="none" stroke="midnightblue" d="M161.408,-2193.09C202.382,-2204.35 275.273,-2221.5 339,-2221.5 339,-2221.5 339,-2221.5 1035,-2221.5 1717.42,-2221.5 1888.55,-2174.47 2563,-2070.5 2635.53,-2059.32 2657.4,-2067.08 2725,-2038.5 2764.51,-2021.79 2804.27,-1990.86 2826.65,-1971.84"/>
<polygon fill="midnightblue" stroke="midnightblue" points="2829.06,-1974.38 2834.34,-1965.19 2824.49,-1969.09 2829.06,-1974.38"/>
</g>
<!-- Node803&#45;&gt;Node802 -->
<g id="edge77" class="edge"><title>Node803&#45;&gt;Node802</title>
<path fill="none" stroke="midnightblue" d="M138.466,-2193.22C166.381,-2220.79 251.884,-2297.5 339,-2297.5 339,-2297.5 339,-2297.5 1988.5,-2297.5 2316.05,-2297.5 2398.12,-2291.46 2725,-2270.5 2740.33,-2269.52 2756.73,-2268.19 2772.34,-2266.81"/>
<polygon fill="midnightblue" stroke="midnightblue" points="2772.82,-2270.28 2782.46,-2265.89 2772.18,-2263.3 2772.82,-2270.28"/>
</g>
<!-- Node804 -->
<g id="node6" class="node"><title>Node804</title>
<g id="a_node6"><a xlink:href="classdata_1_1_instance.html#a90d1eaeb66cc1470bbfdb95434fdb761" target="_top" xlink:title="data::Instance::getNumDimensions">
<polygon fill="white" stroke="black" points="2389,-806 2389,-825 2563,-825 2563,-806 2389,-806"/>
<text text-anchor="middle" x="2476" y="-813" font-family="Helvetica,sans-Serif" font-size="10.00">data::Instance::getNumDimensions</text>
</a>
</g>
</g>
<!-- Node803&#45;&gt;Node804 -->
<g id="edge5" class="edge"><title>Node803&#45;&gt;Node804</title>
<path fill="none" stroke="midnightblue" d="M129.263,-2173.82C132.04,-2080.74 159.61,-1347.5 339,-1347.5 339,-1347.5 339,-1347.5 724.5,-1347.5 849.768,-1347.5 855.277,-1257.32 973,-1214.5 1363.5,-1072.47 1496.95,-1163 1888,-1022.5 1964.89,-994.874 1983.01,-982.801 2051,-937.5 2068.33,-925.952 2068.5,-917.075 2087,-907.5 2116.46,-892.25 2319.3,-848.265 2419.39,-827.121"/>
<polygon fill="midnightblue" stroke="midnightblue" points="2420.26,-830.513 2429.33,-825.025 2418.82,-823.664 2420.26,-830.513"/>
</g>
<!-- Node805 -->
<g id="node7" class="node"><title>Node805</title>
<g id="a_node7"><a xlink:href="namespaceinterfacesse.html#a25f6950d589b92fd5bcf2007fb3fae19" target="_top" xlink:title="interfacesse::sum">
<polygon fill="white" stroke="black" points="2967,-2174 2967,-2193 3063,-2193 3063,-2174 2967,-2174"/>
<text text-anchor="middle" x="3015" y="-2181" font-family="Helvetica,sans-Serif" font-size="10.00">interfacesse::sum</text>
</a>
</g>
</g>
<!-- Node803&#45;&gt;Node805 -->
<g id="edge6" class="edge"><title>Node803&#45;&gt;Node805</title>
<path fill="none" stroke="midnightblue" d="M132.78,-2193.25C142.059,-2216.21 167.864,-2274.65 204,-2312.5 276.015,-2387.93 317.415,-2382.9 419,-2406.5 1031.93,-2548.87 1186.25,-2639.5 1815.5,-2639.5 1815.5,-2639.5 1815.5,-2639.5 2663,-2639.5 2789.98,-2639.5 2847.02,-2635.74 2931,-2540.5 2976.45,-2488.95 3004.29,-2270.23 3011.88,-2203.14"/>
<polygon fill="midnightblue" stroke="midnightblue" points="3015.38,-2203.41 3013,-2193.09 3008.42,-2202.64 3015.38,-2203.41"/>
</g>
<!-- Node809 -->
<g id="node11" class="node"><title>Node809</title>
<g id="a_node11"><a xlink:href="namespacestats.html#a706b4964413c76c4c7d34ab17985e9e4" target="_top" xlink:title="Add the instances by attributes. ">
<polygon fill="white" stroke="black" points="1143,-1414 1143,-1433 1250,-1433 1250,-1414 1143,-1414"/>
<text text-anchor="middle" x="1196.5" y="-1421" font-family="Helvetica,sans-Serif" font-size="10.00">stats::sumFeactures</text>
</a>
</g>
</g>
<!-- Node803&#45;&gt;Node809 -->
<g id="edge10" class="edge"><title>Node803&#45;&gt;Node809</title>
<path fill="none" stroke="midnightblue" d="M168.078,-2179.24C317.69,-2160.65 857.55,-2072.31 1095,-1745.5 1166.36,-1647.29 1188.05,-1497.01 1193.72,-1443.37"/>
<polygon fill="midnightblue" stroke="midnightblue" points="1197.23,-1443.48 1194.72,-1433.18 1190.26,-1442.79 1197.23,-1443.48"/>
</g>
<!-- Node838 -->
<g id="node31" class="node"><title>Node838</title>
<g id="a_node31"><a xlink:href="namespacestats.html#a61ea16e97e098fc1598f4a2975cb0a24" target="_top" xlink:title="￼Calculate average of a vector ">
<polygon fill="white" stroke="black" points="985,-1224 985,-1243 1083,-1243 1083,-1224 985,-1224"/>
<text text-anchor="middle" x="1034" y="-1231" font-family="Helvetica,sans-Serif" font-size="10.00">stats::meanVector</text>
</a>
</g>
</g>
<!-- Node803&#45;&gt;Node838 -->
<g id="edge71" class="edge"><title>Node803&#45;&gt;Node838</title>
<path fill="none" stroke="midnightblue" d="M148.931,-2173.88C262.607,-2118.6 827.791,-1838.62 937,-1683.5 987.52,-1611.74 1022.04,-1331.67 1030.81,-1253.73"/>
<polygon fill="midnightblue" stroke="midnightblue" points="1034.33,-1253.7 1031.95,-1243.38 1027.37,-1252.93 1034.33,-1253.7"/>
</g>
<!-- Node839 -->
<g id="node32" class="node"><title>Node839</title>
<g id="a_node32"><a xlink:href="namespaceum.html#a02c5655fb5595af79e18a1462114be29" target="_top" xlink:title="um::VRC">
<polygon fill="white" stroke="black" points="204,-1984 204,-2003 261,-2003 261,-1984 204,-1984"/>
<text text-anchor="middle" x="232.5" y="-1991" font-family="Helvetica,sans-Serif" font-size="10.00">um::VRC</text>
</a>
</g>
</g>
<!-- Node803&#45;&gt;Node839 -->
<g id="edge79" class="edge"><title>Node803&#45;&gt;Node839</title>
<path fill="none" stroke="midnightblue" d="M134.224,-2173.82C150.396,-2143.84 199.837,-2052.19 221.337,-2012.34"/>
<polygon fill="midnightblue" stroke="midnightblue" points="224.496,-2013.85 226.164,-2003.39 218.335,-2010.53 224.496,-2013.85"/>
</g>
<!-- Node806 -->
<g id="node8" class="node"><title>Node806</title>
<g id="a_node8"><a xlink:href="namespaceinterfacesse.html#a9dd5fb43ad8a83ee5cb2f5ba1bb2085b" target="_top" xlink:title="interfacesse::axpy">
<polygon fill="white" stroke="black" points="3099,-2421 3099,-2440 3198,-2440 3198,-2421 3099,-2421"/>
<text text-anchor="middle" x="3148.5" y="-2428" font-family="Helvetica,sans-Serif" font-size="10.00">interfacesse::axpy</text>
</a>
</g>
</g>
<!-- Node805&#45;&gt;Node806 -->
<g id="edge7" class="edge"><title>Node805&#45;&gt;Node806</title>
<path fill="none" stroke="midnightblue" d="M3021.15,-2193.18C3040.84,-2230.15 3111.44,-2362.77 3137.63,-2411.96"/>
<polygon fill="midnightblue" stroke="midnightblue" points="3134.59,-2413.7 3142.38,-2420.88 3140.77,-2410.41 3134.59,-2413.7"/>
</g>
<!-- Node807 -->
<g id="node9" class="node"><title>Node807</title>
<g id="a_node9"><a xlink:href="namespaceinterfacesse.html#ae3f94c42a59db65b2941dbfc9f449ea1" target="_top" xlink:title="function xAXPY of blas for doubles vectors ">
<polygon fill="white" stroke="black" points="3234,-1404 3234,-1423 3346,-1423 3346,-1404 3234,-1404"/>
<text text-anchor="middle" x="3290" y="-1411" font-family="Helvetica,sans-Serif" font-size="10.00">interfacesse::axpyInv</text>
</a>
</g>
</g>
<!-- Node806&#45;&gt;Node807 -->
<g id="edge8" class="edge"><title>Node806&#45;&gt;Node807</title>
<path fill="none" stroke="midnightblue" d="M3150.84,-2420.76C3163.85,-2325.85 3268.03,-1566.39 3286.28,-1433.35"/>
<polygon fill="midnightblue" stroke="midnightblue" points="3289.8,-1433.44 3287.69,-1423.06 3282.86,-1432.49 3289.8,-1433.44"/>
</g>
<!-- Node808 -->
<g id="node10" class="node"><title>Node808</title>
<g id="a_node10"><a xlink:href="namespaceinterfacesse.html#a144ebf70bf38495c3de1aca2c8365e08" target="_top" xlink:title="scal items of the array of type T ">
<polygon fill="white" stroke="black" points="3382,-1404 3382,-1423 3478,-1423 3478,-1404 3382,-1404"/>
<text text-anchor="middle" x="3430" y="-1411" font-family="Helvetica,sans-Serif" font-size="10.00">interfacesse::scal</text>
</a>
</g>
</g>
<!-- Node807&#45;&gt;Node808 -->
<g id="edge9" class="edge"><title>Node807&#45;&gt;Node808</title>
<path fill="none" stroke="midnightblue" d="M3346.33,-1413.5C3354.65,-1413.5 3363.24,-1413.5 3371.6,-1413.5"/>
<polygon fill="midnightblue" stroke="midnightblue" points="3371.65,-1417 3381.65,-1413.5 3371.65,-1410 3371.65,-1417"/>
</g>
<!-- Node809&#45;&gt;Node804 -->
<g id="edge19" class="edge"><title>Node809&#45;&gt;Node804</title>
<path fill="none" stroke="midnightblue" d="M1202.82,-1413.85C1216.07,-1390.58 1252.76,-1330.75 1298,-1295.5 1360.93,-1246.46 1386.35,-1247.85 1462,-1222.5 1544.1,-1194.98 1826.83,-1149.97 1888,-1136.5 1960.95,-1120.43 1998.13,-1148.27 2051,-1095.5 2097.08,-1049.5 2042.47,-1001 2087,-953.5 2108.25,-930.84 2323.91,-878.378 2353,-867.5 2384.79,-855.612 2420.43,-840.17 2444.94,-829.211"/>
<polygon fill="midnightblue" stroke="midnightblue" points="2446.39,-832.396 2454.08,-825.102 2443.52,-826.011 2446.39,-832.396"/>
</g>
<!-- Node809&#45;&gt;Node806 -->
<g id="edge11" class="edge"><title>Node809&#45;&gt;Node806</title>
<path fill="none" stroke="midnightblue" d="M1200.43,-1433.15C1211.41,-1468.86 1251.8,-1596.56 1298,-1696.5 1503.19,-2140.42 1643.36,-2257.7 2087,-2463.5 2432.27,-2623.67 2560.23,-2694.48 2931,-2608.5 2993.78,-2593.94 3013.22,-2589.42 3063,-2548.5 3097.54,-2520.11 3124.8,-2474.38 3138.27,-2448.99"/>
<polygon fill="midnightblue" stroke="midnightblue" points="3141.41,-2450.54 3142.89,-2440.05 3135.19,-2447.32 3141.41,-2450.54"/>
</g>
<!-- Node810 -->
<g id="node12" class="node"><title>Node810</title>
<g id="a_node12"><a xlink:href="namespaceinout.html#a0c10a45877a347dec0d4ec4e5b05b828" target="_top" xlink:title="inout::containerprint">
<polygon fill="white" stroke="black" points="2424.5,-1452 2424.5,-1471 2527.5,-1471 2527.5,-1452 2424.5,-1452"/>
<text text-anchor="middle" x="2476" y="-1459" font-family="Helvetica,sans-Serif" font-size="10.00">inout::containerprint</text>
</a>
</g>
</g>
<!-- Node809&#45;&gt;Node810 -->
<g id="edge12" class="edge"><title>Node809&#45;&gt;Node810</title>
<path fill="none" stroke="midnightblue" d="M1198.18,-1433.19C1201.38,-1470.44 1218.27,-1605.37 1298,-1665.5 1372.12,-1721.4 1412.66,-1689.5 1505.5,-1689.5 1505.5,-1689.5 1505.5,-1689.5 1649,-1689.5 1806.26,-1689.5 2215.33,-1693.52 2353,-1617.5 2410.55,-1585.72 2450.2,-1514.38 2466.57,-1480.31"/>
<polygon fill="midnightblue" stroke="midnightblue" points="2469.85,-1481.56 2470.9,-1471.02 2463.51,-1478.6 2469.85,-1481.56"/>
</g>
<!-- Node811 -->
<g id="node13" class="node"><title>Node811</title>
<g id="a_node13"><a xlink:href="namespaceinterfacesse.html#aa4b94bf2bf8cb7c437fa3feba8b70ff8" target="_top" xlink:title="Initializes the array with a constant . ">
<polygon fill="white" stroke="black" points="1935,-1490 1935,-1509 2040,-1509 2040,-1490 1935,-1490"/>
<text text-anchor="middle" x="1987.5" y="-1497" font-family="Helvetica,sans-Serif" font-size="10.00">interfacesse::copya</text>
</a>
</g>
</g>
<!-- Node809&#45;&gt;Node811 -->
<g id="edge13" class="edge"><title>Node809&#45;&gt;Node811</title>
<path fill="none" stroke="midnightblue" d="M1250.19,-1428.57C1390.84,-1442.12 1774.68,-1479.1 1924.98,-1493.57"/>
<polygon fill="midnightblue" stroke="midnightblue" points="1924.68,-1497.06 1934.97,-1494.54 1925.35,-1490.09 1924.68,-1497.06"/>
</g>
<!-- Node815 -->
<g id="node17" class="node"><title>Node815</title>
<g id="a_node17"><a xlink:href="classdata_1_1_instance.html#aa6ee19c383a86228b3d134e42bdb6830" target="_top" xlink:title="data::Instance::getFeatures">
<polygon fill="white" stroke="black" points="2776,-1053 2776,-1072 2916,-1072 2916,-1053 2776,-1053"/>
<text text-anchor="middle" x="2846" y="-1060" font-family="Helvetica,sans-Serif" font-size="10.00">data::Instance::getFeatures</text>
</a>
</g>
</g>
<!-- Node809&#45;&gt;Node815 -->
<g id="edge18" class="edge"><title>Node809&#45;&gt;Node815</title>
<path fill="none" stroke="midnightblue" d="M1200.05,-1413.8C1216.18,-1354.79 1309.84,-1046.5 1505.5,-1046.5 1505.5,-1046.5 1505.5,-1046.5 1649,-1046.5 1857.65,-1046.5 1888.62,-942.173 2087,-877.5 2219.12,-834.427 2251.22,-814.656 2389,-796.5 2465.67,-786.397 2491.13,-767.952 2563,-796.5 2694.02,-848.541 2799.43,-993.501 2833.42,-1044.48"/>
<polygon fill="midnightblue" stroke="midnightblue" points="2830.51,-1046.43 2838.93,-1052.87 2836.36,-1042.59 2830.51,-1046.43"/>
</g>
<!-- Node816 -->
<g id="node18" class="node"><title>Node816</title>
<g id="a_node18"><a xlink:href="namespacestats.html#a613d1db29f5e2b636315f547fb1ba89a" target="_top" xlink:title="Add the instances with frequency by attributes. ">
<polygon fill="white" stroke="black" points="1298,-1528 1298,-1547 1426,-1547 1426,-1528 1298,-1528"/>
<text text-anchor="middle" x="1362" y="-1535" font-family="Helvetica,sans-Serif" font-size="10.00">stats::sumFeacturesFreq</text>
</a>
</g>
</g>
<!-- Node809&#45;&gt;Node816 -->
<g id="edge20" class="edge"><title>Node809&#45;&gt;Node816</title>
<path fill="none" stroke="midnightblue" d="M1211.16,-1433.02C1239.34,-1452.67 1304.17,-1497.87 1338.58,-1521.87"/>
<polygon fill="midnightblue" stroke="midnightblue" points="1336.83,-1524.91 1347.03,-1527.76 1340.83,-1519.17 1336.83,-1524.91"/>
</g>
<!-- Node812 -->
<g id="node14" class="node"><title>Node812</title>
<g id="a_node14"><a xlink:href="namespaceinterfacesse.html#a925f44ed84d40e9af5050fa0e1373396" target="_top" xlink:title="copy array aoarrayt_x in aoarrayt_y of type T ">
<polygon fill="white" stroke="black" points="2426.5,-1376 2426.5,-1395 2525.5,-1395 2525.5,-1376 2426.5,-1376"/>
<text text-anchor="middle" x="2476" y="-1383" font-family="Helvetica,sans-Serif" font-size="10.00">interfacesse::copy</text>
</a>
</g>
</g>
<!-- Node811&#45;&gt;Node812 -->
<g id="edge14" class="edge"><title>Node811&#45;&gt;Node812</title>
<path fill="none" stroke="midnightblue" d="M2029.14,-1489.98C2117.59,-1469.25 2327.34,-1420.1 2424.27,-1397.39"/>
<polygon fill="midnightblue" stroke="midnightblue" points="2425.19,-1400.77 2434.13,-1395.08 2423.6,-1393.95 2425.19,-1400.77"/>
</g>
<!-- Node813 -->
<g id="node15" class="node"><title>Node813</title>
<g id="a_node15"><a xlink:href="namespaceinterfacesse.html#afaa45a2a27710ea2dfa979289cf4961d" target="_top" xlink:title="swap items of aoarrayt_y to aiarrayt_x ">
<polygon fill="white" stroke="black" points="2611.5,-1509 2611.5,-1528 2712.5,-1528 2712.5,-1509 2611.5,-1509"/>
<text text-anchor="middle" x="2662" y="-1516" font-family="Helvetica,sans-Serif" font-size="10.00">interfacesse::swap</text>
</a>
</g>
</g>
<!-- Node812&#45;&gt;Node813 -->
<g id="edge15" class="edge"><title>Node812&#45;&gt;Node813</title>
<path fill="none" stroke="midnightblue" d="M2492.14,-1395.05C2509.5,-1406.12 2538.7,-1425.06 2563,-1442.5 2590.73,-1462.4 2621.7,-1486.8 2641.26,-1502.49"/>
<polygon fill="midnightblue" stroke="midnightblue" points="2639.17,-1505.3 2649.15,-1508.85 2643.56,-1499.85 2639.17,-1505.3"/>
</g>
<!-- Node814 -->
<g id="node16" class="node"><title>Node814</title>
<g id="a_node16"><a xlink:href="namespaceinterfacesse.html#a2f42addf86fc8b9cd0c6620217b8a2db" target="_top" xlink:title="swap items of aoarrayt_y to aiarrayt_x ">
<polygon fill="white" stroke="black" points="2800,-1642 2800,-1661 2892,-1661 2892,-1642 2800,-1642"/>
<text text-anchor="middle" x="2846" y="-1649" font-family="Helvetica,sans-Serif" font-size="10.00">interfacesse::dot</text>
</a>
</g>
</g>
<!-- Node813&#45;&gt;Node814 -->
<g id="edge16" class="edge"><title>Node813&#45;&gt;Node814</title>
<path fill="none" stroke="midnightblue" d="M2676.09,-1528.07C2707.03,-1550.67 2784.93,-1607.6 2823.15,-1635.54"/>
<polygon fill="midnightblue" stroke="midnightblue" points="2821.4,-1638.59 2831.54,-1641.66 2825.53,-1632.94 2821.4,-1638.59"/>
</g>
<!-- Node814&#45;&gt;Node805 -->
<g id="edge17" class="edge"><title>Node814&#45;&gt;Node805</title>
<path fill="none" stroke="midnightblue" d="M2850.04,-1661.19C2869.84,-1724.26 2980.45,-2076.61 3007.85,-2163.92"/>
<polygon fill="midnightblue" stroke="midnightblue" points="3004.57,-2165.14 3010.9,-2173.63 3011.25,-2163.04 3004.57,-2165.14"/>
</g>
<!-- Node816&#45;&gt;Node804 -->
<g id="edge25" class="edge"><title>Node816&#45;&gt;Node804</title>
<path fill="none" stroke="midnightblue" d="M1374.2,-1527.95C1406.2,-1500.9 1501.2,-1422.13 1587,-1366.5 1654.08,-1323 1672.6,-1314.41 1745,-1280.5 1822.5,-1244.2 1843.15,-1237.57 1924,-1209.5 1979.66,-1190.18 2004.86,-1208.14 2051,-1171.5 2076.25,-1151.44 2066.38,-1133.3 2087,-1108.5 2142.85,-1041.34 2160.75,-1024.11 2237,-981.5 2284.36,-955.036 2307.12,-972.454 2353,-943.5 2400.58,-913.47 2442.57,-860.83 2462.58,-833.348"/>
<polygon fill="midnightblue" stroke="midnightblue" points="2465.53,-835.232 2468.5,-825.061 2459.84,-831.163 2465.53,-835.232"/>
</g>
<!-- Node816&#45;&gt;Node806 -->
<g id="edge21" class="edge"><title>Node816&#45;&gt;Node806</title>
<path fill="none" stroke="midnightblue" d="M1363.58,-1547.05C1366.67,-1591.95 1384.13,-1785.34 1462,-1917.5 1602.6,-2156.13 1984.79,-2315.64 2237,-2425.5 2526.48,-2551.6 2629.18,-2670.28 2931,-2577.5 3015.43,-2551.55 3096.48,-2480.23 3130.6,-2447.42"/>
<polygon fill="midnightblue" stroke="midnightblue" points="3133.17,-2449.81 3137.87,-2440.32 3128.27,-2444.8 3133.17,-2449.81"/>
</g>
<!-- Node816&#45;&gt;Node810 -->
<g id="edge22" class="edge"><title>Node816&#45;&gt;Node810</title>
<path fill="none" stroke="midnightblue" d="M1409.3,-1547.05C1512.46,-1567.46 1769.22,-1613.5 1986.5,-1613.5 1986.5,-1613.5 1986.5,-1613.5 2145,-1613.5 2238.06,-1613.5 2269.7,-1630.99 2353,-1589.5 2403.86,-1564.17 2444.95,-1508.56 2463.81,-1479.7"/>
<polygon fill="midnightblue" stroke="midnightblue" points="2466.92,-1481.33 2469.33,-1471.01 2461.01,-1477.57 2466.92,-1481.33"/>
</g>
<!-- Node816&#45;&gt;Node811 -->
<g id="edge23" class="edge"><title>Node816&#45;&gt;Node811</title>
<path fill="none" stroke="midnightblue" d="M1426.17,-1536.56C1524.91,-1534.65 1721.76,-1529.08 1888,-1513.5 1899.96,-1512.38 1912.69,-1510.83 1924.88,-1509.18"/>
<polygon fill="midnightblue" stroke="midnightblue" points="1925.56,-1512.62 1934.98,-1507.77 1924.59,-1505.69 1925.56,-1512.62"/>
</g>
<!-- Node816&#45;&gt;Node815 -->
<g id="edge24" class="edge"><title>Node816&#45;&gt;Node815</title>
<path fill="none" stroke="midnightblue" d="M1367.8,-1527.91C1380.65,-1502.87 1417.85,-1434.21 1462,-1387.5 1694.93,-1141.08 1803.91,-1043.5 2143,-1043.5 2143,-1043.5 2143,-1043.5 2477,-1043.5 2576.59,-1043.5 2691.15,-1050.53 2765.63,-1056.03"/>
<polygon fill="midnightblue" stroke="midnightblue" points="2765.64,-1059.54 2775.87,-1056.8 2766.16,-1052.56 2765.64,-1059.54"/>
</g>
<!-- Node817 -->
<g id="node19" class="node"><title>Node817</title>
<g id="a_node19"><a xlink:href="namespacestats.html#a9997daae39cbd737fb66c52d182e8e6b" target="_top" xlink:title="Obtiene un vector con la media de una matriz por columnas. ">
<polygon fill="white" stroke="black" points="1462,-1889 1462,-1908 1551,-1908 1551,-1889 1462,-1889"/>
<text text-anchor="middle" x="1506.5" y="-1896" font-family="Helvetica,sans-Serif" font-size="10.00">stats::meanRow</text>
</a>
</g>
</g>
<!-- Node816&#45;&gt;Node817 -->
<g id="edge26" class="edge"><title>Node816&#45;&gt;Node817</title>
<path fill="none" stroke="midnightblue" d="M1366.81,-1547.16C1385.97,-1595.7 1471.88,-1813.32 1497.96,-1879.41"/>
<polygon fill="midnightblue" stroke="midnightblue" points="1494.82,-1880.97 1501.74,-1888.98 1501.33,-1878.4 1494.82,-1880.97"/>
</g>
<!-- Node817&#45;&gt;Node800 -->
<g id="edge28" class="edge"><title>Node817&#45;&gt;Node800</title>
<path fill="none" stroke="midnightblue" d="M1518.76,-1908.2C1533.45,-1920.31 1560.4,-1940.73 1587,-1951.5 1682.7,-1990.27 1712.24,-1993.5 1815.5,-1993.5 1815.5,-1993.5 1815.5,-1993.5 1988.5,-1993.5 2197.63,-1993.5 2194.71,-2163.12 2389,-2240.5 2508.96,-2288.28 2656.69,-2313.41 2750.87,-2325.57"/>
<polygon fill="midnightblue" stroke="midnightblue" points="2750.58,-2329.06 2760.94,-2326.84 2751.46,-2322.11 2750.58,-2329.06"/>
</g>
<!-- Node817&#45;&gt;Node801 -->
<g id="edge29" class="edge"><title>Node817&#45;&gt;Node801</title>
<path fill="none" stroke="midnightblue" d="M1551.06,-1902.88C1610.68,-1908.49 1721.08,-1917.5 1815.5,-1917.5 1815.5,-1917.5 1815.5,-1917.5 2477,-1917.5 2582.66,-1917.5 2704.5,-1933.19 2778.08,-1944.41"/>
<polygon fill="midnightblue" stroke="midnightblue" points="2777.72,-1947.89 2788.14,-1945.96 2778.79,-1940.98 2777.72,-1947.89"/>
</g>
<!-- Node817&#45;&gt;Node802 -->
<g id="edge30" class="edge"><title>Node817&#45;&gt;Node802</title>
<path fill="none" stroke="midnightblue" d="M1532.59,-1908C1548.08,-1913.54 1568.46,-1920.25 1587,-1924.5 1686.89,-1947.41 1713.01,-1955.5 1815.5,-1955.5 1815.5,-1955.5 1815.5,-1955.5 1988.5,-1955.5 2158.64,-1955.5 2250.58,-1936.64 2353,-2072.5 2389.09,-2120.37 2344.26,-2162.6 2389,-2202.5 2444.13,-2251.66 2658.06,-2259.53 2772.24,-2260.11"/>
<polygon fill="midnightblue" stroke="midnightblue" points="2772.29,-2263.61 2782.3,-2260.15 2772.31,-2256.61 2772.29,-2263.61"/>
</g>
<!-- Node817&#45;&gt;Node805 -->
<g id="edge31" class="edge"><title>Node817&#45;&gt;Node805</title>
<path fill="none" stroke="midnightblue" d="M1514.03,-1908.14C1526.35,-1925.67 1554.71,-1962.92 1587,-1984.5 1981.62,-2248.21 2133.29,-2233.95 2599,-2325.5 2744.34,-2354.07 2805.46,-2433.11 2931,-2354.5 2984.99,-2320.69 3004.75,-2240.65 3011.2,-2203.31"/>
<polygon fill="midnightblue" stroke="midnightblue" points="3014.7,-2203.62 3012.8,-2193.2 3007.79,-2202.53 3014.7,-2203.62"/>
</g>
<!-- Node817&#45;&gt;Node810 -->
<g id="edge27" class="edge"><title>Node817&#45;&gt;Node810</title>
<path fill="none" stroke="midnightblue" d="M1525.3,-1888.87C1571.66,-1864.72 1700.51,-1803.5 1815.5,-1803.5 1815.5,-1803.5 1815.5,-1803.5 1988.5,-1803.5 2161.72,-1803.5 2220.16,-1776.68 2353,-1665.5 2415.32,-1613.34 2453.96,-1520.7 2468.47,-1480.73"/>
<polygon fill="midnightblue" stroke="midnightblue" points="2471.83,-1481.73 2471.85,-1471.14 2465.22,-1479.41 2471.83,-1481.73"/>
</g>
<!-- Node818 -->
<g id="node20" class="node"><title>Node818</title>
<g id="a_node20"><a xlink:href="namespacestats.html#a6b3be9207e48f3af2c75ad45db17ac70" target="_top" xlink:title="Gets the sum of the difference of the instances with the mean and the result square. ">
<polygon fill="white" stroke="black" points="1587,-1376 1587,-1395 1709,-1395 1709,-1376 1587,-1376"/>
<text text-anchor="middle" x="1648" y="-1383" font-family="Helvetica,sans-Serif" font-size="10.00">stats::sumFeacturesSQ</text>
</a>
</g>
</g>
<!-- Node817&#45;&gt;Node818 -->
<g id="edge32" class="edge"><title>Node817&#45;&gt;Node818</title>
<path fill="none" stroke="midnightblue" d="M1510.16,-1888.71C1526.98,-1826.87 1618.5,-1490.29 1641.67,-1405.1"/>
<polygon fill="midnightblue" stroke="midnightblue" points="1645.06,-1405.96 1644.31,-1395.39 1638.31,-1404.12 1645.06,-1405.96"/>
</g>
<!-- Node818&#45;&gt;Node810 -->
<g id="edge33" class="edge"><title>Node818&#45;&gt;Node810</title>
<path fill="none" stroke="midnightblue" d="M1709.06,-1387.26C1757.49,-1389.1 1827.28,-1392.71 1888,-1399.5 2044.19,-1416.98 2080.47,-1442.4 2237,-1456.5 2297.01,-1461.91 2365.87,-1462.78 2414.03,-1462.52"/>
<polygon fill="midnightblue" stroke="midnightblue" points="2414.31,-1466.02 2424.28,-1462.45 2414.26,-1459.02 2414.31,-1466.02"/>
</g>
<!-- Node818&#45;&gt;Node811 -->
<g id="edge34" class="edge"><title>Node818&#45;&gt;Node811</title>
<path fill="none" stroke="midnightblue" d="M1709.07,-1394.11C1758.89,-1402.86 1830.6,-1419.24 1888,-1447.5 1906.19,-1456.45 1906.35,-1465.54 1924,-1475.5 1931.2,-1479.56 1939.22,-1483.22 1947.05,-1486.38"/>
<polygon fill="midnightblue" stroke="midnightblue" points="1945.85,-1489.67 1956.44,-1489.99 1948.36,-1483.14 1945.85,-1489.67"/>
</g>
<!-- Node818&#45;&gt;Node815 -->
<g id="edge35" class="edge"><title>Node818&#45;&gt;Node815</title>
<path fill="none" stroke="midnightblue" d="M1664.86,-1375.99C1691.05,-1360.3 1740.91,-1330.5 1745,-1328.5 1876.18,-1264.59 1938.01,-1301.84 2051,-1209.5 2073.91,-1190.78 2062.61,-1170.25 2087,-1153.5 2195.82,-1078.79 2594.17,-1065.25 2765.64,-1062.92"/>
<polygon fill="midnightblue" stroke="midnightblue" points="2765.9,-1066.41 2775.86,-1062.79 2765.81,-1059.42 2765.9,-1066.41"/>
</g>
<!-- Node819 -->
<g id="node21" class="node"><title>Node819</title>
<g id="a_node21"><a xlink:href="namespacestats.html#a2f3cfb3a90ba9b5bdfe177054cdbde56" target="_top" xlink:title="Gets the sum of the difference of the instances with the mean and the result square. For instances frequently. ">
<polygon fill="white" stroke="black" points="1745,-1338 1745,-1357 1888,-1357 1888,-1338 1745,-1338"/>
<text text-anchor="middle" x="1816.5" y="-1345" font-family="Helvetica,sans-Serif" font-size="10.00">stats::sumFeacturesFreqSQ</text>
</a>
</g>
</g>
<!-- Node818&#45;&gt;Node819 -->
<g id="edge36" class="edge"><title>Node818&#45;&gt;Node819</title>
<path fill="none" stroke="midnightblue" d="M1691.01,-1375.91C1713.18,-1370.85 1740.57,-1364.6 1764.01,-1359.25"/>
<polygon fill="midnightblue" stroke="midnightblue" points="1764.82,-1362.66 1773.79,-1357.02 1763.26,-1355.83 1764.82,-1362.66"/>
</g>
<!-- Node819&#45;&gt;Node810 -->
<g id="edge37" class="edge"><title>Node819&#45;&gt;Node810</title>
<path fill="none" stroke="midnightblue" d="M1857.48,-1357.07C1931.82,-1374.57 2096.54,-1412.02 2237,-1434.5 2296.99,-1444.1 2366.03,-1451.54 2414.25,-1456.15"/>
<polygon fill="midnightblue" stroke="midnightblue" points="2413.93,-1459.64 2424.21,-1457.1 2414.58,-1452.67 2413.93,-1459.64"/>
</g>
<!-- Node819&#45;&gt;Node811 -->
<g id="edge38" class="edge"><title>Node819&#45;&gt;Node811</title>
<path fill="none" stroke="midnightblue" d="M1828.55,-1357.1C1842.48,-1369.23 1867.12,-1390.79 1888,-1409.5 1916.37,-1434.93 1948.95,-1464.84 1968.62,-1482.97"/>
<polygon fill="midnightblue" stroke="midnightblue" points="1966.48,-1485.77 1976.21,-1489.98 1971.23,-1480.62 1966.48,-1485.77"/>
</g>
<!-- Node819&#45;&gt;Node815 -->
<g id="edge39" class="edge"><title>Node819&#45;&gt;Node815</title>
<path fill="none" stroke="midnightblue" d="M1874.66,-1337.98C1934.78,-1327 2024.3,-1307.6 2051,-1285.5 2079.48,-1261.92 2060.14,-1235.91 2087,-1210.5 2139.41,-1160.93 2167.11,-1166.35 2237,-1148.5 2448.38,-1094.51 2510.69,-1136.33 2725,-1095.5 2752.18,-1090.32 2782.19,-1082.07 2805.4,-1075.11"/>
<polygon fill="midnightblue" stroke="midnightblue" points="2806.68,-1078.38 2815.23,-1072.12 2804.64,-1071.68 2806.68,-1078.38"/>
</g>
<!-- Node820 -->
<g id="node22" class="node"><title>Node820</title>
<g id="a_node22"><a xlink:href="namespacestats.html#a27785e3066801ac0756112211985c941" target="_top" xlink:title="Obtain the standard deviation given the variance. ">
<polygon fill="white" stroke="black" points="1934,-1338 1934,-1357 2041,-1357 2041,-1338 1934,-1338"/>
<text text-anchor="middle" x="1987.5" y="-1345" font-family="Helvetica,sans-Serif" font-size="10.00">stats::varTodesvstd</text>
</a>
</g>
</g>
<!-- Node819&#45;&gt;Node820 -->
<g id="edge40" class="edge"><title>Node819&#45;&gt;Node820</title>
<path fill="none" stroke="midnightblue" d="M1888.19,-1347.5C1900.01,-1347.5 1912.21,-1347.5 1923.81,-1347.5"/>
<polygon fill="midnightblue" stroke="midnightblue" points="1923.83,-1351 1933.83,-1347.5 1923.83,-1344 1923.83,-1351"/>
</g>
<!-- Node820&#45;&gt;Node810 -->
<g id="edge41" class="edge"><title>Node820&#45;&gt;Node810</title>
<path fill="none" stroke="midnightblue" d="M2027.31,-1357.06C2045.43,-1361.5 2067.31,-1366.82 2087,-1371.5 2207.31,-1400.11 2348.88,-1432.67 2423.29,-1449.7"/>
<polygon fill="midnightblue" stroke="midnightblue" points="2422.81,-1453.18 2433.34,-1451.99 2424.37,-1446.35 2422.81,-1453.18"/>
</g>
<!-- Node821 -->
<g id="node23" class="node"><title>Node821</title>
<g id="a_node23"><a xlink:href="namespacestats.html#ad05deabf843908b6a0be813c39a346cd" target="_top" xlink:title="Obtain the minimum attributes of the instances. ">
<polygon fill="white" stroke="black" points="2094.5,-1220 2094.5,-1239 2193.5,-1239 2193.5,-1220 2094.5,-1220"/>
<text text-anchor="middle" x="2144" y="-1227" font-family="Helvetica,sans-Serif" font-size="10.00">stats::minFeatures</text>
</a>
</g>
</g>
<!-- Node820&#45;&gt;Node821 -->
<g id="edge42" class="edge"><title>Node820&#45;&gt;Node821</title>
<path fill="none" stroke="midnightblue" d="M2021.26,-1337.92C2031.25,-1334.23 2041.97,-1329.44 2051,-1323.5 2083.39,-1302.21 2113.28,-1267.83 2129.74,-1247.07"/>
<polygon fill="midnightblue" stroke="midnightblue" points="2132.57,-1249.13 2135.94,-1239.09 2127.04,-1244.84 2132.57,-1249.13"/>
</g>
<!-- Node830 -->
<g id="node29" class="node"><title>Node830</title>
<g id="a_node29"><a xlink:href="namespacestats.html#a09587632e3c4855da191bc7439c593f0" target="_top" xlink:title="Make a transformation to the instances. ">
<polygon fill="white" stroke="black" points="2252.5,-1376 2252.5,-1395 2337.5,-1395 2337.5,-1376 2252.5,-1376"/>
<text text-anchor="middle" x="2295" y="-1383" font-family="Helvetica,sans-Serif" font-size="10.00">stats::transform</text>
</a>
</g>
</g>
<!-- Node820&#45;&gt;Node830 -->
<g id="edge63" class="edge"><title>Node820&#45;&gt;Node830</title>
<path fill="none" stroke="midnightblue" d="M2041.4,-1352.93C2084.43,-1357.47 2146.71,-1364.35 2201,-1371.5 2214.42,-1373.27 2228.89,-1375.36 2242.34,-1377.38"/>
<polygon fill="midnightblue" stroke="midnightblue" points="2241.97,-1380.86 2252.38,-1378.9 2243.02,-1373.94 2241.97,-1380.86"/>
</g>
<!-- Node821&#45;&gt;Node804 -->
<g id="edge46" class="edge"><title>Node821&#45;&gt;Node804</title>
<path fill="none" stroke="midnightblue" d="M2153.55,-1219.76C2182.38,-1186.86 2278.37,-1076.51 2353,-981.5 2394.45,-928.738 2440.66,-864.164 2462.4,-833.422"/>
<polygon fill="midnightblue" stroke="midnightblue" points="2465.42,-835.207 2468.33,-825.018 2459.7,-831.172 2465.42,-835.207"/>
</g>
<!-- Node821&#45;&gt;Node810 -->
<g id="edge43" class="edge"><title>Node821&#45;&gt;Node810</title>
<path fill="none" stroke="midnightblue" d="M2158.21,-1239.18C2175.64,-1251.66 2207.57,-1273.54 2237,-1288.5 2286.3,-1313.55 2312.01,-1296.38 2353,-1333.5 2379.23,-1357.25 2365.48,-1378.07 2389,-1404.5 2404.92,-1422.39 2427.67,-1437.14 2445.77,-1447.15"/>
<polygon fill="midnightblue" stroke="midnightblue" points="2444.28,-1450.32 2454.75,-1451.94 2447.58,-1444.15 2444.28,-1450.32"/>
</g>
<!-- Node821&#45;&gt;Node812 -->
<g id="edge44" class="edge"><title>Node821&#45;&gt;Node812</title>
<path fill="none" stroke="midnightblue" d="M2189.25,-1239.06C2232.52,-1249.43 2299.5,-1268.23 2353,-1295.5 2393.1,-1315.94 2434.06,-1349.23 2456.84,-1369.08"/>
<polygon fill="midnightblue" stroke="midnightblue" points="2454.57,-1371.74 2464.38,-1375.74 2459.2,-1366.5 2454.57,-1371.74"/>
</g>
<!-- Node821&#45;&gt;Node815 -->
<g id="edge45" class="edge"><title>Node821&#45;&gt;Node815</title>
<path fill="none" stroke="midnightblue" d="M2162.76,-1219.92C2173.83,-1213.89 2188.32,-1205.88 2201,-1198.5 2217.21,-1189.07 2219.19,-1182.37 2237,-1176.5 2443.8,-1108.38 2517.72,-1200.14 2725,-1133.5 2763.04,-1121.27 2801.92,-1095.29 2824.74,-1078.38"/>
<polygon fill="midnightblue" stroke="midnightblue" points="2827.07,-1081 2832.94,-1072.17 2822.85,-1075.42 2827.07,-1081"/>
</g>
<!-- Node822 -->
<g id="node24" class="node"><title>Node822</title>
<g id="a_node24"><a xlink:href="namespacestats.html#a61fb958f0ffbfa6d41efd10f6e71f062" target="_top" xlink:title="Obtain the maximum attributes of the instances. ">
<polygon fill="white" stroke="black" points="2243.5,-1186 2243.5,-1205 2346.5,-1205 2346.5,-1186 2243.5,-1186"/>
<text text-anchor="middle" x="2295" y="-1193" font-family="Helvetica,sans-Serif" font-size="10.00">stats::maxFeatures</text>
</a>
</g>
</g>
<!-- Node821&#45;&gt;Node822 -->
<g id="edge47" class="edge"><title>Node821&#45;&gt;Node822</title>
<path fill="none" stroke="midnightblue" d="M2186.9,-1219.94C2204.11,-1216.01 2224.22,-1211.42 2242.33,-1207.29"/>
<polygon fill="midnightblue" stroke="midnightblue" points="2243.18,-1210.69 2252.16,-1205.05 2241.63,-1203.86 2243.18,-1210.69"/>
</g>
<!-- Node822&#45;&gt;Node804 -->
<g id="edge51" class="edge"><title>Node822&#45;&gt;Node804</title>
<path fill="none" stroke="midnightblue" d="M2300.6,-1185.72C2324.44,-1135.12 2433.97,-902.604 2466.11,-834.373"/>
<polygon fill="midnightblue" stroke="midnightblue" points="2469.33,-835.749 2470.43,-825.211 2463,-832.766 2469.33,-835.749"/>
</g>
<!-- Node822&#45;&gt;Node810 -->
<g id="edge48" class="edge"><title>Node822&#45;&gt;Node810</title>
<path fill="none" stroke="midnightblue" d="M2333.28,-1205.02C2340.74,-1208.48 2347.85,-1213.17 2353,-1219.5 2405.82,-1284.52 2342.48,-1334.84 2389,-1404.5 2401.85,-1423.74 2423.63,-1438.08 2442.05,-1447.56"/>
<polygon fill="midnightblue" stroke="midnightblue" points="2440.52,-1450.71 2451.05,-1451.95 2443.6,-1444.42 2440.52,-1450.71"/>
</g>
<!-- Node822&#45;&gt;Node812 -->
<g id="edge49" class="edge"><title>Node822&#45;&gt;Node812</title>
<path fill="none" stroke="midnightblue" d="M2326.95,-1205.02C2335.91,-1208.67 2345.33,-1213.45 2353,-1219.5 2406.45,-1261.65 2447.85,-1332.87 2465.58,-1366.65"/>
<polygon fill="midnightblue" stroke="midnightblue" points="2462.63,-1368.56 2470.31,-1375.85 2468.85,-1365.36 2462.63,-1368.56"/>
</g>
<!-- Node822&#45;&gt;Node815 -->
<g id="edge50" class="edge"><title>Node822&#45;&gt;Node815</title>
<path fill="none" stroke="midnightblue" d="M2346.65,-1203.2C2429.45,-1213.54 2597.37,-1224.96 2725,-1171.5 2771.91,-1151.85 2812.38,-1105.64 2832.13,-1080.15"/>
<polygon fill="midnightblue" stroke="midnightblue" points="2835,-1082.16 2838.23,-1072.07 2829.41,-1077.94 2835,-1082.16"/>
</g>
<!-- Node823 -->
<g id="node25" class="node"><title>Node823</title>
<g id="a_node25"><a xlink:href="namespacestats.html#a91d3e4bd49b1fdf4eaf355092becd6bc" target="_top" xlink:title="Get covariance matrix, only for T_FEATURE real. ">
<polygon fill="white" stroke="red" points="2420,-1870 2420,-1889 2532,-1889 2532,-1870 2420,-1870"/>
<text text-anchor="middle" x="2476" y="-1877" font-family="Helvetica,sans-Serif" font-size="10.00">stats::matrixVarcovar</text>
</a>
</g>
</g>
<!-- Node822&#45;&gt;Node823 -->
<g id="edge52" class="edge"><title>Node822&#45;&gt;Node823</title>
<path fill="none" stroke="midnightblue" d="M2299.51,-1205.05C2308.94,-1230.85 2335.25,-1304.2 2353,-1366.5 2407.19,-1556.67 2456.79,-1791.15 2470.97,-1859.77"/>
<polygon fill="midnightblue" stroke="midnightblue" points="2467.62,-1860.89 2473.06,-1869.98 2474.48,-1859.48 2467.62,-1860.89"/>
</g>
<!-- Node823&#45;&gt;Node817 -->
<g id="edge60" class="edge"><title>Node823&#45;&gt;Node817</title>
<path fill="none" stroke="midnightblue" d="M2419.82,-1879.5C2354.29,-1879.5 2241.68,-1879.5 2145,-1879.5 1815.5,-1879.5 1815.5,-1879.5 1815.5,-1879.5 1726.24,-1879.5 1622.7,-1887.55 1561.28,-1893.17"/>
<polygon fill="midnightblue" stroke="midnightblue" points="1560.69,-1889.71 1551.06,-1894.12 1561.34,-1896.68 1560.69,-1889.71"/>
</g>
<!-- Node824 -->
<g id="node26" class="node"><title>Node824</title>
<g id="a_node26"><a xlink:href="namespaceinterfacesse.html#a47f4a833d2730f3a501bbb9b2b095e62" target="_top" xlink:title="interfacesse::gemm">
<polygon fill="white" stroke="black" points="2609,-2174 2609,-2193 2715,-2193 2715,-2174 2609,-2174"/>
<text text-anchor="middle" x="2662" y="-2181" font-family="Helvetica,sans-Serif" font-size="10.00">interfacesse::gemm</text>
</a>
</g>
</g>
<!-- Node823&#45;&gt;Node824 -->
<g id="edge53" class="edge"><title>Node823&#45;&gt;Node824</title>
<path fill="none" stroke="midnightblue" d="M2482.91,-1889.27C2509.14,-1932.6 2615.17,-2107.78 2649.91,-2165.19"/>
<polygon fill="midnightblue" stroke="midnightblue" points="2647.03,-2167.17 2655.2,-2173.92 2653.02,-2163.55 2647.03,-2167.17"/>
</g>
<!-- Node825 -->
<g id="node27" class="node"><title>Node825</title>
<g id="a_node27"><a xlink:href="namespacestats.html#adf9325db882d4cc7474c23f2eff7dd39" target="_top" xlink:title="Get weight matrix diagonal for calculate dist induced &#160;&#160;. ">
<polygon fill="white" stroke="red" points="2599,-1870 2599,-1889 2725,-1889 2725,-1870 2599,-1870"/>
<text text-anchor="middle" x="2662" y="-1877" font-family="Helvetica,sans-Serif" font-size="10.00">stats::getMatrixDiagonal</text>
</a>
</g>
</g>
<!-- Node823&#45;&gt;Node825 -->
<g id="edge58" class="edge"><title>Node823&#45;&gt;Node825</title>
<path fill="none" stroke="midnightblue" d="M2532.21,-1879.5C2549.97,-1879.5 2569.93,-1879.5 2588.73,-1879.5"/>
<polygon fill="midnightblue" stroke="midnightblue" points="2588.74,-1883 2598.74,-1879.5 2588.74,-1876 2588.74,-1883"/>
</g>
<!-- Node833 -->
<g id="node28" class="node"><title>Node833</title>
<g id="a_node28"><a xlink:href="namespacedata.html#af02d5f2addd5b5815d5efb7db12ffeba" target="_top" xlink:title="Instaces matrix transpose. ">
<polygon fill="white" stroke="red" points="2599.5,-1756 2599.5,-1775 2724.5,-1775 2724.5,-1756 2599.5,-1756"/>
<text text-anchor="middle" x="2662" y="-1763" font-family="Helvetica,sans-Serif" font-size="10.00">data::toMatrixRowTrans</text>
</a>
</g>
</g>
<!-- Node823&#45;&gt;Node833 -->
<g id="edge61" class="edge"><title>Node823&#45;&gt;Node833</title>
<path fill="none" stroke="midnightblue" d="M2492.37,-1869.98C2524.44,-1850.11 2598.66,-1804.13 2637.04,-1780.34"/>
<polygon fill="midnightblue" stroke="midnightblue" points="2638.89,-1783.32 2645.54,-1775.08 2635.2,-1777.37 2638.89,-1783.32"/>
</g>
<!-- Node824&#45;&gt;Node800 -->
<g id="edge54" class="edge"><title>Node824&#45;&gt;Node800</title>
<path fill="none" stroke="midnightblue" d="M2671.96,-2193.24C2688.62,-2211.11 2725.89,-2249.94 2761,-2278.5 2780.03,-2293.99 2803.21,-2309.49 2820.39,-2320.4"/>
<polygon fill="midnightblue" stroke="midnightblue" points="2818.92,-2323.62 2829.25,-2325.97 2822.65,-2317.69 2818.92,-2323.62"/>
</g>
<!-- Node824&#45;&gt;Node801 -->
<g id="edge55" class="edge"><title>Node824&#45;&gt;Node801</title>
<path fill="none" stroke="midnightblue" d="M2699.67,-2173.93C2708.61,-2170.41 2717.7,-2165.7 2725,-2159.5 2786.67,-2107.11 2824.48,-2014.59 2838.63,-1974.7"/>
<polygon fill="midnightblue" stroke="midnightblue" points="2841.99,-1975.72 2841.93,-1965.12 2835.37,-1973.44 2841.99,-1975.72"/>
</g>
<!-- Node824&#45;&gt;Node802 -->
<g id="edge56" class="edge"><title>Node824&#45;&gt;Node802</title>
<path fill="none" stroke="midnightblue" d="M2688.43,-2193.08C2699.68,-2197.39 2713.04,-2202.6 2725,-2207.5 2755.47,-2219.99 2789.92,-2235.02 2814.07,-2245.7"/>
<polygon fill="midnightblue" stroke="midnightblue" points="2812.87,-2248.99 2823.43,-2249.85 2815.71,-2242.59 2812.87,-2248.99"/>
</g>
<!-- Node824&#45;&gt;Node805 -->
<g id="edge57" class="edge"><title>Node824&#45;&gt;Node805</title>
<path fill="none" stroke="midnightblue" d="M2715.17,-2183.5C2779.79,-2183.5 2889.53,-2183.5 2956.52,-2183.5"/>
<polygon fill="midnightblue" stroke="midnightblue" points="2956.89,-2187 2966.89,-2183.5 2956.89,-2180 2956.89,-2187"/>
</g>
<!-- Node825&#45;&gt;Node801 -->
<g id="edge59" class="edge"><title>Node825&#45;&gt;Node801</title>
<path fill="none" stroke="midnightblue" d="M2688.43,-1889.08C2699.68,-1893.39 2713.04,-1898.6 2725,-1903.5 2755.47,-1915.99 2789.92,-1931.02 2814.07,-1941.7"/>
<polygon fill="midnightblue" stroke="midnightblue" points="2812.87,-1944.99 2823.43,-1945.85 2815.71,-1938.59 2812.87,-1944.99"/>
</g>
<!-- Node833&#45;&gt;Node815 -->
<g id="edge62" class="edge"><title>Node833&#45;&gt;Node815</title>
<path fill="none" stroke="midnightblue" d="M2665.66,-1755.96C2674.37,-1724.69 2702.73,-1622.41 2725,-1537.5 2771.21,-1361.32 2824.08,-1147.52 2840.13,-1082.31"/>
<polygon fill="midnightblue" stroke="midnightblue" points="2843.62,-1082.76 2842.61,-1072.22 2836.83,-1081.09 2843.62,-1082.76"/>
</g>
<!-- Node830&#45;&gt;Node804 -->
<g id="edge70" class="edge"><title>Node830&#45;&gt;Node804</title>
<path fill="none" stroke="midnightblue" d="M2299.3,-1375.89C2308.19,-1349.93 2333.29,-1276.2 2353,-1214.5 2399.49,-1068.97 2452.19,-892.416 2469.31,-834.732"/>
<polygon fill="midnightblue" stroke="midnightblue" points="2472.67,-835.683 2472.16,-825.1 2465.96,-833.693 2472.67,-835.683"/>
</g>
<!-- Node830&#45;&gt;Node812 -->
<g id="edge64" class="edge"><title>Node830&#45;&gt;Node812</title>
<path fill="none" stroke="midnightblue" d="M2337.52,-1385.5C2360.95,-1385.5 2390.61,-1385.5 2416.38,-1385.5"/>
<polygon fill="midnightblue" stroke="midnightblue" points="2416.41,-1389 2426.41,-1385.5 2416.41,-1382 2416.41,-1389"/>
</g>
<!-- Node831 -->
<g id="node30" class="node"><title>Node831</title>
<g id="a_node30"><a xlink:href="namespaceinterfacesse.html#a20b4ab13ada231e7ba92e3d98c4cd602" target="_top" xlink:title="interfacesse::gemv">
<polygon fill="white" stroke="black" points="2424.5,-2174 2424.5,-2193 2527.5,-2193 2527.5,-2174 2424.5,-2174"/>
<text text-anchor="middle" x="2476" y="-2181" font-family="Helvetica,sans-Serif" font-size="10.00">interfacesse::gemv</text>
</a>
</g>
</g>
<!-- Node830&#45;&gt;Node831 -->
<g id="edge65" class="edge"><title>Node830&#45;&gt;Node831</title>
<path fill="none" stroke="midnightblue" d="M2297.31,-1395.03C2304.51,-1446.59 2340.6,-1697.42 2389,-1898.5 2413.41,-1999.91 2452.78,-2118.56 2468.35,-2164.23"/>
<polygon fill="midnightblue" stroke="midnightblue" points="2465.07,-2165.44 2471.62,-2173.77 2471.69,-2163.17 2465.07,-2165.44"/>
</g>
<!-- Node831&#45;&gt;Node800 -->
<g id="edge67" class="edge"><title>Node831&#45;&gt;Node800</title>
<path fill="none" stroke="midnightblue" d="M2498.99,-2193.01C2523.38,-2203.52 2563.93,-2220.9 2599,-2235.5 2674.89,-2267.1 2764.41,-2303.19 2811.76,-2322.19"/>
<polygon fill="midnightblue" stroke="midnightblue" points="2810.61,-2325.51 2821.2,-2325.98 2813.22,-2319.01 2810.61,-2325.51"/>
</g>
<!-- Node831&#45;&gt;Node801 -->
<g id="edge68" class="edge"><title>Node831&#45;&gt;Node801</title>
<path fill="none" stroke="midnightblue" d="M2527.73,-2175.06C2590.54,-2163.89 2693.11,-2143.08 2725,-2121.5 2781.32,-2083.39 2820.45,-2009.6 2836.66,-1974.69"/>
<polygon fill="midnightblue" stroke="midnightblue" points="2840.02,-1975.74 2840.94,-1965.19 2833.64,-1972.86 2840.02,-1975.74"/>
</g>
<!-- Node831&#45;&gt;Node802 -->
<g id="edge69" class="edge"><title>Node831&#45;&gt;Node802</title>
<path fill="none" stroke="midnightblue" d="M2523.23,-2193.05C2590.81,-2207 2716.38,-2232.94 2789.06,-2247.95"/>
<polygon fill="midnightblue" stroke="midnightblue" points="2788.45,-2251.4 2798.95,-2249.99 2789.87,-2244.54 2788.45,-2251.4"/>
</g>
<!-- Node831&#45;&gt;Node824 -->
<g id="edge66" class="edge"><title>Node831&#45;&gt;Node824</title>
<path fill="none" stroke="midnightblue" d="M2527.77,-2183.5C2549.73,-2183.5 2575.64,-2183.5 2598.75,-2183.5"/>
<polygon fill="midnightblue" stroke="midnightblue" points="2598.8,-2187 2608.8,-2183.5 2598.8,-2180 2598.8,-2187"/>
</g>
<!-- Node838&#45;&gt;Node807 -->
<g id="edge72" class="edge"><title>Node838&#45;&gt;Node807</title>
<path fill="none" stroke="midnightblue" d="M1044.62,-1223.82C1138.26,-1130.74 1899.99,-397.5 2661,-397.5 2661,-397.5 2661,-397.5 3016,-397.5 3230.29,-397.5 3281.11,-1251.13 3288.09,-1393.48"/>
<polygon fill="midnightblue" stroke="midnightblue" points="3284.61,-1393.95 3288.58,-1403.77 3291.6,-1393.62 3284.61,-1393.95"/>
</g>
<!-- Node838&#45;&gt;Node809 -->
<g id="edge75" class="edge"><title>Node838&#45;&gt;Node809</title>
<path fill="none" stroke="midnightblue" d="M1074.25,-1243.03C1082.01,-1246.49 1089.46,-1251.17 1095,-1257.5 1137.9,-1306.48 1087.51,-1351.05 1131,-1399.5 1134.45,-1403.35 1138.58,-1406.58 1143.06,-1409.29"/>
<polygon fill="midnightblue" stroke="midnightblue" points="1141.52,-1412.44 1152.01,-1413.91 1144.72,-1406.21 1141.52,-1412.44"/>
</g>
<!-- Node838&#45;&gt;Node810 -->
<g id="edge73" class="edge"><title>Node838&#45;&gt;Node810</title>
<path fill="none" stroke="midnightblue" d="M1046.4,-1243.18C1063.7,-1257.43 1098.04,-1284.16 1131,-1300.5 1488.84,-1477.87 1587.12,-1575.5 1986.5,-1575.5 1986.5,-1575.5 1986.5,-1575.5 2145,-1575.5 2265.37,-1575.5 2397.56,-1506.91 2450.81,-1476.13"/>
<polygon fill="midnightblue" stroke="midnightblue" points="2452.67,-1479.1 2459.52,-1471.02 2449.13,-1473.06 2452.67,-1479.1"/>
</g>
<!-- Node838&#45;&gt;Node811 -->
<g id="edge74" class="edge"><title>Node838&#45;&gt;Node811</title>
<path fill="none" stroke="midnightblue" d="M1063.24,-1243C1144.22,-1270.09 1384.45,-1349.31 1587,-1404.5 1719.61,-1440.64 1754.34,-1443.45 1888,-1475.5 1904.15,-1479.37 1921.77,-1483.65 1937.59,-1487.51"/>
<polygon fill="midnightblue" stroke="midnightblue" points="1937.14,-1491 1947.69,-1489.97 1938.8,-1484.2 1937.14,-1491"/>
</g>
<!-- Node839&#45;&gt;Node799 -->
<g id="edge93" class="edge"><title>Node839&#45;&gt;Node799</title>
<path fill="none" stroke="midnightblue" d="M227.556,-1983.78C202.784,-1922.73 68.6075,-1592.04 34.7578,-1508.62"/>
<polygon fill="midnightblue" stroke="midnightblue" points="37.9056,-1507.07 30.9026,-1499.12 31.4192,-1509.7 37.9056,-1507.07"/>
</g>
<!-- Node839&#45;&gt;Node801 -->
<g id="edge84" class="edge"><title>Node839&#45;&gt;Node801</title>
<path fill="none" stroke="midnightblue" d="M250.657,-2003.01C312.363,-2036.28 529.581,-2145.5 722.5,-2145.5 722.5,-2145.5 722.5,-2145.5 874,-2145.5 1532.2,-2145.5 1700.42,-2155.34 2353,-2069.5 2519.18,-2047.64 2565.12,-2057.82 2725,-2007.5 2757.55,-1997.25 2793.24,-1981.12 2817.17,-1969.54"/>
<polygon fill="midnightblue" stroke="midnightblue" points="2818.91,-1972.58 2826.35,-1965.04 2815.83,-1966.29 2818.91,-1972.58"/>
</g>
<!-- Node839&#45;&gt;Node804 -->
<g id="edge80" class="edge"><title>Node839&#45;&gt;Node804</title>
<path fill="none" stroke="midnightblue" d="M261.088,-1998.33C358.282,-2014.06 692.132,-2057.26 937,-1956.5 1170.29,-1860.5 1127.52,-1704.45 1298,-1518.5 1459.69,-1342.14 1521.82,-1304.73 1745,-1218.5 1761.54,-1212.11 2038.57,-1140.15 2051,-1127.5 2092.73,-1085.06 2046.79,-1042.39 2087,-998.5 2108.33,-975.218 2324.97,-913.039 2353,-898.5 2390.91,-878.837 2431.18,-849.587 2454.66,-831.574"/>
<polygon fill="midnightblue" stroke="midnightblue" points="2457.04,-834.157 2462.8,-825.264 2452.75,-828.626 2457.04,-834.157"/>
</g>
<!-- Node839&#45;&gt;Node805 -->
<g id="edge81" class="edge"><title>Node839&#45;&gt;Node805</title>
<path fill="none" stroke="midnightblue" d="M240.644,-2003.44C251.408,-2017.8 273.087,-2044.37 297,-2060.5 345.303,-2093.09 364.408,-2088.13 419,-2108.5 1035.68,-2338.58 1157.29,-2601.5 1815.5,-2601.5 1815.5,-2601.5 1815.5,-2601.5 2663,-2601.5 2797.38,-2601.5 2845.48,-2565.16 2931,-2461.5 2996.43,-2382.18 3010.29,-2252.6 3013.22,-2203.34"/>
<polygon fill="midnightblue" stroke="midnightblue" points="3016.72,-2203.28 3013.73,-2193.11 3009.73,-2202.92 3016.72,-2203.28"/>
</g>
<!-- Node839&#45;&gt;Node809 -->
<g id="edge82" class="edge"><title>Node839&#45;&gt;Node809</title>
<path fill="none" stroke="midnightblue" d="M261.354,-1992.62C382.322,-1987.17 866.277,-1948.51 1095,-1676.5 1156.13,-1603.8 1183.22,-1489.33 1192.04,-1443.47"/>
<polygon fill="midnightblue" stroke="midnightblue" points="1195.53,-1443.82 1193.9,-1433.36 1188.65,-1442.56 1195.53,-1443.82"/>
</g>
<!-- Node839&#45;&gt;Node838 -->
<g id="edge83" class="edge"><title>Node839&#45;&gt;Node838</title>
<path fill="none" stroke="midnightblue" d="M257.361,-1983.89C369.315,-1938.34 841.095,-1741.38 937,-1618.5 1026.99,-1503.2 1033.74,-1314.33 1033.43,-1253.23"/>
<polygon fill="midnightblue" stroke="midnightblue" points="1036.93,-1253.02 1033.3,-1243.07 1029.93,-1253.11 1036.93,-1253.02"/>
</g>
<!-- Node840 -->
<g id="node33" class="node"><title>Node840</title>
<g id="a_node33"><a xlink:href="namespaceum.html#aaccb7dacc3cb2d8cd7349517387c6dfb" target="_top" xlink:title="Computes the overall between&#45;cluster variance &#160;and the number of instances in each cluster...">
<polygon fill="white" stroke="black" points="973,-958 973,-977 1095,-977 1095,-958 973,-958"/>
<text text-anchor="middle" x="1034" y="-965" font-family="Helvetica,sans-Serif" font-size="10.00">um::sumDistInstCentInK</text>
</a>
</g>
</g>
<!-- Node839&#45;&gt;Node840 -->
<g id="edge85" class="edge"><title>Node839&#45;&gt;Node840</title>
<path fill="none" stroke="midnightblue" d="M234.013,-1983.98C239.114,-1893.95 284.24,-1195.5 456.5,-1195.5 456.5,-1195.5 456.5,-1195.5 586,-1195.5 772.408,-1195.5 959.491,-1036.21 1015.89,-983.914"/>
<polygon fill="midnightblue" stroke="midnightblue" points="1018.35,-986.403 1023.25,-977.007 1013.56,-981.3 1018.35,-986.403"/>
</g>
<!-- Node844 -->
<g id="node37" class="node"><title>Node844</title>
<g id="a_node37"><a xlink:href="namespaceum.html#a6336207d868d7879d55dd09259b4fab6" target="_top" xlink:title="um::VRCreeval">
<polygon fill="white" stroke="black" points="297,-1680 297,-1699 383,-1699 383,-1680 297,-1680"/>
<text text-anchor="middle" x="340" y="-1687" font-family="Helvetica,sans-Serif" font-size="10.00">um::VRCreeval</text>
</a>
</g>
</g>
<!-- Node839&#45;&gt;Node844 -->
<g id="edge94" class="edge"><title>Node839&#45;&gt;Node844</title>
<path fill="none" stroke="midnightblue" d="M236.891,-1983.73C251.865,-1940.58 312.22,-1766.67 332.395,-1708.53"/>
<polygon fill="midnightblue" stroke="midnightblue" points="335.702,-1709.68 335.675,-1699.08 329.089,-1707.38 335.702,-1709.68"/>
</g>
<!-- Node840&#45;&gt;Node801 -->
<g id="edge86" class="edge"><title>Node840&#45;&gt;Node801</title>
<path fill="none" stroke="midnightblue" d="M1065.84,-977.111C1075.93,-981.31 1086.67,-987.02 1095,-994.5 1204.22,-1092.6 1214.48,-1140.59 1262,-1279.5 1282.09,-1338.23 1254.51,-1512.2 1298,-1556.5 1388.97,-1649.17 1458.35,-1581.79 1587,-1599.5 1657.12,-1609.15 1674.65,-1611.68 1745,-1619.5 1799.36,-1625.55 2679.95,-1682.48 2725,-1713.5 2803.67,-1767.67 2833.12,-1888.82 2841.87,-1936.09"/>
<polygon fill="midnightblue" stroke="midnightblue" points="2838.42,-1936.71 2843.59,-1945.96 2845.32,-1935.51 2838.42,-1936.71"/>
</g>
<!-- Node840&#45;&gt;Node804 -->
<g id="edge91" class="edge"><title>Node840&#45;&gt;Node804</title>
<path fill="none" stroke="midnightblue" d="M1039.62,-957.881C1051.23,-934.884 1084.14,-876.824 1131,-852.5 1222.04,-805.243 1258.43,-833.5 1361,-833.5 1361,-833.5 1361,-833.5 1507.5,-833.5 1832.03,-833.5 1912.54,-808.613 2237,-801.5 2288.54,-800.37 2301.53,-798.556 2353,-801.5 2366.23,-802.257 2380.23,-803.471 2393.84,-804.877"/>
<polygon fill="midnightblue" stroke="midnightblue" points="2393.84,-808.396 2404.16,-805.984 2394.59,-801.436 2393.84,-808.396"/>
</g>
<!-- Node840&#45;&gt;Node810 -->
<g id="edge92" class="edge"><title>Node840&#45;&gt;Node810</title>
<path fill="none" stroke="midnightblue" d="M1073.1,-977.014C1090.63,-981.089 1111.77,-985.573 1131,-988.5 1232.44,-1003.94 1258.39,-1008.5 1361,-1008.5 1361,-1008.5 1361,-1008.5 1649,-1008.5 1870.97,-1008.5 1890.91,-1144.47 2087,-1248.5 2153.2,-1283.62 2168.18,-1295.84 2237,-1325.5 2287.21,-1347.15 2307.14,-1336.71 2353,-1366.5 2372.51,-1379.17 2371.19,-1389.53 2389,-1404.5 2408.03,-1420.5 2431.71,-1435.9 2449.4,-1446.66"/>
<polygon fill="midnightblue" stroke="midnightblue" points="2447.67,-1449.7 2458.05,-1451.84 2451.27,-1443.69 2447.67,-1449.7"/>
</g>
<!-- Node840&#45;&gt;Node815 -->
<g id="edge90" class="edge"><title>Node840&#45;&gt;Node815</title>
<path fill="none" stroke="midnightblue" d="M1038.06,-957.899C1047.18,-930.997 1076.98,-854.685 1131,-821.5 1218.66,-767.655 1258.13,-795.5 1361,-795.5 1361,-795.5 1361,-795.5 1507.5,-795.5 1873.76,-795.5 1927.74,-549.5 2294,-549.5 2294,-549.5 2294,-549.5 2477,-549.5 2724.52,-549.5 2821.71,-948.675 2841.18,-1042.79"/>
<polygon fill="midnightblue" stroke="midnightblue" points="2837.77,-1043.6 2843.18,-1052.71 2844.64,-1042.22 2837.77,-1043.6"/>
</g>
<!-- Node841 -->
<g id="node34" class="node"><title>Node841</title>
<g id="a_node34"><a xlink:href="classpartition_1_1_partition.html#acb8de7c890e05872858fb7a7aa53b657" target="_top" xlink:title="partition::Partition\l::begin">
<polygon fill="white" stroke="black" points="1150,-949.5 1150,-979.5 1243,-979.5 1243,-949.5 1150,-949.5"/>
<text text-anchor="start" x="1158" y="-967.5" font-family="Helvetica,sans-Serif" font-size="10.00">partition::Partition</text>
<text text-anchor="middle" x="1196.5" y="-956.5" font-family="Helvetica,sans-Serif" font-size="10.00">::begin</text>
</a>
</g>
</g>
<!-- Node840&#45;&gt;Node841 -->
<g id="edge87" class="edge"><title>Node840&#45;&gt;Node841</title>
<path fill="none" stroke="midnightblue" d="M1095.22,-966.374C1109.82,-966.101 1125.37,-965.811 1139.75,-965.542"/>
<polygon fill="midnightblue" stroke="midnightblue" points="1140.06,-969.037 1149.99,-965.351 1139.93,-962.038 1140.06,-969.037"/>
</g>
<!-- Node842 -->
<g id="node35" class="node"><title>Node842</title>
<g id="a_node35"><a xlink:href="classpartition_1_1_partition.html#a96660ce61740ab0287189b21833eccdf" target="_top" xlink:title="partition::Partition\l::next">
<polygon fill="white" stroke="black" points="1150,-900.5 1150,-930.5 1243,-930.5 1243,-900.5 1150,-900.5"/>
<text text-anchor="start" x="1158" y="-918.5" font-family="Helvetica,sans-Serif" font-size="10.00">partition::Partition</text>
<text text-anchor="middle" x="1196.5" y="-907.5" font-family="Helvetica,sans-Serif" font-size="10.00">::next</text>
</a>
</g>
</g>
<!-- Node840&#45;&gt;Node842 -->
<g id="edge88" class="edge"><title>Node840&#45;&gt;Node842</title>
<path fill="none" stroke="midnightblue" d="M1064.44,-957.962C1085.62,-951.099 1114.83,-941.635 1140.3,-933.383"/>
<polygon fill="midnightblue" stroke="midnightblue" points="1141.42,-936.7 1149.86,-930.288 1139.26,-930.041 1141.42,-936.7"/>
</g>
<!-- Node843 -->
<g id="node36" class="node"><title>Node843</title>
<g id="a_node36"><a xlink:href="classmat_1_1_matrix_base.html#ae3b1c4b8e9cb7e7685d7bc129f875dcd" target="_top" xlink:title="mat::MatrixBase::getRow">
<polygon fill="white" stroke="black" points="1131,-862 1131,-881 1262,-881 1262,-862 1131,-862"/>
<text text-anchor="middle" x="1196.5" y="-869" font-family="Helvetica,sans-Serif" font-size="10.00">mat::MatrixBase::getRow</text>
</a>
</g>
</g>
<!-- Node840&#45;&gt;Node843 -->
<g id="edge89" class="edge"><title>Node840&#45;&gt;Node843</title>
<path fill="none" stroke="midnightblue" d="M1044.44,-957.764C1060.68,-941.555 1095.58,-908.994 1131,-890.5 1135.3,-888.254 1139.91,-886.237 1144.6,-884.433"/>
<polygon fill="midnightblue" stroke="midnightblue" points="1146.03,-887.642 1154.3,-881.025 1143.71,-881.037 1146.03,-887.642"/>
</g>
<!-- Node844&#45;&gt;Node799 -->
<g id="edge101" class="edge"><title>Node844&#45;&gt;Node799</title>
<path fill="none" stroke="midnightblue" d="M324.103,-1679.95C274.079,-1647.88 111.831,-1543.88 50.6436,-1504.66"/>
<polygon fill="midnightblue" stroke="midnightblue" points="52.3561,-1501.6 42.0484,-1499.15 48.5784,-1507.49 52.3561,-1501.6"/>
</g>
<!-- Node844&#45;&gt;Node801 -->
<g id="edge95" class="edge"><title>Node844&#45;&gt;Node801</title>
<path fill="none" stroke="midnightblue" d="M351.135,-1699.02C418.502,-1761.24 810.702,-2107.5 1195.5,-2107.5 1195.5,-2107.5 1195.5,-2107.5 1649,-2107.5 2093.89,-2107.5 2624.48,-2002.72 2791.78,-1967.15"/>
<polygon fill="midnightblue" stroke="midnightblue" points="2792.76,-1970.52 2801.81,-1965.01 2791.3,-1963.67 2792.76,-1970.52"/>
</g>
<!-- Node844&#45;&gt;Node804 -->
<g id="edge96" class="edge"><title>Node844&#45;&gt;Node804</title>
<path fill="none" stroke="midnightblue" d="M351.998,-1679.81C411.685,-1627.56 703.951,-1375.68 973,-1214.5 1448.98,-929.357 2129.51,-844.853 2378.79,-822.642"/>
<polygon fill="midnightblue" stroke="midnightblue" points="2379.25,-826.115 2388.9,-821.754 2378.63,-819.142 2379.25,-826.115"/>
</g>
<!-- Node844&#45;&gt;Node805 -->
<g id="edge97" class="edge"><title>Node844&#45;&gt;Node805</title>
<path fill="none" stroke="midnightblue" d="M346.218,-1699.05C357.688,-1719.55 386.664,-1768.73 419,-1803.5 513.124,-1904.71 553.821,-1913.24 674,-1981.5 1197.2,-2278.69 1325.58,-2438.68 1924,-2501.5 2372.05,-2548.53 2599.27,-2690.32 2931,-2385.5 2985.75,-2335.19 3005.32,-2243.43 3011.49,-2203.24"/>
<polygon fill="midnightblue" stroke="midnightblue" points="3014.98,-2203.53 3012.91,-2193.14 3008.05,-2202.55 3014.98,-2203.53"/>
</g>
<!-- Node844&#45;&gt;Node809 -->
<g id="edge98" class="edge"><title>Node844&#45;&gt;Node809</title>
<path fill="none" stroke="midnightblue" d="M362.983,-1699.03C444.106,-1732.67 732.54,-1838.79 937,-1741.5 1073.39,-1676.6 1161.33,-1500.67 1187.39,-1442.47"/>
<polygon fill="midnightblue" stroke="midnightblue" points="1190.72,-1443.59 1191.54,-1433.03 1184.31,-1440.78 1190.72,-1443.59"/>
</g>
<!-- Node844&#45;&gt;Node838 -->
<g id="edge99" class="edge"><title>Node844&#45;&gt;Node838</title>
<path fill="none" stroke="midnightblue" d="M383.143,-1689.5C431.604,-1689.5 513.547,-1689.5 584,-1689.5 584,-1689.5 584,-1689.5 724.5,-1689.5 938.77,-1689.5 1014.34,-1339.83 1029.82,-1252.89"/>
<polygon fill="midnightblue" stroke="midnightblue" points="1033.27,-1253.47 1031.51,-1243.02 1026.37,-1252.29 1033.27,-1253.47"/>
</g>
<!-- Node844&#45;&gt;Node840 -->
<g id="edge100" class="edge"><title>Node844&#45;&gt;Node840</title>
<path fill="none" stroke="midnightblue" d="M341.065,-1679.85C341.814,-1641.29 349.342,-1496.27 419,-1409.5 582.31,-1206.08 749.833,-1315.21 937,-1133.5 960.138,-1111.04 956.884,-1098.43 973,-1070.5 990.142,-1040.79 1010.24,-1006.37 1022.28,-985.8"/>
<polygon fill="midnightblue" stroke="midnightblue" points="1025.32,-987.539 1027.35,-977.141 1019.28,-984.002 1025.32,-987.539"/>
</g>
<!-- Node845 -->
<g id="node38" class="node"><title>Node845</title>
<g id="a_node38"><a xlink:href="namespaceum.html#a87db67beee15dca61595892f84a94315" target="_top" xlink:title="um::WBIndex">
<polygon fill="white" stroke="black" points="419,-1148 419,-1167 496,-1167 496,-1148 419,-1148"/>
<text text-anchor="middle" x="457.5" y="-1155" font-family="Helvetica,sans-Serif" font-size="10.00">um::WBIndex</text>
</a>
</g>
</g>
<!-- Node844&#45;&gt;Node845 -->
<g id="edge102" class="edge"><title>Node844&#45;&gt;Node845</title>
<path fill="none" stroke="midnightblue" d="M343.103,-1679.81C356.782,-1616.81 433.139,-1265.1 452.192,-1177.34"/>
<polygon fill="midnightblue" stroke="midnightblue" points="455.656,-1177.89 454.357,-1167.37 448.815,-1176.4 455.656,-1177.89"/>
</g>
<!-- Node845&#45;&gt;Node799 -->
<g id="edge109" class="edge"><title>Node845&#45;&gt;Node799</title>
<path fill="none" stroke="midnightblue" d="M418.737,-1156.04C384.874,-1156.33 334.841,-1160.82 297,-1181.5 165.419,-1253.42 67.409,-1415.84 36.9449,-1470.87"/>
<polygon fill="midnightblue" stroke="midnightblue" points="33.7636,-1469.39 32.0498,-1479.85 39.9096,-1472.74 33.7636,-1469.39"/>
</g>
<!-- Node845&#45;&gt;Node801 -->
<g id="edge107" class="edge"><title>Node845&#45;&gt;Node801</title>
<path fill="none" stroke="midnightblue" d="M460.894,-1167.13C485.758,-1264.59 705.913,-2069.5 1195.5,-2069.5 1195.5,-2069.5 1195.5,-2069.5 1507.5,-2069.5 1632.02,-2069.5 2480.93,-1990.04 2757.85,-1963.8"/>
<polygon fill="midnightblue" stroke="midnightblue" points="2758.22,-1967.28 2767.85,-1962.85 2757.56,-1960.31 2758.22,-1967.28"/>
</g>
<!-- Node845&#45;&gt;Node804 -->
<g id="edge103" class="edge"><title>Node845&#45;&gt;Node804</title>
<path fill="none" stroke="midnightblue" d="M463.638,-1147.7C475.331,-1125.51 505.01,-1069.84 532,-1024.5 679.355,-776.971 691.376,-610.096 973,-549.5 1167.94,-507.556 1447.34,-454.051 2353,-752.5 2389.18,-764.422 2427.72,-786.005 2451.59,-800.545"/>
<polygon fill="midnightblue" stroke="midnightblue" points="2449.93,-803.635 2460.27,-805.924 2453.61,-797.684 2449.93,-803.635"/>
</g>
<!-- Node845&#45;&gt;Node805 -->
<g id="edge104" class="edge"><title>Node845&#45;&gt;Node805</title>
<path fill="none" stroke="midnightblue" d="M459.351,-1147.82C467.789,-1054.74 540.046,-321.5 722.5,-321.5 722.5,-321.5 722.5,-321.5 1988.5,-321.5 2205.38,-321.5 2258.12,-283.5 2475,-283.5 2475,-283.5 2475,-283.5 2663,-283.5 2784.17,-283.5 2851.51,-242.055 2931,-333.5 2994.3,-406.321 3011.87,-1969.82 3013.81,-2163.81"/>
<polygon fill="midnightblue" stroke="midnightblue" points="3010.31,-2163.99 3013.91,-2173.96 3017.31,-2163.92 3010.31,-2163.99"/>
</g>
<!-- Node845&#45;&gt;Node809 -->
<g id="edge105" class="edge"><title>Node845&#45;&gt;Node809</title>
<path fill="none" stroke="midnightblue" d="M479.722,-1167.08C549.352,-1198.26 777.587,-1298.62 973,-1363.5 1031.07,-1382.78 1099.16,-1400.44 1144.58,-1411.53"/>
<polygon fill="midnightblue" stroke="midnightblue" points="1143.94,-1414.98 1154.48,-1413.93 1145.59,-1408.17 1143.94,-1414.98"/>
</g>
<!-- Node845&#45;&gt;Node838 -->
<g id="edge106" class="edge"><title>Node845&#45;&gt;Node838</title>
<path fill="none" stroke="midnightblue" d="M496.195,-1162.49C594.091,-1175.44 856.95,-1210.21 974.633,-1225.78"/>
<polygon fill="midnightblue" stroke="midnightblue" points="974.511,-1229.29 984.884,-1227.13 975.429,-1222.35 974.511,-1229.29"/>
</g>
<!-- Node845&#45;&gt;Node840 -->
<g id="edge108" class="edge"><title>Node845&#45;&gt;Node840</title>
<path fill="none" stroke="midnightblue" d="M494.075,-1147.98C574.137,-1126.22 774.208,-1070.07 937,-1009.5 959.795,-1001.02 984.964,-989.941 1003.81,-981.292"/>
<polygon fill="midnightblue" stroke="midnightblue" points="1005.44,-984.395 1013.04,-977.017 1002.5,-978.043 1005.44,-984.395"/>
</g>
<!-- Node846 -->
<g id="node39" class="node"><title>Node846</title>
<g id="a_node39"><a xlink:href="namespaceum.html#aaa61fb14db29fe31548da280b92eb35f" target="_top" xlink:title="um::WBIndexreeval">
<polygon fill="white" stroke="black" points="532,-1034 532,-1053 638,-1053 638,-1034 532,-1034"/>
<text text-anchor="middle" x="585" y="-1041" font-family="Helvetica,sans-Serif" font-size="10.00">um::WBIndexreeval</text>
</a>
</g>
</g>
<!-- Node845&#45;&gt;Node846 -->
<g id="edge110" class="edge"><title>Node845&#45;&gt;Node846</title>
<path fill="none" stroke="midnightblue" d="M464.243,-1147.89C475.347,-1129.99 501.382,-1091.22 532,-1067.5 536.834,-1063.75 542.346,-1060.42 547.932,-1057.52"/>
<polygon fill="midnightblue" stroke="midnightblue" points="549.778,-1060.52 557.295,-1053.06 546.763,-1054.2 549.778,-1060.52"/>
</g>
<!-- Node846&#45;&gt;Node799 -->
<g id="edge117" class="edge"><title>Node846&#45;&gt;Node799</title>
<path fill="none" stroke="midnightblue" d="M546.403,-1053.09C498.892,-1064.35 414.444,-1081.5 341,-1081.5 231.5,-1081.5 231.5,-1081.5 231.5,-1081.5 55.9186,-1081.5 31.0793,-1387.22 27.5741,-1469.38"/>
<polygon fill="midnightblue" stroke="midnightblue" points="24.0605,-1469.7 27.1964,-1479.82 31.0559,-1469.95 24.0605,-1469.7"/>
</g>
<!-- Node846&#45;&gt;Node801 -->
<g id="edge111" class="edge"><title>Node846&#45;&gt;Node801</title>
<path fill="none" stroke="midnightblue" d="M586.592,-1053.02C592.739,-1143.05 652.683,-1841.5 1033,-1841.5 1033,-1841.5 1033,-1841.5 2477,-1841.5 2587.55,-1841.5 2622.06,-1820.21 2725,-1860.5 2768.41,-1877.49 2808.69,-1915.82 2829.73,-1938.25"/>
<polygon fill="midnightblue" stroke="midnightblue" points="2827.25,-1940.72 2836.58,-1945.73 2832.41,-1935.99 2827.25,-1940.72"/>
</g>
<!-- Node846&#45;&gt;Node804 -->
<g id="edge112" class="edge"><title>Node846&#45;&gt;Node804</title>
<path fill="none" stroke="midnightblue" d="M591.759,-1033.84C622.644,-983.093 774.681,-746.792 973,-667.5 1200.21,-576.656 1733.37,-704.957 2051,-738.5 2185.53,-752.707 2220.98,-746.962 2353,-776.5 2382.94,-783.2 2416.05,-794.008 2440.21,-802.549"/>
<polygon fill="midnightblue" stroke="midnightblue" points="2439.07,-805.855 2449.66,-805.933 2441.43,-799.265 2439.07,-805.855"/>
</g>
<!-- Node846&#45;&gt;Node805 -->
<g id="edge113" class="edge"><title>Node846&#45;&gt;Node805</title>
<path fill="none" stroke="midnightblue" d="M585.713,-1033.9C583.849,-953.785 581.454,-399.5 872,-399.5 872,-399.5 872,-399.5 1817.5,-399.5 2111.77,-399.5 2180.73,-321.5 2475,-321.5 2475,-321.5 2475,-321.5 2663,-321.5 2810.57,-321.5 2860.96,-387.616 2931,-517.5 3013.01,-669.569 3014.25,-1985.82 3014.04,-2163.65"/>
<polygon fill="midnightblue" stroke="midnightblue" points="3010.54,-2163.88 3014.02,-2173.89 3017.54,-2163.89 3010.54,-2163.88"/>
</g>
<!-- Node846&#45;&gt;Node809 -->
<g id="edge114" class="edge"><title>Node846&#45;&gt;Node809</title>
<path fill="none" stroke="midnightblue" d="M596.723,-1053.22C612.918,-1067.72 644.831,-1095.52 674,-1116.5 867.953,-1255.99 916.439,-1294.44 1131,-1399.5 1139.11,-1403.47 1148.05,-1407.19 1156.63,-1410.46"/>
<polygon fill="midnightblue" stroke="midnightblue" points="1155.5,-1413.77 1166.09,-1413.94 1157.92,-1407.2 1155.5,-1413.77"/>
</g>
<!-- Node846&#45;&gt;Node838 -->
<g id="edge115" class="edge"><title>Node846&#45;&gt;Node838</title>
<path fill="none" stroke="midnightblue" d="M608.473,-1053.05C682.031,-1084.32 915.768,-1183.67 1001.27,-1220.01"/>
<polygon fill="midnightblue" stroke="midnightblue" points="999.91,-1223.24 1010.48,-1223.93 1002.65,-1216.8 999.91,-1223.24"/>
</g>
<!-- Node846&#45;&gt;Node840 -->
<g id="edge116" class="edge"><title>Node846&#45;&gt;Node840</title>
<path fill="none" stroke="midnightblue" d="M638.151,-1034.63C719.757,-1020.76 877.529,-993.934 966.954,-978.729"/>
<polygon fill="midnightblue" stroke="midnightblue" points="967.709,-982.151 976.981,-977.024 966.536,-975.25 967.709,-982.151"/>
</g>
<!-- Node847 -->
<g id="node40" class="node"><title>Node847</title>
<g id="a_node40"><a xlink:href="namespaceum.html#a2dbfacd88668ea38547ceb1521d758b0" target="_top" xlink:title="Score function ( ) . ">
<polygon fill="white" stroke="black" points="674,-958 674,-977 773,-977 773,-958 674,-958"/>
<text text-anchor="middle" x="723.5" y="-965" font-family="Helvetica,sans-Serif" font-size="10.00">um::scoreFunction</text>
</a>
</g>
</g>
<!-- Node846&#45;&gt;Node847 -->
<g id="edge118" class="edge"><title>Node846&#45;&gt;Node847</title>
<path fill="none" stroke="midnightblue" d="M603.288,-1033.87C626.775,-1020.8 668.97,-997.304 696.343,-982.063"/>
<polygon fill="midnightblue" stroke="midnightblue" points="698.318,-984.97 705.353,-977.047 694.913,-978.854 698.318,-984.97"/>
</g>
<!-- Node847&#45;&gt;Node799 -->
<g id="edge154" class="edge"><title>Node847&#45;&gt;Node799</title>
<path fill="none" stroke="midnightblue" d="M720.414,-957.69C707.667,-900.678 634.897,-614.5 458.5,-614.5 231.5,-614.5 231.5,-614.5 231.5,-614.5 49.5911,-614.5 29.4015,-1340.65 27.2485,-1469.93"/>
<polygon fill="midnightblue" stroke="midnightblue" points="23.7484,-1469.92 27.0989,-1479.97 30.7477,-1470.02 23.7484,-1469.92"/>
</g>
<!-- Node847&#45;&gt;Node801 -->
<g id="edge120" class="edge"><title>Node847&#45;&gt;Node801</title>
<path fill="none" stroke="midnightblue" d="M725.316,-977.018C733.592,-1067.05 810.208,-1765.5 1195.5,-1765.5 1195.5,-1765.5 1195.5,-1765.5 1988.5,-1765.5 2152.75,-1765.5 2577.16,-1755.94 2725,-1827.5 2775.74,-1852.06 2815.84,-1908.01 2834.16,-1937.13"/>
<polygon fill="midnightblue" stroke="midnightblue" points="2831.31,-1939.19 2839.52,-1945.89 2837.28,-1935.53 2831.31,-1939.19"/>
</g>
<!-- Node847&#45;&gt;Node804 -->
<g id="edge119" class="edge"><title>Node847&#45;&gt;Node804</title>
<path fill="none" stroke="midnightblue" d="M727.567,-957.902C743.615,-909.455 822.946,-690.626 973,-602.5 1237.44,-447.195 2090.57,-452.82 2353,-611.5 2423.34,-654.034 2458.08,-753.891 2470.04,-796.11"/>
<polygon fill="midnightblue" stroke="midnightblue" points="2466.71,-797.227 2472.7,-805.965 2473.47,-795.398 2466.71,-797.227"/>
</g>
<!-- Node847&#45;&gt;Node805 -->
<g id="edge155" class="edge"><title>Node847&#45;&gt;Node805</title>
<path fill="none" stroke="midnightblue" d="M724.013,-957.978C722.286,-914.172 720.704,-729.636 809,-623.5 860.141,-562.026 897.194,-574.954 973,-549.5 1342.17,-425.541 2352.14,-398.111 2725,-510.5 2825.19,-540.699 2875.48,-535.803 2931,-624.5 3016.58,-761.218 3014.77,-1991.51 3014.1,-2163.56"/>
<polygon fill="midnightblue" stroke="midnightblue" points="3010.59,-2163.7 3014.05,-2173.71 3017.59,-2163.73 3010.59,-2163.7"/>
</g>
<!-- Node847&#45;&gt;Node809 -->
<g id="edge157" class="edge"><title>Node847&#45;&gt;Node809</title>
<path fill="none" stroke="midnightblue" d="M771.402,-977.084C816.56,-987.855 885.415,-1008.44 937,-1042.5 942.414,-1046.07 1091.57,-1208.99 1095,-1214.5 1118.4,-1252.14 1112.19,-1267.37 1131,-1307.5 1147.62,-1342.94 1170.58,-1382.42 1184.15,-1404.98"/>
<polygon fill="midnightblue" stroke="midnightblue" points="1181.33,-1407.07 1189.51,-1413.81 1187.31,-1403.44 1181.33,-1407.07"/>
</g>
<!-- Node847&#45;&gt;Node838 -->
<g id="edge121" class="edge"><title>Node847&#45;&gt;Node838</title>
<path fill="none" stroke="midnightblue" d="M735.846,-977.283C782.056,-1017.13 956.371,-1167.43 1014.22,-1217.3"/>
<polygon fill="midnightblue" stroke="midnightblue" points="1012.02,-1220.03 1021.88,-1223.91 1016.59,-1214.73 1012.02,-1220.03"/>
</g>
<!-- Node847&#45;&gt;Node840 -->
<g id="edge156" class="edge"><title>Node847&#45;&gt;Node840</title>
<path fill="none" stroke="midnightblue" d="M773.042,-967.5C824.026,-967.5 904.694,-967.5 962.65,-967.5"/>
<polygon fill="midnightblue" stroke="midnightblue" points="962.833,-971 972.833,-967.5 962.833,-964 962.833,-971"/>
</g>
<!-- Node848 -->
<g id="node41" class="node"><title>Node848</title>
<g id="a_node41"><a xlink:href="namespaceum.html#a31ab0871217029a7b79267bd81735914" target="_top" xlink:title="um::scoreFunctionreeval">
<polygon fill="white" stroke="black" points="809,-920 809,-939 937,-939 937,-920 809,-920"/>
<text text-anchor="middle" x="873" y="-927" font-family="Helvetica,sans-Serif" font-size="10.00">um::scoreFunctionreeval</text>
</a>
</g>
</g>
<!-- Node847&#45;&gt;Node848 -->
<g id="edge122" class="edge"><title>Node847&#45;&gt;Node848</title>
<path fill="none" stroke="midnightblue" d="M761.72,-957.911C781.009,-952.942 804.758,-946.823 825.271,-941.539"/>
<polygon fill="midnightblue" stroke="midnightblue" points="826.237,-944.904 835.047,-939.02 824.49,-938.126 826.237,-944.904"/>
</g>
<!-- Node848&#45;&gt;Node799 -->
<g id="edge150" class="edge"><title>Node848&#45;&gt;Node799</title>
<path fill="none" stroke="midnightblue" d="M869.464,-919.69C854.08,-862.678 767.806,-576.5 586,-576.5 231.5,-576.5 231.5,-576.5 231.5,-576.5 160.732,-576.5 127.805,-586.988 88,-645.5 40.1698,-715.809 28.9603,-1349.31 27.2544,-1469.77"/>
<polygon fill="midnightblue" stroke="midnightblue" points="23.7546,-1469.74 27.1181,-1479.79 30.7539,-1469.84 23.7546,-1469.74"/>
</g>
<!-- Node848&#45;&gt;Node801 -->
<g id="edge148" class="edge"><title>Node848&#45;&gt;Node801</title>
<path fill="none" stroke="midnightblue" d="M888.201,-939.116C906.943,-951.463 941.278,-972.913 973,-986.5 1024.97,-1008.76 1055.97,-981.601 1095,-1022.5 1141.44,-1071.16 1106.4,-1106.89 1131,-1169.5 1174.73,-1280.79 1221.34,-1292.05 1262,-1404.5 1291.52,-1486.15 1234.32,-1537.49 1298,-1596.5 1414.94,-1704.87 2591.37,-1659.55 2725,-1746.5 2795.01,-1792.05 2828.8,-1893.65 2840.29,-1936.18"/>
<polygon fill="midnightblue" stroke="midnightblue" points="2836.9,-1937.07 2842.79,-1945.87 2843.68,-1935.32 2836.9,-1937.07"/>
</g>
<!-- Node848&#45;&gt;Node804 -->
<g id="edge147" class="edge"><title>Node848&#45;&gt;Node804</title>
<path fill="none" stroke="midnightblue" d="M881.238,-919.931C913.215,-878.849 1046.83,-719.5 1195.5,-719.5 1195.5,-719.5 1195.5,-719.5 1507.5,-719.5 1847.95,-719.5 2252.51,-779.092 2408.82,-804.374"/>
<polygon fill="midnightblue" stroke="midnightblue" points="2408.33,-807.839 2418.76,-805.988 2409.45,-800.929 2408.33,-807.839"/>
</g>
<!-- Node848&#45;&gt;Node805 -->
<g id="edge151" class="edge"><title>Node848&#45;&gt;Node805</title>
<path fill="none" stroke="midnightblue" d="M876.026,-919.839C883.121,-888.566 909.919,-789.409 973,-742.5 1079.33,-663.428 2010.49,-511.5 2143,-511.5 2143,-511.5 2143,-511.5 2296,-511.5 2489.79,-511.5 2581.02,-459.791 2725,-589.5 2889.63,-737.806 2876.33,-828.773 2931,-1043.5 2988.1,-1267.74 3010.05,-2029.5 3013.5,-2163.34"/>
<polygon fill="midnightblue" stroke="midnightblue" points="3010.01,-2163.8 3013.76,-2173.71 3017.01,-2163.62 3010.01,-2163.8"/>
</g>
<!-- Node848&#45;&gt;Node809 -->
<g id="edge153" class="edge"><title>Node848&#45;&gt;Node809</title>
<path fill="none" stroke="midnightblue" d="M883.424,-939.211C900.562,-956.672 938.276,-994.185 973,-1022.5 1024.41,-1064.42 1059.32,-1052.57 1095,-1108.5 1143.34,-1184.27 1100.75,-1222.86 1131,-1307.5 1144.16,-1344.33 1168.23,-1383.32 1182.95,-1405.41"/>
<polygon fill="midnightblue" stroke="midnightblue" points="1180.12,-1407.48 1188.63,-1413.79 1185.92,-1403.55 1180.12,-1407.48"/>
</g>
<!-- Node848&#45;&gt;Node838 -->
<g id="edge149" class="edge"><title>Node848&#45;&gt;Node838</title>
<path fill="none" stroke="midnightblue" d="M879.11,-939.27C901.725,-982.509 993.017,-1157.06 1023.23,-1214.83"/>
<polygon fill="midnightblue" stroke="midnightblue" points="1020.25,-1216.68 1027.99,-1223.92 1026.45,-1213.43 1020.25,-1216.68"/>
</g>
<!-- Node848&#45;&gt;Node840 -->
<g id="edge152" class="edge"><title>Node848&#45;&gt;Node840</title>
<path fill="none" stroke="midnightblue" d="M914.122,-939.089C935.104,-944.104 960.982,-950.288 983.23,-955.605"/>
<polygon fill="midnightblue" stroke="midnightblue" points="982.626,-959.06 993.166,-957.98 984.254,-952.251 982.626,-959.06"/>
</g>
<!-- Node849 -->
<g id="node42" class="node"><title>Node849</title>
<g id="a_node42"><a xlink:href="namespaceum.html#a00ec8c8958c649a61b3094ffe6547b10" target="_top" xlink:title="Distance min intra cluster. ">
<polygon fill="white" stroke="black" points="1924,-160 1924,-179 2051,-179 2051,-160 1924,-160"/>
<text text-anchor="middle" x="1987.5" y="-167" font-family="Helvetica,sans-Serif" font-size="10.00">um::distMinIntraClusterKj</text>
</a>
</g>
</g>
<!-- Node848&#45;&gt;Node849 -->
<g id="edge123" class="edge"><title>Node848&#45;&gt;Node849</title>
<path fill="none" stroke="midnightblue" d="M874.481,-919.801C876.945,-881.191 891.485,-737.149 973,-667.5 1129.33,-533.928 1237.8,-656.324 1426,-573.5 1665.53,-468.089 1903.88,-248.927 1969.09,-186.454"/>
<polygon fill="midnightblue" stroke="midnightblue" points="1971.72,-188.779 1976.49,-179.32 1966.86,-183.738 1971.72,-188.779"/>
</g>
<!-- Node849&#45;&gt;Node804 -->
<g id="edge143" class="edge"><title>Node849&#45;&gt;Node804</title>
<path fill="none" stroke="midnightblue" d="M1995.32,-179.097C2010.86,-200.791 2050.38,-255.022 2087,-297.5 2198.23,-426.539 2254.44,-434.544 2353,-573.5 2407.2,-649.918 2450.9,-753.871 2467.64,-796.289"/>
<polygon fill="midnightblue" stroke="midnightblue" points="2464.41,-797.647 2471.3,-805.693 2470.93,-795.105 2464.41,-797.647"/>
</g>
<!-- Node849&#45;&gt;Node815 -->
<g id="edge142" class="edge"><title>Node849&#45;&gt;Node815</title>
<path fill="none" stroke="midnightblue" d="M2005.45,-179.108C2024.98,-190.1 2058.08,-208.514 2087,-223.5 2157.06,-259.81 2676,-473.644 2725,-535.5 2790.03,-617.601 2832.9,-957.26 2842.8,-1042.85"/>
<polygon fill="midnightblue" stroke="midnightblue" points="2839.35,-1043.45 2843.96,-1052.99 2846.3,-1042.66 2839.35,-1043.45"/>
</g>
<!-- Node850 -->
<g id="node43" class="node"><title>Node850</title>
<g id="a_node43"><a xlink:href="classds_1_1_iterator_partition_linked.html#ad171cb96653fadaec272389381a4f8b4" target="_top" xlink:title="ds::IteratorPartitionLinked\l::begin">
<polygon fill="white" stroke="black" points="2410.5,-186.5 2410.5,-216.5 2541.5,-216.5 2541.5,-186.5 2410.5,-186.5"/>
<text text-anchor="start" x="2418.5" y="-204.5" font-family="Helvetica,sans-Serif" font-size="10.00">ds::IteratorPartitionLinked</text>
<text text-anchor="middle" x="2476" y="-193.5" font-family="Helvetica,sans-Serif" font-size="10.00">::begin</text>
</a>
</g>
</g>
<!-- Node849&#45;&gt;Node850 -->
<g id="edge124" class="edge"><title>Node849&#45;&gt;Node850</title>
<path fill="none" stroke="midnightblue" d="M2019.88,-179.104C2066.64,-192.862 2157.61,-217.512 2237,-226.5 2288.23,-232.3 2301.71,-231.701 2353,-226.5 2369.57,-224.82 2387.21,-221.888 2403.78,-218.61"/>
<polygon fill="midnightblue" stroke="midnightblue" points="2404.84,-221.965 2413.93,-216.532 2403.44,-215.107 2404.84,-221.965"/>
</g>
<!-- Node851 -->
<g id="node44" class="node"><title>Node851</title>
<g id="a_node44"><a xlink:href="namespaceum.html#a5079e5e39be0feefeda22a8033fd28be" target="_top" xlink:title="um::diameterClusterK">
<polygon fill="white" stroke="black" points="2087,-122 2087,-141 2201,-141 2201,-122 2087,-122"/>
<text text-anchor="middle" x="2144" y="-129" font-family="Helvetica,sans-Serif" font-size="10.00">um::diameterClusterK</text>
</a>
</g>
</g>
<!-- Node849&#45;&gt;Node851 -->
<g id="edge125" class="edge"><title>Node849&#45;&gt;Node851</title>
<path fill="none" stroke="midnightblue" d="M2027.49,-159.911C2047.78,-154.919 2072.79,-148.768 2094.35,-143.467"/>
<polygon fill="midnightblue" stroke="midnightblue" points="2095.42,-146.807 2104.29,-141.02 2093.75,-140.01 2095.42,-146.807"/>
</g>
<!-- Node853 -->
<g id="node46" class="node"><title>Node853</title>
<g id="a_node46"><a xlink:href="classds_1_1_iterator_partition_linked.html#af0e179fae69c0d4f047082ee44783613" target="_top" xlink:title="ds::IteratorPartitionLinked::end">
<polygon fill="white" stroke="black" points="2399,-148 2399,-167 2553,-167 2553,-148 2399,-148"/>
<text text-anchor="middle" x="2476" y="-155" font-family="Helvetica,sans-Serif" font-size="10.00">ds::IteratorPartitionLinked::end</text>
</a>
</g>
</g>
<!-- Node849&#45;&gt;Node853 -->
<g id="edge141" class="edge"><title>Node849&#45;&gt;Node853</title>
<path fill="none" stroke="midnightblue" d="M2051.11,-167.956C2136.99,-165.837 2291.7,-162.021 2388.57,-159.632"/>
<polygon fill="midnightblue" stroke="midnightblue" points="2388.72,-163.129 2398.63,-159.384 2388.55,-156.131 2388.72,-163.129"/>
</g>
<!-- Node854 -->
<g id="node47" class="node"><title>Node854</title>
<g id="a_node47"><a xlink:href="classds_1_1_iterator_partition_linked.html#a1a031c033d0d2d1c6982ced4e0473831" target="_top" xlink:title="ds::IteratorPartitionLinked\l::getValue">
<polygon fill="white" stroke="black" points="2410.5,-98.5 2410.5,-128.5 2541.5,-128.5 2541.5,-98.5 2410.5,-98.5"/>
<text text-anchor="start" x="2418.5" y="-116.5" font-family="Helvetica,sans-Serif" font-size="10.00">ds::IteratorPartitionLinked</text>
<text text-anchor="middle" x="2476" y="-105.5" font-family="Helvetica,sans-Serif" font-size="10.00">::getValue</text>
</a>
</g>
</g>
<!-- Node849&#45;&gt;Node854 -->
<g id="edge145" class="edge"><title>Node849&#45;&gt;Node854</title>
<path fill="none" stroke="midnightblue" d="M2000.31,-159.85C2017.91,-146.155 2052.65,-121.722 2087,-112.5 2192.69,-84.1241 2320.49,-92.1652 2399.78,-101.831"/>
<polygon fill="midnightblue" stroke="midnightblue" points="2399.8,-105.361 2410.16,-103.139 2400.67,-98.4158 2399.8,-105.361"/>
</g>
<!-- Node855 -->
<g id="node48" class="node"><title>Node855</title>
<g id="a_node48"><a xlink:href="classds_1_1_iterator_partition_linked.html#a83b887be41c97dc0bdfc47a02abbc383" target="_top" xlink:title="ds::IteratorPartitionLinked\l::next">
<polygon fill="white" stroke="black" points="2410.5,-49.5 2410.5,-79.5 2541.5,-79.5 2541.5,-49.5 2410.5,-49.5"/>
<text text-anchor="start" x="2418.5" y="-67.5" font-family="Helvetica,sans-Serif" font-size="10.00">ds::IteratorPartitionLinked</text>
<text text-anchor="middle" x="2476" y="-56.5" font-family="Helvetica,sans-Serif" font-size="10.00">::next</text>
</a>
</g>
</g>
<!-- Node849&#45;&gt;Node855 -->
<g id="edge146" class="edge"><title>Node849&#45;&gt;Node855</title>
<path fill="none" stroke="midnightblue" d="M1996.81,-159.879C2012.44,-142.562 2048.15,-106.551 2087,-91.5 2190.1,-51.5558 2320.05,-51.6644 2400.32,-56.93"/>
<polygon fill="midnightblue" stroke="midnightblue" points="2400.12,-60.4245 2410.34,-57.6312 2400.61,-53.4416 2400.12,-60.4245"/>
</g>
<!-- Node863 -->
<g id="node50" class="node"><title>Node863</title>
<g id="a_node50"><a xlink:href="classds_1_1_partition_linked.html#a696f58c4d25fd41adf281d1468440dc9" target="_top" xlink:title="ds::PartitionLinked\l::getNumPartitions">
<polygon fill="white" stroke="black" points="2426,-0.5 2426,-30.5 2526,-30.5 2526,-0.5 2426,-0.5"/>
<text text-anchor="start" x="2434" y="-18.5" font-family="Helvetica,sans-Serif" font-size="10.00">ds::PartitionLinked</text>
<text text-anchor="middle" x="2476" y="-7.5" font-family="Helvetica,sans-Serif" font-size="10.00">::getNumPartitions</text>
</a>
</g>
</g>
<!-- Node849&#45;&gt;Node863 -->
<g id="edge144" class="edge"><title>Node849&#45;&gt;Node863</title>
<path fill="none" stroke="midnightblue" d="M1993.88,-159.819C2006.7,-137.784 2041.43,-83.9784 2087,-60.5 2192.87,-5.96064 2336.07,-5.07232 2415.57,-9.89192"/>
<polygon fill="midnightblue" stroke="midnightblue" points="2415.68,-13.4063 2425.89,-10.5713 2416.14,-6.42146 2415.68,-13.4063"/>
</g>
<!-- Node851&#45;&gt;Node810 -->
<g id="edge126" class="edge"><title>Node851&#45;&gt;Node810</title>
<path fill="none" stroke="midnightblue" d="M2145.29,-141.224C2148.43,-243.382 2176.97,-1117.95 2237,-1214.5 2268.8,-1265.64 2316.1,-1236.92 2353,-1284.5 2387.12,-1328.5 2355.82,-1359.79 2389,-1404.5 2402.91,-1423.24 2424.94,-1437.67 2443.21,-1447.32"/>
<polygon fill="midnightblue" stroke="midnightblue" points="2441.86,-1450.56 2452.37,-1451.93 2445.01,-1444.31 2441.86,-1450.56"/>
</g>
<!-- Node852 -->
<g id="node45" class="node"><title>Node852</title>
<g id="a_node45"><a xlink:href="namespaceum.html#ac9c4b9777bb97ada898b3d1bc2621996" target="_top" xlink:title="um::diameterClusterKj">
<polygon fill="white" stroke="red" points="2237,-198 2237,-217 2353,-217 2353,-198 2237,-198"/>
<text text-anchor="middle" x="2295" y="-205" font-family="Helvetica,sans-Serif" font-size="10.00">um::diameterClusterKj</text>
</a>
</g>
</g>
<!-- Node851&#45;&gt;Node852 -->
<g id="edge127" class="edge"><title>Node851&#45;&gt;Node852</title>
<path fill="none" stroke="midnightblue" d="M2163.87,-141.125C2189.73,-154.317 2236.37,-178.107 2266.23,-193.334"/>
<polygon fill="midnightblue" stroke="midnightblue" points="2264.78,-196.527 2275.28,-197.953 2267.96,-190.291 2264.78,-196.527"/>
</g>
<!-- Node862 -->
<g id="node49" class="node"><title>Node862</title>
<g id="a_node49"><a xlink:href="namespaceum.html#aa66fd9714651a71aaa33964fa0ab7012" target="_top" xlink:title="The Dunn Index (DI) &#160;. ">
<polygon fill="white" stroke="black" points="2253,-122 2253,-141 2337,-141 2337,-122 2253,-122"/>
<text text-anchor="middle" x="2295" y="-129" font-family="Helvetica,sans-Serif" font-size="10.00">um::DunnIndex</text>
</a>
</g>
</g>
<!-- Node851&#45;&gt;Node862 -->
<g id="edge134" class="edge"><title>Node851&#45;&gt;Node862</title>
<path fill="none" stroke="midnightblue" d="M2201.33,-131.5C2214.86,-131.5 2229.23,-131.5 2242.52,-131.5"/>
<polygon fill="midnightblue" stroke="midnightblue" points="2242.92,-135 2252.92,-131.5 2242.92,-128 2242.92,-135"/>
</g>
<!-- Node851&#45;&gt;Node863 -->
<g id="edge140" class="edge"><title>Node851&#45;&gt;Node863</title>
<path fill="none" stroke="midnightblue" d="M2168.31,-121.921C2211.44,-104.373 2306.82,-66.4013 2389,-39.5 2397.65,-36.6668 2406.87,-33.87 2415.92,-31.2421"/>
<polygon fill="midnightblue" stroke="midnightblue" points="2417,-34.574 2425.66,-28.4631 2415.08,-27.843 2417,-34.574"/>
</g>
<!-- Node852&#45;&gt;Node804 -->
<g id="edge131" class="edge"><title>Node852&#45;&gt;Node804</title>
<path fill="none" stroke="midnightblue" d="M2298.81,-217.05C2318.96,-285.497 2441.41,-701.408 2469.33,-796.256"/>
<polygon fill="midnightblue" stroke="midnightblue" points="2466.01,-797.366 2472.19,-805.971 2472.73,-795.389 2466.01,-797.366"/>
</g>
<!-- Node852&#45;&gt;Node815 -->
<g id="edge130" class="edge"><title>Node852&#45;&gt;Node815</title>
<path fill="none" stroke="midnightblue" d="M2322.36,-217.059C2398.41,-246.086 2619.52,-340.924 2725,-497.5 2787.8,-590.72 2832.63,-953.928 2842.81,-1042.8"/>
<polygon fill="midnightblue" stroke="midnightblue" points="2839.34,-1043.31 2843.95,-1052.86 2846.3,-1042.53 2839.34,-1043.31"/>
</g>
<!-- Node852&#45;&gt;Node850 -->
<g id="edge128" class="edge"><title>Node852&#45;&gt;Node850</title>
<path fill="none" stroke="midnightblue" d="M2353.13,-205.585C2368.07,-205.084 2384.4,-204.537 2400.11,-204.01"/>
<polygon fill="midnightblue" stroke="midnightblue" points="2400.45,-207.501 2410.33,-203.668 2400.22,-200.505 2400.45,-207.501"/>
</g>
<!-- Node852&#45;&gt;Node853 -->
<g id="edge129" class="edge"><title>Node852&#45;&gt;Node853</title>
<path fill="none" stroke="midnightblue" d="M2322.23,-197.941C2340.74,-191.399 2366.2,-182.801 2389,-176.5 2398.19,-173.961 2408,-171.532 2417.59,-169.31"/>
<polygon fill="midnightblue" stroke="midnightblue" points="2418.49,-172.695 2427.47,-167.073 2416.94,-165.868 2418.49,-172.695"/>
</g>
<!-- Node852&#45;&gt;Node854 -->
<g id="edge132" class="edge"><title>Node852&#45;&gt;Node854</title>
<path fill="none" stroke="midnightblue" d="M2306.33,-197.857C2322.68,-183.086 2356.04,-154.853 2389,-138.5 2393.67,-136.184 2398.59,-134.045 2403.61,-132.078"/>
<polygon fill="midnightblue" stroke="midnightblue" points="2405.18,-135.23 2413.37,-128.504 2402.78,-128.657 2405.18,-135.23"/>
</g>
<!-- Node852&#45;&gt;Node855 -->
<g id="edge133" class="edge"><title>Node852&#45;&gt;Node855</title>
<path fill="none" stroke="midnightblue" d="M2307.37,-197.755C2319.55,-186.968 2339.01,-168.691 2353,-150.5 2372.43,-125.245 2363.8,-107.997 2389,-88.5 2392.79,-85.5716 2396.91,-83.0004 2401.23,-80.7429"/>
<polygon fill="midnightblue" stroke="midnightblue" points="2402.74,-83.9042 2410.35,-76.5358 2399.8,-77.5485 2402.74,-83.9042"/>
</g>
<!-- Node862&#45;&gt;Node850 -->
<g id="edge135" class="edge"><title>Node862&#45;&gt;Node850</title>
<path fill="none" stroke="midnightblue" d="M2313.44,-141.031C2331.84,-150.827 2361.88,-166.08 2389,-176.5 2395.24,-178.898 2401.81,-181.195 2408.43,-183.359"/>
<polygon fill="midnightblue" stroke="midnightblue" points="2407.52,-186.744 2418.11,-186.428 2409.64,-180.071 2407.52,-186.744"/>
</g>
<!-- Node862&#45;&gt;Node853 -->
<g id="edge136" class="edge"><title>Node862&#45;&gt;Node853</title>
<path fill="none" stroke="midnightblue" d="M2337.07,-137.465C2355.6,-140.157 2378.1,-143.425 2399.5,-146.534"/>
<polygon fill="midnightblue" stroke="midnightblue" points="2399.17,-150.022 2409.57,-147.996 2400.18,-143.095 2399.17,-150.022"/>
</g>
<!-- Node862&#45;&gt;Node854 -->
<g id="edge138" class="edge"><title>Node862&#45;&gt;Node854</title>
<path fill="none" stroke="midnightblue" d="M2337.07,-127.37C2355.78,-125.489 2378.53,-123.201 2400.12,-121.03"/>
<polygon fill="midnightblue" stroke="midnightblue" points="2400.67,-124.492 2410.27,-120.009 2399.97,-117.528 2400.67,-124.492"/>
</g>
<!-- Node862&#45;&gt;Node855 -->
<g id="edge139" class="edge"><title>Node862&#45;&gt;Node855</title>
<path fill="none" stroke="midnightblue" d="M2314.51,-121.865C2333.01,-112.49 2362.46,-98.2677 2389,-88.5 2394.59,-86.4423 2400.44,-84.4615 2406.35,-82.5808"/>
<polygon fill="midnightblue" stroke="midnightblue" points="2407.78,-85.8026 2416.31,-79.5144 2405.72,-79.1126 2407.78,-85.8026"/>
</g>
<!-- Node862&#45;&gt;Node863 -->
<g id="edge137" class="edge"><title>Node862&#45;&gt;Node863</title>
<path fill="none" stroke="midnightblue" d="M2303.02,-121.818C2317.14,-103.05 2350.9,-61.6241 2389,-39.5 2397.36,-34.6474 2406.74,-30.7349 2416.16,-27.5925"/>
<polygon fill="midnightblue" stroke="midnightblue" points="2417.42,-30.869 2425.95,-24.5893 2415.36,-24.177 2417.42,-30.869"/>
</g>
</g>
</svg>
