<?xml version="1.0" encoding="UTF-8" standalone="no"?>
<!DOCTYPE svg PUBLIC "-//W3C//DTD SVG 1.1//EN"
 "http://www.w3.org/Graphics/SVG/1.1/DTD/svg11.dtd">
<!-- Generated by graphviz version 2.38.0 (20140413.2041)
 -->
<!-- Title: gabinaryop::bitMutation Pages: 1 -->
<!--zoomable 267 -->
<svg id="main" version="1.1" xmlns="http://www.w3.org/2000/svg" xmlns:xlink="http://www.w3.org/1999/xlink" xml:space="preserve" onload="init(evt)">
<style type="text/css"><![CDATA[
.edge:hover path { stroke: red; }
.edge:hover polygon { stroke: red; fill: red; }
]]></style>
<script type="text/javascript"><![CDATA[
var edges = document.getElementsByTagName('g');
if (edges && edges.length) {
  for (var i=0;i<edges.length;i++) {
    if (edges[i].id.substr(0,4)=='edge') {
      edges[i].setAttribute('class','edge');
    }
  }
}
]]></script>
        <defs>
                <circle id="rim" cx="0" cy="0" r="7"/>
                <circle id="rim2" cx="0" cy="0" r="3.5"/>
                <g id="zoomPlus">
                        <use xlink:href="#rim" fill="#404040">
                                <set attributeName="fill" to="#808080" begin="zoomplus.mouseover" end="zoomplus.mouseout"/>
                        </use>
                        <path d="M-4,0h8M0,-4v8" fill="none" stroke="white" stroke-width="1.5" pointer-events="none"/>
                </g>
                <g id="zoomMin">
                        <use xlink:href="#rim" fill="#404040">
                                <set attributeName="fill" to="#808080" begin="zoomminus.mouseover" end="zoomminus.mouseout"/>
                        </use>
                        <path d="M-4,0h8" fill="none" stroke="white" stroke-width="1.5" pointer-events="none"/>
                </g>
                <g id="dirArrow">
                        <path fill="none" stroke="white" stroke-width="1.5" d="M0,-3.0v7 M-2.5,-0.5L0,-3.0L2.5,-0.5"/>
                </g>
               <g id="resetDef">
                       <use xlink:href="#rim2" fill="#404040">
                               <set attributeName="fill" to="#808080" begin="reset.mouseover" end="reset.mouseout"/>
                       </use>
               </g>
        </defs>

<script type="text/javascript">
var viewWidth = 683;
var viewHeight = 267;
var sectionId = 'dynsection-0';
</script>
<script xlink:href="svgpan.js"/>
<svg id="graph" class="graph">
<g id="viewport">
<title>gabinaryop::bitMutation</title>
<polygon fill="white" stroke="none" points="-4,4 -4,-263.106 679,-263.106 679,4 -4,4"/>
<!-- Node0 -->
<g id="node1" class="node"><title>Node0</title>
<polygon fill="#bfbfbf" stroke="black" points="0,-133.5 0,-152.5 120,-152.5 120,-133.5 0,-133.5"/>
<text text-anchor="middle" x="60" y="-140.5" font-family="Helvetica,sans-Serif" font-size="10.00">gabinaryop::bitMutation</text>
</g>
<!-- Node1 -->
<g id="node2" class="node"><title>Node1</title>
<g id="a_node2"><a xlink:href="classmat_1_1_crisp_matrix.html#a071172446a7de33d059aa8c7e6c65c05" target="_top" xlink:title="mat::CrispMatrix::getMember">
<polygon fill="white" stroke="black" points="344,-114.5 344,-133.5 490,-133.5 490,-114.5 344,-114.5"/>
<text text-anchor="middle" x="417" y="-121.5" font-family="Helvetica,sans-Serif" font-size="10.00">mat::CrispMatrix::getMember</text>
</a>
</g>
</g>
<!-- Node0&#45;&gt;Node1 -->
<g id="edge1" class="edge"><title>Node0&#45;&gt;Node1</title>
<path fill="none" stroke="midnightblue" d="M120.02,-139.841C178.41,-136.716 268.28,-131.906 333.676,-128.406"/>
<polygon fill="midnightblue" stroke="midnightblue" points="334.155,-131.886 343.953,-127.856 333.781,-124.896 334.155,-131.886"/>
</g>
<!-- Node2 -->
<g id="node3" class="node"><title>Node2</title>
<g id="a_node3"><a xlink:href="classmat_1_1_bit_matrix.html#ae23601eca8a5adfbed3749b163f0d5d6" target="_top" xlink:title="mat::BitMatrix::getNumRows">
<polygon fill="white" stroke="black" points="532,-228.5 532,-247.5 675,-247.5 675,-228.5 532,-228.5"/>
<text text-anchor="middle" x="603.5" y="-235.5" font-family="Helvetica,sans-Serif" font-size="10.00">mat::BitMatrix::getNumRows</text>
</a>
</g>
</g>
<!-- Node0&#45;&gt;Node2 -->
<g id="edge4" class="edge"><title>Node0&#45;&gt;Node2</title>
<path fill="none" stroke="midnightblue" d="M69.5349,-152.758C84.9098,-169.591 119.11,-203.746 156,-219 282.168,-271.171 445.851,-260.597 535.863,-248.887"/>
<polygon fill="midnightblue" stroke="midnightblue" points="536.492,-252.334 545.935,-247.531 535.558,-245.397 536.492,-252.334"/>
</g>
<!-- Node3 -->
<g id="node4" class="node"><title>Node3</title>
<g id="a_node4"><a xlink:href="classmat_1_1_bit_matrix.html#acb0438a8816d82379fab71120540fcd1" target="_top" xlink:title="mat::BitMatrix::getNumColumns">
<polygon fill="white" stroke="black" points="338,-152.5 338,-171.5 496,-171.5 496,-152.5 338,-152.5"/>
<text text-anchor="middle" x="417" y="-159.5" font-family="Helvetica,sans-Serif" font-size="10.00">mat::BitMatrix::getNumColumns</text>
</a>
</g>
</g>
<!-- Node0&#45;&gt;Node3 -->
<g id="edge3" class="edge"><title>Node0&#45;&gt;Node3</title>
<path fill="none" stroke="midnightblue" d="M120.02,-146.159C176.632,-149.189 262.836,-153.803 327.636,-157.271"/>
<polygon fill="midnightblue" stroke="midnightblue" points="327.672,-160.777 337.844,-157.817 328.046,-153.787 327.672,-160.777"/>
</g>
<!-- Node4 -->
<g id="node5" class="node"><title>Node4</title>
<g id="a_node5"><a xlink:href="namespaceprob.html#abffb9a5b780336aceaf8eb78387dcd0c" target="_top" xlink:title="A random different than a given at_unlike. ">
<polygon fill="white" stroke="black" points="175,-19.5 175,-38.5 283,-38.5 283,-19.5 175,-19.5"/>
<text text-anchor="middle" x="229" y="-26.5" font-family="Helvetica,sans-Serif" font-size="10.00">prob::getRandUnlike</text>
</a>
</g>
</g>
<!-- Node0&#45;&gt;Node4 -->
<g id="edge5" class="edge"><title>Node0&#45;&gt;Node4</title>
<path fill="none" stroke="midnightblue" d="M71.6036,-133.402C88.6394,-118.245 123.496,-88.304 156,-67 169.413,-58.2091 185.079,-49.7461 198.367,-43.0472"/>
<polygon fill="midnightblue" stroke="midnightblue" points="200.145,-46.0728 207.556,-38.5017 197.041,-39.7984 200.145,-46.0728"/>
</g>
<!-- Node7 -->
<g id="node8" class="node"><title>Node7</title>
<g id="a_node8"><a xlink:href="classmat_1_1_bit_matrix.html#ab66a697bd20fd702cb32494da920b1af" target="_top" xlink:title="mat::BitMatrix::print">
<polygon fill="white" stroke="black" points="178.5,-190.5 178.5,-209.5 279.5,-209.5 279.5,-190.5 178.5,-190.5"/>
<text text-anchor="middle" x="229" y="-197.5" font-family="Helvetica,sans-Serif" font-size="10.00">mat::BitMatrix::print</text>
</a>
</g>
</g>
<!-- Node0&#45;&gt;Node7 -->
<g id="edge8" class="edge"><title>Node0&#45;&gt;Node7</title>
<path fill="none" stroke="midnightblue" d="M88.4062,-152.622C107.366,-159.254 133.19,-168.237 156,-176 166.792,-179.673 178.512,-183.604 189.302,-187.2"/>
<polygon fill="midnightblue" stroke="midnightblue" points="188.301,-190.556 198.895,-190.391 190.511,-183.913 188.301,-190.556"/>
</g>
<!-- Node9 -->
<g id="node10" class="node"><title>Node9</title>
<g id="a_node10"><a xlink:href="classmat_1_1_crisp_matrix.html#ac115db75190deabcb799c6bc92f49cec" target="_top" xlink:title="mat::CrispMatrix::setMember">
<polygon fill="white" stroke="black" points="156,-76.5 156,-95.5 302,-95.5 302,-76.5 156,-76.5"/>
<text text-anchor="middle" x="229" y="-83.5" font-family="Helvetica,sans-Serif" font-size="10.00">mat::CrispMatrix::setMember</text>
</a>
</g>
</g>
<!-- Node0&#45;&gt;Node9 -->
<g id="edge12" class="edge"><title>Node0&#45;&gt;Node9</title>
<path fill="none" stroke="midnightblue" d="M88.4062,-133.378C107.366,-126.746 133.19,-117.763 156,-110 166.792,-106.327 178.512,-102.396 189.302,-98.8001"/>
<polygon fill="midnightblue" stroke="midnightblue" points="190.511,-102.087 198.895,-95.6093 188.301,-95.4443 190.511,-102.087"/>
</g>
<!-- Node1&#45;&gt;Node2 -->
<g id="edge2" class="edge"><title>Node1&#45;&gt;Node2</title>
<path fill="none" stroke="midnightblue" d="M472.135,-133.519C480.379,-136.002 488.597,-139.111 496,-143 533.76,-162.835 568.895,-198.952 587.861,-220.484"/>
<polygon fill="midnightblue" stroke="midnightblue" points="585.346,-222.928 594.527,-228.216 590.648,-218.357 585.346,-222.928"/>
</g>
<!-- Node5 -->
<g id="node6" class="node"><title>Node5</title>
<g id="a_node6"><a xlink:href="namespaceprob.html#a7fd4fb1dca3ca869c8cbb930c031a837" target="_top" xlink:title="Selection a random un like to set items. ">
<polygon fill="white" stroke="black" points="355.5,-0.5 355.5,-19.5 478.5,-19.5 478.5,-0.5 355.5,-0.5"/>
<text text-anchor="middle" x="417" y="-7.5" font-family="Helvetica,sans-Serif" font-size="10.00">prob::getRandSetUnlike</text>
</a>
</g>
</g>
<!-- Node4&#45;&gt;Node5 -->
<g id="edge6" class="edge"><title>Node4&#45;&gt;Node5</title>
<path fill="none" stroke="midnightblue" d="M283.3,-23.5554C302.673,-21.5764 324.876,-19.3084 345.506,-17.201"/>
<polygon fill="midnightblue" stroke="midnightblue" points="345.896,-20.6795 355.489,-16.1813 345.185,-13.7157 345.896,-20.6795"/>
</g>
<!-- Node6 -->
<g id="node7" class="node"><title>Node6</title>
<g id="a_node7"><a xlink:href="namespaceprob.html#a5d7baf9636f685ea992784431fca725c" target="_top" xlink:title="Selection a pair random index. ">
<polygon fill="white" stroke="black" points="541.5,-0.5 541.5,-19.5 665.5,-19.5 665.5,-0.5 541.5,-0.5"/>
<text text-anchor="middle" x="603.5" y="-7.5" font-family="Helvetica,sans-Serif" font-size="10.00">prob::getElitistPairCross</text>
</a>
</g>
</g>
<!-- Node5&#45;&gt;Node6 -->
<g id="edge7" class="edge"><title>Node5&#45;&gt;Node6</title>
<path fill="none" stroke="midnightblue" d="M478.668,-10C495.525,-10 513.982,-10 531.38,-10"/>
<polygon fill="midnightblue" stroke="midnightblue" points="531.481,-13.5001 541.48,-10 531.48,-6.5001 531.481,-13.5001"/>
</g>
<!-- Node7&#45;&gt;Node2 -->
<g id="edge10" class="edge"><title>Node7&#45;&gt;Node2</title>
<path fill="none" stroke="midnightblue" d="M277.959,-209.524C296.634,-212.947 318.255,-216.561 338,-219 399.362,-226.581 469.134,-231.437 521.606,-234.341"/>
<polygon fill="midnightblue" stroke="midnightblue" points="521.687,-237.85 531.862,-234.896 522.065,-230.86 521.687,-237.85"/>
</g>
<!-- Node7&#45;&gt;Node3 -->
<g id="edge9" class="edge"><title>Node7&#45;&gt;Node3</title>
<path fill="none" stroke="midnightblue" d="M276.936,-190.411C302.033,-185.284 333.119,-178.933 359.53,-173.537"/>
<polygon fill="midnightblue" stroke="midnightblue" points="360.305,-176.951 369.402,-171.52 358.904,-170.093 360.305,-176.951"/>
</g>
<!-- Node8 -->
<g id="node9" class="node"><title>Node8</title>
<g id="a_node9"><a xlink:href="classmat_1_1_bit_matrix.html#a5607bb84d71c58751390be62e798dd11" target="_top" xlink:title="mat::BitMatrix::getRow">
<polygon fill="white" stroke="black" points="358,-190.5 358,-209.5 476,-209.5 476,-190.5 358,-190.5"/>
<text text-anchor="middle" x="417" y="-197.5" font-family="Helvetica,sans-Serif" font-size="10.00">mat::BitMatrix::getRow</text>
</a>
</g>
</g>
<!-- Node7&#45;&gt;Node8 -->
<g id="edge11" class="edge"><title>Node7&#45;&gt;Node8</title>
<path fill="none" stroke="midnightblue" d="M279.845,-200C300.654,-200 325.168,-200 347.619,-200"/>
<polygon fill="midnightblue" stroke="midnightblue" points="347.768,-203.5 357.768,-200 347.768,-196.5 347.768,-203.5"/>
</g>
<!-- Node9&#45;&gt;Node1 -->
<g id="edge13" class="edge"><title>Node9&#45;&gt;Node1</title>
<path fill="none" stroke="midnightblue" d="M276.936,-95.589C302.033,-100.716 333.119,-107.067 359.53,-112.463"/>
<polygon fill="midnightblue" stroke="midnightblue" points="358.904,-115.907 369.402,-114.48 360.305,-109.049 358.904,-115.907"/>
</g>
<!-- Node10 -->
<g id="node11" class="node"><title>Node10</title>
<g id="a_node11"><a xlink:href="classmat_1_1_bit_matrix.html#a0dce742eb45542de47869b53a39fb5d6" target="_top" xlink:title="mat::BitMatrix::clearBit">
<polygon fill="white" stroke="black" points="358.5,-76.5 358.5,-95.5 475.5,-95.5 475.5,-76.5 358.5,-76.5"/>
<text text-anchor="middle" x="417" y="-83.5" font-family="Helvetica,sans-Serif" font-size="10.00">mat::BitMatrix::clearBit</text>
</a>
</g>
</g>
<!-- Node9&#45;&gt;Node10 -->
<g id="edge14" class="edge"><title>Node9&#45;&gt;Node10</title>
<path fill="none" stroke="midnightblue" d="M302.179,-86C317.279,-86 333.151,-86 348.09,-86"/>
<polygon fill="midnightblue" stroke="midnightblue" points="348.262,-89.5001 358.262,-86 348.262,-82.5001 348.262,-89.5001"/>
</g>
<!-- Node11 -->
<g id="node12" class="node"><title>Node11</title>
<g id="a_node12"><a xlink:href="classmat_1_1_bit_matrix.html#a023483d27c6b66b43356d6f8b9cbaba8" target="_top" xlink:title="mat::BitMatrix::setBit">
<polygon fill="white" stroke="black" points="363,-38.5 363,-57.5 471,-57.5 471,-38.5 363,-38.5"/>
<text text-anchor="middle" x="417" y="-45.5" font-family="Helvetica,sans-Serif" font-size="10.00">mat::BitMatrix::setBit</text>
</a>
</g>
</g>
<!-- Node9&#45;&gt;Node11 -->
<g id="edge15" class="edge"><title>Node9&#45;&gt;Node11</title>
<path fill="none" stroke="midnightblue" d="M276.936,-76.411C302.033,-71.2835 333.119,-64.9328 359.53,-59.5368"/>
<polygon fill="midnightblue" stroke="midnightblue" points="360.305,-62.951 369.402,-57.5201 358.904,-56.0926 360.305,-62.951"/>
</g>
</g>
</svg>
        <g id="navigator" transform="translate(0 0)" fill="#404254">
                <rect fill="#f2f5e9" fill-opacity="0.5" stroke="#606060" stroke-width=".5" x="0" y="0" width="60" height="60"/>
                <use id="zoomplus" xlink:href="#zoomPlus" x="17" y="9" onmousedown="handleZoom(evt,'in')"/>
                <use id="zoomminus" xlink:href="#zoomMin" x="42" y="9" onmousedown="handleZoom(evt,'out')"/>
                <use id="reset" xlink:href="#resetDef" x="30" y="36" onmousedown="handleReset()"/>
                <g id="arrowUp" xlink:href="#dirArrow" transform="translate(30 24)" onmousedown="handlePan(0,-1)">
                  <use xlink:href="#rim" fill="#404040">
                        <set attributeName="fill" to="#808080" begin="arrowUp.mouseover" end="arrowUp.mouseout"/>
                  </use>
                  <path fill="none" stroke="white" stroke-width="1.5" d="M0,-3.0v7 M-2.5,-0.5L0,-3.0L2.5,-0.5"/>
                </g>
                <g id="arrowRight" xlink:href="#dirArrow" transform="rotate(90) translate(36 -43)" onmousedown="handlePan(1,0)">
                  <use xlink:href="#rim" fill="#404040">
                        <set attributeName="fill" to="#808080" begin="arrowRight.mouseover" end="arrowRight.mouseout"/>
                  </use>
                  <path fill="none" stroke="white" stroke-width="1.5" d="M0,-3.0v7 M-2.5,-0.5L0,-3.0L2.5,-0.5"/>
                </g>
                <g id="arrowDown" xlink:href="#dirArrow" transform="rotate(180) translate(-30 -48)" onmousedown="handlePan(0,1)">
                  <use xlink:href="#rim" fill="#404040">
                        <set attributeName="fill" to="#808080" begin="arrowDown.mouseover" end="arrowDown.mouseout"/>
                  </use>
                  <path fill="none" stroke="white" stroke-width="1.5" d="M0,-3.0v7 M-2.5,-0.5L0,-3.0L2.5,-0.5"/>
                </g>
                <g id="arrowLeft" xlink:href="#dirArrow" transform="rotate(270) translate(-36 17)" onmousedown="handlePan(-1,0)">
                  <use xlink:href="#rim" fill="#404040">
                        <set attributeName="fill" to="#808080" begin="arrowLeft.mouseover" end="arrowLeft.mouseout"/>
                  </use>
                  <path fill="none" stroke="white" stroke-width="1.5" d="M0,-3.0v7 M-2.5,-0.5L0,-3.0L2.5,-0.5"/>
                </g>
        </g>
        <svg viewBox="0 0 15 15" width="100%" height="30px" preserveAspectRatio="xMaxYMin meet">
         <g id="arrow_out" transform="scale(0.3 0.3)">
          <a xlink:href="namespacegabinaryop_abd722669dfb9fe721294d39bedca7702_cgraph_org.svg" target="_base">
           <rect id="button" ry="5" rx="5" y="6" x="6" height="38" width="38"
                fill="#f2f5e9" fill-opacity="0.5" stroke="#606060" stroke-width="1.0"/>
           <path id="arrow"
             d="M 11.500037,31.436501 C 11.940474,20.09759 22.043105,11.32322 32.158766,21.979434 L 37.068811,17.246167 C 37.068811,17.246167 37.088388,32 37.088388,32 L 22.160133,31.978069 C 22.160133,31.978069 26.997745,27.140456 26.997745,27.140456 C 18.528582,18.264221 13.291696,25.230495 11.500037,31.436501 z"
             style="fill:#404040;"/>
          </a>
         </g>
        </svg>
</svg>
