<?xml version="1.0" encoding="UTF-8" standalone="no"?>
<!DOCTYPE svg PUBLIC "-//W3C//DTD SVG 1.1//EN"
 "http://www.w3.org/Graphics/SVG/1.1/DTD/svg11.dtd">
<!-- Generated by graphviz version 2.38.0 (20140413.2041)
 -->
<!-- Title: gagenericop::GAGRcrossoverpathM1n Pages: 1 -->
<svg width="1740pt" height="773pt"
 viewBox="0.00 0.00 1740.00 772.50" xmlns="http://www.w3.org/2000/svg" xmlns:xlink="http://www.w3.org/1999/xlink">
<g id="graph0" class="graph" transform="scale(1 1) rotate(0) translate(4 768.5)">
<title>gagenericop::GAGRcrossoverpathM1n</title>
<polygon fill="white" stroke="none" points="-4,4 -4,-768.5 1736,-768.5 1736,4 -4,4"/>
<!-- Node0 -->
<g id="node1" class="node"><title>Node0</title>
<polygon fill="#bfbfbf" stroke="black" points="0,-339.5 0,-358.5 193,-358.5 193,-339.5 0,-339.5"/>
<text text-anchor="middle" x="96.5" y="-346.5" font-family="Helvetica,sans-Serif" font-size="10.00">gagenericop::GAGRcrossoverpathM1n</text>
</g>
<!-- Node1 -->
<g id="node2" class="node"><title>Node1</title>
<g id="a_node2"><a xlink:href="namespacegagenericop.html#a8b8c62724e80570f9e1bba39d350c845" target="_top" xlink:title="GAGRcrossoverpathM2n . ">
<polygon fill="white" stroke="black" points="229,-377.5 229,-396.5 422,-396.5 422,-377.5 229,-377.5"/>
<text text-anchor="middle" x="325.5" y="-384.5" font-family="Helvetica,sans-Serif" font-size="10.00">gagenericop::GAGRcrossoverpathM2n</text>
</a>
</g>
</g>
<!-- Node0&#45;&gt;Node1 -->
<g id="edge1" class="edge"><title>Node0&#45;&gt;Node1</title>
<path fill="none" stroke="midnightblue" d="M154.489,-358.54C185.791,-363.78 224.792,-370.309 257.541,-375.791"/>
<polygon fill="midnightblue" stroke="midnightblue" points="257.047,-379.257 267.488,-377.456 258.203,-372.353 257.047,-379.257"/>
</g>
<!-- Node2 -->
<g id="node3" class="node"><title>Node2</title>
<g id="a_node3"><a xlink:href="namespacegagenericop.html#a511232c4212e12892effb533b38f871a" target="_top" xlink:title="gagenericop::pathCrossover">
<polygon fill="white" stroke="black" points="458,-377.5 458,-396.5 604,-396.5 604,-377.5 458,-377.5"/>
<text text-anchor="middle" x="531" y="-384.5" font-family="Helvetica,sans-Serif" font-size="10.00">gagenericop::pathCrossover</text>
</a>
</g>
</g>
<!-- Node1&#45;&gt;Node2 -->
<g id="edge2" class="edge"><title>Node1&#45;&gt;Node2</title>
<path fill="none" stroke="midnightblue" d="M422.291,-380.26C430.793,-380.231 439.35,-380.264 447.725,-380.361"/>
<polygon fill="midnightblue" stroke="midnightblue" points="447.782,-383.862 457.833,-380.51 447.886,-376.863 447.782,-383.862"/>
</g>
<!-- Node2&#45;&gt;Node0 -->
<g id="edge27" class="edge"><title>Node2&#45;&gt;Node0</title>
<path fill="none" stroke="midnightblue" d="M482.86,-377.487C464.005,-374.002 442.044,-370.342 422,-368 349.241,-359.499 266.838,-354.734 203.277,-352.102"/>
<polygon fill="midnightblue" stroke="midnightblue" points="203.375,-348.603 193.242,-351.697 203.093,-355.597 203.375,-348.603"/>
</g>
<!-- Node2&#45;&gt;Node1 -->
<g id="edge30" class="edge"><title>Node2&#45;&gt;Node1</title>
<path fill="none" stroke="midnightblue" d="M457.833,-393.49C449.556,-393.639 440.994,-393.724 432.392,-393.745"/>
<polygon fill="midnightblue" stroke="midnightblue" points="432.293,-390.245 422.291,-393.74 432.289,-397.245 432.293,-390.245"/>
</g>
<!-- Node3 -->
<g id="node4" class="node"><title>Node3</title>
<g id="a_node4"><a xlink:href="classgaencode_1_1_chrom_fixed_length.html#a2d0b4e4d46c2f224ce34cf795407b407" target="_top" xlink:title="gaencode::ChromFixedLength\l::print">
<polygon fill="white" stroke="black" points="643,-734 643,-764 798,-764 798,-734 643,-734"/>
<text text-anchor="start" x="651" y="-752" font-family="Helvetica,sans-Serif" font-size="10.00">gaencode::ChromFixedLength</text>
<text text-anchor="middle" x="720.5" y="-741" font-family="Helvetica,sans-Serif" font-size="10.00">::print</text>
</a>
</g>
</g>
<!-- Node2&#45;&gt;Node3 -->
<g id="edge3" class="edge"><title>Node2&#45;&gt;Node3</title>
<path fill="none" stroke="midnightblue" d="M532.026,-396.687C532.684,-441.19 541.424,-627.997 640,-725 641.092,-726.074 642.23,-727.101 643.409,-728.082"/>
<polygon fill="midnightblue" stroke="midnightblue" points="641.521,-731.033 651.717,-733.914 645.543,-725.304 641.521,-731.033"/>
</g>
<!-- Node4 -->
<g id="node5" class="node"><title>Node4</title>
<g id="a_node5"><a xlink:href="classgaencode_1_1_chrom_fixed_length.html#a406e67fa48d6cdfc7a01f0c6e04f373b" target="_top" xlink:title="gaencode::ChromFixedLength\l::stcgetStringSize">
<polygon fill="white" stroke="black" points="643,-685 643,-715 798,-715 798,-685 643,-685"/>
<text text-anchor="start" x="651" y="-703" font-family="Helvetica,sans-Serif" font-size="10.00">gaencode::ChromFixedLength</text>
<text text-anchor="middle" x="720.5" y="-692" font-family="Helvetica,sans-Serif" font-size="10.00">::stcgetStringSize</text>
</a>
</g>
</g>
<!-- Node2&#45;&gt;Node4 -->
<g id="edge4" class="edge"><title>Node2&#45;&gt;Node4</title>
<path fill="none" stroke="midnightblue" d="M532.655,-396.577C535.922,-436.764 553.937,-593.472 640,-675 641.664,-676.576 643.427,-678.054 645.27,-679.438"/>
<polygon fill="midnightblue" stroke="midnightblue" points="643.5,-682.461 653.803,-684.929 647.288,-676.574 643.5,-682.461"/>
</g>
<!-- Node5 -->
<g id="node6" class="node"><title>Node5</title>
<g id="a_node6"><a xlink:href="namespaceinterfacesse.html#a925f44ed84d40e9af5050fa0e1373396" target="_top" xlink:title="copy array aoarrayt_x in aoarrayt_y of type T ">
<polygon fill="white" stroke="black" points="671,-646.5 671,-665.5 770,-665.5 770,-646.5 671,-646.5"/>
<text text-anchor="middle" x="720.5" y="-653.5" font-family="Helvetica,sans-Serif" font-size="10.00">interfacesse::copy</text>
</a>
</g>
</g>
<!-- Node2&#45;&gt;Node5 -->
<g id="edge5" class="edge"><title>Node2&#45;&gt;Node5</title>
<path fill="none" stroke="midnightblue" d="M533.115,-396.726C537.944,-434.17 560.546,-570.239 640,-637 646.111,-642.135 653.375,-645.931 660.99,-648.728"/>
<polygon fill="midnightblue" stroke="midnightblue" points="660.175,-652.14 670.763,-651.762 662.251,-645.454 660.175,-652.14"/>
</g>
<!-- Node12 -->
<g id="node13" class="node"><title>Node12</title>
<g id="a_node13"><a xlink:href="classgaencode_1_1_chrom_fixed_length.html#a4d1d15f6be16c0d0a23824033993aa71" target="_top" xlink:title="gaencode::ChromFixedLength\l::getString">
<polygon fill="white" stroke="black" points="643,-597 643,-627 798,-627 798,-597 643,-597"/>
<text text-anchor="start" x="651" y="-615" font-family="Helvetica,sans-Serif" font-size="10.00">gaencode::ChromFixedLength</text>
<text text-anchor="middle" x="720.5" y="-604" font-family="Helvetica,sans-Serif" font-size="10.00">::getString</text>
</a>
</g>
</g>
<!-- Node2&#45;&gt;Node12 -->
<g id="edge12" class="edge"><title>Node2&#45;&gt;Node12</title>
<path fill="none" stroke="midnightblue" d="M534.389,-396.59C542.867,-428.63 574.575,-532.984 640,-587 642.05,-588.693 644.216,-590.271 646.469,-591.743"/>
<polygon fill="midnightblue" stroke="midnightblue" points="645.119,-595.002 655.541,-596.909 648.583,-588.919 645.119,-595.002"/>
</g>
<!-- Node13 -->
<g id="node14" class="node"><title>Node13</title>
<g id="a_node14"><a xlink:href="namespacegagenericop.html#a6284f3552c374e022d93d4e13e04e170" target="_top" xlink:title="GAGRx1x2bar Definition 3. . ">
<polygon fill="white" stroke="black" points="647.5,-558.5 647.5,-577.5 793.5,-577.5 793.5,-558.5 647.5,-558.5"/>
<text text-anchor="middle" x="720.5" y="-565.5" font-family="Helvetica,sans-Serif" font-size="10.00">gagenericop::GAGRx1x2bar</text>
</a>
</g>
</g>
<!-- Node2&#45;&gt;Node13 -->
<g id="edge13" class="edge"><title>Node2&#45;&gt;Node13</title>
<path fill="none" stroke="midnightblue" d="M535.567,-396.881C546.397,-425.402 581.765,-508.411 640,-549 642.881,-551.008 645.949,-552.806 649.139,-554.415"/>
<polygon fill="midnightblue" stroke="midnightblue" points="647.839,-557.666 658.404,-558.467 650.645,-551.253 647.839,-557.666"/>
</g>
<!-- Node16 -->
<g id="node17" class="node"><title>Node16</title>
<g id="a_node17"><a xlink:href="classgaencode_1_1_chrom_fixed_length.html#aac60dd08cf0d29f08845a6381d84edad" target="_top" xlink:title="gaencode::ChromFixedLength\l::getStringSize">
<polygon fill="white" stroke="black" points="643,-509 643,-539 798,-539 798,-509 643,-509"/>
<text text-anchor="start" x="651" y="-527" font-family="Helvetica,sans-Serif" font-size="10.00">gaencode::ChromFixedLength</text>
<text text-anchor="middle" x="720.5" y="-516" font-family="Helvetica,sans-Serif" font-size="10.00">::getStringSize</text>
</a>
</g>
</g>
<!-- Node2&#45;&gt;Node16 -->
<g id="edge17" class="edge"><title>Node2&#45;&gt;Node16</title>
<path fill="none" stroke="midnightblue" d="M538.648,-396.653C553.983,-418.204 594.06,-470.573 640,-499 643.364,-501.082 646.917,-503.004 650.579,-504.777"/>
<polygon fill="midnightblue" stroke="midnightblue" points="649.302,-508.039 659.863,-508.883 652.134,-501.638 649.302,-508.039"/>
</g>
<!-- Node17 -->
<g id="node18" class="node"><title>Node17</title>
<g id="a_node18"><a xlink:href="namespaceinout.html#a0c10a45877a347dec0d4ec4e5b05b828" target="_top" xlink:title="inout::containerprint">
<polygon fill="white" stroke="black" points="669,-470.5 669,-489.5 772,-489.5 772,-470.5 669,-470.5"/>
<text text-anchor="middle" x="720.5" y="-477.5" font-family="Helvetica,sans-Serif" font-size="10.00">inout::containerprint</text>
</a>
</g>
</g>
<!-- Node2&#45;&gt;Node17 -->
<g id="edge18" class="edge"><title>Node2&#45;&gt;Node17</title>
<path fill="none" stroke="midnightblue" d="M543.141,-396.726C561.855,-412.558 601.358,-443.852 640,-461 646.1,-463.707 652.643,-466.061 659.258,-468.1"/>
<polygon fill="midnightblue" stroke="midnightblue" points="658.384,-471.49 668.961,-470.866 660.304,-464.758 658.384,-471.49"/>
</g>
<!-- Node18 -->
<g id="node19" class="node"><title>Node18</title>
<g id="a_node19"><a xlink:href="classgaencode_1_1_chrom_fixed_length.html#a5398efa14d86ed2fda30d2fc6f3d1089" target="_top" xlink:title="gaencode::ChromFixedLength\l::setString">
<polygon fill="white" stroke="black" points="643,-421 643,-451 798,-451 798,-421 643,-421"/>
<text text-anchor="start" x="651" y="-439" font-family="Helvetica,sans-Serif" font-size="10.00">gaencode::ChromFixedLength</text>
<text text-anchor="middle" x="720.5" y="-428" font-family="Helvetica,sans-Serif" font-size="10.00">::setString</text>
</a>
</g>
</g>
<!-- Node2&#45;&gt;Node18 -->
<g id="edge19" class="edge"><title>Node2&#45;&gt;Node18</title>
<path fill="none" stroke="midnightblue" d="M568.597,-396.564C592.335,-402.768 623.979,-411.037 652.157,-418.401"/>
<polygon fill="midnightblue" stroke="midnightblue" points="651.401,-421.821 661.961,-420.963 653.17,-415.048 651.401,-421.821"/>
</g>
<!-- Node19 -->
<g id="node20" class="node"><title>Node19</title>
<g id="a_node20"><a xlink:href="classgaencode_1_1_chromosome_base.html#ab136d6f70ea068097d764e5bc34015e1" target="_top" xlink:title="gaencode::ChromosomeBase\l::setFitness">
<polygon fill="white" stroke="black" points="643,-372 643,-402 798,-402 798,-372 643,-372"/>
<text text-anchor="start" x="651" y="-390" font-family="Helvetica,sans-Serif" font-size="10.00">gaencode::ChromosomeBase</text>
<text text-anchor="middle" x="720.5" y="-379" font-family="Helvetica,sans-Serif" font-size="10.00">::setFitness</text>
</a>
</g>
</g>
<!-- Node2&#45;&gt;Node19 -->
<g id="edge20" class="edge"><title>Node2&#45;&gt;Node19</title>
<path fill="none" stroke="midnightblue" d="M604.224,-387C613.543,-387 623.161,-387 632.684,-387"/>
<polygon fill="midnightblue" stroke="midnightblue" points="632.96,-390.5 642.96,-387 632.96,-383.5 632.96,-390.5"/>
</g>
<!-- Node21 -->
<g id="node22" class="node"><title>Node21</title>
<g id="a_node22"><a xlink:href="classgaencode_1_1_chromosome_base.html#a6e201d174946aea43c98dcde4a0088f8" target="_top" xlink:title="gaencode::ChromosomeBase\l::getFitness">
<polygon fill="white" stroke="black" points="643,-323 643,-353 798,-353 798,-323 643,-323"/>
<text text-anchor="start" x="651" y="-341" font-family="Helvetica,sans-Serif" font-size="10.00">gaencode::ChromosomeBase</text>
<text text-anchor="middle" x="720.5" y="-330" font-family="Helvetica,sans-Serif" font-size="10.00">::getFitness</text>
</a>
</g>
</g>
<!-- Node2&#45;&gt;Node21 -->
<g id="edge22" class="edge"><title>Node2&#45;&gt;Node21</title>
<path fill="none" stroke="midnightblue" d="M568.597,-377.436C592.335,-371.232 623.979,-362.963 652.157,-355.599"/>
<polygon fill="midnightblue" stroke="midnightblue" points="653.17,-358.952 661.961,-353.037 651.401,-352.179 653.17,-358.952"/>
</g>
<!-- Node22 -->
<g id="node23" class="node"><title>Node22</title>
<g id="a_node23"><a xlink:href="classgaencode_1_1_chromosome_base.html#a0c0f339b486fb7d097d2afac2539ddc8" target="_top" xlink:title="gaencode::ChromosomeBase\l::setObjetiveFunc">
<polygon fill="white" stroke="black" points="643,-274 643,-304 798,-304 798,-274 643,-274"/>
<text text-anchor="start" x="651" y="-292" font-family="Helvetica,sans-Serif" font-size="10.00">gaencode::ChromosomeBase</text>
<text text-anchor="middle" x="720.5" y="-281" font-family="Helvetica,sans-Serif" font-size="10.00">::setObjetiveFunc</text>
</a>
</g>
</g>
<!-- Node2&#45;&gt;Node22 -->
<g id="edge23" class="edge"><title>Node2&#45;&gt;Node22</title>
<path fill="none" stroke="midnightblue" d="M543.564,-377.275C562.566,-361.726 602.082,-331.174 640,-313 643.984,-311.091 648.153,-309.295 652.405,-307.612"/>
<polygon fill="midnightblue" stroke="midnightblue" points="653.66,-310.88 661.81,-304.11 651.217,-304.32 653.66,-310.88"/>
</g>
<!-- Node23 -->
<g id="node24" class="node"><title>Node23</title>
<g id="a_node24"><a xlink:href="classgaencode_1_1_chromosome_base.html#afc3f7dbd72d88157ba37eb8bea29478e" target="_top" xlink:title="gaencode::ChromosomeBase\l::getObjetiveFunc">
<polygon fill="white" stroke="black" points="643,-225 643,-255 798,-255 798,-225 643,-225"/>
<text text-anchor="start" x="651" y="-243" font-family="Helvetica,sans-Serif" font-size="10.00">gaencode::ChromosomeBase</text>
<text text-anchor="middle" x="720.5" y="-232" font-family="Helvetica,sans-Serif" font-size="10.00">::getObjetiveFunc</text>
</a>
</g>
</g>
<!-- Node2&#45;&gt;Node23 -->
<g id="edge24" class="edge"><title>Node2&#45;&gt;Node23</title>
<path fill="none" stroke="midnightblue" d="M537.732,-377.38C552.002,-354.267 591.486,-295.213 640,-264 642.584,-262.337 645.289,-260.785 648.076,-259.337"/>
<polygon fill="midnightblue" stroke="midnightblue" points="649.644,-262.468 657.214,-255.055 646.674,-256.129 649.644,-262.468"/>
</g>
<!-- Node24 -->
<g id="node25" class="node"><title>Node24</title>
<g id="a_node25"><a xlink:href="classgaencode_1_1_chromosome_base.html#abac472511083c6b8c3cb5208242d0d66" target="_top" xlink:title="gaencode::ChromosomeBase\l::setValidString">
<polygon fill="white" stroke="black" points="643,-176 643,-206 798,-206 798,-176 643,-176"/>
<text text-anchor="start" x="651" y="-194" font-family="Helvetica,sans-Serif" font-size="10.00">gaencode::ChromosomeBase</text>
<text text-anchor="middle" x="720.5" y="-183" font-family="Helvetica,sans-Serif" font-size="10.00">::setValidString</text>
</a>
</g>
</g>
<!-- Node2&#45;&gt;Node24 -->
<g id="edge25" class="edge"><title>Node2&#45;&gt;Node24</title>
<path fill="none" stroke="midnightblue" d="M535.355,-377.107C545.836,-347.709 580.847,-260.122 640,-215 641.816,-213.615 643.712,-212.309 645.671,-211.078"/>
<polygon fill="midnightblue" stroke="midnightblue" points="647.544,-214.042 654.61,-206.148 644.163,-207.913 647.544,-214.042"/>
</g>
<!-- Node25 -->
<g id="node26" class="node"><title>Node25</title>
<g id="a_node26"><a xlink:href="classgaencode_1_1_chromosome_base.html#ac2bfdec82da5c2b4954c58b8ca151498" target="_top" xlink:title="gaencode::ChromosomeBase\l::getValidString">
<polygon fill="white" stroke="black" points="643,-127 643,-157 798,-157 798,-127 643,-127"/>
<text text-anchor="start" x="651" y="-145" font-family="Helvetica,sans-Serif" font-size="10.00">gaencode::ChromosomeBase</text>
<text text-anchor="middle" x="720.5" y="-134" font-family="Helvetica,sans-Serif" font-size="10.00">::getValidString</text>
</a>
</g>
</g>
<!-- Node2&#45;&gt;Node25 -->
<g id="edge26" class="edge"><title>Node2&#45;&gt;Node25</title>
<path fill="none" stroke="midnightblue" d="M533.841,-377.355C540.89,-343.084 569.405,-226.032 640,-166 641.524,-164.704 643.116,-163.478 644.765,-162.318"/>
<polygon fill="midnightblue" stroke="midnightblue" points="646.697,-165.24 653.424,-157.054 643.061,-159.258 646.697,-165.24"/>
</g>
<!-- Node26 -->
<g id="node27" class="node"><title>Node26</title>
<g id="a_node27"><a xlink:href="classgafuncobj_1_1_g_a_function_objective.html#a0f2107d0c918b8514b493f77d8b4c473" target="_top" xlink:title="gafuncobj::GAFunctionObjective\l::getObjetiveFunc">
<polygon fill="white" stroke="black" points="640,-78 640,-108 801,-108 801,-78 640,-78"/>
<text text-anchor="start" x="648" y="-96" font-family="Helvetica,sans-Serif" font-size="10.00">gafuncobj::GAFunctionObjective</text>
<text text-anchor="middle" x="720.5" y="-85" font-family="Helvetica,sans-Serif" font-size="10.00">::getObjetiveFunc</text>
</a>
</g>
</g>
<!-- Node2&#45;&gt;Node26 -->
<g id="edge28" class="edge"><title>Node2&#45;&gt;Node26</title>
<path fill="none" stroke="midnightblue" d="M532.891,-377.466C537.019,-338.829 557.737,-192.376 640,-117 641.279,-115.828 642.613,-114.713 643.995,-113.653"/>
<polygon fill="midnightblue" stroke="midnightblue" points="645.931,-116.569 652.37,-108.155 642.089,-110.717 645.931,-116.569"/>
</g>
<!-- Node27 -->
<g id="node28" class="node"><title>Node27</title>
<g id="a_node28"><a xlink:href="classgafuncobj_1_1_g_a_function_objective.html#abec6f65389554c7b4ac03130ce5dfd4a" target="_top" xlink:title="gafuncobj::GAFunctionObjective\l::getFitness">
<polygon fill="white" stroke="black" points="640,-29 640,-59 801,-59 801,-29 640,-29"/>
<text text-anchor="start" x="648" y="-47" font-family="Helvetica,sans-Serif" font-size="10.00">gafuncobj::GAFunctionObjective</text>
<text text-anchor="middle" x="720.5" y="-36" font-family="Helvetica,sans-Serif" font-size="10.00">::getFitness</text>
</a>
</g>
</g>
<!-- Node2&#45;&gt;Node27 -->
<g id="edge29" class="edge"><title>Node2&#45;&gt;Node27</title>
<path fill="none" stroke="midnightblue" d="M532.238,-377.274C533.832,-334.214 546.071,-158.855 640,-68 641.101,-66.935 642.248,-65.917 643.434,-64.9441"/>
<polygon fill="midnightblue" stroke="midnightblue" points="645.561,-67.7287 651.783,-59.1538 641.571,-61.9766 645.561,-67.7287"/>
</g>
<!-- Node6 -->
<g id="node7" class="node"><title>Node6</title>
<g id="a_node7"><a xlink:href="namespaceinterfacesse.html#afaa45a2a27710ea2dfa979289cf4961d" target="_top" xlink:title="swap items of aoarrayt_y to aiarrayt_x ">
<polygon fill="white" stroke="black" points="864,-646.5 864,-665.5 965,-665.5 965,-646.5 864,-646.5"/>
<text text-anchor="middle" x="914.5" y="-653.5" font-family="Helvetica,sans-Serif" font-size="10.00">interfacesse::swap</text>
</a>
</g>
</g>
<!-- Node5&#45;&gt;Node6 -->
<g id="edge6" class="edge"><title>Node5&#45;&gt;Node6</title>
<path fill="none" stroke="midnightblue" d="M770.446,-656C795.864,-656 827.128,-656 853.939,-656"/>
<polygon fill="midnightblue" stroke="midnightblue" points="853.975,-659.5 863.975,-656 853.975,-652.5 853.975,-659.5"/>
</g>
<!-- Node7 -->
<g id="node8" class="node"><title>Node7</title>
<g id="a_node8"><a xlink:href="namespaceinterfacesse.html#a2f42addf86fc8b9cd0c6620217b8a2db" target="_top" xlink:title="swap items of aoarrayt_y to aiarrayt_x ">
<polygon fill="white" stroke="black" points="1060.5,-646.5 1060.5,-665.5 1152.5,-665.5 1152.5,-646.5 1060.5,-646.5"/>
<text text-anchor="middle" x="1106.5" y="-653.5" font-family="Helvetica,sans-Serif" font-size="10.00">interfacesse::dot</text>
</a>
</g>
</g>
<!-- Node6&#45;&gt;Node7 -->
<g id="edge7" class="edge"><title>Node6&#45;&gt;Node7</title>
<path fill="none" stroke="midnightblue" d="M965.42,-656C991.549,-656 1023.6,-656 1050.45,-656"/>
<polygon fill="midnightblue" stroke="midnightblue" points="1050.46,-659.5 1060.46,-656 1050.46,-652.5 1050.46,-659.5"/>
</g>
<!-- Node8 -->
<g id="node9" class="node"><title>Node8</title>
<g id="a_node9"><a xlink:href="namespaceinterfacesse.html#a25f6950d589b92fd5bcf2007fb3fae19" target="_top" xlink:title="interfacesse::sum">
<polygon fill="white" stroke="black" points="1221,-646.5 1221,-665.5 1317,-665.5 1317,-646.5 1221,-646.5"/>
<text text-anchor="middle" x="1269" y="-653.5" font-family="Helvetica,sans-Serif" font-size="10.00">interfacesse::sum</text>
</a>
</g>
</g>
<!-- Node7&#45;&gt;Node8 -->
<g id="edge8" class="edge"><title>Node7&#45;&gt;Node8</title>
<path fill="none" stroke="midnightblue" d="M1152.64,-656C1170.71,-656 1191.75,-656 1210.87,-656"/>
<polygon fill="midnightblue" stroke="midnightblue" points="1210.97,-659.5 1220.97,-656 1210.97,-652.5 1210.97,-659.5"/>
</g>
<!-- Node9 -->
<g id="node10" class="node"><title>Node9</title>
<g id="a_node10"><a xlink:href="namespaceinterfacesse.html#a9dd5fb43ad8a83ee5cb2f5ba1bb2085b" target="_top" xlink:title="interfacesse::axpy">
<polygon fill="white" stroke="black" points="1353,-646.5 1353,-665.5 1452,-665.5 1452,-646.5 1353,-646.5"/>
<text text-anchor="middle" x="1402.5" y="-653.5" font-family="Helvetica,sans-Serif" font-size="10.00">interfacesse::axpy</text>
</a>
</g>
</g>
<!-- Node8&#45;&gt;Node9 -->
<g id="edge9" class="edge"><title>Node8&#45;&gt;Node9</title>
<path fill="none" stroke="midnightblue" d="M1317.1,-656C1325.47,-656 1334.28,-656 1342.92,-656"/>
<polygon fill="midnightblue" stroke="midnightblue" points="1342.95,-659.5 1352.95,-656 1342.95,-652.5 1342.95,-659.5"/>
</g>
<!-- Node10 -->
<g id="node11" class="node"><title>Node10</title>
<g id="a_node11"><a xlink:href="namespaceinterfacesse.html#ae3f94c42a59db65b2941dbfc9f449ea1" target="_top" xlink:title="function xAXPY of blas for doubles vectors ">
<polygon fill="white" stroke="black" points="1488,-646.5 1488,-665.5 1600,-665.5 1600,-646.5 1488,-646.5"/>
<text text-anchor="middle" x="1544" y="-653.5" font-family="Helvetica,sans-Serif" font-size="10.00">interfacesse::axpyInv</text>
</a>
</g>
</g>
<!-- Node9&#45;&gt;Node10 -->
<g id="edge10" class="edge"><title>Node9&#45;&gt;Node10</title>
<path fill="none" stroke="midnightblue" d="M1452.29,-656C1460.54,-656 1469.21,-656 1477.79,-656"/>
<polygon fill="midnightblue" stroke="midnightblue" points="1477.8,-659.5 1487.8,-656 1477.8,-652.5 1477.8,-659.5"/>
</g>
<!-- Node11 -->
<g id="node12" class="node"><title>Node11</title>
<g id="a_node12"><a xlink:href="namespaceinterfacesse.html#a144ebf70bf38495c3de1aca2c8365e08" target="_top" xlink:title="scal items of the array of type T ">
<polygon fill="white" stroke="black" points="1636,-646.5 1636,-665.5 1732,-665.5 1732,-646.5 1636,-646.5"/>
<text text-anchor="middle" x="1684" y="-653.5" font-family="Helvetica,sans-Serif" font-size="10.00">interfacesse::scal</text>
</a>
</g>
</g>
<!-- Node10&#45;&gt;Node11 -->
<g id="edge11" class="edge"><title>Node10&#45;&gt;Node11</title>
<path fill="none" stroke="midnightblue" d="M1600.33,-656C1608.65,-656 1617.24,-656 1625.6,-656"/>
<polygon fill="midnightblue" stroke="midnightblue" points="1625.65,-659.5 1635.65,-656 1625.65,-652.5 1625.65,-659.5"/>
</g>
<!-- Node14 -->
<g id="node15" class="node"><title>Node14</title>
<g id="a_node15"><a xlink:href="namespacegagenericop.html#ab2a1d4c164a683365b967f6b628a2aa3" target="_top" xlink:title="GAGRx1x2up Definition 4. . ">
<polygon fill="white" stroke="black" points="843,-490.5 843,-509.5 986,-509.5 986,-490.5 843,-490.5"/>
<text text-anchor="middle" x="914.5" y="-497.5" font-family="Helvetica,sans-Serif" font-size="10.00">gagenericop::GAGRx1x2up</text>
</a>
</g>
</g>
<!-- Node13&#45;&gt;Node14 -->
<g id="edge14" class="edge"><title>Node13&#45;&gt;Node14</title>
<path fill="none" stroke="midnightblue" d="M767.712,-558.41C778.727,-555.725 790.368,-552.555 801,-549 830.391,-539.172 862.707,-524.691 885.132,-514.019"/>
<polygon fill="midnightblue" stroke="midnightblue" points="886.905,-517.05 894.397,-509.558 883.868,-510.743 886.905,-517.05"/>
</g>
<!-- Node15 -->
<g id="node16" class="node"><title>Node15</title>
<g id="a_node16"><a xlink:href="namespacegagenericop.html#a6abef6eea408ed118ae420063b36ba17" target="_top" xlink:title="GAGRx1x2down Definition 5. . ">
<polygon fill="white" stroke="black" points="1028,-240.5 1028,-259.5 1185,-259.5 1185,-240.5 1028,-240.5"/>
<text text-anchor="middle" x="1106.5" y="-247.5" font-family="Helvetica,sans-Serif" font-size="10.00">gagenericop::GAGRx1x2down</text>
</a>
</g>
</g>
<!-- Node14&#45;&gt;Node15 -->
<g id="edge15" class="edge"><title>Node14&#45;&gt;Node15</title>
<path fill="none" stroke="midnightblue" d="M924.306,-490.381C938.876,-474.329 968.704,-440.891 992,-411 1031.08,-360.86 1073.25,-298.65 1093.42,-268.333"/>
<polygon fill="midnightblue" stroke="midnightblue" points="1096.55,-269.936 1099.16,-259.667 1090.72,-266.069 1096.55,-269.936"/>
</g>
<!-- Node15&#45;&gt;Node0 -->
<g id="edge16" class="edge"><title>Node15&#45;&gt;Node0</title>
<path fill="none" stroke="midnightblue" d="M1098.09,-240.2C1062.19,-193.978 900.886,-0 721.5,-0 530,-0 530,-0 530,-0 317.594,-0 150.667,-258.086 108.076,-330.38"/>
<polygon fill="midnightblue" stroke="midnightblue" points="104.89,-328.895 102.899,-339.301 110.945,-332.409 104.89,-328.895"/>
</g>
<!-- Node20 -->
<g id="node21" class="node"><title>Node20</title>
<g id="a_node21"><a xlink:href="classgaencode_1_1_chromosome_base.html#ab7a374a062ba8b5c6b4e674bae9a8299" target="_top" xlink:title="gaencode::ChromosomeBase\l::print">
<polygon fill="white" stroke="black" points="837,-372 837,-402 992,-402 992,-372 837,-372"/>
<text text-anchor="start" x="845" y="-390" font-family="Helvetica,sans-Serif" font-size="10.00">gaencode::ChromosomeBase</text>
<text text-anchor="middle" x="914.5" y="-379" font-family="Helvetica,sans-Serif" font-size="10.00">::print</text>
</a>
</g>
</g>
<!-- Node19&#45;&gt;Node20 -->
<g id="edge21" class="edge"><title>Node19&#45;&gt;Node20</title>
<path fill="none" stroke="midnightblue" d="M798.211,-387C807.569,-387 817.183,-387 826.675,-387"/>
<polygon fill="midnightblue" stroke="midnightblue" points="826.911,-390.5 836.911,-387 826.911,-383.5 826.911,-390.5"/>
</g>
</g>
</svg>
