<?xml version="1.0" encoding="UTF-8" standalone="no"?>
<!DOCTYPE svg PUBLIC "-//W3C//DTD SVG 1.1//EN"
 "http://www.w3.org/Graphics/SVG/1.1/DTD/svg11.dtd">
<!-- Generated by graphviz version 2.38.0 (20140413.2041)
 -->
<!-- Title: gaclusteringop::merge Pages: 1 -->
<svg width="318pt" height="176pt"
 viewBox="0.00 0.00 318.00 176.00" xmlns="http://www.w3.org/2000/svg" xmlns:xlink="http://www.w3.org/1999/xlink">
<g id="graph0" class="graph" transform="scale(1 1) rotate(0) translate(4 172)">
<title>gaclusteringop::merge</title>
<polygon fill="white" stroke="none" points="-4,4 -4,-172 314,-172 314,4 -4,4"/>
<!-- Node95 -->
<g id="node1" class="node"><title>Node95</title>
<g id="a_node1"><a xlink:title="Merge two chomosomas.">
<polygon fill="#bfbfbf" stroke="black" points="0,-77 0,-96 118,-96 118,-77 0,-77"/>
<text text-anchor="middle" x="59" y="-84" font-family="Helvetica,sans-Serif" font-size="10.00">gaclusteringop::merge</text>
</a>
</g>
</g>
<!-- Node96 -->
<g id="node2" class="node"><title>Node96</title>
<g id="a_node2"><a xlink:href="classds_1_1_partition_linked_stats.html#acb60261685a91301a4d7a5c046375e31" target="_top" xlink:title=" ">
<polygon fill="white" stroke="black" points="171,-137.5 171,-167.5 293,-167.5 293,-137.5 171,-137.5"/>
<text text-anchor="start" x="179" y="-155.5" font-family="Helvetica,sans-Serif" font-size="10.00">ds::PartitionLinkedStats</text>
<text text-anchor="middle" x="232" y="-144.5" font-family="Helvetica,sans-Serif" font-size="10.00">::getMemberShip</text>
</a>
</g>
</g>
<!-- Node95&#45;&gt;Node96 -->
<g id="edge1" class="edge"><title>Node95&#45;&gt;Node96</title>
<path fill="none" stroke="midnightblue" d="M80.3008,-96.0387C99.1809,-104.746 128.198,-117.711 154,-127.5 159.95,-129.758 166.205,-131.999 172.47,-134.158"/>
<polygon fill="midnightblue" stroke="midnightblue" points="171.686,-137.588 182.281,-137.476 173.929,-130.957 171.686,-137.588"/>
</g>
<!-- Node97 -->
<g id="node3" class="node"><title>Node97</title>
<g id="a_node3"><a xlink:href="classmat_1_1_matrix_base.html#ac500eedd5e203327d3292f8ab22d8f3e" target="_top" xlink:title=" ">
<polygon fill="white" stroke="black" points="154,-99 154,-118 310,-118 310,-99 154,-99"/>
<text text-anchor="middle" x="232" y="-106" font-family="Helvetica,sans-Serif" font-size="10.00">mat::MatrixBase::getNumRows</text>
</a>
</g>
</g>
<!-- Node95&#45;&gt;Node97 -->
<g id="edge2" class="edge"><title>Node95&#45;&gt;Node97</title>
<path fill="none" stroke="midnightblue" d="M118.37,-94.0096C127.562,-95.1922 137.22,-96.4347 146.855,-97.6743"/>
<polygon fill="midnightblue" stroke="midnightblue" points="146.502,-101.158 156.867,-98.9624 147.396,-94.2149 146.502,-101.158"/>
</g>
<!-- Node98 -->
<g id="node4" class="node"><title>Node98</title>
<g id="a_node4"><a xlink:href="classmat_1_1_matrix_resizable_row.html#a9dc9ad27ad33933bfa6c0f483e24cc33" target="_top" xlink:title=" ">
<polygon fill="white" stroke="black" points="166.5,-49.5 166.5,-79.5 297.5,-79.5 297.5,-49.5 166.5,-49.5"/>
<text text-anchor="start" x="174.5" y="-67.5" font-family="Helvetica,sans-Serif" font-size="10.00">mat::MatrixResizableRow</text>
<text text-anchor="middle" x="232" y="-56.5" font-family="Helvetica,sans-Serif" font-size="10.00">::getRow</text>
</a>
</g>
</g>
<!-- Node95&#45;&gt;Node98 -->
<g id="edge3" class="edge"><title>Node95&#45;&gt;Node98</title>
<path fill="none" stroke="midnightblue" d="M118.37,-78.9904C130.585,-77.4189 143.624,-75.7413 156.339,-74.1055"/>
<polygon fill="midnightblue" stroke="midnightblue" points="156.972,-77.553 166.444,-72.8055 156.079,-70.6102 156.972,-77.553"/>
</g>
<!-- Node99 -->
<g id="node5" class="node"><title>Node99</title>
<g id="a_node5"><a xlink:href="classmat_1_1_matrix_resizable_row.html#a7dfaaa9e49857a46c3b3977dd741f5f9" target="_top" xlink:title=" ">
<polygon fill="white" stroke="black" points="166.5,-0.5 166.5,-30.5 297.5,-30.5 297.5,-0.5 166.5,-0.5"/>
<text text-anchor="start" x="174.5" y="-18.5" font-family="Helvetica,sans-Serif" font-size="10.00">mat::MatrixResizableRow</text>
<text text-anchor="middle" x="232" y="-7.5" font-family="Helvetica,sans-Serif" font-size="10.00">::merge</text>
</a>
</g>
</g>
<!-- Node95&#45;&gt;Node99 -->
<g id="edge4" class="edge"><title>Node95&#45;&gt;Node99</title>
<path fill="none" stroke="midnightblue" d="M77.678,-76.9143C96.3208,-67.0289 126.716,-51.5408 154,-40.5 159.509,-38.2708 165.298,-36.0961 171.125,-34.0185"/>
<polygon fill="midnightblue" stroke="midnightblue" points="172.623,-37.2038 180.925,-30.6215 170.33,-30.5899 172.623,-37.2038"/>
</g>
</g>
</svg>
