<?xml version="1.0" encoding="UTF-8" standalone="no"?>
<!DOCTYPE svg PUBLIC "-//W3C//DTD SVG 1.1//EN"
 "http://www.w3.org/Graphics/SVG/1.1/DTD/svg11.dtd">
<!-- Generated by graphviz version 2.38.0 (20140413.2041)
 -->
<!-- Title: clusteringop::randomInitialize Pages: 1 -->
<svg width="504pt" height="180pt"
 viewBox="0.00 0.00 504.00 180.00" xmlns="http://www.w3.org/2000/svg" xmlns:xlink="http://www.w3.org/1999/xlink">
<g id="graph0" class="graph" transform="scale(1 1) rotate(0) translate(4 176)">
<title>clusteringop::randomInitialize</title>
<polygon fill="white" stroke="none" points="-4,4 -4,-176 500,-176 500,4 -4,4"/>
<!-- Node181 -->
<g id="node1" class="node"><title>Node181</title>
<g id="a_node1"><a xlink:title=" ">
<polygon fill="#bfbfbf" stroke="black" points="0,-76.5 0,-95.5 147,-95.5 147,-76.5 0,-76.5"/>
<text text-anchor="middle" x="73.5" y="-83.5" font-family="Helvetica,sans-Serif" font-size="10.00">clusteringop::randomInitialize</text>
</a>
</g>
</g>
<!-- Node182 -->
<g id="node2" class="node"><title>Node182</title>
<g id="a_node2"><a xlink:href="classmat_1_1_bit_matrix.html#acb0438a8816d82379fab71120540fcd1" target="_top" xlink:title=" ">
<polygon fill="white" stroke="black" points="338,-152.5 338,-171.5 496,-171.5 496,-152.5 338,-152.5"/>
<text text-anchor="middle" x="417" y="-159.5" font-family="Helvetica,sans-Serif" font-size="10.00">mat::BitMatrix::getNumColumns</text>
</a>
</g>
</g>
<!-- Node181&#45;&gt;Node182 -->
<g id="edge1" class="edge"><title>Node181&#45;&gt;Node182</title>
<path fill="none" stroke="midnightblue" d="M88.4496,-95.7093C108.38,-109.008 146.627,-132.441 183,-143 229.646,-156.542 283.601,-161.575 327.836,-163.095"/>
<polygon fill="midnightblue" stroke="midnightblue" points="327.891,-166.598 337.988,-163.388 328.093,-159.601 327.891,-166.598"/>
</g>
<!-- Node183 -->
<g id="node3" class="node"><title>Node183</title>
<g id="a_node3"><a xlink:href="classmat_1_1_bit_matrix.html#ae23601eca8a5adfbed3749b163f0d5d6" target="_top" xlink:title=" ">
<polygon fill="white" stroke="black" points="345.5,-57.5 345.5,-76.5 488.5,-76.5 488.5,-57.5 345.5,-57.5"/>
<text text-anchor="middle" x="417" y="-64.5" font-family="Helvetica,sans-Serif" font-size="10.00">mat::BitMatrix::getNumRows</text>
</a>
</g>
</g>
<!-- Node181&#45;&gt;Node183 -->
<g id="edge2" class="edge"><title>Node181&#45;&gt;Node183</title>
<path fill="none" stroke="midnightblue" d="M118.615,-76.4881C138.227,-72.7227 161.662,-68.8542 183,-67 233.379,-62.6222 290.118,-62.52 334.991,-63.5616"/>
<polygon fill="midnightblue" stroke="midnightblue" points="335.166,-67.0671 345.252,-63.8243 335.345,-60.0694 335.166,-67.0671"/>
</g>
<!-- Node184 -->
<g id="node4" class="node"><title>Node184</title>
<g id="a_node4"><a xlink:href="classmat_1_1_bit_matrix.html#a3b57b2184fdf4bac7fb223e0f2d3353b" target="_top" xlink:title=" ">
<polygon fill="white" stroke="black" points="183,-76.5 183,-95.5 302,-95.5 302,-76.5 183,-76.5"/>
<text text-anchor="middle" x="242.5" y="-83.5" font-family="Helvetica,sans-Serif" font-size="10.00">mat::BitMatrix::initialize</text>
</a>
</g>
</g>
<!-- Node181&#45;&gt;Node184 -->
<g id="edge3" class="edge"><title>Node181&#45;&gt;Node184</title>
<path fill="none" stroke="midnightblue" d="M147.263,-86C155.699,-86 164.284,-86 172.665,-86"/>
<polygon fill="midnightblue" stroke="midnightblue" points="172.763,-89.5001 182.763,-86 172.763,-82.5001 172.763,-89.5001"/>
</g>
<!-- Node185 -->
<g id="node5" class="node"><title>Node185</title>
<g id="a_node5"><a xlink:href="classmat_1_1_bit_matrix.html#ab66a697bd20fd702cb32494da920b1af" target="_top" xlink:title=" ">
<polygon fill="white" stroke="black" points="192,-114.5 192,-133.5 293,-133.5 293,-114.5 192,-114.5"/>
<text text-anchor="middle" x="242.5" y="-121.5" font-family="Helvetica,sans-Serif" font-size="10.00">mat::BitMatrix::print</text>
</a>
</g>
</g>
<!-- Node181&#45;&gt;Node185 -->
<g id="edge4" class="edge"><title>Node181&#45;&gt;Node185</title>
<path fill="none" stroke="midnightblue" d="M116.641,-95.589C138.877,-100.649 166.348,-106.9 189.856,-112.249"/>
<polygon fill="midnightblue" stroke="midnightblue" points="189.135,-115.674 199.662,-114.48 190.688,-108.848 189.135,-115.674"/>
</g>
<!-- Node187 -->
<g id="node7" class="node"><title>Node187</title>
<g id="a_node7"><a xlink:href="classmat_1_1_bit_matrix.html#a023483d27c6b66b43356d6f8b9cbaba8" target="_top" xlink:title=" ">
<polygon fill="white" stroke="black" points="188.5,-0.5 188.5,-19.5 296.5,-19.5 296.5,-0.5 188.5,-0.5"/>
<text text-anchor="middle" x="242.5" y="-7.5" font-family="Helvetica,sans-Serif" font-size="10.00">mat::BitMatrix::setBit</text>
</a>
</g>
</g>
<!-- Node181&#45;&gt;Node187 -->
<g id="edge8" class="edge"><title>Node181&#45;&gt;Node187</title>
<path fill="none" stroke="midnightblue" d="M93.5521,-76.4585C115.098,-65.7641 151.312,-48.0794 183,-34 191.004,-30.4438 199.7,-26.7732 207.881,-23.4049"/>
<polygon fill="midnightblue" stroke="midnightblue" points="209.237,-26.6319 217.175,-19.6146 206.593,-20.1502 209.237,-26.6319"/>
</g>
<!-- Node185&#45;&gt;Node182 -->
<g id="edge5" class="edge"><title>Node185&#45;&gt;Node182</title>
<path fill="none" stroke="midnightblue" d="M287.029,-133.589C310.1,-138.671 338.627,-144.955 362.981,-150.32"/>
<polygon fill="midnightblue" stroke="midnightblue" points="362.265,-153.747 372.784,-152.48 363.771,-146.911 362.265,-153.747"/>
</g>
<!-- Node185&#45;&gt;Node183 -->
<g id="edge6" class="edge"><title>Node185&#45;&gt;Node183</title>
<path fill="none" stroke="midnightblue" d="M272.975,-114.476C282.267,-111.46 292.567,-108.104 302,-105 327.262,-96.6874 355.633,-87.231 377.752,-79.831"/>
<polygon fill="midnightblue" stroke="midnightblue" points="379.07,-83.0808 387.442,-76.5873 376.848,-76.4429 379.07,-83.0808"/>
</g>
<!-- Node186 -->
<g id="node6" class="node"><title>Node186</title>
<g id="a_node6"><a xlink:href="classmat_1_1_bit_matrix.html#a5607bb84d71c58751390be62e798dd11" target="_top" xlink:title=" ">
<polygon fill="white" stroke="black" points="358,-114.5 358,-133.5 476,-133.5 476,-114.5 358,-114.5"/>
<text text-anchor="middle" x="417" y="-121.5" font-family="Helvetica,sans-Serif" font-size="10.00">mat::BitMatrix::getRow</text>
</a>
</g>
</g>
<!-- Node185&#45;&gt;Node186 -->
<g id="edge7" class="edge"><title>Node185&#45;&gt;Node186</title>
<path fill="none" stroke="midnightblue" d="M293.394,-124C310.275,-124 329.43,-124 347.498,-124"/>
<polygon fill="midnightblue" stroke="midnightblue" points="347.693,-127.5 357.693,-124 347.693,-120.5 347.693,-127.5"/>
</g>
</g>
</svg>
