<?xml version="1.0" encoding="UTF-8" standalone="no"?>
<!DOCTYPE svg PUBLIC "-//W3C//DTD SVG 1.1//EN"
 "http://www.w3.org/Graphics/SVG/1.1/DTD/svg11.dtd">
<!-- Generated by graphviz version 2.38.0 (20140413.2041)
 -->
<!-- Title: clusteringop::nearestRepresentative Pages: 1 -->
<svg width="332pt" height="116pt"
 viewBox="0.00 0.00 332.00 116.00" xmlns="http://www.w3.org/2000/svg" xmlns:xlink="http://www.w3.org/1999/xlink">
<g id="graph0" class="graph" transform="scale(1 1) rotate(0) translate(4 112)">
<title>clusteringop::nearestRepresentative</title>
<polygon fill="white" stroke="none" points="-4,4 -4,-112 328,-112 328,4 -4,4"/>
<!-- Node145 -->
<g id="node1" class="node"><title>Node145</title>
<g id="a_node1"><a xlink:title="nearestRepresentative">
<polygon fill="#bfbfbf" stroke="black" points="0,-44.5 0,-63.5 178,-63.5 178,-44.5 0,-44.5"/>
<text text-anchor="middle" x="89" y="-51.5" font-family="Helvetica,sans-Serif" font-size="10.00">clusteringop::nearestRepresentative</text>
</a>
</g>
</g>
<!-- Node146 -->
<g id="node2" class="node"><title>Node146</title>
<g id="a_node2"><a xlink:href="namespaceinout.html#a0c10a45877a347dec0d4ec4e5b05b828" target="_top" xlink:title=" ">
<polygon fill="white" stroke="black" points="217.5,-88.5 217.5,-107.5 320.5,-107.5 320.5,-88.5 217.5,-88.5"/>
<text text-anchor="middle" x="269" y="-95.5" font-family="Helvetica,sans-Serif" font-size="10.00">inout::containerprint</text>
</a>
</g>
</g>
<!-- Node145&#45;&gt;Node146 -->
<g id="edge1" class="edge"><title>Node145&#45;&gt;Node146</title>
<path fill="none" stroke="midnightblue" d="M128.623,-63.5473C155.331,-70.1492 191.063,-78.9819 219.661,-86.051"/>
<polygon fill="midnightblue" stroke="midnightblue" points="218.904,-89.4693 229.452,-88.4713 220.584,-82.6738 218.904,-89.4693"/>
</g>
<!-- Node147 -->
<g id="node3" class="node"><title>Node147</title>
<g id="a_node3"><a xlink:href="classmat_1_1_matrix_triang.html#ae8e385b7959c85519692bdee1d4c3aed" target="_top" xlink:title=" ">
<polygon fill="white" stroke="black" points="218,-39 218,-69 320,-69 320,-39 218,-39"/>
<text text-anchor="start" x="226" y="-57" font-family="Helvetica,sans-Serif" font-size="10.00">mat::MatrixTriang::</text>
<text text-anchor="middle" x="269" y="-46" font-family="Helvetica,sans-Serif" font-size="10.00">getNumRows</text>
</a>
</g>
</g>
<!-- Node145&#45;&gt;Node147 -->
<g id="edge2" class="edge"><title>Node145&#45;&gt;Node147</title>
<path fill="none" stroke="midnightblue" d="M178.218,-54C188.233,-54 198.261,-54 207.795,-54"/>
<polygon fill="midnightblue" stroke="midnightblue" points="207.923,-57.5001 217.923,-54 207.923,-50.5001 207.923,-57.5001"/>
</g>
<!-- Node148 -->
<g id="node4" class="node"><title>Node148</title>
<g id="a_node4"><a xlink:href="namespacenearest.html#a3c4239101cf18ab4ca62e654a4179995" target="_top" xlink:title=" ">
<polygon fill="white" stroke="black" points="214,-0.5 214,-19.5 324,-19.5 324,-0.5 214,-0.5"/>
<text text-anchor="middle" x="269" y="-7.5" font-family="Helvetica,sans-Serif" font-size="10.00">nearest::medoidsNN</text>
</a>
</g>
</g>
<!-- Node145&#45;&gt;Node148 -->
<g id="edge3" class="edge"><title>Node145&#45;&gt;Node148</title>
<path fill="none" stroke="midnightblue" d="M128.623,-44.4527C155.331,-37.8508 191.063,-29.0181 219.661,-21.949"/>
<polygon fill="midnightblue" stroke="midnightblue" points="220.584,-25.3262 229.452,-19.5287 218.904,-18.5307 220.584,-25.3262"/>
</g>
</g>
</svg>
