<?xml version="1.0" encoding="UTF-8" standalone="no"?>
<!DOCTYPE svg PUBLIC "-//W3C//DTD SVG 1.1//EN"
 "http://www.w3.org/Graphics/SVG/1.1/DTD/svg11.dtd">
<!-- Generated by graphviz version 2.38.0 (20140413.2041)
 -->
<!-- Title: um::VRC Pages: 1 -->
<svg width="433pt" height="470pt"
 viewBox="0.00 0.00 433.00 470.00" xmlns="http://www.w3.org/2000/svg" xmlns:xlink="http://www.w3.org/1999/xlink">
<g id="graph0" class="graph" transform="scale(1 1) rotate(0) translate(4 466)">
<title>um::VRC</title>
<polygon fill="white" stroke="none" points="-4,4 -4,-466 429,-466 429,4 -4,4"/>
<!-- Node363 -->
<g id="node1" class="node"><title>Node363</title>
<g id="a_node1"><a xlink:title=" ">
<polygon fill="#bfbfbf" stroke="black" points="0,-152.5 0,-171.5 57,-171.5 57,-152.5 0,-152.5"/>
<text text-anchor="middle" x="28.5" y="-159.5" font-family="Helvetica,sans-Serif" font-size="10.00">um::VRC</text>
</a>
</g>
</g>
<!-- Node364 -->
<g id="node2" class="node"><title>Node364</title>
<g id="a_node2"><a xlink:href="classdata_1_1_instance.html#a90d1eaeb66cc1470bbfdb95434fdb761" target="_top" xlink:title=" ">
<polygon fill="white" stroke="black" points="251,-152.5 251,-171.5 425,-171.5 425,-152.5 251,-152.5"/>
<text text-anchor="middle" x="338" y="-159.5" font-family="Helvetica,sans-Serif" font-size="10.00">data::Instance::getNumDimensions</text>
</a>
</g>
</g>
<!-- Node363&#45;&gt;Node364 -->
<g id="edge1" class="edge"><title>Node363&#45;&gt;Node364</title>
<path fill="none" stroke="midnightblue" d="M57.0592,-162C98.0583,-162 177.118,-162 240.792,-162"/>
<polygon fill="midnightblue" stroke="midnightblue" points="240.871,-165.5 250.87,-162 240.87,-158.5 240.871,-165.5"/>
</g>
<!-- Node365 -->
<g id="node3" class="node"><title>Node365</title>
<g id="a_node3"><a xlink:href="classmat_1_1_matrix_base.html#ac500eedd5e203327d3292f8ab22d8f3e" target="_top" xlink:title=" ">
<polygon fill="white" stroke="black" points="260,-366.5 260,-385.5 416,-385.5 416,-366.5 260,-366.5"/>
<text text-anchor="middle" x="338" y="-373.5" font-family="Helvetica,sans-Serif" font-size="10.00">mat::MatrixBase::getNumRows</text>
</a>
</g>
</g>
<!-- Node363&#45;&gt;Node365 -->
<g id="edge2" class="edge"><title>Node363&#45;&gt;Node365</title>
<path fill="none" stroke="midnightblue" d="M36.1929,-171.919C47.0389,-187.595 69.61,-218.612 93,-241 155.933,-301.238 171.647,-321.051 251,-357 256.443,-359.466 262.228,-361.621 268.124,-363.504"/>
<polygon fill="midnightblue" stroke="midnightblue" points="267.53,-366.977 278.11,-366.422 269.493,-360.258 267.53,-366.977"/>
</g>
<!-- Node366 -->
<g id="node4" class="node"><title>Node366</title>
<g id="a_node4"><a xlink:href="namespacestats.html#a61ea16e97e098fc1598f4a2975cb0a24" target="_top" xlink:title="￼Calculate average of a vector">
<polygon fill="white" stroke="black" points="105,-76.5 105,-95.5 203,-95.5 203,-76.5 105,-76.5"/>
<text text-anchor="middle" x="154" y="-83.5" font-family="Helvetica,sans-Serif" font-size="10.00">stats::meanVector</text>
</a>
</g>
</g>
<!-- Node363&#45;&gt;Node366 -->
<g id="edge3" class="edge"><title>Node363&#45;&gt;Node366</title>
<path fill="none" stroke="midnightblue" d="M37.9826,-152.138C49.3266,-139.525 70.6187,-117.788 93,-105 96.7356,-102.866 100.741,-100.938 104.846,-99.205"/>
<polygon fill="midnightblue" stroke="midnightblue" points="106.431,-102.346 114.522,-95.506 103.932,-95.8076 106.431,-102.346"/>
</g>
<!-- Node370 -->
<g id="node8" class="node"><title>Node370</title>
<g id="a_node8"><a xlink:href="namespaceum.html#a3d80a7d08b3df236552d73f457543a36" target="_top" xlink:title="The overall between&#45;cluster variance ssb.">
<polygon fill="white" stroke="black" points="128,-385.5 128,-404.5 180,-404.5 180,-385.5 128,-385.5"/>
<text text-anchor="middle" x="154" y="-392.5" font-family="Helvetica,sans-Serif" font-size="10.00">um::ssb</text>
</a>
</g>
</g>
<!-- Node363&#45;&gt;Node370 -->
<g id="edge7" class="edge"><title>Node363&#45;&gt;Node370</title>
<path fill="none" stroke="midnightblue" d="M32.2745,-171.783C39.7777,-197.414 62.012,-268.188 93,-321 105.315,-341.988 123.292,-363.293 136.356,-377.619"/>
<polygon fill="midnightblue" stroke="midnightblue" points="134.026,-380.254 143.4,-385.192 139.152,-375.486 134.026,-380.254"/>
</g>
<!-- Node373 -->
<g id="node11" class="node"><title>Node373</title>
<g id="a_node11"><a xlink:href="namespaceinterfacesse.html#a25f6950d589b92fd5bcf2007fb3fae19" target="_top" xlink:title=" ">
<polygon fill="white" stroke="black" points="106,-38.5 106,-57.5 202,-57.5 202,-38.5 106,-38.5"/>
<text text-anchor="middle" x="154" y="-45.5" font-family="Helvetica,sans-Serif" font-size="10.00">interfacesse::sum</text>
</a>
</g>
</g>
<!-- Node363&#45;&gt;Node373 -->
<g id="edge11" class="edge"><title>Node363&#45;&gt;Node373</title>
<path fill="none" stroke="midnightblue" d="M33.329,-152.346C41.4148,-133.191 62.0669,-90.2302 93,-67 95.4969,-65.1249 98.184,-63.4316 100.988,-61.903"/>
<polygon fill="midnightblue" stroke="midnightblue" points="102.681,-64.9746 110.25,-57.5602 99.7097,-58.6367 102.681,-64.9746"/>
</g>
<!-- Node374 -->
<g id="node12" class="node"><title>Node374</title>
<g id="a_node12"><a xlink:href="namespaceum.html#aaccb7dacc3cb2d8cd7349517387c6dfb" target="_top" xlink:title="Computes the overall between&#45;cluster variance &#160;and the number of instances in each cluster.">
<polygon fill="white" stroke="black" points="93,-212.5 93,-231.5 215,-231.5 215,-212.5 93,-212.5"/>
<text text-anchor="middle" x="154" y="-219.5" font-family="Helvetica,sans-Serif" font-size="10.00">um::sumDistInstCentInK</text>
</a>
</g>
</g>
<!-- Node363&#45;&gt;Node374 -->
<g id="edge12" class="edge"><title>Node363&#45;&gt;Node374</title>
<path fill="none" stroke="midnightblue" d="M49.0689,-171.507C69.2742,-181.323 101.021,-196.747 124.114,-207.966"/>
<polygon fill="midnightblue" stroke="midnightblue" points="122.59,-211.117 133.114,-212.339 125.648,-204.821 122.59,-211.117"/>
</g>
<!-- Node379 -->
<g id="node17" class="node"><title>Node379</title>
<g id="a_node17"><a xlink:href="namespacestats.html#a706b4964413c76c4c7d34ab17985e9e4" target="_top" xlink:title="Add the instances by attributes.">
<polygon fill="white" stroke="black" points="100.5,-114.5 100.5,-133.5 207.5,-133.5 207.5,-114.5 100.5,-114.5"/>
<text text-anchor="middle" x="154" y="-121.5" font-family="Helvetica,sans-Serif" font-size="10.00">stats::sumFeactures</text>
</a>
</g>
</g>
<!-- Node363&#45;&gt;Node379 -->
<g id="edge20" class="edge"><title>Node363&#45;&gt;Node379</title>
<path fill="none" stroke="midnightblue" d="M57.2158,-153.472C73.4172,-148.487 94.1641,-142.103 112.204,-136.553"/>
<polygon fill="midnightblue" stroke="midnightblue" points="113.373,-139.855 121.902,-133.569 111.315,-133.164 113.373,-139.855"/>
</g>
<!-- Node367 -->
<g id="node5" class="node"><title>Node367</title>
<g id="a_node5"><a xlink:href="namespaceinterfacesse.html#ae3f94c42a59db65b2941dbfc9f449ea1" target="_top" xlink:title="function xAXPY of blas for doubles vectors">
<polygon fill="white" stroke="black" points="282,-0.5 282,-19.5 394,-19.5 394,-0.5 282,-0.5"/>
<text text-anchor="middle" x="338" y="-7.5" font-family="Helvetica,sans-Serif" font-size="10.00">interfacesse::axpyInv</text>
</a>
</g>
</g>
<!-- Node366&#45;&gt;Node367 -->
<g id="edge4" class="edge"><title>Node366&#45;&gt;Node367</title>
<path fill="none" stroke="midnightblue" d="M194.992,-76.4631C201.94,-73.9449 208.888,-70.8279 215,-67 234.717,-54.6512 230.752,-40.4571 251,-29 257.496,-25.3243 264.641,-22.3596 271.952,-19.9683"/>
<polygon fill="midnightblue" stroke="midnightblue" points="273.356,-23.2052 281.979,-17.05 271.399,-16.4841 273.356,-23.2052"/>
</g>
<!-- Node368 -->
<g id="node6" class="node"><title>Node368</title>
<g id="a_node6"><a xlink:href="namespaceinout.html#a0c10a45877a347dec0d4ec4e5b05b828" target="_top" xlink:title=" ">
<polygon fill="white" stroke="black" points="286.5,-76.5 286.5,-95.5 389.5,-95.5 389.5,-76.5 286.5,-76.5"/>
<text text-anchor="middle" x="338" y="-83.5" font-family="Helvetica,sans-Serif" font-size="10.00">inout::containerprint</text>
</a>
</g>
</g>
<!-- Node366&#45;&gt;Node368 -->
<g id="edge5" class="edge"><title>Node366&#45;&gt;Node368</title>
<path fill="none" stroke="midnightblue" d="M203.295,-86C225.586,-86 252.299,-86 275.968,-86"/>
<polygon fill="midnightblue" stroke="midnightblue" points="276.251,-89.5001 286.251,-86 276.251,-82.5001 276.251,-89.5001"/>
</g>
<!-- Node369 -->
<g id="node7" class="node"><title>Node369</title>
<g id="a_node7"><a xlink:href="namespaceinterfacesse.html#aa4b94bf2bf8cb7c437fa3feba8b70ff8" target="_top" xlink:title="Initializes the array with a constant .">
<polygon fill="white" stroke="black" points="285.5,-38.5 285.5,-57.5 390.5,-57.5 390.5,-38.5 285.5,-38.5"/>
<text text-anchor="middle" x="338" y="-45.5" font-family="Helvetica,sans-Serif" font-size="10.00">interfacesse::copya</text>
</a>
</g>
</g>
<!-- Node366&#45;&gt;Node369 -->
<g id="edge6" class="edge"><title>Node366&#45;&gt;Node369</title>
<path fill="none" stroke="midnightblue" d="M200.926,-76.411C225.376,-71.3061 255.633,-64.9887 281.403,-59.6082"/>
<polygon fill="midnightblue" stroke="midnightblue" points="282.33,-62.9901 291.404,-57.5201 280.9,-56.1378 282.33,-62.9901"/>
</g>
<!-- Node370&#45;&gt;Node365 -->
<g id="edge9" class="edge"><title>Node370&#45;&gt;Node365</title>
<path fill="none" stroke="midnightblue" d="M180.306,-392.358C198.586,-390.45 224.44,-387.751 249.887,-385.094"/>
<polygon fill="midnightblue" stroke="midnightblue" points="250.398,-388.56 259.981,-384.04 249.671,-381.598 250.398,-388.56"/>
</g>
<!-- Node371 -->
<g id="node9" class="node"><title>Node371</title>
<g id="a_node9"><a xlink:href="classmat_1_1_matrix_base.html#a70200414022ce1479b9ddc16102b12ae" target="_top" xlink:title=" ">
<polygon fill="white" stroke="black" points="253,-442.5 253,-461.5 423,-461.5 423,-442.5 253,-442.5"/>
<text text-anchor="middle" x="338" y="-449.5" font-family="Helvetica,sans-Serif" font-size="10.00">mat::MatrixBase::getNumColumns</text>
</a>
</g>
</g>
<!-- Node370&#45;&gt;Node371 -->
<g id="edge8" class="edge"><title>Node370&#45;&gt;Node371</title>
<path fill="none" stroke="midnightblue" d="M176.381,-404.604C195.608,-412.965 224.777,-424.969 251,-433 259.498,-435.602 268.571,-438.003 277.519,-440.158"/>
<polygon fill="midnightblue" stroke="midnightblue" points="276.998,-443.631 287.531,-442.486 278.584,-436.812 276.998,-443.631"/>
</g>
<!-- Node372 -->
<g id="node10" class="node"><title>Node372</title>
<g id="a_node10"><a xlink:href="classmat_1_1_matrix_row.html#a5391a205367fbaac82a26ddc377a80af" target="_top" xlink:title=" ">
<polygon fill="white" stroke="black" points="274.5,-404.5 274.5,-423.5 401.5,-423.5 401.5,-404.5 274.5,-404.5"/>
<text text-anchor="middle" x="338" y="-411.5" font-family="Helvetica,sans-Serif" font-size="10.00">mat::MatrixRow::getRow</text>
</a>
</g>
</g>
<!-- Node370&#45;&gt;Node372 -->
<g id="edge10" class="edge"><title>Node370&#45;&gt;Node372</title>
<path fill="none" stroke="midnightblue" d="M180.306,-397.642C202.069,-399.914 234.565,-403.306 264.332,-406.414"/>
<polygon fill="midnightblue" stroke="midnightblue" points="263.993,-409.897 274.302,-407.455 264.72,-402.935 263.993,-409.897"/>
</g>
<!-- Node374&#45;&gt;Node364 -->
<g id="edge16" class="edge"><title>Node374&#45;&gt;Node364</title>
<path fill="none" stroke="midnightblue" d="M174.447,-212.422C193.557,-203.317 223.735,-189.75 251,-181 259.058,-178.414 267.651,-176.058 276.171,-173.954"/>
<polygon fill="midnightblue" stroke="midnightblue" points="277.18,-177.312 286.104,-171.6 275.566,-170.501 277.18,-177.312"/>
</g>
<!-- Node374&#45;&gt;Node365 -->
<g id="edge17" class="edge"><title>Node374&#45;&gt;Node365</title>
<path fill="none" stroke="midnightblue" d="M164.169,-231.632C176.515,-244.86 198.798,-269.671 215,-293 233.616,-319.806 224.783,-337.565 251,-357 253.499,-358.852 256.144,-360.531 258.896,-362.05"/>
<polygon fill="midnightblue" stroke="midnightblue" points="257.467,-365.246 268,-366.384 260.475,-358.926 257.467,-365.246"/>
</g>
<!-- Node374&#45;&gt;Node368 -->
<g id="edge14" class="edge"><title>Node374&#45;&gt;Node368</title>
<path fill="none" stroke="midnightblue" d="M162.336,-212.343C182.718,-185.62 239.3,-112.182 251,-105 258.752,-100.242 267.544,-96.6687 276.475,-93.9872"/>
<polygon fill="midnightblue" stroke="midnightblue" points="277.41,-97.3605 286.178,-91.4136 275.615,-90.5944 277.41,-97.3605"/>
</g>
<!-- Node375 -->
<g id="node13" class="node"><title>Node375</title>
<g id="a_node13"><a xlink:href="classpartition_1_1_partition.html#acb8de7c890e05872858fb7a7aa53b657" target="_top" xlink:title=" ">
<polygon fill="white" stroke="black" points="291.5,-317 291.5,-347 384.5,-347 384.5,-317 291.5,-317"/>
<text text-anchor="start" x="299.5" y="-335" font-family="Helvetica,sans-Serif" font-size="10.00">partition::Partition</text>
<text text-anchor="middle" x="338" y="-324" font-family="Helvetica,sans-Serif" font-size="10.00">::begin</text>
</a>
</g>
</g>
<!-- Node374&#45;&gt;Node375 -->
<g id="edge13" class="edge"><title>Node374&#45;&gt;Node375</title>
<path fill="none" stroke="midnightblue" d="M163.223,-231.687C178.652,-249.261 213.764,-286.474 251,-307 260.487,-312.23 271.18,-316.465 281.72,-319.859"/>
<polygon fill="midnightblue" stroke="midnightblue" points="280.733,-323.217 291.318,-322.744 282.748,-316.513 280.733,-323.217"/>
</g>
<!-- Node376 -->
<g id="node14" class="node"><title>Node376</title>
<g id="a_node14"><a xlink:href="classdata_1_1_instance.html#aa6ee19c383a86228b3d134e42bdb6830" target="_top" xlink:title=" ">
<polygon fill="white" stroke="black" points="268,-190.5 268,-209.5 408,-209.5 408,-190.5 268,-190.5"/>
<text text-anchor="middle" x="338" y="-197.5" font-family="Helvetica,sans-Serif" font-size="10.00">data::Instance::getFeatures</text>
</a>
</g>
</g>
<!-- Node374&#45;&gt;Node376 -->
<g id="edge15" class="edge"><title>Node374&#45;&gt;Node376</title>
<path fill="none" stroke="midnightblue" d="M215.098,-214.735C228.679,-213.094 243.301,-211.326 257.541,-209.605"/>
<polygon fill="midnightblue" stroke="midnightblue" points="258.314,-213.037 267.822,-208.362 257.474,-206.088 258.314,-213.037"/>
</g>
<!-- Node377 -->
<g id="node15" class="node"><title>Node377</title>
<g id="a_node15"><a xlink:href="classmat_1_1_matrix_base.html#ae3b1c4b8e9cb7e7685d7bc129f875dcd" target="_top" xlink:title=" ">
<polygon fill="white" stroke="black" points="272.5,-278.5 272.5,-297.5 403.5,-297.5 403.5,-278.5 272.5,-278.5"/>
<text text-anchor="middle" x="338" y="-285.5" font-family="Helvetica,sans-Serif" font-size="10.00">mat::MatrixBase::getRow</text>
</a>
</g>
</g>
<!-- Node374&#45;&gt;Node377 -->
<g id="edge18" class="edge"><title>Node374&#45;&gt;Node377</title>
<path fill="none" stroke="midnightblue" d="M171.471,-231.573C190.189,-242.089 221.922,-258.833 251,-269 258.409,-271.59 266.304,-273.906 274.192,-275.952"/>
<polygon fill="midnightblue" stroke="midnightblue" points="273.597,-279.41 284.144,-278.402 275.27,-272.613 273.597,-279.41"/>
</g>
<!-- Node378 -->
<g id="node16" class="node"><title>Node378</title>
<g id="a_node16"><a xlink:href="classpartition_1_1_partition.html#a96660ce61740ab0287189b21833eccdf" target="_top" xlink:title=" ">
<polygon fill="white" stroke="black" points="291.5,-229 291.5,-259 384.5,-259 384.5,-229 291.5,-229"/>
<text text-anchor="start" x="299.5" y="-247" font-family="Helvetica,sans-Serif" font-size="10.00">partition::Partition</text>
<text text-anchor="middle" x="338" y="-236" font-family="Helvetica,sans-Serif" font-size="10.00">::next</text>
</a>
</g>
</g>
<!-- Node374&#45;&gt;Node378 -->
<g id="edge19" class="edge"><title>Node374&#45;&gt;Node378</title>
<path fill="none" stroke="midnightblue" d="M215.098,-229.265C236.453,-231.846 260.385,-234.739 281.352,-237.273"/>
<polygon fill="midnightblue" stroke="midnightblue" points="281.034,-240.76 291.382,-238.486 281.874,-233.811 281.034,-240.76"/>
</g>
<!-- Node379&#45;&gt;Node364 -->
<g id="edge25" class="edge"><title>Node379&#45;&gt;Node364</title>
<path fill="none" stroke="midnightblue" d="M200.926,-133.589C225.376,-138.694 255.633,-145.011 281.403,-150.392"/>
<polygon fill="midnightblue" stroke="midnightblue" points="280.9,-153.862 291.404,-152.48 282.33,-147.01 280.9,-153.862"/>
</g>
<!-- Node379&#45;&gt;Node368 -->
<g id="edge22" class="edge"><title>Node379&#45;&gt;Node368</title>
<path fill="none" stroke="midnightblue" d="M200.926,-114.411C225.376,-109.306 255.633,-102.989 281.403,-97.6082"/>
<polygon fill="midnightblue" stroke="midnightblue" points="282.33,-100.99 291.404,-95.5201 280.9,-94.1378 282.33,-100.99"/>
</g>
<!-- Node379&#45;&gt;Node369 -->
<g id="edge23" class="edge"><title>Node379&#45;&gt;Node369</title>
<path fill="none" stroke="midnightblue" d="M194.992,-114.463C201.94,-111.945 208.888,-108.828 215,-105 234.717,-92.6512 230.752,-78.4571 251,-67 258.461,-62.7784 266.778,-59.4946 275.219,-56.9403"/>
<polygon fill="midnightblue" stroke="midnightblue" points="276.398,-60.2476 285.141,-54.2644 274.575,-53.4891 276.398,-60.2476"/>
</g>
<!-- Node379&#45;&gt;Node376 -->
<g id="edge24" class="edge"><title>Node379&#45;&gt;Node376</title>
<path fill="none" stroke="midnightblue" d="M167.972,-133.544C185.798,-146.217 219.277,-168.453 251,-181 257.647,-183.629 264.735,-185.932 271.88,-187.939"/>
<polygon fill="midnightblue" stroke="midnightblue" points="271.063,-191.343 281.623,-190.497 272.84,-184.572 271.063,-191.343"/>
</g>
<!-- Node380 -->
<g id="node18" class="node"><title>Node380</title>
<g id="a_node18"><a xlink:href="namespaceinterfacesse.html#a9dd5fb43ad8a83ee5cb2f5ba1bb2085b" target="_top" xlink:title=" ">
<polygon fill="white" stroke="black" points="288.5,-114.5 288.5,-133.5 387.5,-133.5 387.5,-114.5 288.5,-114.5"/>
<text text-anchor="middle" x="338" y="-121.5" font-family="Helvetica,sans-Serif" font-size="10.00">interfacesse::axpy</text>
</a>
</g>
</g>
<!-- Node379&#45;&gt;Node380 -->
<g id="edge21" class="edge"><title>Node379&#45;&gt;Node380</title>
<path fill="none" stroke="midnightblue" d="M207.642,-124C229.674,-124 255.377,-124 278.041,-124"/>
<polygon fill="midnightblue" stroke="midnightblue" points="278.216,-127.5 288.216,-124 278.216,-120.5 278.216,-127.5"/>
</g>
</g>
</svg>
