<?xml version="1.0" encoding="UTF-8" standalone="no"?>
<!DOCTYPE svg PUBLIC "-//W3C//DTD SVG 1.1//EN"
 "http://www.w3.org/Graphics/SVG/1.1/DTD/svg11.dtd">
<!-- Generated by graphviz version 2.38.0 (20140413.2041)
 -->
<!-- Title: inout::readNumInstances Pages: 1 -->
<svg width="321pt" height="235pt"
 viewBox="0.00 0.00 321.00 235.00" xmlns="http://www.w3.org/2000/svg" xmlns:xlink="http://www.w3.org/1999/xlink">
<g id="graph0" class="graph" transform="scale(1 1) rotate(0) translate(4 231)">
<title>inout::readNumInstances</title>
<polygon fill="white" stroke="none" points="-4,4 -4,-231 317,-231 317,4 -4,4"/>
<!-- Node125 -->
<g id="node1" class="node"><title>Node125</title>
<g id="a_node1"><a xlink:title="Read the number of instances or objects.">
<polygon fill="#bfbfbf" stroke="black" points="0,-104 0,-123 128,-123 128,-104 0,-104"/>
<text text-anchor="middle" x="64" y="-111" font-family="Helvetica,sans-Serif" font-size="10.00">inout::readNumInstances</text>
</a>
</g>
</g>
<!-- Node126 -->
<g id="node2" class="node"><title>Node126</title>
<g id="a_node2"><a xlink:href="classinout_1_1_in_param_read_inst.html#a797250bacc8d887b96fa19247c5dd13f" target="_top" xlink:title=" ">
<polygon fill="white" stroke="black" points="177,-196.5 177,-226.5 300,-226.5 300,-196.5 177,-196.5"/>
<text text-anchor="start" x="185" y="-214.5" font-family="Helvetica,sans-Serif" font-size="10.00">inout::InParamReadInst</text>
<text text-anchor="middle" x="238.5" y="-203.5" font-family="Helvetica,sans-Serif" font-size="10.00">::getCurrentFileInstance</text>
</a>
</g>
</g>
<!-- Node125&#45;&gt;Node126 -->
<g id="edge1" class="edge"><title>Node125&#45;&gt;Node126</title>
<path fill="none" stroke="midnightblue" d="M75.4904,-123.199C92.7547,-138.711 128.765,-169.212 164,-187.5 167.518,-189.326 171.203,-191.05 174.969,-192.672"/>
<polygon fill="midnightblue" stroke="midnightblue" points="173.865,-196 184.449,-196.49 176.481,-189.507 173.865,-196"/>
</g>
<!-- Node127 -->
<g id="node3" class="node"><title>Node127</title>
<g id="a_node3"><a xlink:href="classinout_1_1_in_param_read_inst.html#ab91dbd838ea608bd3bf963bb97398747" target="_top" xlink:title=" ">
<polygon fill="white" stroke="black" points="166.5,-147.5 166.5,-177.5 310.5,-177.5 310.5,-147.5 166.5,-147.5"/>
<text text-anchor="start" x="174.5" y="-165.5" font-family="Helvetica,sans-Serif" font-size="10.00">inout::InParamReadInst</text>
<text text-anchor="middle" x="238.5" y="-154.5" font-family="Helvetica,sans-Serif" font-size="10.00">::getCurrentFileInstanceTest</text>
</a>
</g>
</g>
<!-- Node125&#45;&gt;Node127 -->
<g id="edge2" class="edge"><title>Node125&#45;&gt;Node127</title>
<path fill="none" stroke="midnightblue" d="M98.6692,-123.064C120.318,-129.213 149.112,-137.393 174.864,-144.708"/>
<polygon fill="midnightblue" stroke="midnightblue" points="173.988,-148.097 184.564,-147.463 175.901,-141.364 173.988,-148.097"/>
</g>
<!-- Node128 -->
<g id="node4" class="node"><title>Node128</title>
<g id="a_node4"><a xlink:href="classinout_1_1_in_param_read_inst.html#a1f78fb02f92c416f951b805812cbb844" target="_top" xlink:title=" ">
<polygon fill="white" stroke="black" points="164,-98.5 164,-128.5 313,-128.5 313,-98.5 164,-98.5"/>
<text text-anchor="start" x="172" y="-116.5" font-family="Helvetica,sans-Serif" font-size="10.00">inout::InParamReadInst</text>
<text text-anchor="middle" x="238.5" y="-105.5" font-family="Helvetica,sans-Serif" font-size="10.00">::getHaveHeaderFileInstance</text>
</a>
</g>
</g>
<!-- Node125&#45;&gt;Node128 -->
<g id="edge3" class="edge"><title>Node125&#45;&gt;Node128</title>
<path fill="none" stroke="midnightblue" d="M128.253,-113.5C136.547,-113.5 145.146,-113.5 153.713,-113.5"/>
<polygon fill="midnightblue" stroke="midnightblue" points="153.735,-117 163.735,-113.5 153.735,-110 153.735,-117"/>
</g>
<!-- Node129 -->
<g id="node5" class="node"><title>Node129</title>
<g id="a_node5"><a xlink:href="classinout_1_1_in_param_read_inst.html#a3a28ee2eb118f3e41b2f653f88ed0cbd" target="_top" xlink:title=" ">
<polygon fill="white" stroke="black" points="178,-49.5 178,-79.5 299,-79.5 299,-49.5 178,-49.5"/>
<text text-anchor="start" x="186" y="-67.5" font-family="Helvetica,sans-Serif" font-size="10.00">inout::InParamReadInst</text>
<text text-anchor="middle" x="238.5" y="-56.5" font-family="Helvetica,sans-Serif" font-size="10.00">::getSelectAttributes</text>
</a>
</g>
</g>
<!-- Node125&#45;&gt;Node129 -->
<g id="edge4" class="edge"><title>Node125&#45;&gt;Node129</title>
<path fill="none" stroke="midnightblue" d="M98.6692,-103.936C120.318,-97.7866 149.112,-89.6072 174.864,-82.2922"/>
<polygon fill="midnightblue" stroke="midnightblue" points="175.901,-85.6363 184.564,-79.537 173.988,-78.9027 175.901,-85.6363"/>
</g>
<!-- Node130 -->
<g id="node6" class="node"><title>Node130</title>
<g id="a_node6"><a xlink:href="classinout_1_1_in_param_read_inst.html#abef010eec72dc41b4a9bb30a692e0a66" target="_top" xlink:title=" ">
<polygon fill="white" stroke="black" points="178,-0.5 178,-30.5 299,-30.5 299,-0.5 178,-0.5"/>
<text text-anchor="start" x="186" y="-18.5" font-family="Helvetica,sans-Serif" font-size="10.00">inout::InParamReadInst</text>
<text text-anchor="middle" x="238.5" y="-7.5" font-family="Helvetica,sans-Serif" font-size="10.00">::getSeparateAttributes</text>
</a>
</g>
</g>
<!-- Node125&#45;&gt;Node130 -->
<g id="edge5" class="edge"><title>Node125&#45;&gt;Node130</title>
<path fill="none" stroke="midnightblue" d="M75.5417,-103.992C92.878,-88.7737 128.987,-58.7999 164,-40.5 168.185,-38.3129 172.6,-36.2562 177.105,-34.3352"/>
<polygon fill="midnightblue" stroke="midnightblue" points="178.461,-37.5626 186.433,-30.5844 175.849,-31.068 178.461,-37.5626"/>
</g>
</g>
</svg>
