<?xml version="1.0" encoding="UTF-8" standalone="no"?>
<!DOCTYPE svg PUBLIC "-//W3C//DTD SVG 1.1//EN"
 "http://www.w3.org/Graphics/SVG/1.1/DTD/svg11.dtd">
<!-- Generated by graphviz version 2.38.0 (20140413.2041)
 -->
<!-- Title: gaintegerop::mutationD_PM Pages: 1 -->
<svg width="365pt" height="263pt"
 viewBox="0.00 0.00 365.00 263.00" xmlns="http://www.w3.org/2000/svg" xmlns:xlink="http://www.w3.org/1999/xlink">
<g id="graph0" class="graph" transform="scale(1 1) rotate(0) translate(4 259)">
<title>gaintegerop::mutationD_PM</title>
<polygon fill="white" stroke="none" points="-4,4 -4,-259 361,-259 361,4 -4,4"/>
<!-- Node11 -->
<g id="node1" class="node"><title>Node11</title>
<g id="a_node1"><a xlink:title="Mutate a integer gene.">
<polygon fill="#bfbfbf" stroke="black" points="0,-126 0,-145 142,-145 142,-126 0,-126"/>
<text text-anchor="middle" x="71" y="-133" font-family="Helvetica,sans-Serif" font-size="10.00">gaintegerop::mutationD_PM</text>
</a>
</g>
</g>
<!-- Node12 -->
<g id="node2" class="node"><title>Node12</title>
<g id="a_node2"><a xlink:href="classgaencode_1_1_chromosome_string.html#a08ca3034c3d478c682837aa00f8d8455" target="_top" xlink:title=" ">
<polygon fill="white" stroke="black" points="189.5,-224.5 189.5,-254.5 345.5,-254.5 345.5,-224.5 189.5,-224.5"/>
<text text-anchor="start" x="197.5" y="-242.5" font-family="Helvetica,sans-Serif" font-size="10.00">gaencode::ChromosomeString</text>
<text text-anchor="middle" x="267.5" y="-231.5" font-family="Helvetica,sans-Serif" font-size="10.00">::begin</text>
</a>
</g>
</g>
<!-- Node11&#45;&gt;Node12 -->
<g id="edge1" class="edge"><title>Node11&#45;&gt;Node12</title>
<path fill="none" stroke="midnightblue" d="M82.2713,-145.223C100.272,-161.762 139.296,-195.426 178,-214.5 182.833,-216.882 187.931,-219.071 193.138,-221.075"/>
<polygon fill="midnightblue" stroke="midnightblue" points="192.003,-224.386 202.597,-224.487 194.378,-217.801 192.003,-224.386"/>
</g>
<!-- Node13 -->
<g id="node3" class="node"><title>Node13</title>
<g id="a_node3"><a xlink:href="classgaencode_1_1_chromosome_string.html#a342e2f50721a497be10e4aca213bcd9f" target="_top" xlink:title=" ">
<polygon fill="white" stroke="black" points="178,-186 178,-205 357,-205 357,-186 178,-186"/>
<text text-anchor="middle" x="267.5" y="-193" font-family="Helvetica,sans-Serif" font-size="10.00">gaencode::ChromosomeString::end</text>
</a>
</g>
</g>
<!-- Node11&#45;&gt;Node13 -->
<g id="edge2" class="edge"><title>Node11&#45;&gt;Node13</title>
<path fill="none" stroke="midnightblue" d="M93.5758,-145.002C114.752,-154.051 148.129,-167.577 178,-176.5 186.736,-179.109 196.057,-181.512 205.25,-183.667"/>
<polygon fill="midnightblue" stroke="midnightblue" points="204.615,-187.112 215.141,-185.907 206.161,-180.285 204.615,-187.112"/>
</g>
<!-- Node14 -->
<g id="node4" class="node"><title>Node14</title>
<g id="a_node4"><a xlink:href="namespaceprob.html#a7fd4fb1dca3ca869c8cbb930c031a837" target="_top" xlink:title="Selection a random un like to set items.">
<polygon fill="white" stroke="black" points="206,-148 206,-167 329,-167 329,-148 206,-148"/>
<text text-anchor="middle" x="267.5" y="-155" font-family="Helvetica,sans-Serif" font-size="10.00">prob::getRandSetUnlike</text>
</a>
</g>
</g>
<!-- Node11&#45;&gt;Node14 -->
<g id="edge3" class="edge"><title>Node11&#45;&gt;Node14</title>
<path fill="none" stroke="midnightblue" d="M142.219,-143.443C159.592,-145.408 178.216,-147.514 195.621,-149.483"/>
<polygon fill="midnightblue" stroke="midnightblue" points="195.379,-152.978 205.709,-150.624 196.166,-146.022 195.379,-152.978"/>
</g>
<!-- Node15 -->
<g id="node5" class="node"><title>Node15</title>
<g id="a_node5"><a xlink:href="classgaencode_1_1_chromosome_string.html#a53164831ecb42560c000f529dcccf4c6" target="_top" xlink:title=" ">
<polygon fill="white" stroke="black" points="189.5,-98.5 189.5,-128.5 345.5,-128.5 345.5,-98.5 189.5,-98.5"/>
<text text-anchor="start" x="197.5" y="-116.5" font-family="Helvetica,sans-Serif" font-size="10.00">gaencode::ChromosomeString</text>
<text text-anchor="middle" x="267.5" y="-105.5" font-family="Helvetica,sans-Serif" font-size="10.00">::getStringSize</text>
</a>
</g>
</g>
<!-- Node11&#45;&gt;Node15 -->
<g id="edge4" class="edge"><title>Node11&#45;&gt;Node15</title>
<path fill="none" stroke="midnightblue" d="M142.219,-127.557C154.325,-126.188 167.039,-124.75 179.524,-123.338"/>
<polygon fill="midnightblue" stroke="midnightblue" points="179.928,-126.815 189.471,-122.213 179.141,-119.859 179.928,-126.815"/>
</g>
<!-- Node16 -->
<g id="node6" class="node"><title>Node16</title>
<g id="a_node6"><a xlink:href="classgaencode_1_1_chromosome_base.html#ab7a374a062ba8b5c6b4e674bae9a8299" target="_top" xlink:title=" ">
<polygon fill="white" stroke="black" points="190,-49.5 190,-79.5 345,-79.5 345,-49.5 190,-49.5"/>
<text text-anchor="start" x="198" y="-67.5" font-family="Helvetica,sans-Serif" font-size="10.00">gaencode::ChromosomeBase</text>
<text text-anchor="middle" x="267.5" y="-56.5" font-family="Helvetica,sans-Serif" font-size="10.00">::print</text>
</a>
</g>
</g>
<!-- Node11&#45;&gt;Node16 -->
<g id="edge5" class="edge"><title>Node11&#45;&gt;Node16</title>
<path fill="none" stroke="midnightblue" d="M91.9973,-125.862C113.071,-115.933 147.388,-100.411 178,-89.5 184.824,-87.0678 192.009,-84.7125 199.213,-82.483"/>
<polygon fill="midnightblue" stroke="midnightblue" points="200.454,-85.7647 209.017,-79.5256 198.432,-79.063 200.454,-85.7647"/>
</g>
<!-- Node17 -->
<g id="node7" class="node"><title>Node17</title>
<g id="a_node7"><a xlink:href="classgaencode_1_1_chromosome_string.html#a108a6b60a53fb38578902d2a5d109d17" target="_top" xlink:title=" ">
<polygon fill="white" stroke="black" points="189.5,-0.5 189.5,-30.5 345.5,-30.5 345.5,-0.5 189.5,-0.5"/>
<text text-anchor="start" x="197.5" y="-18.5" font-family="Helvetica,sans-Serif" font-size="10.00">gaencode::ChromosomeString</text>
<text text-anchor="middle" x="267.5" y="-7.5" font-family="Helvetica,sans-Serif" font-size="10.00">::setGene</text>
</a>
</g>
</g>
<!-- Node11&#45;&gt;Node17 -->
<g id="edge6" class="edge"><title>Node11&#45;&gt;Node17</title>
<path fill="none" stroke="midnightblue" d="M79.9958,-125.846C96.377,-106.691 135.781,-63.7303 178,-40.5 182.153,-38.215 186.532,-36.1238 191.031,-34.2122"/>
<polygon fill="midnightblue" stroke="midnightblue" points="192.366,-37.448 200.396,-30.5358 189.808,-30.9321 192.366,-37.448"/>
</g>
</g>
</svg>
