<?xml version="1.0" encoding="UTF-8" standalone="no"?>
<!DOCTYPE svg PUBLIC "-//W3C//DTD SVG 1.1//EN"
 "http://www.w3.org/Graphics/SVG/1.1/DTD/svg11.dtd">
<!-- Generated by graphviz version 2.38.0 (20140413.2041)
 -->
<!-- Title: interfacesse::swap Pages: 1 -->
<!--zoomable 28 -->
<svg id="main" version="1.1" xmlns="http://www.w3.org/2000/svg" xmlns:xlink="http://www.w3.org/1999/xlink" xml:space="preserve" onload="init(evt)">
<style type="text/css"><![CDATA[
.edge:hover path { stroke: red; }
.edge:hover polygon { stroke: red; fill: red; }
]]></style>
<script type="text/javascript"><![CDATA[
var edges = document.getElementsByTagName('g');
if (edges && edges.length) {
  for (var i=0;i<edges.length;i++) {
    if (edges[i].id.substr(0,4)=='edge') {
      edges[i].setAttribute('class','edge');
    }
  }
}
]]></script>
        <defs>
                <circle id="rim" cx="0" cy="0" r="7"/>
                <circle id="rim2" cx="0" cy="0" r="3.5"/>
                <g id="zoomPlus">
                        <use xlink:href="#rim" fill="#404040">
                                <set attributeName="fill" to="#808080" begin="zoomplus.mouseover" end="zoomplus.mouseout"/>
                        </use>
                        <path d="M-4,0h8M0,-4v8" fill="none" stroke="white" stroke-width="1.5" pointer-events="none"/>
                </g>
                <g id="zoomMin">
                        <use xlink:href="#rim" fill="#404040">
                                <set attributeName="fill" to="#808080" begin="zoomminus.mouseover" end="zoomminus.mouseout"/>
                        </use>
                        <path d="M-4,0h8" fill="none" stroke="white" stroke-width="1.5" pointer-events="none"/>
                </g>
                <g id="dirArrow">
                        <path fill="none" stroke="white" stroke-width="1.5" d="M0,-3.0v7 M-2.5,-0.5L0,-3.0L2.5,-0.5"/>
                </g>
               <g id="resetDef">
                       <use xlink:href="#rim2" fill="#404040">
                               <set attributeName="fill" to="#808080" begin="reset.mouseover" end="reset.mouseout"/>
                       </use>
               </g>
        </defs>

<script type="text/javascript">
var viewWidth = 687;
var viewHeight = 28;
var sectionId = 'dynsection-49';
</script>
<script xlink:href="svgpan.js"/>
<svg id="graph" class="graph">
<g id="viewport">
<title>interfacesse::swap</title>
<polygon fill="white" stroke="none" points="-4,4 -4,-24 683,-24 683,4 -4,4"/>
<!-- Node264 -->
<g id="node1" class="node"><title>Node264</title>
<polygon fill="#bfbfbf" stroke="black" points="0,-0.5 0,-19.5 101,-19.5 101,-0.5 0,-0.5"/>
<text text-anchor="middle" x="50.5" y="-7.5" font-family="Helvetica,sans-Serif" font-size="10.00">interfacesse::swap</text>
</g>
<!-- Node265 -->
<g id="node2" class="node"><title>Node265</title>
<g id="a_node2"><a xlink:href="namespaceinterfacesse.html#a948123152e5a1224ca48861b25b6dc0e" target="_top" xlink:title="interfacesse::scalInv">
<polygon fill="white" stroke="black" points="137,-0.5 137,-19.5 246,-19.5 246,-0.5 137,-0.5"/>
<text text-anchor="middle" x="191.5" y="-7.5" font-family="Helvetica,sans-Serif" font-size="10.00">interfacesse::scalInv</text>
</a>
</g>
</g>
<!-- Node264&#45;&gt;Node265 -->
<g id="edge1" class="edge"><title>Node264&#45;&gt;Node265</title>
<path fill="none" stroke="midnightblue" d="M101.29,-10C109.486,-10 118.081,-10 126.565,-10"/>
<polygon fill="midnightblue" stroke="midnightblue" points="126.824,-13.5001 136.824,-10 126.824,-6.5001 126.824,-13.5001"/>
</g>
<!-- Node266 -->
<g id="node3" class="node"><title>Node266</title>
<g id="a_node3"><a xlink:href="namespaceinterfacesse.html#a3ef732d695e1172d5e8404cc0e44865a" target="_top" xlink:title="translate the aoarrayt_y array ">
<polygon fill="white" stroke="black" points="282,-0.5 282,-19.5 386,-19.5 386,-0.5 282,-0.5"/>
<text text-anchor="middle" x="334" y="-7.5" font-family="Helvetica,sans-Serif" font-size="10.00">interfacesse::transy</text>
</a>
</g>
</g>
<!-- Node265&#45;&gt;Node266 -->
<g id="edge2" class="edge"><title>Node265&#45;&gt;Node266</title>
<path fill="none" stroke="midnightblue" d="M246.018,-10C254.49,-10 263.307,-10 271.936,-10"/>
<polygon fill="midnightblue" stroke="midnightblue" points="271.947,-13.5001 281.947,-10 271.947,-6.5001 271.947,-13.5001"/>
</g>
<!-- Node267 -->
<g id="node4" class="node"><title>Node267</title>
<g id="a_node4"><a xlink:href="namespaceinterfacesse.html#ace6b5b44901bf38644ed492778c620f5" target="_top" xlink:title="For a matrix each items change for constant and a vector. ">
<polygon fill="white" stroke="black" points="422,-0.5 422,-19.5 533,-19.5 533,-0.5 422,-0.5"/>
<text text-anchor="middle" x="477.5" y="-7.5" font-family="Helvetica,sans-Serif" font-size="10.00">interfacesse::aasxpa</text>
</a>
</g>
</g>
<!-- Node266&#45;&gt;Node267 -->
<g id="edge3" class="edge"><title>Node266&#45;&gt;Node267</title>
<path fill="none" stroke="midnightblue" d="M386.085,-10C394.302,-10 402.903,-10 411.395,-10"/>
<polygon fill="midnightblue" stroke="midnightblue" points="411.666,-13.5001 421.666,-10 411.666,-6.5001 411.666,-13.5001"/>
</g>
<!-- Node268 -->
<g id="node5" class="node"><title>Node268</title>
<g id="a_node5"><a xlink:href="namespaceinterfacesse.html#a0569818171fd8f88efe5d7f86e6e0b5d" target="_top" xlink:title="extension of xAXPY operation for T result ">
<polygon fill="white" stroke="black" points="569,-0.5 569,-19.5 679,-19.5 679,-0.5 569,-0.5"/>
<text text-anchor="middle" x="624" y="-7.5" font-family="Helvetica,sans-Serif" font-size="10.00">interfacesse::aysxpy</text>
</a>
</g>
</g>
<!-- Node267&#45;&gt;Node268 -->
<g id="edge4" class="edge"><title>Node267&#45;&gt;Node268</title>
<path fill="none" stroke="midnightblue" d="M533.129,-10C541.425,-10 550.051,-10 558.532,-10"/>
<polygon fill="midnightblue" stroke="midnightblue" points="558.773,-13.5001 568.773,-10 558.773,-6.5001 558.773,-13.5001"/>
</g>
</g>
</svg>
        <g id="navigator" transform="translate(0 0)" fill="#404254">
                <rect fill="#f2f5e9" fill-opacity="0.5" stroke="#606060" stroke-width=".5" x="0" y="0" width="60" height="60"/>
                <use id="zoomplus" xlink:href="#zoomPlus" x="17" y="9" onmousedown="handleZoom(evt,'in')"/>
                <use id="zoomminus" xlink:href="#zoomMin" x="42" y="9" onmousedown="handleZoom(evt,'out')"/>
                <use id="reset" xlink:href="#resetDef" x="30" y="36" onmousedown="handleReset()"/>
                <g id="arrowUp" xlink:href="#dirArrow" transform="translate(30 24)" onmousedown="handlePan(0,-1)">
                  <use xlink:href="#rim" fill="#404040">
                        <set attributeName="fill" to="#808080" begin="arrowUp.mouseover" end="arrowUp.mouseout"/>
                  </use>
                  <path fill="none" stroke="white" stroke-width="1.5" d="M0,-3.0v7 M-2.5,-0.5L0,-3.0L2.5,-0.5"/>
                </g>
                <g id="arrowRight" xlink:href="#dirArrow" transform="rotate(90) translate(36 -43)" onmousedown="handlePan(1,0)">
                  <use xlink:href="#rim" fill="#404040">
                        <set attributeName="fill" to="#808080" begin="arrowRight.mouseover" end="arrowRight.mouseout"/>
                  </use>
                  <path fill="none" stroke="white" stroke-width="1.5" d="M0,-3.0v7 M-2.5,-0.5L0,-3.0L2.5,-0.5"/>
                </g>
                <g id="arrowDown" xlink:href="#dirArrow" transform="rotate(180) translate(-30 -48)" onmousedown="handlePan(0,1)">
                  <use xlink:href="#rim" fill="#404040">
                        <set attributeName="fill" to="#808080" begin="arrowDown.mouseover" end="arrowDown.mouseout"/>
                  </use>
                  <path fill="none" stroke="white" stroke-width="1.5" d="M0,-3.0v7 M-2.5,-0.5L0,-3.0L2.5,-0.5"/>
                </g>
                <g id="arrowLeft" xlink:href="#dirArrow" transform="rotate(270) translate(-36 17)" onmousedown="handlePan(-1,0)">
                  <use xlink:href="#rim" fill="#404040">
                        <set attributeName="fill" to="#808080" begin="arrowLeft.mouseover" end="arrowLeft.mouseout"/>
                  </use>
                  <path fill="none" stroke="white" stroke-width="1.5" d="M0,-3.0v7 M-2.5,-0.5L0,-3.0L2.5,-0.5"/>
                </g>
        </g>
        <svg viewBox="0 0 15 15" width="100%" height="30px" preserveAspectRatio="xMaxYMin meet">
         <g id="arrow_out" transform="scale(0.3 0.3)">
          <a xlink:href="namespaceinterfacesse_a0901e4eabb78f7b0026542f8e78f8769_cgraph_org.svg" target="_base">
           <rect id="button" ry="5" rx="5" y="6" x="6" height="38" width="38"
                fill="#f2f5e9" fill-opacity="0.5" stroke="#606060" stroke-width="1.0"/>
           <path id="arrow"
             d="M 11.500037,31.436501 C 11.940474,20.09759 22.043105,11.32322 32.158766,21.979434 L 37.068811,17.246167 C 37.068811,17.246167 37.088388,32 37.088388,32 L 22.160133,31.978069 C 22.160133,31.978069 26.997745,27.140456 26.997745,27.140456 C 18.528582,18.264221 13.291696,25.230495 11.500037,31.436501 z"
             style="fill:#404040;"/>
          </a>
         </g>
        </svg>
</svg>
