<?xml version="1.0" encoding="UTF-8" standalone="no"?>
<!DOCTYPE svg PUBLIC "-//W3C//DTD SVG 1.1//EN"
 "http://www.w3.org/Graphics/SVG/1.1/DTD/svg11.dtd">
<!-- Generated by graphviz version 2.38.0 (20140413.2041)
 -->
<!-- Title: mat::translation Pages: 1 -->
<!--zoomable 104 -->
<svg id="main" version="1.1" xmlns="http://www.w3.org/2000/svg" xmlns:xlink="http://www.w3.org/1999/xlink" xml:space="preserve" onload="init(evt)">
<style type="text/css"><![CDATA[
.edge:hover path { stroke: red; }
.edge:hover polygon { stroke: red; fill: red; }
]]></style>
<script type="text/javascript"><![CDATA[
var edges = document.getElementsByTagName('g');
if (edges && edges.length) {
  for (var i=0;i<edges.length;i++) {
    if (edges[i].id.substr(0,4)=='edge') {
      edges[i].setAttribute('class','edge');
    }
  }
}
]]></script>
        <defs>
                <circle id="rim" cx="0" cy="0" r="7"/>
                <circle id="rim2" cx="0" cy="0" r="3.5"/>
                <g id="zoomPlus">
                        <use xlink:href="#rim" fill="#404040">
                                <set attributeName="fill" to="#808080" begin="zoomplus.mouseover" end="zoomplus.mouseout"/>
                        </use>
                        <path d="M-4,0h8M0,-4v8" fill="none" stroke="white" stroke-width="1.5" pointer-events="none"/>
                </g>
                <g id="zoomMin">
                        <use xlink:href="#rim" fill="#404040">
                                <set attributeName="fill" to="#808080" begin="zoomminus.mouseover" end="zoomminus.mouseout"/>
                        </use>
                        <path d="M-4,0h8" fill="none" stroke="white" stroke-width="1.5" pointer-events="none"/>
                </g>
                <g id="dirArrow">
                        <path fill="none" stroke="white" stroke-width="1.5" d="M0,-3.0v7 M-2.5,-0.5L0,-3.0L2.5,-0.5"/>
                </g>
               <g id="resetDef">
                       <use xlink:href="#rim2" fill="#404040">
                               <set attributeName="fill" to="#808080" begin="reset.mouseover" end="reset.mouseout"/>
                       </use>
               </g>
        </defs>

<script type="text/javascript">
var viewWidth = 1110;
var viewHeight = 104;
var sectionId = 'dynsection-24';
</script>
<script xlink:href="svgpan.js"/>
<svg id="graph" class="graph">
<g id="viewport">
<title>mat::translation</title>
<polygon fill="white" stroke="none" points="-4,4 -4,-100 1106,-100 1106,4 -4,4"/>
<!-- Node242 -->
<g id="node1" class="node"><title>Node242</title>
<polygon fill="#bfbfbf" stroke="black" points="0,-57.5 0,-76.5 85,-76.5 85,-57.5 0,-57.5"/>
<text text-anchor="middle" x="42.5" y="-64.5" font-family="Helvetica,sans-Serif" font-size="10.00">mat::translation</text>
</g>
<!-- Node243 -->
<g id="node2" class="node"><title>Node243</title>
<g id="a_node2"><a xlink:href="classmat_1_1_matrix_row.html#a1070fba1c0ec0fbaa309f141817be412" target="_top" xlink:title="mat::MatrixRow::initialize">
<polygon fill="white" stroke="black" points="221,-76.5 221,-95.5 349,-95.5 349,-76.5 221,-76.5"/>
<text text-anchor="middle" x="285" y="-83.5" font-family="Helvetica,sans-Serif" font-size="10.00">mat::MatrixRow::initialize</text>
</a>
</g>
</g>
<!-- Node242&#45;&gt;Node243 -->
<g id="edge1" class="edge"><title>Node242&#45;&gt;Node243</title>
<path fill="none" stroke="midnightblue" d="M85.1173,-70.2879C119.645,-73.0156 169.575,-76.9602 210.768,-80.2145"/>
<polygon fill="midnightblue" stroke="midnightblue" points="210.521,-83.7059 220.766,-81.0044 211.073,-76.7276 210.521,-83.7059"/>
</g>
<!-- Node244 -->
<g id="node3" class="node"><title>Node244</title>
<g id="a_node3"><a xlink:href="namespacemat.html#ae1e820b24e4c742f06fd5b7780ab5b97" target="_top" xlink:title="mat::scale">
<polygon fill="white" stroke="black" points="121,-38.5 121,-57.5 185,-57.5 185,-38.5 121,-38.5"/>
<text text-anchor="middle" x="153" y="-45.5" font-family="Helvetica,sans-Serif" font-size="10.00">mat::scale</text>
</a>
</g>
</g>
<!-- Node242&#45;&gt;Node244 -->
<g id="edge2" class="edge"><title>Node242&#45;&gt;Node244</title>
<path fill="none" stroke="midnightblue" d="M85.1386,-59.7084C93.5509,-58.2353 102.391,-56.6872 110.789,-55.2167"/>
<polygon fill="midnightblue" stroke="midnightblue" points="111.507,-58.6442 120.754,-53.4717 110.3,-51.7491 111.507,-58.6442"/>
</g>
<!-- Node244&#45;&gt;Node243 -->
<g id="edge3" class="edge"><title>Node244&#45;&gt;Node243</title>
<path fill="none" stroke="midnightblue" d="M185.138,-57.1019C202.075,-62.0527 223.268,-68.2474 241.683,-73.6303"/>
<polygon fill="midnightblue" stroke="midnightblue" points="240.721,-76.9957 251.302,-76.442 242.685,-70.2769 240.721,-76.9957"/>
</g>
<!-- Node245 -->
<g id="node4" class="node"><title>Node245</title>
<g id="a_node4"><a xlink:href="namespacemat.html#af8bcbe694a1405a53147e398865e27f9" target="_top" xlink:title="mat::point">
<polygon fill="white" stroke="black" points="255,-38.5 255,-57.5 315,-57.5 315,-38.5 255,-38.5"/>
<text text-anchor="middle" x="285" y="-45.5" font-family="Helvetica,sans-Serif" font-size="10.00">mat::point</text>
</a>
</g>
</g>
<!-- Node244&#45;&gt;Node245 -->
<g id="edge4" class="edge"><title>Node244&#45;&gt;Node245</title>
<path fill="none" stroke="midnightblue" d="M185.138,-48C203.011,-48 225.623,-48 244.709,-48"/>
<polygon fill="midnightblue" stroke="midnightblue" points="244.898,-51.5001 254.898,-48 244.898,-44.5001 244.898,-51.5001"/>
</g>
<!-- Node246 -->
<g id="node5" class="node"><title>Node246</title>
<g id="a_node5"><a xlink:href="namespaceinterfacesse.html#a2f42addf86fc8b9cd0c6620217b8a2db" target="_top" xlink:title="swap items of aoarrayt_y to aiarrayt_x ">
<polygon fill="white" stroke="black" points="424,-76.5 424,-95.5 516,-95.5 516,-76.5 424,-76.5"/>
<text text-anchor="middle" x="470" y="-83.5" font-family="Helvetica,sans-Serif" font-size="10.00">interfacesse::dot</text>
</a>
</g>
</g>
<!-- Node245&#45;&gt;Node246 -->
<g id="edge5" class="edge"><title>Node245&#45;&gt;Node246</title>
<path fill="none" stroke="midnightblue" d="M315.402,-54.1054C341.955,-59.6191 381.719,-67.8761 414.135,-74.6073"/>
<polygon fill="midnightblue" stroke="midnightblue" points="413.434,-78.0362 423.936,-76.6425 414.857,-71.1824 413.434,-78.0362"/>
</g>
<!-- Node251 -->
<g id="node10" class="node"><title>Node251</title>
<g id="a_node10"><a xlink:href="classmat_1_1_matrix_base.html#a70200414022ce1479b9ddc16102b12ae" target="_top" xlink:title="mat::MatrixBase::getNumColumns">
<polygon fill="white" stroke="black" points="385,-38.5 385,-57.5 555,-57.5 555,-38.5 385,-38.5"/>
<text text-anchor="middle" x="470" y="-45.5" font-family="Helvetica,sans-Serif" font-size="10.00">mat::MatrixBase::getNumColumns</text>
</a>
</g>
</g>
<!-- Node245&#45;&gt;Node251 -->
<g id="edge10" class="edge"><title>Node245&#45;&gt;Node251</title>
<path fill="none" stroke="midnightblue" d="M315.402,-48C331.713,-48 353.007,-48 374.522,-48"/>
<polygon fill="midnightblue" stroke="midnightblue" points="374.742,-51.5001 384.742,-48 374.741,-44.5001 374.742,-51.5001"/>
</g>
<!-- Node252 -->
<g id="node11" class="node"><title>Node252</title>
<g id="a_node11"><a xlink:href="classmat_1_1_matrix_row.html#a5391a205367fbaac82a26ddc377a80af" target="_top" xlink:title="mat::MatrixRow::getRow">
<polygon fill="white" stroke="black" points="406.5,-0.5 406.5,-19.5 533.5,-19.5 533.5,-0.5 406.5,-0.5"/>
<text text-anchor="middle" x="470" y="-7.5" font-family="Helvetica,sans-Serif" font-size="10.00">mat::MatrixRow::getRow</text>
</a>
</g>
</g>
<!-- Node245&#45;&gt;Node252 -->
<g id="edge11" class="edge"><title>Node245&#45;&gt;Node252</title>
<path fill="none" stroke="midnightblue" d="M315.402,-41.8946C341.659,-36.4425 380.832,-28.3081 413.045,-21.619"/>
<polygon fill="midnightblue" stroke="midnightblue" points="414.155,-24.9633 423.235,-19.5032 412.732,-18.1095 414.155,-24.9633"/>
</g>
<!-- Node247 -->
<g id="node6" class="node"><title>Node247</title>
<g id="a_node6"><a xlink:href="namespaceinterfacesse.html#a25f6950d589b92fd5bcf2007fb3fae19" target="_top" xlink:title="interfacesse::sum">
<polygon fill="white" stroke="black" points="591,-76.5 591,-95.5 687,-95.5 687,-76.5 591,-76.5"/>
<text text-anchor="middle" x="639" y="-83.5" font-family="Helvetica,sans-Serif" font-size="10.00">interfacesse::sum</text>
</a>
</g>
</g>
<!-- Node246&#45;&gt;Node247 -->
<g id="edge6" class="edge"><title>Node246&#45;&gt;Node247</title>
<path fill="none" stroke="midnightblue" d="M516.193,-86C536.033,-86 559.557,-86 580.616,-86"/>
<polygon fill="midnightblue" stroke="midnightblue" points="580.73,-89.5001 590.73,-86 580.73,-82.5001 580.73,-89.5001"/>
</g>
<!-- Node248 -->
<g id="node7" class="node"><title>Node248</title>
<g id="a_node7"><a xlink:href="namespaceinterfacesse.html#a9dd5fb43ad8a83ee5cb2f5ba1bb2085b" target="_top" xlink:title="interfacesse::axpy">
<polygon fill="white" stroke="black" points="723,-76.5 723,-95.5 822,-95.5 822,-76.5 723,-76.5"/>
<text text-anchor="middle" x="772.5" y="-83.5" font-family="Helvetica,sans-Serif" font-size="10.00">interfacesse::axpy</text>
</a>
</g>
</g>
<!-- Node247&#45;&gt;Node248 -->
<g id="edge7" class="edge"><title>Node247&#45;&gt;Node248</title>
<path fill="none" stroke="midnightblue" d="M687.103,-86C695.472,-86 704.281,-86 712.922,-86"/>
<polygon fill="midnightblue" stroke="midnightblue" points="712.953,-89.5001 722.953,-86 712.953,-82.5001 712.953,-89.5001"/>
</g>
<!-- Node249 -->
<g id="node8" class="node"><title>Node249</title>
<g id="a_node8"><a xlink:href="namespaceinterfacesse.html#ae3f94c42a59db65b2941dbfc9f449ea1" target="_top" xlink:title="function xAXPY of blas for doubles vectors ">
<polygon fill="white" stroke="black" points="858,-76.5 858,-95.5 970,-95.5 970,-76.5 858,-76.5"/>
<text text-anchor="middle" x="914" y="-83.5" font-family="Helvetica,sans-Serif" font-size="10.00">interfacesse::axpyInv</text>
</a>
</g>
</g>
<!-- Node248&#45;&gt;Node249 -->
<g id="edge8" class="edge"><title>Node248&#45;&gt;Node249</title>
<path fill="none" stroke="midnightblue" d="M822.29,-86C830.535,-86 839.211,-86 847.794,-86"/>
<polygon fill="midnightblue" stroke="midnightblue" points="847.797,-89.5001 857.797,-86 847.797,-82.5001 847.797,-89.5001"/>
</g>
<!-- Node250 -->
<g id="node9" class="node"><title>Node250</title>
<g id="a_node9"><a xlink:href="namespaceinterfacesse.html#a144ebf70bf38495c3de1aca2c8365e08" target="_top" xlink:title="scal items of the array of type T ">
<polygon fill="white" stroke="black" points="1006,-76.5 1006,-95.5 1102,-95.5 1102,-76.5 1006,-76.5"/>
<text text-anchor="middle" x="1054" y="-83.5" font-family="Helvetica,sans-Serif" font-size="10.00">interfacesse::scal</text>
</a>
</g>
</g>
<!-- Node249&#45;&gt;Node250 -->
<g id="edge9" class="edge"><title>Node249&#45;&gt;Node250</title>
<path fill="none" stroke="midnightblue" d="M970.335,-86C978.651,-86 987.243,-86 995.602,-86"/>
<polygon fill="midnightblue" stroke="midnightblue" points="995.647,-89.5001 1005.65,-86 995.647,-82.5001 995.647,-89.5001"/>
</g>
</g>
</svg>
        <g id="navigator" transform="translate(0 0)" fill="#404254">
                <rect fill="#f2f5e9" fill-opacity="0.5" stroke="#606060" stroke-width=".5" x="0" y="0" width="60" height="60"/>
                <use id="zoomplus" xlink:href="#zoomPlus" x="17" y="9" onmousedown="handleZoom(evt,'in')"/>
                <use id="zoomminus" xlink:href="#zoomMin" x="42" y="9" onmousedown="handleZoom(evt,'out')"/>
                <use id="reset" xlink:href="#resetDef" x="30" y="36" onmousedown="handleReset()"/>
                <g id="arrowUp" xlink:href="#dirArrow" transform="translate(30 24)" onmousedown="handlePan(0,-1)">
                  <use xlink:href="#rim" fill="#404040">
                        <set attributeName="fill" to="#808080" begin="arrowUp.mouseover" end="arrowUp.mouseout"/>
                  </use>
                  <path fill="none" stroke="white" stroke-width="1.5" d="M0,-3.0v7 M-2.5,-0.5L0,-3.0L2.5,-0.5"/>
                </g>
                <g id="arrowRight" xlink:href="#dirArrow" transform="rotate(90) translate(36 -43)" onmousedown="handlePan(1,0)">
                  <use xlink:href="#rim" fill="#404040">
                        <set attributeName="fill" to="#808080" begin="arrowRight.mouseover" end="arrowRight.mouseout"/>
                  </use>
                  <path fill="none" stroke="white" stroke-width="1.5" d="M0,-3.0v7 M-2.5,-0.5L0,-3.0L2.5,-0.5"/>
                </g>
                <g id="arrowDown" xlink:href="#dirArrow" transform="rotate(180) translate(-30 -48)" onmousedown="handlePan(0,1)">
                  <use xlink:href="#rim" fill="#404040">
                        <set attributeName="fill" to="#808080" begin="arrowDown.mouseover" end="arrowDown.mouseout"/>
                  </use>
                  <path fill="none" stroke="white" stroke-width="1.5" d="M0,-3.0v7 M-2.5,-0.5L0,-3.0L2.5,-0.5"/>
                </g>
                <g id="arrowLeft" xlink:href="#dirArrow" transform="rotate(270) translate(-36 17)" onmousedown="handlePan(-1,0)">
                  <use xlink:href="#rim" fill="#404040">
                        <set attributeName="fill" to="#808080" begin="arrowLeft.mouseover" end="arrowLeft.mouseout"/>
                  </use>
                  <path fill="none" stroke="white" stroke-width="1.5" d="M0,-3.0v7 M-2.5,-0.5L0,-3.0L2.5,-0.5"/>
                </g>
        </g>
        <svg viewBox="0 0 15 15" width="100%" height="30px" preserveAspectRatio="xMaxYMin meet">
         <g id="arrow_out" transform="scale(0.3 0.3)">
          <a xlink:href="namespacemat_ad894d44366337c201c3c6ad21571dc68_cgraph_org.svg" target="_base">
           <rect id="button" ry="5" rx="5" y="6" x="6" height="38" width="38"
                fill="#f2f5e9" fill-opacity="0.5" stroke="#606060" stroke-width="1.0"/>
           <path id="arrow"
             d="M 11.500037,31.436501 C 11.940474,20.09759 22.043105,11.32322 32.158766,21.979434 L 37.068811,17.246167 C 37.068811,17.246167 37.088388,32 37.088388,32 L 22.160133,31.978069 C 22.160133,31.978069 26.997745,27.140456 26.997745,27.140456 C 18.528582,18.264221 13.291696,25.230495 11.500037,31.436501 z"
             style="fill:#404040;"/>
          </a>
         </g>
        </svg>
</svg>
