<?xml version="1.0" encoding="UTF-8" standalone="no"?>
<!DOCTYPE svg PUBLIC "-//W3C//DTD SVG 1.1//EN"
 "http://www.w3.org/Graphics/SVG/1.1/DTD/svg11.dtd">
<!-- Generated by graphviz version 2.38.0 (20140413.2041)
 -->
<!-- Title: prob::getDistGKA Pages: 1 -->
<svg width="242pt" height="142pt"
 viewBox="0.00 0.00 242.00 142.00" xmlns="http://www.w3.org/2000/svg" xmlns:xlink="http://www.w3.org/1999/xlink">
<g id="graph0" class="graph" transform="scale(1 1) rotate(0) translate(4 138)">
<title>prob::getDistGKA</title>
<polygon fill="white" stroke="none" points="-4,4 -4,-138 238,-138 238,4 -4,4"/>
<!-- Node2 -->
<g id="node1" class="node"><title>Node2</title>
<g id="a_node1"><a xlink:title="GKA Probability Distribution .">
<polygon fill="#bfbfbf" stroke="black" points="0,-57.5 0,-76.5 95,-76.5 95,-57.5 0,-57.5"/>
<text text-anchor="middle" x="47.5" y="-64.5" font-family="Helvetica,sans-Serif" font-size="10.00">prob::getDistGKA</text>
</a>
</g>
</g>
<!-- Node3 -->
<g id="node2" class="node"><title>Node3</title>
<g id="a_node2"><a xlink:href="namespaceinterfacesse.html#a9dd5fb43ad8a83ee5cb2f5ba1bb2085b" target="_top" xlink:title=" ">
<polygon fill="white" stroke="black" points="133,-114.5 133,-133.5 232,-133.5 232,-114.5 133,-114.5"/>
<text text-anchor="middle" x="182.5" y="-121.5" font-family="Helvetica,sans-Serif" font-size="10.00">interfacesse::axpy</text>
</a>
</g>
</g>
<!-- Node2&#45;&gt;Node3 -->
<g id="edge1" class="edge"><title>Node2&#45;&gt;Node3</title>
<path fill="none" stroke="midnightblue" d="M68.3273,-76.6191C84.929,-84.5554 109.32,-95.9423 131,-105 135.74,-106.98 140.767,-108.984 145.741,-110.911"/>
<polygon fill="midnightblue" stroke="midnightblue" points="144.558,-114.206 155.149,-114.493 147.049,-107.664 144.558,-114.206"/>
</g>
<!-- Node4 -->
<g id="node3" class="node"><title>Node4</title>
<g id="a_node3"><a xlink:href="namespaceinout.html#a0c10a45877a347dec0d4ec4e5b05b828" target="_top" xlink:title=" ">
<polygon fill="white" stroke="black" points="131,-76.5 131,-95.5 234,-95.5 234,-76.5 131,-76.5"/>
<text text-anchor="middle" x="182.5" y="-83.5" font-family="Helvetica,sans-Serif" font-size="10.00">inout::containerprint</text>
</a>
</g>
</g>
<!-- Node2&#45;&gt;Node4 -->
<g id="edge2" class="edge"><title>Node2&#45;&gt;Node4</title>
<path fill="none" stroke="midnightblue" d="M95.0169,-73.6453C103.308,-74.8298 112.057,-76.0795 120.677,-77.311"/>
<polygon fill="midnightblue" stroke="midnightblue" points="120.308,-80.7937 130.703,-78.7432 121.298,-73.8641 120.308,-80.7937"/>
</g>
<!-- Node5 -->
<g id="node4" class="node"><title>Node5</title>
<g id="a_node4"><a xlink:href="namespaceinterfacesse.html#a144ebf70bf38495c3de1aca2c8365e08" target="_top" xlink:title="scal items of the array of type T">
<polygon fill="white" stroke="black" points="134.5,-38.5 134.5,-57.5 230.5,-57.5 230.5,-38.5 134.5,-38.5"/>
<text text-anchor="middle" x="182.5" y="-45.5" font-family="Helvetica,sans-Serif" font-size="10.00">interfacesse::scal</text>
</a>
</g>
</g>
<!-- Node2&#45;&gt;Node5 -->
<g id="edge3" class="edge"><title>Node2&#45;&gt;Node5</title>
<path fill="none" stroke="midnightblue" d="M95.0169,-60.3547C104.468,-59.0045 114.513,-57.5695 124.286,-56.1735"/>
<polygon fill="midnightblue" stroke="midnightblue" points="124.93,-59.6171 134.334,-54.738 123.94,-52.6874 124.93,-59.6171"/>
</g>
<!-- Node6 -->
<g id="node5" class="node"><title>Node6</title>
<g id="a_node5"><a xlink:href="namespaceinterfacesse.html#a25f6950d589b92fd5bcf2007fb3fae19" target="_top" xlink:title=" ">
<polygon fill="white" stroke="black" points="134.5,-0.5 134.5,-19.5 230.5,-19.5 230.5,-0.5 134.5,-0.5"/>
<text text-anchor="middle" x="182.5" y="-7.5" font-family="Helvetica,sans-Serif" font-size="10.00">interfacesse::sum</text>
</a>
</g>
</g>
<!-- Node2&#45;&gt;Node6 -->
<g id="edge4" class="edge"><title>Node2&#45;&gt;Node6</title>
<path fill="none" stroke="midnightblue" d="M68.3273,-57.3809C84.929,-49.4446 109.32,-38.0577 131,-29 135.74,-27.0195 140.767,-25.0156 145.741,-23.0892"/>
<polygon fill="midnightblue" stroke="midnightblue" points="147.049,-26.3362 155.149,-19.5066 144.558,-19.7945 147.049,-26.3362"/>
</g>
</g>
</svg>
