<?xml version="1.0" encoding="UTF-8" standalone="no"?>
<!DOCTYPE svg PUBLIC "-//W3C//DTD SVG 1.1//EN"
 "http://www.w3.org/Graphics/SVG/1.1/DTD/svg11.dtd">
<!-- Generated by graphviz version 2.38.0 (20140413.2041)
 -->
<!-- Title: gaclusteringop::MO1 Pages: 1 -->
<svg width="862pt" height="748pt"
 viewBox="0.00 0.00 862.00 747.50" xmlns="http://www.w3.org/2000/svg" xmlns:xlink="http://www.w3.org/1999/xlink">
<g id="graph0" class="graph" transform="scale(1 1) rotate(0) translate(4 743.5)">
<title>gaclusteringop::MO1</title>
<polygon fill="white" stroke="none" points="-4,4 -4,-743.5 858,-743.5 858,4 -4,4"/>
<!-- Node132 -->
<g id="node1" class="node"><title>Node132</title>
<g id="a_node1"><a xlink:title="MO1 mutation operator .">
<polygon fill="#bfbfbf" stroke="black" points="0,-235.5 0,-254.5 110,-254.5 110,-235.5 0,-235.5"/>
<text text-anchor="middle" x="55" y="-242.5" font-family="Helvetica,sans-Serif" font-size="10.00">gaclusteringop::MO1</text>
</a>
</g>
</g>
<!-- Node133 -->
<g id="node2" class="node"><title>Node133</title>
<g id="a_node2"><a xlink:href="classgaencode_1_1_chrom_fixed_length.html#af29275f1369d5ba7ca30da4831a528db" target="_top" xlink:title=" ">
<polygon fill="white" stroke="black" points="157.5,-438 157.5,-468 312.5,-468 312.5,-438 157.5,-438"/>
<text text-anchor="start" x="165.5" y="-456" font-family="Helvetica,sans-Serif" font-size="10.00">gaencode::ChromFixedLength</text>
<text text-anchor="middle" x="235" y="-445" font-family="Helvetica,sans-Serif" font-size="10.00">::begin</text>
</a>
</g>
</g>
<!-- Node132&#45;&gt;Node133 -->
<g id="edge1" class="edge"><title>Node132&#45;&gt;Node133</title>
<path fill="none" stroke="midnightblue" d="M57.8632,-254.666C64.2415,-285.085 88.0914,-379.691 146,-428 148.028,-429.691 150.163,-431.269 152.383,-432.739"/>
<polygon fill="midnightblue" stroke="midnightblue" points="150.913,-435.932 161.323,-437.9 154.412,-429.869 150.913,-435.932"/>
</g>
<!-- Node134 -->
<g id="node3" class="node"><title>Node134</title>
<g id="a_node3"><a xlink:href="classgaencode_1_1_chrom_fixed_length.html#a014e2a6eac1f0dc7655e37b2a8355a4e" target="_top" xlink:title=" ">
<polygon fill="white" stroke="black" points="146,-399.5 146,-418.5 324,-418.5 324,-399.5 146,-399.5"/>
<text text-anchor="middle" x="235" y="-406.5" font-family="Helvetica,sans-Serif" font-size="10.00">gaencode::ChromFixedLength::end</text>
</a>
</g>
</g>
<!-- Node132&#45;&gt;Node134 -->
<g id="edge2" class="edge"><title>Node132&#45;&gt;Node134</title>
<path fill="none" stroke="midnightblue" d="M59.3288,-254.536C68.6932,-279.922 97.7711,-349.624 146,-385 151.97,-389.379 158.693,-392.958 165.697,-395.885"/>
<polygon fill="midnightblue" stroke="midnightblue" points="164.784,-399.28 175.377,-399.485 167.224,-392.719 164.784,-399.28"/>
</g>
<!-- Node135 -->
<g id="node4" class="node"><title>Node135</title>
<g id="a_node4"><a xlink:href="namespaceclusteringop.html#ac52fbdbee047ca93bef1426d6493f31f" target="_top" xlink:title=" ">
<polygon fill="white" stroke="black" points="363,-462.5 363,-481.5 497,-481.5 497,-462.5 363,-462.5"/>
<text text-anchor="middle" x="430" y="-469.5" font-family="Helvetica,sans-Serif" font-size="10.00">clusteringop::getCentroids</text>
</a>
</g>
</g>
<!-- Node132&#45;&gt;Node135 -->
<g id="edge3" class="edge"><title>Node132&#45;&gt;Node135</title>
<path fill="none" stroke="midnightblue" d="M61.0614,-254.532C72.8608,-275.756 104.383,-327.002 146,-352 215.346,-393.653 250.697,-355.788 324,-390 359.184,-406.421 393.375,-436.566 412.746,-455.375"/>
<polygon fill="midnightblue" stroke="midnightblue" points="410.306,-457.885 419.872,-462.439 415.234,-452.913 410.306,-457.885"/>
</g>
<!-- Node149 -->
<g id="node18" class="node"><title>Node149</title>
<g id="a_node18"><a xlink:href="classgaencode_1_1_chrom_fixed_length.html#ab9d0b01b82cd679c6232dcd78c13e9d2" target="_top" xlink:title=" ">
<polygon fill="white" stroke="black" points="157.5,-274 157.5,-304 312.5,-304 312.5,-274 157.5,-274"/>
<text text-anchor="start" x="165.5" y="-292" font-family="Helvetica,sans-Serif" font-size="10.00">gaencode::ChromFixedLength</text>
<text text-anchor="middle" x="235" y="-281" font-family="Helvetica,sans-Serif" font-size="10.00">::getGene</text>
</a>
</g>
</g>
<!-- Node132&#45;&gt;Node149 -->
<g id="edge19" class="edge"><title>Node132&#45;&gt;Node149</title>
<path fill="none" stroke="midnightblue" d="M94.6233,-254.547C114.664,-259.501 139.786,-265.711 163.162,-271.49"/>
<polygon fill="midnightblue" stroke="midnightblue" points="162.506,-274.933 173.054,-273.935 164.186,-268.137 162.506,-274.933"/>
</g>
<!-- Node150 -->
<g id="node19" class="node"><title>Node150</title>
<g id="a_node19"><a xlink:href="classdata_1_1_instance.html#a90d1eaeb66cc1470bbfdb95434fdb761" target="_top" xlink:title=" ">
<polygon fill="white" stroke="black" points="148,-235.5 148,-254.5 322,-254.5 322,-235.5 148,-235.5"/>
<text text-anchor="middle" x="235" y="-242.5" font-family="Helvetica,sans-Serif" font-size="10.00">data::Instance::getNumDimensions</text>
</a>
</g>
</g>
<!-- Node132&#45;&gt;Node150 -->
<g id="edge20" class="edge"><title>Node132&#45;&gt;Node150</title>
<path fill="none" stroke="midnightblue" d="M110.373,-245C119.083,-245 128.316,-245 137.659,-245"/>
<polygon fill="midnightblue" stroke="midnightblue" points="137.819,-248.5 147.819,-245 137.819,-241.5 137.819,-248.5"/>
</g>
<!-- Node151 -->
<g id="node20" class="node"><title>Node151</title>
<g id="a_node20"><a xlink:href="classgaencode_1_1_chrom_fixed_length.html#a4d1d15f6be16c0d0a23824033993aa71" target="_top" xlink:title=" ">
<polygon fill="white" stroke="black" points="157.5,-186 157.5,-216 312.5,-216 312.5,-186 157.5,-186"/>
<text text-anchor="start" x="165.5" y="-204" font-family="Helvetica,sans-Serif" font-size="10.00">gaencode::ChromFixedLength</text>
<text text-anchor="middle" x="235" y="-193" font-family="Helvetica,sans-Serif" font-size="10.00">::getString</text>
</a>
</g>
</g>
<!-- Node132&#45;&gt;Node151 -->
<g id="edge21" class="edge"><title>Node132&#45;&gt;Node151</title>
<path fill="none" stroke="midnightblue" d="M94.6233,-235.453C114.664,-230.499 139.786,-224.289 163.162,-218.51"/>
<polygon fill="midnightblue" stroke="midnightblue" points="164.186,-221.863 173.054,-216.065 162.506,-215.067 164.186,-221.863"/>
</g>
<!-- Node152 -->
<g id="node21" class="node"><title>Node152</title>
<g id="a_node21"><a xlink:href="classgaencode_1_1_chrom_fixed_length.html#a2d0b4e4d46c2f224ce34cf795407b407" target="_top" xlink:title=" ">
<polygon fill="white" stroke="black" points="157.5,-137 157.5,-167 312.5,-167 312.5,-137 157.5,-137"/>
<text text-anchor="start" x="165.5" y="-155" font-family="Helvetica,sans-Serif" font-size="10.00">gaencode::ChromFixedLength</text>
<text text-anchor="middle" x="235" y="-144" font-family="Helvetica,sans-Serif" font-size="10.00">::print</text>
</a>
</g>
</g>
<!-- Node132&#45;&gt;Node152 -->
<g id="edge22" class="edge"><title>Node132&#45;&gt;Node152</title>
<path fill="none" stroke="midnightblue" d="M65.955,-235.462C81.7132,-220.857 113.918,-192.972 146,-177 150.592,-174.714 155.426,-172.607 160.368,-170.67"/>
<polygon fill="midnightblue" stroke="midnightblue" points="161.783,-173.879 169.969,-167.152 159.375,-167.306 161.783,-173.879"/>
</g>
<!-- Node153 -->
<g id="node22" class="node"><title>Node153</title>
<g id="a_node22"><a xlink:href="classgaencode_1_1_chrom_fixed_length.html#a62cd9d117ffefb43b4de56cf82bc44bc" target="_top" xlink:title=" ">
<polygon fill="white" stroke="black" points="157.5,-88 157.5,-118 312.5,-118 312.5,-88 157.5,-88"/>
<text text-anchor="start" x="165.5" y="-106" font-family="Helvetica,sans-Serif" font-size="10.00">gaencode::ChromFixedLength</text>
<text text-anchor="middle" x="235" y="-95" font-family="Helvetica,sans-Serif" font-size="10.00">::setGene</text>
</a>
</g>
</g>
<!-- Node132&#45;&gt;Node153 -->
<g id="edge23" class="edge"><title>Node132&#45;&gt;Node153</title>
<path fill="none" stroke="midnightblue" d="M60.6053,-235.457C71.89,-213.105 103.157,-157.056 146,-128 148.914,-126.023 151.984,-124.202 155.16,-122.523"/>
<polygon fill="midnightblue" stroke="midnightblue" points="156.819,-125.61 164.353,-118.16 153.818,-119.286 156.819,-125.61"/>
</g>
<!-- Node154 -->
<g id="node23" class="node"><title>Node154</title>
<g id="a_node23"><a xlink:href="namespaceclusteringop.html#a4cd166849eef381706813bb06e2029b4" target="_top" xlink:title="Set up cluster index.">
<polygon fill="white" stroke="black" points="169.5,-323.5 169.5,-342.5 300.5,-342.5 300.5,-323.5 169.5,-323.5"/>
<text text-anchor="middle" x="235" y="-330.5" font-family="Helvetica,sans-Serif" font-size="10.00">clusteringop::setUpCuster</text>
</a>
</g>
</g>
<!-- Node132&#45;&gt;Node154 -->
<g id="edge24" class="edge"><title>Node132&#45;&gt;Node154</title>
<path fill="none" stroke="midnightblue" d="M65.5508,-254.694C81.0119,-269.797 113.122,-298.787 146,-314 151.361,-316.481 157.058,-318.643 162.874,-320.527"/>
<polygon fill="midnightblue" stroke="midnightblue" points="162.154,-323.964 172.736,-323.442 164.138,-317.251 162.154,-323.964"/>
</g>
<!-- Node157 -->
<g id="node26" class="node"><title>Node157</title>
<g id="a_node26"><a xlink:href="classgaencode_1_1_chrom_fixed_length.html#a406e67fa48d6cdfc7a01f0c6e04f373b" target="_top" xlink:title=" ">
<polygon fill="white" stroke="black" points="157.5,-39 157.5,-69 312.5,-69 312.5,-39 157.5,-39"/>
<text text-anchor="start" x="165.5" y="-57" font-family="Helvetica,sans-Serif" font-size="10.00">gaencode::ChromFixedLength</text>
<text text-anchor="middle" x="235" y="-46" font-family="Helvetica,sans-Serif" font-size="10.00">::stcgetStringSize</text>
</a>
</g>
</g>
<!-- Node132&#45;&gt;Node157 -->
<g id="edge31" class="edge"><title>Node132&#45;&gt;Node157</title>
<path fill="none" stroke="midnightblue" d="M58.3608,-235.424C65.8804,-206.974 92.0144,-122.246 146,-79 148.266,-77.1847 150.657,-75.5012 153.144,-73.9399"/>
<polygon fill="midnightblue" stroke="midnightblue" points="154.865,-76.9879 161.925,-69.0886 151.48,-70.8608 154.865,-76.9879"/>
</g>
<!-- Node158 -->
<g id="node27" class="node"><title>Node158</title>
<g id="a_node27"><a xlink:href="namespaceinterfacesse.html#afaa45a2a27710ea2dfa979289cf4961d" target="_top" xlink:title="swap items of aoarrayt_y to aiarrayt_x">
<polygon fill="white" stroke="black" points="184.5,-0.5 184.5,-19.5 285.5,-19.5 285.5,-0.5 184.5,-0.5"/>
<text text-anchor="middle" x="235" y="-7.5" font-family="Helvetica,sans-Serif" font-size="10.00">interfacesse::swap</text>
</a>
</g>
</g>
<!-- Node132&#45;&gt;Node158 -->
<g id="edge32" class="edge"><title>Node132&#45;&gt;Node158</title>
<path fill="none" stroke="midnightblue" d="M56.9496,-235.484C60.8517,-201.695 78.779,-86.495 146,-30 154.089,-23.2014 164.024,-18.5969 174.271,-15.5022"/>
<polygon fill="midnightblue" stroke="midnightblue" points="175.321,-18.8463 184.141,-12.9755 173.585,-12.065 175.321,-18.8463"/>
</g>
<!-- Node136 -->
<g id="node5" class="node"><title>Node136</title>
<g id="a_node5"><a xlink:href="namespaceinterfacesse.html#a9dd5fb43ad8a83ee5cb2f5ba1bb2085b" target="_top" xlink:title=" ">
<polygon fill="white" stroke="black" points="571.5,-380.5 571.5,-399.5 670.5,-399.5 670.5,-380.5 571.5,-380.5"/>
<text text-anchor="middle" x="621" y="-387.5" font-family="Helvetica,sans-Serif" font-size="10.00">interfacesse::axpy</text>
</a>
</g>
</g>
<!-- Node135&#45;&gt;Node136 -->
<g id="edge4" class="edge"><title>Node135&#45;&gt;Node136</title>
<path fill="none" stroke="midnightblue" d="M443.877,-462.406C463.002,-448.604 500.484,-423.244 536,-409 544.066,-405.765 552.8,-403.019 561.482,-400.708"/>
<polygon fill="midnightblue" stroke="midnightblue" points="562.368,-404.094 571.224,-398.28 560.675,-397.302 562.368,-404.094"/>
</g>
<!-- Node137 -->
<g id="node6" class="node"><title>Node137</title>
<g id="a_node6"><a xlink:href="classpartition_1_1_partition.html#acb8de7c890e05872858fb7a7aa53b657" target="_top" xlink:title=" ">
<polygon fill="white" stroke="black" points="574.5,-709 574.5,-739 667.5,-739 667.5,-709 574.5,-709"/>
<text text-anchor="start" x="582.5" y="-727" font-family="Helvetica,sans-Serif" font-size="10.00">partition::Partition</text>
<text text-anchor="middle" x="621" y="-716" font-family="Helvetica,sans-Serif" font-size="10.00">::begin</text>
</a>
</g>
</g>
<!-- Node135&#45;&gt;Node137 -->
<g id="edge5" class="edge"><title>Node135&#45;&gt;Node137</title>
<path fill="none" stroke="midnightblue" d="M432.794,-481.563C439.663,-515.564 467.43,-631.889 536,-694 544.172,-701.402 554.296,-707.008 564.655,-711.243"/>
<polygon fill="midnightblue" stroke="midnightblue" points="563.591,-714.581 574.184,-714.76 566.015,-708.014 563.591,-714.581"/>
</g>
<!-- Node138 -->
<g id="node7" class="node"><title>Node138</title>
<g id="a_node7"><a xlink:href="namespaceinout.html#a0c10a45877a347dec0d4ec4e5b05b828" target="_top" xlink:title=" ">
<polygon fill="white" stroke="black" points="746.5,-594.5 746.5,-613.5 849.5,-613.5 849.5,-594.5 746.5,-594.5"/>
<text text-anchor="middle" x="798" y="-601.5" font-family="Helvetica,sans-Serif" font-size="10.00">inout::containerprint</text>
</a>
</g>
</g>
<!-- Node135&#45;&gt;Node138 -->
<g id="edge6" class="edge"><title>Node135&#45;&gt;Node138</title>
<path fill="none" stroke="midnightblue" d="M436.336,-481.501C449.681,-504.208 486.987,-561.482 536,-585 599.109,-615.281 680.792,-615.996 735.833,-611.764"/>
<polygon fill="midnightblue" stroke="midnightblue" points="736.462,-615.223 746.131,-610.891 735.871,-608.248 736.462,-615.223"/>
</g>
<!-- Node139 -->
<g id="node8" class="node"><title>Node139</title>
<g id="a_node8"><a xlink:href="namespaceinterfacesse.html#aa4b94bf2bf8cb7c437fa3feba8b70ff8" target="_top" xlink:title="Initializes the array with a constant .">
<polygon fill="white" stroke="black" points="745.5,-670.5 745.5,-689.5 850.5,-689.5 850.5,-670.5 745.5,-670.5"/>
<text text-anchor="middle" x="798" y="-677.5" font-family="Helvetica,sans-Serif" font-size="10.00">interfacesse::copya</text>
</a>
</g>
</g>
<!-- Node135&#45;&gt;Node139 -->
<g id="edge7" class="edge"><title>Node135&#45;&gt;Node139</title>
<path fill="none" stroke="midnightblue" d="M432.983,-481.649C440.151,-513.781 467.977,-617.574 536,-661 596.204,-699.435 680.898,-697.828 737.296,-690.865"/>
<polygon fill="midnightblue" stroke="midnightblue" points="738.033,-694.298 747.485,-689.511 737.111,-687.359 738.033,-694.298"/>
</g>
<!-- Node140 -->
<g id="node9" class="node"><title>Node140</title>
<g id="a_node9"><a xlink:href="classpartition_1_1_partition.html#a4a440dcaeb42e05a52a46405eb30d36e" target="_top" xlink:title=" ">
<polygon fill="white" stroke="black" points="574.5,-545 574.5,-575 667.5,-575 667.5,-545 574.5,-545"/>
<text text-anchor="start" x="582.5" y="-563" font-family="Helvetica,sans-Serif" font-size="10.00">partition::Partition</text>
<text text-anchor="middle" x="621" y="-552" font-family="Helvetica,sans-Serif" font-size="10.00">::getNumCluster</text>
</a>
</g>
</g>
<!-- Node135&#45;&gt;Node140 -->
<g id="edge8" class="edge"><title>Node135&#45;&gt;Node140</title>
<path fill="none" stroke="midnightblue" d="M444.332,-481.507C463.715,-494.973 501.175,-519.663 536,-535 545.086,-539.002 554.997,-542.587 564.723,-545.709"/>
<polygon fill="midnightblue" stroke="midnightblue" points="563.762,-549.076 574.349,-548.675 565.823,-542.386 563.762,-549.076"/>
</g>
<!-- Node141 -->
<g id="node10" class="node"><title>Node141</title>
<g id="a_node10"><a xlink:href="classmat_1_1_matrix_base.html#a70200414022ce1479b9ddc16102b12ae" target="_top" xlink:title=" ">
<polygon fill="white" stroke="black" points="536,-266.5 536,-285.5 706,-285.5 706,-266.5 536,-266.5"/>
<text text-anchor="middle" x="621" y="-273.5" font-family="Helvetica,sans-Serif" font-size="10.00">mat::MatrixBase::getNumColumns</text>
</a>
</g>
</g>
<!-- Node135&#45;&gt;Node141 -->
<g id="edge9" class="edge"><title>Node135&#45;&gt;Node141</title>
<path fill="none" stroke="midnightblue" d="M438.39,-462.301C451.639,-444.681 479.922,-405.998 500,-371 518.599,-338.581 506.831,-318.369 536,-295 538.093,-293.323 540.305,-291.788 542.61,-290.383"/>
<polygon fill="midnightblue" stroke="midnightblue" points="544.62,-293.284 551.897,-285.584 541.406,-287.065 544.62,-293.284"/>
</g>
<!-- Node142 -->
<g id="node11" class="node"><title>Node142</title>
<g id="a_node11"><a xlink:href="classmat_1_1_matrix_base.html#ac500eedd5e203327d3292f8ab22d8f3e" target="_top" xlink:title=" ">
<polygon fill="white" stroke="black" points="543,-304.5 543,-323.5 699,-323.5 699,-304.5 543,-304.5"/>
<text text-anchor="middle" x="621" y="-311.5" font-family="Helvetica,sans-Serif" font-size="10.00">mat::MatrixBase::getNumRows</text>
</a>
</g>
</g>
<!-- Node135&#45;&gt;Node142 -->
<g id="edge10" class="edge"><title>Node135&#45;&gt;Node142</title>
<path fill="none" stroke="midnightblue" d="M437.747,-462.292C458.765,-432.16 522.469,-341.733 536,-333 539.203,-330.932 542.602,-329.088 546.125,-327.443"/>
<polygon fill="midnightblue" stroke="midnightblue" points="547.758,-330.558 555.694,-323.539 545.113,-324.077 547.758,-330.558"/>
</g>
<!-- Node143 -->
<g id="node12" class="node"><title>Node143</title>
<g id="a_node12"><a xlink:href="classmat_1_1_matrix_row.html#a5391a205367fbaac82a26ddc377a80af" target="_top" xlink:title=" ">
<polygon fill="white" stroke="black" points="557.5,-342.5 557.5,-361.5 684.5,-361.5 684.5,-342.5 557.5,-342.5"/>
<text text-anchor="middle" x="621" y="-349.5" font-family="Helvetica,sans-Serif" font-size="10.00">mat::MatrixRow::getRow</text>
</a>
</g>
</g>
<!-- Node135&#45;&gt;Node143 -->
<g id="edge11" class="edge"><title>Node135&#45;&gt;Node143</title>
<path fill="none" stroke="midnightblue" d="M437.938,-462.454C453.211,-442.183 491.911,-394.756 536,-371 540.298,-368.684 544.867,-366.65 549.567,-364.863"/>
<polygon fill="midnightblue" stroke="midnightblue" points="551.015,-368.067 559.354,-361.532 548.76,-361.44 551.015,-368.067"/>
</g>
<!-- Node144 -->
<g id="node13" class="node"><title>Node144</title>
<g id="a_node13"><a xlink:href="classmat_1_1_matrix_row.html#a1070fba1c0ec0fbaa309f141817be412" target="_top" xlink:title=" ">
<polygon fill="white" stroke="black" points="557,-506.5 557,-525.5 685,-525.5 685,-506.5 557,-506.5"/>
<text text-anchor="middle" x="621" y="-513.5" font-family="Helvetica,sans-Serif" font-size="10.00">mat::MatrixRow::initialize</text>
</a>
</g>
</g>
<!-- Node135&#45;&gt;Node144 -->
<g id="edge12" class="edge"><title>Node135&#45;&gt;Node144</title>
<path fill="none" stroke="midnightblue" d="M470.863,-481.603C490.47,-486.298 514.461,-492 536,-497 546.154,-499.357 557.008,-501.84 567.427,-504.204"/>
<polygon fill="midnightblue" stroke="midnightblue" points="566.72,-507.633 577.246,-506.427 568.265,-500.806 566.72,-507.633"/>
</g>
<!-- Node145 -->
<g id="node14" class="node"><title>Node145</title>
<g id="a_node14"><a xlink:href="namespacestats.html#a61ea16e97e098fc1598f4a2975cb0a24" target="_top" xlink:title="￼Calculate average of a vector">
<polygon fill="white" stroke="black" points="572,-632.5 572,-651.5 670,-651.5 670,-632.5 572,-632.5"/>
<text text-anchor="middle" x="621" y="-639.5" font-family="Helvetica,sans-Serif" font-size="10.00">stats::meanVector</text>
</a>
</g>
</g>
<!-- Node135&#45;&gt;Node145 -->
<g id="edge13" class="edge"><title>Node135&#45;&gt;Node145</title>
<path fill="none" stroke="midnightblue" d="M435.087,-481.534C446.762,-507.61 482.876,-580.648 536,-618 543.827,-623.503 552.898,-627.752 562.124,-631.029"/>
<polygon fill="midnightblue" stroke="midnightblue" points="561.158,-634.395 571.748,-634.106 563.289,-627.727 561.158,-634.395"/>
</g>
<!-- Node147 -->
<g id="node16" class="node"><title>Node147</title>
<g id="a_node16"><a xlink:href="classpartition_1_1_partition.html#a96660ce61740ab0287189b21833eccdf" target="_top" xlink:title=" ">
<polygon fill="white" stroke="black" points="574.5,-457 574.5,-487 667.5,-487 667.5,-457 574.5,-457"/>
<text text-anchor="start" x="582.5" y="-475" font-family="Helvetica,sans-Serif" font-size="10.00">partition::Partition</text>
<text text-anchor="middle" x="621" y="-464" font-family="Helvetica,sans-Serif" font-size="10.00">::next</text>
</a>
</g>
</g>
<!-- Node135&#45;&gt;Node147 -->
<g id="edge17" class="edge"><title>Node135&#45;&gt;Node147</title>
<path fill="none" stroke="midnightblue" d="M497.103,-472C519.058,-472 543.268,-472 564.353,-472"/>
<polygon fill="midnightblue" stroke="midnightblue" points="564.429,-475.5 574.429,-472 564.429,-468.5 564.429,-475.5"/>
</g>
<!-- Node148 -->
<g id="node17" class="node"><title>Node148</title>
<g id="a_node17"><a xlink:href="classmat_1_1_matrix_row.html#a156313f6aa515994b76321ff03780b16" target="_top" xlink:title=" ">
<polygon fill="white" stroke="black" points="566,-418.5 566,-437.5 676,-437.5 676,-418.5 566,-418.5"/>
<text text-anchor="middle" x="621" y="-425.5" font-family="Helvetica,sans-Serif" font-size="10.00">mat::MatrixRow::print</text>
</a>
</g>
</g>
<!-- Node135&#45;&gt;Node148 -->
<g id="edge18" class="edge"><title>Node135&#45;&gt;Node148</title>
<path fill="none" stroke="midnightblue" d="M472.01,-462.453C500.492,-455.822 538.64,-446.941 569.071,-439.857"/>
<polygon fill="midnightblue" stroke="midnightblue" points="570.124,-443.205 579.07,-437.529 568.537,-436.387 570.124,-443.205"/>
</g>
<!-- Node145&#45;&gt;Node138 -->
<g id="edge14" class="edge"><title>Node145&#45;&gt;Node138</title>
<path fill="none" stroke="midnightblue" d="M666.16,-632.411C689.565,-627.329 718.505,-621.045 743.212,-615.68"/>
<polygon fill="midnightblue" stroke="midnightblue" points="744.128,-619.062 753.158,-613.52 742.643,-612.222 744.128,-619.062"/>
</g>
<!-- Node145&#45;&gt;Node139 -->
<g id="edge15" class="edge"><title>Node145&#45;&gt;Node139</title>
<path fill="none" stroke="midnightblue" d="M666.16,-651.589C689.565,-656.671 718.505,-662.955 743.212,-668.32"/>
<polygon fill="midnightblue" stroke="midnightblue" points="742.643,-671.778 753.158,-670.48 744.128,-664.938 742.643,-671.778"/>
</g>
<!-- Node146 -->
<g id="node15" class="node"><title>Node146</title>
<g id="a_node15"><a xlink:href="namespaceinterfacesse.html#ae3f94c42a59db65b2941dbfc9f449ea1" target="_top" xlink:title="function xAXPY of blas for doubles vectors">
<polygon fill="white" stroke="black" points="742,-632.5 742,-651.5 854,-651.5 854,-632.5 742,-632.5"/>
<text text-anchor="middle" x="798" y="-639.5" font-family="Helvetica,sans-Serif" font-size="10.00">interfacesse::axpyInv</text>
</a>
</g>
</g>
<!-- Node145&#45;&gt;Node146 -->
<g id="edge16" class="edge"><title>Node145&#45;&gt;Node146</title>
<path fill="none" stroke="midnightblue" d="M670.283,-642C689.237,-642 711.286,-642 731.628,-642"/>
<polygon fill="midnightblue" stroke="midnightblue" points="731.769,-645.5 741.769,-642 731.769,-638.5 731.769,-645.5"/>
</g>
<!-- Node154&#45;&gt;Node138 -->
<g id="edge25" class="edge"><title>Node154&#45;&gt;Node138</title>
<path fill="none" stroke="midnightblue" d="M291.578,-323.412C302.481,-320.859 313.719,-317.743 324,-314 341,-307.811 343,-301.189 360,-295 505.369,-242.079 583.518,-162.497 706,-257 759.255,-298.09 787.427,-516.882 794.93,-584.245"/>
<polygon fill="midnightblue" stroke="midnightblue" points="791.468,-584.788 796.026,-594.352 798.428,-584.033 791.468,-584.788"/>
</g>
<!-- Node155 -->
<g id="node24" class="node"><title>Node155</title>
<g id="a_node24"><a xlink:href="classdata_1_1_instance.html#aa6ee19c383a86228b3d134e42bdb6830" target="_top" xlink:title=" ">
<polygon fill="white" stroke="black" points="360,-342.5 360,-361.5 500,-361.5 500,-342.5 360,-342.5"/>
<text text-anchor="middle" x="430" y="-349.5" font-family="Helvetica,sans-Serif" font-size="10.00">data::Instance::getFeatures</text>
</a>
</g>
</g>
<!-- Node154&#45;&gt;Node155 -->
<g id="edge26" class="edge"><title>Node154&#45;&gt;Node155</title>
<path fill="none" stroke="midnightblue" d="M300.535,-339.353C316.325,-340.908 333.402,-342.589 349.792,-344.202"/>
<polygon fill="midnightblue" stroke="midnightblue" points="349.595,-347.7 359.89,-345.196 350.281,-340.733 349.595,-347.7"/>
</g>
<!-- Node156 -->
<g id="node25" class="node"><title>Node156</title>
<g id="a_node25"><a xlink:href="namespacenearest.html#a8b0d89680acfe7ef438ae465bd633fb1" target="_top" xlink:title="NN Find the centroid closest to an instance.">
<polygon fill="white" stroke="black" points="395,-304.5 395,-323.5 465,-323.5 465,-304.5 395,-304.5"/>
<text text-anchor="middle" x="430" y="-311.5" font-family="Helvetica,sans-Serif" font-size="10.00">nearest::NN</text>
</a>
</g>
</g>
<!-- Node154&#45;&gt;Node156 -->
<g id="edge27" class="edge"><title>Node154&#45;&gt;Node156</title>
<path fill="none" stroke="midnightblue" d="M300.535,-326.647C328.149,-323.928 359.701,-320.822 384.625,-318.368"/>
<polygon fill="midnightblue" stroke="midnightblue" points="385.262,-321.823 394.87,-317.36 384.576,-314.857 385.262,-321.823"/>
</g>
<!-- Node156&#45;&gt;Node141 -->
<g id="edge29" class="edge"><title>Node156&#45;&gt;Node141</title>
<path fill="none" stroke="midnightblue" d="M465.226,-307.118C492.295,-301.676 530.687,-293.957 562.462,-287.569"/>
<polygon fill="midnightblue" stroke="midnightblue" points="563.409,-290.948 572.523,-285.546 562.029,-284.086 563.409,-290.948"/>
</g>
<!-- Node156&#45;&gt;Node142 -->
<g id="edge30" class="edge"><title>Node156&#45;&gt;Node142</title>
<path fill="none" stroke="midnightblue" d="M465.226,-314C484.215,-314 508.775,-314 532.714,-314"/>
<polygon fill="midnightblue" stroke="midnightblue" points="532.918,-317.5 542.918,-314 532.918,-310.5 532.918,-317.5"/>
</g>
<!-- Node156&#45;&gt;Node143 -->
<g id="edge28" class="edge"><title>Node156&#45;&gt;Node143</title>
<path fill="none" stroke="midnightblue" d="M465.226,-320.882C492.295,-326.324 530.687,-334.043 562.462,-340.431"/>
<polygon fill="midnightblue" stroke="midnightblue" points="562.029,-343.914 572.523,-342.454 563.409,-337.052 562.029,-343.914"/>
</g>
</g>
</svg>
