<?xml version="1.0" encoding="UTF-8" standalone="no"?>
<!DOCTYPE svg PUBLIC "-//W3C//DTD SVG 1.1//EN"
 "http://www.w3.org/Graphics/SVG/1.1/DTD/svg11.dtd">
<!-- Generated by graphviz version 2.38.0 (20140413.2041)
 -->
<!-- Title: um::SSE Pages: 1 -->
<svg width="803pt" height="268pt"
 viewBox="0.00 0.00 803.00 268.00" xmlns="http://www.w3.org/2000/svg" xmlns:xlink="http://www.w3.org/1999/xlink">
<g id="graph0" class="graph" transform="scale(1 1) rotate(0) translate(4 264)">
<title>um::SSE</title>
<polygon fill="white" stroke="none" points="-4,4 -4,-264 799,-264 799,4 -4,4"/>
<!-- Node929 -->
<g id="node1" class="node"><title>Node929</title>
<polygon fill="#bfbfbf" stroke="black" points="0,-202.5 0,-221.5 56,-221.5 56,-202.5 0,-202.5"/>
<text text-anchor="middle" x="28" y="-209.5" font-family="Helvetica,sans-Serif" font-size="10.00">um::SSE</text>
</g>
<!-- Node930 -->
<g id="node2" class="node"><title>Node930</title>
<g id="a_node2"><a xlink:href="classdata_1_1_instance.html#aa6ee19c383a86228b3d134e42bdb6830" target="_top" xlink:title="data::Instance::getFeatures">
<polygon fill="white" stroke="black" points="92,-240.5 92,-259.5 232,-259.5 232,-240.5 92,-240.5"/>
<text text-anchor="middle" x="162" y="-247.5" font-family="Helvetica,sans-Serif" font-size="10.00">data::Instance::getFeatures</text>
</a>
</g>
</g>
<!-- Node929&#45;&gt;Node930 -->
<g id="edge1" class="edge"><title>Node929&#45;&gt;Node930</title>
<path fill="none" stroke="midnightblue" d="M56.0307,-219.782C73.9209,-224.932 97.7627,-231.795 118.203,-237.68"/>
<polygon fill="midnightblue" stroke="midnightblue" points="117.344,-241.075 127.922,-240.478 119.281,-234.348 117.344,-241.075"/>
</g>
<!-- Node931 -->
<g id="node3" class="node"><title>Node931</title>
<g id="a_node3"><a xlink:href="classmat_1_1_matrix_base.html#ac500eedd5e203327d3292f8ab22d8f3e" target="_top" xlink:title="mat::MatrixBase::getNumRows">
<polygon fill="white" stroke="black" points="468,-164.5 468,-183.5 624,-183.5 624,-164.5 468,-164.5"/>
<text text-anchor="middle" x="546" y="-171.5" font-family="Helvetica,sans-Serif" font-size="10.00">mat::MatrixBase::getNumRows</text>
</a>
</g>
</g>
<!-- Node929&#45;&gt;Node931 -->
<g id="edge2" class="edge"><title>Node929&#45;&gt;Node931</title>
<path fill="none" stroke="midnightblue" d="M56.0159,-210.01C129.964,-204.565 338.113,-189.236 457.649,-180.433"/>
<polygon fill="midnightblue" stroke="midnightblue" points="458.154,-183.905 467.869,-179.68 457.639,-176.924 458.154,-183.905"/>
</g>
<!-- Node932 -->
<g id="node4" class="node"><title>Node932</title>
<g id="a_node4"><a xlink:href="namespacenearest.html#a8b0d89680acfe7ef438ae465bd633fb1" target="_top" xlink:title="NN Find the centroid closest to an instance. ">
<polygon fill="white" stroke="black" points="127,-107.5 127,-126.5 197,-126.5 197,-107.5 127,-107.5"/>
<text text-anchor="middle" x="162" y="-114.5" font-family="Helvetica,sans-Serif" font-size="10.00">nearest::NN</text>
</a>
</g>
</g>
<!-- Node929&#45;&gt;Node932 -->
<g id="edge3" class="edge"><title>Node929&#45;&gt;Node932</title>
<path fill="none" stroke="midnightblue" d="M42.6291,-202.191C65.5722,-185.679 112.08,-152.208 139.473,-132.493"/>
<polygon fill="midnightblue" stroke="midnightblue" points="141.57,-135.296 147.642,-126.614 137.481,-129.615 141.57,-135.296"/>
</g>
<!-- Node932&#45;&gt;Node931 -->
<g id="edge13" class="edge"><title>Node932&#45;&gt;Node931</title>
<path fill="none" stroke="midnightblue" d="M197.336,-125.817C217.756,-130.818 244.232,-136.88 268,-141 331.229,-151.961 403.212,-160.416 457.949,-166.023"/>
<polygon fill="midnightblue" stroke="midnightblue" points="457.661,-169.511 467.963,-167.036 458.366,-162.547 457.661,-169.511"/>
</g>
<!-- Node933 -->
<g id="node5" class="node"><title>Node933</title>
<g id="a_node5"><a xlink:href="namespacenearest.html#a9508313369f30f2f3334215bcc46b0cd" target="_top" xlink:title="Find the centroid closest to an instance and check null centroids. ">
<polygon fill="white" stroke="black" points="268,-50.5 268,-69.5 425,-69.5 425,-50.5 268,-50.5"/>
<text text-anchor="middle" x="346.5" y="-57.5" font-family="Helvetica,sans-Serif" font-size="10.00">nearest::checkNullCentroidsNN</text>
</a>
</g>
</g>
<!-- Node932&#45;&gt;Node933 -->
<g id="edge4" class="edge"><title>Node932&#45;&gt;Node933</title>
<path fill="none" stroke="midnightblue" d="M187.361,-107.345C208.485,-99.1755 239.981,-87.4781 268,-79 276.101,-76.5488 284.749,-74.1854 293.222,-72.0076"/>
<polygon fill="midnightblue" stroke="midnightblue" points="294.197,-75.3714 303.044,-69.5421 292.493,-68.582 294.197,-75.3714"/>
</g>
<!-- Node934 -->
<g id="node6" class="node"><title>Node934</title>
<g id="a_node6"><a xlink:href="classmat_1_1_matrix_base.html#a70200414022ce1479b9ddc16102b12ae" target="_top" xlink:title="mat::MatrixBase::getNumColumns">
<polygon fill="white" stroke="black" points="461,-126.5 461,-145.5 631,-145.5 631,-126.5 461,-126.5"/>
<text text-anchor="middle" x="546" y="-133.5" font-family="Helvetica,sans-Serif" font-size="10.00">mat::MatrixBase::getNumColumns</text>
</a>
</g>
</g>
<!-- Node932&#45;&gt;Node934 -->
<g id="edge12" class="edge"><title>Node932&#45;&gt;Node934</title>
<path fill="none" stroke="midnightblue" d="M197.236,-118.703C253.755,-121.514 368.497,-127.221 450.734,-131.311"/>
<polygon fill="midnightblue" stroke="midnightblue" points="450.686,-134.813 460.848,-131.814 451.034,-127.822 450.686,-134.813"/>
</g>
<!-- Node939 -->
<g id="node11" class="node"><title>Node939</title>
<g id="a_node11"><a xlink:href="classmat_1_1_matrix_row.html#a5391a205367fbaac82a26ddc377a80af" target="_top" xlink:title="mat::MatrixRow::getRow">
<polygon fill="white" stroke="black" points="283,-88.5 283,-107.5 410,-107.5 410,-88.5 283,-88.5"/>
<text text-anchor="middle" x="346.5" y="-95.5" font-family="Helvetica,sans-Serif" font-size="10.00">mat::MatrixRow::getRow</text>
</a>
</g>
</g>
<!-- Node932&#45;&gt;Node939 -->
<g id="edge14" class="edge"><title>Node932&#45;&gt;Node939</title>
<path fill="none" stroke="midnightblue" d="M197.327,-113.426C218.566,-111.215 246.655,-108.291 272.662,-105.583"/>
<polygon fill="midnightblue" stroke="midnightblue" points="273.304,-109.035 282.887,-104.519 272.579,-102.073 273.304,-109.035"/>
</g>
<!-- Node933&#45;&gt;Node931 -->
<g id="edge6" class="edge"><title>Node933&#45;&gt;Node931</title>
<path fill="none" stroke="midnightblue" d="M409.202,-69.5806C414.889,-72.056 420.277,-75.1463 425,-79 453.958,-102.63 431.831,-131.631 461,-155 463.093,-156.677 465.305,-158.212 467.61,-159.617"/>
<polygon fill="midnightblue" stroke="midnightblue" points="466.406,-162.935 476.897,-164.416 469.62,-156.716 466.406,-162.935"/>
</g>
<!-- Node933&#45;&gt;Node934 -->
<g id="edge5" class="edge"><title>Node933&#45;&gt;Node934</title>
<path fill="none" stroke="midnightblue" d="M403.168,-69.615C410.771,-72.0704 418.267,-75.1469 425,-79 444.914,-90.3955 441.048,-104.671 461,-116 465.807,-118.73 470.972,-121.088 476.292,-123.125"/>
<polygon fill="midnightblue" stroke="midnightblue" points="475.398,-126.518 485.992,-126.456 477.671,-119.898 475.398,-126.518"/>
</g>
<!-- Node935 -->
<g id="node7" class="node"><title>Node935</title>
<g id="a_node7"><a xlink:href="classmat_1_1_matrix_base.html#ae3b1c4b8e9cb7e7685d7bc129f875dcd" target="_top" xlink:title="mat::MatrixBase::getRow">
<polygon fill="white" stroke="black" points="480.5,-38.5 480.5,-57.5 611.5,-57.5 611.5,-38.5 480.5,-38.5"/>
<text text-anchor="middle" x="546" y="-45.5" font-family="Helvetica,sans-Serif" font-size="10.00">mat::MatrixBase::getRow</text>
</a>
</g>
</g>
<!-- Node933&#45;&gt;Node935 -->
<g id="edge7" class="edge"><title>Node933&#45;&gt;Node935</title>
<path fill="none" stroke="midnightblue" d="M425.274,-55.2745C440.096,-54.3739 455.579,-53.4332 470.303,-52.5386"/>
<polygon fill="midnightblue" stroke="midnightblue" points="470.588,-56.0278 480.357,-51.9277 470.163,-49.0407 470.588,-56.0278"/>
</g>
<!-- Node936 -->
<g id="node8" class="node"><title>Node936</title>
<g id="a_node8"><a xlink:href="classdata_1_1_instance.html#abd8d5a6a290d0783a57931dcce0a871d" target="_top" xlink:title="data::Instance::isInfinite\lFeature">
<polygon fill="white" stroke="black" points="485,-77 485,-107 607,-107 607,-77 485,-77"/>
<text text-anchor="start" x="493" y="-95" font-family="Helvetica,sans-Serif" font-size="10.00">data::Instance::isInfinite</text>
<text text-anchor="middle" x="546" y="-84" font-family="Helvetica,sans-Serif" font-size="10.00">Feature</text>
</a>
</g>
</g>
<!-- Node933&#45;&gt;Node936 -->
<g id="edge8" class="edge"><title>Node933&#45;&gt;Node936</title>
<path fill="none" stroke="midnightblue" d="M406.222,-69.5144C427.718,-72.9973 452.259,-76.9737 474.667,-80.6043"/>
<polygon fill="midnightblue" stroke="midnightblue" points="474.363,-84.1006 484.794,-82.2451 475.483,-77.1907 474.363,-84.1006"/>
</g>
<!-- Node938 -->
<g id="node10" class="node"><title>Node938</title>
<g id="a_node10"><a xlink:href="namespacenearest.html#a3c4239101cf18ab4ca62e654a4179995" target="_top" xlink:title="nearest::medoidsNN">
<polygon fill="white" stroke="black" points="491,-0.5 491,-19.5 601,-19.5 601,-0.5 491,-0.5"/>
<text text-anchor="middle" x="546" y="-7.5" font-family="Helvetica,sans-Serif" font-size="10.00">nearest::medoidsNN</text>
</a>
</g>
</g>
<!-- Node933&#45;&gt;Node938 -->
<g id="edge10" class="edge"><title>Node933&#45;&gt;Node938</title>
<path fill="none" stroke="midnightblue" d="M381.169,-50.3847C403.698,-44.0544 434.046,-35.7258 461,-29 470.683,-26.5837 481.028,-24.1357 491.03,-21.8369"/>
<polygon fill="midnightblue" stroke="midnightblue" points="491.908,-25.2267 500.882,-19.5944 490.354,-18.4013 491.908,-25.2267"/>
</g>
<!-- Node937 -->
<g id="node9" class="node"><title>Node937</title>
<g id="a_node9"><a xlink:href="classdata_1_1_instance.html#a02d828c30db46d999f1830ea7b4d9c74" target="_top" xlink:title="data::Instance::getInfinite\lFeature">
<polygon fill="white" stroke="black" points="667,-77 667,-107 795,-107 795,-77 667,-77"/>
<text text-anchor="start" x="675" y="-95" font-family="Helvetica,sans-Serif" font-size="10.00">data::Instance::getInfinite</text>
<text text-anchor="middle" x="731" y="-84" font-family="Helvetica,sans-Serif" font-size="10.00">Feature</text>
</a>
</g>
</g>
<!-- Node936&#45;&gt;Node937 -->
<g id="edge9" class="edge"><title>Node936&#45;&gt;Node937</title>
<path fill="none" stroke="midnightblue" d="M607.175,-92C623.048,-92 640.352,-92 656.829,-92"/>
<polygon fill="midnightblue" stroke="midnightblue" points="656.962,-95.5001 666.962,-92 656.962,-88.5001 656.962,-95.5001"/>
</g>
<!-- Node938&#45;&gt;Node932 -->
<g id="edge11" class="edge"><title>Node938&#45;&gt;Node932</title>
<path fill="none" stroke="midnightblue" d="M490.754,-8.03644C433.467,-7.77735 341.455,-12.5951 268,-41 233.29,-54.4223 199.607,-82.2187 180.11,-100.217"/>
<polygon fill="midnightblue" stroke="midnightblue" points="177.522,-97.8464 172.66,-107.26 182.331,-102.933 177.522,-97.8464"/>
</g>
</g>
</svg>
