<?xml version="1.0" encoding="UTF-8" standalone="no"?>
<!DOCTYPE svg PUBLIC "-//W3C//DTD SVG 1.1//EN"
 "http://www.w3.org/Graphics/SVG/1.1/DTD/svg11.dtd">
<!-- Generated by graphviz version 2.38.0 (20140413.2041)
 -->
<!-- Title: um::avgRadiusClusterK Pages: 1 -->
<svg width="341pt" height="279pt"
 viewBox="0.00 0.00 341.00 279.00" xmlns="http://www.w3.org/2000/svg" xmlns:xlink="http://www.w3.org/1999/xlink">
<g id="graph0" class="graph" transform="scale(1 1) rotate(0) translate(4 275)">
<title>um::avgRadiusClusterK</title>
<polygon fill="white" stroke="none" points="-4,4 -4,-275 337,-275 337,4 -4,4"/>
<!-- Node0 -->
<g id="node1" class="node"><title>Node0</title>
<g id="a_node1"><a xlink:title=" ">
<polygon fill="#bfbfbf" stroke="black" points="0,-126 0,-145 123,-145 123,-126 0,-126"/>
<text text-anchor="middle" x="61.5" y="-133" font-family="Helvetica,sans-Serif" font-size="10.00">um::avgRadiusClusterK</text>
</a>
</g>
</g>
<!-- Node1 -->
<g id="node2" class="node"><title>Node1</title>
<g id="a_node2"><a xlink:href="classpartition_1_1_partition.html#acb8de7c890e05872858fb7a7aa53b657" target="_top" xlink:title=" ">
<polygon fill="white" stroke="black" points="199.5,-240.5 199.5,-270.5 292.5,-270.5 292.5,-240.5 199.5,-240.5"/>
<text text-anchor="start" x="207.5" y="-258.5" font-family="Helvetica,sans-Serif" font-size="10.00">partition::Partition</text>
<text text-anchor="middle" x="246" y="-247.5" font-family="Helvetica,sans-Serif" font-size="10.00">::begin</text>
</a>
</g>
</g>
<!-- Node0&#45;&gt;Node1 -->
<g id="edge1" class="edge"><title>Node0&#45;&gt;Node1</title>
<path fill="none" stroke="midnightblue" d="M69.5896,-145.162C84.1617,-164.331 119.451,-207.315 159,-230.5 168.346,-235.979 178.974,-240.327 189.495,-243.754"/>
<polygon fill="midnightblue" stroke="midnightblue" points="188.502,-247.111 199.087,-246.649 190.525,-240.409 188.502,-247.111"/>
</g>
<!-- Node2 -->
<g id="node3" class="node"><title>Node2</title>
<g id="a_node3"><a xlink:href="namespaceinout.html#a0c10a45877a347dec0d4ec4e5b05b828" target="_top" xlink:title=" ">
<polygon fill="white" stroke="black" points="194.5,-202 194.5,-221 297.5,-221 297.5,-202 194.5,-202"/>
<text text-anchor="middle" x="246" y="-209" font-family="Helvetica,sans-Serif" font-size="10.00">inout::containerprint</text>
</a>
</g>
</g>
<!-- Node0&#45;&gt;Node2 -->
<g id="edge2" class="edge"><title>Node0&#45;&gt;Node2</title>
<path fill="none" stroke="midnightblue" d="M75.5477,-145.041C93.4763,-157.709 127.14,-179.941 159,-192.5 167.062,-195.678 175.769,-198.38 184.44,-200.661"/>
<polygon fill="midnightblue" stroke="midnightblue" points="183.632,-204.066 194.179,-203.06 185.307,-197.27 183.632,-204.066"/>
</g>
<!-- Node3 -->
<g id="node4" class="node"><title>Node3</title>
<g id="a_node4"><a xlink:href="classdata_1_1_instance.html#aa6ee19c383a86228b3d134e42bdb6830" target="_top" xlink:title=" ">
<polygon fill="white" stroke="black" points="176,-164 176,-183 316,-183 316,-164 176,-164"/>
<text text-anchor="middle" x="246" y="-171" font-family="Helvetica,sans-Serif" font-size="10.00">data::Instance::getFeatures</text>
</a>
</g>
</g>
<!-- Node0&#45;&gt;Node3 -->
<g id="edge3" class="edge"><title>Node0&#45;&gt;Node3</title>
<path fill="none" stroke="midnightblue" d="M108.552,-145.089C133.069,-150.194 163.41,-156.511 189.25,-161.892"/>
<polygon fill="midnightblue" stroke="midnightblue" points="188.775,-165.368 199.279,-163.98 190.202,-158.515 188.775,-165.368"/>
</g>
<!-- Node4 -->
<g id="node5" class="node"><title>Node4</title>
<g id="a_node5"><a xlink:href="classdata_1_1_instance.html#a90d1eaeb66cc1470bbfdb95434fdb761" target="_top" xlink:title=" ">
<polygon fill="white" stroke="black" points="159,-126 159,-145 333,-145 333,-126 159,-126"/>
<text text-anchor="middle" x="246" y="-133" font-family="Helvetica,sans-Serif" font-size="10.00">data::Instance::getNumDimensions</text>
</a>
</g>
</g>
<!-- Node0&#45;&gt;Node4 -->
<g id="edge4" class="edge"><title>Node0&#45;&gt;Node4</title>
<path fill="none" stroke="midnightblue" d="M123.016,-135.5C131.294,-135.5 139.954,-135.5 148.676,-135.5"/>
<polygon fill="midnightblue" stroke="midnightblue" points="148.925,-139 158.925,-135.5 148.924,-132 148.925,-139"/>
</g>
<!-- Node5 -->
<g id="node6" class="node"><title>Node5</title>
<g id="a_node6"><a xlink:href="classmat_1_1_matrix_base.html#ac500eedd5e203327d3292f8ab22d8f3e" target="_top" xlink:title=" ">
<polygon fill="white" stroke="black" points="168,-88 168,-107 324,-107 324,-88 168,-88"/>
<text text-anchor="middle" x="246" y="-95" font-family="Helvetica,sans-Serif" font-size="10.00">mat::MatrixBase::getNumRows</text>
</a>
</g>
</g>
<!-- Node0&#45;&gt;Node5 -->
<g id="edge5" class="edge"><title>Node0&#45;&gt;Node5</title>
<path fill="none" stroke="midnightblue" d="M108.552,-125.911C133.069,-120.806 163.41,-114.489 189.25,-109.108"/>
<polygon fill="midnightblue" stroke="midnightblue" points="190.202,-112.485 199.279,-107.02 188.775,-105.632 190.202,-112.485"/>
</g>
<!-- Node6 -->
<g id="node7" class="node"><title>Node6</title>
<g id="a_node7"><a xlink:href="classmat_1_1_matrix_base.html#ae3b1c4b8e9cb7e7685d7bc129f875dcd" target="_top" xlink:title=" ">
<polygon fill="white" stroke="black" points="180.5,-50 180.5,-69 311.5,-69 311.5,-50 180.5,-50"/>
<text text-anchor="middle" x="246" y="-57" font-family="Helvetica,sans-Serif" font-size="10.00">mat::MatrixBase::getRow</text>
</a>
</g>
</g>
<!-- Node0&#45;&gt;Node6 -->
<g id="edge6" class="edge"><title>Node0&#45;&gt;Node6</title>
<path fill="none" stroke="midnightblue" d="M75.5477,-125.959C93.4763,-113.291 127.14,-91.0587 159,-78.5 165.65,-75.8785 172.74,-73.5809 179.886,-71.5762"/>
<polygon fill="midnightblue" stroke="midnightblue" points="180.845,-74.9431 189.631,-69.0212 179.07,-68.172 180.845,-74.9431"/>
</g>
<!-- Node7 -->
<g id="node8" class="node"><title>Node7</title>
<g id="a_node8"><a xlink:href="classpartition_1_1_partition.html#a96660ce61740ab0287189b21833eccdf" target="_top" xlink:title=" ">
<polygon fill="white" stroke="black" points="199.5,-0.5 199.5,-30.5 292.5,-30.5 292.5,-0.5 199.5,-0.5"/>
<text text-anchor="start" x="207.5" y="-18.5" font-family="Helvetica,sans-Serif" font-size="10.00">partition::Partition</text>
<text text-anchor="middle" x="246" y="-7.5" font-family="Helvetica,sans-Serif" font-size="10.00">::next</text>
</a>
</g>
</g>
<!-- Node0&#45;&gt;Node7 -->
<g id="edge7" class="edge"><title>Node0&#45;&gt;Node7</title>
<path fill="none" stroke="midnightblue" d="M69.5896,-125.838C84.1617,-106.669 119.451,-63.6847 159,-40.5 168.346,-35.0214 178.974,-30.6731 189.495,-27.2457"/>
<polygon fill="midnightblue" stroke="midnightblue" points="190.525,-30.591 199.087,-24.351 188.502,-23.8895 190.525,-30.591"/>
</g>
</g>
</svg>
