<?xml version="1.0" encoding="UTF-8" standalone="no"?>
<!DOCTYPE svg PUBLIC "-//W3C//DTD SVG 1.1//EN"
 "http://www.w3.org/Graphics/SVG/1.1/DTD/svg11.dtd">
<!-- Generated by graphviz version 2.38.0 (20140413.2041)
 -->
<!-- Title: dist::kernelEuclidean Pages: 1 -->
<svg width="449pt" height="28pt"
 viewBox="0.00 0.00 449.00 28.00" xmlns="http://www.w3.org/2000/svg" xmlns:xlink="http://www.w3.org/1999/xlink">
<g id="graph0" class="graph" transform="scale(1 1) rotate(0) translate(4 24)">
<title>dist::kernelEuclidean</title>
<polygon fill="white" stroke="none" points="-4,4 -4,-24 445,-24 445,4 -4,4"/>
<!-- Node10 -->
<g id="node1" class="node"><title>Node10</title>
<polygon fill="#bfbfbf" stroke="black" points="0,-0.5 0,-19.5 110,-19.5 110,-0.5 0,-0.5"/>
<text text-anchor="middle" x="55" y="-7.5" font-family="Helvetica,sans-Serif" font-size="10.00">dist::kernelEuclidean</text>
</g>
<!-- Node11 -->
<g id="node2" class="node"><title>Node11</title>
<g id="a_node2"><a xlink:href="namespacedist.html#a7fc2d2b171f5568e3296e28e724ff142" target="_top" xlink:title="Gets the square Euclidean distance of two double n&#45;dimensional points with SSE. ">
<polygon fill="white" stroke="black" points="146,-0.5 146,-19.5 295,-19.5 295,-0.5 146,-0.5"/>
<text text-anchor="middle" x="220.5" y="-7.5" font-family="Helvetica,sans-Serif" font-size="10.00">dist::kernelEuclideanSquared</text>
</a>
</g>
</g>
<!-- Node10&#45;&gt;Node11 -->
<g id="edge1" class="edge"><title>Node10&#45;&gt;Node11</title>
<path fill="none" stroke="midnightblue" d="M110.443,-10C118.589,-10 127.143,-10 135.727,-10"/>
<polygon fill="midnightblue" stroke="midnightblue" points="135.795,-13.5001 145.795,-10 135.795,-6.5001 135.795,-13.5001"/>
</g>
<!-- Node12 -->
<g id="node3" class="node"><title>Node12</title>
<g id="a_node3"><a xlink:href="namespacedist.html#a32fc945efb8cbd2bd1d65eac5cd3668c" target="_top" xlink:title="Gets the Euclidean distance of two double n&#45;dimensional points with SSE. ">
<polygon fill="white" stroke="black" points="331,-0.5 331,-19.5 441,-19.5 441,-0.5 331,-0.5"/>
<text text-anchor="middle" x="386" y="-7.5" font-family="Helvetica,sans-Serif" font-size="10.00">dist::kernelEuclidean</text>
</a>
</g>
</g>
<!-- Node11&#45;&gt;Node12 -->
<g id="edge2" class="edge"><title>Node11&#45;&gt;Node12</title>
<path fill="none" stroke="midnightblue" d="M295.119,-3.27977C303.676,-3.21693 312.352,-3.25358 320.769,-3.3897"/>
<polygon fill="midnightblue" stroke="midnightblue" points="320.809,-6.89125 330.881,-3.60507 320.958,0.107167 320.809,-6.89125"/>
</g>
<!-- Node12&#45;&gt;Node11 -->
<g id="edge3" class="edge"><title>Node12&#45;&gt;Node11</title>
<path fill="none" stroke="midnightblue" d="M330.881,-16.3949C322.649,-16.6143 313.994,-16.7321 305.307,-16.7481"/>
<polygon fill="midnightblue" stroke="midnightblue" points="305.128,-13.2477 295.119,-16.7202 305.109,-20.2477 305.128,-13.2477"/>
</g>
</g>
</svg>
