<?xml version="1.0" encoding="UTF-8" standalone="no"?>
<!DOCTYPE svg PUBLIC "-//W3C//DTD SVG 1.1//EN"
 "http://www.w3.org/Graphics/SVG/1.1/DTD/svg11.dtd">
<!-- Generated by graphviz version 2.38.0 (20140413.2041)
 -->
<!-- Title: eac::iterateGLAAux Pages: 1 -->
<svg width="895pt" height="363pt"
 viewBox="0.00 0.00 895.00 363.00" xmlns="http://www.w3.org/2000/svg" xmlns:xlink="http://www.w3.org/1999/xlink">
<g id="graph0" class="graph" transform="scale(1 1) rotate(0) translate(4 359)">
<title>eac::iterateGLAAux</title>
<polygon fill="white" stroke="none" points="-4,4 -4,-359 891,-359 891,4 -4,4"/>
<!-- Node1006 -->
<g id="node1" class="node"><title>Node1006</title>
<g id="a_node1"><a xlink:title=" ">
<polygon fill="#bfbfbf" stroke="black" points="0,-250.5 0,-269.5 105,-269.5 105,-250.5 0,-250.5"/>
<text text-anchor="middle" x="52.5" y="-257.5" font-family="Helvetica,sans-Serif" font-size="10.00">eac::iterateGLAAux</text>
</a>
</g>
</g>
<!-- Node1007 -->
<g id="node2" class="node"><title>Node1007</title>
<g id="a_node2"><a xlink:href="namespaceeac.html#a52c8e34d3a1269220caf411c169b53bd" target="_top" xlink:title="Change optimality.">
<polygon fill="white" stroke="black" points="151,-250.5 151,-269.5 285,-269.5 285,-250.5 151,-250.5"/>
<text text-anchor="middle" x="218" y="-257.5" font-family="Helvetica,sans-Serif" font-size="10.00">eac::changeOptimalityAux</text>
</a>
</g>
</g>
<!-- Node1006&#45;&gt;Node1007 -->
<g id="edge1" class="edge"><title>Node1006&#45;&gt;Node1007</title>
<path fill="none" stroke="midnightblue" d="M105.232,-253.672C116.561,-253.339 128.784,-253.203 140.843,-253.264"/>
<polygon fill="midnightblue" stroke="midnightblue" points="140.877,-256.764 150.911,-253.361 140.945,-249.765 140.877,-256.764"/>
</g>
<!-- Node1008 -->
<g id="node3" class="node"><title>Node1008</title>
<g id="a_node3"><a xlink:href="namespaceclusteringop.html#ad5da564b9274992e7f64e53f3c9d14b3" target="_top" xlink:title="Change each instance to the nearest cluster.">
<polygon fill="white" stroke="black" points="344.5,-316.5 344.5,-335.5 491.5,-335.5 491.5,-316.5 344.5,-316.5"/>
<text text-anchor="middle" x="418" y="-323.5" font-family="Helvetica,sans-Serif" font-size="10.00">clusteringop::reassignCluster</text>
</a>
</g>
</g>
<!-- Node1006&#45;&gt;Node1008 -->
<g id="edge24" class="edge"><title>Node1006&#45;&gt;Node1008</title>
<path fill="none" stroke="midnightblue" d="M95.7009,-269.567C110.049,-272.712 126.196,-276.134 141,-279 210.52,-292.46 290.297,-305.821 346.144,-314.837"/>
<polygon fill="midnightblue" stroke="midnightblue" points="345.856,-318.336 356.285,-316.469 346.968,-311.425 345.856,-318.336"/>
</g>
<!-- Node1015 -->
<g id="node10" class="node"><title>Node1015</title>
<g id="a_node10"><a xlink:href="namespaceclusteringop.html#a105a75742a54520f643812c0ad4f0598" target="_top" xlink:title="Fill empty partitions.">
<polygon fill="white" stroke="black" points="141,-201.5 141,-220.5 295,-220.5 295,-201.5 141,-201.5"/>
<text text-anchor="middle" x="218" y="-208.5" font-family="Helvetica,sans-Serif" font-size="10.00">clusteringop::fillEmptyPartitions</text>
</a>
</g>
</g>
<!-- Node1006&#45;&gt;Node1015 -->
<g id="edge10" class="edge"><title>Node1006&#45;&gt;Node1015</title>
<path fill="none" stroke="midnightblue" d="M85.4126,-250.436C111.071,-242.746 147.321,-231.883 175.278,-223.504"/>
<polygon fill="midnightblue" stroke="midnightblue" points="176.594,-226.763 185.168,-220.54 174.584,-220.058 176.594,-226.763"/>
</g>
<!-- Node1022 -->
<g id="node17" class="node"><title>Node1022</title>
<g id="a_node17"><a xlink:href="namespaceclusteringop.html#ab64951784015cb55d4b8a32993255713" target="_top" xlink:title=" ">
<polygon fill="white" stroke="black" points="145,-76.5 145,-95.5 291,-95.5 291,-76.5 145,-76.5"/>
<text text-anchor="middle" x="218" y="-83.5" font-family="Helvetica,sans-Serif" font-size="10.00">clusteringop::meanCentroids</text>
</a>
</g>
</g>
<!-- Node1006&#45;&gt;Node1022 -->
<g id="edge19" class="edge"><title>Node1006&#45;&gt;Node1022</title>
<path fill="none" stroke="midnightblue" d="M62.5234,-250.397C89.0368,-222.181 166.963,-139.25 200.899,-103.135"/>
<polygon fill="midnightblue" stroke="midnightblue" points="203.506,-105.472 207.803,-95.7877 198.405,-100.678 203.506,-105.472"/>
</g>
<!-- Node1007&#45;&gt;Node1006 -->
<g id="edge2" class="edge"><title>Node1007&#45;&gt;Node1006</title>
<path fill="none" stroke="midnightblue" d="M150.911,-266.639C139.145,-266.808 126.929,-266.784 115.288,-266.568"/>
<polygon fill="midnightblue" stroke="midnightblue" points="115.313,-263.068 105.232,-266.328 115.146,-270.066 115.313,-263.068"/>
</g>
<!-- Node1007&#45;&gt;Node1008 -->
<g id="edge3" class="edge"><title>Node1007&#45;&gt;Node1008</title>
<path fill="none" stroke="midnightblue" d="M242.82,-269.618C265.35,-278.552 300.203,-291.949 331,-302 343.558,-306.098 357.285,-310.128 370.011,-313.68"/>
<polygon fill="midnightblue" stroke="midnightblue" points="369.391,-317.139 379.962,-316.418 371.249,-310.39 369.391,-317.139"/>
</g>
<!-- Node1009 -->
<g id="node4" class="node"><title>Node1009</title>
<g id="a_node4"><a xlink:href="namespaceinout.html#a0c10a45877a347dec0d4ec4e5b05b828" target="_top" xlink:title=" ">
<polygon fill="white" stroke="black" points="559.5,-215.5 559.5,-234.5 662.5,-234.5 662.5,-215.5 559.5,-215.5"/>
<text text-anchor="middle" x="611" y="-222.5" font-family="Helvetica,sans-Serif" font-size="10.00">inout::containerprint</text>
</a>
</g>
</g>
<!-- Node1008&#45;&gt;Node1009 -->
<g id="edge4" class="edge"><title>Node1008&#45;&gt;Node1009</title>
<path fill="none" stroke="midnightblue" d="M436.969,-316.498C470.528,-298.752 542.913,-260.475 582.598,-239.49"/>
<polygon fill="midnightblue" stroke="midnightblue" points="584.736,-242.319 591.94,-234.55 581.464,-236.131 584.736,-242.319"/>
</g>
<!-- Node1010 -->
<g id="node5" class="node"><title>Node1010</title>
<g id="a_node5"><a xlink:href="classdata_1_1_instance.html#aa6ee19c383a86228b3d134e42bdb6830" target="_top" xlink:title=" ">
<polygon fill="white" stroke="black" points="541,-278.5 541,-297.5 681,-297.5 681,-278.5 541,-278.5"/>
<text text-anchor="middle" x="611" y="-285.5" font-family="Helvetica,sans-Serif" font-size="10.00">data::Instance::getFeatures</text>
</a>
</g>
</g>
<!-- Node1008&#45;&gt;Node1010 -->
<g id="edge5" class="edge"><title>Node1008&#45;&gt;Node1010</title>
<path fill="none" stroke="midnightblue" d="M467.197,-316.411C492.97,-311.284 524.891,-304.933 552.012,-299.537"/>
<polygon fill="midnightblue" stroke="midnightblue" points="553.024,-302.904 562.149,-297.52 551.658,-296.039 553.024,-302.904"/>
</g>
<!-- Node1011 -->
<g id="node6" class="node"><title>Node1011</title>
<g id="a_node6"><a xlink:href="namespacenearest.html#a8b0d89680acfe7ef438ae465bd633fb1" target="_top" xlink:title="NN Find the centroid closest to an instance.">
<polygon fill="white" stroke="black" points="576,-316.5 576,-335.5 646,-335.5 646,-316.5 576,-316.5"/>
<text text-anchor="middle" x="611" y="-323.5" font-family="Helvetica,sans-Serif" font-size="10.00">nearest::NN</text>
</a>
</g>
</g>
<!-- Node1008&#45;&gt;Node1011 -->
<g id="edge6" class="edge"><title>Node1008&#45;&gt;Node1011</title>
<path fill="none" stroke="midnightblue" d="M491.754,-326C516.69,-326 543.824,-326 565.802,-326"/>
<polygon fill="midnightblue" stroke="midnightblue" points="565.827,-329.5 575.827,-326 565.827,-322.5 565.827,-329.5"/>
</g>
<!-- Node1012 -->
<g id="node7" class="node"><title>Node1012</title>
<g id="a_node7"><a xlink:href="classmat_1_1_matrix_row.html#a5391a205367fbaac82a26ddc377a80af" target="_top" xlink:title=" ">
<polygon fill="white" stroke="black" points="738.5,-297.5 738.5,-316.5 865.5,-316.5 865.5,-297.5 738.5,-297.5"/>
<text text-anchor="middle" x="802" y="-304.5" font-family="Helvetica,sans-Serif" font-size="10.00">mat::MatrixRow::getRow</text>
</a>
</g>
</g>
<!-- Node1011&#45;&gt;Node1012 -->
<g id="edge7" class="edge"><title>Node1011&#45;&gt;Node1012</title>
<path fill="none" stroke="midnightblue" d="M646.226,-322.559C669.059,-320.264 699.949,-317.159 728.127,-314.326"/>
<polygon fill="midnightblue" stroke="midnightblue" points="728.766,-317.779 738.366,-313.297 728.066,-310.814 728.766,-317.779"/>
</g>
<!-- Node1013 -->
<g id="node8" class="node"><title>Node1013</title>
<g id="a_node8"><a xlink:href="classmat_1_1_matrix_base.html#a70200414022ce1479b9ddc16102b12ae" target="_top" xlink:title=" ">
<polygon fill="white" stroke="black" points="717,-335.5 717,-354.5 887,-354.5 887,-335.5 717,-335.5"/>
<text text-anchor="middle" x="802" y="-342.5" font-family="Helvetica,sans-Serif" font-size="10.00">mat::MatrixBase::getNumColumns</text>
</a>
</g>
</g>
<!-- Node1011&#45;&gt;Node1013 -->
<g id="edge8" class="edge"><title>Node1011&#45;&gt;Node1013</title>
<path fill="none" stroke="midnightblue" d="M646.226,-329.441C663.307,-331.158 684.897,-333.328 706.488,-335.499"/>
<polygon fill="midnightblue" stroke="midnightblue" points="706.428,-339.01 716.728,-336.528 707.128,-332.045 706.428,-339.01"/>
</g>
<!-- Node1014 -->
<g id="node9" class="node"><title>Node1014</title>
<g id="a_node9"><a xlink:href="classmat_1_1_matrix_base.html#ac500eedd5e203327d3292f8ab22d8f3e" target="_top" xlink:title=" ">
<polygon fill="white" stroke="black" points="724,-177.5 724,-196.5 880,-196.5 880,-177.5 724,-177.5"/>
<text text-anchor="middle" x="802" y="-184.5" font-family="Helvetica,sans-Serif" font-size="10.00">mat::MatrixBase::getNumRows</text>
</a>
</g>
</g>
<!-- Node1011&#45;&gt;Node1014 -->
<g id="edge9" class="edge"><title>Node1011&#45;&gt;Node1014</title>
<path fill="none" stroke="midnightblue" d="M646.028,-320.308C657.641,-317.43 670.369,-313.187 681,-307 727.013,-280.222 767.856,-231.461 787.903,-205.091"/>
<polygon fill="midnightblue" stroke="midnightblue" points="790.934,-206.88 794.101,-196.77 785.32,-202.699 790.934,-206.88"/>
</g>
<!-- Node1015&#45;&gt;Node1010 -->
<g id="edge12" class="edge"><title>Node1015&#45;&gt;Node1010</title>
<path fill="none" stroke="midnightblue" d="M248.77,-220.523C263.178,-225.683 280.462,-232.705 295,-241 312.606,-251.045 312.062,-261.774 331,-269 395.079,-293.451 473.396,-296.702 530.725,-294.705"/>
<polygon fill="midnightblue" stroke="midnightblue" points="530.968,-298.198 540.816,-294.292 530.682,-291.204 530.968,-298.198"/>
</g>
<!-- Node1016 -->
<g id="node11" class="node"><title>Node1016</title>
<g id="a_node11"><a xlink:href="namespaceinterfacesse.html#a925f44ed84d40e9af5050fa0e1373396" target="_top" xlink:title="copy array aoarrayt_x in aoarrayt_y of type T">
<polygon fill="white" stroke="black" points="368.5,-240.5 368.5,-259.5 467.5,-259.5 467.5,-240.5 368.5,-240.5"/>
<text text-anchor="middle" x="418" y="-247.5" font-family="Helvetica,sans-Serif" font-size="10.00">interfacesse::copy</text>
</a>
</g>
</g>
<!-- Node1015&#45;&gt;Node1016 -->
<g id="edge11" class="edge"><title>Node1015&#45;&gt;Node1016</title>
<path fill="none" stroke="midnightblue" d="M267.436,-220.54C294.985,-225.967 329.675,-232.8 358.708,-238.518"/>
<polygon fill="midnightblue" stroke="midnightblue" points="358.233,-241.992 368.721,-240.491 359.586,-235.124 358.233,-241.992"/>
</g>
<!-- Node1017 -->
<g id="node12" class="node"><title>Node1017</title>
<g id="a_node12"><a xlink:href="classdata_1_1_instance_freq.html#a99fa2afc7a6375f3d71af4adc3c21f39" target="_top" xlink:title=" ">
<polygon fill="white" stroke="black" points="367.5,-191 367.5,-221 468.5,-221 468.5,-191 367.5,-191"/>
<text text-anchor="start" x="375.5" y="-209" font-family="Helvetica,sans-Serif" font-size="10.00">data::InstanceFreq</text>
<text text-anchor="middle" x="418" y="-198" font-family="Helvetica,sans-Serif" font-size="10.00">::getFrequency</text>
</a>
</g>
</g>
<!-- Node1015&#45;&gt;Node1017 -->
<g id="edge13" class="edge"><title>Node1015&#45;&gt;Node1017</title>
<path fill="none" stroke="midnightblue" d="M295.269,-209.074C315.769,-208.556 337.644,-208.004 357.114,-207.512"/>
<polygon fill="midnightblue" stroke="midnightblue" points="357.448,-211.005 367.357,-207.254 357.271,-204.007 357.448,-211.005"/>
</g>
<!-- Node1018 -->
<g id="node13" class="node"><title>Node1018</title>
<g id="a_node13"><a xlink:href="classdata_1_1_instance.html#a90d1eaeb66cc1470bbfdb95434fdb761" target="_top" xlink:title=" ">
<polygon fill="white" stroke="black" points="331,-152.5 331,-171.5 505,-171.5 505,-152.5 331,-152.5"/>
<text text-anchor="middle" x="418" y="-159.5" font-family="Helvetica,sans-Serif" font-size="10.00">data::Instance::getNumDimensions</text>
</a>
</g>
</g>
<!-- Node1015&#45;&gt;Node1018 -->
<g id="edge14" class="edge"><title>Node1015&#45;&gt;Node1018</title>
<path fill="none" stroke="midnightblue" d="M253.212,-201.415C275.338,-195.32 304.796,-187.401 331,-181 341.018,-178.553 351.727,-176.076 362.067,-173.756"/>
<polygon fill="midnightblue" stroke="midnightblue" points="362.831,-177.172 371.833,-171.585 361.312,-170.338 362.831,-177.172"/>
</g>
<!-- Node1019 -->
<g id="node14" class="node"><title>Node1019</title>
<g id="a_node14"><a xlink:href="namespacestats.html#a61ea16e97e098fc1598f4a2975cb0a24" target="_top" xlink:title="￼Calculate average of a vector">
<polygon fill="white" stroke="black" points="369,-114.5 369,-133.5 467,-133.5 467,-114.5 369,-114.5"/>
<text text-anchor="middle" x="418" y="-121.5" font-family="Helvetica,sans-Serif" font-size="10.00">stats::meanVector</text>
</a>
</g>
</g>
<!-- Node1015&#45;&gt;Node1019 -->
<g id="edge15" class="edge"><title>Node1015&#45;&gt;Node1019</title>
<path fill="none" stroke="midnightblue" d="M231.703,-201.347C251.734,-186.588 292.365,-158.501 331,-143 339.847,-139.45 349.486,-136.503 359.005,-134.075"/>
<polygon fill="midnightblue" stroke="midnightblue" points="359.929,-137.453 368.845,-131.729 358.306,-130.643 359.929,-137.453"/>
</g>
<!-- Node1019&#45;&gt;Node1009 -->
<g id="edge16" class="edge"><title>Node1019&#45;&gt;Node1009</title>
<path fill="none" stroke="midnightblue" d="M467.264,-129.441C480.095,-132.255 493.555,-136.524 505,-143 525.248,-154.457 523.058,-166.191 541,-181 554.265,-191.949 570.415,-202.382 583.754,-210.339"/>
<polygon fill="midnightblue" stroke="midnightblue" points="582.07,-213.409 592.47,-215.428 585.599,-207.363 582.07,-213.409"/>
</g>
<!-- Node1020 -->
<g id="node15" class="node"><title>Node1020</title>
<g id="a_node15"><a xlink:href="namespaceinterfacesse.html#aa4b94bf2bf8cb7c437fa3feba8b70ff8" target="_top" xlink:title="Initializes the array with a constant .">
<polygon fill="white" stroke="black" points="558.5,-152.5 558.5,-171.5 663.5,-171.5 663.5,-152.5 558.5,-152.5"/>
<text text-anchor="middle" x="611" y="-159.5" font-family="Helvetica,sans-Serif" font-size="10.00">interfacesse::copya</text>
</a>
</g>
</g>
<!-- Node1019&#45;&gt;Node1020 -->
<g id="edge17" class="edge"><title>Node1019&#45;&gt;Node1020</title>
<path fill="none" stroke="midnightblue" d="M467.197,-133.589C492.97,-138.716 524.891,-145.067 552.012,-150.463"/>
<polygon fill="midnightblue" stroke="midnightblue" points="551.658,-153.961 562.149,-152.48 553.024,-147.096 551.658,-153.961"/>
</g>
<!-- Node1021 -->
<g id="node16" class="node"><title>Node1021</title>
<g id="a_node16"><a xlink:href="namespaceinterfacesse.html#ae3f94c42a59db65b2941dbfc9f449ea1" target="_top" xlink:title="function xAXPY of blas for doubles vectors">
<polygon fill="white" stroke="black" points="555,-114.5 555,-133.5 667,-133.5 667,-114.5 555,-114.5"/>
<text text-anchor="middle" x="611" y="-121.5" font-family="Helvetica,sans-Serif" font-size="10.00">interfacesse::axpyInv</text>
</a>
</g>
</g>
<!-- Node1019&#45;&gt;Node1021 -->
<g id="edge18" class="edge"><title>Node1019&#45;&gt;Node1021</title>
<path fill="none" stroke="midnightblue" d="M467.197,-124C490.606,-124 519.087,-124 544.437,-124"/>
<polygon fill="midnightblue" stroke="midnightblue" points="544.715,-127.5 554.715,-124 544.715,-120.5 544.715,-127.5"/>
</g>
<!-- Node1022&#45;&gt;Node1014 -->
<g id="edge20" class="edge"><title>Node1022&#45;&gt;Node1014</title>
<path fill="none" stroke="midnightblue" d="M291.231,-76.9472C384.064,-67.991 548.994,-61.214 681,-105 721.987,-118.595 761.801,-150.659 783.694,-170.423"/>
<polygon fill="midnightblue" stroke="midnightblue" points="781.452,-173.117 791.173,-177.332 786.202,-167.975 781.452,-173.117"/>
</g>
<!-- Node1022&#45;&gt;Node1019 -->
<g id="edge22" class="edge"><title>Node1022&#45;&gt;Node1019</title>
<path fill="none" stroke="midnightblue" d="M268.708,-95.54C296.171,-100.811 330.427,-107.385 359.094,-112.887"/>
<polygon fill="midnightblue" stroke="midnightblue" points="358.5,-116.337 368.981,-114.784 359.82,-109.462 358.5,-116.337"/>
</g>
<!-- Node1023 -->
<g id="node18" class="node"><title>Node1023</title>
<g id="a_node18"><a xlink:href="classmat_1_1_matrix_base.html#ae3b1c4b8e9cb7e7685d7bc129f875dcd" target="_top" xlink:title=" ">
<polygon fill="white" stroke="black" points="352.5,-38.5 352.5,-57.5 483.5,-57.5 483.5,-38.5 352.5,-38.5"/>
<text text-anchor="middle" x="418" y="-45.5" font-family="Helvetica,sans-Serif" font-size="10.00">mat::MatrixBase::getRow</text>
</a>
</g>
</g>
<!-- Node1022&#45;&gt;Node1023 -->
<g id="edge21" class="edge"><title>Node1022&#45;&gt;Node1023</title>
<path fill="none" stroke="midnightblue" d="M268.708,-76.46C295.541,-71.3104 328.859,-64.916 357.113,-59.4935"/>
<polygon fill="midnightblue" stroke="midnightblue" points="358.11,-62.866 367.271,-57.5439 356.791,-55.9915 358.11,-62.866"/>
</g>
<!-- Node1024 -->
<g id="node19" class="node"><title>Node1024</title>
<g id="a_node19"><a xlink:href="classmat_1_1_matrix_base.html#a4cdb6c084f99e4aec0373760c093ee11" target="_top" xlink:title=" ">
<polygon fill="white" stroke="black" points="361,-0.5 361,-19.5 475,-19.5 475,-0.5 361,-0.5"/>
<text text-anchor="middle" x="418" y="-7.5" font-family="Helvetica,sans-Serif" font-size="10.00">mat::MatrixBase::print</text>
</a>
</g>
</g>
<!-- Node1022&#45;&gt;Node1024 -->
<g id="edge23" class="edge"><title>Node1022&#45;&gt;Node1024</title>
<path fill="none" stroke="midnightblue" d="M234.747,-76.3603C255.917,-63.787 295.057,-41.8804 331,-29 338.287,-26.3886 346.055,-24.067 353.829,-22.0227"/>
<polygon fill="midnightblue" stroke="midnightblue" points="354.785,-25.3918 363.644,-19.5807 353.094,-18.5989 354.785,-25.3918"/>
</g>
</g>
</svg>
