<?xml version="1.0" encoding="UTF-8" standalone="no"?>
<!DOCTYPE svg PUBLIC "-//W3C//DTD SVG 1.1//EN"
 "http://www.w3.org/Graphics/SVG/1.1/DTD/svg11.dtd">
<!-- Generated by graphviz version 2.38.0 (20140413.2041)
 -->
<!-- Title: gagenericop::onePointCrossover Pages: 1 -->
<svg width="1178pt" height="176pt"
 viewBox="0.00 0.00 1178.00 175.50" xmlns="http://www.w3.org/2000/svg" xmlns:xlink="http://www.w3.org/1999/xlink">
<g id="graph0" class="graph" transform="scale(1 1) rotate(0) translate(4 171.5)">
<title>gagenericop::onePointCrossover</title>
<polygon fill="white" stroke="none" points="-4,4 -4,-171.5 1174,-171.5 1174,4 -4,4"/>
<!-- Node181 -->
<g id="node1" class="node"><title>Node181</title>
<polygon fill="#bfbfbf" stroke="black" points="0,-79 0,-98 167,-98 167,-79 0,-79"/>
<text text-anchor="middle" x="83.5" y="-86" font-family="Helvetica,sans-Serif" font-size="10.00">gagenericop::onePointCrossover</text>
</g>
<!-- Node182 -->
<g id="node2" class="node"><title>Node182</title>
<g id="a_node2"><a xlink:href="namespaceinterfacesse.html#a925f44ed84d40e9af5050fa0e1373396" target="_top" xlink:title="copy array aoarrayt_x in aoarrayt_y of type T ">
<polygon fill="white" stroke="black" points="231,-148 231,-167 330,-167 330,-148 231,-148"/>
<text text-anchor="middle" x="280.5" y="-155" font-family="Helvetica,sans-Serif" font-size="10.00">interfacesse::copy</text>
</a>
</g>
</g>
<!-- Node181&#45;&gt;Node182 -->
<g id="edge1" class="edge"><title>Node181&#45;&gt;Node182</title>
<path fill="none" stroke="midnightblue" d="M104.68,-98.1571C127.971,-109.033 167.619,-126.722 203,-138.5 210.395,-140.962 218.286,-143.269 226.086,-145.367"/>
<polygon fill="midnightblue" stroke="midnightblue" points="225.315,-148.783 235.874,-147.911 227.075,-142.008 225.315,-148.783"/>
</g>
<!-- Node189 -->
<g id="node9" class="node"><title>Node189</title>
<g id="a_node9"><a xlink:href="classgaencode_1_1_chrom_fixed_length.html#a4d1d15f6be16c0d0a23824033993aa71" target="_top" xlink:title="gaencode::ChromFixedLength\l::getString">
<polygon fill="white" stroke="black" points="203,-98.5 203,-128.5 358,-128.5 358,-98.5 203,-98.5"/>
<text text-anchor="start" x="211" y="-116.5" font-family="Helvetica,sans-Serif" font-size="10.00">gaencode::ChromFixedLength</text>
<text text-anchor="middle" x="280.5" y="-105.5" font-family="Helvetica,sans-Serif" font-size="10.00">::getString</text>
</a>
</g>
</g>
<!-- Node181&#45;&gt;Node189 -->
<g id="edge8" class="edge"><title>Node181&#45;&gt;Node189</title>
<path fill="none" stroke="midnightblue" d="M158.777,-98.0227C169.932,-99.4529 181.518,-100.938 192.903,-102.398"/>
<polygon fill="midnightblue" stroke="midnightblue" points="192.476,-105.872 202.84,-103.672 193.366,-98.9284 192.476,-105.872"/>
</g>
<!-- Node190 -->
<g id="node10" class="node"><title>Node190</title>
<g id="a_node10"><a xlink:href="classgaencode_1_1_chrom_fixed_length.html#aac60dd08cf0d29f08845a6381d84edad" target="_top" xlink:title="gaencode::ChromFixedLength\l::getStringSize">
<polygon fill="white" stroke="black" points="203,-49.5 203,-79.5 358,-79.5 358,-49.5 203,-49.5"/>
<text text-anchor="start" x="211" y="-67.5" font-family="Helvetica,sans-Serif" font-size="10.00">gaencode::ChromFixedLength</text>
<text text-anchor="middle" x="280.5" y="-56.5" font-family="Helvetica,sans-Serif" font-size="10.00">::getStringSize</text>
</a>
</g>
</g>
<!-- Node181&#45;&gt;Node190 -->
<g id="edge9" class="edge"><title>Node181&#45;&gt;Node190</title>
<path fill="none" stroke="midnightblue" d="M161.849,-78.9801C171.978,-77.7335 182.409,-76.4496 192.681,-75.1854"/>
<polygon fill="midnightblue" stroke="midnightblue" points="193.384,-78.6254 202.882,-73.9299 192.529,-71.6778 193.384,-78.6254"/>
</g>
<!-- Node191 -->
<g id="node11" class="node"><title>Node191</title>
<g id="a_node11"><a xlink:href="classgaencode_1_1_chrom_fixed_length.html#a2d0b4e4d46c2f224ce34cf795407b407" target="_top" xlink:title="gaencode::ChromFixedLength\l::print">
<polygon fill="white" stroke="black" points="203,-0.5 203,-30.5 358,-30.5 358,-0.5 203,-0.5"/>
<text text-anchor="start" x="211" y="-18.5" font-family="Helvetica,sans-Serif" font-size="10.00">gaencode::ChromFixedLength</text>
<text text-anchor="middle" x="280.5" y="-7.5" font-family="Helvetica,sans-Serif" font-size="10.00">::print</text>
</a>
</g>
</g>
<!-- Node181&#45;&gt;Node191 -->
<g id="edge10" class="edge"><title>Node181&#45;&gt;Node191</title>
<path fill="none" stroke="midnightblue" d="M107.037,-78.8298C130.744,-68.7855 169.226,-52.8423 203,-40.5 209.029,-38.2969 215.357,-36.0795 221.683,-33.9238"/>
<polygon fill="midnightblue" stroke="midnightblue" points="223.216,-37.1013 231.58,-30.5981 220.986,-30.4659 223.216,-37.1013"/>
</g>
<!-- Node183 -->
<g id="node3" class="node"><title>Node183</title>
<g id="a_node3"><a xlink:href="namespaceinterfacesse.html#afaa45a2a27710ea2dfa979289cf4961d" target="_top" xlink:title="swap items of aoarrayt_y to aiarrayt_x ">
<polygon fill="white" stroke="black" points="394,-148 394,-167 495,-167 495,-148 394,-148"/>
<text text-anchor="middle" x="444.5" y="-155" font-family="Helvetica,sans-Serif" font-size="10.00">interfacesse::swap</text>
</a>
</g>
</g>
<!-- Node182&#45;&gt;Node183 -->
<g id="edge2" class="edge"><title>Node182&#45;&gt;Node183</title>
<path fill="none" stroke="midnightblue" d="M330.105,-157.5C346.934,-157.5 365.995,-157.5 383.623,-157.5"/>
<polygon fill="midnightblue" stroke="midnightblue" points="383.808,-161 393.808,-157.5 383.807,-154 383.808,-161"/>
</g>
<!-- Node184 -->
<g id="node4" class="node"><title>Node184</title>
<g id="a_node4"><a xlink:href="namespaceinterfacesse.html#a2f42addf86fc8b9cd0c6620217b8a2db" target="_top" xlink:title="swap items of aoarrayt_y to aiarrayt_x ">
<polygon fill="white" stroke="black" points="531,-148 531,-167 623,-167 623,-148 531,-148"/>
<text text-anchor="middle" x="577" y="-155" font-family="Helvetica,sans-Serif" font-size="10.00">interfacesse::dot</text>
</a>
</g>
</g>
<!-- Node183&#45;&gt;Node184 -->
<g id="edge3" class="edge"><title>Node183&#45;&gt;Node184</title>
<path fill="none" stroke="midnightblue" d="M495.209,-157.5C503.505,-157.5 512.156,-157.5 520.584,-157.5"/>
<polygon fill="midnightblue" stroke="midnightblue" points="520.714,-161 530.714,-157.5 520.714,-154 520.714,-161"/>
</g>
<!-- Node185 -->
<g id="node5" class="node"><title>Node185</title>
<g id="a_node5"><a xlink:href="namespaceinterfacesse.html#a25f6950d589b92fd5bcf2007fb3fae19" target="_top" xlink:title="interfacesse::sum">
<polygon fill="white" stroke="black" points="659,-148 659,-167 755,-167 755,-148 659,-148"/>
<text text-anchor="middle" x="707" y="-155" font-family="Helvetica,sans-Serif" font-size="10.00">interfacesse::sum</text>
</a>
</g>
</g>
<!-- Node184&#45;&gt;Node185 -->
<g id="edge4" class="edge"><title>Node184&#45;&gt;Node185</title>
<path fill="none" stroke="midnightblue" d="M623.128,-157.5C631.315,-157.5 639.955,-157.5 648.442,-157.5"/>
<polygon fill="midnightblue" stroke="midnightblue" points="648.679,-161 658.678,-157.5 648.678,-154 648.679,-161"/>
</g>
<!-- Node186 -->
<g id="node6" class="node"><title>Node186</title>
<g id="a_node6"><a xlink:href="namespaceinterfacesse.html#a9dd5fb43ad8a83ee5cb2f5ba1bb2085b" target="_top" xlink:title="interfacesse::axpy">
<polygon fill="white" stroke="black" points="791,-148 791,-167 890,-167 890,-148 791,-148"/>
<text text-anchor="middle" x="840.5" y="-155" font-family="Helvetica,sans-Serif" font-size="10.00">interfacesse::axpy</text>
</a>
</g>
</g>
<!-- Node185&#45;&gt;Node186 -->
<g id="edge5" class="edge"><title>Node185&#45;&gt;Node186</title>
<path fill="none" stroke="midnightblue" d="M755.103,-157.5C763.472,-157.5 772.281,-157.5 780.922,-157.5"/>
<polygon fill="midnightblue" stroke="midnightblue" points="780.953,-161 790.953,-157.5 780.953,-154 780.953,-161"/>
</g>
<!-- Node187 -->
<g id="node7" class="node"><title>Node187</title>
<g id="a_node7"><a xlink:href="namespaceinterfacesse.html#ae3f94c42a59db65b2941dbfc9f449ea1" target="_top" xlink:title="function xAXPY of blas for doubles vectors ">
<polygon fill="white" stroke="black" points="926,-148 926,-167 1038,-167 1038,-148 926,-148"/>
<text text-anchor="middle" x="982" y="-155" font-family="Helvetica,sans-Serif" font-size="10.00">interfacesse::axpyInv</text>
</a>
</g>
</g>
<!-- Node186&#45;&gt;Node187 -->
<g id="edge6" class="edge"><title>Node186&#45;&gt;Node187</title>
<path fill="none" stroke="midnightblue" d="M890.29,-157.5C898.535,-157.5 907.211,-157.5 915.794,-157.5"/>
<polygon fill="midnightblue" stroke="midnightblue" points="915.797,-161 925.797,-157.5 915.797,-154 915.797,-161"/>
</g>
<!-- Node188 -->
<g id="node8" class="node"><title>Node188</title>
<g id="a_node8"><a xlink:href="namespaceinterfacesse.html#a144ebf70bf38495c3de1aca2c8365e08" target="_top" xlink:title="scal items of the array of type T ">
<polygon fill="white" stroke="black" points="1074,-148 1074,-167 1170,-167 1170,-148 1074,-148"/>
<text text-anchor="middle" x="1122" y="-155" font-family="Helvetica,sans-Serif" font-size="10.00">interfacesse::scal</text>
</a>
</g>
</g>
<!-- Node187&#45;&gt;Node188 -->
<g id="edge7" class="edge"><title>Node187&#45;&gt;Node188</title>
<path fill="none" stroke="midnightblue" d="M1038.33,-157.5C1046.65,-157.5 1055.24,-157.5 1063.6,-157.5"/>
<polygon fill="midnightblue" stroke="midnightblue" points="1063.65,-161 1073.65,-157.5 1063.65,-154 1063.65,-161"/>
</g>
</g>
</svg>
