<?xml version="1.0" encoding="UTF-8" standalone="no"?>
<!DOCTYPE svg PUBLIC "-//W3C//DTD SVG 1.1//EN"
 "http://www.w3.org/Graphics/SVG/1.1/DTD/svg11.dtd">
<!-- Generated by graphviz version 2.38.0 (20140413.2041)
 -->
<!-- Title: sm::recall Pages: 1 -->
<svg width="631pt" height="137pt"
 viewBox="0.00 0.00 631.00 137.00" xmlns="http://www.w3.org/2000/svg" xmlns:xlink="http://www.w3.org/1999/xlink">
<g id="graph0" class="graph" transform="scale(1 1) rotate(0) translate(4 133)">
<title>sm::recall</title>
<polygon fill="white" stroke="none" points="-4,4 -4,-133 627,-133 627,4 -4,4"/>
<!-- Node60 -->
<g id="node1" class="node"><title>Node60</title>
<g id="a_node1"><a xlink:title=" ">
<polygon fill="#bfbfbf" stroke="black" points="0,-32 0,-51 61,-51 61,-32 0,-32"/>
<text text-anchor="middle" x="30.5" y="-39" font-family="Helvetica,sans-Serif" font-size="10.00">sm::recall</text>
</a>
</g>
</g>
<!-- Node61 -->
<g id="node2" class="node"><title>Node61</title>
<g id="a_node2"><a xlink:href="classsm_1_1_confusion_matching_matrix.html#a0702e68751487b010d378e92a90448c6" target="_top" xlink:title=" ">
<polygon fill="white" stroke="black" points="97,-49.5 97,-79.5 246,-79.5 246,-49.5 97,-49.5"/>
<text text-anchor="start" x="105" y="-67.5" font-family="Helvetica,sans-Serif" font-size="10.00">sm::ConfusionMatchingMatrix</text>
<text text-anchor="middle" x="171.5" y="-56.5" font-family="Helvetica,sans-Serif" font-size="10.00">::getSomeClassUDiffClusterV</text>
</a>
</g>
</g>
<!-- Node60&#45;&gt;Node61 -->
<g id="edge1" class="edge"><title>Node60&#45;&gt;Node61</title>
<path fill="none" stroke="midnightblue" d="M61.319,-46.4341C69.0518,-47.7136 77.7702,-49.1562 86.8238,-50.6543"/>
<polygon fill="midnightblue" stroke="midnightblue" points="86.3115,-54.117 96.7488,-52.2966 87.4543,-47.2109 86.3115,-54.117"/>
</g>
<!-- Node66 -->
<g id="node7" class="node"><title>Node66</title>
<g id="a_node7"><a xlink:href="classsm_1_1_confusion_matching_matrix.html#ad1eb28e719bab5566cc56aa2a094ffa1" target="_top" xlink:title=" ">
<polygon fill="white" stroke="black" points="282,-0.5 282,-30.5 444,-30.5 444,-0.5 282,-0.5"/>
<text text-anchor="start" x="290" y="-18.5" font-family="Helvetica,sans-Serif" font-size="10.00">sm::ConfusionMatchingMatrix</text>
<text text-anchor="middle" x="363" y="-7.5" font-family="Helvetica,sans-Serif" font-size="10.00">::getSomeClassUSomeClusterV</text>
</a>
</g>
</g>
<!-- Node60&#45;&gt;Node66 -->
<g id="edge8" class="edge"><title>Node60&#45;&gt;Node66</title>
<path fill="none" stroke="midnightblue" d="M61.1205,-39.1698C108.01,-35.481 201.219,-28.1484 271.534,-22.6168"/>
<polygon fill="midnightblue" stroke="midnightblue" points="272.04,-26.088 281.734,-21.8144 271.491,-19.1095 272.04,-26.088"/>
</g>
<!-- Node62 -->
<g id="node3" class="node"><title>Node62</title>
<g id="a_node3"><a xlink:href="classsm_1_1_confusion_matching_matrix.html#ade7e99c4b5bf3c95ecabff877c55e7b2" target="_top" xlink:title=" ">
<polygon fill="white" stroke="black" points="288.5,-49.5 288.5,-79.5 437.5,-79.5 437.5,-49.5 288.5,-49.5"/>
<text text-anchor="start" x="296.5" y="-67.5" font-family="Helvetica,sans-Serif" font-size="10.00">sm::ConfusionMatchingMatrix</text>
<text text-anchor="middle" x="363" y="-56.5" font-family="Helvetica,sans-Serif" font-size="10.00">::_getSumClassniDot2</text>
</a>
</g>
</g>
<!-- Node61&#45;&gt;Node62 -->
<g id="edge2" class="edge"><title>Node61&#45;&gt;Node62</title>
<path fill="none" stroke="midnightblue" d="M246.037,-64.5C256.523,-64.5 267.374,-64.5 278.04,-64.5"/>
<polygon fill="midnightblue" stroke="midnightblue" points="278.192,-68.0001 288.192,-64.5 278.192,-61.0001 278.192,-68.0001"/>
</g>
<!-- Node65 -->
<g id="node6" class="node"><title>Node65</title>
<g id="a_node6"><a xlink:href="classsm_1_1_confusion_matching_matrix.html#ab5632e4940a7c232eba150bfb9bcd4eb" target="_top" xlink:title=" ">
<polygon fill="white" stroke="black" points="288.5,-98.5 288.5,-128.5 437.5,-128.5 437.5,-98.5 288.5,-98.5"/>
<text text-anchor="start" x="296.5" y="-116.5" font-family="Helvetica,sans-Serif" font-size="10.00">sm::ConfusionMatchingMatrix</text>
<text text-anchor="middle" x="363" y="-105.5" font-family="Helvetica,sans-Serif" font-size="10.00">::_getSumnij2</text>
</a>
</g>
</g>
<!-- Node61&#45;&gt;Node65 -->
<g id="edge5" class="edge"><title>Node61&#45;&gt;Node65</title>
<path fill="none" stroke="midnightblue" d="M230.644,-79.5346C250.744,-84.7318 273.44,-90.6006 294.243,-95.9796"/>
<polygon fill="midnightblue" stroke="midnightblue" points="293.408,-99.3789 303.966,-98.4938 295.161,-92.6018 293.408,-99.3789"/>
</g>
<!-- Node63 -->
<g id="node4" class="node"><title>Node63</title>
<g id="a_node4"><a xlink:href="classmat_1_1_matrix_base.html#ac500eedd5e203327d3292f8ab22d8f3e" target="_top" xlink:title=" ">
<polygon fill="white" stroke="black" points="480,-74 480,-115 623,-115 623,-74 480,-74"/>
<text text-anchor="start" x="488" y="-103" font-family="Helvetica,sans-Serif" font-size="10.00">mat::MatrixBase&lt; T</text>
<text text-anchor="start" x="488" y="-92" font-family="Helvetica,sans-Serif" font-size="10.00">_INSTANCES_CLUSTER_K</text>
<text text-anchor="middle" x="551.5" y="-81" font-family="Helvetica,sans-Serif" font-size="10.00"> &gt;::getNumRows</text>
</a>
</g>
</g>
<!-- Node62&#45;&gt;Node63 -->
<g id="edge3" class="edge"><title>Node62&#45;&gt;Node63</title>
<path fill="none" stroke="midnightblue" d="M437.71,-76.3568C448.203,-78.0447 459.042,-79.7883 469.663,-81.4967"/>
<polygon fill="midnightblue" stroke="midnightblue" points="469.331,-84.9882 479.76,-83.1209 470.442,-78.077 469.331,-84.9882"/>
</g>
<!-- Node64 -->
<g id="node5" class="node"><title>Node64</title>
<g id="a_node5"><a xlink:href="classmat_1_1_matrix_base.html#a70200414022ce1479b9ddc16102b12ae" target="_top" xlink:title=" ">
<polygon fill="white" stroke="black" points="480,-14 480,-55 623,-55 623,-14 480,-14"/>
<text text-anchor="start" x="488" y="-43" font-family="Helvetica,sans-Serif" font-size="10.00">mat::MatrixBase&lt; T</text>
<text text-anchor="start" x="488" y="-32" font-family="Helvetica,sans-Serif" font-size="10.00">_INSTANCES_CLUSTER_K</text>
<text text-anchor="middle" x="551.5" y="-21" font-family="Helvetica,sans-Serif" font-size="10.00"> &gt;::getNumColumns</text>
</a>
</g>
</g>
<!-- Node62&#45;&gt;Node64 -->
<g id="edge4" class="edge"><title>Node62&#45;&gt;Node64</title>
<path fill="none" stroke="midnightblue" d="M437.71,-52.6432C448.203,-50.9553 459.042,-49.2117 469.663,-47.5033"/>
<polygon fill="midnightblue" stroke="midnightblue" points="470.442,-50.923 479.76,-45.8791 469.331,-44.0118 470.442,-50.923"/>
</g>
<!-- Node65&#45;&gt;Node63 -->
<g id="edge6" class="edge"><title>Node65&#45;&gt;Node63</title>
<path fill="none" stroke="midnightblue" d="M437.71,-105.991C448.203,-104.922 459.042,-103.817 469.663,-102.735"/>
<polygon fill="midnightblue" stroke="midnightblue" points="470.166,-106.202 479.76,-101.707 469.456,-99.2384 470.166,-106.202"/>
</g>
<!-- Node65&#45;&gt;Node64 -->
<g id="edge7" class="edge"><title>Node65&#45;&gt;Node64</title>
<path fill="none" stroke="midnightblue" d="M419.447,-98.4431C427.827,-95.5209 436.253,-92.199 444,-88.5 461.353,-80.2148 463.08,-73.6374 480,-64.5 483.233,-62.7539 486.59,-61.0354 490.005,-59.3587"/>
<polygon fill="midnightblue" stroke="midnightblue" points="491.602,-62.4748 499.139,-55.0282 488.604,-56.1497 491.602,-62.4748"/>
</g>
<!-- Node66&#45;&gt;Node63 -->
<g id="edge9" class="edge"><title>Node66&#45;&gt;Node63</title>
<path fill="none" stroke="midnightblue" d="M422.074,-30.5442C429.592,-33.1784 437.077,-36.1626 444,-39.5 461.547,-47.9593 462.949,-55.0815 480,-64.5 483.062,-66.1913 486.239,-67.8516 489.474,-69.4696"/>
<polygon fill="midnightblue" stroke="midnightblue" points="488.174,-72.7278 498.703,-73.9075 491.208,-66.4193 488.174,-72.7278"/>
</g>
<!-- Node66&#45;&gt;Node64 -->
<g id="edge10" class="edge"><title>Node66&#45;&gt;Node64</title>
<path fill="none" stroke="midnightblue" d="M444.175,-23.668C452.598,-24.526 461.165,-25.3989 469.596,-26.2578"/>
<polygon fill="midnightblue" stroke="midnightblue" points="469.49,-29.765 479.793,-27.2966 470.199,-22.801 469.49,-29.765"/>
</g>
</g>
</svg>
