<?xml version="1.0" encoding="UTF-8" standalone="no"?>
<!DOCTYPE svg PUBLIC "-//W3C//DTD SVG 1.1//EN"
 "http://www.w3.org/Graphics/SVG/1.1/DTD/svg11.dtd">
<!-- Generated by graphviz version 2.38.0 (20140413.2041)
 -->
<!-- Title: um::maxRadiusClusterK Pages: 1 -->
<!--zoomable 773 -->
<svg id="main" version="1.1" xmlns="http://www.w3.org/2000/svg" xmlns:xlink="http://www.w3.org/1999/xlink" xml:space="preserve" onload="init(evt)">
<style type="text/css"><![CDATA[
.edge:hover path { stroke: red; }
.edge:hover polygon { stroke: red; fill: red; }
]]></style>
<script type="text/javascript"><![CDATA[
var edges = document.getElementsByTagName('g');
if (edges && edges.length) {
  for (var i=0;i<edges.length;i++) {
    if (edges[i].id.substr(0,4)=='edge') {
      edges[i].setAttribute('class','edge');
    }
  }
}
]]></script>
        <defs>
                <circle id="rim" cx="0" cy="0" r="7"/>
                <circle id="rim2" cx="0" cy="0" r="3.5"/>
                <g id="zoomPlus">
                        <use xlink:href="#rim" fill="#404040">
                                <set attributeName="fill" to="#808080" begin="zoomplus.mouseover" end="zoomplus.mouseout"/>
                        </use>
                        <path d="M-4,0h8M0,-4v8" fill="none" stroke="white" stroke-width="1.5" pointer-events="none"/>
                </g>
                <g id="zoomMin">
                        <use xlink:href="#rim" fill="#404040">
                                <set attributeName="fill" to="#808080" begin="zoomminus.mouseover" end="zoomminus.mouseout"/>
                        </use>
                        <path d="M-4,0h8" fill="none" stroke="white" stroke-width="1.5" pointer-events="none"/>
                </g>
                <g id="dirArrow">
                        <path fill="none" stroke="white" stroke-width="1.5" d="M0,-3.0v7 M-2.5,-0.5L0,-3.0L2.5,-0.5"/>
                </g>
               <g id="resetDef">
                       <use xlink:href="#rim2" fill="#404040">
                               <set attributeName="fill" to="#808080" begin="reset.mouseover" end="reset.mouseout"/>
                       </use>
               </g>
        </defs>

<script type="text/javascript">
var viewWidth = 1254;
var viewHeight = 773;
var sectionId = 'dynsection-22';
</script>
<script xlink:href="svgpan.js"/>
<svg id="graph" class="graph">
<g id="viewport">
<title>um::maxRadiusClusterK</title>
<polygon fill="white" stroke="none" points="-4,4 -4,-769 1250,-769 1250,4 -4,4"/>
<!-- Node502 -->
<g id="node1" class="node"><title>Node502</title>
<polygon fill="#bfbfbf" stroke="black" points="0,-534 0,-553 125,-553 125,-534 0,-534"/>
<text text-anchor="middle" x="62.5" y="-541" font-family="Helvetica,sans-Serif" font-size="10.00">um::maxRadiusClusterK</text>
</g>
<!-- Node503 -->
<g id="node2" class="node"><title>Node503</title>
<g id="a_node2"><a xlink:href="classpartition_1_1_partition.html#acb8de7c890e05872858fb7a7aa53b657" target="_top" xlink:title="partition::Partition\l::begin">
<polygon fill="white" stroke="black" points="172.5,-734.5 172.5,-764.5 265.5,-764.5 265.5,-734.5 172.5,-734.5"/>
<text text-anchor="start" x="180.5" y="-752.5" font-family="Helvetica,sans-Serif" font-size="10.00">partition::Partition</text>
<text text-anchor="middle" x="219" y="-741.5" font-family="Helvetica,sans-Serif" font-size="10.00">::begin</text>
</a>
</g>
</g>
<!-- Node502&#45;&gt;Node503 -->
<g id="edge1" class="edge"><title>Node502&#45;&gt;Node503</title>
<path fill="none" stroke="midnightblue" d="M66.5963,-553.124C76.2473,-581.812 108.328,-667.944 161,-719.5 164.511,-722.937 168.496,-726.078 172.689,-728.923"/>
<polygon fill="midnightblue" stroke="midnightblue" points="171.151,-732.086 181.502,-734.348 174.821,-726.125 171.151,-732.086"/>
</g>
<!-- Node504 -->
<g id="node3" class="node"><title>Node504</title>
<g id="a_node3"><a xlink:href="namespaceinout.html#a0c10a45877a347dec0d4ec4e5b05b828" target="_top" xlink:title="inout::containerprint">
<polygon fill="white" stroke="black" points="643,-544 643,-563 746,-563 746,-544 643,-544"/>
<text text-anchor="middle" x="694.5" y="-551" font-family="Helvetica,sans-Serif" font-size="10.00">inout::containerprint</text>
</a>
</g>
</g>
<!-- Node502&#45;&gt;Node504 -->
<g id="edge2" class="edge"><title>Node502&#45;&gt;Node504</title>
<path fill="none" stroke="midnightblue" d="M123.589,-553.014C223.977,-567.498 432.036,-591.489 607,-572.5 620.642,-571.019 635.286,-568.262 648.575,-565.298"/>
<polygon fill="midnightblue" stroke="midnightblue" points="649.484,-568.68 658.433,-563.008 647.901,-561.861 649.484,-568.68"/>
</g>
<!-- Node505 -->
<g id="node4" class="node"><title>Node505</title>
<g id="a_node4"><a xlink:href="namespaceum.html#ac9c4b9777bb97ada898b3d1bc2621996" target="_top" xlink:title="um::diameterClusterKj">
<polygon fill="white" stroke="black" points="161,-466 161,-485 277,-485 277,-466 161,-466"/>
<text text-anchor="middle" x="219" y="-473" font-family="Helvetica,sans-Serif" font-size="10.00">um::diameterClusterKj</text>
</a>
</g>
</g>
<!-- Node502&#45;&gt;Node505 -->
<g id="edge3" class="edge"><title>Node502&#45;&gt;Node505</title>
<path fill="none" stroke="midnightblue" d="M85.3084,-533.901C111.878,-522.207 156.943,-502.373 187.084,-489.107"/>
<polygon fill="midnightblue" stroke="midnightblue" points="188.56,-492.282 196.303,-485.05 185.74,-485.875 188.56,-492.282"/>
</g>
<!-- Node508 -->
<g id="node7" class="node"><title>Node508</title>
<g id="a_node7"><a xlink:href="classdata_1_1_instance.html#aa6ee19c383a86228b3d134e42bdb6830" target="_top" xlink:title="data::Instance::getFeatures">
<polygon fill="white" stroke="black" points="1089,-164 1089,-183 1229,-183 1229,-164 1089,-164"/>
<text text-anchor="middle" x="1159" y="-171" font-family="Helvetica,sans-Serif" font-size="10.00">data::Instance::getFeatures</text>
</a>
</g>
</g>
<!-- Node502&#45;&gt;Node508 -->
<g id="edge37" class="edge"><title>Node502&#45;&gt;Node508</title>
<path fill="none" stroke="midnightblue" d="M64.3829,-533.925C69.8375,-476.78 100.709,-181.093 161,-117.5 225.558,-49.4059 270.167,-59.5 364,-59.5 364,-59.5 364,-59.5 814,-59.5 939.196,-59.5 1077.6,-128.378 1133.04,-159.056"/>
<polygon fill="midnightblue" stroke="midnightblue" points="1131.38,-162.136 1141.81,-163.977 1134.8,-156.031 1131.38,-162.136"/>
</g>
<!-- Node509 -->
<g id="node8" class="node"><title>Node509</title>
<g id="a_node8"><a xlink:href="classdata_1_1_instance.html#a90d1eaeb66cc1470bbfdb95434fdb761" target="_top" xlink:title="data::Instance::getNumDimensions">
<polygon fill="white" stroke="black" points="1072,-582 1072,-601 1246,-601 1246,-582 1072,-582"/>
<text text-anchor="middle" x="1159" y="-589" font-family="Helvetica,sans-Serif" font-size="10.00">data::Instance::getNumDimensions</text>
</a>
</g>
</g>
<!-- Node502&#45;&gt;Node509 -->
<g id="edge38" class="edge"><title>Node502&#45;&gt;Node509</title>
<path fill="none" stroke="midnightblue" d="M72.8571,-553.149C107.732,-588.024 234.795,-705.5 364,-705.5 364,-705.5 364,-705.5 814,-705.5 913.885,-705.5 942.713,-706.201 1036,-670.5 1075.7,-655.305 1115.99,-625.894 1138.89,-607.56"/>
<polygon fill="midnightblue" stroke="midnightblue" points="1141.24,-610.16 1146.78,-601.128 1136.82,-604.734 1141.24,-610.16"/>
</g>
<!-- Node518 -->
<g id="node17" class="node"><title>Node518</title>
<g id="a_node17"><a xlink:href="classmat_1_1_matrix_base.html#ac500eedd5e203327d3292f8ab22d8f3e" target="_top" xlink:title="mat::MatrixBase::getNumRows">
<polygon fill="white" stroke="black" points="880,-240 880,-259 1036,-259 1036,-240 880,-240"/>
<text text-anchor="middle" x="958" y="-247" font-family="Helvetica,sans-Serif" font-size="10.00">mat::MatrixBase::getNumRows</text>
</a>
</g>
</g>
<!-- Node502&#45;&gt;Node518 -->
<g id="edge39" class="edge"><title>Node502&#45;&gt;Node518</title>
<path fill="none" stroke="midnightblue" d="M65.0036,-533.77C75.679,-468.547 145.99,-97.5 364,-97.5 364,-97.5 364,-97.5 531,-97.5 693.079,-97.5 870.728,-196.31 933.478,-234.596"/>
<polygon fill="midnightblue" stroke="midnightblue" points="931.869,-237.715 942.216,-239.992 935.547,-231.759 931.869,-237.715"/>
</g>
<!-- Node519 -->
<g id="node18" class="node"><title>Node519</title>
<g id="a_node18"><a xlink:href="classmat_1_1_matrix_row.html#a5391a205367fbaac82a26ddc377a80af" target="_top" xlink:title="mat::MatrixRow::getRow">
<polygon fill="white" stroke="black" points="894.5,-487 894.5,-506 1021.5,-506 1021.5,-487 894.5,-487"/>
<text text-anchor="middle" x="958" y="-494" font-family="Helvetica,sans-Serif" font-size="10.00">mat::MatrixRow::getRow</text>
</a>
</g>
</g>
<!-- Node502&#45;&gt;Node519 -->
<g id="edge40" class="edge"><title>Node502&#45;&gt;Node519</title>
<path fill="none" stroke="midnightblue" d="M82.6423,-553.032C129.434,-575.423 253.843,-629.5 364,-629.5 364,-629.5 364,-629.5 531,-629.5 688.709,-629.5 864.947,-545.415 930.542,-510.961"/>
<polygon fill="midnightblue" stroke="midnightblue" points="932.565,-513.849 939.752,-506.065 929.279,-507.668 932.565,-513.849"/>
</g>
<!-- Node520 -->
<g id="node19" class="node"><title>Node520</title>
<g id="a_node19"><a xlink:href="classpartition_1_1_partition.html#a96660ce61740ab0287189b21833eccdf" target="_top" xlink:title="partition::Partition\l::next">
<polygon fill="white" stroke="black" points="172.5,-0.5 172.5,-30.5 265.5,-30.5 265.5,-0.5 172.5,-0.5"/>
<text text-anchor="start" x="180.5" y="-18.5" font-family="Helvetica,sans-Serif" font-size="10.00">partition::Partition</text>
<text text-anchor="middle" x="219" y="-7.5" font-family="Helvetica,sans-Serif" font-size="10.00">::next</text>
</a>
</g>
</g>
<!-- Node502&#45;&gt;Node520 -->
<g id="edge41" class="edge"><title>Node502&#45;&gt;Node520</title>
<path fill="none" stroke="midnightblue" d="M64.2681,-533.758C69.3524,-471.35 99.8518,-127.658 161,-45.5 163.446,-42.213 166.36,-39.2524 169.557,-36.5921"/>
<polygon fill="midnightblue" stroke="midnightblue" points="171.874,-39.2386 177.984,-30.5828 167.81,-33.5393 171.874,-39.2386"/>
</g>
<!-- Node506 -->
<g id="node5" class="node"><title>Node506</title>
<g id="a_node5"><a xlink:href="classds_1_1_iterator_partition_linked.html#ad171cb96653fadaec272389381a4f8b4" target="_top" xlink:title="ds::IteratorPartitionLinked\l::begin">
<polygon fill="white" stroke="black" points="464.5,-483.5 464.5,-513.5 595.5,-513.5 595.5,-483.5 464.5,-483.5"/>
<text text-anchor="start" x="472.5" y="-501.5" font-family="Helvetica,sans-Serif" font-size="10.00">ds::IteratorPartitionLinked</text>
<text text-anchor="middle" x="530" y="-490.5" font-family="Helvetica,sans-Serif" font-size="10.00">::begin</text>
</a>
</g>
</g>
<!-- Node505&#45;&gt;Node506 -->
<g id="edge4" class="edge"><title>Node505&#45;&gt;Node506</title>
<path fill="none" stroke="midnightblue" d="M277.035,-479.745C326.838,-483.452 399.477,-488.859 453.981,-492.916"/>
<polygon fill="midnightblue" stroke="midnightblue" points="454.05,-496.431 464.282,-493.683 454.57,-489.45 454.05,-496.431"/>
</g>
<!-- Node507 -->
<g id="node6" class="node"><title>Node507</title>
<g id="a_node6"><a xlink:href="classds_1_1_iterator_partition_linked.html#af0e179fae69c0d4f047082ee44783613" target="_top" xlink:title="ds::IteratorPartitionLinked::end">
<polygon fill="white" stroke="black" points="453,-445 453,-464 607,-464 607,-445 453,-445"/>
<text text-anchor="middle" x="530" y="-452" font-family="Helvetica,sans-Serif" font-size="10.00">ds::IteratorPartitionLinked::end</text>
</a>
</g>
</g>
<!-- Node505&#45;&gt;Node507 -->
<g id="edge5" class="edge"><title>Node505&#45;&gt;Node507</title>
<path fill="none" stroke="midnightblue" d="M277.035,-471.624C323.48,-468.467 389.784,-463.961 442.72,-460.364"/>
<polygon fill="midnightblue" stroke="midnightblue" points="443.04,-463.85 452.779,-459.68 442.565,-456.866 443.04,-463.85"/>
</g>
<!-- Node505&#45;&gt;Node508 -->
<g id="edge6" class="edge"><title>Node505&#45;&gt;Node508</title>
<path fill="none" stroke="midnightblue" d="M221.427,-465.616C226.964,-430.39 249.942,-309.164 313,-235.5 359.748,-180.89 383.572,-173.137 453,-154.5 689.129,-91.1135 985.819,-138.17 1104.93,-161.942"/>
<polygon fill="midnightblue" stroke="midnightblue" points="1104.39,-165.404 1114.89,-163.958 1105.78,-158.543 1104.39,-165.404"/>
</g>
<!-- Node505&#45;&gt;Node509 -->
<g id="edge7" class="edge"><title>Node505&#45;&gt;Node509</title>
<path fill="none" stroke="midnightblue" d="M227.701,-485.021C259.967,-523.763 389.104,-667.5 529,-667.5 529,-667.5 529,-667.5 814,-667.5 913.107,-667.5 940.197,-671.876 1036,-646.5 1070.9,-637.257 1108.37,-618.974 1132.44,-606.028"/>
<polygon fill="midnightblue" stroke="midnightblue" points="1134.19,-609.061 1141.28,-601.189 1130.83,-602.921 1134.19,-609.061"/>
</g>
<!-- Node510 -->
<g id="node9" class="node"><title>Node510</title>
<g id="a_node9"><a xlink:href="classds_1_1_iterator_partition_linked.html#a1a031c033d0d2d1c6982ced4e0473831" target="_top" xlink:title="ds::IteratorPartitionLinked\l::getValue">
<polygon fill="white" stroke="black" points="464.5,-164.5 464.5,-194.5 595.5,-194.5 595.5,-164.5 464.5,-164.5"/>
<text text-anchor="start" x="472.5" y="-182.5" font-family="Helvetica,sans-Serif" font-size="10.00">ds::IteratorPartitionLinked</text>
<text text-anchor="middle" x="530" y="-171.5" font-family="Helvetica,sans-Serif" font-size="10.00">::getValue</text>
</a>
</g>
</g>
<!-- Node505&#45;&gt;Node510 -->
<g id="edge8" class="edge"><title>Node505&#45;&gt;Node510</title>
<path fill="none" stroke="midnightblue" d="M225.977,-465.813C249.869,-427.824 342.584,-287.281 453,-209.5 458.61,-205.548 464.813,-202.019 471.186,-198.893"/>
<polygon fill="midnightblue" stroke="midnightblue" points="472.949,-201.936 480.594,-194.6 470.043,-195.567 472.949,-201.936"/>
</g>
<!-- Node511 -->
<g id="node10" class="node"><title>Node511</title>
<g id="a_node10"><a xlink:href="classds_1_1_iterator_partition_linked.html#a83b887be41c97dc0bdfc47a02abbc383" target="_top" xlink:title="ds::IteratorPartitionLinked\l::next">
<polygon fill="white" stroke="black" points="464.5,-532.5 464.5,-562.5 595.5,-562.5 595.5,-532.5 464.5,-532.5"/>
<text text-anchor="start" x="472.5" y="-550.5" font-family="Helvetica,sans-Serif" font-size="10.00">ds::IteratorPartitionLinked</text>
<text text-anchor="middle" x="530" y="-539.5" font-family="Helvetica,sans-Serif" font-size="10.00">::next</text>
</a>
</g>
</g>
<!-- Node505&#45;&gt;Node511 -->
<g id="edge9" class="edge"><title>Node505&#45;&gt;Node511</title>
<path fill="none" stroke="midnightblue" d="M253.911,-485.038C271.491,-489.876 293.342,-495.722 313,-500.5 359.78,-511.87 412.579,-523.383 454.265,-532.168"/>
<polygon fill="midnightblue" stroke="midnightblue" points="453.562,-535.596 464.068,-534.226 455.001,-528.746 453.562,-535.596"/>
</g>
<!-- Node512 -->
<g id="node11" class="node"><title>Node512</title>
<g id="a_node11"><a xlink:href="namespaceum.html#acbada65717c92ac0a22d2f71c61526d1" target="_top" xlink:title="Radius of Clusterj. ">
<polygon fill="white" stroke="black" points="313,-408 313,-427 417,-427 417,-408 313,-408"/>
<text text-anchor="middle" x="365" y="-415" font-family="Helvetica,sans-Serif" font-size="10.00">um::radiusClusterKj</text>
</a>
</g>
</g>
<!-- Node505&#45;&gt;Node512 -->
<g id="edge10" class="edge"><title>Node505&#45;&gt;Node512</title>
<path fill="none" stroke="midnightblue" d="M243.779,-465.922C267.541,-456.351 304.273,-441.557 330.883,-430.839"/>
<polygon fill="midnightblue" stroke="midnightblue" points="332.218,-434.074 340.186,-427.092 329.602,-427.581 332.218,-434.074"/>
</g>
<!-- Node512&#45;&gt;Node506 -->
<g id="edge11" class="edge"><title>Node512&#45;&gt;Node506</title>
<path fill="none" stroke="midnightblue" d="M378.66,-427.126C395.08,-439.255 424.949,-460.127 453,-473.5 457.661,-475.722 462.57,-477.826 467.558,-479.799"/>
<polygon fill="midnightblue" stroke="midnightblue" points="466.61,-483.181 477.202,-483.429 469.076,-476.63 466.61,-483.181"/>
</g>
<!-- Node512&#45;&gt;Node507 -->
<g id="edge12" class="edge"><title>Node512&#45;&gt;Node507</title>
<path fill="none" stroke="midnightblue" d="M407.977,-427.028C428.999,-431.8 454.651,-437.623 476.919,-442.678"/>
<polygon fill="midnightblue" stroke="midnightblue" points="476.356,-446.139 486.883,-444.94 477.906,-439.313 476.356,-446.139"/>
</g>
<!-- Node512&#45;&gt;Node508 -->
<g id="edge15" class="edge"><title>Node512&#45;&gt;Node508</title>
<path fill="none" stroke="midnightblue" d="M379.676,-407.968C396.656,-396.231 426.608,-375.842 453,-359.5 535.77,-308.248 552.751,-287.008 643,-250.5 743.727,-209.754 772.638,-207.222 880,-190.5 946.456,-180.149 1022.76,-176.028 1078.6,-174.422"/>
<polygon fill="midnightblue" stroke="midnightblue" points="1078.88,-177.916 1088.78,-174.15 1078.69,-170.918 1078.88,-177.916"/>
</g>
<!-- Node512&#45;&gt;Node509 -->
<g id="edge16" class="edge"><title>Node512&#45;&gt;Node509</title>
<path fill="none" stroke="midnightblue" d="M404.824,-407.923C457.092,-397.518 550.084,-388.123 607,-435.5 655.386,-475.777 593.864,-533.142 643,-572.5 784.825,-686.103 1025.76,-631.409 1119.28,-603.954"/>
<polygon fill="midnightblue" stroke="midnightblue" points="1120.33,-607.294 1128.91,-601.071 1118.32,-600.588 1120.33,-607.294"/>
</g>
<!-- Node512&#45;&gt;Node510 -->
<g id="edge14" class="edge"><title>Node512&#45;&gt;Node510</title>
<path fill="none" stroke="midnightblue" d="M369.88,-407.942C386.262,-367.621 449.112,-213.31 453,-209.5 456.766,-205.809 461.041,-202.558 465.597,-199.696"/>
<polygon fill="midnightblue" stroke="midnightblue" points="467.611,-202.581 474.646,-194.66 464.206,-196.465 467.611,-202.581"/>
</g>
<!-- Node512&#45;&gt;Node511 -->
<g id="edge13" class="edge"><title>Node512&#45;&gt;Node511</title>
<path fill="none" stroke="midnightblue" d="M371.41,-427.161C383.406,-447.725 414.27,-496.098 453,-522.5 455.9,-524.477 458.967,-526.307 462.141,-528"/>
<polygon fill="midnightblue" stroke="midnightblue" points="460.789,-531.233 471.318,-532.417 463.825,-524.926 460.789,-531.233"/>
</g>
<!-- Node513 -->
<g id="node12" class="node"><title>Node513</title>
<g id="a_node12"><a xlink:href="namespaceum.html#a659ac7560d0d7b1243dd9ef479e2f80f" target="_top" xlink:title="um::D2">
<polygon fill="white" stroke="black" points="505,-369 505,-388 555,-388 555,-369 505,-369"/>
<text text-anchor="middle" x="530" y="-376" font-family="Helvetica,sans-Serif" font-size="10.00">um::D2</text>
</a>
</g>
</g>
<!-- Node512&#45;&gt;Node513 -->
<g id="edge17" class="edge"><title>Node512&#45;&gt;Node513</title>
<path fill="none" stroke="midnightblue" d="M405.874,-407.96C433.166,-401.43 468.969,-392.863 494.928,-386.652"/>
<polygon fill="midnightblue" stroke="midnightblue" points="495.791,-390.045 504.702,-384.314 494.162,-383.237 495.791,-390.045"/>
</g>
<!-- Node513&#45;&gt;Node504 -->
<g id="edge18" class="edge"><title>Node513&#45;&gt;Node504</title>
<path fill="none" stroke="midnightblue" d="M555.004,-380.204C571.735,-382.643 593.411,-388.501 607,-402.5 647.865,-444.595 605.129,-484.692 643,-529.5 646.125,-533.198 649.949,-536.365 654.082,-539.07"/>
<polygon fill="midnightblue" stroke="midnightblue" points="652.436,-542.159 662.871,-543.99 655.855,-536.051 652.436,-542.159"/>
</g>
<!-- Node513&#45;&gt;Node508 -->
<g id="edge33" class="edge"><title>Node513&#45;&gt;Node508</title>
<path fill="none" stroke="midnightblue" d="M539.859,-368.863C557.577,-350.194 599.43,-309.041 643,-287.5 720.948,-248.961 966.665,-204.864 1088.34,-184.665"/>
<polygon fill="midnightblue" stroke="midnightblue" points="1089,-188.102 1098.3,-183.019 1087.86,-181.196 1089,-188.102"/>
</g>
<!-- Node513&#45;&gt;Node509 -->
<g id="edge34" class="edge"><title>Node513&#45;&gt;Node509</title>
<path fill="none" stroke="midnightblue" d="M555.185,-383.02C570.771,-386.662 591.033,-392.806 607,-402.5 626.342,-414.243 623.707,-426.677 643,-438.5 780.907,-523.007 968.282,-563.23 1074.83,-580.388"/>
<polygon fill="midnightblue" stroke="midnightblue" points="1074.47,-583.873 1084.89,-581.977 1075.56,-576.959 1074.47,-583.873"/>
</g>
<!-- Node514 -->
<g id="node13" class="node"><title>Node514</title>
<g id="a_node13"><a xlink:href="namespaceum.html#afd59ddda70e29cf009ccb0113bf0d668" target="_top" xlink:title="Dintra . ">
<polygon fill="white" stroke="black" points="663.5,-362 663.5,-381 725.5,-381 725.5,-362 663.5,-362"/>
<text text-anchor="middle" x="694.5" y="-369" font-family="Helvetica,sans-Serif" font-size="10.00">um::Dintra</text>
</a>
</g>
</g>
<!-- Node513&#45;&gt;Node514 -->
<g id="edge19" class="edge"><title>Node513&#45;&gt;Node514</title>
<path fill="none" stroke="midnightblue" d="M555.328,-377.452C581.147,-376.34 622.379,-374.564 653.09,-373.241"/>
<polygon fill="midnightblue" stroke="midnightblue" points="653.631,-376.721 663.472,-372.794 653.33,-369.727 653.631,-376.721"/>
</g>
<!-- Node517 -->
<g id="node16" class="node"><title>Node517</title>
<g id="a_node16"><a xlink:href="classpartition_1_1_partition.html#ae8db479b240da90b4058e35ffce182ac" target="_top" xlink:title="partition::Partition\l::getClusterIdx">
<polygon fill="white" stroke="black" points="911.5,-392.5 911.5,-422.5 1004.5,-422.5 1004.5,-392.5 911.5,-392.5"/>
<text text-anchor="start" x="919.5" y="-410.5" font-family="Helvetica,sans-Serif" font-size="10.00">partition::Partition</text>
<text text-anchor="middle" x="958" y="-399.5" font-family="Helvetica,sans-Serif" font-size="10.00">::getClusterIdx</text>
</a>
</g>
</g>
<!-- Node513&#45;&gt;Node517 -->
<g id="edge32" class="edge"><title>Node513&#45;&gt;Node517</title>
<path fill="none" stroke="midnightblue" d="M555.018,-381.218C577.687,-383.749 612.635,-387.563 643,-390.5 704.72,-396.47 720.094,-398.946 782,-402.5 821.737,-404.781 866.612,-406.037 900.971,-406.719"/>
<polygon fill="midnightblue" stroke="midnightblue" points="901.215,-410.224 911.279,-406.913 901.347,-403.226 901.215,-410.224"/>
</g>
<!-- Node513&#45;&gt;Node518 -->
<g id="edge35" class="edge"><title>Node513&#45;&gt;Node518</title>
<path fill="none" stroke="midnightblue" d="M550.666,-368.965C592.331,-349.148 692.982,-303.297 782,-278.5 810.263,-270.627 841.726,-264.598 870.092,-260.13"/>
<polygon fill="midnightblue" stroke="midnightblue" points="870.632,-263.588 879.987,-258.614 869.572,-256.669 870.632,-263.588"/>
</g>
<!-- Node513&#45;&gt;Node519 -->
<g id="edge36" class="edge"><title>Node513&#45;&gt;Node519</title>
<path fill="none" stroke="midnightblue" d="M555.124,-385.182C624.187,-404.312 823.422,-459.5 912.75,-484.243"/>
<polygon fill="midnightblue" stroke="midnightblue" points="912.003,-487.668 922.574,-486.964 913.871,-480.922 912.003,-487.668"/>
</g>
<!-- Node514&#45;&gt;Node509 -->
<g id="edge29" class="edge"><title>Node514&#45;&gt;Node509</title>
<path fill="none" stroke="midnightblue" d="M717.598,-361.834C775.257,-338.226 932.931,-284.169 1036,-349.5 1116.94,-400.804 1146.31,-523.652 1154.94,-571.731"/>
<polygon fill="midnightblue" stroke="midnightblue" points="1151.52,-572.496 1156.63,-581.777 1158.42,-571.335 1151.52,-572.496"/>
</g>
<!-- Node515 -->
<g id="node14" class="node"><title>Node515</title>
<g id="a_node14"><a xlink:href="namespaceum.html#ae447a0558845df2a5f208de33081c167" target="_top" xlink:title="Dinter . ">
<polygon fill="white" stroke="black" points="782,-354 782,-373 844,-373 844,-354 782,-354"/>
<text text-anchor="middle" x="813" y="-361" font-family="Helvetica,sans-Serif" font-size="10.00">um::Dinter</text>
</a>
</g>
</g>
<!-- Node514&#45;&gt;Node515 -->
<g id="edge20" class="edge"><title>Node514&#45;&gt;Node515</title>
<path fill="none" stroke="midnightblue" d="M725.502,-369.44C739.525,-368.477 756.43,-367.316 771.56,-366.277"/>
<polygon fill="midnightblue" stroke="midnightblue" points="771.958,-369.758 781.695,-365.581 771.479,-362.774 771.958,-369.758"/>
</g>
<!-- Node514&#45;&gt;Node517 -->
<g id="edge28" class="edge"><title>Node514&#45;&gt;Node517</title>
<path fill="none" stroke="midnightblue" d="M725.753,-375.665C768.57,-381.559 847.592,-392.438 901.213,-399.82"/>
<polygon fill="midnightblue" stroke="midnightblue" points="900.864,-403.305 911.247,-401.201 901.818,-396.37 900.864,-403.305"/>
</g>
<!-- Node514&#45;&gt;Node518 -->
<g id="edge30" class="edge"><title>Node514&#45;&gt;Node518</title>
<path fill="none" stroke="midnightblue" d="M707.616,-361.97C723.914,-349.418 754.086,-327.113 782,-311.5 823.512,-288.282 834.967,-283.809 880,-268.5 887.333,-266.007 895.161,-263.692 902.912,-261.598"/>
<polygon fill="midnightblue" stroke="midnightblue" points="903.85,-264.971 912.647,-259.066 902.088,-258.196 903.85,-264.971"/>
</g>
<!-- Node514&#45;&gt;Node519 -->
<g id="edge31" class="edge"><title>Node514&#45;&gt;Node519</title>
<path fill="none" stroke="midnightblue" d="M715.585,-381.101C761.409,-403.005 873.846,-456.751 927.534,-482.415"/>
<polygon fill="midnightblue" stroke="midnightblue" points="926.315,-485.711 936.846,-486.866 929.334,-479.396 926.315,-485.711"/>
</g>
<!-- Node515&#45;&gt;Node509 -->
<g id="edge25" class="edge"><title>Node515&#45;&gt;Node509</title>
<path fill="none" stroke="midnightblue" d="M844.009,-357.912C889.394,-351.142 976.498,-344.871 1036,-382.5 1106.89,-427.328 1141.4,-529.327 1153.17,-572.078"/>
<polygon fill="midnightblue" stroke="midnightblue" points="1149.8,-573.04 1155.73,-581.819 1156.57,-571.257 1149.8,-573.04"/>
</g>
<!-- Node516 -->
<g id="node15" class="node"><title>Node516</title>
<g id="a_node15"><a xlink:href="namespaceum.html#a826858480b2fb93f9bd133725866b3d9" target="_top" xlink:title="e1 &#160;">
<polygon fill="white" stroke="black" points="934,-278 934,-297 982,-297 982,-278 934,-278"/>
<text text-anchor="middle" x="958" y="-285" font-family="Helvetica,sans-Serif" font-size="10.00">um::e1</text>
</a>
</g>
</g>
<!-- Node515&#45;&gt;Node516 -->
<g id="edge21" class="edge"><title>Node515&#45;&gt;Node516</title>
<path fill="none" stroke="midnightblue" d="M832.111,-353.875C856.824,-340.74 901.307,-317.099 929.973,-301.864"/>
<polygon fill="midnightblue" stroke="midnightblue" points="931.848,-304.831 939.036,-297.047 928.563,-298.65 931.848,-304.831"/>
</g>
<!-- Node515&#45;&gt;Node517 -->
<g id="edge24" class="edge"><title>Node515&#45;&gt;Node517</title>
<path fill="none" stroke="midnightblue" d="M844.327,-372.831C861.019,-377.967 882.253,-384.501 901.777,-390.508"/>
<polygon fill="midnightblue" stroke="midnightblue" points="900.909,-393.903 911.496,-393.499 902.968,-387.213 900.909,-393.903"/>
</g>
<!-- Node515&#45;&gt;Node518 -->
<g id="edge26" class="edge"><title>Node515&#45;&gt;Node518</title>
<path fill="none" stroke="midnightblue" d="M817.833,-353.968C826.113,-334.648 847.575,-290.815 880,-268.5 882.924,-266.488 886.04,-264.688 889.28,-263.078"/>
<polygon fill="midnightblue" stroke="midnightblue" points="890.883,-266.199 898.681,-259.027 888.113,-259.77 890.883,-266.199"/>
</g>
<!-- Node515&#45;&gt;Node519 -->
<g id="edge27" class="edge"><title>Node515&#45;&gt;Node519</title>
<path fill="none" stroke="midnightblue" d="M822.684,-373.028C835.043,-386.452 858.587,-411.524 880,-431.5 898.672,-448.92 921.085,-467.607 936.902,-480.453"/>
<polygon fill="midnightblue" stroke="midnightblue" points="934.965,-483.387 944.945,-486.943 939.361,-477.939 934.965,-483.387"/>
</g>
<!-- Node516&#45;&gt;Node508 -->
<g id="edge22" class="edge"><title>Node516&#45;&gt;Node508</title>
<path fill="none" stroke="midnightblue" d="M982.101,-284.398C997.865,-281.668 1018.91,-276.795 1036,-268.5 1077.94,-248.147 1119.13,-211.687 1141.28,-190.341"/>
<polygon fill="midnightblue" stroke="midnightblue" points="1143.85,-192.718 1148.54,-183.219 1138.95,-187.72 1143.85,-192.718"/>
</g>
<!-- Node516&#45;&gt;Node509 -->
<g id="edge23" class="edge"><title>Node516&#45;&gt;Node509</title>
<path fill="none" stroke="midnightblue" d="M982.05,-289.586C998.814,-292.21 1021.09,-298.132 1036,-311.5 1117.29,-384.4 1146.74,-521.194 1155.15,-571.92"/>
<polygon fill="midnightblue" stroke="midnightblue" points="1151.71,-572.549 1156.71,-581.887 1158.63,-571.466 1151.71,-572.549"/>
</g>
</g>
</svg>
        <g id="navigator" transform="translate(0 0)" fill="#404254">
                <rect fill="#f2f5e9" fill-opacity="0.5" stroke="#606060" stroke-width=".5" x="0" y="0" width="60" height="60"/>
                <use id="zoomplus" xlink:href="#zoomPlus" x="17" y="9" onmousedown="handleZoom(evt,'in')"/>
                <use id="zoomminus" xlink:href="#zoomMin" x="42" y="9" onmousedown="handleZoom(evt,'out')"/>
                <use id="reset" xlink:href="#resetDef" x="30" y="36" onmousedown="handleReset()"/>
                <g id="arrowUp" xlink:href="#dirArrow" transform="translate(30 24)" onmousedown="handlePan(0,-1)">
                  <use xlink:href="#rim" fill="#404040">
                        <set attributeName="fill" to="#808080" begin="arrowUp.mouseover" end="arrowUp.mouseout"/>
                  </use>
                  <path fill="none" stroke="white" stroke-width="1.5" d="M0,-3.0v7 M-2.5,-0.5L0,-3.0L2.5,-0.5"/>
                </g>
                <g id="arrowRight" xlink:href="#dirArrow" transform="rotate(90) translate(36 -43)" onmousedown="handlePan(1,0)">
                  <use xlink:href="#rim" fill="#404040">
                        <set attributeName="fill" to="#808080" begin="arrowRight.mouseover" end="arrowRight.mouseout"/>
                  </use>
                  <path fill="none" stroke="white" stroke-width="1.5" d="M0,-3.0v7 M-2.5,-0.5L0,-3.0L2.5,-0.5"/>
                </g>
                <g id="arrowDown" xlink:href="#dirArrow" transform="rotate(180) translate(-30 -48)" onmousedown="handlePan(0,1)">
                  <use xlink:href="#rim" fill="#404040">
                        <set attributeName="fill" to="#808080" begin="arrowDown.mouseover" end="arrowDown.mouseout"/>
                  </use>
                  <path fill="none" stroke="white" stroke-width="1.5" d="M0,-3.0v7 M-2.5,-0.5L0,-3.0L2.5,-0.5"/>
                </g>
                <g id="arrowLeft" xlink:href="#dirArrow" transform="rotate(270) translate(-36 17)" onmousedown="handlePan(-1,0)">
                  <use xlink:href="#rim" fill="#404040">
                        <set attributeName="fill" to="#808080" begin="arrowLeft.mouseover" end="arrowLeft.mouseout"/>
                  </use>
                  <path fill="none" stroke="white" stroke-width="1.5" d="M0,-3.0v7 M-2.5,-0.5L0,-3.0L2.5,-0.5"/>
                </g>
        </g>
        <svg viewBox="0 0 15 15" width="100%" height="30px" preserveAspectRatio="xMaxYMin meet">
         <g id="arrow_out" transform="scale(0.3 0.3)">
          <a xlink:href="namespaceum_a4667b7aa0e2926c0f0f94afaa4a0dcf2_cgraph_org.svg" target="_base">
           <rect id="button" ry="5" rx="5" y="6" x="6" height="38" width="38"
                fill="#f2f5e9" fill-opacity="0.5" stroke="#606060" stroke-width="1.0"/>
           <path id="arrow"
             d="M 11.500037,31.436501 C 11.940474,20.09759 22.043105,11.32322 32.158766,21.979434 L 37.068811,17.246167 C 37.068811,17.246167 37.088388,32 37.088388,32 L 22.160133,31.978069 C 22.160133,31.978069 26.997745,27.140456 26.997745,27.140456 C 18.528582,18.264221 13.291696,25.230495 11.500037,31.436501 z"
             style="fill:#404040;"/>
          </a>
         </g>
        </svg>
</svg>
