<?xml version="1.0" encoding="UTF-8" standalone="no"?>
<!DOCTYPE svg PUBLIC "-//W3C//DTD SVG 1.1//EN"
 "http://www.w3.org/Graphics/SVG/1.1/DTD/svg11.dtd">
<!-- Generated by graphviz version 2.38.0 (20140413.2041)
 -->
<!-- Title: sm::precision Pages: 1 -->
<!--zoomable 185 -->
<svg id="main" version="1.1" xmlns="http://www.w3.org/2000/svg" xmlns:xlink="http://www.w3.org/1999/xlink" xml:space="preserve" onload="init(evt)">
<style type="text/css"><![CDATA[
.edge:hover path { stroke: red; }
.edge:hover polygon { stroke: red; fill: red; }
]]></style>
<script type="text/javascript"><![CDATA[
var edges = document.getElementsByTagName('g');
if (edges && edges.length) {
  for (var i=0;i<edges.length;i++) {
    if (edges[i].id.substr(0,4)=='edge') {
      edges[i].setAttribute('class','edge');
    }
  }
}
]]></script>
        <defs>
                <circle id="rim" cx="0" cy="0" r="7"/>
                <circle id="rim2" cx="0" cy="0" r="3.5"/>
                <g id="zoomPlus">
                        <use xlink:href="#rim" fill="#404040">
                                <set attributeName="fill" to="#808080" begin="zoomplus.mouseover" end="zoomplus.mouseout"/>
                        </use>
                        <path d="M-4,0h8M0,-4v8" fill="none" stroke="white" stroke-width="1.5" pointer-events="none"/>
                </g>
                <g id="zoomMin">
                        <use xlink:href="#rim" fill="#404040">
                                <set attributeName="fill" to="#808080" begin="zoomminus.mouseover" end="zoomminus.mouseout"/>
                        </use>
                        <path d="M-4,0h8" fill="none" stroke="white" stroke-width="1.5" pointer-events="none"/>
                </g>
                <g id="dirArrow">
                        <path fill="none" stroke="white" stroke-width="1.5" d="M0,-3.0v7 M-2.5,-0.5L0,-3.0L2.5,-0.5"/>
                </g>
               <g id="resetDef">
                       <use xlink:href="#rim2" fill="#404040">
                               <set attributeName="fill" to="#808080" begin="reset.mouseover" end="reset.mouseout"/>
                       </use>
               </g>
        </defs>

<script type="text/javascript">
var viewWidth = 673;
var viewHeight = 185;
var sectionId = 'dynsection-5';
</script>
<script xlink:href="svgpan.js"/>
<svg id="graph" class="graph">
<g id="viewport">
<title>sm::precision</title>
<polygon fill="white" stroke="none" points="-4,4 -4,-181 669,-181 669,4 -4,4"/>
<!-- Node39 -->
<g id="node1" class="node"><title>Node39</title>
<polygon fill="#bfbfbf" stroke="black" points="0,-124 0,-143 77,-143 77,-124 0,-124"/>
<text text-anchor="middle" x="38.5" y="-131" font-family="Helvetica,sans-Serif" font-size="10.00">sm::precision</text>
</g>
<!-- Node40 -->
<g id="node2" class="node"><title>Node40</title>
<g id="a_node2"><a xlink:href="classsm_1_1_confusion_matching_matrix.html#a41509cbd4bd3f57b64b634eca980dd08" target="_top" xlink:title="sm::ConfusionMatchingMatrix\l::getDiffClassUSomeClusterV">
<polygon fill="white" stroke="black" points="330.5,-146.5 330.5,-176.5 479.5,-176.5 479.5,-146.5 330.5,-146.5"/>
<text text-anchor="start" x="338.5" y="-164.5" font-family="Helvetica,sans-Serif" font-size="10.00">sm::ConfusionMatchingMatrix</text>
<text text-anchor="middle" x="405" y="-153.5" font-family="Helvetica,sans-Serif" font-size="10.00">::getDiffClassUSomeClusterV</text>
</a>
</g>
</g>
<!-- Node39&#45;&gt;Node40 -->
<g id="edge1" class="edge"><title>Node39&#45;&gt;Node40</title>
<path fill="none" stroke="midnightblue" d="M77.1117,-141.714C88.5812,-143.935 101.262,-146.107 113,-147.5 182.414,-155.739 261.691,-159.163 319.951,-160.569"/>
<polygon fill="midnightblue" stroke="midnightblue" points="320.135,-164.074 330.211,-160.801 320.293,-157.076 320.135,-164.074"/>
</g>
<!-- Node41 -->
<g id="node3" class="node"><title>Node41</title>
<g id="a_node3"><a xlink:href="classsm_1_1_confusion_matching_matrix.html#ad1eb28e719bab5566cc56aa2a094ffa1" target="_top" xlink:title="sm::ConfusionMatchingMatrix\l::getSomeClassUSomeClusterV">
<polygon fill="white" stroke="black" points="324,-88.5 324,-118.5 486,-118.5 486,-88.5 324,-88.5"/>
<text text-anchor="start" x="332" y="-106.5" font-family="Helvetica,sans-Serif" font-size="10.00">sm::ConfusionMatchingMatrix</text>
<text text-anchor="middle" x="405" y="-95.5" font-family="Helvetica,sans-Serif" font-size="10.00">::getSomeClassUSomeClusterV</text>
</a>
</g>
</g>
<!-- Node39&#45;&gt;Node41 -->
<g id="edge2" class="edge"><title>Node39&#45;&gt;Node41</title>
<path fill="none" stroke="midnightblue" d="M77.135,-130.402C132.492,-125.846 237.527,-117.201 313.624,-110.938"/>
<polygon fill="midnightblue" stroke="midnightblue" points="314.013,-114.418 323.692,-110.11 313.438,-107.442 314.013,-114.418"/>
</g>
<!-- Node44 -->
<g id="node6" class="node"><title>Node44</title>
<g id="a_node6"><a xlink:href="namespacesm.html#ab9aceb38d5bcf49ab66bea832ab7a5bb" target="_top" xlink:title="sm::recall">
<polygon fill="white" stroke="black" points="113,-67 113,-86 174,-86 174,-67 113,-67"/>
<text text-anchor="middle" x="143.5" y="-74" font-family="Helvetica,sans-Serif" font-size="10.00">sm::recall</text>
</a>
</g>
</g>
<!-- Node39&#45;&gt;Node44 -->
<g id="edge5" class="edge"><title>Node39&#45;&gt;Node44</title>
<path fill="none" stroke="midnightblue" d="M56.9725,-123.831C73.2737,-114.81 97.8076,-101.233 116.424,-90.9302"/>
<polygon fill="midnightblue" stroke="midnightblue" points="118.231,-93.9309 125.285,-86.0265 114.841,-87.8062 118.231,-93.9309"/>
</g>
<!-- Node42 -->
<g id="node4" class="node"><title>Node42</title>
<g id="a_node4"><a xlink:href="classmat_1_1_matrix_base.html#ac500eedd5e203327d3292f8ab22d8f3e" target="_top" xlink:title="mat::MatrixBase\&lt; T\l_INSTANCES_CLUSTER_K\l \&gt;::getNumRows">
<polygon fill="white" stroke="black" points="522,-91 522,-132 665,-132 665,-91 522,-91"/>
<text text-anchor="start" x="530" y="-120" font-family="Helvetica,sans-Serif" font-size="10.00">mat::MatrixBase&lt; T</text>
<text text-anchor="start" x="530" y="-109" font-family="Helvetica,sans-Serif" font-size="10.00">_INSTANCES_CLUSTER_K</text>
<text text-anchor="middle" x="593.5" y="-98" font-family="Helvetica,sans-Serif" font-size="10.00"> &gt;::getNumRows</text>
</a>
</g>
</g>
<!-- Node41&#45;&gt;Node42 -->
<g id="edge3" class="edge"><title>Node41&#45;&gt;Node42</title>
<path fill="none" stroke="midnightblue" d="M486.175,-106.939C494.598,-107.3 503.165,-107.668 511.596,-108.03"/>
<polygon fill="midnightblue" stroke="midnightblue" points="511.652,-111.535 521.793,-108.467 511.952,-104.542 511.652,-111.535"/>
</g>
<!-- Node43 -->
<g id="node5" class="node"><title>Node43</title>
<g id="a_node5"><a xlink:href="classmat_1_1_matrix_base.html#a70200414022ce1479b9ddc16102b12ae" target="_top" xlink:title="mat::MatrixBase\&lt; T\l_INSTANCES_CLUSTER_K\l \&gt;::getNumColumns">
<polygon fill="white" stroke="black" points="522,-31 522,-72 665,-72 665,-31 522,-31"/>
<text text-anchor="start" x="530" y="-60" font-family="Helvetica,sans-Serif" font-size="10.00">mat::MatrixBase&lt; T</text>
<text text-anchor="start" x="530" y="-49" font-family="Helvetica,sans-Serif" font-size="10.00">_INSTANCES_CLUSTER_K</text>
<text text-anchor="middle" x="593.5" y="-38" font-family="Helvetica,sans-Serif" font-size="10.00"> &gt;::getNumColumns</text>
</a>
</g>
</g>
<!-- Node41&#45;&gt;Node43 -->
<g id="edge4" class="edge"><title>Node41&#45;&gt;Node43</title>
<path fill="none" stroke="midnightblue" d="M459.944,-88.4594C476.191,-83.9292 494.388,-78.8557 511.97,-73.9535"/>
<polygon fill="midnightblue" stroke="midnightblue" points="512.965,-77.3095 521.658,-71.2522 511.085,-70.5667 512.965,-77.3095"/>
</g>
<!-- Node44&#45;&gt;Node41 -->
<g id="edge6" class="edge"><title>Node44&#45;&gt;Node41</title>
<path fill="none" stroke="midnightblue" d="M174.015,-79.571C207.881,-83.0946 265.042,-89.0419 313.902,-94.1257"/>
<polygon fill="midnightblue" stroke="midnightblue" points="313.564,-97.6092 323.872,-95.163 314.288,-90.6468 313.564,-97.6092"/>
</g>
<!-- Node45 -->
<g id="node7" class="node"><title>Node45</title>
<g id="a_node7"><a xlink:href="classsm_1_1_confusion_matching_matrix.html#a0702e68751487b010d378e92a90448c6" target="_top" xlink:title="sm::ConfusionMatchingMatrix\l::getSomeClassUDiffClusterV">
<polygon fill="white" stroke="black" points="330.5,-0.5 330.5,-30.5 479.5,-30.5 479.5,-0.5 330.5,-0.5"/>
<text text-anchor="start" x="338.5" y="-18.5" font-family="Helvetica,sans-Serif" font-size="10.00">sm::ConfusionMatchingMatrix</text>
<text text-anchor="middle" x="405" y="-7.5" font-family="Helvetica,sans-Serif" font-size="10.00">::getSomeClassUDiffClusterV</text>
</a>
</g>
</g>
<!-- Node44&#45;&gt;Node45 -->
<g id="edge7" class="edge"><title>Node44&#45;&gt;Node45</title>
<path fill="none" stroke="midnightblue" d="M157.284,-66.9461C169.963,-58.0056 190.295,-45.0706 210,-38.5 244.995,-26.8312 285.272,-20.926 320.026,-17.9932"/>
<polygon fill="midnightblue" stroke="midnightblue" points="320.446,-21.4712 330.146,-17.2089 319.905,-14.4921 320.446,-21.4712"/>
</g>
<!-- Node46 -->
<g id="node8" class="node"><title>Node46</title>
<g id="a_node8"><a xlink:href="namespacesm.html#a96e05db1128bc7c5f6235ef62aec9cf8" target="_top" xlink:title="sm::fmeasure">
<polygon fill="white" stroke="black" points="210,-48 210,-67 288,-67 288,-48 210,-48"/>
<text text-anchor="middle" x="249" y="-55" font-family="Helvetica,sans-Serif" font-size="10.00">sm::fmeasure</text>
</a>
</g>
</g>
<!-- Node44&#45;&gt;Node46 -->
<g id="edge8" class="edge"><title>Node44&#45;&gt;Node46</title>
<path fill="none" stroke="midnightblue" d="M174.159,-71.0554C182.145,-69.5894 190.994,-67.9648 199.713,-66.3644"/>
<polygon fill="midnightblue" stroke="midnightblue" points="200.623,-69.7558 209.827,-64.5076 199.359,-62.8708 200.623,-69.7558"/>
</g>
<!-- Node46&#45;&gt;Node40 -->
<g id="edge9" class="edge"><title>Node46&#45;&gt;Node40</title>
<path fill="none" stroke="midnightblue" d="M258.225,-67.2458C271.031,-81.9264 297.073,-109.868 324,-127.5 332.427,-133.018 341.899,-137.97 351.297,-142.277"/>
<polygon fill="midnightblue" stroke="midnightblue" points="350.066,-145.558 360.63,-146.364 352.874,-139.146 350.066,-145.558"/>
</g>
<!-- Node46&#45;&gt;Node41 -->
<g id="edge11" class="edge"><title>Node46&#45;&gt;Node41</title>
<path fill="none" stroke="midnightblue" d="M281.909,-67.0312C299.863,-72.3941 322.867,-79.2654 344.056,-85.5947"/>
<polygon fill="midnightblue" stroke="midnightblue" points="343.056,-88.9487 353.64,-88.4573 345.06,-82.2416 343.056,-88.9487"/>
</g>
<!-- Node46&#45;&gt;Node45 -->
<g id="edge10" class="edge"><title>Node46&#45;&gt;Node45</title>
<path fill="none" stroke="midnightblue" d="M284.945,-47.9695C300.968,-43.5997 320.495,-38.2741 339.062,-33.2103"/>
<polygon fill="midnightblue" stroke="midnightblue" points="340.228,-36.5203 348.955,-30.5124 338.386,-29.767 340.228,-36.5203"/>
</g>
<!-- Node47 -->
<g id="node9" class="node"><title>Node47</title>
<g id="a_node9"><a xlink:href="namespacesm.html#a3d0a9aeca5eb4257cb56daf6f3b4c15b" target="_top" xlink:title="sm::purity">
<polygon fill="white" stroke="black" points="375.5,-50 375.5,-69 434.5,-69 434.5,-50 375.5,-50"/>
<text text-anchor="middle" x="405" y="-57" font-family="Helvetica,sans-Serif" font-size="10.00">sm::purity</text>
</a>
</g>
</g>
<!-- Node46&#45;&gt;Node47 -->
<g id="edge12" class="edge"><title>Node46&#45;&gt;Node47</title>
<path fill="none" stroke="midnightblue" d="M288.067,-57.9944C311.499,-58.2987 341.458,-58.6878 365.051,-58.9942"/>
<polygon fill="midnightblue" stroke="midnightblue" points="365.02,-62.494 375.065,-59.1242 365.111,-55.4946 365.02,-62.494"/>
</g>
<!-- Node47&#45;&gt;Node42 -->
<g id="edge13" class="edge"><title>Node47&#45;&gt;Node42</title>
<path fill="none" stroke="midnightblue" d="M434.628,-65.8075C449.933,-69.3033 469.063,-73.8703 486,-78.5 496.759,-81.4409 508.07,-84.7298 519.14,-88.061"/>
<polygon fill="midnightblue" stroke="midnightblue" points="518.2,-91.4334 528.786,-90.9916 520.235,-84.7357 518.2,-91.4334"/>
</g>
<!-- Node47&#45;&gt;Node43 -->
<g id="edge14" class="edge"><title>Node47&#45;&gt;Node43</title>
<path fill="none" stroke="midnightblue" d="M434.732,-58.2675C455.389,-57.3814 484.332,-56.1399 511.796,-54.9618"/>
<polygon fill="midnightblue" stroke="midnightblue" points="511.988,-58.4569 521.829,-54.5315 511.688,-51.4633 511.988,-58.4569"/>
</g>
</g>
</svg>
        <g id="navigator" transform="translate(0 0)" fill="#404254">
                <rect fill="#f2f5e9" fill-opacity="0.5" stroke="#606060" stroke-width=".5" x="0" y="0" width="60" height="60"/>
                <use id="zoomplus" xlink:href="#zoomPlus" x="17" y="9" onmousedown="handleZoom(evt,'in')"/>
                <use id="zoomminus" xlink:href="#zoomMin" x="42" y="9" onmousedown="handleZoom(evt,'out')"/>
                <use id="reset" xlink:href="#resetDef" x="30" y="36" onmousedown="handleReset()"/>
                <g id="arrowUp" xlink:href="#dirArrow" transform="translate(30 24)" onmousedown="handlePan(0,-1)">
                  <use xlink:href="#rim" fill="#404040">
                        <set attributeName="fill" to="#808080" begin="arrowUp.mouseover" end="arrowUp.mouseout"/>
                  </use>
                  <path fill="none" stroke="white" stroke-width="1.5" d="M0,-3.0v7 M-2.5,-0.5L0,-3.0L2.5,-0.5"/>
                </g>
                <g id="arrowRight" xlink:href="#dirArrow" transform="rotate(90) translate(36 -43)" onmousedown="handlePan(1,0)">
                  <use xlink:href="#rim" fill="#404040">
                        <set attributeName="fill" to="#808080" begin="arrowRight.mouseover" end="arrowRight.mouseout"/>
                  </use>
                  <path fill="none" stroke="white" stroke-width="1.5" d="M0,-3.0v7 M-2.5,-0.5L0,-3.0L2.5,-0.5"/>
                </g>
                <g id="arrowDown" xlink:href="#dirArrow" transform="rotate(180) translate(-30 -48)" onmousedown="handlePan(0,1)">
                  <use xlink:href="#rim" fill="#404040">
                        <set attributeName="fill" to="#808080" begin="arrowDown.mouseover" end="arrowDown.mouseout"/>
                  </use>
                  <path fill="none" stroke="white" stroke-width="1.5" d="M0,-3.0v7 M-2.5,-0.5L0,-3.0L2.5,-0.5"/>
                </g>
                <g id="arrowLeft" xlink:href="#dirArrow" transform="rotate(270) translate(-36 17)" onmousedown="handlePan(-1,0)">
                  <use xlink:href="#rim" fill="#404040">
                        <set attributeName="fill" to="#808080" begin="arrowLeft.mouseover" end="arrowLeft.mouseout"/>
                  </use>
                  <path fill="none" stroke="white" stroke-width="1.5" d="M0,-3.0v7 M-2.5,-0.5L0,-3.0L2.5,-0.5"/>
                </g>
        </g>
        <svg viewBox="0 0 15 15" width="100%" height="30px" preserveAspectRatio="xMaxYMin meet">
         <g id="arrow_out" transform="scale(0.3 0.3)">
          <a xlink:href="namespacesm_a410610e7f4104e3b0a89add285a21b47_cgraph_org.svg" target="_base">
           <rect id="button" ry="5" rx="5" y="6" x="6" height="38" width="38"
                fill="#f2f5e9" fill-opacity="0.5" stroke="#606060" stroke-width="1.0"/>
           <path id="arrow"
             d="M 11.500037,31.436501 C 11.940474,20.09759 22.043105,11.32322 32.158766,21.979434 L 37.068811,17.246167 C 37.068811,17.246167 37.088388,32 37.088388,32 L 22.160133,31.978069 C 22.160133,31.978069 26.997745,27.140456 26.997745,27.140456 C 18.528582,18.264221 13.291696,25.230495 11.500037,31.436501 z"
             style="fill:#404040;"/>
          </a>
         </g>
        </svg>
</svg>
