<?xml version="1.0" encoding="UTF-8" standalone="no"?>
<!DOCTYPE svg PUBLIC "-//W3C//DTD SVG 1.1//EN"
 "http://www.w3.org/Graphics/SVG/1.1/DTD/svg11.dtd">
<!-- Generated by graphviz version 2.38.0 (20140413.2041)
 -->
<!-- Title: nearest::farthestInstanceFromS1 Pages: 1 -->
<svg width="907pt" height="228pt"
 viewBox="0.00 0.00 907.00 228.00" xmlns="http://www.w3.org/2000/svg" xmlns:xlink="http://www.w3.org/1999/xlink">
<g id="graph0" class="graph" transform="scale(1 1) rotate(0) translate(4 224)">
<title>nearest::farthestInstanceFromS1</title>
<polygon fill="white" stroke="none" points="-4,4 -4,-224 903,-224 903,4 -4,4"/>
<!-- Node21 -->
<g id="node1" class="node"><title>Node21</title>
<polygon fill="#bfbfbf" stroke="black" points="0,-138 0,-168 126,-168 126,-138 0,-138"/>
<text text-anchor="start" x="8" y="-156" font-family="Helvetica,sans-Serif" font-size="10.00">nearest::farthestInstance</text>
<text text-anchor="middle" x="63" y="-145" font-family="Helvetica,sans-Serif" font-size="10.00">FromS1</text>
</g>
<!-- Node22 -->
<g id="node2" class="node"><title>Node22</title>
<g id="a_node2"><a xlink:href="classdata_1_1_instance.html#a90d1eaeb66cc1470bbfdb95434fdb761" target="_top" xlink:title="data::Instance::getNumDimensions">
<polygon fill="white" stroke="black" points="162,-162.5 162,-181.5 336,-181.5 336,-162.5 162,-162.5"/>
<text text-anchor="middle" x="249" y="-169.5" font-family="Helvetica,sans-Serif" font-size="10.00">data::Instance::getNumDimensions</text>
</a>
</g>
</g>
<!-- Node21&#45;&gt;Node22 -->
<g id="edge1" class="edge"><title>Node21&#45;&gt;Node22</title>
<path fill="none" stroke="midnightblue" d="M126.037,-159.406C134.286,-160.258 142.895,-161.147 151.557,-162.041"/>
<polygon fill="midnightblue" stroke="midnightblue" points="151.425,-165.546 161.732,-163.092 152.144,-158.583 151.425,-165.546"/>
</g>
<!-- Node23 -->
<g id="node3" class="node"><title>Node23</title>
<g id="a_node3"><a xlink:href="namespacenearest.html#a8b0d89680acfe7ef438ae465bd633fb1" target="_top" xlink:title="NN Find the centroid closest to an instance. ">
<polygon fill="white" stroke="black" points="214,-124.5 214,-143.5 284,-143.5 284,-124.5 214,-124.5"/>
<text text-anchor="middle" x="249" y="-131.5" font-family="Helvetica,sans-Serif" font-size="10.00">nearest::NN</text>
</a>
</g>
</g>
<!-- Node21&#45;&gt;Node23 -->
<g id="edge2" class="edge"><title>Node21&#45;&gt;Node23</title>
<path fill="none" stroke="midnightblue" d="M126.037,-146.594C151.461,-143.969 180.311,-140.99 203.567,-138.588"/>
<polygon fill="midnightblue" stroke="midnightblue" points="204.238,-142.038 213.826,-137.529 203.519,-135.075 204.238,-142.038"/>
</g>
<!-- Node24 -->
<g id="node4" class="node"><title>Node24</title>
<g id="a_node4"><a xlink:href="classmat_1_1_matrix_row.html#a5391a205367fbaac82a26ddc377a80af" target="_top" xlink:title="mat::MatrixRow::getRow">
<polygon fill="white" stroke="black" points="387,-200.5 387,-219.5 514,-219.5 514,-200.5 387,-200.5"/>
<text text-anchor="middle" x="450.5" y="-207.5" font-family="Helvetica,sans-Serif" font-size="10.00">mat::MatrixRow::getRow</text>
</a>
</g>
</g>
<!-- Node23&#45;&gt;Node24 -->
<g id="edge3" class="edge"><title>Node23&#45;&gt;Node24</title>
<path fill="none" stroke="midnightblue" d="M284.075,-137.352C300.471,-139.986 319.993,-144.673 336,-153 355.255,-163.017 353.176,-175.194 372,-186 379.722,-190.433 388.355,-194.14 396.979,-197.209"/>
<polygon fill="midnightblue" stroke="midnightblue" points="396.07,-200.594 406.663,-200.408 398.266,-193.948 396.07,-200.594"/>
</g>
<!-- Node25 -->
<g id="node5" class="node"><title>Node25</title>
<g id="a_node5"><a xlink:href="classmat_1_1_matrix_base.html#a70200414022ce1479b9ddc16102b12ae" target="_top" xlink:title="mat::MatrixBase::getNumColumns">
<polygon fill="white" stroke="black" points="565,-164.5 565,-183.5 735,-183.5 735,-164.5 565,-164.5"/>
<text text-anchor="middle" x="650" y="-171.5" font-family="Helvetica,sans-Serif" font-size="10.00">mat::MatrixBase::getNumColumns</text>
</a>
</g>
</g>
<!-- Node23&#45;&gt;Node25 -->
<g id="edge4" class="edge"><title>Node23&#45;&gt;Node25</title>
<path fill="none" stroke="midnightblue" d="M284.148,-138.498C308.59,-141.645 342.292,-145.834 372,-149 432.781,-155.478 501.184,-161.662 554.809,-166.259"/>
<polygon fill="midnightblue" stroke="midnightblue" points="554.725,-169.765 564.987,-167.128 555.321,-162.79 554.725,-169.765"/>
</g>
<!-- Node26 -->
<g id="node6" class="node"><title>Node26</title>
<g id="a_node6"><a xlink:href="classmat_1_1_matrix_base.html#ac500eedd5e203327d3292f8ab22d8f3e" target="_top" xlink:title="mat::MatrixBase::getNumRows">
<polygon fill="white" stroke="black" points="572,-126.5 572,-145.5 728,-145.5 728,-126.5 572,-126.5"/>
<text text-anchor="middle" x="650" y="-133.5" font-family="Helvetica,sans-Serif" font-size="10.00">mat::MatrixBase::getNumRows</text>
</a>
</g>
</g>
<!-- Node23&#45;&gt;Node26 -->
<g id="edge5" class="edge"><title>Node23&#45;&gt;Node26</title>
<path fill="none" stroke="midnightblue" d="M284.019,-134.171C344.928,-134.476 474.378,-135.125 561.564,-135.562"/>
<polygon fill="midnightblue" stroke="midnightblue" points="561.697,-139.062 571.714,-135.613 561.732,-132.062 561.697,-139.062"/>
</g>
<!-- Node27 -->
<g id="node7" class="node"><title>Node27</title>
<g id="a_node7"><a xlink:href="namespacenearest.html#a9508313369f30f2f3334215bcc46b0cd" target="_top" xlink:title="Find the centroid closest to an instance and check null centroids. ">
<polygon fill="white" stroke="black" points="372,-83.5 372,-102.5 529,-102.5 529,-83.5 372,-83.5"/>
<text text-anchor="middle" x="450.5" y="-90.5" font-family="Helvetica,sans-Serif" font-size="10.00">nearest::checkNullCentroidsNN</text>
</a>
</g>
</g>
<!-- Node23&#45;&gt;Node27 -->
<g id="edge6" class="edge"><title>Node23&#45;&gt;Node27</title>
<path fill="none" stroke="midnightblue" d="M284.295,-126.952C314.106,-120.825 357.881,-111.829 392.881,-104.636"/>
<polygon fill="midnightblue" stroke="midnightblue" points="393.877,-108.004 402.968,-102.563 392.468,-101.148 393.877,-108.004"/>
</g>
<!-- Node27&#45;&gt;Node25 -->
<g id="edge7" class="edge"><title>Node27&#45;&gt;Node25</title>
<path fill="none" stroke="midnightblue" d="M465.924,-102.598C486.892,-116.143 527.402,-140.796 565,-155 571.827,-157.579 579.105,-159.866 586.413,-161.877"/>
<polygon fill="midnightblue" stroke="midnightblue" points="585.8,-165.334 596.358,-164.451 587.554,-158.557 585.8,-165.334"/>
</g>
<!-- Node27&#45;&gt;Node26 -->
<g id="edge8" class="edge"><title>Node27&#45;&gt;Node26</title>
<path fill="none" stroke="midnightblue" d="M495.332,-102.543C524.865,-108.973 564.006,-117.495 595.394,-124.329"/>
<polygon fill="midnightblue" stroke="midnightblue" points="594.775,-127.776 605.291,-126.484 596.264,-120.936 594.775,-127.776"/>
</g>
<!-- Node28 -->
<g id="node8" class="node"><title>Node28</title>
<g id="a_node8"><a xlink:href="classmat_1_1_matrix_base.html#ae3b1c4b8e9cb7e7685d7bc129f875dcd" target="_top" xlink:title="mat::MatrixBase::getRow">
<polygon fill="white" stroke="black" points="584.5,-38.5 584.5,-57.5 715.5,-57.5 715.5,-38.5 584.5,-38.5"/>
<text text-anchor="middle" x="650" y="-45.5" font-family="Helvetica,sans-Serif" font-size="10.00">mat::MatrixBase::getRow</text>
</a>
</g>
</g>
<!-- Node27&#45;&gt;Node28 -->
<g id="edge9" class="edge"><title>Node27&#45;&gt;Node28</title>
<path fill="none" stroke="midnightblue" d="M493.003,-83.464C514.489,-78.5345 541.15,-72.4291 565,-67 575.275,-64.6612 586.258,-62.1701 596.782,-59.7878"/>
<polygon fill="midnightblue" stroke="midnightblue" points="597.712,-63.1661 606.693,-57.5457 596.167,-56.3386 597.712,-63.1661"/>
</g>
<!-- Node29 -->
<g id="node9" class="node"><title>Node29</title>
<g id="a_node9"><a xlink:href="classdata_1_1_instance.html#abd8d5a6a290d0783a57931dcce0a871d" target="_top" xlink:title="data::Instance::isInfinite\lFeature">
<polygon fill="white" stroke="black" points="589,-77 589,-107 711,-107 711,-77 589,-77"/>
<text text-anchor="start" x="597" y="-95" font-family="Helvetica,sans-Serif" font-size="10.00">data::Instance::isInfinite</text>
<text text-anchor="middle" x="650" y="-84" font-family="Helvetica,sans-Serif" font-size="10.00">Feature</text>
</a>
</g>
</g>
<!-- Node27&#45;&gt;Node29 -->
<g id="edge10" class="edge"><title>Node27&#45;&gt;Node29</title>
<path fill="none" stroke="midnightblue" d="M529.274,-92.6062C545.478,-92.5242 562.473,-92.4381 578.401,-92.3575"/>
<polygon fill="midnightblue" stroke="midnightblue" points="578.713,-95.856 588.695,-92.3053 578.677,-88.8561 578.713,-95.856"/>
</g>
<!-- Node31 -->
<g id="node11" class="node"><title>Node31</title>
<g id="a_node11"><a xlink:href="namespacenearest.html#a3c4239101cf18ab4ca62e654a4179995" target="_top" xlink:title="nearest::medoidsNN">
<polygon fill="white" stroke="black" points="595,-0.5 595,-19.5 705,-19.5 705,-0.5 595,-0.5"/>
<text text-anchor="middle" x="650" y="-7.5" font-family="Helvetica,sans-Serif" font-size="10.00">nearest::medoidsNN</text>
</a>
</g>
</g>
<!-- Node27&#45;&gt;Node31 -->
<g id="edge12" class="edge"><title>Node27&#45;&gt;Node31</title>
<path fill="none" stroke="midnightblue" d="M467.07,-83.471C493.248,-67.579 545.159,-36.6487 565,-29 571.714,-26.4118 578.872,-24.1253 586.07,-22.1184"/>
<polygon fill="midnightblue" stroke="midnightblue" points="587.085,-25.4709 595.873,-19.5531 585.312,-18.699 587.085,-25.4709"/>
</g>
<!-- Node30 -->
<g id="node10" class="node"><title>Node30</title>
<g id="a_node10"><a xlink:href="classdata_1_1_instance.html#a02d828c30db46d999f1830ea7b4d9c74" target="_top" xlink:title="data::Instance::getInfinite\lFeature">
<polygon fill="white" stroke="black" points="771,-77 771,-107 899,-107 899,-77 771,-77"/>
<text text-anchor="start" x="779" y="-95" font-family="Helvetica,sans-Serif" font-size="10.00">data::Instance::getInfinite</text>
<text text-anchor="middle" x="835" y="-84" font-family="Helvetica,sans-Serif" font-size="10.00">Feature</text>
</a>
</g>
</g>
<!-- Node29&#45;&gt;Node30 -->
<g id="edge11" class="edge"><title>Node29&#45;&gt;Node30</title>
<path fill="none" stroke="midnightblue" d="M711.175,-92C727.048,-92 744.352,-92 760.829,-92"/>
<polygon fill="midnightblue" stroke="midnightblue" points="760.962,-95.5001 770.962,-92 760.962,-88.5001 760.962,-95.5001"/>
</g>
<!-- Node31&#45;&gt;Node23 -->
<g id="edge13" class="edge"><title>Node31&#45;&gt;Node23</title>
<path fill="none" stroke="midnightblue" d="M606.685,-19.5137C593.344,-22.5288 578.552,-25.8874 565,-29 479.156,-48.7159 454.946,-44.3723 372,-74 337.267,-86.4064 299.482,-106.021 275.311,-119.423"/>
<polygon fill="midnightblue" stroke="midnightblue" points="273.451,-116.453 266.444,-124.4 276.877,-122.557 273.451,-116.453"/>
</g>
</g>
</svg>
