<?xml version="1.0" encoding="UTF-8" standalone="no"?>
<!DOCTYPE svg PUBLIC "-//W3C//DTD SVG 1.1//EN"
 "http://www.w3.org/Graphics/SVG/1.1/DTD/svg11.dtd">
<!-- Generated by graphviz version 2.38.0 (20140413.2041)
 -->
<!-- Title: um::WBIndex Pages: 1 -->
<!--zoomable 470 -->
<svg id="main" version="1.1" xmlns="http://www.w3.org/2000/svg" xmlns:xlink="http://www.w3.org/1999/xlink" xml:space="preserve" onload="init(evt)">
<style type="text/css"><![CDATA[
.edge:hover path { stroke: red; }
.edge:hover polygon { stroke: red; fill: red; }
]]></style>
<script type="text/javascript"><![CDATA[
var edges = document.getElementsByTagName('g');
if (edges && edges.length) {
  for (var i=0;i<edges.length;i++) {
    if (edges[i].id.substr(0,4)=='edge') {
      edges[i].setAttribute('class','edge');
    }
  }
}
]]></script>
        <defs>
                <circle id="rim" cx="0" cy="0" r="7"/>
                <circle id="rim2" cx="0" cy="0" r="3.5"/>
                <g id="zoomPlus">
                        <use xlink:href="#rim" fill="#404040">
                                <set attributeName="fill" to="#808080" begin="zoomplus.mouseover" end="zoomplus.mouseout"/>
                        </use>
                        <path d="M-4,0h8M0,-4v8" fill="none" stroke="white" stroke-width="1.5" pointer-events="none"/>
                </g>
                <g id="zoomMin">
                        <use xlink:href="#rim" fill="#404040">
                                <set attributeName="fill" to="#808080" begin="zoomminus.mouseover" end="zoomminus.mouseout"/>
                        </use>
                        <path d="M-4,0h8" fill="none" stroke="white" stroke-width="1.5" pointer-events="none"/>
                </g>
                <g id="dirArrow">
                        <path fill="none" stroke="white" stroke-width="1.5" d="M0,-3.0v7 M-2.5,-0.5L0,-3.0L2.5,-0.5"/>
                </g>
               <g id="resetDef">
                       <use xlink:href="#rim2" fill="#404040">
                               <set attributeName="fill" to="#808080" begin="reset.mouseover" end="reset.mouseout"/>
                       </use>
               </g>
        </defs>

<script type="text/javascript">
var viewWidth = 453;
var viewHeight = 470;
var sectionId = 'dynsection-46';
</script>
<script xlink:href="svgpan.js"/>
<svg id="graph" class="graph">
<g id="viewport">
<title>um::WBIndex</title>
<polygon fill="white" stroke="none" points="-4,4 -4,-466 449,-466 449,4 -4,4"/>
<!-- Node399 -->
<g id="node1" class="node"><title>Node399</title>
<g id="a_node1"><a xlink:title=" ">
<polygon fill="#bfbfbf" stroke="black" points="0,-152.5 0,-171.5 77,-171.5 77,-152.5 0,-152.5"/>
<text text-anchor="middle" x="38.5" y="-159.5" font-family="Helvetica,sans-Serif" font-size="10.00">um::WBIndex</text>
</a>
</g>
</g>
<!-- Node400 -->
<g id="node2" class="node"><title>Node400</title>
<g id="a_node2"><a xlink:href="classdata_1_1_instance.html#a90d1eaeb66cc1470bbfdb95434fdb761" target="_top" xlink:title=" ">
<polygon fill="white" stroke="black" points="271,-152.5 271,-171.5 445,-171.5 445,-152.5 271,-152.5"/>
<text text-anchor="middle" x="358" y="-159.5" font-family="Helvetica,sans-Serif" font-size="10.00">data::Instance::getNumDimensions</text>
</a>
</g>
</g>
<!-- Node399&#45;&gt;Node400 -->
<g id="edge1" class="edge"><title>Node399&#45;&gt;Node400</title>
<path fill="none" stroke="midnightblue" d="M77.1682,-162C122.059,-162 198.752,-162 260.509,-162"/>
<polygon fill="midnightblue" stroke="midnightblue" points="260.676,-165.5 270.676,-162 260.676,-158.5 260.676,-165.5"/>
</g>
<!-- Node401 -->
<g id="node3" class="node"><title>Node401</title>
<g id="a_node3"><a xlink:href="classmat_1_1_matrix_base.html#ac500eedd5e203327d3292f8ab22d8f3e" target="_top" xlink:title=" ">
<polygon fill="white" stroke="black" points="280,-366.5 280,-385.5 436,-385.5 436,-366.5 280,-366.5"/>
<text text-anchor="middle" x="358" y="-373.5" font-family="Helvetica,sans-Serif" font-size="10.00">mat::MatrixBase::getNumRows</text>
</a>
</g>
</g>
<!-- Node399&#45;&gt;Node401 -->
<g id="edge2" class="edge"><title>Node399&#45;&gt;Node401</title>
<path fill="none" stroke="midnightblue" d="M47.4928,-171.816C74.7501,-204.526 168.087,-310.378 271,-357 276.443,-359.466 282.228,-361.621 288.124,-363.504"/>
<polygon fill="midnightblue" stroke="midnightblue" points="287.53,-366.977 298.11,-366.422 289.493,-360.258 287.53,-366.977"/>
</g>
<!-- Node402 -->
<g id="node4" class="node"><title>Node402</title>
<g id="a_node4"><a xlink:href="namespacestats.html#a61ea16e97e098fc1598f4a2975cb0a24" target="_top" xlink:title="￼Calculate average of a vector">
<polygon fill="white" stroke="black" points="125,-76.5 125,-95.5 223,-95.5 223,-76.5 125,-76.5"/>
<text text-anchor="middle" x="174" y="-83.5" font-family="Helvetica,sans-Serif" font-size="10.00">stats::meanVector</text>
</a>
</g>
</g>
<!-- Node399&#45;&gt;Node402 -->
<g id="edge3" class="edge"><title>Node399&#45;&gt;Node402</title>
<path fill="none" stroke="midnightblue" d="M49.6339,-152.22C63.1053,-139.695 88.1188,-118.053 113,-105 117.194,-102.8 121.688,-100.8 126.259,-98.9958"/>
<polygon fill="midnightblue" stroke="midnightblue" points="127.483,-102.275 135.682,-95.5655 125.088,-95.6975 127.483,-102.275"/>
</g>
<!-- Node406 -->
<g id="node8" class="node"><title>Node406</title>
<g id="a_node8"><a xlink:href="namespaceum.html#a3d80a7d08b3df236552d73f457543a36" target="_top" xlink:title="The overall between&#45;cluster variance ssb.">
<polygon fill="white" stroke="black" points="148,-385.5 148,-404.5 200,-404.5 200,-385.5 148,-385.5"/>
<text text-anchor="middle" x="174" y="-392.5" font-family="Helvetica,sans-Serif" font-size="10.00">um::ssb</text>
</a>
</g>
</g>
<!-- Node399&#45;&gt;Node406 -->
<g id="edge7" class="edge"><title>Node399&#45;&gt;Node406</title>
<path fill="none" stroke="midnightblue" d="M43.0253,-171.742C52.4675,-197.274 79.8744,-267.828 113,-321 125.867,-341.654 143.762,-363.009 156.656,-377.438"/>
<polygon fill="midnightblue" stroke="midnightblue" points="154.279,-380.027 163.593,-385.075 159.46,-375.32 154.279,-380.027"/>
</g>
<!-- Node409 -->
<g id="node11" class="node"><title>Node409</title>
<g id="a_node11"><a xlink:href="namespaceinterfacesse.html#a25f6950d589b92fd5bcf2007fb3fae19" target="_top" xlink:title=" ">
<polygon fill="white" stroke="black" points="126,-38.5 126,-57.5 222,-57.5 222,-38.5 126,-38.5"/>
<text text-anchor="middle" x="174" y="-45.5" font-family="Helvetica,sans-Serif" font-size="10.00">interfacesse::sum</text>
</a>
</g>
</g>
<!-- Node399&#45;&gt;Node409 -->
<g id="edge11" class="edge"><title>Node399&#45;&gt;Node409</title>
<path fill="none" stroke="midnightblue" d="M44.3516,-152.354C54.4649,-133.214 79.6585,-90.2778 113,-67 115.864,-65.0004 118.949,-63.2039 122.154,-61.591"/>
<polygon fill="midnightblue" stroke="midnightblue" points="123.678,-64.7444 131.423,-57.5153 120.86,-58.3365 123.678,-64.7444"/>
</g>
<!-- Node410 -->
<g id="node12" class="node"><title>Node410</title>
<g id="a_node12"><a xlink:href="namespaceum.html#aaccb7dacc3cb2d8cd7349517387c6dfb" target="_top" xlink:title="Computes the overall between&#45;cluster variance &#160;and the number of instances in each cluster.">
<polygon fill="white" stroke="black" points="113,-212.5 113,-231.5 235,-231.5 235,-212.5 113,-212.5"/>
<text text-anchor="middle" x="174" y="-219.5" font-family="Helvetica,sans-Serif" font-size="10.00">um::sumDistInstCentInK</text>
</a>
</g>
</g>
<!-- Node399&#45;&gt;Node410 -->
<g id="edge12" class="edge"><title>Node399&#45;&gt;Node410</title>
<path fill="none" stroke="midnightblue" d="M60.6535,-171.507C82.5918,-181.367 117.117,-196.884 142.107,-208.116"/>
<polygon fill="midnightblue" stroke="midnightblue" points="140.947,-211.432 151.503,-212.339 143.817,-205.047 140.947,-211.432"/>
</g>
<!-- Node415 -->
<g id="node17" class="node"><title>Node415</title>
<g id="a_node17"><a xlink:href="namespacestats.html#a706b4964413c76c4c7d34ab17985e9e4" target="_top" xlink:title="Add the instances by attributes.">
<polygon fill="white" stroke="black" points="120.5,-114.5 120.5,-133.5 227.5,-133.5 227.5,-114.5 120.5,-114.5"/>
<text text-anchor="middle" x="174" y="-121.5" font-family="Helvetica,sans-Serif" font-size="10.00">stats::sumFeactures</text>
</a>
</g>
</g>
<!-- Node399&#45;&gt;Node415 -->
<g id="edge20" class="edge"><title>Node399&#45;&gt;Node415</title>
<path fill="none" stroke="midnightblue" d="M73.1877,-152.411C90.2632,-147.551 111.2,-141.591 129.482,-136.387"/>
<polygon fill="midnightblue" stroke="midnightblue" points="130.663,-139.69 139.323,-133.586 128.747,-132.957 130.663,-139.69"/>
</g>
<!-- Node403 -->
<g id="node5" class="node"><title>Node403</title>
<g id="a_node5"><a xlink:href="namespaceinterfacesse.html#ae3f94c42a59db65b2941dbfc9f449ea1" target="_top" xlink:title="function xAXPY of blas for doubles vectors">
<polygon fill="white" stroke="black" points="302,-0.5 302,-19.5 414,-19.5 414,-0.5 302,-0.5"/>
<text text-anchor="middle" x="358" y="-7.5" font-family="Helvetica,sans-Serif" font-size="10.00">interfacesse::axpyInv</text>
</a>
</g>
</g>
<!-- Node402&#45;&gt;Node403 -->
<g id="edge4" class="edge"><title>Node402&#45;&gt;Node403</title>
<path fill="none" stroke="midnightblue" d="M214.992,-76.4631C221.94,-73.9449 228.888,-70.8279 235,-67 254.717,-54.6512 250.752,-40.4571 271,-29 277.496,-25.3243 284.641,-22.3596 291.952,-19.9683"/>
<polygon fill="midnightblue" stroke="midnightblue" points="293.356,-23.2052 301.979,-17.05 291.399,-16.4841 293.356,-23.2052"/>
</g>
<!-- Node404 -->
<g id="node6" class="node"><title>Node404</title>
<g id="a_node6"><a xlink:href="namespaceinout.html#a0c10a45877a347dec0d4ec4e5b05b828" target="_top" xlink:title=" ">
<polygon fill="white" stroke="black" points="306.5,-76.5 306.5,-95.5 409.5,-95.5 409.5,-76.5 306.5,-76.5"/>
<text text-anchor="middle" x="358" y="-83.5" font-family="Helvetica,sans-Serif" font-size="10.00">inout::containerprint</text>
</a>
</g>
</g>
<!-- Node402&#45;&gt;Node404 -->
<g id="edge5" class="edge"><title>Node402&#45;&gt;Node404</title>
<path fill="none" stroke="midnightblue" d="M223.295,-86C245.586,-86 272.299,-86 295.968,-86"/>
<polygon fill="midnightblue" stroke="midnightblue" points="296.251,-89.5001 306.251,-86 296.251,-82.5001 296.251,-89.5001"/>
</g>
<!-- Node405 -->
<g id="node7" class="node"><title>Node405</title>
<g id="a_node7"><a xlink:href="namespaceinterfacesse.html#aa4b94bf2bf8cb7c437fa3feba8b70ff8" target="_top" xlink:title="Initializes the array with a constant .">
<polygon fill="white" stroke="black" points="305.5,-38.5 305.5,-57.5 410.5,-57.5 410.5,-38.5 305.5,-38.5"/>
<text text-anchor="middle" x="358" y="-45.5" font-family="Helvetica,sans-Serif" font-size="10.00">interfacesse::copya</text>
</a>
</g>
</g>
<!-- Node402&#45;&gt;Node405 -->
<g id="edge6" class="edge"><title>Node402&#45;&gt;Node405</title>
<path fill="none" stroke="midnightblue" d="M220.926,-76.411C245.376,-71.3061 275.633,-64.9887 301.403,-59.6082"/>
<polygon fill="midnightblue" stroke="midnightblue" points="302.33,-62.9901 311.404,-57.5201 300.9,-56.1378 302.33,-62.9901"/>
</g>
<!-- Node406&#45;&gt;Node401 -->
<g id="edge9" class="edge"><title>Node406&#45;&gt;Node401</title>
<path fill="none" stroke="midnightblue" d="M200.306,-392.358C218.586,-390.45 244.44,-387.751 269.887,-385.094"/>
<polygon fill="midnightblue" stroke="midnightblue" points="270.398,-388.56 279.981,-384.04 269.671,-381.598 270.398,-388.56"/>
</g>
<!-- Node407 -->
<g id="node9" class="node"><title>Node407</title>
<g id="a_node9"><a xlink:href="classmat_1_1_matrix_base.html#a70200414022ce1479b9ddc16102b12ae" target="_top" xlink:title=" ">
<polygon fill="white" stroke="black" points="273,-442.5 273,-461.5 443,-461.5 443,-442.5 273,-442.5"/>
<text text-anchor="middle" x="358" y="-449.5" font-family="Helvetica,sans-Serif" font-size="10.00">mat::MatrixBase::getNumColumns</text>
</a>
</g>
</g>
<!-- Node406&#45;&gt;Node407 -->
<g id="edge8" class="edge"><title>Node406&#45;&gt;Node407</title>
<path fill="none" stroke="midnightblue" d="M196.381,-404.604C215.608,-412.965 244.777,-424.969 271,-433 279.498,-435.602 288.571,-438.003 297.519,-440.158"/>
<polygon fill="midnightblue" stroke="midnightblue" points="296.998,-443.631 307.531,-442.486 298.584,-436.812 296.998,-443.631"/>
</g>
<!-- Node408 -->
<g id="node10" class="node"><title>Node408</title>
<g id="a_node10"><a xlink:href="classmat_1_1_matrix_row.html#a5391a205367fbaac82a26ddc377a80af" target="_top" xlink:title=" ">
<polygon fill="white" stroke="black" points="294.5,-404.5 294.5,-423.5 421.5,-423.5 421.5,-404.5 294.5,-404.5"/>
<text text-anchor="middle" x="358" y="-411.5" font-family="Helvetica,sans-Serif" font-size="10.00">mat::MatrixRow::getRow</text>
</a>
</g>
</g>
<!-- Node406&#45;&gt;Node408 -->
<g id="edge10" class="edge"><title>Node406&#45;&gt;Node408</title>
<path fill="none" stroke="midnightblue" d="M200.306,-397.642C222.069,-399.914 254.565,-403.306 284.332,-406.414"/>
<polygon fill="midnightblue" stroke="midnightblue" points="283.993,-409.897 294.302,-407.455 284.72,-402.935 283.993,-409.897"/>
</g>
<!-- Node410&#45;&gt;Node400 -->
<g id="edge16" class="edge"><title>Node410&#45;&gt;Node400</title>
<path fill="none" stroke="midnightblue" d="M194.447,-212.422C213.557,-203.317 243.735,-189.75 271,-181 279.058,-178.414 287.651,-176.058 296.171,-173.954"/>
<polygon fill="midnightblue" stroke="midnightblue" points="297.18,-177.312 306.104,-171.6 295.566,-170.501 297.18,-177.312"/>
</g>
<!-- Node410&#45;&gt;Node401 -->
<g id="edge17" class="edge"><title>Node410&#45;&gt;Node401</title>
<path fill="none" stroke="midnightblue" d="M184.169,-231.632C196.515,-244.86 218.798,-269.671 235,-293 253.616,-319.806 244.783,-337.565 271,-357 273.499,-358.852 276.144,-360.531 278.896,-362.05"/>
<polygon fill="midnightblue" stroke="midnightblue" points="277.467,-365.246 288,-366.384 280.475,-358.926 277.467,-365.246"/>
</g>
<!-- Node410&#45;&gt;Node404 -->
<g id="edge14" class="edge"><title>Node410&#45;&gt;Node404</title>
<path fill="none" stroke="midnightblue" d="M182.336,-212.343C202.718,-185.62 259.3,-112.182 271,-105 278.752,-100.242 287.544,-96.6687 296.475,-93.9872"/>
<polygon fill="midnightblue" stroke="midnightblue" points="297.41,-97.3605 306.178,-91.4136 295.615,-90.5944 297.41,-97.3605"/>
</g>
<!-- Node411 -->
<g id="node13" class="node"><title>Node411</title>
<g id="a_node13"><a xlink:href="classpartition_1_1_partition.html#acb8de7c890e05872858fb7a7aa53b657" target="_top" xlink:title=" ">
<polygon fill="white" stroke="black" points="311.5,-317 311.5,-347 404.5,-347 404.5,-317 311.5,-317"/>
<text text-anchor="start" x="319.5" y="-335" font-family="Helvetica,sans-Serif" font-size="10.00">partition::Partition</text>
<text text-anchor="middle" x="358" y="-324" font-family="Helvetica,sans-Serif" font-size="10.00">::begin</text>
</a>
</g>
</g>
<!-- Node410&#45;&gt;Node411 -->
<g id="edge13" class="edge"><title>Node410&#45;&gt;Node411</title>
<path fill="none" stroke="midnightblue" d="M183.223,-231.687C198.652,-249.261 233.764,-286.474 271,-307 280.487,-312.23 291.18,-316.465 301.72,-319.859"/>
<polygon fill="midnightblue" stroke="midnightblue" points="300.733,-323.217 311.318,-322.744 302.748,-316.513 300.733,-323.217"/>
</g>
<!-- Node412 -->
<g id="node14" class="node"><title>Node412</title>
<g id="a_node14"><a xlink:href="classdata_1_1_instance.html#aa6ee19c383a86228b3d134e42bdb6830" target="_top" xlink:title=" ">
<polygon fill="white" stroke="black" points="288,-190.5 288,-209.5 428,-209.5 428,-190.5 288,-190.5"/>
<text text-anchor="middle" x="358" y="-197.5" font-family="Helvetica,sans-Serif" font-size="10.00">data::Instance::getFeatures</text>
</a>
</g>
</g>
<!-- Node410&#45;&gt;Node412 -->
<g id="edge15" class="edge"><title>Node410&#45;&gt;Node412</title>
<path fill="none" stroke="midnightblue" d="M235.098,-214.735C248.679,-213.094 263.301,-211.326 277.541,-209.605"/>
<polygon fill="midnightblue" stroke="midnightblue" points="278.314,-213.037 287.822,-208.362 277.474,-206.088 278.314,-213.037"/>
</g>
<!-- Node413 -->
<g id="node15" class="node"><title>Node413</title>
<g id="a_node15"><a xlink:href="classmat_1_1_matrix_base.html#ae3b1c4b8e9cb7e7685d7bc129f875dcd" target="_top" xlink:title=" ">
<polygon fill="white" stroke="black" points="292.5,-278.5 292.5,-297.5 423.5,-297.5 423.5,-278.5 292.5,-278.5"/>
<text text-anchor="middle" x="358" y="-285.5" font-family="Helvetica,sans-Serif" font-size="10.00">mat::MatrixBase::getRow</text>
</a>
</g>
</g>
<!-- Node410&#45;&gt;Node413 -->
<g id="edge18" class="edge"><title>Node410&#45;&gt;Node413</title>
<path fill="none" stroke="midnightblue" d="M191.471,-231.573C210.189,-242.089 241.922,-258.833 271,-269 278.409,-271.59 286.304,-273.906 294.192,-275.952"/>
<polygon fill="midnightblue" stroke="midnightblue" points="293.597,-279.41 304.144,-278.402 295.27,-272.613 293.597,-279.41"/>
</g>
<!-- Node414 -->
<g id="node16" class="node"><title>Node414</title>
<g id="a_node16"><a xlink:href="classpartition_1_1_partition.html#a96660ce61740ab0287189b21833eccdf" target="_top" xlink:title=" ">
<polygon fill="white" stroke="black" points="311.5,-229 311.5,-259 404.5,-259 404.5,-229 311.5,-229"/>
<text text-anchor="start" x="319.5" y="-247" font-family="Helvetica,sans-Serif" font-size="10.00">partition::Partition</text>
<text text-anchor="middle" x="358" y="-236" font-family="Helvetica,sans-Serif" font-size="10.00">::next</text>
</a>
</g>
</g>
<!-- Node410&#45;&gt;Node414 -->
<g id="edge19" class="edge"><title>Node410&#45;&gt;Node414</title>
<path fill="none" stroke="midnightblue" d="M235.098,-229.265C256.453,-231.846 280.385,-234.739 301.352,-237.273"/>
<polygon fill="midnightblue" stroke="midnightblue" points="301.034,-240.76 311.382,-238.486 301.874,-233.811 301.034,-240.76"/>
</g>
<!-- Node415&#45;&gt;Node400 -->
<g id="edge25" class="edge"><title>Node415&#45;&gt;Node400</title>
<path fill="none" stroke="midnightblue" d="M220.926,-133.589C245.376,-138.694 275.633,-145.011 301.403,-150.392"/>
<polygon fill="midnightblue" stroke="midnightblue" points="300.9,-153.862 311.404,-152.48 302.33,-147.01 300.9,-153.862"/>
</g>
<!-- Node415&#45;&gt;Node404 -->
<g id="edge22" class="edge"><title>Node415&#45;&gt;Node404</title>
<path fill="none" stroke="midnightblue" d="M220.926,-114.411C245.376,-109.306 275.633,-102.989 301.403,-97.6082"/>
<polygon fill="midnightblue" stroke="midnightblue" points="302.33,-100.99 311.404,-95.5201 300.9,-94.1378 302.33,-100.99"/>
</g>
<!-- Node415&#45;&gt;Node405 -->
<g id="edge23" class="edge"><title>Node415&#45;&gt;Node405</title>
<path fill="none" stroke="midnightblue" d="M214.992,-114.463C221.94,-111.945 228.888,-108.828 235,-105 254.717,-92.6512 250.752,-78.4571 271,-67 278.461,-62.7784 286.778,-59.4946 295.219,-56.9403"/>
<polygon fill="midnightblue" stroke="midnightblue" points="296.398,-60.2476 305.141,-54.2644 294.575,-53.4891 296.398,-60.2476"/>
</g>
<!-- Node415&#45;&gt;Node412 -->
<g id="edge24" class="edge"><title>Node415&#45;&gt;Node412</title>
<path fill="none" stroke="midnightblue" d="M187.972,-133.544C205.798,-146.217 239.277,-168.453 271,-181 277.647,-183.629 284.735,-185.932 291.88,-187.939"/>
<polygon fill="midnightblue" stroke="midnightblue" points="291.063,-191.343 301.623,-190.497 292.84,-184.572 291.063,-191.343"/>
</g>
<!-- Node416 -->
<g id="node18" class="node"><title>Node416</title>
<g id="a_node18"><a xlink:href="namespaceinterfacesse.html#a9dd5fb43ad8a83ee5cb2f5ba1bb2085b" target="_top" xlink:title=" ">
<polygon fill="white" stroke="black" points="308.5,-114.5 308.5,-133.5 407.5,-133.5 407.5,-114.5 308.5,-114.5"/>
<text text-anchor="middle" x="358" y="-121.5" font-family="Helvetica,sans-Serif" font-size="10.00">interfacesse::axpy</text>
</a>
</g>
</g>
<!-- Node415&#45;&gt;Node416 -->
<g id="edge21" class="edge"><title>Node415&#45;&gt;Node416</title>
<path fill="none" stroke="midnightblue" d="M227.642,-124C249.674,-124 275.377,-124 298.041,-124"/>
<polygon fill="midnightblue" stroke="midnightblue" points="298.216,-127.5 308.216,-124 298.216,-120.5 298.216,-127.5"/>
</g>
</g>
</svg>
        <g id="navigator" transform="translate(0 0)" fill="#404254">
                <rect fill="#f2f5e9" fill-opacity="0.5" stroke="#606060" stroke-width=".5" x="0" y="0" width="60" height="60"/>
                <use id="zoomplus" xlink:href="#zoomPlus" x="17" y="9" onmousedown="handleZoom(evt,'in')"/>
                <use id="zoomminus" xlink:href="#zoomMin" x="42" y="9" onmousedown="handleZoom(evt,'out')"/>
                <use id="reset" xlink:href="#resetDef" x="30" y="36" onmousedown="handleReset()"/>
                <g id="arrowUp" xlink:href="#dirArrow" transform="translate(30 24)" onmousedown="handlePan(0,-1)">
                  <use xlink:href="#rim" fill="#404040">
                        <set attributeName="fill" to="#808080" begin="arrowUp.mouseover" end="arrowUp.mouseout"/>
                  </use>
                  <path fill="none" stroke="white" stroke-width="1.5" d="M0,-3.0v7 M-2.5,-0.5L0,-3.0L2.5,-0.5"/>
                </g>
                <g id="arrowRight" xlink:href="#dirArrow" transform="rotate(90) translate(36 -43)" onmousedown="handlePan(1,0)">
                  <use xlink:href="#rim" fill="#404040">
                        <set attributeName="fill" to="#808080" begin="arrowRight.mouseover" end="arrowRight.mouseout"/>
                  </use>
                  <path fill="none" stroke="white" stroke-width="1.5" d="M0,-3.0v7 M-2.5,-0.5L0,-3.0L2.5,-0.5"/>
                </g>
                <g id="arrowDown" xlink:href="#dirArrow" transform="rotate(180) translate(-30 -48)" onmousedown="handlePan(0,1)">
                  <use xlink:href="#rim" fill="#404040">
                        <set attributeName="fill" to="#808080" begin="arrowDown.mouseover" end="arrowDown.mouseout"/>
                  </use>
                  <path fill="none" stroke="white" stroke-width="1.5" d="M0,-3.0v7 M-2.5,-0.5L0,-3.0L2.5,-0.5"/>
                </g>
                <g id="arrowLeft" xlink:href="#dirArrow" transform="rotate(270) translate(-36 17)" onmousedown="handlePan(-1,0)">
                  <use xlink:href="#rim" fill="#404040">
                        <set attributeName="fill" to="#808080" begin="arrowLeft.mouseover" end="arrowLeft.mouseout"/>
                  </use>
                  <path fill="none" stroke="white" stroke-width="1.5" d="M0,-3.0v7 M-2.5,-0.5L0,-3.0L2.5,-0.5"/>
                </g>
        </g>
        <svg viewBox="0 0 15 15" width="100%" height="30px" preserveAspectRatio="xMaxYMin meet">
         <g id="arrow_out" transform="scale(0.3 0.3)">
          <a xlink:href="namespaceum_a87db67beee15dca61595892f84a94315_cgraph_org.svg" target="_base">
           <rect id="button" ry="5" rx="5" y="6" x="6" height="38" width="38"
                fill="#f2f5e9" fill-opacity="0.5" stroke="#606060" stroke-width="1.0"/>
           <path id="arrow"
             d="M 11.500037,31.436501 C 11.940474,20.09759 22.043105,11.32322 32.158766,21.979434 L 37.068811,17.246167 C 37.068811,17.246167 37.088388,32 37.088388,32 L 22.160133,31.978069 C 22.160133,31.978069 26.997745,27.140456 26.997745,27.140456 C 18.528582,18.264221 13.291696,25.230495 11.500037,31.436501 z"
             style="fill:#404040;"/>
          </a>
         </g>
        </svg>
</svg>
