<?xml version="1.0" encoding="UTF-8" standalone="no"?>
<!DOCTYPE svg PUBLIC "-//W3C//DTD SVG 1.1//EN"
 "http://www.w3.org/Graphics/SVG/1.1/DTD/svg11.dtd">
<!-- Generated by graphviz version 2.38.0 (20140413.2041)
 -->
<!-- Title: gabinaryop::onePointDistCrossover Pages: 1 -->
<svg width="1335pt" height="445pt"
 viewBox="0.00 0.00 1335.00 445.00" xmlns="http://www.w3.org/2000/svg" xmlns:xlink="http://www.w3.org/1999/xlink">
<g id="graph0" class="graph" transform="scale(1 1) rotate(0) translate(4 440.998)">
<title>gabinaryop::onePointDistCrossover</title>
<polygon fill="white" stroke="none" points="-4,4 -4,-440.998 1331,-440.998 1331,4 -4,4"/>
<!-- Node88 -->
<g id="node1" class="node"><title>Node88</title>
<polygon fill="#bfbfbf" stroke="black" points="0,-235 0,-265 130,-265 130,-235 0,-235"/>
<text text-anchor="start" x="8" y="-253" font-family="Helvetica,sans-Serif" font-size="10.00">gabinaryop::onePointDist</text>
<text text-anchor="middle" x="65" y="-242" font-family="Helvetica,sans-Serif" font-size="10.00">Crossover</text>
</g>
<!-- Node89 -->
<g id="node2" class="node"><title>Node89</title>
<g id="a_node2"><a xlink:href="classmat_1_1_bit_matrix.html#aaa0899f4925f797ed21c74828cb5a36e" target="_top" xlink:title="mat::BitMatrix::copyAligned">
<polygon fill="white" stroke="black" points="176,-297.5 176,-316.5 316,-316.5 316,-297.5 176,-297.5"/>
<text text-anchor="middle" x="246" y="-304.5" font-family="Helvetica,sans-Serif" font-size="10.00">mat::BitMatrix::copyAligned</text>
</a>
</g>
</g>
<!-- Node88&#45;&gt;Node89 -->
<g id="edge1" class="edge"><title>Node88&#45;&gt;Node89</title>
<path fill="none" stroke="midnightblue" d="M113.499,-265.125C142.187,-274.261 178.321,-285.767 205.449,-294.406"/>
<polygon fill="midnightblue" stroke="midnightblue" points="204.415,-297.749 215.006,-297.449 206.539,-291.079 204.415,-297.749"/>
</g>
<!-- Node90 -->
<g id="node3" class="node"><title>Node90</title>
<g id="a_node3"><a xlink:href="classmat_1_1_bit_matrix.html#ab66a697bd20fd702cb32494da920b1af" target="_top" xlink:title="mat::BitMatrix::print">
<polygon fill="white" stroke="black" points="394.5,-392.5 394.5,-411.5 495.5,-411.5 495.5,-392.5 394.5,-392.5"/>
<text text-anchor="middle" x="445" y="-399.5" font-family="Helvetica,sans-Serif" font-size="10.00">mat::BitMatrix::print</text>
</a>
</g>
</g>
<!-- Node88&#45;&gt;Node90 -->
<g id="edge35" class="edge"><title>Node88&#45;&gt;Node90</title>
<path fill="none" stroke="midnightblue" d="M81.6795,-265.021C100.347,-282.125 133.147,-309.79 166,-326 236.901,-360.983 326.189,-381.735 384.154,-392.496"/>
<polygon fill="midnightblue" stroke="midnightblue" points="383.782,-395.986 394.246,-394.327 385.031,-389.098 383.782,-395.986"/>
</g>
<!-- Node91 -->
<g id="node4" class="node"><title>Node91</title>
<g id="a_node4"><a xlink:href="classmat_1_1_bit_matrix.html#acb0438a8816d82379fab71120540fcd1" target="_top" xlink:title="mat::BitMatrix::getNumColumns">
<polygon fill="white" stroke="black" points="564,-411.5 564,-430.5 722,-430.5 722,-411.5 564,-411.5"/>
<text text-anchor="middle" x="643" y="-418.5" font-family="Helvetica,sans-Serif" font-size="10.00">mat::BitMatrix::getNumColumns</text>
</a>
</g>
</g>
<!-- Node88&#45;&gt;Node91 -->
<g id="edge12" class="edge"><title>Node88&#45;&gt;Node91</title>
<path fill="none" stroke="midnightblue" d="M74.6874,-265.075C89.9092,-290.121 123.83,-340.195 166,-367 289.164,-445.287 467.125,-441.623 566.895,-431.571"/>
<polygon fill="midnightblue" stroke="midnightblue" points="567.315,-435.046 576.893,-430.516 566.581,-428.085 567.315,-435.046"/>
</g>
<!-- Node92 -->
<g id="node5" class="node"><title>Node92</title>
<g id="a_node5"><a xlink:href="classmat_1_1_bit_matrix.html#ae23601eca8a5adfbed3749b163f0d5d6" target="_top" xlink:title="mat::BitMatrix::getNumRows">
<polygon fill="white" stroke="black" points="571.5,-278.5 571.5,-297.5 714.5,-297.5 714.5,-278.5 571.5,-278.5"/>
<text text-anchor="middle" x="643" y="-285.5" font-family="Helvetica,sans-Serif" font-size="10.00">mat::BitMatrix::getNumRows</text>
</a>
</g>
</g>
<!-- Node88&#45;&gt;Node92 -->
<g id="edge13" class="edge"><title>Node88&#45;&gt;Node92</title>
<path fill="none" stroke="midnightblue" d="M130.12,-254.23C235.581,-261.188 445.451,-275.033 561.014,-282.657"/>
<polygon fill="midnightblue" stroke="midnightblue" points="561.005,-286.164 571.214,-283.33 561.466,-279.179 561.005,-286.164"/>
</g>
<!-- Node98 -->
<g id="node11" class="node"><title>Node98</title>
<g id="a_node11"><a xlink:href="namespaceprob.html#a736bde3100258c3c2d13ebfe2b6746f8" target="_top" xlink:title="Get two random number diferent in order. ">
<polygon fill="white" stroke="black" points="171,-57.5 171,-76.5 321,-76.5 321,-57.5 171,-57.5"/>
<text text-anchor="middle" x="246" y="-64.5" font-family="Helvetica,sans-Serif" font-size="10.00">prob::getRandPairUnlikeInOrd</text>
</a>
</g>
</g>
<!-- Node88&#45;&gt;Node98 -->
<g id="edge14" class="edge"><title>Node88&#45;&gt;Node98</title>
<path fill="none" stroke="midnightblue" d="M80.9536,-234.712C114.231,-200.691 194.183,-118.952 228.69,-83.6745"/>
<polygon fill="midnightblue" stroke="midnightblue" points="231.209,-86.1045 235.7,-76.5083 226.205,-81.2097 231.209,-86.1045"/>
</g>
<!-- Node110 -->
<g id="node23" class="node"><title>Node110</title>
<g id="a_node23"><a xlink:href="namespacegabinaryop.html#a040a157e5b03c9ea4f04b7704e0b62a9" target="_top" xlink:title="gabinaryop::onePointCrossover">
<polygon fill="white" stroke="black" points="166,-202.5 166,-221.5 326,-221.5 326,-202.5 166,-202.5"/>
<text text-anchor="middle" x="246" y="-209.5" font-family="Helvetica,sans-Serif" font-size="10.00">gabinaryop::onePointCrossover</text>
</a>
</g>
</g>
<!-- Node88&#45;&gt;Node110 -->
<g id="edge26" class="edge"><title>Node88&#45;&gt;Node110</title>
<path fill="none" stroke="midnightblue" d="M109.331,-234.923C124.208,-231.147 141.428,-227.202 158.502,-223.616"/>
<polygon fill="midnightblue" stroke="midnightblue" points="159.433,-226.998 168.52,-221.55 158.019,-220.142 159.433,-226.998"/>
</g>
<!-- Node89&#45;&gt;Node90 -->
<g id="edge2" class="edge"><title>Node89&#45;&gt;Node90</title>
<path fill="none" stroke="midnightblue" d="M259.814,-316.522C280.406,-331.443 322.56,-360.438 362,-378 372.064,-382.481 383.189,-386.382 393.914,-389.662"/>
<polygon fill="midnightblue" stroke="midnightblue" points="393.028,-393.05 403.608,-392.499 394.994,-386.331 393.028,-393.05"/>
</g>
<!-- Node89&#45;&gt;Node92 -->
<g id="edge11" class="edge"><title>Node89&#45;&gt;Node92</title>
<path fill="none" stroke="midnightblue" d="M316.256,-303.669C384.583,-300.382 488.99,-295.36 561.096,-291.892"/>
<polygon fill="midnightblue" stroke="midnightblue" points="561.672,-295.368 571.492,-291.392 561.336,-288.376 561.672,-295.368"/>
</g>
<!-- Node93 -->
<g id="node6" class="node"><title>Node93</title>
<g id="a_node6"><a xlink:href="classmat_1_1_bit_matrix.html#a5607bb84d71c58751390be62e798dd11" target="_top" xlink:title="mat::BitMatrix::getRow">
<polygon fill="white" stroke="black" points="584,-373.5 584,-392.5 702,-392.5 702,-373.5 584,-373.5"/>
<text text-anchor="middle" x="643" y="-380.5" font-family="Helvetica,sans-Serif" font-size="10.00">mat::BitMatrix::getRow</text>
</a>
</g>
</g>
<!-- Node89&#45;&gt;Node93 -->
<g id="edge7" class="edge"><title>Node89&#45;&gt;Node93</title>
<path fill="none" stroke="midnightblue" d="M271.748,-316.652C294.785,-325.281 330.244,-337.665 362,-345 433.356,-361.483 516.708,-371.664 573.799,-377.288"/>
<polygon fill="midnightblue" stroke="midnightblue" points="573.5,-380.776 583.79,-378.252 574.172,-373.808 573.5,-380.776"/>
</g>
<!-- Node94 -->
<g id="node7" class="node"><title>Node94</title>
<g id="a_node7"><a xlink:href="classds_1_1_bit_container.html#a8c05ab649dca2fc2c0e62aba6e24d7a9" target="_top" xlink:title="ds::BitContainer::setArray">
<polygon fill="white" stroke="black" points="379,-316.5 379,-335.5 511,-335.5 511,-316.5 379,-316.5"/>
<text text-anchor="middle" x="445" y="-323.5" font-family="Helvetica,sans-Serif" font-size="10.00">ds::BitContainer::setArray</text>
</a>
</g>
</g>
<!-- Node89&#45;&gt;Node94 -->
<g id="edge6" class="edge"><title>Node89&#45;&gt;Node94</title>
<path fill="none" stroke="midnightblue" d="M316.178,-313.672C333.23,-315.317 351.573,-317.086 368.892,-318.756"/>
<polygon fill="midnightblue" stroke="midnightblue" points="368.663,-322.25 378.953,-319.726 369.335,-315.283 368.663,-322.25"/>
</g>
<!-- Node95 -->
<g id="node8" class="node"><title>Node95</title>
<g id="a_node8"><a xlink:href="classds_1_1_bit_container.html#acf7b867d95ea6ee5083cb8d0ce404a43" target="_top" xlink:title="ds::BitContainer::copyAligned">
<polygon fill="white" stroke="black" points="369.5,-202.5 369.5,-221.5 520.5,-221.5 520.5,-202.5 369.5,-202.5"/>
<text text-anchor="middle" x="445" y="-209.5" font-family="Helvetica,sans-Serif" font-size="10.00">ds::BitContainer::copyAligned</text>
</a>
</g>
</g>
<!-- Node89&#45;&gt;Node95 -->
<g id="edge8" class="edge"><title>Node89&#45;&gt;Node95</title>
<path fill="none" stroke="midnightblue" d="M266.974,-297.368C302.02,-280.468 374.702,-245.418 415.186,-225.895"/>
<polygon fill="midnightblue" stroke="midnightblue" points="416.779,-229.012 424.266,-221.516 413.739,-222.707 416.779,-229.012"/>
</g>
<!-- Node90&#45;&gt;Node91 -->
<g id="edge3" class="edge"><title>Node90&#45;&gt;Node91</title>
<path fill="none" stroke="midnightblue" d="M495.712,-406.819C513.37,-408.531 533.816,-410.513 553.722,-412.442"/>
<polygon fill="midnightblue" stroke="midnightblue" points="553.458,-415.933 563.749,-413.414 554.133,-408.966 553.458,-415.933"/>
</g>
<!-- Node90&#45;&gt;Node92 -->
<g id="edge4" class="edge"><title>Node90&#45;&gt;Node92</title>
<path fill="none" stroke="midnightblue" d="M462.374,-392.477C496.602,-372.568 575.924,-326.432 616.738,-302.693"/>
<polygon fill="midnightblue" stroke="midnightblue" points="618.651,-305.63 625.535,-297.577 615.131,-299.579 618.651,-305.63"/>
</g>
<!-- Node90&#45;&gt;Node93 -->
<g id="edge5" class="edge"><title>Node90&#45;&gt;Node93</title>
<path fill="none" stroke="midnightblue" d="M495.712,-397.181C519.441,-394.881 548.205,-392.092 573.927,-389.599"/>
<polygon fill="midnightblue" stroke="midnightblue" points="574.375,-393.072 583.991,-388.623 573.7,-386.105 574.375,-393.072"/>
</g>
<!-- Node96 -->
<g id="node9" class="node"><title>Node96</title>
<g id="a_node9"><a xlink:href="classds_1_1_bit_container.html#ac411be8a6a028077107ab9c7a60b5546" target="_top" xlink:title="ds::BitContainer::getBit">
<polygon fill="white" stroke="black" points="762.5,-224.5 762.5,-243.5 882.5,-243.5 882.5,-224.5 762.5,-224.5"/>
<text text-anchor="middle" x="822.5" y="-231.5" font-family="Helvetica,sans-Serif" font-size="10.00">ds::BitContainer::getBit</text>
</a>
</g>
</g>
<!-- Node95&#45;&gt;Node96 -->
<g id="edge9" class="edge"><title>Node95&#45;&gt;Node96</title>
<path fill="none" stroke="midnightblue" d="M494.886,-221.535C516.047,-225.23 541.155,-229.039 564,-231 627.58,-236.459 700.31,-236.763 752.221,-235.964"/>
<polygon fill="midnightblue" stroke="midnightblue" points="752.379,-239.462 762.317,-235.79 752.258,-232.463 752.379,-239.462"/>
</g>
<!-- Node97 -->
<g id="node10" class="node"><title>Node97</title>
<g id="a_node10"><a xlink:href="classds_1_1_bit_container.html#addd9b30d11f1d2f871337a05c9cc65b6" target="_top" xlink:title="ds::BitContainer::print">
<polygon fill="white" stroke="black" points="586.5,-202.5 586.5,-221.5 699.5,-221.5 699.5,-202.5 586.5,-202.5"/>
<text text-anchor="middle" x="643" y="-209.5" font-family="Helvetica,sans-Serif" font-size="10.00">ds::BitContainer::print</text>
</a>
</g>
</g>
<!-- Node95&#45;&gt;Node97 -->
<g id="edge10" class="edge"><title>Node95&#45;&gt;Node97</title>
<path fill="none" stroke="midnightblue" d="M520.658,-212C539.011,-212 558.524,-212 576.413,-212"/>
<polygon fill="midnightblue" stroke="midnightblue" points="576.451,-215.5 586.451,-212 576.451,-208.5 576.451,-215.5"/>
</g>
<!-- Node99 -->
<g id="node12" class="node"><title>Node99</title>
<g id="a_node12"><a xlink:href="namespaceinterfacesse.html#afaa45a2a27710ea2dfa979289cf4961d" target="_top" xlink:title="swap items of aoarrayt_y to aiarrayt_x ">
<polygon fill="white" stroke="black" points="394.5,-9.5 394.5,-28.5 495.5,-28.5 495.5,-9.5 394.5,-9.5"/>
<text text-anchor="middle" x="445" y="-16.5" font-family="Helvetica,sans-Serif" font-size="10.00">interfacesse::swap</text>
</a>
</g>
</g>
<!-- Node98&#45;&gt;Node99 -->
<g id="edge15" class="edge"><title>Node98&#45;&gt;Node99</title>
<path fill="none" stroke="midnightblue" d="M286.392,-57.4018C317.53,-49.815 361.174,-39.1811 394.641,-31.0265"/>
<polygon fill="midnightblue" stroke="midnightblue" points="395.789,-34.3494 404.676,-28.5815 394.132,-27.5484 395.789,-34.3494"/>
</g>
<!-- Node105 -->
<g id="node18" class="node"><title>Node105</title>
<g id="a_node18"><a xlink:href="namespaceprob.html#a15090755bafc59aa295f2d02be64af8c" target="_top" xlink:title="Get a set of random number diferent. ">
<polygon fill="white" stroke="black" points="374,-57.5 374,-76.5 516,-76.5 516,-57.5 374,-57.5"/>
<text text-anchor="middle" x="445" y="-64.5" font-family="Helvetica,sans-Serif" font-size="10.00">prob::getWithoutRepeatsSet</text>
</a>
</g>
</g>
<!-- Node98&#45;&gt;Node105 -->
<g id="edge21" class="edge"><title>Node98&#45;&gt;Node105</title>
<path fill="none" stroke="midnightblue" d="M321.197,-67C335.064,-67 349.616,-67 363.659,-67"/>
<polygon fill="midnightblue" stroke="midnightblue" points="363.777,-70.5001 373.777,-67 363.777,-63.5001 363.777,-70.5001"/>
</g>
<!-- Node100 -->
<g id="node13" class="node"><title>Node100</title>
<g id="a_node13"><a xlink:href="namespaceinterfacesse.html#a2f42addf86fc8b9cd0c6620217b8a2db" target="_top" xlink:title="swap items of aoarrayt_y to aiarrayt_x ">
<polygon fill="white" stroke="black" points="597,-0.5 597,-19.5 689,-19.5 689,-0.5 597,-0.5"/>
<text text-anchor="middle" x="643" y="-7.5" font-family="Helvetica,sans-Serif" font-size="10.00">interfacesse::dot</text>
</a>
</g>
</g>
<!-- Node99&#45;&gt;Node100 -->
<g id="edge16" class="edge"><title>Node99&#45;&gt;Node100</title>
<path fill="none" stroke="midnightblue" d="M495.712,-16.7173C523.389,-15.4464 557.915,-13.8611 586.474,-12.5497"/>
<polygon fill="midnightblue" stroke="midnightblue" points="586.873,-16.0351 596.702,-12.08 586.552,-9.04249 586.873,-16.0351"/>
</g>
<!-- Node101 -->
<g id="node14" class="node"><title>Node101</title>
<g id="a_node14"><a xlink:href="namespaceinterfacesse.html#a25f6950d589b92fd5bcf2007fb3fae19" target="_top" xlink:title="interfacesse::sum">
<polygon fill="white" stroke="black" points="774.5,-0.5 774.5,-19.5 870.5,-19.5 870.5,-0.5 774.5,-0.5"/>
<text text-anchor="middle" x="822.5" y="-7.5" font-family="Helvetica,sans-Serif" font-size="10.00">interfacesse::sum</text>
</a>
</g>
</g>
<!-- Node100&#45;&gt;Node101 -->
<g id="edge17" class="edge"><title>Node100&#45;&gt;Node101</title>
<path fill="none" stroke="midnightblue" d="M689.25,-10C712.078,-10 740.007,-10 764.307,-10"/>
<polygon fill="midnightblue" stroke="midnightblue" points="764.474,-13.5001 774.474,-10 764.474,-6.5001 764.474,-13.5001"/>
</g>
<!-- Node102 -->
<g id="node15" class="node"><title>Node102</title>
<g id="a_node15"><a xlink:href="namespaceinterfacesse.html#a9dd5fb43ad8a83ee5cb2f5ba1bb2085b" target="_top" xlink:title="interfacesse::axpy">
<polygon fill="white" stroke="black" points="935.5,-0.5 935.5,-19.5 1034.5,-19.5 1034.5,-0.5 935.5,-0.5"/>
<text text-anchor="middle" x="985" y="-7.5" font-family="Helvetica,sans-Serif" font-size="10.00">interfacesse::axpy</text>
</a>
</g>
</g>
<!-- Node101&#45;&gt;Node102 -->
<g id="edge18" class="edge"><title>Node101&#45;&gt;Node102</title>
<path fill="none" stroke="midnightblue" d="M870.787,-10C887.872,-10 907.37,-10 925.313,-10"/>
<polygon fill="midnightblue" stroke="midnightblue" points="925.382,-13.5001 935.382,-10 925.382,-6.5001 925.382,-13.5001"/>
</g>
<!-- Node103 -->
<g id="node16" class="node"><title>Node103</title>
<g id="a_node16"><a xlink:href="namespaceinterfacesse.html#ae3f94c42a59db65b2941dbfc9f449ea1" target="_top" xlink:title="function xAXPY of blas for doubles vectors ">
<polygon fill="white" stroke="black" points="1083,-0.5 1083,-19.5 1195,-19.5 1195,-0.5 1083,-0.5"/>
<text text-anchor="middle" x="1139" y="-7.5" font-family="Helvetica,sans-Serif" font-size="10.00">interfacesse::axpyInv</text>
</a>
</g>
</g>
<!-- Node102&#45;&gt;Node103 -->
<g id="edge19" class="edge"><title>Node102&#45;&gt;Node103</title>
<path fill="none" stroke="midnightblue" d="M1034.51,-10C1046.65,-10 1059.86,-10 1072.66,-10"/>
<polygon fill="midnightblue" stroke="midnightblue" points="1072.81,-13.5001 1082.81,-10 1072.81,-6.5001 1072.81,-13.5001"/>
</g>
<!-- Node104 -->
<g id="node17" class="node"><title>Node104</title>
<g id="a_node17"><a xlink:href="namespaceinterfacesse.html#a144ebf70bf38495c3de1aca2c8365e08" target="_top" xlink:title="scal items of the array of type T ">
<polygon fill="white" stroke="black" points="1231,-0.5 1231,-19.5 1327,-19.5 1327,-0.5 1231,-0.5"/>
<text text-anchor="middle" x="1279" y="-7.5" font-family="Helvetica,sans-Serif" font-size="10.00">interfacesse::scal</text>
</a>
</g>
</g>
<!-- Node103&#45;&gt;Node104 -->
<g id="edge20" class="edge"><title>Node103&#45;&gt;Node104</title>
<path fill="none" stroke="midnightblue" d="M1195.33,-10C1203.65,-10 1212.24,-10 1220.6,-10"/>
<polygon fill="midnightblue" stroke="midnightblue" points="1220.65,-13.5001 1230.65,-10 1220.65,-6.5001 1220.65,-13.5001"/>
</g>
<!-- Node106 -->
<g id="node19" class="node"><title>Node106</title>
<g id="a_node19"><a xlink:href="namespaceinout.html#a0c10a45877a347dec0d4ec4e5b05b828" target="_top" xlink:title="inout::containerprint">
<polygon fill="white" stroke="black" points="591.5,-38.5 591.5,-57.5 694.5,-57.5 694.5,-38.5 591.5,-38.5"/>
<text text-anchor="middle" x="643" y="-45.5" font-family="Helvetica,sans-Serif" font-size="10.00">inout::containerprint</text>
</a>
</g>
</g>
<!-- Node105&#45;&gt;Node106 -->
<g id="edge22" class="edge"><title>Node105&#45;&gt;Node106</title>
<path fill="none" stroke="midnightblue" d="M516.207,-60.1942C537.444,-58.1356 560.579,-55.8929 581.15,-53.8987"/>
<polygon fill="midnightblue" stroke="midnightblue" points="581.72,-57.3599 591.336,-52.9113 581.045,-50.3926 581.72,-57.3599"/>
</g>
<!-- Node107 -->
<g id="node20" class="node"><title>Node107</title>
<g id="a_node20"><a xlink:href="namespaceprob.html#abffb9a5b780336aceaf8eb78387dcd0c" target="_top" xlink:title="A random different than a given at_unlike. ">
<polygon fill="white" stroke="black" points="589,-76.5 589,-95.5 697,-95.5 697,-76.5 589,-76.5"/>
<text text-anchor="middle" x="643" y="-83.5" font-family="Helvetica,sans-Serif" font-size="10.00">prob::getRandUnlike</text>
</a>
</g>
</g>
<!-- Node105&#45;&gt;Node107 -->
<g id="edge23" class="edge"><title>Node105&#45;&gt;Node107</title>
<path fill="none" stroke="midnightblue" d="M516.207,-73.8058C536.598,-75.7825 558.74,-77.9289 578.682,-79.862"/>
<polygon fill="midnightblue" stroke="midnightblue" points="578.598,-83.3702 588.889,-80.8515 579.273,-76.4029 578.598,-83.3702"/>
</g>
<!-- Node108 -->
<g id="node21" class="node"><title>Node108</title>
<g id="a_node21"><a xlink:href="namespaceprob.html#a7fd4fb1dca3ca869c8cbb930c031a837" target="_top" xlink:title="Selection a random un like to set items. ">
<polygon fill="white" stroke="black" points="761,-76.5 761,-95.5 884,-95.5 884,-76.5 761,-76.5"/>
<text text-anchor="middle" x="822.5" y="-83.5" font-family="Helvetica,sans-Serif" font-size="10.00">prob::getRandSetUnlike</text>
</a>
</g>
</g>
<!-- Node107&#45;&gt;Node108 -->
<g id="edge24" class="edge"><title>Node107&#45;&gt;Node108</title>
<path fill="none" stroke="midnightblue" d="M697.256,-86C713.987,-86 732.733,-86 750.491,-86"/>
<polygon fill="midnightblue" stroke="midnightblue" points="750.81,-89.5001 760.81,-86 750.81,-82.5001 750.81,-89.5001"/>
</g>
<!-- Node109 -->
<g id="node22" class="node"><title>Node109</title>
<g id="a_node22"><a xlink:href="namespaceprob.html#a5d7baf9636f685ea992784431fca725c" target="_top" xlink:title="Selection a pair random index. ">
<polygon fill="white" stroke="black" points="923,-76.5 923,-95.5 1047,-95.5 1047,-76.5 923,-76.5"/>
<text text-anchor="middle" x="985" y="-83.5" font-family="Helvetica,sans-Serif" font-size="10.00">prob::getElitistPairCross</text>
</a>
</g>
</g>
<!-- Node108&#45;&gt;Node109 -->
<g id="edge25" class="edge"><title>Node108&#45;&gt;Node109</title>
<path fill="none" stroke="midnightblue" d="M884.178,-86C893.501,-86 903.198,-86 912.725,-86"/>
<polygon fill="midnightblue" stroke="midnightblue" points="912.97,-89.5001 922.97,-86 912.97,-82.5001 912.97,-89.5001"/>
</g>
<!-- Node110&#45;&gt;Node88 -->
<g id="edge28" class="edge"><title>Node110&#45;&gt;Node88</title>
<path fill="none" stroke="midnightblue" d="M222.193,-221.526C201.418,-227.602 169.563,-235.023 140.026,-240.944"/>
<polygon fill="midnightblue" stroke="midnightblue" points="139.255,-237.529 130.118,-242.891 140.605,-244.398 139.255,-237.529"/>
</g>
<!-- Node110&#45;&gt;Node95 -->
<g id="edge27" class="edge"><title>Node110&#45;&gt;Node95</title>
<path fill="none" stroke="midnightblue" d="M326.276,-212C337.163,-212 348.376,-212 359.355,-212"/>
<polygon fill="midnightblue" stroke="midnightblue" points="359.355,-215.5 369.355,-212 359.355,-208.5 359.355,-215.5"/>
</g>
<!-- Node111 -->
<g id="node24" class="node"><title>Node111</title>
<g id="a_node24"><a xlink:href="classgaencode_1_1_chromosome_bit_array.html#a5b129de998156a2e67f794de38a43ab7" target="_top" xlink:title="gaencode::ChromosomeBitArray\l::print">
<polygon fill="white" stroke="black" points="362,-115 362,-145 528,-145 528,-115 362,-115"/>
<text text-anchor="start" x="370" y="-133" font-family="Helvetica,sans-Serif" font-size="10.00">gaencode::ChromosomeBitArray</text>
<text text-anchor="middle" x="445" y="-122" font-family="Helvetica,sans-Serif" font-size="10.00">::print</text>
</a>
</g>
</g>
<!-- Node110&#45;&gt;Node111 -->
<g id="edge29" class="edge"><title>Node110&#45;&gt;Node111</title>
<path fill="none" stroke="midnightblue" d="M264.129,-202.397C286.25,-190.257 326.172,-169.229 362,-155 367.9,-152.657 374.111,-150.4 380.365,-148.267"/>
<polygon fill="midnightblue" stroke="midnightblue" points="381.792,-151.481 390.189,-145.02 379.596,-144.835 381.792,-151.481"/>
</g>
<!-- Node115 -->
<g id="node28" class="node"><title>Node115</title>
<g id="a_node28"><a xlink:href="classmat_1_1_bit_array.html#a29b36b5521b6ab19f7427f3d1f7bee4b" target="_top" xlink:title="mat::BitArray::size">
<polygon fill="white" stroke="black" points="395.5,-164.5 395.5,-183.5 494.5,-183.5 494.5,-164.5 395.5,-164.5"/>
<text text-anchor="middle" x="445" y="-171.5" font-family="Helvetica,sans-Serif" font-size="10.00">mat::BitArray::size</text>
</a>
</g>
</g>
<!-- Node110&#45;&gt;Node115 -->
<g id="edge34" class="edge"><title>Node110&#45;&gt;Node115</title>
<path fill="none" stroke="midnightblue" d="M296.457,-202.46C323.357,-197.271 356.809,-190.819 385.056,-185.37"/>
<polygon fill="midnightblue" stroke="midnightblue" points="386.049,-188.743 395.205,-183.412 384.723,-181.87 386.049,-188.743"/>
</g>
<!-- Node112 -->
<g id="node25" class="node"><title>Node112</title>
<g id="a_node25"><a xlink:href="classgaencode_1_1_chromosome_base.html#ab7a374a062ba8b5c6b4e674bae9a8299" target="_top" xlink:title="gaencode::ChromosomeBase\l::print">
<polygon fill="white" stroke="black" points="565.5,-115 565.5,-145 720.5,-145 720.5,-115 565.5,-115"/>
<text text-anchor="start" x="573.5" y="-133" font-family="Helvetica,sans-Serif" font-size="10.00">gaencode::ChromosomeBase</text>
<text text-anchor="middle" x="643" y="-122" font-family="Helvetica,sans-Serif" font-size="10.00">::print</text>
</a>
</g>
</g>
<!-- Node111&#45;&gt;Node112 -->
<g id="edge30" class="edge"><title>Node111&#45;&gt;Node112</title>
<path fill="none" stroke="midnightblue" d="M528.27,-130C537.175,-130 546.259,-130 555.215,-130"/>
<polygon fill="midnightblue" stroke="midnightblue" points="555.258,-133.5 565.258,-130 555.258,-126.5 555.258,-133.5"/>
</g>
<!-- Node113 -->
<g id="node26" class="node"><title>Node113</title>
<g id="a_node26"><a xlink:href="classmat_1_1_bit_array.html#a069efb2e4c68ffc2dec049e147de0fbb" target="_top" xlink:title="mat::BitArray::print">
<polygon fill="white" stroke="black" points="594,-164.5 594,-183.5 692,-183.5 692,-164.5 594,-164.5"/>
<text text-anchor="middle" x="643" y="-171.5" font-family="Helvetica,sans-Serif" font-size="10.00">mat::BitArray::print</text>
</a>
</g>
</g>
<!-- Node111&#45;&gt;Node113 -->
<g id="edge31" class="edge"><title>Node111&#45;&gt;Node113</title>
<path fill="none" stroke="midnightblue" d="M512.904,-145.019C538.036,-150.661 566.212,-156.986 589.814,-162.285"/>
<polygon fill="midnightblue" stroke="midnightblue" points="589.103,-165.712 599.626,-164.488 590.636,-158.882 589.103,-165.712"/>
</g>
<!-- Node113&#45;&gt;Node96 -->
<g id="edge33" class="edge"><title>Node113&#45;&gt;Node96</title>
<path fill="none" stroke="midnightblue" d="M688.467,-183.595C699.515,-186.317 711.266,-189.503 722,-193 745.859,-200.772 772.071,-211.674 791.599,-220.283"/>
<polygon fill="midnightblue" stroke="midnightblue" points="790.323,-223.546 800.881,-224.424 793.175,-217.153 790.323,-223.546"/>
</g>
<!-- Node114 -->
<g id="node27" class="node"><title>Node114</title>
<g id="a_node27"><a xlink:href="classds_1_1_bit_container.html#aefad9145f725e5584f59e6f9ff64e07b" target="_top" xlink:title="ds::BitContainer::getNum\lBitOn">
<polygon fill="white" stroke="black" points="758,-159 758,-189 887,-189 887,-159 758,-159"/>
<text text-anchor="start" x="766" y="-177" font-family="Helvetica,sans-Serif" font-size="10.00">ds::BitContainer::getNum</text>
<text text-anchor="middle" x="822.5" y="-166" font-family="Helvetica,sans-Serif" font-size="10.00">BitOn</text>
</a>
</g>
</g>
<!-- Node113&#45;&gt;Node114 -->
<g id="edge32" class="edge"><title>Node113&#45;&gt;Node114</title>
<path fill="none" stroke="midnightblue" d="M692.034,-174C709.179,-174 728.912,-174 747.721,-174"/>
<polygon fill="midnightblue" stroke="midnightblue" points="747.752,-177.5 757.752,-174 747.752,-170.5 747.752,-177.5"/>
</g>
</g>
</svg>
