<?xml version="1.0" encoding="UTF-8" standalone="no"?>
<!DOCTYPE svg PUBLIC "-//W3C//DTD SVG 1.1//EN"
 "http://www.w3.org/Graphics/SVG/1.1/DTD/svg11.dtd">
<!-- Generated by graphviz version 2.38.0 (20140413.2041)
 -->
<!-- Title: stats::minFeatures Pages: 1 -->
<svg width="2294pt" height="930pt"
 viewBox="0.00 0.00 2294.00 930.00" xmlns="http://www.w3.org/2000/svg" xmlns:xlink="http://www.w3.org/1999/xlink">
<g id="graph0" class="graph" transform="scale(1 1) rotate(0) translate(4 926)">
<title>stats::minFeatures</title>
<polygon fill="white" stroke="none" points="-4,4 -4,-926 2290,-926 2290,4 -4,4"/>
<!-- Node213 -->
<g id="node1" class="node"><title>Node213</title>
<polygon fill="#bfbfbf" stroke="black" points="0,-798.5 0,-817.5 99,-817.5 99,-798.5 0,-798.5"/>
<text text-anchor="middle" x="49.5" y="-805.5" font-family="Helvetica,sans-Serif" font-size="10.00">stats::minFeatures</text>
</g>
<!-- Node214 -->
<g id="node2" class="node"><title>Node214</title>
<g id="a_node2"><a xlink:href="namespaceinout.html#a0c10a45877a347dec0d4ec4e5b05b828" target="_top" xlink:title="inout::containerprint">
<polygon fill="white" stroke="black" points="1078,-589.5 1078,-608.5 1181,-608.5 1181,-589.5 1078,-589.5"/>
<text text-anchor="middle" x="1129.5" y="-596.5" font-family="Helvetica,sans-Serif" font-size="10.00">inout::containerprint</text>
</a>
</g>
</g>
<!-- Node213&#45;&gt;Node214 -->
<g id="edge1" class="edge"><title>Node213&#45;&gt;Node214</title>
<path fill="none" stroke="midnightblue" d="M70.9387,-817.625C116.299,-838.076 229.264,-884 329,-884 329,-884 329,-884 475,-884 730.967,-884 852.19,-954.73 1042,-783 1085.51,-743.639 1049.84,-707.469 1078,-656 1086.27,-640.88 1099.21,-626.379 1109.93,-615.786"/>
<polygon fill="midnightblue" stroke="midnightblue" points="1112.42,-618.248 1117.23,-608.812 1107.58,-613.185 1112.42,-618.248"/>
</g>
<!-- Node215 -->
<g id="node3" class="node"><title>Node215</title>
<g id="a_node3"><a xlink:href="namespaceinterfacesse.html#a925f44ed84d40e9af5050fa0e1373396" target="_top" xlink:title="copy array aoarrayt_x in aoarrayt_y of type T ">
<polygon fill="white" stroke="black" points="1254.5,-593.5 1254.5,-612.5 1353.5,-612.5 1353.5,-593.5 1254.5,-593.5"/>
<text text-anchor="middle" x="1304" y="-600.5" font-family="Helvetica,sans-Serif" font-size="10.00">interfacesse::copy</text>
</a>
</g>
</g>
<!-- Node213&#45;&gt;Node215 -->
<g id="edge2" class="edge"><title>Node213&#45;&gt;Node215</title>
<path fill="none" stroke="midnightblue" d="M60.5346,-817.761C75.5163,-831.8 105.176,-857.585 135,-872 215.167,-910.748 239.96,-922 329,-922 329,-922 329,-922 971.5,-922 1145.85,-922 1263.9,-690.05 1294.89,-621.723"/>
<polygon fill="midnightblue" stroke="midnightblue" points="1298.11,-623.106 1298.97,-612.547 1291.71,-620.262 1298.11,-623.106"/>
</g>
<!-- Node222 -->
<g id="node10" class="node"><title>Node222</title>
<g id="a_node10"><a xlink:href="classdata_1_1_instance.html#aa6ee19c383a86228b3d134e42bdb6830" target="_top" xlink:title="data::Instance::getFeatures">
<polygon fill="white" stroke="black" points="900.5,-722.5 900.5,-741.5 1040.5,-741.5 1040.5,-722.5 900.5,-722.5"/>
<text text-anchor="middle" x="970.5" y="-729.5" font-family="Helvetica,sans-Serif" font-size="10.00">data::Instance::getFeatures</text>
</a>
</g>
</g>
<!-- Node213&#45;&gt;Node222 -->
<g id="edge9" class="edge"><title>Node213&#45;&gt;Node222</title>
<path fill="none" stroke="midnightblue" d="M99.1662,-806.538C185.322,-803.727 370.295,-796.696 526,-784 676.228,-771.751 713.384,-764.268 863,-746 871.904,-744.913 881.222,-743.74 890.484,-742.552"/>
<polygon fill="midnightblue" stroke="midnightblue" points="891.021,-746.012 900.49,-741.26 890.124,-739.069 891.021,-746.012"/>
</g>
<!-- Node223 -->
<g id="node11" class="node"><title>Node223</title>
<g id="a_node11"><a xlink:href="classdata_1_1_instance.html#a90d1eaeb66cc1470bbfdb95434fdb761" target="_top" xlink:title="data::Instance::getNumDimensions">
<polygon fill="white" stroke="black" points="1217,-0.5 1217,-19.5 1391,-19.5 1391,-0.5 1217,-0.5"/>
<text text-anchor="middle" x="1304" y="-7.5" font-family="Helvetica,sans-Serif" font-size="10.00">data::Instance::getNumDimensions</text>
</a>
</g>
</g>
<!-- Node213&#45;&gt;Node223 -->
<g id="edge10" class="edge"><title>Node213&#45;&gt;Node223</title>
<path fill="none" stroke="midnightblue" d="M51.15,-798.442C54.7412,-748.815 74.252,-515.97 135,-337 178.255,-209.567 196.038,-177.691 274,-68 294.58,-39.0437 293.475,-10 329,-10 329,-10 329,-10 971.5,-10 1050.58,-10 1140.26,-10 1206.39,-10"/>
<polygon fill="midnightblue" stroke="midnightblue" points="1206.8,-13.5001 1216.8,-10 1206.8,-6.5001 1206.8,-13.5001"/>
</g>
<!-- Node224 -->
<g id="node12" class="node"><title>Node224</title>
<g id="a_node12"><a xlink:href="namespacestats.html#a61fb958f0ffbfa6d41efd10f6e71f062" target="_top" xlink:title="Obtain the maximum attributes of the instances. ">
<polygon fill="white" stroke="black" points="135,-741.5 135,-760.5 238,-760.5 238,-741.5 135,-741.5"/>
<text text-anchor="middle" x="186.5" y="-748.5" font-family="Helvetica,sans-Serif" font-size="10.00">stats::maxFeatures</text>
</a>
</g>
</g>
<!-- Node213&#45;&gt;Node224 -->
<g id="edge11" class="edge"><title>Node213&#45;&gt;Node224</title>
<path fill="none" stroke="midnightblue" d="M73.096,-798.459C95.0959,-789.171 128.743,-774.964 153.493,-764.514"/>
<polygon fill="midnightblue" stroke="midnightblue" points="154.979,-767.686 162.83,-760.572 152.256,-761.237 154.979,-767.686"/>
</g>
<!-- Node216 -->
<g id="node4" class="node"><title>Node216</title>
<g id="a_node4"><a xlink:href="namespaceinterfacesse.html#afaa45a2a27710ea2dfa979289cf4961d" target="_top" xlink:title="swap items of aoarrayt_y to aiarrayt_x ">
<polygon fill="white" stroke="black" points="1429.5,-505.5 1429.5,-524.5 1530.5,-524.5 1530.5,-505.5 1429.5,-505.5"/>
<text text-anchor="middle" x="1480" y="-512.5" font-family="Helvetica,sans-Serif" font-size="10.00">interfacesse::swap</text>
</a>
</g>
</g>
<!-- Node215&#45;&gt;Node216 -->
<g id="edge3" class="edge"><title>Node215&#45;&gt;Node216</title>
<path fill="none" stroke="midnightblue" d="M1323.95,-593.415C1354.55,-577.942 1414.99,-547.374 1450.7,-529.313"/>
<polygon fill="midnightblue" stroke="midnightblue" points="1452.73,-532.21 1460.07,-524.573 1449.57,-525.963 1452.73,-532.21"/>
</g>
<!-- Node217 -->
<g id="node5" class="node"><title>Node217</title>
<g id="a_node5"><a xlink:href="namespaceinterfacesse.html#a2f42addf86fc8b9cd0c6620217b8a2db" target="_top" xlink:title="swap items of aoarrayt_y to aiarrayt_x ">
<polygon fill="white" stroke="black" points="1608,-472.5 1608,-491.5 1700,-491.5 1700,-472.5 1608,-472.5"/>
<text text-anchor="middle" x="1654" y="-479.5" font-family="Helvetica,sans-Serif" font-size="10.00">interfacesse::dot</text>
</a>
</g>
</g>
<!-- Node216&#45;&gt;Node217 -->
<g id="edge4" class="edge"><title>Node216&#45;&gt;Node217</title>
<path fill="none" stroke="midnightblue" d="M1530.75,-505.455C1551.73,-501.429 1576.24,-496.727 1597.78,-492.594"/>
<polygon fill="midnightblue" stroke="midnightblue" points="1598.61,-496 1607.77,-490.678 1597.29,-489.125 1598.61,-496"/>
</g>
<!-- Node218 -->
<g id="node6" class="node"><title>Node218</title>
<g id="a_node6"><a xlink:href="namespaceinterfacesse.html#a25f6950d589b92fd5bcf2007fb3fae19" target="_top" xlink:title="interfacesse::sum">
<polygon fill="white" stroke="black" points="1775,-418.5 1775,-437.5 1871,-437.5 1871,-418.5 1775,-418.5"/>
<text text-anchor="middle" x="1823" y="-425.5" font-family="Helvetica,sans-Serif" font-size="10.00">interfacesse::sum</text>
</a>
</g>
</g>
<!-- Node217&#45;&gt;Node218 -->
<g id="edge5" class="edge"><title>Node217&#45;&gt;Node218</title>
<path fill="none" stroke="midnightblue" d="M1684.47,-472.47C1711.81,-463.629 1752.7,-450.409 1782.79,-440.68"/>
<polygon fill="midnightblue" stroke="midnightblue" points="1784.1,-443.932 1792.54,-437.525 1781.95,-437.272 1784.1,-443.932"/>
</g>
<!-- Node219 -->
<g id="node7" class="node"><title>Node219</title>
<g id="a_node7"><a xlink:href="namespaceinterfacesse.html#a9dd5fb43ad8a83ee5cb2f5ba1bb2085b" target="_top" xlink:title="interfacesse::axpy">
<polygon fill="white" stroke="black" points="1907,-418.5 1907,-437.5 2006,-437.5 2006,-418.5 1907,-418.5"/>
<text text-anchor="middle" x="1956.5" y="-425.5" font-family="Helvetica,sans-Serif" font-size="10.00">interfacesse::axpy</text>
</a>
</g>
</g>
<!-- Node218&#45;&gt;Node219 -->
<g id="edge6" class="edge"><title>Node218&#45;&gt;Node219</title>
<path fill="none" stroke="midnightblue" d="M1871.1,-428C1879.47,-428 1888.28,-428 1896.92,-428"/>
<polygon fill="midnightblue" stroke="midnightblue" points="1896.95,-431.5 1906.95,-428 1896.95,-424.5 1896.95,-431.5"/>
</g>
<!-- Node220 -->
<g id="node8" class="node"><title>Node220</title>
<g id="a_node8"><a xlink:href="namespaceinterfacesse.html#ae3f94c42a59db65b2941dbfc9f449ea1" target="_top" xlink:title="function xAXPY of blas for doubles vectors ">
<polygon fill="white" stroke="black" points="2042,-418.5 2042,-437.5 2154,-437.5 2154,-418.5 2042,-418.5"/>
<text text-anchor="middle" x="2098" y="-425.5" font-family="Helvetica,sans-Serif" font-size="10.00">interfacesse::axpyInv</text>
</a>
</g>
</g>
<!-- Node219&#45;&gt;Node220 -->
<g id="edge7" class="edge"><title>Node219&#45;&gt;Node220</title>
<path fill="none" stroke="midnightblue" d="M2006.29,-428C2014.54,-428 2023.21,-428 2031.79,-428"/>
<polygon fill="midnightblue" stroke="midnightblue" points="2031.8,-431.5 2041.8,-428 2031.8,-424.5 2031.8,-431.5"/>
</g>
<!-- Node221 -->
<g id="node9" class="node"><title>Node221</title>
<g id="a_node9"><a xlink:href="namespaceinterfacesse.html#a144ebf70bf38495c3de1aca2c8365e08" target="_top" xlink:title="scal items of the array of type T ">
<polygon fill="white" stroke="black" points="2190,-418.5 2190,-437.5 2286,-437.5 2286,-418.5 2190,-418.5"/>
<text text-anchor="middle" x="2238" y="-425.5" font-family="Helvetica,sans-Serif" font-size="10.00">interfacesse::scal</text>
</a>
</g>
</g>
<!-- Node220&#45;&gt;Node221 -->
<g id="edge8" class="edge"><title>Node220&#45;&gt;Node221</title>
<path fill="none" stroke="midnightblue" d="M2154.33,-428C2162.65,-428 2171.24,-428 2179.6,-428"/>
<polygon fill="midnightblue" stroke="midnightblue" points="2179.65,-431.5 2189.65,-428 2179.65,-424.5 2179.65,-431.5"/>
</g>
<!-- Node224&#45;&gt;Node214 -->
<g id="edge12" class="edge"><title>Node224&#45;&gt;Node214</title>
<path fill="none" stroke="midnightblue" d="M238.231,-756.419C295.263,-762.035 390.663,-770 473,-770 473,-770 473,-770 792.5,-770 903.71,-770 952.951,-817.618 1042,-751 1078.15,-723.953 1054.65,-694.643 1078,-656 1087.02,-641.068 1100.16,-626.383 1110.78,-615.659"/>
<polygon fill="midnightblue" stroke="midnightblue" points="1113.28,-618.107 1117.97,-608.604 1108.38,-613.111 1113.28,-618.107"/>
</g>
<!-- Node224&#45;&gt;Node215 -->
<g id="edge13" class="edge"><title>Node224&#45;&gt;Node215</title>
<path fill="none" stroke="midnightblue" d="M212.057,-760.559C229.144,-766.738 252.609,-774.294 274,-778 338.866,-789.237 356.182,-782.666 422,-784 697.499,-789.582 777.758,-861.149 1042,-783 1147.95,-751.666 1248.21,-658.81 1286.57,-620.17"/>
<polygon fill="midnightblue" stroke="midnightblue" points="1289.3,-622.384 1293.79,-612.789 1284.3,-617.487 1289.3,-622.384"/>
</g>
<!-- Node224&#45;&gt;Node222 -->
<g id="edge14" class="edge"><title>Node224&#45;&gt;Node222</title>
<path fill="none" stroke="midnightblue" d="M238.231,-745.581C295.263,-739.965 390.663,-732 473,-732 473,-732 473,-732 624,-732 715.331,-732 820.241,-732 890.27,-732"/>
<polygon fill="midnightblue" stroke="midnightblue" points="890.343,-735.5 900.343,-732 890.343,-728.5 890.343,-735.5"/>
</g>
<!-- Node224&#45;&gt;Node223 -->
<g id="edge15" class="edge"><title>Node224&#45;&gt;Node223</title>
<path fill="none" stroke="midnightblue" d="M187.179,-741.273C185.838,-688.732 184.409,-434.638 274,-257 331.758,-142.48 344.739,-48 473,-48 473,-48 473,-48 971.5,-48 1066.41,-48 1175.62,-32.4353 1241.95,-21.2287"/>
<polygon fill="midnightblue" stroke="midnightblue" points="1242.55,-24.6766 1251.81,-19.54 1241.37,-17.7769 1242.55,-24.6766"/>
</g>
<!-- Node225 -->
<g id="node13" class="node"><title>Node225</title>
<g id="a_node13"><a xlink:href="namespacestats.html#a91d3e4bd49b1fdf4eaf355092becd6bc" target="_top" xlink:title="Get covariance matrix, only for T_FEATURE real. ">
<polygon fill="white" stroke="black" points="274,-266.5 274,-285.5 386,-285.5 386,-266.5 274,-266.5"/>
<text text-anchor="middle" x="330" y="-273.5" font-family="Helvetica,sans-Serif" font-size="10.00">stats::matrixVarcovar</text>
</a>
</g>
</g>
<!-- Node224&#45;&gt;Node225 -->
<g id="edge16" class="edge"><title>Node224&#45;&gt;Node225</title>
<path fill="none" stroke="midnightblue" d="M190.455,-741.079C208.043,-682.039 298.977,-376.784 323.113,-295.762"/>
<polygon fill="midnightblue" stroke="midnightblue" points="326.56,-296.45 326.061,-285.866 319.851,-294.451 326.56,-296.45"/>
</g>
<!-- Node226 -->
<g id="node14" class="node"><title>Node226</title>
<g id="a_node14"><a xlink:href="namespaceinterfacesse.html#a47f4a833d2730f3a501bbb9b2b095e62" target="_top" xlink:title="interfacesse::gemm">
<polygon fill="white" stroke="black" points="1427,-152.5 1427,-171.5 1533,-171.5 1533,-152.5 1427,-152.5"/>
<text text-anchor="middle" x="1480" y="-159.5" font-family="Helvetica,sans-Serif" font-size="10.00">interfacesse::gemm</text>
</a>
</g>
</g>
<!-- Node225&#45;&gt;Node226 -->
<g id="edge17" class="edge"><title>Node225&#45;&gt;Node226</title>
<path fill="none" stroke="midnightblue" d="M340.592,-266.492C375.225,-233.215 498.315,-124 622,-124 622,-124 622,-124 1130.5,-124 1246.59,-124 1276.1,-126.488 1391,-143 1403.82,-144.842 1417.56,-147.482 1430.28,-150.21"/>
<polygon fill="midnightblue" stroke="midnightblue" points="1429.7,-153.668 1440.22,-152.404 1431.21,-146.832 1429.7,-153.668"/>
</g>
<!-- Node230 -->
<g id="node18" class="node"><title>Node230</title>
<g id="a_node18"><a xlink:href="namespacestats.html#adf9325db882d4cc7474c23f2eff7dd39" target="_top" xlink:title="Get weight matrix diagonal for calculate dist induced &#160;&#160;. ">
<polygon fill="white" stroke="black" points="728.5,-228.5 728.5,-247.5 854.5,-247.5 854.5,-228.5 728.5,-228.5"/>
<text text-anchor="middle" x="791.5" y="-235.5" font-family="Helvetica,sans-Serif" font-size="10.00">stats::getMatrixDiagonal</text>
</a>
</g>
</g>
<!-- Node225&#45;&gt;Node230 -->
<g id="edge22" class="edge"><title>Node225&#45;&gt;Node230</title>
<path fill="none" stroke="midnightblue" d="M370.192,-266.435C386.166,-262.899 404.874,-259.216 422,-257 524.241,-243.771 643.562,-239.666 718.085,-238.442"/>
<polygon fill="midnightblue" stroke="midnightblue" points="718.351,-241.938 728.297,-238.287 718.245,-234.939 718.351,-241.938"/>
</g>
<!-- Node238 -->
<g id="node26" class="node"><title>Node238</title>
<g id="a_node26"><a xlink:href="namespacestats.html#a9997daae39cbd737fb66c52d182e8e6b" target="_top" xlink:title="Obtiene un vector con la media de una matriz por columnas. ">
<polygon fill="white" stroke="black" points="429.5,-380.5 429.5,-399.5 518.5,-399.5 518.5,-380.5 429.5,-380.5"/>
<text text-anchor="middle" x="474" y="-387.5" font-family="Helvetica,sans-Serif" font-size="10.00">stats::meanRow</text>
</a>
</g>
</g>
<!-- Node225&#45;&gt;Node238 -->
<g id="edge41" class="edge"><title>Node225&#45;&gt;Node238</title>
<path fill="none" stroke="midnightblue" d="M343.107,-285.72C367.524,-305.322 422.892,-349.772 452.849,-373.823"/>
<polygon fill="midnightblue" stroke="midnightblue" points="450.935,-376.774 460.924,-380.305 455.317,-371.315 450.935,-376.774"/>
</g>
<!-- Node243 -->
<g id="node31" class="node"><title>Node243</title>
<g id="a_node31"><a xlink:href="namespacedata.html#af02d5f2addd5b5815d5efb7db12ffeba" target="_top" xlink:title="Instaces matrix transpose. ">
<polygon fill="white" stroke="black" points="729,-684.5 729,-703.5 854,-703.5 854,-684.5 729,-684.5"/>
<text text-anchor="middle" x="791.5" y="-691.5" font-family="Helvetica,sans-Serif" font-size="10.00">data::toMatrixRowTrans</text>
</a>
</g>
</g>
<!-- Node225&#45;&gt;Node243 -->
<g id="edge60" class="edge"><title>Node225&#45;&gt;Node243</title>
<path fill="none" stroke="midnightblue" d="M333.232,-285.594C345.528,-336.047 410.048,-572.049 562,-670 608.167,-699.76 670.783,-704.448 718.793,-702.426"/>
<polygon fill="midnightblue" stroke="midnightblue" points="719.003,-705.92 728.805,-701.899 718.635,-698.93 719.003,-705.92"/>
</g>
<!-- Node245 -->
<g id="node33" class="node"><title>Node245</title>
<g id="a_node33"><a xlink:href="namespaceinterfacesse.html#a3ef732d695e1172d5e8404cc0e44865a" target="_top" xlink:title="translate the aoarrayt_y array ">
<polygon fill="white" stroke="black" points="422,-266.5 422,-285.5 526,-285.5 526,-266.5 422,-266.5"/>
<text text-anchor="middle" x="474" y="-273.5" font-family="Helvetica,sans-Serif" font-size="10.00">interfacesse::transy</text>
</a>
</g>
</g>
<!-- Node225&#45;&gt;Node245 -->
<g id="edge64" class="edge"><title>Node225&#45;&gt;Node245</title>
<path fill="none" stroke="midnightblue" d="M386.308,-276C394.612,-276 403.218,-276 411.64,-276"/>
<polygon fill="midnightblue" stroke="midnightblue" points="411.788,-279.5 421.788,-276 411.788,-272.5 411.788,-279.5"/>
</g>
<!-- Node226&#45;&gt;Node218 -->
<g id="edge21" class="edge"><title>Node226&#45;&gt;Node218</title>
<path fill="none" stroke="midnightblue" d="M1533.26,-159.887C1590.29,-160.389 1681.19,-169.797 1739,-219 1797.83,-269.065 1815.3,-366.588 1820.2,-408.303"/>
<polygon fill="midnightblue" stroke="midnightblue" points="1816.73,-408.712 1821.26,-418.29 1823.69,-407.978 1816.73,-408.712"/>
</g>
<!-- Node227 -->
<g id="node15" class="node"><title>Node227</title>
<g id="a_node15"><a xlink:href="classmat_1_1_matrix_base.html#a70200414022ce1479b9ddc16102b12ae" target="_top" xlink:title="mat::MatrixBase::getNumColumns">
<polygon fill="white" stroke="black" points="1569,-95.5 1569,-114.5 1739,-114.5 1739,-95.5 1569,-95.5"/>
<text text-anchor="middle" x="1654" y="-102.5" font-family="Helvetica,sans-Serif" font-size="10.00">mat::MatrixBase::getNumColumns</text>
</a>
</g>
</g>
<!-- Node226&#45;&gt;Node227 -->
<g id="edge18" class="edge"><title>Node226&#45;&gt;Node227</title>
<path fill="none" stroke="midnightblue" d="M1509.79,-152.459C1538.44,-142.965 1582.59,-128.333 1614.3,-117.826"/>
<polygon fill="midnightblue" stroke="midnightblue" points="1615.73,-121.04 1624.12,-114.572 1613.52,-114.395 1615.73,-121.04"/>
</g>
<!-- Node228 -->
<g id="node16" class="node"><title>Node228</title>
<g id="a_node16"><a xlink:href="classmat_1_1_matrix_base.html#ac500eedd5e203327d3292f8ab22d8f3e" target="_top" xlink:title="mat::MatrixBase::getNumRows">
<polygon fill="white" stroke="black" points="1576,-228.5 1576,-247.5 1732,-247.5 1732,-228.5 1576,-228.5"/>
<text text-anchor="middle" x="1654" y="-235.5" font-family="Helvetica,sans-Serif" font-size="10.00">mat::MatrixBase::getNumRows</text>
</a>
</g>
</g>
<!-- Node226&#45;&gt;Node228 -->
<g id="edge19" class="edge"><title>Node226&#45;&gt;Node228</title>
<path fill="none" stroke="midnightblue" d="M1502.78,-171.625C1532.9,-184.931 1587.41,-209.02 1621.83,-224.228"/>
<polygon fill="midnightblue" stroke="midnightblue" points="1620.83,-227.612 1631.39,-228.453 1623.66,-221.21 1620.83,-227.612"/>
</g>
<!-- Node229 -->
<g id="node17" class="node"><title>Node229</title>
<g id="a_node17"><a xlink:href="classmat_1_1_matrix_row.html#a5391a205367fbaac82a26ddc377a80af" target="_top" xlink:title="mat::MatrixRow::getRow">
<polygon fill="white" stroke="black" points="1590.5,-342.5 1590.5,-361.5 1717.5,-361.5 1717.5,-342.5 1590.5,-342.5"/>
<text text-anchor="middle" x="1654" y="-349.5" font-family="Helvetica,sans-Serif" font-size="10.00">mat::MatrixRow::getRow</text>
</a>
</g>
</g>
<!-- Node226&#45;&gt;Node229 -->
<g id="edge20" class="edge"><title>Node226&#45;&gt;Node229</title>
<path fill="none" stroke="midnightblue" d="M1489.77,-171.683C1517.25,-202.041 1601.99,-295.647 1637.3,-334.655"/>
<polygon fill="midnightblue" stroke="midnightblue" points="1634.74,-337.044 1644.05,-342.108 1639.93,-332.346 1634.74,-337.044"/>
</g>
<!-- Node230&#45;&gt;Node228 -->
<g id="edge38" class="edge"><title>Node230&#45;&gt;Node228</title>
<path fill="none" stroke="midnightblue" d="M841.71,-247.506C849.125,-249.99 856.468,-253.104 863,-257 882.98,-268.918 877.629,-285.808 899,-295 999.436,-338.201 1282.29,-306.688 1391,-295 1469.32,-286.579 1558.58,-264.385 1610.09,-250.306"/>
<polygon fill="midnightblue" stroke="midnightblue" points="1611.17,-253.64 1619.88,-247.605 1609.3,-246.892 1611.17,-253.64"/>
</g>
<!-- Node231 -->
<g id="node19" class="node"><title>Node231</title>
<g id="a_node19"><a xlink:href="namespacestats.html#af148eebdd4a419378daf0425678395c6" target="_top" xlink:title="Get weight matrix Mahalonobis for calculate dist induced &#160;&#160;. ">
<polygon fill="white" stroke="black" points="899,-190.5 899,-209.5 1042,-209.5 1042,-190.5 899,-190.5"/>
<text text-anchor="middle" x="970.5" y="-197.5" font-family="Helvetica,sans-Serif" font-size="10.00">stats::getMatrixMahalonobis</text>
</a>
</g>
</g>
<!-- Node230&#45;&gt;Node231 -->
<g id="edge23" class="edge"><title>Node230&#45;&gt;Node231</title>
<path fill="none" stroke="midnightblue" d="M837.165,-228.411C860.837,-223.329 890.108,-217.045 915.097,-211.68"/>
<polygon fill="midnightblue" stroke="midnightblue" points="916.114,-215.041 925.157,-209.52 914.645,-208.197 916.114,-215.041"/>
</g>
<!-- Node233 -->
<g id="node21" class="node"><title>Node233</title>
<g id="a_node21"><a xlink:href="classmat_1_1_matrix_row.html#a156313f6aa515994b76321ff03780b16" target="_top" xlink:title="mat::MatrixRow::print">
<polygon fill="white" stroke="black" points="1249,-228.5 1249,-247.5 1359,-247.5 1359,-228.5 1249,-228.5"/>
<text text-anchor="middle" x="1304" y="-235.5" font-family="Helvetica,sans-Serif" font-size="10.00">mat::MatrixRow::print</text>
</a>
</g>
</g>
<!-- Node230&#45;&gt;Node233 -->
<g id="edge40" class="edge"><title>Node230&#45;&gt;Node233</title>
<path fill="none" stroke="midnightblue" d="M854.587,-238C951.981,-238 1139.73,-238 1238.56,-238"/>
<polygon fill="midnightblue" stroke="midnightblue" points="1238.71,-241.5 1248.71,-238 1238.71,-234.5 1238.71,-241.5"/>
</g>
<!-- Node237 -->
<g id="node25" class="node"><title>Node237</title>
<g id="a_node25"><a xlink:href="classmat_1_1_matrix_row.html#a1070fba1c0ec0fbaa309f141817be412" target="_top" xlink:title="mat::MatrixRow::initialize">
<polygon fill="white" stroke="black" points="906.5,-266.5 906.5,-285.5 1034.5,-285.5 1034.5,-266.5 906.5,-266.5"/>
<text text-anchor="middle" x="970.5" y="-273.5" font-family="Helvetica,sans-Serif" font-size="10.00">mat::MatrixRow::initialize</text>
</a>
</g>
</g>
<!-- Node230&#45;&gt;Node237 -->
<g id="edge39" class="edge"><title>Node230&#45;&gt;Node237</title>
<path fill="none" stroke="midnightblue" d="M837.165,-247.589C860.837,-252.671 890.108,-258.955 915.097,-264.32"/>
<polygon fill="midnightblue" stroke="midnightblue" points="914.645,-267.803 925.157,-266.48 916.114,-260.959 914.645,-267.803"/>
</g>
<!-- Node231&#45;&gt;Node225 -->
<g id="edge29" class="edge"><title>Node231&#45;&gt;Node225</title>
<path fill="none" stroke="midnightblue" d="M898.607,-199.472C793.374,-200.053 590.167,-206.43 422,-243 401.409,-247.478 379.157,-255.486 361.812,-262.492"/>
<polygon fill="midnightblue" stroke="midnightblue" points="360.115,-259.407 352.216,-266.467 362.794,-265.874 360.115,-259.407"/>
</g>
<!-- Node232 -->
<g id="node20" class="node"><title>Node232</title>
<g id="a_node20"><a xlink:href="namespacemat.html#a13185fa17b186523e49b2afb2347c4de" target="_top" xlink:title="mat::inverse">
<polygon fill="white" stroke="black" points="1093.5,-190.5 1093.5,-209.5 1165.5,-209.5 1165.5,-190.5 1093.5,-190.5"/>
<text text-anchor="middle" x="1129.5" y="-197.5" font-family="Helvetica,sans-Serif" font-size="10.00">mat::inverse</text>
</a>
</g>
</g>
<!-- Node231&#45;&gt;Node232 -->
<g id="edge24" class="edge"><title>Node231&#45;&gt;Node232</title>
<path fill="none" stroke="midnightblue" d="M1042.19,-200C1056.05,-200 1070.24,-200 1083.01,-200"/>
<polygon fill="midnightblue" stroke="midnightblue" points="1083.36,-203.5 1093.36,-200 1083.36,-196.5 1083.36,-203.5"/>
</g>
<!-- Node235 -->
<g id="node23" class="node"><title>Node235</title>
<g id="a_node23"><a xlink:href="namespacestats.html#a09587632e3c4855da191bc7439c593f0" target="_top" xlink:title="Make a transformation to the instances. ">
<polygon fill="white" stroke="black" points="1087,-266.5 1087,-285.5 1172,-285.5 1172,-266.5 1087,-266.5"/>
<text text-anchor="middle" x="1129.5" y="-273.5" font-family="Helvetica,sans-Serif" font-size="10.00">stats::transform</text>
</a>
</g>
</g>
<!-- Node231&#45;&gt;Node235 -->
<g id="edge30" class="edge"><title>Node231&#45;&gt;Node235</title>
<path fill="none" stroke="midnightblue" d="M991.384,-209.625C1018.75,-222.874 1068.21,-246.813 1099.64,-262.031"/>
<polygon fill="midnightblue" stroke="midnightblue" points="1098.25,-265.246 1108.78,-266.453 1101.3,-258.945 1098.25,-265.246"/>
</g>
<!-- Node232&#45;&gt;Node227 -->
<g id="edge25" class="edge"><title>Node232&#45;&gt;Node227</title>
<path fill="none" stroke="midnightblue" d="M1141.99,-190.325C1157.84,-177.505 1187.75,-155.102 1217,-143 1327.81,-97.1503 1467.72,-93.3922 1558.72,-97.2519"/>
<polygon fill="midnightblue" stroke="midnightblue" points="1558.59,-100.75 1568.74,-97.7163 1558.91,-93.7572 1558.59,-100.75"/>
</g>
<!-- Node232&#45;&gt;Node228 -->
<g id="edge26" class="edge"><title>Node232&#45;&gt;Node228</title>
<path fill="none" stroke="midnightblue" d="M1165.59,-202.552C1246.63,-208.446 1448.79,-223.148 1565.72,-231.652"/>
<polygon fill="midnightblue" stroke="midnightblue" points="1565.49,-235.145 1575.72,-232.379 1566,-228.163 1565.49,-235.145"/>
</g>
<!-- Node232&#45;&gt;Node233 -->
<g id="edge27" class="edge"><title>Node232&#45;&gt;Node233</title>
<path fill="none" stroke="midnightblue" d="M1165.82,-207.782C1190.05,-213.119 1222.64,-220.297 1249.97,-226.317"/>
<polygon fill="midnightblue" stroke="midnightblue" points="1249.25,-229.744 1259.77,-228.478 1250.76,-222.908 1249.25,-229.744"/>
</g>
<!-- Node234 -->
<g id="node22" class="node"><title>Node234</title>
<g id="a_node22"><a xlink:href="classmat_1_1_matrix_row.html#a2879a2578666e3da78f3588e78b5e982" target="_top" xlink:title="mat::MatrixRow::toArray">
<polygon fill="white" stroke="black" points="1241.5,-152.5 1241.5,-171.5 1366.5,-171.5 1366.5,-152.5 1241.5,-152.5"/>
<text text-anchor="middle" x="1304" y="-159.5" font-family="Helvetica,sans-Serif" font-size="10.00">mat::MatrixRow::toArray</text>
</a>
</g>
</g>
<!-- Node232&#45;&gt;Node234 -->
<g id="edge28" class="edge"><title>Node232&#45;&gt;Node234</title>
<path fill="none" stroke="midnightblue" d="M1165.82,-192.218C1190.05,-186.881 1222.64,-179.703 1249.97,-173.683"/>
<polygon fill="midnightblue" stroke="midnightblue" points="1250.76,-177.092 1259.77,-171.522 1249.25,-170.256 1250.76,-177.092"/>
</g>
<!-- Node235&#45;&gt;Node215 -->
<g id="edge37" class="edge"><title>Node235&#45;&gt;Node215</title>
<path fill="none" stroke="midnightblue" d="M1135.66,-285.786C1159.72,-331.387 1260.99,-523.37 1293.15,-584.336"/>
<polygon fill="midnightblue" stroke="midnightblue" points="1290.1,-586.04 1297.86,-593.252 1296.29,-582.774 1290.1,-586.04"/>
</g>
<!-- Node235&#45;&gt;Node223 -->
<g id="edge31" class="edge"><title>Node235&#45;&gt;Node223</title>
<path fill="none" stroke="midnightblue" d="M1140.75,-266.216C1151.69,-255.397 1169.05,-237.093 1181,-219 1201.6,-187.812 1198.81,-175.652 1217,-143 1240.71,-100.424 1272.81,-53.0527 1290.32,-27.9327"/>
<polygon fill="midnightblue" stroke="midnightblue" points="1293.19,-29.9321 1296.07,-19.7348 1287.46,-25.9137 1293.19,-29.9321"/>
</g>
<!-- Node236 -->
<g id="node24" class="node"><title>Node236</title>
<g id="a_node24"><a xlink:href="namespaceinterfacesse.html#a20b4ab13ada231e7ba92e3d98c4cd602" target="_top" xlink:title="interfacesse::gemv">
<polygon fill="white" stroke="black" points="1252.5,-266.5 1252.5,-285.5 1355.5,-285.5 1355.5,-266.5 1252.5,-266.5"/>
<text text-anchor="middle" x="1304" y="-273.5" font-family="Helvetica,sans-Serif" font-size="10.00">interfacesse::gemv</text>
</a>
</g>
</g>
<!-- Node235&#45;&gt;Node236 -->
<g id="edge32" class="edge"><title>Node235&#45;&gt;Node236</title>
<path fill="none" stroke="midnightblue" d="M1172.26,-276C1193.28,-276 1219.15,-276 1242.32,-276"/>
<polygon fill="midnightblue" stroke="midnightblue" points="1242.4,-279.5 1252.4,-276 1242.4,-272.5 1242.4,-279.5"/>
</g>
<!-- Node236&#45;&gt;Node226 -->
<g id="edge33" class="edge"><title>Node236&#45;&gt;Node226</title>
<path fill="none" stroke="midnightblue" d="M1355.56,-270.138C1367.7,-267.324 1380.26,-263.16 1391,-257 1408.53,-246.948 1444.85,-204.153 1464.91,-179.568"/>
<polygon fill="midnightblue" stroke="midnightblue" points="1467.7,-181.688 1471.27,-171.715 1462.26,-177.282 1467.7,-181.688"/>
</g>
<!-- Node236&#45;&gt;Node227 -->
<g id="edge34" class="edge"><title>Node236&#45;&gt;Node227</title>
<path fill="none" stroke="midnightblue" d="M1355.57,-273.737C1368.41,-270.936 1381.3,-265.878 1391,-257 1430.19,-221.127 1386.91,-177.865 1427,-143 1462.73,-111.932 1514.07,-101.537 1558.8,-99.3078"/>
<polygon fill="midnightblue" stroke="midnightblue" points="1558.96,-102.804 1568.82,-98.9368 1558.7,-95.8091 1558.96,-102.804"/>
</g>
<!-- Node236&#45;&gt;Node228 -->
<g id="edge35" class="edge"><title>Node236&#45;&gt;Node228</title>
<path fill="none" stroke="midnightblue" d="M1355.74,-270.08C1377.65,-267.549 1403.58,-264.587 1427,-262 1472.74,-256.947 1523.71,-251.516 1565.66,-247.101"/>
<polygon fill="midnightblue" stroke="midnightblue" points="1566.26,-250.557 1575.84,-246.031 1565.53,-243.596 1566.26,-250.557"/>
</g>
<!-- Node236&#45;&gt;Node229 -->
<g id="edge36" class="edge"><title>Node236&#45;&gt;Node229</title>
<path fill="none" stroke="midnightblue" d="M1348.72,-285.548C1412.49,-299.475 1530.88,-325.331 1599.68,-340.355"/>
<polygon fill="midnightblue" stroke="midnightblue" points="1598.94,-343.776 1609.46,-342.491 1600.43,-336.937 1598.94,-343.776"/>
</g>
<!-- Node238&#45;&gt;Node214 -->
<g id="edge42" class="edge"><title>Node238&#45;&gt;Node214</title>
<path fill="none" stroke="midnightblue" d="M478.568,-399.684C490.929,-432.709 532.771,-540.029 562,-561 722.25,-675.975 978.066,-634.437 1082.17,-610.808"/>
<polygon fill="midnightblue" stroke="midnightblue" points="1083.1,-614.183 1092.05,-608.513 1081.52,-607.365 1083.1,-614.183"/>
</g>
<!-- Node238&#45;&gt;Node218 -->
<g id="edge46" class="edge"><title>Node238&#45;&gt;Node218</title>
<path fill="none" stroke="midnightblue" d="M518.694,-398.623C579.408,-409.834 692.849,-428 790.5,-428 790.5,-428 790.5,-428 1481,-428 1580.81,-428 1697.05,-428 1764.8,-428"/>
<polygon fill="midnightblue" stroke="midnightblue" points="1764.84,-431.5 1774.84,-428 1764.84,-424.5 1764.84,-431.5"/>
</g>
<!-- Node238&#45;&gt;Node227 -->
<g id="edge43" class="edge"><title>Node238&#45;&gt;Node227</title>
<path fill="none" stroke="midnightblue" d="M480.125,-380.279C494.952,-352.503 538.334,-273.711 562,-257 806.706,-84.2046 920,-137.123 1217,-98 1356.26,-79.6558 1392.71,-86.0031 1533,-93 1541.34,-93.416 1550,-93.9938 1558.67,-94.6728"/>
<polygon fill="midnightblue" stroke="midnightblue" points="1558.58,-98.1773 1568.83,-95.5127 1559.15,-91.201 1558.58,-98.1773"/>
</g>
<!-- Node238&#45;&gt;Node228 -->
<g id="edge44" class="edge"><title>Node238&#45;&gt;Node228</title>
<path fill="none" stroke="midnightblue" d="M518.694,-381.377C579.408,-370.166 692.849,-352 790.5,-352 790.5,-352 790.5,-352 1130.5,-352 1311.17,-352 1360.5,-348.74 1533,-295 1567.06,-284.388 1603.77,-265.789 1627.5,-252.73"/>
<polygon fill="midnightblue" stroke="midnightblue" points="1629.5,-255.619 1636.52,-247.683 1626.09,-249.509 1629.5,-255.619"/>
</g>
<!-- Node238&#45;&gt;Node229 -->
<g id="edge45" class="edge"><title>Node238&#45;&gt;Node229</title>
<path fill="none" stroke="midnightblue" d="M518.636,-390C579.52,-390 693.413,-390 790.5,-390 790.5,-390 790.5,-390 1305,-390 1404.78,-390 1519.7,-374.371 1589.31,-363.16"/>
<polygon fill="midnightblue" stroke="midnightblue" points="1589.94,-366.604 1599.25,-361.54 1588.81,-359.695 1589.94,-366.604"/>
</g>
<!-- Node239 -->
<g id="node27" class="node"><title>Node239</title>
<g id="a_node27"><a xlink:href="namespacestats.html#a6b3be9207e48f3af2c75ad45db17ac70" target="_top" xlink:title="Gets the sum of the difference of the instances with the mean and the result square. ">
<polygon fill="white" stroke="black" points="562,-532.5 562,-551.5 684,-551.5 684,-532.5 562,-532.5"/>
<text text-anchor="middle" x="623" y="-539.5" font-family="Helvetica,sans-Serif" font-size="10.00">stats::sumFeacturesSQ</text>
</a>
</g>
</g>
<!-- Node238&#45;&gt;Node239 -->
<g id="edge47" class="edge"><title>Node238&#45;&gt;Node239</title>
<path fill="none" stroke="midnightblue" d="M484.196,-399.508C508.532,-424.673 574.868,-493.265 605.764,-525.212"/>
<polygon fill="midnightblue" stroke="midnightblue" points="603.34,-527.74 612.808,-532.495 608.372,-522.874 603.34,-527.74"/>
</g>
<!-- Node239&#45;&gt;Node214 -->
<g id="edge51" class="edge"><title>Node239&#45;&gt;Node214</title>
<path fill="none" stroke="midnightblue" d="M667.326,-551.555C683.759,-554.921 702.682,-558.487 720,-561 842.776,-578.812 987.588,-589.977 1067.61,-595.295"/>
<polygon fill="midnightblue" stroke="midnightblue" points="1067.78,-598.813 1077.99,-595.976 1068.24,-591.828 1067.78,-598.813"/>
</g>
<!-- Node239&#45;&gt;Node222 -->
<g id="edge50" class="edge"><title>Node239&#45;&gt;Node222</title>
<path fill="none" stroke="midnightblue" d="M641.608,-551.683C698.098,-582.748 875.019,-680.042 942.753,-717.291"/>
<polygon fill="midnightblue" stroke="midnightblue" points="941.478,-720.584 951.927,-722.336 944.851,-714.451 941.478,-720.584"/>
</g>
<!-- Node240 -->
<g id="node28" class="node"><title>Node240</title>
<g id="a_node28"><a xlink:href="namespaceinterfacesse.html#aa4b94bf2bf8cb7c437fa3feba8b70ff8" target="_top" xlink:title="Initializes the array with a constant . ">
<polygon fill="white" stroke="black" points="918,-494.5 918,-513.5 1023,-513.5 1023,-494.5 918,-494.5"/>
<text text-anchor="middle" x="970.5" y="-501.5" font-family="Helvetica,sans-Serif" font-size="10.00">interfacesse::copya</text>
</a>
</g>
</g>
<!-- Node239&#45;&gt;Node240 -->
<g id="edge48" class="edge"><title>Node239&#45;&gt;Node240</title>
<path fill="none" stroke="midnightblue" d="M666.35,-532.486C682.999,-529.043 702.325,-525.413 720,-523 783.623,-514.313 856.957,-509.323 907.575,-506.657"/>
<polygon fill="midnightblue" stroke="midnightblue" points="907.894,-510.146 917.702,-506.139 907.537,-503.155 907.894,-510.146"/>
</g>
<!-- Node241 -->
<g id="node29" class="node"><title>Node241</title>
<g id="a_node29"><a xlink:href="namespacestats.html#a2f3cfb3a90ba9b5bdfe177054cdbde56" target="_top" xlink:title="Gets the sum of the difference of the instances with the mean and the result square. For instances frequently. ">
<polygon fill="white" stroke="black" points="720,-532.5 720,-551.5 863,-551.5 863,-532.5 720,-532.5"/>
<text text-anchor="middle" x="791.5" y="-539.5" font-family="Helvetica,sans-Serif" font-size="10.00">stats::sumFeacturesFreqSQ</text>
</a>
</g>
</g>
<!-- Node239&#45;&gt;Node241 -->
<g id="edge52" class="edge"><title>Node239&#45;&gt;Node241</title>
<path fill="none" stroke="midnightblue" d="M684.11,-542C692.479,-542 701.187,-542 709.857,-542"/>
<polygon fill="midnightblue" stroke="midnightblue" points="709.995,-545.5 719.995,-542 709.995,-538.5 709.995,-545.5"/>
</g>
<!-- Node240&#45;&gt;Node215 -->
<g id="edge49" class="edge"><title>Node240&#45;&gt;Node215</title>
<path fill="none" stroke="midnightblue" d="M1003.59,-513.582C1063.86,-531.583 1193.97,-570.439 1261.08,-590.48"/>
<polygon fill="midnightblue" stroke="midnightblue" points="1260.31,-593.904 1270.9,-593.412 1262.32,-587.197 1260.31,-593.904"/>
</g>
<!-- Node241&#45;&gt;Node214 -->
<g id="edge55" class="edge"><title>Node241&#45;&gt;Node214</title>
<path fill="none" stroke="midnightblue" d="M863.222,-543.756C913.627,-546.226 982.685,-552.101 1042,-566 1061.31,-570.525 1082.1,-578.354 1098.46,-585.252"/>
<polygon fill="midnightblue" stroke="midnightblue" points="1097.45,-588.629 1108.02,-589.388 1100.23,-582.205 1097.45,-588.629"/>
</g>
<!-- Node241&#45;&gt;Node222 -->
<g id="edge54" class="edge"><title>Node241&#45;&gt;Node222</title>
<path fill="none" stroke="midnightblue" d="M804.481,-551.566C818.928,-563.316 843.677,-584.141 863,-604 899.067,-641.068 936.737,-688.84 956.155,-714.252"/>
<polygon fill="midnightblue" stroke="midnightblue" points="953.395,-716.405 962.229,-722.253 958.97,-712.172 953.395,-716.405"/>
</g>
<!-- Node241&#45;&gt;Node240 -->
<g id="edge53" class="edge"><title>Node241&#45;&gt;Node240</title>
<path fill="none" stroke="midnightblue" d="M837.165,-532.411C860.837,-527.329 890.108,-521.045 915.097,-515.68"/>
<polygon fill="midnightblue" stroke="midnightblue" points="916.114,-519.041 925.157,-513.52 914.645,-512.197 916.114,-519.041"/>
</g>
<!-- Node242 -->
<g id="node30" class="node"><title>Node242</title>
<g id="a_node30"><a xlink:href="namespacestats.html#a27785e3066801ac0756112211985c941" target="_top" xlink:title="Obtain the standard deviation given the variance. ">
<polygon fill="white" stroke="black" points="917,-456.5 917,-475.5 1024,-475.5 1024,-456.5 917,-456.5"/>
<text text-anchor="middle" x="970.5" y="-463.5" font-family="Helvetica,sans-Serif" font-size="10.00">stats::varTodesvstd</text>
</a>
</g>
</g>
<!-- Node241&#45;&gt;Node242 -->
<g id="edge56" class="edge"><title>Node241&#45;&gt;Node242</title>
<path fill="none" stroke="midnightblue" d="M807.839,-532.34C828.068,-519.945 865.077,-498.444 899,-485 904.955,-482.64 911.306,-480.471 917.664,-478.51"/>
<polygon fill="midnightblue" stroke="midnightblue" points="918.991,-481.769 927.607,-475.603 917.026,-475.051 918.991,-481.769"/>
</g>
<!-- Node242&#45;&gt;Node213 -->
<g id="edge59" class="edge"><title>Node242&#45;&gt;Node213</title>
<path fill="none" stroke="midnightblue" d="M952.137,-456.492C889.692,-423.215 669.898,-314 475,-314 329,-314 329,-314 329,-314 107.369,-314 60.169,-695.979 52.0054,-788.159"/>
<polygon fill="midnightblue" stroke="midnightblue" points="48.5169,-787.877 51.1778,-798.132 55.4929,-788.456 48.5169,-787.877"/>
</g>
<!-- Node242&#45;&gt;Node214 -->
<g id="edge58" class="edge"><title>Node242&#45;&gt;Node214</title>
<path fill="none" stroke="midnightblue" d="M1022.94,-475.546C1029.66,-478.009 1036.22,-481.107 1042,-485 1078.57,-509.618 1106,-554.88 1119.39,-580.339"/>
<polygon fill="midnightblue" stroke="midnightblue" points="1116.32,-582.012 1123.97,-589.336 1122.56,-578.837 1116.32,-582.012"/>
</g>
<!-- Node242&#45;&gt;Node235 -->
<g id="edge57" class="edge"><title>Node242&#45;&gt;Node235</title>
<path fill="none" stroke="midnightblue" d="M979.501,-456.317C1004.48,-426.086 1081.29,-333.135 1113.76,-293.837"/>
<polygon fill="midnightblue" stroke="midnightblue" points="1116.65,-295.83 1120.33,-285.892 1111.26,-291.371 1116.65,-295.83"/>
</g>
<!-- Node243&#45;&gt;Node222 -->
<g id="edge61" class="edge"><title>Node243&#45;&gt;Node222</title>
<path fill="none" stroke="midnightblue" d="M837.165,-703.589C860.837,-708.671 890.108,-714.955 915.097,-720.32"/>
<polygon fill="midnightblue" stroke="midnightblue" points="914.645,-723.803 925.157,-722.48 916.114,-716.959 914.645,-723.803"/>
</g>
<!-- Node244 -->
<g id="node32" class="node"><title>Node244</title>
<g id="a_node32"><a xlink:href="namespacedata.html#a3a078a698c5523531c54df6716d86ceb" target="_top" xlink:title="Instaces matrix. ">
<polygon fill="white" stroke="black" points="1080.5,-665.5 1080.5,-684.5 1178.5,-684.5 1178.5,-665.5 1080.5,-665.5"/>
<text text-anchor="middle" x="1129.5" y="-672.5" font-family="Helvetica,sans-Serif" font-size="10.00">data::toMatrixRow</text>
</a>
</g>
</g>
<!-- Node243&#45;&gt;Node244 -->
<g id="edge62" class="edge"><title>Node243&#45;&gt;Node244</title>
<path fill="none" stroke="midnightblue" d="M854.128,-690.515C915.736,-687.031 1009.76,-681.714 1070.18,-678.298"/>
<polygon fill="midnightblue" stroke="midnightblue" points="1070.53,-681.784 1080.31,-677.725 1070.13,-674.795 1070.53,-681.784"/>
</g>
<!-- Node244&#45;&gt;Node215 -->
<g id="edge63" class="edge"><title>Node244&#45;&gt;Node215</title>
<path fill="none" stroke="midnightblue" d="M1153.41,-665.439C1183.44,-652.905 1236.29,-630.842 1270.47,-616.58"/>
<polygon fill="midnightblue" stroke="midnightblue" points="1272.12,-619.682 1280,-612.601 1269.42,-613.223 1272.12,-619.682"/>
</g>
<!-- Node246 -->
<g id="node34" class="node"><title>Node246</title>
<g id="a_node34"><a xlink:href="namespaceinterfacesse.html#ace6b5b44901bf38644ed492778c620f5" target="_top" xlink:title="For a matrix each items change for constant and a vector. ">
<polygon fill="white" stroke="black" points="567.5,-266.5 567.5,-285.5 678.5,-285.5 678.5,-266.5 567.5,-266.5"/>
<text text-anchor="middle" x="623" y="-273.5" font-family="Helvetica,sans-Serif" font-size="10.00">interfacesse::aasxpa</text>
</a>
</g>
</g>
<!-- Node245&#45;&gt;Node246 -->
<g id="edge65" class="edge"><title>Node245&#45;&gt;Node246</title>
<path fill="none" stroke="midnightblue" d="M526.001,-276C536.014,-276 546.644,-276 557.042,-276"/>
<polygon fill="midnightblue" stroke="midnightblue" points="557.332,-279.5 567.332,-276 557.332,-272.5 557.332,-279.5"/>
</g>
<!-- Node247 -->
<g id="node35" class="node"><title>Node247</title>
<g id="a_node35"><a xlink:href="namespaceinterfacesse.html#a0569818171fd8f88efe5d7f86e6e0b5d" target="_top" xlink:title="extension of xAXPY operation for T result ">
<polygon fill="white" stroke="black" points="736.5,-266.5 736.5,-285.5 846.5,-285.5 846.5,-266.5 736.5,-266.5"/>
<text text-anchor="middle" x="791.5" y="-273.5" font-family="Helvetica,sans-Serif" font-size="10.00">interfacesse::aysxpy</text>
</a>
</g>
</g>
<!-- Node246&#45;&gt;Node247 -->
<g id="edge66" class="edge"><title>Node246&#45;&gt;Node247</title>
<path fill="none" stroke="midnightblue" d="M678.518,-276C693.767,-276 710.481,-276 726.237,-276"/>
<polygon fill="midnightblue" stroke="midnightblue" points="726.428,-279.5 736.428,-276 726.428,-272.5 726.428,-279.5"/>
</g>
</g>
</svg>
