<?xml version="1.0" encoding="UTF-8" standalone="no"?>
<!DOCTYPE svg PUBLIC "-//W3C//DTD SVG 1.1//EN"
 "http://www.w3.org/Graphics/SVG/1.1/DTD/svg11.dtd">
<!-- Generated by graphviz version 2.38.0 (20140413.2041)
 -->
<!-- Title: dist::kernelEuclidean Pages: 1 -->
<svg width="303pt" height="28pt"
 viewBox="0.00 0.00 303.00 28.00" xmlns="http://www.w3.org/2000/svg" xmlns:xlink="http://www.w3.org/1999/xlink">
<g id="graph0" class="graph" transform="scale(1 1) rotate(0) translate(4 24)">
<title>dist::kernelEuclidean</title>
<polygon fill="white" stroke="none" points="-4,4 -4,-24 299,-24 299,4 -4,4"/>
<!-- Node5 -->
<g id="node1" class="node"><title>Node5</title>
<polygon fill="#bfbfbf" stroke="black" points="0,-0.5 0,-19.5 110,-19.5 110,-0.5 0,-0.5"/>
<text text-anchor="middle" x="55" y="-7.5" font-family="Helvetica,sans-Serif" font-size="10.00">dist::kernelEuclidean</text>
</g>
<!-- Node6 -->
<g id="node2" class="node"><title>Node6</title>
<g id="a_node2"><a xlink:href="namespacedist.html#a7fc2d2b171f5568e3296e28e724ff142" target="_top" xlink:title="Gets the square Euclidean distance of two double n&#45;dimensional points with SSE. ">
<polygon fill="white" stroke="black" points="146,-0.5 146,-19.5 295,-19.5 295,-0.5 146,-0.5"/>
<text text-anchor="middle" x="220.5" y="-7.5" font-family="Helvetica,sans-Serif" font-size="10.00">dist::kernelEuclideanSquared</text>
</a>
</g>
</g>
<!-- Node5&#45;&gt;Node6 -->
<g id="edge1" class="edge"><title>Node5&#45;&gt;Node6</title>
<path fill="none" stroke="midnightblue" d="M110.443,-3.59648C118.589,-3.38231 127.143,-3.26743 135.727,-3.25184"/>
<polygon fill="midnightblue" stroke="midnightblue" points="135.786,-6.75191 145.795,-3.27914 135.805,0.248065 135.786,-6.75191"/>
</g>
<!-- Node6&#45;&gt;Node5 -->
<g id="edge2" class="edge"><title>Node6&#45;&gt;Node5</title>
<path fill="none" stroke="midnightblue" d="M145.795,-16.7209C137.339,-16.7823 128.766,-16.7466 120.445,-16.6137"/>
<polygon fill="midnightblue" stroke="midnightblue" points="120.515,-13.1145 110.443,-16.4035 120.367,-20.113 120.515,-13.1145"/>
</g>
</g>
</svg>
