<?xml version="1.0" encoding="UTF-8" standalone="no"?>
<!DOCTYPE svg PUBLIC "-//W3C//DTD SVG 1.1//EN"
 "http://www.w3.org/Graphics/SVG/1.1/DTD/svg11.dtd">
<!-- Generated by graphviz version 2.38.0 (20140413.2041)
 -->
<!-- Title: um::simplifiedDunnIndex Pages: 1 -->
<!--zoomable 397 -->
<svg id="main" version="1.1" xmlns="http://www.w3.org/2000/svg" xmlns:xlink="http://www.w3.org/1999/xlink" xml:space="preserve" onload="init(evt)">
<style type="text/css"><![CDATA[
.edge:hover path { stroke: red; }
.edge:hover polygon { stroke: red; fill: red; }
]]></style>
<script type="text/javascript"><![CDATA[
var edges = document.getElementsByTagName('g');
if (edges && edges.length) {
  for (var i=0;i<edges.length;i++) {
    if (edges[i].id.substr(0,4)=='edge') {
      edges[i].setAttribute('class','edge');
    }
  }
}
]]></script>
        <defs>
                <circle id="rim" cx="0" cy="0" r="7"/>
                <circle id="rim2" cx="0" cy="0" r="3.5"/>
                <g id="zoomPlus">
                        <use xlink:href="#rim" fill="#404040">
                                <set attributeName="fill" to="#808080" begin="zoomplus.mouseover" end="zoomplus.mouseout"/>
                        </use>
                        <path d="M-4,0h8M0,-4v8" fill="none" stroke="white" stroke-width="1.5" pointer-events="none"/>
                </g>
                <g id="zoomMin">
                        <use xlink:href="#rim" fill="#404040">
                                <set attributeName="fill" to="#808080" begin="zoomminus.mouseover" end="zoomminus.mouseout"/>
                        </use>
                        <path d="M-4,0h8" fill="none" stroke="white" stroke-width="1.5" pointer-events="none"/>
                </g>
                <g id="dirArrow">
                        <path fill="none" stroke="white" stroke-width="1.5" d="M0,-3.0v7 M-2.5,-0.5L0,-3.0L2.5,-0.5"/>
                </g>
               <g id="resetDef">
                       <use xlink:href="#rim2" fill="#404040">
                               <set attributeName="fill" to="#808080" begin="reset.mouseover" end="reset.mouseout"/>
                       </use>
               </g>
        </defs>

<script type="text/javascript">
var viewWidth = 511;
var viewHeight = 397;
var sectionId = 'dynsection-33';
</script>
<script xlink:href="svgpan.js"/>
<svg id="graph" class="graph">
<g id="viewport">
<title>um::simplifiedDunnIndex</title>
<polygon fill="white" stroke="none" points="-4,4 -4,-393 507,-393 507,4 -4,4"/>
<!-- Node283 -->
<g id="node1" class="node"><title>Node283</title>
<g id="a_node1"><a xlink:title="The Simplified Dunn Index (SDI)">
<polygon fill="#bfbfbf" stroke="black" points="0,-301 0,-320 126,-320 126,-301 0,-301"/>
<text text-anchor="middle" x="63" y="-308" font-family="Helvetica,sans-Serif" font-size="10.00">um::simplifiedDunnIndex</text>
</a>
</g>
</g>
<!-- Node284 -->
<g id="node2" class="node"><title>Node284</title>
<g id="a_node2"><a xlink:href="classds_1_1_partition_linked.html#a696f58c4d25fd41adf281d1468440dc9" target="_top" xlink:title=" ">
<polygon fill="white" stroke="black" points="177.5,-358.5 177.5,-388.5 277.5,-388.5 277.5,-358.5 177.5,-358.5"/>
<text text-anchor="start" x="185.5" y="-376.5" font-family="Helvetica,sans-Serif" font-size="10.00">ds::PartitionLinked</text>
<text text-anchor="middle" x="227.5" y="-365.5" font-family="Helvetica,sans-Serif" font-size="10.00">::getNumPartitions</text>
</a>
</g>
</g>
<!-- Node283&#45;&gt;Node284 -->
<g id="edge1" class="edge"><title>Node283&#45;&gt;Node284</title>
<path fill="none" stroke="midnightblue" d="M88.6803,-320.068C112.292,-329.222 148.557,-343.282 177.961,-354.682"/>
<polygon fill="midnightblue" stroke="midnightblue" points="177.053,-358.083 187.642,-358.435 179.583,-351.557 177.053,-358.083"/>
</g>
<!-- Node285 -->
<g id="node3" class="node"><title>Node285</title>
<g id="a_node3"><a xlink:href="classmat_1_1_matrix_base.html#ae3b1c4b8e9cb7e7685d7bc129f875dcd" target="_top" xlink:title=" ">
<polygon fill="white" stroke="black" points="162,-320 162,-339 293,-339 293,-320 162,-320"/>
<text text-anchor="middle" x="227.5" y="-327" font-family="Helvetica,sans-Serif" font-size="10.00">mat::MatrixBase::getRow</text>
</a>
</g>
</g>
<!-- Node283&#45;&gt;Node285 -->
<g id="edge2" class="edge"><title>Node283&#45;&gt;Node285</title>
<path fill="none" stroke="midnightblue" d="M126.362,-317.792C134.725,-318.769 143.371,-319.78 151.917,-320.78"/>
<polygon fill="midnightblue" stroke="midnightblue" points="151.543,-324.26 161.882,-321.945 152.356,-317.307 151.543,-324.26"/>
</g>
<!-- Node286 -->
<g id="node4" class="node"><title>Node286</title>
<g id="a_node4"><a xlink:href="namespaceum.html#a3b1be7542cfeaffb6040f73e0e3c8054" target="_top" xlink:title=" ">
<polygon fill="white" stroke="black" points="180.5,-282 180.5,-301 274.5,-301 274.5,-282 180.5,-282"/>
<text text-anchor="middle" x="227.5" y="-289" font-family="Helvetica,sans-Serif" font-size="10.00">um::minDistCjCjp</text>
</a>
</g>
</g>
<!-- Node283&#45;&gt;Node286 -->
<g id="edge3" class="edge"><title>Node283&#45;&gt;Node286</title>
<path fill="none" stroke="midnightblue" d="M126.362,-303.208C140.839,-301.516 156.162,-299.724 170.352,-298.065"/>
<polygon fill="midnightblue" stroke="midnightblue" points="170.931,-301.521 180.457,-296.884 170.118,-294.569 170.931,-301.521"/>
</g>
<!-- Node290 -->
<g id="node8" class="node"><title>Node290</title>
<g id="a_node8"><a xlink:href="namespaceum.html#acbada65717c92ac0a22d2f71c61526d1" target="_top" xlink:title="Radius of Clusterj.">
<polygon fill="white" stroke="black" points="175.5,-137 175.5,-156 279.5,-156 279.5,-137 175.5,-137"/>
<text text-anchor="middle" x="227.5" y="-144" font-family="Helvetica,sans-Serif" font-size="10.00">um::radiusClusterKj</text>
</a>
</g>
</g>
<!-- Node283&#45;&gt;Node290 -->
<g id="edge7" class="edge"><title>Node283&#45;&gt;Node290</title>
<path fill="none" stroke="midnightblue" d="M73.6785,-300.732C100.499,-273.664 176.019,-197.447 209.802,-163.352"/>
<polygon fill="midnightblue" stroke="midnightblue" points="212.523,-165.578 217.076,-156.011 207.551,-160.651 212.523,-165.578"/>
</g>
<!-- Node287 -->
<g id="node5" class="node"><title>Node287</title>
<g id="a_node5"><a xlink:href="classmat_1_1_matrix_base.html#a70200414022ce1479b9ddc16102b12ae" target="_top" xlink:title=" ">
<polygon fill="white" stroke="black" points="331,-339 331,-358 501,-358 501,-339 331,-339"/>
<text text-anchor="middle" x="416" y="-346" font-family="Helvetica,sans-Serif" font-size="10.00">mat::MatrixBase::getNumColumns</text>
</a>
</g>
</g>
<!-- Node286&#45;&gt;Node287 -->
<g id="edge4" class="edge"><title>Node286&#45;&gt;Node287</title>
<path fill="none" stroke="midnightblue" d="M265.434,-301.006C274.566,-303.73 284.24,-306.94 293,-310.5 309.76,-317.312 312.015,-323.27 329,-329.5 336.087,-332.099 343.639,-334.403 351.212,-336.427"/>
<polygon fill="midnightblue" stroke="midnightblue" points="350.592,-339.88 361.144,-338.93 352.303,-333.093 350.592,-339.88"/>
</g>
<!-- Node288 -->
<g id="node6" class="node"><title>Node288</title>
<g id="a_node6"><a xlink:href="classmat_1_1_matrix_base.html#ac500eedd5e203327d3292f8ab22d8f3e" target="_top" xlink:title=" ">
<polygon fill="white" stroke="black" points="338,-301 338,-320 494,-320 494,-301 338,-301"/>
<text text-anchor="middle" x="416" y="-308" font-family="Helvetica,sans-Serif" font-size="10.00">mat::MatrixBase::getNumRows</text>
</a>
</g>
</g>
<!-- Node286&#45;&gt;Node288 -->
<g id="edge5" class="edge"><title>Node286&#45;&gt;Node288</title>
<path fill="none" stroke="midnightblue" d="M274.601,-296.197C290.71,-297.838 309.367,-299.738 327.715,-301.608"/>
<polygon fill="midnightblue" stroke="midnightblue" points="327.555,-305.109 337.858,-302.641 328.264,-298.145 327.555,-305.109"/>
</g>
<!-- Node289 -->
<g id="node7" class="node"><title>Node289</title>
<g id="a_node7"><a xlink:href="classmat_1_1_matrix_row.html#a5391a205367fbaac82a26ddc377a80af" target="_top" xlink:title=" ">
<polygon fill="white" stroke="black" points="352.5,-263 352.5,-282 479.5,-282 479.5,-263 352.5,-263"/>
<text text-anchor="middle" x="416" y="-270" font-family="Helvetica,sans-Serif" font-size="10.00">mat::MatrixRow::getRow</text>
</a>
</g>
</g>
<!-- Node286&#45;&gt;Node289 -->
<g id="edge6" class="edge"><title>Node286&#45;&gt;Node289</title>
<path fill="none" stroke="midnightblue" d="M274.601,-286.803C294.991,-284.726 319.462,-282.233 342.222,-279.914"/>
<polygon fill="midnightblue" stroke="midnightblue" points="342.601,-283.394 352.195,-278.898 341.891,-276.43 342.601,-283.394"/>
</g>
<!-- Node291 -->
<g id="node9" class="node"><title>Node291</title>
<g id="a_node9"><a xlink:href="classds_1_1_iterator_partition_linked.html#ad171cb96653fadaec272389381a4f8b4" target="_top" xlink:title=" ">
<polygon fill="white" stroke="black" points="350.5,-213.5 350.5,-243.5 481.5,-243.5 481.5,-213.5 350.5,-213.5"/>
<text text-anchor="start" x="358.5" y="-231.5" font-family="Helvetica,sans-Serif" font-size="10.00">ds::IteratorPartitionLinked</text>
<text text-anchor="middle" x="416" y="-220.5" font-family="Helvetica,sans-Serif" font-size="10.00">::begin</text>
</a>
</g>
</g>
<!-- Node290&#45;&gt;Node291 -->
<g id="edge8" class="edge"><title>Node290&#45;&gt;Node291</title>
<path fill="none" stroke="midnightblue" d="M242.931,-156.12C261.972,-168.472 296.845,-189.927 329,-203.5 334.506,-205.824 340.298,-208.014 346.164,-210.057"/>
<polygon fill="midnightblue" stroke="midnightblue" points="345.479,-213.518 356.072,-213.356 347.69,-206.876 345.479,-213.518"/>
</g>
<!-- Node292 -->
<g id="node10" class="node"><title>Node292</title>
<g id="a_node10"><a xlink:href="classds_1_1_iterator_partition_linked.html#af0e179fae69c0d4f047082ee44783613" target="_top" xlink:title=" ">
<polygon fill="white" stroke="black" points="339,-175 339,-194 493,-194 493,-175 339,-175"/>
<text text-anchor="middle" x="416" y="-182" font-family="Helvetica,sans-Serif" font-size="10.00">ds::IteratorPartitionLinked::end</text>
</a>
</g>
</g>
<!-- Node290&#45;&gt;Node292 -->
<g id="edge9" class="edge"><title>Node290&#45;&gt;Node292</title>
<path fill="none" stroke="midnightblue" d="M275.562,-156.089C300.727,-161.216 331.896,-167.567 358.379,-172.963"/>
<polygon fill="midnightblue" stroke="midnightblue" points="357.779,-176.413 368.277,-174.98 359.177,-169.554 357.779,-176.413"/>
</g>
<!-- Node293 -->
<g id="node11" class="node"><title>Node293</title>
<g id="a_node11"><a xlink:href="classdata_1_1_instance.html#aa6ee19c383a86228b3d134e42bdb6830" target="_top" xlink:title=" ">
<polygon fill="white" stroke="black" points="346,-137 346,-156 486,-156 486,-137 346,-137"/>
<text text-anchor="middle" x="416" y="-144" font-family="Helvetica,sans-Serif" font-size="10.00">data::Instance::getFeatures</text>
</a>
</g>
</g>
<!-- Node290&#45;&gt;Node293 -->
<g id="edge10" class="edge"><title>Node290&#45;&gt;Node293</title>
<path fill="none" stroke="midnightblue" d="M279.956,-146.5C297.229,-146.5 316.914,-146.5 335.811,-146.5"/>
<polygon fill="midnightblue" stroke="midnightblue" points="335.905,-150 345.905,-146.5 335.905,-143 335.905,-150"/>
</g>
<!-- Node294 -->
<g id="node12" class="node"><title>Node294</title>
<g id="a_node12"><a xlink:href="classdata_1_1_instance.html#a90d1eaeb66cc1470bbfdb95434fdb761" target="_top" xlink:title=" ">
<polygon fill="white" stroke="black" points="329,-99 329,-118 503,-118 503,-99 329,-99"/>
<text text-anchor="middle" x="416" y="-106" font-family="Helvetica,sans-Serif" font-size="10.00">data::Instance::getNumDimensions</text>
</a>
</g>
</g>
<!-- Node290&#45;&gt;Node294 -->
<g id="edge11" class="edge"><title>Node290&#45;&gt;Node294</title>
<path fill="none" stroke="midnightblue" d="M275.562,-136.911C300.727,-131.784 331.896,-125.433 358.379,-120.037"/>
<polygon fill="midnightblue" stroke="midnightblue" points="359.177,-123.446 368.277,-118.02 357.779,-116.587 359.177,-123.446"/>
</g>
<!-- Node295 -->
<g id="node13" class="node"><title>Node295</title>
<g id="a_node13"><a xlink:href="classds_1_1_iterator_partition_linked.html#a1a031c033d0d2d1c6982ced4e0473831" target="_top" xlink:title=" ">
<polygon fill="white" stroke="black" points="350.5,-49.5 350.5,-79.5 481.5,-79.5 481.5,-49.5 350.5,-49.5"/>
<text text-anchor="start" x="358.5" y="-67.5" font-family="Helvetica,sans-Serif" font-size="10.00">ds::IteratorPartitionLinked</text>
<text text-anchor="middle" x="416" y="-56.5" font-family="Helvetica,sans-Serif" font-size="10.00">::getValue</text>
</a>
</g>
</g>
<!-- Node290&#45;&gt;Node295 -->
<g id="edge12" class="edge"><title>Node290&#45;&gt;Node295</title>
<path fill="none" stroke="midnightblue" d="M242.931,-136.88C261.972,-124.528 296.845,-103.073 329,-89.5 334.506,-87.1759 340.298,-84.9861 346.164,-82.9426"/>
<polygon fill="midnightblue" stroke="midnightblue" points="347.69,-86.1237 356.072,-79.644 345.479,-79.4821 347.69,-86.1237"/>
</g>
<!-- Node296 -->
<g id="node14" class="node"><title>Node296</title>
<g id="a_node14"><a xlink:href="classds_1_1_iterator_partition_linked.html#a83b887be41c97dc0bdfc47a02abbc383" target="_top" xlink:title=" ">
<polygon fill="white" stroke="black" points="350.5,-0.5 350.5,-30.5 481.5,-30.5 481.5,-0.5 350.5,-0.5"/>
<text text-anchor="start" x="358.5" y="-18.5" font-family="Helvetica,sans-Serif" font-size="10.00">ds::IteratorPartitionLinked</text>
<text text-anchor="middle" x="416" y="-7.5" font-family="Helvetica,sans-Serif" font-size="10.00">::next</text>
</a>
</g>
</g>
<!-- Node290&#45;&gt;Node296 -->
<g id="edge13" class="edge"><title>Node290&#45;&gt;Node296</title>
<path fill="none" stroke="midnightblue" d="M234.82,-136.982C249.083,-116.249 285.911,-66.7682 329,-40.5 332.838,-38.1605 336.905,-36.0306 341.102,-34.0927"/>
<polygon fill="midnightblue" stroke="midnightblue" points="342.6,-37.2596 350.455,-30.1505 339.881,-30.8091 342.6,-37.2596"/>
</g>
</g>
</svg>
        <g id="navigator" transform="translate(0 0)" fill="#404254">
                <rect fill="#f2f5e9" fill-opacity="0.5" stroke="#606060" stroke-width=".5" x="0" y="0" width="60" height="60"/>
                <use id="zoomplus" xlink:href="#zoomPlus" x="17" y="9" onmousedown="handleZoom(evt,'in')"/>
                <use id="zoomminus" xlink:href="#zoomMin" x="42" y="9" onmousedown="handleZoom(evt,'out')"/>
                <use id="reset" xlink:href="#resetDef" x="30" y="36" onmousedown="handleReset()"/>
                <g id="arrowUp" xlink:href="#dirArrow" transform="translate(30 24)" onmousedown="handlePan(0,-1)">
                  <use xlink:href="#rim" fill="#404040">
                        <set attributeName="fill" to="#808080" begin="arrowUp.mouseover" end="arrowUp.mouseout"/>
                  </use>
                  <path fill="none" stroke="white" stroke-width="1.5" d="M0,-3.0v7 M-2.5,-0.5L0,-3.0L2.5,-0.5"/>
                </g>
                <g id="arrowRight" xlink:href="#dirArrow" transform="rotate(90) translate(36 -43)" onmousedown="handlePan(1,0)">
                  <use xlink:href="#rim" fill="#404040">
                        <set attributeName="fill" to="#808080" begin="arrowRight.mouseover" end="arrowRight.mouseout"/>
                  </use>
                  <path fill="none" stroke="white" stroke-width="1.5" d="M0,-3.0v7 M-2.5,-0.5L0,-3.0L2.5,-0.5"/>
                </g>
                <g id="arrowDown" xlink:href="#dirArrow" transform="rotate(180) translate(-30 -48)" onmousedown="handlePan(0,1)">
                  <use xlink:href="#rim" fill="#404040">
                        <set attributeName="fill" to="#808080" begin="arrowDown.mouseover" end="arrowDown.mouseout"/>
                  </use>
                  <path fill="none" stroke="white" stroke-width="1.5" d="M0,-3.0v7 M-2.5,-0.5L0,-3.0L2.5,-0.5"/>
                </g>
                <g id="arrowLeft" xlink:href="#dirArrow" transform="rotate(270) translate(-36 17)" onmousedown="handlePan(-1,0)">
                  <use xlink:href="#rim" fill="#404040">
                        <set attributeName="fill" to="#808080" begin="arrowLeft.mouseover" end="arrowLeft.mouseout"/>
                  </use>
                  <path fill="none" stroke="white" stroke-width="1.5" d="M0,-3.0v7 M-2.5,-0.5L0,-3.0L2.5,-0.5"/>
                </g>
        </g>
        <svg viewBox="0 0 15 15" width="100%" height="30px" preserveAspectRatio="xMaxYMin meet">
         <g id="arrow_out" transform="scale(0.3 0.3)">
          <a xlink:href="namespaceum_aaf89404618e7aef4f4bd8398118c70b8_cgraph_org.svg" target="_base">
           <rect id="button" ry="5" rx="5" y="6" x="6" height="38" width="38"
                fill="#f2f5e9" fill-opacity="0.5" stroke="#606060" stroke-width="1.0"/>
           <path id="arrow"
             d="M 11.500037,31.436501 C 11.940474,20.09759 22.043105,11.32322 32.158766,21.979434 L 37.068811,17.246167 C 37.068811,17.246167 37.088388,32 37.088388,32 L 22.160133,31.978069 C 22.160133,31.978069 26.997745,27.140456 26.997745,27.140456 C 18.528582,18.264221 13.291696,25.230495 11.500037,31.436501 z"
             style="fill:#404040;"/>
          </a>
         </g>
        </svg>
</svg>
