<?xml version="1.0" encoding="UTF-8" standalone="no"?>
<!DOCTYPE svg PUBLIC "-//W3C//DTD SVG 1.1//EN"
 "http://www.w3.org/Graphics/SVG/1.1/DTD/svg11.dtd">
<!-- Generated by graphviz version 2.38.0 (20140413.2041)
 -->
<!-- Title: gabinaryop::onePointDistCrossover Pages: 1 -->
<svg width="705pt" height="336pt"
 viewBox="0.00 0.00 705.00 335.50" xmlns="http://www.w3.org/2000/svg" xmlns:xlink="http://www.w3.org/1999/xlink">
<g id="graph0" class="graph" transform="scale(1 1) rotate(0) translate(4 331.5)">
<title>gabinaryop::onePointDistCrossover</title>
<polygon fill="white" stroke="none" points="-4,4 -4,-331.5 701,-331.5 701,4 -4,4"/>
<!-- Node50 -->
<g id="node1" class="node"><title>Node50</title>
<g id="a_node1"><a xlink:title=" ">
<polygon fill="#bfbfbf" stroke="black" points="0,-245.5 0,-275.5 130,-275.5 130,-245.5 0,-245.5"/>
<text text-anchor="start" x="8" y="-263.5" font-family="Helvetica,sans-Serif" font-size="10.00">gabinaryop::onePointDist</text>
<text text-anchor="middle" x="65" y="-252.5" font-family="Helvetica,sans-Serif" font-size="10.00">Crossover</text>
</a>
</g>
</g>
<!-- Node51 -->
<g id="node2" class="node"><title>Node51</title>
<g id="a_node2"><a xlink:href="classmat_1_1_bit_matrix.html#aaa0899f4925f797ed21c74828cb5a36e" target="_top" xlink:title=" ">
<polygon fill="white" stroke="black" points="171,-194 171,-213 311,-213 311,-194 171,-194"/>
<text text-anchor="middle" x="241" y="-201" font-family="Helvetica,sans-Serif" font-size="10.00">mat::BitMatrix::copyAligned</text>
</a>
</g>
</g>
<!-- Node50&#45;&gt;Node51 -->
<g id="edge1" class="edge"><title>Node50&#45;&gt;Node51</title>
<path fill="none" stroke="midnightblue" d="M112.172,-245.375C139.937,-236.279 174.876,-224.834 201.206,-216.208"/>
<polygon fill="midnightblue" stroke="midnightblue" points="202.43,-219.491 210.843,-213.051 200.251,-212.838 202.43,-219.491"/>
</g>
<!-- Node52 -->
<g id="node3" class="node"><title>Node52</title>
<g id="a_node3"><a xlink:href="classmat_1_1_bit_matrix.html#ab66a697bd20fd702cb32494da920b1af" target="_top" xlink:title=" ">
<polygon fill="white" stroke="black" points="377,-251 377,-270 478,-270 478,-251 377,-251"/>
<text text-anchor="middle" x="427.5" y="-258" font-family="Helvetica,sans-Serif" font-size="10.00">mat::BitMatrix::print</text>
</a>
</g>
</g>
<!-- Node50&#45;&gt;Node52 -->
<g id="edge19" class="edge"><title>Node50&#45;&gt;Node52</title>
<path fill="none" stroke="midnightblue" d="M130.035,-260.5C197.062,-260.5 301.466,-260.5 366.818,-260.5"/>
<polygon fill="midnightblue" stroke="midnightblue" points="366.96,-264 376.96,-260.5 366.96,-257 366.96,-264"/>
</g>
<!-- Node53 -->
<g id="node4" class="node"><title>Node53</title>
<g id="a_node4"><a xlink:href="classmat_1_1_bit_matrix.html#acb0438a8816d82379fab71120540fcd1" target="_top" xlink:title=" ">
<polygon fill="white" stroke="black" points="539,-308 539,-327 697,-327 697,-308 539,-308"/>
<text text-anchor="middle" x="618" y="-315" font-family="Helvetica,sans-Serif" font-size="10.00">mat::BitMatrix::getNumColumns</text>
</a>
</g>
</g>
<!-- Node50&#45;&gt;Node53 -->
<g id="edge15" class="edge"><title>Node50&#45;&gt;Node53</title>
<path fill="none" stroke="midnightblue" d="M103.837,-275.624C122.285,-282.312 144.979,-289.545 166,-293.5 290.408,-316.905 437.273,-320.334 528.79,-319.675"/>
<polygon fill="midnightblue" stroke="midnightblue" points="528.877,-323.174 538.845,-319.584 528.814,-316.175 528.877,-323.174"/>
</g>
<!-- Node54 -->
<g id="node5" class="node"><title>Node54</title>
<g id="a_node5"><a xlink:href="classmat_1_1_bit_matrix.html#ae23601eca8a5adfbed3749b163f0d5d6" target="_top" xlink:title=" ">
<polygon fill="white" stroke="black" points="546.5,-263 546.5,-282 689.5,-282 689.5,-263 546.5,-263"/>
<text text-anchor="middle" x="618" y="-270" font-family="Helvetica,sans-Serif" font-size="10.00">mat::BitMatrix::getNumRows</text>
</a>
</g>
</g>
<!-- Node50&#45;&gt;Node54 -->
<g id="edge16" class="edge"><title>Node50&#45;&gt;Node54</title>
<path fill="none" stroke="midnightblue" d="M130.165,-270.568C142.053,-272.125 154.382,-273.534 166,-274.5 315.279,-286.917 353.276,-284.092 503,-279.5 513.774,-279.17 525.112,-278.664 536.29,-278.072"/>
<polygon fill="midnightblue" stroke="midnightblue" points="536.698,-281.555 546.489,-277.507 536.311,-274.566 536.698,-281.555"/>
</g>
<!-- Node63 -->
<g id="node14" class="node"><title>Node63</title>
<g id="a_node14"><a xlink:href="namespaceprob.html#a736bde3100258c3c2d13ebfe2b6746f8" target="_top" xlink:title="Get two random number diferent in order.">
<polygon fill="white" stroke="black" points="166,-99 166,-118 316,-118 316,-99 166,-99"/>
<text text-anchor="middle" x="241" y="-106" font-family="Helvetica,sans-Serif" font-size="10.00">prob::getRandPairUnlikeInOrd</text>
</a>
</g>
</g>
<!-- Node50&#45;&gt;Node63 -->
<g id="edge17" class="edge"><title>Node50&#45;&gt;Node63</title>
<path fill="none" stroke="midnightblue" d="M83.3199,-245.37C116.127,-216.711 187.084,-154.726 221.086,-125.023"/>
<polygon fill="midnightblue" stroke="midnightblue" points="223.66,-127.422 228.888,-118.207 219.054,-122.15 223.66,-127.422"/>
</g>
<!-- Node51&#45;&gt;Node52 -->
<g id="edge2" class="edge"><title>Node51&#45;&gt;Node52</title>
<path fill="none" stroke="midnightblue" d="M272.881,-213.041C303.879,-222.617 351.795,-237.421 385.864,-247.946"/>
<polygon fill="midnightblue" stroke="midnightblue" points="384.931,-251.321 395.518,-250.928 386.997,-244.632 384.931,-251.321"/>
</g>
<!-- Node51&#45;&gt;Node54 -->
<g id="edge14" class="edge"><title>Node51&#45;&gt;Node54</title>
<path fill="none" stroke="midnightblue" d="M311.045,-210.177C364.025,-216.11 438.735,-226.238 503,-241.5 519.409,-245.397 522.793,-248.834 539,-253.5 547.466,-255.938 556.507,-258.33 565.322,-260.551"/>
<polygon fill="midnightblue" stroke="midnightblue" points="564.589,-263.975 575.137,-262.978 566.27,-257.179 564.589,-263.975"/>
</g>
<!-- Node55 -->
<g id="node6" class="node"><title>Node55</title>
<g id="a_node6"><a xlink:href="classmat_1_1_bit_matrix.html#a5607bb84d71c58751390be62e798dd11" target="_top" xlink:title=" ">
<polygon fill="white" stroke="black" points="559,-225 559,-244 677,-244 677,-225 559,-225"/>
<text text-anchor="middle" x="618" y="-232" font-family="Helvetica,sans-Serif" font-size="10.00">mat::BitMatrix::getRow</text>
</a>
</g>
</g>
<!-- Node51&#45;&gt;Node55 -->
<g id="edge7" class="edge"><title>Node51&#45;&gt;Node55</title>
<path fill="none" stroke="midnightblue" d="M311.236,-200.979C363.995,-199.988 438.333,-200.591 503,-208.5 515.808,-210.066 544.007,-216.489 569.153,-222.558"/>
<polygon fill="midnightblue" stroke="midnightblue" points="568.419,-225.981 578.962,-224.944 570.073,-219.179 568.419,-225.981"/>
</g>
<!-- Node56 -->
<g id="node7" class="node"><title>Node56</title>
<g id="a_node7"><a xlink:href="classds_1_1_bit_container.html#a8c05ab649dca2fc2c0e62aba6e24d7a9" target="_top" xlink:title=" ">
<polygon fill="white" stroke="black" points="361.5,-137 361.5,-156 493.5,-156 493.5,-137 361.5,-137"/>
<text text-anchor="middle" x="427.5" y="-144" font-family="Helvetica,sans-Serif" font-size="10.00">ds::BitContainer::setArray</text>
</a>
</g>
</g>
<!-- Node51&#45;&gt;Node56 -->
<g id="edge6" class="edge"><title>Node51&#45;&gt;Node56</title>
<path fill="none" stroke="midnightblue" d="M272.881,-193.959C303.879,-184.383 351.795,-169.579 385.864,-159.054"/>
<polygon fill="midnightblue" stroke="midnightblue" points="386.997,-162.368 395.518,-156.072 384.931,-155.679 386.997,-162.368"/>
</g>
<!-- Node57 -->
<g id="node8" class="node"><title>Node57</title>
<g id="a_node8"><a xlink:href="classds_1_1_bit_container.html#acf7b867d95ea6ee5083cb8d0ce404a43" target="_top" xlink:title=" ">
<polygon fill="white" stroke="black" points="352,-99 352,-118 503,-118 503,-99 352,-99"/>
<text text-anchor="middle" x="427.5" y="-106" font-family="Helvetica,sans-Serif" font-size="10.00">ds::BitContainer::copyAligned</text>
</a>
</g>
</g>
<!-- Node51&#45;&gt;Node57 -->
<g id="edge8" class="edge"><title>Node51&#45;&gt;Node57</title>
<path fill="none" stroke="midnightblue" d="M253.056,-193.832C272.009,-177.746 312.494,-145.483 352,-127.5 357.292,-125.091 362.941,-122.952 368.671,-121.06"/>
<polygon fill="midnightblue" stroke="midnightblue" points="369.801,-124.375 378.343,-118.107 367.756,-117.68 369.801,-124.375"/>
</g>
<!-- Node52&#45;&gt;Node53 -->
<g id="edge3" class="edge"><title>Node52&#45;&gt;Node53</title>
<path fill="none" stroke="midnightblue" d="M460.051,-270.041C491.72,-279.617 540.676,-294.421 575.483,-304.946"/>
<polygon fill="midnightblue" stroke="midnightblue" points="574.761,-308.384 585.346,-307.928 576.788,-301.684 574.761,-308.384"/>
</g>
<!-- Node52&#45;&gt;Node54 -->
<g id="edge4" class="edge"><title>Node52&#45;&gt;Node54</title>
<path fill="none" stroke="midnightblue" d="M478.026,-263.653C495.768,-264.782 516.262,-266.087 535.97,-267.342"/>
<polygon fill="midnightblue" stroke="midnightblue" points="535.983,-270.849 546.185,-267.992 536.428,-263.864 535.983,-270.849"/>
</g>
<!-- Node52&#45;&gt;Node55 -->
<g id="edge5" class="edge"><title>Node52&#45;&gt;Node55</title>
<path fill="none" stroke="midnightblue" d="M478.026,-253.669C499.596,-250.694 525.233,-247.157 548.58,-243.937"/>
<polygon fill="midnightblue" stroke="midnightblue" points="549.345,-247.365 558.773,-242.531 548.389,-240.431 549.345,-247.365"/>
</g>
<!-- Node58 -->
<g id="node9" class="node"><title>Node58</title>
<g id="a_node9"><a xlink:href="classds_1_1_bit_container.html#a270017ae0707089eb308052371945175" target="_top" xlink:title=" ">
<polygon fill="white" stroke="black" points="570.5,-0.5 570.5,-30.5 665.5,-30.5 665.5,-0.5 570.5,-0.5"/>
<text text-anchor="start" x="578.5" y="-18.5" font-family="Helvetica,sans-Serif" font-size="10.00">ds::BitContainer::</text>
<text text-anchor="middle" x="618" y="-7.5" font-family="Helvetica,sans-Serif" font-size="10.00">_getBitOffset</text>
</a>
</g>
</g>
<!-- Node57&#45;&gt;Node58 -->
<g id="edge9" class="edge"><title>Node57&#45;&gt;Node58</title>
<path fill="none" stroke="midnightblue" d="M484.065,-98.9277C490.755,-96.4701 497.246,-93.3815 503,-89.5 525.403,-74.3881 517.064,-56.2821 539,-40.5 545.565,-35.7766 553.063,-31.9181 560.755,-28.7732"/>
<polygon fill="midnightblue" stroke="midnightblue" points="562.023,-32.0361 570.185,-25.2809 559.592,-25.4718 562.023,-32.0361"/>
</g>
<!-- Node59 -->
<g id="node10" class="node"><title>Node59</title>
<g id="a_node10"><a xlink:href="classds_1_1_bit_container.html#ae96782365827c126e1824566333feaa5" target="_top" xlink:title=" ">
<polygon fill="white" stroke="black" points="569.5,-175.5 569.5,-205.5 666.5,-205.5 666.5,-175.5 569.5,-175.5"/>
<text text-anchor="start" x="577.5" y="-193.5" font-family="Helvetica,sans-Serif" font-size="10.00">ds::BitContainer::</text>
<text text-anchor="middle" x="618" y="-182.5" font-family="Helvetica,sans-Serif" font-size="10.00">_getWordIndexBit</text>
</a>
</g>
</g>
<!-- Node57&#45;&gt;Node59 -->
<g id="edge10" class="edge"><title>Node57&#45;&gt;Node59</title>
<path fill="none" stroke="midnightblue" d="M481.672,-118.108C489.107,-120.567 496.44,-123.647 503,-127.5 523.06,-139.282 519.305,-153.117 539,-165.5 545.29,-169.455 552.262,-172.837 559.375,-175.715"/>
<polygon fill="midnightblue" stroke="midnightblue" points="558.519,-179.131 569.111,-179.334 560.957,-172.569 558.519,-179.131"/>
</g>
<!-- Node60 -->
<g id="node11" class="node"><title>Node60</title>
<g id="a_node11"><a xlink:href="classds_1_1_bit_container.html#a746626817d294dc7eeb089f60b77e54c" target="_top" xlink:title="_setWordAligned">
<polygon fill="white" stroke="black" points="570.5,-126.5 570.5,-156.5 665.5,-156.5 665.5,-126.5 570.5,-126.5"/>
<text text-anchor="start" x="578.5" y="-144.5" font-family="Helvetica,sans-Serif" font-size="10.00">ds::BitContainer::</text>
<text text-anchor="middle" x="618" y="-133.5" font-family="Helvetica,sans-Serif" font-size="10.00">_setWordAligned</text>
</a>
</g>
</g>
<!-- Node57&#45;&gt;Node60 -->
<g id="edge11" class="edge"><title>Node57&#45;&gt;Node60</title>
<path fill="none" stroke="midnightblue" d="M482.769,-118.001C507.145,-122.268 535.901,-127.302 560.532,-131.614"/>
<polygon fill="midnightblue" stroke="midnightblue" points="560.001,-135.075 570.455,-133.352 561.208,-128.179 560.001,-135.075"/>
</g>
<!-- Node61 -->
<g id="node12" class="node"><title>Node61</title>
<g id="a_node12"><a xlink:href="classds_1_1_bit_container.html#ac411be8a6a028077107ab9c7a60b5546" target="_top" xlink:title=" ">
<polygon fill="white" stroke="black" points="558,-88 558,-107 678,-107 678,-88 558,-88"/>
<text text-anchor="middle" x="618" y="-95" font-family="Helvetica,sans-Serif" font-size="10.00">ds::BitContainer::getBit</text>
</a>
</g>
</g>
<!-- Node57&#45;&gt;Node61 -->
<g id="edge12" class="edge"><title>Node57&#45;&gt;Node61</title>
<path fill="none" stroke="midnightblue" d="M503,-104.153C517.657,-103.297 532.982,-102.403 547.468,-101.558"/>
<polygon fill="midnightblue" stroke="midnightblue" points="548.067,-105.029 557.846,-100.952 547.659,-98.0405 548.067,-105.029"/>
</g>
<!-- Node62 -->
<g id="node13" class="node"><title>Node62</title>
<g id="a_node13"><a xlink:href="classds_1_1_bit_container.html#addd9b30d11f1d2f871337a05c9cc65b6" target="_top" xlink:title=" ">
<polygon fill="white" stroke="black" points="561.5,-50 561.5,-69 674.5,-69 674.5,-50 561.5,-50"/>
<text text-anchor="middle" x="618" y="-57" font-family="Helvetica,sans-Serif" font-size="10.00">ds::BitContainer::print</text>
</a>
</g>
</g>
<!-- Node57&#45;&gt;Node62 -->
<g id="edge13" class="edge"><title>Node57&#45;&gt;Node62</title>
<path fill="none" stroke="midnightblue" d="M467.259,-98.9814C478.79,-96.0509 491.432,-92.7405 503,-89.5 519.11,-84.9871 522.866,-82.926 539,-78.5 547.785,-76.09 557.168,-73.6722 566.272,-71.4075"/>
<polygon fill="midnightblue" stroke="midnightblue" points="567.123,-74.8026 575.999,-69.0179 565.453,-68.0047 567.123,-74.8026"/>
</g>
<!-- Node64 -->
<g id="node15" class="node"><title>Node64</title>
<g id="a_node15"><a xlink:href="namespaceinterfacesse.html#afaa45a2a27710ea2dfa979289cf4961d" target="_top" xlink:title="swap items of aoarrayt_y to aiarrayt_x">
<polygon fill="white" stroke="black" points="377,-61 377,-80 478,-80 478,-61 377,-61"/>
<text text-anchor="middle" x="427.5" y="-68" font-family="Helvetica,sans-Serif" font-size="10.00">interfacesse::swap</text>
</a>
</g>
</g>
<!-- Node63&#45;&gt;Node64 -->
<g id="edge18" class="edge"><title>Node63&#45;&gt;Node64</title>
<path fill="none" stroke="midnightblue" d="M288.557,-98.911C313.343,-93.8061 344.015,-87.4887 370.139,-82.1082"/>
<polygon fill="midnightblue" stroke="midnightblue" points="371.189,-85.4655 380.278,-80.0201 369.777,-78.6094 371.189,-85.4655"/>
</g>
</g>
</svg>
