<?xml version="1.0" encoding="UTF-8" standalone="no"?>
<!DOCTYPE svg PUBLIC "-//W3C//DTD SVG 1.1//EN"
 "http://www.w3.org/Graphics/SVG/1.1/DTD/svg11.dtd">
<!-- Generated by graphviz version 2.38.0 (20140413.2041)
 -->
<!-- Title: stats::getMatrixMahalonobis Pages: 1 -->
<svg width="2338pt" height="1047pt"
 viewBox="0.00 0.00 2338.00 1046.84" xmlns="http://www.w3.org/2000/svg" xmlns:xlink="http://www.w3.org/1999/xlink">
<g id="graph0" class="graph" transform="scale(1 1) rotate(0) translate(4 1042.84)">
<title>stats::getMatrixMahalonobis</title>
<polygon fill="white" stroke="none" points="-4,4 -4,-1042.84 2334,-1042.84 2334,4 -4,4"/>
<!-- Node35 -->
<g id="node1" class="node"><title>Node35</title>
<polygon fill="#bfbfbf" stroke="black" points="0,-710.342 0,-729.342 143,-729.342 143,-710.342 0,-710.342"/>
<text text-anchor="middle" x="71.5" y="-717.342" font-family="Helvetica,sans-Serif" font-size="10.00">stats::getMatrixMahalonobis</text>
</g>
<!-- Node36 -->
<g id="node2" class="node"><title>Node36</title>
<g id="a_node2"><a xlink:href="namespacemat.html#a13185fa17b186523e49b2afb2347c4de" target="_top" xlink:title="mat::inverse">
<polygon fill="white" stroke="black" points="354,-943.342 354,-962.342 426,-962.342 426,-943.342 354,-943.342"/>
<text text-anchor="middle" x="390" y="-950.342" font-family="Helvetica,sans-Serif" font-size="10.00">mat::inverse</text>
</a>
</g>
</g>
<!-- Node35&#45;&gt;Node36 -->
<g id="edge1" class="edge"><title>Node35&#45;&gt;Node36</title>
<path fill="none" stroke="midnightblue" d="M85.6967,-729.557C134.76,-765.677 306.938,-892.43 367.629,-937.11"/>
<polygon fill="midnightblue" stroke="midnightblue" points="365.619,-939.976 375.747,-943.086 369.769,-934.338 365.619,-939.976"/>
</g>
<!-- Node41 -->
<g id="node7" class="node"><title>Node41</title>
<g id="a_node7"><a xlink:href="namespacestats.html#a91d3e4bd49b1fdf4eaf355092becd6bc" target="_top" xlink:title="Get covariance matrix, only for T_FEATURE real. ">
<polygon fill="white" stroke="black" points="179,-658.342 179,-677.342 291,-677.342 291,-658.342 179,-658.342"/>
<text text-anchor="middle" x="235" y="-665.342" font-family="Helvetica,sans-Serif" font-size="10.00">stats::matrixVarcovar</text>
</a>
</g>
</g>
<!-- Node35&#45;&gt;Node41 -->
<g id="edge6" class="edge"><title>Node35&#45;&gt;Node41</title>
<path fill="none" stroke="midnightblue" d="M102.122,-710.305C128.107,-701.938 166.091,-689.707 194.628,-680.519"/>
<polygon fill="midnightblue" stroke="midnightblue" points="195.847,-683.804 204.293,-677.407 193.702,-677.141 195.847,-683.804"/>
</g>
<!-- Node59 -->
<g id="node25" class="node"><title>Node59</title>
<g id="a_node25"><a xlink:href="namespacestats.html#a09587632e3c4855da191bc7439c593f0" target="_top" xlink:title="Make a transformation to the instances. ">
<polygon fill="white" stroke="black" points="995,-69.3421 995,-88.3421 1080,-88.3421 1080,-69.3421 995,-69.3421"/>
<text text-anchor="middle" x="1037.5" y="-76.3421" font-family="Helvetica,sans-Serif" font-size="10.00">stats::transform</text>
</a>
</g>
</g>
<!-- Node35&#45;&gt;Node59 -->
<g id="edge66" class="edge"><title>Node35&#45;&gt;Node59</title>
<path fill="none" stroke="midnightblue" d="M74.3206,-710.164C85.5265,-653.441 150.563,-362.029 327,-227.842 530.656,-72.9544 858.26,-70.0995 984.543,-75.4913"/>
<polygon fill="midnightblue" stroke="midnightblue" points="984.558,-78.9956 994.709,-75.9623 984.882,-72.0031 984.558,-78.9956"/>
</g>
<!-- Node37 -->
<g id="node3" class="node"><title>Node37</title>
<g id="a_node3"><a xlink:href="classmat_1_1_matrix_base.html#a70200414022ce1479b9ddc16102b12ae" target="_top" xlink:title="mat::MatrixBase::getNumColumns">
<polygon fill="white" stroke="black" points="1485,-165.342 1485,-184.342 1655,-184.342 1655,-165.342 1485,-165.342"/>
<text text-anchor="middle" x="1570" y="-172.342" font-family="Helvetica,sans-Serif" font-size="10.00">mat::MatrixBase::getNumColumns</text>
</a>
</g>
</g>
<!-- Node36&#45;&gt;Node37 -->
<g id="edge2" class="edge"><title>Node36&#45;&gt;Node37</title>
<path fill="none" stroke="midnightblue" d="M426.431,-952.842C487.21,-952.842 615.264,-952.842 723.5,-952.842 723.5,-952.842 723.5,-952.842 1188.5,-952.842 1369.15,-952.842 1380.37,-807.944 1449,-640.842 1485.35,-552.347 1429.43,-289.715 1485,-211.842 1492.52,-201.3 1503.74,-193.722 1515.54,-188.289"/>
<polygon fill="midnightblue" stroke="midnightblue" points="1517.15,-191.412 1525.07,-184.376 1514.49,-184.936 1517.15,-191.412"/>
</g>
<!-- Node38 -->
<g id="node4" class="node"><title>Node38</title>
<g id="a_node4"><a xlink:href="classmat_1_1_matrix_base.html#ac500eedd5e203327d3292f8ab22d8f3e" target="_top" xlink:title="mat::MatrixBase::getNumRows">
<polygon fill="white" stroke="black" points="1492,-715.342 1492,-734.342 1648,-734.342 1648,-715.342 1492,-715.342"/>
<text text-anchor="middle" x="1570" y="-722.342" font-family="Helvetica,sans-Serif" font-size="10.00">mat::MatrixBase::getNumRows</text>
</a>
</g>
</g>
<!-- Node36&#45;&gt;Node38 -->
<g id="edge3" class="edge"><title>Node36&#45;&gt;Node38</title>
<path fill="none" stroke="midnightblue" d="M426.279,-959.548C486.833,-970.457 614.56,-990.842 723.5,-990.842 723.5,-990.842 723.5,-990.842 1188.5,-990.842 1304.77,-990.842 1353.12,-1032.6 1449,-966.842 1527.77,-912.82 1557.16,-791.579 1565.88,-744.271"/>
<polygon fill="midnightblue" stroke="midnightblue" points="1569.33,-744.842 1567.6,-734.391 1562.44,-743.645 1569.33,-744.842"/>
</g>
<!-- Node39 -->
<g id="node5" class="node"><title>Node39</title>
<g id="a_node5"><a xlink:href="classmat_1_1_matrix_row.html#a156313f6aa515994b76321ff03780b16" target="_top" xlink:title="mat::MatrixRow::print">
<polygon fill="white" stroke="black" points="498,-905.342 498,-924.342 608,-924.342 608,-905.342 498,-905.342"/>
<text text-anchor="middle" x="553" y="-912.342" font-family="Helvetica,sans-Serif" font-size="10.00">mat::MatrixRow::print</text>
</a>
</g>
</g>
<!-- Node36&#45;&gt;Node39 -->
<g id="edge4" class="edge"><title>Node36&#45;&gt;Node39</title>
<path fill="none" stroke="midnightblue" d="M426.332,-944.503C448.461,-939.28 477.322,-932.468 501.805,-926.689"/>
<polygon fill="midnightblue" stroke="midnightblue" points="502.717,-930.07 511.646,-924.367 501.109,-923.258 502.717,-930.07"/>
</g>
<!-- Node40 -->
<g id="node6" class="node"><title>Node40</title>
<g id="a_node6"><a xlink:href="classmat_1_1_matrix_row.html#a2879a2578666e3da78f3588e78b5e982" target="_top" xlink:title="mat::MatrixRow::toArray">
<polygon fill="white" stroke="black" points="490.5,-1019.34 490.5,-1038.34 615.5,-1038.34 615.5,-1019.34 490.5,-1019.34"/>
<text text-anchor="middle" x="553" y="-1026.34" font-family="Helvetica,sans-Serif" font-size="10.00">mat::MatrixRow::toArray</text>
</a>
</g>
</g>
<!-- Node36&#45;&gt;Node40 -->
<g id="edge5" class="edge"><title>Node36&#45;&gt;Node40</title>
<path fill="none" stroke="midnightblue" d="M407.677,-962.509C426.929,-973.473 459.708,-991.553 489,-1004.84 497.364,-1008.64 506.519,-1012.36 515.195,-1015.7"/>
<polygon fill="midnightblue" stroke="midnightblue" points="514.128,-1019.04 524.72,-1019.29 516.597,-1012.49 514.128,-1019.04"/>
</g>
<!-- Node42 -->
<g id="node8" class="node"><title>Node42</title>
<g id="a_node8"><a xlink:href="namespacedata.html#af02d5f2addd5b5815d5efb7db12ffeba" target="_top" xlink:title="Instaces matrix transpose. ">
<polygon fill="white" stroke="black" points="975,-183.342 975,-202.342 1100,-202.342 1100,-183.342 975,-183.342"/>
<text text-anchor="middle" x="1037.5" y="-190.342" font-family="Helvetica,sans-Serif" font-size="10.00">data::toMatrixRowTrans</text>
</a>
</g>
</g>
<!-- Node41&#45;&gt;Node42 -->
<g id="edge7" class="edge"><title>Node41&#45;&gt;Node42</title>
<path fill="none" stroke="midnightblue" d="M237.041,-658.046C242.919,-604.528 273.602,-347.912 327,-292.842 399.207,-218.375 448.273,-230.842 552,-230.842 552,-230.842 552,-230.842 725.5,-230.842 814.254,-230.842 916.21,-215.405 978.484,-204.209"/>
<polygon fill="midnightblue" stroke="midnightblue" points="979.296,-207.619 988.506,-202.382 978.041,-200.732 979.296,-207.619"/>
</g>
<!-- Node52 -->
<g id="node18" class="node"><title>Node52</title>
<g id="a_node18"><a xlink:href="namespacestats.html#a9997daae39cbd737fb66c52d182e8e6b" target="_top" xlink:title="Obtiene un vector con la media de una matriz por columnas. ">
<polygon fill="white" stroke="black" points="345.5,-658.342 345.5,-677.342 434.5,-677.342 434.5,-658.342 345.5,-658.342"/>
<text text-anchor="middle" x="390" y="-665.342" font-family="Helvetica,sans-Serif" font-size="10.00">stats::meanRow</text>
</a>
</g>
</g>
<!-- Node41&#45;&gt;Node52 -->
<g id="edge17" class="edge"><title>Node41&#45;&gt;Node52</title>
<path fill="none" stroke="midnightblue" d="M291.237,-667.842C305.563,-667.842 320.97,-667.842 335.221,-667.842"/>
<polygon fill="midnightblue" stroke="midnightblue" points="335.361,-671.342 345.361,-667.842 335.361,-664.342 335.361,-671.342"/>
</g>
<!-- Node62 -->
<g id="node28" class="node"><title>Node62</title>
<g id="a_node28"><a xlink:href="namespaceinterfacesse.html#a47f4a833d2730f3a501bbb9b2b095e62" target="_top" xlink:title="interfacesse::gemm">
<polygon fill="white" stroke="black" points="1309,-74.3421 1309,-93.3421 1415,-93.3421 1415,-74.3421 1309,-74.3421"/>
<text text-anchor="middle" x="1362" y="-81.3421" font-family="Helvetica,sans-Serif" font-size="10.00">interfacesse::gemm</text>
</a>
</g>
</g>
<!-- Node41&#45;&gt;Node62 -->
<g id="edge60" class="edge"><title>Node41&#45;&gt;Node62</title>
<path fill="none" stroke="midnightblue" d="M237.685,-658.016C248.247,-596.682 305.582,-267.695 327,-227.842 453.487,7.51887 617.304,-2.84213 884.5,-2.84213 884.5,-2.84213 884.5,-2.84213 1038.5,-2.84213 1128.01,-2.84213 1153.03,3.09511 1239,-21.8421 1275.66,-32.4772 1314.36,-54.1852 1338.1,-68.8775"/>
<polygon fill="midnightblue" stroke="midnightblue" points="1336.4,-71.9413 1346.72,-74.3153 1340.13,-66.0204 1336.4,-71.9413"/>
</g>
<!-- Node65 -->
<g id="node31" class="node"><title>Node65</title>
<g id="a_node31"><a xlink:href="namespaceinterfacesse.html#a3ef732d695e1172d5e8404cc0e44865a" target="_top" xlink:title="translate the aoarrayt_y array ">
<polygon fill="white" stroke="black" points="338,-734.342 338,-753.342 442,-753.342 442,-734.342 338,-734.342"/>
<text text-anchor="middle" x="390" y="-741.342" font-family="Helvetica,sans-Serif" font-size="10.00">interfacesse::transy</text>
</a>
</g>
</g>
<!-- Node41&#45;&gt;Node65 -->
<g id="edge57" class="edge"><title>Node41&#45;&gt;Node65</title>
<path fill="none" stroke="midnightblue" d="M255.378,-677.468C281.934,-690.659 329.827,-714.449 360.482,-729.676"/>
<polygon fill="midnightblue" stroke="midnightblue" points="359.267,-732.981 369.78,-734.295 362.381,-726.711 359.267,-732.981"/>
</g>
<!-- Node68 -->
<g id="node34" class="node"><title>Node68</title>
<g id="a_node34"><a xlink:href="namespacestats.html#adf9325db882d4cc7474c23f2eff7dd39" target="_top" xlink:title="Get weight matrix diagonal for calculate dist induced &#160;&#160;. ">
<polygon fill="white" stroke="black" points="327,-829.342 327,-848.342 453,-848.342 453,-829.342 327,-829.342"/>
<text text-anchor="middle" x="390" y="-836.342" font-family="Helvetica,sans-Serif" font-size="10.00">stats::getMatrixDiagonal</text>
</a>
</g>
</g>
<!-- Node41&#45;&gt;Node68 -->
<g id="edge61" class="edge"><title>Node41&#45;&gt;Node68</title>
<path fill="none" stroke="midnightblue" d="M244.664,-677.526C269.595,-705.39 341.757,-786.041 373.596,-821.626"/>
<polygon fill="midnightblue" stroke="midnightblue" points="371.154,-824.146 380.431,-829.265 376.371,-819.478 371.154,-824.146"/>
</g>
<!-- Node43 -->
<g id="node9" class="node"><title>Node43</title>
<g id="a_node9"><a xlink:href="classdata_1_1_instance.html#aa6ee19c383a86228b3d134e42bdb6830" target="_top" xlink:title="data::Instance::getFeatures">
<polygon fill="white" stroke="black" points="1292,-373.342 1292,-392.342 1432,-392.342 1432,-373.342 1292,-373.342"/>
<text text-anchor="middle" x="1362" y="-380.342" font-family="Helvetica,sans-Serif" font-size="10.00">data::Instance::getFeatures</text>
</a>
</g>
</g>
<!-- Node42&#45;&gt;Node43 -->
<g id="edge8" class="edge"><title>Node42&#45;&gt;Node43</title>
<path fill="none" stroke="midnightblue" d="M1054.94,-202.525C1107.56,-233.527 1272.13,-330.486 1335.64,-367.904"/>
<polygon fill="midnightblue" stroke="midnightblue" points="1334.2,-371.118 1344.6,-373.178 1337.76,-365.087 1334.2,-371.118"/>
</g>
<!-- Node44 -->
<g id="node10" class="node"><title>Node44</title>
<g id="a_node10"><a xlink:href="namespacedata.html#a3a078a698c5523531c54df6716d86ceb" target="_top" xlink:title="Instaces matrix. ">
<polygon fill="white" stroke="black" points="1138.5,-145.342 1138.5,-164.342 1236.5,-164.342 1236.5,-145.342 1138.5,-145.342"/>
<text text-anchor="middle" x="1187.5" y="-152.342" font-family="Helvetica,sans-Serif" font-size="10.00">data::toMatrixRow</text>
</a>
</g>
</g>
<!-- Node42&#45;&gt;Node44 -->
<g id="edge9" class="edge"><title>Node42&#45;&gt;Node44</title>
<path fill="none" stroke="midnightblue" d="M1075.85,-183.253C1095.2,-178.284 1119.03,-172.165 1139.61,-166.881"/>
<polygon fill="midnightblue" stroke="midnightblue" points="1140.61,-170.239 1149.42,-164.362 1138.87,-163.459 1140.61,-170.239"/>
</g>
<!-- Node45 -->
<g id="node11" class="node"><title>Node45</title>
<g id="a_node11"><a xlink:href="namespaceinterfacesse.html#a925f44ed84d40e9af5050fa0e1373396" target="_top" xlink:title="copy array aoarrayt_x in aoarrayt_y of type T ">
<polygon fill="white" stroke="black" points="1312.5,-221.342 1312.5,-240.342 1411.5,-240.342 1411.5,-221.342 1312.5,-221.342"/>
<text text-anchor="middle" x="1362" y="-228.342" font-family="Helvetica,sans-Serif" font-size="10.00">interfacesse::copy</text>
</a>
</g>
</g>
<!-- Node44&#45;&gt;Node45 -->
<g id="edge10" class="edge"><title>Node44&#45;&gt;Node45</title>
<path fill="none" stroke="midnightblue" d="M1210.43,-164.536C1219.41,-168.695 1229.83,-173.76 1239,-178.842 1255.61,-188.046 1257.88,-193.637 1275,-201.842 1288.15,-208.143 1303.03,-213.678 1316.67,-218.178"/>
<polygon fill="midnightblue" stroke="midnightblue" points="1315.75,-221.559 1326.34,-221.267 1317.88,-214.89 1315.75,-221.559"/>
</g>
<!-- Node46 -->
<g id="node12" class="node"><title>Node46</title>
<g id="a_node12"><a xlink:href="namespaceinterfacesse.html#afaa45a2a27710ea2dfa979289cf4961d" target="_top" xlink:title="swap items of aoarrayt_y to aiarrayt_x ">
<polygon fill="white" stroke="black" points="1519.5,-221.342 1519.5,-240.342 1620.5,-240.342 1620.5,-221.342 1519.5,-221.342"/>
<text text-anchor="middle" x="1570" y="-228.342" font-family="Helvetica,sans-Serif" font-size="10.00">interfacesse::swap</text>
</a>
</g>
</g>
<!-- Node45&#45;&gt;Node46 -->
<g id="edge11" class="edge"><title>Node45&#45;&gt;Node46</title>
<path fill="none" stroke="midnightblue" d="M1411.56,-230.842C1440.73,-230.842 1478.09,-230.842 1509.09,-230.842"/>
<polygon fill="midnightblue" stroke="midnightblue" points="1509.34,-234.342 1519.34,-230.842 1509.34,-227.342 1509.34,-234.342"/>
</g>
<!-- Node47 -->
<g id="node13" class="node"><title>Node47</title>
<g id="a_node13"><a xlink:href="namespaceinterfacesse.html#a2f42addf86fc8b9cd0c6620217b8a2db" target="_top" xlink:title="swap items of aoarrayt_y to aiarrayt_x ">
<polygon fill="white" stroke="black" points="1691,-221.342 1691,-240.342 1783,-240.342 1783,-221.342 1691,-221.342"/>
<text text-anchor="middle" x="1737" y="-228.342" font-family="Helvetica,sans-Serif" font-size="10.00">interfacesse::dot</text>
</a>
</g>
</g>
<!-- Node46&#45;&gt;Node47 -->
<g id="edge12" class="edge"><title>Node46&#45;&gt;Node47</title>
<path fill="none" stroke="midnightblue" d="M1620.51,-230.842C1639.41,-230.842 1661.09,-230.842 1680.52,-230.842"/>
<polygon fill="midnightblue" stroke="midnightblue" points="1680.75,-234.342 1690.75,-230.842 1680.75,-227.342 1680.75,-234.342"/>
</g>
<!-- Node48 -->
<g id="node14" class="node"><title>Node48</title>
<g id="a_node14"><a xlink:href="namespaceinterfacesse.html#a25f6950d589b92fd5bcf2007fb3fae19" target="_top" xlink:title="interfacesse::sum">
<polygon fill="white" stroke="black" points="1819,-221.342 1819,-240.342 1915,-240.342 1915,-221.342 1819,-221.342"/>
<text text-anchor="middle" x="1867" y="-228.342" font-family="Helvetica,sans-Serif" font-size="10.00">interfacesse::sum</text>
</a>
</g>
</g>
<!-- Node47&#45;&gt;Node48 -->
<g id="edge13" class="edge"><title>Node47&#45;&gt;Node48</title>
<path fill="none" stroke="midnightblue" d="M1783.13,-230.842C1791.32,-230.842 1799.96,-230.842 1808.44,-230.842"/>
<polygon fill="midnightblue" stroke="midnightblue" points="1808.68,-234.342 1818.68,-230.842 1808.68,-227.342 1808.68,-234.342"/>
</g>
<!-- Node49 -->
<g id="node15" class="node"><title>Node49</title>
<g id="a_node15"><a xlink:href="namespaceinterfacesse.html#a9dd5fb43ad8a83ee5cb2f5ba1bb2085b" target="_top" xlink:title="interfacesse::axpy">
<polygon fill="white" stroke="black" points="1951,-221.342 1951,-240.342 2050,-240.342 2050,-221.342 1951,-221.342"/>
<text text-anchor="middle" x="2000.5" y="-228.342" font-family="Helvetica,sans-Serif" font-size="10.00">interfacesse::axpy</text>
</a>
</g>
</g>
<!-- Node48&#45;&gt;Node49 -->
<g id="edge14" class="edge"><title>Node48&#45;&gt;Node49</title>
<path fill="none" stroke="midnightblue" d="M1915.1,-230.842C1923.47,-230.842 1932.28,-230.842 1940.92,-230.842"/>
<polygon fill="midnightblue" stroke="midnightblue" points="1940.95,-234.342 1950.95,-230.842 1940.95,-227.342 1940.95,-234.342"/>
</g>
<!-- Node50 -->
<g id="node16" class="node"><title>Node50</title>
<g id="a_node16"><a xlink:href="namespaceinterfacesse.html#ae3f94c42a59db65b2941dbfc9f449ea1" target="_top" xlink:title="function xAXPY of blas for doubles vectors ">
<polygon fill="white" stroke="black" points="2086,-221.342 2086,-240.342 2198,-240.342 2198,-221.342 2086,-221.342"/>
<text text-anchor="middle" x="2142" y="-228.342" font-family="Helvetica,sans-Serif" font-size="10.00">interfacesse::axpyInv</text>
</a>
</g>
</g>
<!-- Node49&#45;&gt;Node50 -->
<g id="edge15" class="edge"><title>Node49&#45;&gt;Node50</title>
<path fill="none" stroke="midnightblue" d="M2050.29,-230.842C2058.54,-230.842 2067.21,-230.842 2075.79,-230.842"/>
<polygon fill="midnightblue" stroke="midnightblue" points="2075.8,-234.342 2085.8,-230.842 2075.8,-227.342 2075.8,-234.342"/>
</g>
<!-- Node51 -->
<g id="node17" class="node"><title>Node51</title>
<g id="a_node17"><a xlink:href="namespaceinterfacesse.html#a144ebf70bf38495c3de1aca2c8365e08" target="_top" xlink:title="scal items of the array of type T ">
<polygon fill="white" stroke="black" points="2234,-221.342 2234,-240.342 2330,-240.342 2330,-221.342 2234,-221.342"/>
<text text-anchor="middle" x="2282" y="-228.342" font-family="Helvetica,sans-Serif" font-size="10.00">interfacesse::scal</text>
</a>
</g>
</g>
<!-- Node50&#45;&gt;Node51 -->
<g id="edge16" class="edge"><title>Node50&#45;&gt;Node51</title>
<path fill="none" stroke="midnightblue" d="M2198.33,-230.842C2206.65,-230.842 2215.24,-230.842 2223.6,-230.842"/>
<polygon fill="midnightblue" stroke="midnightblue" points="2223.65,-234.342 2233.65,-230.842 2223.65,-227.342 2223.65,-234.342"/>
</g>
<!-- Node52&#45;&gt;Node37 -->
<g id="edge21" class="edge"><title>Node52&#45;&gt;Node37</title>
<path fill="none" stroke="midnightblue" d="M434.526,-671.918C498,-677.501 619.713,-686.842 723.5,-686.842 723.5,-686.842 723.5,-686.842 1188.5,-686.842 1314.88,-686.842 1374.66,-675.046 1449,-572.842 1543.84,-442.445 1390.31,-342.352 1485,-211.842 1492.61,-201.359 1503.85,-193.803 1515.65,-188.372"/>
<polygon fill="midnightblue" stroke="midnightblue" points="1517.26,-191.495 1525.18,-184.457 1514.6,-185.02 1517.26,-191.495"/>
</g>
<!-- Node52&#45;&gt;Node38 -->
<g id="edge18" class="edge"><title>Node52&#45;&gt;Node38</title>
<path fill="none" stroke="midnightblue" d="M414.348,-677.349C433.948,-684.927 462.857,-695.177 489,-700.842 591.39,-723.03 618.733,-724.842 723.5,-724.842 723.5,-724.842 723.5,-724.842 1188.5,-724.842 1289.02,-724.842 1404.48,-724.842 1481.6,-724.842"/>
<polygon fill="midnightblue" stroke="midnightblue" points="1481.75,-728.342 1491.75,-724.842 1481.75,-721.342 1481.75,-728.342"/>
</g>
<!-- Node52&#45;&gt;Node48 -->
<g id="edge19" class="edge"><title>Node52&#45;&gt;Node48</title>
<path fill="none" stroke="midnightblue" d="M403.138,-677.358C420.858,-690.651 455.373,-714.331 489,-724.842 558.788,-746.656 579.951,-734.688 653,-737.842 1097.93,-757.056 1285.02,-991.72 1655,-743.842 1831.53,-625.571 1860.5,-330.077 1865.14,-250.722"/>
<polygon fill="midnightblue" stroke="midnightblue" points="1868.64,-250.796 1865.66,-240.629 1861.65,-250.435 1868.64,-250.796"/>
</g>
<!-- Node53 -->
<g id="node19" class="node"><title>Node53</title>
<g id="a_node19"><a xlink:href="classmat_1_1_matrix_row.html#a5391a205367fbaac82a26ddc377a80af" target="_top" xlink:title="mat::MatrixRow::getRow">
<polygon fill="white" stroke="black" points="1506.5,-31.3421 1506.5,-50.3421 1633.5,-50.3421 1633.5,-31.3421 1506.5,-31.3421"/>
<text text-anchor="middle" x="1570" y="-38.3421" font-family="Helvetica,sans-Serif" font-size="10.00">mat::MatrixRow::getRow</text>
</a>
</g>
</g>
<!-- Node52&#45;&gt;Node53 -->
<g id="edge20" class="edge"><title>Node52&#45;&gt;Node53</title>
<path fill="none" stroke="midnightblue" d="M396.715,-658.234C435.857,-593.399 671.848,-217.623 975,-59.8421 1157.02,34.893 1414.72,-6.09781 1520.66,-29.1076"/>
<polygon fill="midnightblue" stroke="midnightblue" points="1520.21,-32.5927 1530.73,-31.3407 1521.73,-25.7587 1520.21,-32.5927"/>
</g>
<!-- Node54 -->
<g id="node20" class="node"><title>Node54</title>
<g id="a_node20"><a xlink:href="namespaceinout.html#a0c10a45877a347dec0d4ec4e5b05b828" target="_top" xlink:title="inout::containerprint">
<polygon fill="white" stroke="black" points="1310.5,-544.342 1310.5,-563.342 1413.5,-563.342 1413.5,-544.342 1310.5,-544.342"/>
<text text-anchor="middle" x="1362" y="-551.342" font-family="Helvetica,sans-Serif" font-size="10.00">inout::containerprint</text>
</a>
</g>
</g>
<!-- Node52&#45;&gt;Node54 -->
<g id="edge22" class="edge"><title>Node52&#45;&gt;Node54</title>
<path fill="none" stroke="midnightblue" d="M434.526,-663.766C498,-658.183 619.713,-648.842 723.5,-648.842 723.5,-648.842 723.5,-648.842 1038.5,-648.842 1129.37,-648.842 1152.47,-636.581 1239,-608.842 1272.99,-597.947 1310.11,-580.325 1334.37,-567.971"/>
<polygon fill="midnightblue" stroke="midnightblue" points="1336.03,-571.052 1343.32,-563.358 1332.82,-564.831 1336.03,-571.052"/>
</g>
<!-- Node55 -->
<g id="node21" class="node"><title>Node55</title>
<g id="a_node21"><a xlink:href="namespacestats.html#a6b3be9207e48f3af2c75ad45db17ac70" target="_top" xlink:title="Gets the sum of the difference of the instances with the mean and the result square. ">
<polygon fill="white" stroke="black" points="492,-563.342 492,-582.342 614,-582.342 614,-563.342 492,-563.342"/>
<text text-anchor="middle" x="553" y="-570.342" font-family="Helvetica,sans-Serif" font-size="10.00">stats::sumFeacturesSQ</text>
</a>
</g>
</g>
<!-- Node52&#45;&gt;Node55 -->
<g id="edge23" class="edge"><title>Node52&#45;&gt;Node55</title>
<path fill="none" stroke="midnightblue" d="M407.324,-658.21C435.53,-641.567 493.566,-607.322 526.924,-587.638"/>
<polygon fill="midnightblue" stroke="midnightblue" points="528.799,-590.596 535.633,-582.5 525.242,-584.567 528.799,-590.596"/>
</g>
<!-- Node55&#45;&gt;Node43 -->
<g id="edge26" class="edge"><title>Node55&#45;&gt;Node43</title>
<path fill="none" stroke="midnightblue" d="M594.572,-563.29C729.391,-531.548 1162.26,-429.634 1310.58,-394.713"/>
<polygon fill="midnightblue" stroke="midnightblue" points="1311.42,-398.112 1320.35,-392.413 1309.81,-391.298 1311.42,-398.112"/>
</g>
<!-- Node55&#45;&gt;Node54 -->
<g id="edge27" class="edge"><title>Node55&#45;&gt;Node54</title>
<path fill="none" stroke="midnightblue" d="M605.03,-582.382C669.78,-593.638 785.014,-610.842 884.5,-610.842 884.5,-610.842 884.5,-610.842 1038.5,-610.842 1140.56,-610.842 1258.06,-582.816 1319.16,-566.068"/>
<polygon fill="midnightblue" stroke="midnightblue" points="1320.13,-569.431 1328.83,-563.383 1318.26,-562.687 1320.13,-569.431"/>
</g>
<!-- Node56 -->
<g id="node22" class="node"><title>Node56</title>
<g id="a_node22"><a xlink:href="namespaceinterfacesse.html#aa4b94bf2bf8cb7c437fa3feba8b70ff8" target="_top" xlink:title="Initializes the array with a constant . ">
<polygon fill="white" stroke="black" points="833,-335.342 833,-354.342 938,-354.342 938,-335.342 833,-335.342"/>
<text text-anchor="middle" x="885.5" y="-342.342" font-family="Helvetica,sans-Serif" font-size="10.00">interfacesse::copya</text>
</a>
</g>
</g>
<!-- Node55&#45;&gt;Node56 -->
<g id="edge24" class="edge"><title>Node55&#45;&gt;Node56</title>
<path fill="none" stroke="midnightblue" d="M556.613,-563.292C565.111,-534.116 594.83,-445.489 653,-401.842 702.249,-364.89 772.426,-351.635 822.583,-347.016"/>
<polygon fill="midnightblue" stroke="midnightblue" points="822.975,-350.495 832.651,-346.179 822.395,-343.519 822.975,-350.495"/>
</g>
<!-- Node57 -->
<g id="node23" class="node"><title>Node57</title>
<g id="a_node23"><a xlink:href="namespacestats.html#a2f3cfb3a90ba9b5bdfe177054cdbde56" target="_top" xlink:title="Gets the sum of the difference of the instances with the mean and the result square. For instances frequently. ">
<polygon fill="white" stroke="black" points="653,-411.342 653,-430.342 796,-430.342 796,-411.342 653,-411.342"/>
<text text-anchor="middle" x="724.5" y="-418.342" font-family="Helvetica,sans-Serif" font-size="10.00">stats::sumFeacturesFreqSQ</text>
</a>
</g>
</g>
<!-- Node55&#45;&gt;Node57 -->
<g id="edge28" class="edge"><title>Node55&#45;&gt;Node57</title>
<path fill="none" stroke="midnightblue" d="M564.603,-563.334C592.784,-538.063 669.803,-468.995 705.229,-437.226"/>
<polygon fill="midnightblue" stroke="midnightblue" points="707.793,-439.629 712.901,-430.347 703.119,-434.417 707.793,-439.629"/>
</g>
<!-- Node56&#45;&gt;Node45 -->
<g id="edge25" class="edge"><title>Node56&#45;&gt;Node45</title>
<path fill="none" stroke="midnightblue" d="M912.738,-335.258C957.827,-319.103 1053.16,-286.31 1136,-266.842 1191.85,-253.716 1256.64,-243.908 1302.3,-237.872"/>
<polygon fill="midnightblue" stroke="midnightblue" points="1302.86,-241.329 1312.33,-236.567 1301.96,-234.387 1302.86,-241.329"/>
</g>
<!-- Node57&#45;&gt;Node43 -->
<g id="edge30" class="edge"><title>Node57&#45;&gt;Node43</title>
<path fill="none" stroke="midnightblue" d="M796.244,-416.612C915.665,-409.471 1156.43,-395.074 1281.51,-387.595"/>
<polygon fill="midnightblue" stroke="midnightblue" points="1282,-391.072 1291.78,-386.981 1281.59,-384.085 1282,-391.072"/>
</g>
<!-- Node57&#45;&gt;Node54 -->
<g id="edge31" class="edge"><title>Node57&#45;&gt;Node54</title>
<path fill="none" stroke="midnightblue" d="M770.949,-430.354C884.652,-454.15 1181.17,-516.206 1305.19,-542.162"/>
<polygon fill="midnightblue" stroke="midnightblue" points="1304.73,-545.641 1315.23,-544.264 1306.16,-538.79 1304.73,-545.641"/>
</g>
<!-- Node57&#45;&gt;Node56 -->
<g id="edge29" class="edge"><title>Node57&#45;&gt;Node56</title>
<path fill="none" stroke="midnightblue" d="M741.733,-411.202C762.304,-399.211 799.055,-378.528 832,-363.842 836.521,-361.827 841.327,-359.86 846.124,-358.002"/>
<polygon fill="midnightblue" stroke="midnightblue" points="847.725,-361.14 855.866,-354.36 845.274,-354.583 847.725,-361.14"/>
</g>
<!-- Node58 -->
<g id="node24" class="node"><title>Node58</title>
<g id="a_node24"><a xlink:href="namespacestats.html#a27785e3066801ac0756112211985c941" target="_top" xlink:title="Obtain the standard deviation given the variance. ">
<polygon fill="white" stroke="black" points="832,-373.342 832,-392.342 939,-392.342 939,-373.342 832,-373.342"/>
<text text-anchor="middle" x="885.5" y="-380.342" font-family="Helvetica,sans-Serif" font-size="10.00">stats::varTodesvstd</text>
</a>
</g>
</g>
<!-- Node57&#45;&gt;Node58 -->
<g id="edge32" class="edge"><title>Node57&#45;&gt;Node58</title>
<path fill="none" stroke="midnightblue" d="M765.622,-411.253C786.604,-406.239 812.482,-400.054 834.73,-394.737"/>
<polygon fill="midnightblue" stroke="midnightblue" points="835.754,-398.091 844.666,-392.362 834.126,-391.283 835.754,-398.091"/>
</g>
<!-- Node58&#45;&gt;Node54 -->
<g id="edge45" class="edge"><title>Node58&#45;&gt;Node54</title>
<path fill="none" stroke="midnightblue" d="M913.028,-392.402C993.166,-421.282 1232.88,-507.671 1324.68,-540.754"/>
<polygon fill="midnightblue" stroke="midnightblue" points="1323.77,-544.146 1334.37,-544.244 1326.15,-537.561 1323.77,-544.146"/>
</g>
<!-- Node58&#45;&gt;Node59 -->
<g id="edge33" class="edge"><title>Node58&#45;&gt;Node59</title>
<path fill="none" stroke="midnightblue" d="M926.898,-373.326C931.467,-370.86 935.669,-367.753 939,-363.842 994.723,-298.407 943.05,-253.63 975,-173.842 986.737,-144.531 1007.97,-114.583 1022.16,-96.3491"/>
<polygon fill="midnightblue" stroke="midnightblue" points="1025,-98.399 1028.48,-88.3928 1019.52,-94.0433 1025,-98.399"/>
</g>
<!-- Node63 -->
<g id="node29" class="node"><title>Node63</title>
<g id="a_node29"><a xlink:href="namespacestats.html#ad05deabf843908b6a0be813c39a346cd" target="_top" xlink:title="Obtain the minimum attributes of the instances. ">
<polygon fill="white" stroke="black" points="988,-354.342 988,-373.342 1087,-373.342 1087,-354.342 988,-354.342"/>
<text text-anchor="middle" x="1037.5" y="-361.342" font-family="Helvetica,sans-Serif" font-size="10.00">stats::minFeatures</text>
</a>
</g>
</g>
<!-- Node58&#45;&gt;Node63 -->
<g id="edge46" class="edge"><title>Node58&#45;&gt;Node63</title>
<path fill="none" stroke="midnightblue" d="M939.384,-376.143C951.764,-374.575 965.026,-372.896 977.647,-371.297"/>
<polygon fill="midnightblue" stroke="midnightblue" points="978.122,-374.765 987.603,-370.036 977.243,-367.82 978.122,-374.765"/>
</g>
<!-- Node59&#45;&gt;Node45 -->
<g id="edge44" class="edge"><title>Node59&#45;&gt;Node45</title>
<path fill="none" stroke="midnightblue" d="M1080.12,-72.0698C1124.34,-67.3121 1193.96,-67.1128 1239,-102.842 1275.68,-131.937 1241.51,-169.128 1275,-201.842 1282.77,-209.429 1292.58,-215.032 1302.78,-219.17"/>
<polygon fill="midnightblue" stroke="midnightblue" points="1301.62,-222.47 1312.21,-222.574 1303.99,-215.886 1301.62,-222.47"/>
</g>
<!-- Node60 -->
<g id="node26" class="node"><title>Node60</title>
<g id="a_node26"><a xlink:href="classdata_1_1_instance.html#a90d1eaeb66cc1470bbfdb95434fdb761" target="_top" xlink:title="data::Instance::getNumDimensions">
<polygon fill="white" stroke="black" points="1275,-297.342 1275,-316.342 1449,-316.342 1449,-297.342 1275,-297.342"/>
<text text-anchor="middle" x="1362" y="-304.342" font-family="Helvetica,sans-Serif" font-size="10.00">data::Instance::getNumDimensions</text>
</a>
</g>
</g>
<!-- Node59&#45;&gt;Node60 -->
<g id="edge34" class="edge"><title>Node59&#45;&gt;Node60</title>
<path fill="none" stroke="midnightblue" d="M1079.78,-88.3671C1135.03,-101.447 1227.45,-124.621 1239,-135.842 1277.11,-172.866 1243.03,-207.405 1275,-249.842 1289.04,-268.482 1311.07,-282.913 1329.31,-292.591"/>
<polygon fill="midnightblue" stroke="midnightblue" points="1327.94,-295.821 1338.45,-297.216 1331.11,-289.576 1327.94,-295.821"/>
</g>
<!-- Node61 -->
<g id="node27" class="node"><title>Node61</title>
<g id="a_node27"><a xlink:href="namespaceinterfacesse.html#a20b4ab13ada231e7ba92e3d98c4cd602" target="_top" xlink:title="interfacesse::gemv">
<polygon fill="white" stroke="black" points="1136,-31.3421 1136,-50.3421 1239,-50.3421 1239,-31.3421 1136,-31.3421"/>
<text text-anchor="middle" x="1187.5" y="-38.3421" font-family="Helvetica,sans-Serif" font-size="10.00">interfacesse::gemv</text>
</a>
</g>
</g>
<!-- Node59&#45;&gt;Node61 -->
<g id="edge35" class="edge"><title>Node59&#45;&gt;Node61</title>
<path fill="none" stroke="midnightblue" d="M1075.85,-69.2531C1095.2,-64.2838 1119.03,-58.1654 1139.61,-52.8808"/>
<polygon fill="midnightblue" stroke="midnightblue" points="1140.61,-56.2392 1149.42,-50.3622 1138.87,-49.4591 1140.61,-56.2392"/>
</g>
<!-- Node61&#45;&gt;Node37 -->
<g id="edge41" class="edge"><title>Node61&#45;&gt;Node37</title>
<path fill="none" stroke="midnightblue" d="M1213.15,-50.3631C1221.72,-54.2289 1231.15,-59.1387 1239,-64.8421 1257.83,-78.5113 1254.88,-91.1556 1275,-102.842 1336.23,-138.413 1414.45,-156.485 1474.82,-165.625"/>
<polygon fill="midnightblue" stroke="midnightblue" points="1474.33,-169.091 1484.73,-167.07 1475.34,-162.164 1474.33,-169.091"/>
</g>
<!-- Node61&#45;&gt;Node38 -->
<g id="edge42" class="edge"><title>Node61&#45;&gt;Node38</title>
<path fill="none" stroke="midnightblue" d="M1215.11,-50.4599C1223.55,-54.5089 1232.4,-59.9185 1239,-66.8421 1265.62,-94.771 1246.84,-119.46 1275,-145.842 1335.36,-202.394 1394.52,-149.607 1449,-211.842 1516.1,-288.499 1557.29,-620.18 1566.85,-705.02"/>
<polygon fill="midnightblue" stroke="midnightblue" points="1563.39,-705.552 1567.97,-715.105 1570.34,-704.78 1563.39,-705.552"/>
</g>
<!-- Node61&#45;&gt;Node53 -->
<g id="edge43" class="edge"><title>Node61&#45;&gt;Node53</title>
<path fill="none" stroke="midnightblue" d="M1239.03,-40.8421C1304.87,-40.8421 1420.46,-40.8421 1495.87,-40.8421"/>
<polygon fill="midnightblue" stroke="midnightblue" points="1496.23,-44.3422 1506.23,-40.8421 1496.23,-37.3422 1496.23,-44.3422"/>
</g>
<!-- Node61&#45;&gt;Node62 -->
<g id="edge36" class="edge"><title>Node61&#45;&gt;Node62</title>
<path fill="none" stroke="midnightblue" d="M1226.78,-50.3852C1252.24,-56.7317 1285.88,-65.1162 1313.11,-71.9039"/>
<polygon fill="midnightblue" stroke="midnightblue" points="1312.27,-75.303 1322.82,-74.3257 1313.97,-68.5108 1312.27,-75.303"/>
</g>
<!-- Node62&#45;&gt;Node37 -->
<g id="edge37" class="edge"><title>Node62&#45;&gt;Node37</title>
<path fill="none" stroke="midnightblue" d="M1389.58,-93.3856C1406.69,-99.6907 1429.33,-108.333 1449,-116.842 1481.25,-130.793 1517.46,-148.599 1541.59,-160.78"/>
<polygon fill="midnightblue" stroke="midnightblue" points="1540.02,-163.908 1550.52,-165.311 1543.18,-157.665 1540.02,-163.908"/>
</g>
<!-- Node62&#45;&gt;Node38 -->
<g id="edge38" class="edge"><title>Node62&#45;&gt;Node38</title>
<path fill="none" stroke="midnightblue" d="M1375.78,-93.3488C1394.86,-108.274 1430.54,-139.111 1449,-173.842 1549.32,-362.577 1565.81,-630.138 1568.49,-704.812"/>
<polygon fill="midnightblue" stroke="midnightblue" points="1565,-705.213 1568.81,-715.099 1571.99,-704.994 1565,-705.213"/>
</g>
<!-- Node62&#45;&gt;Node48 -->
<g id="edge40" class="edge"><title>Node62&#45;&gt;Node48</title>
<path fill="none" stroke="midnightblue" d="M1415.01,-92.0737C1426.26,-94.0883 1438.06,-96.3802 1449,-98.8421 1541.68,-119.695 1564.41,-127.249 1655,-155.842 1717.81,-175.667 1789.9,-202.099 1831.47,-217.711"/>
<polygon fill="midnightblue" stroke="midnightblue" points="1830.27,-220.999 1840.86,-221.248 1832.74,-214.448 1830.27,-220.999"/>
</g>
<!-- Node62&#45;&gt;Node53 -->
<g id="edge39" class="edge"><title>Node62&#45;&gt;Node53</title>
<path fill="none" stroke="midnightblue" d="M1408.72,-74.299C1439.66,-67.8413 1480.7,-59.2732 1513.51,-52.4246"/>
<polygon fill="midnightblue" stroke="midnightblue" points="1514.34,-55.8281 1523.41,-50.3586 1512.91,-48.9758 1514.34,-55.8281"/>
</g>
<!-- Node63&#45;&gt;Node43 -->
<g id="edge48" class="edge"><title>Node63&#45;&gt;Node43</title>
<path fill="none" stroke="midnightblue" d="M1087.13,-366.707C1138.61,-369.74 1220.69,-374.576 1281.58,-378.163"/>
<polygon fill="midnightblue" stroke="midnightblue" points="1281.73,-381.678 1291.92,-378.773 1282.15,-374.69 1281.73,-381.678"/>
</g>
<!-- Node63&#45;&gt;Node45 -->
<g id="edge47" class="edge"><title>Node63&#45;&gt;Node45</title>
<path fill="none" stroke="midnightblue" d="M1053.23,-354.188C1071.92,-342.217 1105.42,-321.702 1136,-307.842 1196.96,-280.213 1270.94,-256.7 1317,-243.169"/>
<polygon fill="midnightblue" stroke="midnightblue" points="1318.05,-246.509 1326.67,-240.354 1316.09,-239.787 1318.05,-246.509"/>
</g>
<!-- Node63&#45;&gt;Node54 -->
<g id="edge50" class="edge"><title>Node63&#45;&gt;Node54</title>
<path fill="none" stroke="midnightblue" d="M1054.94,-373.525C1107.56,-404.527 1272.13,-501.486 1335.64,-538.904"/>
<polygon fill="midnightblue" stroke="midnightblue" points="1334.2,-542.118 1344.6,-544.178 1337.76,-536.087 1334.2,-542.118"/>
</g>
<!-- Node63&#45;&gt;Node60 -->
<g id="edge49" class="edge"><title>Node63&#45;&gt;Node60</title>
<path fill="none" stroke="midnightblue" d="M1058.13,-354.251C1077.45,-345.283 1108.04,-332.328 1136,-325.842 1177.63,-316.185 1224.6,-311.308 1264.82,-308.89"/>
<polygon fill="midnightblue" stroke="midnightblue" points="1265.11,-312.38 1274.89,-308.327 1264.71,-305.391 1265.11,-312.38"/>
</g>
<!-- Node64 -->
<g id="node30" class="node"><title>Node64</title>
<g id="a_node30"><a xlink:href="namespacestats.html#a61fb958f0ffbfa6d41efd10f6e71f062" target="_top" xlink:title="Obtain the maximum attributes of the instances. ">
<polygon fill="white" stroke="black" points="1136,-335.342 1136,-354.342 1239,-354.342 1239,-335.342 1136,-335.342"/>
<text text-anchor="middle" x="1187.5" y="-342.342" font-family="Helvetica,sans-Serif" font-size="10.00">stats::maxFeatures</text>
</a>
</g>
</g>
<!-- Node63&#45;&gt;Node64 -->
<g id="edge51" class="edge"><title>Node63&#45;&gt;Node64</title>
<path fill="none" stroke="midnightblue" d="M1087.37,-357.568C1099.66,-355.99 1113,-354.278 1125.79,-352.635"/>
<polygon fill="midnightblue" stroke="midnightblue" points="1126.43,-356.082 1135.91,-351.337 1125.54,-349.139 1126.43,-356.082"/>
</g>
<!-- Node64&#45;&gt;Node41 -->
<g id="edge56" class="edge"><title>Node64&#45;&gt;Node41</title>
<path fill="none" stroke="midnightblue" d="M1140.22,-335.302C1081.49,-324.046 976.93,-306.842 886.5,-306.842 552,-306.842 552,-306.842 552,-306.842 368.612,-306.842 266.93,-573.867 242.06,-648.609"/>
<polygon fill="midnightblue" stroke="midnightblue" points="238.71,-647.594 238.947,-658.186 245.367,-649.758 238.71,-647.594"/>
</g>
<!-- Node64&#45;&gt;Node43 -->
<g id="edge53" class="edge"><title>Node64&#45;&gt;Node43</title>
<path fill="none" stroke="midnightblue" d="M1232.03,-354.431C1255.1,-359.513 1283.63,-365.798 1307.98,-371.162"/>
<polygon fill="midnightblue" stroke="midnightblue" points="1307.27,-374.589 1317.78,-373.322 1308.77,-367.753 1307.27,-374.589"/>
</g>
<!-- Node64&#45;&gt;Node45 -->
<g id="edge52" class="edge"><title>Node64&#45;&gt;Node45</title>
<path fill="none" stroke="midnightblue" d="M1202.91,-335.319C1232.77,-315.586 1301.62,-270.084 1337.81,-246.167"/>
<polygon fill="midnightblue" stroke="midnightblue" points="1339.85,-249.014 1346.26,-240.58 1335.99,-243.174 1339.85,-249.014"/>
</g>
<!-- Node64&#45;&gt;Node54 -->
<g id="edge55" class="edge"><title>Node64&#45;&gt;Node54</title>
<path fill="none" stroke="midnightblue" d="M1196.36,-354.366C1223.24,-386.939 1311.79,-494.218 1346.68,-536.496"/>
<polygon fill="midnightblue" stroke="midnightblue" points="1344.03,-538.778 1353.09,-544.263 1349.43,-534.322 1344.03,-538.778"/>
</g>
<!-- Node64&#45;&gt;Node60 -->
<g id="edge54" class="edge"><title>Node64&#45;&gt;Node60</title>
<path fill="none" stroke="midnightblue" d="M1232.03,-335.253C1255.1,-330.171 1283.63,-323.887 1307.98,-318.522"/>
<polygon fill="midnightblue" stroke="midnightblue" points="1308.77,-321.932 1317.78,-316.362 1307.27,-315.096 1308.77,-321.932"/>
</g>
<!-- Node66 -->
<g id="node32" class="node"><title>Node66</title>
<g id="a_node32"><a xlink:href="namespaceinterfacesse.html#ace6b5b44901bf38644ed492778c620f5" target="_top" xlink:title="For a matrix each items change for constant and a vector. ">
<polygon fill="white" stroke="black" points="497.5,-791.342 497.5,-810.342 608.5,-810.342 608.5,-791.342 497.5,-791.342"/>
<text text-anchor="middle" x="553" y="-798.342" font-family="Helvetica,sans-Serif" font-size="10.00">interfacesse::aasxpa</text>
</a>
</g>
</g>
<!-- Node65&#45;&gt;Node66 -->
<g id="edge58" class="edge"><title>Node65&#45;&gt;Node66</title>
<path fill="none" stroke="midnightblue" d="M417.948,-753.383C444.649,-762.836 485.736,-777.382 515.385,-787.879"/>
<polygon fill="midnightblue" stroke="midnightblue" points="514.37,-791.232 524.964,-791.27 516.706,-784.634 514.37,-791.232"/>
</g>
<!-- Node67 -->
<g id="node33" class="node"><title>Node67</title>
<g id="a_node33"><a xlink:href="namespaceinterfacesse.html#a0569818171fd8f88efe5d7f86e6e0b5d" target="_top" xlink:title="extension of xAXPY operation for T result ">
<polygon fill="white" stroke="black" points="669.5,-791.342 669.5,-810.342 779.5,-810.342 779.5,-791.342 669.5,-791.342"/>
<text text-anchor="middle" x="724.5" y="-798.342" font-family="Helvetica,sans-Serif" font-size="10.00">interfacesse::aysxpy</text>
</a>
</g>
</g>
<!-- Node66&#45;&gt;Node67 -->
<g id="edge59" class="edge"><title>Node66&#45;&gt;Node67</title>
<path fill="none" stroke="midnightblue" d="M608.564,-800.842C624.673,-800.842 642.456,-800.842 659.121,-800.842"/>
<polygon fill="midnightblue" stroke="midnightblue" points="659.328,-804.342 669.328,-800.842 659.328,-797.342 659.328,-804.342"/>
</g>
<!-- Node68&#45;&gt;Node35 -->
<g id="edge62" class="edge"><title>Node68&#45;&gt;Node35</title>
<path fill="none" stroke="midnightblue" d="M363.514,-829.26C307.148,-808.067 171.832,-757.19 107.55,-733.02"/>
<polygon fill="midnightblue" stroke="midnightblue" points="108.458,-729.623 97.8655,-729.379 105.994,-736.175 108.458,-729.623"/>
</g>
<!-- Node68&#45;&gt;Node38 -->
<g id="edge63" class="edge"><title>Node68&#45;&gt;Node38</title>
<path fill="none" stroke="midnightblue" d="M453.201,-838.842C520.002,-838.842 629.263,-838.842 723.5,-838.842 723.5,-838.842 723.5,-838.842 1188.5,-838.842 1326.29,-838.842 1480.79,-769.394 1541.97,-738.907"/>
<polygon fill="midnightblue" stroke="midnightblue" points="1543.62,-741.995 1550.97,-734.366 1540.47,-735.746 1543.62,-741.995"/>
</g>
<!-- Node68&#45;&gt;Node39 -->
<g id="edge65" class="edge"><title>Node68&#45;&gt;Node39</title>
<path fill="none" stroke="midnightblue" d="M405.055,-848.44C423.604,-860.767 457.589,-882.195 489,-895.842 494.303,-898.146 499.971,-900.282 505.653,-902.225"/>
<polygon fill="midnightblue" stroke="midnightblue" points="504.575,-905.555 515.167,-905.311 506.735,-898.896 504.575,-905.555"/>
</g>
<!-- Node69 -->
<g id="node35" class="node"><title>Node69</title>
<g id="a_node35"><a xlink:href="classmat_1_1_matrix_row.html#a1070fba1c0ec0fbaa309f141817be412" target="_top" xlink:title="mat::MatrixRow::initialize">
<polygon fill="white" stroke="black" points="489,-867.342 489,-886.342 617,-886.342 617,-867.342 489,-867.342"/>
<text text-anchor="middle" x="553" y="-874.342" font-family="Helvetica,sans-Serif" font-size="10.00">mat::MatrixRow::initialize</text>
</a>
</g>
</g>
<!-- Node68&#45;&gt;Node69 -->
<g id="edge64" class="edge"><title>Node68&#45;&gt;Node69</title>
<path fill="none" stroke="midnightblue" d="M431.627,-848.431C452.968,-853.468 479.312,-859.686 501.908,-865.019"/>
<polygon fill="midnightblue" stroke="midnightblue" points="501.128,-868.431 511.665,-867.322 502.736,-861.618 501.128,-868.431"/>
</g>
</g>
</svg>
