<?xml version="1.0" encoding="UTF-8" standalone="no"?>
<!DOCTYPE svg PUBLIC "-//W3C//DTD SVG 1.1//EN"
 "http://www.w3.org/Graphics/SVG/1.1/DTD/svg11.dtd">
<!-- Generated by graphviz version 2.38.0 (20140413.2041)
 -->
<!-- Title: interfacesse::sum Pages: 1 -->
<svg width="651pt" height="28pt"
 viewBox="0.00 0.00 651.00 28.00" xmlns="http://www.w3.org/2000/svg" xmlns:xlink="http://www.w3.org/1999/xlink">
<g id="graph0" class="graph" transform="scale(1 1) rotate(0) translate(4 24)">
<title>interfacesse::sum</title>
<polygon fill="white" stroke="none" points="-4,4 -4,-24 647,-24 647,4 -4,4"/>
<!-- Node245 -->
<g id="node1" class="node"><title>Node245</title>
<polygon fill="#bfbfbf" stroke="black" points="0,-0.5 0,-19.5 96,-19.5 96,-0.5 0,-0.5"/>
<text text-anchor="middle" x="48" y="-7.5" font-family="Helvetica,sans-Serif" font-size="10.00">interfacesse::sum</text>
</g>
<!-- Node246 -->
<g id="node2" class="node"><title>Node246</title>
<g id="a_node2"><a xlink:href="namespaceinterfacesse.html#a25f6950d589b92fd5bcf2007fb3fae19" target="_top" xlink:title="interfacesse::sum">
<polygon fill="white" stroke="black" points="132,-0.5 132,-19.5 228,-19.5 228,-0.5 132,-0.5"/>
<text text-anchor="middle" x="180" y="-7.5" font-family="Helvetica,sans-Serif" font-size="10.00">interfacesse::sum</text>
</a>
</g>
</g>
<!-- Node245&#45;&gt;Node246 -->
<g id="edge1" class="edge"><title>Node245&#45;&gt;Node246</title>
<path fill="none" stroke="midnightblue" d="M96.3007,-10C104.559,-10 113.229,-10 121.722,-10"/>
<polygon fill="midnightblue" stroke="midnightblue" points="121.952,-13.5001 131.952,-10 121.952,-6.5001 121.952,-13.5001"/>
</g>
<!-- Node247 -->
<g id="node3" class="node"><title>Node247</title>
<g id="a_node3"><a xlink:href="namespaceinterfacesse.html#a9dd5fb43ad8a83ee5cb2f5ba1bb2085b" target="_top" xlink:title="interfacesse::axpy">
<polygon fill="white" stroke="black" points="264,-0.5 264,-19.5 363,-19.5 363,-0.5 264,-0.5"/>
<text text-anchor="middle" x="313.5" y="-7.5" font-family="Helvetica,sans-Serif" font-size="10.00">interfacesse::axpy</text>
</a>
</g>
</g>
<!-- Node246&#45;&gt;Node247 -->
<g id="edge2" class="edge"><title>Node246&#45;&gt;Node247</title>
<path fill="none" stroke="midnightblue" d="M228.103,-10C236.472,-10 245.281,-10 253.922,-10"/>
<polygon fill="midnightblue" stroke="midnightblue" points="253.953,-13.5001 263.953,-10 253.953,-6.5001 253.953,-13.5001"/>
</g>
<!-- Node248 -->
<g id="node4" class="node"><title>Node248</title>
<g id="a_node4"><a xlink:href="namespaceinterfacesse.html#ae3f94c42a59db65b2941dbfc9f449ea1" target="_top" xlink:title="function xAXPY of blas for doubles vectors ">
<polygon fill="white" stroke="black" points="399,-0.5 399,-19.5 511,-19.5 511,-0.5 399,-0.5"/>
<text text-anchor="middle" x="455" y="-7.5" font-family="Helvetica,sans-Serif" font-size="10.00">interfacesse::axpyInv</text>
</a>
</g>
</g>
<!-- Node247&#45;&gt;Node248 -->
<g id="edge3" class="edge"><title>Node247&#45;&gt;Node248</title>
<path fill="none" stroke="midnightblue" d="M363.29,-10C371.535,-10 380.211,-10 388.794,-10"/>
<polygon fill="midnightblue" stroke="midnightblue" points="388.797,-13.5001 398.797,-10 388.797,-6.5001 388.797,-13.5001"/>
</g>
<!-- Node249 -->
<g id="node5" class="node"><title>Node249</title>
<g id="a_node5"><a xlink:href="namespaceinterfacesse.html#a144ebf70bf38495c3de1aca2c8365e08" target="_top" xlink:title="scal items of the array of type T ">
<polygon fill="white" stroke="black" points="547,-0.5 547,-19.5 643,-19.5 643,-0.5 547,-0.5"/>
<text text-anchor="middle" x="595" y="-7.5" font-family="Helvetica,sans-Serif" font-size="10.00">interfacesse::scal</text>
</a>
</g>
</g>
<!-- Node248&#45;&gt;Node249 -->
<g id="edge4" class="edge"><title>Node248&#45;&gt;Node249</title>
<path fill="none" stroke="midnightblue" d="M511.335,-10C519.651,-10 528.243,-10 536.602,-10"/>
<polygon fill="midnightblue" stroke="midnightblue" points="536.647,-13.5001 546.647,-10 536.647,-6.5001 536.647,-13.5001"/>
</g>
</g>
</svg>
