<?xml version="1.0" encoding="UTF-8" standalone="no"?>
<!DOCTYPE svg PUBLIC "-//W3C//DTD SVG 1.1//EN"
 "http://www.w3.org/Graphics/SVG/1.1/DTD/svg11.dtd">
<!-- Generated by graphviz version 2.38.0 (20140413.2041)
 -->
<!-- Title: inout::instancesReadWithFreq Pages: 1 -->
<!--zoomable 403 -->
<svg id="main" version="1.1" xmlns="http://www.w3.org/2000/svg" xmlns:xlink="http://www.w3.org/1999/xlink" xml:space="preserve" onload="init(evt)">
<style type="text/css"><![CDATA[
.edge:hover path { stroke: red; }
.edge:hover polygon { stroke: red; fill: red; }
]]></style>
<script type="text/javascript"><![CDATA[
var edges = document.getElementsByTagName('g');
if (edges && edges.length) {
  for (var i=0;i<edges.length;i++) {
    if (edges[i].id.substr(0,4)=='edge') {
      edges[i].setAttribute('class','edge');
    }
  }
}
]]></script>
        <defs>
                <circle id="rim" cx="0" cy="0" r="7"/>
                <circle id="rim2" cx="0" cy="0" r="3.5"/>
                <g id="zoomPlus">
                        <use xlink:href="#rim" fill="#404040">
                                <set attributeName="fill" to="#808080" begin="zoomplus.mouseover" end="zoomplus.mouseout"/>
                        </use>
                        <path d="M-4,0h8M0,-4v8" fill="none" stroke="white" stroke-width="1.5" pointer-events="none"/>
                </g>
                <g id="zoomMin">
                        <use xlink:href="#rim" fill="#404040">
                                <set attributeName="fill" to="#808080" begin="zoomminus.mouseover" end="zoomminus.mouseout"/>
                        </use>
                        <path d="M-4,0h8" fill="none" stroke="white" stroke-width="1.5" pointer-events="none"/>
                </g>
                <g id="dirArrow">
                        <path fill="none" stroke="white" stroke-width="1.5" d="M0,-3.0v7 M-2.5,-0.5L0,-3.0L2.5,-0.5"/>
                </g>
               <g id="resetDef">
                       <use xlink:href="#rim2" fill="#404040">
                               <set attributeName="fill" to="#808080" begin="reset.mouseover" end="reset.mouseout"/>
                       </use>
               </g>
        </defs>

<script type="text/javascript">
var viewWidth = 554;
var viewHeight = 403;
var sectionId = 'dynsection-6';
</script>
<script xlink:href="svgpan.js"/>
<svg id="graph" class="graph">
<g id="viewport">
<title>inout::instancesReadWithFreq</title>
<polygon fill="white" stroke="none" points="-4,4 -4,-398.5 550,-398.5 550,4 -4,4"/>
<!-- Node98 -->
<g id="node1" class="node"><title>Node98</title>
<g id="a_node1"><a xlink:title="Read the instances or objects with frequency.">
<polygon fill="#bfbfbf" stroke="black" points="0,-194.5 0,-213.5 152,-213.5 152,-194.5 0,-194.5"/>
<text text-anchor="middle" x="76" y="-201.5" font-family="Helvetica,sans-Serif" font-size="10.00">inout::instancesReadWithFreq</text>
</a>
</g>
</g>
<!-- Node99 -->
<g id="node2" class="node"><title>Node99</title>
<g id="a_node2"><a xlink:href="classinout_1_1_in_param_read_inst.html#a797250bacc8d887b96fa19247c5dd13f" target="_top" xlink:title=" ">
<polygon fill="white" stroke="black" points="410,-364 410,-394 533,-394 533,-364 410,-364"/>
<text text-anchor="start" x="418" y="-382" font-family="Helvetica,sans-Serif" font-size="10.00">inout::InParamReadInst</text>
<text text-anchor="middle" x="471.5" y="-371" font-family="Helvetica,sans-Serif" font-size="10.00">::getCurrentFileInstance</text>
</a>
</g>
</g>
<!-- Node98&#45;&gt;Node99 -->
<g id="edge1" class="edge"><title>Node98&#45;&gt;Node99</title>
<path fill="none" stroke="midnightblue" d="M81.285,-213.665C93.5364,-240.016 131.503,-313.262 188,-345 253.039,-381.537 339.65,-386.799 399.749,-384.97"/>
<polygon fill="midnightblue" stroke="midnightblue" points="400.044,-388.462 409.904,-384.586 399.779,-381.467 400.044,-388.462"/>
</g>
<!-- Node100 -->
<g id="node3" class="node"><title>Node100</title>
<g id="a_node3"><a xlink:href="classinout_1_1_in_param_read_inst.html#ab91dbd838ea608bd3bf963bb97398747" target="_top" xlink:title=" ">
<polygon fill="white" stroke="black" points="399.5,-315 399.5,-345 543.5,-345 543.5,-315 399.5,-315"/>
<text text-anchor="start" x="407.5" y="-333" font-family="Helvetica,sans-Serif" font-size="10.00">inout::InParamReadInst</text>
<text text-anchor="middle" x="471.5" y="-322" font-family="Helvetica,sans-Serif" font-size="10.00">::getCurrentFileInstanceTest</text>
</a>
</g>
</g>
<!-- Node98&#45;&gt;Node100 -->
<g id="edge2" class="edge"><title>Node98&#45;&gt;Node100</title>
<path fill="none" stroke="midnightblue" d="M82.7209,-213.691C97.0078,-236.836 136.811,-295.104 188,-318 251.198,-346.267 330.502,-347.031 388.986,-342.016"/>
<polygon fill="midnightblue" stroke="midnightblue" points="389.655,-345.469 399.287,-341.055 389.005,-338.5 389.655,-345.469"/>
</g>
<!-- Node101 -->
<g id="node4" class="node"><title>Node101</title>
<g id="a_node4"><a xlink:href="classinout_1_1_in_param_read_inst.html#a1f78fb02f92c416f951b805812cbb844" target="_top" xlink:title=" ">
<polygon fill="white" stroke="black" points="397,-266 397,-296 546,-296 546,-266 397,-266"/>
<text text-anchor="start" x="405" y="-284" font-family="Helvetica,sans-Serif" font-size="10.00">inout::InParamReadInst</text>
<text text-anchor="middle" x="471.5" y="-273" font-family="Helvetica,sans-Serif" font-size="10.00">::getHaveHeaderFileInstance</text>
</a>
</g>
</g>
<!-- Node98&#45;&gt;Node101 -->
<g id="edge3" class="edge"><title>Node98&#45;&gt;Node101</title>
<path fill="none" stroke="midnightblue" d="M111.837,-213.505C133.629,-219.272 162.339,-226.546 188,-232 254.487,-246.131 330.422,-259.128 386.809,-268.181"/>
<polygon fill="midnightblue" stroke="midnightblue" points="386.321,-271.647 396.748,-269.768 387.425,-264.735 386.321,-271.647"/>
</g>
<!-- Node102 -->
<g id="node5" class="node"><title>Node102</title>
<g id="a_node5"><a xlink:href="classinout_1_1_in_param_read_inst.html#aecd21395feb34e6f0e60d73be847a065" target="_top" xlink:title=" ">
<polygon fill="white" stroke="black" points="214,-126 214,-156 335,-156 335,-126 214,-126"/>
<text text-anchor="start" x="222" y="-144" font-family="Helvetica,sans-Serif" font-size="10.00">inout::InParamReadInst</text>
<text text-anchor="middle" x="274.5" y="-133" font-family="Helvetica,sans-Serif" font-size="10.00">::getIDInstanceColumn</text>
</a>
</g>
</g>
<!-- Node98&#45;&gt;Node102 -->
<g id="edge4" class="edge"><title>Node98&#45;&gt;Node102</title>
<path fill="none" stroke="midnightblue" d="M106.844,-194.432C135.893,-185.118 180.779,-170.727 216.653,-159.226"/>
<polygon fill="midnightblue" stroke="midnightblue" points="218.057,-162.451 226.511,-156.065 215.92,-155.785 218.057,-162.451"/>
</g>
<!-- Node103 -->
<g id="node6" class="node"><title>Node103</title>
<g id="a_node6"><a xlink:href="classinout_1_1_in_param_read_inst.html#a545c2278a88a57d44a5bc803270b7823" target="_top" xlink:title=" ">
<polygon fill="white" stroke="black" points="196,-77 196,-107 353,-107 353,-77 196,-77"/>
<text text-anchor="start" x="204" y="-95" font-family="Helvetica,sans-Serif" font-size="10.00">inout::InParamReadInst</text>
<text text-anchor="middle" x="274.5" y="-84" font-family="Helvetica,sans-Serif" font-size="10.00">::getInstanceFrequencyColumn</text>
</a>
</g>
</g>
<!-- Node98&#45;&gt;Node103 -->
<g id="edge5" class="edge"><title>Node98&#45;&gt;Node103</title>
<path fill="none" stroke="midnightblue" d="M86.4585,-194.275C104.535,-176.234 145.946,-137.468 188,-116 191.708,-114.107 195.584,-112.347 199.553,-110.712"/>
<polygon fill="midnightblue" stroke="midnightblue" points="200.853,-113.962 208.944,-107.121 198.354,-107.423 200.853,-113.962"/>
</g>
<!-- Node104 -->
<g id="node7" class="node"><title>Node104</title>
<g id="a_node7"><a xlink:href="classinout_1_1_in_param_read_inst.html#a3a28ee2eb118f3e41b2f653f88ed0cbd" target="_top" xlink:title=" ">
<polygon fill="white" stroke="black" points="411,-217 411,-247 532,-247 532,-217 411,-217"/>
<text text-anchor="start" x="419" y="-235" font-family="Helvetica,sans-Serif" font-size="10.00">inout::InParamReadInst</text>
<text text-anchor="middle" x="471.5" y="-224" font-family="Helvetica,sans-Serif" font-size="10.00">::getSelectAttributes</text>
</a>
</g>
</g>
<!-- Node98&#45;&gt;Node104 -->
<g id="edge6" class="edge"><title>Node98&#45;&gt;Node104</title>
<path fill="none" stroke="midnightblue" d="M152.405,-209.366C224.086,-214.466 331.021,-222.075 400.765,-227.038"/>
<polygon fill="midnightblue" stroke="midnightblue" points="400.554,-230.532 410.777,-227.75 401.05,-223.549 400.554,-230.532"/>
</g>
<!-- Node105 -->
<g id="node8" class="node"><title>Node105</title>
<g id="a_node8"><a xlink:href="classinout_1_1_in_param_read_inst.html#abef010eec72dc41b4a9bb30a692e0a66" target="_top" xlink:title=" ">
<polygon fill="white" stroke="black" points="411,-168 411,-198 532,-198 532,-168 411,-168"/>
<text text-anchor="start" x="419" y="-186" font-family="Helvetica,sans-Serif" font-size="10.00">inout::InParamReadInst</text>
<text text-anchor="middle" x="471.5" y="-175" font-family="Helvetica,sans-Serif" font-size="10.00">::getSeparateAttributes</text>
</a>
</g>
</g>
<!-- Node98&#45;&gt;Node105 -->
<g id="edge7" class="edge"><title>Node98&#45;&gt;Node105</title>
<path fill="none" stroke="midnightblue" d="M152.405,-199.976C224.086,-196.15 331.021,-190.444 400.765,-186.722"/>
<polygon fill="midnightblue" stroke="midnightblue" points="400.978,-190.215 410.777,-186.187 400.604,-183.225 400.978,-190.215"/>
</g>
<!-- Node106 -->
<g id="node9" class="node"><title>Node106</title>
<g id="a_node9"><a xlink:href="classdata_1_1_instance.html#a5f4fa9c2e55a7a3f2faaefcb6da70e72" target="_top" xlink:title=" ">
<polygon fill="white" stroke="black" points="203.5,-38.5 203.5,-57.5 345.5,-57.5 345.5,-38.5 203.5,-38.5"/>
<text text-anchor="middle" x="274.5" y="-45.5" font-family="Helvetica,sans-Serif" font-size="10.00">data::Instance::readFeature</text>
</a>
</g>
</g>
<!-- Node98&#45;&gt;Node106 -->
<g id="edge8" class="edge"><title>Node98&#45;&gt;Node106</title>
<path fill="none" stroke="midnightblue" d="M81.9127,-194.161C95.18,-168.675 134.381,-100.19 188,-67 191.394,-64.8992 194.991,-63.0294 198.713,-61.3655"/>
<polygon fill="midnightblue" stroke="midnightblue" points="200.158,-64.5582 208.181,-57.6387 197.594,-58.0446 200.158,-64.5582"/>
</g>
<!-- Node108 -->
<g id="node11" class="node"><title>Node108</title>
<g id="a_node11"><a xlink:href="namespaceinout.html#a3be322f2729994e704ba3ebde92370a3" target="_top" xlink:title="Read the number of instances or objects.">
<polygon fill="white" stroke="black" points="210.5,-289.5 210.5,-308.5 338.5,-308.5 338.5,-289.5 210.5,-289.5"/>
<text text-anchor="middle" x="274.5" y="-296.5" font-family="Helvetica,sans-Serif" font-size="10.00">inout::readNumInstances</text>
</a>
</g>
</g>
<!-- Node98&#45;&gt;Node108 -->
<g id="edge10" class="edge"><title>Node98&#45;&gt;Node108</title>
<path fill="none" stroke="midnightblue" d="M89.287,-213.604C109.052,-228.638 149.59,-257.785 188,-275 198.125,-279.538 209.315,-283.422 220.17,-286.66"/>
<polygon fill="midnightblue" stroke="midnightblue" points="219.429,-290.088 230.005,-289.452 221.341,-283.354 219.429,-290.088"/>
</g>
<!-- Node109 -->
<g id="node12" class="node"><title>Node109</title>
<g id="a_node12"><a xlink:href="classdata_1_1_instance.html#a9a4c4f464dd53ad44e50108b7822ee22" target="_top" xlink:title=" ">
<polygon fill="white" stroke="black" points="188,-0.5 188,-19.5 361,-19.5 361,-0.5 188,-0.5"/>
<text text-anchor="middle" x="274.5" y="-7.5" font-family="Helvetica,sans-Serif" font-size="10.00">data::Instance::setNumDimensions</text>
</a>
</g>
</g>
<!-- Node98&#45;&gt;Node109 -->
<g id="edge16" class="edge"><title>Node98&#45;&gt;Node109</title>
<path fill="none" stroke="midnightblue" d="M80.1777,-194.152C90.4185,-164.079 125.575,-72.8264 188,-29 190.738,-27.0778 193.637,-25.3457 196.648,-23.7851"/>
<polygon fill="midnightblue" stroke="midnightblue" points="198.284,-26.8873 205.975,-19.5998 195.418,-20.5009 198.284,-26.8873"/>
</g>
<!-- Node107 -->
<g id="node10" class="node"><title>Node107</title>
<g id="a_node10"><a xlink:href="classinout_1_1_line_split.html#ae0164399f1d1a87347d0406af9f0327a" target="_top" xlink:title=" ">
<polygon fill="white" stroke="black" points="411.5,-33 411.5,-63 531.5,-63 531.5,-33 411.5,-33"/>
<text text-anchor="start" x="419.5" y="-51" font-family="Helvetica,sans-Serif" font-size="10.00">inout::LineSplit::getItem</text>
<text text-anchor="middle" x="471.5" y="-40" font-family="Helvetica,sans-Serif" font-size="10.00">Select</text>
</a>
</g>
</g>
<!-- Node106&#45;&gt;Node107 -->
<g id="edge9" class="edge"><title>Node106&#45;&gt;Node107</title>
<path fill="none" stroke="midnightblue" d="M345.624,-48C363.689,-48 383.119,-48 401.145,-48"/>
<polygon fill="midnightblue" stroke="midnightblue" points="401.285,-51.5001 411.285,-48 401.285,-44.5001 401.285,-51.5001"/>
</g>
<!-- Node108&#45;&gt;Node99 -->
<g id="edge11" class="edge"><title>Node108&#45;&gt;Node99</title>
<path fill="none" stroke="midnightblue" d="M294.56,-308.625C318.235,-320.384 360.025,-340.499 397,-355 401.798,-356.882 406.809,-358.738 411.863,-360.536"/>
<polygon fill="midnightblue" stroke="midnightblue" points="410.993,-363.939 421.587,-363.91 413.287,-357.325 410.993,-363.939"/>
</g>
<!-- Node108&#45;&gt;Node100 -->
<g id="edge12" class="edge"><title>Node108&#45;&gt;Node100</title>
<path fill="none" stroke="midnightblue" d="M335.332,-308.512C352.429,-311.23 371.353,-314.238 389.493,-317.122"/>
<polygon fill="midnightblue" stroke="midnightblue" points="389.047,-320.595 399.473,-318.709 390.146,-313.682 389.047,-320.595"/>
</g>
<!-- Node108&#45;&gt;Node101 -->
<g id="edge15" class="edge"><title>Node108&#45;&gt;Node101</title>
<path fill="none" stroke="midnightblue" d="M338.542,-293.181C353.93,-291.76 370.634,-290.218 386.818,-288.724"/>
<polygon fill="midnightblue" stroke="midnightblue" points="387.176,-292.206 396.812,-287.802 386.533,-285.236 387.176,-292.206"/>
</g>
<!-- Node108&#45;&gt;Node104 -->
<g id="edge14" class="edge"><title>Node108&#45;&gt;Node104</title>
<path fill="none" stroke="midnightblue" d="M301.981,-289.417C326.55,-280.577 364.165,-267.169 397,-256 402.536,-254.117 408.316,-252.18 414.097,-250.261"/>
<polygon fill="midnightblue" stroke="midnightblue" points="415.385,-253.522 423.784,-247.064 413.191,-246.875 415.385,-253.522"/>
</g>
<!-- Node108&#45;&gt;Node105 -->
<g id="edge13" class="edge"><title>Node108&#45;&gt;Node105</title>
<path fill="none" stroke="midnightblue" d="M285.732,-289.327C305.671,-270.938 351.749,-230.665 397,-207 400.448,-205.197 404.057,-203.495 407.747,-201.893"/>
<polygon fill="midnightblue" stroke="midnightblue" points="409.09,-205.125 417.039,-198.12 406.457,-198.639 409.09,-205.125"/>
</g>
</g>
</svg>
        <g id="navigator" transform="translate(0 0)" fill="#404254">
                <rect fill="#f2f5e9" fill-opacity="0.5" stroke="#606060" stroke-width=".5" x="0" y="0" width="60" height="60"/>
                <use id="zoomplus" xlink:href="#zoomPlus" x="17" y="9" onmousedown="handleZoom(evt,'in')"/>
                <use id="zoomminus" xlink:href="#zoomMin" x="42" y="9" onmousedown="handleZoom(evt,'out')"/>
                <use id="reset" xlink:href="#resetDef" x="30" y="36" onmousedown="handleReset()"/>
                <g id="arrowUp" xlink:href="#dirArrow" transform="translate(30 24)" onmousedown="handlePan(0,-1)">
                  <use xlink:href="#rim" fill="#404040">
                        <set attributeName="fill" to="#808080" begin="arrowUp.mouseover" end="arrowUp.mouseout"/>
                  </use>
                  <path fill="none" stroke="white" stroke-width="1.5" d="M0,-3.0v7 M-2.5,-0.5L0,-3.0L2.5,-0.5"/>
                </g>
                <g id="arrowRight" xlink:href="#dirArrow" transform="rotate(90) translate(36 -43)" onmousedown="handlePan(1,0)">
                  <use xlink:href="#rim" fill="#404040">
                        <set attributeName="fill" to="#808080" begin="arrowRight.mouseover" end="arrowRight.mouseout"/>
                  </use>
                  <path fill="none" stroke="white" stroke-width="1.5" d="M0,-3.0v7 M-2.5,-0.5L0,-3.0L2.5,-0.5"/>
                </g>
                <g id="arrowDown" xlink:href="#dirArrow" transform="rotate(180) translate(-30 -48)" onmousedown="handlePan(0,1)">
                  <use xlink:href="#rim" fill="#404040">
                        <set attributeName="fill" to="#808080" begin="arrowDown.mouseover" end="arrowDown.mouseout"/>
                  </use>
                  <path fill="none" stroke="white" stroke-width="1.5" d="M0,-3.0v7 M-2.5,-0.5L0,-3.0L2.5,-0.5"/>
                </g>
                <g id="arrowLeft" xlink:href="#dirArrow" transform="rotate(270) translate(-36 17)" onmousedown="handlePan(-1,0)">
                  <use xlink:href="#rim" fill="#404040">
                        <set attributeName="fill" to="#808080" begin="arrowLeft.mouseover" end="arrowLeft.mouseout"/>
                  </use>
                  <path fill="none" stroke="white" stroke-width="1.5" d="M0,-3.0v7 M-2.5,-0.5L0,-3.0L2.5,-0.5"/>
                </g>
        </g>
        <svg viewBox="0 0 15 15" width="100%" height="30px" preserveAspectRatio="xMaxYMin meet">
         <g id="arrow_out" transform="scale(0.3 0.3)">
          <a xlink:href="namespaceinout_a88b27be61cf704d51541555783195349_cgraph_org.svg" target="_base">
           <rect id="button" ry="5" rx="5" y="6" x="6" height="38" width="38"
                fill="#f2f5e9" fill-opacity="0.5" stroke="#606060" stroke-width="1.0"/>
           <path id="arrow"
             d="M 11.500037,31.436501 C 11.940474,20.09759 22.043105,11.32322 32.158766,21.979434 L 37.068811,17.246167 C 37.068811,17.246167 37.088388,32 37.088388,32 L 22.160133,31.978069 C 22.160133,31.978069 26.997745,27.140456 26.997745,27.140456 C 18.528582,18.264221 13.291696,25.230495 11.500037,31.436501 z"
             style="fill:#404040;"/>
          </a>
         </g>
        </svg>
</svg>
