<?xml version="1.0" encoding="UTF-8" standalone="no"?>
<!DOCTYPE svg PUBLIC "-//W3C//DTD SVG 1.1//EN"
 "http://www.w3.org/Graphics/SVG/1.1/DTD/svg11.dtd">
<!-- Generated by graphviz version 2.38.0 (20140413.2041)
 -->
<!-- Title: sm::recall Pages: 1 -->
<!--zoomable 190 -->
<svg id="main" version="1.1" xmlns="http://www.w3.org/2000/svg" xmlns:xlink="http://www.w3.org/1999/xlink" xml:space="preserve" onload="init(evt)">
<style type="text/css"><![CDATA[
.edge:hover path { stroke: red; }
.edge:hover polygon { stroke: red; fill: red; }
]]></style>
<script type="text/javascript"><![CDATA[
var edges = document.getElementsByTagName('g');
if (edges && edges.length) {
  for (var i=0;i<edges.length;i++) {
    if (edges[i].id.substr(0,4)=='edge') {
      edges[i].setAttribute('class','edge');
    }
  }
}
]]></script>
        <defs>
                <circle id="rim" cx="0" cy="0" r="7"/>
                <circle id="rim2" cx="0" cy="0" r="3.5"/>
                <g id="zoomPlus">
                        <use xlink:href="#rim" fill="#404040">
                                <set attributeName="fill" to="#808080" begin="zoomplus.mouseover" end="zoomplus.mouseout"/>
                        </use>
                        <path d="M-4,0h8M0,-4v8" fill="none" stroke="white" stroke-width="1.5" pointer-events="none"/>
                </g>
                <g id="zoomMin">
                        <use xlink:href="#rim" fill="#404040">
                                <set attributeName="fill" to="#808080" begin="zoomminus.mouseover" end="zoomminus.mouseout"/>
                        </use>
                        <path d="M-4,0h8" fill="none" stroke="white" stroke-width="1.5" pointer-events="none"/>
                </g>
                <g id="dirArrow">
                        <path fill="none" stroke="white" stroke-width="1.5" d="M0,-3.0v7 M-2.5,-0.5L0,-3.0L2.5,-0.5"/>
                </g>
               <g id="resetDef">
                       <use xlink:href="#rim2" fill="#404040">
                               <set attributeName="fill" to="#808080" begin="reset.mouseover" end="reset.mouseout"/>
                       </use>
               </g>
        </defs>

<script type="text/javascript">
var viewWidth = 560;
var viewHeight = 190;
var sectionId = 'dynsection-8';
</script>
<script xlink:href="svgpan.js"/>
<svg id="graph" class="graph">
<g id="viewport">
<title>sm::recall</title>
<polygon fill="white" stroke="none" points="-4,4 -4,-185.5 556,-185.5 556,4 -4,4"/>
<!-- Node64 -->
<g id="node1" class="node"><title>Node64</title>
<polygon fill="#bfbfbf" stroke="black" points="0,-77.5 0,-96.5 61,-96.5 61,-77.5 0,-77.5"/>
<text text-anchor="middle" x="30.5" y="-84.5" font-family="Helvetica,sans-Serif" font-size="10.00">sm::recall</text>
</g>
<!-- Node65 -->
<g id="node2" class="node"><title>Node65</title>
<g id="a_node2"><a xlink:href="namespacesm.html#a96e05db1128bc7c5f6235ef62aec9cf8" target="_top" xlink:title="sm::fmeasure">
<polygon fill="white" stroke="black" points="97,-77.5 97,-96.5 175,-96.5 175,-77.5 97,-77.5"/>
<text text-anchor="middle" x="136" y="-84.5" font-family="Helvetica,sans-Serif" font-size="10.00">sm::fmeasure</text>
</a>
</g>
</g>
<!-- Node64&#45;&gt;Node65 -->
<g id="edge1" class="edge"><title>Node64&#45;&gt;Node65</title>
<path fill="none" stroke="midnightblue" d="M61.1589,-87C69.1447,-87 77.9945,-87 86.7126,-87"/>
<polygon fill="midnightblue" stroke="midnightblue" points="86.8268,-90.5001 96.8268,-87 86.8267,-83.5001 86.8268,-90.5001"/>
</g>
<!-- Node67 -->
<g id="node4" class="node"><title>Node67</title>
<g id="a_node4"><a xlink:href="classsm_1_1_confusion_matching_matrix.html#a0702e68751487b010d378e92a90448c6" target="_top" xlink:title="sm::ConfusionMatchingMatrix\l::getSomeClassUDiffClusterV">
<polygon fill="white" stroke="black" points="217.5,-151 217.5,-181 366.5,-181 366.5,-151 217.5,-151"/>
<text text-anchor="start" x="225.5" y="-169" font-family="Helvetica,sans-Serif" font-size="10.00">sm::ConfusionMatchingMatrix</text>
<text text-anchor="middle" x="292" y="-158" font-family="Helvetica,sans-Serif" font-size="10.00">::getSomeClassUDiffClusterV</text>
</a>
</g>
</g>
<!-- Node64&#45;&gt;Node67 -->
<g id="edge10" class="edge"><title>Node64&#45;&gt;Node67</title>
<path fill="none" stroke="midnightblue" d="M61.0233,-96.1042C96.5814,-107.056 158.131,-125.97 211,-142 217.433,-143.951 224.16,-145.982 230.863,-148"/>
<polygon fill="midnightblue" stroke="midnightblue" points="230.045,-151.409 240.629,-150.938 232.061,-144.706 230.045,-151.409"/>
</g>
<!-- Node68 -->
<g id="node5" class="node"><title>Node68</title>
<g id="a_node5"><a xlink:href="classsm_1_1_confusion_matching_matrix.html#ad1eb28e719bab5566cc56aa2a094ffa1" target="_top" xlink:title="sm::ConfusionMatchingMatrix\l::getSomeClassUSomeClusterV">
<polygon fill="white" stroke="black" points="211,-14 211,-44 373,-44 373,-14 211,-14"/>
<text text-anchor="start" x="219" y="-32" font-family="Helvetica,sans-Serif" font-size="10.00">sm::ConfusionMatchingMatrix</text>
<text text-anchor="middle" x="292" y="-21" font-family="Helvetica,sans-Serif" font-size="10.00">::getSomeClassUSomeClusterV</text>
</a>
</g>
</g>
<!-- Node64&#45;&gt;Node68 -->
<g id="edge11" class="edge"><title>Node64&#45;&gt;Node68</title>
<path fill="none" stroke="midnightblue" d="M61.03,-77.8631C72.2385,-74.5459 85.1551,-70.9031 97,-68 130.716,-59.7363 168.041,-51.9201 200.872,-45.4855"/>
<polygon fill="midnightblue" stroke="midnightblue" points="201.76,-48.8785 210.908,-43.5339 200.424,-42.0072 201.76,-48.8785"/>
</g>
<!-- Node66 -->
<g id="node3" class="node"><title>Node66</title>
<g id="a_node3"><a xlink:href="classsm_1_1_confusion_matching_matrix.html#a41509cbd4bd3f57b64b634eca980dd08" target="_top" xlink:title="sm::ConfusionMatchingMatrix\l::getDiffClassUSomeClusterV">
<polygon fill="white" stroke="black" points="217.5,-102 217.5,-132 366.5,-132 366.5,-102 217.5,-102"/>
<text text-anchor="start" x="225.5" y="-120" font-family="Helvetica,sans-Serif" font-size="10.00">sm::ConfusionMatchingMatrix</text>
<text text-anchor="middle" x="292" y="-109" font-family="Helvetica,sans-Serif" font-size="10.00">::getDiffClassUSomeClusterV</text>
</a>
</g>
</g>
<!-- Node65&#45;&gt;Node66 -->
<g id="edge2" class="edge"><title>Node65&#45;&gt;Node66</title>
<path fill="none" stroke="midnightblue" d="M175.067,-94.4157C184.988,-96.3482 196.078,-98.5086 207.359,-100.706"/>
<polygon fill="midnightblue" stroke="midnightblue" points="206.814,-104.166 217.298,-102.643 208.152,-97.2949 206.814,-104.166"/>
</g>
<!-- Node65&#45;&gt;Node67 -->
<g id="edge3" class="edge"><title>Node65&#45;&gt;Node67</title>
<path fill="none" stroke="midnightblue" d="M147.726,-96.8886C161.448,-109.065 186.395,-129.646 211,-142 214.718,-143.867 218.607,-145.616 222.582,-147.251"/>
<polygon fill="midnightblue" stroke="midnightblue" points="221.384,-150.541 231.974,-150.861 223.896,-144.007 221.384,-150.541"/>
</g>
<!-- Node65&#45;&gt;Node68 -->
<g id="edge4" class="edge"><title>Node65&#45;&gt;Node68</title>
<path fill="none" stroke="midnightblue" d="M156.837,-77.3955C171.59,-70.44 192.314,-61.0587 211,-54 216.985,-51.7391 223.274,-49.5173 229.587,-47.388"/>
<polygon fill="midnightblue" stroke="midnightblue" points="231.083,-50.5802 239.484,-44.1255 228.891,-43.932 231.083,-50.5802"/>
</g>
<!-- Node71 -->
<g id="node8" class="node"><title>Node71</title>
<g id="a_node8"><a xlink:href="namespacesm.html#a3d0a9aeca5eb4257cb56daf6f3b4c15b" target="_top" xlink:title="sm::purity">
<polygon fill="white" stroke="black" points="262.5,-63.5 262.5,-82.5 321.5,-82.5 321.5,-63.5 262.5,-63.5"/>
<text text-anchor="middle" x="292" y="-70.5" font-family="Helvetica,sans-Serif" font-size="10.00">sm::purity</text>
</a>
</g>
</g>
<!-- Node65&#45;&gt;Node71 -->
<g id="edge7" class="edge"><title>Node65&#45;&gt;Node71</title>
<path fill="none" stroke="midnightblue" d="M175.067,-83.5393C198.499,-81.4092 228.458,-78.6856 252.051,-76.5408"/>
<polygon fill="midnightblue" stroke="midnightblue" points="252.423,-80.0215 262.065,-75.6305 251.789,-73.0503 252.423,-80.0215"/>
</g>
<!-- Node69 -->
<g id="node6" class="node"><title>Node69</title>
<g id="a_node6"><a xlink:href="classmat_1_1_matrix_base.html#ac500eedd5e203327d3292f8ab22d8f3e" target="_top" xlink:title="mat::MatrixBase\&lt; T\l_INSTANCES_CLUSTER_K\l \&gt;::getNumRows">
<polygon fill="white" stroke="black" points="409,-60.5 409,-101.5 552,-101.5 552,-60.5 409,-60.5"/>
<text text-anchor="start" x="417" y="-89.5" font-family="Helvetica,sans-Serif" font-size="10.00">mat::MatrixBase&lt; T</text>
<text text-anchor="start" x="417" y="-78.5" font-family="Helvetica,sans-Serif" font-size="10.00">_INSTANCES_CLUSTER_K</text>
<text text-anchor="middle" x="480.5" y="-67.5" font-family="Helvetica,sans-Serif" font-size="10.00"> &gt;::getNumRows</text>
</a>
</g>
</g>
<!-- Node68&#45;&gt;Node69 -->
<g id="edge5" class="edge"><title>Node68&#45;&gt;Node69</title>
<path fill="none" stroke="midnightblue" d="M346.944,-44.0406C363.191,-48.5708 381.388,-53.6443 398.97,-58.5465"/>
<polygon fill="midnightblue" stroke="midnightblue" points="398.085,-61.9333 408.658,-61.2478 399.965,-55.1905 398.085,-61.9333"/>
</g>
<!-- Node70 -->
<g id="node7" class="node"><title>Node70</title>
<g id="a_node7"><a xlink:href="classmat_1_1_matrix_base.html#a70200414022ce1479b9ddc16102b12ae" target="_top" xlink:title="mat::MatrixBase\&lt; T\l_INSTANCES_CLUSTER_K\l \&gt;::getNumColumns">
<polygon fill="white" stroke="black" points="409,-0.5 409,-41.5 552,-41.5 552,-0.5 409,-0.5"/>
<text text-anchor="start" x="417" y="-29.5" font-family="Helvetica,sans-Serif" font-size="10.00">mat::MatrixBase&lt; T</text>
<text text-anchor="start" x="417" y="-18.5" font-family="Helvetica,sans-Serif" font-size="10.00">_INSTANCES_CLUSTER_K</text>
<text text-anchor="middle" x="480.5" y="-7.5" font-family="Helvetica,sans-Serif" font-size="10.00"> &gt;::getNumColumns</text>
</a>
</g>
</g>
<!-- Node68&#45;&gt;Node70 -->
<g id="edge6" class="edge"><title>Node68&#45;&gt;Node70</title>
<path fill="none" stroke="midnightblue" d="M373.175,-25.5609C381.598,-25.1996 390.165,-24.832 398.596,-24.4704"/>
<polygon fill="midnightblue" stroke="midnightblue" points="398.952,-27.9585 408.793,-24.033 398.652,-20.9649 398.952,-27.9585"/>
</g>
<!-- Node71&#45;&gt;Node69 -->
<g id="edge9" class="edge"><title>Node71&#45;&gt;Node69</title>
<path fill="none" stroke="midnightblue" d="M321.732,-74.2325C342.389,-75.1186 371.332,-76.3601 398.796,-77.5382"/>
<polygon fill="midnightblue" stroke="midnightblue" points="398.688,-81.0367 408.829,-77.9685 398.988,-74.0431 398.688,-81.0367"/>
</g>
<!-- Node71&#45;&gt;Node70 -->
<g id="edge8" class="edge"><title>Node71&#45;&gt;Node70</title>
<path fill="none" stroke="midnightblue" d="M321.594,-66.1961C336.89,-62.4697 356.022,-57.6703 373,-53 382.804,-50.3032 393.082,-47.3616 403.223,-44.39"/>
<polygon fill="midnightblue" stroke="midnightblue" points="404.285,-47.7262 412.885,-41.5389 402.303,-41.0124 404.285,-47.7262"/>
</g>
</g>
</svg>
        <g id="navigator" transform="translate(0 0)" fill="#404254">
                <rect fill="#f2f5e9" fill-opacity="0.5" stroke="#606060" stroke-width=".5" x="0" y="0" width="60" height="60"/>
                <use id="zoomplus" xlink:href="#zoomPlus" x="17" y="9" onmousedown="handleZoom(evt,'in')"/>
                <use id="zoomminus" xlink:href="#zoomMin" x="42" y="9" onmousedown="handleZoom(evt,'out')"/>
                <use id="reset" xlink:href="#resetDef" x="30" y="36" onmousedown="handleReset()"/>
                <g id="arrowUp" xlink:href="#dirArrow" transform="translate(30 24)" onmousedown="handlePan(0,-1)">
                  <use xlink:href="#rim" fill="#404040">
                        <set attributeName="fill" to="#808080" begin="arrowUp.mouseover" end="arrowUp.mouseout"/>
                  </use>
                  <path fill="none" stroke="white" stroke-width="1.5" d="M0,-3.0v7 M-2.5,-0.5L0,-3.0L2.5,-0.5"/>
                </g>
                <g id="arrowRight" xlink:href="#dirArrow" transform="rotate(90) translate(36 -43)" onmousedown="handlePan(1,0)">
                  <use xlink:href="#rim" fill="#404040">
                        <set attributeName="fill" to="#808080" begin="arrowRight.mouseover" end="arrowRight.mouseout"/>
                  </use>
                  <path fill="none" stroke="white" stroke-width="1.5" d="M0,-3.0v7 M-2.5,-0.5L0,-3.0L2.5,-0.5"/>
                </g>
                <g id="arrowDown" xlink:href="#dirArrow" transform="rotate(180) translate(-30 -48)" onmousedown="handlePan(0,1)">
                  <use xlink:href="#rim" fill="#404040">
                        <set attributeName="fill" to="#808080" begin="arrowDown.mouseover" end="arrowDown.mouseout"/>
                  </use>
                  <path fill="none" stroke="white" stroke-width="1.5" d="M0,-3.0v7 M-2.5,-0.5L0,-3.0L2.5,-0.5"/>
                </g>
                <g id="arrowLeft" xlink:href="#dirArrow" transform="rotate(270) translate(-36 17)" onmousedown="handlePan(-1,0)">
                  <use xlink:href="#rim" fill="#404040">
                        <set attributeName="fill" to="#808080" begin="arrowLeft.mouseover" end="arrowLeft.mouseout"/>
                  </use>
                  <path fill="none" stroke="white" stroke-width="1.5" d="M0,-3.0v7 M-2.5,-0.5L0,-3.0L2.5,-0.5"/>
                </g>
        </g>
        <svg viewBox="0 0 15 15" width="100%" height="30px" preserveAspectRatio="xMaxYMin meet">
         <g id="arrow_out" transform="scale(0.3 0.3)">
          <a xlink:href="namespacesm_ab9aceb38d5bcf49ab66bea832ab7a5bb_cgraph_org.svg" target="_base">
           <rect id="button" ry="5" rx="5" y="6" x="6" height="38" width="38"
                fill="#f2f5e9" fill-opacity="0.5" stroke="#606060" stroke-width="1.0"/>
           <path id="arrow"
             d="M 11.500037,31.436501 C 11.940474,20.09759 22.043105,11.32322 32.158766,21.979434 L 37.068811,17.246167 C 37.068811,17.246167 37.088388,32 37.088388,32 L 22.160133,31.978069 C 22.160133,31.978069 26.997745,27.140456 26.997745,27.140456 C 18.528582,18.264221 13.291696,25.230495 11.500037,31.436501 z"
             style="fill:#404040;"/>
          </a>
         </g>
        </svg>
</svg>
