<?xml version="1.0" encoding="UTF-8" standalone="no"?>
<!DOCTYPE svg PUBLIC "-//W3C//DTD SVG 1.1//EN"
 "http://www.w3.org/Graphics/SVG/1.1/DTD/svg11.dtd">
<!-- Generated by graphviz version 2.38.0 (20140413.2041)
 -->
<!-- Title: clusteringop::fillEmptyPartitions Pages: 1 -->
<svg width="520pt" height="230pt"
 viewBox="0.00 0.00 520.00 230.00" xmlns="http://www.w3.org/2000/svg" xmlns:xlink="http://www.w3.org/1999/xlink">
<g id="graph0" class="graph" transform="scale(1 1) rotate(0) translate(4 226)">
<title>clusteringop::fillEmptyPartitions</title>
<polygon fill="white" stroke="none" points="-4,4 -4,-226 516,-226 516,4 -4,4"/>
<!-- Node9 -->
<g id="node1" class="node"><title>Node9</title>
<g id="a_node1"><a xlink:title="Fill empty partitions.">
<polygon fill="#bfbfbf" stroke="black" points="0,-120.5 0,-139.5 154,-139.5 154,-120.5 0,-120.5"/>
<text text-anchor="middle" x="77" y="-127.5" font-family="Helvetica,sans-Serif" font-size="10.00">clusteringop::fillEmptyPartitions</text>
</a>
</g>
</g>
<!-- Node10 -->
<g id="node2" class="node"><title>Node10</title>
<g id="a_node2"><a xlink:href="namespaceinterfacesse.html#a925f44ed84d40e9af5050fa0e1373396" target="_top" xlink:title="copy array aoarrayt_x in aoarrayt_y of type T">
<polygon fill="white" stroke="black" points="227.5,-202.5 227.5,-221.5 326.5,-221.5 326.5,-202.5 227.5,-202.5"/>
<text text-anchor="middle" x="277" y="-209.5" font-family="Helvetica,sans-Serif" font-size="10.00">interfacesse::copy</text>
</a>
</g>
</g>
<!-- Node9&#45;&gt;Node10 -->
<g id="edge1" class="edge"><title>Node9&#45;&gt;Node10</title>
<path fill="none" stroke="midnightblue" d="M91.8337,-139.572C112.356,-153.345 152.487,-178.669 190,-193 198.602,-196.286 207.915,-199.077 217.13,-201.425"/>
<polygon fill="midnightblue" stroke="midnightblue" points="216.511,-204.876 227.051,-203.801 218.141,-198.068 216.511,-204.876"/>
</g>
<!-- Node11 -->
<g id="node3" class="node"><title>Node11</title>
<g id="a_node3"><a xlink:href="classdata_1_1_instance.html#aa6ee19c383a86228b3d134e42bdb6830" target="_top" xlink:title=" ">
<polygon fill="white" stroke="black" points="207,-164.5 207,-183.5 347,-183.5 347,-164.5 207,-164.5"/>
<text text-anchor="middle" x="277" y="-171.5" font-family="Helvetica,sans-Serif" font-size="10.00">data::Instance::getFeatures</text>
</a>
</g>
</g>
<!-- Node9&#45;&gt;Node11 -->
<g id="edge2" class="edge"><title>Node9&#45;&gt;Node11</title>
<path fill="none" stroke="midnightblue" d="M120.542,-139.519C141.461,-144.194 167.05,-149.903 190,-155 200.628,-157.36 211.998,-159.877 222.873,-162.282"/>
<polygon fill="midnightblue" stroke="midnightblue" points="222.167,-165.71 232.687,-164.45 223.677,-158.875 222.167,-165.71"/>
</g>
<!-- Node12 -->
<g id="node4" class="node"><title>Node12</title>
<g id="a_node4"><a xlink:href="classdata_1_1_instance_freq.html#a99fa2afc7a6375f3d71af4adc3c21f39" target="_top" xlink:title=" ">
<polygon fill="white" stroke="black" points="226.5,-115 226.5,-145 327.5,-145 327.5,-115 226.5,-115"/>
<text text-anchor="start" x="234.5" y="-133" font-family="Helvetica,sans-Serif" font-size="10.00">data::InstanceFreq</text>
<text text-anchor="middle" x="277" y="-122" font-family="Helvetica,sans-Serif" font-size="10.00">::getFrequency</text>
</a>
</g>
</g>
<!-- Node9&#45;&gt;Node12 -->
<g id="edge3" class="edge"><title>Node9&#45;&gt;Node12</title>
<path fill="none" stroke="midnightblue" d="M154.269,-130C174.769,-130 196.644,-130 216.114,-130"/>
<polygon fill="midnightblue" stroke="midnightblue" points="216.357,-133.5 226.357,-130 216.357,-126.5 216.357,-133.5"/>
</g>
<!-- Node13 -->
<g id="node5" class="node"><title>Node13</title>
<g id="a_node5"><a xlink:href="classdata_1_1_instance.html#a90d1eaeb66cc1470bbfdb95434fdb761" target="_top" xlink:title=" ">
<polygon fill="white" stroke="black" points="190,-76.5 190,-95.5 364,-95.5 364,-76.5 190,-76.5"/>
<text text-anchor="middle" x="277" y="-83.5" font-family="Helvetica,sans-Serif" font-size="10.00">data::Instance::getNumDimensions</text>
</a>
</g>
</g>
<!-- Node9&#45;&gt;Node13 -->
<g id="edge4" class="edge"><title>Node9&#45;&gt;Node13</title>
<path fill="none" stroke="midnightblue" d="M120.963,-120.453C150.931,-113.793 191.114,-104.864 223.061,-97.7642"/>
<polygon fill="midnightblue" stroke="midnightblue" points="224.118,-101.115 233.121,-95.5287 222.6,-94.2814 224.118,-101.115"/>
</g>
<!-- Node14 -->
<g id="node6" class="node"><title>Node14</title>
<g id="a_node6"><a xlink:href="namespacestats.html#a61ea16e97e098fc1598f4a2975cb0a24" target="_top" xlink:title="￼Calculate average of a vector">
<polygon fill="white" stroke="black" points="228,-38.5 228,-57.5 326,-57.5 326,-38.5 228,-38.5"/>
<text text-anchor="middle" x="277" y="-45.5" font-family="Helvetica,sans-Serif" font-size="10.00">stats::meanVector</text>
</a>
</g>
</g>
<!-- Node9&#45;&gt;Node14 -->
<g id="edge5" class="edge"><title>Node9&#45;&gt;Node14</title>
<path fill="none" stroke="midnightblue" d="M91.8337,-120.428C112.356,-106.655 152.487,-81.3308 190,-67 198.905,-63.5981 208.573,-60.7263 218.105,-58.3281"/>
<polygon fill="midnightblue" stroke="midnightblue" points="219.025,-61.707 227.95,-55.9981 217.413,-54.8952 219.025,-61.707"/>
</g>
<!-- Node15 -->
<g id="node7" class="node"><title>Node15</title>
<g id="a_node7"><a xlink:href="namespaceinout.html#a0c10a45877a347dec0d4ec4e5b05b828" target="_top" xlink:title=" ">
<polygon fill="white" stroke="black" points="404.5,-76.5 404.5,-95.5 507.5,-95.5 507.5,-76.5 404.5,-76.5"/>
<text text-anchor="middle" x="456" y="-83.5" font-family="Helvetica,sans-Serif" font-size="10.00">inout::containerprint</text>
</a>
</g>
</g>
<!-- Node14&#45;&gt;Node15 -->
<g id="edge6" class="edge"><title>Node14&#45;&gt;Node15</title>
<path fill="none" stroke="midnightblue" d="M322.665,-57.589C346.337,-62.6713 375.608,-68.9554 400.597,-74.3203"/>
<polygon fill="midnightblue" stroke="midnightblue" points="400.145,-77.8028 410.657,-76.4799 401.614,-70.9588 400.145,-77.8028"/>
</g>
<!-- Node16 -->
<g id="node8" class="node"><title>Node16</title>
<g id="a_node8"><a xlink:href="namespaceinterfacesse.html#aa4b94bf2bf8cb7c437fa3feba8b70ff8" target="_top" xlink:title="Initializes the array with a constant .">
<polygon fill="white" stroke="black" points="403.5,-38.5 403.5,-57.5 508.5,-57.5 508.5,-38.5 403.5,-38.5"/>
<text text-anchor="middle" x="456" y="-45.5" font-family="Helvetica,sans-Serif" font-size="10.00">interfacesse::copya</text>
</a>
</g>
</g>
<!-- Node14&#45;&gt;Node16 -->
<g id="edge7" class="edge"><title>Node14&#45;&gt;Node16</title>
<path fill="none" stroke="midnightblue" d="M326.366,-48C346.954,-48 371.219,-48 393.095,-48"/>
<polygon fill="midnightblue" stroke="midnightblue" points="393.284,-51.5001 403.284,-48 393.284,-44.5001 393.284,-51.5001"/>
</g>
<!-- Node17 -->
<g id="node9" class="node"><title>Node17</title>
<g id="a_node9"><a xlink:href="namespaceinterfacesse.html#ae3f94c42a59db65b2941dbfc9f449ea1" target="_top" xlink:title="function xAXPY of blas for doubles vectors">
<polygon fill="white" stroke="black" points="400,-0.5 400,-19.5 512,-19.5 512,-0.5 400,-0.5"/>
<text text-anchor="middle" x="456" y="-7.5" font-family="Helvetica,sans-Serif" font-size="10.00">interfacesse::axpyInv</text>
</a>
</g>
</g>
<!-- Node14&#45;&gt;Node17 -->
<g id="edge8" class="edge"><title>Node14&#45;&gt;Node17</title>
<path fill="none" stroke="midnightblue" d="M322.665,-38.411C346.337,-33.3287 375.608,-27.0446 400.597,-21.6797"/>
<polygon fill="midnightblue" stroke="midnightblue" points="401.614,-25.0412 410.657,-19.5201 400.145,-18.1972 401.614,-25.0412"/>
</g>
</g>
</svg>
