<?xml version="1.0" encoding="UTF-8" standalone="no"?>
<!DOCTYPE svg PUBLIC "-//W3C//DTD SVG 1.1//EN"
 "http://www.w3.org/Graphics/SVG/1.1/DTD/svg11.dtd">
<!-- Generated by graphviz version 2.38.0 (20140413.2041)
 -->
<!-- Title: stats::sumFeactures Pages: 1 -->
<svg width="325pt" height="180pt"
 viewBox="0.00 0.00 325.00 180.00" xmlns="http://www.w3.org/2000/svg" xmlns:xlink="http://www.w3.org/1999/xlink">
<g id="graph0" class="graph" transform="scale(1 1) rotate(0) translate(4 176)">
<title>stats::sumFeactures</title>
<polygon fill="white" stroke="none" points="-4,4 -4,-176 321,-176 321,4 -4,4"/>
<!-- Node51 -->
<g id="node1" class="node"><title>Node51</title>
<g id="a_node1"><a xlink:title="Add the instances by attributes.">
<polygon fill="#bfbfbf" stroke="black" points="0,-76.5 0,-95.5 107,-95.5 107,-76.5 0,-76.5"/>
<text text-anchor="middle" x="53.5" y="-83.5" font-family="Helvetica,sans-Serif" font-size="10.00">stats::sumFeactures</text>
</a>
</g>
</g>
<!-- Node52 -->
<g id="node2" class="node"><title>Node52</title>
<g id="a_node2"><a xlink:href="namespaceinterfacesse.html#a9dd5fb43ad8a83ee5cb2f5ba1bb2085b" target="_top" xlink:title=" ">
<polygon fill="white" stroke="black" points="180.5,-152.5 180.5,-171.5 279.5,-171.5 279.5,-152.5 180.5,-152.5"/>
<text text-anchor="middle" x="230" y="-159.5" font-family="Helvetica,sans-Serif" font-size="10.00">interfacesse::axpy</text>
</a>
</g>
</g>
<!-- Node51&#45;&gt;Node52 -->
<g id="edge1" class="edge"><title>Node51&#45;&gt;Node52</title>
<path fill="none" stroke="midnightblue" d="M66.3277,-95.5956C82.6133,-108.326 113.309,-130.628 143,-143 151.695,-146.623 161.185,-149.603 170.584,-152.039"/>
<polygon fill="midnightblue" stroke="midnightblue" points="169.766,-155.442 180.308,-154.385 171.408,-148.637 169.766,-155.442"/>
</g>
<!-- Node53 -->
<g id="node3" class="node"><title>Node53</title>
<g id="a_node3"><a xlink:href="namespaceinout.html#a0c10a45877a347dec0d4ec4e5b05b828" target="_top" xlink:title=" ">
<polygon fill="white" stroke="black" points="178.5,-114.5 178.5,-133.5 281.5,-133.5 281.5,-114.5 178.5,-114.5"/>
<text text-anchor="middle" x="230" y="-121.5" font-family="Helvetica,sans-Serif" font-size="10.00">inout::containerprint</text>
</a>
</g>
</g>
<!-- Node51&#45;&gt;Node53 -->
<g id="edge2" class="edge"><title>Node51&#45;&gt;Node53</title>
<path fill="none" stroke="midnightblue" d="M98.5337,-95.589C121.872,-100.671 150.73,-106.955 175.366,-112.32"/>
<polygon fill="midnightblue" stroke="midnightblue" points="174.767,-115.772 185.283,-114.48 176.257,-108.932 174.767,-115.772"/>
</g>
<!-- Node54 -->
<g id="node4" class="node"><title>Node54</title>
<g id="a_node4"><a xlink:href="namespaceinterfacesse.html#aa4b94bf2bf8cb7c437fa3feba8b70ff8" target="_top" xlink:title="Initializes the array with a constant .">
<polygon fill="white" stroke="black" points="177.5,-76.5 177.5,-95.5 282.5,-95.5 282.5,-76.5 177.5,-76.5"/>
<text text-anchor="middle" x="230" y="-83.5" font-family="Helvetica,sans-Serif" font-size="10.00">interfacesse::copya</text>
</a>
</g>
</g>
<!-- Node51&#45;&gt;Node54 -->
<g id="edge3" class="edge"><title>Node51&#45;&gt;Node54</title>
<path fill="none" stroke="midnightblue" d="M107.329,-86C126.208,-86 147.646,-86 167.213,-86"/>
<polygon fill="midnightblue" stroke="midnightblue" points="167.25,-89.5001 177.25,-86 167.25,-82.5001 167.25,-89.5001"/>
</g>
<!-- Node55 -->
<g id="node5" class="node"><title>Node55</title>
<g id="a_node5"><a xlink:href="classdata_1_1_instance.html#aa6ee19c383a86228b3d134e42bdb6830" target="_top" xlink:title=" ">
<polygon fill="white" stroke="black" points="160,-38.5 160,-57.5 300,-57.5 300,-38.5 160,-38.5"/>
<text text-anchor="middle" x="230" y="-45.5" font-family="Helvetica,sans-Serif" font-size="10.00">data::Instance::getFeatures</text>
</a>
</g>
</g>
<!-- Node51&#45;&gt;Node55 -->
<g id="edge4" class="edge"><title>Node51&#45;&gt;Node55</title>
<path fill="none" stroke="midnightblue" d="M98.5337,-76.411C121.872,-71.3287 150.73,-65.0446 175.366,-59.6797"/>
<polygon fill="midnightblue" stroke="midnightblue" points="176.257,-63.0678 185.283,-57.5201 174.767,-56.2281 176.257,-63.0678"/>
</g>
<!-- Node56 -->
<g id="node6" class="node"><title>Node56</title>
<g id="a_node6"><a xlink:href="classdata_1_1_instance.html#a90d1eaeb66cc1470bbfdb95434fdb761" target="_top" xlink:title=" ">
<polygon fill="white" stroke="black" points="143,-0.5 143,-19.5 317,-19.5 317,-0.5 143,-0.5"/>
<text text-anchor="middle" x="230" y="-7.5" font-family="Helvetica,sans-Serif" font-size="10.00">data::Instance::getNumDimensions</text>
</a>
</g>
</g>
<!-- Node51&#45;&gt;Node56 -->
<g id="edge5" class="edge"><title>Node51&#45;&gt;Node56</title>
<path fill="none" stroke="midnightblue" d="M66.3277,-76.4044C82.6133,-63.6738 113.309,-41.3719 143,-29 149.164,-26.4315 155.728,-24.1864 162.375,-22.2291"/>
<polygon fill="midnightblue" stroke="midnightblue" points="163.413,-25.5739 172.138,-19.5632 161.569,-18.8211 163.413,-25.5739"/>
</g>
</g>
</svg>
