<?xml version="1.0" encoding="UTF-8" standalone="no"?>
<!DOCTYPE svg PUBLIC "-//W3C//DTD SVG 1.1//EN"
 "http://www.w3.org/Graphics/SVG/1.1/DTD/svg11.dtd">
<!-- Generated by graphviz version 2.38.0 (20140413.2041)
 -->
<!-- Title: clusteringop::computeTotalCostSwap Pages: 1 -->
<svg width="293pt" height="78pt"
 viewBox="0.00 0.00 293.00 77.50" xmlns="http://www.w3.org/2000/svg" xmlns:xlink="http://www.w3.org/1999/xlink">
<g id="graph0" class="graph" transform="scale(1 1) rotate(0) translate(4 73.5)">
<title>clusteringop::computeTotalCostSwap</title>
<polygon fill="white" stroke="none" points="-4,4 -4,-73.5 289,-73.5 289,4 -4,4"/>
<!-- Node6 -->
<g id="node1" class="node"><title>Node6</title>
<g id="a_node1"><a xlink:title="computeTotalCostSwap">
<polygon fill="#bfbfbf" stroke="black" points="0,-17 0,-47 139,-47 139,-17 0,-17"/>
<text text-anchor="start" x="8" y="-35" font-family="Helvetica,sans-Serif" font-size="10.00">clusteringop::computeTotal</text>
<text text-anchor="middle" x="69.5" y="-24" font-family="Helvetica,sans-Serif" font-size="10.00">CostSwap</text>
</a>
</g>
</g>
<!-- Node7 -->
<g id="node2" class="node"><title>Node7</title>
<g id="a_node2"><a xlink:href="classmat_1_1_matrix_triang.html#ae8e385b7959c85519692bdee1d4c3aed" target="_top" xlink:title=" ">
<polygon fill="white" stroke="black" points="179,-39 179,-69 281,-69 281,-39 179,-39"/>
<text text-anchor="start" x="187" y="-57" font-family="Helvetica,sans-Serif" font-size="10.00">mat::MatrixTriang::</text>
<text text-anchor="middle" x="230" y="-46" font-family="Helvetica,sans-Serif" font-size="10.00">getNumRows</text>
</a>
</g>
</g>
<!-- Node6&#45;&gt;Node7 -->
<g id="edge1" class="edge"><title>Node6&#45;&gt;Node7</title>
<path fill="none" stroke="midnightblue" d="M139.099,-41.5216C149.034,-42.9006 159.196,-44.3112 168.947,-45.6645"/>
<polygon fill="midnightblue" stroke="midnightblue" points="168.545,-49.1422 178.931,-47.0504 169.507,-42.2087 168.545,-49.1422"/>
</g>
<!-- Node8 -->
<g id="node3" class="node"><title>Node8</title>
<g id="a_node3"><a xlink:href="namespacenearest.html#a3c4239101cf18ab4ca62e654a4179995" target="_top" xlink:title=" ">
<polygon fill="white" stroke="black" points="175,-0.5 175,-19.5 285,-19.5 285,-0.5 175,-0.5"/>
<text text-anchor="middle" x="230" y="-7.5" font-family="Helvetica,sans-Serif" font-size="10.00">nearest::medoidsNN</text>
</a>
</g>
</g>
<!-- Node6&#45;&gt;Node8 -->
<g id="edge2" class="edge"><title>Node6&#45;&gt;Node8</title>
<path fill="none" stroke="midnightblue" d="M139.099,-22.4784C147.545,-21.3061 156.155,-20.1109 164.537,-18.9475"/>
<polygon fill="midnightblue" stroke="midnightblue" points="165.198,-22.3895 174.621,-17.5478 164.235,-15.456 165.198,-22.3895"/>
</g>
</g>
</svg>
