<?xml version="1.0" encoding="UTF-8" standalone="no"?>
<!DOCTYPE svg PUBLIC "-//W3C//DTD SVG 1.1//EN"
 "http://www.w3.org/Graphics/SVG/1.1/DTD/svg11.dtd">
<!-- Generated by graphviz version 2.38.0 (20140413.2041)
 -->
<!-- Title: um::VRCreeval Pages: 1 -->
<!--zoomable 470 -->
<svg id="main" version="1.1" xmlns="http://www.w3.org/2000/svg" xmlns:xlink="http://www.w3.org/1999/xlink" xml:space="preserve" onload="init(evt)">
<style type="text/css"><![CDATA[
.edge:hover path { stroke: red; }
.edge:hover polygon { stroke: red; fill: red; }
]]></style>
<script type="text/javascript"><![CDATA[
var edges = document.getElementsByTagName('g');
if (edges && edges.length) {
  for (var i=0;i<edges.length;i++) {
    if (edges[i].id.substr(0,4)=='edge') {
      edges[i].setAttribute('class','edge');
    }
  }
}
]]></script>
        <defs>
                <circle id="rim" cx="0" cy="0" r="7"/>
                <circle id="rim2" cx="0" cy="0" r="3.5"/>
                <g id="zoomPlus">
                        <use xlink:href="#rim" fill="#404040">
                                <set attributeName="fill" to="#808080" begin="zoomplus.mouseover" end="zoomplus.mouseout"/>
                        </use>
                        <path d="M-4,0h8M0,-4v8" fill="none" stroke="white" stroke-width="1.5" pointer-events="none"/>
                </g>
                <g id="zoomMin">
                        <use xlink:href="#rim" fill="#404040">
                                <set attributeName="fill" to="#808080" begin="zoomminus.mouseover" end="zoomminus.mouseout"/>
                        </use>
                        <path d="M-4,0h8" fill="none" stroke="white" stroke-width="1.5" pointer-events="none"/>
                </g>
                <g id="dirArrow">
                        <path fill="none" stroke="white" stroke-width="1.5" d="M0,-3.0v7 M-2.5,-0.5L0,-3.0L2.5,-0.5"/>
                </g>
               <g id="resetDef">
                       <use xlink:href="#rim2" fill="#404040">
                               <set attributeName="fill" to="#808080" begin="reset.mouseover" end="reset.mouseout"/>
                       </use>
               </g>
        </defs>

<script type="text/javascript">
var viewWidth = 462;
var viewHeight = 470;
var sectionId = 'dynsection-45';
</script>
<script xlink:href="svgpan.js"/>
<svg id="graph" class="graph">
<g id="viewport">
<title>um::VRCreeval</title>
<polygon fill="white" stroke="none" points="-4,4 -4,-466 458,-466 458,4 -4,4"/>
<!-- Node381 -->
<g id="node1" class="node"><title>Node381</title>
<g id="a_node1"><a xlink:title=" ">
<polygon fill="#bfbfbf" stroke="black" points="0,-152.5 0,-171.5 86,-171.5 86,-152.5 0,-152.5"/>
<text text-anchor="middle" x="43" y="-159.5" font-family="Helvetica,sans-Serif" font-size="10.00">um::VRCreeval</text>
</a>
</g>
</g>
<!-- Node382 -->
<g id="node2" class="node"><title>Node382</title>
<g id="a_node2"><a xlink:href="classdata_1_1_instance.html#a90d1eaeb66cc1470bbfdb95434fdb761" target="_top" xlink:title=" ">
<polygon fill="white" stroke="black" points="280,-152.5 280,-171.5 454,-171.5 454,-152.5 280,-152.5"/>
<text text-anchor="middle" x="367" y="-159.5" font-family="Helvetica,sans-Serif" font-size="10.00">data::Instance::getNumDimensions</text>
</a>
</g>
</g>
<!-- Node381&#45;&gt;Node382 -->
<g id="edge1" class="edge"><title>Node381&#45;&gt;Node382</title>
<path fill="none" stroke="midnightblue" d="M86.0959,-162C132.441,-162 208.487,-162 269.626,-162"/>
<polygon fill="midnightblue" stroke="midnightblue" points="269.69,-165.5 279.69,-162 269.69,-158.5 269.69,-165.5"/>
</g>
<!-- Node383 -->
<g id="node3" class="node"><title>Node383</title>
<g id="a_node3"><a xlink:href="classmat_1_1_matrix_base.html#ac500eedd5e203327d3292f8ab22d8f3e" target="_top" xlink:title=" ">
<polygon fill="white" stroke="black" points="289,-366.5 289,-385.5 445,-385.5 445,-366.5 289,-366.5"/>
<text text-anchor="middle" x="367" y="-373.5" font-family="Helvetica,sans-Serif" font-size="10.00">mat::MatrixBase::getNumRows</text>
</a>
</g>
</g>
<!-- Node381&#45;&gt;Node383 -->
<g id="edge2" class="edge"><title>Node381&#45;&gt;Node383</title>
<path fill="none" stroke="midnightblue" d="M52.2117,-171.775C80.1998,-204.355 175.912,-309.846 280,-357 285.443,-359.466 291.228,-361.621 297.124,-363.504"/>
<polygon fill="midnightblue" stroke="midnightblue" points="296.53,-366.977 307.11,-366.422 298.493,-360.258 296.53,-366.977"/>
</g>
<!-- Node384 -->
<g id="node4" class="node"><title>Node384</title>
<g id="a_node4"><a xlink:href="namespacestats.html#a61ea16e97e098fc1598f4a2975cb0a24" target="_top" xlink:title="￼Calculate average of a vector">
<polygon fill="white" stroke="black" points="134,-76.5 134,-95.5 232,-95.5 232,-76.5 134,-76.5"/>
<text text-anchor="middle" x="183" y="-83.5" font-family="Helvetica,sans-Serif" font-size="10.00">stats::meanVector</text>
</a>
</g>
</g>
<!-- Node381&#45;&gt;Node384 -->
<g id="edge3" class="edge"><title>Node381&#45;&gt;Node384</title>
<path fill="none" stroke="midnightblue" d="M54.621,-152.475C68.9813,-140.029 95.8165,-118.263 122,-105 126.341,-102.801 130.987,-100.793 135.7,-98.9743"/>
<polygon fill="midnightblue" stroke="midnightblue" points="137.156,-102.171 145.395,-95.5097 134.801,-95.5791 137.156,-102.171"/>
</g>
<!-- Node388 -->
<g id="node8" class="node"><title>Node388</title>
<g id="a_node8"><a xlink:href="namespaceum.html#a3d80a7d08b3df236552d73f457543a36" target="_top" xlink:title="The overall between&#45;cluster variance ssb.">
<polygon fill="white" stroke="black" points="157,-385.5 157,-404.5 209,-404.5 209,-385.5 157,-385.5"/>
<text text-anchor="middle" x="183" y="-392.5" font-family="Helvetica,sans-Serif" font-size="10.00">um::ssb</text>
</a>
</g>
</g>
<!-- Node381&#45;&gt;Node388 -->
<g id="edge7" class="edge"><title>Node381&#45;&gt;Node388</title>
<path fill="none" stroke="midnightblue" d="M47.8606,-171.719C58.1693,-197.197 87.8907,-267.63 122,-321 135.253,-341.737 153.37,-363.368 166.219,-377.847"/>
<polygon fill="midnightblue" stroke="midnightblue" points="163.806,-380.398 173.1,-385.486 169.007,-375.713 163.806,-380.398"/>
</g>
<!-- Node391 -->
<g id="node11" class="node"><title>Node391</title>
<g id="a_node11"><a xlink:href="namespaceinterfacesse.html#a25f6950d589b92fd5bcf2007fb3fae19" target="_top" xlink:title=" ">
<polygon fill="white" stroke="black" points="135,-38.5 135,-57.5 231,-57.5 231,-38.5 135,-38.5"/>
<text text-anchor="middle" x="183" y="-45.5" font-family="Helvetica,sans-Serif" font-size="10.00">interfacesse::sum</text>
</a>
</g>
</g>
<!-- Node381&#45;&gt;Node391 -->
<g id="edge11" class="edge"><title>Node381&#45;&gt;Node391</title>
<path fill="none" stroke="midnightblue" d="M49.3055,-152.362C60.3201,-133.236 87.5385,-90.3249 122,-67 124.939,-65.0105 128.099,-63.22 131.375,-61.6099"/>
<polygon fill="midnightblue" stroke="midnightblue" points="133.034,-64.7064 140.833,-57.5352 130.264,-58.2777 133.034,-64.7064"/>
</g>
<!-- Node392 -->
<g id="node12" class="node"><title>Node392</title>
<g id="a_node12"><a xlink:href="namespaceum.html#aaccb7dacc3cb2d8cd7349517387c6dfb" target="_top" xlink:title="Computes the overall between&#45;cluster variance &#160;and the number of instances in each cluster.">
<polygon fill="white" stroke="black" points="122,-212.5 122,-231.5 244,-231.5 244,-212.5 122,-212.5"/>
<text text-anchor="middle" x="183" y="-219.5" font-family="Helvetica,sans-Serif" font-size="10.00">um::sumDistInstCentInK</text>
</a>
</g>
</g>
<!-- Node381&#45;&gt;Node392 -->
<g id="edge12" class="edge"><title>Node381&#45;&gt;Node392</title>
<path fill="none" stroke="midnightblue" d="M65.8665,-171.507C88.6447,-181.411 124.55,-197.022 150.408,-208.265"/>
<polygon fill="midnightblue" stroke="midnightblue" points="149.213,-211.561 159.779,-212.339 152.004,-205.142 149.213,-211.561"/>
</g>
<!-- Node397 -->
<g id="node17" class="node"><title>Node397</title>
<g id="a_node17"><a xlink:href="namespacestats.html#a706b4964413c76c4c7d34ab17985e9e4" target="_top" xlink:title="Add the instances by attributes.">
<polygon fill="white" stroke="black" points="129.5,-114.5 129.5,-133.5 236.5,-133.5 236.5,-114.5 129.5,-114.5"/>
<text text-anchor="middle" x="183" y="-121.5" font-family="Helvetica,sans-Serif" font-size="10.00">stats::sumFeactures</text>
</a>
</g>
</g>
<!-- Node381&#45;&gt;Node397 -->
<g id="edge20" class="edge"><title>Node381&#45;&gt;Node397</title>
<path fill="none" stroke="midnightblue" d="M78.8232,-152.411C96.6377,-147.506 118.518,-141.48 137.539,-136.243"/>
<polygon fill="midnightblue" stroke="midnightblue" points="138.476,-139.615 147.188,-133.586 136.618,-132.866 138.476,-139.615"/>
</g>
<!-- Node385 -->
<g id="node5" class="node"><title>Node385</title>
<g id="a_node5"><a xlink:href="namespaceinterfacesse.html#ae3f94c42a59db65b2941dbfc9f449ea1" target="_top" xlink:title="function xAXPY of blas for doubles vectors">
<polygon fill="white" stroke="black" points="311,-0.5 311,-19.5 423,-19.5 423,-0.5 311,-0.5"/>
<text text-anchor="middle" x="367" y="-7.5" font-family="Helvetica,sans-Serif" font-size="10.00">interfacesse::axpyInv</text>
</a>
</g>
</g>
<!-- Node384&#45;&gt;Node385 -->
<g id="edge4" class="edge"><title>Node384&#45;&gt;Node385</title>
<path fill="none" stroke="midnightblue" d="M223.992,-76.4631C230.94,-73.9449 237.888,-70.8279 244,-67 263.717,-54.6512 259.752,-40.4571 280,-29 286.496,-25.3243 293.641,-22.3596 300.952,-19.9683"/>
<polygon fill="midnightblue" stroke="midnightblue" points="302.356,-23.2052 310.979,-17.05 300.399,-16.4841 302.356,-23.2052"/>
</g>
<!-- Node386 -->
<g id="node6" class="node"><title>Node386</title>
<g id="a_node6"><a xlink:href="namespaceinout.html#a0c10a45877a347dec0d4ec4e5b05b828" target="_top" xlink:title=" ">
<polygon fill="white" stroke="black" points="315.5,-76.5 315.5,-95.5 418.5,-95.5 418.5,-76.5 315.5,-76.5"/>
<text text-anchor="middle" x="367" y="-83.5" font-family="Helvetica,sans-Serif" font-size="10.00">inout::containerprint</text>
</a>
</g>
</g>
<!-- Node384&#45;&gt;Node386 -->
<g id="edge5" class="edge"><title>Node384&#45;&gt;Node386</title>
<path fill="none" stroke="midnightblue" d="M232.295,-86C254.586,-86 281.299,-86 304.968,-86"/>
<polygon fill="midnightblue" stroke="midnightblue" points="305.251,-89.5001 315.251,-86 305.251,-82.5001 305.251,-89.5001"/>
</g>
<!-- Node387 -->
<g id="node7" class="node"><title>Node387</title>
<g id="a_node7"><a xlink:href="namespaceinterfacesse.html#aa4b94bf2bf8cb7c437fa3feba8b70ff8" target="_top" xlink:title="Initializes the array with a constant .">
<polygon fill="white" stroke="black" points="314.5,-38.5 314.5,-57.5 419.5,-57.5 419.5,-38.5 314.5,-38.5"/>
<text text-anchor="middle" x="367" y="-45.5" font-family="Helvetica,sans-Serif" font-size="10.00">interfacesse::copya</text>
</a>
</g>
</g>
<!-- Node384&#45;&gt;Node387 -->
<g id="edge6" class="edge"><title>Node384&#45;&gt;Node387</title>
<path fill="none" stroke="midnightblue" d="M229.926,-76.411C254.376,-71.3061 284.633,-64.9887 310.403,-59.6082"/>
<polygon fill="midnightblue" stroke="midnightblue" points="311.33,-62.9901 320.404,-57.5201 309.9,-56.1378 311.33,-62.9901"/>
</g>
<!-- Node388&#45;&gt;Node383 -->
<g id="edge9" class="edge"><title>Node388&#45;&gt;Node383</title>
<path fill="none" stroke="midnightblue" d="M209.306,-392.358C227.586,-390.45 253.44,-387.751 278.887,-385.094"/>
<polygon fill="midnightblue" stroke="midnightblue" points="279.398,-388.56 288.981,-384.04 278.671,-381.598 279.398,-388.56"/>
</g>
<!-- Node389 -->
<g id="node9" class="node"><title>Node389</title>
<g id="a_node9"><a xlink:href="classmat_1_1_matrix_base.html#a70200414022ce1479b9ddc16102b12ae" target="_top" xlink:title=" ">
<polygon fill="white" stroke="black" points="282,-442.5 282,-461.5 452,-461.5 452,-442.5 282,-442.5"/>
<text text-anchor="middle" x="367" y="-449.5" font-family="Helvetica,sans-Serif" font-size="10.00">mat::MatrixBase::getNumColumns</text>
</a>
</g>
</g>
<!-- Node388&#45;&gt;Node389 -->
<g id="edge8" class="edge"><title>Node388&#45;&gt;Node389</title>
<path fill="none" stroke="midnightblue" d="M205.381,-404.604C224.608,-412.965 253.777,-424.969 280,-433 288.498,-435.602 297.571,-438.003 306.519,-440.158"/>
<polygon fill="midnightblue" stroke="midnightblue" points="305.998,-443.631 316.531,-442.486 307.584,-436.812 305.998,-443.631"/>
</g>
<!-- Node390 -->
<g id="node10" class="node"><title>Node390</title>
<g id="a_node10"><a xlink:href="classmat_1_1_matrix_row.html#a5391a205367fbaac82a26ddc377a80af" target="_top" xlink:title=" ">
<polygon fill="white" stroke="black" points="303.5,-404.5 303.5,-423.5 430.5,-423.5 430.5,-404.5 303.5,-404.5"/>
<text text-anchor="middle" x="367" y="-411.5" font-family="Helvetica,sans-Serif" font-size="10.00">mat::MatrixRow::getRow</text>
</a>
</g>
</g>
<!-- Node388&#45;&gt;Node390 -->
<g id="edge10" class="edge"><title>Node388&#45;&gt;Node390</title>
<path fill="none" stroke="midnightblue" d="M209.306,-397.642C231.069,-399.914 263.565,-403.306 293.332,-406.414"/>
<polygon fill="midnightblue" stroke="midnightblue" points="292.993,-409.897 303.302,-407.455 293.72,-402.935 292.993,-409.897"/>
</g>
<!-- Node392&#45;&gt;Node382 -->
<g id="edge16" class="edge"><title>Node392&#45;&gt;Node382</title>
<path fill="none" stroke="midnightblue" d="M203.447,-212.422C222.557,-203.317 252.735,-189.75 280,-181 288.058,-178.414 296.651,-176.058 305.171,-173.954"/>
<polygon fill="midnightblue" stroke="midnightblue" points="306.18,-177.312 315.104,-171.6 304.566,-170.501 306.18,-177.312"/>
</g>
<!-- Node392&#45;&gt;Node383 -->
<g id="edge17" class="edge"><title>Node392&#45;&gt;Node383</title>
<path fill="none" stroke="midnightblue" d="M193.169,-231.632C205.515,-244.86 227.798,-269.671 244,-293 262.616,-319.806 253.783,-337.565 280,-357 282.499,-358.852 285.144,-360.531 287.896,-362.05"/>
<polygon fill="midnightblue" stroke="midnightblue" points="286.467,-365.246 297,-366.384 289.475,-358.926 286.467,-365.246"/>
</g>
<!-- Node392&#45;&gt;Node386 -->
<g id="edge14" class="edge"><title>Node392&#45;&gt;Node386</title>
<path fill="none" stroke="midnightblue" d="M191.336,-212.343C211.718,-185.62 268.3,-112.182 280,-105 287.752,-100.242 296.544,-96.6687 305.475,-93.9872"/>
<polygon fill="midnightblue" stroke="midnightblue" points="306.41,-97.3605 315.178,-91.4136 304.615,-90.5944 306.41,-97.3605"/>
</g>
<!-- Node393 -->
<g id="node13" class="node"><title>Node393</title>
<g id="a_node13"><a xlink:href="classpartition_1_1_partition.html#acb8de7c890e05872858fb7a7aa53b657" target="_top" xlink:title=" ">
<polygon fill="white" stroke="black" points="320.5,-317 320.5,-347 413.5,-347 413.5,-317 320.5,-317"/>
<text text-anchor="start" x="328.5" y="-335" font-family="Helvetica,sans-Serif" font-size="10.00">partition::Partition</text>
<text text-anchor="middle" x="367" y="-324" font-family="Helvetica,sans-Serif" font-size="10.00">::begin</text>
</a>
</g>
</g>
<!-- Node392&#45;&gt;Node393 -->
<g id="edge13" class="edge"><title>Node392&#45;&gt;Node393</title>
<path fill="none" stroke="midnightblue" d="M192.223,-231.687C207.652,-249.261 242.764,-286.474 280,-307 289.487,-312.23 300.18,-316.465 310.72,-319.859"/>
<polygon fill="midnightblue" stroke="midnightblue" points="309.733,-323.217 320.318,-322.744 311.748,-316.513 309.733,-323.217"/>
</g>
<!-- Node394 -->
<g id="node14" class="node"><title>Node394</title>
<g id="a_node14"><a xlink:href="classdata_1_1_instance.html#aa6ee19c383a86228b3d134e42bdb6830" target="_top" xlink:title=" ">
<polygon fill="white" stroke="black" points="297,-190.5 297,-209.5 437,-209.5 437,-190.5 297,-190.5"/>
<text text-anchor="middle" x="367" y="-197.5" font-family="Helvetica,sans-Serif" font-size="10.00">data::Instance::getFeatures</text>
</a>
</g>
</g>
<!-- Node392&#45;&gt;Node394 -->
<g id="edge15" class="edge"><title>Node392&#45;&gt;Node394</title>
<path fill="none" stroke="midnightblue" d="M244.098,-214.735C257.679,-213.094 272.301,-211.326 286.541,-209.605"/>
<polygon fill="midnightblue" stroke="midnightblue" points="287.314,-213.037 296.822,-208.362 286.474,-206.088 287.314,-213.037"/>
</g>
<!-- Node395 -->
<g id="node15" class="node"><title>Node395</title>
<g id="a_node15"><a xlink:href="classmat_1_1_matrix_base.html#ae3b1c4b8e9cb7e7685d7bc129f875dcd" target="_top" xlink:title=" ">
<polygon fill="white" stroke="black" points="301.5,-278.5 301.5,-297.5 432.5,-297.5 432.5,-278.5 301.5,-278.5"/>
<text text-anchor="middle" x="367" y="-285.5" font-family="Helvetica,sans-Serif" font-size="10.00">mat::MatrixBase::getRow</text>
</a>
</g>
</g>
<!-- Node392&#45;&gt;Node395 -->
<g id="edge18" class="edge"><title>Node392&#45;&gt;Node395</title>
<path fill="none" stroke="midnightblue" d="M200.471,-231.573C219.189,-242.089 250.922,-258.833 280,-269 287.409,-271.59 295.304,-273.906 303.192,-275.952"/>
<polygon fill="midnightblue" stroke="midnightblue" points="302.597,-279.41 313.144,-278.402 304.27,-272.613 302.597,-279.41"/>
</g>
<!-- Node396 -->
<g id="node16" class="node"><title>Node396</title>
<g id="a_node16"><a xlink:href="classpartition_1_1_partition.html#a96660ce61740ab0287189b21833eccdf" target="_top" xlink:title=" ">
<polygon fill="white" stroke="black" points="320.5,-229 320.5,-259 413.5,-259 413.5,-229 320.5,-229"/>
<text text-anchor="start" x="328.5" y="-247" font-family="Helvetica,sans-Serif" font-size="10.00">partition::Partition</text>
<text text-anchor="middle" x="367" y="-236" font-family="Helvetica,sans-Serif" font-size="10.00">::next</text>
</a>
</g>
</g>
<!-- Node392&#45;&gt;Node396 -->
<g id="edge19" class="edge"><title>Node392&#45;&gt;Node396</title>
<path fill="none" stroke="midnightblue" d="M244.098,-229.265C265.453,-231.846 289.385,-234.739 310.352,-237.273"/>
<polygon fill="midnightblue" stroke="midnightblue" points="310.034,-240.76 320.382,-238.486 310.874,-233.811 310.034,-240.76"/>
</g>
<!-- Node397&#45;&gt;Node382 -->
<g id="edge25" class="edge"><title>Node397&#45;&gt;Node382</title>
<path fill="none" stroke="midnightblue" d="M229.926,-133.589C254.376,-138.694 284.633,-145.011 310.403,-150.392"/>
<polygon fill="midnightblue" stroke="midnightblue" points="309.9,-153.862 320.404,-152.48 311.33,-147.01 309.9,-153.862"/>
</g>
<!-- Node397&#45;&gt;Node386 -->
<g id="edge22" class="edge"><title>Node397&#45;&gt;Node386</title>
<path fill="none" stroke="midnightblue" d="M229.926,-114.411C254.376,-109.306 284.633,-102.989 310.403,-97.6082"/>
<polygon fill="midnightblue" stroke="midnightblue" points="311.33,-100.99 320.404,-95.5201 309.9,-94.1378 311.33,-100.99"/>
</g>
<!-- Node397&#45;&gt;Node387 -->
<g id="edge23" class="edge"><title>Node397&#45;&gt;Node387</title>
<path fill="none" stroke="midnightblue" d="M223.992,-114.463C230.94,-111.945 237.888,-108.828 244,-105 263.717,-92.6512 259.752,-78.4571 280,-67 287.461,-62.7784 295.778,-59.4946 304.219,-56.9403"/>
<polygon fill="midnightblue" stroke="midnightblue" points="305.398,-60.2476 314.141,-54.2644 303.575,-53.4891 305.398,-60.2476"/>
</g>
<!-- Node397&#45;&gt;Node394 -->
<g id="edge24" class="edge"><title>Node397&#45;&gt;Node394</title>
<path fill="none" stroke="midnightblue" d="M196.972,-133.544C214.798,-146.217 248.277,-168.453 280,-181 286.647,-183.629 293.735,-185.932 300.88,-187.939"/>
<polygon fill="midnightblue" stroke="midnightblue" points="300.063,-191.343 310.623,-190.497 301.84,-184.572 300.063,-191.343"/>
</g>
<!-- Node398 -->
<g id="node18" class="node"><title>Node398</title>
<g id="a_node18"><a xlink:href="namespaceinterfacesse.html#a9dd5fb43ad8a83ee5cb2f5ba1bb2085b" target="_top" xlink:title=" ">
<polygon fill="white" stroke="black" points="317.5,-114.5 317.5,-133.5 416.5,-133.5 416.5,-114.5 317.5,-114.5"/>
<text text-anchor="middle" x="367" y="-121.5" font-family="Helvetica,sans-Serif" font-size="10.00">interfacesse::axpy</text>
</a>
</g>
</g>
<!-- Node397&#45;&gt;Node398 -->
<g id="edge21" class="edge"><title>Node397&#45;&gt;Node398</title>
<path fill="none" stroke="midnightblue" d="M236.642,-124C258.674,-124 284.377,-124 307.041,-124"/>
<polygon fill="midnightblue" stroke="midnightblue" points="307.216,-127.5 317.216,-124 307.216,-120.5 307.216,-127.5"/>
</g>
</g>
</svg>
        <g id="navigator" transform="translate(0 0)" fill="#404254">
                <rect fill="#f2f5e9" fill-opacity="0.5" stroke="#606060" stroke-width=".5" x="0" y="0" width="60" height="60"/>
                <use id="zoomplus" xlink:href="#zoomPlus" x="17" y="9" onmousedown="handleZoom(evt,'in')"/>
                <use id="zoomminus" xlink:href="#zoomMin" x="42" y="9" onmousedown="handleZoom(evt,'out')"/>
                <use id="reset" xlink:href="#resetDef" x="30" y="36" onmousedown="handleReset()"/>
                <g id="arrowUp" xlink:href="#dirArrow" transform="translate(30 24)" onmousedown="handlePan(0,-1)">
                  <use xlink:href="#rim" fill="#404040">
                        <set attributeName="fill" to="#808080" begin="arrowUp.mouseover" end="arrowUp.mouseout"/>
                  </use>
                  <path fill="none" stroke="white" stroke-width="1.5" d="M0,-3.0v7 M-2.5,-0.5L0,-3.0L2.5,-0.5"/>
                </g>
                <g id="arrowRight" xlink:href="#dirArrow" transform="rotate(90) translate(36 -43)" onmousedown="handlePan(1,0)">
                  <use xlink:href="#rim" fill="#404040">
                        <set attributeName="fill" to="#808080" begin="arrowRight.mouseover" end="arrowRight.mouseout"/>
                  </use>
                  <path fill="none" stroke="white" stroke-width="1.5" d="M0,-3.0v7 M-2.5,-0.5L0,-3.0L2.5,-0.5"/>
                </g>
                <g id="arrowDown" xlink:href="#dirArrow" transform="rotate(180) translate(-30 -48)" onmousedown="handlePan(0,1)">
                  <use xlink:href="#rim" fill="#404040">
                        <set attributeName="fill" to="#808080" begin="arrowDown.mouseover" end="arrowDown.mouseout"/>
                  </use>
                  <path fill="none" stroke="white" stroke-width="1.5" d="M0,-3.0v7 M-2.5,-0.5L0,-3.0L2.5,-0.5"/>
                </g>
                <g id="arrowLeft" xlink:href="#dirArrow" transform="rotate(270) translate(-36 17)" onmousedown="handlePan(-1,0)">
                  <use xlink:href="#rim" fill="#404040">
                        <set attributeName="fill" to="#808080" begin="arrowLeft.mouseover" end="arrowLeft.mouseout"/>
                  </use>
                  <path fill="none" stroke="white" stroke-width="1.5" d="M0,-3.0v7 M-2.5,-0.5L0,-3.0L2.5,-0.5"/>
                </g>
        </g>
        <svg viewBox="0 0 15 15" width="100%" height="30px" preserveAspectRatio="xMaxYMin meet">
         <g id="arrow_out" transform="scale(0.3 0.3)">
          <a xlink:href="namespaceum_a6336207d868d7879d55dd09259b4fab6_cgraph_org.svg" target="_base">
           <rect id="button" ry="5" rx="5" y="6" x="6" height="38" width="38"
                fill="#f2f5e9" fill-opacity="0.5" stroke="#606060" stroke-width="1.0"/>
           <path id="arrow"
             d="M 11.500037,31.436501 C 11.940474,20.09759 22.043105,11.32322 32.158766,21.979434 L 37.068811,17.246167 C 37.068811,17.246167 37.088388,32 37.088388,32 L 22.160133,31.978069 C 22.160133,31.978069 26.997745,27.140456 26.997745,27.140456 C 18.528582,18.264221 13.291696,25.230495 11.500037,31.436501 z"
             style="fill:#404040;"/>
          </a>
         </g>
        </svg>
</svg>
