<?xml version="1.0" encoding="UTF-8" standalone="no"?>
<!DOCTYPE svg PUBLIC "-//W3C//DTD SVG 1.1//EN"
 "http://www.w3.org/Graphics/SVG/1.1/DTD/svg11.dtd">
<!-- Generated by graphviz version 2.38.0 (20140413.2041)
 -->
<!-- Title: clusteringop::randomInitialize Pages: 1 -->
<svg width="504pt" height="328pt"
 viewBox="0.00 0.00 504.00 328.37" xmlns="http://www.w3.org/2000/svg" xmlns:xlink="http://www.w3.org/1999/xlink">
<g id="graph0" class="graph" transform="scale(1 1) rotate(0) translate(4 324.372)">
<title>clusteringop::randomInitialize</title>
<polygon fill="white" stroke="none" points="-4,4 -4,-324.372 500,-324.372 500,4 -4,4"/>
<!-- Node197 -->
<g id="node1" class="node"><title>Node197</title>
<g id="a_node1"><a xlink:title="Initialize the centroids and labels by selecting random instances.">
<polygon fill="#bfbfbf" stroke="black" points="0,-152.5 0,-171.5 147,-171.5 147,-152.5 0,-152.5"/>
<text text-anchor="middle" x="73.5" y="-159.5" font-family="Helvetica,sans-Serif" font-size="10.00">clusteringop::randomInitialize</text>
</a>
</g>
</g>
<!-- Node198 -->
<g id="node2" class="node"><title>Node198</title>
<g id="a_node2"><a xlink:href="namespaceinout.html#a0c10a45877a347dec0d4ec4e5b05b828" target="_top" xlink:title=" ">
<polygon fill="white" stroke="black" points="393,-171.5 393,-190.5 496,-190.5 496,-171.5 393,-171.5"/>
<text text-anchor="middle" x="444.5" y="-178.5" font-family="Helvetica,sans-Serif" font-size="10.00">inout::containerprint</text>
</a>
</g>
</g>
<!-- Node197&#45;&gt;Node198 -->
<g id="edge1" class="edge"><title>Node197&#45;&gt;Node198</title>
<path fill="none" stroke="midnightblue" d="M78.779,-171.845C90.7286,-197.914 127.277,-268.545 183,-295 252.86,-328.167 287.735,-329.391 357,-295 396.878,-275.2 423.314,-227.255 435.585,-200.273"/>
<polygon fill="midnightblue" stroke="midnightblue" points="438.947,-201.318 439.721,-190.752 432.526,-198.529 438.947,-201.318"/>
</g>
<!-- Node199 -->
<g id="node3" class="node"><title>Node199</title>
<g id="a_node3"><a xlink:href="namespaceinterfacesse.html#a925f44ed84d40e9af5050fa0e1373396" target="_top" xlink:title="copy array aoarrayt_x in aoarrayt_y of type T">
<polygon fill="white" stroke="black" points="220.5,-266.5 220.5,-285.5 319.5,-285.5 319.5,-266.5 220.5,-266.5"/>
<text text-anchor="middle" x="270" y="-273.5" font-family="Helvetica,sans-Serif" font-size="10.00">interfacesse::copy</text>
</a>
</g>
</g>
<!-- Node197&#45;&gt;Node199 -->
<g id="edge2" class="edge"><title>Node197&#45;&gt;Node199</title>
<path fill="none" stroke="midnightblue" d="M82.3702,-171.559C98.8731,-190.93 139.211,-234.85 183,-257 191.506,-261.303 200.97,-264.637 210.42,-267.218"/>
<polygon fill="midnightblue" stroke="midnightblue" points="209.675,-270.639 220.223,-269.646 211.357,-263.845 209.675,-270.639"/>
</g>
<!-- Node200 -->
<g id="node4" class="node"><title>Node200</title>
<g id="a_node4"><a xlink:href="namespaceinterfacesse.html#aa4b94bf2bf8cb7c437fa3feba8b70ff8" target="_top" xlink:title="Initializes the array with a constant .">
<polygon fill="white" stroke="black" points="217.5,-228.5 217.5,-247.5 322.5,-247.5 322.5,-228.5 217.5,-228.5"/>
<text text-anchor="middle" x="270" y="-235.5" font-family="Helvetica,sans-Serif" font-size="10.00">interfacesse::copya</text>
</a>
</g>
</g>
<!-- Node197&#45;&gt;Node200 -->
<g id="edge3" class="edge"><title>Node197&#45;&gt;Node200</title>
<path fill="none" stroke="midnightblue" d="M89.7097,-171.667C110.167,-184.271 148.028,-206.211 183,-219 190.844,-221.869 199.257,-224.378 207.638,-226.551"/>
<polygon fill="midnightblue" stroke="midnightblue" points="206.88,-229.969 217.426,-228.949 208.546,-223.17 206.88,-229.969"/>
</g>
<!-- Node201 -->
<g id="node5" class="node"><title>Node201</title>
<g id="a_node5"><a xlink:href="classdata_1_1_instance.html#aa6ee19c383a86228b3d134e42bdb6830" target="_top" xlink:title=" ">
<polygon fill="white" stroke="black" points="200,-190.5 200,-209.5 340,-209.5 340,-190.5 200,-190.5"/>
<text text-anchor="middle" x="270" y="-197.5" font-family="Helvetica,sans-Serif" font-size="10.00">data::Instance::getFeatures</text>
</a>
</g>
</g>
<!-- Node197&#45;&gt;Node201 -->
<g id="edge4" class="edge"><title>Node197&#45;&gt;Node201</title>
<path fill="none" stroke="midnightblue" d="M123.33,-171.54C149.688,-176.69 182.417,-183.084 210.171,-188.506"/>
<polygon fill="midnightblue" stroke="midnightblue" points="209.665,-191.974 220.15,-190.456 211.007,-185.104 209.665,-191.974"/>
</g>
<!-- Node202 -->
<g id="node6" class="node"><title>Node202</title>
<g id="a_node6"><a xlink:href="classdata_1_1_instance.html#a90d1eaeb66cc1470bbfdb95434fdb761" target="_top" xlink:title=" ">
<polygon fill="white" stroke="black" points="183,-152.5 183,-171.5 357,-171.5 357,-152.5 183,-152.5"/>
<text text-anchor="middle" x="270" y="-159.5" font-family="Helvetica,sans-Serif" font-size="10.00">data::Instance::getNumDimensions</text>
</a>
</g>
</g>
<!-- Node197&#45;&gt;Node202 -->
<g id="edge5" class="edge"><title>Node197&#45;&gt;Node202</title>
<path fill="none" stroke="midnightblue" d="M147.201,-162C155.577,-162 164.213,-162 172.837,-162"/>
<polygon fill="midnightblue" stroke="midnightblue" points="172.94,-165.5 182.94,-162 172.94,-158.5 172.94,-165.5"/>
</g>
<!-- Node203 -->
<g id="node7" class="node"><title>Node203</title>
<g id="a_node7"><a xlink:href="classmat_1_1_matrix_base.html#ac500eedd5e203327d3292f8ab22d8f3e" target="_top" xlink:title=" ">
<polygon fill="white" stroke="black" points="192,-114.5 192,-133.5 348,-133.5 348,-114.5 192,-114.5"/>
<text text-anchor="middle" x="270" y="-121.5" font-family="Helvetica,sans-Serif" font-size="10.00">mat::MatrixBase::getNumRows</text>
</a>
</g>
</g>
<!-- Node197&#45;&gt;Node203 -->
<g id="edge6" class="edge"><title>Node197&#45;&gt;Node203</title>
<path fill="none" stroke="midnightblue" d="M123.33,-152.46C149.688,-147.31 182.417,-140.916 210.171,-135.494"/>
<polygon fill="midnightblue" stroke="midnightblue" points="211.007,-138.896 220.15,-133.544 209.665,-132.026 211.007,-138.896"/>
</g>
<!-- Node204 -->
<g id="node8" class="node"><title>Node204</title>
<g id="a_node8"><a xlink:href="classmat_1_1_matrix_base.html#ae3b1c4b8e9cb7e7685d7bc129f875dcd" target="_top" xlink:title=" ">
<polygon fill="white" stroke="black" points="204.5,-76.5 204.5,-95.5 335.5,-95.5 335.5,-76.5 204.5,-76.5"/>
<text text-anchor="middle" x="270" y="-83.5" font-family="Helvetica,sans-Serif" font-size="10.00">mat::MatrixBase::getRow</text>
</a>
</g>
</g>
<!-- Node197&#45;&gt;Node204 -->
<g id="edge7" class="edge"><title>Node197&#45;&gt;Node204</title>
<path fill="none" stroke="midnightblue" d="M89.7097,-152.333C110.167,-139.729 148.028,-117.789 183,-105 190.089,-102.408 197.643,-100.108 205.217,-98.0858"/>
<polygon fill="midnightblue" stroke="midnightblue" points="206.307,-101.421 215.15,-95.5848 204.598,-94.6325 206.307,-101.421"/>
</g>
<!-- Node205 -->
<g id="node9" class="node"><title>Node205</title>
<g id="a_node9"><a xlink:href="namespaceprob.html#a15090755bafc59aa295f2d02be64af8c" target="_top" xlink:title="Get a set of random number diferent.">
<polygon fill="white" stroke="black" points="199,-38.5 199,-57.5 341,-57.5 341,-38.5 199,-38.5"/>
<text text-anchor="middle" x="270" y="-45.5" font-family="Helvetica,sans-Serif" font-size="10.00">prob::getWithoutRepeatsSet</text>
</a>
</g>
</g>
<!-- Node197&#45;&gt;Node205 -->
<g id="edge8" class="edge"><title>Node197&#45;&gt;Node205</title>
<path fill="none" stroke="midnightblue" d="M82.3702,-152.441C98.8731,-133.07 139.211,-89.1496 183,-67 187.656,-64.6448 192.599,-62.5799 197.67,-60.7697"/>
<polygon fill="midnightblue" stroke="midnightblue" points="199.09,-63.9895 207.536,-57.5933 196.945,-57.3263 199.09,-63.9895"/>
</g>
<!-- Node206 -->
<g id="node10" class="node"><title>Node206</title>
<g id="a_node10"><a xlink:href="classmat_1_1_matrix_base.html#a4cdb6c084f99e4aec0373760c093ee11" target="_top" xlink:title=" ">
<polygon fill="white" stroke="black" points="213,-0.5 213,-19.5 327,-19.5 327,-0.5 213,-0.5"/>
<text text-anchor="middle" x="270" y="-7.5" font-family="Helvetica,sans-Serif" font-size="10.00">mat::MatrixBase::print</text>
</a>
</g>
</g>
<!-- Node197&#45;&gt;Node206 -->
<g id="edge10" class="edge"><title>Node197&#45;&gt;Node206</title>
<path fill="none" stroke="midnightblue" d="M79.3182,-152.445C92.3259,-127.694 130.73,-61.1888 183,-29 189.176,-25.1965 196.017,-22.1502 203.063,-19.7111"/>
<polygon fill="midnightblue" stroke="midnightblue" points="204.216,-23.0185 212.756,-16.7473 202.169,-16.3244 204.216,-23.0185"/>
</g>
<!-- Node205&#45;&gt;Node198 -->
<g id="edge9" class="edge"><title>Node205&#45;&gt;Node198</title>
<path fill="none" stroke="midnightblue" d="M337.267,-57.5646C344.219,-60.0316 350.948,-63.1245 357,-67 394.125,-90.7736 421.343,-136.361 434.551,-162.101"/>
<polygon fill="midnightblue" stroke="midnightblue" points="431.486,-163.797 439.061,-171.204 437.758,-160.69 431.486,-163.797"/>
</g>
</g>
</svg>
