<?xml version="1.0" encoding="UTF-8" standalone="no"?>
<!DOCTYPE svg PUBLIC "-//W3C//DTD SVG 1.1//EN"
 "http://www.w3.org/Graphics/SVG/1.1/DTD/svg11.dtd">
<!-- Generated by graphviz version 2.38.0 (20140413.2041)
 -->
<!-- Title: gaclusteringop::rearrangedCluster Pages: 1 -->
<svg width="490pt" height="324pt"
 viewBox="0.00 0.00 490.00 323.50" xmlns="http://www.w3.org/2000/svg" xmlns:xlink="http://www.w3.org/1999/xlink">
<g id="graph0" class="graph" transform="scale(1 1) rotate(0) translate(4 319.5)">
<title>gaclusteringop::rearrangedCluster</title>
<polygon fill="white" stroke="none" points="-4,4 -4,-319.5 486,-319.5 486,4 -4,4"/>
<!-- Node243 -->
<g id="node1" class="node"><title>Node243</title>
<g id="a_node1"><a xlink:title="Rearranged cluster .">
<polygon fill="#bfbfbf" stroke="black" points="0,-154.5 0,-184.5 139,-184.5 139,-154.5 0,-154.5"/>
<text text-anchor="start" x="8" y="-172.5" font-family="Helvetica,sans-Serif" font-size="10.00">gaclusteringop::rearranged</text>
<text text-anchor="middle" x="69.5" y="-161.5" font-family="Helvetica,sans-Serif" font-size="10.00">Cluster</text>
</a>
</g>
</g>
<!-- Node244 -->
<g id="node2" class="node"><title>Node244</title>
<g id="a_node2"><a xlink:href="classmat_1_1_matrix_base.html#a70200414022ce1479b9ddc16102b12ae" target="_top" xlink:title=" ">
<polygon fill="white" stroke="black" points="177,-296 177,-315 347,-315 347,-296 177,-296"/>
<text text-anchor="middle" x="262" y="-303" font-family="Helvetica,sans-Serif" font-size="10.00">mat::MatrixBase::getNumColumns</text>
</a>
</g>
</g>
<!-- Node243&#45;&gt;Node244 -->
<g id="edge1" class="edge"><title>Node243&#45;&gt;Node244</title>
<path fill="none" stroke="midnightblue" d="M79.6035,-184.81C95.5473,-210.201 131.048,-260.771 175,-286.5 178.711,-288.673 182.645,-290.597 186.708,-292.302"/>
<polygon fill="midnightblue" stroke="midnightblue" points="185.784,-295.692 196.377,-295.894 188.222,-289.131 185.784,-295.692"/>
</g>
<!-- Node245 -->
<g id="node3" class="node"><title>Node245</title>
<g id="a_node3"><a xlink:href="classdata_1_1_instance.html#a90d1eaeb66cc1470bbfdb95434fdb761" target="_top" xlink:title=" ">
<polygon fill="white" stroke="black" points="175,-258 175,-277 349,-277 349,-258 175,-258"/>
<text text-anchor="middle" x="262" y="-265" font-family="Helvetica,sans-Serif" font-size="10.00">data::Instance::getNumDimensions</text>
</a>
</g>
</g>
<!-- Node243&#45;&gt;Node245 -->
<g id="edge2" class="edge"><title>Node243&#45;&gt;Node245</title>
<path fill="none" stroke="midnightblue" d="M86.0708,-184.771C105.331,-202.777 139.895,-232.299 175,-248.5 180.336,-250.963 186.009,-253.114 191.797,-254.993"/>
<polygon fill="midnightblue" stroke="midnightblue" points="191.024,-258.414 201.607,-257.902 193.015,-251.703 191.024,-258.414"/>
</g>
<!-- Node246 -->
<g id="node4" class="node"><title>Node246</title>
<g id="a_node4"><a xlink:href="classmat_1_1_matrix_base.html#ac500eedd5e203327d3292f8ab22d8f3e" target="_top" xlink:title=" ">
<polygon fill="white" stroke="black" points="184,-220 184,-239 340,-239 340,-220 184,-220"/>
<text text-anchor="middle" x="262" y="-227" font-family="Helvetica,sans-Serif" font-size="10.00">mat::MatrixBase::getNumRows</text>
</a>
</g>
</g>
<!-- Node243&#45;&gt;Node246 -->
<g id="edge3" class="edge"><title>Node243&#45;&gt;Node246</title>
<path fill="none" stroke="midnightblue" d="M104.853,-184.549C125.012,-192.981 151.137,-203.231 175,-210.5 183.502,-213.09 192.577,-215.483 201.526,-217.635"/>
<polygon fill="midnightblue" stroke="midnightblue" points="201.006,-221.108 211.539,-219.961 202.59,-214.289 201.006,-221.108"/>
</g>
<!-- Node247 -->
<g id="node5" class="node"><title>Node247</title>
<g id="a_node5"><a xlink:href="classmat_1_1_matrix_row.html#a5391a205367fbaac82a26ddc377a80af" target="_top" xlink:title=" ">
<polygon fill="white" stroke="black" points="198.5,-182 198.5,-201 325.5,-201 325.5,-182 198.5,-182"/>
<text text-anchor="middle" x="262" y="-189" font-family="Helvetica,sans-Serif" font-size="10.00">mat::MatrixRow::getRow</text>
</a>
</g>
</g>
<!-- Node243&#45;&gt;Node247 -->
<g id="edge4" class="edge"><title>Node243&#45;&gt;Node247</title>
<path fill="none" stroke="midnightblue" d="M139.006,-177.411C155.083,-179.268 172.266,-181.252 188.511,-183.129"/>
<polygon fill="midnightblue" stroke="midnightblue" points="188.151,-186.61 198.486,-184.281 188.954,-179.656 188.151,-186.61"/>
</g>
<!-- Node248 -->
<g id="node6" class="node"><title>Node248</title>
<g id="a_node6"><a xlink:href="classgaencode_1_1_chromosome_string.html#a95cc85a28caac393e63c98c6c1f3cde2" target="_top" xlink:title=" ">
<polygon fill="white" stroke="black" points="184,-132.5 184,-162.5 340,-162.5 340,-132.5 184,-132.5"/>
<text text-anchor="start" x="192" y="-150.5" font-family="Helvetica,sans-Serif" font-size="10.00">gaencode::ChromosomeString</text>
<text text-anchor="middle" x="262" y="-139.5" font-family="Helvetica,sans-Serif" font-size="10.00">::getString</text>
</a>
</g>
</g>
<!-- Node243&#45;&gt;Node248 -->
<g id="edge5" class="edge"><title>Node243&#45;&gt;Node248</title>
<path fill="none" stroke="midnightblue" d="M139.006,-161.589C150.226,-160.293 161.985,-158.935 173.588,-157.595"/>
<polygon fill="midnightblue" stroke="midnightblue" points="174.194,-161.048 183.727,-156.424 173.391,-154.094 174.194,-161.048"/>
</g>
<!-- Node249 -->
<g id="node7" class="node"><title>Node249</title>
<g id="a_node7"><a xlink:href="classmat_1_1_matrix_row.html#a1070fba1c0ec0fbaa309f141817be412" target="_top" xlink:title=" ">
<polygon fill="white" stroke="black" points="198,-94 198,-113 326,-113 326,-94 198,-94"/>
<text text-anchor="middle" x="262" y="-101" font-family="Helvetica,sans-Serif" font-size="10.00">mat::MatrixRow::initialize</text>
</a>
</g>
</g>
<!-- Node243&#45;&gt;Node249 -->
<g id="edge6" class="edge"><title>Node243&#45;&gt;Node249</title>
<path fill="none" stroke="midnightblue" d="M100.547,-154.486C121.119,-144.654 149.236,-132.083 175,-123.5 183.959,-120.515 193.586,-117.809 203.041,-115.42"/>
<polygon fill="midnightblue" stroke="midnightblue" points="203.907,-118.811 212.796,-113.047 202.252,-112.01 203.907,-118.811"/>
</g>
<!-- Node250 -->
<g id="node8" class="node"><title>Node250</title>
<g id="a_node8"><a xlink:href="classgaencode_1_1_chromosome_base.html#ab7a374a062ba8b5c6b4e674bae9a8299" target="_top" xlink:title=" ">
<polygon fill="white" stroke="black" points="184.5,-44.5 184.5,-74.5 339.5,-74.5 339.5,-44.5 184.5,-44.5"/>
<text text-anchor="start" x="192.5" y="-62.5" font-family="Helvetica,sans-Serif" font-size="10.00">gaencode::ChromosomeBase</text>
<text text-anchor="middle" x="262" y="-51.5" font-family="Helvetica,sans-Serif" font-size="10.00">::print</text>
</a>
</g>
</g>
<!-- Node243&#45;&gt;Node250 -->
<g id="edge7" class="edge"><title>Node243&#45;&gt;Node250</title>
<path fill="none" stroke="midnightblue" d="M85.0317,-154.413C104.042,-135.499 139.168,-103.286 175,-84.5 179.448,-82.1683 184.142,-80.027 188.949,-78.0652"/>
<polygon fill="midnightblue" stroke="midnightblue" points="190.196,-81.3356 198.3,-74.5109 187.709,-74.7924 190.196,-81.3356"/>
</g>
<!-- Node251 -->
<g id="node9" class="node"><title>Node251</title>
<g id="a_node9"><a xlink:href="classds_1_1_bit_container.html#a4aa7926699744916d577dd1f3da39359" target="_top" xlink:title=" ">
<polygon fill="white" stroke="black" points="202.5,-6 202.5,-25 321.5,-25 321.5,-6 202.5,-6"/>
<text text-anchor="middle" x="262" y="-13" font-family="Helvetica,sans-Serif" font-size="10.00">ds::BitContainer::setBit</text>
</a>
</g>
</g>
<!-- Node243&#45;&gt;Node251 -->
<g id="edge8" class="edge"><title>Node243&#45;&gt;Node251</title>
<path fill="none" stroke="midnightblue" d="M77.8779,-154.28C92.3515,-126.122 127.265,-65.994 175,-35.5 180.426,-32.034 186.386,-29.1669 192.559,-26.7956"/>
<polygon fill="midnightblue" stroke="midnightblue" points="194.043,-29.9884 202.389,-23.4624 191.795,-23.3591 194.043,-29.9884"/>
</g>
<!-- Node252 -->
<g id="node10" class="node"><title>Node252</title>
<g id="a_node10"><a xlink:href="classds_1_1_bit_container.html#ae96782365827c126e1824566333feaa5" target="_top" xlink:title=" ">
<polygon fill="white" stroke="black" points="385,-0.5 385,-30.5 482,-30.5 482,-0.5 385,-0.5"/>
<text text-anchor="start" x="393" y="-18.5" font-family="Helvetica,sans-Serif" font-size="10.00">ds::BitContainer::</text>
<text text-anchor="middle" x="433.5" y="-7.5" font-family="Helvetica,sans-Serif" font-size="10.00">_getWordIndexBit</text>
</a>
</g>
</g>
<!-- Node251&#45;&gt;Node252 -->
<g id="edge9" class="edge"><title>Node251&#45;&gt;Node252</title>
<path fill="none" stroke="midnightblue" d="M321.807,-15.5C338.911,-15.5 357.574,-15.5 374.62,-15.5"/>
<polygon fill="midnightblue" stroke="midnightblue" points="374.996,-19.0001 384.996,-15.5 374.996,-12.0001 374.996,-19.0001"/>
</g>
</g>
</svg>
