<?xml version="1.0" encoding="UTF-8" standalone="no"?>
<!DOCTYPE svg PUBLIC "-//W3C//DTD SVG 1.1//EN"
 "http://www.w3.org/Graphics/SVG/1.1/DTD/svg11.dtd">
<!-- Generated by graphviz version 2.38.0 (20140413.2041)
 -->
<!-- Title: inout::if Pages: 1 -->
<svg width="215pt" height="66pt"
 viewBox="0.00 0.00 215.00 66.00" xmlns="http://www.w3.org/2000/svg" xmlns:xlink="http://www.w3.org/1999/xlink">
<g id="graph0" class="graph" transform="scale(1 1) rotate(0) translate(4 62)">
<title>inout::if</title>
<polygon fill="white" stroke="none" points="-4,4 -4,-62 211,-62 211,4 -4,4"/>
<!-- Node55 -->
<g id="node1" class="node"><title>Node55</title>
<g id="a_node1"><a xlink:title=" ">
<polygon fill="#bfbfbf" stroke="black" points="0,-19.5 0,-38.5 48,-38.5 48,-19.5 0,-19.5"/>
<text text-anchor="middle" x="24" y="-26.5" font-family="Helvetica,sans-Serif" font-size="10.00">inout::if</text>
</a>
</g>
</g>
<!-- Node56 -->
<g id="node2" class="node"><title>Node56</title>
<g id="a_node2"><a xlink:href="namespaceinout.html#a627199919e0555d5bbd9935030d1bf76" target="_top" xlink:title=" ">
<polygon fill="white" stroke="black" points="94.5,-38.5 94.5,-57.5 196.5,-57.5 196.5,-38.5 94.5,-38.5"/>
<text text-anchor="middle" x="145.5" y="-45.5" font-family="Helvetica,sans-Serif" font-size="10.00">inout::fileutils_listdir</text>
</a>
</g>
</g>
<!-- Node55&#45;&gt;Node56 -->
<g id="edge1" class="edge"><title>Node55&#45;&gt;Node56</title>
<path fill="none" stroke="midnightblue" d="M48.0408,-32.6634C58.5258,-34.3305 71.4731,-36.389 84.4399,-38.4507"/>
<polygon fill="midnightblue" stroke="midnightblue" points="83.8935,-41.9077 94.319,-40.0214 84.9927,-34.9945 83.8935,-41.9077"/>
</g>
<!-- Node57 -->
<g id="node3" class="node"><title>Node57</title>
<g id="a_node3"><a xlink:href="namespacevectorutils.html#a6d8239ddab103fa06549617f1d594f14" target="_top" xlink:title=" ">
<polygon fill="white" stroke="black" points="84,-0.5 84,-19.5 207,-19.5 207,-0.5 84,-0.5"/>
<text text-anchor="middle" x="145.5" y="-7.5" font-family="Helvetica,sans-Serif" font-size="10.00">vectorutils::foundStrings</text>
</a>
</g>
</g>
<!-- Node55&#45;&gt;Node57 -->
<g id="edge2" class="edge"><title>Node55&#45;&gt;Node57</title>
<path fill="none" stroke="midnightblue" d="M48.0408,-25.3366C55.8431,-24.0961 65.0089,-22.6388 74.5315,-21.1247"/>
<polygon fill="midnightblue" stroke="midnightblue" points="75.2158,-24.56 84.5421,-19.5331 74.1166,-17.6468 75.2158,-24.56"/>
</g>
</g>
</svg>
