<?xml version="1.0" encoding="UTF-8" standalone="no"?>
<!DOCTYPE svg PUBLIC "-//W3C//DTD SVG 1.1//EN"
 "http://www.w3.org/Graphics/SVG/1.1/DTD/svg11.dtd">
<!-- Generated by graphviz version 2.38.0 (20140413.2041)
 -->
<!-- Title: stats::getMatrixDiagonal Pages: 1 -->
<svg width="326pt" height="104pt"
 viewBox="0.00 0.00 326.00 104.00" xmlns="http://www.w3.org/2000/svg" xmlns:xlink="http://www.w3.org/1999/xlink">
<g id="graph0" class="graph" transform="scale(1 1) rotate(0) translate(4 100)">
<title>stats::getMatrixDiagonal</title>
<polygon fill="white" stroke="none" points="-4,4 -4,-100 322,-100 322,4 -4,4"/>
<!-- Node0 -->
<g id="node1" class="node"><title>Node0</title>
<g id="a_node1"><a xlink:title="Get weight matrix diagonal for calculate dist induced &#160;&#160;.">
<polygon fill="#bfbfbf" stroke="black" points="0,-38.5 0,-57.5 126,-57.5 126,-38.5 0,-38.5"/>
<text text-anchor="middle" x="63" y="-45.5" font-family="Helvetica,sans-Serif" font-size="10.00">stats::getMatrixDiagonal</text>
</a>
</g>
</g>
<!-- Node1 -->
<g id="node2" class="node"><title>Node1</title>
<g id="a_node2"><a xlink:href="classmat_1_1_matrix_base.html#ac500eedd5e203327d3292f8ab22d8f3e" target="_top" xlink:title=" ">
<polygon fill="white" stroke="black" points="162,-76.5 162,-95.5 318,-95.5 318,-76.5 162,-76.5"/>
<text text-anchor="middle" x="240" y="-83.5" font-family="Helvetica,sans-Serif" font-size="10.00">mat::MatrixBase::getNumRows</text>
</a>
</g>
</g>
<!-- Node0&#45;&gt;Node1 -->
<g id="edge1" class="edge"><title>Node0&#45;&gt;Node1</title>
<path fill="none" stroke="midnightblue" d="M108.16,-57.589C131.565,-62.6713 160.505,-68.9554 185.212,-74.3203"/>
<polygon fill="midnightblue" stroke="midnightblue" points="184.643,-77.7782 195.158,-76.4799 186.128,-70.9376 184.643,-77.7782"/>
</g>
<!-- Node2 -->
<g id="node3" class="node"><title>Node2</title>
<g id="a_node3"><a xlink:href="classmat_1_1_matrix_row.html#a1070fba1c0ec0fbaa309f141817be412" target="_top" xlink:title=" ">
<polygon fill="white" stroke="black" points="176,-38.5 176,-57.5 304,-57.5 304,-38.5 176,-38.5"/>
<text text-anchor="middle" x="240" y="-45.5" font-family="Helvetica,sans-Serif" font-size="10.00">mat::MatrixRow::initialize</text>
</a>
</g>
</g>
<!-- Node0&#45;&gt;Node2 -->
<g id="edge2" class="edge"><title>Node0&#45;&gt;Node2</title>
<path fill="none" stroke="midnightblue" d="M126.191,-48C138.904,-48 152.397,-48 165.464,-48"/>
<polygon fill="midnightblue" stroke="midnightblue" points="165.829,-51.5001 175.829,-48 165.829,-44.5001 165.829,-51.5001"/>
</g>
<!-- Node3 -->
<g id="node4" class="node"><title>Node3</title>
<g id="a_node4"><a xlink:href="classmat_1_1_matrix_row.html#a156313f6aa515994b76321ff03780b16" target="_top" xlink:title=" ">
<polygon fill="white" stroke="black" points="185,-0.5 185,-19.5 295,-19.5 295,-0.5 185,-0.5"/>
<text text-anchor="middle" x="240" y="-7.5" font-family="Helvetica,sans-Serif" font-size="10.00">mat::MatrixRow::print</text>
</a>
</g>
</g>
<!-- Node0&#45;&gt;Node3 -->
<g id="edge3" class="edge"><title>Node0&#45;&gt;Node3</title>
<path fill="none" stroke="midnightblue" d="M108.16,-38.411C131.565,-33.3287 160.505,-27.0446 185.212,-21.6797"/>
<polygon fill="midnightblue" stroke="midnightblue" points="186.128,-25.0624 195.158,-19.5201 184.643,-18.2218 186.128,-25.0624"/>
</g>
</g>
</svg>
