<?xml version="1.0" encoding="UTF-8" standalone="no"?>
<!DOCTYPE svg PUBLIC "-//W3C//DTD SVG 1.1//EN"
 "http://www.w3.org/Graphics/SVG/1.1/DTD/svg11.dtd">
<!-- Generated by graphviz version 2.38.0 (20140413.2041)
 -->
<!-- Title: um::simplifiedSilhouette Pages: 1 -->
<svg width="1358pt" height="355pt"
 viewBox="0.00 0.00 1358.00 355.00" xmlns="http://www.w3.org/2000/svg" xmlns:xlink="http://www.w3.org/1999/xlink">
<g id="graph0" class="graph" transform="scale(1 1) rotate(0) translate(4 351)">
<title>um::simplifiedSilhouette</title>
<polygon fill="white" stroke="none" points="-4,4 -4,-351 1354,-351 1354,4 -4,4"/>
<!-- Node780 -->
<g id="node1" class="node"><title>Node780</title>
<polygon fill="#bfbfbf" stroke="black" points="0,-164 0,-183 122,-183 122,-164 0,-164"/>
<text text-anchor="middle" x="61" y="-171" font-family="Helvetica,sans-Serif" font-size="10.00">um::simplifiedSilhouette</text>
</g>
<!-- Node781 -->
<g id="node2" class="node"><title>Node781</title>
<g id="a_node2"><a xlink:href="classpartition_1_1_partition.html#acb8de7c890e05872858fb7a7aa53b657" target="_top" xlink:title="partition::Partition\l::begin">
<polygon fill="white" stroke="black" points="198.5,-316.5 198.5,-346.5 291.5,-346.5 291.5,-316.5 198.5,-316.5"/>
<text text-anchor="start" x="206.5" y="-334.5" font-family="Helvetica,sans-Serif" font-size="10.00">partition::Partition</text>
<text text-anchor="middle" x="245" y="-323.5" font-family="Helvetica,sans-Serif" font-size="10.00">::begin</text>
</a>
</g>
</g>
<!-- Node780&#45;&gt;Node781 -->
<g id="edge1" class="edge"><title>Node780&#45;&gt;Node781</title>
<path fill="none" stroke="midnightblue" d="M66.2319,-183.226C77.4317,-207.808 110.293,-272.855 158,-306.5 167.047,-312.881 177.715,-317.646 188.402,-321.201"/>
<polygon fill="midnightblue" stroke="midnightblue" points="187.591,-324.612 198.175,-324.137 189.605,-317.908 187.591,-324.612"/>
</g>
<!-- Node782 -->
<g id="node3" class="node"><title>Node782</title>
<g id="a_node3"><a xlink:href="namespaceinout.html#a0c10a45877a347dec0d4ec4e5b05b828" target="_top" xlink:title="inout::containerprint">
<polygon fill="white" stroke="black" points="193.5,-278 193.5,-297 296.5,-297 296.5,-278 193.5,-278"/>
<text text-anchor="middle" x="245" y="-285" font-family="Helvetica,sans-Serif" font-size="10.00">inout::containerprint</text>
</a>
</g>
</g>
<!-- Node780&#45;&gt;Node782 -->
<g id="edge2" class="edge"><title>Node780&#45;&gt;Node782</title>
<path fill="none" stroke="midnightblue" d="M68.6976,-183.086C82.8087,-202.507 117.642,-246.515 158,-268.5 165.805,-272.752 174.499,-276.052 183.276,-278.614"/>
<polygon fill="midnightblue" stroke="midnightblue" points="182.618,-282.06 193.178,-281.204 184.389,-275.287 182.618,-282.06"/>
</g>
<!-- Node783 -->
<g id="node4" class="node"><title>Node783</title>
<g id="a_node4"><a xlink:href="namespaceinterfacesse.html#aa4b94bf2bf8cb7c437fa3feba8b70ff8" target="_top" xlink:title="Initializes the array with a constant . ">
<polygon fill="white" stroke="black" points="192.5,-240 192.5,-259 297.5,-259 297.5,-240 192.5,-240"/>
<text text-anchor="middle" x="245" y="-247" font-family="Helvetica,sans-Serif" font-size="10.00">interfacesse::copya</text>
</a>
</g>
</g>
<!-- Node780&#45;&gt;Node783 -->
<g id="edge3" class="edge"><title>Node780&#45;&gt;Node783</title>
<path fill="none" stroke="midnightblue" d="M74.9717,-183.044C92.798,-195.717 126.277,-217.953 158,-230.5 165.767,-233.572 174.135,-236.198 182.494,-238.428"/>
<polygon fill="midnightblue" stroke="midnightblue" points="181.716,-241.842 192.266,-240.868 183.412,-235.05 181.716,-241.842"/>
</g>
<!-- Node791 -->
<g id="node12" class="node"><title>Node791</title>
<g id="a_node12"><a xlink:href="namespaceum.html#aabc6ca77bf38202926542ef55d03df90" target="_top" xlink:title="DB Index &#160;. ">
<polygon fill="white" stroke="black" points="209,-202 209,-221 281,-221 281,-202 209,-202"/>
<text text-anchor="middle" x="245" y="-209" font-family="Helvetica,sans-Serif" font-size="10.00">um::dbindex</text>
</a>
</g>
</g>
<!-- Node780&#45;&gt;Node791 -->
<g id="edge11" class="edge"><title>Node780&#45;&gt;Node791</title>
<path fill="none" stroke="midnightblue" d="M107.926,-183.089C135.781,-188.905 171.174,-196.295 198.881,-202.08"/>
<polygon fill="midnightblue" stroke="midnightblue" points="198.209,-205.515 208.713,-204.132 199.639,-198.662 198.209,-205.515"/>
</g>
<!-- Node793 -->
<g id="node14" class="node"><title>Node793</title>
<g id="a_node14"><a xlink:href="classmat_1_1_matrix_base.html#ac500eedd5e203327d3292f8ab22d8f3e" target="_top" xlink:title="mat::MatrixBase::getNumRows">
<polygon fill="white" stroke="black" points="375,-164 375,-183 531,-183 531,-164 375,-164"/>
<text text-anchor="middle" x="453" y="-171" font-family="Helvetica,sans-Serif" font-size="10.00">mat::MatrixBase::getNumRows</text>
</a>
</g>
</g>
<!-- Node780&#45;&gt;Node793 -->
<g id="edge17" class="edge"><title>Node780&#45;&gt;Node793</title>
<path fill="none" stroke="midnightblue" d="M122.083,-173.5C186.875,-173.5 290.645,-173.5 364.496,-173.5"/>
<polygon fill="midnightblue" stroke="midnightblue" points="364.711,-177 374.711,-173.5 364.711,-170 364.711,-177"/>
</g>
<!-- Node795 -->
<g id="node16" class="node"><title>Node795</title>
<g id="a_node16"><a xlink:href="classdata_1_1_instance.html#aa6ee19c383a86228b3d134e42bdb6830" target="_top" xlink:title="data::Instance::getFeatures">
<polygon fill="white" stroke="black" points="175,-126 175,-145 315,-145 315,-126 175,-126"/>
<text text-anchor="middle" x="245" y="-133" font-family="Helvetica,sans-Serif" font-size="10.00">data::Instance::getFeatures</text>
</a>
</g>
</g>
<!-- Node780&#45;&gt;Node795 -->
<g id="edge15" class="edge"><title>Node780&#45;&gt;Node795</title>
<path fill="none" stroke="midnightblue" d="M107.926,-163.911C132.376,-158.806 162.633,-152.489 188.403,-147.108"/>
<polygon fill="midnightblue" stroke="midnightblue" points="189.33,-150.49 198.404,-145.02 187.9,-143.638 189.33,-150.49"/>
</g>
<!-- Node796 -->
<g id="node17" class="node"><title>Node796</title>
<g id="a_node17"><a xlink:href="classdata_1_1_instance.html#a90d1eaeb66cc1470bbfdb95434fdb761" target="_top" xlink:title="data::Instance::getNumDimensions">
<polygon fill="white" stroke="black" points="158,-88 158,-107 332,-107 332,-88 158,-88"/>
<text text-anchor="middle" x="245" y="-95" font-family="Helvetica,sans-Serif" font-size="10.00">data::Instance::getNumDimensions</text>
</a>
</g>
</g>
<!-- Node780&#45;&gt;Node796 -->
<g id="edge16" class="edge"><title>Node780&#45;&gt;Node796</title>
<path fill="none" stroke="midnightblue" d="M74.9717,-163.956C92.798,-151.283 126.277,-129.047 158,-116.5 164.647,-113.871 171.735,-111.568 178.88,-109.561"/>
<polygon fill="midnightblue" stroke="midnightblue" points="179.84,-112.928 188.623,-107.003 178.063,-106.157 179.84,-112.928"/>
</g>
<!-- Node797 -->
<g id="node18" class="node"><title>Node797</title>
<g id="a_node18"><a xlink:href="classmat_1_1_matrix_base.html#ae3b1c4b8e9cb7e7685d7bc129f875dcd" target="_top" xlink:title="mat::MatrixBase::getRow">
<polygon fill="white" stroke="black" points="179.5,-50 179.5,-69 310.5,-69 310.5,-50 179.5,-50"/>
<text text-anchor="middle" x="245" y="-57" font-family="Helvetica,sans-Serif" font-size="10.00">mat::MatrixBase::getRow</text>
</a>
</g>
</g>
<!-- Node780&#45;&gt;Node797 -->
<g id="edge18" class="edge"><title>Node780&#45;&gt;Node797</title>
<path fill="none" stroke="midnightblue" d="M68.6976,-163.914C82.8087,-144.493 117.642,-100.485 158,-78.5 162.225,-76.1982 166.712,-74.1752 171.331,-72.3972"/>
<polygon fill="midnightblue" stroke="midnightblue" points="172.642,-75.6473 180.957,-69.081 170.362,-69.029 172.642,-75.6473"/>
</g>
<!-- Node798 -->
<g id="node19" class="node"><title>Node798</title>
<g id="a_node19"><a xlink:href="classpartition_1_1_partition.html#a96660ce61740ab0287189b21833eccdf" target="_top" xlink:title="partition::Partition\l::next">
<polygon fill="white" stroke="black" points="198.5,-0.5 198.5,-30.5 291.5,-30.5 291.5,-0.5 198.5,-0.5"/>
<text text-anchor="start" x="206.5" y="-18.5" font-family="Helvetica,sans-Serif" font-size="10.00">partition::Partition</text>
<text text-anchor="middle" x="245" y="-7.5" font-family="Helvetica,sans-Serif" font-size="10.00">::next</text>
</a>
</g>
</g>
<!-- Node780&#45;&gt;Node798 -->
<g id="edge19" class="edge"><title>Node780&#45;&gt;Node798</title>
<path fill="none" stroke="midnightblue" d="M66.2319,-163.774C77.4317,-139.192 110.293,-74.1455 158,-40.5 167.047,-34.1193 177.715,-29.354 188.402,-25.7991"/>
<polygon fill="midnightblue" stroke="midnightblue" points="189.605,-29.0922 198.175,-22.8631 187.591,-22.3882 189.605,-29.0922"/>
</g>
<!-- Node784 -->
<g id="node5" class="node"><title>Node784</title>
<g id="a_node5"><a xlink:href="namespaceinterfacesse.html#a925f44ed84d40e9af5050fa0e1373396" target="_top" xlink:title="copy array aoarrayt_x in aoarrayt_y of type T ">
<polygon fill="white" stroke="black" points="403.5,-278 403.5,-297 502.5,-297 502.5,-278 403.5,-278"/>
<text text-anchor="middle" x="453" y="-285" font-family="Helvetica,sans-Serif" font-size="10.00">interfacesse::copy</text>
</a>
</g>
</g>
<!-- Node783&#45;&gt;Node784 -->
<g id="edge4" class="edge"><title>Node783&#45;&gt;Node784</title>
<path fill="none" stroke="midnightblue" d="M297.717,-259.04C326.842,-264.413 363.312,-271.14 393.48,-276.705"/>
<polygon fill="midnightblue" stroke="midnightblue" points="392.981,-280.172 403.45,-278.544 394.251,-273.288 392.981,-280.172"/>
</g>
<!-- Node785 -->
<g id="node6" class="node"><title>Node785</title>
<g id="a_node6"><a xlink:href="namespaceinterfacesse.html#afaa45a2a27710ea2dfa979289cf4961d" target="_top" xlink:title="swap items of aoarrayt_y to aiarrayt_x ">
<polygon fill="white" stroke="black" points="574,-278 574,-297 675,-297 675,-278 574,-278"/>
<text text-anchor="middle" x="624.5" y="-285" font-family="Helvetica,sans-Serif" font-size="10.00">interfacesse::swap</text>
</a>
</g>
</g>
<!-- Node784&#45;&gt;Node785 -->
<g id="edge5" class="edge"><title>Node784&#45;&gt;Node785</title>
<path fill="none" stroke="midnightblue" d="M502.572,-287.5C521.565,-287.5 543.543,-287.5 563.511,-287.5"/>
<polygon fill="midnightblue" stroke="midnightblue" points="563.743,-291 573.743,-287.5 563.743,-284 563.743,-291"/>
</g>
<!-- Node786 -->
<g id="node7" class="node"><title>Node786</title>
<g id="a_node7"><a xlink:href="namespaceinterfacesse.html#a2f42addf86fc8b9cd0c6620217b8a2db" target="_top" xlink:title="swap items of aoarrayt_y to aiarrayt_x ">
<polygon fill="white" stroke="black" points="711,-278 711,-297 803,-297 803,-278 711,-278"/>
<text text-anchor="middle" x="757" y="-285" font-family="Helvetica,sans-Serif" font-size="10.00">interfacesse::dot</text>
</a>
</g>
</g>
<!-- Node785&#45;&gt;Node786 -->
<g id="edge6" class="edge"><title>Node785&#45;&gt;Node786</title>
<path fill="none" stroke="midnightblue" d="M675.209,-287.5C683.505,-287.5 692.156,-287.5 700.584,-287.5"/>
<polygon fill="midnightblue" stroke="midnightblue" points="700.714,-291 710.714,-287.5 700.714,-284 700.714,-291"/>
</g>
<!-- Node787 -->
<g id="node8" class="node"><title>Node787</title>
<g id="a_node8"><a xlink:href="namespaceinterfacesse.html#a25f6950d589b92fd5bcf2007fb3fae19" target="_top" xlink:title="interfacesse::sum">
<polygon fill="white" stroke="black" points="839,-278 839,-297 935,-297 935,-278 839,-278"/>
<text text-anchor="middle" x="887" y="-285" font-family="Helvetica,sans-Serif" font-size="10.00">interfacesse::sum</text>
</a>
</g>
</g>
<!-- Node786&#45;&gt;Node787 -->
<g id="edge7" class="edge"><title>Node786&#45;&gt;Node787</title>
<path fill="none" stroke="midnightblue" d="M803.128,-287.5C811.315,-287.5 819.955,-287.5 828.442,-287.5"/>
<polygon fill="midnightblue" stroke="midnightblue" points="828.679,-291 838.678,-287.5 828.678,-284 828.679,-291"/>
</g>
<!-- Node788 -->
<g id="node9" class="node"><title>Node788</title>
<g id="a_node9"><a xlink:href="namespaceinterfacesse.html#a9dd5fb43ad8a83ee5cb2f5ba1bb2085b" target="_top" xlink:title="interfacesse::axpy">
<polygon fill="white" stroke="black" points="971,-278 971,-297 1070,-297 1070,-278 971,-278"/>
<text text-anchor="middle" x="1020.5" y="-285" font-family="Helvetica,sans-Serif" font-size="10.00">interfacesse::axpy</text>
</a>
</g>
</g>
<!-- Node787&#45;&gt;Node788 -->
<g id="edge8" class="edge"><title>Node787&#45;&gt;Node788</title>
<path fill="none" stroke="midnightblue" d="M935.103,-287.5C943.472,-287.5 952.281,-287.5 960.922,-287.5"/>
<polygon fill="midnightblue" stroke="midnightblue" points="960.953,-291 970.953,-287.5 960.953,-284 960.953,-291"/>
</g>
<!-- Node789 -->
<g id="node10" class="node"><title>Node789</title>
<g id="a_node10"><a xlink:href="namespaceinterfacesse.html#ae3f94c42a59db65b2941dbfc9f449ea1" target="_top" xlink:title="function xAXPY of blas for doubles vectors ">
<polygon fill="white" stroke="black" points="1106,-278 1106,-297 1218,-297 1218,-278 1106,-278"/>
<text text-anchor="middle" x="1162" y="-285" font-family="Helvetica,sans-Serif" font-size="10.00">interfacesse::axpyInv</text>
</a>
</g>
</g>
<!-- Node788&#45;&gt;Node789 -->
<g id="edge9" class="edge"><title>Node788&#45;&gt;Node789</title>
<path fill="none" stroke="midnightblue" d="M1070.29,-287.5C1078.54,-287.5 1087.21,-287.5 1095.79,-287.5"/>
<polygon fill="midnightblue" stroke="midnightblue" points="1095.8,-291 1105.8,-287.5 1095.8,-284 1095.8,-291"/>
</g>
<!-- Node790 -->
<g id="node11" class="node"><title>Node790</title>
<g id="a_node11"><a xlink:href="namespaceinterfacesse.html#a144ebf70bf38495c3de1aca2c8365e08" target="_top" xlink:title="scal items of the array of type T ">
<polygon fill="white" stroke="black" points="1254,-278 1254,-297 1350,-297 1350,-278 1254,-278"/>
<text text-anchor="middle" x="1302" y="-285" font-family="Helvetica,sans-Serif" font-size="10.00">interfacesse::scal</text>
</a>
</g>
</g>
<!-- Node789&#45;&gt;Node790 -->
<g id="edge10" class="edge"><title>Node789&#45;&gt;Node790</title>
<path fill="none" stroke="midnightblue" d="M1218.33,-287.5C1226.65,-287.5 1235.24,-287.5 1243.6,-287.5"/>
<polygon fill="midnightblue" stroke="midnightblue" points="1243.65,-291 1253.65,-287.5 1243.65,-284 1243.65,-291"/>
</g>
<!-- Node792 -->
<g id="node13" class="node"><title>Node792</title>
<g id="a_node13"><a xlink:href="classmat_1_1_matrix_base.html#a70200414022ce1479b9ddc16102b12ae" target="_top" xlink:title="mat::MatrixBase::getNumColumns">
<polygon fill="white" stroke="black" points="368,-240 368,-259 538,-259 538,-240 368,-240"/>
<text text-anchor="middle" x="453" y="-247" font-family="Helvetica,sans-Serif" font-size="10.00">mat::MatrixBase::getNumColumns</text>
</a>
</g>
</g>
<!-- Node791&#45;&gt;Node792 -->
<g id="edge12" class="edge"><title>Node791&#45;&gt;Node792</title>
<path fill="none" stroke="midnightblue" d="M281.413,-218.032C311.252,-223.537 354.642,-231.541 390.193,-238.099"/>
<polygon fill="midnightblue" stroke="midnightblue" points="390.002,-241.622 400.471,-239.995 391.272,-234.739 390.002,-241.622"/>
</g>
<!-- Node791&#45;&gt;Node793 -->
<g id="edge13" class="edge"><title>Node791&#45;&gt;Node793</title>
<path fill="none" stroke="midnightblue" d="M281.413,-204.968C311.252,-199.463 354.642,-191.459 390.193,-184.901"/>
<polygon fill="midnightblue" stroke="midnightblue" points="391.272,-188.261 400.471,-183.005 390.002,-181.378 391.272,-188.261"/>
</g>
<!-- Node794 -->
<g id="node15" class="node"><title>Node794</title>
<g id="a_node15"><a xlink:href="classmat_1_1_matrix_row.html#a5391a205367fbaac82a26ddc377a80af" target="_top" xlink:title="mat::MatrixRow::getRow">
<polygon fill="white" stroke="black" points="389.5,-202 389.5,-221 516.5,-221 516.5,-202 389.5,-202"/>
<text text-anchor="middle" x="453" y="-209" font-family="Helvetica,sans-Serif" font-size="10.00">mat::MatrixRow::getRow</text>
</a>
</g>
</g>
<!-- Node791&#45;&gt;Node794 -->
<g id="edge14" class="edge"><title>Node791&#45;&gt;Node794</title>
<path fill="none" stroke="midnightblue" d="M281.413,-211.5C308.205,-211.5 345.922,-211.5 379.08,-211.5"/>
<polygon fill="midnightblue" stroke="midnightblue" points="379.206,-215 389.206,-211.5 379.206,-208 379.206,-215"/>
</g>
</g>
</svg>
