<?xml version="1.0" encoding="UTF-8" standalone="no"?>
<!DOCTYPE svg PUBLIC "-//W3C//DTD SVG 1.1//EN"
 "http://www.w3.org/Graphics/SVG/1.1/DTD/svg11.dtd">
<!-- Generated by graphviz version 2.38.0 (20140413.2041)
 -->
<!-- Title: clusteringop::updateCentroids Pages: 1 -->
<svg width="695pt" height="256pt"
 viewBox="0.00 0.00 695.00 256.00" xmlns="http://www.w3.org/2000/svg" xmlns:xlink="http://www.w3.org/1999/xlink">
<g id="graph0" class="graph" transform="scale(1 1) rotate(0) translate(4 252)">
<title>clusteringop::updateCentroids</title>
<polygon fill="white" stroke="none" points="-4,4 -4,-252 691,-252 691,4 -4,4"/>
<!-- Node246 -->
<g id="node1" class="node"><title>Node246</title>
<g id="a_node1"><a xlink:title=" ">
<polygon fill="#bfbfbf" stroke="black" points="0,-171.5 0,-190.5 151,-190.5 151,-171.5 0,-171.5"/>
<text text-anchor="middle" x="75.5" y="-178.5" font-family="Helvetica,sans-Serif" font-size="10.00">clusteringop::updateCentroids</text>
</a>
</g>
</g>
<!-- Node247 -->
<g id="node2" class="node"><title>Node247</title>
<g id="a_node2"><a xlink:href="namespaceinterfacesse.html#a9dd5fb43ad8a83ee5cb2f5ba1bb2085b" target="_top" xlink:title=" ">
<polygon fill="white" stroke="black" points="210.5,-228.5 210.5,-247.5 309.5,-247.5 309.5,-228.5 210.5,-228.5"/>
<text text-anchor="middle" x="260" y="-235.5" font-family="Helvetica,sans-Serif" font-size="10.00">interfacesse::axpy</text>
</a>
</g>
</g>
<!-- Node246&#45;&gt;Node247 -->
<g id="edge1" class="edge"><title>Node246&#45;&gt;Node247</title>
<path fill="none" stroke="midnightblue" d="M107.046,-190.541C137.708,-200.117 185.105,-214.921 218.804,-225.446"/>
<polygon fill="midnightblue" stroke="midnightblue" points="217.765,-228.788 228.354,-228.428 219.852,-222.106 217.765,-228.788"/>
</g>
<!-- Node248 -->
<g id="node3" class="node"><title>Node248</title>
<g id="a_node3"><a xlink:href="classmat_1_1_matrix_row.html#a5391a205367fbaac82a26ddc377a80af" target="_top" xlink:title=" ">
<polygon fill="white" stroke="black" points="390.5,-190.5 390.5,-209.5 517.5,-209.5 517.5,-190.5 390.5,-190.5"/>
<text text-anchor="middle" x="454" y="-197.5" font-family="Helvetica,sans-Serif" font-size="10.00">mat::MatrixRow::getRow</text>
</a>
</g>
</g>
<!-- Node246&#45;&gt;Node248 -->
<g id="edge2" class="edge"><title>Node246&#45;&gt;Node248</title>
<path fill="none" stroke="midnightblue" d="M151.334,-184.777C217.797,-188.131 314.33,-193.002 380.176,-196.325"/>
<polygon fill="midnightblue" stroke="midnightblue" points="380.308,-199.836 390.472,-196.845 380.661,-192.845 380.308,-199.836"/>
</g>
<!-- Node249 -->
<g id="node4" class="node"><title>Node249</title>
<g id="a_node4"><a xlink:href="namespaceclusteringop.html#ab64951784015cb55d4b8a32993255713" target="_top" xlink:title=" ">
<polygon fill="white" stroke="black" points="187,-76.5 187,-95.5 333,-95.5 333,-76.5 187,-76.5"/>
<text text-anchor="middle" x="260" y="-83.5" font-family="Helvetica,sans-Serif" font-size="10.00">clusteringop::meanCentroids</text>
</a>
</g>
</g>
<!-- Node246&#45;&gt;Node249 -->
<g id="edge3" class="edge"><title>Node246&#45;&gt;Node249</title>
<path fill="none" stroke="midnightblue" d="M95.0034,-171.368C127.333,-154.539 194.235,-119.713 231.831,-100.143"/>
<polygon fill="midnightblue" stroke="midnightblue" points="233.465,-103.238 240.719,-95.5162 230.233,-97.029 233.465,-103.238"/>
</g>
<!-- Node257 -->
<g id="node12" class="node"><title>Node257</title>
<g id="a_node12"><a xlink:href="namespacenearest.html#a8b0d89680acfe7ef438ae465bd633fb1" target="_top" xlink:title="NN Find the centroid closest to an instance.">
<polygon fill="white" stroke="black" points="225,-152.5 225,-171.5 295,-171.5 295,-152.5 225,-152.5"/>
<text text-anchor="middle" x="260" y="-159.5" font-family="Helvetica,sans-Serif" font-size="10.00">nearest::NN</text>
</a>
</g>
</g>
<!-- Node246&#45;&gt;Node257 -->
<g id="edge11" class="edge"><title>Node246&#45;&gt;Node257</title>
<path fill="none" stroke="midnightblue" d="M151.256,-173.217C172.851,-170.969 195.72,-168.588 214.808,-166.601"/>
<polygon fill="midnightblue" stroke="midnightblue" points="215.407,-170.057 224.991,-165.541 214.682,-163.095 215.407,-170.057"/>
</g>
<!-- Node250 -->
<g id="node5" class="node"><title>Node250</title>
<g id="a_node5"><a xlink:href="classmat_1_1_matrix_base.html#ac500eedd5e203327d3292f8ab22d8f3e" target="_top" xlink:title=" ">
<polygon fill="white" stroke="black" points="376,-114.5 376,-133.5 532,-133.5 532,-114.5 376,-114.5"/>
<text text-anchor="middle" x="454" y="-121.5" font-family="Helvetica,sans-Serif" font-size="10.00">mat::MatrixBase::getNumRows</text>
</a>
</g>
</g>
<!-- Node249&#45;&gt;Node250 -->
<g id="edge4" class="edge"><title>Node249&#45;&gt;Node250</title>
<path fill="none" stroke="midnightblue" d="M309.45,-95.589C335.471,-100.739 367.728,-107.123 395.069,-112.534"/>
<polygon fill="midnightblue" stroke="midnightblue" points="394.409,-115.972 404.899,-114.48 395.769,-109.105 394.409,-115.972"/>
</g>
<!-- Node251 -->
<g id="node6" class="node"><title>Node251</title>
<g id="a_node6"><a xlink:href="classmat_1_1_matrix_base.html#ae3b1c4b8e9cb7e7685d7bc129f875dcd" target="_top" xlink:title=" ">
<polygon fill="white" stroke="black" points="388.5,-76.5 388.5,-95.5 519.5,-95.5 519.5,-76.5 388.5,-76.5"/>
<text text-anchor="middle" x="454" y="-83.5" font-family="Helvetica,sans-Serif" font-size="10.00">mat::MatrixBase::getRow</text>
</a>
</g>
</g>
<!-- Node249&#45;&gt;Node251 -->
<g id="edge5" class="edge"><title>Node249&#45;&gt;Node251</title>
<path fill="none" stroke="midnightblue" d="M333.04,-86C347.824,-86 363.418,-86 378.294,-86"/>
<polygon fill="midnightblue" stroke="midnightblue" points="378.459,-89.5001 388.459,-86 378.458,-82.5001 378.459,-89.5001"/>
</g>
<!-- Node252 -->
<g id="node7" class="node"><title>Node252</title>
<g id="a_node7"><a xlink:href="namespacestats.html#a61ea16e97e098fc1598f4a2975cb0a24" target="_top" xlink:title="￼Calculate average of a vector">
<polygon fill="white" stroke="black" points="405,-38.5 405,-57.5 503,-57.5 503,-38.5 405,-38.5"/>
<text text-anchor="middle" x="454" y="-45.5" font-family="Helvetica,sans-Serif" font-size="10.00">stats::meanVector</text>
</a>
</g>
</g>
<!-- Node249&#45;&gt;Node252 -->
<g id="edge6" class="edge"><title>Node249&#45;&gt;Node252</title>
<path fill="none" stroke="midnightblue" d="M309.45,-76.411C335.471,-71.261 367.728,-64.8768 395.069,-59.4656"/>
<polygon fill="midnightblue" stroke="midnightblue" points="395.769,-62.895 404.899,-57.5201 394.409,-56.0282 395.769,-62.895"/>
</g>
<!-- Node256 -->
<g id="node11" class="node"><title>Node256</title>
<g id="a_node11"><a xlink:href="classmat_1_1_matrix_base.html#a4cdb6c084f99e4aec0373760c093ee11" target="_top" xlink:title=" ">
<polygon fill="white" stroke="black" points="397,-0.5 397,-19.5 511,-19.5 511,-0.5 397,-0.5"/>
<text text-anchor="middle" x="454" y="-7.5" font-family="Helvetica,sans-Serif" font-size="10.00">mat::MatrixBase::print</text>
</a>
</g>
</g>
<!-- Node249&#45;&gt;Node256 -->
<g id="edge10" class="edge"><title>Node249&#45;&gt;Node256</title>
<path fill="none" stroke="midnightblue" d="M276.142,-76.355C296.509,-63.7758 334.199,-41.8627 369,-29 376.021,-26.405 383.508,-24.0983 391.011,-22.0664"/>
<polygon fill="midnightblue" stroke="midnightblue" points="392.024,-25.4202 400.845,-19.5525 390.29,-18.6383 392.024,-25.4202"/>
</g>
<!-- Node253 -->
<g id="node8" class="node"><title>Node253</title>
<g id="a_node8"><a xlink:href="namespaceinout.html#a0c10a45877a347dec0d4ec4e5b05b828" target="_top" xlink:title=" ">
<polygon fill="white" stroke="black" points="579.5,-76.5 579.5,-95.5 682.5,-95.5 682.5,-76.5 579.5,-76.5"/>
<text text-anchor="middle" x="631" y="-83.5" font-family="Helvetica,sans-Serif" font-size="10.00">inout::containerprint</text>
</a>
</g>
</g>
<!-- Node252&#45;&gt;Node253 -->
<g id="edge7" class="edge"><title>Node252&#45;&gt;Node253</title>
<path fill="none" stroke="midnightblue" d="M499.16,-57.589C522.565,-62.6713 551.505,-68.9554 576.212,-74.3203"/>
<polygon fill="midnightblue" stroke="midnightblue" points="575.643,-77.7782 586.158,-76.4799 577.128,-70.9376 575.643,-77.7782"/>
</g>
<!-- Node254 -->
<g id="node9" class="node"><title>Node254</title>
<g id="a_node9"><a xlink:href="namespaceinterfacesse.html#aa4b94bf2bf8cb7c437fa3feba8b70ff8" target="_top" xlink:title="Initializes the array with a constant .">
<polygon fill="white" stroke="black" points="578.5,-38.5 578.5,-57.5 683.5,-57.5 683.5,-38.5 578.5,-38.5"/>
<text text-anchor="middle" x="631" y="-45.5" font-family="Helvetica,sans-Serif" font-size="10.00">interfacesse::copya</text>
</a>
</g>
</g>
<!-- Node252&#45;&gt;Node254 -->
<g id="edge8" class="edge"><title>Node252&#45;&gt;Node254</title>
<path fill="none" stroke="midnightblue" d="M503.283,-48C523.28,-48 546.722,-48 567.969,-48"/>
<polygon fill="midnightblue" stroke="midnightblue" points="568.199,-51.5001 578.199,-48 568.199,-44.5001 568.199,-51.5001"/>
</g>
<!-- Node255 -->
<g id="node10" class="node"><title>Node255</title>
<g id="a_node10"><a xlink:href="namespaceinterfacesse.html#ae3f94c42a59db65b2941dbfc9f449ea1" target="_top" xlink:title="function xAXPY of blas for doubles vectors">
<polygon fill="white" stroke="black" points="575,-0.5 575,-19.5 687,-19.5 687,-0.5 575,-0.5"/>
<text text-anchor="middle" x="631" y="-7.5" font-family="Helvetica,sans-Serif" font-size="10.00">interfacesse::axpyInv</text>
</a>
</g>
</g>
<!-- Node252&#45;&gt;Node255 -->
<g id="edge9" class="edge"><title>Node252&#45;&gt;Node255</title>
<path fill="none" stroke="midnightblue" d="M499.16,-38.411C522.565,-33.3287 551.505,-27.0446 576.212,-21.6797"/>
<polygon fill="midnightblue" stroke="midnightblue" points="577.128,-25.0624 586.158,-19.5201 575.643,-18.2218 577.128,-25.0624"/>
</g>
<!-- Node257&#45;&gt;Node248 -->
<g id="edge12" class="edge"><title>Node257&#45;&gt;Node248</title>
<path fill="none" stroke="midnightblue" d="M295.326,-168.794C322.989,-174.269 362.502,-182.089 395.051,-188.531"/>
<polygon fill="midnightblue" stroke="midnightblue" points="394.419,-191.974 404.908,-190.482 395.778,-185.107 394.419,-191.974"/>
</g>
<!-- Node257&#45;&gt;Node250 -->
<g id="edge14" class="edge"><title>Node257&#45;&gt;Node250</title>
<path fill="none" stroke="midnightblue" d="M295.326,-155.206C322.989,-149.731 362.502,-141.911 395.051,-135.469"/>
<polygon fill="midnightblue" stroke="midnightblue" points="395.778,-138.893 404.908,-133.518 394.419,-132.026 395.778,-138.893"/>
</g>
<!-- Node258 -->
<g id="node13" class="node"><title>Node258</title>
<g id="a_node13"><a xlink:href="classmat_1_1_matrix_base.html#a70200414022ce1479b9ddc16102b12ae" target="_top" xlink:title=" ">
<polygon fill="white" stroke="black" points="369,-152.5 369,-171.5 539,-171.5 539,-152.5 369,-152.5"/>
<text text-anchor="middle" x="454" y="-159.5" font-family="Helvetica,sans-Serif" font-size="10.00">mat::MatrixBase::getNumColumns</text>
</a>
</g>
</g>
<!-- Node257&#45;&gt;Node258 -->
<g id="edge13" class="edge"><title>Node257&#45;&gt;Node258</title>
<path fill="none" stroke="midnightblue" d="M295.326,-162C313.178,-162 335.965,-162 358.63,-162"/>
<polygon fill="midnightblue" stroke="midnightblue" points="358.668,-165.5 368.668,-162 358.668,-158.5 358.668,-165.5"/>
</g>
</g>
</svg>
