<?xml version="1.0" encoding="UTF-8" standalone="no"?>
<!DOCTYPE svg PUBLIC "-//W3C//DTD SVG 1.1//EN"
 "http://www.w3.org/Graphics/SVG/1.1/DTD/svg11.dtd">
<!-- Generated by graphviz version 2.38.0 (20140413.2041)
 -->
<!-- Title: gaclusteringop::MO2 Pages: 1 -->
<svg width="332pt" height="274pt"
 viewBox="0.00 0.00 332.00 274.00" xmlns="http://www.w3.org/2000/svg" xmlns:xlink="http://www.w3.org/1999/xlink">
<g id="graph0" class="graph" transform="scale(1 1) rotate(0) translate(4 270)">
<title>gaclusteringop::MO2</title>
<polygon fill="white" stroke="none" points="-4,4 -4,-270 328,-270 328,4 -4,4"/>
<!-- Node185 -->
<g id="node1" class="node"><title>Node185</title>
<g id="a_node1"><a xlink:title=" ">
<polygon fill="#bfbfbf" stroke="black" points="0,-128 0,-147 110,-147 110,-128 0,-128"/>
<text text-anchor="middle" x="55" y="-135" font-family="Helvetica,sans-Serif" font-size="10.00">gaclusteringop::MO2</text>
</a>
</g>
</g>
<!-- Node186 -->
<g id="node2" class="node"><title>Node186</title>
<g id="a_node2"><a xlink:href="classgaencode_1_1_chrom_fixed_length.html#af29275f1369d5ba7ca30da4831a528db" target="_top" xlink:title=" ">
<polygon fill="white" stroke="black" points="157.5,-235.5 157.5,-265.5 312.5,-265.5 312.5,-235.5 157.5,-235.5"/>
<text text-anchor="start" x="165.5" y="-253.5" font-family="Helvetica,sans-Serif" font-size="10.00">gaencode::ChromFixedLength</text>
<text text-anchor="middle" x="235" y="-242.5" font-family="Helvetica,sans-Serif" font-size="10.00">::begin</text>
</a>
</g>
</g>
<!-- Node185&#45;&gt;Node186 -->
<g id="edge1" class="edge"><title>Node185&#45;&gt;Node186</title>
<path fill="none" stroke="midnightblue" d="M63.0401,-147.021C76.8884,-165.07 109.514,-204.343 146,-225.5 149.71,-227.651 153.616,-229.627 157.635,-231.439"/>
<polygon fill="midnightblue" stroke="midnightblue" points="156.603,-234.8 167.182,-235.381 159.275,-228.33 156.603,-234.8"/>
</g>
<!-- Node187 -->
<g id="node3" class="node"><title>Node187</title>
<g id="a_node3"><a xlink:href="classgaencode_1_1_chrom_fixed_length.html#a014e2a6eac1f0dc7655e37b2a8355a4e" target="_top" xlink:title=" ">
<polygon fill="white" stroke="black" points="146,-197 146,-216 324,-216 324,-197 146,-197"/>
<text text-anchor="middle" x="235" y="-204" font-family="Helvetica,sans-Serif" font-size="10.00">gaencode::ChromFixedLength::end</text>
</a>
</g>
</g>
<!-- Node185&#45;&gt;Node187 -->
<g id="edge2" class="edge"><title>Node185&#45;&gt;Node187</title>
<path fill="none" stroke="midnightblue" d="M70.0178,-147.014C87.2038,-158.262 117.56,-176.799 146,-187.5 153.018,-190.141 160.497,-192.459 168.016,-194.483"/>
<polygon fill="midnightblue" stroke="midnightblue" points="167.338,-197.921 177.89,-196.976 169.052,-191.134 167.338,-197.921"/>
</g>
<!-- Node188 -->
<g id="node4" class="node"><title>Node188</title>
<g id="a_node4"><a xlink:href="namespacenearest.html#a23db35c89871abd7e5d41a36bc779064" target="_top" xlink:title=" ">
<polygon fill="white" stroke="black" points="172,-147.5 172,-177.5 298,-177.5 298,-147.5 172,-147.5"/>
<text text-anchor="start" x="180" y="-165.5" font-family="Helvetica,sans-Serif" font-size="10.00">nearest::farthestInstance</text>
<text text-anchor="middle" x="235" y="-154.5" font-family="Helvetica,sans-Serif" font-size="10.00">FromS1</text>
</a>
</g>
</g>
<!-- Node185&#45;&gt;Node188 -->
<g id="edge3" class="edge"><title>Node185&#45;&gt;Node188</title>
<path fill="none" stroke="midnightblue" d="M110.373,-145.137C126.612,-147.417 144.672,-149.954 161.862,-152.368"/>
<polygon fill="midnightblue" stroke="midnightblue" points="161.472,-155.848 171.861,-153.773 162.445,-148.916 161.472,-155.848"/>
</g>
<!-- Node189 -->
<g id="node5" class="node"><title>Node189</title>
<g id="a_node5"><a xlink:href="classgaencode_1_1_chrom_fixed_length.html#ab9d0b01b82cd679c6232dcd78c13e9d2" target="_top" xlink:title=" ">
<polygon fill="white" stroke="black" points="157.5,-98.5 157.5,-128.5 312.5,-128.5 312.5,-98.5 157.5,-98.5"/>
<text text-anchor="start" x="165.5" y="-116.5" font-family="Helvetica,sans-Serif" font-size="10.00">gaencode::ChromFixedLength</text>
<text text-anchor="middle" x="235" y="-105.5" font-family="Helvetica,sans-Serif" font-size="10.00">::getGene</text>
</a>
</g>
</g>
<!-- Node185&#45;&gt;Node189 -->
<g id="edge4" class="edge"><title>Node185&#45;&gt;Node189</title>
<path fill="none" stroke="midnightblue" d="M110.373,-130.169C122.071,-128.592 134.714,-126.887 147.296,-125.19"/>
<polygon fill="midnightblue" stroke="midnightblue" points="147.911,-128.639 157.354,-123.834 146.976,-121.702 147.911,-128.639"/>
</g>
<!-- Node190 -->
<g id="node6" class="node"><title>Node190</title>
<g id="a_node6"><a xlink:href="classgaencode_1_1_chrom_fixed_length.html#a2d0b4e4d46c2f224ce34cf795407b407" target="_top" xlink:title=" ">
<polygon fill="white" stroke="black" points="157.5,-49.5 157.5,-79.5 312.5,-79.5 312.5,-49.5 157.5,-49.5"/>
<text text-anchor="start" x="165.5" y="-67.5" font-family="Helvetica,sans-Serif" font-size="10.00">gaencode::ChromFixedLength</text>
<text text-anchor="middle" x="235" y="-56.5" font-family="Helvetica,sans-Serif" font-size="10.00">::print</text>
</a>
</g>
</g>
<!-- Node185&#45;&gt;Node190 -->
<g id="edge5" class="edge"><title>Node185&#45;&gt;Node190</title>
<path fill="none" stroke="midnightblue" d="M71.4413,-127.951C88.9891,-117.414 118.738,-100.496 146,-89.5 151.896,-87.1218 158.1,-84.8761 164.372,-82.7795"/>
<polygon fill="midnightblue" stroke="midnightblue" points="165.796,-85.9985 174.248,-79.6101 163.657,-79.3333 165.796,-85.9985"/>
</g>
<!-- Node191 -->
<g id="node7" class="node"><title>Node191</title>
<g id="a_node7"><a xlink:href="classgaencode_1_1_chrom_fixed_length.html#a62cd9d117ffefb43b4de56cf82bc44bc" target="_top" xlink:title=" ">
<polygon fill="white" stroke="black" points="157.5,-0.5 157.5,-30.5 312.5,-30.5 312.5,-0.5 157.5,-0.5"/>
<text text-anchor="start" x="165.5" y="-18.5" font-family="Helvetica,sans-Serif" font-size="10.00">gaencode::ChromFixedLength</text>
<text text-anchor="middle" x="235" y="-7.5" font-family="Helvetica,sans-Serif" font-size="10.00">::setGene</text>
</a>
</g>
</g>
<!-- Node185&#45;&gt;Node191 -->
<g id="edge6" class="edge"><title>Node185&#45;&gt;Node191</title>
<path fill="none" stroke="midnightblue" d="M62.1876,-127.89C75.2481,-108.388 107.61,-64.0271 146,-40.5 149.407,-38.4123 152.993,-36.4935 156.692,-34.7306"/>
<polygon fill="midnightblue" stroke="midnightblue" points="158.295,-37.8506 166.078,-30.662 155.511,-31.4281 158.295,-37.8506"/>
</g>
</g>
</svg>
