<?xml version="1.0" encoding="UTF-8" standalone="no"?>
<!DOCTYPE svg PUBLIC "-//W3C//DTD SVG 1.1//EN"
 "http://www.w3.org/Graphics/SVG/1.1/DTD/svg11.dtd">
<!-- Generated by graphviz version 2.38.0 (20140413.2041)
 -->
<!-- Title: gagenericop::GAGRcrossoverpathM2n Pages: 1 -->
<svg width="1608pt" height="811pt"
 viewBox="0.00 0.00 1608.00 810.50" xmlns="http://www.w3.org/2000/svg" xmlns:xlink="http://www.w3.org/1999/xlink">
<g id="graph0" class="graph" transform="scale(1 1) rotate(0) translate(4 806.5)">
<title>gagenericop::GAGRcrossoverpathM2n</title>
<polygon fill="white" stroke="none" points="-4,4 -4,-806.5 1604,-806.5 1604,4 -4,4"/>
<!-- Node28 -->
<g id="node1" class="node"><title>Node28</title>
<polygon fill="#bfbfbf" stroke="black" points="0,-401.5 0,-420.5 193,-420.5 193,-401.5 0,-401.5"/>
<text text-anchor="middle" x="96.5" y="-408.5" font-family="Helvetica,sans-Serif" font-size="10.00">gagenericop::GAGRcrossoverpathM2n</text>
</g>
<!-- Node29 -->
<g id="node2" class="node"><title>Node29</title>
<g id="a_node2"><a xlink:href="namespacegagenericop.html#a511232c4212e12892effb533b38f871a" target="_top" xlink:title="gagenericop::pathCrossover">
<polygon fill="white" stroke="black" points="229,-401.5 229,-420.5 375,-420.5 375,-401.5 229,-401.5"/>
<text text-anchor="middle" x="302" y="-408.5" font-family="Helvetica,sans-Serif" font-size="10.00">gagenericop::pathCrossover</text>
</a>
</g>
</g>
<!-- Node28&#45;&gt;Node29 -->
<g id="edge1" class="edge"><title>Node28&#45;&gt;Node29</title>
<path fill="none" stroke="midnightblue" d="M193.291,-404.26C201.793,-404.231 210.35,-404.264 218.725,-404.361"/>
<polygon fill="midnightblue" stroke="midnightblue" points="218.782,-407.862 228.833,-404.51 218.886,-400.863 218.782,-407.862"/>
</g>
<!-- Node29&#45;&gt;Node28 -->
<g id="edge30" class="edge"><title>Node29&#45;&gt;Node28</title>
<path fill="none" stroke="midnightblue" d="M228.833,-417.49C220.556,-417.639 211.994,-417.724 203.392,-417.745"/>
<polygon fill="midnightblue" stroke="midnightblue" points="203.293,-414.245 193.291,-417.74 203.289,-421.245 203.293,-414.245"/>
</g>
<!-- Node30 -->
<g id="node3" class="node"><title>Node30</title>
<g id="a_node3"><a xlink:href="classgaencode_1_1_chrom_fixed_length.html#a2d0b4e4d46c2f224ce34cf795407b407" target="_top" xlink:title="gaencode::ChromFixedLength\l::print">
<polygon fill="white" stroke="black" points="414,-772 414,-802 569,-802 569,-772 414,-772"/>
<text text-anchor="start" x="422" y="-790" font-family="Helvetica,sans-Serif" font-size="10.00">gaencode::ChromFixedLength</text>
<text text-anchor="middle" x="491.5" y="-779" font-family="Helvetica,sans-Serif" font-size="10.00">::print</text>
</a>
</g>
</g>
<!-- Node29&#45;&gt;Node30 -->
<g id="edge2" class="edge"><title>Node29&#45;&gt;Node30</title>
<path fill="none" stroke="midnightblue" d="M302.883,-420.771C302.886,-466.513 309.07,-661.529 411,-763 412.086,-764.081 413.218,-765.113 414.392,-766.099"/>
<polygon fill="midnightblue" stroke="midnightblue" points="412.487,-769.039 422.672,-771.96 416.531,-763.326 412.487,-769.039"/>
</g>
<!-- Node31 -->
<g id="node4" class="node"><title>Node31</title>
<g id="a_node4"><a xlink:href="classgaencode_1_1_chrom_fixed_length.html#a406e67fa48d6cdfc7a01f0c6e04f373b" target="_top" xlink:title="gaencode::ChromFixedLength\l::stcgetStringSize">
<polygon fill="white" stroke="black" points="414,-723 414,-753 569,-753 569,-723 414,-723"/>
<text text-anchor="start" x="422" y="-741" font-family="Helvetica,sans-Serif" font-size="10.00">gaencode::ChromFixedLength</text>
<text text-anchor="middle" x="491.5" y="-730" font-family="Helvetica,sans-Serif" font-size="10.00">::stcgetStringSize</text>
</a>
</g>
</g>
<!-- Node29&#45;&gt;Node31 -->
<g id="edge3" class="edge"><title>Node29&#45;&gt;Node31</title>
<path fill="none" stroke="midnightblue" d="M303.477,-420.749C306.048,-462.388 321.713,-627.109 411,-713 412.652,-714.589 414.404,-716.077 416.237,-717.471"/>
<polygon fill="midnightblue" stroke="midnightblue" points="414.447,-720.482 424.739,-722.996 418.261,-714.612 414.447,-720.482"/>
</g>
<!-- Node32 -->
<g id="node5" class="node"><title>Node32</title>
<g id="a_node5"><a xlink:href="namespaceinterfacesse.html#a925f44ed84d40e9af5050fa0e1373396" target="_top" xlink:title="copy array aoarrayt_x in aoarrayt_y of type T ">
<polygon fill="white" stroke="black" points="442,-684.5 442,-703.5 541,-703.5 541,-684.5 442,-684.5"/>
<text text-anchor="middle" x="491.5" y="-691.5" font-family="Helvetica,sans-Serif" font-size="10.00">interfacesse::copy</text>
</a>
</g>
</g>
<!-- Node29&#45;&gt;Node32 -->
<g id="edge4" class="edge"><title>Node29&#45;&gt;Node32</title>
<path fill="none" stroke="midnightblue" d="M303.871,-420.723C307.881,-459.436 328.089,-603.946 411,-675 417.061,-680.194 424.297,-684.023 431.898,-686.836"/>
<polygon fill="midnightblue" stroke="midnightblue" points="431.073,-690.245 441.662,-689.882 433.158,-683.563 431.073,-690.245"/>
</g>
<!-- Node39 -->
<g id="node12" class="node"><title>Node39</title>
<g id="a_node12"><a xlink:href="classgaencode_1_1_chrom_fixed_length.html#a4d1d15f6be16c0d0a23824033993aa71" target="_top" xlink:title="gaencode::ChromFixedLength\l::getString">
<polygon fill="white" stroke="black" points="414,-635 414,-665 569,-665 569,-635 414,-635"/>
<text text-anchor="start" x="422" y="-653" font-family="Helvetica,sans-Serif" font-size="10.00">gaencode::ChromFixedLength</text>
<text text-anchor="middle" x="491.5" y="-642" font-family="Helvetica,sans-Serif" font-size="10.00">::getString</text>
</a>
</g>
</g>
<!-- Node29&#45;&gt;Node39 -->
<g id="edge11" class="edge"><title>Node29&#45;&gt;Node39</title>
<path fill="none" stroke="midnightblue" d="M305.068,-420.779C312.702,-454.467 342.483,-566.813 411,-625 412.978,-626.68 415.069,-628.247 417.248,-629.709"/>
<polygon fill="midnightblue" stroke="midnightblue" points="415.633,-632.819 426.032,-634.844 419.165,-626.776 415.633,-632.819"/>
</g>
<!-- Node40 -->
<g id="node13" class="node"><title>Node40</title>
<g id="a_node13"><a xlink:href="namespacegagenericop.html#a6284f3552c374e022d93d4e13e04e170" target="_top" xlink:title="GAGRx1x2bar Definition 3. . ">
<polygon fill="white" stroke="black" points="418.5,-596.5 418.5,-615.5 564.5,-615.5 564.5,-596.5 418.5,-596.5"/>
<text text-anchor="middle" x="491.5" y="-603.5" font-family="Helvetica,sans-Serif" font-size="10.00">gagenericop::GAGRx1x2bar</text>
</a>
</g>
</g>
<!-- Node29&#45;&gt;Node40 -->
<g id="edge12" class="edge"><title>Node29&#45;&gt;Node40</title>
<path fill="none" stroke="midnightblue" d="M306.372,-420.836C316.902,-450.063 352.035,-537.143 411,-582 416.551,-586.223 422.843,-589.706 429.397,-592.58"/>
<polygon fill="midnightblue" stroke="midnightblue" points="428.544,-596.003 439.132,-596.368 431.082,-589.48 428.544,-596.003"/>
</g>
<!-- Node43 -->
<g id="node16" class="node"><title>Node43</title>
<g id="a_node16"><a xlink:href="namespacegagenericop.html#ac6be127c2fa61f56bd544a1e20e9d4ac" target="_top" xlink:title="GAGRcrossoverpathM1n . ">
<polygon fill="white" stroke="black" points="992,-558.5 992,-577.5 1185,-577.5 1185,-558.5 992,-558.5"/>
<text text-anchor="middle" x="1088.5" y="-565.5" font-family="Helvetica,sans-Serif" font-size="10.00">gagenericop::GAGRcrossoverpathM1n</text>
</a>
</g>
</g>
<!-- Node29&#45;&gt;Node43 -->
<g id="edge27" class="edge"><title>Node29&#45;&gt;Node43</title>
<path fill="none" stroke="midnightblue" d="M307.009,-420.728C318.518,-447.206 354.508,-520.487 411,-549 507.833,-597.873 816.883,-586.132 981.667,-575.788"/>
<polygon fill="midnightblue" stroke="midnightblue" points="982.068,-579.27 991.825,-575.141 981.622,-572.284 982.068,-579.27"/>
</g>
<!-- Node44 -->
<g id="node17" class="node"><title>Node44</title>
<g id="a_node17"><a xlink:href="classgaencode_1_1_chrom_fixed_length.html#aac60dd08cf0d29f08845a6381d84edad" target="_top" xlink:title="gaencode::ChromFixedLength\l::getStringSize">
<polygon fill="white" stroke="black" points="414,-509 414,-539 569,-539 569,-509 414,-509"/>
<text text-anchor="start" x="422" y="-527" font-family="Helvetica,sans-Serif" font-size="10.00">gaencode::ChromFixedLength</text>
<text text-anchor="middle" x="491.5" y="-516" font-family="Helvetica,sans-Serif" font-size="10.00">::getStringSize</text>
</a>
</g>
</g>
<!-- Node29&#45;&gt;Node44 -->
<g id="edge17" class="edge"><title>Node29&#45;&gt;Node44</title>
<path fill="none" stroke="midnightblue" d="M312.21,-420.62C329.809,-438.487 370.119,-476.974 411,-499 415.16,-501.241 419.552,-503.317 424.049,-505.234"/>
<polygon fill="midnightblue" stroke="midnightblue" points="422.802,-508.505 433.388,-508.947 425.388,-502 422.802,-508.505"/>
</g>
<!-- Node45 -->
<g id="node18" class="node"><title>Node45</title>
<g id="a_node18"><a xlink:href="namespaceinout.html#a0c10a45877a347dec0d4ec4e5b05b828" target="_top" xlink:title="inout::containerprint">
<polygon fill="white" stroke="black" points="440,-470.5 440,-489.5 543,-489.5 543,-470.5 440,-470.5"/>
<text text-anchor="middle" x="491.5" y="-477.5" font-family="Helvetica,sans-Serif" font-size="10.00">inout::containerprint</text>
</a>
</g>
</g>
<!-- Node29&#45;&gt;Node45 -->
<g id="edge18" class="edge"><title>Node29&#45;&gt;Node45</title>
<path fill="none" stroke="midnightblue" d="M321.314,-420.536C342.471,-431.261 378.54,-448.657 411,-460 419.297,-462.9 428.218,-465.564 436.979,-467.938"/>
<polygon fill="midnightblue" stroke="midnightblue" points="436.2,-471.352 446.76,-470.492 437.968,-464.579 436.2,-471.352"/>
</g>
<!-- Node46 -->
<g id="node19" class="node"><title>Node46</title>
<g id="a_node19"><a xlink:href="classgaencode_1_1_chrom_fixed_length.html#a5398efa14d86ed2fda30d2fc6f3d1089" target="_top" xlink:title="gaencode::ChromFixedLength\l::setString">
<polygon fill="white" stroke="black" points="414,-421 414,-451 569,-451 569,-421 414,-421"/>
<text text-anchor="start" x="422" y="-439" font-family="Helvetica,sans-Serif" font-size="10.00">gaencode::ChromFixedLength</text>
<text text-anchor="middle" x="491.5" y="-428" font-family="Helvetica,sans-Serif" font-size="10.00">::setString</text>
</a>
</g>
</g>
<!-- Node29&#45;&gt;Node46 -->
<g id="edge19" class="edge"><title>Node29&#45;&gt;Node46</title>
<path fill="none" stroke="midnightblue" d="M374.421,-420.523C384.022,-421.803 393.955,-423.127 403.784,-424.438"/>
<polygon fill="midnightblue" stroke="midnightblue" points="403.597,-427.944 413.971,-425.796 404.522,-421.005 403.597,-427.944"/>
</g>
<!-- Node47 -->
<g id="node20" class="node"><title>Node47</title>
<g id="a_node20"><a xlink:href="classgaencode_1_1_chromosome_base.html#ab136d6f70ea068097d764e5bc34015e1" target="_top" xlink:title="gaencode::ChromosomeBase\l::setFitness">
<polygon fill="white" stroke="black" points="414,-372 414,-402 569,-402 569,-372 414,-372"/>
<text text-anchor="start" x="422" y="-390" font-family="Helvetica,sans-Serif" font-size="10.00">gaencode::ChromosomeBase</text>
<text text-anchor="middle" x="491.5" y="-379" font-family="Helvetica,sans-Serif" font-size="10.00">::setFitness</text>
</a>
</g>
</g>
<!-- Node29&#45;&gt;Node47 -->
<g id="edge20" class="edge"><title>Node29&#45;&gt;Node47</title>
<path fill="none" stroke="midnightblue" d="M375.224,-401.755C384.642,-400.55 394.366,-399.305 403.988,-398.074"/>
<polygon fill="midnightblue" stroke="midnightblue" points="404.486,-401.538 413.96,-396.797 403.597,-394.595 404.486,-401.538"/>
</g>
<!-- Node49 -->
<g id="node22" class="node"><title>Node49</title>
<g id="a_node22"><a xlink:href="classgaencode_1_1_chromosome_base.html#a6e201d174946aea43c98dcde4a0088f8" target="_top" xlink:title="gaencode::ChromosomeBase\l::getFitness">
<polygon fill="white" stroke="black" points="414,-323 414,-353 569,-353 569,-323 414,-323"/>
<text text-anchor="start" x="422" y="-341" font-family="Helvetica,sans-Serif" font-size="10.00">gaencode::ChromosomeBase</text>
<text text-anchor="middle" x="491.5" y="-330" font-family="Helvetica,sans-Serif" font-size="10.00">::getFitness</text>
</a>
</g>
</g>
<!-- Node29&#45;&gt;Node49 -->
<g id="edge22" class="edge"><title>Node29&#45;&gt;Node49</title>
<path fill="none" stroke="midnightblue" d="M322.183,-401.359C343.527,-390.854 379.2,-373.954 411,-362 416.36,-359.985 421.971,-358.018 427.625,-356.132"/>
<polygon fill="midnightblue" stroke="midnightblue" points="428.716,-359.457 437.146,-353.04 426.554,-352.8 428.716,-359.457"/>
</g>
<!-- Node50 -->
<g id="node23" class="node"><title>Node50</title>
<g id="a_node23"><a xlink:href="classgaencode_1_1_chromosome_base.html#a0c0f339b486fb7d097d2afac2539ddc8" target="_top" xlink:title="gaencode::ChromosomeBase\l::setObjetiveFunc">
<polygon fill="white" stroke="black" points="414,-274 414,-304 569,-304 569,-274 414,-274"/>
<text text-anchor="start" x="422" y="-292" font-family="Helvetica,sans-Serif" font-size="10.00">gaencode::ChromosomeBase</text>
<text text-anchor="middle" x="491.5" y="-281" font-family="Helvetica,sans-Serif" font-size="10.00">::setObjetiveFunc</text>
</a>
</g>
</g>
<!-- Node29&#45;&gt;Node50 -->
<g id="edge23" class="edge"><title>Node29&#45;&gt;Node50</title>
<path fill="none" stroke="midnightblue" d="M310.9,-401.402C327.449,-381.904 367.813,-337.444 411,-313 414.199,-311.189 417.55,-309.501 420.991,-307.929"/>
<polygon fill="midnightblue" stroke="midnightblue" points="422.399,-311.133 430.264,-304.034 419.689,-304.679 422.399,-311.133"/>
</g>
<!-- Node51 -->
<g id="node24" class="node"><title>Node51</title>
<g id="a_node24"><a xlink:href="classgaencode_1_1_chromosome_base.html#afc3f7dbd72d88157ba37eb8bea29478e" target="_top" xlink:title="gaencode::ChromosomeBase\l::getObjetiveFunc">
<polygon fill="white" stroke="black" points="414,-225 414,-255 569,-255 569,-225 414,-225"/>
<text text-anchor="start" x="422" y="-243" font-family="Helvetica,sans-Serif" font-size="10.00">gaencode::ChromosomeBase</text>
<text text-anchor="middle" x="491.5" y="-232" font-family="Helvetica,sans-Serif" font-size="10.00">::getObjetiveFunc</text>
</a>
</g>
</g>
<!-- Node29&#45;&gt;Node51 -->
<g id="edge24" class="edge"><title>Node29&#45;&gt;Node51</title>
<path fill="none" stroke="midnightblue" d="M307.293,-401.443C319.53,-375.298 357.206,-302.014 411,-264 413.112,-262.508 415.318,-261.106 417.595,-259.791"/>
<polygon fill="midnightblue" stroke="midnightblue" points="419.379,-262.81 426.679,-255.132 416.184,-256.582 419.379,-262.81"/>
</g>
<!-- Node52 -->
<g id="node25" class="node"><title>Node52</title>
<g id="a_node25"><a xlink:href="classgaencode_1_1_chromosome_base.html#abac472511083c6b8c3cb5208242d0d66" target="_top" xlink:title="gaencode::ChromosomeBase\l::setValidString">
<polygon fill="white" stroke="black" points="414,-176 414,-206 569,-206 569,-176 414,-176"/>
<text text-anchor="start" x="422" y="-194" font-family="Helvetica,sans-Serif" font-size="10.00">gaencode::ChromosomeBase</text>
<text text-anchor="middle" x="491.5" y="-183" font-family="Helvetica,sans-Serif" font-size="10.00">::setValidString</text>
</a>
</g>
</g>
<!-- Node29&#45;&gt;Node52 -->
<g id="edge25" class="edge"><title>Node29&#45;&gt;Node52</title>
<path fill="none" stroke="midnightblue" d="M305.547,-401.127C314.32,-369.121 346.36,-267.291 411,-215 412.597,-213.708 414.263,-212.485 415.985,-211.328"/>
<polygon fill="midnightblue" stroke="midnightblue" points="418.123,-214.133 425.001,-206.075 414.599,-208.085 418.123,-214.133"/>
</g>
<!-- Node53 -->
<g id="node26" class="node"><title>Node53</title>
<g id="a_node26"><a xlink:href="classgaencode_1_1_chromosome_base.html#ac2bfdec82da5c2b4954c58b8ca151498" target="_top" xlink:title="gaencode::ChromosomeBase\l::getValidString">
<polygon fill="white" stroke="black" points="414,-127 414,-157 569,-157 569,-127 414,-127"/>
<text text-anchor="start" x="422" y="-145" font-family="Helvetica,sans-Serif" font-size="10.00">gaencode::ChromosomeBase</text>
<text text-anchor="middle" x="491.5" y="-134" font-family="Helvetica,sans-Serif" font-size="10.00">::getValidString</text>
</a>
</g>
</g>
<!-- Node29&#45;&gt;Node53 -->
<g id="edge26" class="edge"><title>Node29&#45;&gt;Node53</title>
<path fill="none" stroke="midnightblue" d="M304.338,-401.353C309.925,-364.798 334.762,-233.461 411,-166 412.336,-164.818 413.729,-163.694 415.17,-162.625"/>
<polygon fill="midnightblue" stroke="midnightblue" points="417.321,-165.405 423.886,-157.089 413.568,-159.496 417.321,-165.405"/>
</g>
<!-- Node54 -->
<g id="node27" class="node"><title>Node54</title>
<g id="a_node27"><a xlink:href="classgafuncobj_1_1_g_a_function_objective.html#a0f2107d0c918b8514b493f77d8b4c473" target="_top" xlink:title="gafuncobj::GAFunctionObjective\l::getObjetiveFunc">
<polygon fill="white" stroke="black" points="411,-78 411,-108 572,-108 572,-78 411,-78"/>
<text text-anchor="start" x="419" y="-96" font-family="Helvetica,sans-Serif" font-size="10.00">gafuncobj::GAFunctionObjective</text>
<text text-anchor="middle" x="491.5" y="-85" font-family="Helvetica,sans-Serif" font-size="10.00">::getObjetiveFunc</text>
</a>
</g>
</g>
<!-- Node29&#45;&gt;Node54 -->
<g id="edge28" class="edge"><title>Node29&#45;&gt;Node54</title>
<path fill="none" stroke="midnightblue" d="M303.542,-401.478C306.377,-360.811 322.968,-199.997 411,-117 412.262,-115.81 413.581,-114.679 414.949,-113.604"/>
<polygon fill="midnightblue" stroke="midnightblue" points="416.899,-116.51 423.26,-108.038 413.004,-110.694 416.899,-116.51"/>
</g>
<!-- Node55 -->
<g id="node28" class="node"><title>Node55</title>
<g id="a_node28"><a xlink:href="classgafuncobj_1_1_g_a_function_objective.html#abec6f65389554c7b4ac03130ce5dfd4a" target="_top" xlink:title="gafuncobj::GAFunctionObjective\l::getFitness">
<polygon fill="white" stroke="black" points="411,-29 411,-59 572,-59 572,-29 411,-29"/>
<text text-anchor="start" x="419" y="-47" font-family="Helvetica,sans-Serif" font-size="10.00">gafuncobj::GAFunctionObjective</text>
<text text-anchor="middle" x="491.5" y="-36" font-family="Helvetica,sans-Serif" font-size="10.00">::getFitness</text>
</a>
</g>
</g>
<!-- Node29&#45;&gt;Node55 -->
<g id="edge29" class="edge"><title>Node29&#45;&gt;Node55</title>
<path fill="none" stroke="midnightblue" d="M302.972,-401.473C303.375,-356.872 311.086,-166.736 411,-68 412.09,-66.9233 413.226,-65.8946 414.402,-64.9118"/>
<polygon fill="midnightblue" stroke="midnightblue" points="416.539,-67.6881 422.7,-59.0691 412.509,-61.9645 416.539,-67.6881"/>
</g>
<!-- Node33 -->
<g id="node6" class="node"><title>Node33</title>
<g id="a_node6"><a xlink:href="namespaceinterfacesse.html#afaa45a2a27710ea2dfa979289cf4961d" target="_top" xlink:title="swap items of aoarrayt_y to aiarrayt_x ">
<polygon fill="white" stroke="black" points="635,-684.5 635,-703.5 736,-703.5 736,-684.5 635,-684.5"/>
<text text-anchor="middle" x="685.5" y="-691.5" font-family="Helvetica,sans-Serif" font-size="10.00">interfacesse::swap</text>
</a>
</g>
</g>
<!-- Node32&#45;&gt;Node33 -->
<g id="edge5" class="edge"><title>Node32&#45;&gt;Node33</title>
<path fill="none" stroke="midnightblue" d="M541.446,-694C566.864,-694 598.128,-694 624.939,-694"/>
<polygon fill="midnightblue" stroke="midnightblue" points="624.975,-697.5 634.975,-694 624.975,-690.5 624.975,-697.5"/>
</g>
<!-- Node34 -->
<g id="node7" class="node"><title>Node34</title>
<g id="a_node7"><a xlink:href="namespaceinterfacesse.html#a2f42addf86fc8b9cd0c6620217b8a2db" target="_top" xlink:title="swap items of aoarrayt_y to aiarrayt_x ">
<polygon fill="white" stroke="black" points="831.5,-684.5 831.5,-703.5 923.5,-703.5 923.5,-684.5 831.5,-684.5"/>
<text text-anchor="middle" x="877.5" y="-691.5" font-family="Helvetica,sans-Serif" font-size="10.00">interfacesse::dot</text>
</a>
</g>
</g>
<!-- Node33&#45;&gt;Node34 -->
<g id="edge6" class="edge"><title>Node33&#45;&gt;Node34</title>
<path fill="none" stroke="midnightblue" d="M736.42,-694C762.549,-694 794.599,-694 821.446,-694"/>
<polygon fill="midnightblue" stroke="midnightblue" points="821.458,-697.5 831.458,-694 821.458,-690.5 821.458,-697.5"/>
</g>
<!-- Node35 -->
<g id="node8" class="node"><title>Node35</title>
<g id="a_node8"><a xlink:href="namespaceinterfacesse.html#a25f6950d589b92fd5bcf2007fb3fae19" target="_top" xlink:title="interfacesse::sum">
<polygon fill="white" stroke="black" points="1040.5,-684.5 1040.5,-703.5 1136.5,-703.5 1136.5,-684.5 1040.5,-684.5"/>
<text text-anchor="middle" x="1088.5" y="-691.5" font-family="Helvetica,sans-Serif" font-size="10.00">interfacesse::sum</text>
</a>
</g>
</g>
<!-- Node34&#45;&gt;Node35 -->
<g id="edge7" class="edge"><title>Node34&#45;&gt;Node35</title>
<path fill="none" stroke="midnightblue" d="M923.593,-694C954.804,-694 996.603,-694 1030.18,-694"/>
<polygon fill="midnightblue" stroke="midnightblue" points="1030.31,-697.5 1040.31,-694 1030.31,-690.5 1030.31,-697.5"/>
</g>
<!-- Node36 -->
<g id="node9" class="node"><title>Node36</title>
<g id="a_node9"><a xlink:href="namespaceinterfacesse.html#a9dd5fb43ad8a83ee5cb2f5ba1bb2085b" target="_top" xlink:title="interfacesse::axpy">
<polygon fill="white" stroke="black" points="1221,-684.5 1221,-703.5 1320,-703.5 1320,-684.5 1221,-684.5"/>
<text text-anchor="middle" x="1270.5" y="-691.5" font-family="Helvetica,sans-Serif" font-size="10.00">interfacesse::axpy</text>
</a>
</g>
</g>
<!-- Node35&#45;&gt;Node36 -->
<g id="edge8" class="edge"><title>Node35&#45;&gt;Node36</title>
<path fill="none" stroke="midnightblue" d="M1136.79,-694C1159.49,-694 1186.9,-694 1210.9,-694"/>
<polygon fill="midnightblue" stroke="midnightblue" points="1210.96,-697.5 1220.96,-694 1210.96,-690.5 1210.96,-697.5"/>
</g>
<!-- Node37 -->
<g id="node10" class="node"><title>Node37</title>
<g id="a_node10"><a xlink:href="namespaceinterfacesse.html#ae3f94c42a59db65b2941dbfc9f449ea1" target="_top" xlink:title="function xAXPY of blas for doubles vectors ">
<polygon fill="white" stroke="black" points="1356,-684.5 1356,-703.5 1468,-703.5 1468,-684.5 1356,-684.5"/>
<text text-anchor="middle" x="1412" y="-691.5" font-family="Helvetica,sans-Serif" font-size="10.00">interfacesse::axpyInv</text>
</a>
</g>
</g>
<!-- Node36&#45;&gt;Node37 -->
<g id="edge9" class="edge"><title>Node36&#45;&gt;Node37</title>
<path fill="none" stroke="midnightblue" d="M1320.29,-694C1328.54,-694 1337.21,-694 1345.79,-694"/>
<polygon fill="midnightblue" stroke="midnightblue" points="1345.8,-697.5 1355.8,-694 1345.8,-690.5 1345.8,-697.5"/>
</g>
<!-- Node38 -->
<g id="node11" class="node"><title>Node38</title>
<g id="a_node11"><a xlink:href="namespaceinterfacesse.html#a144ebf70bf38495c3de1aca2c8365e08" target="_top" xlink:title="scal items of the array of type T ">
<polygon fill="white" stroke="black" points="1504,-684.5 1504,-703.5 1600,-703.5 1600,-684.5 1504,-684.5"/>
<text text-anchor="middle" x="1552" y="-691.5" font-family="Helvetica,sans-Serif" font-size="10.00">interfacesse::scal</text>
</a>
</g>
</g>
<!-- Node37&#45;&gt;Node38 -->
<g id="edge10" class="edge"><title>Node37&#45;&gt;Node38</title>
<path fill="none" stroke="midnightblue" d="M1468.33,-694C1476.65,-694 1485.24,-694 1493.6,-694"/>
<polygon fill="midnightblue" stroke="midnightblue" points="1493.65,-697.5 1503.65,-694 1493.65,-690.5 1493.65,-697.5"/>
</g>
<!-- Node41 -->
<g id="node14" class="node"><title>Node41</title>
<g id="a_node14"><a xlink:href="namespacegagenericop.html#ab2a1d4c164a683365b967f6b628a2aa3" target="_top" xlink:title="GAGRx1x2up Definition 4. . ">
<polygon fill="white" stroke="black" points="614,-596.5 614,-615.5 757,-615.5 757,-596.5 614,-596.5"/>
<text text-anchor="middle" x="685.5" y="-603.5" font-family="Helvetica,sans-Serif" font-size="10.00">gagenericop::GAGRx1x2up</text>
</a>
</g>
</g>
<!-- Node40&#45;&gt;Node41 -->
<g id="edge13" class="edge"><title>Node40&#45;&gt;Node41</title>
<path fill="none" stroke="midnightblue" d="M564.54,-606C577.302,-606 590.668,-606 603.654,-606"/>
<polygon fill="midnightblue" stroke="midnightblue" points="603.969,-609.5 613.969,-606 603.969,-602.5 603.969,-609.5"/>
</g>
<!-- Node42 -->
<g id="node15" class="node"><title>Node42</title>
<g id="a_node15"><a xlink:href="namespacegagenericop.html#a6abef6eea408ed118ae420063b36ba17" target="_top" xlink:title="GAGRx1x2down Definition 5. . ">
<polygon fill="white" stroke="black" points="799,-596.5 799,-615.5 956,-615.5 956,-596.5 799,-596.5"/>
<text text-anchor="middle" x="877.5" y="-603.5" font-family="Helvetica,sans-Serif" font-size="10.00">gagenericop::GAGRx1x2down</text>
</a>
</g>
</g>
<!-- Node41&#45;&gt;Node42 -->
<g id="edge14" class="edge"><title>Node41&#45;&gt;Node42</title>
<path fill="none" stroke="midnightblue" d="M757.249,-606C767.563,-606 778.286,-606 788.886,-606"/>
<polygon fill="midnightblue" stroke="midnightblue" points="788.993,-609.5 798.993,-606 788.993,-602.5 788.993,-609.5"/>
</g>
<!-- Node42&#45;&gt;Node43 -->
<g id="edge15" class="edge"><title>Node42&#45;&gt;Node43</title>
<path fill="none" stroke="midnightblue" d="M930.97,-596.46C959.541,-591.265 995.08,-584.804 1025.07,-579.351"/>
<polygon fill="midnightblue" stroke="midnightblue" points="1025.8,-582.776 1035.01,-577.544 1024.54,-575.889 1025.8,-582.776"/>
</g>
<!-- Node43&#45;&gt;Node28 -->
<g id="edge16" class="edge"><title>Node43&#45;&gt;Node28</title>
<path fill="none" stroke="midnightblue" d="M1085.76,-558.141C1071.8,-482.717 971.375,-0 686.5,-0 490.5,-0 490.5,-0 490.5,-0 270.827,-0 136.124,-310.499 104.639,-391.739"/>
<polygon fill="midnightblue" stroke="midnightblue" points="101.307,-390.655 101.024,-401.246 107.85,-393.143 101.307,-390.655"/>
</g>
<!-- Node48 -->
<g id="node21" class="node"><title>Node48</title>
<g id="a_node21"><a xlink:href="classgaencode_1_1_chromosome_base.html#ab7a374a062ba8b5c6b4e674bae9a8299" target="_top" xlink:title="gaencode::ChromosomeBase\l::print">
<polygon fill="white" stroke="black" points="608,-372 608,-402 763,-402 763,-372 608,-372"/>
<text text-anchor="start" x="616" y="-390" font-family="Helvetica,sans-Serif" font-size="10.00">gaencode::ChromosomeBase</text>
<text text-anchor="middle" x="685.5" y="-379" font-family="Helvetica,sans-Serif" font-size="10.00">::print</text>
</a>
</g>
</g>
<!-- Node47&#45;&gt;Node48 -->
<g id="edge21" class="edge"><title>Node47&#45;&gt;Node48</title>
<path fill="none" stroke="midnightblue" d="M569.211,-387C578.569,-387 588.183,-387 597.675,-387"/>
<polygon fill="midnightblue" stroke="midnightblue" points="597.911,-390.5 607.911,-387 597.911,-383.5 597.911,-390.5"/>
</g>
</g>
</svg>
