<?xml version="1.0" encoding="UTF-8" standalone="no"?>
<!DOCTYPE svg PUBLIC "-//W3C//DTD SVG 1.1//EN"
 "http://www.w3.org/Graphics/SVG/1.1/DTD/svg11.dtd">
<!-- Generated by graphviz version 2.38.0 (20140413.2041)
 -->
<!-- Title: gabinaryop::bitMutation Pages: 1 -->
<!--zoomable 160 -->
<svg id="main" version="1.1" xmlns="http://www.w3.org/2000/svg" xmlns:xlink="http://www.w3.org/1999/xlink" xml:space="preserve" onload="init(evt)">
<style type="text/css"><![CDATA[
.edge:hover path { stroke: red; }
.edge:hover polygon { stroke: red; fill: red; }
]]></style>
<script type="text/javascript"><![CDATA[
var edges = document.getElementsByTagName('g');
if (edges && edges.length) {
  for (var i=0;i<edges.length;i++) {
    if (edges[i].id.substr(0,4)=='edge') {
      edges[i].setAttribute('class','edge');
    }
  }
}
]]></script>
        <defs>
                <circle id="rim" cx="0" cy="0" r="7"/>
                <circle id="rim2" cx="0" cy="0" r="3.5"/>
                <g id="zoomPlus">
                        <use xlink:href="#rim" fill="#404040">
                                <set attributeName="fill" to="#808080" begin="zoomplus.mouseover" end="zoomplus.mouseout"/>
                        </use>
                        <path d="M-4,0h8M0,-4v8" fill="none" stroke="white" stroke-width="1.5" pointer-events="none"/>
                </g>
                <g id="zoomMin">
                        <use xlink:href="#rim" fill="#404040">
                                <set attributeName="fill" to="#808080" begin="zoomminus.mouseover" end="zoomminus.mouseout"/>
                        </use>
                        <path d="M-4,0h8" fill="none" stroke="white" stroke-width="1.5" pointer-events="none"/>
                </g>
                <g id="dirArrow">
                        <path fill="none" stroke="white" stroke-width="1.5" d="M0,-3.0v7 M-2.5,-0.5L0,-3.0L2.5,-0.5"/>
                </g>
               <g id="resetDef">
                       <use xlink:href="#rim2" fill="#404040">
                               <set attributeName="fill" to="#808080" begin="reset.mouseover" end="reset.mouseout"/>
                       </use>
               </g>
        </defs>

<script type="text/javascript">
var viewWidth = 853;
var viewHeight = 160;
var sectionId = 'dynsection-1';
</script>
<script xlink:href="svgpan.js"/>
<svg id="graph" class="graph">
<g id="viewport">
<title>gabinaryop::bitMutation</title>
<polygon fill="white" stroke="none" points="-4,4 -4,-155.5 849,-155.5 849,4 -4,4"/>
<!-- Node12 -->
<g id="node1" class="node"><title>Node12</title>
<polygon fill="#bfbfbf" stroke="black" points="0,-49.5 0,-68.5 120,-68.5 120,-49.5 0,-49.5"/>
<text text-anchor="middle" x="60" y="-56.5" font-family="Helvetica,sans-Serif" font-size="10.00">gabinaryop::bitMutation</text>
</g>
<!-- Node13 -->
<g id="node2" class="node"><title>Node13</title>
<g id="a_node2"><a xlink:href="namespacegabinaryop.html#a8b159c793d848fe9258bc7e265f4c07f" target="_top" xlink:title="Toggle bits. ">
<polygon fill="white" stroke="black" points="156,-66 156,-96 287,-96 287,-66 156,-66"/>
<text text-anchor="start" x="164" y="-84" font-family="Helvetica,sans-Serif" font-size="10.00">gabinaryop::eachBitArray</text>
<text text-anchor="middle" x="221.5" y="-73" font-family="Helvetica,sans-Serif" font-size="10.00">Mutation</text>
</a>
</g>
</g>
<!-- Node12&#45;&gt;Node13 -->
<g id="edge1" class="edge"><title>Node12&#45;&gt;Node13</title>
<path fill="none" stroke="midnightblue" d="M120.392,-67.192C128.731,-68.3423 137.389,-69.5364 145.966,-70.7195"/>
<polygon fill="midnightblue" stroke="midnightblue" points="145.589,-74.2005 155.974,-72.0998 146.546,-67.2662 145.589,-74.2005"/>
</g>
<!-- Node14 -->
<g id="node3" class="node"><title>Node14</title>
<g id="a_node3"><a xlink:href="classgaencode_1_1_chromosome_bit_array.html#a5b129de998156a2e67f794de38a43ab7" target="_top" xlink:title="gaencode::ChromosomeBitArray\l::print">
<polygon fill="white" stroke="black" points="323,-99 323,-129 489,-129 489,-99 323,-99"/>
<text text-anchor="start" x="331" y="-117" font-family="Helvetica,sans-Serif" font-size="10.00">gaencode::ChromosomeBitArray</text>
<text text-anchor="middle" x="406" y="-106" font-family="Helvetica,sans-Serif" font-size="10.00">::print</text>
</a>
</g>
</g>
<!-- Node12&#45;&gt;Node14 -->
<g id="edge9" class="edge"><title>Node12&#45;&gt;Node14</title>
<path fill="none" stroke="midnightblue" d="M75.3707,-68.5716C93.3452,-79.9455 125.48,-98.3441 156,-106 206.711,-118.721 265.05,-121.212 312.506,-120.298"/>
<polygon fill="midnightblue" stroke="midnightblue" points="312.858,-123.79 322.769,-120.044 312.685,-116.793 312.858,-123.79"/>
</g>
<!-- Node19 -->
<g id="node8" class="node"><title>Node19</title>
<g id="a_node8"><a xlink:href="classmat_1_1_bit_array.html#a29b36b5521b6ab19f7427f3d1f7bee4b" target="_top" xlink:title="mat::BitArray::size">
<polygon fill="white" stroke="black" points="356.5,-38.5 356.5,-57.5 455.5,-57.5 455.5,-38.5 356.5,-38.5"/>
<text text-anchor="middle" x="406" y="-45.5" font-family="Helvetica,sans-Serif" font-size="10.00">mat::BitArray::size</text>
</a>
</g>
</g>
<!-- Node12&#45;&gt;Node19 -->
<g id="edge10" class="edge"><title>Node12&#45;&gt;Node19</title>
<path fill="none" stroke="midnightblue" d="M120.136,-57.109C183.37,-55.087 283.042,-51.8998 346.162,-49.8814"/>
<polygon fill="midnightblue" stroke="midnightblue" points="346.468,-53.3735 356.351,-49.5556 346.244,-46.3771 346.468,-53.3735"/>
</g>
<!-- Node20 -->
<g id="node9" class="node"><title>Node20</title>
<g id="a_node9"><a xlink:href="classds_1_1_bit_container.html#ace4c97f5d63d76e0545dc8d548768e2f" target="_top" xlink:title="ds::BitContainer::toggleBit">
<polygon fill="white" stroke="black" points="339,-0.5 339,-19.5 473,-19.5 473,-0.5 339,-0.5"/>
<text text-anchor="middle" x="406" y="-7.5" font-family="Helvetica,sans-Serif" font-size="10.00">ds::BitContainer::toggleBit</text>
</a>
</g>
</g>
<!-- Node12&#45;&gt;Node20 -->
<g id="edge11" class="edge"><title>Node12&#45;&gt;Node20</title>
<path fill="none" stroke="midnightblue" d="M120.136,-50.5766C177.729,-42.3729 265.549,-29.8636 328.449,-20.9041"/>
<polygon fill="midnightblue" stroke="midnightblue" points="329.306,-24.3174 338.712,-19.4421 328.319,-17.3874 329.306,-24.3174"/>
</g>
<!-- Node13&#45;&gt;Node14 -->
<g id="edge2" class="edge"><title>Node13&#45;&gt;Node14</title>
<path fill="none" stroke="midnightblue" d="M287.1,-92.681C295.518,-94.2033 304.268,-95.7855 313.028,-97.3694"/>
<polygon fill="midnightblue" stroke="midnightblue" points="312.44,-100.82 322.903,-99.1551 313.686,-93.9316 312.44,-100.82"/>
</g>
<!-- Node13&#45;&gt;Node19 -->
<g id="edge7" class="edge"><title>Node13&#45;&gt;Node19</title>
<path fill="none" stroke="midnightblue" d="M287.1,-69.319C306.395,-65.8299 327.433,-62.0257 346.327,-58.6094"/>
<polygon fill="midnightblue" stroke="midnightblue" points="347.066,-62.0326 356.283,-56.809 345.82,-55.1443 347.066,-62.0326"/>
</g>
<!-- Node13&#45;&gt;Node20 -->
<g id="edge8" class="edge"><title>Node13&#45;&gt;Node20</title>
<path fill="none" stroke="midnightblue" d="M247.311,-65.9343C267.18,-54.4251 296.083,-38.9046 323,-29 329.961,-26.4386 337.385,-24.146 344.816,-22.1162"/>
<polygon fill="midnightblue" stroke="midnightblue" points="345.743,-25.4916 354.548,-19.5989 343.99,-18.7146 345.743,-25.4916"/>
</g>
<!-- Node15 -->
<g id="node4" class="node"><title>Node15</title>
<g id="a_node4"><a xlink:href="classgaencode_1_1_chromosome_base.html#ab7a374a062ba8b5c6b4e674bae9a8299" target="_top" xlink:title="gaencode::ChromosomeBase\l::print">
<polygon fill="white" stroke="black" points="525,-121 525,-151 680,-151 680,-121 525,-121"/>
<text text-anchor="start" x="533" y="-139" font-family="Helvetica,sans-Serif" font-size="10.00">gaencode::ChromosomeBase</text>
<text text-anchor="middle" x="602.5" y="-128" font-family="Helvetica,sans-Serif" font-size="10.00">::print</text>
</a>
</g>
</g>
<!-- Node14&#45;&gt;Node15 -->
<g id="edge3" class="edge"><title>Node14&#45;&gt;Node15</title>
<path fill="none" stroke="midnightblue" d="M489.204,-123.298C497.699,-124.259 506.351,-125.238 514.892,-126.204"/>
<polygon fill="midnightblue" stroke="midnightblue" points="514.522,-129.684 524.852,-127.33 515.309,-122.728 514.522,-129.684"/>
</g>
<!-- Node16 -->
<g id="node5" class="node"><title>Node16</title>
<g id="a_node5"><a xlink:href="classmat_1_1_bit_array.html#a069efb2e4c68ffc2dec049e147de0fbb" target="_top" xlink:title="mat::BitArray::print">
<polygon fill="white" stroke="black" points="553.5,-82.5 553.5,-101.5 651.5,-101.5 651.5,-82.5 553.5,-82.5"/>
<text text-anchor="middle" x="602.5" y="-89.5" font-family="Helvetica,sans-Serif" font-size="10.00">mat::BitArray::print</text>
</a>
</g>
</g>
<!-- Node14&#45;&gt;Node16 -->
<g id="edge4" class="edge"><title>Node14&#45;&gt;Node16</title>
<path fill="none" stroke="midnightblue" d="M489.204,-104.702C507.32,-102.653 526.15,-100.523 543.097,-98.606"/>
<polygon fill="midnightblue" stroke="midnightblue" points="543.839,-102.045 553.382,-97.4427 543.052,-95.0889 543.839,-102.045"/>
</g>
<!-- Node17 -->
<g id="node6" class="node"><title>Node17</title>
<g id="a_node6"><a xlink:href="classds_1_1_bit_container.html#aefad9145f725e5584f59e6f9ff64e07b" target="_top" xlink:title="ds::BitContainer::getNum\lBitOn">
<polygon fill="white" stroke="black" points="716,-99 716,-129 845,-129 845,-99 716,-99"/>
<text text-anchor="start" x="724" y="-117" font-family="Helvetica,sans-Serif" font-size="10.00">ds::BitContainer::getNum</text>
<text text-anchor="middle" x="780.5" y="-106" font-family="Helvetica,sans-Serif" font-size="10.00">BitOn</text>
</a>
</g>
</g>
<!-- Node16&#45;&gt;Node17 -->
<g id="edge5" class="edge"><title>Node16&#45;&gt;Node17</title>
<path fill="none" stroke="midnightblue" d="M651.593,-98.0116C668.338,-100.105 687.53,-102.504 705.866,-104.796"/>
<polygon fill="midnightblue" stroke="midnightblue" points="705.587,-108.288 715.944,-106.056 706.456,-101.342 705.587,-108.288"/>
</g>
<!-- Node18 -->
<g id="node7" class="node"><title>Node18</title>
<g id="a_node7"><a xlink:href="classds_1_1_bit_container.html#ac411be8a6a028077107ab9c7a60b5546" target="_top" xlink:title="ds::BitContainer::getBit">
<polygon fill="white" stroke="black" points="720.5,-60.5 720.5,-79.5 840.5,-79.5 840.5,-60.5 720.5,-60.5"/>
<text text-anchor="middle" x="780.5" y="-67.5" font-family="Helvetica,sans-Serif" font-size="10.00">ds::BitContainer::getBit</text>
</a>
</g>
</g>
<!-- Node16&#45;&gt;Node18 -->
<g id="edge6" class="edge"><title>Node16&#45;&gt;Node18</title>
<path fill="none" stroke="midnightblue" d="M651.593,-85.9884C669.707,-83.7241 690.683,-81.1021 710.343,-78.6446"/>
<polygon fill="midnightblue" stroke="midnightblue" points="710.993,-82.0907 720.481,-77.3773 710.125,-75.1448 710.993,-82.0907"/>
</g>
</g>
</svg>
        <g id="navigator" transform="translate(0 0)" fill="#404254">
                <rect fill="#f2f5e9" fill-opacity="0.5" stroke="#606060" stroke-width=".5" x="0" y="0" width="60" height="60"/>
                <use id="zoomplus" xlink:href="#zoomPlus" x="17" y="9" onmousedown="handleZoom(evt,'in')"/>
                <use id="zoomminus" xlink:href="#zoomMin" x="42" y="9" onmousedown="handleZoom(evt,'out')"/>
                <use id="reset" xlink:href="#resetDef" x="30" y="36" onmousedown="handleReset()"/>
                <g id="arrowUp" xlink:href="#dirArrow" transform="translate(30 24)" onmousedown="handlePan(0,-1)">
                  <use xlink:href="#rim" fill="#404040">
                        <set attributeName="fill" to="#808080" begin="arrowUp.mouseover" end="arrowUp.mouseout"/>
                  </use>
                  <path fill="none" stroke="white" stroke-width="1.5" d="M0,-3.0v7 M-2.5,-0.5L0,-3.0L2.5,-0.5"/>
                </g>
                <g id="arrowRight" xlink:href="#dirArrow" transform="rotate(90) translate(36 -43)" onmousedown="handlePan(1,0)">
                  <use xlink:href="#rim" fill="#404040">
                        <set attributeName="fill" to="#808080" begin="arrowRight.mouseover" end="arrowRight.mouseout"/>
                  </use>
                  <path fill="none" stroke="white" stroke-width="1.5" d="M0,-3.0v7 M-2.5,-0.5L0,-3.0L2.5,-0.5"/>
                </g>
                <g id="arrowDown" xlink:href="#dirArrow" transform="rotate(180) translate(-30 -48)" onmousedown="handlePan(0,1)">
                  <use xlink:href="#rim" fill="#404040">
                        <set attributeName="fill" to="#808080" begin="arrowDown.mouseover" end="arrowDown.mouseout"/>
                  </use>
                  <path fill="none" stroke="white" stroke-width="1.5" d="M0,-3.0v7 M-2.5,-0.5L0,-3.0L2.5,-0.5"/>
                </g>
                <g id="arrowLeft" xlink:href="#dirArrow" transform="rotate(270) translate(-36 17)" onmousedown="handlePan(-1,0)">
                  <use xlink:href="#rim" fill="#404040">
                        <set attributeName="fill" to="#808080" begin="arrowLeft.mouseover" end="arrowLeft.mouseout"/>
                  </use>
                  <path fill="none" stroke="white" stroke-width="1.5" d="M0,-3.0v7 M-2.5,-0.5L0,-3.0L2.5,-0.5"/>
                </g>
        </g>
        <svg viewBox="0 0 15 15" width="100%" height="30px" preserveAspectRatio="xMaxYMin meet">
         <g id="arrow_out" transform="scale(0.3 0.3)">
          <a xlink:href="namespacegabinaryop_aad020bdf1afdbb4540ceb0a419ab87ba_cgraph_org.svg" target="_base">
           <rect id="button" ry="5" rx="5" y="6" x="6" height="38" width="38"
                fill="#f2f5e9" fill-opacity="0.5" stroke="#606060" stroke-width="1.0"/>
           <path id="arrow"
             d="M 11.500037,31.436501 C 11.940474,20.09759 22.043105,11.32322 32.158766,21.979434 L 37.068811,17.246167 C 37.068811,17.246167 37.088388,32 37.088388,32 L 22.160133,31.978069 C 22.160133,31.978069 26.997745,27.140456 26.997745,27.140456 C 18.528582,18.264221 13.291696,25.230495 11.500037,31.436501 z"
             style="fill:#404040;"/>
          </a>
         </g>
        </svg>
</svg>
