<?xml version="1.0" encoding="UTF-8" standalone="no"?>
<!DOCTYPE svg PUBLIC "-//W3C//DTD SVG 1.1//EN"
 "http://www.w3.org/Graphics/SVG/1.1/DTD/svg11.dtd">
<!-- Generated by graphviz version 2.38.0 (20140413.2041)
 -->
<!-- Title: nearest::NN Pages: 1 -->
<svg width="641pt" height="192pt"
 viewBox="0.00 0.00 641.00 192.00" xmlns="http://www.w3.org/2000/svg" xmlns:xlink="http://www.w3.org/1999/xlink">
<g id="graph0" class="graph" transform="scale(1 1) rotate(0) translate(4 188)">
<title>nearest::NN</title>
<polygon fill="white" stroke="none" points="-4,4 -4,-188 637,-188 637,4 -4,4"/>
<!-- Node101 -->
<g id="node1" class="node"><title>Node101</title>
<polygon fill="#bfbfbf" stroke="black" points="0,-83.5 0,-102.5 70,-102.5 70,-83.5 0,-83.5"/>
<text text-anchor="middle" x="35" y="-90.5" font-family="Helvetica,sans-Serif" font-size="10.00">nearest::NN</text>
</g>
<!-- Node102 -->
<g id="node2" class="node"><title>Node102</title>
<g id="a_node2"><a xlink:href="namespacenearest.html#a9508313369f30f2f3334215bcc46b0cd" target="_top" xlink:title="Find the centroid closest to an instance and check null centroids. ">
<polygon fill="white" stroke="black" points="106,-83.5 106,-102.5 263,-102.5 263,-83.5 106,-83.5"/>
<text text-anchor="middle" x="184.5" y="-90.5" font-family="Helvetica,sans-Serif" font-size="10.00">nearest::checkNullCentroidsNN</text>
</a>
</g>
</g>
<!-- Node101&#45;&gt;Node102 -->
<g id="edge1" class="edge"><title>Node101&#45;&gt;Node102</title>
<path fill="none" stroke="midnightblue" d="M70.2102,-93C78.063,-93 86.7649,-93 95.7549,-93"/>
<polygon fill="midnightblue" stroke="midnightblue" points="95.9974,-96.5001 105.997,-93 95.9973,-89.5001 95.9974,-96.5001"/>
</g>
<!-- Node103 -->
<g id="node3" class="node"><title>Node103</title>
<g id="a_node3"><a xlink:href="classmat_1_1_matrix_base.html#a70200414022ce1479b9ddc16102b12ae" target="_top" xlink:title="mat::MatrixBase::getNumColumns">
<polygon fill="white" stroke="black" points="299,-164.5 299,-183.5 469,-183.5 469,-164.5 299,-164.5"/>
<text text-anchor="middle" x="384" y="-171.5" font-family="Helvetica,sans-Serif" font-size="10.00">mat::MatrixBase::getNumColumns</text>
</a>
</g>
</g>
<!-- Node101&#45;&gt;Node103 -->
<g id="edge9" class="edge"><title>Node101&#45;&gt;Node103</title>
<path fill="none" stroke="midnightblue" d="M48.6281,-102.731C62.0736,-112.556 84.3561,-127.34 106,-135 164.723,-155.782 234.14,-165.53 288.792,-170.083"/>
<polygon fill="midnightblue" stroke="midnightblue" points="288.574,-173.576 298.819,-170.874 289.125,-166.598 288.574,-173.576"/>
</g>
<!-- Node104 -->
<g id="node4" class="node"><title>Node104</title>
<g id="a_node4"><a xlink:href="classmat_1_1_matrix_base.html#ac500eedd5e203327d3292f8ab22d8f3e" target="_top" xlink:title="mat::MatrixBase::getNumRows">
<polygon fill="white" stroke="black" points="306,-126.5 306,-145.5 462,-145.5 462,-126.5 306,-126.5"/>
<text text-anchor="middle" x="384" y="-133.5" font-family="Helvetica,sans-Serif" font-size="10.00">mat::MatrixBase::getNumRows</text>
</a>
</g>
</g>
<!-- Node101&#45;&gt;Node104 -->
<g id="edge10" class="edge"><title>Node101&#45;&gt;Node104</title>
<path fill="none" stroke="midnightblue" d="M66.3983,-102.522C78.5973,-106.008 92.8575,-109.666 106,-112 168.975,-123.182 240.967,-129.218 295.772,-132.44"/>
<polygon fill="midnightblue" stroke="midnightblue" points="295.617,-135.937 305.799,-133.009 296.013,-128.948 295.617,-135.937"/>
</g>
<!-- Node109 -->
<g id="node9" class="node"><title>Node109</title>
<g id="a_node9"><a xlink:href="classmat_1_1_matrix_row.html#a5391a205367fbaac82a26ddc377a80af" target="_top" xlink:title="mat::MatrixRow::getRow">
<polygon fill="white" stroke="black" points="121,-7.5 121,-26.5 248,-26.5 248,-7.5 121,-7.5"/>
<text text-anchor="middle" x="184.5" y="-14.5" font-family="Helvetica,sans-Serif" font-size="10.00">mat::MatrixRow::getRow</text>
</a>
</g>
</g>
<!-- Node101&#45;&gt;Node109 -->
<g id="edge11" class="edge"><title>Node101&#45;&gt;Node109</title>
<path fill="none" stroke="midnightblue" d="M46.6216,-83.2808C59.7118,-71.7561 83.0497,-52.6468 106,-41 114.67,-36.6003 124.298,-32.8285 133.738,-29.6657"/>
<polygon fill="midnightblue" stroke="midnightblue" points="134.982,-32.9434 143.46,-26.5894 132.87,-26.2696 134.982,-32.9434"/>
</g>
<!-- Node102&#45;&gt;Node103 -->
<g id="edge2" class="edge"><title>Node102&#45;&gt;Node103</title>
<path fill="none" stroke="midnightblue" d="M199.924,-102.598C220.892,-116.143 261.402,-140.796 299,-155 305.827,-157.579 313.105,-159.866 320.413,-161.877"/>
<polygon fill="midnightblue" stroke="midnightblue" points="319.8,-165.334 330.358,-164.451 321.554,-158.557 319.8,-165.334"/>
</g>
<!-- Node102&#45;&gt;Node104 -->
<g id="edge3" class="edge"><title>Node102&#45;&gt;Node104</title>
<path fill="none" stroke="midnightblue" d="M229.332,-102.543C258.865,-108.973 298.006,-117.495 329.394,-124.329"/>
<polygon fill="midnightblue" stroke="midnightblue" points="328.775,-127.776 339.291,-126.484 330.264,-120.936 328.775,-127.776"/>
</g>
<!-- Node105 -->
<g id="node5" class="node"><title>Node105</title>
<g id="a_node5"><a xlink:href="classmat_1_1_matrix_base.html#ae3b1c4b8e9cb7e7685d7bc129f875dcd" target="_top" xlink:title="mat::MatrixBase::getRow">
<polygon fill="white" stroke="black" points="318.5,-38.5 318.5,-57.5 449.5,-57.5 449.5,-38.5 318.5,-38.5"/>
<text text-anchor="middle" x="384" y="-45.5" font-family="Helvetica,sans-Serif" font-size="10.00">mat::MatrixBase::getRow</text>
</a>
</g>
</g>
<!-- Node102&#45;&gt;Node105 -->
<g id="edge4" class="edge"><title>Node102&#45;&gt;Node105</title>
<path fill="none" stroke="midnightblue" d="M227.003,-83.464C248.489,-78.5345 275.15,-72.4291 299,-67 309.275,-64.6612 320.258,-62.1701 330.782,-59.7878"/>
<polygon fill="midnightblue" stroke="midnightblue" points="331.712,-63.1661 340.693,-57.5457 330.167,-56.3386 331.712,-63.1661"/>
</g>
<!-- Node106 -->
<g id="node6" class="node"><title>Node106</title>
<g id="a_node6"><a xlink:href="classdata_1_1_instance.html#abd8d5a6a290d0783a57931dcce0a871d" target="_top" xlink:title="data::Instance::isInfinite\lFeature">
<polygon fill="white" stroke="black" points="323,-77 323,-107 445,-107 445,-77 323,-77"/>
<text text-anchor="start" x="331" y="-95" font-family="Helvetica,sans-Serif" font-size="10.00">data::Instance::isInfinite</text>
<text text-anchor="middle" x="384" y="-84" font-family="Helvetica,sans-Serif" font-size="10.00">Feature</text>
</a>
</g>
</g>
<!-- Node102&#45;&gt;Node106 -->
<g id="edge5" class="edge"><title>Node102&#45;&gt;Node106</title>
<path fill="none" stroke="midnightblue" d="M263.274,-92.6062C279.478,-92.5242 296.473,-92.4381 312.401,-92.3575"/>
<polygon fill="midnightblue" stroke="midnightblue" points="312.713,-95.856 322.695,-92.3053 312.677,-88.8561 312.713,-95.856"/>
</g>
<!-- Node108 -->
<g id="node8" class="node"><title>Node108</title>
<g id="a_node8"><a xlink:href="namespacenearest.html#a3c4239101cf18ab4ca62e654a4179995" target="_top" xlink:title="nearest::medoidsNN">
<polygon fill="white" stroke="black" points="329,-0.5 329,-19.5 439,-19.5 439,-0.5 329,-0.5"/>
<text text-anchor="middle" x="384" y="-7.5" font-family="Helvetica,sans-Serif" font-size="10.00">nearest::medoidsNN</text>
</a>
</g>
</g>
<!-- Node102&#45;&gt;Node108 -->
<g id="edge7" class="edge"><title>Node102&#45;&gt;Node108</title>
<path fill="none" stroke="midnightblue" d="M230.755,-83.4363C241.823,-79.9237 253.271,-75.2244 263,-69 283.147,-56.1105 278.366,-41.0955 299,-29 305.208,-25.3611 312.05,-22.4189 319.069,-20.04"/>
<polygon fill="midnightblue" stroke="midnightblue" points="320.143,-23.3717 328.706,-17.1328 318.122,-16.67 320.143,-23.3717"/>
</g>
<!-- Node107 -->
<g id="node7" class="node"><title>Node107</title>
<g id="a_node7"><a xlink:href="classdata_1_1_instance.html#a02d828c30db46d999f1830ea7b4d9c74" target="_top" xlink:title="data::Instance::getInfinite\lFeature">
<polygon fill="white" stroke="black" points="505,-77 505,-107 633,-107 633,-77 505,-77"/>
<text text-anchor="start" x="513" y="-95" font-family="Helvetica,sans-Serif" font-size="10.00">data::Instance::getInfinite</text>
<text text-anchor="middle" x="569" y="-84" font-family="Helvetica,sans-Serif" font-size="10.00">Feature</text>
</a>
</g>
</g>
<!-- Node106&#45;&gt;Node107 -->
<g id="edge6" class="edge"><title>Node106&#45;&gt;Node107</title>
<path fill="none" stroke="midnightblue" d="M445.175,-92C461.048,-92 478.352,-92 494.829,-92"/>
<polygon fill="midnightblue" stroke="midnightblue" points="494.962,-95.5001 504.962,-92 494.962,-88.5001 494.962,-95.5001"/>
</g>
<!-- Node108&#45;&gt;Node101 -->
<g id="edge8" class="edge"><title>Node108&#45;&gt;Node101</title>
<path fill="none" stroke="midnightblue" d="M339.212,-19.5494C284.5,-31.6115 188.077,-53.2994 106,-74 97.575,-76.1249 88.6063,-78.4846 79.9991,-80.7982"/>
<polygon fill="midnightblue" stroke="midnightblue" points="78.8518,-77.4827 70.1152,-83.4761 80.6825,-84.2391 78.8518,-77.4827"/>
</g>
</g>
</svg>
