<?xml version="1.0" encoding="UTF-8" standalone="no"?>
<!DOCTYPE svg PUBLIC "-//W3C//DTD SVG 1.1//EN"
 "http://www.w3.org/Graphics/SVG/1.1/DTD/svg11.dtd">
<!-- Generated by graphviz version 2.38.0 (20140413.2041)
 -->
<!-- Title: clusteringop::initialize Pages: 1 -->
<!--zoomable 256 -->
<svg id="main" version="1.1" xmlns="http://www.w3.org/2000/svg" xmlns:xlink="http://www.w3.org/1999/xlink" xml:space="preserve" onload="init(evt)">
<style type="text/css"><![CDATA[
.edge:hover path { stroke: red; }
.edge:hover polygon { stroke: red; fill: red; }
]]></style>
<script type="text/javascript"><![CDATA[
var edges = document.getElementsByTagName('g');
if (edges && edges.length) {
  for (var i=0;i<edges.length;i++) {
    if (edges[i].id.substr(0,4)=='edge') {
      edges[i].setAttribute('class','edge');
    }
  }
}
]]></script>
        <defs>
                <circle id="rim" cx="0" cy="0" r="7"/>
                <circle id="rim2" cx="0" cy="0" r="3.5"/>
                <g id="zoomPlus">
                        <use xlink:href="#rim" fill="#404040">
                                <set attributeName="fill" to="#808080" begin="zoomplus.mouseover" end="zoomplus.mouseout"/>
                        </use>
                        <path d="M-4,0h8M0,-4v8" fill="none" stroke="white" stroke-width="1.5" pointer-events="none"/>
                </g>
                <g id="zoomMin">
                        <use xlink:href="#rim" fill="#404040">
                                <set attributeName="fill" to="#808080" begin="zoomminus.mouseover" end="zoomminus.mouseout"/>
                        </use>
                        <path d="M-4,0h8" fill="none" stroke="white" stroke-width="1.5" pointer-events="none"/>
                </g>
                <g id="dirArrow">
                        <path fill="none" stroke="white" stroke-width="1.5" d="M0,-3.0v7 M-2.5,-0.5L0,-3.0L2.5,-0.5"/>
                </g>
               <g id="resetDef">
                       <use xlink:href="#rim2" fill="#404040">
                               <set attributeName="fill" to="#808080" begin="reset.mouseover" end="reset.mouseout"/>
                       </use>
               </g>
        </defs>

<script type="text/javascript">
var viewWidth = 1392;
var viewHeight = 256;
var sectionId = 'dynsection-10';
</script>
<script xlink:href="svgpan.js"/>
<svg id="graph" class="graph">
<g id="viewport">
<title>clusteringop::initialize</title>
<polygon fill="white" stroke="none" points="-4,4 -4,-252 1388,-252 1388,4 -4,4"/>
<!-- Node509 -->
<g id="node1" class="node"><title>Node509</title>
<polygon fill="#bfbfbf" stroke="black" points="0,-114.5 0,-133.5 113,-133.5 113,-114.5 0,-114.5"/>
<text text-anchor="middle" x="56.5" y="-121.5" font-family="Helvetica,sans-Serif" font-size="10.00">clusteringop::initialize</text>
</g>
<!-- Node510 -->
<g id="node2" class="node"><title>Node510</title>
<g id="a_node2"><a xlink:href="namespaceinterfacesse.html#a925f44ed84d40e9af5050fa0e1373396" target="_top" xlink:title="copy array aoarrayt_x in aoarrayt_y of type T ">
<polygon fill="white" stroke="black" points="369.5,-228.5 369.5,-247.5 468.5,-247.5 468.5,-228.5 369.5,-228.5"/>
<text text-anchor="middle" x="419" y="-235.5" font-family="Helvetica,sans-Serif" font-size="10.00">interfacesse::copy</text>
</a>
</g>
</g>
<!-- Node509&#45;&gt;Node510 -->
<g id="edge1" class="edge"><title>Node509&#45;&gt;Node510</title>
<path fill="none" stroke="midnightblue" d="M67.1967,-133.712C82.8974,-148.814 115.518,-177.676 149,-192 217.484,-221.297 303.305,-231.959 359.34,-235.825"/>
<polygon fill="midnightblue" stroke="midnightblue" points="359.243,-239.326 369.446,-236.471 359.689,-232.34 359.243,-239.326"/>
</g>
<!-- Node517 -->
<g id="node9" class="node"><title>Node517</title>
<g id="a_node9"><a xlink:href="classdata_1_1_instance.html#aa6ee19c383a86228b3d134e42bdb6830" target="_top" xlink:title="data::Instance::getFeatures">
<polygon fill="white" stroke="black" points="349,-190.5 349,-209.5 489,-209.5 489,-190.5 349,-190.5"/>
<text text-anchor="middle" x="419" y="-197.5" font-family="Helvetica,sans-Serif" font-size="10.00">data::Instance::getFeatures</text>
</a>
</g>
</g>
<!-- Node509&#45;&gt;Node517 -->
<g id="edge8" class="edge"><title>Node509&#45;&gt;Node517</title>
<path fill="none" stroke="midnightblue" d="M75.1808,-133.506C93.2215,-142.774 122.285,-156.532 149,-164 211.454,-181.458 284.505,-190.55 338.707,-195.225"/>
<polygon fill="midnightblue" stroke="midnightblue" points="338.689,-198.736 348.944,-196.075 339.268,-191.76 338.689,-198.736"/>
</g>
<!-- Node518 -->
<g id="node10" class="node"><title>Node518</title>
<g id="a_node10"><a xlink:href="classdata_1_1_instance.html#a90d1eaeb66cc1470bbfdb95434fdb761" target="_top" xlink:title="data::Instance::getNumDimensions">
<polygon fill="white" stroke="black" points="332,-152.5 332,-171.5 506,-171.5 506,-152.5 332,-152.5"/>
<text text-anchor="middle" x="419" y="-159.5" font-family="Helvetica,sans-Serif" font-size="10.00">data::Instance::getNumDimensions</text>
</a>
</g>
</g>
<!-- Node509&#45;&gt;Node518 -->
<g id="edge9" class="edge"><title>Node509&#45;&gt;Node518</title>
<path fill="none" stroke="midnightblue" d="M97.8357,-133.594C113.701,-137.047 132.126,-140.663 149,-143 206.063,-150.903 270.417,-155.599 321.87,-158.344"/>
<polygon fill="midnightblue" stroke="midnightblue" points="321.816,-161.846 331.983,-158.867 322.177,-154.855 321.816,-161.846"/>
</g>
<!-- Node519 -->
<g id="node11" class="node"><title>Node519</title>
<g id="a_node11"><a xlink:href="classmat_1_1_matrix_base.html#ac500eedd5e203327d3292f8ab22d8f3e" target="_top" xlink:title="mat::MatrixBase::getNumRows">
<polygon fill="white" stroke="black" points="341,-76.5 341,-95.5 497,-95.5 497,-76.5 341,-76.5"/>
<text text-anchor="middle" x="419" y="-83.5" font-family="Helvetica,sans-Serif" font-size="10.00">mat::MatrixBase::getNumRows</text>
</a>
</g>
</g>
<!-- Node509&#45;&gt;Node519 -->
<g id="edge10" class="edge"><title>Node509&#45;&gt;Node519</title>
<path fill="none" stroke="midnightblue" d="M97.8357,-114.406C113.701,-110.953 132.126,-107.337 149,-105 209.449,-96.6275 278.081,-91.8553 330.89,-89.1875"/>
<polygon fill="midnightblue" stroke="midnightblue" points="331.081,-92.6825 340.897,-88.6976 330.738,-85.6909 331.081,-92.6825"/>
</g>
<!-- Node520 -->
<g id="node12" class="node"><title>Node520</title>
<g id="a_node12"><a xlink:href="classmat_1_1_matrix_base.html#ae3b1c4b8e9cb7e7685d7bc129f875dcd" target="_top" xlink:title="mat::MatrixBase::getRow">
<polygon fill="white" stroke="black" points="353.5,-38.5 353.5,-57.5 484.5,-57.5 484.5,-38.5 353.5,-38.5"/>
<text text-anchor="middle" x="419" y="-45.5" font-family="Helvetica,sans-Serif" font-size="10.00">mat::MatrixBase::getRow</text>
</a>
</g>
</g>
<!-- Node509&#45;&gt;Node520 -->
<g id="edge11" class="edge"><title>Node509&#45;&gt;Node520</title>
<path fill="none" stroke="midnightblue" d="M77.7634,-114.482C96.0129,-106.287 123.768,-94.7455 149,-88 213.384,-70.7877 288.549,-60.3956 343.032,-54.5356"/>
<polygon fill="midnightblue" stroke="midnightblue" points="343.72,-57.9828 353.3,-53.4585 342.99,-51.021 343.72,-57.9828"/>
</g>
<!-- Node521 -->
<g id="node13" class="node"><title>Node521</title>
<g id="a_node13"><a xlink:href="classmat_1_1_matrix_base.html#a4cdb6c084f99e4aec0373760c093ee11" target="_top" xlink:title="mat::MatrixBase::print">
<polygon fill="white" stroke="black" points="362,-0.5 362,-19.5 476,-19.5 476,-0.5 362,-0.5"/>
<text text-anchor="middle" x="419" y="-7.5" font-family="Helvetica,sans-Serif" font-size="10.00">mat::MatrixBase::print</text>
</a>
</g>
</g>
<!-- Node509&#45;&gt;Node521 -->
<g id="edge12" class="edge"><title>Node509&#45;&gt;Node521</title>
<path fill="none" stroke="midnightblue" d="M67.2322,-114.449C82.9816,-99.5949 115.668,-71.1912 149,-57 214.497,-29.1144 295.705,-17.7715 351.66,-13.1588"/>
<polygon fill="midnightblue" stroke="midnightblue" points="352.105,-16.6349 361.805,-12.3734 351.565,-9.65583 352.105,-16.6349"/>
</g>
<!-- Node522 -->
<g id="node14" class="node"><title>Node522</title>
<g id="a_node14"><a xlink:href="namespaceclusteringop.html#aaf9c618adece3370f1da1abe8d9ce36e" target="_top" xlink:title="clusteringop::randomInitialize">
<polygon fill="white" stroke="black" points="149,-114.5 149,-133.5 296,-133.5 296,-114.5 149,-114.5"/>
<text text-anchor="middle" x="222.5" y="-121.5" font-family="Helvetica,sans-Serif" font-size="10.00">clusteringop::randomInitialize</text>
</a>
</g>
</g>
<!-- Node509&#45;&gt;Node522 -->
<g id="edge13" class="edge"><title>Node509&#45;&gt;Node522</title>
<path fill="none" stroke="midnightblue" d="M113.023,-124C121.305,-124 129.99,-124 138.688,-124"/>
<polygon fill="midnightblue" stroke="midnightblue" points="138.881,-127.5 148.881,-124 138.881,-120.5 138.881,-127.5"/>
</g>
<!-- Node511 -->
<g id="node3" class="node"><title>Node511</title>
<g id="a_node3"><a xlink:href="namespaceinterfacesse.html#afaa45a2a27710ea2dfa979289cf4961d" target="_top" xlink:title="swap items of aoarrayt_y to aiarrayt_x ">
<polygon fill="white" stroke="black" points="545.5,-228.5 545.5,-247.5 646.5,-247.5 646.5,-228.5 545.5,-228.5"/>
<text text-anchor="middle" x="596" y="-235.5" font-family="Helvetica,sans-Serif" font-size="10.00">interfacesse::swap</text>
</a>
</g>
</g>
<!-- Node510&#45;&gt;Node511 -->
<g id="edge2" class="edge"><title>Node510&#45;&gt;Node511</title>
<path fill="none" stroke="midnightblue" d="M468.747,-238C489.352,-238 513.549,-238 535.218,-238"/>
<polygon fill="midnightblue" stroke="midnightblue" points="535.298,-241.5 545.298,-238 535.298,-234.5 535.298,-241.5"/>
</g>
<!-- Node512 -->
<g id="node4" class="node"><title>Node512</title>
<g id="a_node4"><a xlink:href="namespaceinterfacesse.html#a2f42addf86fc8b9cd0c6620217b8a2db" target="_top" xlink:title="swap items of aoarrayt_y to aiarrayt_x ">
<polygon fill="white" stroke="black" points="701.5,-228.5 701.5,-247.5 793.5,-247.5 793.5,-228.5 701.5,-228.5"/>
<text text-anchor="middle" x="747.5" y="-235.5" font-family="Helvetica,sans-Serif" font-size="10.00">interfacesse::dot</text>
</a>
</g>
</g>
<!-- Node511&#45;&gt;Node512 -->
<g id="edge3" class="edge"><title>Node511&#45;&gt;Node512</title>
<path fill="none" stroke="midnightblue" d="M646.781,-238C660.998,-238 676.577,-238 691.107,-238"/>
<polygon fill="midnightblue" stroke="midnightblue" points="691.468,-241.5 701.468,-238 691.468,-234.5 691.468,-241.5"/>
</g>
<!-- Node513 -->
<g id="node5" class="node"><title>Node513</title>
<g id="a_node5"><a xlink:href="namespaceinterfacesse.html#a25f6950d589b92fd5bcf2007fb3fae19" target="_top" xlink:title="interfacesse::sum">
<polygon fill="white" stroke="black" points="859,-228.5 859,-247.5 955,-247.5 955,-228.5 859,-228.5"/>
<text text-anchor="middle" x="907" y="-235.5" font-family="Helvetica,sans-Serif" font-size="10.00">interfacesse::sum</text>
</a>
</g>
</g>
<!-- Node512&#45;&gt;Node513 -->
<g id="edge4" class="edge"><title>Node512&#45;&gt;Node513</title>
<path fill="none" stroke="midnightblue" d="M793.633,-238C810.81,-238 830.614,-238 848.766,-238"/>
<polygon fill="midnightblue" stroke="midnightblue" points="848.941,-241.5 858.941,-238 848.941,-234.5 848.941,-241.5"/>
</g>
<!-- Node514 -->
<g id="node6" class="node"><title>Node514</title>
<g id="a_node6"><a xlink:href="namespaceinterfacesse.html#a9dd5fb43ad8a83ee5cb2f5ba1bb2085b" target="_top" xlink:title="interfacesse::axpy">
<polygon fill="white" stroke="black" points="1005,-228.5 1005,-247.5 1104,-247.5 1104,-228.5 1005,-228.5"/>
<text text-anchor="middle" x="1054.5" y="-235.5" font-family="Helvetica,sans-Serif" font-size="10.00">interfacesse::axpy</text>
</a>
</g>
</g>
<!-- Node513&#45;&gt;Node514 -->
<g id="edge5" class="edge"><title>Node513&#45;&gt;Node514</title>
<path fill="none" stroke="midnightblue" d="M955.24,-238C967.745,-238 981.403,-238 994.45,-238"/>
<polygon fill="midnightblue" stroke="midnightblue" points="994.75,-241.5 1004.75,-238 994.749,-234.5 994.75,-241.5"/>
</g>
<!-- Node515 -->
<g id="node7" class="node"><title>Node515</title>
<g id="a_node7"><a xlink:href="namespaceinterfacesse.html#ae3f94c42a59db65b2941dbfc9f449ea1" target="_top" xlink:title="function xAXPY of blas for doubles vectors ">
<polygon fill="white" stroke="black" points="1140,-228.5 1140,-247.5 1252,-247.5 1252,-228.5 1140,-228.5"/>
<text text-anchor="middle" x="1196" y="-235.5" font-family="Helvetica,sans-Serif" font-size="10.00">interfacesse::axpyInv</text>
</a>
</g>
</g>
<!-- Node514&#45;&gt;Node515 -->
<g id="edge6" class="edge"><title>Node514&#45;&gt;Node515</title>
<path fill="none" stroke="midnightblue" d="M1104.29,-238C1112.54,-238 1121.21,-238 1129.79,-238"/>
<polygon fill="midnightblue" stroke="midnightblue" points="1129.8,-241.5 1139.8,-238 1129.8,-234.5 1129.8,-241.5"/>
</g>
<!-- Node516 -->
<g id="node8" class="node"><title>Node516</title>
<g id="a_node8"><a xlink:href="namespaceinterfacesse.html#a144ebf70bf38495c3de1aca2c8365e08" target="_top" xlink:title="scal items of the array of type T ">
<polygon fill="white" stroke="black" points="1288,-228.5 1288,-247.5 1384,-247.5 1384,-228.5 1288,-228.5"/>
<text text-anchor="middle" x="1336" y="-235.5" font-family="Helvetica,sans-Serif" font-size="10.00">interfacesse::scal</text>
</a>
</g>
</g>
<!-- Node515&#45;&gt;Node516 -->
<g id="edge7" class="edge"><title>Node515&#45;&gt;Node516</title>
<path fill="none" stroke="midnightblue" d="M1252.33,-238C1260.65,-238 1269.24,-238 1277.6,-238"/>
<polygon fill="midnightblue" stroke="midnightblue" points="1277.65,-241.5 1287.65,-238 1277.65,-234.5 1277.65,-241.5"/>
</g>
<!-- Node522&#45;&gt;Node510 -->
<g id="edge21" class="edge"><title>Node522&#45;&gt;Node510</title>
<path fill="none" stroke="midnightblue" d="M231.37,-133.559C247.873,-152.93 288.211,-196.85 332,-219 340.506,-223.303 349.97,-226.637 359.42,-229.218"/>
<polygon fill="midnightblue" stroke="midnightblue" points="358.675,-232.639 369.223,-231.646 360.357,-225.845 358.675,-232.639"/>
</g>
<!-- Node522&#45;&gt;Node517 -->
<g id="edge22" class="edge"><title>Node522&#45;&gt;Node517</title>
<path fill="none" stroke="midnightblue" d="M238.71,-133.667C259.167,-146.271 297.028,-168.211 332,-181 339.089,-183.592 346.643,-185.892 354.217,-187.914"/>
<polygon fill="midnightblue" stroke="midnightblue" points="353.598,-191.367 364.15,-190.415 355.307,-184.579 353.598,-191.367"/>
</g>
<!-- Node522&#45;&gt;Node518 -->
<g id="edge23" class="edge"><title>Node522&#45;&gt;Node518</title>
<path fill="none" stroke="midnightblue" d="M272.33,-133.54C298.688,-138.69 331.417,-145.084 359.171,-150.506"/>
<polygon fill="midnightblue" stroke="midnightblue" points="358.665,-153.974 369.15,-152.456 360.007,-147.104 358.665,-153.974"/>
</g>
<!-- Node522&#45;&gt;Node519 -->
<g id="edge19" class="edge"><title>Node522&#45;&gt;Node519</title>
<path fill="none" stroke="midnightblue" d="M272.33,-114.46C298.688,-109.31 331.417,-102.916 359.171,-97.4935"/>
<polygon fill="midnightblue" stroke="midnightblue" points="360.007,-100.896 369.15,-95.5439 358.665,-94.0264 360.007,-100.896"/>
</g>
<!-- Node522&#45;&gt;Node520 -->
<g id="edge20" class="edge"><title>Node522&#45;&gt;Node520</title>
<path fill="none" stroke="midnightblue" d="M238.71,-114.333C259.167,-101.729 297.028,-79.7885 332,-67 339.089,-64.4075 346.643,-62.1084 354.217,-60.0858"/>
<polygon fill="midnightblue" stroke="midnightblue" points="355.307,-63.4207 364.15,-57.5848 353.598,-56.6325 355.307,-63.4207"/>
</g>
<!-- Node522&#45;&gt;Node521 -->
<g id="edge24" class="edge"><title>Node522&#45;&gt;Node521</title>
<path fill="none" stroke="midnightblue" d="M231.37,-114.441C247.873,-95.0699 288.211,-51.1496 332,-29 338.379,-25.7735 345.296,-23.0917 352.342,-20.8634"/>
<polygon fill="midnightblue" stroke="midnightblue" points="353.343,-24.2175 361.991,-18.0973 351.414,-17.4885 353.343,-24.2175"/>
</g>
<!-- Node523 -->
<g id="node15" class="node"><title>Node523</title>
<g id="a_node15"><a xlink:href="namespaceprob.html#a15090755bafc59aa295f2d02be64af8c" target="_top" xlink:title="Get a set of random number diferent. ">
<polygon fill="white" stroke="black" points="348,-114.5 348,-133.5 490,-133.5 490,-114.5 348,-114.5"/>
<text text-anchor="middle" x="419" y="-121.5" font-family="Helvetica,sans-Serif" font-size="10.00">prob::getWithoutRepeatsSet</text>
</a>
</g>
</g>
<!-- Node522&#45;&gt;Node523 -->
<g id="edge14" class="edge"><title>Node522&#45;&gt;Node523</title>
<path fill="none" stroke="midnightblue" d="M296.201,-124C309.701,-124 323.875,-124 337.589,-124"/>
<polygon fill="midnightblue" stroke="midnightblue" points="337.967,-127.5 347.967,-124 337.967,-120.5 337.967,-127.5"/>
</g>
<!-- Node524 -->
<g id="node16" class="node"><title>Node524</title>
<g id="a_node16"><a xlink:href="namespaceinout.html#a0c10a45877a347dec0d4ec4e5b05b828" target="_top" xlink:title="inout::containerprint">
<polygon fill="white" stroke="black" points="544.5,-95.5 544.5,-114.5 647.5,-114.5 647.5,-95.5 544.5,-95.5"/>
<text text-anchor="middle" x="596" y="-102.5" font-family="Helvetica,sans-Serif" font-size="10.00">inout::containerprint</text>
</a>
</g>
</g>
<!-- Node523&#45;&gt;Node524 -->
<g id="edge15" class="edge"><title>Node523&#45;&gt;Node524</title>
<path fill="none" stroke="midnightblue" d="M490.171,-116.381C504.786,-114.795 520.073,-113.135 534.311,-111.589"/>
<polygon fill="midnightblue" stroke="midnightblue" points="534.905,-115.045 544.469,-110.486 534.15,-108.086 534.905,-115.045"/>
</g>
<!-- Node525 -->
<g id="node17" class="node"><title>Node525</title>
<g id="a_node17"><a xlink:href="namespaceprob.html#abffb9a5b780336aceaf8eb78387dcd0c" target="_top" xlink:title="A random different than a given at_unlike. ">
<polygon fill="white" stroke="black" points="542,-133.5 542,-152.5 650,-152.5 650,-133.5 542,-133.5"/>
<text text-anchor="middle" x="596" y="-140.5" font-family="Helvetica,sans-Serif" font-size="10.00">prob::getRandUnlike</text>
</a>
</g>
</g>
<!-- Node523&#45;&gt;Node525 -->
<g id="edge16" class="edge"><title>Node523&#45;&gt;Node525</title>
<path fill="none" stroke="midnightblue" d="M490.171,-131.619C503.886,-133.108 518.193,-134.661 531.67,-136.124"/>
<polygon fill="midnightblue" stroke="midnightblue" points="531.471,-139.623 541.791,-137.223 532.227,-132.664 531.471,-139.623"/>
</g>
<!-- Node526 -->
<g id="node18" class="node"><title>Node526</title>
<g id="a_node18"><a xlink:href="namespaceprob.html#a7fd4fb1dca3ca869c8cbb930c031a837" target="_top" xlink:title="Selection a random un like to set items. ">
<polygon fill="white" stroke="black" points="686,-133.5 686,-152.5 809,-152.5 809,-133.5 686,-133.5"/>
<text text-anchor="middle" x="747.5" y="-140.5" font-family="Helvetica,sans-Serif" font-size="10.00">prob::getRandSetUnlike</text>
</a>
</g>
</g>
<!-- Node525&#45;&gt;Node526 -->
<g id="edge17" class="edge"><title>Node525&#45;&gt;Node526</title>
<path fill="none" stroke="midnightblue" d="M650.129,-143C658.454,-143 667.169,-143 675.813,-143"/>
<polygon fill="midnightblue" stroke="midnightblue" points="675.898,-146.5 685.898,-143 675.898,-139.5 675.898,-146.5"/>
</g>
<!-- Node527 -->
<g id="node19" class="node"><title>Node527</title>
<g id="a_node19"><a xlink:href="namespaceprob.html#a5d7baf9636f685ea992784431fca725c" target="_top" xlink:title="Selection a pair random index. ">
<polygon fill="white" stroke="black" points="845,-133.5 845,-152.5 969,-152.5 969,-133.5 845,-133.5"/>
<text text-anchor="middle" x="907" y="-140.5" font-family="Helvetica,sans-Serif" font-size="10.00">prob::getElitistPairCross</text>
</a>
</g>
</g>
<!-- Node526&#45;&gt;Node527 -->
<g id="edge18" class="edge"><title>Node526&#45;&gt;Node527</title>
<path fill="none" stroke="midnightblue" d="M809.394,-143C817.64,-143 826.162,-143 834.572,-143"/>
<polygon fill="midnightblue" stroke="midnightblue" points="834.749,-146.5 844.749,-143 834.749,-139.5 834.749,-146.5"/>
</g>
</g>
</svg>
        <g id="navigator" transform="translate(0 0)" fill="#404254">
                <rect fill="#f2f5e9" fill-opacity="0.5" stroke="#606060" stroke-width=".5" x="0" y="0" width="60" height="60"/>
                <use id="zoomplus" xlink:href="#zoomPlus" x="17" y="9" onmousedown="handleZoom(evt,'in')"/>
                <use id="zoomminus" xlink:href="#zoomMin" x="42" y="9" onmousedown="handleZoom(evt,'out')"/>
                <use id="reset" xlink:href="#resetDef" x="30" y="36" onmousedown="handleReset()"/>
                <g id="arrowUp" xlink:href="#dirArrow" transform="translate(30 24)" onmousedown="handlePan(0,-1)">
                  <use xlink:href="#rim" fill="#404040">
                        <set attributeName="fill" to="#808080" begin="arrowUp.mouseover" end="arrowUp.mouseout"/>
                  </use>
                  <path fill="none" stroke="white" stroke-width="1.5" d="M0,-3.0v7 M-2.5,-0.5L0,-3.0L2.5,-0.5"/>
                </g>
                <g id="arrowRight" xlink:href="#dirArrow" transform="rotate(90) translate(36 -43)" onmousedown="handlePan(1,0)">
                  <use xlink:href="#rim" fill="#404040">
                        <set attributeName="fill" to="#808080" begin="arrowRight.mouseover" end="arrowRight.mouseout"/>
                  </use>
                  <path fill="none" stroke="white" stroke-width="1.5" d="M0,-3.0v7 M-2.5,-0.5L0,-3.0L2.5,-0.5"/>
                </g>
                <g id="arrowDown" xlink:href="#dirArrow" transform="rotate(180) translate(-30 -48)" onmousedown="handlePan(0,1)">
                  <use xlink:href="#rim" fill="#404040">
                        <set attributeName="fill" to="#808080" begin="arrowDown.mouseover" end="arrowDown.mouseout"/>
                  </use>
                  <path fill="none" stroke="white" stroke-width="1.5" d="M0,-3.0v7 M-2.5,-0.5L0,-3.0L2.5,-0.5"/>
                </g>
                <g id="arrowLeft" xlink:href="#dirArrow" transform="rotate(270) translate(-36 17)" onmousedown="handlePan(-1,0)">
                  <use xlink:href="#rim" fill="#404040">
                        <set attributeName="fill" to="#808080" begin="arrowLeft.mouseover" end="arrowLeft.mouseout"/>
                  </use>
                  <path fill="none" stroke="white" stroke-width="1.5" d="M0,-3.0v7 M-2.5,-0.5L0,-3.0L2.5,-0.5"/>
                </g>
        </g>
        <svg viewBox="0 0 15 15" width="100%" height="30px" preserveAspectRatio="xMaxYMin meet">
         <g id="arrow_out" transform="scale(0.3 0.3)">
          <a xlink:href="namespaceclusteringop_a44a4fb40b11fb73247f3efad50d19183_cgraph_org.svg" target="_base">
           <rect id="button" ry="5" rx="5" y="6" x="6" height="38" width="38"
                fill="#f2f5e9" fill-opacity="0.5" stroke="#606060" stroke-width="1.0"/>
           <path id="arrow"
             d="M 11.500037,31.436501 C 11.940474,20.09759 22.043105,11.32322 32.158766,21.979434 L 37.068811,17.246167 C 37.068811,17.246167 37.088388,32 37.088388,32 L 22.160133,31.978069 C 22.160133,31.978069 26.997745,27.140456 26.997745,27.140456 C 18.528582,18.264221 13.291696,25.230495 11.500037,31.436501 z"
             style="fill:#404040;"/>
          </a>
         </g>
        </svg>
</svg>
