<?xml version="1.0" encoding="UTF-8" standalone="no"?>
<!DOCTYPE svg PUBLIC "-//W3C//DTD SVG 1.1//EN"
 "http://www.w3.org/Graphics/SVG/1.1/DTD/svg11.dtd">
<!-- Generated by graphviz version 2.38.0 (20140413.2041)
 -->
<!-- Title: clusteringop::kmeansoperator Pages: 1 -->
<svg width="723pt" height="662pt"
 viewBox="0.00 0.00 723.00 661.50" xmlns="http://www.w3.org/2000/svg" xmlns:xlink="http://www.w3.org/1999/xlink">
<g id="graph0" class="graph" transform="scale(1 1) rotate(0) translate(4 657.505)">
<title>clusteringop::kmeansoperator</title>
<polygon fill="white" stroke="none" points="-4,4 -4,-657.505 719,-657.505 719,4 -4,4"/>
<!-- Node116 -->
<g id="node1" class="node"><title>Node116</title>
<g id="a_node1"><a xlink:title="K&#45;Means Operator .">
<polygon fill="#bfbfbf" stroke="black" points="0,-252.261 0,-271.261 150,-271.261 150,-252.261 0,-252.261"/>
<text text-anchor="middle" x="75" y="-259.261" font-family="Helvetica,sans-Serif" font-size="10.00">clusteringop::kmeansoperator</text>
</a>
</g>
</g>
<!-- Node117 -->
<g id="node2" class="node"><title>Node117</title>
<g id="a_node2"><a xlink:href="namespaceinout.html#a0c10a45877a347dec0d4ec4e5b05b828" target="_top" xlink:title=" ">
<polygon fill="white" stroke="black" points="578.5,-481.261 578.5,-500.261 681.5,-500.261 681.5,-481.261 578.5,-481.261"/>
<text text-anchor="middle" x="630" y="-488.261" font-family="Helvetica,sans-Serif" font-size="10.00">inout::containerprint</text>
</a>
</g>
</g>
<!-- Node116&#45;&gt;Node117 -->
<g id="edge1" class="edge"><title>Node116&#45;&gt;Node117</title>
<path fill="none" stroke="midnightblue" d="M81.9201,-271.291C108.662,-313.302 223.238,-482.464 369,-540.761 450.454,-573.339 554.963,-529.553 602.881,-505.157"/>
<polygon fill="midnightblue" stroke="midnightblue" points="604.707,-508.152 611.952,-500.423 601.468,-501.947 604.707,-508.152"/>
</g>
<!-- Node118 -->
<g id="node3" class="node"><title>Node118</title>
<g id="a_node3"><a xlink:href="namespaceclusteringop.html#ac52fbdbee047ca93bef1426d6493f31f" target="_top" xlink:title=" ">
<polygon fill="white" stroke="black" points="192.5,-331.261 192.5,-350.261 326.5,-350.261 326.5,-331.261 192.5,-331.261"/>
<text text-anchor="middle" x="259.5" y="-338.261" font-family="Helvetica,sans-Serif" font-size="10.00">clusteringop::getCentroids</text>
</a>
</g>
</g>
<!-- Node116&#45;&gt;Node118 -->
<g id="edge2" class="edge"><title>Node116&#45;&gt;Node118</title>
<path fill="none" stroke="midnightblue" d="M98.0138,-271.291C130.214,-285.229 190.317,-311.247 227.133,-327.183"/>
<polygon fill="midnightblue" stroke="midnightblue" points="225.841,-330.438 236.408,-331.198 228.621,-324.014 225.841,-330.438"/>
</g>
<!-- Node124 -->
<g id="node9" class="node"><title>Node124</title>
<g id="a_node9"><a xlink:href="classmat_1_1_matrix_base.html#ac500eedd5e203327d3292f8ab22d8f3e" target="_top" xlink:title=" ">
<polygon fill="white" stroke="black" points="552,-59.2615 552,-78.2615 708,-78.2615 708,-59.2615 552,-59.2615"/>
<text text-anchor="middle" x="630" y="-66.2615" font-family="Helvetica,sans-Serif" font-size="10.00">mat::MatrixBase::getNumRows</text>
</a>
</g>
</g>
<!-- Node116&#45;&gt;Node124 -->
<g id="edge18" class="edge"><title>Node116&#45;&gt;Node124</title>
<path fill="none" stroke="midnightblue" d="M82.2533,-251.938C97.7079,-228.184 139.813,-166.591 186,-125.761 257.793,-62.2953 276.87,-38.1105 369,-11.7615 428.824,5.34801 448.301,1.92195 509,-11.7615 544.595,-19.7856 582.024,-39.6606 605.426,-53.6747"/>
<polygon fill="midnightblue" stroke="midnightblue" points="603.904,-56.8466 614.259,-59.0872 607.561,-50.8781 603.904,-56.8466"/>
</g>
<!-- Node131 -->
<g id="node16" class="node"><title>Node131</title>
<g id="a_node16"><a xlink:href="namespaceclusteringop.html#ad5da564b9274992e7f64e53f3c9d14b3" target="_top" xlink:title="Change each instance to the nearest cluster.">
<polygon fill="white" stroke="black" points="186,-135.261 186,-154.261 333,-154.261 333,-135.261 186,-135.261"/>
<text text-anchor="middle" x="259.5" y="-142.261" font-family="Helvetica,sans-Serif" font-size="10.00">clusteringop::reassignCluster</text>
</a>
</g>
</g>
<!-- Node116&#45;&gt;Node131 -->
<g id="edge19" class="edge"><title>Node116&#45;&gt;Node131</title>
<path fill="none" stroke="midnightblue" d="M90.9347,-252.187C122.562,-231.911 196.517,-184.499 234.72,-160.007"/>
<polygon fill="midnightblue" stroke="midnightblue" points="237.085,-162.648 243.615,-154.304 233.307,-156.755 237.085,-162.648"/>
</g>
<!-- Node118&#45;&gt;Node117 -->
<g id="edge5" class="edge"><title>Node118&#45;&gt;Node117</title>
<path fill="none" stroke="midnightblue" d="M274.291,-350.322C294.34,-363.851 333.071,-388.619 369,-403.761 428.521,-428.848 447.813,-422.07 509,-442.761 539.638,-453.122 573.818,-467.033 597.838,-477.211"/>
<polygon fill="midnightblue" stroke="midnightblue" points="596.58,-480.48 607.151,-481.187 599.328,-474.042 596.58,-480.48"/>
</g>
<!-- Node119 -->
<g id="node4" class="node"><title>Node119</title>
<g id="a_node4"><a xlink:href="namespaceinterfacesse.html#a9dd5fb43ad8a83ee5cb2f5ba1bb2085b" target="_top" xlink:title=" ">
<polygon fill="white" stroke="black" points="389.5,-249.261 389.5,-268.261 488.5,-268.261 488.5,-249.261 389.5,-249.261"/>
<text text-anchor="middle" x="439" y="-256.261" font-family="Helvetica,sans-Serif" font-size="10.00">interfacesse::axpy</text>
</a>
</g>
</g>
<!-- Node118&#45;&gt;Node119 -->
<g id="edge3" class="edge"><title>Node118&#45;&gt;Node119</title>
<path fill="none" stroke="midnightblue" d="M274.285,-331.187C294.327,-317.64 333.049,-292.851 369,-277.761 374.714,-275.363 380.821,-273.178 386.95,-271.214"/>
<polygon fill="midnightblue" stroke="midnightblue" points="387.989,-274.557 396.547,-268.312 385.962,-267.857 387.989,-274.557"/>
</g>
<!-- Node120 -->
<g id="node5" class="node"><title>Node120</title>
<g id="a_node5"><a xlink:href="classpartition_1_1_partition.html#acb8de7c890e05872858fb7a7aa53b657" target="_top" xlink:title=" ">
<polygon fill="white" stroke="black" points="392.5,-500.761 392.5,-530.761 485.5,-530.761 485.5,-500.761 392.5,-500.761"/>
<text text-anchor="start" x="400.5" y="-518.761" font-family="Helvetica,sans-Serif" font-size="10.00">partition::Partition</text>
<text text-anchor="middle" x="439" y="-507.761" font-family="Helvetica,sans-Serif" font-size="10.00">::begin</text>
</a>
</g>
</g>
<!-- Node118&#45;&gt;Node120 -->
<g id="edge4" class="edge"><title>Node118&#45;&gt;Node120</title>
<path fill="none" stroke="midnightblue" d="M264.838,-350.46C277.195,-377.016 315.193,-451.597 369,-491.761 373.212,-494.905 377.868,-497.66 382.714,-500.07"/>
<polygon fill="midnightblue" stroke="midnightblue" points="381.641,-503.423 392.201,-504.289 384.486,-497.027 381.641,-503.423"/>
</g>
<!-- Node121 -->
<g id="node6" class="node"><title>Node121</title>
<g id="a_node6"><a xlink:href="namespaceinterfacesse.html#aa4b94bf2bf8cb7c437fa3feba8b70ff8" target="_top" xlink:title="Initializes the array with a constant .">
<polygon fill="white" stroke="black" points="577.5,-626.261 577.5,-645.261 682.5,-645.261 682.5,-626.261 577.5,-626.261"/>
<text text-anchor="middle" x="630" y="-633.261" font-family="Helvetica,sans-Serif" font-size="10.00">interfacesse::copya</text>
</a>
</g>
</g>
<!-- Node118&#45;&gt;Node121 -->
<g id="edge6" class="edge"><title>Node118&#45;&gt;Node121</title>
<path fill="none" stroke="midnightblue" d="M260.862,-350.488C262.957,-391.206 276.953,-548.999 369,-616.761 429.218,-661.092 520.003,-656.117 576.818,-647.013"/>
<polygon fill="midnightblue" stroke="midnightblue" points="577.746,-650.405 587.017,-645.276 576.571,-643.504 577.746,-650.405"/>
</g>
<!-- Node122 -->
<g id="node7" class="node"><title>Node122</title>
<g id="a_node7"><a xlink:href="classpartition_1_1_partition.html#a4a440dcaeb42e05a52a46405eb30d36e" target="_top" xlink:title=" ">
<polygon fill="white" stroke="black" points="392.5,-451.761 392.5,-481.761 485.5,-481.761 485.5,-451.761 392.5,-451.761"/>
<text text-anchor="start" x="400.5" y="-469.761" font-family="Helvetica,sans-Serif" font-size="10.00">partition::Partition</text>
<text text-anchor="middle" x="439" y="-458.761" font-family="Helvetica,sans-Serif" font-size="10.00">::getNumCluster</text>
</a>
</g>
</g>
<!-- Node118&#45;&gt;Node122 -->
<g id="edge7" class="edge"><title>Node118&#45;&gt;Node122</title>
<path fill="none" stroke="midnightblue" d="M269.268,-350.313C286.757,-368.932 327.848,-410.544 369,-436.761 375.059,-440.622 381.7,-444.208 388.392,-447.46"/>
<polygon fill="midnightblue" stroke="midnightblue" points="386.956,-450.652 397.5,-451.681 389.899,-444.301 386.956,-450.652"/>
</g>
<!-- Node123 -->
<g id="node8" class="node"><title>Node123</title>
<g id="a_node8"><a xlink:href="classmat_1_1_matrix_base.html#a70200414022ce1479b9ddc16102b12ae" target="_top" xlink:title=" ">
<polygon fill="white" stroke="black" points="545,-192.261 545,-211.261 715,-211.261 715,-192.261 545,-192.261"/>
<text text-anchor="middle" x="630" y="-199.261" font-family="Helvetica,sans-Serif" font-size="10.00">mat::MatrixBase::getNumColumns</text>
</a>
</g>
</g>
<!-- Node118&#45;&gt;Node123 -->
<g id="edge8" class="edge"><title>Node118&#45;&gt;Node123</title>
<path fill="none" stroke="midnightblue" d="M267.61,-330.952C283.278,-310.168 323.059,-261.805 369,-239.761 420.379,-215.109 483.526,-205.468 534.722,-202.057"/>
<polygon fill="midnightblue" stroke="midnightblue" points="535.021,-205.546 544.794,-201.456 534.603,-198.558 535.021,-205.546"/>
</g>
<!-- Node118&#45;&gt;Node124 -->
<g id="edge9" class="edge"><title>Node118&#45;&gt;Node124</title>
<path fill="none" stroke="midnightblue" d="M264.52,-331.01C283.506,-284.999 363.515,-91.6714 369,-87.7615 429.195,-44.8509 518.417,-48.9618 575.123,-57.5604"/>
<polygon fill="midnightblue" stroke="midnightblue" points="574.888,-61.0678 585.319,-59.2078 576.005,-54.1574 574.888,-61.0678"/>
</g>
<!-- Node125 -->
<g id="node10" class="node"><title>Node125</title>
<g id="a_node10"><a xlink:href="classmat_1_1_matrix_row.html#a5391a205367fbaac82a26ddc377a80af" target="_top" xlink:title=" ">
<polygon fill="white" stroke="black" points="566.5,-116.261 566.5,-135.261 693.5,-135.261 693.5,-116.261 566.5,-116.261"/>
<text text-anchor="middle" x="630" y="-123.261" font-family="Helvetica,sans-Serif" font-size="10.00">mat::MatrixRow::getRow</text>
</a>
</g>
</g>
<!-- Node118&#45;&gt;Node125 -->
<g id="edge10" class="edge"><title>Node118&#45;&gt;Node125</title>
<path fill="none" stroke="midnightblue" d="M265.301,-330.896C278.268,-305.308 316.582,-236.328 369,-200.761 425.269,-162.582 501.024,-143.6 556.243,-134.312"/>
<polygon fill="midnightblue" stroke="midnightblue" points="556.991,-137.737 566.305,-132.689 555.875,-130.827 556.991,-137.737"/>
</g>
<!-- Node126 -->
<g id="node11" class="node"><title>Node126</title>
<g id="a_node11"><a xlink:href="classmat_1_1_matrix_row.html#a1070fba1c0ec0fbaa309f141817be412" target="_top" xlink:title=" ">
<polygon fill="white" stroke="black" points="375,-375.261 375,-394.261 503,-394.261 503,-375.261 375,-375.261"/>
<text text-anchor="middle" x="439" y="-382.261" font-family="Helvetica,sans-Serif" font-size="10.00">mat::MatrixRow::initialize</text>
</a>
</g>
</g>
<!-- Node118&#45;&gt;Node126 -->
<g id="edge11" class="edge"><title>Node118&#45;&gt;Node126</title>
<path fill="none" stroke="midnightblue" d="M299.015,-350.309C325.647,-356.911 361.279,-365.743 389.797,-372.812"/>
<polygon fill="midnightblue" stroke="midnightblue" points="389.012,-376.224 399.56,-375.233 390.696,-369.429 389.012,-376.224"/>
</g>
<!-- Node127 -->
<g id="node12" class="node"><title>Node127</title>
<g id="a_node12"><a xlink:href="namespacestats.html#a61ea16e97e098fc1598f4a2975cb0a24" target="_top" xlink:title="￼Calculate average of a vector">
<polygon fill="white" stroke="black" points="390,-588.261 390,-607.261 488,-607.261 488,-588.261 390,-588.261"/>
<text text-anchor="middle" x="439" y="-595.261" font-family="Helvetica,sans-Serif" font-size="10.00">stats::meanVector</text>
</a>
</g>
</g>
<!-- Node118&#45;&gt;Node127 -->
<g id="edge12" class="edge"><title>Node118&#45;&gt;Node127</title>
<path fill="none" stroke="midnightblue" d="M264.129,-350.296C275.924,-380.483 315.525,-475.799 369,-540.761 382.248,-556.855 400.56,-571.735 414.99,-582.253"/>
<polygon fill="midnightblue" stroke="midnightblue" points="413.211,-585.282 423.393,-588.211 417.26,-579.572 413.211,-585.282"/>
</g>
<!-- Node129 -->
<g id="node14" class="node"><title>Node129</title>
<g id="a_node14"><a xlink:href="classpartition_1_1_partition.html#a96660ce61740ab0287189b21833eccdf" target="_top" xlink:title=" ">
<polygon fill="white" stroke="black" points="392.5,-325.761 392.5,-355.761 485.5,-355.761 485.5,-325.761 392.5,-325.761"/>
<text text-anchor="start" x="400.5" y="-343.761" font-family="Helvetica,sans-Serif" font-size="10.00">partition::Partition</text>
<text text-anchor="middle" x="439" y="-332.761" font-family="Helvetica,sans-Serif" font-size="10.00">::next</text>
</a>
</g>
</g>
<!-- Node118&#45;&gt;Node129 -->
<g id="edge16" class="edge"><title>Node118&#45;&gt;Node129</title>
<path fill="none" stroke="midnightblue" d="M326.594,-340.761C344.886,-340.761 364.554,-340.761 382.197,-340.761"/>
<polygon fill="midnightblue" stroke="midnightblue" points="382.325,-344.262 392.325,-340.761 382.325,-337.262 382.325,-344.262"/>
</g>
<!-- Node130 -->
<g id="node15" class="node"><title>Node130</title>
<g id="a_node15"><a xlink:href="classmat_1_1_matrix_row.html#a156313f6aa515994b76321ff03780b16" target="_top" xlink:title=" ">
<polygon fill="white" stroke="black" points="384,-287.261 384,-306.261 494,-306.261 494,-287.261 384,-287.261"/>
<text text-anchor="middle" x="439" y="-294.261" font-family="Helvetica,sans-Serif" font-size="10.00">mat::MatrixRow::print</text>
</a>
</g>
</g>
<!-- Node118&#45;&gt;Node130 -->
<g id="edge17" class="edge"><title>Node118&#45;&gt;Node130</title>
<path fill="none" stroke="midnightblue" d="M299.015,-331.214C325.647,-324.612 361.279,-315.78 389.797,-308.71"/>
<polygon fill="midnightblue" stroke="midnightblue" points="390.696,-312.093 399.56,-306.29 389.012,-305.299 390.696,-312.093"/>
</g>
<!-- Node127&#45;&gt;Node117 -->
<g id="edge13" class="edge"><title>Node127&#45;&gt;Node117</title>
<path fill="none" stroke="midnightblue" d="M473.392,-588.169C484.949,-584.325 497.805,-579.447 509,-573.761 546.851,-554.538 586.571,-524.913 609.492,-506.744"/>
<polygon fill="midnightblue" stroke="midnightblue" points="611.806,-509.375 617.415,-500.386 607.425,-503.915 611.806,-509.375"/>
</g>
<!-- Node127&#45;&gt;Node121 -->
<g id="edge14" class="edge"><title>Node127&#45;&gt;Node121</title>
<path fill="none" stroke="midnightblue" d="M487.693,-607.35C513.195,-612.478 544.782,-618.829 571.62,-624.225"/>
<polygon fill="midnightblue" stroke="midnightblue" points="571.157,-627.702 581.65,-626.241 572.536,-620.839 571.157,-627.702"/>
</g>
<!-- Node128 -->
<g id="node13" class="node"><title>Node128</title>
<g id="a_node13"><a xlink:href="namespaceinterfacesse.html#ae3f94c42a59db65b2941dbfc9f449ea1" target="_top" xlink:title="function xAXPY of blas for doubles vectors">
<polygon fill="white" stroke="black" points="574,-588.261 574,-607.261 686,-607.261 686,-588.261 574,-588.261"/>
<text text-anchor="middle" x="630" y="-595.261" font-family="Helvetica,sans-Serif" font-size="10.00">interfacesse::axpyInv</text>
</a>
</g>
</g>
<!-- Node127&#45;&gt;Node128 -->
<g id="edge15" class="edge"><title>Node127&#45;&gt;Node128</title>
<path fill="none" stroke="midnightblue" d="M488.182,-597.761C511.155,-597.761 538.981,-597.761 563.81,-597.761"/>
<polygon fill="midnightblue" stroke="midnightblue" points="563.882,-601.262 573.882,-597.761 563.882,-594.262 563.882,-601.262"/>
</g>
<!-- Node131&#45;&gt;Node117 -->
<g id="edge25" class="edge"><title>Node131&#45;&gt;Node117</title>
<path fill="none" stroke="midnightblue" d="M319.069,-154.283C374.048,-165.928 455.61,-190.521 509,-239.761 580.834,-306.013 614.076,-424.317 624.859,-471.019"/>
<polygon fill="midnightblue" stroke="midnightblue" points="621.499,-472.034 627.077,-481.042 628.334,-470.522 621.499,-472.034"/>
</g>
<!-- Node132 -->
<g id="node17" class="node"><title>Node132</title>
<g id="a_node17"><a xlink:href="namespacenearest.html#a8b0d89680acfe7ef438ae465bd633fb1" target="_top" xlink:title="NN Find the centroid closest to an instance.">
<polygon fill="white" stroke="black" points="404,-97.2615 404,-116.261 474,-116.261 474,-97.2615 404,-97.2615"/>
<text text-anchor="middle" x="439" y="-104.261" font-family="Helvetica,sans-Serif" font-size="10.00">nearest::NN</text>
</a>
</g>
</g>
<!-- Node131&#45;&gt;Node132 -->
<g id="edge20" class="edge"><title>Node131&#45;&gt;Node132</title>
<path fill="none" stroke="midnightblue" d="M305.291,-135.172C332.429,-129.363 366.903,-121.982 393.913,-116.2"/>
<polygon fill="midnightblue" stroke="midnightblue" points="394.822,-119.584 403.868,-114.069 393.357,-112.74 394.822,-119.584"/>
</g>
<!-- Node133 -->
<g id="node18" class="node"><title>Node133</title>
<g id="a_node18"><a xlink:href="classdata_1_1_instance.html#aa6ee19c383a86228b3d134e42bdb6830" target="_top" xlink:title=" ">
<polygon fill="white" stroke="black" points="369,-21.2615 369,-40.2615 509,-40.2615 509,-21.2615 369,-21.2615"/>
<text text-anchor="middle" x="439" y="-28.2615" font-family="Helvetica,sans-Serif" font-size="10.00">data::Instance::getFeatures</text>
</a>
</g>
</g>
<!-- Node131&#45;&gt;Node133 -->
<g id="edge24" class="edge"><title>Node131&#45;&gt;Node133</title>
<path fill="none" stroke="midnightblue" d="M269.779,-135.028C287.505,-116.93 328.073,-77.8483 369,-54.7615 376.543,-50.5065 384.971,-46.814 393.275,-43.6866"/>
<polygon fill="midnightblue" stroke="midnightblue" points="394.649,-46.9131 402.906,-40.2749 392.311,-40.3148 394.649,-46.9131"/>
</g>
<!-- Node132&#45;&gt;Node123 -->
<g id="edge22" class="edge"><title>Node132&#45;&gt;Node123</title>
<path fill="none" stroke="midnightblue" d="M459.162,-116.393C492.644,-133.222 561.928,-168.048 600.863,-187.619"/>
<polygon fill="midnightblue" stroke="midnightblue" points="599.561,-190.881 610.068,-192.245 602.705,-184.627 599.561,-190.881"/>
</g>
<!-- Node132&#45;&gt;Node124 -->
<g id="edge23" class="edge"><title>Node132&#45;&gt;Node124</title>
<path fill="none" stroke="midnightblue" d="M474.226,-99.8799C501.295,-94.4376 539.687,-86.7185 571.462,-80.33"/>
<polygon fill="midnightblue" stroke="midnightblue" points="572.409,-83.7097 581.523,-78.3072 571.029,-76.847 572.409,-83.7097"/>
</g>
<!-- Node132&#45;&gt;Node125 -->
<g id="edge21" class="edge"><title>Node132&#45;&gt;Node125</title>
<path fill="none" stroke="midnightblue" d="M474.226,-110.202C497.059,-112.498 527.949,-115.603 556.127,-118.436"/>
<polygon fill="midnightblue" stroke="midnightblue" points="556.066,-121.947 566.366,-119.465 556.766,-114.982 556.066,-121.947"/>
</g>
</g>
</svg>
