<?xml version="1.0" encoding="UTF-8" standalone="no"?>
<!DOCTYPE svg PUBLIC "-//W3C//DTD SVG 1.1//EN"
 "http://www.w3.org/Graphics/SVG/1.1/DTD/svg11.dtd">
<!-- Generated by graphviz version 2.38.0 (20140413.2041)
 -->
<!-- Title: um::D2 Pages: 1 -->
<svg width="268pt" height="230pt"
 viewBox="0.00 0.00 268.00 230.00" xmlns="http://www.w3.org/2000/svg" xmlns:xlink="http://www.w3.org/1999/xlink">
<g id="graph0" class="graph" transform="scale(1 1) rotate(0) translate(4 226)">
<title>um::D2</title>
<polygon fill="white" stroke="none" points="-4,4 -4,-226 264,-226 264,4 -4,4"/>
<!-- Node23 -->
<g id="node1" class="node"><title>Node23</title>
<g id="a_node1"><a xlink:title=" ">
<polygon fill="#bfbfbf" stroke="black" points="0,-95.5 0,-114.5 50,-114.5 50,-95.5 0,-95.5"/>
<text text-anchor="middle" x="25" y="-102.5" font-family="Helvetica,sans-Serif" font-size="10.00">um::D2</text>
</a>
</g>
</g>
<!-- Node24 -->
<g id="node2" class="node"><title>Node24</title>
<g id="a_node2"><a xlink:href="namespaceinout.html#a0c10a45877a347dec0d4ec4e5b05b828" target="_top" xlink:title=" ">
<polygon fill="white" stroke="black" points="121.5,-202.5 121.5,-221.5 224.5,-221.5 224.5,-202.5 121.5,-202.5"/>
<text text-anchor="middle" x="173" y="-209.5" font-family="Helvetica,sans-Serif" font-size="10.00">inout::containerprint</text>
</a>
</g>
</g>
<!-- Node23&#45;&gt;Node24 -->
<g id="edge1" class="edge"><title>Node23&#45;&gt;Node24</title>
<path fill="none" stroke="midnightblue" d="M29.7427,-114.731C37.3502,-133.139 56.4435,-172.999 86,-193 93.6259,-198.16 102.423,-201.944 111.418,-204.714"/>
<polygon fill="midnightblue" stroke="midnightblue" points="110.645,-208.13 121.21,-207.338 112.457,-201.369 110.645,-208.13"/>
</g>
<!-- Node25 -->
<g id="node3" class="node"><title>Node25</title>
<g id="a_node3"><a xlink:href="classpartition_1_1_partition.html#ae8db479b240da90b4058e35ffce182ac" target="_top" xlink:title=" ">
<polygon fill="white" stroke="black" points="126.5,-153 126.5,-183 219.5,-183 219.5,-153 126.5,-153"/>
<text text-anchor="start" x="134.5" y="-171" font-family="Helvetica,sans-Serif" font-size="10.00">partition::Partition</text>
<text text-anchor="middle" x="173" y="-160" font-family="Helvetica,sans-Serif" font-size="10.00">::getClusterIdx</text>
</a>
</g>
</g>
<!-- Node23&#45;&gt;Node25 -->
<g id="edge2" class="edge"><title>Node23&#45;&gt;Node25</title>
<path fill="none" stroke="midnightblue" d="M38.7416,-114.572C50.4943,-123.027 68.691,-135.193 86,-143 95.5594,-147.312 106.051,-151.087 116.32,-154.309"/>
<polygon fill="midnightblue" stroke="midnightblue" points="115.476,-157.71 126.06,-157.228 117.486,-151.004 115.476,-157.71"/>
</g>
<!-- Node26 -->
<g id="node4" class="node"><title>Node26</title>
<g id="a_node4"><a xlink:href="classdata_1_1_instance.html#aa6ee19c383a86228b3d134e42bdb6830" target="_top" xlink:title=" ">
<polygon fill="white" stroke="black" points="103,-114.5 103,-133.5 243,-133.5 243,-114.5 103,-114.5"/>
<text text-anchor="middle" x="173" y="-121.5" font-family="Helvetica,sans-Serif" font-size="10.00">data::Instance::getFeatures</text>
</a>
</g>
</g>
<!-- Node23&#45;&gt;Node26 -->
<g id="edge3" class="edge"><title>Node23&#45;&gt;Node26</title>
<path fill="none" stroke="midnightblue" d="M50.1089,-108.137C62.0015,-109.685 77.0981,-111.65 92.5827,-113.665"/>
<polygon fill="midnightblue" stroke="midnightblue" points="92.4165,-117.173 102.785,-114.993 93.3199,-110.231 92.4165,-117.173"/>
</g>
<!-- Node27 -->
<g id="node5" class="node"><title>Node27</title>
<g id="a_node5"><a xlink:href="classdata_1_1_instance.html#a90d1eaeb66cc1470bbfdb95434fdb761" target="_top" xlink:title=" ">
<polygon fill="white" stroke="black" points="86,-76.5 86,-95.5 260,-95.5 260,-76.5 86,-76.5"/>
<text text-anchor="middle" x="173" y="-83.5" font-family="Helvetica,sans-Serif" font-size="10.00">data::Instance::getNumDimensions</text>
</a>
</g>
</g>
<!-- Node23&#45;&gt;Node27 -->
<g id="edge4" class="edge"><title>Node23&#45;&gt;Node27</title>
<path fill="none" stroke="midnightblue" d="M50.1089,-101.863C60.9929,-100.446 74.5604,-98.6805 88.6531,-96.8465"/>
<polygon fill="midnightblue" stroke="midnightblue" points="89.5119,-100.264 98.9766,-95.503 88.6085,-93.3229 89.5119,-100.264"/>
</g>
<!-- Node28 -->
<g id="node6" class="node"><title>Node28</title>
<g id="a_node6"><a xlink:href="classmat_1_1_matrix_base.html#ac500eedd5e203327d3292f8ab22d8f3e" target="_top" xlink:title=" ">
<polygon fill="white" stroke="black" points="95,-38.5 95,-57.5 251,-57.5 251,-38.5 95,-38.5"/>
<text text-anchor="middle" x="173" y="-45.5" font-family="Helvetica,sans-Serif" font-size="10.00">mat::MatrixBase::getNumRows</text>
</a>
</g>
</g>
<!-- Node23&#45;&gt;Node28 -->
<g id="edge5" class="edge"><title>Node23&#45;&gt;Node28</title>
<path fill="none" stroke="midnightblue" d="M38.1728,-95.4907C49.8266,-86.838 68.2168,-74.3307 86,-67 92.2687,-64.4159 98.9461,-62.1569 105.702,-60.188"/>
<polygon fill="midnightblue" stroke="midnightblue" points="106.88,-63.4954 115.619,-57.5067 105.053,-56.7381 106.88,-63.4954"/>
</g>
<!-- Node29 -->
<g id="node7" class="node"><title>Node29</title>
<g id="a_node7"><a xlink:href="classmat_1_1_matrix_row.html#a5391a205367fbaac82a26ddc377a80af" target="_top" xlink:title=" ">
<polygon fill="white" stroke="black" points="109.5,-0.5 109.5,-19.5 236.5,-19.5 236.5,-0.5 109.5,-0.5"/>
<text text-anchor="middle" x="173" y="-7.5" font-family="Helvetica,sans-Serif" font-size="10.00">mat::MatrixRow::getRow</text>
</a>
</g>
</g>
<!-- Node23&#45;&gt;Node29 -->
<g id="edge6" class="edge"><title>Node23&#45;&gt;Node29</title>
<path fill="none" stroke="midnightblue" d="M30.7833,-95.3151C39.4162,-78.9054 59.2228,-45.7869 86,-29 90.342,-26.2779 95.0212,-23.9429 99.8748,-21.9404"/>
<polygon fill="midnightblue" stroke="midnightblue" points="101.178,-25.1906 109.381,-18.4845 98.7868,-18.6118 101.178,-25.1906"/>
</g>
</g>
</svg>
