<?xml version="1.0" encoding="UTF-8" standalone="no"?>
<!DOCTYPE svg PUBLIC "-//W3C//DTD SVG 1.1//EN"
 "http://www.w3.org/Graphics/SVG/1.1/DTD/svg11.dtd">
<!-- Generated by graphviz version 2.38.0 (20140413.2041)
 -->
<!-- Title: prob::getRandPairUnlike Pages: 1 -->
<svg width="1241pt" height="104pt"
 viewBox="0.00 0.00 1241.00 104.00" xmlns="http://www.w3.org/2000/svg" xmlns:xlink="http://www.w3.org/1999/xlink">
<g id="graph0" class="graph" transform="scale(1 1) rotate(0) translate(4 100)">
<title>prob::getRandPairUnlike</title>
<polygon fill="white" stroke="none" points="-4,4 -4,-100 1237,-100 1237,4 -4,4"/>
<!-- Node44 -->
<g id="node1" class="node"><title>Node44</title>
<polygon fill="#bfbfbf" stroke="black" points="0,-57.5 0,-76.5 126,-76.5 126,-57.5 0,-57.5"/>
<text text-anchor="middle" x="63" y="-64.5" font-family="Helvetica,sans-Serif" font-size="10.00">prob::getRandPairUnlike</text>
</g>
<!-- Node45 -->
<g id="node2" class="node"><title>Node45</title>
<g id="a_node2"><a xlink:href="namespaceprob.html#a736bde3100258c3c2d13ebfe2b6746f8" target="_top" xlink:title="Get two random number diferent in order. ">
<polygon fill="white" stroke="black" points="162,-57.5 162,-76.5 312,-76.5 312,-57.5 162,-57.5"/>
<text text-anchor="middle" x="237" y="-64.5" font-family="Helvetica,sans-Serif" font-size="10.00">prob::getRandPairUnlikeInOrd</text>
</a>
</g>
</g>
<!-- Node44&#45;&gt;Node45 -->
<g id="edge1" class="edge"><title>Node44&#45;&gt;Node45</title>
<path fill="none" stroke="midnightblue" d="M126.096,-67C134.465,-67 143.161,-67 151.833,-67"/>
<polygon fill="midnightblue" stroke="midnightblue" points="151.98,-70.5001 161.98,-67 151.98,-63.5001 151.98,-70.5001"/>
</g>
<!-- Node46 -->
<g id="node3" class="node"><title>Node46</title>
<g id="a_node3"><a xlink:href="namespaceinterfacesse.html#afaa45a2a27710ea2dfa979289cf4961d" target="_top" xlink:title="swap items of aoarrayt_y to aiarrayt_x ">
<polygon fill="white" stroke="black" points="368.5,-76.5 368.5,-95.5 469.5,-95.5 469.5,-76.5 368.5,-76.5"/>
<text text-anchor="middle" x="419" y="-83.5" font-family="Helvetica,sans-Serif" font-size="10.00">interfacesse::swap</text>
</a>
</g>
</g>
<!-- Node45&#45;&gt;Node46 -->
<g id="edge2" class="edge"><title>Node45&#45;&gt;Node46</title>
<path fill="none" stroke="midnightblue" d="M312.252,-74.8377C327.595,-76.4573 343.569,-78.1434 358.314,-79.6998"/>
<polygon fill="midnightblue" stroke="midnightblue" points="357.99,-83.185 368.302,-80.7541 358.725,-76.2237 357.99,-83.185"/>
</g>
<!-- Node52 -->
<g id="node9" class="node"><title>Node52</title>
<g id="a_node9"><a xlink:href="namespaceprob.html#a15090755bafc59aa295f2d02be64af8c" target="_top" xlink:title="Get a set of random number diferent. ">
<polygon fill="white" stroke="black" points="348,-38.5 348,-57.5 490,-57.5 490,-38.5 348,-38.5"/>
<text text-anchor="middle" x="419" y="-45.5" font-family="Helvetica,sans-Serif" font-size="10.00">prob::getWithoutRepeatsSet</text>
</a>
</g>
</g>
<!-- Node45&#45;&gt;Node52 -->
<g id="edge8" class="edge"><title>Node45&#45;&gt;Node52</title>
<path fill="none" stroke="midnightblue" d="M312.252,-59.1623C320.744,-58.2659 329.429,-57.3492 337.992,-56.4453"/>
<polygon fill="midnightblue" stroke="midnightblue" points="338.391,-59.9227 347.968,-55.3922 337.656,-52.9614 338.391,-59.9227"/>
</g>
<!-- Node47 -->
<g id="node4" class="node"><title>Node47</title>
<g id="a_node4"><a xlink:href="namespaceinterfacesse.html#a2f42addf86fc8b9cd0c6620217b8a2db" target="_top" xlink:title="swap items of aoarrayt_y to aiarrayt_x ">
<polygon fill="white" stroke="black" points="534,-76.5 534,-95.5 626,-95.5 626,-76.5 534,-76.5"/>
<text text-anchor="middle" x="580" y="-83.5" font-family="Helvetica,sans-Serif" font-size="10.00">interfacesse::dot</text>
</a>
</g>
</g>
<!-- Node46&#45;&gt;Node47 -->
<g id="edge3" class="edge"><title>Node46&#45;&gt;Node47</title>
<path fill="none" stroke="midnightblue" d="M469.872,-86C487.002,-86 506.273,-86 523.801,-86"/>
<polygon fill="midnightblue" stroke="midnightblue" points="523.89,-89.5001 533.89,-86 523.89,-82.5001 523.89,-89.5001"/>
</g>
<!-- Node48 -->
<g id="node5" class="node"><title>Node48</title>
<g id="a_node5"><a xlink:href="namespaceinterfacesse.html#a25f6950d589b92fd5bcf2007fb3fae19" target="_top" xlink:title="interfacesse::sum">
<polygon fill="white" stroke="black" points="683.5,-76.5 683.5,-95.5 779.5,-95.5 779.5,-76.5 683.5,-76.5"/>
<text text-anchor="middle" x="731.5" y="-83.5" font-family="Helvetica,sans-Serif" font-size="10.00">interfacesse::sum</text>
</a>
</g>
</g>
<!-- Node47&#45;&gt;Node48 -->
<g id="edge4" class="edge"><title>Node47&#45;&gt;Node48</title>
<path fill="none" stroke="midnightblue" d="M626.261,-86C641.065,-86 657.708,-86 673.276,-86"/>
<polygon fill="midnightblue" stroke="midnightblue" points="673.321,-89.5001 683.321,-86 673.321,-82.5001 673.321,-89.5001"/>
</g>
<!-- Node49 -->
<g id="node6" class="node"><title>Node49</title>
<g id="a_node6"><a xlink:href="namespaceinterfacesse.html#a9dd5fb43ad8a83ee5cb2f5ba1bb2085b" target="_top" xlink:title="interfacesse::axpy">
<polygon fill="white" stroke="black" points="841.5,-76.5 841.5,-95.5 940.5,-95.5 940.5,-76.5 841.5,-76.5"/>
<text text-anchor="middle" x="891" y="-83.5" font-family="Helvetica,sans-Serif" font-size="10.00">interfacesse::axpy</text>
</a>
</g>
</g>
<!-- Node48&#45;&gt;Node49 -->
<g id="edge5" class="edge"><title>Node48&#45;&gt;Node49</title>
<path fill="none" stroke="midnightblue" d="M779.755,-86C795.888,-86 814.132,-86 831.069,-86"/>
<polygon fill="midnightblue" stroke="midnightblue" points="831.414,-89.5001 841.414,-86 831.414,-82.5001 831.414,-89.5001"/>
</g>
<!-- Node50 -->
<g id="node7" class="node"><title>Node50</title>
<g id="a_node7"><a xlink:href="namespaceinterfacesse.html#ae3f94c42a59db65b2941dbfc9f449ea1" target="_top" xlink:title="function xAXPY of blas for doubles vectors ">
<polygon fill="white" stroke="black" points="989,-76.5 989,-95.5 1101,-95.5 1101,-76.5 989,-76.5"/>
<text text-anchor="middle" x="1045" y="-83.5" font-family="Helvetica,sans-Serif" font-size="10.00">interfacesse::axpyInv</text>
</a>
</g>
</g>
<!-- Node49&#45;&gt;Node50 -->
<g id="edge6" class="edge"><title>Node49&#45;&gt;Node50</title>
<path fill="none" stroke="midnightblue" d="M940.512,-86C952.646,-86 965.861,-86 978.664,-86"/>
<polygon fill="midnightblue" stroke="midnightblue" points="978.815,-89.5001 988.815,-86 978.815,-82.5001 978.815,-89.5001"/>
</g>
<!-- Node51 -->
<g id="node8" class="node"><title>Node51</title>
<g id="a_node8"><a xlink:href="namespaceinterfacesse.html#a144ebf70bf38495c3de1aca2c8365e08" target="_top" xlink:title="scal items of the array of type T ">
<polygon fill="white" stroke="black" points="1137,-76.5 1137,-95.5 1233,-95.5 1233,-76.5 1137,-76.5"/>
<text text-anchor="middle" x="1185" y="-83.5" font-family="Helvetica,sans-Serif" font-size="10.00">interfacesse::scal</text>
</a>
</g>
</g>
<!-- Node50&#45;&gt;Node51 -->
<g id="edge7" class="edge"><title>Node50&#45;&gt;Node51</title>
<path fill="none" stroke="midnightblue" d="M1101.33,-86C1109.65,-86 1118.24,-86 1126.6,-86"/>
<polygon fill="midnightblue" stroke="midnightblue" points="1126.65,-89.5001 1136.65,-86 1126.65,-82.5001 1126.65,-89.5001"/>
</g>
<!-- Node53 -->
<g id="node10" class="node"><title>Node53</title>
<g id="a_node10"><a xlink:href="namespaceinout.html#a0c10a45877a347dec0d4ec4e5b05b828" target="_top" xlink:title="inout::containerprint">
<polygon fill="white" stroke="black" points="528.5,-38.5 528.5,-57.5 631.5,-57.5 631.5,-38.5 528.5,-38.5"/>
<text text-anchor="middle" x="580" y="-45.5" font-family="Helvetica,sans-Serif" font-size="10.00">inout::containerprint</text>
</a>
</g>
</g>
<!-- Node52&#45;&gt;Node53 -->
<g id="edge9" class="edge"><title>Node52&#45;&gt;Node53</title>
<path fill="none" stroke="midnightblue" d="M490.203,-48C499.511,-48 508.992,-48 518.125,-48"/>
<polygon fill="midnightblue" stroke="midnightblue" points="518.261,-51.5001 528.261,-48 518.261,-44.5001 518.261,-51.5001"/>
</g>
<!-- Node54 -->
<g id="node11" class="node"><title>Node54</title>
<g id="a_node11"><a xlink:href="namespaceprob.html#abffb9a5b780336aceaf8eb78387dcd0c" target="_top" xlink:title="A random different than a given at_unlike. ">
<polygon fill="white" stroke="black" points="526,-0.5 526,-19.5 634,-19.5 634,-0.5 526,-0.5"/>
<text text-anchor="middle" x="580" y="-7.5" font-family="Helvetica,sans-Serif" font-size="10.00">prob::getRandUnlike</text>
</a>
</g>
</g>
<!-- Node52&#45;&gt;Node54 -->
<g id="edge10" class="edge"><title>Node52&#45;&gt;Node54</title>
<path fill="none" stroke="midnightblue" d="M460.122,-38.411C481.104,-33.3965 506.982,-27.2119 529.23,-21.8947"/>
<polygon fill="midnightblue" stroke="midnightblue" points="530.254,-25.2487 539.166,-19.5201 528.626,-18.4405 530.254,-25.2487"/>
</g>
<!-- Node55 -->
<g id="node12" class="node"><title>Node55</title>
<g id="a_node12"><a xlink:href="namespaceprob.html#a7fd4fb1dca3ca869c8cbb930c031a837" target="_top" xlink:title="Selection a random un like to set items. ">
<polygon fill="white" stroke="black" points="670,-0.5 670,-19.5 793,-19.5 793,-0.5 670,-0.5"/>
<text text-anchor="middle" x="731.5" y="-7.5" font-family="Helvetica,sans-Serif" font-size="10.00">prob::getRandSetUnlike</text>
</a>
</g>
</g>
<!-- Node54&#45;&gt;Node55 -->
<g id="edge11" class="edge"><title>Node54&#45;&gt;Node55</title>
<path fill="none" stroke="midnightblue" d="M634.129,-10C642.454,-10 651.169,-10 659.813,-10"/>
<polygon fill="midnightblue" stroke="midnightblue" points="659.898,-13.5001 669.898,-10 659.898,-6.5001 659.898,-13.5001"/>
</g>
<!-- Node56 -->
<g id="node13" class="node"><title>Node56</title>
<g id="a_node13"><a xlink:href="namespaceprob.html#a5d7baf9636f685ea992784431fca725c" target="_top" xlink:title="Selection a pair random index. ">
<polygon fill="white" stroke="black" points="829,-0.5 829,-19.5 953,-19.5 953,-0.5 829,-0.5"/>
<text text-anchor="middle" x="891" y="-7.5" font-family="Helvetica,sans-Serif" font-size="10.00">prob::getElitistPairCross</text>
</a>
</g>
</g>
<!-- Node55&#45;&gt;Node56 -->
<g id="edge12" class="edge"><title>Node55&#45;&gt;Node56</title>
<path fill="none" stroke="midnightblue" d="M793.394,-10C801.64,-10 810.162,-10 818.572,-10"/>
<polygon fill="midnightblue" stroke="midnightblue" points="818.749,-13.5001 828.749,-10 818.749,-6.5001 818.749,-13.5001"/>
</g>
</g>
</svg>
