<?xml version="1.0" encoding="UTF-8" standalone="no"?>
<!DOCTYPE svg PUBLIC "-//W3C//DTD SVG 1.1//EN"
 "http://www.w3.org/Graphics/SVG/1.1/DTD/svg11.dtd">
<!-- Generated by graphviz version 2.38.0 (20140413.2041)
 -->
<!-- Title: um::minDistCjCjp Pages: 1 -->
<svg width="308pt" height="104pt"
 viewBox="0.00 0.00 308.00 104.00" xmlns="http://www.w3.org/2000/svg" xmlns:xlink="http://www.w3.org/1999/xlink">
<g id="graph0" class="graph" transform="scale(1 1) rotate(0) translate(4 100)">
<title>um::minDistCjCjp</title>
<polygon fill="white" stroke="none" points="-4,4 -4,-100 304,-100 304,4 -4,4"/>
<!-- Node521 -->
<g id="node1" class="node"><title>Node521</title>
<polygon fill="#bfbfbf" stroke="black" points="0,-38.5 0,-57.5 94,-57.5 94,-38.5 0,-38.5"/>
<text text-anchor="middle" x="47" y="-45.5" font-family="Helvetica,sans-Serif" font-size="10.00">um::minDistCjCjp</text>
</g>
<!-- Node522 -->
<g id="node2" class="node"><title>Node522</title>
<g id="a_node2"><a xlink:href="classmat_1_1_matrix_base.html#a70200414022ce1479b9ddc16102b12ae" target="_top" xlink:title="mat::MatrixBase::getNumColumns">
<polygon fill="white" stroke="black" points="130,-76.5 130,-95.5 300,-95.5 300,-76.5 130,-76.5"/>
<text text-anchor="middle" x="215" y="-83.5" font-family="Helvetica,sans-Serif" font-size="10.00">mat::MatrixBase::getNumColumns</text>
</a>
</g>
</g>
<!-- Node521&#45;&gt;Node522 -->
<g id="edge1" class="edge"><title>Node521&#45;&gt;Node522</title>
<path fill="none" stroke="midnightblue" d="M88.8656,-57.5132C101.997,-60.5584 116.61,-63.9344 130,-67 140.272,-69.3517 151.254,-71.8485 161.778,-74.2324"/>
<polygon fill="midnightblue" stroke="midnightblue" points="161.162,-77.6816 171.688,-76.4749 162.707,-70.8542 161.162,-77.6816"/>
</g>
<!-- Node523 -->
<g id="node3" class="node"><title>Node523</title>
<g id="a_node3"><a xlink:href="classmat_1_1_matrix_base.html#ac500eedd5e203327d3292f8ab22d8f3e" target="_top" xlink:title="mat::MatrixBase::getNumRows">
<polygon fill="white" stroke="black" points="137,-38.5 137,-57.5 293,-57.5 293,-38.5 137,-38.5"/>
<text text-anchor="middle" x="215" y="-45.5" font-family="Helvetica,sans-Serif" font-size="10.00">mat::MatrixBase::getNumRows</text>
</a>
</g>
</g>
<!-- Node521&#45;&gt;Node523 -->
<g id="edge2" class="edge"><title>Node521&#45;&gt;Node523</title>
<path fill="none" stroke="midnightblue" d="M94.2403,-48C104.376,-48 115.429,-48 126.588,-48"/>
<polygon fill="midnightblue" stroke="midnightblue" points="126.843,-51.5001 136.843,-48 126.843,-44.5001 126.843,-51.5001"/>
</g>
<!-- Node524 -->
<g id="node4" class="node"><title>Node524</title>
<g id="a_node4"><a xlink:href="classmat_1_1_matrix_row.html#a5391a205367fbaac82a26ddc377a80af" target="_top" xlink:title="mat::MatrixRow::getRow">
<polygon fill="white" stroke="black" points="151.5,-0.5 151.5,-19.5 278.5,-19.5 278.5,-0.5 151.5,-0.5"/>
<text text-anchor="middle" x="215" y="-7.5" font-family="Helvetica,sans-Serif" font-size="10.00">mat::MatrixRow::getRow</text>
</a>
</g>
</g>
<!-- Node521&#45;&gt;Node524 -->
<g id="edge3" class="edge"><title>Node521&#45;&gt;Node524</title>
<path fill="none" stroke="midnightblue" d="M88.8656,-38.4868C101.997,-35.4416 116.61,-32.0656 130,-29 140.272,-26.6483 151.254,-24.1515 161.778,-21.7676"/>
<polygon fill="midnightblue" stroke="midnightblue" points="162.707,-25.1458 171.688,-19.5251 161.162,-18.3184 162.707,-25.1458"/>
</g>
</g>
</svg>
