<?xml version="1.0" encoding="UTF-8" standalone="no"?>
<!DOCTYPE svg PUBLIC "-//W3C//DTD SVG 1.1//EN"
 "http://www.w3.org/Graphics/SVG/1.1/DTD/svg11.dtd">
<!-- Generated by graphviz version 2.38.0 (20140413.2041)
 -->
<!-- Title: mat::syevd Pages: 1 -->
<svg width="281pt" height="142pt"
 viewBox="0.00 0.00 281.00 142.00" xmlns="http://www.w3.org/2000/svg" xmlns:xlink="http://www.w3.org/1999/xlink">
<g id="graph0" class="graph" transform="scale(1 1) rotate(0) translate(4 138)">
<title>mat::syevd</title>
<polygon fill="white" stroke="none" points="-4,4 -4,-138 277,-138 277,4 -4,4"/>
<!-- Node130 -->
<g id="node1" class="node"><title>Node130</title>
<g id="a_node1"><a xlink:title="syevd computes all eigenvalues and eigenvectors">
<polygon fill="#bfbfbf" stroke="black" points="0,-57.5 0,-76.5 67,-76.5 67,-57.5 0,-57.5"/>
<text text-anchor="middle" x="33.5" y="-64.5" font-family="Helvetica,sans-Serif" font-size="10.00">mat::syevd</text>
</a>
</g>
</g>
<!-- Node131 -->
<g id="node2" class="node"><title>Node131</title>
<g id="a_node2"><a xlink:href="namespaceinout.html#a0c10a45877a347dec0d4ec4e5b05b828" target="_top" xlink:title=" ">
<polygon fill="white" stroke="black" points="136.5,-114.5 136.5,-133.5 239.5,-133.5 239.5,-114.5 136.5,-114.5"/>
<text text-anchor="middle" x="188" y="-121.5" font-family="Helvetica,sans-Serif" font-size="10.00">inout::containerprint</text>
</a>
</g>
</g>
<!-- Node130&#45;&gt;Node131 -->
<g id="edge1" class="edge"><title>Node130&#45;&gt;Node131</title>
<path fill="none" stroke="midnightblue" d="M48.877,-76.5688C62.3479,-85.1407 83.3051,-97.4863 103,-105 110.449,-107.842 118.439,-110.324 126.421,-112.473"/>
<polygon fill="midnightblue" stroke="midnightblue" points="125.564,-115.866 136.117,-114.931 127.284,-109.081 125.564,-115.866"/>
</g>
<!-- Node132 -->
<g id="node3" class="node"><title>Node132</title>
<g id="a_node3"><a xlink:href="classmat_1_1_matrix_base.html#a70200414022ce1479b9ddc16102b12ae" target="_top" xlink:title=" ">
<polygon fill="white" stroke="black" points="103,-76.5 103,-95.5 273,-95.5 273,-76.5 103,-76.5"/>
<text text-anchor="middle" x="188" y="-83.5" font-family="Helvetica,sans-Serif" font-size="10.00">mat::MatrixBase::getNumColumns</text>
</a>
</g>
</g>
<!-- Node130&#45;&gt;Node132 -->
<g id="edge2" class="edge"><title>Node130&#45;&gt;Node132</title>
<path fill="none" stroke="midnightblue" d="M67.2151,-71.076C77.1977,-72.3197 88.6774,-73.75 100.492,-75.2219"/>
<polygon fill="midnightblue" stroke="midnightblue" points="100.113,-78.7017 110.469,-76.465 100.978,-71.7554 100.113,-78.7017"/>
</g>
<!-- Node133 -->
<g id="node4" class="node"><title>Node133</title>
<g id="a_node4"><a xlink:href="classmat_1_1_matrix_base.html#ac500eedd5e203327d3292f8ab22d8f3e" target="_top" xlink:title=" ">
<polygon fill="white" stroke="black" points="110,-38.5 110,-57.5 266,-57.5 266,-38.5 110,-38.5"/>
<text text-anchor="middle" x="188" y="-45.5" font-family="Helvetica,sans-Serif" font-size="10.00">mat::MatrixBase::getNumRows</text>
</a>
</g>
</g>
<!-- Node130&#45;&gt;Node133 -->
<g id="edge3" class="edge"><title>Node130&#45;&gt;Node133</title>
<path fill="none" stroke="midnightblue" d="M67.2151,-62.924C77.1977,-61.6803 88.6774,-60.25 100.492,-58.7781"/>
<polygon fill="midnightblue" stroke="midnightblue" points="100.978,-62.2446 110.469,-57.535 100.113,-55.2983 100.978,-62.2446"/>
</g>
<!-- Node134 -->
<g id="node5" class="node"><title>Node134</title>
<g id="a_node5"><a xlink:href="classmat_1_1_matrix_row.html#a156313f6aa515994b76321ff03780b16" target="_top" xlink:title=" ">
<polygon fill="white" stroke="black" points="133,-0.5 133,-19.5 243,-19.5 243,-0.5 133,-0.5"/>
<text text-anchor="middle" x="188" y="-7.5" font-family="Helvetica,sans-Serif" font-size="10.00">mat::MatrixRow::print</text>
</a>
</g>
</g>
<!-- Node130&#45;&gt;Node134 -->
<g id="edge4" class="edge"><title>Node130&#45;&gt;Node134</title>
<path fill="none" stroke="midnightblue" d="M48.877,-57.4312C62.3479,-48.8593 83.3051,-36.5137 103,-29 109.723,-26.4352 116.887,-24.1632 124.088,-22.1646"/>
<polygon fill="midnightblue" stroke="midnightblue" points="125.1,-25.5177 133.893,-19.6069 123.334,-18.7444 125.1,-25.5177"/>
</g>
</g>
</svg>
