<?xml version="1.0" encoding="UTF-8" standalone="no"?>
<!DOCTYPE svg PUBLIC "-//W3C//DTD SVG 1.1//EN"
 "http://www.w3.org/Graphics/SVG/1.1/DTD/svg11.dtd">
<!-- Generated by graphviz version 2.38.0 (20140413.2041)
 -->
<!-- Title: interfacesse::scalInv Pages: 1 -->
<svg width="550pt" height="28pt"
 viewBox="0.00 0.00 550.00 28.00" xmlns="http://www.w3.org/2000/svg" xmlns:xlink="http://www.w3.org/1999/xlink">
<g id="graph0" class="graph" transform="scale(1 1) rotate(0) translate(4 24)">
<title>interfacesse::scalInv</title>
<polygon fill="white" stroke="none" points="-4,4 -4,-24 546,-24 546,4 -4,4"/>
<!-- Node227 -->
<g id="node1" class="node"><title>Node227</title>
<polygon fill="#bfbfbf" stroke="black" points="0,-0.5 0,-19.5 109,-19.5 109,-0.5 0,-0.5"/>
<text text-anchor="middle" x="54.5" y="-7.5" font-family="Helvetica,sans-Serif" font-size="10.00">interfacesse::scalInv</text>
</g>
<!-- Node228 -->
<g id="node2" class="node"><title>Node228</title>
<g id="a_node2"><a xlink:href="namespaceinterfacesse.html#a3ef732d695e1172d5e8404cc0e44865a" target="_top" xlink:title="translate the aoarrayt_y array ">
<polygon fill="white" stroke="black" points="145,-0.5 145,-19.5 249,-19.5 249,-0.5 145,-0.5"/>
<text text-anchor="middle" x="197" y="-7.5" font-family="Helvetica,sans-Serif" font-size="10.00">interfacesse::transy</text>
</a>
</g>
</g>
<!-- Node227&#45;&gt;Node228 -->
<g id="edge1" class="edge"><title>Node227&#45;&gt;Node228</title>
<path fill="none" stroke="midnightblue" d="M109.018,-10C117.49,-10 126.307,-10 134.936,-10"/>
<polygon fill="midnightblue" stroke="midnightblue" points="134.947,-13.5001 144.947,-10 134.947,-6.5001 134.947,-13.5001"/>
</g>
<!-- Node229 -->
<g id="node3" class="node"><title>Node229</title>
<g id="a_node3"><a xlink:href="namespaceinterfacesse.html#ace6b5b44901bf38644ed492778c620f5" target="_top" xlink:title="For a matrix each items change for constant and a vector. ">
<polygon fill="white" stroke="black" points="285,-0.5 285,-19.5 396,-19.5 396,-0.5 285,-0.5"/>
<text text-anchor="middle" x="340.5" y="-7.5" font-family="Helvetica,sans-Serif" font-size="10.00">interfacesse::aasxpa</text>
</a>
</g>
</g>
<!-- Node228&#45;&gt;Node229 -->
<g id="edge2" class="edge"><title>Node228&#45;&gt;Node229</title>
<path fill="none" stroke="midnightblue" d="M249.085,-10C257.302,-10 265.903,-10 274.395,-10"/>
<polygon fill="midnightblue" stroke="midnightblue" points="274.666,-13.5001 284.666,-10 274.666,-6.5001 274.666,-13.5001"/>
</g>
<!-- Node230 -->
<g id="node4" class="node"><title>Node230</title>
<g id="a_node4"><a xlink:href="namespaceinterfacesse.html#a0569818171fd8f88efe5d7f86e6e0b5d" target="_top" xlink:title="extension of xAXPY operation for T result ">
<polygon fill="white" stroke="black" points="432,-0.5 432,-19.5 542,-19.5 542,-0.5 432,-0.5"/>
<text text-anchor="middle" x="487" y="-7.5" font-family="Helvetica,sans-Serif" font-size="10.00">interfacesse::aysxpy</text>
</a>
</g>
</g>
<!-- Node229&#45;&gt;Node230 -->
<g id="edge3" class="edge"><title>Node229&#45;&gt;Node230</title>
<path fill="none" stroke="midnightblue" d="M396.129,-10C404.425,-10 413.051,-10 421.532,-10"/>
<polygon fill="midnightblue" stroke="midnightblue" points="421.773,-13.5001 431.773,-10 421.773,-6.5001 421.773,-13.5001"/>
</g>
</g>
</svg>
