<?xml version="1.0" encoding="UTF-8" standalone="no"?>
<!DOCTYPE svg PUBLIC "-//W3C//DTD SVG 1.1//EN"
 "http://www.w3.org/Graphics/SVG/1.1/DTD/svg11.dtd">
<!-- Generated by graphviz version 2.38.0 (20140413.2041)
 -->
<!-- Title: clusteringop::sortLambda Pages: 1 -->
<!--zoomable 180 -->
<svg id="main" version="1.1" xmlns="http://www.w3.org/2000/svg" xmlns:xlink="http://www.w3.org/1999/xlink" xml:space="preserve" onload="init(evt)">
<style type="text/css"><![CDATA[
.edge:hover path { stroke: red; }
.edge:hover polygon { stroke: red; fill: red; }
]]></style>
<script type="text/javascript"><![CDATA[
var edges = document.getElementsByTagName('g');
if (edges && edges.length) {
  for (var i=0;i<edges.length;i++) {
    if (edges[i].id.substr(0,4)=='edge') {
      edges[i].setAttribute('class','edge');
    }
  }
}
]]></script>
        <defs>
                <circle id="rim" cx="0" cy="0" r="7"/>
                <circle id="rim2" cx="0" cy="0" r="3.5"/>
                <g id="zoomPlus">
                        <use xlink:href="#rim" fill="#404040">
                                <set attributeName="fill" to="#808080" begin="zoomplus.mouseover" end="zoomplus.mouseout"/>
                        </use>
                        <path d="M-4,0h8M0,-4v8" fill="none" stroke="white" stroke-width="1.5" pointer-events="none"/>
                </g>
                <g id="zoomMin">
                        <use xlink:href="#rim" fill="#404040">
                                <set attributeName="fill" to="#808080" begin="zoomminus.mouseover" end="zoomminus.mouseout"/>
                        </use>
                        <path d="M-4,0h8" fill="none" stroke="white" stroke-width="1.5" pointer-events="none"/>
                </g>
                <g id="dirArrow">
                        <path fill="none" stroke="white" stroke-width="1.5" d="M0,-3.0v7 M-2.5,-0.5L0,-3.0L2.5,-0.5"/>
                </g>
               <g id="resetDef">
                       <use xlink:href="#rim2" fill="#404040">
                               <set attributeName="fill" to="#808080" begin="reset.mouseover" end="reset.mouseout"/>
                       </use>
               </g>
        </defs>

<script type="text/javascript">
var viewWidth = 634;
var viewHeight = 180;
var sectionId = 'dynsection-30';
</script>
<script xlink:href="svgpan.js"/>
<svg id="graph" class="graph">
<g id="viewport">
<title>clusteringop::sortLambda</title>
<polygon fill="white" stroke="none" points="-4,4 -4,-176 630,-176 630,4 -4,4"/>
<!-- Node1440 -->
<g id="node1" class="node"><title>Node1440</title>
<polygon fill="#bfbfbf" stroke="black" points="0,-76.5 0,-95.5 130,-95.5 130,-76.5 0,-76.5"/>
<text text-anchor="middle" x="65" y="-83.5" font-family="Helvetica,sans-Serif" font-size="10.00">clusteringop::sortLambda</text>
</g>
<!-- Node1441 -->
<g id="node2" class="node"><title>Node1441</title>
<g id="a_node2"><a xlink:href="namespaceclusteringop.html#a8dbc301d107623488824391c69803015" target="_top" xlink:title="clusteringop::pointerToDisjSets">
<polygon fill="white" stroke="black" points="166,-76.5 166,-95.5 324,-95.5 324,-76.5 166,-76.5"/>
<text text-anchor="middle" x="245" y="-83.5" font-family="Helvetica,sans-Serif" font-size="10.00">clusteringop::pointerToDisjSets</text>
</a>
</g>
</g>
<!-- Node1440&#45;&gt;Node1441 -->
<g id="edge1" class="edge"><title>Node1440&#45;&gt;Node1441</title>
<path fill="none" stroke="midnightblue" d="M130.011,-86C138.392,-86 147.096,-86 155.789,-86"/>
<polygon fill="midnightblue" stroke="midnightblue" points="155.97,-89.5001 165.97,-86 155.97,-82.5001 155.97,-89.5001"/>
</g>
<!-- Node1442 -->
<g id="node3" class="node"><title>Node1442</title>
<g id="a_node3"><a xlink:href="classds_1_1_disj_sets.html#a78501e61f79d875aa73e91358aa8272e" target="_top" xlink:title="ds::DisjSets::getNumSet">
<polygon fill="white" stroke="black" points="360,-152.5 360,-171.5 487,-171.5 487,-152.5 360,-152.5"/>
<text text-anchor="middle" x="423.5" y="-159.5" font-family="Helvetica,sans-Serif" font-size="10.00">ds::DisjSets::getNumSet</text>
</a>
</g>
</g>
<!-- Node1441&#45;&gt;Node1442 -->
<g id="edge2" class="edge"><title>Node1441&#45;&gt;Node1442</title>
<path fill="none" stroke="midnightblue" d="M262.966,-95.619C284.881,-107.776 324.441,-128.823 360,-143 365.601,-145.233 371.572,-147.359 377.517,-149.324"/>
<polygon fill="midnightblue" stroke="midnightblue" points="376.838,-152.781 387.429,-152.473 378.958,-146.109 376.838,-152.781"/>
</g>
<!-- Node1443 -->
<g id="node4" class="node"><title>Node1443</title>
<g id="a_node4"><a xlink:href="classds_1_1_disj_sets.html#a045884be5b69816578fd42500ec91ebd" target="_top" xlink:title="ds::DisjSets::merge">
<polygon fill="white" stroke="black" points="370,-114.5 370,-133.5 477,-133.5 477,-114.5 370,-114.5"/>
<text text-anchor="middle" x="423.5" y="-121.5" font-family="Helvetica,sans-Serif" font-size="10.00">ds::DisjSets::merge</text>
</a>
</g>
</g>
<!-- Node1441&#45;&gt;Node1443 -->
<g id="edge3" class="edge"><title>Node1441&#45;&gt;Node1443</title>
<path fill="none" stroke="midnightblue" d="M290.538,-95.589C314.144,-100.671 343.332,-106.955 368.251,-112.32"/>
<polygon fill="midnightblue" stroke="midnightblue" points="367.769,-115.797 378.282,-114.48 369.243,-108.954 367.769,-115.797"/>
</g>
<!-- Node1446 -->
<g id="node7" class="node"><title>Node1446</title>
<g id="a_node7"><a xlink:href="classds_1_1_disj_sets.html#a3eddb5e3a2f942314524d5f0edf181f0" target="_top" xlink:title="ds::DisjSets::print">
<polygon fill="white" stroke="black" points="527,-47.5 527,-66.5 622,-66.5 622,-47.5 527,-47.5"/>
<text text-anchor="middle" x="574.5" y="-54.5" font-family="Helvetica,sans-Serif" font-size="10.00">ds::DisjSets::print</text>
</a>
</g>
</g>
<!-- Node1441&#45;&gt;Node1446 -->
<g id="edge6" class="edge"><title>Node1441&#45;&gt;Node1446</title>
<path fill="none" stroke="midnightblue" d="M324.21,-80.5583C371.396,-77.0951 432.695,-72.2779 487,-67 496.604,-66.0666 506.796,-64.977 516.686,-63.8671"/>
<polygon fill="midnightblue" stroke="midnightblue" points="517.306,-67.3191 526.846,-62.7088 516.514,-60.3642 517.306,-67.3191"/>
</g>
<!-- Node1447 -->
<g id="node8" class="node"><title>Node1447</title>
<g id="a_node8"><a xlink:href="classds_1_1_disj_sets.html#abd454f0cbee4e7a2d67f6edb06f5f414" target="_top" xlink:title="ds::DisjSets::size">
<polygon fill="white" stroke="black" points="375.5,-38.5 375.5,-57.5 471.5,-57.5 471.5,-38.5 375.5,-38.5"/>
<text text-anchor="middle" x="423.5" y="-45.5" font-family="Helvetica,sans-Serif" font-size="10.00">ds::DisjSets::size</text>
</a>
</g>
</g>
<!-- Node1441&#45;&gt;Node1447 -->
<g id="edge7" class="edge"><title>Node1441&#45;&gt;Node1447</title>
<path fill="none" stroke="midnightblue" d="M290.538,-76.411C314.144,-71.3287 343.332,-65.0446 368.251,-59.6797"/>
<polygon fill="midnightblue" stroke="midnightblue" points="369.243,-63.0465 378.282,-57.5201 367.769,-56.2033 369.243,-63.0465"/>
</g>
<!-- Node1448 -->
<g id="node9" class="node"><title>Node1448</title>
<g id="a_node9"><a xlink:href="namespaceclusteringop.html#aa3a86f02dae86d464cf4dfc2a7064922" target="_top" xlink:title="clusteringop::slink">
<polygon fill="white" stroke="black" points="375,-0.5 375,-19.5 472,-19.5 472,-0.5 375,-0.5"/>
<text text-anchor="middle" x="423.5" y="-7.5" font-family="Helvetica,sans-Serif" font-size="10.00">clusteringop::slink</text>
</a>
</g>
</g>
<!-- Node1441&#45;&gt;Node1448 -->
<g id="edge9" class="edge"><title>Node1441&#45;&gt;Node1448</title>
<path fill="none" stroke="midnightblue" d="M262.966,-76.381C284.881,-64.2239 324.441,-43.1773 360,-29 365.601,-26.7667 371.572,-24.6415 377.517,-22.6757"/>
<polygon fill="midnightblue" stroke="midnightblue" points="378.958,-25.8907 387.429,-19.5273 376.838,-19.2192 378.958,-25.8907"/>
</g>
<!-- Node1444 -->
<g id="node5" class="node"><title>Node1444</title>
<g id="a_node5"><a xlink:href="classds_1_1_disj_sets.html#a3c3fe68b7cad93d8e01b8cb54e6b803b" target="_top" xlink:title="ds::DisjSets::link">
<polygon fill="white" stroke="black" points="528.5,-142.5 528.5,-161.5 620.5,-161.5 620.5,-142.5 528.5,-142.5"/>
<text text-anchor="middle" x="574.5" y="-149.5" font-family="Helvetica,sans-Serif" font-size="10.00">ds::DisjSets::link</text>
</a>
</g>
</g>
<!-- Node1443&#45;&gt;Node1444 -->
<g id="edge4" class="edge"><title>Node1443&#45;&gt;Node1444</title>
<path fill="none" stroke="midnightblue" d="M475.361,-133.558C489.2,-136.158 504.253,-138.987 518.319,-141.63"/>
<polygon fill="midnightblue" stroke="midnightblue" points="517.882,-145.109 528.356,-143.517 519.174,-138.23 517.882,-145.109"/>
</g>
<!-- Node1445 -->
<g id="node6" class="node"><title>Node1445</title>
<g id="a_node6"><a xlink:href="classds_1_1_disj_sets.html#a101eabf86f8a7f2e21f2c5c5329269eb" target="_top" xlink:title="ds::DisjSets::find">
<polygon fill="white" stroke="black" points="528,-104.5 528,-123.5 621,-123.5 621,-104.5 528,-104.5"/>
<text text-anchor="middle" x="574.5" y="-111.5" font-family="Helvetica,sans-Serif" font-size="10.00">ds::DisjSets::find</text>
</a>
</g>
</g>
<!-- Node1443&#45;&gt;Node1445 -->
<g id="edge5" class="edge"><title>Node1443&#45;&gt;Node1445</title>
<path fill="none" stroke="midnightblue" d="M477.032,-120.474C490.252,-119.587 504.485,-118.632 517.851,-117.735"/>
<polygon fill="midnightblue" stroke="midnightblue" points="518.13,-121.224 527.873,-117.062 517.661,-114.24 518.13,-121.224"/>
</g>
<!-- Node1447&#45;&gt;Node1446 -->
<g id="edge8" class="edge"><title>Node1447&#45;&gt;Node1446</title>
<path fill="none" stroke="midnightblue" d="M471.645,-50.8477C485.984,-51.7138 501.893,-52.6748 516.794,-53.5748"/>
<polygon fill="midnightblue" stroke="midnightblue" points="516.724,-57.0769 526.917,-54.1863 517.147,-50.0896 516.724,-57.0769"/>
</g>
<!-- Node1449 -->
<g id="node10" class="node"><title>Node1449</title>
<g id="a_node10"><a xlink:href="namespaceinout.html#a0c10a45877a347dec0d4ec4e5b05b828" target="_top" xlink:title="inout::containerprint">
<polygon fill="white" stroke="black" points="523,-0.5 523,-19.5 626,-19.5 626,-0.5 523,-0.5"/>
<text text-anchor="middle" x="574.5" y="-7.5" font-family="Helvetica,sans-Serif" font-size="10.00">inout::containerprint</text>
</a>
</g>
</g>
<!-- Node1448&#45;&gt;Node1449 -->
<g id="edge10" class="edge"><title>Node1448&#45;&gt;Node1449</title>
<path fill="none" stroke="midnightblue" d="M472.054,-10C484.949,-10 499.089,-10 512.609,-10"/>
<polygon fill="midnightblue" stroke="midnightblue" points="512.797,-13.5001 522.797,-10 512.797,-6.5001 512.797,-13.5001"/>
</g>
</g>
</svg>
        <g id="navigator" transform="translate(0 0)" fill="#404254">
                <rect fill="#f2f5e9" fill-opacity="0.5" stroke="#606060" stroke-width=".5" x="0" y="0" width="60" height="60"/>
                <use id="zoomplus" xlink:href="#zoomPlus" x="17" y="9" onmousedown="handleZoom(evt,'in')"/>
                <use id="zoomminus" xlink:href="#zoomMin" x="42" y="9" onmousedown="handleZoom(evt,'out')"/>
                <use id="reset" xlink:href="#resetDef" x="30" y="36" onmousedown="handleReset()"/>
                <g id="arrowUp" xlink:href="#dirArrow" transform="translate(30 24)" onmousedown="handlePan(0,-1)">
                  <use xlink:href="#rim" fill="#404040">
                        <set attributeName="fill" to="#808080" begin="arrowUp.mouseover" end="arrowUp.mouseout"/>
                  </use>
                  <path fill="none" stroke="white" stroke-width="1.5" d="M0,-3.0v7 M-2.5,-0.5L0,-3.0L2.5,-0.5"/>
                </g>
                <g id="arrowRight" xlink:href="#dirArrow" transform="rotate(90) translate(36 -43)" onmousedown="handlePan(1,0)">
                  <use xlink:href="#rim" fill="#404040">
                        <set attributeName="fill" to="#808080" begin="arrowRight.mouseover" end="arrowRight.mouseout"/>
                  </use>
                  <path fill="none" stroke="white" stroke-width="1.5" d="M0,-3.0v7 M-2.5,-0.5L0,-3.0L2.5,-0.5"/>
                </g>
                <g id="arrowDown" xlink:href="#dirArrow" transform="rotate(180) translate(-30 -48)" onmousedown="handlePan(0,1)">
                  <use xlink:href="#rim" fill="#404040">
                        <set attributeName="fill" to="#808080" begin="arrowDown.mouseover" end="arrowDown.mouseout"/>
                  </use>
                  <path fill="none" stroke="white" stroke-width="1.5" d="M0,-3.0v7 M-2.5,-0.5L0,-3.0L2.5,-0.5"/>
                </g>
                <g id="arrowLeft" xlink:href="#dirArrow" transform="rotate(270) translate(-36 17)" onmousedown="handlePan(-1,0)">
                  <use xlink:href="#rim" fill="#404040">
                        <set attributeName="fill" to="#808080" begin="arrowLeft.mouseover" end="arrowLeft.mouseout"/>
                  </use>
                  <path fill="none" stroke="white" stroke-width="1.5" d="M0,-3.0v7 M-2.5,-0.5L0,-3.0L2.5,-0.5"/>
                </g>
        </g>
        <svg viewBox="0 0 15 15" width="100%" height="30px" preserveAspectRatio="xMaxYMin meet">
         <g id="arrow_out" transform="scale(0.3 0.3)">
          <a xlink:href="namespaceclusteringop_a7fadea9ded0a7c876b8f58c3f303d316_cgraph_org.svg" target="_base">
           <rect id="button" ry="5" rx="5" y="6" x="6" height="38" width="38"
                fill="#f2f5e9" fill-opacity="0.5" stroke="#606060" stroke-width="1.0"/>
           <path id="arrow"
             d="M 11.500037,31.436501 C 11.940474,20.09759 22.043105,11.32322 32.158766,21.979434 L 37.068811,17.246167 C 37.068811,17.246167 37.088388,32 37.088388,32 L 22.160133,31.978069 C 22.160133,31.978069 26.997745,27.140456 26.997745,27.140456 C 18.528582,18.264221 13.291696,25.230495 11.500037,31.436501 z"
             style="fill:#404040;"/>
          </a>
         </g>
        </svg>
</svg>
