<?xml version="1.0" encoding="UTF-8" standalone="no"?>
<!DOCTYPE svg PUBLIC "-//W3C//DTD SVG 1.1//EN"
 "http://www.w3.org/Graphics/SVG/1.1/DTD/svg11.dtd">
<!-- Generated by graphviz version 2.38.0 (20140413.2041)
 -->
<!-- Title: interfacesse::dot Pages: 1 -->
<svg width="775pt" height="28pt"
 viewBox="0.00 0.00 775.00 28.00" xmlns="http://www.w3.org/2000/svg" xmlns:xlink="http://www.w3.org/1999/xlink">
<g id="graph0" class="graph" transform="scale(1 1) rotate(0) translate(4 24)">
<title>interfacesse::dot</title>
<polygon fill="white" stroke="none" points="-4,4 -4,-24 771,-24 771,4 -4,4"/>
<!-- Node158 -->
<g id="node1" class="node"><title>Node158</title>
<polygon fill="#bfbfbf" stroke="black" points="0,-0.5 0,-19.5 92,-19.5 92,-0.5 0,-0.5"/>
<text text-anchor="middle" x="46" y="-7.5" font-family="Helvetica,sans-Serif" font-size="10.00">interfacesse::dot</text>
</g>
<!-- Node159 -->
<g id="node2" class="node"><title>Node159</title>
<g id="a_node2"><a xlink:href="namespaceinterfacesse.html#a2f42addf86fc8b9cd0c6620217b8a2db" target="_top" xlink:title="swap items of aoarrayt_y to aiarrayt_x ">
<polygon fill="white" stroke="black" points="128,-0.5 128,-19.5 220,-19.5 220,-0.5 128,-0.5"/>
<text text-anchor="middle" x="174" y="-7.5" font-family="Helvetica,sans-Serif" font-size="10.00">interfacesse::dot</text>
</a>
</g>
</g>
<!-- Node158&#45;&gt;Node159 -->
<g id="edge1" class="edge"><title>Node158&#45;&gt;Node159</title>
<path fill="none" stroke="midnightblue" d="M92.133,-10C100.366,-10 109.043,-10 117.535,-10"/>
<polygon fill="midnightblue" stroke="midnightblue" points="117.759,-13.5001 127.759,-10 117.759,-6.5001 117.759,-13.5001"/>
</g>
<!-- Node160 -->
<g id="node3" class="node"><title>Node160</title>
<g id="a_node3"><a xlink:href="namespaceinterfacesse.html#a25f6950d589b92fd5bcf2007fb3fae19" target="_top" xlink:title="interfacesse::sum">
<polygon fill="white" stroke="black" points="256,-0.5 256,-19.5 352,-19.5 352,-0.5 256,-0.5"/>
<text text-anchor="middle" x="304" y="-7.5" font-family="Helvetica,sans-Serif" font-size="10.00">interfacesse::sum</text>
</a>
</g>
</g>
<!-- Node159&#45;&gt;Node160 -->
<g id="edge2" class="edge"><title>Node159&#45;&gt;Node160</title>
<path fill="none" stroke="midnightblue" d="M220.128,-10C228.315,-10 236.955,-10 245.442,-10"/>
<polygon fill="midnightblue" stroke="midnightblue" points="245.679,-13.5001 255.678,-10 245.678,-6.5001 245.679,-13.5001"/>
</g>
<!-- Node161 -->
<g id="node4" class="node"><title>Node161</title>
<g id="a_node4"><a xlink:href="namespaceinterfacesse.html#a9dd5fb43ad8a83ee5cb2f5ba1bb2085b" target="_top" xlink:title="interfacesse::axpy">
<polygon fill="white" stroke="black" points="388,-0.5 388,-19.5 487,-19.5 487,-0.5 388,-0.5"/>
<text text-anchor="middle" x="437.5" y="-7.5" font-family="Helvetica,sans-Serif" font-size="10.00">interfacesse::axpy</text>
</a>
</g>
</g>
<!-- Node160&#45;&gt;Node161 -->
<g id="edge3" class="edge"><title>Node160&#45;&gt;Node161</title>
<path fill="none" stroke="midnightblue" d="M352.103,-10C360.472,-10 369.281,-10 377.922,-10"/>
<polygon fill="midnightblue" stroke="midnightblue" points="377.953,-13.5001 387.953,-10 377.953,-6.5001 377.953,-13.5001"/>
</g>
<!-- Node162 -->
<g id="node5" class="node"><title>Node162</title>
<g id="a_node5"><a xlink:href="namespaceinterfacesse.html#ae3f94c42a59db65b2941dbfc9f449ea1" target="_top" xlink:title="function xAXPY of blas for doubles vectors ">
<polygon fill="white" stroke="black" points="523,-0.5 523,-19.5 635,-19.5 635,-0.5 523,-0.5"/>
<text text-anchor="middle" x="579" y="-7.5" font-family="Helvetica,sans-Serif" font-size="10.00">interfacesse::axpyInv</text>
</a>
</g>
</g>
<!-- Node161&#45;&gt;Node162 -->
<g id="edge4" class="edge"><title>Node161&#45;&gt;Node162</title>
<path fill="none" stroke="midnightblue" d="M487.29,-10C495.535,-10 504.211,-10 512.794,-10"/>
<polygon fill="midnightblue" stroke="midnightblue" points="512.797,-13.5001 522.797,-10 512.797,-6.5001 512.797,-13.5001"/>
</g>
<!-- Node163 -->
<g id="node6" class="node"><title>Node163</title>
<g id="a_node6"><a xlink:href="namespaceinterfacesse.html#a144ebf70bf38495c3de1aca2c8365e08" target="_top" xlink:title="scal items of the array of type T ">
<polygon fill="white" stroke="black" points="671,-0.5 671,-19.5 767,-19.5 767,-0.5 671,-0.5"/>
<text text-anchor="middle" x="719" y="-7.5" font-family="Helvetica,sans-Serif" font-size="10.00">interfacesse::scal</text>
</a>
</g>
</g>
<!-- Node162&#45;&gt;Node163 -->
<g id="edge5" class="edge"><title>Node162&#45;&gt;Node163</title>
<path fill="none" stroke="midnightblue" d="M635.335,-10C643.651,-10 652.243,-10 660.602,-10"/>
<polygon fill="midnightblue" stroke="midnightblue" points="660.647,-13.5001 670.647,-10 660.647,-6.5001 660.647,-13.5001"/>
</g>
</g>
</svg>
