<?xml version="1.0" encoding="UTF-8" standalone="no"?>
<!DOCTYPE svg PUBLIC "-//W3C//DTD SVG 1.1//EN"
 "http://www.w3.org/Graphics/SVG/1.1/DTD/svg11.dtd">
<!-- Generated by graphviz version 2.38.0 (20140413.2041)
 -->
<!-- Title: mat::matrixread_get Pages: 1 -->
<svg width="278pt" height="104pt"
 viewBox="0.00 0.00 278.00 104.00" xmlns="http://www.w3.org/2000/svg" xmlns:xlink="http://www.w3.org/1999/xlink">
<g id="graph0" class="graph" transform="scale(1 1) rotate(0) translate(4 100)">
<title>mat::matrixread_get</title>
<polygon fill="white" stroke="none" points="-4,4 -4,-100 274,-100 274,4 -4,4"/>
<!-- Node125 -->
<g id="node1" class="node"><title>Node125</title>
<polygon fill="#bfbfbf" stroke="black" points="0,-38.5 0,-57.5 107,-57.5 107,-38.5 0,-38.5"/>
<text text-anchor="middle" x="53.5" y="-45.5" font-family="Helvetica,sans-Serif" font-size="10.00">mat::matrixread_get</text>
</g>
<!-- Node126 -->
<g id="node2" class="node"><title>Node126</title>
<g id="a_node2"><a xlink:href="classinout_1_1_line_split.html#a27571ff675c6a9e5fd493472d4fa8fb4" target="_top" xlink:title="inout::LineSplit::getItem">
<polygon fill="white" stroke="black" points="146.5,-76.5 146.5,-95.5 266.5,-95.5 266.5,-76.5 146.5,-76.5"/>
<text text-anchor="middle" x="206.5" y="-83.5" font-family="Helvetica,sans-Serif" font-size="10.00">inout::LineSplit::getItem</text>
</a>
</g>
</g>
<!-- Node125&#45;&gt;Node126 -->
<g id="edge1" class="edge"><title>Node125&#45;&gt;Node126</title>
<path fill="none" stroke="midnightblue" d="M92.6037,-57.589C112.44,-62.5809 136.884,-68.7324 157.948,-74.0334"/>
<polygon fill="midnightblue" stroke="midnightblue" points="157.118,-77.4336 167.67,-76.4799 158.827,-70.6452 157.118,-77.4336"/>
</g>
<!-- Node127 -->
<g id="node3" class="node"><title>Node127</title>
<g id="a_node3"><a xlink:href="classmat_1_1_matrix_row.html#a5391a205367fbaac82a26ddc377a80af" target="_top" xlink:title="mat::MatrixRow::getRow">
<polygon fill="white" stroke="black" points="143,-38.5 143,-57.5 270,-57.5 270,-38.5 143,-38.5"/>
<text text-anchor="middle" x="206.5" y="-45.5" font-family="Helvetica,sans-Serif" font-size="10.00">mat::MatrixRow::getRow</text>
</a>
</g>
</g>
<!-- Node125&#45;&gt;Node127 -->
<g id="edge2" class="edge"><title>Node125&#45;&gt;Node127</title>
<path fill="none" stroke="midnightblue" d="M107.312,-48C115.565,-48 124.216,-48 132.818,-48"/>
<polygon fill="midnightblue" stroke="midnightblue" points="132.866,-51.5001 142.866,-48 132.866,-44.5001 132.866,-51.5001"/>
</g>
<!-- Node128 -->
<g id="node4" class="node"><title>Node128</title>
<g id="a_node4"><a xlink:href="classinout_1_1_line_split.html#a507aefbeca1a1ddb7b77c827780eda15" target="_top" xlink:title="inout::LineSplit::split">
<polygon fill="white" stroke="black" points="154.5,-0.5 154.5,-19.5 258.5,-19.5 258.5,-0.5 154.5,-0.5"/>
<text text-anchor="middle" x="206.5" y="-7.5" font-family="Helvetica,sans-Serif" font-size="10.00">inout::LineSplit::split</text>
</a>
</g>
</g>
<!-- Node125&#45;&gt;Node128 -->
<g id="edge3" class="edge"><title>Node125&#45;&gt;Node128</title>
<path fill="none" stroke="midnightblue" d="M92.6037,-38.411C112.44,-33.4191 136.884,-27.2676 157.948,-21.9666"/>
<polygon fill="midnightblue" stroke="midnightblue" points="158.827,-25.3548 167.67,-19.5201 157.118,-18.5664 158.827,-25.3548"/>
</g>
</g>
</svg>
