<?xml version="1.0" encoding="UTF-8" standalone="no"?>
<!DOCTYPE svg PUBLIC "-//W3C//DTD SVG 1.1//EN"
 "http://www.w3.org/Graphics/SVG/1.1/DTD/svg11.dtd">
<!-- Generated by graphviz version 2.38.0 (20140413.2041)
 -->
<!-- Title: mat::point Pages: 1 -->
<svg width="274pt" height="104pt"
 viewBox="0.00 0.00 274.00 104.00" xmlns="http://www.w3.org/2000/svg" xmlns:xlink="http://www.w3.org/1999/xlink">
<g id="graph0" class="graph" transform="scale(1 1) rotate(0) translate(4 100)">
<title>mat::point</title>
<polygon fill="white" stroke="none" points="-4,4 -4,-100 270,-100 270,4 -4,4"/>
<!-- Node100 -->
<g id="node1" class="node"><title>Node100</title>
<g id="a_node1"><a xlink:title=" ">
<polygon fill="#bfbfbf" stroke="black" points="0,-38.5 0,-57.5 60,-57.5 60,-38.5 0,-38.5"/>
<text text-anchor="middle" x="30" y="-45.5" font-family="Helvetica,sans-Serif" font-size="10.00">mat::point</text>
</a>
</g>
</g>
<!-- Node101 -->
<g id="node2" class="node"><title>Node101</title>
<g id="a_node2"><a xlink:href="namespaceinterfacesse.html#a2f42addf86fc8b9cd0c6620217b8a2db" target="_top" xlink:title="swap items of aoarrayt_y to aiarrayt_x">
<polygon fill="white" stroke="black" points="135,-76.5 135,-95.5 227,-95.5 227,-76.5 135,-76.5"/>
<text text-anchor="middle" x="181" y="-83.5" font-family="Helvetica,sans-Serif" font-size="10.00">interfacesse::dot</text>
</a>
</g>
</g>
<!-- Node100&#45;&gt;Node101 -->
<g id="edge1" class="edge"><title>Node100&#45;&gt;Node101</title>
<path fill="none" stroke="midnightblue" d="M60.0148,-56.8984C71.2164,-60.224 84.1633,-63.9345 96,-67 105.553,-69.4741 115.763,-71.9353 125.657,-74.2259"/>
<polygon fill="midnightblue" stroke="midnightblue" points="124.882,-77.6388 135.41,-76.4538 126.44,-70.8146 124.882,-77.6388"/>
</g>
<!-- Node102 -->
<g id="node3" class="node"><title>Node102</title>
<g id="a_node3"><a xlink:href="classmat_1_1_matrix_base.html#a70200414022ce1479b9ddc16102b12ae" target="_top" xlink:title=" ">
<polygon fill="white" stroke="black" points="96,-38.5 96,-57.5 266,-57.5 266,-38.5 96,-38.5"/>
<text text-anchor="middle" x="181" y="-45.5" font-family="Helvetica,sans-Serif" font-size="10.00">mat::MatrixBase::getNumColumns</text>
</a>
</g>
</g>
<!-- Node100&#45;&gt;Node102 -->
<g id="edge2" class="edge"><title>Node100&#45;&gt;Node102</title>
<path fill="none" stroke="midnightblue" d="M60.0824,-48C67.7946,-48 76.5568,-48 85.7515,-48"/>
<polygon fill="midnightblue" stroke="midnightblue" points="85.8694,-51.5001 95.8694,-48 85.8693,-44.5001 85.8694,-51.5001"/>
</g>
<!-- Node103 -->
<g id="node4" class="node"><title>Node103</title>
<g id="a_node4"><a xlink:href="classmat_1_1_matrix_row.html#a5391a205367fbaac82a26ddc377a80af" target="_top" xlink:title=" ">
<polygon fill="white" stroke="black" points="117.5,-0.5 117.5,-19.5 244.5,-19.5 244.5,-0.5 117.5,-0.5"/>
<text text-anchor="middle" x="181" y="-7.5" font-family="Helvetica,sans-Serif" font-size="10.00">mat::MatrixRow::getRow</text>
</a>
</g>
</g>
<!-- Node100&#45;&gt;Node103 -->
<g id="edge3" class="edge"><title>Node100&#45;&gt;Node103</title>
<path fill="none" stroke="midnightblue" d="M60.0148,-39.1016C71.2164,-35.776 84.1633,-32.0655 96,-29 105.553,-26.5259 115.763,-24.0647 125.657,-21.7741"/>
<polygon fill="midnightblue" stroke="midnightblue" points="126.44,-25.1854 135.41,-19.5462 124.882,-18.3612 126.44,-25.1854"/>
</g>
</g>
</svg>
