<?xml version="1.0" encoding="UTF-8" standalone="no"?>
<!DOCTYPE svg PUBLIC "-//W3C//DTD SVG 1.1//EN"
 "http://www.w3.org/Graphics/SVG/1.1/DTD/svg11.dtd">
<!-- Generated by graphviz version 2.38.0 (20140413.2041)
 -->
<!-- Title: um::dbindex Pages: 1 -->
<svg width="286pt" height="104pt"
 viewBox="0.00 0.00 286.00 104.00" xmlns="http://www.w3.org/2000/svg" xmlns:xlink="http://www.w3.org/1999/xlink">
<g id="graph0" class="graph" transform="scale(1 1) rotate(0) translate(4 100)">
<title>um::dbindex</title>
<polygon fill="white" stroke="none" points="-4,4 -4,-100 282,-100 282,4 -4,4"/>
<!-- Node61 -->
<g id="node1" class="node"><title>Node61</title>
<polygon fill="#bfbfbf" stroke="black" points="0,-38.5 0,-57.5 72,-57.5 72,-38.5 0,-38.5"/>
<text text-anchor="middle" x="36" y="-45.5" font-family="Helvetica,sans-Serif" font-size="10.00">um::dbindex</text>
</g>
<!-- Node62 -->
<g id="node2" class="node"><title>Node62</title>
<g id="a_node2"><a xlink:href="classmat_1_1_matrix_base.html#a70200414022ce1479b9ddc16102b12ae" target="_top" xlink:title="mat::MatrixBase::getNumColumns">
<polygon fill="white" stroke="black" points="108,-76.5 108,-95.5 278,-95.5 278,-76.5 108,-76.5"/>
<text text-anchor="middle" x="193" y="-83.5" font-family="Helvetica,sans-Serif" font-size="10.00">mat::MatrixBase::getNumColumns</text>
</a>
</g>
</g>
<!-- Node61&#45;&gt;Node62 -->
<g id="edge1" class="edge"><title>Node61&#45;&gt;Node62</title>
<path fill="none" stroke="midnightblue" d="M71.5982,-57.5487C83.1495,-60.6592 96.1071,-64.0649 108,-67 117.798,-69.4182 128.27,-71.8822 138.378,-74.1996"/>
<polygon fill="midnightblue" stroke="midnightblue" points="137.799,-77.6573 148.326,-76.461 139.351,-70.8314 137.799,-77.6573"/>
</g>
<!-- Node63 -->
<g id="node3" class="node"><title>Node63</title>
<g id="a_node3"><a xlink:href="classmat_1_1_matrix_base.html#ac500eedd5e203327d3292f8ab22d8f3e" target="_top" xlink:title="mat::MatrixBase::getNumRows">
<polygon fill="white" stroke="black" points="115,-38.5 115,-57.5 271,-57.5 271,-38.5 115,-38.5"/>
<text text-anchor="middle" x="193" y="-45.5" font-family="Helvetica,sans-Serif" font-size="10.00">mat::MatrixBase::getNumRows</text>
</a>
</g>
</g>
<!-- Node61&#45;&gt;Node63 -->
<g id="edge2" class="edge"><title>Node61&#45;&gt;Node63</title>
<path fill="none" stroke="midnightblue" d="M72.1719,-48C82.0508,-48 93.2532,-48 104.747,-48"/>
<polygon fill="midnightblue" stroke="midnightblue" points="104.896,-51.5001 114.896,-48 104.896,-44.5001 104.896,-51.5001"/>
</g>
<!-- Node64 -->
<g id="node4" class="node"><title>Node64</title>
<g id="a_node4"><a xlink:href="classmat_1_1_matrix_row.html#a5391a205367fbaac82a26ddc377a80af" target="_top" xlink:title="mat::MatrixRow::getRow">
<polygon fill="white" stroke="black" points="129.5,-0.5 129.5,-19.5 256.5,-19.5 256.5,-0.5 129.5,-0.5"/>
<text text-anchor="middle" x="193" y="-7.5" font-family="Helvetica,sans-Serif" font-size="10.00">mat::MatrixRow::getRow</text>
</a>
</g>
</g>
<!-- Node61&#45;&gt;Node64 -->
<g id="edge3" class="edge"><title>Node61&#45;&gt;Node64</title>
<path fill="none" stroke="midnightblue" d="M71.5982,-38.4513C83.1495,-35.3408 96.1071,-31.9351 108,-29 117.798,-26.5818 128.27,-24.1178 138.378,-21.8004"/>
<polygon fill="midnightblue" stroke="midnightblue" points="139.351,-25.1686 148.326,-19.539 137.799,-18.3427 139.351,-25.1686"/>
</g>
</g>
</svg>
