<?xml version="1.0" encoding="UTF-8" standalone="no"?>
<!DOCTYPE svg PUBLIC "-//W3C//DTD SVG 1.1//EN"
 "http://www.w3.org/Graphics/SVG/1.1/DTD/svg11.dtd">
<!-- Generated by graphviz version 2.38.0 (20140413.2041)
 -->
<!-- Title: ds::getPartitionLinkedNumInst Pages: 1 -->
<svg width="286pt" height="137pt"
 viewBox="0.00 0.00 286.00 137.00" xmlns="http://www.w3.org/2000/svg" xmlns:xlink="http://www.w3.org/1999/xlink">
<g id="graph0" class="graph" transform="scale(1 1) rotate(0) translate(4 133)">
<title>ds::getPartitionLinkedNumInst</title>
<polygon fill="white" stroke="none" points="-4,4 -4,-133 282,-133 282,4 -4,4"/>
<!-- Node1 -->
<g id="node1" class="node"><title>Node1</title>
<g id="a_node1"><a xlink:title=" ">
<polygon fill="#bfbfbf" stroke="black" points="-2.84217e-14,-55 -2.84217e-14,-74 149,-74 149,-55 -2.84217e-14,-55"/>
<text text-anchor="middle" x="74.5" y="-62" font-family="Helvetica,sans-Serif" font-size="10.00">ds::getPartitionLinkedNumInst</text>
</a>
</g>
</g>
<!-- Node2 -->
<g id="node2" class="node"><title>Node2</title>
<g id="a_node2"><a xlink:href="classpartition_1_1_partition.html#acb8de7c890e05872858fb7a7aa53b657" target="_top" xlink:title=" ">
<polygon fill="white" stroke="black" points="185,-98.5 185,-128.5 278,-128.5 278,-98.5 185,-98.5"/>
<text text-anchor="start" x="193" y="-116.5" font-family="Helvetica,sans-Serif" font-size="10.00">partition::Partition</text>
<text text-anchor="middle" x="231.5" y="-105.5" font-family="Helvetica,sans-Serif" font-size="10.00">::begin</text>
</a>
</g>
</g>
<!-- Node1&#45;&gt;Node2 -->
<g id="edge1" class="edge"><title>Node1&#45;&gt;Node2</title>
<path fill="none" stroke="midnightblue" d="M105.754,-74.064C125.411,-80.2783 151.627,-88.5658 174.951,-95.9393"/>
<polygon fill="midnightblue" stroke="midnightblue" points="174.153,-99.3576 184.743,-99.0347 176.263,-92.6832 174.153,-99.3576"/>
</g>
<!-- Node3 -->
<g id="node3" class="node"><title>Node3</title>
<g id="a_node3"><a xlink:href="classpartition_1_1_partition.html#a4a440dcaeb42e05a52a46405eb30d36e" target="_top" xlink:title=" ">
<polygon fill="white" stroke="black" points="185,-49.5 185,-79.5 278,-79.5 278,-49.5 185,-49.5"/>
<text text-anchor="start" x="193" y="-67.5" font-family="Helvetica,sans-Serif" font-size="10.00">partition::Partition</text>
<text text-anchor="middle" x="231.5" y="-56.5" font-family="Helvetica,sans-Serif" font-size="10.00">::getNumCluster</text>
</a>
</g>
</g>
<!-- Node1&#45;&gt;Node3 -->
<g id="edge2" class="edge"><title>Node1&#45;&gt;Node3</title>
<path fill="none" stroke="midnightblue" d="M149.368,-64.5C157.811,-64.5 166.312,-64.5 174.468,-64.5"/>
<polygon fill="midnightblue" stroke="midnightblue" points="174.585,-68.0001 184.585,-64.5 174.585,-61.0001 174.585,-68.0001"/>
</g>
<!-- Node4 -->
<g id="node4" class="node"><title>Node4</title>
<g id="a_node4"><a xlink:href="classpartition_1_1_partition.html#a96660ce61740ab0287189b21833eccdf" target="_top" xlink:title=" ">
<polygon fill="white" stroke="black" points="185,-0.5 185,-30.5 278,-30.5 278,-0.5 185,-0.5"/>
<text text-anchor="start" x="193" y="-18.5" font-family="Helvetica,sans-Serif" font-size="10.00">partition::Partition</text>
<text text-anchor="middle" x="231.5" y="-7.5" font-family="Helvetica,sans-Serif" font-size="10.00">::next</text>
</a>
</g>
</g>
<!-- Node1&#45;&gt;Node4 -->
<g id="edge3" class="edge"><title>Node1&#45;&gt;Node4</title>
<path fill="none" stroke="midnightblue" d="M105.754,-54.936C125.411,-48.7217 151.627,-40.4342 174.951,-33.0607"/>
<polygon fill="midnightblue" stroke="midnightblue" points="176.263,-36.3168 184.743,-29.9653 174.153,-29.6424 176.263,-36.3168"/>
</g>
</g>
</svg>
