<?xml version="1.0" encoding="UTF-8" standalone="no"?>
<!DOCTYPE svg PUBLIC "-//W3C//DTD SVG 1.1//EN"
 "http://www.w3.org/Graphics/SVG/1.1/DTD/svg11.dtd">
<!-- Generated by graphviz version 2.38.0 (20140413.2041)
 -->
<!-- Title: um::silhouette Pages: 1 -->
<svg width="277pt" height="361pt"
 viewBox="0.00 0.00 277.00 361.00" xmlns="http://www.w3.org/2000/svg" xmlns:xlink="http://www.w3.org/1999/xlink">
<g id="graph0" class="graph" transform="scale(1 1) rotate(0) translate(4 357)">
<title>um::silhouette</title>
<polygon fill="white" stroke="none" points="-4,4 -4,-357 273,-357 273,4 -4,4"/>
<!-- Node698 -->
<g id="node1" class="node"><title>Node698</title>
<polygon fill="#bfbfbf" stroke="black" points="0,-177 0,-196 79,-196 79,-177 0,-177"/>
<text text-anchor="middle" x="39.5" y="-184" font-family="Helvetica,sans-Serif" font-size="10.00">um::silhouette</text>
</g>
<!-- Node699 -->
<g id="node2" class="node"><title>Node699</title>
<g id="a_node2"><a xlink:href="classds_1_1_iterator_partition_linked.html#ad171cb96653fadaec272389381a4f8b4" target="_top" xlink:title="ds::IteratorPartitionLinked\l::begin">
<polygon fill="white" stroke="black" points="126.5,-322.5 126.5,-352.5 257.5,-352.5 257.5,-322.5 126.5,-322.5"/>
<text text-anchor="start" x="134.5" y="-340.5" font-family="Helvetica,sans-Serif" font-size="10.00">ds::IteratorPartitionLinked</text>
<text text-anchor="middle" x="192" y="-329.5" font-family="Helvetica,sans-Serif" font-size="10.00">::begin</text>
</a>
</g>
</g>
<!-- Node698&#45;&gt;Node699 -->
<g id="edge1" class="edge"><title>Node698&#45;&gt;Node699</title>
<path fill="none" stroke="midnightblue" d="M43.5883,-196.308C51.509,-219.885 74.7996,-280.17 115,-312.5 117.084,-314.176 119.284,-315.741 121.571,-317.202"/>
<polygon fill="midnightblue" stroke="midnightblue" points="120.326,-320.516 130.762,-322.342 123.742,-314.406 120.326,-320.516"/>
</g>
<!-- Node700 -->
<g id="node3" class="node"><title>Node700</title>
<g id="a_node3"><a xlink:href="namespaceinout.html#a0c10a45877a347dec0d4ec4e5b05b828" target="_top" xlink:title="inout::containerprint">
<polygon fill="white" stroke="black" points="140.5,-284 140.5,-303 243.5,-303 243.5,-284 140.5,-284"/>
<text text-anchor="middle" x="192" y="-291" font-family="Helvetica,sans-Serif" font-size="10.00">inout::containerprint</text>
</a>
</g>
</g>
<!-- Node698&#45;&gt;Node700 -->
<g id="edge2" class="edge"><title>Node698&#45;&gt;Node700</title>
<path fill="none" stroke="midnightblue" d="M45.8553,-196.157C56.5116,-214.437 82.1984,-254.089 115,-274.5 119.763,-277.464 124.965,-279.966 130.34,-282.078"/>
<polygon fill="midnightblue" stroke="midnightblue" points="129.549,-285.509 140.144,-285.475 131.841,-278.894 129.549,-285.509"/>
</g>
<!-- Node701 -->
<g id="node4" class="node"><title>Node701</title>
<g id="a_node4"><a xlink:href="classds_1_1_iterator_partition_linked.html#af0e179fae69c0d4f047082ee44783613" target="_top" xlink:title="ds::IteratorPartitionLinked::end">
<polygon fill="white" stroke="black" points="115,-246 115,-265 269,-265 269,-246 115,-246"/>
<text text-anchor="middle" x="192" y="-253" font-family="Helvetica,sans-Serif" font-size="10.00">ds::IteratorPartitionLinked::end</text>
</a>
</g>
</g>
<!-- Node698&#45;&gt;Node701 -->
<g id="edge3" class="edge"><title>Node698&#45;&gt;Node701</title>
<path fill="none" stroke="midnightblue" d="M52.3795,-196.397C66.4734,-207.663 91.0842,-225.876 115,-236.5 120.494,-238.941 126.357,-241.105 132.297,-243.015"/>
<polygon fill="midnightblue" stroke="midnightblue" points="131.733,-246.499 142.316,-245.995 133.729,-239.79 131.733,-246.499"/>
</g>
<!-- Node702 -->
<g id="node5" class="node"><title>Node702</title>
<g id="a_node5"><a xlink:href="classds_1_1_partition_linked.html#a70877e6d118d2f041d9006fdf565daec" target="_top" xlink:title="ds::PartitionLinked\l::getNumInstances">
<polygon fill="white" stroke="black" points="142,-196.5 142,-226.5 242,-226.5 242,-196.5 142,-196.5"/>
<text text-anchor="start" x="150" y="-214.5" font-family="Helvetica,sans-Serif" font-size="10.00">ds::PartitionLinked</text>
<text text-anchor="middle" x="192" y="-203.5" font-family="Helvetica,sans-Serif" font-size="10.00">::getNumInstances</text>
</a>
</g>
</g>
<!-- Node698&#45;&gt;Node702 -->
<g id="edge4" class="edge"><title>Node698&#45;&gt;Node702</title>
<path fill="none" stroke="midnightblue" d="M79.2575,-192.938C95.2018,-195.587 114.03,-198.714 131.642,-201.64"/>
<polygon fill="midnightblue" stroke="midnightblue" points="131.401,-205.148 141.839,-203.334 132.548,-198.242 131.401,-205.148"/>
</g>
<!-- Node703 -->
<g id="node6" class="node"><title>Node703</title>
<g id="a_node6"><a xlink:href="classds_1_1_partition_linked.html#a696f58c4d25fd41adf281d1468440dc9" target="_top" xlink:title="ds::PartitionLinked\l::getNumPartitions">
<polygon fill="white" stroke="black" points="142,-147.5 142,-177.5 242,-177.5 242,-147.5 142,-147.5"/>
<text text-anchor="start" x="150" y="-165.5" font-family="Helvetica,sans-Serif" font-size="10.00">ds::PartitionLinked</text>
<text text-anchor="middle" x="192" y="-154.5" font-family="Helvetica,sans-Serif" font-size="10.00">::getNumPartitions</text>
</a>
</g>
</g>
<!-- Node698&#45;&gt;Node703 -->
<g id="edge5" class="edge"><title>Node698&#45;&gt;Node703</title>
<path fill="none" stroke="midnightblue" d="M79.2575,-180.319C95.2018,-177.777 114.03,-174.774 131.642,-171.966"/>
<polygon fill="midnightblue" stroke="midnightblue" points="132.515,-175.371 141.839,-170.34 131.413,-168.458 132.515,-175.371"/>
</g>
<!-- Node704 -->
<g id="node7" class="node"><title>Node704</title>
<g id="a_node7"><a xlink:href="classds_1_1_iterator_partition_linked.html#a1a031c033d0d2d1c6982ced4e0473831" target="_top" xlink:title="ds::IteratorPartitionLinked\l::getValue">
<polygon fill="white" stroke="black" points="126.5,-98.5 126.5,-128.5 257.5,-128.5 257.5,-98.5 126.5,-98.5"/>
<text text-anchor="start" x="134.5" y="-116.5" font-family="Helvetica,sans-Serif" font-size="10.00">ds::IteratorPartitionLinked</text>
<text text-anchor="middle" x="192" y="-105.5" font-family="Helvetica,sans-Serif" font-size="10.00">::getValue</text>
</a>
</g>
</g>
<!-- Node698&#45;&gt;Node704 -->
<g id="edge6" class="edge"><title>Node698&#45;&gt;Node704</title>
<path fill="none" stroke="midnightblue" d="M53.1017,-176.951C67.4659,-166.414 91.9473,-149.496 115,-138.5 119.66,-136.277 124.569,-134.173 129.557,-132.199"/>
<polygon fill="midnightblue" stroke="midnightblue" points="131.075,-135.368 139.2,-128.569 128.608,-128.816 131.075,-135.368"/>
</g>
<!-- Node705 -->
<g id="node8" class="node"><title>Node705</title>
<g id="a_node8"><a xlink:href="classds_1_1_partition_linked_num_inst.html#aadf6edf749179e9d965dfebfd3967cde" target="_top" xlink:title="ds::PartitionLinkedNumInst\l::getVectorNumInstClusterK">
<polygon fill="white" stroke="black" points="122,-49.5 122,-79.5 262,-79.5 262,-49.5 122,-49.5"/>
<text text-anchor="start" x="130" y="-67.5" font-family="Helvetica,sans-Serif" font-size="10.00">ds::PartitionLinkedNumInst</text>
<text text-anchor="middle" x="192" y="-56.5" font-family="Helvetica,sans-Serif" font-size="10.00">::getVectorNumInstClusterK</text>
</a>
</g>
</g>
<!-- Node698&#45;&gt;Node705 -->
<g id="edge7" class="edge"><title>Node698&#45;&gt;Node705</title>
<path fill="none" stroke="midnightblue" d="M45.2642,-176.98C55.4158,-157.644 81.0508,-113.574 115,-89.5 117.719,-87.5717 120.597,-85.7852 123.579,-84.1309"/>
<polygon fill="midnightblue" stroke="midnightblue" points="125.388,-87.1403 132.785,-79.555 122.272,-80.8719 125.388,-87.1403"/>
</g>
<!-- Node706 -->
<g id="node9" class="node"><title>Node706</title>
<g id="a_node9"><a xlink:href="classds_1_1_iterator_partition_linked.html#a83b887be41c97dc0bdfc47a02abbc383" target="_top" xlink:title="ds::IteratorPartitionLinked\l::next">
<polygon fill="white" stroke="black" points="126.5,-0.5 126.5,-30.5 257.5,-30.5 257.5,-0.5 126.5,-0.5"/>
<text text-anchor="start" x="134.5" y="-18.5" font-family="Helvetica,sans-Serif" font-size="10.00">ds::IteratorPartitionLinked</text>
<text text-anchor="middle" x="192" y="-7.5" font-family="Helvetica,sans-Serif" font-size="10.00">::next</text>
</a>
</g>
</g>
<!-- Node698&#45;&gt;Node706 -->
<g id="edge8" class="edge"><title>Node698&#45;&gt;Node706</title>
<path fill="none" stroke="midnightblue" d="M42.7268,-176.713C49.1656,-150.629 70.2667,-78.8238 115,-40.5 116.984,-38.7999 119.088,-37.2147 121.281,-35.7367"/>
<polygon fill="midnightblue" stroke="midnightblue" points="123.274,-38.6259 130.132,-30.5507 119.735,-32.5863 123.274,-38.6259"/>
</g>
</g>
</svg>
