<?xml version="1.0" encoding="UTF-8" standalone="no"?>
<!DOCTYPE svg PUBLIC "-//W3C//DTD SVG 1.1//EN"
 "http://www.w3.org/Graphics/SVG/1.1/DTD/svg11.dtd">
<!-- Generated by graphviz version 2.38.0 (20140413.2041)
 -->
<!-- Title: gagenericop::onePointCrossover Pages: 1 -->
<svg width="2656pt" height="744pt"
 viewBox="0.00 0.00 2656.00 743.81" xmlns="http://www.w3.org/2000/svg" xmlns:xlink="http://www.w3.org/1999/xlink">
<g id="graph0" class="graph" transform="scale(1 1) rotate(0) translate(4 739.814)">
<title>gagenericop::onePointCrossover</title>
<polygon fill="white" stroke="none" points="-4,4 -4,-739.814 2652,-739.814 2652,4 -4,4"/>
<!-- Node192 -->
<g id="node1" class="node"><title>Node192</title>
<polygon fill="#bfbfbf" stroke="black" points="0,-263.314 0,-282.314 167,-282.314 167,-263.314 0,-263.314"/>
<text text-anchor="middle" x="83.5" y="-270.314" font-family="Helvetica,sans-Serif" font-size="10.00">gagenericop::onePointCrossover</text>
</g>
<!-- Node193 -->
<g id="node2" class="node"><title>Node193</title>
<g id="a_node2"><a xlink:href="namespaceinterfacesse.html#a925f44ed84d40e9af5050fa0e1373396" target="_top" xlink:title="copy array aoarrayt_x in aoarrayt_y of type T ">
<polygon fill="white" stroke="black" points="1652,-716.314 1652,-735.314 1751,-735.314 1751,-716.314 1652,-716.314"/>
<text text-anchor="middle" x="1701.5" y="-723.314" font-family="Helvetica,sans-Serif" font-size="10.00">interfacesse::copy</text>
</a>
</g>
</g>
<!-- Node192&#45;&gt;Node193 -->
<g id="edge1" class="edge"><title>Node192&#45;&gt;Node193</title>
<path fill="none" stroke="midnightblue" d="M89.9578,-282.511C121.093,-336.42 282.16,-596.814 488.5,-596.814 488.5,-596.814 488.5,-596.814 1307.5,-596.814 1455.16,-596.814 1479.34,-665.153 1621,-706.814 1629.41,-709.287 1638.39,-711.672 1647.17,-713.868"/>
<polygon fill="midnightblue" stroke="midnightblue" points="1646.42,-717.288 1656.96,-716.262 1648.08,-710.488 1646.42,-717.288"/>
</g>
<!-- Node200 -->
<g id="node9" class="node"><title>Node200</title>
<g id="a_node9"><a xlink:href="namespacegagenericop.html#adccb7a95c6adf272789ddc87eb4c5181" target="_top" xlink:title="GAGRdist Definition 2. . ">
<polygon fill="white" stroke="black" points="224,-307.314 224,-326.314 349,-326.314 349,-307.314 224,-307.314"/>
<text text-anchor="middle" x="286.5" y="-314.314" font-family="Helvetica,sans-Serif" font-size="10.00">gagenericop::GAGRdist</text>
</a>
</g>
</g>
<!-- Node192&#45;&gt;Node200 -->
<g id="edge8" class="edge"><title>Node192&#45;&gt;Node200</title>
<path fill="none" stroke="midnightblue" d="M128.114,-282.361C158.668,-289.05 199.681,-298.028 232.18,-305.142"/>
<polygon fill="midnightblue" stroke="midnightblue" points="231.454,-308.566 241.971,-307.285 232.951,-301.728 231.454,-308.566"/>
</g>
<!-- Node222 -->
<g id="node31" class="node"><title>Node222</title>
<g id="a_node31"><a xlink:href="classgaencode_1_1_chrom_variable_length.html#ad2f7938aabc7bb8175344e36b372934d" target="_top" xlink:title="gaencode::ChromVariableLength\l::getString">
<polygon fill="white" stroke="black" points="203,-257.814 203,-287.814 370,-287.814 370,-257.814 203,-257.814"/>
<text text-anchor="start" x="211" y="-275.814" font-family="Helvetica,sans-Serif" font-size="10.00">gaencode::ChromVariableLength</text>
<text text-anchor="middle" x="286.5" y="-264.814" font-family="Helvetica,sans-Serif" font-size="10.00">::getString</text>
</a>
</g>
</g>
<!-- Node192&#45;&gt;Node222 -->
<g id="edge35" class="edge"><title>Node192&#45;&gt;Node222</title>
<path fill="none" stroke="midnightblue" d="M167.125,-272.814C175.607,-272.814 184.266,-272.814 192.848,-272.814"/>
<polygon fill="midnightblue" stroke="midnightblue" points="192.872,-276.314 202.872,-272.814 192.871,-269.314 192.872,-276.314"/>
</g>
<!-- Node223 -->
<g id="node32" class="node"><title>Node223</title>
<g id="a_node32"><a xlink:href="classgaencode_1_1_chrom_variable_length.html#a4f49696aa5d8f038cb8df6ce81f40a93" target="_top" xlink:title="gaencode::ChromVariableLength\l::getStringSize">
<polygon fill="white" stroke="black" points="203,-208.814 203,-238.814 370,-238.814 370,-208.814 203,-208.814"/>
<text text-anchor="start" x="211" y="-226.814" font-family="Helvetica,sans-Serif" font-size="10.00">gaencode::ChromVariableLength</text>
<text text-anchor="middle" x="286.5" y="-215.814" font-family="Helvetica,sans-Serif" font-size="10.00">::getStringSize</text>
</a>
</g>
</g>
<!-- Node192&#45;&gt;Node223 -->
<g id="edge36" class="edge"><title>Node192&#45;&gt;Node223</title>
<path fill="none" stroke="midnightblue" d="M123.732,-263.25C149.401,-256.992 183.694,-248.632 214.099,-241.22"/>
<polygon fill="midnightblue" stroke="midnightblue" points="214.931,-244.62 223.818,-238.851 213.273,-237.819 214.931,-244.62"/>
</g>
<!-- Node224 -->
<g id="node33" class="node"><title>Node224</title>
<g id="a_node33"><a xlink:href="classgaencode_1_1_chrom_variable_length.html#ad9aade851fa130ddc0fb16a1dd9a15e1" target="_top" xlink:title="gaencode::ChromVariableLength\l::print">
<polygon fill="white" stroke="black" points="406,-26.8139 406,-56.8139 573,-56.8139 573,-26.8139 406,-26.8139"/>
<text text-anchor="start" x="414" y="-44.8139" font-family="Helvetica,sans-Serif" font-size="10.00">gaencode::ChromVariableLength</text>
<text text-anchor="middle" x="489.5" y="-33.8139" font-family="Helvetica,sans-Serif" font-size="10.00">::print</text>
</a>
</g>
</g>
<!-- Node192&#45;&gt;Node224 -->
<g id="edge37" class="edge"><title>Node192&#45;&gt;Node224</title>
<path fill="none" stroke="midnightblue" d="M99.7015,-263.134C122.118,-248.932 165.447,-221.756 203,-199.814 291.083,-148.347 396.518,-91.1046 451.307,-61.6796"/>
<polygon fill="midnightblue" stroke="midnightblue" points="453.136,-64.6701 460.294,-56.8586 449.827,-58.5016 453.136,-64.6701"/>
</g>
<!-- Node194 -->
<g id="node3" class="node"><title>Node194</title>
<g id="a_node3"><a xlink:href="namespaceinterfacesse.html#afaa45a2a27710ea2dfa979289cf4961d" target="_top" xlink:title="swap items of aoarrayt_y to aiarrayt_x ">
<polygon fill="white" stroke="black" points="1845,-716.314 1845,-735.314 1946,-735.314 1946,-716.314 1845,-716.314"/>
<text text-anchor="middle" x="1895.5" y="-723.314" font-family="Helvetica,sans-Serif" font-size="10.00">interfacesse::swap</text>
</a>
</g>
</g>
<!-- Node193&#45;&gt;Node194 -->
<g id="edge2" class="edge"><title>Node193&#45;&gt;Node194</title>
<path fill="none" stroke="midnightblue" d="M1751.45,-725.814C1776.86,-725.814 1808.13,-725.814 1834.94,-725.814"/>
<polygon fill="midnightblue" stroke="midnightblue" points="1834.98,-729.314 1844.98,-725.814 1834.98,-722.314 1834.98,-729.314"/>
</g>
<!-- Node195 -->
<g id="node4" class="node"><title>Node195</title>
<g id="a_node4"><a xlink:href="namespaceinterfacesse.html#a2f42addf86fc8b9cd0c6620217b8a2db" target="_top" xlink:title="swap items of aoarrayt_y to aiarrayt_x ">
<polygon fill="white" stroke="black" points="2009,-716.314 2009,-735.314 2101,-735.314 2101,-716.314 2009,-716.314"/>
<text text-anchor="middle" x="2055" y="-723.314" font-family="Helvetica,sans-Serif" font-size="10.00">interfacesse::dot</text>
</a>
</g>
</g>
<!-- Node194&#45;&gt;Node195 -->
<g id="edge3" class="edge"><title>Node194&#45;&gt;Node195</title>
<path fill="none" stroke="midnightblue" d="M1946.33,-725.814C1962.9,-725.814 1981.45,-725.814 1998.43,-725.814"/>
<polygon fill="midnightblue" stroke="midnightblue" points="1998.76,-729.314 2008.76,-725.814 1998.76,-722.314 1998.76,-729.314"/>
</g>
<!-- Node196 -->
<g id="node5" class="node"><title>Node196</title>
<g id="a_node5"><a xlink:href="namespaceinterfacesse.html#a25f6950d589b92fd5bcf2007fb3fae19" target="_top" xlink:title="interfacesse::sum">
<polygon fill="white" stroke="black" points="2137,-716.314 2137,-735.314 2233,-735.314 2233,-716.314 2137,-716.314"/>
<text text-anchor="middle" x="2185" y="-723.314" font-family="Helvetica,sans-Serif" font-size="10.00">interfacesse::sum</text>
</a>
</g>
</g>
<!-- Node195&#45;&gt;Node196 -->
<g id="edge4" class="edge"><title>Node195&#45;&gt;Node196</title>
<path fill="none" stroke="midnightblue" d="M2101.13,-725.814C2109.32,-725.814 2117.96,-725.814 2126.44,-725.814"/>
<polygon fill="midnightblue" stroke="midnightblue" points="2126.68,-729.314 2136.68,-725.814 2126.68,-722.314 2126.68,-729.314"/>
</g>
<!-- Node197 -->
<g id="node6" class="node"><title>Node197</title>
<g id="a_node6"><a xlink:href="namespaceinterfacesse.html#a9dd5fb43ad8a83ee5cb2f5ba1bb2085b" target="_top" xlink:title="interfacesse::axpy">
<polygon fill="white" stroke="black" points="2269,-716.314 2269,-735.314 2368,-735.314 2368,-716.314 2269,-716.314"/>
<text text-anchor="middle" x="2318.5" y="-723.314" font-family="Helvetica,sans-Serif" font-size="10.00">interfacesse::axpy</text>
</a>
</g>
</g>
<!-- Node196&#45;&gt;Node197 -->
<g id="edge5" class="edge"><title>Node196&#45;&gt;Node197</title>
<path fill="none" stroke="midnightblue" d="M2233.1,-725.814C2241.47,-725.814 2250.28,-725.814 2258.92,-725.814"/>
<polygon fill="midnightblue" stroke="midnightblue" points="2258.95,-729.314 2268.95,-725.814 2258.95,-722.314 2258.95,-729.314"/>
</g>
<!-- Node198 -->
<g id="node7" class="node"><title>Node198</title>
<g id="a_node7"><a xlink:href="namespaceinterfacesse.html#ae3f94c42a59db65b2941dbfc9f449ea1" target="_top" xlink:title="function xAXPY of blas for doubles vectors ">
<polygon fill="white" stroke="black" points="2404,-716.314 2404,-735.314 2516,-735.314 2516,-716.314 2404,-716.314"/>
<text text-anchor="middle" x="2460" y="-723.314" font-family="Helvetica,sans-Serif" font-size="10.00">interfacesse::axpyInv</text>
</a>
</g>
</g>
<!-- Node197&#45;&gt;Node198 -->
<g id="edge6" class="edge"><title>Node197&#45;&gt;Node198</title>
<path fill="none" stroke="midnightblue" d="M2368.29,-725.814C2376.54,-725.814 2385.21,-725.814 2393.79,-725.814"/>
<polygon fill="midnightblue" stroke="midnightblue" points="2393.8,-729.314 2403.8,-725.814 2393.8,-722.314 2393.8,-729.314"/>
</g>
<!-- Node199 -->
<g id="node8" class="node"><title>Node199</title>
<g id="a_node8"><a xlink:href="namespaceinterfacesse.html#a144ebf70bf38495c3de1aca2c8365e08" target="_top" xlink:title="scal items of the array of type T ">
<polygon fill="white" stroke="black" points="2552,-716.314 2552,-735.314 2648,-735.314 2648,-716.314 2552,-716.314"/>
<text text-anchor="middle" x="2600" y="-723.314" font-family="Helvetica,sans-Serif" font-size="10.00">interfacesse::scal</text>
</a>
</g>
</g>
<!-- Node198&#45;&gt;Node199 -->
<g id="edge7" class="edge"><title>Node198&#45;&gt;Node199</title>
<path fill="none" stroke="midnightblue" d="M2516.33,-725.814C2524.65,-725.814 2533.24,-725.814 2541.6,-725.814"/>
<polygon fill="midnightblue" stroke="midnightblue" points="2541.65,-729.314 2551.65,-725.814 2541.65,-722.314 2541.65,-729.314"/>
</g>
<!-- Node201 -->
<g id="node10" class="node"><title>Node201</title>
<g id="a_node10"><a xlink:href="namespacegagenericop.html#a6284f3552c374e022d93d4e13e04e170" target="_top" xlink:title="GAGRx1x2bar Definition 3. . ">
<polygon fill="white" stroke="black" points="416.5,-345.314 416.5,-364.314 562.5,-364.314 562.5,-345.314 416.5,-345.314"/>
<text text-anchor="middle" x="489.5" y="-352.314" font-family="Helvetica,sans-Serif" font-size="10.00">gagenericop::GAGRx1x2bar</text>
</a>
</g>
</g>
<!-- Node200&#45;&gt;Node201 -->
<g id="edge9" class="edge"><title>Node200&#45;&gt;Node201</title>
<path fill="none" stroke="midnightblue" d="M337.961,-326.354C365.32,-331.526 399.32,-337.954 428.082,-343.392"/>
<polygon fill="midnightblue" stroke="midnightblue" points="427.542,-346.851 438.018,-345.27 428.842,-339.973 427.542,-346.851"/>
</g>
<!-- Node209 -->
<g id="node18" class="node"><title>Node209</title>
<g id="a_node18"><a xlink:href="classgaencode_1_1_chrom_fixed_length.html#a4d1d15f6be16c0d0a23824033993aa71" target="_top" xlink:title="gaencode::ChromFixedLength\l::getString">
<polygon fill="white" stroke="black" points="1624,-39.8139 1624,-69.8139 1779,-69.8139 1779,-39.8139 1624,-39.8139"/>
<text text-anchor="start" x="1632" y="-57.8139" font-family="Helvetica,sans-Serif" font-size="10.00">gaencode::ChromFixedLength</text>
<text text-anchor="middle" x="1701.5" y="-46.8139" font-family="Helvetica,sans-Serif" font-size="10.00">::getString</text>
</a>
</g>
</g>
<!-- Node200&#45;&gt;Node209 -->
<g id="edge34" class="edge"><title>Node200&#45;&gt;Node209</title>
<path fill="none" stroke="midnightblue" d="M331.751,-307.261C344.172,-304.407 357.654,-301.145 370,-297.814 509.047,-260.293 535.479,-201.814 679.5,-201.814 679.5,-201.814 679.5,-201.814 1307.5,-201.814 1457.17,-201.814 1479.57,-127.815 1621,-78.8139 1626.81,-76.8005 1632.89,-74.7917 1638.99,-72.8419"/>
<polygon fill="midnightblue" stroke="midnightblue" points="1640.07,-76.1724 1648.56,-69.8344 1637.97,-69.4946 1640.07,-76.1724"/>
</g>
<!-- Node202 -->
<g id="node11" class="node"><title>Node202</title>
<g id="a_node11"><a xlink:href="namespacegagenericop.html#ab2a1d4c164a683365b967f6b628a2aa3" target="_top" xlink:title="GAGRx1x2up Definition 4. . ">
<polygon fill="white" stroke="black" points="609,-345.314 609,-364.314 752,-364.314 752,-345.314 609,-345.314"/>
<text text-anchor="middle" x="680.5" y="-352.314" font-family="Helvetica,sans-Serif" font-size="10.00">gagenericop::GAGRx1x2up</text>
</a>
</g>
</g>
<!-- Node201&#45;&gt;Node202 -->
<g id="edge10" class="edge"><title>Node201&#45;&gt;Node202</title>
<path fill="none" stroke="midnightblue" d="M562.762,-354.814C574.449,-354.814 586.617,-354.814 598.495,-354.814"/>
<polygon fill="midnightblue" stroke="midnightblue" points="598.838,-358.314 608.838,-354.814 598.838,-351.314 598.838,-358.314"/>
</g>
<!-- Node203 -->
<g id="node12" class="node"><title>Node203</title>
<g id="a_node12"><a xlink:href="namespacegagenericop.html#a6abef6eea408ed118ae420063b36ba17" target="_top" xlink:title="GAGRx1x2down Definition 5. . ">
<polygon fill="white" stroke="black" points="788,-345.314 788,-364.314 945,-364.314 945,-345.314 788,-345.314"/>
<text text-anchor="middle" x="866.5" y="-352.314" font-family="Helvetica,sans-Serif" font-size="10.00">gagenericop::GAGRx1x2down</text>
</a>
</g>
</g>
<!-- Node202&#45;&gt;Node203 -->
<g id="edge11" class="edge"><title>Node202&#45;&gt;Node203</title>
<path fill="none" stroke="midnightblue" d="M752.113,-354.814C760.49,-354.814 769.117,-354.814 777.696,-354.814"/>
<polygon fill="midnightblue" stroke="midnightblue" points="777.726,-358.314 787.726,-354.814 777.726,-351.314 777.726,-358.314"/>
</g>
<!-- Node204 -->
<g id="node13" class="node"><title>Node204</title>
<g id="a_node13"><a xlink:href="namespacegagenericop.html#ac6be127c2fa61f56bd544a1e20e9d4ac" target="_top" xlink:title="GAGRcrossoverpathM1n . ">
<polygon fill="white" stroke="black" points="981,-345.314 981,-364.314 1174,-364.314 1174,-345.314 981,-345.314"/>
<text text-anchor="middle" x="1077.5" y="-352.314" font-family="Helvetica,sans-Serif" font-size="10.00">gagenericop::GAGRcrossoverpathM1n</text>
</a>
</g>
</g>
<!-- Node203&#45;&gt;Node204 -->
<g id="edge12" class="edge"><title>Node203&#45;&gt;Node204</title>
<path fill="none" stroke="midnightblue" d="M945.027,-354.814C953.377,-354.814 961.973,-354.814 970.582,-354.814"/>
<polygon fill="midnightblue" stroke="midnightblue" points="970.681,-358.314 980.681,-354.814 970.681,-351.314 970.681,-358.314"/>
</g>
<!-- Node205 -->
<g id="node14" class="node"><title>Node205</title>
<g id="a_node14"><a xlink:href="namespacegagenericop.html#a8b8c62724e80570f9e1bba39d350c845" target="_top" xlink:title="GAGRcrossoverpathM2n . ">
<polygon fill="white" stroke="black" points="1210,-323.314 1210,-342.314 1403,-342.314 1403,-323.314 1210,-323.314"/>
<text text-anchor="middle" x="1306.5" y="-330.314" font-family="Helvetica,sans-Serif" font-size="10.00">gagenericop::GAGRcrossoverpathM2n</text>
</a>
</g>
</g>
<!-- Node204&#45;&gt;Node205 -->
<g id="edge13" class="edge"><title>Node204&#45;&gt;Node205</title>
<path fill="none" stroke="midnightblue" d="M1174.11,-345.548C1182.65,-344.721 1191.32,-343.88 1199.93,-343.045"/>
<polygon fill="midnightblue" stroke="midnightblue" points="1200.38,-346.518 1210,-342.069 1199.71,-339.55 1200.38,-346.518"/>
</g>
<!-- Node206 -->
<g id="node15" class="node"><title>Node206</title>
<g id="a_node15"><a xlink:href="namespacegagenericop.html#a511232c4212e12892effb533b38f871a" target="_top" xlink:title="gagenericop::pathCrossover">
<polygon fill="white" stroke="black" points="1439,-361.314 1439,-380.314 1585,-380.314 1585,-361.314 1439,-361.314"/>
<text text-anchor="middle" x="1512" y="-368.314" font-family="Helvetica,sans-Serif" font-size="10.00">gagenericop::pathCrossover</text>
</a>
</g>
</g>
<!-- Node205&#45;&gt;Node206 -->
<g id="edge14" class="edge"><title>Node205&#45;&gt;Node206</title>
<path fill="none" stroke="midnightblue" d="M1394.39,-342.354C1422.87,-347.424 1452.94,-353.508 1475.41,-358.893"/>
<polygon fill="midnightblue" stroke="midnightblue" points="1474.61,-362.302 1485.16,-361.311 1476.3,-355.508 1474.61,-362.302"/>
</g>
<!-- Node206&#45;&gt;Node193 -->
<g id="edge17" class="edge"><title>Node206&#45;&gt;Node193</title>
<path fill="none" stroke="midnightblue" d="M1516.46,-380.483C1527.12,-410.407 1560.26,-504.212 1585,-582.814 1602.23,-637.552 1579.46,-667.22 1621,-706.814 1626.99,-712.522 1634.37,-716.615 1642.2,-719.534"/>
<polygon fill="midnightblue" stroke="midnightblue" points="1641.33,-722.927 1651.92,-722.54 1643.4,-716.24 1641.33,-722.927"/>
</g>
<!-- Node206&#45;&gt;Node201 -->
<g id="edge19" class="edge"><title>Node206&#45;&gt;Node201</title>
<path fill="none" stroke="midnightblue" d="M1444.11,-380.354C1359.26,-391.61 1208.34,-408.814 1078.5,-408.814 865.5,-408.814 865.5,-408.814 865.5,-408.814 747.952,-408.814 611.773,-382.498 540.261,-366.608"/>
<polygon fill="midnightblue" stroke="midnightblue" points="540.713,-363.123 530.189,-364.344 539.178,-369.952 540.713,-363.123"/>
</g>
<!-- Node206&#45;&gt;Node204 -->
<g id="edge30" class="edge"><title>Node206&#45;&gt;Node204</title>
<path fill="none" stroke="midnightblue" d="M1438.71,-368.14C1369.3,-365.572 1263.65,-361.663 1184.69,-358.742"/>
<polygon fill="midnightblue" stroke="midnightblue" points="1184.34,-355.227 1174.22,-358.355 1184.08,-362.222 1184.34,-355.227"/>
</g>
<!-- Node206&#45;&gt;Node205 -->
<g id="edge33" class="edge"><title>Node206&#45;&gt;Node205</title>
<path fill="none" stroke="midnightblue" d="M1438.98,-363.852C1406.69,-358.409 1370.02,-351.166 1343.62,-344.861"/>
<polygon fill="midnightblue" stroke="midnightblue" points="1344.24,-341.408 1333.69,-342.406 1342.56,-348.203 1344.24,-341.408"/>
</g>
<!-- Node207 -->
<g id="node16" class="node"><title>Node207</title>
<g id="a_node16"><a xlink:href="classgaencode_1_1_chrom_fixed_length.html#a2d0b4e4d46c2f224ce34cf795407b407" target="_top" xlink:title="gaencode::ChromFixedLength\l::print">
<polygon fill="white" stroke="black" points="1624,-519.814 1624,-549.814 1779,-549.814 1779,-519.814 1624,-519.814"/>
<text text-anchor="start" x="1632" y="-537.814" font-family="Helvetica,sans-Serif" font-size="10.00">gaencode::ChromFixedLength</text>
<text text-anchor="middle" x="1701.5" y="-526.814" font-family="Helvetica,sans-Serif" font-size="10.00">::print</text>
</a>
</g>
</g>
<!-- Node206&#45;&gt;Node207 -->
<g id="edge15" class="edge"><title>Node206&#45;&gt;Node207</title>
<path fill="none" stroke="midnightblue" d="M1517.79,-380.643C1530.73,-406.143 1568.93,-474.928 1621,-510.814 1623.26,-512.371 1625.62,-513.829 1628.06,-515.195"/>
<polygon fill="midnightblue" stroke="midnightblue" points="1626.66,-518.407 1637.17,-519.744 1629.79,-512.145 1626.66,-518.407"/>
</g>
<!-- Node208 -->
<g id="node17" class="node"><title>Node208</title>
<g id="a_node17"><a xlink:href="classgaencode_1_1_chrom_fixed_length.html#a406e67fa48d6cdfc7a01f0c6e04f373b" target="_top" xlink:title="gaencode::ChromFixedLength\l::stcgetStringSize">
<polygon fill="white" stroke="black" points="1624,-470.814 1624,-500.814 1779,-500.814 1779,-470.814 1624,-470.814"/>
<text text-anchor="start" x="1632" y="-488.814" font-family="Helvetica,sans-Serif" font-size="10.00">gaencode::ChromFixedLength</text>
<text text-anchor="middle" x="1701.5" y="-477.814" font-family="Helvetica,sans-Serif" font-size="10.00">::stcgetStringSize</text>
</a>
</g>
</g>
<!-- Node206&#45;&gt;Node208 -->
<g id="edge16" class="edge"><title>Node206&#45;&gt;Node208</title>
<path fill="none" stroke="midnightblue" d="M1521.84,-380.538C1539.14,-398.994 1579.4,-439.265 1621,-461.814 1624.3,-463.602 1627.75,-465.275 1631.29,-466.837"/>
<polygon fill="midnightblue" stroke="midnightblue" points="1630.22,-470.184 1640.81,-470.718 1632.87,-463.702 1630.22,-470.184"/>
</g>
<!-- Node206&#45;&gt;Node209 -->
<g id="edge18" class="edge"><title>Node206&#45;&gt;Node209</title>
<path fill="none" stroke="midnightblue" d="M1518.16,-361.275C1530.94,-337.374 1564.48,-272.758 1585,-215.814 1606.35,-156.587 1577.3,-124.129 1621,-78.8139 1621.93,-77.8507 1622.89,-76.9259 1623.89,-76.0378"/>
<polygon fill="midnightblue" stroke="midnightblue" points="1626.19,-78.6914 1632.14,-69.9245 1622.02,-73.068 1626.19,-78.6914"/>
</g>
<!-- Node210 -->
<g id="node19" class="node"><title>Node210</title>
<g id="a_node19"><a xlink:href="classgaencode_1_1_chrom_fixed_length.html#aac60dd08cf0d29f08845a6381d84edad" target="_top" xlink:title="gaencode::ChromFixedLength\l::getStringSize">
<polygon fill="white" stroke="black" points="1624,-421.814 1624,-451.814 1779,-451.814 1779,-421.814 1624,-421.814"/>
<text text-anchor="start" x="1632" y="-439.814" font-family="Helvetica,sans-Serif" font-size="10.00">gaencode::ChromFixedLength</text>
<text text-anchor="middle" x="1701.5" y="-428.814" font-family="Helvetica,sans-Serif" font-size="10.00">::getStringSize</text>
</a>
</g>
</g>
<!-- Node206&#45;&gt;Node210 -->
<g id="edge20" class="edge"><title>Node206&#45;&gt;Node210</title>
<path fill="none" stroke="midnightblue" d="M1536.88,-380.335C1558.66,-388.914 1591.82,-401.696 1621,-411.814 1627.52,-414.075 1634.37,-416.361 1641.2,-418.585"/>
<polygon fill="midnightblue" stroke="midnightblue" points="1640.57,-422.057 1651.16,-421.788 1642.71,-415.394 1640.57,-422.057"/>
</g>
<!-- Node211 -->
<g id="node20" class="node"><title>Node211</title>
<g id="a_node20"><a xlink:href="namespaceinout.html#a0c10a45877a347dec0d4ec4e5b05b828" target="_top" xlink:title="inout::containerprint">
<polygon fill="white" stroke="black" points="1650,-383.314 1650,-402.314 1753,-402.314 1753,-383.314 1650,-383.314"/>
<text text-anchor="middle" x="1701.5" y="-390.314" font-family="Helvetica,sans-Serif" font-size="10.00">inout::containerprint</text>
</a>
</g>
</g>
<!-- Node206&#45;&gt;Node211 -->
<g id="edge21" class="edge"><title>Node206&#45;&gt;Node211</title>
<path fill="none" stroke="midnightblue" d="M1585.22,-379.288C1603.25,-381.403 1622.39,-383.649 1639.8,-385.691"/>
<polygon fill="midnightblue" stroke="midnightblue" points="1639.48,-389.178 1649.82,-386.868 1640.3,-382.226 1639.48,-389.178"/>
</g>
<!-- Node212 -->
<g id="node21" class="node"><title>Node212</title>
<g id="a_node21"><a xlink:href="classgaencode_1_1_chrom_fixed_length.html#a5398efa14d86ed2fda30d2fc6f3d1089" target="_top" xlink:title="gaencode::ChromFixedLength\l::setString">
<polygon fill="white" stroke="black" points="1624,-333.814 1624,-363.814 1779,-363.814 1779,-333.814 1624,-333.814"/>
<text text-anchor="start" x="1632" y="-351.814" font-family="Helvetica,sans-Serif" font-size="10.00">gaencode::ChromFixedLength</text>
<text text-anchor="middle" x="1701.5" y="-340.814" font-family="Helvetica,sans-Serif" font-size="10.00">::setString</text>
</a>
</g>
</g>
<!-- Node206&#45;&gt;Node212 -->
<g id="edge22" class="edge"><title>Node206&#45;&gt;Node212</title>
<path fill="none" stroke="midnightblue" d="M1585.22,-362.34C1594.64,-361.235 1604.37,-360.094 1613.99,-358.965"/>
<polygon fill="midnightblue" stroke="midnightblue" points="1614.44,-362.436 1623.96,-357.795 1613.62,-355.484 1614.44,-362.436"/>
</g>
<!-- Node213 -->
<g id="node22" class="node"><title>Node213</title>
<g id="a_node22"><a xlink:href="classgaencode_1_1_chromosome_base.html#ab136d6f70ea068097d764e5bc34015e1" target="_top" xlink:title="gaencode::ChromosomeBase\l::setFitness">
<polygon fill="white" stroke="black" points="1624,-284.814 1624,-314.814 1779,-314.814 1779,-284.814 1624,-284.814"/>
<text text-anchor="start" x="1632" y="-302.814" font-family="Helvetica,sans-Serif" font-size="10.00">gaencode::ChromosomeBase</text>
<text text-anchor="middle" x="1701.5" y="-291.814" font-family="Helvetica,sans-Serif" font-size="10.00">::setFitness</text>
</a>
</g>
</g>
<!-- Node206&#45;&gt;Node213 -->
<g id="edge23" class="edge"><title>Node206&#45;&gt;Node213</title>
<path fill="none" stroke="midnightblue" d="M1533.86,-361.206C1555.44,-351.442 1590.22,-336.178 1621,-324.814 1627.2,-322.525 1633.72,-320.256 1640.25,-318.074"/>
<polygon fill="midnightblue" stroke="midnightblue" points="1641.37,-321.389 1649.78,-314.946 1639.19,-314.738 1641.37,-321.389"/>
</g>
<!-- Node215 -->
<g id="node24" class="node"><title>Node215</title>
<g id="a_node24"><a xlink:href="classgaencode_1_1_chromosome_base.html#a6e201d174946aea43c98dcde4a0088f8" target="_top" xlink:title="gaencode::ChromosomeBase\l::getFitness">
<polygon fill="white" stroke="black" points="1624,-235.814 1624,-265.814 1779,-265.814 1779,-235.814 1624,-235.814"/>
<text text-anchor="start" x="1632" y="-253.814" font-family="Helvetica,sans-Serif" font-size="10.00">gaencode::ChromosomeBase</text>
<text text-anchor="middle" x="1701.5" y="-242.814" font-family="Helvetica,sans-Serif" font-size="10.00">::getFitness</text>
</a>
</g>
</g>
<!-- Node206&#45;&gt;Node215 -->
<g id="edge25" class="edge"><title>Node206&#45;&gt;Node215</title>
<path fill="none" stroke="midnightblue" d="M1521.25,-361.274C1538.12,-342.325 1578.57,-299.715 1621,-275.814 1624.86,-273.638 1628.94,-271.625 1633.12,-269.766"/>
<polygon fill="midnightblue" stroke="midnightblue" points="1634.5,-272.985 1642.41,-265.943 1631.84,-266.512 1634.5,-272.985"/>
</g>
<!-- Node216 -->
<g id="node25" class="node"><title>Node216</title>
<g id="a_node25"><a xlink:href="classgaencode_1_1_chromosome_base.html#a0c0f339b486fb7d097d2afac2539ddc8" target="_top" xlink:title="gaencode::ChromosomeBase\l::setObjetiveFunc">
<polygon fill="white" stroke="black" points="1624,-186.814 1624,-216.814 1779,-216.814 1779,-186.814 1624,-186.814"/>
<text text-anchor="start" x="1632" y="-204.814" font-family="Helvetica,sans-Serif" font-size="10.00">gaencode::ChromosomeBase</text>
<text text-anchor="middle" x="1701.5" y="-193.814" font-family="Helvetica,sans-Serif" font-size="10.00">::setObjetiveFunc</text>
</a>
</g>
</g>
<!-- Node206&#45;&gt;Node216 -->
<g id="edge26" class="edge"><title>Node206&#45;&gt;Node216</title>
<path fill="none" stroke="midnightblue" d="M1517.55,-361.114C1530.18,-335.272 1568.2,-264.188 1621,-226.814 1623.72,-224.891 1626.59,-223.112 1629.56,-221.467"/>
<polygon fill="midnightblue" stroke="midnightblue" points="1631.34,-224.493 1638.74,-216.92 1628.23,-218.22 1631.34,-224.493"/>
</g>
<!-- Node217 -->
<g id="node26" class="node"><title>Node217</title>
<g id="a_node26"><a xlink:href="classgaencode_1_1_chromosome_base.html#afc3f7dbd72d88157ba37eb8bea29478e" target="_top" xlink:title="gaencode::ChromosomeBase\l::getObjetiveFunc">
<polygon fill="white" stroke="black" points="1624,-137.814 1624,-167.814 1779,-167.814 1779,-137.814 1624,-137.814"/>
<text text-anchor="start" x="1632" y="-155.814" font-family="Helvetica,sans-Serif" font-size="10.00">gaencode::ChromosomeBase</text>
<text text-anchor="middle" x="1701.5" y="-144.814" font-family="Helvetica,sans-Serif" font-size="10.00">::getObjetiveFunc</text>
</a>
</g>
</g>
<!-- Node206&#45;&gt;Node217 -->
<g id="edge27" class="edge"><title>Node206&#45;&gt;Node217</title>
<path fill="none" stroke="midnightblue" d="M1517.29,-361.064C1533.04,-325.608 1588.53,-204.216 1621,-177.814 1623.06,-176.137 1625.24,-174.572 1627.5,-173.111"/>
<polygon fill="midnightblue" stroke="midnightblue" points="1629.61,-175.94 1636.6,-167.979 1626.17,-169.843 1629.61,-175.94"/>
</g>
<!-- Node218 -->
<g id="node27" class="node"><title>Node218</title>
<g id="a_node27"><a xlink:href="classgaencode_1_1_chromosome_base.html#abac472511083c6b8c3cb5208242d0d66" target="_top" xlink:title="gaencode::ChromosomeBase\l::setValidString">
<polygon fill="white" stroke="black" points="1624,-88.8139 1624,-118.814 1779,-118.814 1779,-88.8139 1624,-88.8139"/>
<text text-anchor="start" x="1632" y="-106.814" font-family="Helvetica,sans-Serif" font-size="10.00">gaencode::ChromosomeBase</text>
<text text-anchor="middle" x="1701.5" y="-95.8139" font-family="Helvetica,sans-Serif" font-size="10.00">::setValidString</text>
</a>
</g>
</g>
<!-- Node206&#45;&gt;Node218 -->
<g id="edge28" class="edge"><title>Node206&#45;&gt;Node218</title>
<path fill="none" stroke="midnightblue" d="M1517.71,-361.093C1529.44,-336.777 1560.78,-271.288 1585,-215.814 1601.91,-177.086 1589.73,-156.24 1621,-127.814 1622.28,-126.647 1623.62,-125.537 1625.01,-124.481"/>
<polygon fill="midnightblue" stroke="midnightblue" points="1626.94,-127.399 1633.4,-119.002 1623.11,-121.538 1626.94,-127.399"/>
</g>
<!-- Node219 -->
<g id="node28" class="node"><title>Node219</title>
<g id="a_node28"><a xlink:href="classgaencode_1_1_chromosome_base.html#ac2bfdec82da5c2b4954c58b8ca151498" target="_top" xlink:title="gaencode::ChromosomeBase\l::getValidString">
<polygon fill="white" stroke="black" points="1624,-666.814 1624,-696.814 1779,-696.814 1779,-666.814 1624,-666.814"/>
<text text-anchor="start" x="1632" y="-684.814" font-family="Helvetica,sans-Serif" font-size="10.00">gaencode::ChromosomeBase</text>
<text text-anchor="middle" x="1701.5" y="-673.814" font-family="Helvetica,sans-Serif" font-size="10.00">::getValidString</text>
</a>
</g>
</g>
<!-- Node206&#45;&gt;Node219 -->
<g id="edge29" class="edge"><title>Node206&#45;&gt;Node219</title>
<path fill="none" stroke="midnightblue" d="M1516.09,-380.548C1531.38,-428.401 1598.98,-637.221 1621,-657.814 1622.27,-658.999 1623.59,-660.125 1624.96,-661.196"/>
<polygon fill="midnightblue" stroke="midnightblue" points="1623.03,-664.114 1633.29,-666.744 1626.91,-658.287 1623.03,-664.114"/>
</g>
<!-- Node220 -->
<g id="node29" class="node"><title>Node220</title>
<g id="a_node29"><a xlink:href="classgafuncobj_1_1_g_a_function_objective.html#a0f2107d0c918b8514b493f77d8b4c473" target="_top" xlink:title="gafuncobj::GAFunctionObjective\l::getObjetiveFunc">
<polygon fill="white" stroke="black" points="1621,-617.814 1621,-647.814 1782,-647.814 1782,-617.814 1621,-617.814"/>
<text text-anchor="start" x="1629" y="-635.814" font-family="Helvetica,sans-Serif" font-size="10.00">gafuncobj::GAFunctionObjective</text>
<text text-anchor="middle" x="1701.5" y="-624.814" font-family="Helvetica,sans-Serif" font-size="10.00">::getObjetiveFunc</text>
</a>
</g>
</g>
<!-- Node206&#45;&gt;Node220 -->
<g id="edge31" class="edge"><title>Node206&#45;&gt;Node220</title>
<path fill="none" stroke="midnightblue" d="M1514.51,-380.683C1520.59,-416.885 1546.57,-543.665 1621,-608.814 1622.34,-609.989 1623.74,-611.107 1625.19,-612.169"/>
<polygon fill="midnightblue" stroke="midnightblue" points="1623.6,-615.307 1633.93,-617.678 1627.33,-609.385 1623.6,-615.307"/>
</g>
<!-- Node221 -->
<g id="node30" class="node"><title>Node221</title>
<g id="a_node30"><a xlink:href="classgafuncobj_1_1_g_a_function_objective.html#abec6f65389554c7b4ac03130ce5dfd4a" target="_top" xlink:title="gafuncobj::GAFunctionObjective\l::getFitness">
<polygon fill="white" stroke="black" points="1621,-568.814 1621,-598.814 1782,-598.814 1782,-568.814 1621,-568.814"/>
<text text-anchor="start" x="1629" y="-586.814" font-family="Helvetica,sans-Serif" font-size="10.00">gafuncobj::GAFunctionObjective</text>
<text text-anchor="middle" x="1701.5" y="-575.814" font-family="Helvetica,sans-Serif" font-size="10.00">::getFitness</text>
</a>
</g>
</g>
<!-- Node206&#45;&gt;Node221 -->
<g id="edge32" class="edge"><title>Node206&#45;&gt;Node221</title>
<path fill="none" stroke="midnightblue" d="M1515.66,-380.339C1524.77,-411.213 1557.73,-509.439 1621,-559.814 1622.61,-561.094 1624.28,-562.305 1626.01,-563.452"/>
<polygon fill="midnightblue" stroke="midnightblue" points="1624.65,-566.706 1635.06,-568.667 1628.14,-560.641 1624.65,-566.706"/>
</g>
<!-- Node214 -->
<g id="node23" class="node"><title>Node214</title>
<g id="a_node23"><a xlink:href="classgaencode_1_1_chromosome_base.html#ab7a374a062ba8b5c6b4e674bae9a8299" target="_top" xlink:title="gaencode::ChromosomeBase\l::print">
<polygon fill="white" stroke="black" points="1818,-140.814 1818,-170.814 1973,-170.814 1973,-140.814 1818,-140.814"/>
<text text-anchor="start" x="1826" y="-158.814" font-family="Helvetica,sans-Serif" font-size="10.00">gaencode::ChromosomeBase</text>
<text text-anchor="middle" x="1895.5" y="-147.814" font-family="Helvetica,sans-Serif" font-size="10.00">::print</text>
</a>
</g>
</g>
<!-- Node213&#45;&gt;Node214 -->
<g id="edge24" class="edge"><title>Node213&#45;&gt;Node214</title>
<path fill="none" stroke="midnightblue" d="M1764.26,-284.75C1770.46,-282.195 1776.49,-279.235 1782,-275.814 1822.94,-250.405 1858.79,-206.357 1878.47,-179.28"/>
<polygon fill="midnightblue" stroke="midnightblue" points="1881.32,-181.306 1884.28,-171.131 1875.62,-177.243 1881.32,-181.306"/>
</g>
<!-- Node224&#45;&gt;Node214 -->
<g id="edge38" class="edge"><title>Node224&#45;&gt;Node214</title>
<path fill="none" stroke="midnightblue" d="M573.006,-31.0586C648.88,-22.1051 764.571,-10.8139 865.5,-10.8139 865.5,-10.8139 865.5,-10.8139 1513,-10.8139 1632.85,-10.8139 1674.41,22.9894 1782,-29.8139 1827.61,-52.1974 1863.01,-101.993 1881.13,-131.846"/>
<polygon fill="midnightblue" stroke="midnightblue" points="1878.3,-133.942 1886.4,-140.778 1884.33,-130.386 1878.3,-133.942"/>
</g>
</g>
</svg>
