<?xml version="1.0" encoding="UTF-8" standalone="no"?>
<!DOCTYPE svg PUBLIC "-//W3C//DTD SVG 1.1//EN"
 "http://www.w3.org/Graphics/SVG/1.1/DTD/svg11.dtd">
<!-- Generated by graphviz version 2.38.0 (20140413.2041)
 -->
<!-- Title: sm::getConfusionMatrix Pages: 1 -->
<svg width="510pt" height="271pt"
 viewBox="0.00 0.00 510.00 270.50" xmlns="http://www.w3.org/2000/svg" xmlns:xlink="http://www.w3.org/1999/xlink">
<g id="graph0" class="graph" transform="scale(1 1) rotate(0) translate(4 266.5)">
<title>sm::getConfusionMatrix</title>
<polygon fill="white" stroke="none" points="-4,4 -4,-266.5 506,-266.5 506,4 -4,4"/>
<!-- Node9 -->
<g id="node1" class="node"><title>Node9</title>
<g id="a_node1"><a xlink:title="Get confusion matching matrix.">
<polygon fill="#bfbfbf" stroke="black" points="0,-139.5 0,-158.5 122,-158.5 122,-139.5 0,-139.5"/>
<text text-anchor="middle" x="61" y="-146.5" font-family="Helvetica,sans-Serif" font-size="10.00">sm::getConfusionMatrix</text>
</a>
</g>
</g>
<!-- Node10 -->
<g id="node2" class="node"><title>Node10</title>
<g id="a_node2"><a xlink:href="classpartition_1_1_partition.html#acb8de7c890e05872858fb7a7aa53b657" target="_top" xlink:title=" ">
<polygon fill="white" stroke="black" points="194,-232 194,-262 287,-262 287,-232 194,-232"/>
<text text-anchor="start" x="202" y="-250" font-family="Helvetica,sans-Serif" font-size="10.00">partition::Partition</text>
<text text-anchor="middle" x="240.5" y="-239" font-family="Helvetica,sans-Serif" font-size="10.00">::begin</text>
</a>
</g>
</g>
<!-- Node9&#45;&gt;Node10 -->
<g id="edge1" class="edge"><title>Node9&#45;&gt;Node10</title>
<path fill="none" stroke="midnightblue" d="M71.7865,-158.585C88.2531,-174.212 123.131,-205.22 158,-223 166.202,-227.182 175.25,-230.752 184.244,-233.759"/>
<polygon fill="midnightblue" stroke="midnightblue" points="183.35,-237.147 193.939,-236.804 185.447,-230.469 183.35,-237.147"/>
</g>
<!-- Node11 -->
<g id="node3" class="node"><title>Node11</title>
<g id="a_node3"><a xlink:href="classpartition_1_1_partition.html#a4a440dcaeb42e05a52a46405eb30d36e" target="_top" xlink:title=" ">
<polygon fill="white" stroke="black" points="194,-183 194,-213 287,-213 287,-183 194,-183"/>
<text text-anchor="start" x="202" y="-201" font-family="Helvetica,sans-Serif" font-size="10.00">partition::Partition</text>
<text text-anchor="middle" x="240.5" y="-190" font-family="Helvetica,sans-Serif" font-size="10.00">::getNumCluster</text>
</a>
</g>
</g>
<!-- Node9&#45;&gt;Node11 -->
<g id="edge2" class="edge"><title>Node9&#45;&gt;Node11</title>
<path fill="none" stroke="midnightblue" d="M96.6452,-158.564C121.464,-165.415 155.411,-174.787 183.985,-182.675"/>
<polygon fill="midnightblue" stroke="midnightblue" points="183.273,-186.109 193.844,-185.396 185.136,-179.362 183.273,-186.109"/>
</g>
<!-- Node12 -->
<g id="node4" class="node"><title>Node12</title>
<g id="a_node4"><a xlink:href="classmat_1_1_matrix_row.html#a1070fba1c0ec0fbaa309f141817be412" target="_top" xlink:title=" ">
<polygon fill="white" stroke="black" points="158,-134 158,-164 323,-164 323,-134 158,-134"/>
<text text-anchor="start" x="166" y="-152" font-family="Helvetica,sans-Serif" font-size="10.00">mat::MatrixRow&lt; T_INSTANCES</text>
<text text-anchor="middle" x="240.5" y="-141" font-family="Helvetica,sans-Serif" font-size="10.00">_CLUSTER_K &gt;::initialize</text>
</a>
</g>
</g>
<!-- Node9&#45;&gt;Node12 -->
<g id="edge3" class="edge"><title>Node9&#45;&gt;Node12</title>
<path fill="none" stroke="midnightblue" d="M122.093,-149C130.334,-149 138.944,-149 147.594,-149"/>
<polygon fill="midnightblue" stroke="midnightblue" points="147.748,-152.5 157.748,-149 147.748,-145.5 147.748,-152.5"/>
</g>
<!-- Node13 -->
<g id="node5" class="node"><title>Node13</title>
<g id="a_node5"><a xlink:href="classpartition_1_1_partition.html#a96660ce61740ab0287189b21833eccdf" target="_top" xlink:title=" ">
<polygon fill="white" stroke="black" points="194,-85 194,-115 287,-115 287,-85 194,-85"/>
<text text-anchor="start" x="202" y="-103" font-family="Helvetica,sans-Serif" font-size="10.00">partition::Partition</text>
<text text-anchor="middle" x="240.5" y="-92" font-family="Helvetica,sans-Serif" font-size="10.00">::next</text>
</a>
</g>
</g>
<!-- Node9&#45;&gt;Node13 -->
<g id="edge4" class="edge"><title>Node9&#45;&gt;Node13</title>
<path fill="none" stroke="midnightblue" d="M96.6452,-139.436C121.464,-132.585 155.411,-123.213 183.985,-115.325"/>
<polygon fill="midnightblue" stroke="midnightblue" points="185.136,-118.638 193.844,-112.604 183.273,-111.891 185.136,-118.638"/>
</g>
<!-- Node14 -->
<g id="node6" class="node"><title>Node14</title>
<g id="a_node6"><a xlink:href="classsm_1_1_partition_matrix.html#a287f8807a0b9c0066b2f799f2814c721" target="_top" xlink:title=" ">
<polygon fill="white" stroke="black" points="188.5,-36 188.5,-66 292.5,-66 292.5,-36 188.5,-36"/>
<text text-anchor="start" x="196.5" y="-54" font-family="Helvetica,sans-Serif" font-size="10.00">sm::PartitionMatrix</text>
<text text-anchor="middle" x="240.5" y="-43" font-family="Helvetica,sans-Serif" font-size="10.00">::sumPartitionTable</text>
</a>
</g>
</g>
<!-- Node9&#45;&gt;Node14 -->
<g id="edge5" class="edge"><title>Node9&#45;&gt;Node14</title>
<path fill="none" stroke="midnightblue" d="M72.1034,-139.348C88.7475,-123.928 123.533,-93.6767 158,-76 164.519,-72.6568 171.564,-69.6718 178.688,-67.0314"/>
<polygon fill="midnightblue" stroke="midnightblue" points="180.118,-70.2395 188.409,-63.6433 177.814,-63.6294 180.118,-70.2395"/>
</g>
<!-- Node15 -->
<g id="node7" class="node"><title>Node15</title>
<g id="a_node7"><a xlink:href="classmat_1_1_matrix_base.html#ac500eedd5e203327d3292f8ab22d8f3e" target="_top" xlink:title=" ">
<polygon fill="white" stroke="black" points="359,-60.5 359,-101.5 502,-101.5 502,-60.5 359,-60.5"/>
<text text-anchor="start" x="367" y="-89.5" font-family="Helvetica,sans-Serif" font-size="10.00">mat::MatrixBase&lt; T</text>
<text text-anchor="start" x="367" y="-78.5" font-family="Helvetica,sans-Serif" font-size="10.00">_INSTANCES_CLUSTER_K</text>
<text text-anchor="middle" x="430.5" y="-67.5" font-family="Helvetica,sans-Serif" font-size="10.00"> &gt;::getNumRows</text>
</a>
</g>
</g>
<!-- Node14&#45;&gt;Node15 -->
<g id="edge6" class="edge"><title>Node14&#45;&gt;Node15</title>
<path fill="none" stroke="midnightblue" d="M292.872,-59.1976C310.105,-61.9476 329.763,-65.0845 348.693,-68.1052"/>
<polygon fill="midnightblue" stroke="midnightblue" points="348.384,-71.6001 358.81,-69.7197 349.487,-64.6876 348.384,-71.6001"/>
</g>
<!-- Node16 -->
<g id="node8" class="node"><title>Node16</title>
<g id="a_node8"><a xlink:href="classmat_1_1_matrix_base.html#a70200414022ce1479b9ddc16102b12ae" target="_top" xlink:title=" ">
<polygon fill="white" stroke="black" points="359,-0.5 359,-41.5 502,-41.5 502,-0.5 359,-0.5"/>
<text text-anchor="start" x="367" y="-29.5" font-family="Helvetica,sans-Serif" font-size="10.00">mat::MatrixBase&lt; T</text>
<text text-anchor="start" x="367" y="-18.5" font-family="Helvetica,sans-Serif" font-size="10.00">_INSTANCES_CLUSTER_K</text>
<text text-anchor="middle" x="430.5" y="-7.5" font-family="Helvetica,sans-Serif" font-size="10.00"> &gt;::getNumColumns</text>
</a>
</g>
</g>
<!-- Node14&#45;&gt;Node16 -->
<g id="edge7" class="edge"><title>Node14&#45;&gt;Node16</title>
<path fill="none" stroke="midnightblue" d="M292.872,-42.8024C310.105,-40.0524 329.763,-36.9155 348.693,-33.8948"/>
<polygon fill="midnightblue" stroke="midnightblue" points="349.487,-37.3124 358.81,-32.2803 348.384,-30.3999 349.487,-37.3124"/>
</g>
</g>
</svg>
