<?xml version="1.0" encoding="UTF-8" standalone="no"?>
<!DOCTYPE svg PUBLIC "-//W3C//DTD SVG 1.1//EN"
 "http://www.w3.org/Graphics/SVG/1.1/DTD/svg11.dtd">
<!-- Generated by graphviz version 2.38.0 (20140413.2041)
 -->
<!-- Title: clusteringop::joinPartition Pages: 1 -->
<svg width="466pt" height="312pt"
 viewBox="0.00 0.00 466.00 312.00" xmlns="http://www.w3.org/2000/svg" xmlns:xlink="http://www.w3.org/1999/xlink">
<g id="graph0" class="graph" transform="scale(1 1) rotate(0) translate(4 308)">
<title>clusteringop::joinPartition</title>
<polygon fill="white" stroke="none" points="-4,4 -4,-308 462,-308 462,4 -4,4"/>
<!-- Node107 -->
<g id="node1" class="node"><title>Node107</title>
<g id="a_node1"><a xlink:title=" ">
<polygon fill="#bfbfbf" stroke="black" points="0,-153 0,-172 128,-172 128,-153 0,-153"/>
<text text-anchor="middle" x="64" y="-160" font-family="Helvetica,sans-Serif" font-size="10.00">clusteringop::joinPartition</text>
</a>
</g>
</g>
<!-- Node108 -->
<g id="node2" class="node"><title>Node108</title>
<g id="a_node2"><a xlink:href="classds_1_1_iterator_partition_linked.html#ad171cb96653fadaec272389381a4f8b4" target="_top" xlink:title=" ">
<polygon fill="white" stroke="black" points="175.5,-273.5 175.5,-303.5 306.5,-303.5 306.5,-273.5 175.5,-273.5"/>
<text text-anchor="start" x="183.5" y="-291.5" font-family="Helvetica,sans-Serif" font-size="10.00">ds::IteratorPartitionLinked</text>
<text text-anchor="middle" x="241" y="-280.5" font-family="Helvetica,sans-Serif" font-size="10.00">::begin</text>
</a>
</g>
</g>
<!-- Node107&#45;&gt;Node108 -->
<g id="edge1" class="edge"><title>Node107&#45;&gt;Node108</title>
<path fill="none" stroke="midnightblue" d="M71.8073,-172.049C86.444,-191.911 122.931,-237.946 164,-263.5 167.354,-265.587 170.9,-267.518 174.555,-269.304"/>
<polygon fill="midnightblue" stroke="midnightblue" points="173.258,-272.558 183.816,-273.445 176.116,-266.167 173.258,-272.558"/>
</g>
<!-- Node109 -->
<g id="node3" class="node"><title>Node109</title>
<g id="a_node3"><a xlink:href="classds_1_1_iterator_partition_linked.html#af0e179fae69c0d4f047082ee44783613" target="_top" xlink:title=" ">
<polygon fill="white" stroke="black" points="164,-235 164,-254 318,-254 318,-235 164,-235"/>
<text text-anchor="middle" x="241" y="-242" font-family="Helvetica,sans-Serif" font-size="10.00">ds::IteratorPartitionLinked::end</text>
</a>
</g>
</g>
<!-- Node107&#45;&gt;Node109 -->
<g id="edge2" class="edge"><title>Node107&#45;&gt;Node109</title>
<path fill="none" stroke="midnightblue" d="M77.0871,-172.033C95.0515,-185.758 130.308,-211.022 164,-225.5 169.74,-227.967 175.868,-230.16 182.058,-232.098"/>
<polygon fill="midnightblue" stroke="midnightblue" points="181.212,-235.497 191.792,-234.937 183.172,-228.777 181.212,-235.497"/>
</g>
<!-- Node110 -->
<g id="node4" class="node"><title>Node110</title>
<g id="a_node4"><a xlink:href="classdata_1_1_instance.html#aa6ee19c383a86228b3d134e42bdb6830" target="_top" xlink:title=" ">
<polygon fill="white" stroke="black" points="171,-197 171,-216 311,-216 311,-197 171,-197"/>
<text text-anchor="middle" x="241" y="-204" font-family="Helvetica,sans-Serif" font-size="10.00">data::Instance::getFeatures</text>
</a>
</g>
</g>
<!-- Node107&#45;&gt;Node110 -->
<g id="edge3" class="edge"><title>Node107&#45;&gt;Node110</title>
<path fill="none" stroke="midnightblue" d="M102.603,-172.018C121.094,-176.693 143.713,-182.403 164,-187.5 173.009,-189.764 182.62,-192.172 191.871,-194.486"/>
<polygon fill="midnightblue" stroke="midnightblue" points="191.172,-197.919 201.722,-196.949 192.87,-191.128 191.172,-197.919"/>
</g>
<!-- Node111 -->
<g id="node5" class="node"><title>Node111</title>
<g id="a_node5"><a xlink:href="classdata_1_1_instance_freq.html#a99fa2afc7a6375f3d71af4adc3c21f39" target="_top" xlink:title=" ">
<polygon fill="white" stroke="black" points="190.5,-147.5 190.5,-177.5 291.5,-177.5 291.5,-147.5 190.5,-147.5"/>
<text text-anchor="start" x="198.5" y="-165.5" font-family="Helvetica,sans-Serif" font-size="10.00">data::InstanceFreq</text>
<text text-anchor="middle" x="241" y="-154.5" font-family="Helvetica,sans-Serif" font-size="10.00">::getFrequency</text>
</a>
</g>
</g>
<!-- Node107&#45;&gt;Node111 -->
<g id="edge4" class="edge"><title>Node107&#45;&gt;Node111</title>
<path fill="none" stroke="midnightblue" d="M128.179,-162.5C145.124,-162.5 163.391,-162.5 180.15,-162.5"/>
<polygon fill="midnightblue" stroke="midnightblue" points="180.364,-166 190.364,-162.5 180.364,-159 180.364,-166"/>
</g>
<!-- Node112 -->
<g id="node6" class="node"><title>Node112</title>
<g id="a_node6"><a xlink:href="classds_1_1_iterator_partition_linked.html#a1a031c033d0d2d1c6982ced4e0473831" target="_top" xlink:title=" ">
<polygon fill="white" stroke="black" points="175.5,-98.5 175.5,-128.5 306.5,-128.5 306.5,-98.5 175.5,-98.5"/>
<text text-anchor="start" x="183.5" y="-116.5" font-family="Helvetica,sans-Serif" font-size="10.00">ds::IteratorPartitionLinked</text>
<text text-anchor="middle" x="241" y="-105.5" font-family="Helvetica,sans-Serif" font-size="10.00">::getValue</text>
</a>
</g>
</g>
<!-- Node107&#45;&gt;Node112 -->
<g id="edge5" class="edge"><title>Node107&#45;&gt;Node112</title>
<path fill="none" stroke="midnightblue" d="M99.1572,-152.936C121.119,-146.787 150.331,-138.607 176.457,-131.292"/>
<polygon fill="midnightblue" stroke="midnightblue" points="177.611,-134.604 186.297,-128.537 175.723,-127.863 177.611,-134.604"/>
</g>
<!-- Node113 -->
<g id="node7" class="node"><title>Node113</title>
<g id="a_node7"><a xlink:href="classds_1_1_iterator_partition_linked.html#a83b887be41c97dc0bdfc47a02abbc383" target="_top" xlink:title=" ">
<polygon fill="white" stroke="black" points="175.5,-49.5 175.5,-79.5 306.5,-79.5 306.5,-49.5 175.5,-49.5"/>
<text text-anchor="start" x="183.5" y="-67.5" font-family="Helvetica,sans-Serif" font-size="10.00">ds::IteratorPartitionLinked</text>
<text text-anchor="middle" x="241" y="-56.5" font-family="Helvetica,sans-Serif" font-size="10.00">::next</text>
</a>
</g>
</g>
<!-- Node107&#45;&gt;Node113 -->
<g id="edge6" class="edge"><title>Node107&#45;&gt;Node113</title>
<path fill="none" stroke="midnightblue" d="M75.5205,-152.951C92.8272,-137.676 128.896,-107.623 164,-89.5 168.25,-87.3056 172.732,-85.2493 177.307,-83.3335"/>
<polygon fill="midnightblue" stroke="midnightblue" points="178.762,-86.5221 186.782,-79.5992 176.195,-80.0096 178.762,-86.5221"/>
</g>
<!-- Node114 -->
<g id="node8" class="node"><title>Node114</title>
<g id="a_node8"><a xlink:href="classdata_1_1_instance_freq.html#ae9a6c35a45fe18ed9cc794f610e0186d" target="_top" xlink:title=" ">
<polygon fill="white" stroke="black" points="190.5,-0.5 190.5,-30.5 291.5,-30.5 291.5,-0.5 190.5,-0.5"/>
<text text-anchor="start" x="198.5" y="-18.5" font-family="Helvetica,sans-Serif" font-size="10.00">data::InstanceFreq</text>
<text text-anchor="middle" x="241" y="-7.5" font-family="Helvetica,sans-Serif" font-size="10.00">::print</text>
</a>
</g>
</g>
<!-- Node107&#45;&gt;Node114 -->
<g id="edge7" class="edge"><title>Node107&#45;&gt;Node114</title>
<path fill="none" stroke="midnightblue" d="M70.3007,-152.679C83.2211,-129.651 118.632,-71.768 164,-40.5 169.179,-36.9308 174.903,-33.842 180.818,-31.1755"/>
<polygon fill="midnightblue" stroke="midnightblue" points="182.293,-34.3539 190.219,-27.3243 179.639,-27.8763 182.293,-34.3539"/>
</g>
<!-- Node115 -->
<g id="node9" class="node"><title>Node115</title>
<g id="a_node9"><a xlink:href="classdata_1_1_instance.html#a038ce1256d69d50f625bf960c0e05406" target="_top" xlink:title=" ">
<polygon fill="white" stroke="black" points="354,-6 354,-25 458,-25 458,-6 354,-6"/>
<text text-anchor="middle" x="406" y="-13" font-family="Helvetica,sans-Serif" font-size="10.00">data::Instance::print</text>
</a>
</g>
</g>
<!-- Node114&#45;&gt;Node115 -->
<g id="edge8" class="edge"><title>Node114&#45;&gt;Node115</title>
<path fill="none" stroke="midnightblue" d="M291.791,-15.5C308.073,-15.5 326.355,-15.5 343.4,-15.5"/>
<polygon fill="midnightblue" stroke="midnightblue" points="343.824,-19.0001 353.824,-15.5 343.824,-12.0001 343.824,-19.0001"/>
</g>
</g>
</svg>
