<?xml version="1.0" encoding="UTF-8" standalone="no"?>
<!DOCTYPE svg PUBLIC "-//W3C//DTD SVG 1.1//EN"
 "http://www.w3.org/Graphics/SVG/1.1/DTD/svg11.dtd">
<!-- Generated by graphviz version 2.38.0 (20140413.2041)
 -->
<!-- Title: gaclusteringop::splittingMutation Pages: 1 -->
<svg width="706pt" height="369pt"
 viewBox="0.00 0.00 706.00 368.50" xmlns="http://www.w3.org/2000/svg" xmlns:xlink="http://www.w3.org/1999/xlink">
<g id="graph0" class="graph" transform="scale(1 1) rotate(0) translate(4 364.5)">
<title>gaclusteringop::splittingMutation</title>
<polygon fill="white" stroke="none" points="-4,4 -4,-364.5 702,-364.5 702,4 -4,4"/>
<!-- Node253 -->
<g id="node1" class="node"><title>Node253</title>
<g id="a_node1"><a xlink:title="Mutation by cluster splitting .">
<polygon fill="#bfbfbf" stroke="black" points="0,-212 0,-242 122,-242 122,-212 0,-212"/>
<text text-anchor="start" x="8" y="-230" font-family="Helvetica,sans-Serif" font-size="10.00">gaclusteringop::splitting</text>
<text text-anchor="middle" x="61" y="-219" font-family="Helvetica,sans-Serif" font-size="10.00">Mutation</text>
</a>
</g>
</g>
<!-- Node254 -->
<g id="node2" class="node"><title>Node254</title>
<g id="a_node2"><a xlink:href="classgaencode_1_1_chromosome_g_g_a.html#acf107792536ef822d20bed243aa89160" target="_top" xlink:title=" ">
<polygon fill="white" stroke="black" points="352.5,-330 352.5,-360 506.5,-360 506.5,-330 352.5,-330"/>
<text text-anchor="start" x="360.5" y="-348" font-family="Helvetica,sans-Serif" font-size="10.00">gaencode::ChromosomeGGA</text>
<text text-anchor="middle" x="429.5" y="-337" font-family="Helvetica,sans-Serif" font-size="10.00">::getElementSize</text>
</a>
</g>
</g>
<!-- Node253&#45;&gt;Node254 -->
<g id="edge1" class="edge"><title>Node253&#45;&gt;Node254</title>
<path fill="none" stroke="midnightblue" d="M72.3245,-242.111C88.0053,-263.665 120.048,-302.556 158,-320 215.587,-346.469 287.255,-352.038 342.351,-351.355"/>
<polygon fill="midnightblue" stroke="midnightblue" points="342.509,-354.853 352.439,-351.159 342.372,-347.854 342.509,-354.853"/>
</g>
<!-- Node256 -->
<g id="node4" class="node"><title>Node256</title>
<g id="a_node4"><a xlink:href="classgaencode_1_1_chromosome_g_g_a.html#aad4d008731eebf9615ad62aa884cc518" target="_top" xlink:title=" ">
<polygon fill="white" stroke="black" points="352.5,-232 352.5,-262 506.5,-262 506.5,-232 352.5,-232"/>
<text text-anchor="start" x="360.5" y="-250" font-family="Helvetica,sans-Serif" font-size="10.00">gaencode::ChromosomeGGA</text>
<text text-anchor="middle" x="429.5" y="-239" font-family="Helvetica,sans-Serif" font-size="10.00">::getNumClusterK</text>
</a>
</g>
</g>
<!-- Node253&#45;&gt;Node256 -->
<g id="edge3" class="edge"><title>Node253&#45;&gt;Node256</title>
<path fill="none" stroke="midnightblue" d="M122.166,-230.86C134.042,-231.593 146.413,-232.338 158,-233 219.638,-236.521 289.198,-240.113 342.344,-242.777"/>
<polygon fill="midnightblue" stroke="midnightblue" points="342.247,-246.276 352.409,-243.28 342.596,-239.285 342.247,-246.276"/>
</g>
<!-- Node257 -->
<g id="node5" class="node"><title>Node257</title>
<g id="a_node5"><a xlink:href="classgaencode_1_1_chrom_fixed_length.html#a4d1d15f6be16c0d0a23824033993aa71" target="_top" xlink:title=" ">
<polygon fill="white" stroke="black" points="158,-182.5 158,-223.5 316,-223.5 316,-182.5 158,-182.5"/>
<text text-anchor="start" x="166" y="-211.5" font-family="Helvetica,sans-Serif" font-size="10.00">gaencode::ChromFixedLength</text>
<text text-anchor="start" x="166" y="-200.5" font-family="Helvetica,sans-Serif" font-size="10.00">&lt; T_CLUSTERIDX, T_METRIC</text>
<text text-anchor="middle" x="237" y="-189.5" font-family="Helvetica,sans-Serif" font-size="10.00"> &gt;::getString</text>
</a>
</g>
</g>
<!-- Node253&#45;&gt;Node257 -->
<g id="edge4" class="edge"><title>Node253&#45;&gt;Node257</title>
<path fill="none" stroke="midnightblue" d="M122.368,-218.673C130.623,-217.535 139.231,-216.347 147.854,-215.158"/>
<polygon fill="midnightblue" stroke="midnightblue" points="148.536,-218.597 157.963,-213.764 147.579,-211.663 148.536,-218.597"/>
</g>
<!-- Node258 -->
<g id="node6" class="node"><title>Node258</title>
<g id="a_node6"><a xlink:href="classgaencode_1_1_chromosome_g_g_a.html#a1aa4f8c78e0de3afba730450847ac464" target="_top" xlink:title=" ">
<polygon fill="white" stroke="black" points="160,-134 160,-164 314,-164 314,-134 160,-134"/>
<text text-anchor="start" x="168" y="-152" font-family="Helvetica,sans-Serif" font-size="10.00">gaencode::ChromosomeGGA</text>
<text text-anchor="middle" x="237" y="-141" font-family="Helvetica,sans-Serif" font-size="10.00">::increaseGroupSecSize</text>
</a>
</g>
</g>
<!-- Node253&#45;&gt;Node258 -->
<g id="edge5" class="edge"><title>Node253&#45;&gt;Node258</title>
<path fill="none" stroke="midnightblue" d="M85.3423,-211.998C104.349,-200.247 132.169,-184.087 158,-173 162.602,-171.025 167.419,-169.138 172.306,-167.352"/>
<polygon fill="midnightblue" stroke="midnightblue" points="173.467,-170.654 181.749,-164.046 171.154,-164.047 173.467,-170.654"/>
</g>
<!-- Node260 -->
<g id="node8" class="node"><title>Node260</title>
<g id="a_node8"><a xlink:href="namespaceprob.html#aa737d76e6416a765f004cd211eff712d" target="_top" xlink:title=" ">
<polygon fill="white" stroke="black" points="161.5,-76.5 161.5,-95.5 312.5,-95.5 312.5,-76.5 161.5,-76.5"/>
<text text-anchor="middle" x="237" y="-83.5" font-family="Helvetica,sans-Serif" font-size="10.00">prob::makeDistRouletteWheel</text>
</a>
</g>
</g>
<!-- Node253&#45;&gt;Node260 -->
<g id="edge7" class="edge"><title>Node253&#45;&gt;Node260</title>
<path fill="none" stroke="midnightblue" d="M73.2835,-211.714C89.9044,-190.012 122.824,-150.024 158,-124 171.086,-114.319 187.023,-106.04 201.072,-99.7044"/>
<polygon fill="midnightblue" stroke="midnightblue" points="202.661,-102.83 210.438,-95.6354 199.871,-96.4098 202.661,-102.83"/>
</g>
<!-- Node265 -->
<g id="node13" class="node"><title>Node265</title>
<g id="a_node13"><a xlink:href="classgaencode_1_1_chromosome_g_g_a.html#a1b069cf9c5179f7aff064081f72aefb6" target="_top" xlink:title=" ">
<polygon fill="white" stroke="black" points="160,-281 160,-311 314,-311 314,-281 160,-281"/>
<text text-anchor="start" x="168" y="-299" font-family="Helvetica,sans-Serif" font-size="10.00">gaencode::ChromosomeGGA</text>
<text text-anchor="middle" x="237" y="-288" font-family="Helvetica,sans-Serif" font-size="10.00">::print</text>
</a>
</g>
</g>
<!-- Node253&#45;&gt;Node265 -->
<g id="edge12" class="edge"><title>Node253&#45;&gt;Node265</title>
<path fill="none" stroke="midnightblue" d="M98.8608,-242.163C116.692,-249.45 138.427,-258.261 158,-266 167.31,-269.681 177.267,-273.557 186.847,-277.256"/>
<polygon fill="midnightblue" stroke="midnightblue" points="185.674,-280.554 196.264,-280.881 188.189,-274.022 185.674,-280.554"/>
</g>
<!-- Node255 -->
<g id="node3" class="node"><title>Node255</title>
<g id="a_node3"><a xlink:href="classgaencode_1_1_chrom_fixed_length.html#a406e67fa48d6cdfc7a01f0c6e04f373b" target="_top" xlink:title=" ">
<polygon fill="white" stroke="black" points="543,-330 543,-360 698,-360 698,-330 543,-330"/>
<text text-anchor="start" x="551" y="-348" font-family="Helvetica,sans-Serif" font-size="10.00">gaencode::ChromFixedLength</text>
<text text-anchor="middle" x="620.5" y="-337" font-family="Helvetica,sans-Serif" font-size="10.00">::stcgetStringSize</text>
</a>
</g>
</g>
<!-- Node254&#45;&gt;Node255 -->
<g id="edge2" class="edge"><title>Node254&#45;&gt;Node255</title>
<path fill="none" stroke="midnightblue" d="M506.557,-345C515.182,-345 524.022,-345 532.771,-345"/>
<polygon fill="midnightblue" stroke="midnightblue" points="532.984,-348.5 542.984,-345 532.983,-341.5 532.984,-348.5"/>
</g>
<!-- Node259 -->
<g id="node7" class="node"><title>Node259</title>
<g id="a_node7"><a xlink:href="classgaencode_1_1_chromosome_g_g_a.html#aa8e83da69a7ab90e13da04fe9500103a" target="_top" xlink:title=" ">
<polygon fill="white" stroke="black" points="352.5,-153 352.5,-183 506.5,-183 506.5,-153 352.5,-153"/>
<text text-anchor="start" x="360.5" y="-171" font-family="Helvetica,sans-Serif" font-size="10.00">gaencode::ChromosomeGGA</text>
<text text-anchor="middle" x="429.5" y="-160" font-family="Helvetica,sans-Serif" font-size="10.00">::initializeGroupSec</text>
</a>
</g>
</g>
<!-- Node258&#45;&gt;Node259 -->
<g id="edge6" class="edge"><title>Node258&#45;&gt;Node259</title>
<path fill="none" stroke="midnightblue" d="M314.112,-156.591C323.321,-157.51 332.779,-158.453 342.122,-159.385"/>
<polygon fill="midnightblue" stroke="midnightblue" points="341.9,-162.88 352.198,-160.39 342.595,-155.915 341.9,-162.88"/>
</g>
<!-- Node261 -->
<g id="node9" class="node"><title>Node261</title>
<g id="a_node9"><a xlink:href="namespaceinout.html#a0c10a45877a347dec0d4ec4e5b05b828" target="_top" xlink:title=" ">
<polygon fill="white" stroke="black" points="378,-114.5 378,-133.5 481,-133.5 481,-114.5 378,-114.5"/>
<text text-anchor="middle" x="429.5" y="-121.5" font-family="Helvetica,sans-Serif" font-size="10.00">inout::containerprint</text>
</a>
</g>
</g>
<!-- Node260&#45;&gt;Node261 -->
<g id="edge8" class="edge"><title>Node260&#45;&gt;Node261</title>
<path fill="none" stroke="midnightblue" d="M286.071,-95.589C311.776,-100.716 343.613,-107.067 370.664,-112.463"/>
<polygon fill="midnightblue" stroke="midnightblue" points="370.283,-115.956 380.774,-114.48 371.652,-109.091 370.283,-115.956"/>
</g>
<!-- Node262 -->
<g id="node10" class="node"><title>Node262</title>
<g id="a_node10"><a xlink:href="namespaceinterfacesse.html#a25f6950d589b92fd5bcf2007fb3fae19" target="_top" xlink:title=" ">
<polygon fill="white" stroke="black" points="381.5,-76.5 381.5,-95.5 477.5,-95.5 477.5,-76.5 381.5,-76.5"/>
<text text-anchor="middle" x="429.5" y="-83.5" font-family="Helvetica,sans-Serif" font-size="10.00">interfacesse::sum</text>
</a>
</g>
</g>
<!-- Node260&#45;&gt;Node262 -->
<g id="edge9" class="edge"><title>Node260&#45;&gt;Node262</title>
<path fill="none" stroke="midnightblue" d="M312.744,-86C332.179,-86 352.809,-86 371.187,-86"/>
<polygon fill="midnightblue" stroke="midnightblue" points="371.431,-89.5001 381.431,-86 371.431,-82.5001 371.431,-89.5001"/>
</g>
<!-- Node263 -->
<g id="node11" class="node"><title>Node263</title>
<g id="a_node11"><a xlink:href="namespaceinterfacesse.html#a144ebf70bf38495c3de1aca2c8365e08" target="_top" xlink:title="scal items of the array of type T">
<polygon fill="white" stroke="black" points="381.5,-38.5 381.5,-57.5 477.5,-57.5 477.5,-38.5 381.5,-38.5"/>
<text text-anchor="middle" x="429.5" y="-45.5" font-family="Helvetica,sans-Serif" font-size="10.00">interfacesse::scal</text>
</a>
</g>
</g>
<!-- Node260&#45;&gt;Node263 -->
<g id="edge10" class="edge"><title>Node260&#45;&gt;Node263</title>
<path fill="none" stroke="midnightblue" d="M286.071,-76.411C311.971,-71.2446 344.098,-64.8361 371.28,-59.4139"/>
<polygon fill="midnightblue" stroke="midnightblue" points="372.311,-62.7774 381.433,-57.3887 370.942,-55.9126 372.311,-62.7774"/>
</g>
<!-- Node264 -->
<g id="node12" class="node"><title>Node264</title>
<g id="a_node12"><a xlink:href="namespaceinterfacesse.html#aa4b94bf2bf8cb7c437fa3feba8b70ff8" target="_top" xlink:title="Initializes the array with a constant .">
<polygon fill="white" stroke="black" points="377,-0.5 377,-19.5 482,-19.5 482,-0.5 377,-0.5"/>
<text text-anchor="middle" x="429.5" y="-7.5" font-family="Helvetica,sans-Serif" font-size="10.00">interfacesse::copya</text>
</a>
</g>
</g>
<!-- Node260&#45;&gt;Node264 -->
<g id="edge11" class="edge"><title>Node260&#45;&gt;Node264</title>
<path fill="none" stroke="midnightblue" d="M254.478,-76.305C276.195,-63.8724 315.879,-42.3304 352,-29 358.796,-26.4918 366.053,-24.2085 373.289,-22.1643"/>
<polygon fill="midnightblue" stroke="midnightblue" points="374.351,-25.5033 383.099,-19.5263 372.533,-18.7434 374.351,-25.5033"/>
</g>
<!-- Node265&#45;&gt;Node254 -->
<g id="edge14" class="edge"><title>Node265&#45;&gt;Node254</title>
<path fill="none" stroke="midnightblue" d="M296.451,-311.035C316.656,-316.232 339.473,-322.101 360.385,-327.48"/>
<polygon fill="midnightblue" stroke="midnightblue" points="359.603,-330.892 370.16,-329.994 361.347,-324.113 359.603,-330.892"/>
</g>
<!-- Node265&#45;&gt;Node256 -->
<g id="edge15" class="edge"><title>Node265&#45;&gt;Node256</title>
<path fill="none" stroke="midnightblue" d="M296.451,-280.965C316.656,-275.768 339.473,-269.899 360.385,-264.52"/>
<polygon fill="midnightblue" stroke="midnightblue" points="361.347,-267.887 370.16,-262.006 359.603,-261.108 361.347,-267.887"/>
</g>
<!-- Node266 -->
<g id="node14" class="node"><title>Node266</title>
<g id="a_node14"><a xlink:href="classgaencode_1_1_chromosome_base.html#ab7a374a062ba8b5c6b4e674bae9a8299" target="_top" xlink:title=" ">
<polygon fill="white" stroke="black" points="352,-281 352,-311 507,-311 507,-281 352,-281"/>
<text text-anchor="start" x="360" y="-299" font-family="Helvetica,sans-Serif" font-size="10.00">gaencode::ChromosomeBase</text>
<text text-anchor="middle" x="429.5" y="-288" font-family="Helvetica,sans-Serif" font-size="10.00">::print</text>
</a>
</g>
</g>
<!-- Node265&#45;&gt;Node266 -->
<g id="edge13" class="edge"><title>Node265&#45;&gt;Node266</title>
<path fill="none" stroke="midnightblue" d="M314.112,-296C323.148,-296 332.423,-296 341.595,-296"/>
<polygon fill="midnightblue" stroke="midnightblue" points="341.887,-299.5 351.887,-296 341.887,-292.5 341.887,-299.5"/>
</g>
</g>
</svg>
