<?xml version="1.0" encoding="UTF-8" standalone="no"?>
<!DOCTYPE svg PUBLIC "-//W3C//DTD SVG 1.1//EN"
 "http://www.w3.org/Graphics/SVG/1.1/DTD/svg11.dtd">
<!-- Generated by graphviz version 2.38.0 (20140413.2041)
 -->
<!-- Title: um::SSE Pages: 1 -->
<svg width="274pt" height="241pt"
 viewBox="0.00 0.00 274.00 241.00" xmlns="http://www.w3.org/2000/svg" xmlns:xlink="http://www.w3.org/1999/xlink">
<g id="graph0" class="graph" transform="scale(1 1) rotate(0) translate(4 237)">
<title>um::SSE</title>
<polygon fill="white" stroke="none" points="-4,4 -4,-237 270,-237 270,4 -4,4"/>
<!-- Node329 -->
<g id="node1" class="node"><title>Node329</title>
<g id="a_node1"><a xlink:title="SSE &#160;. A boolean is also returned to indicate if the partition is valid.">
<polygon fill="#bfbfbf" stroke="black" points="0,-107 0,-126 56,-126 56,-107 0,-107"/>
<text text-anchor="middle" x="28" y="-114" font-family="Helvetica,sans-Serif" font-size="10.00">um::SSE</text>
</a>
</g>
</g>
<!-- Node330 -->
<g id="node2" class="node"><title>Node330</title>
<g id="a_node2"><a xlink:href="classpartition_1_1_partition.html#acb8de7c890e05872858fb7a7aa53b657" target="_top" xlink:title=" ">
<polygon fill="white" stroke="black" points="132.5,-202.5 132.5,-232.5 225.5,-232.5 225.5,-202.5 132.5,-202.5"/>
<text text-anchor="start" x="140.5" y="-220.5" font-family="Helvetica,sans-Serif" font-size="10.00">partition::Partition</text>
<text text-anchor="middle" x="179" y="-209.5" font-family="Helvetica,sans-Serif" font-size="10.00">::begin</text>
</a>
</g>
</g>
<!-- Node329&#45;&gt;Node330 -->
<g id="edge1" class="edge"><title>Node329&#45;&gt;Node330</title>
<path fill="none" stroke="midnightblue" d="M34.4236,-126.255C43.9406,-142.469 65.2061,-174.916 92,-192.5 101.156,-198.509 111.785,-203.104 122.382,-206.608"/>
<polygon fill="midnightblue" stroke="midnightblue" points="121.477,-209.991 132.062,-209.529 123.499,-203.289 121.477,-209.991"/>
</g>
<!-- Node331 -->
<g id="node3" class="node"><title>Node331</title>
<g id="a_node3"><a xlink:href="classdata_1_1_instance.html#aa6ee19c383a86228b3d134e42bdb6830" target="_top" xlink:title=" ">
<polygon fill="white" stroke="black" points="109,-164 109,-183 249,-183 249,-164 109,-164"/>
<text text-anchor="middle" x="179" y="-171" font-family="Helvetica,sans-Serif" font-size="10.00">data::Instance::getFeatures</text>
</a>
</g>
</g>
<!-- Node329&#45;&gt;Node331 -->
<g id="edge2" class="edge"><title>Node329&#45;&gt;Node331</title>
<path fill="none" stroke="midnightblue" d="M42.3347,-126.315C54.6455,-134.933 73.7333,-147.202 92,-154.5 98.3919,-157.054 105.195,-159.297 112.067,-161.26"/>
<polygon fill="midnightblue" stroke="midnightblue" points="111.582,-164.752 122.145,-163.938 113.38,-157.987 111.582,-164.752"/>
</g>
<!-- Node332 -->
<g id="node4" class="node"><title>Node332</title>
<g id="a_node4"><a xlink:href="classdata_1_1_instance.html#a90d1eaeb66cc1470bbfdb95434fdb761" target="_top" xlink:title=" ">
<polygon fill="white" stroke="black" points="92,-126 92,-145 266,-145 266,-126 92,-126"/>
<text text-anchor="middle" x="179" y="-133" font-family="Helvetica,sans-Serif" font-size="10.00">data::Instance::getNumDimensions</text>
</a>
</g>
</g>
<!-- Node329&#45;&gt;Node332 -->
<g id="edge3" class="edge"><title>Node329&#45;&gt;Node332</title>
<path fill="none" stroke="midnightblue" d="M56.3289,-119.985C66.9737,-121.342 79.8012,-122.978 93.0791,-124.671"/>
<polygon fill="midnightblue" stroke="midnightblue" points="92.9295,-128.18 103.292,-125.973 93.815,-121.237 92.9295,-128.18"/>
</g>
<!-- Node333 -->
<g id="node5" class="node"><title>Node333</title>
<g id="a_node5"><a xlink:href="classmat_1_1_matrix_base.html#ac500eedd5e203327d3292f8ab22d8f3e" target="_top" xlink:title=" ">
<polygon fill="white" stroke="black" points="101,-88 101,-107 257,-107 257,-88 101,-88"/>
<text text-anchor="middle" x="179" y="-95" font-family="Helvetica,sans-Serif" font-size="10.00">mat::MatrixBase::getNumRows</text>
</a>
</g>
</g>
<!-- Node329&#45;&gt;Node333 -->
<g id="edge4" class="edge"><title>Node329&#45;&gt;Node333</title>
<path fill="none" stroke="midnightblue" d="M56.3289,-113.015C66.9737,-111.658 79.8012,-110.022 93.0791,-108.329"/>
<polygon fill="midnightblue" stroke="midnightblue" points="93.815,-111.763 103.292,-107.027 92.9295,-104.82 93.815,-111.763"/>
</g>
<!-- Node334 -->
<g id="node6" class="node"><title>Node334</title>
<g id="a_node6"><a xlink:href="classmat_1_1_matrix_row.html#a5391a205367fbaac82a26ddc377a80af" target="_top" xlink:title=" ">
<polygon fill="white" stroke="black" points="115.5,-50 115.5,-69 242.5,-69 242.5,-50 115.5,-50"/>
<text text-anchor="middle" x="179" y="-57" font-family="Helvetica,sans-Serif" font-size="10.00">mat::MatrixRow::getRow</text>
</a>
</g>
</g>
<!-- Node329&#45;&gt;Node334 -->
<g id="edge5" class="edge"><title>Node329&#45;&gt;Node334</title>
<path fill="none" stroke="midnightblue" d="M42.3347,-106.685C54.6455,-98.0669 73.7333,-85.7979 92,-78.5 98.3919,-75.9463 105.195,-73.7032 112.067,-71.7404"/>
<polygon fill="midnightblue" stroke="midnightblue" points="113.38,-75.0132 122.145,-69.0618 111.582,-68.2481 113.38,-75.0132"/>
</g>
<!-- Node335 -->
<g id="node7" class="node"><title>Node335</title>
<g id="a_node7"><a xlink:href="classpartition_1_1_partition.html#a96660ce61740ab0287189b21833eccdf" target="_top" xlink:title=" ">
<polygon fill="white" stroke="black" points="132.5,-0.5 132.5,-30.5 225.5,-30.5 225.5,-0.5 132.5,-0.5"/>
<text text-anchor="start" x="140.5" y="-18.5" font-family="Helvetica,sans-Serif" font-size="10.00">partition::Partition</text>
<text text-anchor="middle" x="179" y="-7.5" font-family="Helvetica,sans-Serif" font-size="10.00">::next</text>
</a>
</g>
</g>
<!-- Node329&#45;&gt;Node335 -->
<g id="edge6" class="edge"><title>Node329&#45;&gt;Node335</title>
<path fill="none" stroke="midnightblue" d="M34.4236,-106.745C43.9406,-90.5314 65.2061,-58.0842 92,-40.5 101.156,-34.4909 111.785,-29.8959 122.382,-26.3918"/>
<polygon fill="midnightblue" stroke="midnightblue" points="123.499,-29.7106 132.062,-23.4712 121.477,-23.009 123.499,-29.7106"/>
</g>
</g>
</svg>
