<?xml version="1.0" encoding="UTF-8" standalone="no"?>
<!DOCTYPE svg PUBLIC "-//W3C//DTD SVG 1.1//EN"
 "http://www.w3.org/Graphics/SVG/1.1/DTD/svg11.dtd">
<!-- Generated by graphviz version 2.38.0 (20140413.2041)
 -->
<!-- Title: eac::changeOptimalityAux Pages: 1 -->
<!--zoomable 401 -->
<svg id="main" version="1.1" xmlns="http://www.w3.org/2000/svg" xmlns:xlink="http://www.w3.org/1999/xlink" xml:space="preserve" onload="init(evt)">
<style type="text/css"><![CDATA[
.edge:hover path { stroke: red; }
.edge:hover polygon { stroke: red; fill: red; }
]]></style>
<script type="text/javascript"><![CDATA[
var edges = document.getElementsByTagName('g');
if (edges && edges.length) {
  for (var i=0;i<edges.length;i++) {
    if (edges[i].id.substr(0,4)=='edge') {
      edges[i].setAttribute('class','edge');
    }
  }
}
]]></script>
        <defs>
                <circle id="rim" cx="0" cy="0" r="7"/>
                <circle id="rim2" cx="0" cy="0" r="3.5"/>
                <g id="zoomPlus">
                        <use xlink:href="#rim" fill="#404040">
                                <set attributeName="fill" to="#808080" begin="zoomplus.mouseover" end="zoomplus.mouseout"/>
                        </use>
                        <path d="M-4,0h8M0,-4v8" fill="none" stroke="white" stroke-width="1.5" pointer-events="none"/>
                </g>
                <g id="zoomMin">
                        <use xlink:href="#rim" fill="#404040">
                                <set attributeName="fill" to="#808080" begin="zoomminus.mouseover" end="zoomminus.mouseout"/>
                        </use>
                        <path d="M-4,0h8" fill="none" stroke="white" stroke-width="1.5" pointer-events="none"/>
                </g>
                <g id="dirArrow">
                        <path fill="none" stroke="white" stroke-width="1.5" d="M0,-3.0v7 M-2.5,-0.5L0,-3.0L2.5,-0.5"/>
                </g>
               <g id="resetDef">
                       <use xlink:href="#rim2" fill="#404040">
                               <set attributeName="fill" to="#808080" begin="reset.mouseover" end="reset.mouseout"/>
                       </use>
               </g>
        </defs>

<script type="text/javascript">
var viewWidth = 889;
var viewHeight = 401;
var sectionId = 'dynsection-2';
</script>
<script xlink:href="svgpan.js"/>
<svg id="graph" class="graph">
<g id="viewport">
<title>eac::changeOptimalityAux</title>
<polygon fill="white" stroke="none" points="-4,4 -4,-397 885,-397 885,4 -4,4"/>
<!-- Node128 -->
<g id="node1" class="node"><title>Node128</title>
<g id="a_node1"><a xlink:title="Change optimality.">
<polygon fill="#bfbfbf" stroke="black" points="0,-160.5 0,-179.5 134,-179.5 134,-160.5 0,-160.5"/>
<text text-anchor="middle" x="67" y="-167.5" font-family="Helvetica,sans-Serif" font-size="10.00">eac::changeOptimalityAux</text>
</a>
</g>
</g>
<!-- Node129 -->
<g id="node2" class="node"><title>Node129</title>
<g id="a_node2"><a xlink:href="namespaceeac.html#a1bd1933090ebd920dd74748b9c31eb20" target="_top" xlink:title=" ">
<polygon fill="white" stroke="black" points="170,-160.5 170,-179.5 275,-179.5 275,-160.5 170,-160.5"/>
<text text-anchor="middle" x="222.5" y="-167.5" font-family="Helvetica,sans-Serif" font-size="10.00">eac::iterateGLAAux</text>
</a>
</g>
</g>
<!-- Node128&#45;&gt;Node129 -->
<g id="edge1" class="edge"><title>Node128&#45;&gt;Node129</title>
<path fill="none" stroke="midnightblue" d="M134.435,-163.304C142.845,-163.215 151.423,-163.236 159.756,-163.366"/>
<polygon fill="midnightblue" stroke="midnightblue" points="159.699,-166.865 169.771,-163.579 159.848,-159.867 159.699,-166.865"/>
</g>
<!-- Node143 -->
<g id="node16" class="node"><title>Node143</title>
<g id="a_node16"><a xlink:href="namespaceclusteringop.html#ad5da564b9274992e7f64e53f3c9d14b3" target="_top" xlink:title="Change each instance to the nearest cluster.">
<polygon fill="white" stroke="black" points="314.5,-95.5 314.5,-114.5 461.5,-114.5 461.5,-95.5 314.5,-95.5"/>
<text text-anchor="middle" x="388" y="-102.5" font-family="Helvetica,sans-Serif" font-size="10.00">clusteringop::reassignCluster</text>
</a>
</g>
</g>
<!-- Node128&#45;&gt;Node143 -->
<g id="edge24" class="edge"><title>Node128&#45;&gt;Node143</title>
<path fill="none" stroke="midnightblue" d="M114.727,-160.479C171.939,-148.821 268.785,-129.088 330.228,-116.568"/>
<polygon fill="midnightblue" stroke="midnightblue" points="331.048,-119.973 340.148,-114.547 329.651,-113.114 331.048,-119.973"/>
</g>
<!-- Node129&#45;&gt;Node128 -->
<g id="edge2" class="edge"><title>Node129&#45;&gt;Node128</title>
<path fill="none" stroke="midnightblue" d="M169.771,-176.421C161.618,-176.643 153.041,-176.752 144.469,-176.75"/>
<polygon fill="midnightblue" stroke="midnightblue" points="144.453,-173.25 134.435,-176.696 144.415,-180.25 144.453,-173.25"/>
</g>
<!-- Node130 -->
<g id="node3" class="node"><title>Node130</title>
<g id="a_node3"><a xlink:href="namespaceclusteringop.html#a105a75742a54520f643812c0ad4f0598" target="_top" xlink:title="Fill empty partitions.">
<polygon fill="white" stroke="black" points="311,-161.5 311,-180.5 465,-180.5 465,-161.5 311,-161.5"/>
<text text-anchor="middle" x="388" y="-168.5" font-family="Helvetica,sans-Serif" font-size="10.00">clusteringop::fillEmptyPartitions</text>
</a>
</g>
</g>
<!-- Node129&#45;&gt;Node130 -->
<g id="edge3" class="edge"><title>Node129&#45;&gt;Node130</title>
<path fill="none" stroke="midnightblue" d="M275.232,-170.316C283.369,-170.366 291.966,-170.419 300.632,-170.472"/>
<polygon fill="midnightblue" stroke="midnightblue" points="300.793,-173.973 310.815,-170.534 300.836,-166.973 300.793,-173.973"/>
</g>
<!-- Node139 -->
<g id="node12" class="node"><title>Node139</title>
<g id="a_node12"><a xlink:href="namespaceclusteringop.html#ab64951784015cb55d4b8a32993255713" target="_top" xlink:title=" ">
<polygon fill="white" stroke="black" points="315,-297.5 315,-316.5 461,-316.5 461,-297.5 315,-297.5"/>
<text text-anchor="middle" x="388" y="-304.5" font-family="Helvetica,sans-Serif" font-size="10.00">clusteringop::meanCentroids</text>
</a>
</g>
</g>
<!-- Node129&#45;&gt;Node139 -->
<g id="edge12" class="edge"><title>Node129&#45;&gt;Node139</title>
<path fill="none" stroke="midnightblue" d="M234.997,-179.634C262.605,-202.767 332.9,-261.668 367.357,-290.54"/>
<polygon fill="midnightblue" stroke="midnightblue" points="365.384,-293.454 375.297,-297.194 369.88,-288.088 365.384,-293.454"/>
</g>
<!-- Node129&#45;&gt;Node143 -->
<g id="edge17" class="edge"><title>Node129&#45;&gt;Node143</title>
<path fill="none" stroke="midnightblue" d="M247.625,-160.409C275.599,-149.288 321.888,-130.885 353.38,-118.366"/>
<polygon fill="midnightblue" stroke="midnightblue" points="355.043,-121.471 363.042,-114.524 352.457,-114.966 355.043,-121.471"/>
</g>
<!-- Node131 -->
<g id="node4" class="node"><title>Node131</title>
<g id="a_node4"><a xlink:href="namespaceinterfacesse.html#a925f44ed84d40e9af5050fa0e1373396" target="_top" xlink:title="copy array aoarrayt_x in aoarrayt_y of type T">
<polygon fill="white" stroke="black" points="538.5,-183.5 538.5,-202.5 637.5,-202.5 637.5,-183.5 538.5,-183.5"/>
<text text-anchor="middle" x="588" y="-190.5" font-family="Helvetica,sans-Serif" font-size="10.00">interfacesse::copy</text>
</a>
</g>
</g>
<!-- Node130&#45;&gt;Node131 -->
<g id="edge4" class="edge"><title>Node130&#45;&gt;Node131</title>
<path fill="none" stroke="midnightblue" d="M465.269,-179.474C486.142,-181.794 508.44,-184.271 528.174,-186.464"/>
<polygon fill="midnightblue" stroke="midnightblue" points="527.913,-189.956 538.238,-187.582 528.686,-182.999 527.913,-189.956"/>
</g>
<!-- Node132 -->
<g id="node5" class="node"><title>Node132</title>
<g id="a_node5"><a xlink:href="classdata_1_1_instance.html#aa6ee19c383a86228b3d134e42bdb6830" target="_top" xlink:title=" ">
<polygon fill="white" stroke="black" points="518,-95.5 518,-114.5 658,-114.5 658,-95.5 518,-95.5"/>
<text text-anchor="middle" x="588" y="-102.5" font-family="Helvetica,sans-Serif" font-size="10.00">data::Instance::getFeatures</text>
</a>
</g>
</g>
<!-- Node130&#45;&gt;Node132 -->
<g id="edge5" class="edge"><title>Node130&#45;&gt;Node132</title>
<path fill="none" stroke="midnightblue" d="M408.824,-161.396C430.896,-151.009 467.837,-134.527 501,-124 509.259,-121.378 518.076,-118.986 526.8,-116.85"/>
<polygon fill="midnightblue" stroke="midnightblue" points="527.642,-120.248 536.574,-114.549 526.038,-113.434 527.642,-120.248"/>
</g>
<!-- Node133 -->
<g id="node6" class="node"><title>Node133</title>
<g id="a_node6"><a xlink:href="classdata_1_1_instance_freq.html#a99fa2afc7a6375f3d71af4adc3c21f39" target="_top" xlink:title=" ">
<polygon fill="white" stroke="black" points="537.5,-134 537.5,-164 638.5,-164 638.5,-134 537.5,-134"/>
<text text-anchor="start" x="545.5" y="-152" font-family="Helvetica,sans-Serif" font-size="10.00">data::InstanceFreq</text>
<text text-anchor="middle" x="588" y="-141" font-family="Helvetica,sans-Serif" font-size="10.00">::getFrequency</text>
</a>
</g>
</g>
<!-- Node130&#45;&gt;Node133 -->
<g id="edge6" class="edge"><title>Node130&#45;&gt;Node133</title>
<path fill="none" stroke="midnightblue" d="M465.269,-162.526C485.864,-160.237 507.846,-157.795 527.383,-155.624"/>
<polygon fill="midnightblue" stroke="midnightblue" points="527.804,-159.099 537.357,-154.516 527.031,-152.142 527.804,-159.099"/>
</g>
<!-- Node134 -->
<g id="node7" class="node"><title>Node134</title>
<g id="a_node7"><a xlink:href="classdata_1_1_instance.html#a90d1eaeb66cc1470bbfdb95434fdb761" target="_top" xlink:title=" ">
<polygon fill="white" stroke="black" points="501,-221.5 501,-240.5 675,-240.5 675,-221.5 501,-221.5"/>
<text text-anchor="middle" x="588" y="-228.5" font-family="Helvetica,sans-Serif" font-size="10.00">data::Instance::getNumDimensions</text>
</a>
</g>
</g>
<!-- Node130&#45;&gt;Node134 -->
<g id="edge7" class="edge"><title>Node130&#45;&gt;Node134</title>
<path fill="none" stroke="midnightblue" d="M412.294,-180.563C434.74,-189.53 469.795,-202.885 501,-212 509.839,-214.582 519.277,-217 528.545,-219.189"/>
<polygon fill="midnightblue" stroke="midnightblue" points="527.969,-222.648 538.498,-221.471 529.534,-215.825 527.969,-222.648"/>
</g>
<!-- Node135 -->
<g id="node8" class="node"><title>Node135</title>
<g id="a_node8"><a xlink:href="namespacestats.html#a61ea16e97e098fc1598f4a2975cb0a24" target="_top" xlink:title="￼Calculate average of a vector">
<polygon fill="white" stroke="black" points="539,-297.5 539,-316.5 637,-316.5 637,-297.5 539,-297.5"/>
<text text-anchor="middle" x="588" y="-304.5" font-family="Helvetica,sans-Serif" font-size="10.00">stats::meanVector</text>
</a>
</g>
</g>
<!-- Node130&#45;&gt;Node135 -->
<g id="edge8" class="edge"><title>Node130&#45;&gt;Node135</title>
<path fill="none" stroke="midnightblue" d="M402.359,-180.612C423.269,-195.612 465.057,-225.42 501,-250 522.153,-264.465 546.521,-280.564 563.905,-291.953"/>
<polygon fill="midnightblue" stroke="midnightblue" points="562.021,-294.903 572.306,-297.446 565.852,-289.044 562.021,-294.903"/>
</g>
<!-- Node136 -->
<g id="node9" class="node"><title>Node136</title>
<g id="a_node9"><a xlink:href="namespaceinout.html#a0c10a45877a347dec0d4ec4e5b05b828" target="_top" xlink:title=" ">
<polygon fill="white" stroke="black" points="744.5,-213.5 744.5,-232.5 847.5,-232.5 847.5,-213.5 744.5,-213.5"/>
<text text-anchor="middle" x="796" y="-220.5" font-family="Helvetica,sans-Serif" font-size="10.00">inout::containerprint</text>
</a>
</g>
</g>
<!-- Node135&#45;&gt;Node136 -->
<g id="edge9" class="edge"><title>Node135&#45;&gt;Node136</title>
<path fill="none" stroke="midnightblue" d="M629.338,-297.452C643.924,-293.554 660.392,-288.631 675,-283 708.769,-269.984 745.751,-250.666 769.607,-237.49"/>
<polygon fill="midnightblue" stroke="midnightblue" points="771.348,-240.526 778.374,-232.597 767.937,-234.414 771.348,-240.526"/>
</g>
<!-- Node137 -->
<g id="node10" class="node"><title>Node137</title>
<g id="a_node10"><a xlink:href="namespaceinterfacesse.html#aa4b94bf2bf8cb7c437fa3feba8b70ff8" target="_top" xlink:title="Initializes the array with a constant .">
<polygon fill="white" stroke="black" points="743.5,-316.5 743.5,-335.5 848.5,-335.5 848.5,-316.5 743.5,-316.5"/>
<text text-anchor="middle" x="796" y="-323.5" font-family="Helvetica,sans-Serif" font-size="10.00">interfacesse::copya</text>
</a>
</g>
</g>
<!-- Node135&#45;&gt;Node137 -->
<g id="edge10" class="edge"><title>Node135&#45;&gt;Node137</title>
<path fill="none" stroke="midnightblue" d="M637.038,-311.431C665.664,-314.071 702.301,-317.45 733.083,-320.289"/>
<polygon fill="midnightblue" stroke="midnightblue" points="732.998,-323.796 743.277,-321.229 733.641,-316.826 732.998,-323.796"/>
</g>
<!-- Node138 -->
<g id="node11" class="node"><title>Node138</title>
<g id="a_node11"><a xlink:href="namespaceinterfacesse.html#ae3f94c42a59db65b2941dbfc9f449ea1" target="_top" xlink:title="function xAXPY of blas for doubles vectors">
<polygon fill="white" stroke="black" points="740,-278.5 740,-297.5 852,-297.5 852,-278.5 740,-278.5"/>
<text text-anchor="middle" x="796" y="-285.5" font-family="Helvetica,sans-Serif" font-size="10.00">interfacesse::axpyInv</text>
</a>
</g>
</g>
<!-- Node135&#45;&gt;Node138 -->
<g id="edge11" class="edge"><title>Node135&#45;&gt;Node138</title>
<path fill="none" stroke="midnightblue" d="M637.038,-302.569C664.703,-300.018 699.849,-296.776 729.962,-293.999"/>
<polygon fill="midnightblue" stroke="midnightblue" points="730.327,-297.48 739.963,-293.076 729.684,-290.51 730.327,-297.48"/>
</g>
<!-- Node139&#45;&gt;Node135 -->
<g id="edge15" class="edge"><title>Node139&#45;&gt;Node135</title>
<path fill="none" stroke="midnightblue" d="M461.043,-307C483.278,-307 507.477,-307 528.668,-307"/>
<polygon fill="midnightblue" stroke="midnightblue" points="528.807,-310.5 538.807,-307 528.807,-303.5 528.807,-310.5"/>
</g>
<!-- Node140 -->
<g id="node13" class="node"><title>Node140</title>
<g id="a_node13"><a xlink:href="classmat_1_1_matrix_base.html#ac500eedd5e203327d3292f8ab22d8f3e" target="_top" xlink:title=" ">
<polygon fill="white" stroke="black" points="718,-122.5 718,-141.5 874,-141.5 874,-122.5 718,-122.5"/>
<text text-anchor="middle" x="796" y="-129.5" font-family="Helvetica,sans-Serif" font-size="10.00">mat::MatrixBase::getNumRows</text>
</a>
</g>
</g>
<!-- Node139&#45;&gt;Node140 -->
<g id="edge13" class="edge"><title>Node139&#45;&gt;Node140</title>
<path fill="none" stroke="midnightblue" d="M441.79,-297.458C521.674,-282.88 665.083,-256.104 675,-250 697.109,-236.392 693.056,-222.762 711,-204 731.079,-183.005 756.754,-161.686 774.403,-147.754"/>
<polygon fill="midnightblue" stroke="midnightblue" points="776.633,-150.453 782.363,-141.542 772.326,-144.935 776.633,-150.453"/>
</g>
<!-- Node141 -->
<g id="node14" class="node"><title>Node141</title>
<g id="a_node14"><a xlink:href="classmat_1_1_matrix_base.html#ae3b1c4b8e9cb7e7685d7bc129f875dcd" target="_top" xlink:title=" ">
<polygon fill="white" stroke="black" points="522.5,-335.5 522.5,-354.5 653.5,-354.5 653.5,-335.5 522.5,-335.5"/>
<text text-anchor="middle" x="588" y="-342.5" font-family="Helvetica,sans-Serif" font-size="10.00">mat::MatrixBase::getRow</text>
</a>
</g>
</g>
<!-- Node139&#45;&gt;Node141 -->
<g id="edge14" class="edge"><title>Node139&#45;&gt;Node141</title>
<path fill="none" stroke="midnightblue" d="M438.708,-316.54C465.541,-321.69 498.859,-328.084 527.113,-333.506"/>
<polygon fill="midnightblue" stroke="midnightblue" points="526.791,-337.009 537.271,-335.456 528.11,-330.134 526.791,-337.009"/>
</g>
<!-- Node142 -->
<g id="node15" class="node"><title>Node142</title>
<g id="a_node15"><a xlink:href="classmat_1_1_matrix_base.html#a4cdb6c084f99e4aec0373760c093ee11" target="_top" xlink:title=" ">
<polygon fill="white" stroke="black" points="531,-373.5 531,-392.5 645,-392.5 645,-373.5 531,-373.5"/>
<text text-anchor="middle" x="588" y="-380.5" font-family="Helvetica,sans-Serif" font-size="10.00">mat::MatrixBase::print</text>
</a>
</g>
</g>
<!-- Node139&#45;&gt;Node142 -->
<g id="edge16" class="edge"><title>Node139&#45;&gt;Node142</title>
<path fill="none" stroke="midnightblue" d="M404.747,-316.64C425.917,-329.213 465.057,-351.12 501,-364 508.287,-366.611 516.055,-368.933 523.829,-370.977"/>
<polygon fill="midnightblue" stroke="midnightblue" points="523.094,-374.401 533.644,-373.419 524.785,-367.608 523.094,-374.401"/>
</g>
<!-- Node143&#45;&gt;Node132 -->
<g id="edge19" class="edge"><title>Node143&#45;&gt;Node132</title>
<path fill="none" stroke="midnightblue" d="M461.604,-105C476.49,-105 492.235,-105 507.353,-105"/>
<polygon fill="midnightblue" stroke="midnightblue" points="507.701,-108.5 517.701,-105 507.701,-101.5 507.701,-108.5"/>
</g>
<!-- Node143&#45;&gt;Node136 -->
<g id="edge18" class="edge"><title>Node143&#45;&gt;Node136</title>
<path fill="none" stroke="midnightblue" d="M411.76,-95.4167C462.926,-75.4908 589.256,-35.4723 675,-86 703.451,-102.766 690.133,-125.404 711,-151 729.044,-173.133 754.461,-193.842 772.601,-207.316"/>
<polygon fill="midnightblue" stroke="midnightblue" points="770.712,-210.27 780.857,-213.324 774.831,-204.61 770.712,-210.27"/>
</g>
<!-- Node144 -->
<g id="node17" class="node"><title>Node144</title>
<g id="a_node17"><a xlink:href="namespacenearest.html#a8b0d89680acfe7ef438ae465bd633fb1" target="_top" xlink:title="NN Find the centroid closest to an instance.">
<polygon fill="white" stroke="black" points="553,-19.5 553,-38.5 623,-38.5 623,-19.5 553,-19.5"/>
<text text-anchor="middle" x="588" y="-26.5" font-family="Helvetica,sans-Serif" font-size="10.00">nearest::NN</text>
</a>
</g>
</g>
<!-- Node143&#45;&gt;Node144 -->
<g id="edge20" class="edge"><title>Node143&#45;&gt;Node144</title>
<path fill="none" stroke="midnightblue" d="M407.237,-95.4095C429.086,-84.1846 467.009,-65.5392 501,-53 514.327,-48.0836 529.133,-43.6116 542.652,-39.8959"/>
<polygon fill="midnightblue" stroke="midnightblue" points="543.938,-43.1748 552.692,-37.207 542.127,-36.413 543.938,-43.1748"/>
</g>
<!-- Node144&#45;&gt;Node140 -->
<g id="edge23" class="edge"><title>Node144&#45;&gt;Node140</title>
<path fill="none" stroke="midnightblue" d="M623.346,-35.9986C639.443,-39.9242 658.635,-45.5503 675,-53 712.844,-70.2269 752.286,-98.5172 775.197,-116.157"/>
<polygon fill="midnightblue" stroke="midnightblue" points="773.095,-118.956 783.131,-122.352 777.403,-113.439 773.095,-118.956"/>
</g>
<!-- Node145 -->
<g id="node18" class="node"><title>Node145</title>
<g id="a_node18"><a xlink:href="classmat_1_1_matrix_row.html#a5391a205367fbaac82a26ddc377a80af" target="_top" xlink:title=" ">
<polygon fill="white" stroke="black" points="732.5,-38.5 732.5,-57.5 859.5,-57.5 859.5,-38.5 732.5,-38.5"/>
<text text-anchor="middle" x="796" y="-45.5" font-family="Helvetica,sans-Serif" font-size="10.00">mat::MatrixRow::getRow</text>
</a>
</g>
</g>
<!-- Node144&#45;&gt;Node145 -->
<g id="edge21" class="edge"><title>Node144&#45;&gt;Node145</title>
<path fill="none" stroke="midnightblue" d="M623.017,-32.1375C649.84,-34.6114 688.214,-38.1508 721.911,-41.2588"/>
<polygon fill="midnightblue" stroke="midnightblue" points="721.922,-44.7745 732.201,-42.2079 722.565,-37.8041 721.922,-44.7745"/>
</g>
<!-- Node146 -->
<g id="node19" class="node"><title>Node146</title>
<g id="a_node19"><a xlink:href="classmat_1_1_matrix_base.html#a70200414022ce1479b9ddc16102b12ae" target="_top" xlink:title=" ">
<polygon fill="white" stroke="black" points="711,-0.5 711,-19.5 881,-19.5 881,-0.5 711,-0.5"/>
<text text-anchor="middle" x="796" y="-7.5" font-family="Helvetica,sans-Serif" font-size="10.00">mat::MatrixBase::getNumColumns</text>
</a>
</g>
</g>
<!-- Node144&#45;&gt;Node146 -->
<g id="edge22" class="edge"><title>Node144&#45;&gt;Node146</title>
<path fill="none" stroke="midnightblue" d="M623.017,-25.8625C644.288,-23.9006 672.825,-21.2686 700.532,-18.7131"/>
<polygon fill="midnightblue" stroke="midnightblue" points="701.051,-22.1801 710.687,-17.7764 700.408,-15.2097 701.051,-22.1801"/>
</g>
</g>
</svg>
        <g id="navigator" transform="translate(0 0)" fill="#404254">
                <rect fill="#f2f5e9" fill-opacity="0.5" stroke="#606060" stroke-width=".5" x="0" y="0" width="60" height="60"/>
                <use id="zoomplus" xlink:href="#zoomPlus" x="17" y="9" onmousedown="handleZoom(evt,'in')"/>
                <use id="zoomminus" xlink:href="#zoomMin" x="42" y="9" onmousedown="handleZoom(evt,'out')"/>
                <use id="reset" xlink:href="#resetDef" x="30" y="36" onmousedown="handleReset()"/>
                <g id="arrowUp" xlink:href="#dirArrow" transform="translate(30 24)" onmousedown="handlePan(0,-1)">
                  <use xlink:href="#rim" fill="#404040">
                        <set attributeName="fill" to="#808080" begin="arrowUp.mouseover" end="arrowUp.mouseout"/>
                  </use>
                  <path fill="none" stroke="white" stroke-width="1.5" d="M0,-3.0v7 M-2.5,-0.5L0,-3.0L2.5,-0.5"/>
                </g>
                <g id="arrowRight" xlink:href="#dirArrow" transform="rotate(90) translate(36 -43)" onmousedown="handlePan(1,0)">
                  <use xlink:href="#rim" fill="#404040">
                        <set attributeName="fill" to="#808080" begin="arrowRight.mouseover" end="arrowRight.mouseout"/>
                  </use>
                  <path fill="none" stroke="white" stroke-width="1.5" d="M0,-3.0v7 M-2.5,-0.5L0,-3.0L2.5,-0.5"/>
                </g>
                <g id="arrowDown" xlink:href="#dirArrow" transform="rotate(180) translate(-30 -48)" onmousedown="handlePan(0,1)">
                  <use xlink:href="#rim" fill="#404040">
                        <set attributeName="fill" to="#808080" begin="arrowDown.mouseover" end="arrowDown.mouseout"/>
                  </use>
                  <path fill="none" stroke="white" stroke-width="1.5" d="M0,-3.0v7 M-2.5,-0.5L0,-3.0L2.5,-0.5"/>
                </g>
                <g id="arrowLeft" xlink:href="#dirArrow" transform="rotate(270) translate(-36 17)" onmousedown="handlePan(-1,0)">
                  <use xlink:href="#rim" fill="#404040">
                        <set attributeName="fill" to="#808080" begin="arrowLeft.mouseover" end="arrowLeft.mouseout"/>
                  </use>
                  <path fill="none" stroke="white" stroke-width="1.5" d="M0,-3.0v7 M-2.5,-0.5L0,-3.0L2.5,-0.5"/>
                </g>
        </g>
        <svg viewBox="0 0 15 15" width="100%" height="30px" preserveAspectRatio="xMaxYMin meet">
         <g id="arrow_out" transform="scale(0.3 0.3)">
          <a xlink:href="namespaceeac_a52c8e34d3a1269220caf411c169b53bd_cgraph_org.svg" target="_base">
           <rect id="button" ry="5" rx="5" y="6" x="6" height="38" width="38"
                fill="#f2f5e9" fill-opacity="0.5" stroke="#606060" stroke-width="1.0"/>
           <path id="arrow"
             d="M 11.500037,31.436501 C 11.940474,20.09759 22.043105,11.32322 32.158766,21.979434 L 37.068811,17.246167 C 37.068811,17.246167 37.088388,32 37.088388,32 L 22.160133,31.978069 C 22.160133,31.978069 26.997745,27.140456 26.997745,27.140456 C 18.528582,18.264221 13.291696,25.230495 11.500037,31.436501 z"
             style="fill:#404040;"/>
          </a>
         </g>
        </svg>
</svg>
