<?xml version="1.0" encoding="UTF-8" standalone="no"?>
<!DOCTYPE svg PUBLIC "-//W3C//DTD SVG 1.1//EN"
 "http://www.w3.org/Graphics/SVG/1.1/DTD/svg11.dtd">
<!-- Generated by graphviz version 2.38.0 (20140413.2041)
 -->
<!-- Title: gabinaryop::onePointCrossover Pages: 1 -->
<svg width="726pt" height="307pt"
 viewBox="0.00 0.00 726.00 307.00" xmlns="http://www.w3.org/2000/svg" xmlns:xlink="http://www.w3.org/1999/xlink">
<g id="graph0" class="graph" transform="scale(1 1) rotate(0) translate(4 303)">
<title>gabinaryop::onePointCrossover</title>
<polygon fill="white" stroke="none" points="-4,4 -4,-303 722,-303 722,4 -4,4"/>
<!-- Node38 -->
<g id="node1" class="node"><title>Node38</title>
<g id="a_node1"><a xlink:title=" ">
<polygon fill="#bfbfbf" stroke="black" points="0,-50 0,-69 160,-69 160,-50 0,-50"/>
<text text-anchor="middle" x="80" y="-57" font-family="Helvetica,sans-Serif" font-size="10.00">gabinaryop::onePointCrossover</text>
</a>
</g>
</g>
<!-- Node39 -->
<g id="node2" class="node"><title>Node39</title>
<g id="a_node2"><a xlink:href="classds_1_1_bit_container.html#acf7b867d95ea6ee5083cb8d0ce404a43" target="_top" xlink:title=" ">
<polygon fill="white" stroke="black" points="203.5,-154 203.5,-173 354.5,-173 354.5,-154 203.5,-154"/>
<text text-anchor="middle" x="279" y="-161" font-family="Helvetica,sans-Serif" font-size="10.00">ds::BitContainer::copyAligned</text>
</a>
</g>
</g>
<!-- Node38&#45;&gt;Node39 -->
<g id="edge1" class="edge"><title>Node38&#45;&gt;Node39</title>
<path fill="none" stroke="midnightblue" d="M99.1802,-69.0977C133.997,-87.4783 210.243,-127.73 251.017,-149.255"/>
<polygon fill="midnightblue" stroke="midnightblue" points="249.386,-152.352 259.864,-153.926 252.654,-146.162 249.386,-152.352"/>
</g>
<!-- Node45 -->
<g id="node8" class="node"><title>Node45</title>
<g id="a_node8"><a xlink:href="classgaencode_1_1_chromosome_bit_array.html#a5b129de998156a2e67f794de38a43ab7" target="_top" xlink:title=" ">
<polygon fill="white" stroke="black" points="196,-44.5 196,-74.5 362,-74.5 362,-44.5 196,-44.5"/>
<text text-anchor="start" x="204" y="-62.5" font-family="Helvetica,sans-Serif" font-size="10.00">gaencode::ChromosomeBitArray</text>
<text text-anchor="middle" x="279" y="-51.5" font-family="Helvetica,sans-Serif" font-size="10.00">::print</text>
</a>
</g>
</g>
<!-- Node38&#45;&gt;Node45 -->
<g id="edge7" class="edge"><title>Node38&#45;&gt;Node45</title>
<path fill="none" stroke="midnightblue" d="M160.276,-59.5C168.729,-59.5 177.379,-59.5 185.962,-59.5"/>
<polygon fill="midnightblue" stroke="midnightblue" points="185.993,-63.0001 195.993,-59.5 185.993,-56.0001 185.993,-63.0001"/>
</g>
<!-- Node49 -->
<g id="node12" class="node"><title>Node49</title>
<g id="a_node12"><a xlink:href="classmat_1_1_bit_array.html#a29b36b5521b6ab19f7427f3d1f7bee4b" target="_top" xlink:title=" ">
<polygon fill="white" stroke="black" points="229.5,-6 229.5,-25 328.5,-25 328.5,-6 229.5,-6"/>
<text text-anchor="middle" x="279" y="-13" font-family="Helvetica,sans-Serif" font-size="10.00">mat::BitArray::size</text>
</a>
</g>
</g>
<!-- Node38&#45;&gt;Node49 -->
<g id="edge12" class="edge"><title>Node38&#45;&gt;Node49</title>
<path fill="none" stroke="midnightblue" d="M123.746,-49.9527C153.563,-43.2931 193.542,-34.3637 225.328,-27.2642"/>
<polygon fill="midnightblue" stroke="midnightblue" points="226.341,-30.6244 235.337,-25.0287 224.815,-23.7927 226.341,-30.6244"/>
</g>
<!-- Node40 -->
<g id="node3" class="node"><title>Node40</title>
<g id="a_node3"><a xlink:href="classds_1_1_bit_container.html#a270017ae0707089eb308052371945175" target="_top" xlink:title=" ">
<polygon fill="white" stroke="black" points="428,-268.5 428,-298.5 523,-298.5 523,-268.5 428,-268.5"/>
<text text-anchor="start" x="436" y="-286.5" font-family="Helvetica,sans-Serif" font-size="10.00">ds::BitContainer::</text>
<text text-anchor="middle" x="475.5" y="-275.5" font-family="Helvetica,sans-Serif" font-size="10.00">_getBitOffset</text>
</a>
</g>
</g>
<!-- Node39&#45;&gt;Node40 -->
<g id="edge2" class="edge"><title>Node39&#45;&gt;Node40</title>
<path fill="none" stroke="midnightblue" d="M289.181,-173.099C307.92,-192.174 352.646,-235.106 398,-259.5 404.321,-262.9 411.199,-265.904 418.154,-268.533"/>
<polygon fill="midnightblue" stroke="midnightblue" points="417.044,-271.853 427.639,-271.889 419.379,-265.254 417.044,-271.853"/>
</g>
<!-- Node41 -->
<g id="node4" class="node"><title>Node41</title>
<g id="a_node4"><a xlink:href="classds_1_1_bit_container.html#ae96782365827c126e1824566333feaa5" target="_top" xlink:title=" ">
<polygon fill="white" stroke="black" points="427,-219.5 427,-249.5 524,-249.5 524,-219.5 427,-219.5"/>
<text text-anchor="start" x="435" y="-237.5" font-family="Helvetica,sans-Serif" font-size="10.00">ds::BitContainer::</text>
<text text-anchor="middle" x="475.5" y="-226.5" font-family="Helvetica,sans-Serif" font-size="10.00">_getWordIndexBit</text>
</a>
</g>
</g>
<!-- Node39&#45;&gt;Node41 -->
<g id="edge3" class="edge"><title>Node39&#45;&gt;Node41</title>
<path fill="none" stroke="midnightblue" d="M302.43,-173.018C326.028,-182.892 364.34,-198.536 398,-210.5 404.257,-212.724 410.838,-214.952 417.405,-217.106"/>
<polygon fill="midnightblue" stroke="midnightblue" points="416.386,-220.455 426.978,-220.2 418.539,-213.795 416.386,-220.455"/>
</g>
<!-- Node42 -->
<g id="node5" class="node"><title>Node42</title>
<g id="a_node5"><a xlink:href="classds_1_1_bit_container.html#a746626817d294dc7eeb089f60b77e54c" target="_top" xlink:title="_setWordAligned">
<polygon fill="white" stroke="black" points="428,-170.5 428,-200.5 523,-200.5 523,-170.5 428,-170.5"/>
<text text-anchor="start" x="436" y="-188.5" font-family="Helvetica,sans-Serif" font-size="10.00">ds::BitContainer::</text>
<text text-anchor="middle" x="475.5" y="-177.5" font-family="Helvetica,sans-Serif" font-size="10.00">_setWordAligned</text>
</a>
</g>
</g>
<!-- Node39&#45;&gt;Node42 -->
<g id="edge4" class="edge"><title>Node39&#45;&gt;Node42</title>
<path fill="none" stroke="midnightblue" d="M354.643,-171.943C375.625,-174.316 398.093,-176.858 417.841,-179.091"/>
<polygon fill="midnightblue" stroke="midnightblue" points="417.567,-182.583 427.897,-180.229 418.354,-175.627 417.567,-182.583"/>
</g>
<!-- Node43 -->
<g id="node6" class="node"><title>Node43</title>
<g id="a_node6"><a xlink:href="classds_1_1_bit_container.html#ac411be8a6a028077107ab9c7a60b5546" target="_top" xlink:title=" ">
<polygon fill="white" stroke="black" points="593.5,-91 593.5,-110 713.5,-110 713.5,-91 593.5,-91"/>
<text text-anchor="middle" x="653.5" y="-98" font-family="Helvetica,sans-Serif" font-size="10.00">ds::BitContainer::getBit</text>
</a>
</g>
</g>
<!-- Node39&#45;&gt;Node43 -->
<g id="edge5" class="edge"><title>Node39&#45;&gt;Node43</title>
<path fill="none" stroke="midnightblue" d="M352.649,-153.97C407.786,-146.403 485.377,-135.039 553,-122.5 569.124,-119.51 586.617,-115.801 602.373,-112.286"/>
<polygon fill="midnightblue" stroke="midnightblue" points="603.461,-115.628 612.445,-110.013 601.92,-108.8 603.461,-115.628"/>
</g>
<!-- Node44 -->
<g id="node7" class="node"><title>Node44</title>
<g id="a_node7"><a xlink:href="classds_1_1_bit_container.html#addd9b30d11f1d2f871337a05c9cc65b6" target="_top" xlink:title=" ">
<polygon fill="white" stroke="black" points="419,-94 419,-113 532,-113 532,-94 419,-94"/>
<text text-anchor="middle" x="475.5" y="-101" font-family="Helvetica,sans-Serif" font-size="10.00">ds::BitContainer::print</text>
</a>
</g>
</g>
<!-- Node39&#45;&gt;Node44 -->
<g id="edge6" class="edge"><title>Node39&#45;&gt;Node44</title>
<path fill="none" stroke="midnightblue" d="M310.819,-153.993C344.011,-143.754 396.98,-127.414 433.629,-116.108"/>
<polygon fill="midnightblue" stroke="midnightblue" points="434.98,-119.354 443.504,-113.062 432.916,-112.665 434.98,-119.354"/>
</g>
<!-- Node46 -->
<g id="node9" class="node"><title>Node46</title>
<g id="a_node9"><a xlink:href="classgaencode_1_1_chromosome_base.html#ab7a374a062ba8b5c6b4e674bae9a8299" target="_top" xlink:title=" ">
<polygon fill="white" stroke="black" points="398,-44.5 398,-74.5 553,-74.5 553,-44.5 398,-44.5"/>
<text text-anchor="start" x="406" y="-62.5" font-family="Helvetica,sans-Serif" font-size="10.00">gaencode::ChromosomeBase</text>
<text text-anchor="middle" x="475.5" y="-51.5" font-family="Helvetica,sans-Serif" font-size="10.00">::print</text>
</a>
</g>
</g>
<!-- Node45&#45;&gt;Node46 -->
<g id="edge8" class="edge"><title>Node45&#45;&gt;Node46</title>
<path fill="none" stroke="midnightblue" d="M362.204,-59.5C370.606,-59.5 379.163,-59.5 387.614,-59.5"/>
<polygon fill="midnightblue" stroke="midnightblue" points="387.852,-63.0001 397.852,-59.5 387.852,-56.0001 387.852,-63.0001"/>
</g>
<!-- Node47 -->
<g id="node10" class="node"><title>Node47</title>
<g id="a_node10"><a xlink:href="classmat_1_1_bit_array.html#a069efb2e4c68ffc2dec049e147de0fbb" target="_top" xlink:title=" ">
<polygon fill="white" stroke="black" points="426.5,-6 426.5,-25 524.5,-25 524.5,-6 426.5,-6"/>
<text text-anchor="middle" x="475.5" y="-13" font-family="Helvetica,sans-Serif" font-size="10.00">mat::BitArray::print</text>
</a>
</g>
</g>
<!-- Node45&#45;&gt;Node47 -->
<g id="edge9" class="edge"><title>Node45&#45;&gt;Node47</title>
<path fill="none" stroke="midnightblue" d="M346.392,-44.4808C371.22,-38.864 399.043,-32.57 422.399,-27.2863"/>
<polygon fill="midnightblue" stroke="midnightblue" points="423.47,-30.6327 432.451,-25.0124 421.925,-23.8052 423.47,-30.6327"/>
</g>
<!-- Node47&#45;&gt;Node43 -->
<g id="edge11" class="edge"><title>Node47&#45;&gt;Node43</title>
<path fill="none" stroke="midnightblue" d="M524.678,-24.7949C534.262,-27.3822 544.107,-30.5864 553,-34.5 582.945,-47.6777 613.786,-69.693 633.036,-84.64"/>
<polygon fill="midnightblue" stroke="midnightblue" points="631.006,-87.4962 641.021,-90.9531 635.347,-82.0053 631.006,-87.4962"/>
</g>
<!-- Node48 -->
<g id="node11" class="node"><title>Node48</title>
<g id="a_node11"><a xlink:href="classds_1_1_bit_container.html#aefad9145f725e5584f59e6f9ff64e07b" target="_top" xlink:title=" ">
<polygon fill="white" stroke="black" points="589,-0.5 589,-30.5 718,-30.5 718,-0.5 589,-0.5"/>
<text text-anchor="start" x="597" y="-18.5" font-family="Helvetica,sans-Serif" font-size="10.00">ds::BitContainer::getNum</text>
<text text-anchor="middle" x="653.5" y="-7.5" font-family="Helvetica,sans-Serif" font-size="10.00">BitOn</text>
</a>
</g>
</g>
<!-- Node47&#45;&gt;Node48 -->
<g id="edge10" class="edge"><title>Node47&#45;&gt;Node48</title>
<path fill="none" stroke="midnightblue" d="M524.593,-15.5C541.338,-15.5 560.53,-15.5 578.866,-15.5"/>
<polygon fill="midnightblue" stroke="midnightblue" points="578.944,-19.0001 588.944,-15.5 578.944,-12.0001 578.944,-19.0001"/>
</g>
</g>
</svg>
