<?xml version="1.0" encoding="UTF-8" standalone="no"?>
<!DOCTYPE svg PUBLIC "-//W3C//DTD SVG 1.1//EN"
 "http://www.w3.org/Graphics/SVG/1.1/DTD/svg11.dtd">
<!-- Generated by graphviz version 2.38.0 (20140413.2041)
 -->
<!-- Title: gagenericop::GAGRx1x2down Pages: 1 -->
<svg width="1868pt" height="785pt"
 viewBox="0.00 0.00 1868.00 785.12" xmlns="http://www.w3.org/2000/svg" xmlns:xlink="http://www.w3.org/1999/xlink">
<g id="graph0" class="graph" transform="scale(1 1) rotate(0) translate(4 781.12)">
<title>gagenericop::GAGRx1x2down</title>
<polygon fill="white" stroke="none" points="-4,4 -4,-781.12 1864,-781.12 1864,4 -4,4"/>
<!-- Node113 -->
<g id="node1" class="node"><title>Node113</title>
<polygon fill="#bfbfbf" stroke="black" points="0,-172.12 0,-191.12 157,-191.12 157,-172.12 0,-172.12"/>
<text text-anchor="middle" x="78.5" y="-179.12" font-family="Helvetica,sans-Serif" font-size="10.00">gagenericop::GAGRx1x2down</text>
</g>
<!-- Node114 -->
<g id="node2" class="node"><title>Node114</title>
<g id="a_node2"><a xlink:href="namespacegagenericop.html#ac6be127c2fa61f56bd544a1e20e9d4ac" target="_top" xlink:title="GAGRcrossoverpathM1n . ">
<polygon fill="white" stroke="black" points="193,-342.12 193,-361.12 386,-361.12 386,-342.12 193,-342.12"/>
<text text-anchor="middle" x="289.5" y="-349.12" font-family="Helvetica,sans-Serif" font-size="10.00">gagenericop::GAGRcrossoverpathM1n</text>
</a>
</g>
</g>
<!-- Node113&#45;&gt;Node114 -->
<g id="edge1" class="edge"><title>Node113&#45;&gt;Node114</title>
<path fill="none" stroke="midnightblue" d="M91.3356,-191.247C125.751,-219.24 226.053,-300.825 268.816,-335.608"/>
<polygon fill="midnightblue" stroke="midnightblue" points="266.828,-338.503 276.794,-342.098 271.245,-333.073 266.828,-338.503"/>
</g>
<!-- Node115 -->
<g id="node3" class="node"><title>Node115</title>
<g id="a_node3"><a xlink:href="namespacegagenericop.html#a8b8c62724e80570f9e1bba39d350c845" target="_top" xlink:title="GAGRcrossoverpathM2n . ">
<polygon fill="white" stroke="black" points="422,-380.12 422,-399.12 615,-399.12 615,-380.12 422,-380.12"/>
<text text-anchor="middle" x="518.5" y="-387.12" font-family="Helvetica,sans-Serif" font-size="10.00">gagenericop::GAGRcrossoverpathM2n</text>
</a>
</g>
</g>
<!-- Node114&#45;&gt;Node115 -->
<g id="edge2" class="edge"><title>Node114&#45;&gt;Node115</title>
<path fill="none" stroke="midnightblue" d="M347.489,-361.16C378.791,-366.4 417.792,-372.928 450.541,-378.411"/>
<polygon fill="midnightblue" stroke="midnightblue" points="450.047,-381.877 460.488,-380.076 451.203,-374.973 450.047,-381.877"/>
</g>
<!-- Node116 -->
<g id="node4" class="node"><title>Node116</title>
<g id="a_node4"><a xlink:href="namespacegagenericop.html#a511232c4212e12892effb533b38f871a" target="_top" xlink:title="gagenericop::pathCrossover">
<polygon fill="white" stroke="black" points="651,-380.12 651,-399.12 797,-399.12 797,-380.12 651,-380.12"/>
<text text-anchor="middle" x="724" y="-387.12" font-family="Helvetica,sans-Serif" font-size="10.00">gagenericop::pathCrossover</text>
</a>
</g>
</g>
<!-- Node115&#45;&gt;Node116 -->
<g id="edge3" class="edge"><title>Node115&#45;&gt;Node116</title>
<path fill="none" stroke="midnightblue" d="M615.291,-382.88C623.793,-382.85 632.35,-382.884 640.725,-382.981"/>
<polygon fill="midnightblue" stroke="midnightblue" points="640.782,-386.482 650.833,-383.13 640.886,-379.483 640.782,-386.482"/>
</g>
<!-- Node116&#45;&gt;Node114 -->
<g id="edge27" class="edge"><title>Node116&#45;&gt;Node114</title>
<path fill="none" stroke="midnightblue" d="M675.86,-380.107C657.005,-376.622 635.044,-372.962 615,-370.62 542.241,-362.118 459.838,-357.353 396.277,-354.721"/>
<polygon fill="midnightblue" stroke="midnightblue" points="396.375,-351.222 386.242,-354.317 396.093,-358.217 396.375,-351.222"/>
</g>
<!-- Node116&#45;&gt;Node115 -->
<g id="edge30" class="edge"><title>Node116&#45;&gt;Node115</title>
<path fill="none" stroke="midnightblue" d="M650.833,-396.109C642.556,-396.259 633.994,-396.344 625.392,-396.365"/>
<polygon fill="midnightblue" stroke="midnightblue" points="625.293,-392.865 615.291,-396.359 625.289,-399.865 625.293,-392.865"/>
</g>
<!-- Node117 -->
<g id="node5" class="node"><title>Node117</title>
<g id="a_node5"><a xlink:href="classgaencode_1_1_chrom_fixed_length.html#a2d0b4e4d46c2f224ce34cf795407b407" target="_top" xlink:title="gaencode::ChromFixedLength\l::print">
<polygon fill="white" stroke="black" points="836,-697.62 836,-727.62 991,-727.62 991,-697.62 836,-697.62"/>
<text text-anchor="start" x="844" y="-715.62" font-family="Helvetica,sans-Serif" font-size="10.00">gaencode::ChromFixedLength</text>
<text text-anchor="middle" x="913.5" y="-704.62" font-family="Helvetica,sans-Serif" font-size="10.00">::print</text>
</a>
</g>
</g>
<!-- Node116&#45;&gt;Node117 -->
<g id="edge4" class="edge"><title>Node116&#45;&gt;Node117</title>
<path fill="none" stroke="midnightblue" d="M725.486,-399.3C728.091,-440.642 743.877,-604.136 833,-688.62 834.259,-689.813 835.575,-690.947 836.94,-692.025"/>
<polygon fill="midnightblue" stroke="midnightblue" points="834.988,-694.93 845.239,-697.604 838.893,-689.12 834.988,-694.93"/>
</g>
<!-- Node118 -->
<g id="node6" class="node"><title>Node118</title>
<g id="a_node6"><a xlink:href="classgaencode_1_1_chrom_fixed_length.html#a406e67fa48d6cdfc7a01f0c6e04f373b" target="_top" xlink:title="gaencode::ChromFixedLength\l::stcgetStringSize">
<polygon fill="white" stroke="black" points="836,-648.62 836,-678.62 991,-678.62 991,-648.62 836,-648.62"/>
<text text-anchor="start" x="844" y="-666.62" font-family="Helvetica,sans-Serif" font-size="10.00">gaencode::ChromFixedLength</text>
<text text-anchor="middle" x="913.5" y="-655.62" font-family="Helvetica,sans-Serif" font-size="10.00">::stcgetStringSize</text>
</a>
</g>
</g>
<!-- Node116&#45;&gt;Node118 -->
<g id="edge5" class="edge"><title>Node116&#45;&gt;Node118</title>
<path fill="none" stroke="midnightblue" d="M726.273,-399.141C731.685,-435.825 756.142,-569.406 833,-638.62 834.747,-640.193 836.593,-641.667 838.517,-643.049"/>
<polygon fill="midnightblue" stroke="midnightblue" points="837.053,-646.258 847.401,-648.531 840.729,-640.301 837.053,-646.258"/>
</g>
<!-- Node119 -->
<g id="node7" class="node"><title>Node119</title>
<g id="a_node7"><a xlink:href="namespaceinterfacesse.html#a925f44ed84d40e9af5050fa0e1373396" target="_top" xlink:title="copy array aoarrayt_x in aoarrayt_y of type T ">
<polygon fill="white" stroke="black" points="864,-610.12 864,-629.12 963,-629.12 963,-610.12 864,-610.12"/>
<text text-anchor="middle" x="913.5" y="-617.12" font-family="Helvetica,sans-Serif" font-size="10.00">interfacesse::copy</text>
</a>
</g>
</g>
<!-- Node116&#45;&gt;Node119 -->
<g id="edge6" class="edge"><title>Node116&#45;&gt;Node119</title>
<path fill="none" stroke="midnightblue" d="M726.968,-399.441C734.275,-433.24 763.116,-545.69 833,-600.62 839.197,-605.491 846.448,-609.143 854.003,-611.875"/>
<polygon fill="midnightblue" stroke="midnightblue" points="853.092,-615.257 863.68,-614.866 855.16,-608.569 853.092,-615.257"/>
</g>
<!-- Node126 -->
<g id="node14" class="node"><title>Node126</title>
<g id="a_node14"><a xlink:href="classgaencode_1_1_chrom_fixed_length.html#a4d1d15f6be16c0d0a23824033993aa71" target="_top" xlink:title="gaencode::ChromFixedLength\l::getString">
<polygon fill="white" stroke="black" points="836,-560.62 836,-590.62 991,-590.62 991,-560.62 836,-560.62"/>
<text text-anchor="start" x="844" y="-578.62" font-family="Helvetica,sans-Serif" font-size="10.00">gaencode::ChromFixedLength</text>
<text text-anchor="middle" x="913.5" y="-567.62" font-family="Helvetica,sans-Serif" font-size="10.00">::getString</text>
</a>
</g>
</g>
<!-- Node116&#45;&gt;Node126 -->
<g id="edge13" class="edge"><title>Node116&#45;&gt;Node126</title>
<path fill="none" stroke="midnightblue" d="M728.685,-399.337C739.833,-427.414 775.979,-509.343 833,-551.62 834.882,-553.015 836.845,-554.33 838.872,-555.569"/>
<polygon fill="midnightblue" stroke="midnightblue" points="837.644,-558.882 848.11,-560.53 840.956,-552.715 837.644,-558.882"/>
</g>
<!-- Node127 -->
<g id="node15" class="node"><title>Node127</title>
<g id="a_node15"><a xlink:href="namespacegagenericop.html#a6284f3552c374e022d93d4e13e04e170" target="_top" xlink:title="GAGRx1x2bar Definition 3. . ">
<polygon fill="white" stroke="black" points="840.5,-336.12 840.5,-355.12 986.5,-355.12 986.5,-336.12 840.5,-336.12"/>
<text text-anchor="middle" x="913.5" y="-343.12" font-family="Helvetica,sans-Serif" font-size="10.00">gagenericop::GAGRx1x2bar</text>
</a>
</g>
</g>
<!-- Node116&#45;&gt;Node127 -->
<g id="edge14" class="edge"><title>Node116&#45;&gt;Node127</title>
<path fill="none" stroke="midnightblue" d="M765.685,-380.072C793.941,-373.442 831.786,-364.561 861.975,-357.476"/>
<polygon fill="midnightblue" stroke="midnightblue" points="862.959,-360.84 871.895,-355.148 861.36,-354.026 862.959,-360.84"/>
</g>
<!-- Node129 -->
<g id="node17" class="node"><title>Node129</title>
<g id="a_node17"><a xlink:href="classgaencode_1_1_chrom_fixed_length.html#aac60dd08cf0d29f08845a6381d84edad" target="_top" xlink:title="gaencode::ChromFixedLength\l::getStringSize">
<polygon fill="white" stroke="black" points="836,-462.62 836,-492.62 991,-492.62 991,-462.62 836,-462.62"/>
<text text-anchor="start" x="844" y="-480.62" font-family="Helvetica,sans-Serif" font-size="10.00">gaencode::ChromFixedLength</text>
<text text-anchor="middle" x="913.5" y="-469.62" font-family="Helvetica,sans-Serif" font-size="10.00">::getStringSize</text>
</a>
</g>
</g>
<!-- Node116&#45;&gt;Node129 -->
<g id="edge17" class="edge"><title>Node116&#45;&gt;Node129</title>
<path fill="none" stroke="midnightblue" d="M739.127,-399.249C759.253,-412.639 797.663,-436.992 833,-452.62 838.256,-454.944 843.794,-457.149 849.401,-459.215"/>
<polygon fill="midnightblue" stroke="midnightblue" points="848.27,-462.527 858.865,-462.559 850.602,-455.927 848.27,-462.527"/>
</g>
<!-- Node130 -->
<g id="node18" class="node"><title>Node130</title>
<g id="a_node18"><a xlink:href="namespaceinout.html#a0c10a45877a347dec0d4ec4e5b05b828" target="_top" xlink:title="inout::containerprint">
<polygon fill="white" stroke="black" points="862,-424.12 862,-443.12 965,-443.12 965,-424.12 862,-424.12"/>
<text text-anchor="middle" x="913.5" y="-431.12" font-family="Helvetica,sans-Serif" font-size="10.00">inout::containerprint</text>
</a>
</g>
</g>
<!-- Node116&#45;&gt;Node130 -->
<g id="edge18" class="edge"><title>Node116&#45;&gt;Node130</title>
<path fill="none" stroke="midnightblue" d="M765.685,-399.167C793.941,-405.798 831.786,-414.679 861.975,-421.763"/>
<polygon fill="midnightblue" stroke="midnightblue" points="861.36,-425.214 871.895,-424.091 862.959,-418.399 861.36,-425.214"/>
</g>
<!-- Node131 -->
<g id="node19" class="node"><title>Node131</title>
<g id="a_node19"><a xlink:href="classgaencode_1_1_chrom_fixed_length.html#a5398efa14d86ed2fda30d2fc6f3d1089" target="_top" xlink:title="gaencode::ChromFixedLength\l::setString">
<polygon fill="white" stroke="black" points="836,-374.62 836,-404.62 991,-404.62 991,-374.62 836,-374.62"/>
<text text-anchor="start" x="844" y="-392.62" font-family="Helvetica,sans-Serif" font-size="10.00">gaencode::ChromFixedLength</text>
<text text-anchor="middle" x="913.5" y="-381.62" font-family="Helvetica,sans-Serif" font-size="10.00">::setString</text>
</a>
</g>
</g>
<!-- Node116&#45;&gt;Node131 -->
<g id="edge19" class="edge"><title>Node116&#45;&gt;Node131</title>
<path fill="none" stroke="midnightblue" d="M797.224,-389.62C806.543,-389.62 816.161,-389.62 825.684,-389.62"/>
<polygon fill="midnightblue" stroke="midnightblue" points="825.96,-393.12 835.96,-389.62 825.96,-386.12 825.96,-393.12"/>
</g>
<!-- Node132 -->
<g id="node20" class="node"><title>Node132</title>
<g id="a_node20"><a xlink:href="classgaencode_1_1_chromosome_base.html#ab136d6f70ea068097d764e5bc34015e1" target="_top" xlink:title="gaencode::ChromosomeBase\l::setFitness">
<polygon fill="white" stroke="black" points="836,-511.62 836,-541.62 991,-541.62 991,-511.62 836,-511.62"/>
<text text-anchor="start" x="844" y="-529.62" font-family="Helvetica,sans-Serif" font-size="10.00">gaencode::ChromosomeBase</text>
<text text-anchor="middle" x="913.5" y="-518.62" font-family="Helvetica,sans-Serif" font-size="10.00">::setFitness</text>
</a>
</g>
</g>
<!-- Node116&#45;&gt;Node132 -->
<g id="edge20" class="edge"><title>Node116&#45;&gt;Node132</title>
<path fill="none" stroke="midnightblue" d="M731.603,-399.399C746.846,-421.226 786.747,-474.223 833,-502.62 835.764,-504.317 838.657,-505.901 841.634,-507.379"/>
<polygon fill="midnightblue" stroke="midnightblue" points="840.219,-510.58 850.774,-511.501 843.097,-504.199 840.219,-510.58"/>
</g>
<!-- Node134 -->
<g id="node22" class="node"><title>Node134</title>
<g id="a_node22"><a xlink:href="classgaencode_1_1_chromosome_base.html#a6e201d174946aea43c98dcde4a0088f8" target="_top" xlink:title="gaencode::ChromosomeBase\l::getFitness">
<polygon fill="white" stroke="black" points="836,-286.62 836,-316.62 991,-316.62 991,-286.62 836,-286.62"/>
<text text-anchor="start" x="844" y="-304.62" font-family="Helvetica,sans-Serif" font-size="10.00">gaencode::ChromosomeBase</text>
<text text-anchor="middle" x="913.5" y="-293.62" font-family="Helvetica,sans-Serif" font-size="10.00">::getFitness</text>
</a>
</g>
</g>
<!-- Node116&#45;&gt;Node134 -->
<g id="edge22" class="edge"><title>Node116&#45;&gt;Node134</title>
<path fill="none" stroke="midnightblue" d="M739.127,-379.99C759.253,-366.6 797.663,-342.247 833,-326.62 838.256,-324.295 843.794,-322.091 849.401,-320.024"/>
<polygon fill="midnightblue" stroke="midnightblue" points="850.602,-323.312 858.865,-316.68 848.27,-316.712 850.602,-323.312"/>
</g>
<!-- Node135 -->
<g id="node23" class="node"><title>Node135</title>
<g id="a_node23"><a xlink:href="classgaencode_1_1_chromosome_base.html#a0c0f339b486fb7d097d2afac2539ddc8" target="_top" xlink:title="gaencode::ChromosomeBase\l::setObjetiveFunc">
<polygon fill="white" stroke="black" points="836,-237.62 836,-267.62 991,-267.62 991,-237.62 836,-237.62"/>
<text text-anchor="start" x="844" y="-255.62" font-family="Helvetica,sans-Serif" font-size="10.00">gaencode::ChromosomeBase</text>
<text text-anchor="middle" x="913.5" y="-244.62" font-family="Helvetica,sans-Serif" font-size="10.00">::setObjetiveFunc</text>
</a>
</g>
</g>
<!-- Node116&#45;&gt;Node135 -->
<g id="edge23" class="edge"><title>Node116&#45;&gt;Node135</title>
<path fill="none" stroke="midnightblue" d="M731.603,-379.84C746.846,-358.013 786.747,-305.016 833,-276.62 835.764,-274.922 838.657,-273.338 841.634,-271.86"/>
<polygon fill="midnightblue" stroke="midnightblue" points="843.097,-275.04 850.774,-267.738 840.219,-268.659 843.097,-275.04"/>
</g>
<!-- Node136 -->
<g id="node24" class="node"><title>Node136</title>
<g id="a_node24"><a xlink:href="classgaencode_1_1_chromosome_base.html#afc3f7dbd72d88157ba37eb8bea29478e" target="_top" xlink:title="gaencode::ChromosomeBase\l::getObjetiveFunc">
<polygon fill="white" stroke="black" points="836,-188.62 836,-218.62 991,-218.62 991,-188.62 836,-188.62"/>
<text text-anchor="start" x="844" y="-206.62" font-family="Helvetica,sans-Serif" font-size="10.00">gaencode::ChromosomeBase</text>
<text text-anchor="middle" x="913.5" y="-195.62" font-family="Helvetica,sans-Serif" font-size="10.00">::getObjetiveFunc</text>
</a>
</g>
</g>
<!-- Node116&#45;&gt;Node136 -->
<g id="edge24" class="edge"><title>Node116&#45;&gt;Node136</title>
<path fill="none" stroke="midnightblue" d="M728.685,-379.903C739.833,-351.825 775.979,-269.897 833,-227.62 834.882,-226.224 836.845,-224.909 838.872,-223.67"/>
<polygon fill="midnightblue" stroke="midnightblue" points="840.956,-226.524 848.11,-218.709 837.644,-220.357 840.956,-226.524"/>
</g>
<!-- Node137 -->
<g id="node25" class="node"><title>Node137</title>
<g id="a_node25"><a xlink:href="classgaencode_1_1_chromosome_base.html#abac472511083c6b8c3cb5208242d0d66" target="_top" xlink:title="gaencode::ChromosomeBase\l::setValidString">
<polygon fill="white" stroke="black" points="836,-139.62 836,-169.62 991,-169.62 991,-139.62 836,-139.62"/>
<text text-anchor="start" x="844" y="-157.62" font-family="Helvetica,sans-Serif" font-size="10.00">gaencode::ChromosomeBase</text>
<text text-anchor="middle" x="913.5" y="-146.62" font-family="Helvetica,sans-Serif" font-size="10.00">::setValidString</text>
</a>
</g>
</g>
<!-- Node116&#45;&gt;Node137 -->
<g id="edge25" class="edge"><title>Node116&#45;&gt;Node137</title>
<path fill="none" stroke="midnightblue" d="M727.088,-379.947C734.787,-346.631 764.755,-235.573 833,-178.62 834.536,-177.338 836.139,-176.125 837.797,-174.976"/>
<polygon fill="midnightblue" stroke="midnightblue" points="839.721,-177.904 846.494,-169.757 836.118,-171.902 839.721,-177.904"/>
</g>
<!-- Node138 -->
<g id="node26" class="node"><title>Node138</title>
<g id="a_node26"><a xlink:href="classgaencode_1_1_chromosome_base.html#ac2bfdec82da5c2b4954c58b8ca151498" target="_top" xlink:title="gaencode::ChromosomeBase\l::getValidString">
<polygon fill="white" stroke="black" points="836,-90.6196 836,-120.62 991,-120.62 991,-90.6196 836,-90.6196"/>
<text text-anchor="start" x="844" y="-108.62" font-family="Helvetica,sans-Serif" font-size="10.00">gaencode::ChromosomeBase</text>
<text text-anchor="middle" x="913.5" y="-97.6196" font-family="Helvetica,sans-Serif" font-size="10.00">::getValidString</text>
</a>
</g>
</g>
<!-- Node116&#45;&gt;Node138 -->
<g id="edge26" class="edge"><title>Node116&#45;&gt;Node138</title>
<path fill="none" stroke="midnightblue" d="M726.075,-379.92C730.807,-341.92 753.24,-201.741 833,-129.62 834.287,-128.456 835.628,-127.349 837.016,-126.296"/>
<polygon fill="midnightblue" stroke="midnightblue" points="838.945,-129.216 845.42,-120.83 835.129,-123.348 838.945,-129.216"/>
</g>
<!-- Node139 -->
<g id="node27" class="node"><title>Node139</title>
<g id="a_node27"><a xlink:href="classgafuncobj_1_1_g_a_function_objective.html#a0f2107d0c918b8514b493f77d8b4c473" target="_top" xlink:title="gafuncobj::GAFunctionObjective\l::getObjetiveFunc">
<polygon fill="white" stroke="black" points="833,-41.6196 833,-71.6196 994,-71.6196 994,-41.6196 833,-41.6196"/>
<text text-anchor="start" x="841" y="-59.6196" font-family="Helvetica,sans-Serif" font-size="10.00">gafuncobj::GAFunctionObjective</text>
<text text-anchor="middle" x="913.5" y="-48.6196" font-family="Helvetica,sans-Serif" font-size="10.00">::getObjetiveFunc</text>
</a>
</g>
</g>
<!-- Node116&#45;&gt;Node139 -->
<g id="edge28" class="edge"><title>Node116&#45;&gt;Node139</title>
<path fill="none" stroke="midnightblue" d="M725.359,-379.909C727.455,-337.69 741.482,-168.279 833,-80.6196 834.106,-79.56 835.258,-78.547 836.448,-77.5786"/>
<polygon fill="midnightblue" stroke="midnightblue" points="838.57,-80.367 844.821,-71.8124 834.6,-74.602 838.57,-80.367"/>
</g>
<!-- Node140 -->
<g id="node28" class="node"><title>Node140</title>
<g id="a_node28"><a xlink:href="classgafuncobj_1_1_g_a_function_objective.html#abec6f65389554c7b4ac03130ce5dfd4a" target="_top" xlink:title="gafuncobj::GAFunctionObjective\l::getFitness">
<polygon fill="white" stroke="black" points="833,-746.62 833,-776.62 994,-776.62 994,-746.62 833,-746.62"/>
<text text-anchor="start" x="841" y="-764.62" font-family="Helvetica,sans-Serif" font-size="10.00">gafuncobj::GAFunctionObjective</text>
<text text-anchor="middle" x="913.5" y="-753.62" font-family="Helvetica,sans-Serif" font-size="10.00">::getFitness</text>
</a>
</g>
</g>
<!-- Node116&#45;&gt;Node140 -->
<g id="edge29" class="edge"><title>Node116&#45;&gt;Node140</title>
<path fill="none" stroke="midnightblue" d="M724.923,-399.282C725.104,-444.517 731.967,-637.365 833,-737.62 834.087,-738.699 835.221,-739.729 836.396,-740.714"/>
<polygon fill="midnightblue" stroke="midnightblue" points="834.497,-743.657 844.684,-746.567 838.535,-737.939 834.497,-743.657"/>
</g>
<!-- Node120 -->
<g id="node8" class="node"><title>Node120</title>
<g id="a_node8"><a xlink:href="namespaceinterfacesse.html#afaa45a2a27710ea2dfa979289cf4961d" target="_top" xlink:title="swap items of aoarrayt_y to aiarrayt_x ">
<polygon fill="white" stroke="black" points="1057,-610.12 1057,-629.12 1158,-629.12 1158,-610.12 1057,-610.12"/>
<text text-anchor="middle" x="1107.5" y="-617.12" font-family="Helvetica,sans-Serif" font-size="10.00">interfacesse::swap</text>
</a>
</g>
</g>
<!-- Node119&#45;&gt;Node120 -->
<g id="edge7" class="edge"><title>Node119&#45;&gt;Node120</title>
<path fill="none" stroke="midnightblue" d="M963.446,-619.62C988.864,-619.62 1020.13,-619.62 1046.94,-619.62"/>
<polygon fill="midnightblue" stroke="midnightblue" points="1046.98,-623.12 1056.98,-619.62 1046.98,-616.12 1046.98,-623.12"/>
</g>
<!-- Node121 -->
<g id="node9" class="node"><title>Node121</title>
<g id="a_node9"><a xlink:href="namespaceinterfacesse.html#a2f42addf86fc8b9cd0c6620217b8a2db" target="_top" xlink:title="swap items of aoarrayt_y to aiarrayt_x ">
<polygon fill="white" stroke="black" points="1221,-610.12 1221,-629.12 1313,-629.12 1313,-610.12 1221,-610.12"/>
<text text-anchor="middle" x="1267" y="-617.12" font-family="Helvetica,sans-Serif" font-size="10.00">interfacesse::dot</text>
</a>
</g>
</g>
<!-- Node120&#45;&gt;Node121 -->
<g id="edge8" class="edge"><title>Node120&#45;&gt;Node121</title>
<path fill="none" stroke="midnightblue" d="M1158.33,-619.62C1174.9,-619.62 1193.45,-619.62 1210.43,-619.62"/>
<polygon fill="midnightblue" stroke="midnightblue" points="1210.76,-623.12 1220.76,-619.62 1210.76,-616.12 1210.76,-623.12"/>
</g>
<!-- Node122 -->
<g id="node10" class="node"><title>Node122</title>
<g id="a_node10"><a xlink:href="namespaceinterfacesse.html#a25f6950d589b92fd5bcf2007fb3fae19" target="_top" xlink:title="interfacesse::sum">
<polygon fill="white" stroke="black" points="1349,-610.12 1349,-629.12 1445,-629.12 1445,-610.12 1349,-610.12"/>
<text text-anchor="middle" x="1397" y="-617.12" font-family="Helvetica,sans-Serif" font-size="10.00">interfacesse::sum</text>
</a>
</g>
</g>
<!-- Node121&#45;&gt;Node122 -->
<g id="edge9" class="edge"><title>Node121&#45;&gt;Node122</title>
<path fill="none" stroke="midnightblue" d="M1313.13,-619.62C1321.32,-619.62 1329.96,-619.62 1338.44,-619.62"/>
<polygon fill="midnightblue" stroke="midnightblue" points="1338.68,-623.12 1348.68,-619.62 1338.68,-616.12 1338.68,-623.12"/>
</g>
<!-- Node123 -->
<g id="node11" class="node"><title>Node123</title>
<g id="a_node11"><a xlink:href="namespaceinterfacesse.html#a9dd5fb43ad8a83ee5cb2f5ba1bb2085b" target="_top" xlink:title="interfacesse::axpy">
<polygon fill="white" stroke="black" points="1481,-610.12 1481,-629.12 1580,-629.12 1580,-610.12 1481,-610.12"/>
<text text-anchor="middle" x="1530.5" y="-617.12" font-family="Helvetica,sans-Serif" font-size="10.00">interfacesse::axpy</text>
</a>
</g>
</g>
<!-- Node122&#45;&gt;Node123 -->
<g id="edge10" class="edge"><title>Node122&#45;&gt;Node123</title>
<path fill="none" stroke="midnightblue" d="M1445.1,-619.62C1453.47,-619.62 1462.28,-619.62 1470.92,-619.62"/>
<polygon fill="midnightblue" stroke="midnightblue" points="1470.95,-623.12 1480.95,-619.62 1470.95,-616.12 1470.95,-623.12"/>
</g>
<!-- Node124 -->
<g id="node12" class="node"><title>Node124</title>
<g id="a_node12"><a xlink:href="namespaceinterfacesse.html#ae3f94c42a59db65b2941dbfc9f449ea1" target="_top" xlink:title="function xAXPY of blas for doubles vectors ">
<polygon fill="white" stroke="black" points="1616,-610.12 1616,-629.12 1728,-629.12 1728,-610.12 1616,-610.12"/>
<text text-anchor="middle" x="1672" y="-617.12" font-family="Helvetica,sans-Serif" font-size="10.00">interfacesse::axpyInv</text>
</a>
</g>
</g>
<!-- Node123&#45;&gt;Node124 -->
<g id="edge11" class="edge"><title>Node123&#45;&gt;Node124</title>
<path fill="none" stroke="midnightblue" d="M1580.29,-619.62C1588.54,-619.62 1597.21,-619.62 1605.79,-619.62"/>
<polygon fill="midnightblue" stroke="midnightblue" points="1605.8,-623.12 1615.8,-619.62 1605.8,-616.12 1605.8,-623.12"/>
</g>
<!-- Node125 -->
<g id="node13" class="node"><title>Node125</title>
<g id="a_node13"><a xlink:href="namespaceinterfacesse.html#a144ebf70bf38495c3de1aca2c8365e08" target="_top" xlink:title="scal items of the array of type T ">
<polygon fill="white" stroke="black" points="1764,-610.12 1764,-629.12 1860,-629.12 1860,-610.12 1764,-610.12"/>
<text text-anchor="middle" x="1812" y="-617.12" font-family="Helvetica,sans-Serif" font-size="10.00">interfacesse::scal</text>
</a>
</g>
</g>
<!-- Node124&#45;&gt;Node125 -->
<g id="edge12" class="edge"><title>Node124&#45;&gt;Node125</title>
<path fill="none" stroke="midnightblue" d="M1728.33,-619.62C1736.65,-619.62 1745.24,-619.62 1753.6,-619.62"/>
<polygon fill="midnightblue" stroke="midnightblue" points="1753.65,-623.12 1763.65,-619.62 1753.65,-616.12 1753.65,-623.12"/>
</g>
<!-- Node128 -->
<g id="node16" class="node"><title>Node128</title>
<g id="a_node16"><a xlink:href="namespacegagenericop.html#ab2a1d4c164a683365b967f6b628a2aa3" target="_top" xlink:title="GAGRx1x2up Definition 4. . ">
<polygon fill="white" stroke="black" points="1036,-170.12 1036,-189.12 1179,-189.12 1179,-170.12 1036,-170.12"/>
<text text-anchor="middle" x="1107.5" y="-177.12" font-family="Helvetica,sans-Serif" font-size="10.00">gagenericop::GAGRx1x2up</text>
</a>
</g>
</g>
<!-- Node127&#45;&gt;Node128 -->
<g id="edge15" class="edge"><title>Node127&#45;&gt;Node128</title>
<path fill="none" stroke="midnightblue" d="M972.048,-336.074C979.782,-333.405 987.335,-329.99 994,-325.62 1044.22,-292.688 1081.27,-229.567 1097.47,-198.225"/>
<polygon fill="midnightblue" stroke="midnightblue" points="1100.62,-199.75 1101.99,-189.244 1094.37,-196.606 1100.62,-199.75"/>
</g>
<!-- Node128&#45;&gt;Node113 -->
<g id="edge16" class="edge"><title>Node128&#45;&gt;Node113</title>
<path fill="none" stroke="midnightblue" d="M1102.52,-169.73C1090.77,-142.045 1053.34,-63.7029 994,-31.6196 888.571,25.386 844.853,-12.6196 725,-12.6196 517.5,-12.6196 517.5,-12.6196 517.5,-12.6196 347.718,-12.6196 164.237,-124.515 101.764,-166.208"/>
<polygon fill="midnightblue" stroke="midnightblue" points="99.4446,-163.551 93.1177,-172.049 103.363,-169.351 99.4446,-163.551"/>
</g>
<!-- Node133 -->
<g id="node21" class="node"><title>Node133</title>
<g id="a_node21"><a xlink:href="classgaencode_1_1_chromosome_base.html#ab7a374a062ba8b5c6b4e674bae9a8299" target="_top" xlink:title="gaencode::ChromosomeBase\l::print">
<polygon fill="white" stroke="black" points="1030,-511.62 1030,-541.62 1185,-541.62 1185,-511.62 1030,-511.62"/>
<text text-anchor="start" x="1038" y="-529.62" font-family="Helvetica,sans-Serif" font-size="10.00">gaencode::ChromosomeBase</text>
<text text-anchor="middle" x="1107.5" y="-518.62" font-family="Helvetica,sans-Serif" font-size="10.00">::print</text>
</a>
</g>
</g>
<!-- Node132&#45;&gt;Node133 -->
<g id="edge21" class="edge"><title>Node132&#45;&gt;Node133</title>
<path fill="none" stroke="midnightblue" d="M991.211,-526.62C1000.57,-526.62 1010.18,-526.62 1019.68,-526.62"/>
<polygon fill="midnightblue" stroke="midnightblue" points="1019.91,-530.12 1029.91,-526.62 1019.91,-523.12 1019.91,-530.12"/>
</g>
</g>
</svg>
