<?xml version="1.0" encoding="UTF-8" standalone="no"?>
<!DOCTYPE svg PUBLIC "-//W3C//DTD SVG 1.1//EN"
 "http://www.w3.org/Graphics/SVG/1.1/DTD/svg11.dtd">
<!-- Generated by graphviz version 2.38.0 (20140413.2041)
 -->
<!-- Title: interfacesse::aasxpa Pages: 1 -->
<svg width="412pt" height="28pt"
 viewBox="0.00 0.00 412.00 28.00" xmlns="http://www.w3.org/2000/svg" xmlns:xlink="http://www.w3.org/1999/xlink">
<g id="graph0" class="graph" transform="scale(1 1) rotate(0) translate(4 24)">
<title>interfacesse::aasxpa</title>
<polygon fill="white" stroke="none" points="-4,4 -4,-24 408,-24 408,4 -4,4"/>
<!-- Node2 -->
<g id="node1" class="node"><title>Node2</title>
<polygon fill="#bfbfbf" stroke="black" points="0,-0.5 0,-19.5 111,-19.5 111,-0.5 0,-0.5"/>
<text text-anchor="middle" x="55.5" y="-7.5" font-family="Helvetica,sans-Serif" font-size="10.00">interfacesse::aasxpa</text>
</g>
<!-- Node3 -->
<g id="node2" class="node"><title>Node3</title>
<g id="a_node2"><a xlink:href="namespaceinterfacesse.html#ace6b5b44901bf38644ed492778c620f5" target="_top" xlink:title="For a matrix each items change for constant and a vector. ">
<polygon fill="white" stroke="black" points="147,-0.5 147,-19.5 258,-19.5 258,-0.5 147,-0.5"/>
<text text-anchor="middle" x="202.5" y="-7.5" font-family="Helvetica,sans-Serif" font-size="10.00">interfacesse::aasxpa</text>
</a>
</g>
</g>
<!-- Node2&#45;&gt;Node3 -->
<g id="edge1" class="edge"><title>Node2&#45;&gt;Node3</title>
<path fill="none" stroke="midnightblue" d="M111.318,-10C119.529,-10 128.061,-10 136.459,-10"/>
<polygon fill="midnightblue" stroke="midnightblue" points="136.604,-13.5001 146.604,-10 136.604,-6.5001 136.604,-13.5001"/>
</g>
<!-- Node4 -->
<g id="node3" class="node"><title>Node4</title>
<g id="a_node3"><a xlink:href="namespaceinterfacesse.html#a0569818171fd8f88efe5d7f86e6e0b5d" target="_top" xlink:title="extension of xAXPY operation for T result ">
<polygon fill="white" stroke="black" points="294,-0.5 294,-19.5 404,-19.5 404,-0.5 294,-0.5"/>
<text text-anchor="middle" x="349" y="-7.5" font-family="Helvetica,sans-Serif" font-size="10.00">interfacesse::aysxpy</text>
</a>
</g>
</g>
<!-- Node3&#45;&gt;Node4 -->
<g id="edge2" class="edge"><title>Node3&#45;&gt;Node4</title>
<path fill="none" stroke="midnightblue" d="M258.129,-10C266.425,-10 275.051,-10 283.532,-10"/>
<polygon fill="midnightblue" stroke="midnightblue" points="283.773,-13.5001 293.773,-10 283.773,-6.5001 283.773,-13.5001"/>
</g>
</g>
</svg>
