<?xml version="1.0" encoding="UTF-8" standalone="no"?>
<!DOCTYPE svg PUBLIC "-//W3C//DTD SVG 1.1//EN"
 "http://www.w3.org/Graphics/SVG/1.1/DTD/svg11.dtd">
<!-- Generated by graphviz version 2.38.0 (20140413.2041)
 -->
<!-- Title: clusteringop::getCentroids Pages: 1 -->
<svg width="542pt" height="327pt"
 viewBox="0.00 0.00 542.00 327.00" xmlns="http://www.w3.org/2000/svg" xmlns:xlink="http://www.w3.org/1999/xlink">
<g id="graph0" class="graph" transform="scale(1 1) rotate(0) translate(4 323)">
<title>clusteringop::getCentroids</title>
<polygon fill="white" stroke="none" points="-4,4 -4,-323 538,-323 538,4 -4,4"/>
<!-- Node42 -->
<g id="node1" class="node"><title>Node42</title>
<g id="a_node1"><a xlink:title=" ">
<polygon fill="#bfbfbf" stroke="black" points="0,-152.5 0,-171.5 134,-171.5 134,-152.5 0,-152.5"/>
<text text-anchor="middle" x="67" y="-159.5" font-family="Helvetica,sans-Serif" font-size="10.00">clusteringop::getCentroids</text>
</a>
</g>
</g>
<!-- Node43 -->
<g id="node2" class="node"><title>Node43</title>
<g id="a_node2"><a xlink:href="namespaceinterfacesse.html#a47f4a833d2730f3a501bbb9b2b095e62" target="_top" xlink:title=" ">
<polygon fill="white" stroke="black" points="196,-228.5 196,-247.5 302,-247.5 302,-228.5 196,-228.5"/>
<text text-anchor="middle" x="249" y="-235.5" font-family="Helvetica,sans-Serif" font-size="10.00">interfacesse::gemm</text>
</a>
</g>
</g>
<!-- Node42&#45;&gt;Node43 -->
<g id="edge1" class="edge"><title>Node42&#45;&gt;Node43</title>
<path fill="none" stroke="midnightblue" d="M84.5471,-171.564C104.387,-182.764 138.867,-201.385 170,-214 180.355,-218.196 191.732,-222.084 202.519,-225.456"/>
<polygon fill="midnightblue" stroke="midnightblue" points="201.627,-228.843 212.213,-228.402 203.662,-222.145 201.627,-228.843"/>
</g>
<!-- Node44 -->
<g id="node3" class="node"><title>Node44</title>
<g id="a_node3"><a xlink:href="classmat_1_1_matrix_base.html#a70200414022ce1479b9ddc16102b12ae" target="_top" xlink:title=" ">
<polygon fill="white" stroke="black" points="364,-299.5 364,-318.5 534,-318.5 534,-299.5 364,-299.5"/>
<text text-anchor="middle" x="449" y="-306.5" font-family="Helvetica,sans-Serif" font-size="10.00">mat::MatrixBase::getNumColumns</text>
</a>
</g>
</g>
<!-- Node42&#45;&gt;Node44 -->
<g id="edge6" class="edge"><title>Node42&#45;&gt;Node44</title>
<path fill="none" stroke="midnightblue" d="M72.8254,-171.554C85.24,-194.995 120.796,-255.304 170,-281 226.063,-310.278 297.132,-316.996 353.379,-316.539"/>
<polygon fill="midnightblue" stroke="midnightblue" points="353.759,-320.033 363.702,-316.374 353.647,-313.034 353.759,-320.033"/>
</g>
<!-- Node45 -->
<g id="node4" class="node"><title>Node45</title>
<g id="a_node4"><a xlink:href="classmat_1_1_matrix_base.html#ac500eedd5e203327d3292f8ab22d8f3e" target="_top" xlink:title=" ">
<polygon fill="white" stroke="black" points="371,-252.5 371,-271.5 527,-271.5 527,-252.5 371,-252.5"/>
<text text-anchor="middle" x="449" y="-259.5" font-family="Helvetica,sans-Serif" font-size="10.00">mat::MatrixBase::getNumRows</text>
</a>
</g>
</g>
<!-- Node42&#45;&gt;Node45 -->
<g id="edge8" class="edge"><title>Node42&#45;&gt;Node45</title>
<path fill="none" stroke="midnightblue" d="M74.4934,-171.656C88.8523,-192.038 125.574,-239.053 170,-257 240.617,-285.528 329.786,-280.791 387.816,-272.956"/>
<polygon fill="midnightblue" stroke="midnightblue" points="388.514,-276.392 397.921,-271.517 387.528,-269.461 388.514,-276.392"/>
</g>
<!-- Node46 -->
<g id="node5" class="node"><title>Node46</title>
<g id="a_node5"><a xlink:href="classmat_1_1_matrix_row.html#a5391a205367fbaac82a26ddc377a80af" target="_top" xlink:title=" ">
<polygon fill="white" stroke="black" points="385.5,-195.5 385.5,-214.5 512.5,-214.5 512.5,-195.5 385.5,-195.5"/>
<text text-anchor="middle" x="449" y="-202.5" font-family="Helvetica,sans-Serif" font-size="10.00">mat::MatrixRow::getRow</text>
</a>
</g>
</g>
<!-- Node42&#45;&gt;Node46 -->
<g id="edge9" class="edge"><title>Node42&#45;&gt;Node46</title>
<path fill="none" stroke="midnightblue" d="M124.833,-171.521C139.522,-173.815 155.33,-176.139 170,-178 239.402,-186.806 318.872,-194.262 375.02,-199.092"/>
<polygon fill="midnightblue" stroke="midnightblue" points="374.963,-202.6 385.225,-199.963 375.559,-195.625 374.963,-202.6"/>
</g>
<!-- Node47 -->
<g id="node6" class="node"><title>Node47</title>
<g id="a_node6"><a xlink:href="namespaceinterfacesse.html#a25f6950d589b92fd5bcf2007fb3fae19" target="_top" xlink:title=" ">
<polygon fill="white" stroke="black" points="401,-157.5 401,-176.5 497,-176.5 497,-157.5 401,-157.5"/>
<text text-anchor="middle" x="449" y="-164.5" font-family="Helvetica,sans-Serif" font-size="10.00">interfacesse::sum</text>
</a>
</g>
</g>
<!-- Node42&#45;&gt;Node47 -->
<g id="edge12" class="edge"><title>Node42&#45;&gt;Node47</title>
<path fill="none" stroke="midnightblue" d="M134.191,-162.871C206.701,-163.825 321.821,-165.34 390.631,-166.245"/>
<polygon fill="midnightblue" stroke="midnightblue" points="390.805,-169.748 400.85,-166.38 390.897,-162.748 390.805,-169.748"/>
</g>
<!-- Node48 -->
<g id="node7" class="node"><title>Node48</title>
<g id="a_node7"><a xlink:href="classmat_1_1_matrix_base.html#ade892a1e4c0ccc54dca7a16cecf459fa" target="_top" xlink:title=" ">
<polygon fill="white" stroke="black" points="170,-114.5 170,-133.5 328,-133.5 328,-114.5 170,-114.5"/>
<text text-anchor="middle" x="249" y="-121.5" font-family="Helvetica,sans-Serif" font-size="10.00">mat::MatrixBase::getNumElems</text>
</a>
</g>
</g>
<!-- Node42&#45;&gt;Node48 -->
<g id="edge7" class="edge"><title>Node42&#45;&gt;Node48</title>
<path fill="none" stroke="midnightblue" d="M113.422,-152.411C137.603,-147.306 167.527,-140.989 193.014,-135.608"/>
<polygon fill="midnightblue" stroke="midnightblue" points="193.844,-139.01 202.905,-133.52 192.398,-132.161 193.844,-139.01"/>
</g>
<!-- Node49 -->
<g id="node8" class="node"><title>Node49</title>
<g id="a_node8"><a xlink:href="classmat_1_1_matrix_row.html#a156313f6aa515994b76321ff03780b16" target="_top" xlink:title=" ">
<polygon fill="white" stroke="black" points="194,-76.5 194,-95.5 304,-95.5 304,-76.5 194,-76.5"/>
<text text-anchor="middle" x="249" y="-83.5" font-family="Helvetica,sans-Serif" font-size="10.00">mat::MatrixRow::print</text>
</a>
</g>
</g>
<!-- Node42&#45;&gt;Node49 -->
<g id="edge10" class="edge"><title>Node42&#45;&gt;Node49</title>
<path fill="none" stroke="midnightblue" d="M82.2486,-152.39C101.426,-139.849 136.957,-117.978 170,-105 176.363,-102.501 183.151,-100.262 189.967,-98.2752"/>
<polygon fill="midnightblue" stroke="midnightblue" points="191.21,-101.564 199.928,-95.5439 189.359,-94.8129 191.21,-101.564"/>
</g>
<!-- Node50 -->
<g id="node9" class="node"><title>Node50</title>
<g id="a_node9"><a xlink:href="namespaceinterfacesse.html#a144ebf70bf38495c3de1aca2c8365e08" target="_top" xlink:title="scal items of the array of type T">
<polygon fill="white" stroke="black" points="201,-38.5 201,-57.5 297,-57.5 297,-38.5 201,-38.5"/>
<text text-anchor="middle" x="249" y="-45.5" font-family="Helvetica,sans-Serif" font-size="10.00">interfacesse::scal</text>
</a>
</g>
</g>
<!-- Node42&#45;&gt;Node50 -->
<g id="edge11" class="edge"><title>Node42&#45;&gt;Node50</title>
<path fill="none" stroke="midnightblue" d="M75.3023,-152.5C90.6388,-133.237 128.249,-89.5063 170,-67 176.495,-63.4989 183.639,-60.6334 190.886,-58.2902"/>
<polygon fill="midnightblue" stroke="midnightblue" points="192.158,-61.565 200.781,-55.4081 190.201,-54.8443 192.158,-61.565"/>
</g>
<!-- Node51 -->
<g id="node10" class="node"><title>Node51</title>
<g id="a_node10"><a xlink:href="classmat_1_1_matrix_row.html#a2879a2578666e3da78f3588e78b5e982" target="_top" xlink:title=" ">
<polygon fill="white" stroke="black" points="186.5,-0.5 186.5,-19.5 311.5,-19.5 311.5,-0.5 186.5,-0.5"/>
<text text-anchor="middle" x="249" y="-7.5" font-family="Helvetica,sans-Serif" font-size="10.00">mat::MatrixRow::toArray</text>
</a>
</g>
</g>
<!-- Node42&#45;&gt;Node51 -->
<g id="edge13" class="edge"><title>Node42&#45;&gt;Node51</title>
<path fill="none" stroke="midnightblue" d="M72.5819,-152.147C84.6822,-127.267 120.029,-61.5786 170,-29 173.163,-26.9377 176.531,-25.099 180.024,-23.4599"/>
<polygon fill="midnightblue" stroke="midnightblue" points="181.584,-26.6028 189.509,-19.5701 178.928,-20.1262 181.584,-26.6028"/>
</g>
<!-- Node43&#45;&gt;Node44 -->
<g id="edge2" class="edge"><title>Node43&#45;&gt;Node44</title>
<path fill="none" stroke="midnightblue" d="M274.361,-247.503C297.374,-256.406 332.904,-269.957 364,-281 378.454,-286.133 394.402,-291.518 408.484,-296.179"/>
<polygon fill="midnightblue" stroke="midnightblue" points="407.766,-299.628 418.359,-299.432 409.956,-292.979 407.766,-299.628"/>
</g>
<!-- Node43&#45;&gt;Node45 -->
<g id="edge3" class="edge"><title>Node43&#45;&gt;Node45</title>
<path fill="none" stroke="midnightblue" d="M302.022,-244.306C320.057,-246.492 340.801,-249.006 360.882,-251.44"/>
<polygon fill="midnightblue" stroke="midnightblue" points="360.639,-254.936 370.987,-252.665 361.481,-247.987 360.639,-254.936"/>
</g>
<!-- Node43&#45;&gt;Node46 -->
<g id="edge4" class="edge"><title>Node43&#45;&gt;Node46</title>
<path fill="none" stroke="midnightblue" d="M302.022,-229.33C326.096,-225.317 354.995,-220.501 380.704,-216.216"/>
<polygon fill="midnightblue" stroke="midnightblue" points="381.467,-219.637 390.755,-214.541 380.316,-212.733 381.467,-219.637"/>
</g>
<!-- Node43&#45;&gt;Node47 -->
<g id="edge5" class="edge"><title>Node43&#45;&gt;Node47</title>
<path fill="none" stroke="midnightblue" d="M268.088,-228.338C290.184,-216.869 328.957,-197.815 364,-186 372.636,-183.088 381.921,-180.486 391.058,-178.211"/>
<polygon fill="midnightblue" stroke="midnightblue" points="391.959,-181.594 400.875,-175.871 390.336,-174.785 391.959,-181.594"/>
</g>
</g>
</svg>
