<?xml version="1.0" encoding="UTF-8" standalone="no"?>
<!DOCTYPE svg PUBLIC "-//W3C//DTD SVG 1.1//EN"
 "http://www.w3.org/Graphics/SVG/1.1/DTD/svg11.dtd">
<!-- Generated by graphviz version 2.38.0 (20140413.2041)
 -->
<!-- Title: interfacesse::gemv Pages: 1 -->
<svg width="893pt" height="170pt"
 viewBox="0.00 0.00 893.00 170.00" xmlns="http://www.w3.org/2000/svg" xmlns:xlink="http://www.w3.org/1999/xlink">
<g id="graph0" class="graph" transform="scale(1 1) rotate(0) translate(4 166)">
<title>interfacesse::gemv</title>
<polygon fill="white" stroke="none" points="-4,4 -4,-166 889,-166 889,4 -4,4"/>
<!-- Node180 -->
<g id="node1" class="node"><title>Node180</title>
<polygon fill="#bfbfbf" stroke="black" points="0,-57.5 0,-76.5 103,-76.5 103,-57.5 0,-57.5"/>
<text text-anchor="middle" x="51.5" y="-64.5" font-family="Helvetica,sans-Serif" font-size="10.00">interfacesse::gemv</text>
</g>
<!-- Node181 -->
<g id="node2" class="node"><title>Node181</title>
<g id="a_node2"><a xlink:href="namespaceinterfacesse.html#a47f4a833d2730f3a501bbb9b2b095e62" target="_top" xlink:title="interfacesse::gemm">
<polygon fill="white" stroke="black" points="148.5,-76.5 148.5,-95.5 254.5,-95.5 254.5,-76.5 148.5,-76.5"/>
<text text-anchor="middle" x="201.5" y="-83.5" font-family="Helvetica,sans-Serif" font-size="10.00">interfacesse::gemm</text>
</a>
</g>
</g>
<!-- Node180&#45;&gt;Node181 -->
<g id="edge1" class="edge"><title>Node180&#45;&gt;Node181</title>
<path fill="none" stroke="midnightblue" d="M103.019,-73.4856C114.353,-74.9407 126.508,-76.501 138.256,-78.0092"/>
<polygon fill="midnightblue" stroke="midnightblue" points="138.081,-81.5154 148.445,-79.3173 138.972,-74.5724 138.081,-81.5154"/>
</g>
<!-- Node182 -->
<g id="node3" class="node"><title>Node182</title>
<g id="a_node3"><a xlink:href="classmat_1_1_matrix_base.html#a70200414022ce1479b9ddc16102b12ae" target="_top" xlink:title="mat::MatrixBase::getNumColumns">
<polygon fill="white" stroke="black" points="300,-142.5 300,-161.5 470,-161.5 470,-142.5 300,-142.5"/>
<text text-anchor="middle" x="385" y="-149.5" font-family="Helvetica,sans-Serif" font-size="10.00">mat::MatrixBase::getNumColumns</text>
</a>
</g>
</g>
<!-- Node180&#45;&gt;Node182 -->
<g id="edge9" class="edge"><title>Node180&#45;&gt;Node182</title>
<path fill="none" stroke="midnightblue" d="M70.9326,-76.5494C88.1349,-85.1079 114.725,-97.4447 139,-105 192.085,-121.522 253.536,-133.292 301.615,-140.922"/>
<polygon fill="midnightblue" stroke="midnightblue" points="301.244,-144.406 311.663,-142.487 302.321,-137.49 301.244,-144.406"/>
</g>
<!-- Node183 -->
<g id="node4" class="node"><title>Node183</title>
<g id="a_node4"><a xlink:href="classmat_1_1_matrix_base.html#ac500eedd5e203327d3292f8ab22d8f3e" target="_top" xlink:title="mat::MatrixBase::getNumRows">
<polygon fill="white" stroke="black" points="307,-28.5 307,-47.5 463,-47.5 463,-28.5 307,-28.5"/>
<text text-anchor="middle" x="385" y="-35.5" font-family="Helvetica,sans-Serif" font-size="10.00">mat::MatrixBase::getNumRows</text>
</a>
</g>
</g>
<!-- Node180&#45;&gt;Node183 -->
<g id="edge10" class="edge"><title>Node180&#45;&gt;Node183</title>
<path fill="none" stroke="midnightblue" d="M103.209,-62.564C154.579,-58.07 235.042,-51.031 296.689,-45.6381"/>
<polygon fill="midnightblue" stroke="midnightblue" points="297.145,-49.1117 306.802,-44.7534 296.535,-42.1383 297.145,-49.1117"/>
</g>
<!-- Node189 -->
<g id="node10" class="node"><title>Node189</title>
<g id="a_node10"><a xlink:href="classmat_1_1_matrix_row.html#a2879a2578666e3da78f3588e78b5e982" target="_top" xlink:title="mat::MatrixRow::toArray">
<polygon fill="white" stroke="black" points="139,-0.5 139,-19.5 264,-19.5 264,-0.5 139,-0.5"/>
<text text-anchor="middle" x="201.5" y="-7.5" font-family="Helvetica,sans-Serif" font-size="10.00">mat::MatrixRow::toArray</text>
</a>
</g>
</g>
<!-- Node180&#45;&gt;Node189 -->
<g id="edge11" class="edge"><title>Node180&#45;&gt;Node189</title>
<path fill="none" stroke="midnightblue" d="M77.2719,-57.4595C101.604,-48.0884 138.931,-33.7124 166.128,-23.2377"/>
<polygon fill="midnightblue" stroke="midnightblue" points="167.573,-26.4319 175.647,-19.5716 165.058,-19.8996 167.573,-26.4319"/>
</g>
<!-- Node181&#45;&gt;Node182 -->
<g id="edge2" class="edge"><title>Node181&#45;&gt;Node182</title>
<path fill="none" stroke="midnightblue" d="M219.259,-95.5311C238.296,-106.01 270.549,-122.721 300,-133 307.527,-135.627 315.563,-137.984 323.568,-140.07"/>
<polygon fill="midnightblue" stroke="midnightblue" points="322.734,-143.469 333.283,-142.479 324.419,-136.675 322.734,-143.469"/>
</g>
<!-- Node181&#45;&gt;Node183 -->
<g id="edge3" class="edge"><title>Node181&#45;&gt;Node183</title>
<path fill="none" stroke="midnightblue" d="M232.658,-76.4645C251.848,-70.5376 277.276,-62.9423 300,-57 309.547,-54.5034 319.755,-52.0312 329.648,-49.7368"/>
<polygon fill="midnightblue" stroke="midnightblue" points="330.431,-53.1481 339.4,-47.5074 328.871,-46.3241 330.431,-53.1481"/>
</g>
<!-- Node184 -->
<g id="node5" class="node"><title>Node184</title>
<g id="a_node5"><a xlink:href="classmat_1_1_matrix_row.html#a5391a205367fbaac82a26ddc377a80af" target="_top" xlink:title="mat::MatrixRow::getRow">
<polygon fill="white" stroke="black" points="321.5,-104.5 321.5,-123.5 448.5,-123.5 448.5,-104.5 321.5,-104.5"/>
<text text-anchor="middle" x="385" y="-111.5" font-family="Helvetica,sans-Serif" font-size="10.00">mat::MatrixRow::getRow</text>
</a>
</g>
</g>
<!-- Node181&#45;&gt;Node184 -->
<g id="edge4" class="edge"><title>Node181&#45;&gt;Node184</title>
<path fill="none" stroke="midnightblue" d="M254.511,-94.0237C272.53,-96.8035 293.057,-99.9702 312.373,-102.95"/>
<polygon fill="midnightblue" stroke="midnightblue" points="311.928,-106.423 322.345,-104.488 312.995,-99.5046 311.928,-106.423"/>
</g>
<!-- Node185 -->
<g id="node6" class="node"><title>Node185</title>
<g id="a_node6"><a xlink:href="namespaceinterfacesse.html#a25f6950d589b92fd5bcf2007fb3fae19" target="_top" xlink:title="interfacesse::sum">
<polygon fill="white" stroke="black" points="337,-66.5 337,-85.5 433,-85.5 433,-66.5 337,-66.5"/>
<text text-anchor="middle" x="385" y="-73.5" font-family="Helvetica,sans-Serif" font-size="10.00">interfacesse::sum</text>
</a>
</g>
</g>
<!-- Node181&#45;&gt;Node185 -->
<g id="edge5" class="edge"><title>Node181&#45;&gt;Node185</title>
<path fill="none" stroke="midnightblue" d="M254.511,-83.1344C277.14,-81.8876 303.726,-80.4228 326.901,-79.1459"/>
<polygon fill="midnightblue" stroke="midnightblue" points="327.15,-82.6377 336.942,-78.5927 326.765,-75.6483 327.15,-82.6377"/>
</g>
<!-- Node186 -->
<g id="node7" class="node"><title>Node186</title>
<g id="a_node7"><a xlink:href="namespaceinterfacesse.html#a9dd5fb43ad8a83ee5cb2f5ba1bb2085b" target="_top" xlink:title="interfacesse::axpy">
<polygon fill="white" stroke="black" points="506,-66.5 506,-85.5 605,-85.5 605,-66.5 506,-66.5"/>
<text text-anchor="middle" x="555.5" y="-73.5" font-family="Helvetica,sans-Serif" font-size="10.00">interfacesse::axpy</text>
</a>
</g>
</g>
<!-- Node185&#45;&gt;Node186 -->
<g id="edge6" class="edge"><title>Node185&#45;&gt;Node186</title>
<path fill="none" stroke="midnightblue" d="M433.385,-76C452.704,-76 475.244,-76 495.606,-76"/>
<polygon fill="midnightblue" stroke="midnightblue" points="495.713,-79.5001 505.713,-76 495.713,-72.5001 495.713,-79.5001"/>
</g>
<!-- Node187 -->
<g id="node8" class="node"><title>Node187</title>
<g id="a_node8"><a xlink:href="namespaceinterfacesse.html#ae3f94c42a59db65b2941dbfc9f449ea1" target="_top" xlink:title="function xAXPY of blas for doubles vectors ">
<polygon fill="white" stroke="black" points="641,-66.5 641,-85.5 753,-85.5 753,-66.5 641,-66.5"/>
<text text-anchor="middle" x="697" y="-73.5" font-family="Helvetica,sans-Serif" font-size="10.00">interfacesse::axpyInv</text>
</a>
</g>
</g>
<!-- Node186&#45;&gt;Node187 -->
<g id="edge7" class="edge"><title>Node186&#45;&gt;Node187</title>
<path fill="none" stroke="midnightblue" d="M605.29,-76C613.535,-76 622.211,-76 630.794,-76"/>
<polygon fill="midnightblue" stroke="midnightblue" points="630.797,-79.5001 640.797,-76 630.797,-72.5001 630.797,-79.5001"/>
</g>
<!-- Node188 -->
<g id="node9" class="node"><title>Node188</title>
<g id="a_node9"><a xlink:href="namespaceinterfacesse.html#a144ebf70bf38495c3de1aca2c8365e08" target="_top" xlink:title="scal items of the array of type T ">
<polygon fill="white" stroke="black" points="789,-66.5 789,-85.5 885,-85.5 885,-66.5 789,-66.5"/>
<text text-anchor="middle" x="837" y="-73.5" font-family="Helvetica,sans-Serif" font-size="10.00">interfacesse::scal</text>
</a>
</g>
</g>
<!-- Node187&#45;&gt;Node188 -->
<g id="edge8" class="edge"><title>Node187&#45;&gt;Node188</title>
<path fill="none" stroke="midnightblue" d="M753.335,-76C761.651,-76 770.243,-76 778.602,-76"/>
<polygon fill="midnightblue" stroke="midnightblue" points="778.647,-79.5001 788.647,-76 778.647,-72.5001 778.647,-79.5001"/>
</g>
</g>
</svg>
