<?xml version="1.0" encoding="UTF-8" standalone="no"?>
<!DOCTYPE svg PUBLIC "-//W3C//DTD SVG 1.1//EN"
 "http://www.w3.org/Graphics/SVG/1.1/DTD/svg11.dtd">
<!-- Generated by graphviz version 2.38.0 (20140413.2041)
 -->
<!-- Title: um::simplifiedSilhouette Pages: 1 -->
<svg width="340pt" height="317pt"
 viewBox="0.00 0.00 340.00 317.00" xmlns="http://www.w3.org/2000/svg" xmlns:xlink="http://www.w3.org/1999/xlink">
<g id="graph0" class="graph" transform="scale(1 1) rotate(0) translate(4 313)">
<title>um::simplifiedSilhouette</title>
<polygon fill="white" stroke="none" points="-4,4 -4,-313 336,-313 336,4 -4,4"/>
<!-- Node297 -->
<g id="node1" class="node"><title>Node297</title>
<g id="a_node1"><a xlink:title="Simplified Silhouette .">
<polygon fill="#bfbfbf" stroke="black" points="0,-145 0,-164 122,-164 122,-145 0,-145"/>
<text text-anchor="middle" x="61" y="-152" font-family="Helvetica,sans-Serif" font-size="10.00">um::simplifiedSilhouette</text>
</a>
</g>
</g>
<!-- Node298 -->
<g id="node2" class="node"><title>Node298</title>
<g id="a_node2"><a xlink:href="classpartition_1_1_partition.html#acb8de7c890e05872858fb7a7aa53b657" target="_top" xlink:title=" ">
<polygon fill="white" stroke="black" points="198.5,-278.5 198.5,-308.5 291.5,-308.5 291.5,-278.5 198.5,-278.5"/>
<text text-anchor="start" x="206.5" y="-296.5" font-family="Helvetica,sans-Serif" font-size="10.00">partition::Partition</text>
<text text-anchor="middle" x="245" y="-285.5" font-family="Helvetica,sans-Serif" font-size="10.00">::begin</text>
</a>
</g>
</g>
<!-- Node297&#45;&gt;Node298 -->
<g id="edge1" class="edge"><title>Node297&#45;&gt;Node298</title>
<path fill="none" stroke="midnightblue" d="M67.3533,-164.097C80.0885,-186.034 114.409,-240.133 158,-268.5 167.18,-274.474 177.818,-279.053 188.418,-282.552"/>
<polygon fill="midnightblue" stroke="midnightblue" points="187.515,-285.935 198.099,-285.472 189.536,-279.233 187.515,-285.935"/>
</g>
<!-- Node299 -->
<g id="node3" class="node"><title>Node299</title>
<g id="a_node3"><a xlink:href="namespaceinout.html#a0c10a45877a347dec0d4ec4e5b05b828" target="_top" xlink:title=" ">
<polygon fill="white" stroke="black" points="193.5,-240 193.5,-259 296.5,-259 296.5,-240 193.5,-240"/>
<text text-anchor="middle" x="245" y="-247" font-family="Helvetica,sans-Serif" font-size="10.00">inout::containerprint</text>
</a>
</g>
</g>
<!-- Node297&#45;&gt;Node299 -->
<g id="edge2" class="edge"><title>Node297&#45;&gt;Node299</title>
<path fill="none" stroke="midnightblue" d="M71.0813,-164.108C87.0502,-180.402 121.903,-213.35 158,-230.5 165.927,-234.266 174.623,-237.299 183.344,-239.737"/>
<polygon fill="midnightblue" stroke="midnightblue" points="182.607,-243.161 193.162,-242.246 184.34,-236.379 182.607,-243.161"/>
</g>
<!-- Node300 -->
<g id="node4" class="node"><title>Node300</title>
<g id="a_node4"><a xlink:href="namespaceinterfacesse.html#aa4b94bf2bf8cb7c437fa3feba8b70ff8" target="_top" xlink:title="Initializes the array with a constant .">
<polygon fill="white" stroke="black" points="192.5,-202 192.5,-221 297.5,-221 297.5,-202 192.5,-202"/>
<text text-anchor="middle" x="245" y="-209" font-family="Helvetica,sans-Serif" font-size="10.00">interfacesse::copya</text>
</a>
</g>
</g>
<!-- Node297&#45;&gt;Node300 -->
<g id="edge3" class="edge"><title>Node297&#45;&gt;Node300</title>
<path fill="none" stroke="midnightblue" d="M83.3814,-164.104C102.608,-172.465 131.777,-184.469 158,-192.5 166.498,-195.102 175.571,-197.503 184.519,-199.658"/>
<polygon fill="midnightblue" stroke="midnightblue" points="183.998,-203.131 194.531,-201.986 185.584,-196.312 183.998,-203.131"/>
</g>
<!-- Node301 -->
<g id="node5" class="node"><title>Node301</title>
<g id="a_node5"><a xlink:href="classdata_1_1_instance.html#aa6ee19c383a86228b3d134e42bdb6830" target="_top" xlink:title=" ">
<polygon fill="white" stroke="black" points="175,-164 175,-183 315,-183 315,-164 175,-164"/>
<text text-anchor="middle" x="245" y="-171" font-family="Helvetica,sans-Serif" font-size="10.00">data::Instance::getFeatures</text>
</a>
</g>
</g>
<!-- Node297&#45;&gt;Node301 -->
<g id="edge4" class="edge"><title>Node297&#45;&gt;Node301</title>
<path fill="none" stroke="midnightblue" d="M122.098,-160.774C135.679,-162.192 150.301,-163.718 164.541,-165.205"/>
<polygon fill="midnightblue" stroke="midnightblue" points="164.512,-168.721 174.822,-166.278 165.239,-161.759 164.512,-168.721"/>
</g>
<!-- Node302 -->
<g id="node6" class="node"><title>Node302</title>
<g id="a_node6"><a xlink:href="classdata_1_1_instance.html#a90d1eaeb66cc1470bbfdb95434fdb761" target="_top" xlink:title=" ">
<polygon fill="white" stroke="black" points="158,-126 158,-145 332,-145 332,-126 158,-126"/>
<text text-anchor="middle" x="245" y="-133" font-family="Helvetica,sans-Serif" font-size="10.00">data::Instance::getNumDimensions</text>
</a>
</g>
</g>
<!-- Node297&#45;&gt;Node302 -->
<g id="edge5" class="edge"><title>Node297&#45;&gt;Node302</title>
<path fill="none" stroke="midnightblue" d="M122.098,-148.226C130.448,-147.354 139.193,-146.441 148,-145.522"/>
<polygon fill="midnightblue" stroke="midnightblue" points="148.369,-149.003 157.952,-144.483 147.642,-142.04 148.369,-149.003"/>
</g>
<!-- Node303 -->
<g id="node7" class="node"><title>Node303</title>
<g id="a_node7"><a xlink:href="classmat_1_1_matrix_base.html#ac500eedd5e203327d3292f8ab22d8f3e" target="_top" xlink:title=" ">
<polygon fill="white" stroke="black" points="167,-88 167,-107 323,-107 323,-88 167,-88"/>
<text text-anchor="middle" x="245" y="-95" font-family="Helvetica,sans-Serif" font-size="10.00">mat::MatrixBase::getNumRows</text>
</a>
</g>
</g>
<!-- Node297&#45;&gt;Node303 -->
<g id="edge6" class="edge"><title>Node297&#45;&gt;Node303</title>
<path fill="none" stroke="midnightblue" d="M83.3814,-144.896C102.608,-136.535 131.777,-124.531 158,-116.5 166.498,-113.898 175.571,-111.497 184.519,-109.342"/>
<polygon fill="midnightblue" stroke="midnightblue" points="185.584,-112.688 194.531,-107.014 183.998,-105.869 185.584,-112.688"/>
</g>
<!-- Node304 -->
<g id="node8" class="node"><title>Node304</title>
<g id="a_node8"><a xlink:href="classmat_1_1_matrix_base.html#ae3b1c4b8e9cb7e7685d7bc129f875dcd" target="_top" xlink:title=" ">
<polygon fill="white" stroke="black" points="179.5,-50 179.5,-69 310.5,-69 310.5,-50 179.5,-50"/>
<text text-anchor="middle" x="245" y="-57" font-family="Helvetica,sans-Serif" font-size="10.00">mat::MatrixBase::getRow</text>
</a>
</g>
</g>
<!-- Node297&#45;&gt;Node304 -->
<g id="edge7" class="edge"><title>Node297&#45;&gt;Node304</title>
<path fill="none" stroke="midnightblue" d="M71.0813,-144.892C87.0502,-128.598 121.903,-95.6499 158,-78.5 163.22,-76.0199 168.774,-73.8579 174.448,-71.9742"/>
<polygon fill="midnightblue" stroke="midnightblue" points="175.518,-75.3073 184.074,-69.0598 173.489,-68.6076 175.518,-75.3073"/>
</g>
<!-- Node305 -->
<g id="node9" class="node"><title>Node305</title>
<g id="a_node9"><a xlink:href="classpartition_1_1_partition.html#a96660ce61740ab0287189b21833eccdf" target="_top" xlink:title=" ">
<polygon fill="white" stroke="black" points="198.5,-0.5 198.5,-30.5 291.5,-30.5 291.5,-0.5 198.5,-0.5"/>
<text text-anchor="start" x="206.5" y="-18.5" font-family="Helvetica,sans-Serif" font-size="10.00">partition::Partition</text>
<text text-anchor="middle" x="245" y="-7.5" font-family="Helvetica,sans-Serif" font-size="10.00">::next</text>
</a>
</g>
</g>
<!-- Node297&#45;&gt;Node305 -->
<g id="edge8" class="edge"><title>Node297&#45;&gt;Node305</title>
<path fill="none" stroke="midnightblue" d="M67.3533,-144.903C80.0885,-122.966 114.409,-68.8665 158,-40.5 167.18,-34.5264 177.818,-29.9474 188.418,-26.4478"/>
<polygon fill="midnightblue" stroke="midnightblue" points="189.536,-29.7666 198.099,-23.5283 187.515,-23.0647 189.536,-29.7666"/>
</g>
</g>
</svg>
