<?xml version="1.0" encoding="UTF-8" standalone="no"?>
<!DOCTYPE svg PUBLIC "-//W3C//DTD SVG 1.1//EN"
 "http://www.w3.org/Graphics/SVG/1.1/DTD/svg11.dtd">
<!-- Generated by graphviz version 2.38.0 (20140413.2041)
 -->
<!-- Title: mat::matrixread_get Pages: 1 -->
<svg width="368pt" height="104pt"
 viewBox="0.00 0.00 368.00 104.00" xmlns="http://www.w3.org/2000/svg" xmlns:xlink="http://www.w3.org/1999/xlink">
<g id="graph0" class="graph" transform="scale(1 1) rotate(0) translate(4 100)">
<title>mat::matrixread_get</title>
<polygon fill="white" stroke="none" points="-4,4 -4,-100 364,-100 364,4 -4,4"/>
<!-- Node89 -->
<g id="node1" class="node"><title>Node89</title>
<g id="a_node1"><a xlink:title=" ">
<polygon fill="#bfbfbf" stroke="black" points="0,-38.5 0,-57.5 107,-57.5 107,-38.5 0,-38.5"/>
<text text-anchor="middle" x="53.5" y="-45.5" font-family="Helvetica,sans-Serif" font-size="10.00">mat::matrixread_get</text>
</a>
</g>
</g>
<!-- Node90 -->
<g id="node2" class="node"><title>Node90</title>
<g id="a_node2"><a xlink:href="classinout_1_1_line_split.html#a27571ff675c6a9e5fd493472d4fa8fb4" target="_top" xlink:title=" ">
<polygon fill="white" stroke="black" points="146.5,-76.5 146.5,-95.5 266.5,-95.5 266.5,-76.5 146.5,-76.5"/>
<text text-anchor="middle" x="206.5" y="-83.5" font-family="Helvetica,sans-Serif" font-size="10.00">inout::LineSplit::getItem</text>
</a>
</g>
</g>
<!-- Node89&#45;&gt;Node90 -->
<g id="edge1" class="edge"><title>Node89&#45;&gt;Node90</title>
<path fill="none" stroke="midnightblue" d="M92.6037,-57.589C112.44,-62.5809 136.884,-68.7324 157.948,-74.0334"/>
<polygon fill="midnightblue" stroke="midnightblue" points="157.118,-77.4336 167.67,-76.4799 158.827,-70.6452 157.118,-77.4336"/>
</g>
<!-- Node91 -->
<g id="node3" class="node"><title>Node91</title>
<g id="a_node3"><a xlink:href="classmat_1_1_matrix_row.html#a5391a205367fbaac82a26ddc377a80af" target="_top" xlink:title=" ">
<polygon fill="white" stroke="black" points="143,-38.5 143,-57.5 270,-57.5 270,-38.5 143,-38.5"/>
<text text-anchor="middle" x="206.5" y="-45.5" font-family="Helvetica,sans-Serif" font-size="10.00">mat::MatrixRow::getRow</text>
</a>
</g>
</g>
<!-- Node89&#45;&gt;Node91 -->
<g id="edge2" class="edge"><title>Node89&#45;&gt;Node91</title>
<path fill="none" stroke="midnightblue" d="M107.312,-48C115.565,-48 124.216,-48 132.818,-48"/>
<polygon fill="midnightblue" stroke="midnightblue" points="132.866,-51.5001 142.866,-48 132.866,-44.5001 132.866,-51.5001"/>
</g>
<!-- Node92 -->
<g id="node4" class="node"><title>Node92</title>
<g id="a_node4"><a xlink:href="classinout_1_1_line_split.html#a507aefbeca1a1ddb7b77c827780eda15" target="_top" xlink:title=" ">
<polygon fill="white" stroke="black" points="154.5,-0.5 154.5,-19.5 258.5,-19.5 258.5,-0.5 154.5,-0.5"/>
<text text-anchor="middle" x="206.5" y="-7.5" font-family="Helvetica,sans-Serif" font-size="10.00">inout::LineSplit::split</text>
</a>
</g>
</g>
<!-- Node89&#45;&gt;Node92 -->
<g id="edge3" class="edge"><title>Node89&#45;&gt;Node92</title>
<path fill="none" stroke="midnightblue" d="M92.6037,-38.411C112.44,-33.4191 136.884,-27.2676 157.948,-21.9666"/>
<polygon fill="midnightblue" stroke="midnightblue" points="158.827,-25.3548 167.67,-19.5201 157.118,-18.5664 158.827,-25.3548"/>
</g>
<!-- Node93 -->
<g id="node5" class="node"><title>Node93</title>
<g id="a_node5"><a xlink:href="namespaceinout.html#a46748760a3a678f9f432dafc434db209" target="_top" xlink:title=" ">
<polygon fill="white" stroke="black" points="306,-0.5 306,-19.5 360,-19.5 360,-0.5 306,-0.5"/>
<text text-anchor="middle" x="333" y="-7.5" font-family="Helvetica,sans-Serif" font-size="10.00">inout::str</text>
</a>
</g>
</g>
<!-- Node92&#45;&gt;Node93 -->
<g id="edge4" class="edge"><title>Node92&#45;&gt;Node93</title>
<path fill="none" stroke="midnightblue" d="M258.858,-10C271.268,-10 284.275,-10 295.821,-10"/>
<polygon fill="midnightblue" stroke="midnightblue" points="295.955,-13.5001 305.955,-10 295.955,-6.5001 295.955,-13.5001"/>
</g>
</g>
</svg>
