<?xml version="1.0" encoding="UTF-8" standalone="no"?>
<!DOCTYPE svg PUBLIC "-//W3C//DTD SVG 1.1//EN"
 "http://www.w3.org/Graphics/SVG/1.1/DTD/svg11.dtd">
<!-- Generated by graphviz version 2.38.0 (20140413.2041)
 -->
<!-- Title: clusteringop::randomInitialize Pages: 1 -->
<svg width="361pt" height="104pt"
 viewBox="0.00 0.00 361.00 104.00" xmlns="http://www.w3.org/2000/svg" xmlns:xlink="http://www.w3.org/1999/xlink">
<g id="graph0" class="graph" transform="scale(1 1) rotate(0) translate(4 100)">
<title>clusteringop::randomInitialize</title>
<polygon fill="white" stroke="none" points="-4,4 -4,-100 357,-100 357,4 -4,4"/>
<!-- Node177 -->
<g id="node1" class="node"><title>Node177</title>
<g id="a_node1"><a xlink:title="Initializes randomly a fuzzy partition.">
<polygon fill="#bfbfbf" stroke="black" points="0,-38.5 0,-57.5 147,-57.5 147,-38.5 0,-38.5"/>
<text text-anchor="middle" x="73.5" y="-45.5" font-family="Helvetica,sans-Serif" font-size="10.00">clusteringop::randomInitialize</text>
</a>
</g>
</g>
<!-- Node178 -->
<g id="node2" class="node"><title>Node178</title>
<g id="a_node2"><a xlink:href="classmat_1_1_matrix_base.html#a70200414022ce1479b9ddc16102b12ae" target="_top" xlink:title=" ">
<polygon fill="white" stroke="black" points="183,-76.5 183,-95.5 353,-95.5 353,-76.5 183,-76.5"/>
<text text-anchor="middle" x="268" y="-83.5" font-family="Helvetica,sans-Serif" font-size="10.00">mat::MatrixBase::getNumColumns</text>
</a>
</g>
</g>
<!-- Node177&#45;&gt;Node178 -->
<g id="edge1" class="edge"><title>Node177&#45;&gt;Node178</title>
<path fill="none" stroke="midnightblue" d="M123.076,-57.589C149.165,-62.739 181.506,-69.1232 208.918,-74.5344"/>
<polygon fill="midnightblue" stroke="midnightblue" points="208.285,-77.977 218.773,-76.4799 209.641,-71.1095 208.285,-77.977"/>
</g>
<!-- Node179 -->
<g id="node3" class="node"><title>Node179</title>
<g id="a_node3"><a xlink:href="classmat_1_1_matrix_base.html#ac500eedd5e203327d3292f8ab22d8f3e" target="_top" xlink:title=" ">
<polygon fill="white" stroke="black" points="190,-38.5 190,-57.5 346,-57.5 346,-38.5 190,-38.5"/>
<text text-anchor="middle" x="268" y="-45.5" font-family="Helvetica,sans-Serif" font-size="10.00">mat::MatrixBase::getNumRows</text>
</a>
</g>
</g>
<!-- Node177&#45;&gt;Node179 -->
<g id="edge2" class="edge"><title>Node177&#45;&gt;Node179</title>
<path fill="none" stroke="midnightblue" d="M147.002,-48C157.582,-48 168.571,-48 179.412,-48"/>
<polygon fill="midnightblue" stroke="midnightblue" points="179.742,-51.5001 189.742,-48 179.742,-44.5001 179.742,-51.5001"/>
</g>
<!-- Node180 -->
<g id="node4" class="node"><title>Node180</title>
<g id="a_node4"><a xlink:href="classmat_1_1_matrix_row.html#a156313f6aa515994b76321ff03780b16" target="_top" xlink:title=" ">
<polygon fill="white" stroke="black" points="213,-0.5 213,-19.5 323,-19.5 323,-0.5 213,-0.5"/>
<text text-anchor="middle" x="268" y="-7.5" font-family="Helvetica,sans-Serif" font-size="10.00">mat::MatrixRow::print</text>
</a>
</g>
</g>
<!-- Node177&#45;&gt;Node180 -->
<g id="edge3" class="edge"><title>Node177&#45;&gt;Node180</title>
<path fill="none" stroke="midnightblue" d="M123.076,-38.411C149.165,-33.261 181.506,-26.8768 208.918,-21.4656"/>
<polygon fill="midnightblue" stroke="midnightblue" points="209.641,-24.8905 218.773,-19.5201 208.285,-18.023 209.641,-24.8905"/>
</g>
</g>
</svg>
