<?xml version="1.0" encoding="UTF-8" standalone="no"?>
<!DOCTYPE svg PUBLIC "-//W3C//DTD SVG 1.1//EN"
 "http://www.w3.org/Graphics/SVG/1.1/DTD/svg11.dtd">
<!-- Generated by graphviz version 2.38.0 (20140413.2041)
 -->
<!-- Title: graph::prim Pages: 1 -->
<svg width="939pt" height="347pt"
 viewBox="0.00 0.00 939.00 346.50" xmlns="http://www.w3.org/2000/svg" xmlns:xlink="http://www.w3.org/1999/xlink">
<g id="graph0" class="graph" transform="scale(1 1) rotate(0) translate(4 342.5)">
<title>graph::prim</title>
<polygon fill="white" stroke="none" points="-4,4 -4,-342.5 935,-342.5 935,4 -4,4"/>
<!-- Node76 -->
<g id="node1" class="node"><title>Node76</title>
<polygon fill="#bfbfbf" stroke="black" points="0,-88 0,-107 67,-107 67,-88 0,-88"/>
<text text-anchor="middle" x="33.5" y="-95" font-family="Helvetica,sans-Serif" font-size="10.00">graph::prim</text>
</g>
<!-- Node77 -->
<g id="node2" class="node"><title>Node77</title>
<g id="a_node2"><a xlink:href="namespacegraph.html#ab591fce56dc3e3d8a23f517cc4a55190" target="_top" xlink:title="Constructs a vector list graph from PI vertices for a Pi vector. ">
<polygon fill="white" stroke="black" points="462,-240 462,-259 580,-259 580,-240 462,-240"/>
<text text-anchor="middle" x="521" y="-247" font-family="Helvetica,sans-Serif" font-size="10.00">graph::fromPiToGraph</text>
</a>
</g>
</g>
<!-- Node76&#45;&gt;Node77 -->
<g id="edge1" class="edge"><title>Node76&#45;&gt;Node77</title>
<path fill="none" stroke="midnightblue" d="M44.4758,-107.362C57.2267,-119.583 80.3695,-140.501 103,-154.5 174.421,-198.68 194.543,-210.063 276,-230.5 334.098,-245.076 402.201,-249.361 451.672,-250.268"/>
<polygon fill="midnightblue" stroke="midnightblue" points="451.887,-253.771 461.936,-250.413 451.986,-246.772 451.887,-253.771"/>
</g>
<!-- Node78 -->
<g id="node3" class="node"><title>Node78</title>
<g id="a_node3"><a xlink:href="namespacegraph.html#a1a8c03e25337e6becb8d58b8e57e66fc" target="_top" xlink:title="graph::getAdjacencyMatrix">
<polygon fill="white" stroke="black" points="103,-126 103,-145 240,-145 240,-126 103,-126"/>
<text text-anchor="middle" x="171.5" y="-133" font-family="Helvetica,sans-Serif" font-size="10.00">graph::getAdjacencyMatrix</text>
</a>
</g>
</g>
<!-- Node76&#45;&gt;Node78 -->
<g id="edge2" class="edge"><title>Node76&#45;&gt;Node78</title>
<path fill="none" stroke="midnightblue" d="M67.0754,-106.602C84.8756,-111.576 107.169,-117.805 126.496,-123.205"/>
<polygon fill="midnightblue" stroke="midnightblue" points="125.72,-126.622 136.293,-125.942 127.603,-119.88 125.72,-126.622"/>
</g>
<!-- Node90 -->
<g id="node15" class="node"><title>Node90</title>
<g id="a_node15"><a xlink:href="namespaceinout.html#aa6b4c6d9486a8bdbe21f6fa090f4c688" target="_top" xlink:title="inout::vectorlistprint">
<polygon fill="white" stroke="black" points="470.5,-27 470.5,-46 571.5,-46 571.5,-27 470.5,-27"/>
<text text-anchor="middle" x="521" y="-34" font-family="Helvetica,sans-Serif" font-size="10.00">inout::vectorlistprint</text>
</a>
</g>
</g>
<!-- Node76&#45;&gt;Node90 -->
<g id="edge26" class="edge"><title>Node76&#45;&gt;Node90</title>
<path fill="none" stroke="midnightblue" d="M67.1089,-93.4029C147.662,-83.2819 357.003,-56.9795 460.413,-43.9868"/>
<polygon fill="midnightblue" stroke="midnightblue" points="460.896,-47.4536 470.382,-42.7342 460.024,-40.5082 460.896,-47.4536"/>
</g>
<!-- Node96 -->
<g id="node21" class="node"><title>Node96</title>
<g id="a_node21"><a xlink:href="classmat_1_1_matrix_triang.html#ae8e385b7959c85519692bdee1d4c3aed" target="_top" xlink:title="mat::MatrixTriang::\lgetNumRows">
<polygon fill="white" stroke="black" points="120.5,-0.5 120.5,-30.5 222.5,-30.5 222.5,-0.5 120.5,-0.5"/>
<text text-anchor="start" x="128.5" y="-18.5" font-family="Helvetica,sans-Serif" font-size="10.00">mat::MatrixTriang::</text>
<text text-anchor="middle" x="171.5" y="-7.5" font-family="Helvetica,sans-Serif" font-size="10.00">getNumRows</text>
</a>
</g>
</g>
<!-- Node76&#45;&gt;Node96 -->
<g id="edge25" class="edge"><title>Node76&#45;&gt;Node96</title>
<path fill="none" stroke="midnightblue" d="M45.5628,-87.8149C58.6533,-76.6685 81.4055,-58.2622 103,-45.5 109.376,-41.732 116.31,-38.1374 123.226,-34.8296"/>
<polygon fill="midnightblue" stroke="midnightblue" points="124.979,-37.8756 132.592,-30.5075 122.046,-31.5197 124.979,-37.8756"/>
</g>
<!-- Node79 -->
<g id="node4" class="node"><title>Node79</title>
<g id="a_node4"><a xlink:href="classdata_1_1_instance.html#a90d1eaeb66cc1470bbfdb95434fdb761" target="_top" xlink:title="data::Instance::getNumDimensions">
<polygon fill="white" stroke="black" points="434,-202 434,-221 608,-221 608,-202 434,-202"/>
<text text-anchor="middle" x="521" y="-209" font-family="Helvetica,sans-Serif" font-size="10.00">data::Instance::getNumDimensions</text>
</a>
</g>
</g>
<!-- Node78&#45;&gt;Node79 -->
<g id="edge3" class="edge"><title>Node78&#45;&gt;Node79</title>
<path fill="none" stroke="midnightblue" d="M216.159,-145.048C279.706,-158.946 397.573,-184.725 466.332,-199.763"/>
<polygon fill="midnightblue" stroke="midnightblue" points="466.002,-203.273 476.519,-201.991 467.498,-196.435 466.002,-203.273"/>
</g>
<!-- Node80 -->
<g id="node5" class="node"><title>Node80</title>
<g id="a_node5"><a xlink:href="classmat_1_1_bit_matrix.html#a3b57b2184fdf4bac7fb223e0f2d3353b" target="_top" xlink:title="mat::BitMatrix::initialize">
<polygon fill="white" stroke="black" points="277.5,-88 277.5,-107 396.5,-107 396.5,-88 277.5,-88"/>
<text text-anchor="middle" x="337" y="-95" font-family="Helvetica,sans-Serif" font-size="10.00">mat::BitMatrix::initialize</text>
</a>
</g>
</g>
<!-- Node78&#45;&gt;Node80 -->
<g id="edge4" class="edge"><title>Node78&#45;&gt;Node80</title>
<path fill="none" stroke="midnightblue" d="M213.758,-125.911C235.431,-120.874 262.183,-114.656 285.13,-109.323"/>
<polygon fill="midnightblue" stroke="midnightblue" points="286.091,-112.693 295.039,-107.02 284.506,-105.875 286.091,-112.693"/>
</g>
<!-- Node81 -->
<g id="node6" class="node"><title>Node81</title>
<g id="a_node6"><a xlink:href="namespacegraph.html#a45090d21efbff1f3bf9c762b9aa8e06d" target="_top" xlink:title="Nearest neighbor . ">
<polygon fill="white" stroke="black" points="276,-126 276,-145 398,-145 398,-126 276,-126"/>
<text text-anchor="middle" x="337" y="-133" font-family="Helvetica,sans-Serif" font-size="10.00">graph::nearestNeighbor</text>
</a>
</g>
</g>
<!-- Node78&#45;&gt;Node81 -->
<g id="edge5" class="edge"><title>Node78&#45;&gt;Node81</title>
<path fill="none" stroke="midnightblue" d="M240.418,-128.837C248.777,-128.731 257.334,-128.722 265.726,-128.809"/>
<polygon fill="midnightblue" stroke="midnightblue" points="265.805,-132.311 275.857,-128.964 265.911,-125.312 265.805,-132.311"/>
</g>
<!-- Node91 -->
<g id="node16" class="node"><title>Node91</title>
<g id="a_node16"><a xlink:href="classmat_1_1_bit_matrix.html#a00bc1c8502b8f7d4723656ff0a198a1a" target="_top" xlink:title="mat::BitMatrix::print\l_listAdj">
<polygon fill="white" stroke="black" points="286.5,-278.5 286.5,-308.5 387.5,-308.5 387.5,-278.5 286.5,-278.5"/>
<text text-anchor="start" x="294.5" y="-296.5" font-family="Helvetica,sans-Serif" font-size="10.00">mat::BitMatrix::print</text>
<text text-anchor="middle" x="337" y="-285.5" font-family="Helvetica,sans-Serif" font-size="10.00">_listAdj</text>
</a>
</g>
</g>
<!-- Node78&#45;&gt;Node91 -->
<g id="edge19" class="edge"><title>Node78&#45;&gt;Node91</title>
<path fill="none" stroke="midnightblue" d="M182.728,-145.384C208.531,-170.319 276.781,-236.273 312.872,-271.15"/>
<polygon fill="midnightblue" stroke="midnightblue" points="310.853,-274.067 320.477,-278.499 315.718,-269.033 310.853,-274.067"/>
</g>
<!-- Node95 -->
<g id="node20" class="node"><title>Node95</title>
<g id="a_node20"><a xlink:href="classmat_1_1_bit_matrix.html#a023483d27c6b66b43356d6f8b9cbaba8" target="_top" xlink:title="mat::BitMatrix::setBit">
<polygon fill="white" stroke="black" points="283,-202 283,-221 391,-221 391,-202 283,-202"/>
<text text-anchor="middle" x="337" y="-209" font-family="Helvetica,sans-Serif" font-size="10.00">mat::BitMatrix::setBit</text>
</a>
</g>
</g>
<!-- Node78&#45;&gt;Node95 -->
<g id="edge24" class="edge"><title>Node78&#45;&gt;Node95</title>
<path fill="none" stroke="midnightblue" d="M190.596,-145.181C211.079,-156 245.562,-173.796 276,-187.5 284.088,-191.141 292.903,-194.823 301.225,-198.172"/>
<polygon fill="midnightblue" stroke="midnightblue" points="300.108,-201.494 310.694,-201.929 302.69,-194.988 300.108,-201.494"/>
</g>
<!-- Node81&#45;&gt;Node77 -->
<g id="edge12" class="edge"><title>Node81&#45;&gt;Node77</title>
<path fill="none" stroke="midnightblue" d="M348.349,-145.021C360.434,-156.21 380.944,-175.42 398,-192.5 414.439,-208.962 413.752,-219.043 434,-230.5 439.589,-233.663 445.659,-236.299 451.902,-238.497"/>
<polygon fill="midnightblue" stroke="midnightblue" points="451.221,-241.951 461.81,-241.601 453.314,-235.271 451.221,-241.951"/>
</g>
<!-- Node81&#45;&gt;Node78 -->
<g id="edge13" class="edge"><title>Node81&#45;&gt;Node78</title>
<path fill="none" stroke="midnightblue" d="M275.857,-142.036C267.658,-142.202 259.148,-142.271 250.688,-142.244"/>
<polygon fill="midnightblue" stroke="midnightblue" points="250.446,-138.742 240.418,-142.163 250.39,-145.742 250.446,-138.742"/>
</g>
<!-- Node81&#45;&gt;Node79 -->
<g id="edge14" class="edge"><title>Node81&#45;&gt;Node79</title>
<path fill="none" stroke="midnightblue" d="M367.666,-145.036C377.663,-148.848 388.647,-153.72 398,-159.5 416.21,-170.754 414.988,-181.661 434,-191.5 439.539,-194.367 445.49,-196.827 451.582,-198.939"/>
<polygon fill="midnightblue" stroke="midnightblue" points="450.642,-202.312 461.231,-201.977 452.744,-195.635 450.642,-202.312"/>
</g>
<!-- Node82 -->
<g id="node7" class="node"><title>Node82</title>
<g id="a_node7"><a xlink:href="namespacegraph.html#a5f47c42addb98405452bb52f5c6599bc" target="_top" xlink:title="Find connected component of a graph. ">
<polygon fill="white" stroke="black" points="472,-65 472,-84 570,-84 570,-65 472,-65"/>
<text text-anchor="middle" x="521" y="-72" font-family="Helvetica,sans-Serif" font-size="10.00">graph::component</text>
</a>
</g>
</g>
<!-- Node81&#45;&gt;Node82 -->
<g id="edge6" class="edge"><title>Node81&#45;&gt;Node82</title>
<path fill="none" stroke="midnightblue" d="M373.488,-125.955C381.695,-123.286 390.28,-120.112 398,-116.5 415.198,-108.454 416.461,-100.771 434,-93.5 442.806,-89.8495 452.423,-86.8502 461.935,-84.4014"/>
<polygon fill="midnightblue" stroke="midnightblue" points="462.861,-87.7787 471.77,-82.0445 461.229,-80.9714 462.861,-87.7787"/>
</g>
<!-- Node87 -->
<g id="node12" class="node"><title>Node87</title>
<g id="a_node12"><a xlink:href="classgraph_1_1_algorithms_d_f_s_adj_matrix.html#a1d08c0e3528b828a92f39a03d290f0f9" target="_top" xlink:title="graph::AlgorithmsDFSAdjMatrix\l::getPi">
<polygon fill="white" stroke="black" points="442,-152.5 442,-182.5 600,-182.5 600,-152.5 442,-152.5"/>
<text text-anchor="start" x="450" y="-170.5" font-family="Helvetica,sans-Serif" font-size="10.00">graph::AlgorithmsDFSAdjMatrix</text>
<text text-anchor="middle" x="521" y="-159.5" font-family="Helvetica,sans-Serif" font-size="10.00">::getPi</text>
</a>
</g>
</g>
<!-- Node81&#45;&gt;Node87 -->
<g id="edge15" class="edge"><title>Node81&#45;&gt;Node87</title>
<path fill="none" stroke="midnightblue" d="M392.113,-145.014C404.676,-147.223 418.369,-149.631 431.973,-152.023"/>
<polygon fill="midnightblue" stroke="midnightblue" points="431.39,-155.474 441.845,-153.758 432.602,-148.58 431.39,-155.474"/>
</g>
<!-- Node88 -->
<g id="node13" class="node"><title>Node88</title>
<g id="a_node13"><a xlink:href="classgraph_1_1_algorithms_d_f_s_adj_matrix.html#a2719f4a788cf7c91e7dfad11bdb727f5" target="_top" xlink:title="graph::AlgorithmsDFSAdjMatrix\l::resolve">
<polygon fill="white" stroke="black" points="442,-103.5 442,-133.5 600,-133.5 600,-103.5 442,-103.5"/>
<text text-anchor="start" x="450" y="-121.5" font-family="Helvetica,sans-Serif" font-size="10.00">graph::AlgorithmsDFSAdjMatrix</text>
<text text-anchor="middle" x="521" y="-110.5" font-family="Helvetica,sans-Serif" font-size="10.00">::resolve</text>
</a>
</g>
</g>
<!-- Node81&#45;&gt;Node88 -->
<g id="edge16" class="edge"><title>Node81&#45;&gt;Node88</title>
<path fill="none" stroke="midnightblue" d="M398.098,-129.886C408.909,-128.877 420.38,-127.805 431.793,-126.739"/>
<polygon fill="midnightblue" stroke="midnightblue" points="432.158,-130.22 441.789,-125.805 431.507,-123.251 432.158,-130.22"/>
</g>
<!-- Node81&#45;&gt;Node90 -->
<g id="edge18" class="edge"><title>Node81&#45;&gt;Node90</title>
<path fill="none" stroke="midnightblue" d="M381.567,-125.937C387.449,-123.471 393.127,-120.378 398,-116.5 422.633,-96.8979 408.517,-73.9838 434,-55.5 441.808,-49.8362 450.991,-45.81 460.396,-42.9583"/>
<polygon fill="midnightblue" stroke="midnightblue" points="461.437,-46.3038 470.23,-40.3922 459.67,-39.5306 461.437,-46.3038"/>
</g>
<!-- Node83 -->
<g id="node8" class="node"><title>Node83</title>
<g id="a_node8"><a xlink:href="classds_1_1_disj_sets.html#a101eabf86f8a7f2e21f2c5c5329269eb" target="_top" xlink:title="ds::DisjSets::find">
<polygon fill="white" stroke="black" points="838,-27 838,-46 931,-46 931,-27 838,-27"/>
<text text-anchor="middle" x="884.5" y="-34" font-family="Helvetica,sans-Serif" font-size="10.00">ds::DisjSets::find</text>
</a>
</g>
</g>
<!-- Node82&#45;&gt;Node83 -->
<g id="edge7" class="edge"><title>Node82&#45;&gt;Node83</title>
<path fill="none" stroke="midnightblue" d="M570.417,-66.1837C582.856,-63.4036 596.085,-59.87 608,-55.5 624.985,-49.2704 626.439,-40.8498 644,-36.5 705.418,-21.2868 778.447,-24.1602 827.58,-28.9931"/>
<polygon fill="midnightblue" stroke="midnightblue" points="827.379,-32.4911 837.688,-30.0484 828.106,-25.529 827.379,-32.4911"/>
</g>
<!-- Node84 -->
<g id="node9" class="node"><title>Node84</title>
<g id="a_node9"><a xlink:href="classds_1_1_disj_sets.html#a045884be5b69816578fd42500ec91ebd" target="_top" xlink:title="ds::DisjSets::merge">
<polygon fill="white" stroke="black" points="669.5,-84 669.5,-103 776.5,-103 776.5,-84 669.5,-84"/>
<text text-anchor="middle" x="723" y="-91" font-family="Helvetica,sans-Serif" font-size="10.00">ds::DisjSets::merge</text>
</a>
</g>
</g>
<!-- Node82&#45;&gt;Node84 -->
<g id="edge8" class="edge"><title>Node82&#45;&gt;Node84</title>
<path fill="none" stroke="midnightblue" d="M570.159,-79.0752C596.939,-81.6192 630.574,-84.8145 659.376,-87.5508"/>
<polygon fill="midnightblue" stroke="midnightblue" points="659.057,-91.0361 669.344,-88.4976 659.719,-84.0675 659.057,-91.0361"/>
</g>
<!-- Node86 -->
<g id="node11" class="node"><title>Node86</title>
<g id="a_node11"><a xlink:href="classds_1_1_disj_sets.html#a3eddb5e3a2f942314524d5f0edf181f0" target="_top" xlink:title="ds::DisjSets::print">
<polygon fill="white" stroke="black" points="675.5,-46 675.5,-65 770.5,-65 770.5,-46 675.5,-46"/>
<text text-anchor="middle" x="723" y="-53" font-family="Helvetica,sans-Serif" font-size="10.00">ds::DisjSets::print</text>
</a>
</g>
</g>
<!-- Node82&#45;&gt;Node86 -->
<g id="edge11" class="edge"><title>Node82&#45;&gt;Node86</title>
<path fill="none" stroke="midnightblue" d="M570.159,-69.9248C598.696,-67.2138 635.019,-63.7632 664.982,-60.9167"/>
<polygon fill="midnightblue" stroke="midnightblue" points="665.668,-64.3674 675.292,-59.9372 665.006,-57.3987 665.668,-64.3674"/>
</g>
<!-- Node84&#45;&gt;Node83 -->
<g id="edge9" class="edge"><title>Node84&#45;&gt;Node83</title>
<path fill="none" stroke="midnightblue" d="M769.812,-83.9395C780.494,-81.2715 791.742,-78.101 802,-74.5 820.664,-67.948 840.817,-58.5731 856.414,-50.7746"/>
<polygon fill="midnightblue" stroke="midnightblue" points="858.155,-53.8155 865.482,-46.162 854.982,-47.5763 858.155,-53.8155"/>
</g>
<!-- Node85 -->
<g id="node10" class="node"><title>Node85</title>
<g id="a_node10"><a xlink:href="classds_1_1_disj_sets.html#a3c3fe68b7cad93d8e01b8cb54e6b803b" target="_top" xlink:title="ds::DisjSets::link">
<polygon fill="white" stroke="black" points="838.5,-84 838.5,-103 930.5,-103 930.5,-84 838.5,-84"/>
<text text-anchor="middle" x="884.5" y="-91" font-family="Helvetica,sans-Serif" font-size="10.00">ds::DisjSets::link</text>
</a>
</g>
</g>
<!-- Node84&#45;&gt;Node85 -->
<g id="edge10" class="edge"><title>Node84&#45;&gt;Node85</title>
<path fill="none" stroke="midnightblue" d="M776.668,-93.5C793.2,-93.5 811.493,-93.5 828.202,-93.5"/>
<polygon fill="midnightblue" stroke="midnightblue" points="828.37,-97.0001 838.37,-93.5 828.37,-90.0001 828.37,-97.0001"/>
</g>
<!-- Node89 -->
<g id="node14" class="node"><title>Node89</title>
<g id="a_node14"><a xlink:href="classgraph_1_1_algorithms_d_f_s.html#a577db26950759fc5f50f6af3a485554f" target="_top" xlink:title="graph::AlgorithmsDFS\l::dfs_visit">
<polygon fill="white" stroke="black" points="665,-122.5 665,-152.5 781,-152.5 781,-122.5 665,-122.5"/>
<text text-anchor="start" x="673" y="-140.5" font-family="Helvetica,sans-Serif" font-size="10.00">graph::AlgorithmsDFS</text>
<text text-anchor="middle" x="723" y="-129.5" font-family="Helvetica,sans-Serif" font-size="10.00">::dfs_visit</text>
</a>
</g>
</g>
<!-- Node88&#45;&gt;Node89 -->
<g id="edge17" class="edge"><title>Node88&#45;&gt;Node89</title>
<path fill="none" stroke="midnightblue" d="M600.185,-125.928C618.227,-127.642 637.265,-129.45 654.792,-131.115"/>
<polygon fill="midnightblue" stroke="midnightblue" points="654.631,-134.616 664.918,-132.077 655.293,-127.647 654.631,-134.616"/>
</g>
<!-- Node92 -->
<g id="node17" class="node"><title>Node92</title>
<g id="a_node17"><a xlink:href="classmat_1_1_bit_matrix.html#a5607bb84d71c58751390be62e798dd11" target="_top" xlink:title="mat::BitMatrix::getRow">
<polygon fill="white" stroke="black" points="664,-319 664,-338 782,-338 782,-319 664,-319"/>
<text text-anchor="middle" x="723" y="-326" font-family="Helvetica,sans-Serif" font-size="10.00">mat::BitMatrix::getRow</text>
</a>
</g>
</g>
<!-- Node91&#45;&gt;Node92 -->
<g id="edge20" class="edge"><title>Node91&#45;&gt;Node92</title>
<path fill="none" stroke="midnightblue" d="M387.693,-302.747C402.545,-305.249 418.894,-307.747 434,-309.5 508.894,-318.19 595.241,-323.228 653.705,-325.906"/>
<polygon fill="midnightblue" stroke="midnightblue" points="653.78,-329.413 663.926,-326.363 654.092,-322.42 653.78,-329.413"/>
</g>
<!-- Node93 -->
<g id="node18" class="node"><title>Node93</title>
<g id="a_node18"><a xlink:href="classmat_1_1_bit_matrix.html#aad5655375eb32c7463915f06a0614aa1" target="_top" xlink:title="mat::BitMatrix::printByColumns">
<polygon fill="white" stroke="black" points="444.5,-281 444.5,-300 597.5,-300 597.5,-281 444.5,-281"/>
<text text-anchor="middle" x="521" y="-288" font-family="Helvetica,sans-Serif" font-size="10.00">mat::BitMatrix::printByColumns</text>
</a>
</g>
</g>
<!-- Node91&#45;&gt;Node93 -->
<g id="edge21" class="edge"><title>Node91&#45;&gt;Node93</title>
<path fill="none" stroke="midnightblue" d="M387.732,-292.68C402.064,-292.444 418.128,-292.179 433.99,-291.918"/>
<polygon fill="midnightblue" stroke="midnightblue" points="434.423,-295.411 444.364,-291.747 434.307,-288.412 434.423,-295.411"/>
</g>
<!-- Node93&#45;&gt;Node92 -->
<g id="edge23" class="edge"><title>Node93&#45;&gt;Node92</title>
<path fill="none" stroke="midnightblue" d="M572.21,-300.04C599.433,-305.212 633.264,-311.64 661.883,-317.078"/>
<polygon fill="midnightblue" stroke="midnightblue" points="661.291,-320.528 671.769,-318.956 662.598,-313.651 661.291,-320.528"/>
</g>
<!-- Node94 -->
<g id="node19" class="node"><title>Node94</title>
<g id="a_node19"><a xlink:href="classmat_1_1_bit_matrix.html#acb0438a8816d82379fab71120540fcd1" target="_top" xlink:title="mat::BitMatrix::getNumColumns">
<polygon fill="white" stroke="black" points="644,-281 644,-300 802,-300 802,-281 644,-281"/>
<text text-anchor="middle" x="723" y="-288" font-family="Helvetica,sans-Serif" font-size="10.00">mat::BitMatrix::getNumColumns</text>
</a>
</g>
</g>
<!-- Node93&#45;&gt;Node94 -->
<g id="edge22" class="edge"><title>Node93&#45;&gt;Node94</title>
<path fill="none" stroke="midnightblue" d="M597.611,-290.5C609.451,-290.5 621.776,-290.5 633.867,-290.5"/>
<polygon fill="midnightblue" stroke="midnightblue" points="633.952,-294 643.952,-290.5 633.952,-287 633.952,-294"/>
</g>
</g>
</svg>
