<?xml version="1.0" encoding="UTF-8" standalone="no"?>
<!DOCTYPE svg PUBLIC "-//W3C//DTD SVG 1.1//EN"
 "http://www.w3.org/Graphics/SVG/1.1/DTD/svg11.dtd">
<!-- Generated by graphviz version 2.38.0 (20140413.2041)
 -->
<!-- Title: sm::randIndex Pages: 1 -->
<!--zoomable 235 -->
<svg id="main" version="1.1" xmlns="http://www.w3.org/2000/svg" xmlns:xlink="http://www.w3.org/1999/xlink" xml:space="preserve" onload="init(evt)">
<style type="text/css"><![CDATA[
.edge:hover path { stroke: red; }
.edge:hover polygon { stroke: red; fill: red; }
]]></style>
<script type="text/javascript"><![CDATA[
var edges = document.getElementsByTagName('g');
if (edges && edges.length) {
  for (var i=0;i<edges.length;i++) {
    if (edges[i].id.substr(0,4)=='edge') {
      edges[i].setAttribute('class','edge');
    }
  }
}
]]></script>
        <defs>
                <circle id="rim" cx="0" cy="0" r="7"/>
                <circle id="rim2" cx="0" cy="0" r="3.5"/>
                <g id="zoomPlus">
                        <use xlink:href="#rim" fill="#404040">
                                <set attributeName="fill" to="#808080" begin="zoomplus.mouseover" end="zoomplus.mouseout"/>
                        </use>
                        <path d="M-4,0h8M0,-4v8" fill="none" stroke="white" stroke-width="1.5" pointer-events="none"/>
                </g>
                <g id="zoomMin">
                        <use xlink:href="#rim" fill="#404040">
                                <set attributeName="fill" to="#808080" begin="zoomminus.mouseover" end="zoomminus.mouseout"/>
                        </use>
                        <path d="M-4,0h8" fill="none" stroke="white" stroke-width="1.5" pointer-events="none"/>
                </g>
                <g id="dirArrow">
                        <path fill="none" stroke="white" stroke-width="1.5" d="M0,-3.0v7 M-2.5,-0.5L0,-3.0L2.5,-0.5"/>
                </g>
               <g id="resetDef">
                       <use xlink:href="#rim2" fill="#404040">
                               <set attributeName="fill" to="#808080" begin="reset.mouseover" end="reset.mouseout"/>
                       </use>
               </g>
        </defs>

<script type="text/javascript">
var viewWidth = 651;
var viewHeight = 235;
var sectionId = 'dynsection-7';
</script>
<script xlink:href="svgpan.js"/>
<svg id="graph" class="graph">
<g id="viewport">
<title>sm::randIndex</title>
<polygon fill="white" stroke="none" points="-4,4 -4,-231 647,-231 647,4 -4,4"/>
<!-- Node51 -->
<g id="node1" class="node"><title>Node51</title>
<g id="a_node1"><a xlink:title=" ">
<polygon fill="#bfbfbf" stroke="black" points="0,-55 0,-74 81,-74 81,-55 0,-55"/>
<text text-anchor="middle" x="40.5" y="-62" font-family="Helvetica,sans-Serif" font-size="10.00">sm::randIndex</text>
</a>
</g>
</g>
<!-- Node52 -->
<g id="node2" class="node"><title>Node52</title>
<g id="a_node2"><a xlink:href="classsm_1_1_confusion_matching_matrix.html#aefb2e14fcdfddada038a3f19f0156276" target="_top" xlink:title=" ">
<polygon fill="white" stroke="black" points="117,-98.5 117,-128.5 266,-128.5 266,-98.5 117,-98.5"/>
<text text-anchor="start" x="125" y="-116.5" font-family="Helvetica,sans-Serif" font-size="10.00">sm::ConfusionMatchingMatrix</text>
<text text-anchor="middle" x="191.5" y="-105.5" font-family="Helvetica,sans-Serif" font-size="10.00">::getDiffClassUDiffClusterV</text>
</a>
</g>
</g>
<!-- Node51&#45;&gt;Node52 -->
<g id="edge1" class="edge"><title>Node51&#45;&gt;Node52</title>
<path fill="none" stroke="midnightblue" d="M70.5824,-74.064C88.9521,-80.105 113.279,-88.1052 135.219,-95.3204"/>
<polygon fill="midnightblue" stroke="midnightblue" points="134.182,-98.6638 144.775,-98.463 136.369,-92.0141 134.182,-98.6638"/>
</g>
<!-- Node58 -->
<g id="node8" class="node"><title>Node58</title>
<g id="a_node8"><a xlink:href="classsm_1_1_partition_matrix.html#a44dc24e09318534ce4f8dab5ccae531f" target="_top" xlink:title=" ">
<polygon fill="white" stroke="black" points="333.5,-49.5 333.5,-79.5 432.5,-79.5 432.5,-49.5 333.5,-49.5"/>
<text text-anchor="start" x="341.5" y="-67.5" font-family="Helvetica,sans-Serif" font-size="10.00">sm::PartitionMatrix</text>
<text text-anchor="middle" x="383" y="-56.5" font-family="Helvetica,sans-Serif" font-size="10.00">::getNumObjetos</text>
</a>
</g>
</g>
<!-- Node51&#45;&gt;Node58 -->
<g id="edge14" class="edge"><title>Node51&#45;&gt;Node58</title>
<path fill="none" stroke="midnightblue" d="M81.2261,-64.5C140.88,-64.5 253.965,-64.5 323.196,-64.5"/>
<polygon fill="midnightblue" stroke="midnightblue" points="323.498,-68.0001 333.498,-64.5 323.498,-61.0001 323.498,-68.0001"/>
</g>
<!-- Node59 -->
<g id="node9" class="node"><title>Node59</title>
<g id="a_node9"><a xlink:href="classsm_1_1_confusion_matching_matrix.html#ad1eb28e719bab5566cc56aa2a094ffa1" target="_top" xlink:title=" ">
<polygon fill="white" stroke="black" points="302,-0.5 302,-30.5 464,-30.5 464,-0.5 302,-0.5"/>
<text text-anchor="start" x="310" y="-18.5" font-family="Helvetica,sans-Serif" font-size="10.00">sm::ConfusionMatchingMatrix</text>
<text text-anchor="middle" x="383" y="-7.5" font-family="Helvetica,sans-Serif" font-size="10.00">::getSomeClassUSomeClusterV</text>
</a>
</g>
</g>
<!-- Node51&#45;&gt;Node59 -->
<g id="edge15" class="edge"><title>Node51&#45;&gt;Node59</title>
<path fill="none" stroke="midnightblue" d="M81.2261,-58.7832C132.559,-51.3961 223.455,-38.3156 291.928,-28.4619"/>
<polygon fill="midnightblue" stroke="midnightblue" points="292.461,-31.9214 301.86,-27.0326 291.464,-24.9928 292.461,-31.9214"/>
</g>
<!-- Node53 -->
<g id="node3" class="node"><title>Node53</title>
<g id="a_node3"><a xlink:href="classsm_1_1_confusion_matching_matrix.html#ade7e99c4b5bf3c95ecabff877c55e7b2" target="_top" xlink:title=" ">
<polygon fill="white" stroke="black" points="308.5,-196.5 308.5,-226.5 457.5,-226.5 457.5,-196.5 308.5,-196.5"/>
<text text-anchor="start" x="316.5" y="-214.5" font-family="Helvetica,sans-Serif" font-size="10.00">sm::ConfusionMatchingMatrix</text>
<text text-anchor="middle" x="383" y="-203.5" font-family="Helvetica,sans-Serif" font-size="10.00">::_getSumClassniDot2</text>
</a>
</g>
</g>
<!-- Node52&#45;&gt;Node53 -->
<g id="edge2" class="edge"><title>Node52&#45;&gt;Node53</title>
<path fill="none" stroke="midnightblue" d="M211.205,-128.754C232.193,-145.225 267.794,-171.276 302,-187.5 306.014,-189.404 310.214,-191.196 314.497,-192.876"/>
<polygon fill="midnightblue" stroke="midnightblue" points="313.372,-196.192 323.966,-196.373 315.798,-189.625 313.372,-196.192"/>
</g>
<!-- Node56 -->
<g id="node6" class="node"><title>Node56</title>
<g id="a_node6"><a xlink:href="classsm_1_1_confusion_matching_matrix.html#a9ae8e893dfd65ccffaeea1848b7fee66" target="_top" xlink:title=" ">
<polygon fill="white" stroke="black" points="308.5,-147.5 308.5,-177.5 457.5,-177.5 457.5,-147.5 308.5,-147.5"/>
<text text-anchor="start" x="316.5" y="-165.5" font-family="Helvetica,sans-Serif" font-size="10.00">sm::ConfusionMatchingMatrix</text>
<text text-anchor="middle" x="383" y="-154.5" font-family="Helvetica,sans-Serif" font-size="10.00">::_getSumClusternDotj2</text>
</a>
</g>
</g>
<!-- Node52&#45;&gt;Node56 -->
<g id="edge5" class="edge"><title>Node52&#45;&gt;Node56</title>
<path fill="none" stroke="midnightblue" d="M250.644,-128.535C270.744,-133.732 293.44,-139.601 314.243,-144.98"/>
<polygon fill="midnightblue" stroke="midnightblue" points="313.408,-148.379 323.966,-147.494 315.161,-141.602 313.408,-148.379"/>
</g>
<!-- Node57 -->
<g id="node7" class="node"><title>Node57</title>
<g id="a_node7"><a xlink:href="classsm_1_1_confusion_matching_matrix.html#ab5632e4940a7c232eba150bfb9bcd4eb" target="_top" xlink:title=" ">
<polygon fill="white" stroke="black" points="308.5,-98.5 308.5,-128.5 457.5,-128.5 457.5,-98.5 308.5,-98.5"/>
<text text-anchor="start" x="316.5" y="-116.5" font-family="Helvetica,sans-Serif" font-size="10.00">sm::ConfusionMatchingMatrix</text>
<text text-anchor="middle" x="383" y="-105.5" font-family="Helvetica,sans-Serif" font-size="10.00">::_getSumnij2</text>
</a>
</g>
</g>
<!-- Node52&#45;&gt;Node57 -->
<g id="edge8" class="edge"><title>Node52&#45;&gt;Node57</title>
<path fill="none" stroke="midnightblue" d="M266.037,-113.5C276.523,-113.5 287.374,-113.5 298.04,-113.5"/>
<polygon fill="midnightblue" stroke="midnightblue" points="298.192,-117 308.192,-113.5 298.192,-110 298.192,-117"/>
</g>
<!-- Node52&#45;&gt;Node58 -->
<g id="edge11" class="edge"><title>Node52&#45;&gt;Node58</title>
<path fill="none" stroke="midnightblue" d="M250.644,-98.4654C273.777,-92.4837 300.35,-85.6126 323.517,-79.6223"/>
<polygon fill="midnightblue" stroke="midnightblue" points="324.411,-83.0062 333.217,-77.1141 322.659,-76.2291 324.411,-83.0062"/>
</g>
<!-- Node54 -->
<g id="node4" class="node"><title>Node54</title>
<g id="a_node4"><a xlink:href="classmat_1_1_matrix_base.html#ac500eedd5e203327d3292f8ab22d8f3e" target="_top" xlink:title=" ">
<polygon fill="white" stroke="black" points="500,-123 500,-164 643,-164 643,-123 500,-123"/>
<text text-anchor="start" x="508" y="-152" font-family="Helvetica,sans-Serif" font-size="10.00">mat::MatrixBase&lt; T</text>
<text text-anchor="start" x="508" y="-141" font-family="Helvetica,sans-Serif" font-size="10.00">_INSTANCES_CLUSTER_K</text>
<text text-anchor="middle" x="571.5" y="-130" font-family="Helvetica,sans-Serif" font-size="10.00"> &gt;::getNumRows</text>
</a>
</g>
</g>
<!-- Node53&#45;&gt;Node54 -->
<g id="edge3" class="edge"><title>Node53&#45;&gt;Node54</title>
<path fill="none" stroke="midnightblue" d="M436.745,-196.497C445.884,-193.664 455.256,-190.609 464,-187.5 480.545,-181.617 498.264,-174.596 514.407,-167.909"/>
<polygon fill="midnightblue" stroke="midnightblue" points="515.833,-171.106 523.71,-164.021 513.133,-164.648 515.833,-171.106"/>
</g>
<!-- Node55 -->
<g id="node5" class="node"><title>Node55</title>
<g id="a_node5"><a xlink:href="classmat_1_1_matrix_base.html#a70200414022ce1479b9ddc16102b12ae" target="_top" xlink:title=" ">
<polygon fill="white" stroke="black" points="500,-63 500,-104 643,-104 643,-63 500,-63"/>
<text text-anchor="start" x="508" y="-92" font-family="Helvetica,sans-Serif" font-size="10.00">mat::MatrixBase&lt; T</text>
<text text-anchor="start" x="508" y="-81" font-family="Helvetica,sans-Serif" font-size="10.00">_INSTANCES_CLUSTER_K</text>
<text text-anchor="middle" x="571.5" y="-70" font-family="Helvetica,sans-Serif" font-size="10.00"> &gt;::getNumColumns</text>
</a>
</g>
</g>
<!-- Node53&#45;&gt;Node55 -->
<g id="edge4" class="edge"><title>Node53&#45;&gt;Node55</title>
<path fill="none" stroke="midnightblue" d="M450.497,-196.49C455.336,-193.948 459.913,-190.976 464,-187.5 491.862,-163.806 473.494,-138.701 500,-113.5 501.259,-112.303 502.573,-111.15 503.934,-110.039"/>
<polygon fill="midnightblue" stroke="midnightblue" points="506.08,-112.807 512.168,-104.136 502.002,-107.118 506.08,-112.807"/>
</g>
<!-- Node56&#45;&gt;Node54 -->
<g id="edge6" class="edge"><title>Node56&#45;&gt;Node54</title>
<path fill="none" stroke="midnightblue" d="M457.71,-154.991C468.203,-153.922 479.042,-152.817 489.663,-151.735"/>
<polygon fill="midnightblue" stroke="midnightblue" points="490.166,-155.202 499.76,-150.707 489.456,-148.238 490.166,-155.202"/>
</g>
<!-- Node56&#45;&gt;Node55 -->
<g id="edge7" class="edge"><title>Node56&#45;&gt;Node55</title>
<path fill="none" stroke="midnightblue" d="M442.074,-147.456C449.592,-144.822 457.077,-141.837 464,-138.5 481.547,-130.041 482.949,-122.919 500,-113.5 503.062,-111.809 506.239,-110.148 509.474,-108.53"/>
<polygon fill="midnightblue" stroke="midnightblue" points="511.208,-111.581 518.703,-104.093 508.174,-105.272 511.208,-111.581"/>
</g>
<!-- Node57&#45;&gt;Node54 -->
<g id="edge9" class="edge"><title>Node57&#45;&gt;Node54</title>
<path fill="none" stroke="midnightblue" d="M457.71,-125.357C468.203,-127.045 479.042,-128.788 489.663,-130.497"/>
<polygon fill="midnightblue" stroke="midnightblue" points="489.331,-133.988 499.76,-132.121 490.442,-127.077 489.331,-133.988"/>
</g>
<!-- Node57&#45;&gt;Node55 -->
<g id="edge10" class="edge"><title>Node57&#45;&gt;Node55</title>
<path fill="none" stroke="midnightblue" d="M457.71,-101.643C468.203,-99.9553 479.042,-98.2117 489.663,-96.5033"/>
<polygon fill="midnightblue" stroke="midnightblue" points="490.442,-99.923 499.76,-94.8791 489.331,-93.0118 490.442,-99.923"/>
</g>
<!-- Node58&#45;&gt;Node54 -->
<g id="edge12" class="edge"><title>Node58&#45;&gt;Node54</title>
<path fill="none" stroke="midnightblue" d="M432.654,-77.2683C443.207,-80.7051 454.151,-84.7979 464,-89.5 481.353,-97.7852 483.08,-104.363 500,-113.5 503.233,-115.246 506.59,-116.965 510.005,-118.641"/>
<polygon fill="midnightblue" stroke="midnightblue" points="508.604,-121.85 519.139,-122.972 511.602,-115.525 508.604,-121.85"/>
</g>
<!-- Node58&#45;&gt;Node55 -->
<g id="edge13" class="edge"><title>Node58&#45;&gt;Node55</title>
<path fill="none" stroke="midnightblue" d="M432.514,-69.4424C449.976,-71.2214 470.182,-73.2799 489.653,-75.2635"/>
<polygon fill="midnightblue" stroke="midnightblue" points="489.446,-78.7605 499.749,-76.2922 490.156,-71.7966 489.446,-78.7605"/>
</g>
<!-- Node59&#45;&gt;Node54 -->
<g id="edge16" class="edge"><title>Node59&#45;&gt;Node54</title>
<path fill="none" stroke="midnightblue" d="M450.497,-30.51C455.336,-33.0519 459.913,-36.0243 464,-39.5 491.862,-63.1941 473.494,-88.2987 500,-113.5 501.259,-114.697 502.573,-115.85 503.934,-116.961"/>
<polygon fill="midnightblue" stroke="midnightblue" points="502.002,-119.882 512.168,-122.864 506.08,-114.193 502.002,-119.882"/>
</g>
<!-- Node59&#45;&gt;Node55 -->
<g id="edge17" class="edge"><title>Node59&#45;&gt;Node55</title>
<path fill="none" stroke="midnightblue" d="M436.745,-30.5035C445.884,-33.3364 455.256,-36.391 464,-39.5 480.545,-45.3827 498.264,-52.4039 514.407,-59.0914"/>
<polygon fill="midnightblue" stroke="midnightblue" points="513.133,-62.3523 523.71,-62.9792 515.833,-55.8936 513.133,-62.3523"/>
</g>
</g>
</svg>
        <g id="navigator" transform="translate(0 0)" fill="#404254">
                <rect fill="#f2f5e9" fill-opacity="0.5" stroke="#606060" stroke-width=".5" x="0" y="0" width="60" height="60"/>
                <use id="zoomplus" xlink:href="#zoomPlus" x="17" y="9" onmousedown="handleZoom(evt,'in')"/>
                <use id="zoomminus" xlink:href="#zoomMin" x="42" y="9" onmousedown="handleZoom(evt,'out')"/>
                <use id="reset" xlink:href="#resetDef" x="30" y="36" onmousedown="handleReset()"/>
                <g id="arrowUp" xlink:href="#dirArrow" transform="translate(30 24)" onmousedown="handlePan(0,-1)">
                  <use xlink:href="#rim" fill="#404040">
                        <set attributeName="fill" to="#808080" begin="arrowUp.mouseover" end="arrowUp.mouseout"/>
                  </use>
                  <path fill="none" stroke="white" stroke-width="1.5" d="M0,-3.0v7 M-2.5,-0.5L0,-3.0L2.5,-0.5"/>
                </g>
                <g id="arrowRight" xlink:href="#dirArrow" transform="rotate(90) translate(36 -43)" onmousedown="handlePan(1,0)">
                  <use xlink:href="#rim" fill="#404040">
                        <set attributeName="fill" to="#808080" begin="arrowRight.mouseover" end="arrowRight.mouseout"/>
                  </use>
                  <path fill="none" stroke="white" stroke-width="1.5" d="M0,-3.0v7 M-2.5,-0.5L0,-3.0L2.5,-0.5"/>
                </g>
                <g id="arrowDown" xlink:href="#dirArrow" transform="rotate(180) translate(-30 -48)" onmousedown="handlePan(0,1)">
                  <use xlink:href="#rim" fill="#404040">
                        <set attributeName="fill" to="#808080" begin="arrowDown.mouseover" end="arrowDown.mouseout"/>
                  </use>
                  <path fill="none" stroke="white" stroke-width="1.5" d="M0,-3.0v7 M-2.5,-0.5L0,-3.0L2.5,-0.5"/>
                </g>
                <g id="arrowLeft" xlink:href="#dirArrow" transform="rotate(270) translate(-36 17)" onmousedown="handlePan(-1,0)">
                  <use xlink:href="#rim" fill="#404040">
                        <set attributeName="fill" to="#808080" begin="arrowLeft.mouseover" end="arrowLeft.mouseout"/>
                  </use>
                  <path fill="none" stroke="white" stroke-width="1.5" d="M0,-3.0v7 M-2.5,-0.5L0,-3.0L2.5,-0.5"/>
                </g>
        </g>
        <svg viewBox="0 0 15 15" width="100%" height="30px" preserveAspectRatio="xMaxYMin meet">
         <g id="arrow_out" transform="scale(0.3 0.3)">
          <a xlink:href="namespacesm_aee679facae8c9b98204eb941a0203cbf_cgraph_org.svg" target="_base">
           <rect id="button" ry="5" rx="5" y="6" x="6" height="38" width="38"
                fill="#f2f5e9" fill-opacity="0.5" stroke="#606060" stroke-width="1.0"/>
           <path id="arrow"
             d="M 11.500037,31.436501 C 11.940474,20.09759 22.043105,11.32322 32.158766,21.979434 L 37.068811,17.246167 C 37.068811,17.246167 37.088388,32 37.088388,32 L 22.160133,31.978069 C 22.160133,31.978069 26.997745,27.140456 26.997745,27.140456 C 18.528582,18.264221 13.291696,25.230495 11.500037,31.436501 z"
             style="fill:#404040;"/>
          </a>
         </g>
        </svg>
</svg>
