<?xml version="1.0" encoding="UTF-8" standalone="no"?>
<!DOCTYPE svg PUBLIC "-//W3C//DTD SVG 1.1//EN"
 "http://www.w3.org/Graphics/SVG/1.1/DTD/svg11.dtd">
<!-- Generated by graphviz version 2.38.0 (20140413.2041)
 -->
<!-- Title: dist::kernelEuclideanSquared Pages: 1 -->
<svg width="303pt" height="28pt"
 viewBox="0.00 0.00 303.00 28.00" xmlns="http://www.w3.org/2000/svg" xmlns:xlink="http://www.w3.org/1999/xlink">
<g id="graph0" class="graph" transform="scale(1 1) rotate(0) translate(4 24)">
<title>dist::kernelEuclideanSquared</title>
<polygon fill="white" stroke="none" points="-4,4 -4,-24 299,-24 299,4 -4,4"/>
<!-- Node17 -->
<g id="node1" class="node"><title>Node17</title>
<polygon fill="#bfbfbf" stroke="black" points="0,-0.5 0,-19.5 149,-19.5 149,-0.5 0,-0.5"/>
<text text-anchor="middle" x="74.5" y="-7.5" font-family="Helvetica,sans-Serif" font-size="10.00">dist::kernelEuclideanSquared</text>
</g>
<!-- Node18 -->
<g id="node2" class="node"><title>Node18</title>
<g id="a_node2"><a xlink:href="namespacedist.html#a32fc945efb8cbd2bd1d65eac5cd3668c" target="_top" xlink:title="Gets the Euclidean distance of two double n&#45;dimensional points with SSE. ">
<polygon fill="white" stroke="black" points="185,-0.5 185,-19.5 295,-19.5 295,-0.5 185,-0.5"/>
<text text-anchor="middle" x="240" y="-7.5" font-family="Helvetica,sans-Serif" font-size="10.00">dist::kernelEuclidean</text>
</a>
</g>
</g>
<!-- Node17&#45;&gt;Node18 -->
<g id="edge1" class="edge"><title>Node17&#45;&gt;Node18</title>
<path fill="none" stroke="midnightblue" d="M149.119,-3.27977C157.676,-3.21693 166.352,-3.25358 174.769,-3.3897"/>
<polygon fill="midnightblue" stroke="midnightblue" points="174.809,-6.89125 184.881,-3.60507 174.958,0.107167 174.809,-6.89125"/>
</g>
<!-- Node18&#45;&gt;Node17 -->
<g id="edge2" class="edge"><title>Node18&#45;&gt;Node17</title>
<path fill="none" stroke="midnightblue" d="M184.881,-16.3949C176.649,-16.6143 167.994,-16.7321 159.307,-16.7481"/>
<polygon fill="midnightblue" stroke="midnightblue" points="159.128,-13.2477 149.119,-16.7202 159.109,-20.2477 159.128,-13.2477"/>
</g>
</g>
</svg>
