<?xml version="1.0" encoding="UTF-8" standalone="no"?>
<!DOCTYPE svg PUBLIC "-//W3C//DTD SVG 1.1//EN"
 "http://www.w3.org/Graphics/SVG/1.1/DTD/svg11.dtd">
<!-- Generated by graphviz version 2.38.0 (20140413.2041)
 -->
<!-- Title: include/nearestinstance_operator.hpp Pages: 1 -->
<!--zoomable 609 -->
<svg id="main" version="1.1" xmlns="http://www.w3.org/2000/svg" xmlns:xlink="http://www.w3.org/1999/xlink" xml:space="preserve" onload="init(evt)">
<style type="text/css"><![CDATA[
.edge:hover path { stroke: red; }
.edge:hover polygon { stroke: red; fill: red; }
]]></style>
<script type="text/javascript"><![CDATA[
var edges = document.getElementsByTagName('g');
if (edges && edges.length) {
  for (var i=0;i<edges.length;i++) {
    if (edges[i].id.substr(0,4)=='edge') {
      edges[i].setAttribute('class','edge');
    }
  }
}
]]></script>
        <defs>
                <circle id="rim" cx="0" cy="0" r="7"/>
                <circle id="rim2" cx="0" cy="0" r="3.5"/>
                <g id="zoomPlus">
                        <use xlink:href="#rim" fill="#404040">
                                <set attributeName="fill" to="#808080" begin="zoomplus.mouseover" end="zoomplus.mouseout"/>
                        </use>
                        <path d="M-4,0h8M0,-4v8" fill="none" stroke="white" stroke-width="1.5" pointer-events="none"/>
                </g>
                <g id="zoomMin">
                        <use xlink:href="#rim" fill="#404040">
                                <set attributeName="fill" to="#808080" begin="zoomminus.mouseover" end="zoomminus.mouseout"/>
                        </use>
                        <path d="M-4,0h8" fill="none" stroke="white" stroke-width="1.5" pointer-events="none"/>
                </g>
                <g id="dirArrow">
                        <path fill="none" stroke="white" stroke-width="1.5" d="M0,-3.0v7 M-2.5,-0.5L0,-3.0L2.5,-0.5"/>
                </g>
               <g id="resetDef">
                       <use xlink:href="#rim2" fill="#404040">
                               <set attributeName="fill" to="#808080" begin="reset.mouseover" end="reset.mouseout"/>
                       </use>
               </g>
        </defs>

<script type="text/javascript">
var viewWidth = 2844;
var viewHeight = 609;
var sectionId = 'dynsection-1';
</script>
<script xlink:href="svgpan.js"/>
<svg id="graph" class="graph">
<g id="viewport">
<title>include/nearestinstance_operator.hpp</title>
<polygon fill="white" stroke="none" points="-4,4 -4,-605 2839.5,-605 2839.5,4 -4,4"/>
<!-- Node28 -->
<g id="node1" class="node"><title>Node28</title>
<polygon fill="#bfbfbf" stroke="black" points="1477,-570.5 1477,-600.5 1600,-600.5 1600,-570.5 1477,-570.5"/>
<text text-anchor="start" x="1485" y="-588.5" font-family="Helvetica,sans-Serif" font-size="10.00">include/nearestinstance</text>
<text text-anchor="middle" x="1538.5" y="-577.5" font-family="Helvetica,sans-Serif" font-size="10.00">_operator.hpp</text>
</g>
<!-- Node29 -->
<g id="node2" class="node"><title>Node29</title>
<g id="a_node2"><a xlink:href="partition__linked_8hpp.html" target="_top" xlink:title="Linked partition data structure. ">
<polygon fill="white" stroke="black" points="1195,-514.5 1195,-533.5 1332,-533.5 1332,-514.5 1195,-514.5"/>
<text text-anchor="middle" x="1263.5" y="-521.5" font-family="Helvetica,sans-Serif" font-size="10.00">include/partition_linked.hpp</text>
</a>
</g>
</g>
<!-- Node28&#45;&gt;Node29 -->
<g id="edge1" class="edge"><title>Node28&#45;&gt;Node29</title>
<path fill="none" stroke="midnightblue" d="M1466.89,-569.006C1414.58,-557.687 1345.6,-542.763 1302.92,-533.529"/>
<polygon fill="midnightblue" stroke="midnightblue" points="1466.27,-572.453 1476.78,-571.147 1467.75,-565.611 1466.27,-572.453"/>
</g>
<!-- Node53 -->
<g id="node26" class="node"><title>Node53</title>
<g id="a_node26"><a xlink:href="clustering__operator__centroids_8hpp.html" target="_top" xlink:title="clustering operator centroids ">
<polygon fill="white" stroke="black" points="1253.5,-246.5 1253.5,-276.5 1377.5,-276.5 1377.5,-246.5 1253.5,-246.5"/>
<text text-anchor="start" x="1261.5" y="-264.5" font-family="Helvetica,sans-Serif" font-size="10.00">include/clustering</text>
<text text-anchor="middle" x="1315.5" y="-253.5" font-family="Helvetica,sans-Serif" font-size="10.00">_operator_centroids.hpp</text>
</a>
</g>
</g>
<!-- Node28&#45;&gt;Node53 -->
<g id="edge47" class="edge"><title>Node28&#45;&gt;Node53</title>
<path fill="none" stroke="midnightblue" d="M1469.2,-567.255C1419.21,-550.183 1360.5,-518.438 1360.5,-463.5 1360.5,-463.5 1360.5,-463.5 1360.5,-394.5 1360.5,-349.466 1336.74,-300.19 1323.75,-276.61"/>
<polygon fill="midnightblue" stroke="midnightblue" points="1468.14,-570.592 1478.73,-570.375 1470.32,-563.939 1468.14,-570.592"/>
</g>
<!-- Node55 -->
<g id="node28" class="node"><title>Node55</title>
<g id="a_node28"><a xlink:href="clustering__operator__crispmatrix_8hpp.html" target="_top" xlink:title="clustering operator crispmatrix ">
<polygon fill="white" stroke="black" points="1382,-179.5 1382,-209.5 1513,-209.5 1513,-179.5 1382,-179.5"/>
<text text-anchor="start" x="1390" y="-197.5" font-family="Helvetica,sans-Serif" font-size="10.00">include/clustering</text>
<text text-anchor="middle" x="1447.5" y="-186.5" font-family="Helvetica,sans-Serif" font-size="10.00">_operator_crispmatrix.hpp</text>
</a>
</g>
</g>
<!-- Node28&#45;&gt;Node55 -->
<g id="edge53" class="edge"><title>Node28&#45;&gt;Node55</title>
<path fill="none" stroke="midnightblue" d="M1538.5,-560.194C1538.5,-535.761 1538.5,-497.019 1538.5,-463.5 1538.5,-463.5 1538.5,-463.5 1538.5,-327.5 1538.5,-276.841 1492.51,-231.496 1465.92,-209.513"/>
<polygon fill="midnightblue" stroke="midnightblue" points="1535,-560.342 1538.5,-570.342 1542,-560.343 1535,-560.342"/>
</g>
<!-- Node57 -->
<g id="node30" class="node"><title>Node57</title>
<g id="a_node30"><a xlink:href="partition__linked__numinst_8hpp.html" target="_top" xlink:title="Linked partition data structure with number of instances. ">
<polygon fill="white" stroke="black" points="1107,-447.5 1107,-477.5 1226,-477.5 1226,-447.5 1107,-447.5"/>
<text text-anchor="start" x="1115" y="-465.5" font-family="Helvetica,sans-Serif" font-size="10.00">include/partition_linked</text>
<text text-anchor="middle" x="1166.5" y="-454.5" font-family="Helvetica,sans-Serif" font-size="10.00">_numinst.hpp</text>
</a>
</g>
</g>
<!-- Node28&#45;&gt;Node57 -->
<g id="edge46" class="edge"><title>Node28&#45;&gt;Node57</title>
<path fill="none" stroke="midnightblue" d="M1466.66,-583.307C1375.72,-580.298 1226,-569.867 1185.5,-534 1169.56,-519.881 1166.36,-493.931 1166.04,-477.759"/>
<polygon fill="midnightblue" stroke="midnightblue" points="1466.8,-586.813 1476.9,-583.623 1467.01,-579.816 1466.8,-586.813"/>
</g>
<!-- Node62 -->
<g id="node35" class="node"><title>Node62</title>
<g id="a_node35"><a xlink:href="partition__disjsets_8hpp.html" target="_top" xlink:title="Partition based on structure of disjoint joint data. ">
<polygon fill="white" stroke="black" points="1566.5,-319 1566.5,-338 1710.5,-338 1710.5,-319 1566.5,-319"/>
<text text-anchor="middle" x="1638.5" y="-326" font-family="Helvetica,sans-Serif" font-size="10.00">include/partition_disjsets.hpp</text>
</a>
</g>
</g>
<!-- Node28&#45;&gt;Node62 -->
<g id="edge48" class="edge"><title>Node28&#45;&gt;Node62</title>
<path fill="none" stroke="midnightblue" d="M1547.76,-560.897C1569.16,-506.313 1621.31,-373.338 1635.11,-338.157"/>
<polygon fill="midnightblue" stroke="midnightblue" points="1544.41,-559.839 1544.02,-570.427 1550.93,-562.395 1544.41,-559.839"/>
</g>
<!-- Node64 -->
<g id="node37" class="node"><title>Node64</title>
<g id="a_node37"><a xlink:href="partition__centroids_8hpp.html" target="_top" xlink:title="Partition based on centroids. ">
<polygon fill="white" stroke="black" points="1605,-453 1605,-472 1756,-472 1756,-453 1605,-453"/>
<text text-anchor="middle" x="1680.5" y="-460" font-family="Helvetica,sans-Serif" font-size="10.00">include/partition_centroids.hpp</text>
</a>
</g>
</g>
<!-- Node28&#45;&gt;Node64 -->
<g id="edge54" class="edge"><title>Node28&#45;&gt;Node64</title>
<path fill="none" stroke="midnightblue" d="M1562.98,-563.64C1594.6,-536.693 1648.22,-491.005 1670.42,-472.092"/>
<polygon fill="midnightblue" stroke="midnightblue" points="1560.41,-561.233 1555.07,-570.383 1564.95,-566.561 1560.41,-561.233"/>
</g>
<!-- Node65 -->
<g id="node38" class="node"><title>Node65</title>
<g id="a_node38"><a xlink:href="partition__medoids_8hpp.html" target="_top" xlink:title="Partition based on centroids medoids. ">
<polygon fill="white" stroke="black" points="1693,-514.5 1693,-533.5 1842,-533.5 1842,-514.5 1693,-514.5"/>
<text text-anchor="middle" x="1767.5" y="-521.5" font-family="Helvetica,sans-Serif" font-size="10.00">include/partition_medoids.hpp</text>
</a>
</g>
</g>
<!-- Node28&#45;&gt;Node65 -->
<g id="edge56" class="edge"><title>Node28&#45;&gt;Node65</title>
<path fill="none" stroke="midnightblue" d="M1602.3,-567.922C1645.34,-556.74 1700.35,-542.447 1734.76,-533.506"/>
<polygon fill="midnightblue" stroke="midnightblue" points="1601.28,-564.572 1592.48,-570.475 1603.04,-571.347 1601.28,-564.572"/>
</g>
<!-- Node30 -->
<g id="node3" class="node"><title>Node30</title>
<g id="a_node3"><a xlink:href="partition__linked__stats_8hpp.html" target="_top" xlink:title="Linked partition data structure with statistics. ">
<polygon fill="white" stroke="black" points="1204,-313.5 1204,-343.5 1323,-343.5 1323,-313.5 1204,-313.5"/>
<text text-anchor="start" x="1212" y="-331.5" font-family="Helvetica,sans-Serif" font-size="10.00">include/partition_linked</text>
<text text-anchor="middle" x="1263.5" y="-320.5" font-family="Helvetica,sans-Serif" font-size="10.00">_stats.hpp</text>
</a>
</g>
</g>
<!-- Node29&#45;&gt;Node30 -->
<g id="edge2" class="edge"><title>Node29&#45;&gt;Node30</title>
<path fill="none" stroke="midnightblue" d="M1263.5,-504.106C1263.5,-465.406 1263.5,-377.89 1263.5,-343.63"/>
<polygon fill="midnightblue" stroke="midnightblue" points="1260,-504.436 1263.5,-514.436 1267,-504.436 1260,-504.436"/>
</g>
<!-- Node29&#45;&gt;Node57 -->
<g id="edge36" class="edge"><title>Node29&#45;&gt;Node57</title>
<path fill="none" stroke="midnightblue" d="M1240.69,-509.008C1225.22,-499.518 1204.84,-487.02 1189.36,-477.523"/>
<polygon fill="midnightblue" stroke="midnightblue" points="1239.25,-512.23 1249.6,-514.475 1242.91,-506.263 1239.25,-512.23"/>
</g>
<!-- Node61 -->
<g id="node34" class="node"><title>Node61</title>
<g id="a_node34"><a xlink:href="clustering__operator__medoids_8hpp.html" target="_top" xlink:title="clustering operator medoids ">
<polygon fill="white" stroke="black" points="1388.5,-380.5 1388.5,-410.5 1510.5,-410.5 1510.5,-380.5 1388.5,-380.5"/>
<text text-anchor="start" x="1396.5" y="-398.5" font-family="Helvetica,sans-Serif" font-size="10.00">include/clustering</text>
<text text-anchor="middle" x="1449.5" y="-387.5" font-family="Helvetica,sans-Serif" font-size="10.00">_operator_medoids.hpp</text>
</a>
</g>
</g>
<!-- Node29&#45;&gt;Node61 -->
<g id="edge44" class="edge"><title>Node29&#45;&gt;Node61</title>
<path fill="none" stroke="midnightblue" d="M1284.57,-508.671C1320.43,-484.278 1392.93,-434.974 1428.65,-410.682"/>
<polygon fill="midnightblue" stroke="midnightblue" points="1282.59,-505.787 1276.28,-514.305 1286.52,-511.575 1282.59,-505.787"/>
</g>
<!-- Node31 -->
<g id="node4" class="node"><title>Node31</title>
<g id="a_node4"><a xlink:href="chromosome__cbga_8hpp.html" target="_top" xlink:title="chromosome CBGA ">
<polygon fill="white" stroke="black" points="1058,-179.5 1058,-209.5 1169,-209.5 1169,-179.5 1058,-179.5"/>
<text text-anchor="start" x="1066" y="-197.5" font-family="Helvetica,sans-Serif" font-size="10.00">include/chromosome</text>
<text text-anchor="middle" x="1113.5" y="-186.5" font-family="Helvetica,sans-Serif" font-size="10.00">_cbga.hpp</text>
</a>
</g>
</g>
<!-- Node30&#45;&gt;Node31 -->
<g id="edge3" class="edge"><title>Node30&#45;&gt;Node31</title>
<path fill="none" stroke="midnightblue" d="M1239.74,-306.593C1208.89,-279.441 1155.86,-232.779 1129.44,-209.525"/>
<polygon fill="midnightblue" stroke="midnightblue" points="1237.63,-309.395 1247.45,-313.374 1242.25,-304.14 1237.63,-309.395"/>
</g>
<!-- Node30&#45;&gt;Node53 -->
<g id="edge25" class="edge"><title>Node30&#45;&gt;Node53</title>
<path fill="none" stroke="midnightblue" d="M1281.14,-305.447C1288.78,-295.899 1297.5,-285.004 1304.24,-276.577"/>
<polygon fill="midnightblue" stroke="midnightblue" points="1278.3,-303.401 1274.78,-313.396 1283.76,-307.774 1278.3,-303.401"/>
</g>
<!-- Node32 -->
<g id="node5" class="node"><title>Node32</title>
<g id="a_node5"><a xlink:href="ga__clustering__operator_8hpp.html" target="_top" xlink:title="genetic operators oriented to clustering ">
<polygon fill="white" stroke="black" points="1058.5,-112.5 1058.5,-142.5 1170.5,-142.5 1170.5,-112.5 1058.5,-112.5"/>
<text text-anchor="start" x="1066.5" y="-130.5" font-family="Helvetica,sans-Serif" font-size="10.00">include/ga_clustering</text>
<text text-anchor="middle" x="1114.5" y="-119.5" font-family="Helvetica,sans-Serif" font-size="10.00">_operator.hpp</text>
</a>
</g>
</g>
<!-- Node31&#45;&gt;Node32 -->
<g id="edge4" class="edge"><title>Node31&#45;&gt;Node32</title>
<path fill="none" stroke="midnightblue" d="M1113.88,-169.108C1114.01,-160.154 1114.16,-150.323 1114.28,-142.577"/>
<polygon fill="midnightblue" stroke="midnightblue" points="1110.37,-169.343 1113.72,-179.396 1117.37,-169.451 1110.37,-169.343"/>
</g>
<!-- Node33 -->
<g id="node6" class="node"><title>Node33</title>
<g id="a_node6"><a xlink:href="leac_8hpp.html" target="_top" xlink:title="LEAC. ">
<polygon fill="white" stroke="black" points="1403,-56.5 1403,-75.5 1492,-75.5 1492,-56.5 1403,-56.5"/>
<text text-anchor="middle" x="1447.5" y="-63.5" font-family="Helvetica,sans-Serif" font-size="10.00">include/leac.hpp</text>
</a>
</g>
</g>
<!-- Node32&#45;&gt;Node33 -->
<g id="edge5" class="edge"><title>Node32&#45;&gt;Node33</title>
<path fill="none" stroke="midnightblue" d="M1180.48,-114.71C1246.36,-102.939 1345.8,-85.1716 1402.91,-74.9679"/>
<polygon fill="midnightblue" stroke="midnightblue" points="1179.84,-111.269 1170.61,-116.474 1181.07,-118.16 1179.84,-111.269"/>
</g>
<!-- Node34 -->
<g id="node7" class="node"><title>Node34</title>
<g id="a_node7"><a xlink:href="cbga__fkcentroid_8hpp.html" target="_top" xlink:title="CBGA . ">
<polygon fill="white" stroke="black" points="2581.5,-0.5 2581.5,-19.5 2707.5,-19.5 2707.5,-0.5 2581.5,-0.5"/>
<text text-anchor="middle" x="2644.5" y="-7.5" font-family="Helvetica,sans-Serif" font-size="10.00">eac/cbga_fkcentroid.hpp</text>
</a>
</g>
</g>
<!-- Node33&#45;&gt;Node34 -->
<g id="edge6" class="edge"><title>Node33&#45;&gt;Node34</title>
<path fill="none" stroke="midnightblue" d="M1502.33,-64.4447C1665.5,-62.4401 2162.18,-53.7906 2572.5,-20 2575.39,-19.7622 2578.34,-19.4945 2581.32,-19.2041"/>
<polygon fill="midnightblue" stroke="midnightblue" points="1502.02,-60.948 1492.07,-64.5673 1502.11,-67.9475 1502.02,-60.948"/>
</g>
<!-- Node35 -->
<g id="node8" class="node"><title>Node35</title>
<g id="a_node8"><a xlink:href="cga__vklabel_8hpp.html" target="_top" xlink:title="CGA &#160;&#160;. ">
<polygon fill="white" stroke="black" points="2725.5,-0.5 2725.5,-19.5 2835.5,-19.5 2835.5,-0.5 2725.5,-0.5"/>
<text text-anchor="middle" x="2780.5" y="-7.5" font-family="Helvetica,sans-Serif" font-size="10.00">eac/cga_vklabel.hpp</text>
</a>
</g>
</g>
<!-- Node33&#45;&gt;Node35 -->
<g id="edge7" class="edge"><title>Node33&#45;&gt;Node35</title>
<path fill="none" stroke="midnightblue" d="M1502.36,-65.0946C1678.87,-64.963 2247.92,-61.1426 2716.5,-20 2719.41,-19.7448 2722.38,-19.4487 2725.38,-19.1225"/>
<polygon fill="midnightblue" stroke="midnightblue" points="1502.28,-61.5946 1492.28,-65.0984 1502.28,-68.5946 1502.28,-61.5946"/>
</g>
<!-- Node36 -->
<g id="node9" class="node"><title>Node36</title>
<g id="a_node9"><a xlink:href="clustering__vksubclusterbinary_8hpp.html" target="_top" xlink:title="CLUSTERING . ">
<polygon fill="white" stroke="black" points="125,-0.5 125,-19.5 310,-19.5 310,-0.5 125,-0.5"/>
<text text-anchor="middle" x="217.5" y="-7.5" font-family="Helvetica,sans-Serif" font-size="10.00">eac/clustering_vksubclusterbinary.hpp</text>
</a>
</g>
</g>
<!-- Node33&#45;&gt;Node36 -->
<g id="edge8" class="edge"><title>Node33&#45;&gt;Node36</title>
<path fill="none" stroke="midnightblue" d="M1392.64,-62.8886C1173.83,-54.4564 372.549,-23.4832 318.5,-20 315.777,-19.8245 313.013,-19.6373 310.224,-19.4404"/>
<polygon fill="midnightblue" stroke="midnightblue" points="1392.79,-66.3968 1402.92,-63.2845 1393.06,-59.402 1392.79,-66.3968"/>
</g>
<!-- Node37 -->
<g id="node10" class="node"><title>Node37</title>
<g id="a_node10"><a xlink:href="feac__vklabel_8hpp.html" target="_top" xlink:title="EAC, EACI, EACII, EACIII and FEAC &#160;and . ">
<polygon fill="white" stroke="black" points="327.5,-0.5 327.5,-19.5 439.5,-19.5 439.5,-0.5 327.5,-0.5"/>
<text text-anchor="middle" x="383.5" y="-7.5" font-family="Helvetica,sans-Serif" font-size="10.00">eac/feac_vklabel.hpp</text>
</a>
</g>
</g>
<!-- Node33&#45;&gt;Node37 -->
<g id="edge9" class="edge"><title>Node33&#45;&gt;Node37</title>
<path fill="none" stroke="midnightblue" d="M1392.85,-62.835C1197.79,-55.0675 542.502,-28.6064 448.5,-20 445.664,-19.7403 442.762,-19.4455 439.833,-19.125"/>
<polygon fill="midnightblue" stroke="midnightblue" points="1392.74,-66.3334 1402.87,-63.2338 1393.02,-59.3389 1392.74,-66.3334"/>
</g>
<!-- Node38 -->
<g id="node11" class="node"><title>Node38</title>
<g id="a_node11"><a xlink:href="gaclustering__fkcrispmatrix_8hpp.html" target="_top" xlink:title="GA CLUSTERING . ">
<polygon fill="white" stroke="black" points="457.5,-0.5 457.5,-19.5 627.5,-19.5 627.5,-0.5 457.5,-0.5"/>
<text text-anchor="middle" x="542.5" y="-7.5" font-family="Helvetica,sans-Serif" font-size="10.00">eac/gaclustering_fkcrispmatrix.hpp</text>
</a>
</g>
</g>
<!-- Node33&#45;&gt;Node38 -->
<g id="edge10" class="edge"><title>Node33&#45;&gt;Node38</title>
<path fill="none" stroke="midnightblue" d="M1392.44,-62.7061C1261.37,-57.0797 920.581,-41.4724 636.5,-20 633.557,-19.7776 630.564,-19.542 627.541,-19.2961"/>
<polygon fill="midnightblue" stroke="midnightblue" points="1392.48,-66.211 1402.62,-63.1412 1392.78,-59.2174 1392.48,-66.211"/>
</g>
<!-- Node39 -->
<g id="node12" class="node"><title>Node39</title>
<g id="a_node12"><a xlink:href="gaclustering__fklabel_8hpp.html" target="_top" xlink:title="GA Clustering . ">
<polygon fill="white" stroke="black" points="645.5,-0.5 645.5,-19.5 789.5,-19.5 789.5,-0.5 645.5,-0.5"/>
<text text-anchor="middle" x="717.5" y="-7.5" font-family="Helvetica,sans-Serif" font-size="10.00">eac/gaclustering_fklabel.hpp</text>
</a>
</g>
</g>
<!-- Node33&#45;&gt;Node39 -->
<g id="edge11" class="edge"><title>Node33&#45;&gt;Node39</title>
<path fill="none" stroke="midnightblue" d="M1392.98,-61.985C1281.32,-55.6409 1018.57,-39.8474 798.5,-20 795.682,-19.7458 792.809,-19.4764 789.908,-19.1958"/>
<polygon fill="midnightblue" stroke="midnightblue" points="1392.81,-65.4808 1402.99,-62.5513 1393.21,-58.4919 1392.81,-65.4808"/>
</g>
<!-- Node40 -->
<g id="node13" class="node"><title>Node40</title>
<g id="a_node13"><a xlink:href="gaclustering__vktreebinary_8hpp.html" target="_top" xlink:title="GA Clustering &#160;x. ">
<polygon fill="white" stroke="black" points="807.5,-0.5 807.5,-19.5 977.5,-19.5 977.5,-0.5 807.5,-0.5"/>
<text text-anchor="middle" x="892.5" y="-7.5" font-family="Helvetica,sans-Serif" font-size="10.00">eac/gaclustering_vktreebinary.hpp</text>
</a>
</g>
</g>
<!-- Node33&#45;&gt;Node40 -->
<g id="edge12" class="edge"><title>Node33&#45;&gt;Node40</title>
<path fill="none" stroke="midnightblue" d="M1392.36,-59.6348C1295.18,-50.1792 1092.82,-30.4903 977.599,-19.2799"/>
<polygon fill="midnightblue" stroke="midnightblue" points="1392.26,-63.1418 1402.55,-60.6267 1392.94,-56.1747 1392.26,-63.1418"/>
</g>
<!-- Node41 -->
<g id="node14" class="node"><title>Node41</title>
<g id="a_node14"><a xlink:href="gagr__fkcentroid_8hpp.html" target="_top" xlink:title="GAGR . ">
<polygon fill="white" stroke="black" points="996,-0.5 996,-19.5 1121,-19.5 1121,-0.5 996,-0.5"/>
<text text-anchor="middle" x="1058.5" y="-7.5" font-family="Helvetica,sans-Serif" font-size="10.00">eac/gagr_fkcentroid.hpp</text>
</a>
</g>
</g>
<!-- Node33&#45;&gt;Node41 -->
<g id="edge13" class="edge"><title>Node33&#45;&gt;Node41</title>
<path fill="none" stroke="midnightblue" d="M1392.67,-57.3881C1320.72,-47.4011 1194.83,-29.9252 1119.81,-19.5108"/>
<polygon fill="midnightblue" stroke="midnightblue" points="1392.49,-60.8972 1402.88,-58.8055 1393.45,-53.9637 1392.49,-60.8972"/>
</g>
<!-- Node42 -->
<g id="node15" class="node"><title>Node42</title>
<g id="a_node15"><a xlink:href="gaprototypes__fkmedoid_8hpp.html" target="_top" xlink:title="GA&#45;Prototypes . ">
<polygon fill="white" stroke="black" points="1139,-0.5 1139,-19.5 1300,-19.5 1300,-0.5 1139,-0.5"/>
<text text-anchor="middle" x="1219.5" y="-7.5" font-family="Helvetica,sans-Serif" font-size="10.00">eac/gaprototypes_fkmedoid.hpp</text>
</a>
</g>
</g>
<!-- Node33&#45;&gt;Node42 -->
<g id="edge14" class="edge"><title>Node33&#45;&gt;Node42</title>
<path fill="none" stroke="midnightblue" d="M1401.43,-54.0884C1358.35,-43.8865 1294.91,-28.8612 1255.46,-19.5164"/>
<polygon fill="midnightblue" stroke="midnightblue" points="1400.84,-57.5446 1411.37,-56.4435 1402.45,-50.733 1400.84,-57.5446"/>
</g>
<!-- Node43 -->
<g id="node16" class="node"><title>Node43</title>
<g id="a_node16"><a xlink:href="gas__fkcentroid_8hpp.html" target="_top" xlink:title="GAS . ">
<polygon fill="white" stroke="black" points="1318,-0.5 1318,-19.5 1439,-19.5 1439,-0.5 1318,-0.5"/>
<text text-anchor="middle" x="1378.5" y="-7.5" font-family="Helvetica,sans-Serif" font-size="10.00">eac/gas_fkcentroid.hpp</text>
</a>
</g>
</g>
<!-- Node33&#45;&gt;Node43 -->
<g id="edge15" class="edge"><title>Node33&#45;&gt;Node43</title>
<path fill="none" stroke="midnightblue" d="M1428.46,-50.1008C1416.04,-40.3824 1400.26,-28.0269 1389.79,-19.8339"/>
<polygon fill="midnightblue" stroke="midnightblue" points="1426.38,-52.9171 1436.41,-56.324 1430.7,-47.4046 1426.38,-52.9171"/>
</g>
<!-- Node44 -->
<g id="node17" class="node"><title>Node44</title>
<g id="a_node17"><a xlink:href="gca__fkmedoid_8hpp.html" target="_top" xlink:title="GCA . ">
<polygon fill="white" stroke="black" points="1457,-0.5 1457,-19.5 1576,-19.5 1576,-0.5 1457,-0.5"/>
<text text-anchor="middle" x="1516.5" y="-7.5" font-family="Helvetica,sans-Serif" font-size="10.00">eac/gca_fkmedoid.hpp</text>
</a>
</g>
</g>
<!-- Node33&#45;&gt;Node44 -->
<g id="edge16" class="edge"><title>Node33&#45;&gt;Node44</title>
<path fill="none" stroke="midnightblue" d="M1466.54,-50.1008C1478.96,-40.3824 1494.74,-28.0269 1505.21,-19.8339"/>
<polygon fill="midnightblue" stroke="midnightblue" points="1464.3,-47.4046 1458.59,-56.324 1468.62,-52.9171 1464.3,-47.4046"/>
</g>
<!-- Node45 -->
<g id="node18" class="node"><title>Node45</title>
<g id="a_node18"><a xlink:href="gcuk__vkcentroid_8hpp.html" target="_top" xlink:title="GCUK . ">
<polygon fill="white" stroke="black" points="1594.5,-0.5 1594.5,-19.5 1722.5,-19.5 1722.5,-0.5 1594.5,-0.5"/>
<text text-anchor="middle" x="1658.5" y="-7.5" font-family="Helvetica,sans-Serif" font-size="10.00">eac/gcuk_vkcentroid.hpp</text>
</a>
</g>
</g>
<!-- Node33&#45;&gt;Node45 -->
<g id="edge17" class="edge"><title>Node33&#45;&gt;Node45</title>
<path fill="none" stroke="midnightblue" d="M1490.64,-53.959C1530.49,-43.7598 1588.86,-28.8217 1625.22,-19.5164"/>
<polygon fill="midnightblue" stroke="midnightblue" points="1489.75,-50.5734 1480.93,-56.4435 1491.49,-57.3549 1489.75,-50.5734"/>
</g>
<!-- Node46 -->
<g id="node19" class="node"><title>Node46</title>
<g id="a_node19"><a xlink:href="gga__vklabel_8hpp.html" target="_top" xlink:title="GGA . ">
<polygon fill="white" stroke="black" points="1740.5,-0.5 1740.5,-19.5 1850.5,-19.5 1850.5,-0.5 1740.5,-0.5"/>
<text text-anchor="middle" x="1795.5" y="-7.5" font-family="Helvetica,sans-Serif" font-size="10.00">eac/gga_vklabel.hpp</text>
</a>
</g>
</g>
<!-- Node33&#45;&gt;Node46 -->
<g id="edge18" class="edge"><title>Node33&#45;&gt;Node46</title>
<path fill="none" stroke="midnightblue" d="M1502.35,-56.4884C1567.47,-46.3837 1675.43,-29.6319 1740.58,-19.5225"/>
<polygon fill="midnightblue" stroke="midnightblue" points="1501.63,-53.0589 1492.28,-58.051 1502.7,-59.9761 1501.63,-53.0589"/>
</g>
<!-- Node47 -->
<g id="node20" class="node"><title>Node47</title>
<g id="a_node20"><a xlink:href="gka__fklabel_8hpp.html" target="_top" xlink:title="GKA Clustering . ">
<polygon fill="white" stroke="black" points="0,-0.5 0,-19.5 107,-19.5 107,-0.5 0,-0.5"/>
<text text-anchor="middle" x="53.5" y="-7.5" font-family="Helvetica,sans-Serif" font-size="10.00">eac/gka_fklabel.hpp</text>
</a>
</g>
</g>
<!-- Node33&#45;&gt;Node47 -->
<g id="edge19" class="edge"><title>Node33&#45;&gt;Node47</title>
<path fill="none" stroke="midnightblue" d="M1392.79,-62.8201C1345.17,-60.9425 1274.27,-58.1964 1212.5,-56 724.99,-38.6656 601.41,-63.1057 115.5,-20 112.791,-19.7597 110.021,-19.4805 107.226,-19.1724"/>
<polygon fill="midnightblue" stroke="midnightblue" points="1392.76,-66.3213 1402.89,-63.2188 1393.03,-59.3268 1392.76,-66.3213"/>
</g>
<!-- Node48 -->
<g id="node21" class="node"><title>Node48</title>
<g id="a_node21"><a xlink:href="hka__fkmedoid_8hpp.html" target="_top" xlink:title="HKA . ">
<polygon fill="white" stroke="black" points="1869,-0.5 1869,-19.5 1988,-19.5 1988,-0.5 1869,-0.5"/>
<text text-anchor="middle" x="1928.5" y="-7.5" font-family="Helvetica,sans-Serif" font-size="10.00">eac/hka_fkmedoid.hpp</text>
</a>
</g>
</g>
<!-- Node33&#45;&gt;Node48 -->
<g id="edge20" class="edge"><title>Node33&#45;&gt;Node48</title>
<path fill="none" stroke="midnightblue" d="M1502.24,-59.3894C1581.2,-51.2118 1731.64,-35.3192 1859.5,-20 1862.5,-19.6407 1865.57,-19.2658 1868.67,-18.8816"/>
<polygon fill="midnightblue" stroke="midnightblue" points="1501.63,-55.9336 1492.04,-60.4435 1502.35,-62.8964 1501.63,-55.9336"/>
</g>
<!-- Node49 -->
<g id="node22" class="node"><title>Node49</title>
<g id="a_node22"><a xlink:href="igka__fklabel_8hpp.html" target="_top" xlink:title="IGKA &#160;and FGKA . ">
<polygon fill="white" stroke="black" points="2006,-0.5 2006,-19.5 2115,-19.5 2115,-0.5 2006,-0.5"/>
<text text-anchor="middle" x="2060.5" y="-7.5" font-family="Helvetica,sans-Serif" font-size="10.00">eac/igka_fklabel.hpp</text>
</a>
</g>
</g>
<!-- Node33&#45;&gt;Node49 -->
<g id="edge21" class="edge"><title>Node33&#45;&gt;Node49</title>
<path fill="none" stroke="midnightblue" d="M1502.11,-61.576C1600.92,-55.1465 1815.89,-40.0843 1996.5,-20 1999.51,-19.6652 2002.6,-19.3009 2005.71,-18.917"/>
<polygon fill="midnightblue" stroke="midnightblue" points="1501.81,-58.0876 1492.06,-62.2261 1502.27,-65.073 1501.81,-58.0876"/>
</g>
<!-- Node50 -->
<g id="node23" class="node"><title>Node50</title>
<g id="a_node23"><a xlink:href="kga__fkcentroid_8hpp.html" target="_top" xlink:title="KGA . ">
<polygon fill="white" stroke="black" points="2133,-0.5 2133,-19.5 2254,-19.5 2254,-0.5 2133,-0.5"/>
<text text-anchor="middle" x="2193.5" y="-7.5" font-family="Helvetica,sans-Serif" font-size="10.00">eac/kga_fkcentroid.hpp</text>
</a>
</g>
</g>
<!-- Node33&#45;&gt;Node50 -->
<g id="edge22" class="edge"><title>Node33&#45;&gt;Node50</title>
<path fill="none" stroke="midnightblue" d="M1502.34,-62.5347C1617.68,-57.0898 1893.78,-42.6917 2124.5,-20 2127.27,-19.728 2130.09,-19.4323 2132.94,-19.1192"/>
<polygon fill="midnightblue" stroke="midnightblue" points="1502.16,-59.0389 1492.34,-63.0032 1502.49,-66.0312 1502.16,-59.0389"/>
</g>
<!-- Node51 -->
<g id="node24" class="node"><title>Node51</title>
<g id="a_node24"><a xlink:href="main__gas__clustering_8cpp.html" target="_top" xlink:title="Main program of Evolutionary Algorithms. ">
<polygon fill="white" stroke="black" points="2272,-0.5 2272,-19.5 2419,-19.5 2419,-0.5 2272,-0.5"/>
<text text-anchor="middle" x="2345.5" y="-7.5" font-family="Helvetica,sans-Serif" font-size="10.00">eac/main_gas_clustering.cpp</text>
</a>
</g>
</g>
<!-- Node33&#45;&gt;Node51 -->
<g id="edge23" class="edge"><title>Node33&#45;&gt;Node51</title>
<path fill="none" stroke="midnightblue" d="M1502.45,-62.9996C1634.02,-57.9849 1977.48,-43.5652 2263.5,-20 2266.21,-19.7766 2268.97,-19.5367 2271.76,-19.2841"/>
<polygon fill="midnightblue" stroke="midnightblue" points="1502.09,-59.5105 1492.23,-63.3863 1502.35,-66.5055 1502.09,-59.5105"/>
</g>
<!-- Node52 -->
<g id="node25" class="node"><title>Node52</title>
<g id="a_node25"><a xlink:href="tgca__vkcentroid_8hpp.html" target="_top" xlink:title="TGCA . ">
<polygon fill="white" stroke="black" points="2437.5,-0.5 2437.5,-19.5 2563.5,-19.5 2563.5,-0.5 2437.5,-0.5"/>
<text text-anchor="middle" x="2500.5" y="-7.5" font-family="Helvetica,sans-Serif" font-size="10.00">eac/tgca_vkcentroid.hpp</text>
</a>
</g>
</g>
<!-- Node33&#45;&gt;Node52 -->
<g id="edge24" class="edge"><title>Node33&#45;&gt;Node52</title>
<path fill="none" stroke="midnightblue" d="M1502.32,-63.9943C1651.36,-60.9339 2076.39,-50.036 2428.5,-20 2431.39,-19.7537 2434.34,-19.4791 2437.31,-19.1831"/>
<polygon fill="midnightblue" stroke="midnightblue" points="1502,-60.5 1492.07,-64.2012 1502.14,-67.4986 1502,-60.5"/>
</g>
<!-- Node53&#45;&gt;Node31 -->
<g id="edge26" class="edge"><title>Node53&#45;&gt;Node31</title>
<path fill="none" stroke="midnightblue" d="M1261.82,-243.228C1229.15,-232.713 1187.93,-219.451 1157.25,-209.577"/>
<polygon fill="midnightblue" stroke="midnightblue" points="1261.08,-246.665 1271.67,-246.396 1263.22,-240.001 1261.08,-246.665"/>
</g>
<!-- Node53&#45;&gt;Node33 -->
<g id="edge35" class="edge"><title>Node53&#45;&gt;Node33</title>
<path fill="none" stroke="midnightblue" d="M1330.91,-237.911C1360.11,-195.101 1422.32,-103.905 1441.65,-75.5769"/>
<polygon fill="midnightblue" stroke="midnightblue" points="1327.95,-236.038 1325.21,-246.271 1333.73,-239.983 1327.95,-236.038"/>
</g>
<!-- Node54 -->
<g id="node27" class="node"><title>Node54</title>
<g id="a_node27"><a xlink:href="chromosome__igka_8hpp.html" target="_top" xlink:title="chromosome IGKA &#160;and &#160;">
<polygon fill="white" stroke="black" points="1265,-112.5 1265,-142.5 1376,-142.5 1376,-112.5 1265,-112.5"/>
<text text-anchor="start" x="1273" y="-130.5" font-family="Helvetica,sans-Serif" font-size="10.00">include/chromosome</text>
<text text-anchor="middle" x="1320.5" y="-119.5" font-family="Helvetica,sans-Serif" font-size="10.00">_igka.hpp</text>
</a>
</g>
</g>
<!-- Node53&#45;&gt;Node54 -->
<g id="edge27" class="edge"><title>Node53&#45;&gt;Node54</title>
<path fill="none" stroke="midnightblue" d="M1316.43,-236.024C1317.47,-208.512 1319.13,-164.789 1319.97,-142.525"/>
<polygon fill="midnightblue" stroke="midnightblue" points="1312.92,-236.248 1316.04,-246.374 1319.91,-236.513 1312.92,-236.248"/>
</g>
<!-- Node53&#45;&gt;Node55 -->
<g id="edge29" class="edge"><title>Node53&#45;&gt;Node55</title>
<path fill="none" stroke="midnightblue" d="M1353.37,-241.853C1374.24,-231.576 1399.73,-219.025 1418.91,-209.577"/>
<polygon fill="midnightblue" stroke="midnightblue" points="1351.57,-238.838 1344.14,-246.396 1354.66,-245.118 1351.57,-238.838"/>
</g>
<!-- Node56 -->
<g id="node29" class="node"><title>Node56</title>
<g id="a_node29"><a xlink:href="ga__integer__operator_8hpp.html" target="_top" xlink:title="genetic integer operators ">
<polygon fill="white" stroke="black" points="1187.5,-179.5 1187.5,-209.5 1287.5,-209.5 1287.5,-179.5 1187.5,-179.5"/>
<text text-anchor="start" x="1195.5" y="-197.5" font-family="Helvetica,sans-Serif" font-size="10.00">include/ga_integer</text>
<text text-anchor="middle" x="1237.5" y="-186.5" font-family="Helvetica,sans-Serif" font-size="10.00">_operator.hpp</text>
</a>
</g>
</g>
<!-- Node53&#45;&gt;Node56 -->
<g id="edge31" class="edge"><title>Node53&#45;&gt;Node56</title>
<path fill="none" stroke="midnightblue" d="M1290.76,-239.883C1278.91,-230.005 1265.02,-218.429 1254.39,-209.577"/>
<polygon fill="midnightblue" stroke="midnightblue" points="1288.65,-242.683 1298.58,-246.396 1293.13,-237.305 1288.65,-242.683"/>
</g>
<!-- Node54&#45;&gt;Node33 -->
<g id="edge28" class="edge"><title>Node54&#45;&gt;Node33</title>
<path fill="none" stroke="midnightblue" d="M1359.81,-108.084C1382.88,-97.2763 1410.95,-84.1219 1429.02,-75.6578"/>
<polygon fill="midnightblue" stroke="midnightblue" points="1358.17,-104.987 1350.6,-112.399 1361.14,-111.326 1358.17,-104.987"/>
</g>
<!-- Node55&#45;&gt;Node33 -->
<g id="edge30" class="edge"><title>Node55&#45;&gt;Node33</title>
<path fill="none" stroke="midnightblue" d="M1447.5,-169.135C1447.5,-140.615 1447.5,-94.8598 1447.5,-75.7885"/>
<polygon fill="midnightblue" stroke="midnightblue" points="1444,-169.479 1447.5,-179.479 1451,-169.479 1444,-169.479"/>
</g>
<!-- Node56&#45;&gt;Node32 -->
<g id="edge32" class="edge"><title>Node56&#45;&gt;Node32</title>
<path fill="none" stroke="midnightblue" d="M1201.95,-174.714C1182.55,-164.463 1158.94,-151.983 1141.14,-142.577"/>
<polygon fill="midnightblue" stroke="midnightblue" points="1200.33,-177.818 1210.81,-179.396 1203.6,-171.629 1200.33,-177.818"/>
</g>
<!-- Node56&#45;&gt;Node33 -->
<g id="edge33" class="edge"><title>Node56&#45;&gt;Node33</title>
<path fill="none" stroke="midnightblue" d="M1236.39,-169.169C1236.94,-151.037 1240.76,-126.929 1255.5,-112 1275.76,-91.4733 1352.53,-78.4727 1402.64,-71.9836"/>
<polygon fill="midnightblue" stroke="midnightblue" points="1232.89,-169.298 1236.41,-179.294 1239.89,-169.29 1232.89,-169.298"/>
</g>
<!-- Node56&#45;&gt;Node47 -->
<g id="edge34" class="edge"><title>Node56&#45;&gt;Node47</title>
<path fill="none" stroke="midnightblue" d="M1227.67,-170.079C1218.3,-150.936 1202.23,-124.99 1179.5,-112 973.457,5.7727 351.254,-47.2803 115.5,-20 112.799,-19.6874 110.034,-19.3501 107.244,-18.9958"/>
<polygon fill="midnightblue" stroke="midnightblue" points="1224.59,-171.755 1231.96,-179.364 1230.94,-168.819 1224.59,-171.755"/>
</g>
<!-- Node58 -->
<g id="node31" class="node"><title>Node58</title>
<g id="a_node31"><a xlink:href="unsupervised__measures_8hpp.html" target="_top" xlink:title="Unsupervised measures. ">
<polygon fill="white" stroke="black" points="1019.5,-380.5 1019.5,-410.5 1131.5,-410.5 1131.5,-380.5 1019.5,-380.5"/>
<text text-anchor="start" x="1027.5" y="-398.5" font-family="Helvetica,sans-Serif" font-size="10.00">include/unsupervised</text>
<text text-anchor="middle" x="1075.5" y="-387.5" font-family="Helvetica,sans-Serif" font-size="10.00">_measures.hpp</text>
</a>
</g>
</g>
<!-- Node57&#45;&gt;Node58 -->
<g id="edge37" class="edge"><title>Node57&#45;&gt;Node58</title>
<path fill="none" stroke="midnightblue" d="M1138.43,-441.451C1124.43,-431.452 1107.84,-419.6 1095.21,-410.577"/>
<polygon fill="midnightblue" stroke="midnightblue" points="1136.58,-444.432 1146.75,-447.396 1140.65,-438.735 1136.58,-444.432"/>
</g>
<!-- Node58&#45;&gt;Node33 -->
<g id="edge43" class="edge"><title>Node58&#45;&gt;Node33</title>
<path fill="none" stroke="midnightblue" d="M1061.58,-371.529C1056.91,-363.097 1052.01,-353.329 1048.5,-344 1035.4,-309.191 1029.5,-299.694 1029.5,-262.5 1029.5,-262.5 1029.5,-262.5 1029.5,-193.5 1029.5,-156.203 1021.49,-136.631 1049.5,-112 1075.64,-89.0095 1304.41,-74.452 1402.81,-69.2019"/>
<polygon fill="midnightblue" stroke="midnightblue" points="1058.65,-373.454 1066.66,-380.387 1064.72,-369.971 1058.65,-373.454"/>
</g>
<!-- Node59 -->
<g id="node32" class="node"><title>Node59</title>
<g id="a_node32"><a xlink:href="nearestcentroids__operator_8hpp.html" target="_top" xlink:title="nearest centroids operator ">
<polygon fill="white" stroke="black" points="1058,-313.5 1058,-343.5 1185,-343.5 1185,-313.5 1058,-313.5"/>
<text text-anchor="start" x="1066" y="-331.5" font-family="Helvetica,sans-Serif" font-size="10.00">include/nearestcentroids</text>
<text text-anchor="middle" x="1121.5" y="-320.5" font-family="Helvetica,sans-Serif" font-size="10.00">_operator.hpp</text>
</a>
</g>
</g>
<!-- Node58&#45;&gt;Node59 -->
<g id="edge38" class="edge"><title>Node58&#45;&gt;Node59</title>
<path fill="none" stroke="midnightblue" d="M1091.31,-372.157C1098.02,-362.679 1105.63,-351.919 1111.54,-343.577"/>
<polygon fill="midnightblue" stroke="midnightblue" points="1088.4,-370.211 1085.48,-380.396 1094.12,-374.255 1088.4,-370.211"/>
</g>
<!-- Node60 -->
<g id="node33" class="node"><title>Node60</title>
<g id="a_node33"><a xlink:href="ga__function__objective__sse_8hpp.html" target="_top" xlink:title="function objective SSE ">
<polygon fill="white" stroke="black" points="898,-246.5 898,-276.5 1001,-276.5 1001,-246.5 898,-246.5"/>
<text text-anchor="start" x="906" y="-264.5" font-family="Helvetica,sans-Serif" font-size="10.00">include/ga_function</text>
<text text-anchor="middle" x="949.5" y="-253.5" font-family="Helvetica,sans-Serif" font-size="10.00">_objective_sse.hpp</text>
</a>
</g>
</g>
<!-- Node58&#45;&gt;Node60 -->
<g id="edge41" class="edge"><title>Node58&#45;&gt;Node60</title>
<path fill="none" stroke="midnightblue" d="M1048.96,-373.995C1038.17,-365.197 1025.83,-354.532 1015.5,-344 993.949,-322.037 972.089,-293.554 959.72,-276.731"/>
<polygon fill="midnightblue" stroke="midnightblue" points="1046.87,-376.8 1056.86,-380.326 1051.25,-371.339 1046.87,-376.8"/>
</g>
<!-- Node59&#45;&gt;Node31 -->
<g id="edge39" class="edge"><title>Node59&#45;&gt;Node31</title>
<path fill="none" stroke="midnightblue" d="M1120.04,-303.39C1118.37,-275.901 1115.71,-231.888 1114.35,-209.525"/>
<polygon fill="midnightblue" stroke="midnightblue" points="1116.55,-303.604 1120.64,-313.374 1123.53,-303.18 1116.55,-303.604"/>
</g>
<!-- Node59&#45;&gt;Node53 -->
<g id="edge40" class="edge"><title>Node59&#45;&gt;Node53</title>
<path fill="none" stroke="midnightblue" d="M1173.46,-310.092C1204.77,-299.599 1244.14,-286.408 1273.49,-276.577"/>
<polygon fill="midnightblue" stroke="midnightblue" points="1171.97,-306.9 1163.6,-313.396 1174.19,-313.538 1171.97,-306.9"/>
</g>
<!-- Node60&#45;&gt;Node33 -->
<g id="edge42" class="edge"><title>Node60&#45;&gt;Node33</title>
<path fill="none" stroke="midnightblue" d="M952.765,-236.142C958.712,-202.228 974.716,-141.622 1015.5,-112 1046.39,-89.566 1298.71,-74.4665 1402.83,-69.1352"/>
<polygon fill="midnightblue" stroke="midnightblue" points="949.289,-235.715 951.168,-246.142 956.201,-236.818 949.289,-235.715"/>
</g>
<!-- Node61&#45;&gt;Node33 -->
<g id="edge45" class="edge"><title>Node61&#45;&gt;Node33</title>
<path fill="none" stroke="midnightblue" d="M1466.59,-371.954C1494.04,-332.892 1542.84,-249.996 1521.5,-179 1508.42,-135.477 1472.33,-93.2747 1455.87,-75.6335"/>
<polygon fill="midnightblue" stroke="midnightblue" points="1463.45,-370.317 1460.44,-380.475 1469.13,-374.411 1463.45,-370.317"/>
</g>
<!-- Node62&#45;&gt;Node33 -->
<g id="edge52" class="edge"><title>Node62&#45;&gt;Node33</title>
<path fill="none" stroke="midnightblue" d="M1636.29,-308.874C1630.48,-267.943 1611.22,-169.252 1555.5,-112 1537.37,-93.3673 1510.37,-82.1173 1487.9,-75.5255"/>
<polygon fill="midnightblue" stroke="midnightblue" points="1632.82,-309.343 1637.59,-318.805 1639.76,-308.436 1632.82,-309.343"/>
</g>
<!-- Node62&#45;&gt;Node53 -->
<g id="edge49" class="edge"><title>Node62&#45;&gt;Node53</title>
<path fill="none" stroke="midnightblue" d="M1586.06,-316.946C1529.06,-305.476 1438.04,-287.16 1377.53,-274.983"/>
<polygon fill="midnightblue" stroke="midnightblue" points="1585.45,-320.394 1595.94,-318.936 1586.83,-313.531 1585.45,-320.394"/>
</g>
<!-- Node63 -->
<g id="node36" class="node"><title>Node63</title>
<g id="a_node36"><a xlink:href="clustering__operator__label_8hpp.html" target="_top" xlink:title="clustering operator label ">
<polygon fill="white" stroke="black" points="1607.5,-112.5 1607.5,-142.5 1711.5,-142.5 1711.5,-112.5 1607.5,-112.5"/>
<text text-anchor="start" x="1615.5" y="-130.5" font-family="Helvetica,sans-Serif" font-size="10.00">include/clustering</text>
<text text-anchor="middle" x="1659.5" y="-119.5" font-family="Helvetica,sans-Serif" font-size="10.00">_operator_label.hpp</text>
</a>
</g>
</g>
<!-- Node62&#45;&gt;Node63 -->
<g id="edge50" class="edge"><title>Node62&#45;&gt;Node63</title>
<path fill="none" stroke="midnightblue" d="M1640.47,-308.857C1644.64,-269.283 1654.31,-177.64 1658.02,-142.533"/>
<polygon fill="midnightblue" stroke="midnightblue" points="1636.97,-308.637 1639.4,-318.949 1643.93,-309.372 1636.97,-308.637"/>
</g>
<!-- Node63&#45;&gt;Node33 -->
<g id="edge51" class="edge"><title>Node63&#45;&gt;Node33</title>
<path fill="none" stroke="midnightblue" d="M1599.68,-109.71C1559.95,-98.56 1509.46,-84.391 1477.81,-75.5064"/>
<polygon fill="midnightblue" stroke="midnightblue" points="1598.95,-113.142 1609.53,-112.475 1600.85,-106.403 1598.95,-113.142"/>
</g>
<!-- Node64&#45;&gt;Node33 -->
<g id="edge55" class="edge"><title>Node64&#45;&gt;Node33</title>
<path fill="none" stroke="midnightblue" d="M1693.53,-444.742C1710.9,-420.664 1739.5,-374.239 1739.5,-329.5 1739.5,-329.5 1739.5,-329.5 1739.5,-193.5 1739.5,-156.306 1747.65,-137.422 1720.5,-112 1688.2,-81.7528 1560.98,-71.7348 1492.2,-68.4952"/>
<polygon fill="midnightblue" stroke="midnightblue" points="1690.67,-442.717 1687.5,-452.826 1696.28,-446.901 1690.67,-442.717"/>
</g>
<!-- Node65&#45;&gt;Node33 -->
<g id="edge57" class="edge"><title>Node65&#45;&gt;Node33</title>
<path fill="none" stroke="midnightblue" d="M1771.58,-504.408C1776.61,-479.837 1784.5,-435.142 1784.5,-396.5 1784.5,-396.5 1784.5,-396.5 1784.5,-193.5 1784.5,-153.15 1777.05,-135.852 1744.5,-112 1705.17,-83.176 1564.82,-72.4507 1492.03,-68.7632"/>
<polygon fill="midnightblue" stroke="midnightblue" points="1768.1,-503.955 1769.45,-514.464 1774.95,-505.407 1768.1,-503.955"/>
</g>
</g>
</svg>
        <g id="navigator" transform="translate(0 0)" fill="#404254">
                <rect fill="#f2f5e9" fill-opacity="0.5" stroke="#606060" stroke-width=".5" x="0" y="0" width="60" height="60"/>
                <use id="zoomplus" xlink:href="#zoomPlus" x="17" y="9" onmousedown="handleZoom(evt,'in')"/>
                <use id="zoomminus" xlink:href="#zoomMin" x="42" y="9" onmousedown="handleZoom(evt,'out')"/>
                <use id="reset" xlink:href="#resetDef" x="30" y="36" onmousedown="handleReset()"/>
                <g id="arrowUp" xlink:href="#dirArrow" transform="translate(30 24)" onmousedown="handlePan(0,-1)">
                  <use xlink:href="#rim" fill="#404040">
                        <set attributeName="fill" to="#808080" begin="arrowUp.mouseover" end="arrowUp.mouseout"/>
                  </use>
                  <path fill="none" stroke="white" stroke-width="1.5" d="M0,-3.0v7 M-2.5,-0.5L0,-3.0L2.5,-0.5"/>
                </g>
                <g id="arrowRight" xlink:href="#dirArrow" transform="rotate(90) translate(36 -43)" onmousedown="handlePan(1,0)">
                  <use xlink:href="#rim" fill="#404040">
                        <set attributeName="fill" to="#808080" begin="arrowRight.mouseover" end="arrowRight.mouseout"/>
                  </use>
                  <path fill="none" stroke="white" stroke-width="1.5" d="M0,-3.0v7 M-2.5,-0.5L0,-3.0L2.5,-0.5"/>
                </g>
                <g id="arrowDown" xlink:href="#dirArrow" transform="rotate(180) translate(-30 -48)" onmousedown="handlePan(0,1)">
                  <use xlink:href="#rim" fill="#404040">
                        <set attributeName="fill" to="#808080" begin="arrowDown.mouseover" end="arrowDown.mouseout"/>
                  </use>
                  <path fill="none" stroke="white" stroke-width="1.5" d="M0,-3.0v7 M-2.5,-0.5L0,-3.0L2.5,-0.5"/>
                </g>
                <g id="arrowLeft" xlink:href="#dirArrow" transform="rotate(270) translate(-36 17)" onmousedown="handlePan(-1,0)">
                  <use xlink:href="#rim" fill="#404040">
                        <set attributeName="fill" to="#808080" begin="arrowLeft.mouseover" end="arrowLeft.mouseout"/>
                  </use>
                  <path fill="none" stroke="white" stroke-width="1.5" d="M0,-3.0v7 M-2.5,-0.5L0,-3.0L2.5,-0.5"/>
                </g>
        </g>
        <svg viewBox="0 0 15 15" width="100%" height="30px" preserveAspectRatio="xMaxYMin meet">
         <g id="arrow_out" transform="scale(0.3 0.3)">
          <a xlink:href="nearestinstance__operator_8hpp__dep__incl_org.svg" target="_base">
           <rect id="button" ry="5" rx="5" y="6" x="6" height="38" width="38"
                fill="#f2f5e9" fill-opacity="0.5" stroke="#606060" stroke-width="1.0"/>
           <path id="arrow"
             d="M 11.500037,31.436501 C 11.940474,20.09759 22.043105,11.32322 32.158766,21.979434 L 37.068811,17.246167 C 37.068811,17.246167 37.088388,32 37.088388,32 L 22.160133,31.978069 C 22.160133,31.978069 26.997745,27.140456 26.997745,27.140456 C 18.528582,18.264221 13.291696,25.230495 11.500037,31.436501 z"
             style="fill:#404040;"/>
          </a>
         </g>
        </svg>
</svg>
