<?xml version="1.0" encoding="UTF-8" standalone="no"?>
<!DOCTYPE svg PUBLIC "-//W3C//DTD SVG 1.1//EN"
 "http://www.w3.org/Graphics/SVG/1.1/DTD/svg11.dtd">
<!-- Generated by graphviz version 2.38.0 (20140413.2041)
 -->
<!-- Title: include/nearestcentroids_operator.hpp Pages: 1 -->
<!--zoomable 352 -->
<svg id="main" version="1.1" xmlns="http://www.w3.org/2000/svg" xmlns:xlink="http://www.w3.org/1999/xlink" xml:space="preserve" onload="init(evt)">
<style type="text/css"><![CDATA[
.edge:hover path { stroke: red; }
.edge:hover polygon { stroke: red; fill: red; }
]]></style>
<script type="text/javascript"><![CDATA[
var edges = document.getElementsByTagName('g');
if (edges && edges.length) {
  for (var i=0;i<edges.length;i++) {
    if (edges[i].id.substr(0,4)=='edge') {
      edges[i].setAttribute('class','edge');
    }
  }
}
]]></script>
        <defs>
                <circle id="rim" cx="0" cy="0" r="7"/>
                <circle id="rim2" cx="0" cy="0" r="3.5"/>
                <g id="zoomPlus">
                        <use xlink:href="#rim" fill="#404040">
                                <set attributeName="fill" to="#808080" begin="zoomplus.mouseover" end="zoomplus.mouseout"/>
                        </use>
                        <path d="M-4,0h8M0,-4v8" fill="none" stroke="white" stroke-width="1.5" pointer-events="none"/>
                </g>
                <g id="zoomMin">
                        <use xlink:href="#rim" fill="#404040">
                                <set attributeName="fill" to="#808080" begin="zoomminus.mouseover" end="zoomminus.mouseout"/>
                        </use>
                        <path d="M-4,0h8" fill="none" stroke="white" stroke-width="1.5" pointer-events="none"/>
                </g>
                <g id="dirArrow">
                        <path fill="none" stroke="white" stroke-width="1.5" d="M0,-3.0v7 M-2.5,-0.5L0,-3.0L2.5,-0.5"/>
                </g>
               <g id="resetDef">
                       <use xlink:href="#rim2" fill="#404040">
                               <set attributeName="fill" to="#808080" begin="reset.mouseover" end="reset.mouseout"/>
                       </use>
               </g>
        </defs>

<script type="text/javascript">
var viewWidth = 2844;
var viewHeight = 352;
var sectionId = 'dynsection-1';
</script>
<script xlink:href="svgpan.js"/>
<svg id="graph" class="graph">
<g id="viewport">
<title>include/nearestcentroids_operator.hpp</title>
<polygon fill="white" stroke="none" points="-4,4 -4,-348 2839.5,-348 2839.5,4 -4,4"/>
<!-- Node59 -->
<g id="node1" class="node"><title>Node59</title>
<polygon fill="#bfbfbf" stroke="black" points="1297,-313.5 1297,-343.5 1424,-343.5 1424,-313.5 1297,-313.5"/>
<text text-anchor="start" x="1305" y="-331.5" font-family="Helvetica,sans-Serif" font-size="10.00">include/nearestcentroids</text>
<text text-anchor="middle" x="1360.5" y="-320.5" font-family="Helvetica,sans-Serif" font-size="10.00">_operator.hpp</text>
</g>
<!-- Node60 -->
<g id="node2" class="node"><title>Node60</title>
<g id="a_node2"><a xlink:href="chromosome__cbga_8hpp.html" target="_top" xlink:title="chromosome CBGA ">
<polygon fill="white" stroke="black" points="1260,-179.5 1260,-209.5 1371,-209.5 1371,-179.5 1260,-179.5"/>
<text text-anchor="start" x="1268" y="-197.5" font-family="Helvetica,sans-Serif" font-size="10.00">include/chromosome</text>
<text text-anchor="middle" x="1315.5" y="-186.5" font-family="Helvetica,sans-Serif" font-size="10.00">_cbga.hpp</text>
</a>
</g>
</g>
<!-- Node59&#45;&gt;Node60 -->
<g id="edge1" class="edge"><title>Node59&#45;&gt;Node60</title>
<path fill="none" stroke="midnightblue" d="M1347.13,-304.475C1342.64,-296.038 1337.91,-286.28 1334.5,-277 1326.08,-254.09 1320.53,-226.151 1317.71,-209.649"/>
<polygon fill="midnightblue" stroke="midnightblue" points="1344.12,-306.273 1352.01,-313.344 1350.25,-302.896 1344.12,-306.273"/>
</g>
<!-- Node82 -->
<g id="node24" class="node"><title>Node82</title>
<g id="a_node24"><a xlink:href="clustering__operator__centroids_8hpp.html" target="_top" xlink:title="clustering operator centroids ">
<polygon fill="white" stroke="black" points="1343.5,-246.5 1343.5,-276.5 1467.5,-276.5 1467.5,-246.5 1343.5,-246.5"/>
<text text-anchor="start" x="1351.5" y="-264.5" font-family="Helvetica,sans-Serif" font-size="10.00">include/clustering</text>
<text text-anchor="middle" x="1405.5" y="-253.5" font-family="Helvetica,sans-Serif" font-size="10.00">_operator_centroids.hpp</text>
</a>
</g>
</g>
<!-- Node59&#45;&gt;Node82 -->
<g id="edge23" class="edge"><title>Node59&#45;&gt;Node82</title>
<path fill="none" stroke="midnightblue" d="M1375.97,-305.157C1382.53,-295.679 1389.98,-284.919 1395.75,-276.577"/>
<polygon fill="midnightblue" stroke="midnightblue" points="1373.08,-303.182 1370.26,-313.396 1378.83,-307.166 1373.08,-303.182"/>
</g>
<!-- Node61 -->
<g id="node3" class="node"><title>Node61</title>
<g id="a_node3"><a xlink:href="ga__clustering__operator_8hpp.html" target="_top" xlink:title="genetic operators oriented to clustering ">
<polygon fill="white" stroke="black" points="1219.5,-112.5 1219.5,-142.5 1331.5,-142.5 1331.5,-112.5 1219.5,-112.5"/>
<text text-anchor="start" x="1227.5" y="-130.5" font-family="Helvetica,sans-Serif" font-size="10.00">include/ga_clustering</text>
<text text-anchor="middle" x="1275.5" y="-119.5" font-family="Helvetica,sans-Serif" font-size="10.00">_operator.hpp</text>
</a>
</g>
</g>
<!-- Node60&#45;&gt;Node61 -->
<g id="edge2" class="edge"><title>Node60&#45;&gt;Node61</title>
<path fill="none" stroke="midnightblue" d="M1301.57,-170.867C1295.78,-161.459 1289.24,-150.833 1284.16,-142.577"/>
<polygon fill="midnightblue" stroke="midnightblue" points="1298.6,-172.714 1306.82,-179.396 1304.56,-169.045 1298.6,-172.714"/>
</g>
<!-- Node62 -->
<g id="node4" class="node"><title>Node62</title>
<g id="a_node4"><a xlink:href="leac_8hpp.html" target="_top" xlink:title="LEAC. ">
<polygon fill="white" stroke="black" points="1403,-56.5 1403,-75.5 1492,-75.5 1492,-56.5 1403,-56.5"/>
<text text-anchor="middle" x="1447.5" y="-63.5" font-family="Helvetica,sans-Serif" font-size="10.00">include/leac.hpp</text>
</a>
</g>
</g>
<!-- Node61&#45;&gt;Node62 -->
<g id="edge3" class="edge"><title>Node61&#45;&gt;Node62</title>
<path fill="none" stroke="midnightblue" d="M1325.87,-109.076C1357.73,-98.0543 1397.51,-84.2914 1422.72,-75.5709"/>
<polygon fill="midnightblue" stroke="midnightblue" points="1324.57,-105.822 1316.26,-112.399 1326.86,-112.438 1324.57,-105.822"/>
</g>
<!-- Node63 -->
<g id="node5" class="node"><title>Node63</title>
<g id="a_node5"><a xlink:href="cbga__fkcentroid_8hpp.html" target="_top" xlink:title="CBGA . ">
<polygon fill="white" stroke="black" points="2581.5,-0.5 2581.5,-19.5 2707.5,-19.5 2707.5,-0.5 2581.5,-0.5"/>
<text text-anchor="middle" x="2644.5" y="-7.5" font-family="Helvetica,sans-Serif" font-size="10.00">eac/cbga_fkcentroid.hpp</text>
</a>
</g>
</g>
<!-- Node62&#45;&gt;Node63 -->
<g id="edge4" class="edge"><title>Node62&#45;&gt;Node63</title>
<path fill="none" stroke="midnightblue" d="M1502.33,-64.4447C1665.5,-62.4401 2162.18,-53.7906 2572.5,-20 2575.39,-19.7622 2578.34,-19.4945 2581.32,-19.2041"/>
<polygon fill="midnightblue" stroke="midnightblue" points="1502.02,-60.948 1492.07,-64.5673 1502.11,-67.9475 1502.02,-60.948"/>
</g>
<!-- Node64 -->
<g id="node6" class="node"><title>Node64</title>
<g id="a_node6"><a xlink:href="cga__vklabel_8hpp.html" target="_top" xlink:title="CGA &#160;&#160;. ">
<polygon fill="white" stroke="black" points="2725.5,-0.5 2725.5,-19.5 2835.5,-19.5 2835.5,-0.5 2725.5,-0.5"/>
<text text-anchor="middle" x="2780.5" y="-7.5" font-family="Helvetica,sans-Serif" font-size="10.00">eac/cga_vklabel.hpp</text>
</a>
</g>
</g>
<!-- Node62&#45;&gt;Node64 -->
<g id="edge5" class="edge"><title>Node62&#45;&gt;Node64</title>
<path fill="none" stroke="midnightblue" d="M1502.36,-65.0946C1678.87,-64.963 2247.92,-61.1426 2716.5,-20 2719.41,-19.7448 2722.38,-19.4487 2725.38,-19.1225"/>
<polygon fill="midnightblue" stroke="midnightblue" points="1502.28,-61.5946 1492.28,-65.0984 1502.28,-68.5946 1502.28,-61.5946"/>
</g>
<!-- Node65 -->
<g id="node7" class="node"><title>Node65</title>
<g id="a_node7"><a xlink:href="clustering__vksubclusterbinary_8hpp.html" target="_top" xlink:title="CLUSTERING . ">
<polygon fill="white" stroke="black" points="125,-0.5 125,-19.5 310,-19.5 310,-0.5 125,-0.5"/>
<text text-anchor="middle" x="217.5" y="-7.5" font-family="Helvetica,sans-Serif" font-size="10.00">eac/clustering_vksubclusterbinary.hpp</text>
</a>
</g>
</g>
<!-- Node62&#45;&gt;Node65 -->
<g id="edge6" class="edge"><title>Node62&#45;&gt;Node65</title>
<path fill="none" stroke="midnightblue" d="M1392.53,-63.7643C1228.91,-59.881 730.813,-46.5714 318.5,-20 315.777,-19.8245 313.013,-19.6373 310.224,-19.4404"/>
<polygon fill="midnightblue" stroke="midnightblue" points="1392.74,-67.2701 1402.82,-64.0065 1392.9,-60.272 1392.74,-67.2701"/>
</g>
<!-- Node66 -->
<g id="node8" class="node"><title>Node66</title>
<g id="a_node8"><a xlink:href="feac__vklabel_8hpp.html" target="_top" xlink:title="EAC, EACI, EACII, EACIII and FEAC &#160;and . ">
<polygon fill="white" stroke="black" points="327.5,-0.5 327.5,-19.5 439.5,-19.5 439.5,-0.5 327.5,-0.5"/>
<text text-anchor="middle" x="383.5" y="-7.5" font-family="Helvetica,sans-Serif" font-size="10.00">eac/feac_vklabel.hpp</text>
</a>
</g>
</g>
<!-- Node62&#45;&gt;Node66 -->
<g id="edge7" class="edge"><title>Node62&#45;&gt;Node66</title>
<path fill="none" stroke="midnightblue" d="M1392.19,-64.3038C1240.84,-62.0114 807.281,-52.8483 448.5,-20 445.664,-19.7403 442.762,-19.4455 439.833,-19.125"/>
<polygon fill="midnightblue" stroke="midnightblue" points="1392.54,-67.8093 1402.59,-64.4573 1392.65,-60.8101 1392.54,-67.8093"/>
</g>
<!-- Node67 -->
<g id="node9" class="node"><title>Node67</title>
<g id="a_node9"><a xlink:href="gaclustering__fkcrispmatrix_8hpp.html" target="_top" xlink:title="GA CLUSTERING . ">
<polygon fill="white" stroke="black" points="457.5,-0.5 457.5,-19.5 627.5,-19.5 627.5,-0.5 457.5,-0.5"/>
<text text-anchor="middle" x="542.5" y="-7.5" font-family="Helvetica,sans-Serif" font-size="10.00">eac/gaclustering_fkcrispmatrix.hpp</text>
</a>
</g>
</g>
<!-- Node62&#45;&gt;Node67 -->
<g id="edge8" class="edge"><title>Node62&#45;&gt;Node67</title>
<path fill="none" stroke="midnightblue" d="M1392.44,-62.7061C1261.37,-57.0797 920.581,-41.4724 636.5,-20 633.557,-19.7776 630.564,-19.542 627.541,-19.2961"/>
<polygon fill="midnightblue" stroke="midnightblue" points="1392.48,-66.211 1402.62,-63.1412 1392.78,-59.2174 1392.48,-66.211"/>
</g>
<!-- Node68 -->
<g id="node10" class="node"><title>Node68</title>
<g id="a_node10"><a xlink:href="gaclustering__fklabel_8hpp.html" target="_top" xlink:title="GA Clustering . ">
<polygon fill="white" stroke="black" points="645.5,-0.5 645.5,-19.5 789.5,-19.5 789.5,-0.5 645.5,-0.5"/>
<text text-anchor="middle" x="717.5" y="-7.5" font-family="Helvetica,sans-Serif" font-size="10.00">eac/gaclustering_fklabel.hpp</text>
</a>
</g>
</g>
<!-- Node62&#45;&gt;Node68 -->
<g id="edge9" class="edge"><title>Node62&#45;&gt;Node68</title>
<path fill="none" stroke="midnightblue" d="M1392.98,-61.985C1281.32,-55.6409 1018.57,-39.8474 798.5,-20 795.682,-19.7458 792.809,-19.4764 789.908,-19.1958"/>
<polygon fill="midnightblue" stroke="midnightblue" points="1392.81,-65.4808 1402.99,-62.5513 1393.21,-58.4919 1392.81,-65.4808"/>
</g>
<!-- Node69 -->
<g id="node11" class="node"><title>Node69</title>
<g id="a_node11"><a xlink:href="gaclustering__vktreebinary_8hpp.html" target="_top" xlink:title="GA Clustering &#160;x. ">
<polygon fill="white" stroke="black" points="807.5,-0.5 807.5,-19.5 977.5,-19.5 977.5,-0.5 807.5,-0.5"/>
<text text-anchor="middle" x="892.5" y="-7.5" font-family="Helvetica,sans-Serif" font-size="10.00">eac/gaclustering_vktreebinary.hpp</text>
</a>
</g>
</g>
<!-- Node62&#45;&gt;Node69 -->
<g id="edge10" class="edge"><title>Node62&#45;&gt;Node69</title>
<path fill="none" stroke="midnightblue" d="M1392.36,-59.6348C1295.18,-50.1792 1092.82,-30.4903 977.599,-19.2799"/>
<polygon fill="midnightblue" stroke="midnightblue" points="1392.26,-63.1418 1402.55,-60.6267 1392.94,-56.1747 1392.26,-63.1418"/>
</g>
<!-- Node70 -->
<g id="node12" class="node"><title>Node70</title>
<g id="a_node12"><a xlink:href="gagr__fkcentroid_8hpp.html" target="_top" xlink:title="GAGR . ">
<polygon fill="white" stroke="black" points="996,-0.5 996,-19.5 1121,-19.5 1121,-0.5 996,-0.5"/>
<text text-anchor="middle" x="1058.5" y="-7.5" font-family="Helvetica,sans-Serif" font-size="10.00">eac/gagr_fkcentroid.hpp</text>
</a>
</g>
</g>
<!-- Node62&#45;&gt;Node70 -->
<g id="edge11" class="edge"><title>Node62&#45;&gt;Node70</title>
<path fill="none" stroke="midnightblue" d="M1392.67,-57.3881C1320.72,-47.4011 1194.83,-29.9252 1119.81,-19.5108"/>
<polygon fill="midnightblue" stroke="midnightblue" points="1392.49,-60.8972 1402.88,-58.8055 1393.45,-53.9637 1392.49,-60.8972"/>
</g>
<!-- Node71 -->
<g id="node13" class="node"><title>Node71</title>
<g id="a_node13"><a xlink:href="gaprototypes__fkmedoid_8hpp.html" target="_top" xlink:title="GA&#45;Prototypes . ">
<polygon fill="white" stroke="black" points="1139,-0.5 1139,-19.5 1300,-19.5 1300,-0.5 1139,-0.5"/>
<text text-anchor="middle" x="1219.5" y="-7.5" font-family="Helvetica,sans-Serif" font-size="10.00">eac/gaprototypes_fkmedoid.hpp</text>
</a>
</g>
</g>
<!-- Node62&#45;&gt;Node71 -->
<g id="edge12" class="edge"><title>Node62&#45;&gt;Node71</title>
<path fill="none" stroke="midnightblue" d="M1401.43,-54.0884C1358.35,-43.8865 1294.91,-28.8612 1255.46,-19.5164"/>
<polygon fill="midnightblue" stroke="midnightblue" points="1400.84,-57.5446 1411.37,-56.4435 1402.45,-50.733 1400.84,-57.5446"/>
</g>
<!-- Node72 -->
<g id="node14" class="node"><title>Node72</title>
<g id="a_node14"><a xlink:href="gas__fkcentroid_8hpp.html" target="_top" xlink:title="GAS . ">
<polygon fill="white" stroke="black" points="1318,-0.5 1318,-19.5 1439,-19.5 1439,-0.5 1318,-0.5"/>
<text text-anchor="middle" x="1378.5" y="-7.5" font-family="Helvetica,sans-Serif" font-size="10.00">eac/gas_fkcentroid.hpp</text>
</a>
</g>
</g>
<!-- Node62&#45;&gt;Node72 -->
<g id="edge13" class="edge"><title>Node62&#45;&gt;Node72</title>
<path fill="none" stroke="midnightblue" d="M1428.46,-50.1008C1416.04,-40.3824 1400.26,-28.0269 1389.79,-19.8339"/>
<polygon fill="midnightblue" stroke="midnightblue" points="1426.38,-52.9171 1436.41,-56.324 1430.7,-47.4046 1426.38,-52.9171"/>
</g>
<!-- Node73 -->
<g id="node15" class="node"><title>Node73</title>
<g id="a_node15"><a xlink:href="gca__fkmedoid_8hpp.html" target="_top" xlink:title="GCA . ">
<polygon fill="white" stroke="black" points="1457,-0.5 1457,-19.5 1576,-19.5 1576,-0.5 1457,-0.5"/>
<text text-anchor="middle" x="1516.5" y="-7.5" font-family="Helvetica,sans-Serif" font-size="10.00">eac/gca_fkmedoid.hpp</text>
</a>
</g>
</g>
<!-- Node62&#45;&gt;Node73 -->
<g id="edge14" class="edge"><title>Node62&#45;&gt;Node73</title>
<path fill="none" stroke="midnightblue" d="M1466.54,-50.1008C1478.96,-40.3824 1494.74,-28.0269 1505.21,-19.8339"/>
<polygon fill="midnightblue" stroke="midnightblue" points="1464.3,-47.4046 1458.59,-56.324 1468.62,-52.9171 1464.3,-47.4046"/>
</g>
<!-- Node74 -->
<g id="node16" class="node"><title>Node74</title>
<g id="a_node16"><a xlink:href="gcuk__vkcentroid_8hpp.html" target="_top" xlink:title="GCUK . ">
<polygon fill="white" stroke="black" points="1594.5,-0.5 1594.5,-19.5 1722.5,-19.5 1722.5,-0.5 1594.5,-0.5"/>
<text text-anchor="middle" x="1658.5" y="-7.5" font-family="Helvetica,sans-Serif" font-size="10.00">eac/gcuk_vkcentroid.hpp</text>
</a>
</g>
</g>
<!-- Node62&#45;&gt;Node74 -->
<g id="edge15" class="edge"><title>Node62&#45;&gt;Node74</title>
<path fill="none" stroke="midnightblue" d="M1490.64,-53.959C1530.49,-43.7598 1588.86,-28.8217 1625.22,-19.5164"/>
<polygon fill="midnightblue" stroke="midnightblue" points="1489.75,-50.5734 1480.93,-56.4435 1491.49,-57.3549 1489.75,-50.5734"/>
</g>
<!-- Node75 -->
<g id="node17" class="node"><title>Node75</title>
<g id="a_node17"><a xlink:href="gga__vklabel_8hpp.html" target="_top" xlink:title="GGA . ">
<polygon fill="white" stroke="black" points="1740.5,-0.5 1740.5,-19.5 1850.5,-19.5 1850.5,-0.5 1740.5,-0.5"/>
<text text-anchor="middle" x="1795.5" y="-7.5" font-family="Helvetica,sans-Serif" font-size="10.00">eac/gga_vklabel.hpp</text>
</a>
</g>
</g>
<!-- Node62&#45;&gt;Node75 -->
<g id="edge16" class="edge"><title>Node62&#45;&gt;Node75</title>
<path fill="none" stroke="midnightblue" d="M1502.35,-56.4884C1567.47,-46.3837 1675.43,-29.6319 1740.58,-19.5225"/>
<polygon fill="midnightblue" stroke="midnightblue" points="1501.63,-53.0589 1492.28,-58.051 1502.7,-59.9761 1501.63,-53.0589"/>
</g>
<!-- Node76 -->
<g id="node18" class="node"><title>Node76</title>
<g id="a_node18"><a xlink:href="gka__fklabel_8hpp.html" target="_top" xlink:title="GKA Clustering . ">
<polygon fill="white" stroke="black" points="0,-0.5 0,-19.5 107,-19.5 107,-0.5 0,-0.5"/>
<text text-anchor="middle" x="53.5" y="-7.5" font-family="Helvetica,sans-Serif" font-size="10.00">eac/gka_fklabel.hpp</text>
</a>
</g>
</g>
<!-- Node62&#45;&gt;Node76 -->
<g id="edge17" class="edge"><title>Node62&#45;&gt;Node76</title>
<path fill="none" stroke="midnightblue" d="M1392.71,-65.3124C1210.71,-65.8886 609.763,-64.0874 115.5,-20 112.792,-19.7584 110.021,-19.4782 107.226,-19.1692"/>
<polygon fill="midnightblue" stroke="midnightblue" points="1392.85,-68.812 1402.83,-65.2764 1392.82,-61.8121 1392.85,-68.812"/>
</g>
<!-- Node77 -->
<g id="node19" class="node"><title>Node77</title>
<g id="a_node19"><a xlink:href="hka__fkmedoid_8hpp.html" target="_top" xlink:title="HKA . ">
<polygon fill="white" stroke="black" points="1869,-0.5 1869,-19.5 1988,-19.5 1988,-0.5 1869,-0.5"/>
<text text-anchor="middle" x="1928.5" y="-7.5" font-family="Helvetica,sans-Serif" font-size="10.00">eac/hka_fkmedoid.hpp</text>
</a>
</g>
</g>
<!-- Node62&#45;&gt;Node77 -->
<g id="edge18" class="edge"><title>Node62&#45;&gt;Node77</title>
<path fill="none" stroke="midnightblue" d="M1502.24,-59.3894C1581.2,-51.2118 1731.64,-35.3192 1859.5,-20 1862.5,-19.6407 1865.57,-19.2658 1868.67,-18.8816"/>
<polygon fill="midnightblue" stroke="midnightblue" points="1501.63,-55.9336 1492.04,-60.4435 1502.35,-62.8964 1501.63,-55.9336"/>
</g>
<!-- Node78 -->
<g id="node20" class="node"><title>Node78</title>
<g id="a_node20"><a xlink:href="igka__fklabel_8hpp.html" target="_top" xlink:title="IGKA &#160;and FGKA . ">
<polygon fill="white" stroke="black" points="2006,-0.5 2006,-19.5 2115,-19.5 2115,-0.5 2006,-0.5"/>
<text text-anchor="middle" x="2060.5" y="-7.5" font-family="Helvetica,sans-Serif" font-size="10.00">eac/igka_fklabel.hpp</text>
</a>
</g>
</g>
<!-- Node62&#45;&gt;Node78 -->
<g id="edge19" class="edge"><title>Node62&#45;&gt;Node78</title>
<path fill="none" stroke="midnightblue" d="M1502.21,-61.6201C1601.21,-55.2604 1816.58,-40.3052 1997.5,-20 2000.24,-19.6919 2003.05,-19.3582 2005.89,-19.0068"/>
<polygon fill="midnightblue" stroke="midnightblue" points="1501.9,-58.1326 1492.15,-62.2628 1502.35,-65.1184 1501.9,-58.1326"/>
</g>
<!-- Node79 -->
<g id="node21" class="node"><title>Node79</title>
<g id="a_node21"><a xlink:href="kga__fkcentroid_8hpp.html" target="_top" xlink:title="KGA . ">
<polygon fill="white" stroke="black" points="2133,-0.5 2133,-19.5 2254,-19.5 2254,-0.5 2133,-0.5"/>
<text text-anchor="middle" x="2193.5" y="-7.5" font-family="Helvetica,sans-Serif" font-size="10.00">eac/kga_fkcentroid.hpp</text>
</a>
</g>
</g>
<!-- Node62&#45;&gt;Node79 -->
<g id="edge20" class="edge"><title>Node62&#45;&gt;Node79</title>
<path fill="none" stroke="midnightblue" d="M1502.34,-62.5347C1617.68,-57.0898 1893.78,-42.6917 2124.5,-20 2127.27,-19.728 2130.09,-19.4323 2132.94,-19.1192"/>
<polygon fill="midnightblue" stroke="midnightblue" points="1502.16,-59.0389 1492.34,-63.0032 1502.49,-66.0312 1502.16,-59.0389"/>
</g>
<!-- Node80 -->
<g id="node22" class="node"><title>Node80</title>
<g id="a_node22"><a xlink:href="main__gas__clustering_8cpp.html" target="_top" xlink:title="Main program of Evolutionary Algorithms. ">
<polygon fill="white" stroke="black" points="2272,-0.5 2272,-19.5 2419,-19.5 2419,-0.5 2272,-0.5"/>
<text text-anchor="middle" x="2345.5" y="-7.5" font-family="Helvetica,sans-Serif" font-size="10.00">eac/main_gas_clustering.cpp</text>
</a>
</g>
</g>
<!-- Node62&#45;&gt;Node80 -->
<g id="edge21" class="edge"><title>Node62&#45;&gt;Node80</title>
<path fill="none" stroke="midnightblue" d="M1502.45,-62.9996C1634.02,-57.9849 1977.48,-43.5652 2263.5,-20 2266.21,-19.7766 2268.97,-19.5367 2271.76,-19.2841"/>
<polygon fill="midnightblue" stroke="midnightblue" points="1502.09,-59.5105 1492.23,-63.3863 1502.35,-66.5055 1502.09,-59.5105"/>
</g>
<!-- Node81 -->
<g id="node23" class="node"><title>Node81</title>
<g id="a_node23"><a xlink:href="tgca__vkcentroid_8hpp.html" target="_top" xlink:title="TGCA . ">
<polygon fill="white" stroke="black" points="2437.5,-0.5 2437.5,-19.5 2563.5,-19.5 2563.5,-0.5 2437.5,-0.5"/>
<text text-anchor="middle" x="2500.5" y="-7.5" font-family="Helvetica,sans-Serif" font-size="10.00">eac/tgca_vkcentroid.hpp</text>
</a>
</g>
</g>
<!-- Node62&#45;&gt;Node81 -->
<g id="edge22" class="edge"><title>Node62&#45;&gt;Node81</title>
<path fill="none" stroke="midnightblue" d="M1502.32,-63.9943C1651.36,-60.9339 2076.39,-50.036 2428.5,-20 2431.39,-19.7537 2434.34,-19.4791 2437.31,-19.1831"/>
<polygon fill="midnightblue" stroke="midnightblue" points="1502,-60.5 1492.07,-64.2012 1502.14,-67.4986 1502,-60.5"/>
</g>
<!-- Node82&#45;&gt;Node60 -->
<g id="edge24" class="edge"><title>Node82&#45;&gt;Node60</title>
<path fill="none" stroke="midnightblue" d="M1377.74,-240.451C1363.89,-230.452 1347.48,-218.6 1334.99,-209.577"/>
<polygon fill="midnightblue" stroke="midnightblue" points="1375.82,-243.378 1385.97,-246.396 1379.91,-237.704 1375.82,-243.378"/>
</g>
<!-- Node82&#45;&gt;Node62 -->
<g id="edge33" class="edge"><title>Node82&#45;&gt;Node62</title>
<path fill="none" stroke="midnightblue" d="M1422.2,-238.051C1437.93,-215.407 1460.39,-178.771 1469.5,-143 1472.9,-129.648 1472.61,-125.423 1469.5,-112 1466.36,-98.4442 1458.55,-84.255 1453.14,-75.5194"/>
<polygon fill="midnightblue" stroke="midnightblue" points="1419.29,-236.116 1416.34,-246.295 1424.99,-240.172 1419.29,-236.116"/>
</g>
<!-- Node83 -->
<g id="node25" class="node"><title>Node83</title>
<g id="a_node25"><a xlink:href="chromosome__igka_8hpp.html" target="_top" xlink:title="chromosome IGKA &#160;and &#160;">
<polygon fill="white" stroke="black" points="1350,-112.5 1350,-142.5 1461,-142.5 1461,-112.5 1350,-112.5"/>
<text text-anchor="start" x="1358" y="-130.5" font-family="Helvetica,sans-Serif" font-size="10.00">include/chromosome</text>
<text text-anchor="middle" x="1405.5" y="-119.5" font-family="Helvetica,sans-Serif" font-size="10.00">_igka.hpp</text>
</a>
</g>
</g>
<!-- Node82&#45;&gt;Node83 -->
<g id="edge25" class="edge"><title>Node82&#45;&gt;Node83</title>
<path fill="none" stroke="midnightblue" d="M1405.5,-236.024C1405.5,-208.512 1405.5,-164.789 1405.5,-142.525"/>
<polygon fill="midnightblue" stroke="midnightblue" points="1402,-236.374 1405.5,-246.374 1409,-236.374 1402,-236.374"/>
</g>
<!-- Node84 -->
<g id="node26" class="node"><title>Node84</title>
<g id="a_node26"><a xlink:href="clustering__operator__crispmatrix_8hpp.html" target="_top" xlink:title="clustering operator crispmatrix ">
<polygon fill="white" stroke="black" points="1518,-112.5 1518,-142.5 1649,-142.5 1649,-112.5 1518,-112.5"/>
<text text-anchor="start" x="1526" y="-130.5" font-family="Helvetica,sans-Serif" font-size="10.00">include/clustering</text>
<text text-anchor="middle" x="1583.5" y="-119.5" font-family="Helvetica,sans-Serif" font-size="10.00">_operator_crispmatrix.hpp</text>
</a>
</g>
</g>
<!-- Node82&#45;&gt;Node84 -->
<g id="edge27" class="edge"><title>Node82&#45;&gt;Node84</title>
<path fill="none" stroke="midnightblue" d="M1448.8,-241.878C1466.51,-233.341 1486.73,-222.362 1503.5,-210 1530.95,-189.764 1557.63,-159.93 1572.18,-142.53"/>
<polygon fill="midnightblue" stroke="midnightblue" points="1446.81,-238.942 1439.25,-246.363 1449.79,-245.277 1446.81,-238.942"/>
</g>
<!-- Node85 -->
<g id="node27" class="node"><title>Node85</title>
<g id="a_node27"><a xlink:href="ga__integer__operator_8hpp.html" target="_top" xlink:title="genetic integer operators ">
<polygon fill="white" stroke="black" points="1141.5,-179.5 1141.5,-209.5 1241.5,-209.5 1241.5,-179.5 1141.5,-179.5"/>
<text text-anchor="start" x="1149.5" y="-197.5" font-family="Helvetica,sans-Serif" font-size="10.00">include/ga_integer</text>
<text text-anchor="middle" x="1191.5" y="-186.5" font-family="Helvetica,sans-Serif" font-size="10.00">_operator.hpp</text>
</a>
</g>
</g>
<!-- Node82&#45;&gt;Node85 -->
<g id="edge29" class="edge"><title>Node82&#45;&gt;Node85</title>
<path fill="none" stroke="midnightblue" d="M1349.35,-243.444C1314.66,-232.908 1270.68,-219.549 1237.96,-209.611"/>
<polygon fill="midnightblue" stroke="midnightblue" points="1348.74,-246.919 1359.33,-246.476 1350.78,-240.221 1348.74,-246.919"/>
</g>
<!-- Node83&#45;&gt;Node62 -->
<g id="edge26" class="edge"><title>Node83&#45;&gt;Node62</title>
<path fill="none" stroke="midnightblue" d="M1421.31,-104.104C1428.31,-94.1868 1436.13,-83.1062 1441.39,-75.6578"/>
<polygon fill="midnightblue" stroke="midnightblue" points="1418.36,-102.211 1415.45,-112.399 1424.08,-106.248 1418.36,-102.211"/>
</g>
<!-- Node84&#45;&gt;Node62 -->
<g id="edge28" class="edge"><title>Node84&#45;&gt;Node62</title>
<path fill="none" stroke="midnightblue" d="M1542.06,-108.372C1517.24,-97.5105 1486.81,-84.1972 1467.29,-75.6578"/>
<polygon fill="midnightblue" stroke="midnightblue" points="1540.71,-111.598 1551.27,-112.399 1543.51,-105.185 1540.71,-111.598"/>
</g>
<!-- Node85&#45;&gt;Node61 -->
<g id="edge30" class="edge"><title>Node85&#45;&gt;Node61</title>
<path fill="none" stroke="midnightblue" d="M1217.78,-173.168C1230.62,-163.228 1245.76,-151.514 1257.31,-142.577"/>
<polygon fill="midnightblue" stroke="midnightblue" points="1215.49,-170.508 1209.73,-179.396 1219.78,-176.044 1215.49,-170.508"/>
</g>
<!-- Node85&#45;&gt;Node62 -->
<g id="edge31" class="edge"><title>Node85&#45;&gt;Node62</title>
<path fill="none" stroke="midnightblue" d="M1190.54,-169.275C1191.19,-150.997 1195.24,-126.646 1210.5,-112 1237.47,-86.1219 1342.06,-74.4536 1402.91,-69.7604"/>
<polygon fill="midnightblue" stroke="midnightblue" points="1187.04,-169.457 1190.49,-179.472 1194.04,-169.488 1187.04,-169.457"/>
</g>
<!-- Node85&#45;&gt;Node76 -->
<g id="edge32" class="edge"><title>Node85&#45;&gt;Node76</title>
<path fill="none" stroke="midnightblue" d="M1131.12,-183.817C931.532,-151.809 294.978,-49.7257 106.541,-19.5061"/>
<polygon fill="midnightblue" stroke="midnightblue" points="1130.71,-187.295 1141.13,-185.423 1131.81,-180.383 1130.71,-187.295"/>
</g>
</g>
</svg>
        <g id="navigator" transform="translate(0 0)" fill="#404254">
                <rect fill="#f2f5e9" fill-opacity="0.5" stroke="#606060" stroke-width=".5" x="0" y="0" width="60" height="60"/>
                <use id="zoomplus" xlink:href="#zoomPlus" x="17" y="9" onmousedown="handleZoom(evt,'in')"/>
                <use id="zoomminus" xlink:href="#zoomMin" x="42" y="9" onmousedown="handleZoom(evt,'out')"/>
                <use id="reset" xlink:href="#resetDef" x="30" y="36" onmousedown="handleReset()"/>
                <g id="arrowUp" xlink:href="#dirArrow" transform="translate(30 24)" onmousedown="handlePan(0,-1)">
                  <use xlink:href="#rim" fill="#404040">
                        <set attributeName="fill" to="#808080" begin="arrowUp.mouseover" end="arrowUp.mouseout"/>
                  </use>
                  <path fill="none" stroke="white" stroke-width="1.5" d="M0,-3.0v7 M-2.5,-0.5L0,-3.0L2.5,-0.5"/>
                </g>
                <g id="arrowRight" xlink:href="#dirArrow" transform="rotate(90) translate(36 -43)" onmousedown="handlePan(1,0)">
                  <use xlink:href="#rim" fill="#404040">
                        <set attributeName="fill" to="#808080" begin="arrowRight.mouseover" end="arrowRight.mouseout"/>
                  </use>
                  <path fill="none" stroke="white" stroke-width="1.5" d="M0,-3.0v7 M-2.5,-0.5L0,-3.0L2.5,-0.5"/>
                </g>
                <g id="arrowDown" xlink:href="#dirArrow" transform="rotate(180) translate(-30 -48)" onmousedown="handlePan(0,1)">
                  <use xlink:href="#rim" fill="#404040">
                        <set attributeName="fill" to="#808080" begin="arrowDown.mouseover" end="arrowDown.mouseout"/>
                  </use>
                  <path fill="none" stroke="white" stroke-width="1.5" d="M0,-3.0v7 M-2.5,-0.5L0,-3.0L2.5,-0.5"/>
                </g>
                <g id="arrowLeft" xlink:href="#dirArrow" transform="rotate(270) translate(-36 17)" onmousedown="handlePan(-1,0)">
                  <use xlink:href="#rim" fill="#404040">
                        <set attributeName="fill" to="#808080" begin="arrowLeft.mouseover" end="arrowLeft.mouseout"/>
                  </use>
                  <path fill="none" stroke="white" stroke-width="1.5" d="M0,-3.0v7 M-2.5,-0.5L0,-3.0L2.5,-0.5"/>
                </g>
        </g>
        <svg viewBox="0 0 15 15" width="100%" height="30px" preserveAspectRatio="xMaxYMin meet">
         <g id="arrow_out" transform="scale(0.3 0.3)">
          <a xlink:href="nearestcentroids__operator_8hpp__dep__incl_org.svg" target="_base">
           <rect id="button" ry="5" rx="5" y="6" x="6" height="38" width="38"
                fill="#f2f5e9" fill-opacity="0.5" stroke="#606060" stroke-width="1.0"/>
           <path id="arrow"
             d="M 11.500037,31.436501 C 11.940474,20.09759 22.043105,11.32322 32.158766,21.979434 L 37.068811,17.246167 C 37.068811,17.246167 37.088388,32 37.088388,32 L 22.160133,31.978069 C 22.160133,31.978069 26.997745,27.140456 26.997745,27.140456 C 18.528582,18.264221 13.291696,25.230495 11.500037,31.436501 z"
             style="fill:#404040;"/>
          </a>
         </g>
        </svg>
</svg>
