<?xml version="1.0" encoding="UTF-8" standalone="no"?>
<!DOCTYPE svg PUBLIC "-//W3C//DTD SVG 1.1//EN"
 "http://www.w3.org/Graphics/SVG/1.1/DTD/svg11.dtd">
<!-- Generated by graphviz version 2.38.0 (20140413.2041)
 -->
<!-- Title: include_inout/outparam_clustering.hpp Pages: 1 -->
<svg width="364pt" height="151pt"
 viewBox="0.00 0.00 364.00 151.00" xmlns="http://www.w3.org/2000/svg" xmlns:xlink="http://www.w3.org/1999/xlink">
<g id="graph0" class="graph" transform="scale(1 1) rotate(0) translate(4 147)">
<title>include_inout/outparam_clustering.hpp</title>
<polygon fill="white" stroke="none" points="-4,4 -4,-147 360,-147 360,4 -4,4"/>
<!-- Node0 -->
<g id="node1" class="node"><title>Node0</title>
<polygon fill="#bfbfbf" stroke="black" points="50,-112.5 50,-142.5 170,-142.5 170,-112.5 50,-112.5"/>
<text text-anchor="start" x="58" y="-130.5" font-family="Helvetica,sans-Serif" font-size="10.00">include_inout/outparam</text>
<text text-anchor="middle" x="110" y="-119.5" font-family="Helvetica,sans-Serif" font-size="10.00">_clustering.hpp</text>
</g>
<!-- Node1 -->
<g id="node2" class="node"><title>Node1</title>
<polygon fill="white" stroke="#bfbfbf" points="0,-0.5 0,-19.5 56,-19.5 56,-0.5 0,-0.5"/>
<text text-anchor="middle" x="28" y="-7.5" font-family="Helvetica,sans-Serif" font-size="10.00">iostream</text>
</g>
<!-- Node0&#45;&gt;Node1 -->
<g id="edge1" class="edge"><title>Node0&#45;&gt;Node1</title>
<path fill="none" stroke="midnightblue" d="M64.8154,-112.339C47.649,-104.509 29.8681,-92.8526 20,-76 11.6676,-61.7702 15.344,-42.8015 20.0967,-29.0305"/>
<polygon fill="midnightblue" stroke="midnightblue" points="23.372,-30.2652 23.76,-19.6775 16.8541,-27.7123 23.372,-30.2652"/>
</g>
<!-- Node2 -->
<g id="node3" class="node"><title>Node2</title>
<polygon fill="white" stroke="#bfbfbf" points="29.5,-56.5 29.5,-75.5 70.5,-75.5 70.5,-56.5 29.5,-56.5"/>
<text text-anchor="middle" x="50" y="-63.5" font-family="Helvetica,sans-Serif" font-size="10.00">string</text>
</g>
<!-- Node0&#45;&gt;Node2 -->
<g id="edge2" class="edge"><title>Node0&#45;&gt;Node2</title>
<path fill="none" stroke="midnightblue" d="M95.7808,-112.399C86.7925,-103.486 75.162,-91.9523 65.8731,-82.7408"/>
<polygon fill="midnightblue" stroke="midnightblue" points="68.2957,-80.214 58.7305,-75.6578 63.3666,-85.1844 68.2957,-80.214"/>
</g>
<!-- Node3 -->
<g id="node4" class="node"><title>Node3</title>
<polygon fill="white" stroke="#bfbfbf" points="88.5,-56.5 88.5,-75.5 131.5,-75.5 131.5,-56.5 88.5,-56.5"/>
<text text-anchor="middle" x="110" y="-63.5" font-family="Helvetica,sans-Serif" font-size="10.00">time.h</text>
</g>
<!-- Node0&#45;&gt;Node3 -->
<g id="edge3" class="edge"><title>Node0&#45;&gt;Node3</title>
<path fill="none" stroke="midnightblue" d="M110,-112.399C110,-104.466 110,-94.458 110,-85.8583"/>
<polygon fill="midnightblue" stroke="midnightblue" points="113.5,-85.6577 110,-75.6578 106.5,-85.6578 113.5,-85.6577"/>
</g>
<!-- Node4 -->
<g id="node5" class="node"><title>Node4</title>
<g id="a_node5"><a xlink:href="outfilename_8hpp.html" target="_top" xlink:title="out file name ">
<polygon fill="white" stroke="black" points="150,-56.5 150,-75.5 236,-75.5 236,-56.5 150,-56.5"/>
<text text-anchor="middle" x="193" y="-63.5" font-family="Helvetica,sans-Serif" font-size="10.00">outfilename.hpp</text>
</a>
</g>
</g>
<!-- Node0&#45;&gt;Node4 -->
<g id="edge4" class="edge"><title>Node0&#45;&gt;Node4</title>
<path fill="none" stroke="midnightblue" d="M129.67,-112.399C142.601,-103.129 159.486,-91.0254 172.568,-81.6469"/>
<polygon fill="midnightblue" stroke="midnightblue" points="174.835,-84.3287 180.923,-75.6578 170.756,-78.6395 174.835,-84.3287"/>
</g>
<!-- Node7 -->
<g id="node8" class="node"><title>Node7</title>
<g id="a_node8"><a xlink:href="execution__time_8hpp.html" target="_top" xlink:title="execution time ">
<polygon fill="white" stroke="black" points="254,-56.5 254,-75.5 356,-75.5 356,-56.5 254,-56.5"/>
<text text-anchor="middle" x="305" y="-63.5" font-family="Helvetica,sans-Serif" font-size="10.00">execution_time.hpp</text>
</a>
</g>
</g>
<!-- Node0&#45;&gt;Node7 -->
<g id="edge8" class="edge"><title>Node0&#45;&gt;Node7</title>
<path fill="none" stroke="midnightblue" d="M156.212,-112.399C190.054,-102.073 235.42,-88.2309 267.128,-78.5559"/>
<polygon fill="midnightblue" stroke="midnightblue" points="268.367,-81.8371 276.91,-75.5709 266.324,-75.1418 268.367,-81.8371"/>
</g>
<!-- Node4&#45;&gt;Node1 -->
<g id="edge5" class="edge"><title>Node4&#45;&gt;Node1</title>
<path fill="none" stroke="midnightblue" d="M166.855,-56.4435C138.977,-47.3196 94.6516,-32.8133 63.6,-22.6509"/>
<polygon fill="midnightblue" stroke="midnightblue" points="64.6151,-19.3005 54.0224,-19.5164 62.4377,-25.9533 64.6151,-19.3005"/>
</g>
<!-- Node5 -->
<g id="node6" class="node"><title>Node5</title>
<polygon fill="white" stroke="#bfbfbf" points="125,-0.5 125,-19.5 175,-19.5 175,-0.5 125,-0.5"/>
<text text-anchor="middle" x="150" y="-7.5" font-family="Helvetica,sans-Serif" font-size="10.00">fstream</text>
</g>
<!-- Node4&#45;&gt;Node5 -->
<g id="edge6" class="edge"><title>Node4&#45;&gt;Node5</title>
<path fill="none" stroke="midnightblue" d="M185.899,-56.083C179.763,-48.3768 170.73,-37.0333 163.261,-27.6531"/>
<polygon fill="midnightblue" stroke="midnightblue" points="165.936,-25.3936 156.968,-19.7511 160.46,-29.7542 165.936,-25.3936"/>
</g>
<!-- Node6 -->
<g id="node7" class="node"><title>Node6</title>
<polygon fill="white" stroke="#bfbfbf" points="193,-0.5 193,-19.5 241,-19.5 241,-0.5 193,-0.5"/>
<text text-anchor="middle" x="217" y="-7.5" font-family="Helvetica,sans-Serif" font-size="10.00">string.h</text>
</g>
<!-- Node4&#45;&gt;Node6 -->
<g id="edge7" class="edge"><title>Node4&#45;&gt;Node6</title>
<path fill="none" stroke="midnightblue" d="M196.963,-56.083C200.213,-48.77 204.919,-38.1814 208.954,-29.1034"/>
<polygon fill="midnightblue" stroke="midnightblue" points="212.248,-30.3107 213.111,-19.7511 205.851,-27.4677 212.248,-30.3107"/>
</g>
<!-- Node8 -->
<g id="node9" class="node"><title>Node8</title>
<polygon fill="white" stroke="#bfbfbf" points="283,-0.5 283,-19.5 327,-19.5 327,-0.5 283,-0.5"/>
<text text-anchor="middle" x="305" y="-7.5" font-family="Helvetica,sans-Serif" font-size="10.00">omp.h</text>
</g>
<!-- Node7&#45;&gt;Node8 -->
<g id="edge9" class="edge"><title>Node7&#45;&gt;Node8</title>
<path fill="none" stroke="midnightblue" d="M305,-56.083C305,-49.0059 305,-38.8611 305,-29.9865"/>
<polygon fill="midnightblue" stroke="midnightblue" points="308.5,-29.751 305,-19.7511 301.5,-29.7511 308.5,-29.751"/>
</g>
</g>
</svg>
