<?xml version="1.0" encoding="UTF-8" standalone="no"?>
<!DOCTYPE svg PUBLIC "-//W3C//DTD SVG 1.1//EN"
 "http://www.w3.org/Graphics/SVG/1.1/DTD/svg11.dtd">
<!-- Generated by graphviz version 2.38.0 (20140413.2041)
 -->
<!-- Title: include_inout/outparam_gac.hpp Pages: 1 -->
<svg width="364pt" height="207pt"
 viewBox="0.00 0.00 364.00 207.00" xmlns="http://www.w3.org/2000/svg" xmlns:xlink="http://www.w3.org/1999/xlink">
<g id="graph0" class="graph" transform="scale(1 1) rotate(0) translate(4 203)">
<title>include_inout/outparam_gac.hpp</title>
<polygon fill="white" stroke="none" points="-4,4 -4,-203 360,-203 360,4 -4,4"/>
<!-- Node0 -->
<g id="node1" class="node"><title>Node0</title>
<polygon fill="#bfbfbf" stroke="black" points="50,-168.5 50,-198.5 170,-198.5 170,-168.5 50,-168.5"/>
<text text-anchor="start" x="58" y="-186.5" font-family="Helvetica,sans-Serif" font-size="10.00">include_inout/outparam</text>
<text text-anchor="middle" x="110" y="-175.5" font-family="Helvetica,sans-Serif" font-size="10.00">_gac.hpp</text>
</g>
<!-- Node1 -->
<g id="node2" class="node"><title>Node1</title>
<g id="a_node2"><a xlink:href="outparam__clustering_8hpp.html" target="_top" xlink:title="out parameters clustering ">
<polygon fill="white" stroke="black" points="47.5,-112.5 47.5,-131.5 172.5,-131.5 172.5,-112.5 47.5,-112.5"/>
<text text-anchor="middle" x="110" y="-119.5" font-family="Helvetica,sans-Serif" font-size="10.00">outparam_clustering.hpp</text>
</a>
</g>
</g>
<!-- Node0&#45;&gt;Node1 -->
<g id="edge1" class="edge"><title>Node0&#45;&gt;Node1</title>
<path fill="none" stroke="midnightblue" d="M110,-168.399C110,-160.466 110,-150.458 110,-141.858"/>
<polygon fill="midnightblue" stroke="midnightblue" points="113.5,-141.658 110,-131.658 106.5,-141.658 113.5,-141.658"/>
</g>
<!-- Node2 -->
<g id="node3" class="node"><title>Node2</title>
<polygon fill="white" stroke="#bfbfbf" points="0,-0.5 0,-19.5 56,-19.5 56,-0.5 0,-0.5"/>
<text text-anchor="middle" x="28" y="-7.5" font-family="Helvetica,sans-Serif" font-size="10.00">iostream</text>
</g>
<!-- Node1&#45;&gt;Node2 -->
<g id="edge2" class="edge"><title>Node1&#45;&gt;Node2</title>
<path fill="none" stroke="midnightblue" d="M72.8978,-112.458C53.5552,-105.918 31.572,-94.7239 20,-76 11.3308,-61.9729 15.0519,-42.9773 19.9068,-29.1448"/>
<polygon fill="midnightblue" stroke="midnightblue" points="23.2035,-30.3265 23.654,-19.7412 16.7008,-27.7352 23.2035,-30.3265"/>
</g>
<!-- Node3 -->
<g id="node4" class="node"><title>Node3</title>
<polygon fill="white" stroke="#bfbfbf" points="29.5,-56.5 29.5,-75.5 70.5,-75.5 70.5,-56.5 29.5,-56.5"/>
<text text-anchor="middle" x="50" y="-63.5" font-family="Helvetica,sans-Serif" font-size="10.00">string</text>
</g>
<!-- Node1&#45;&gt;Node3 -->
<g id="edge3" class="edge"><title>Node1&#45;&gt;Node3</title>
<path fill="none" stroke="midnightblue" d="M100.36,-112.324C91.4904,-104.341 78.1253,-92.3128 67.3921,-82.6529"/>
<polygon fill="midnightblue" stroke="midnightblue" points="69.5898,-79.922 59.8154,-75.8339 64.907,-85.1251 69.5898,-79.922"/>
</g>
<!-- Node4 -->
<g id="node5" class="node"><title>Node4</title>
<polygon fill="white" stroke="#bfbfbf" points="88.5,-56.5 88.5,-75.5 131.5,-75.5 131.5,-56.5 88.5,-56.5"/>
<text text-anchor="middle" x="110" y="-63.5" font-family="Helvetica,sans-Serif" font-size="10.00">time.h</text>
</g>
<!-- Node1&#45;&gt;Node4 -->
<g id="edge4" class="edge"><title>Node1&#45;&gt;Node4</title>
<path fill="none" stroke="midnightblue" d="M110,-112.083C110,-105.006 110,-94.8611 110,-85.9865"/>
<polygon fill="midnightblue" stroke="midnightblue" points="113.5,-85.751 110,-75.7511 106.5,-85.7511 113.5,-85.751"/>
</g>
<!-- Node5 -->
<g id="node6" class="node"><title>Node5</title>
<g id="a_node6"><a xlink:href="outfilename_8hpp.html" target="_top" xlink:title="out file name ">
<polygon fill="white" stroke="black" points="150,-56.5 150,-75.5 236,-75.5 236,-56.5 150,-56.5"/>
<text text-anchor="middle" x="193" y="-63.5" font-family="Helvetica,sans-Serif" font-size="10.00">outfilename.hpp</text>
</a>
</g>
</g>
<!-- Node1&#45;&gt;Node5 -->
<g id="edge5" class="edge"><title>Node1&#45;&gt;Node5</title>
<path fill="none" stroke="midnightblue" d="M123.335,-112.324C136.162,-103.979 155.785,-91.2122 170.94,-81.3524"/>
<polygon fill="midnightblue" stroke="midnightblue" points="173.224,-84.0417 179.698,-75.6545 169.407,-78.1742 173.224,-84.0417"/>
</g>
<!-- Node8 -->
<g id="node9" class="node"><title>Node8</title>
<g id="a_node9"><a xlink:href="execution__time_8hpp.html" target="_top" xlink:title="execution time ">
<polygon fill="white" stroke="black" points="254,-56.5 254,-75.5 356,-75.5 356,-56.5 254,-56.5"/>
<text text-anchor="middle" x="305" y="-63.5" font-family="Helvetica,sans-Serif" font-size="10.00">execution_time.hpp</text>
</a>
</g>
</g>
<!-- Node1&#45;&gt;Node8 -->
<g id="edge9" class="edge"><title>Node1&#45;&gt;Node8</title>
<path fill="none" stroke="midnightblue" d="M140.898,-112.444C174.274,-103.201 227.594,-88.4356 264.349,-78.2572"/>
<polygon fill="midnightblue" stroke="midnightblue" points="265.543,-81.5583 274.246,-75.5164 263.675,-74.8122 265.543,-81.5583"/>
</g>
<!-- Node5&#45;&gt;Node2 -->
<g id="edge6" class="edge"><title>Node5&#45;&gt;Node2</title>
<path fill="none" stroke="midnightblue" d="M166.855,-56.4435C138.977,-47.3196 94.6516,-32.8133 63.6,-22.6509"/>
<polygon fill="midnightblue" stroke="midnightblue" points="64.6151,-19.3005 54.0224,-19.5164 62.4377,-25.9533 64.6151,-19.3005"/>
</g>
<!-- Node6 -->
<g id="node7" class="node"><title>Node6</title>
<polygon fill="white" stroke="#bfbfbf" points="125,-0.5 125,-19.5 175,-19.5 175,-0.5 125,-0.5"/>
<text text-anchor="middle" x="150" y="-7.5" font-family="Helvetica,sans-Serif" font-size="10.00">fstream</text>
</g>
<!-- Node5&#45;&gt;Node6 -->
<g id="edge7" class="edge"><title>Node5&#45;&gt;Node6</title>
<path fill="none" stroke="midnightblue" d="M185.899,-56.083C179.763,-48.3768 170.73,-37.0333 163.261,-27.6531"/>
<polygon fill="midnightblue" stroke="midnightblue" points="165.936,-25.3936 156.968,-19.7511 160.46,-29.7542 165.936,-25.3936"/>
</g>
<!-- Node7 -->
<g id="node8" class="node"><title>Node7</title>
<polygon fill="white" stroke="#bfbfbf" points="193,-0.5 193,-19.5 241,-19.5 241,-0.5 193,-0.5"/>
<text text-anchor="middle" x="217" y="-7.5" font-family="Helvetica,sans-Serif" font-size="10.00">string.h</text>
</g>
<!-- Node5&#45;&gt;Node7 -->
<g id="edge8" class="edge"><title>Node5&#45;&gt;Node7</title>
<path fill="none" stroke="midnightblue" d="M196.963,-56.083C200.213,-48.77 204.919,-38.1814 208.954,-29.1034"/>
<polygon fill="midnightblue" stroke="midnightblue" points="212.248,-30.3107 213.111,-19.7511 205.851,-27.4677 212.248,-30.3107"/>
</g>
<!-- Node9 -->
<g id="node10" class="node"><title>Node9</title>
<polygon fill="white" stroke="#bfbfbf" points="283,-0.5 283,-19.5 327,-19.5 327,-0.5 283,-0.5"/>
<text text-anchor="middle" x="305" y="-7.5" font-family="Helvetica,sans-Serif" font-size="10.00">omp.h</text>
</g>
<!-- Node8&#45;&gt;Node9 -->
<g id="edge10" class="edge"><title>Node8&#45;&gt;Node9</title>
<path fill="none" stroke="midnightblue" d="M305,-56.083C305,-49.0059 305,-38.8611 305,-29.9865"/>
<polygon fill="midnightblue" stroke="midnightblue" points="308.5,-29.751 305,-19.7511 301.5,-29.7511 308.5,-29.751"/>
</g>
</g>
</svg>
