<?xml version="1.0" encoding="UTF-8" standalone="no"?>
<!DOCTYPE svg PUBLIC "-//W3C//DTD SVG 1.1//EN"
 "http://www.w3.org/Graphics/SVG/1.1/DTD/svg11.dtd">
<!-- Generated by graphviz version 2.38.0 (20140413.2041)
 -->
<!-- Title: include_inout/outparam_gac.hpp Pages: 1 -->
<svg width="2611pt" height="162pt"
 viewBox="0.00 0.00 2610.50 162.00" xmlns="http://www.w3.org/2000/svg" xmlns:xlink="http://www.w3.org/1999/xlink">
<g id="graph0" class="graph" transform="scale(1 1) rotate(0) translate(4 158)">
<title>include_inout/outparam_gac.hpp</title>
<polygon fill="white" stroke="none" points="-4,4 -4,-158 2606.5,-158 2606.5,4 -4,4"/>
<!-- Node10 -->
<g id="node1" class="node"><title>Node10</title>
<g id="a_node1"><a xlink:title="out parameters EA&#45;clustering">
<polygon fill="#bfbfbf" stroke="black" points="1351.5,-123.5 1351.5,-153.5 1471.5,-153.5 1471.5,-123.5 1351.5,-123.5"/>
<text text-anchor="start" x="1359.5" y="-141.5" font-family="Helvetica,sans-Serif" font-size="10.00">include_inout/outparam</text>
<text text-anchor="middle" x="1411.5" y="-130.5" font-family="Helvetica,sans-Serif" font-size="10.00">_gac.hpp</text>
</a>
</g>
</g>
<!-- Node11 -->
<g id="node2" class="node"><title>Node11</title>
<g id="a_node2"><a xlink:href="outparam__gamedoid_8hpp.html" target="_top" xlink:title="out parameters GA&#45;Medoid">
<polygon fill="white" stroke="black" points="67.5,-56.5 67.5,-86.5 187.5,-86.5 187.5,-56.5 67.5,-56.5"/>
<text text-anchor="start" x="75.5" y="-74.5" font-family="Helvetica,sans-Serif" font-size="10.00">include_inout/outparam</text>
<text text-anchor="middle" x="127.5" y="-63.5" font-family="Helvetica,sans-Serif" font-size="10.00">_gamedoid.hpp</text>
</a>
</g>
</g>
<!-- Node10&#45;&gt;Node11 -->
<g id="edge1" class="edge"><title>Node10&#45;&gt;Node11</title>
<path fill="none" stroke="midnightblue" d="M1340.99,-136.105C1116.53,-131.421 420.245,-114.964 196.5,-87 193.585,-86.6357 190.61,-86.2122 187.612,-85.7439"/>
<polygon fill="midnightblue" stroke="midnightblue" points="1341.25,-139.611 1351.32,-136.319 1341.4,-132.612 1341.25,-139.611"/>
</g>
<!-- Node14 -->
<g id="node5" class="node"><title>Node14</title>
<g id="a_node5"><a xlink:href="cbga__fkcentroid_8hpp.html" target="_top" xlink:title="CBGA .">
<polygon fill="white" stroke="black" points="205.5,-62 205.5,-81 331.5,-81 331.5,-62 205.5,-62"/>
<text text-anchor="middle" x="268.5" y="-69" font-family="Helvetica,sans-Serif" font-size="10.00">eac/cbga_fkcentroid.hpp</text>
</a>
</g>
</g>
<!-- Node10&#45;&gt;Node14 -->
<g id="edge4" class="edge"><title>Node10&#45;&gt;Node14</title>
<path fill="none" stroke="midnightblue" d="M1341.27,-137.86C1169.68,-137.944 715.708,-133.356 340.5,-87 328.984,-85.5773 316.558,-83.3338 305.323,-81.0329"/>
<polygon fill="midnightblue" stroke="midnightblue" points="1341.43,-141.36 1351.43,-137.85 1341.43,-134.36 1341.43,-141.36"/>
</g>
<!-- Node15 -->
<g id="node6" class="node"><title>Node15</title>
<g id="a_node6"><a xlink:href="cga__vklabel_8hpp.html" target="_top" xlink:title="CGA &#160;&#160;.">
<polygon fill="white" stroke="black" points="349.5,-62 349.5,-81 459.5,-81 459.5,-62 349.5,-62"/>
<text text-anchor="middle" x="404.5" y="-69" font-family="Helvetica,sans-Serif" font-size="10.00">eac/cga_vklabel.hpp</text>
</a>
</g>
</g>
<!-- Node10&#45;&gt;Node15 -->
<g id="edge5" class="edge"><title>Node10&#45;&gt;Node15</title>
<path fill="none" stroke="midnightblue" d="M1340.92,-137.703C1183.66,-137.285 792.863,-131.422 469.5,-87 459.076,-85.5681 447.85,-83.3219 437.709,-81.0214"/>
<polygon fill="midnightblue" stroke="midnightblue" points="1341.38,-141.204 1351.38,-137.724 1341.39,-134.204 1341.38,-141.204"/>
</g>
<!-- Node16 -->
<g id="node7" class="node"><title>Node16</title>
<g id="a_node7"><a xlink:href="clustering__vksubclusterbinary_8hpp.html" target="_top" xlink:title="CLUSTERING .">
<polygon fill="white" stroke="black" points="478,-62 478,-81 663,-81 663,-62 478,-62"/>
<text text-anchor="middle" x="570.5" y="-69" font-family="Helvetica,sans-Serif" font-size="10.00">eac/clustering_vksubclusterbinary.hpp</text>
</a>
</g>
</g>
<!-- Node10&#45;&gt;Node16 -->
<g id="edge6" class="edge"><title>Node10&#45;&gt;Node16</title>
<path fill="none" stroke="midnightblue" d="M1341.07,-134.443C1209.35,-128.337 916.809,-112.943 671.5,-87 656.262,-85.3885 639.79,-83.2105 624.658,-81.0329"/>
<polygon fill="midnightblue" stroke="midnightblue" points="1341.27,-137.956 1351.42,-134.919 1341.59,-130.963 1341.27,-137.956"/>
</g>
<!-- Node17 -->
<g id="node8" class="node"><title>Node17</title>
<g id="a_node8"><a xlink:href="feac__vklabel_8hpp.html" target="_top" xlink:title="EAC, EACI, EACII, EACIII and FEAC &#160;and .">
<polygon fill="white" stroke="black" points="680.5,-62 680.5,-81 792.5,-81 792.5,-62 680.5,-62"/>
<text text-anchor="middle" x="736.5" y="-69" font-family="Helvetica,sans-Serif" font-size="10.00">eac/feac_vklabel.hpp</text>
</a>
</g>
</g>
<!-- Node10&#45;&gt;Node17 -->
<g id="edge7" class="edge"><title>Node10&#45;&gt;Node17</title>
<path fill="none" stroke="midnightblue" d="M1341.12,-134.805C1227.2,-129.742 995.572,-116.538 801.5,-87 791.441,-85.469 780.617,-83.2772 770.743,-81.0598"/>
<polygon fill="midnightblue" stroke="midnightblue" points="1341.3,-138.316 1351.44,-135.256 1341.6,-131.323 1341.3,-138.316"/>
</g>
<!-- Node18 -->
<g id="node9" class="node"><title>Node18</title>
<g id="a_node9"><a xlink:href="gaclustering__fkcrispmatrix_8hpp.html" target="_top" xlink:title="GA CLUSTERING .">
<polygon fill="white" stroke="black" points="810.5,-62 810.5,-81 980.5,-81 980.5,-62 810.5,-62"/>
<text text-anchor="middle" x="895.5" y="-69" font-family="Helvetica,sans-Serif" font-size="10.00">eac/gaclustering_fkcrispmatrix.hpp</text>
</a>
</g>
</g>
<!-- Node10&#45;&gt;Node18 -->
<g id="edge8" class="edge"><title>Node10&#45;&gt;Node18</title>
<path fill="none" stroke="midnightblue" d="M1341.15,-129.82C1257.3,-120.497 1113.01,-103.912 989.5,-87 976.249,-85.1856 961.972,-83.0677 948.646,-81.0201"/>
<polygon fill="midnightblue" stroke="midnightblue" points="1340.99,-133.325 1351.32,-130.949 1341.77,-126.367 1340.99,-133.325"/>
</g>
<!-- Node19 -->
<g id="node10" class="node"><title>Node19</title>
<g id="a_node10"><a xlink:href="gaclustering__fklabel_8hpp.html" target="_top" xlink:title="GA Clustering .">
<polygon fill="white" stroke="black" points="998.5,-62 998.5,-81 1142.5,-81 1142.5,-62 998.5,-62"/>
<text text-anchor="middle" x="1070.5" y="-69" font-family="Helvetica,sans-Serif" font-size="10.00">eac/gaclustering_fklabel.hpp</text>
</a>
</g>
</g>
<!-- Node10&#45;&gt;Node19 -->
<g id="edge9" class="edge"><title>Node10&#45;&gt;Node19</title>
<path fill="none" stroke="midnightblue" d="M1341.14,-124.088C1273.29,-111.154 1172.66,-91.9725 1115.14,-81.0095"/>
<polygon fill="midnightblue" stroke="midnightblue" points="1340.84,-127.595 1351.32,-126.029 1342.15,-120.718 1340.84,-127.595"/>
</g>
<!-- Node20 -->
<g id="node11" class="node"><title>Node20</title>
<g id="a_node11"><a xlink:href="gaclustering__vktreebinary_8hpp.html" target="_top" xlink:title="GA Clustering &#160;x.">
<polygon fill="white" stroke="black" points="1160.5,-62 1160.5,-81 1330.5,-81 1330.5,-62 1160.5,-62"/>
<text text-anchor="middle" x="1245.5" y="-69" font-family="Helvetica,sans-Serif" font-size="10.00">eac/gaclustering_vktreebinary.hpp</text>
</a>
</g>
</g>
<!-- Node10&#45;&gt;Node20 -->
<g id="edge10" class="edge"><title>Node10&#45;&gt;Node20</title>
<path fill="none" stroke="midnightblue" d="M1365.84,-119.621C1333.71,-107.04 1292.15,-90.7661 1267.23,-81.007"/>
<polygon fill="midnightblue" stroke="midnightblue" points="1364.89,-123.009 1375.48,-123.396 1367.45,-116.491 1364.89,-123.009"/>
</g>
<!-- Node21 -->
<g id="node12" class="node"><title>Node21</title>
<g id="a_node12"><a xlink:href="gagr__fkcentroid_8hpp.html" target="_top" xlink:title="GAGR .">
<polygon fill="white" stroke="black" points="1349,-62 1349,-81 1474,-81 1474,-62 1349,-62"/>
<text text-anchor="middle" x="1411.5" y="-69" font-family="Helvetica,sans-Serif" font-size="10.00">eac/gagr_fkcentroid.hpp</text>
</a>
</g>
</g>
<!-- Node10&#45;&gt;Node21 -->
<g id="edge11" class="edge"><title>Node10&#45;&gt;Node21</title>
<path fill="none" stroke="midnightblue" d="M1411.5,-113.25C1411.5,-102.017 1411.5,-89.3767 1411.5,-81.1945"/>
<polygon fill="midnightblue" stroke="midnightblue" points="1408,-113.396 1411.5,-123.396 1415,-113.396 1408,-113.396"/>
</g>
<!-- Node22 -->
<g id="node13" class="node"><title>Node22</title>
<g id="a_node13"><a xlink:href="gaprototypes__fkmedoid_8hpp.html" target="_top" xlink:title="GA&#45;Prototypes .">
<polygon fill="white" stroke="black" points="1492,-62 1492,-81 1653,-81 1653,-62 1492,-62"/>
<text text-anchor="middle" x="1572.5" y="-69" font-family="Helvetica,sans-Serif" font-size="10.00">eac/gaprototypes_fkmedoid.hpp</text>
</a>
</g>
</g>
<!-- Node10&#45;&gt;Node22 -->
<g id="edge12" class="edge"><title>Node10&#45;&gt;Node22</title>
<path fill="none" stroke="midnightblue" d="M1455.78,-119.621C1486.95,-107.04 1527.26,-90.7661 1551.43,-81.007"/>
<polygon fill="midnightblue" stroke="midnightblue" points="1454.4,-116.407 1446.43,-123.396 1457.02,-122.898 1454.4,-116.407"/>
</g>
<!-- Node23 -->
<g id="node14" class="node"><title>Node23</title>
<g id="a_node14"><a xlink:href="gas__fkcentroid_8hpp.html" target="_top" xlink:title="GAS .">
<polygon fill="white" stroke="black" points="1671,-62 1671,-81 1792,-81 1792,-62 1671,-62"/>
<text text-anchor="middle" x="1731.5" y="-69" font-family="Helvetica,sans-Serif" font-size="10.00">eac/gas_fkcentroid.hpp</text>
</a>
</g>
</g>
<!-- Node10&#45;&gt;Node23 -->
<g id="edge13" class="edge"><title>Node10&#45;&gt;Node23</title>
<path fill="none" stroke="midnightblue" d="M1481.44,-123.596C1531.81,-113.542 1601.38,-99.5711 1662.5,-87 1671.73,-85.1013 1681.65,-83.0329 1691.01,-81.0688"/>
<polygon fill="midnightblue" stroke="midnightblue" points="1480.75,-120.164 1471.63,-125.553 1482.12,-127.029 1480.75,-120.164"/>
</g>
<!-- Node24 -->
<g id="node15" class="node"><title>Node24</title>
<g id="a_node15"><a xlink:href="gcuk__vkcentroid_8hpp.html" target="_top" xlink:title="GCUK .">
<polygon fill="white" stroke="black" points="1810.5,-62 1810.5,-81 1938.5,-81 1938.5,-62 1810.5,-62"/>
<text text-anchor="middle" x="1874.5" y="-69" font-family="Helvetica,sans-Serif" font-size="10.00">eac/gcuk_vkcentroid.hpp</text>
</a>
</g>
</g>
<!-- Node10&#45;&gt;Node24 -->
<g id="edge14" class="edge"><title>Node10&#45;&gt;Node24</title>
<path fill="none" stroke="midnightblue" d="M1482.04,-129.813C1560.31,-120.947 1690.27,-105.227 1801.5,-87 1812.08,-85.2657 1823.48,-83.1318 1834.04,-81.0397"/>
<polygon fill="midnightblue" stroke="midnightblue" points="1481.36,-126.367 1471.81,-130.965 1482.14,-133.323 1481.36,-126.367"/>
</g>
<!-- Node25 -->
<g id="node16" class="node"><title>Node25</title>
<g id="a_node16"><a xlink:href="gga__vklabel_8hpp.html" target="_top" xlink:title="GGA .">
<polygon fill="white" stroke="black" points="1956.5,-62 1956.5,-81 2066.5,-81 2066.5,-62 1956.5,-62"/>
<text text-anchor="middle" x="2011.5" y="-69" font-family="Helvetica,sans-Serif" font-size="10.00">eac/gga_vklabel.hpp</text>
</a>
</g>
</g>
<!-- Node10&#45;&gt;Node25 -->
<g id="edge15" class="edge"><title>Node10&#45;&gt;Node25</title>
<path fill="none" stroke="midnightblue" d="M1481.96,-133.763C1584.78,-127.655 1781.75,-113.472 1947.5,-87 1957.29,-85.4368 1967.81,-83.2615 1977.45,-81.0706"/>
<polygon fill="midnightblue" stroke="midnightblue" points="1481.48,-130.285 1471.7,-134.364 1481.89,-137.273 1481.48,-130.285"/>
</g>
<!-- Node26 -->
<g id="node17" class="node"><title>Node26</title>
<g id="a_node17"><a xlink:href="gka__fklabel_8hpp.html" target="_top" xlink:title="GKA Clustering .">
<polygon fill="white" stroke="black" points="2085,-62 2085,-81 2192,-81 2192,-62 2085,-62"/>
<text text-anchor="middle" x="2138.5" y="-69" font-family="Helvetica,sans-Serif" font-size="10.00">eac/gka_fklabel.hpp</text>
</a>
</g>
</g>
<!-- Node10&#45;&gt;Node26 -->
<g id="edge16" class="edge"><title>Node10&#45;&gt;Node26</title>
<path fill="none" stroke="midnightblue" d="M1482.11,-135.613C1603.86,-131.583 1860.88,-119.67 2075.5,-87 2085.38,-85.4968 2096,-83.2862 2105.66,-81.0418"/>
<polygon fill="midnightblue" stroke="midnightblue" points="1481.7,-132.124 1471.81,-135.945 1481.92,-139.121 1481.7,-132.124"/>
</g>
<!-- Node27 -->
<g id="node18" class="node"><title>Node27</title>
<g id="a_node18"><a xlink:href="igka__fklabel_8hpp.html" target="_top" xlink:title="IGKA &#160;and FGKA .">
<polygon fill="white" stroke="black" points="2210,-62 2210,-81 2319,-81 2319,-62 2210,-62"/>
<text text-anchor="middle" x="2264.5" y="-69" font-family="Helvetica,sans-Serif" font-size="10.00">eac/igka_fklabel.hpp</text>
</a>
</g>
</g>
<!-- Node10&#45;&gt;Node27 -->
<g id="edge17" class="edge"><title>Node10&#45;&gt;Node27</title>
<path fill="none" stroke="midnightblue" d="M1481.6,-136.829C1619.97,-134.667 1937.65,-125.536 2201.5,-87 2211.5,-85.5402 2222.25,-83.3147 2231.99,-81.0422"/>
<polygon fill="midnightblue" stroke="midnightblue" points="1481.5,-133.33 1471.56,-136.979 1481.61,-140.33 1481.5,-133.33"/>
</g>
<!-- Node28 -->
<g id="node19" class="node"><title>Node28</title>
<g id="a_node19"><a xlink:href="kga__fkcentroid_8hpp.html" target="_top" xlink:title="KGA .">
<polygon fill="white" stroke="black" points="2337,-62 2337,-81 2458,-81 2458,-62 2337,-62"/>
<text text-anchor="middle" x="2397.5" y="-69" font-family="Helvetica,sans-Serif" font-size="10.00">eac/kga_fkcentroid.hpp</text>
</a>
</g>
</g>
<!-- Node10&#45;&gt;Node28 -->
<g id="edge18" class="edge"><title>Node10&#45;&gt;Node28</title>
<path fill="none" stroke="midnightblue" d="M1481.87,-137.263C1635.98,-135.949 2014.62,-128.378 2328.5,-87 2339.42,-85.5601 2351.19,-83.3405 2361.87,-81.0674"/>
<polygon fill="midnightblue" stroke="midnightblue" points="1481.58,-133.765 1471.6,-137.344 1481.63,-140.765 1481.58,-133.765"/>
</g>
<!-- Node29 -->
<g id="node20" class="node"><title>Node29</title>
<g id="a_node20"><a xlink:href="tgca__vkcentroid_8hpp.html" target="_top" xlink:title="TGCA .">
<polygon fill="white" stroke="black" points="2476.5,-62 2476.5,-81 2602.5,-81 2602.5,-62 2476.5,-62"/>
<text text-anchor="middle" x="2539.5" y="-69" font-family="Helvetica,sans-Serif" font-size="10.00">eac/tgca_vkcentroid.hpp</text>
</a>
</g>
</g>
<!-- Node10&#45;&gt;Node29 -->
<g id="edge19" class="edge"><title>Node10&#45;&gt;Node29</title>
<path fill="none" stroke="midnightblue" d="M1481.67,-137.793C1651.56,-137.709 2098.22,-132.749 2467.5,-87 2479.02,-85.5734 2491.44,-83.3288 2502.68,-81.0281"/>
<polygon fill="midnightblue" stroke="midnightblue" points="1481.61,-134.293 1471.61,-137.792 1481.6,-141.293 1481.61,-134.293"/>
</g>
<!-- Node12 -->
<g id="node3" class="node"><title>Node12</title>
<g id="a_node3"><a xlink:href="gca__fkmedoid_8hpp.html" target="_top" xlink:title="GCA .">
<polygon fill="white" stroke="black" points="0,-0.5 0,-19.5 119,-19.5 119,-0.5 0,-0.5"/>
<text text-anchor="middle" x="59.5" y="-7.5" font-family="Helvetica,sans-Serif" font-size="10.00">eac/gca_fkmedoid.hpp</text>
</a>
</g>
</g>
<!-- Node11&#45;&gt;Node12 -->
<g id="edge2" class="edge"><title>Node11&#45;&gt;Node12</title>
<path fill="none" stroke="midnightblue" d="M103.611,-49.5972C91.8604,-39.3153 78.3371,-27.4824 69.3946,-19.6578"/>
<polygon fill="midnightblue" stroke="midnightblue" points="101.554,-52.4483 111.385,-56.3993 106.164,-47.1802 101.554,-52.4483"/>
</g>
<!-- Node13 -->
<g id="node4" class="node"><title>Node13</title>
<g id="a_node4"><a xlink:href="hka__fkmedoid_8hpp.html" target="_top" xlink:title="HKA .">
<polygon fill="white" stroke="black" points="137,-0.5 137,-19.5 256,-19.5 256,-0.5 137,-0.5"/>
<text text-anchor="middle" x="196.5" y="-7.5" font-family="Helvetica,sans-Serif" font-size="10.00">eac/hka_fkmedoid.hpp</text>
</a>
</g>
</g>
<!-- Node11&#45;&gt;Node13 -->
<g id="edge3" class="edge"><title>Node11&#45;&gt;Node13</title>
<path fill="none" stroke="midnightblue" d="M151.74,-49.5972C163.664,-39.3153 177.386,-27.4824 186.46,-19.6578"/>
<polygon fill="midnightblue" stroke="midnightblue" points="149.14,-47.2182 143.852,-56.3993 153.711,-52.5194 149.14,-47.2182"/>
</g>
</g>
</svg>
