<?xml version="1.0" encoding="UTF-8" standalone="no"?>
<!DOCTYPE svg PUBLIC "-//W3C//DTD SVG 1.1//EN"
 "http://www.w3.org/Graphics/SVG/1.1/DTD/svg11.dtd">
<!-- Generated by graphviz version 2.38.0 (20140413.2041)
 -->
<!-- Title: include_inout/outparam_gac.hpp Pages: 1 -->
<!--zoomable 95 -->
<svg id="main" version="1.1" xmlns="http://www.w3.org/2000/svg" xmlns:xlink="http://www.w3.org/1999/xlink" xml:space="preserve" onload="init(evt)">
<style type="text/css"><![CDATA[
.edge:hover path { stroke: red; }
.edge:hover polygon { stroke: red; fill: red; }
]]></style>
<script type="text/javascript"><![CDATA[
var edges = document.getElementsByTagName('g');
if (edges && edges.length) {
  for (var i=0;i<edges.length;i++) {
    if (edges[i].id.substr(0,4)=='edge') {
      edges[i].setAttribute('class','edge');
    }
  }
}
]]></script>
        <defs>
                <circle id="rim" cx="0" cy="0" r="7"/>
                <circle id="rim2" cx="0" cy="0" r="3.5"/>
                <g id="zoomPlus">
                        <use xlink:href="#rim" fill="#404040">
                                <set attributeName="fill" to="#808080" begin="zoomplus.mouseover" end="zoomplus.mouseout"/>
                        </use>
                        <path d="M-4,0h8M0,-4v8" fill="none" stroke="white" stroke-width="1.5" pointer-events="none"/>
                </g>
                <g id="zoomMin">
                        <use xlink:href="#rim" fill="#404040">
                                <set attributeName="fill" to="#808080" begin="zoomminus.mouseover" end="zoomminus.mouseout"/>
                        </use>
                        <path d="M-4,0h8" fill="none" stroke="white" stroke-width="1.5" pointer-events="none"/>
                </g>
                <g id="dirArrow">
                        <path fill="none" stroke="white" stroke-width="1.5" d="M0,-3.0v7 M-2.5,-0.5L0,-3.0L2.5,-0.5"/>
                </g>
               <g id="resetDef">
                       <use xlink:href="#rim2" fill="#404040">
                               <set attributeName="fill" to="#808080" begin="reset.mouseover" end="reset.mouseout"/>
                       </use>
               </g>
        </defs>

<script type="text/javascript">
var viewWidth = 2679;
var viewHeight = 95;
var sectionId = 'dynsection-1';
</script>
<script xlink:href="svgpan.js"/>
<svg id="graph" class="graph">
<g id="viewport">
<title>include_inout/outparam_gac.hpp</title>
<polygon fill="white" stroke="none" points="-4,4 -4,-91 2675,-91 2675,4 -4,4"/>
<!-- Node10 -->
<g id="node1" class="node"><title>Node10</title>
<polygon fill="#bfbfbf" stroke="black" points="1386,-56.5 1386,-86.5 1506,-86.5 1506,-56.5 1386,-56.5"/>
<text text-anchor="start" x="1394" y="-74.5" font-family="Helvetica,sans-Serif" font-size="10.00">include_inout/outparam</text>
<text text-anchor="middle" x="1446" y="-63.5" font-family="Helvetica,sans-Serif" font-size="10.00">_gac.hpp</text>
</g>
<!-- Node11 -->
<g id="node2" class="node"><title>Node11</title>
<g id="a_node2"><a xlink:href="cbga__fkcentroid_8hpp.html" target="_top" xlink:title="CBGA . ">
<polygon fill="white" stroke="black" points="0,-0.5 0,-19.5 126,-19.5 126,-0.5 0,-0.5"/>
<text text-anchor="middle" x="63" y="-7.5" font-family="Helvetica,sans-Serif" font-size="10.00">eac/cbga_fkcentroid.hpp</text>
</a>
</g>
</g>
<!-- Node10&#45;&gt;Node11 -->
<g id="edge1" class="edge"><title>Node10&#45;&gt;Node11</title>
<path fill="none" stroke="midnightblue" d="M1375.59,-69.9122C1179.04,-67.8129 607.819,-58.586 135,-20 132.112,-19.7643 129.162,-19.4984 126.184,-19.2094"/>
<polygon fill="midnightblue" stroke="midnightblue" points="1375.74,-73.4139 1385.78,-70.0181 1375.82,-66.4142 1375.74,-73.4139"/>
</g>
<!-- Node12 -->
<g id="node3" class="node"><title>Node12</title>
<g id="a_node3"><a xlink:href="cga__vklabel_8hpp.html" target="_top" xlink:title="CGA &#160;&#160;. ">
<polygon fill="white" stroke="black" points="144,-0.5 144,-19.5 254,-19.5 254,-0.5 144,-0.5"/>
<text text-anchor="middle" x="199" y="-7.5" font-family="Helvetica,sans-Serif" font-size="10.00">eac/cga_vklabel.hpp</text>
</a>
</g>
</g>
<!-- Node10&#45;&gt;Node12 -->
<g id="edge2" class="edge"><title>Node10&#45;&gt;Node12</title>
<path fill="none" stroke="midnightblue" d="M1375.8,-69.878C1192.44,-67.7391 684.171,-58.5115 263,-20 260.095,-19.7344 257.12,-19.4298 254.118,-19.0971"/>
<polygon fill="midnightblue" stroke="midnightblue" points="1375.81,-73.3782 1385.85,-69.9918 1375.89,-66.3787 1375.81,-73.3782"/>
</g>
<!-- Node13 -->
<g id="node4" class="node"><title>Node13</title>
<g id="a_node4"><a xlink:href="clustering__vksubclusterbinary_8hpp.html" target="_top" xlink:title="CLUSTERING . ">
<polygon fill="white" stroke="black" points="272.5,-0.5 272.5,-19.5 457.5,-19.5 457.5,-0.5 272.5,-0.5"/>
<text text-anchor="middle" x="365" y="-7.5" font-family="Helvetica,sans-Serif" font-size="10.00">eac/clustering_vksubclusterbinary.hpp</text>
</a>
</g>
</g>
<!-- Node10&#45;&gt;Node13 -->
<g id="edge3" class="edge"><title>Node10&#45;&gt;Node13</title>
<path fill="none" stroke="midnightblue" d="M1375.48,-67.7715C1214.28,-61.3368 806.487,-43.9346 466,-20 463.278,-19.8087 460.515,-19.6075 457.727,-19.3984"/>
<polygon fill="midnightblue" stroke="midnightblue" points="1375.6,-71.2793 1385.73,-68.1795 1375.88,-64.2848 1375.6,-71.2793"/>
</g>
<!-- Node14 -->
<g id="node5" class="node"><title>Node14</title>
<g id="a_node5"><a xlink:href="feac__vklabel_8hpp.html" target="_top" xlink:title="EAC, EACI, EACII, EACIII and FEAC &#160;and . ">
<polygon fill="white" stroke="black" points="475,-0.5 475,-19.5 587,-19.5 587,-0.5 475,-0.5"/>
<text text-anchor="middle" x="531" y="-7.5" font-family="Helvetica,sans-Serif" font-size="10.00">eac/feac_vklabel.hpp</text>
</a>
</g>
</g>
<!-- Node10&#45;&gt;Node14 -->
<g id="edge4" class="edge"><title>Node10&#45;&gt;Node14</title>
<path fill="none" stroke="midnightblue" d="M1375.7,-68.1855C1230,-62.9785 884.588,-48.5079 596,-20 593.166,-19.72 590.265,-19.4089 587.338,-19.0754"/>
<polygon fill="midnightblue" stroke="midnightblue" points="1375.73,-71.6884 1385.84,-68.5444 1375.97,-64.6928 1375.73,-71.6884"/>
</g>
<!-- Node15 -->
<g id="node6" class="node"><title>Node15</title>
<g id="a_node6"><a xlink:href="gaclustering__fkcrispmatrix_8hpp.html" target="_top" xlink:title="GA CLUSTERING . ">
<polygon fill="white" stroke="black" points="605,-0.5 605,-19.5 775,-19.5 775,-0.5 605,-0.5"/>
<text text-anchor="middle" x="690" y="-7.5" font-family="Helvetica,sans-Serif" font-size="10.00">eac/gaclustering_fkcrispmatrix.hpp</text>
</a>
</g>
</g>
<!-- Node10&#45;&gt;Node15 -->
<g id="edge5" class="edge"><title>Node10&#45;&gt;Node15</title>
<path fill="none" stroke="midnightblue" d="M1375.49,-65.5704C1254.45,-57.0078 999.365,-38.5228 784,-20 781.06,-19.7471 778.069,-19.4853 775.048,-19.2171"/>
<polygon fill="midnightblue" stroke="midnightblue" points="1375.5,-69.0801 1385.73,-66.2936 1376,-62.0975 1375.5,-69.0801"/>
</g>
<!-- Node16 -->
<g id="node7" class="node"><title>Node16</title>
<g id="a_node7"><a xlink:href="gaclustering__fklabel_8hpp.html" target="_top" xlink:title="GA Clustering . ">
<polygon fill="white" stroke="black" points="793,-0.5 793,-19.5 937,-19.5 937,-0.5 793,-0.5"/>
<text text-anchor="middle" x="865" y="-7.5" font-family="Helvetica,sans-Serif" font-size="10.00">eac/gaclustering_fklabel.hpp</text>
</a>
</g>
</g>
<!-- Node10&#45;&gt;Node16 -->
<g id="edge6" class="edge"><title>Node10&#45;&gt;Node16</title>
<path fill="none" stroke="midnightblue" d="M1375.7,-63.6236C1278.92,-54.105 1099.19,-36.2463 946,-20 943.186,-19.7016 940.317,-19.3948 937.42,-19.0829"/>
<polygon fill="midnightblue" stroke="midnightblue" points="1375.65,-67.1354 1385.95,-64.6304 1376.34,-60.169 1375.65,-67.1354"/>
</g>
<!-- Node17 -->
<g id="node8" class="node"><title>Node17</title>
<g id="a_node8"><a xlink:href="gaclustering__vktreebinary_8hpp.html" target="_top" xlink:title="GA Clustering &#160;x. ">
<polygon fill="white" stroke="black" points="955,-0.5 955,-19.5 1125,-19.5 1125,-0.5 955,-0.5"/>
<text text-anchor="middle" x="1040" y="-7.5" font-family="Helvetica,sans-Serif" font-size="10.00">eac/gaclustering_vktreebinary.hpp</text>
</a>
</g>
</g>
<!-- Node10&#45;&gt;Node17 -->
<g id="edge7" class="edge"><title>Node10&#45;&gt;Node17</title>
<path fill="none" stroke="midnightblue" d="M1375.36,-60.1475C1296.74,-48.6256 1171.16,-30.2219 1098.04,-19.506"/>
<polygon fill="midnightblue" stroke="midnightblue" points="1375.25,-63.6694 1385.66,-61.6565 1376.27,-56.7434 1375.25,-63.6694"/>
</g>
<!-- Node18 -->
<g id="node9" class="node"><title>Node18</title>
<g id="a_node9"><a xlink:href="gagr__fkcentroid_8hpp.html" target="_top" xlink:title="GAGR . ">
<polygon fill="white" stroke="black" points="1143.5,-0.5 1143.5,-19.5 1268.5,-19.5 1268.5,-0.5 1143.5,-0.5"/>
<text text-anchor="middle" x="1206" y="-7.5" font-family="Helvetica,sans-Serif" font-size="10.00">eac/gagr_fkcentroid.hpp</text>
</a>
</g>
</g>
<!-- Node10&#45;&gt;Node18 -->
<g id="edge8" class="edge"><title>Node10&#45;&gt;Node18</title>
<path fill="none" stroke="midnightblue" d="M1379.7,-54.0633C1334.51,-42.8607 1276.53,-28.4851 1240.31,-19.5064"/>
<polygon fill="midnightblue" stroke="midnightblue" points="1378.88,-57.4654 1389.43,-56.4747 1380.56,-50.6711 1378.88,-57.4654"/>
</g>
<!-- Node19 -->
<g id="node10" class="node"><title>Node19</title>
<g id="a_node10"><a xlink:href="gaprototypes__fkmedoid_8hpp.html" target="_top" xlink:title="GA&#45;Prototypes . ">
<polygon fill="white" stroke="black" points="1286.5,-0.5 1286.5,-19.5 1447.5,-19.5 1447.5,-0.5 1286.5,-0.5"/>
<text text-anchor="middle" x="1367" y="-7.5" font-family="Helvetica,sans-Serif" font-size="10.00">eac/gaprototypes_fkmedoid.hpp</text>
</a>
</g>
</g>
<!-- Node10&#45;&gt;Node19 -->
<g id="edge9" class="edge"><title>Node10&#45;&gt;Node19</title>
<path fill="none" stroke="midnightblue" d="M1419.03,-50.1886C1405.2,-39.7719 1389.08,-27.6329 1378.5,-19.6578"/>
<polygon fill="midnightblue" stroke="midnightblue" points="1417.18,-53.1789 1427.28,-56.3993 1421.4,-47.5874 1417.18,-53.1789"/>
</g>
<!-- Node20 -->
<g id="node11" class="node"><title>Node20</title>
<g id="a_node11"><a xlink:href="gas__fkcentroid_8hpp.html" target="_top" xlink:title="GAS . ">
<polygon fill="white" stroke="black" points="1465.5,-0.5 1465.5,-19.5 1586.5,-19.5 1586.5,-0.5 1465.5,-0.5"/>
<text text-anchor="middle" x="1526" y="-7.5" font-family="Helvetica,sans-Serif" font-size="10.00">eac/gas_fkcentroid.hpp</text>
</a>
</g>
</g>
<!-- Node10&#45;&gt;Node20 -->
<g id="edge10" class="edge"><title>Node10&#45;&gt;Node20</title>
<path fill="none" stroke="midnightblue" d="M1473.31,-50.1886C1487.32,-39.7719 1503.64,-27.6329 1514.36,-19.6578"/>
<polygon fill="midnightblue" stroke="midnightblue" points="1470.89,-47.623 1464.96,-56.3993 1475.07,-53.2398 1470.89,-47.623"/>
</g>
<!-- Node21 -->
<g id="node12" class="node"><title>Node21</title>
<g id="a_node12"><a xlink:href="gca__fkmedoid_8hpp.html" target="_top" xlink:title="GCA . ">
<polygon fill="white" stroke="black" points="1604.5,-0.5 1604.5,-19.5 1723.5,-19.5 1723.5,-0.5 1604.5,-0.5"/>
<text text-anchor="middle" x="1664" y="-7.5" font-family="Helvetica,sans-Serif" font-size="10.00">eac/gca_fkmedoid.hpp</text>
</a>
</g>
</g>
<!-- Node10&#45;&gt;Node21 -->
<g id="edge11" class="edge"><title>Node10&#45;&gt;Node21</title>
<path fill="none" stroke="midnightblue" d="M1507.26,-53.7808C1548.15,-42.62 1600.21,-28.4098 1632.83,-19.5064"/>
<polygon fill="midnightblue" stroke="midnightblue" points="1506.11,-50.4651 1497.39,-56.4747 1507.96,-57.2181 1506.11,-50.4651"/>
</g>
<!-- Node22 -->
<g id="node13" class="node"><title>Node22</title>
<g id="a_node13"><a xlink:href="gcuk__vkcentroid_8hpp.html" target="_top" xlink:title="GCUK . ">
<polygon fill="white" stroke="black" points="1742,-0.5 1742,-19.5 1870,-19.5 1870,-0.5 1742,-0.5"/>
<text text-anchor="middle" x="1806" y="-7.5" font-family="Helvetica,sans-Serif" font-size="10.00">eac/gcuk_vkcentroid.hpp</text>
</a>
</g>
</g>
<!-- Node10&#45;&gt;Node22 -->
<g id="edge12" class="edge"><title>Node10&#45;&gt;Node22</title>
<path fill="none" stroke="midnightblue" d="M1516.3,-58.8808C1586.2,-47.3279 1691.78,-29.8784 1754.31,-19.5425"/>
<polygon fill="midnightblue" stroke="midnightblue" points="1515.55,-55.4571 1506.26,-60.541 1516.69,-62.3635 1515.55,-55.4571"/>
</g>
<!-- Node23 -->
<g id="node14" class="node"><title>Node23</title>
<g id="a_node14"><a xlink:href="gga__vklabel_8hpp.html" target="_top" xlink:title="GGA . ">
<polygon fill="white" stroke="black" points="1888,-0.5 1888,-19.5 1998,-19.5 1998,-0.5 1888,-0.5"/>
<text text-anchor="middle" x="1943" y="-7.5" font-family="Helvetica,sans-Serif" font-size="10.00">eac/gga_vklabel.hpp</text>
</a>
</g>
</g>
<!-- Node10&#45;&gt;Node23 -->
<g id="edge13" class="edge"><title>Node10&#45;&gt;Node23</title>
<path fill="none" stroke="midnightblue" d="M1516.43,-62.8025C1602.17,-53.3132 1751.33,-36.4201 1879,-20 1881.89,-19.6279 1884.86,-19.2385 1887.85,-18.8392"/>
<polygon fill="midnightblue" stroke="midnightblue" points="1515.85,-59.3452 1506.3,-63.9225 1516.62,-66.3029 1515.85,-59.3452"/>
</g>
<!-- Node24 -->
<g id="node15" class="node"><title>Node24</title>
<g id="a_node15"><a xlink:href="gka__fklabel_8hpp.html" target="_top" xlink:title="GKA Clustering . ">
<polygon fill="white" stroke="black" points="2016.5,-0.5 2016.5,-19.5 2123.5,-19.5 2123.5,-0.5 2016.5,-0.5"/>
<text text-anchor="middle" x="2070" y="-7.5" font-family="Helvetica,sans-Serif" font-size="10.00">eac/gka_fklabel.hpp</text>
</a>
</g>
</g>
<!-- Node10&#45;&gt;Node24 -->
<g id="edge14" class="edge"><title>Node10&#45;&gt;Node24</title>
<path fill="none" stroke="midnightblue" d="M1516.59,-65.3327C1623.05,-57.2712 1830.98,-40.4815 2007,-20 2010.07,-19.6425 2013.23,-19.2554 2016.41,-18.8497"/>
<polygon fill="midnightblue" stroke="midnightblue" points="1516,-61.8668 1506.3,-66.1088 1516.53,-68.847 1516,-61.8668"/>
</g>
<!-- Node25 -->
<g id="node16" class="node"><title>Node25</title>
<g id="a_node16"><a xlink:href="hka__fkmedoid_8hpp.html" target="_top" xlink:title="HKA . ">
<polygon fill="white" stroke="black" points="2141.5,-0.5 2141.5,-19.5 2260.5,-19.5 2260.5,-0.5 2141.5,-0.5"/>
<text text-anchor="middle" x="2201" y="-7.5" font-family="Helvetica,sans-Serif" font-size="10.00">eac/hka_fkmedoid.hpp</text>
</a>
</g>
</g>
<!-- Node10&#45;&gt;Node25 -->
<g id="edge15" class="edge"><title>Node10&#45;&gt;Node25</title>
<path fill="none" stroke="midnightblue" d="M1516.46,-66.6781C1641.03,-59.6185 1908.23,-43.116 2133,-20 2135.72,-19.7198 2138.51,-19.4173 2141.32,-19.0988"/>
<polygon fill="midnightblue" stroke="midnightblue" points="1516.08,-63.1937 1506.3,-67.2511 1516.48,-70.1826 1516.08,-63.1937"/>
</g>
<!-- Node26 -->
<g id="node17" class="node"><title>Node26</title>
<g id="a_node17"><a xlink:href="igka__fklabel_8hpp.html" target="_top" xlink:title="IGKA &#160;and FGKA . ">
<polygon fill="white" stroke="black" points="2278.5,-0.5 2278.5,-19.5 2387.5,-19.5 2387.5,-0.5 2278.5,-0.5"/>
<text text-anchor="middle" x="2333" y="-7.5" font-family="Helvetica,sans-Serif" font-size="10.00">eac/igka_fklabel.hpp</text>
</a>
</g>
</g>
<!-- Node10&#45;&gt;Node26 -->
<g id="edge16" class="edge"><title>Node10&#45;&gt;Node26</title>
<path fill="none" stroke="midnightblue" d="M1516.44,-68.1003C1659,-62.821 1991.79,-48.3506 2270,-20 2272.75,-19.72 2275.56,-19.4088 2278.4,-19.0753"/>
<polygon fill="midnightblue" stroke="midnightblue" points="1515.97,-64.6153 1506.1,-68.4794 1516.22,-71.6106 1515.97,-64.6153"/>
</g>
<!-- Node27 -->
<g id="node18" class="node"><title>Node27</title>
<g id="a_node18"><a xlink:href="kga__fkcentroid_8hpp.html" target="_top" xlink:title="KGA . ">
<polygon fill="white" stroke="black" points="2405.5,-0.5 2405.5,-19.5 2526.5,-19.5 2526.5,-0.5 2405.5,-0.5"/>
<text text-anchor="middle" x="2466" y="-7.5" font-family="Helvetica,sans-Serif" font-size="10.00">eac/kga_fkcentroid.hpp</text>
</a>
</g>
</g>
<!-- Node10&#45;&gt;Node27 -->
<g id="edge17" class="edge"><title>Node10&#45;&gt;Node27</title>
<path fill="none" stroke="midnightblue" d="M1516.24,-68.6127C1674,-63.9708 2068.34,-50.1163 2397,-20 2399.77,-19.7465 2402.59,-19.4658 2405.45,-19.165"/>
<polygon fill="midnightblue" stroke="midnightblue" points="1516.09,-65.1156 1506.2,-68.9052 1516.3,-72.1126 1516.09,-65.1156"/>
</g>
<!-- Node28 -->
<g id="node19" class="node"><title>Node28</title>
<g id="a_node19"><a xlink:href="tgca__vkcentroid_8hpp.html" target="_top" xlink:title="TGCA . ">
<polygon fill="white" stroke="black" points="2545,-0.5 2545,-19.5 2671,-19.5 2671,-0.5 2545,-0.5"/>
<text text-anchor="middle" x="2608" y="-7.5" font-family="Helvetica,sans-Serif" font-size="10.00">eac/tgca_vkcentroid.hpp</text>
</a>
</g>
</g>
<!-- Node10&#45;&gt;Node28 -->
<g id="edge18" class="edge"><title>Node10&#45;&gt;Node28</title>
<path fill="none" stroke="midnightblue" d="M1516.08,-69.1486C1689.37,-65.3949 2151.76,-52.8653 2536,-20 2538.89,-19.7531 2541.84,-19.4779 2544.81,-19.1815"/>
<polygon fill="midnightblue" stroke="midnightblue" points="1516,-65.6495 1506.07,-69.3625 1516.15,-72.6479 1516,-65.6495"/>
</g>
</g>
</svg>
        <g id="navigator" transform="translate(0 0)" fill="#404254">
                <rect fill="#f2f5e9" fill-opacity="0.5" stroke="#606060" stroke-width=".5" x="0" y="0" width="60" height="60"/>
                <use id="zoomplus" xlink:href="#zoomPlus" x="17" y="9" onmousedown="handleZoom(evt,'in')"/>
                <use id="zoomminus" xlink:href="#zoomMin" x="42" y="9" onmousedown="handleZoom(evt,'out')"/>
                <use id="reset" xlink:href="#resetDef" x="30" y="36" onmousedown="handleReset()"/>
                <g id="arrowUp" xlink:href="#dirArrow" transform="translate(30 24)" onmousedown="handlePan(0,-1)">
                  <use xlink:href="#rim" fill="#404040">
                        <set attributeName="fill" to="#808080" begin="arrowUp.mouseover" end="arrowUp.mouseout"/>
                  </use>
                  <path fill="none" stroke="white" stroke-width="1.5" d="M0,-3.0v7 M-2.5,-0.5L0,-3.0L2.5,-0.5"/>
                </g>
                <g id="arrowRight" xlink:href="#dirArrow" transform="rotate(90) translate(36 -43)" onmousedown="handlePan(1,0)">
                  <use xlink:href="#rim" fill="#404040">
                        <set attributeName="fill" to="#808080" begin="arrowRight.mouseover" end="arrowRight.mouseout"/>
                  </use>
                  <path fill="none" stroke="white" stroke-width="1.5" d="M0,-3.0v7 M-2.5,-0.5L0,-3.0L2.5,-0.5"/>
                </g>
                <g id="arrowDown" xlink:href="#dirArrow" transform="rotate(180) translate(-30 -48)" onmousedown="handlePan(0,1)">
                  <use xlink:href="#rim" fill="#404040">
                        <set attributeName="fill" to="#808080" begin="arrowDown.mouseover" end="arrowDown.mouseout"/>
                  </use>
                  <path fill="none" stroke="white" stroke-width="1.5" d="M0,-3.0v7 M-2.5,-0.5L0,-3.0L2.5,-0.5"/>
                </g>
                <g id="arrowLeft" xlink:href="#dirArrow" transform="rotate(270) translate(-36 17)" onmousedown="handlePan(-1,0)">
                  <use xlink:href="#rim" fill="#404040">
                        <set attributeName="fill" to="#808080" begin="arrowLeft.mouseover" end="arrowLeft.mouseout"/>
                  </use>
                  <path fill="none" stroke="white" stroke-width="1.5" d="M0,-3.0v7 M-2.5,-0.5L0,-3.0L2.5,-0.5"/>
                </g>
        </g>
        <svg viewBox="0 0 15 15" width="100%" height="30px" preserveAspectRatio="xMaxYMin meet">
         <g id="arrow_out" transform="scale(0.3 0.3)">
          <a xlink:href="outparam__gac_8hpp__dep__incl_org.svg" target="_base">
           <rect id="button" ry="5" rx="5" y="6" x="6" height="38" width="38"
                fill="#f2f5e9" fill-opacity="0.5" stroke="#606060" stroke-width="1.0"/>
           <path id="arrow"
             d="M 11.500037,31.436501 C 11.940474,20.09759 22.043105,11.32322 32.158766,21.979434 L 37.068811,17.246167 C 37.068811,17.246167 37.088388,32 37.088388,32 L 22.160133,31.978069 C 22.160133,31.978069 26.997745,27.140456 26.997745,27.140456 C 18.528582,18.264221 13.291696,25.230495 11.500037,31.436501 z"
             style="fill:#404040;"/>
          </a>
         </g>
        </svg>
</svg>
