<?xml version="1.0" encoding="UTF-8" standalone="no"?>
<!DOCTYPE svg PUBLIC "-//W3C//DTD SVG 1.1//EN"
 "http://www.w3.org/Graphics/SVG/1.1/DTD/svg11.dtd">
<!-- Generated by graphviz version 2.38.0 (20140413.2041)
 -->
<!-- Title: include/partition_linked.hpp Pages: 1 -->
<svg width="1355pt" height="308pt"
 viewBox="0.00 0.00 1354.77 308.00" xmlns="http://www.w3.org/2000/svg" xmlns:xlink="http://www.w3.org/1999/xlink">
<g id="graph0" class="graph" transform="scale(1 1) rotate(0) translate(4 304)">
<title>include/partition_linked.hpp</title>
<polygon fill="white" stroke="none" points="-4,4 -4,-304 1350.77,-304 1350.77,4 -4,4"/>
<!-- Node0 -->
<g id="node1" class="node"><title>Node0</title>
<polygon fill="#bfbfbf" stroke="black" points="205.5,-280.5 205.5,-299.5 342.5,-299.5 342.5,-280.5 205.5,-280.5"/>
<text text-anchor="middle" x="274" y="-287.5" font-family="Helvetica,sans-Serif" font-size="10.00">include/partition_linked.hpp</text>
</g>
<!-- Node1 -->
<g id="node2" class="node"><title>Node1</title>
<polygon fill="white" stroke="#bfbfbf" points="475,-56.5 475,-75.5 519,-75.5 519,-56.5 475,-56.5"/>
<text text-anchor="middle" x="497" y="-63.5" font-family="Helvetica,sans-Serif" font-size="10.00">vector</text>
</g>
<!-- Node0&#45;&gt;Node1 -->
<g id="edge1" class="edge"><title>Node0&#45;&gt;Node1</title>
<path fill="none" stroke="midnightblue" d="M271.782,-280.23C265.159,-251.775 248.614,-161.032 293,-112 343.367,-56.361 385.713,-91.5707 464.837,-75.6881"/>
<polygon fill="midnightblue" stroke="midnightblue" points="465.677,-79.0868 474.672,-73.4884 464.149,-72.2556 465.677,-79.0868"/>
</g>
<!-- Node2 -->
<g id="node3" class="node"><title>Node2</title>
<polygon fill="white" stroke="#bfbfbf" points="1185,-56.5 1185,-75.5 1223,-75.5 1223,-56.5 1185,-56.5"/>
<text text-anchor="middle" x="1204" y="-63.5" font-family="Helvetica,sans-Serif" font-size="10.00">utility</text>
</g>
<!-- Node0&#45;&gt;Node2 -->
<g id="edge2" class="edge"><title>Node0&#45;&gt;Node2</title>
<path fill="none" stroke="midnightblue" d="M342.863,-287.867C568.11,-283.438 1272.27,-263.604 1337,-188 1375.84,-142.632 1282.34,-97.4939 1232.62,-77.581"/>
<polygon fill="midnightblue" stroke="midnightblue" points="1233.61,-74.211 1223.02,-73.8328 1231.06,-80.7312 1233.61,-74.211"/>
</g>
<!-- Node3 -->
<g id="node4" class="node"><title>Node3</title>
<g id="a_node4"><a xlink:href="nearestinstance__operator_8hpp.html" target="_top" xlink:title="nearest instance operator ">
<polygon fill="white" stroke="black" points="667.5,-224.5 667.5,-243.5 816.5,-243.5 816.5,-224.5 667.5,-224.5"/>
<text text-anchor="middle" x="742" y="-231.5" font-family="Helvetica,sans-Serif" font-size="10.00">nearestinstance_operator.hpp</text>
</a>
</g>
</g>
<!-- Node0&#45;&gt;Node3 -->
<g id="edge3" class="edge"><title>Node0&#45;&gt;Node3</title>
<path fill="none" stroke="midnightblue" d="M342.552,-281.09C426.283,-271.429 567.876,-255.091 658.051,-244.686"/>
<polygon fill="midnightblue" stroke="midnightblue" points="658.709,-248.134 668.242,-243.511 657.907,-241.18 658.709,-248.134"/>
</g>
<!-- Node14 -->
<g id="node15" class="node"><title>Node14</title>
<g id="a_node15"><a xlink:href="common_8hpp.html" target="_top" xlink:title="common ">
<polygon fill="white" stroke="black" points="1047,-56.5 1047,-75.5 1121,-75.5 1121,-56.5 1047,-56.5"/>
<text text-anchor="middle" x="1084" y="-63.5" font-family="Helvetica,sans-Serif" font-size="10.00">common.hpp</text>
</a>
</g>
</g>
<!-- Node0&#45;&gt;Node14 -->
<g id="edge68" class="edge"><title>Node0&#45;&gt;Node14</title>
<path fill="none" stroke="midnightblue" d="M342.726,-287.656C519.279,-283.13 984.043,-264.109 1115,-188 1149.54,-167.926 1183.08,-146.54 1163,-112 1154.26,-96.9696 1138.42,-86.5428 1123.21,-79.5405"/>
<polygon fill="midnightblue" stroke="midnightblue" points="1124.46,-76.2692 1113.88,-75.6125 1121.74,-82.7202 1124.46,-76.2692"/>
</g>
<!-- Node16 -->
<g id="node17" class="node"><title>Node16</title>
<g id="a_node17"><a xlink:href="verbose__global_8hpp.html" target="_top" xlink:title="verbose global ">
<polygon fill="white" stroke="black" points="293,-56.5 293,-75.5 397,-75.5 397,-56.5 293,-56.5"/>
<text text-anchor="middle" x="345" y="-63.5" font-family="Helvetica,sans-Serif" font-size="10.00">verbose_global.hpp</text>
</a>
</g>
</g>
<!-- Node0&#45;&gt;Node16 -->
<g id="edge69" class="edge"><title>Node0&#45;&gt;Node16</title>
<path fill="none" stroke="midnightblue" d="M258.217,-280.467C245.797,-272.769 229.395,-260.179 222,-244 207.958,-213.279 209.215,-199.265 222,-168 239.27,-125.768 285.437,-95.9954 316.037,-80.1799"/>
<polygon fill="midnightblue" stroke="midnightblue" points="317.974,-83.1253 325.368,-75.5373 314.856,-76.8581 317.974,-83.1253"/>
</g>
<!-- Node22 -->
<g id="node23" class="node"><title>Node22</title>
<g id="a_node23"><a xlink:href="linear__algebra__level1_8hpp.html" target="_top" xlink:title="linear algebra level1 ">
<polygon fill="white" stroke="black" points="0,-112.5 0,-131.5 132,-131.5 132,-112.5 0,-112.5"/>
<text text-anchor="middle" x="66" y="-119.5" font-family="Helvetica,sans-Serif" font-size="10.00">linear_algebra_level1.hpp</text>
</a>
</g>
</g>
<!-- Node0&#45;&gt;Node22 -->
<g id="edge67" class="edge"><title>Node0&#45;&gt;Node22</title>
<path fill="none" stroke="midnightblue" d="M228.137,-280.484C202.026,-273.88 169.869,-262.614 146,-244 110.22,-216.097 85.1768,-167.533 73.4806,-141.213"/>
<polygon fill="midnightblue" stroke="midnightblue" points="76.5666,-139.529 69.413,-131.713 70.1316,-142.284 76.5666,-139.529"/>
</g>
<!-- Node29 -->
<g id="node30" class="node"><title>Node29</title>
<g id="a_node30"><a xlink:href="partition_8hpp.html" target="_top" xlink:title="partition ">
<polygon fill="white" stroke="black" points="444.5,-112.5 444.5,-131.5 513.5,-131.5 513.5,-112.5 444.5,-112.5"/>
<text text-anchor="middle" x="479" y="-119.5" font-family="Helvetica,sans-Serif" font-size="10.00">partition.hpp</text>
</a>
</g>
</g>
<!-- Node0&#45;&gt;Node29 -->
<g id="edge62" class="edge"><title>Node0&#45;&gt;Node29</title>
<path fill="none" stroke="midnightblue" d="M284.733,-280.309C317.805,-253.528 418.445,-172.035 460.365,-138.09"/>
<polygon fill="midnightblue" stroke="midnightblue" points="462.804,-140.618 468.373,-131.605 458.399,-135.178 462.804,-140.618"/>
</g>
<!-- Node4 -->
<g id="node5" class="node"><title>Node4</title>
<g id="a_node5"><a xlink:href="instance_8hpp.html" target="_top" xlink:title="Module for the handling of instances or also called objects or points. ">
<polygon fill="white" stroke="black" points="1256,-168.5 1256,-187.5 1328,-187.5 1328,-168.5 1256,-168.5"/>
<text text-anchor="middle" x="1292" y="-175.5" font-family="Helvetica,sans-Serif" font-size="10.00">instance.hpp</text>
</a>
</g>
</g>
<!-- Node3&#45;&gt;Node4 -->
<g id="edge4" class="edge"><title>Node3&#45;&gt;Node4</title>
<path fill="none" stroke="midnightblue" d="M816.748,-225.661C932.252,-214.321 1150.7,-192.873 1245.81,-183.535"/>
<polygon fill="midnightblue" stroke="midnightblue" points="1246.36,-186.998 1255.97,-182.537 1245.68,-180.031 1246.36,-186.998"/>
</g>
<!-- Node3&#45;&gt;Node16 -->
<g id="edge61" class="edge"><title>Node3&#45;&gt;Node16</title>
<path fill="none" stroke="midnightblue" d="M667.154,-227.742C549.819,-217.746 331.158,-191.446 285,-132 270.348,-113.13 295.66,-93.1906 317.776,-80.4501"/>
<polygon fill="midnightblue" stroke="midnightblue" points="319.526,-83.4825 326.622,-75.6156 316.169,-77.3399 319.526,-83.4825"/>
</g>
<!-- Node17 -->
<g id="node18" class="node"><title>Node17</title>
<g id="a_node18"><a xlink:href="matrix_8hpp.html" target="_top" xlink:title="matrix ">
<polygon fill="white" stroke="black" points="711,-168.5 711,-187.5 773,-187.5 773,-168.5 711,-168.5"/>
<text text-anchor="middle" x="742" y="-175.5" font-family="Helvetica,sans-Serif" font-size="10.00">matrix.hpp</text>
</a>
</g>
</g>
<!-- Node3&#45;&gt;Node17 -->
<g id="edge20" class="edge"><title>Node3&#45;&gt;Node17</title>
<path fill="none" stroke="midnightblue" d="M742,-224.083C742,-217.006 742,-206.861 742,-197.986"/>
<polygon fill="midnightblue" stroke="midnightblue" points="745.5,-197.751 742,-187.751 738.5,-197.751 745.5,-197.751"/>
</g>
<!-- Node26 -->
<g id="node27" class="node"><title>Node26</title>
<g id="a_node27"><a xlink:href="matrix__triangular_8hpp.html" target="_top" xlink:title="matrix triangular ">
<polygon fill="white" stroke="black" points="1030,-112.5 1030,-131.5 1138,-131.5 1138,-112.5 1030,-112.5"/>
<text text-anchor="middle" x="1084" y="-119.5" font-family="Helvetica,sans-Serif" font-size="10.00">matrix_triangular.hpp</text>
</a>
</g>
</g>
<!-- Node3&#45;&gt;Node26 -->
<g id="edge49" class="edge"><title>Node3&#45;&gt;Node26</title>
<path fill="none" stroke="midnightblue" d="M768.552,-224.46C829.283,-204.926 978.407,-156.963 1047.62,-134.702"/>
<polygon fill="midnightblue" stroke="midnightblue" points="1048.78,-138.004 1057.23,-131.61 1046.64,-131.34 1048.78,-138.004"/>
</g>
<!-- Node27 -->
<g id="node28" class="node"><title>Node27</title>
<g id="a_node28"><a xlink:href="dist_8hpp.html" target="_top" xlink:title="operations for the calculation of distances between objects ">
<polygon fill="white" stroke="black" points="1056,-168.5 1056,-187.5 1106,-187.5 1106,-168.5 1056,-168.5"/>
<text text-anchor="middle" x="1081" y="-175.5" font-family="Helvetica,sans-Serif" font-size="10.00">dist.hpp</text>
</a>
</g>
</g>
<!-- Node3&#45;&gt;Node27 -->
<g id="edge52" class="edge"><title>Node3&#45;&gt;Node27</title>
<path fill="none" stroke="midnightblue" d="M795.716,-224.444C865.812,-213.278 986.515,-194.051 1045.91,-184.59"/>
<polygon fill="midnightblue" stroke="midnightblue" points="1046.59,-188.025 1055.92,-182.995 1045.49,-181.112 1046.59,-188.025"/>
</g>
<!-- Node28 -->
<g id="node29" class="node"><title>Node28</title>
<g id="a_node29"><a xlink:href="vector__utils_8hpp.html" target="_top" xlink:title="Operations for vector manipulation. ">
<polygon fill="white" stroke="black" points="302.5,-112.5 302.5,-131.5 387.5,-131.5 387.5,-112.5 302.5,-112.5"/>
<text text-anchor="middle" x="345" y="-119.5" font-family="Helvetica,sans-Serif" font-size="10.00">vector_utils.hpp</text>
</a>
</g>
</g>
<!-- Node3&#45;&gt;Node28 -->
<g id="edge54" class="edge"><title>Node3&#45;&gt;Node28</title>
<path fill="none" stroke="midnightblue" d="M711.178,-224.46C640.159,-204.782 465.011,-156.252 385.468,-134.213"/>
<polygon fill="midnightblue" stroke="midnightblue" points="386.373,-130.832 375.802,-131.535 384.504,-137.578 386.373,-130.832"/>
</g>
<!-- Node5 -->
<g id="node6" class="node"><title>Node5</title>
<polygon fill="white" stroke="#bfbfbf" points="632,-0.5 632,-19.5 676,-19.5 676,-0.5 632,-0.5"/>
<text text-anchor="middle" x="654" y="-7.5" font-family="Helvetica,sans-Serif" font-size="10.00">cmath</text>
</g>
<!-- Node4&#45;&gt;Node5 -->
<g id="edge5" class="edge"><title>Node4&#45;&gt;Node5</title>
<path fill="none" stroke="midnightblue" d="M1291.61,-168.152C1290.75,-155.222 1287.97,-130.672 1279,-112 1264.93,-82.7109 1260.89,-70.864 1232,-56 1183.39,-30.9939 801.049,-16.0226 686.391,-12.0625"/>
<polygon fill="midnightblue" stroke="midnightblue" points="686.265,-8.55628 676.151,-11.7137 686.026,-15.5522 686.265,-8.55628"/>
</g>
<!-- Node6 -->
<g id="node7" class="node"><title>Node6</title>
<polygon fill="white" stroke="#bfbfbf" points="1094.5,-0.5 1094.5,-19.5 1133.5,-19.5 1133.5,-0.5 1094.5,-0.5"/>
<text text-anchor="middle" x="1114" y="-7.5" font-family="Helvetica,sans-Serif" font-size="10.00">limits</text>
</g>
<!-- Node4&#45;&gt;Node6 -->
<g id="edge6" class="edge"><title>Node4&#45;&gt;Node6</title>
<path fill="none" stroke="midnightblue" d="M1303.27,-168.427C1312.97,-160.275 1326.28,-147.046 1332,-132 1344,-100.427 1353.33,-82.1877 1332,-56 1308.55,-27.209 1197.44,-16.2847 1143.51,-12.6275"/>
<polygon fill="midnightblue" stroke="midnightblue" points="1143.73,-9.13461 1133.53,-11.9898 1143.29,-16.1204 1143.73,-9.13461"/>
</g>
<!-- Node7 -->
<g id="node8" class="node"><title>Node7</title>
<g id="a_node8"><a xlink:href="line__split_8hpp.html" target="_top" xlink:title="line split ">
<polygon fill="white" stroke="black" points="640.5,-112.5 640.5,-131.5 713.5,-131.5 713.5,-112.5 640.5,-112.5"/>
<text text-anchor="middle" x="677" y="-119.5" font-family="Helvetica,sans-Serif" font-size="10.00">line_split.hpp</text>
</a>
</g>
</g>
<!-- Node4&#45;&gt;Node7 -->
<g id="edge7" class="edge"><title>Node4&#45;&gt;Node7</title>
<path fill="none" stroke="midnightblue" d="M1255.82,-173.824C1150.1,-164.541 841.68,-137.46 723.67,-127.098"/>
<polygon fill="midnightblue" stroke="midnightblue" points="723.784,-123.595 713.516,-126.206 723.172,-130.568 723.784,-123.595"/>
</g>
<!-- Node4&#45;&gt;Node14 -->
<g id="edge19" class="edge"><title>Node4&#45;&gt;Node14</title>
<path fill="none" stroke="midnightblue" d="M1289.65,-168.38C1285.37,-154.363 1274.95,-126.72 1256,-112 1220.13,-84.1337 1168.66,-73.435 1131.38,-69.3747"/>
<polygon fill="midnightblue" stroke="midnightblue" points="1131.56,-65.8756 1121.27,-68.3968 1130.88,-72.8431 1131.56,-65.8756"/>
</g>
<!-- Node7&#45;&gt;Node1 -->
<g id="edge12" class="edge"><title>Node7&#45;&gt;Node1</title>
<path fill="none" stroke="midnightblue" d="M648.478,-112.444C615.957,-102.687 562.921,-86.7764 529.012,-76.6036"/>
<polygon fill="midnightblue" stroke="midnightblue" points="529.73,-73.165 519.146,-73.6439 527.719,-79.8698 529.73,-73.165"/>
</g>
<!-- Node8 -->
<g id="node9" class="node"><title>Node8</title>
<polygon fill="white" stroke="#bfbfbf" points="605,-56.5 605,-75.5 661,-75.5 661,-56.5 605,-56.5"/>
<text text-anchor="middle" x="633" y="-63.5" font-family="Helvetica,sans-Serif" font-size="10.00">iostream</text>
</g>
<!-- Node7&#45;&gt;Node8 -->
<g id="edge8" class="edge"><title>Node7&#45;&gt;Node8</title>
<path fill="none" stroke="midnightblue" d="M669.734,-112.083C663.455,-104.377 654.212,-93.0333 646.569,-83.6531"/>
<polygon fill="midnightblue" stroke="midnightblue" points="649.161,-81.2926 640.131,-75.7511 643.734,-85.7143 649.161,-81.2926"/>
</g>
<!-- Node9 -->
<g id="node10" class="node"><title>Node9</title>
<polygon fill="white" stroke="#bfbfbf" points="679.5,-56.5 679.5,-75.5 732.5,-75.5 732.5,-56.5 679.5,-56.5"/>
<text text-anchor="middle" x="706" y="-63.5" font-family="Helvetica,sans-Serif" font-size="10.00">sstream</text>
</g>
<!-- Node7&#45;&gt;Node9 -->
<g id="edge9" class="edge"><title>Node7&#45;&gt;Node9</title>
<path fill="none" stroke="midnightblue" d="M681.789,-112.083C685.758,-104.691 691.525,-93.9533 696.435,-84.8111"/>
<polygon fill="midnightblue" stroke="midnightblue" points="699.653,-86.217 701.3,-75.7511 693.486,-82.9051 699.653,-86.217"/>
</g>
<!-- Node10 -->
<g id="node11" class="node"><title>Node10</title>
<polygon fill="white" stroke="#bfbfbf" points="537,-56.5 537,-75.5 587,-75.5 587,-56.5 537,-56.5"/>
<text text-anchor="middle" x="562" y="-63.5" font-family="Helvetica,sans-Serif" font-size="10.00">fstream</text>
</g>
<!-- Node7&#45;&gt;Node10 -->
<g id="edge10" class="edge"><title>Node7&#45;&gt;Node10</title>
<path fill="none" stroke="midnightblue" d="M658.778,-112.444C640.104,-103.675 610.844,-89.9355 589.383,-79.8579"/>
<polygon fill="midnightblue" stroke="midnightblue" points="590.676,-76.5988 580.137,-75.5164 587.701,-82.935 590.676,-76.5988"/>
</g>
<!-- Node11 -->
<g id="node12" class="node"><title>Node11</title>
<polygon fill="white" stroke="#bfbfbf" points="751,-56.5 751,-75.5 811,-75.5 811,-56.5 751,-56.5"/>
<text text-anchor="middle" x="781" y="-63.5" font-family="Helvetica,sans-Serif" font-size="10.00">stdexcept</text>
</g>
<!-- Node7&#45;&gt;Node11 -->
<g id="edge11" class="edge"><title>Node7&#45;&gt;Node11</title>
<path fill="none" stroke="midnightblue" d="M693.709,-112.324C710.312,-103.703 736.002,-90.3643 755.22,-80.3855"/>
<polygon fill="midnightblue" stroke="midnightblue" points="757.07,-83.3689 764.332,-75.6545 753.844,-77.1565 757.07,-83.3689"/>
</g>
<!-- Node12 -->
<g id="node13" class="node"><title>Node12</title>
<polygon fill="white" stroke="#bfbfbf" points="415.5,-56.5 415.5,-75.5 456.5,-75.5 456.5,-56.5 415.5,-56.5"/>
<text text-anchor="middle" x="436" y="-63.5" font-family="Helvetica,sans-Serif" font-size="10.00">string</text>
</g>
<!-- Node7&#45;&gt;Node12 -->
<g id="edge13" class="edge"><title>Node7&#45;&gt;Node12</title>
<path fill="none" stroke="midnightblue" d="M640.196,-114.094C599.905,-106.325 533.218,-92.8613 466.444,-75.9402"/>
<polygon fill="midnightblue" stroke="midnightblue" points="467.151,-72.5082 456.595,-73.4188 465.415,-79.2895 467.151,-72.5082"/>
</g>
<!-- Node13 -->
<g id="node14" class="node"><title>Node13</title>
<polygon fill="white" stroke="#bfbfbf" points="829,-56.5 829,-75.5 877,-75.5 877,-56.5 829,-56.5"/>
<text text-anchor="middle" x="853" y="-63.5" font-family="Helvetica,sans-Serif" font-size="10.00">string.h</text>
</g>
<!-- Node7&#45;&gt;Node13 -->
<g id="edge14" class="edge"><title>Node7&#45;&gt;Node13</title>
<path fill="none" stroke="midnightblue" d="M704.888,-112.444C735.896,-102.93 785.977,-87.5637 819.192,-77.3728"/>
<polygon fill="midnightblue" stroke="midnightblue" points="820.386,-80.6678 828.919,-74.3884 818.332,-73.9757 820.386,-80.6678"/>
</g>
<!-- Node7&#45;&gt;Node14 -->
<g id="edge15" class="edge"><title>Node7&#45;&gt;Node14</title>
<path fill="none" stroke="midnightblue" d="M713.652,-116.797C777.851,-109.331 914.782,-92.9391 1030,-76 1032.22,-75.6743 1034.48,-75.3322 1036.77,-74.9797"/>
<polygon fill="midnightblue" stroke="midnightblue" points="1037.52,-78.4047 1046.85,-73.3845 1036.42,-71.4908 1037.52,-78.4047"/>
</g>
<!-- Node7&#45;&gt;Node16 -->
<g id="edge18" class="edge"><title>Node7&#45;&gt;Node16</title>
<path fill="none" stroke="midnightblue" d="M640.202,-115.015C583.997,-105.873 476.077,-88.3198 407.457,-77.1586"/>
<polygon fill="midnightblue" stroke="midnightblue" points="407.644,-73.6431 397.212,-75.4923 406.52,-80.5523 407.644,-73.6431"/>
</g>
<!-- Node14&#45;&gt;Node6 -->
<g id="edge17" class="edge"><title>Node14&#45;&gt;Node6</title>
<path fill="none" stroke="midnightblue" d="M1088.95,-56.083C1093.1,-48.6127 1099.15,-37.7244 1104.27,-28.5199"/>
<polygon fill="midnightblue" stroke="midnightblue" points="1107.34,-30.1924 1109.14,-19.7511 1101.22,-26.7929 1107.34,-30.1924"/>
</g>
<!-- Node15 -->
<g id="node16" class="node"><title>Node15</title>
<polygon fill="white" stroke="#bfbfbf" points="1029.5,-0.5 1029.5,-19.5 1076.5,-19.5 1076.5,-0.5 1029.5,-0.5"/>
<text text-anchor="middle" x="1053" y="-7.5" font-family="Helvetica,sans-Serif" font-size="10.00">stdint.h</text>
</g>
<!-- Node14&#45;&gt;Node15 -->
<g id="edge16" class="edge"><title>Node14&#45;&gt;Node15</title>
<path fill="none" stroke="midnightblue" d="M1078.88,-56.083C1074.59,-48.6127 1068.34,-37.7244 1063.06,-28.5199"/>
<polygon fill="midnightblue" stroke="midnightblue" points="1066.04,-26.6811 1058.02,-19.7511 1059.97,-30.1662 1066.04,-26.6811"/>
</g>
<!-- Node17&#45;&gt;Node1 -->
<g id="edge30" class="edge"><title>Node17&#45;&gt;Node1</title>
<path fill="none" stroke="midnightblue" d="M710.743,-177.333C639.887,-177.353 470.44,-173.014 435,-132 418.977,-113.457 445.986,-93.1877 469.235,-80.2977"/>
<polygon fill="midnightblue" stroke="midnightblue" points="470.974,-83.3376 478.185,-75.5759 467.708,-77.1464 470.974,-83.3376"/>
</g>
<!-- Node17&#45;&gt;Node2 -->
<g id="edge26" class="edge"><title>Node17&#45;&gt;Node2</title>
<path fill="none" stroke="midnightblue" d="M773.094,-176.421C856.262,-174.426 1081.92,-165.944 1147,-132 1167.72,-121.194 1184.32,-99.4907 1194.15,-84.1417"/>
<polygon fill="midnightblue" stroke="midnightblue" points="1197.16,-85.9224 1199.37,-75.56 1191.18,-82.2843 1197.16,-85.9224"/>
</g>
<!-- Node17&#45;&gt;Node7 -->
<g id="edge48" class="edge"><title>Node17&#45;&gt;Node7</title>
<path fill="none" stroke="midnightblue" d="M731.557,-168.324C721.854,-160.263 707.185,-148.077 695.5,-138.369"/>
<polygon fill="midnightblue" stroke="midnightblue" points="697.562,-135.532 687.633,-131.834 693.089,-140.916 697.562,-135.532"/>
</g>
<!-- Node17&#45;&gt;Node8 -->
<g id="edge21" class="edge"><title>Node17&#45;&gt;Node8</title>
<path fill="none" stroke="midnightblue" d="M710.928,-173.778C684.716,-169.235 648.717,-158.3 631,-132 621.941,-118.553 623.676,-99.7378 626.944,-85.809"/>
<polygon fill="midnightblue" stroke="midnightblue" points="630.398,-86.4548 629.718,-75.8818 623.656,-84.5712 630.398,-86.4548"/>
</g>
<!-- Node17&#45;&gt;Node9 -->
<g id="edge22" class="edge"><title>Node17&#45;&gt;Node9</title>
<path fill="none" stroke="midnightblue" d="M739.403,-168.13C735.698,-155.581 728.612,-131.949 722,-112 719.062,-103.135 715.611,-93.3586 712.669,-85.1899"/>
<polygon fill="midnightblue" stroke="midnightblue" points="715.884,-83.7911 709.178,-75.5888 709.305,-86.1828 715.884,-83.7911"/>
</g>
<!-- Node17&#45;&gt;Node11 -->
<g id="edge25" class="edge"><title>Node17&#45;&gt;Node11</title>
<path fill="none" stroke="midnightblue" d="M745.06,-168.368C751.382,-150.537 766.004,-109.295 774.522,-85.2717"/>
<polygon fill="midnightblue" stroke="midnightblue" points="777.911,-86.1862 777.954,-75.5914 771.313,-83.847 777.911,-86.1862"/>
</g>
<!-- Node17&#45;&gt;Node12 -->
<g id="edge28" class="edge"><title>Node17&#45;&gt;Node12</title>
<path fill="none" stroke="midnightblue" d="M710.963,-176.245C613.921,-173.569 321.022,-162.971 293,-132 287.036,-125.409 287.742,-119.167 293,-112 293.864,-110.822 363.965,-89.1281 405.683,-76.2987"/>
<polygon fill="midnightblue" stroke="midnightblue" points="406.838,-79.6055 415.369,-73.3226 404.782,-72.9142 406.838,-79.6055"/>
</g>
<!-- Node17&#45;&gt;Node13 -->
<g id="edge29" class="edge"><title>Node17&#45;&gt;Node13</title>
<path fill="none" stroke="midnightblue" d="M773.237,-172.939C816.18,-166.641 889.977,-153.012 906,-132 919.629,-114.128 897.553,-94.1764 877.875,-81.1509"/>
<polygon fill="midnightblue" stroke="midnightblue" points="879.473,-78.0223 869.139,-75.6859 875.761,-83.9567 879.473,-78.0223"/>
</g>
<!-- Node18 -->
<g id="node19" class="node"><title>Node18</title>
<polygon fill="white" stroke="#bfbfbf" points="532,-112.5 532,-131.5 584,-131.5 584,-112.5 532,-112.5"/>
<text text-anchor="middle" x="558" y="-119.5" font-family="Helvetica,sans-Serif" font-size="10.00">iomanip</text>
</g>
<!-- Node17&#45;&gt;Node18 -->
<g id="edge23" class="edge"><title>Node17&#45;&gt;Node18</title>
<path fill="none" stroke="midnightblue" d="M712.845,-168.444C680.564,-158.97 628.511,-143.693 593.785,-133.502"/>
<polygon fill="midnightblue" stroke="midnightblue" points="594.625,-130.101 584.044,-130.643 592.654,-136.818 594.625,-130.101"/>
</g>
<!-- Node19 -->
<g id="node20" class="node"><title>Node19</title>
<polygon fill="white" stroke="#bfbfbf" points="970.5,-56.5 970.5,-75.5 1021.5,-75.5 1021.5,-56.5 970.5,-56.5"/>
<text text-anchor="middle" x="996" y="-63.5" font-family="Helvetica,sans-Serif" font-size="10.00">typeinfo</text>
</g>
<!-- Node17&#45;&gt;Node19 -->
<g id="edge24" class="edge"><title>Node17&#45;&gt;Node19</title>
<path fill="none" stroke="midnightblue" d="M773.245,-175.994C814.474,-173.38 888.009,-164.16 941,-132 960.282,-120.298 976.117,-99.4555 985.764,-84.5247"/>
<polygon fill="midnightblue" stroke="midnightblue" points="988.921,-86.0726 991.185,-75.7223 982.961,-82.4022 988.921,-86.0726"/>
</g>
<!-- Node20 -->
<g id="node21" class="node"><title>Node20</title>
<polygon fill="white" stroke="#bfbfbf" points="899,-56.5 899,-75.5 949,-75.5 949,-56.5 899,-56.5"/>
<text text-anchor="middle" x="924" y="-63.5" font-family="Helvetica,sans-Serif" font-size="10.00">cassert</text>
</g>
<!-- Node17&#45;&gt;Node20 -->
<g id="edge27" class="edge"><title>Node17&#45;&gt;Node20</title>
<path fill="none" stroke="midnightblue" d="M773.265,-173.769C819.999,-168.226 904.572,-155.2 923,-132 933.191,-119.169 932.145,-99.985 929.329,-85.781"/>
<polygon fill="midnightblue" stroke="midnightblue" points="932.635,-84.5643 926.872,-75.6738 925.833,-86.2176 932.635,-84.5643"/>
</g>
<!-- Node21 -->
<g id="node22" class="node"><title>Node21</title>
<g id="a_node22"><a xlink:href="matrix__base_8hpp.html" target="_top" xlink:title="matrix base ">
<polygon fill="white" stroke="black" points="808.5,-112.5 808.5,-131.5 897.5,-131.5 897.5,-112.5 808.5,-112.5"/>
<text text-anchor="middle" x="853" y="-119.5" font-family="Helvetica,sans-Serif" font-size="10.00">matrix_base.hpp</text>
</a>
</g>
</g>
<!-- Node17&#45;&gt;Node21 -->
<g id="edge31" class="edge"><title>Node17&#45;&gt;Node21</title>
<path fill="none" stroke="midnightblue" d="M759.834,-168.324C777.716,-159.625 805.475,-146.12 826.046,-136.113"/>
<polygon fill="midnightblue" stroke="midnightblue" points="827.749,-139.177 835.21,-131.655 824.687,-132.882 827.749,-139.177"/>
</g>
<!-- Node17&#45;&gt;Node22 -->
<g id="edge42" class="edge"><title>Node17&#45;&gt;Node22</title>
<path fill="none" stroke="midnightblue" d="M710.751,-174.504C609.763,-166.437 290.178,-140.908 142.359,-129.1"/>
<polygon fill="midnightblue" stroke="midnightblue" points="142.266,-125.581 132.019,-128.274 141.708,-132.559 142.266,-125.581"/>
</g>
<!-- Node21&#45;&gt;Node1 -->
<g id="edge39" class="edge"><title>Node21&#45;&gt;Node1</title>
<path fill="none" stroke="midnightblue" d="M808.489,-116.902C747.457,-110.829 634.28,-97.9538 529.08,-75.9652"/>
<polygon fill="midnightblue" stroke="midnightblue" points="529.762,-72.532 519.253,-73.8792 528.308,-79.3794 529.762,-72.532"/>
</g>
<!-- Node21&#45;&gt;Node2 -->
<g id="edge36" class="edge"><title>Node21&#45;&gt;Node2</title>
<path fill="none" stroke="midnightblue" d="M897.811,-114.106C970.688,-102.894 1112.93,-81.0112 1174.46,-71.5444"/>
<polygon fill="midnightblue" stroke="midnightblue" points="1175.29,-74.9585 1184.64,-69.9785 1174.22,-68.0399 1175.29,-74.9585"/>
</g>
<!-- Node21&#45;&gt;Node8 -->
<g id="edge32" class="edge"><title>Node21&#45;&gt;Node8</title>
<path fill="none" stroke="midnightblue" d="M818.14,-112.444C778.042,-102.601 712.426,-86.4955 671.036,-76.336"/>
<polygon fill="midnightblue" stroke="midnightblue" points="671.611,-72.8734 661.065,-73.8886 669.942,-79.6716 671.611,-72.8734"/>
</g>
<!-- Node21&#45;&gt;Node9 -->
<g id="edge33" class="edge"><title>Node21&#45;&gt;Node9</title>
<path fill="none" stroke="midnightblue" d="M829.707,-112.444C805.193,-103.438 766.404,-89.1891 738.8,-79.049"/>
<polygon fill="midnightblue" stroke="midnightblue" points="739.777,-75.6793 729.184,-75.5164 737.363,-82.25 739.777,-75.6793"/>
</g>
<!-- Node21&#45;&gt;Node11 -->
<g id="edge35" class="edge"><title>Node21&#45;&gt;Node11</title>
<path fill="none" stroke="midnightblue" d="M841.432,-112.324C830.58,-104.185 814.119,-91.8395 801.117,-82.0874"/>
<polygon fill="midnightblue" stroke="midnightblue" points="802.879,-79.0339 792.779,-75.8339 798.679,-84.6339 802.879,-79.0339"/>
</g>
<!-- Node21&#45;&gt;Node13 -->
<g id="edge38" class="edge"><title>Node21&#45;&gt;Node13</title>
<path fill="none" stroke="midnightblue" d="M853,-112.083C853,-105.006 853,-94.8611 853,-85.9865"/>
<polygon fill="midnightblue" stroke="midnightblue" points="856.5,-85.751 853,-75.7511 849.5,-85.7511 856.5,-85.751"/>
</g>
<!-- Node21&#45;&gt;Node14 -->
<g id="edge40" class="edge"><title>Node21&#45;&gt;Node14</title>
<path fill="none" stroke="midnightblue" d="M889.603,-112.444C929.731,-103.063 994.198,-87.9926 1037.78,-77.8036"/>
<polygon fill="midnightblue" stroke="midnightblue" points="1038.63,-81.2009 1047.57,-75.5164 1037.03,-74.3847 1038.63,-81.2009"/>
</g>
<!-- Node21&#45;&gt;Node16 -->
<g id="edge41" class="edge"><title>Node21&#45;&gt;Node16</title>
<path fill="none" stroke="midnightblue" d="M808.194,-117.179C729.329,-110.303 560.337,-94.8985 407.279,-76.1092"/>
<polygon fill="midnightblue" stroke="midnightblue" points="407.576,-72.6192 397.222,-74.8667 406.717,-79.5664 407.576,-72.6192"/>
</g>
<!-- Node21&#45;&gt;Node19 -->
<g id="edge34" class="edge"><title>Node21&#45;&gt;Node19</title>
<path fill="none" stroke="midnightblue" d="M875.659,-112.444C899.402,-103.478 936.909,-89.314 963.738,-79.1827"/>
<polygon fill="midnightblue" stroke="midnightblue" points="965.329,-82.3235 973.447,-75.5164 962.856,-75.7749 965.329,-82.3235"/>
</g>
<!-- Node21&#45;&gt;Node20 -->
<g id="edge37" class="edge"><title>Node21&#45;&gt;Node20</title>
<path fill="none" stroke="midnightblue" d="M864.407,-112.324C875.109,-104.185 891.341,-91.8395 904.163,-82.0874"/>
<polygon fill="midnightblue" stroke="midnightblue" points="906.544,-84.6734 912.385,-75.8339 902.307,-79.1018 906.544,-84.6734"/>
</g>
<!-- Node23 -->
<g id="node24" class="node"><title>Node23</title>
<g id="a_node24"><a xlink:href="interface__level1_8hpp.html" target="_top" xlink:title="Interface_level 1. ">
<polygon fill="white" stroke="black" points="169,-56.5 169,-75.5 275,-75.5 275,-56.5 169,-56.5"/>
<text text-anchor="middle" x="222" y="-63.5" font-family="Helvetica,sans-Serif" font-size="10.00">interface_level1.hpp</text>
</a>
</g>
</g>
<!-- Node22&#45;&gt;Node23 -->
<g id="edge43" class="edge"><title>Node22&#45;&gt;Node23</title>
<path fill="none" stroke="midnightblue" d="M90.7187,-112.444C116.848,-103.399 158.259,-89.064 187.576,-78.9158"/>
<polygon fill="midnightblue" stroke="midnightblue" points="189.092,-82.0951 197.397,-75.5164 186.802,-75.4801 189.092,-82.0951"/>
</g>
<!-- Node23&#45;&gt;Node5 -->
<g id="edge47" class="edge"><title>Node23&#45;&gt;Node5</title>
<path fill="none" stroke="midnightblue" d="M275.089,-57.2112C278.102,-56.7947 281.089,-56.3882 284,-56 408.602,-39.3814 557.157,-22.072 621.562,-14.6897"/>
<polygon fill="midnightblue" stroke="midnightblue" points="622.337,-18.124 631.874,-13.5102 621.541,-11.1693 622.337,-18.124"/>
</g>
<!-- Node23&#45;&gt;Node6 -->
<g id="edge46" class="edge"><title>Node23&#45;&gt;Node6</title>
<path fill="none" stroke="midnightblue" d="M275.058,-56.9447C278.08,-56.5961 281.076,-56.2772 284,-56 635.477,-22.6742 732.166,-80.2281 1084.24,-19.6134"/>
<polygon fill="midnightblue" stroke="midnightblue" points="1084.95,-23.0431 1094.2,-17.8793 1083.74,-16.1468 1084.95,-23.0431"/>
</g>
<!-- Node24 -->
<g id="node25" class="node"><title>Node24</title>
<polygon fill="white" stroke="#bfbfbf" points="116,-0.5 116,-19.5 174,-19.5 174,-0.5 116,-0.5"/>
<text text-anchor="middle" x="145" y="-7.5" font-family="Helvetica,sans-Serif" font-size="10.00">algorithm</text>
</g>
<!-- Node23&#45;&gt;Node24 -->
<g id="edge44" class="edge"><title>Node23&#45;&gt;Node24</title>
<path fill="none" stroke="midnightblue" d="M209.629,-56.324C197.842,-48.0577 179.868,-35.4527 165.864,-25.6322"/>
<polygon fill="midnightblue" stroke="midnightblue" points="167.538,-22.5307 157.341,-19.6545 163.518,-28.2619 167.538,-22.5307"/>
</g>
<!-- Node25 -->
<g id="node26" class="node"><title>Node25</title>
<polygon fill="white" stroke="#bfbfbf" points="196,-0.5 196,-19.5 248,-19.5 248,-0.5 196,-0.5"/>
<text text-anchor="middle" x="222" y="-7.5" font-family="Helvetica,sans-Serif" font-size="10.00">numeric</text>
</g>
<!-- Node23&#45;&gt;Node25 -->
<g id="edge45" class="edge"><title>Node23&#45;&gt;Node25</title>
<path fill="none" stroke="midnightblue" d="M222,-56.083C222,-49.0059 222,-38.8611 222,-29.9865"/>
<polygon fill="midnightblue" stroke="midnightblue" points="225.5,-29.751 222,-19.7511 218.5,-29.7511 225.5,-29.751"/>
</g>
<!-- Node26&#45;&gt;Node8 -->
<g id="edge50" class="edge"><title>Node26&#45;&gt;Node8</title>
<path fill="none" stroke="midnightblue" d="M1029.76,-117.37C952.3,-111.687 805.402,-99.063 671.248,-76.0113"/>
<polygon fill="midnightblue" stroke="midnightblue" points="671.654,-72.5294 661.202,-74.261 670.453,-79.4255 671.654,-72.5294"/>
</g>
<!-- Node26&#45;&gt;Node14 -->
<g id="edge51" class="edge"><title>Node26&#45;&gt;Node14</title>
<path fill="none" stroke="midnightblue" d="M1084,-112.083C1084,-105.006 1084,-94.8611 1084,-85.9865"/>
<polygon fill="midnightblue" stroke="midnightblue" points="1087.5,-85.751 1084,-75.7511 1080.5,-85.7511 1087.5,-85.751"/>
</g>
<!-- Node27&#45;&gt;Node14 -->
<g id="edge53" class="edge"><title>Node27&#45;&gt;Node14</title>
<path fill="none" stroke="midnightblue" d="M1103.46,-168.382C1118.77,-161.184 1137.86,-149.288 1147,-132 1158.05,-111.089 1134.34,-92.2998 1112.91,-80.3648"/>
<polygon fill="midnightblue" stroke="midnightblue" points="1114.46,-77.2248 1103.98,-75.6832 1111.21,-83.4251 1114.46,-77.2248"/>
</g>
<!-- Node28&#45;&gt;Node1 -->
<g id="edge56" class="edge"><title>Node28&#45;&gt;Node1</title>
<path fill="none" stroke="midnightblue" d="M369.085,-112.444C394.994,-103.239 436.323,-88.5565 464.96,-78.3826"/>
<polygon fill="midnightblue" stroke="midnightblue" points="466.263,-81.6341 474.514,-74.9883 463.92,-75.038 466.263,-81.6341"/>
</g>
<!-- Node28&#45;&gt;Node8 -->
<g id="edge55" class="edge"><title>Node28&#45;&gt;Node8</title>
<path fill="none" stroke="midnightblue" d="M387.79,-114.148C435.818,-106.276 516.285,-92.5444 594.71,-76.1728"/>
<polygon fill="midnightblue" stroke="midnightblue" points="595.694,-79.5425 604.759,-74.0579 594.252,-72.6925 595.694,-79.5425"/>
</g>
<!-- Node28&#45;&gt;Node12 -->
<g id="edge57" class="edge"><title>Node28&#45;&gt;Node12</title>
<path fill="none" stroke="midnightblue" d="M359.621,-112.324C373.949,-103.822 396.013,-90.7288 412.749,-80.7975"/>
<polygon fill="midnightblue" stroke="midnightblue" points="414.602,-83.7677 421.416,-75.6545 411.03,-77.7478 414.602,-83.7677"/>
</g>
<!-- Node28&#45;&gt;Node14 -->
<g id="edge59" class="edge"><title>Node28&#45;&gt;Node14</title>
<path fill="none" stroke="midnightblue" d="M387.546,-116.4C402.533,-114.871 419.504,-113.243 435,-112 699.08,-90.8153 766.755,-105.818 1030,-76 1032.23,-75.7479 1034.5,-75.4661 1036.79,-75.1619"/>
<polygon fill="midnightblue" stroke="midnightblue" points="1037.49,-78.5977 1046.89,-73.71 1036.49,-71.6689 1037.49,-78.5977"/>
</g>
<!-- Node28&#45;&gt;Node16 -->
<g id="edge60" class="edge"><title>Node28&#45;&gt;Node16</title>
<path fill="none" stroke="midnightblue" d="M345,-112.083C345,-105.006 345,-94.8611 345,-85.9865"/>
<polygon fill="midnightblue" stroke="midnightblue" points="348.5,-85.751 345,-75.7511 341.5,-85.7511 348.5,-85.751"/>
</g>
<!-- Node28&#45;&gt;Node24 -->
<g id="edge58" class="edge"><title>Node28&#45;&gt;Node24</title>
<path fill="none" stroke="midnightblue" d="M302.226,-115.824C253.969,-109.114 179.633,-95.8666 160,-76 148.181,-64.0403 144.943,-44.7392 144.355,-30.2707"/>
<polygon fill="midnightblue" stroke="midnightblue" points="147.854,-29.93 144.338,-19.9359 140.854,-29.9417 147.854,-29.93"/>
</g>
<!-- Node29&#45;&gt;Node8 -->
<g id="edge63" class="edge"><title>Node29&#45;&gt;Node8</title>
<path fill="none" stroke="midnightblue" d="M503.402,-112.444C529.197,-103.399 570.077,-89.064 599.018,-78.9158"/>
<polygon fill="midnightblue" stroke="midnightblue" points="600.434,-82.1283 608.712,-75.5164 598.118,-75.5226 600.434,-82.1283"/>
</g>
<!-- Node29&#45;&gt;Node9 -->
<g id="edge65" class="edge"><title>Node29&#45;&gt;Node9</title>
<path fill="none" stroke="midnightblue" d="M513.538,-113.012C549.876,-104.574 608.986,-90.7561 669.545,-76.0857"/>
<polygon fill="midnightblue" stroke="midnightblue" points="670.381,-79.4844 679.274,-73.7245 668.73,-72.6819 670.381,-79.4844"/>
</g>
<!-- Node29&#45;&gt;Node10 -->
<g id="edge64" class="edge"><title>Node29&#45;&gt;Node10</title>
<path fill="none" stroke="midnightblue" d="M492.335,-112.324C505.162,-103.979 524.785,-91.2122 539.94,-81.3524"/>
<polygon fill="midnightblue" stroke="midnightblue" points="542.224,-84.0417 548.698,-75.6545 538.407,-78.1742 542.224,-84.0417"/>
</g>
<!-- Node29&#45;&gt;Node12 -->
<g id="edge66" class="edge"><title>Node29&#45;&gt;Node12</title>
<path fill="none" stroke="midnightblue" d="M471.899,-112.083C465.763,-104.377 456.73,-93.0333 449.261,-83.6531"/>
<polygon fill="midnightblue" stroke="midnightblue" points="451.936,-81.3936 442.968,-75.7511 446.46,-85.7542 451.936,-81.3936"/>
</g>
</g>
</svg>
