<?xml version="1.0" encoding="UTF-8" standalone="no"?>
<!DOCTYPE svg PUBLIC "-//W3C//DTD SVG 1.1//EN"
 "http://www.w3.org/Graphics/SVG/1.1/DTD/svg11.dtd">
<!-- Generated by graphviz version 2.38.0 (20140413.2041)
 -->
<!-- Title: include/partition_label.hpp Pages: 1 -->
<!--zoomable 341 -->
<svg id="main" version="1.1" xmlns="http://www.w3.org/2000/svg" xmlns:xlink="http://www.w3.org/1999/xlink" xml:space="preserve" onload="init(evt)">
<style type="text/css"><![CDATA[
.edge:hover path { stroke: red; }
.edge:hover polygon { stroke: red; fill: red; }
]]></style>
<script type="text/javascript"><![CDATA[
var edges = document.getElementsByTagName('g');
if (edges && edges.length) {
  for (var i=0;i<edges.length;i++) {
    if (edges[i].id.substr(0,4)=='edge') {
      edges[i].setAttribute('class','edge');
    }
  }
}
]]></script>
        <defs>
                <circle id="rim" cx="0" cy="0" r="7"/>
                <circle id="rim2" cx="0" cy="0" r="3.5"/>
                <g id="zoomPlus">
                        <use xlink:href="#rim" fill="#404040">
                                <set attributeName="fill" to="#808080" begin="zoomplus.mouseover" end="zoomplus.mouseout"/>
                        </use>
                        <path d="M-4,0h8M0,-4v8" fill="none" stroke="white" stroke-width="1.5" pointer-events="none"/>
                </g>
                <g id="zoomMin">
                        <use xlink:href="#rim" fill="#404040">
                                <set attributeName="fill" to="#808080" begin="zoomminus.mouseover" end="zoomminus.mouseout"/>
                        </use>
                        <path d="M-4,0h8" fill="none" stroke="white" stroke-width="1.5" pointer-events="none"/>
                </g>
                <g id="dirArrow">
                        <path fill="none" stroke="white" stroke-width="1.5" d="M0,-3.0v7 M-2.5,-0.5L0,-3.0L2.5,-0.5"/>
                </g>
               <g id="resetDef">
                       <use xlink:href="#rim2" fill="#404040">
                               <set attributeName="fill" to="#808080" begin="reset.mouseover" end="reset.mouseout"/>
                       </use>
               </g>
        </defs>

<script type="text/javascript">
var viewWidth = 2845;
var viewHeight = 341;
var sectionId = 'dynsection-1';
</script>
<script xlink:href="svgpan.js"/>
<svg id="graph" class="graph">
<g id="viewport">
<title>include/partition_label.hpp</title>
<polygon fill="white" stroke="none" points="-4,4 -4,-337 2840.5,-337 2840.5,4 -4,4"/>
<!-- Node19 -->
<g id="node1" class="node"><title>Node19</title>
<polygon fill="#bfbfbf" stroke="black" points="1608.5,-313.5 1608.5,-332.5 1739.5,-332.5 1739.5,-313.5 1608.5,-313.5"/>
<text text-anchor="middle" x="1674" y="-320.5" font-family="Helvetica,sans-Serif" font-size="10.00">include/partition_label.hpp</text>
</g>
<!-- Node20 -->
<g id="node2" class="node"><title>Node20</title>
<g id="a_node2"><a xlink:href="clustering__operator__centroids_8hpp.html" target="_top" xlink:title="clustering operator centroids ">
<polygon fill="white" stroke="black" points="1483,-246.5 1483,-276.5 1607,-276.5 1607,-246.5 1483,-246.5"/>
<text text-anchor="start" x="1491" y="-264.5" font-family="Helvetica,sans-Serif" font-size="10.00">include/clustering</text>
<text text-anchor="middle" x="1545" y="-253.5" font-family="Helvetica,sans-Serif" font-size="10.00">_operator_centroids.hpp</text>
</a>
</g>
</g>
<!-- Node19&#45;&gt;Node20 -->
<g id="edge1" class="edge"><title>Node19&#45;&gt;Node20</title>
<path fill="none" stroke="midnightblue" d="M1646.25,-309.2C1625.4,-299.585 1596.87,-286.423 1575.4,-276.523"/>
<polygon fill="midnightblue" stroke="midnightblue" points="1644.97,-312.465 1655.52,-313.475 1647.9,-306.108 1644.97,-312.465"/>
</g>
<!-- Node22 -->
<g id="node4" class="node"><title>Node22</title>
<g id="a_node4"><a xlink:href="ga__clustering__operator_8hpp.html" target="_top" xlink:title="genetic operators oriented to clustering ">
<polygon fill="white" stroke="black" points="1575,-112.5 1575,-142.5 1687,-142.5 1687,-112.5 1575,-112.5"/>
<text text-anchor="start" x="1583" y="-130.5" font-family="Helvetica,sans-Serif" font-size="10.00">include/ga_clustering</text>
<text text-anchor="middle" x="1631" y="-119.5" font-family="Helvetica,sans-Serif" font-size="10.00">_operator.hpp</text>
</a>
</g>
</g>
<!-- Node19&#45;&gt;Node22 -->
<g id="edge35" class="edge"><title>Node19&#45;&gt;Node22</title>
<path fill="none" stroke="midnightblue" d="M1673.1,-303.244C1671.39,-275.569 1666.62,-222.386 1654,-179 1650.29,-166.235 1643.89,-152.557 1638.79,-142.661"/>
<polygon fill="midnightblue" stroke="midnightblue" points="1669.62,-303.648 1673.66,-313.44 1676.61,-303.263 1669.62,-303.648"/>
</g>
<!-- Node23 -->
<g id="node5" class="node"><title>Node23</title>
<g id="a_node5"><a xlink:href="leac_8hpp.html" target="_top" xlink:title="LEAC. ">
<polygon fill="white" stroke="black" points="1489.5,-56.5 1489.5,-75.5 1578.5,-75.5 1578.5,-56.5 1489.5,-56.5"/>
<text text-anchor="middle" x="1534" y="-63.5" font-family="Helvetica,sans-Serif" font-size="10.00">include/leac.hpp</text>
</a>
</g>
</g>
<!-- Node19&#45;&gt;Node23 -->
<g id="edge36" class="edge"><title>Node19&#45;&gt;Node23</title>
<path fill="none" stroke="midnightblue" d="M1704.23,-309.215C1752.67,-286.706 1839.47,-236.865 1811,-179 1769.09,-93.826 1645.55,-73.192 1578.5,-68.3501"/>
<polygon fill="midnightblue" stroke="midnightblue" points="1702.49,-306.163 1694.82,-313.472 1705.37,-312.541 1702.49,-306.163"/>
</g>
<!-- Node43 -->
<g id="node25" class="node"><title>Node43</title>
<g id="a_node25"><a xlink:href="chromosome__igka_8hpp.html" target="_top" xlink:title="chromosome IGKA &#160;and &#160;">
<polygon fill="white" stroke="black" points="1328.5,-179.5 1328.5,-209.5 1439.5,-209.5 1439.5,-179.5 1328.5,-179.5"/>
<text text-anchor="start" x="1336.5" y="-197.5" font-family="Helvetica,sans-Serif" font-size="10.00">include/chromosome</text>
<text text-anchor="middle" x="1384" y="-186.5" font-family="Helvetica,sans-Serif" font-size="10.00">_igka.hpp</text>
</a>
</g>
</g>
<!-- Node19&#45;&gt;Node43 -->
<g id="edge33" class="edge"><title>Node19&#45;&gt;Node43</title>
<path fill="none" stroke="midnightblue" d="M1598.3,-314.299C1559.48,-308.086 1512.42,-296.936 1474,-277 1441.26,-260.011 1411.22,-228.164 1395.49,-209.712"/>
<polygon fill="midnightblue" stroke="midnightblue" points="1598.08,-317.806 1608.5,-315.849 1599.14,-310.886 1598.08,-317.806"/>
</g>
<!-- Node45 -->
<g id="node27" class="node"><title>Node45</title>
<g id="a_node27"><a xlink:href="ga__integer__operator_8hpp.html" target="_top" xlink:title="genetic integer operators ">
<polygon fill="white" stroke="black" points="1702,-179.5 1702,-209.5 1802,-209.5 1802,-179.5 1702,-179.5"/>
<text text-anchor="start" x="1710" y="-197.5" font-family="Helvetica,sans-Serif" font-size="10.00">include/ga_integer</text>
<text text-anchor="middle" x="1752" y="-186.5" font-family="Helvetica,sans-Serif" font-size="10.00">_operator.hpp</text>
</a>
</g>
</g>
<!-- Node19&#45;&gt;Node45 -->
<g id="edge34" class="edge"><title>Node19&#45;&gt;Node45</title>
<path fill="none" stroke="midnightblue" d="M1684.81,-304.466C1700.36,-279.251 1728.74,-233.225 1743.13,-209.888"/>
<polygon fill="midnightblue" stroke="midnightblue" points="1681.63,-302.956 1679.36,-313.305 1687.59,-306.63 1681.63,-302.956"/>
</g>
<!-- Node21 -->
<g id="node3" class="node"><title>Node21</title>
<g id="a_node3"><a xlink:href="chromosome__cbga_8hpp.html" target="_top" xlink:title="chromosome CBGA ">
<polygon fill="white" stroke="black" points="1534.5,-179.5 1534.5,-209.5 1645.5,-209.5 1645.5,-179.5 1534.5,-179.5"/>
<text text-anchor="start" x="1542.5" y="-197.5" font-family="Helvetica,sans-Serif" font-size="10.00">include/chromosome</text>
<text text-anchor="middle" x="1590" y="-186.5" font-family="Helvetica,sans-Serif" font-size="10.00">_cbga.hpp</text>
</a>
</g>
</g>
<!-- Node20&#45;&gt;Node21 -->
<g id="edge2" class="edge"><title>Node20&#45;&gt;Node21</title>
<path fill="none" stroke="midnightblue" d="M1560.47,-238.157C1567.03,-228.679 1574.48,-217.919 1580.25,-209.577"/>
<polygon fill="midnightblue" stroke="midnightblue" points="1557.58,-236.182 1554.76,-246.396 1563.33,-240.166 1557.58,-236.182"/>
</g>
<!-- Node20&#45;&gt;Node23 -->
<g id="edge32" class="edge"><title>Node20&#45;&gt;Node23</title>
<path fill="none" stroke="midnightblue" d="M1533.65,-237.21C1530.15,-228.837 1526.75,-219.188 1525,-210 1515.44,-159.909 1526.96,-98.343 1531.93,-75.8008"/>
<polygon fill="midnightblue" stroke="midnightblue" points="1530.46,-238.639 1537.72,-246.35 1536.85,-235.791 1530.46,-238.639"/>
</g>
<!-- Node20&#45;&gt;Node43 -->
<g id="edge24" class="edge"><title>Node20&#45;&gt;Node43</title>
<path fill="none" stroke="midnightblue" d="M1500.52,-242.544C1474.76,-232.143 1442.8,-219.238 1418.87,-209.577"/>
<polygon fill="midnightblue" stroke="midnightblue" points="1499.48,-245.898 1510.07,-246.396 1502.1,-239.407 1499.48,-245.898"/>
</g>
<!-- Node44 -->
<g id="node26" class="node"><title>Node44</title>
<g id="a_node26"><a xlink:href="clustering__operator__crispmatrix_8hpp.html" target="_top" xlink:title="clustering operator crispmatrix ">
<polygon fill="white" stroke="black" points="1374.5,-112.5 1374.5,-142.5 1505.5,-142.5 1505.5,-112.5 1374.5,-112.5"/>
<text text-anchor="start" x="1382.5" y="-130.5" font-family="Helvetica,sans-Serif" font-size="10.00">include/clustering</text>
<text text-anchor="middle" x="1440" y="-119.5" font-family="Helvetica,sans-Serif" font-size="10.00">_operator_crispmatrix.hpp</text>
</a>
</g>
</g>
<!-- Node20&#45;&gt;Node44 -->
<g id="edge26" class="edge"><title>Node20&#45;&gt;Node44</title>
<path fill="none" stroke="midnightblue" d="M1520.62,-239.579C1511.17,-230.896 1500.58,-220.426 1492,-210 1473.97,-188.101 1457.08,-159.597 1447.69,-142.753"/>
<polygon fill="midnightblue" stroke="midnightblue" points="1518.45,-242.329 1528.22,-246.411 1523.12,-237.123 1518.45,-242.329"/>
</g>
<!-- Node20&#45;&gt;Node45 -->
<g id="edge28" class="edge"><title>Node20&#45;&gt;Node45</title>
<path fill="none" stroke="midnightblue" d="M1599.32,-243.444C1632.87,-232.908 1675.41,-219.549 1707.06,-209.611"/>
<polygon fill="midnightblue" stroke="midnightblue" points="1598.15,-240.141 1589.66,-246.476 1600.25,-246.819 1598.15,-240.141"/>
</g>
<!-- Node21&#45;&gt;Node22 -->
<g id="edge3" class="edge"><title>Node21&#45;&gt;Node22</title>
<path fill="none" stroke="midnightblue" d="M1604.28,-170.867C1610.21,-161.459 1616.91,-150.833 1622.12,-142.577"/>
<polygon fill="midnightblue" stroke="midnightblue" points="1601.27,-169.071 1598.9,-179.396 1607.19,-172.805 1601.27,-169.071"/>
</g>
<!-- Node22&#45;&gt;Node23 -->
<g id="edge4" class="edge"><title>Node22&#45;&gt;Node23</title>
<path fill="none" stroke="midnightblue" d="M1599.32,-107.069C1582.03,-96.4624 1561.48,-83.8586 1548.11,-75.6578"/>
<polygon fill="midnightblue" stroke="midnightblue" points="1597.66,-110.154 1608.01,-112.399 1601.32,-104.187 1597.66,-110.154"/>
</g>
<!-- Node24 -->
<g id="node6" class="node"><title>Node24</title>
<g id="a_node6"><a xlink:href="cbga__fkcentroid_8hpp.html" target="_top" xlink:title="CBGA . ">
<polygon fill="white" stroke="black" points="2254,-0.5 2254,-19.5 2380,-19.5 2380,-0.5 2254,-0.5"/>
<text text-anchor="middle" x="2317" y="-7.5" font-family="Helvetica,sans-Serif" font-size="10.00">eac/cbga_fkcentroid.hpp</text>
</a>
</g>
</g>
<!-- Node23&#45;&gt;Node24 -->
<g id="edge5" class="edge"><title>Node23&#45;&gt;Node24</title>
<path fill="none" stroke="midnightblue" d="M1588.92,-62.67C1708.41,-57.3493 2000.85,-42.9637 2245,-20 2247.88,-19.7287 2250.83,-19.4335 2253.81,-19.1208"/>
<polygon fill="midnightblue" stroke="midnightblue" points="1588.42,-59.1888 1578.58,-63.1269 1588.73,-66.1819 1588.42,-59.1888"/>
</g>
<!-- Node25 -->
<g id="node7" class="node"><title>Node25</title>
<g id="a_node7"><a xlink:href="cga__vklabel_8hpp.html" target="_top" xlink:title="CGA &#160;&#160;. ">
<polygon fill="white" stroke="black" points="2398,-0.5 2398,-19.5 2508,-19.5 2508,-0.5 2398,-0.5"/>
<text text-anchor="middle" x="2453" y="-7.5" font-family="Helvetica,sans-Serif" font-size="10.00">eac/cga_vklabel.hpp</text>
</a>
</g>
</g>
<!-- Node23&#45;&gt;Node25 -->
<g id="edge6" class="edge"><title>Node23&#45;&gt;Node25</title>
<path fill="none" stroke="midnightblue" d="M1588.95,-62.736C1752.21,-55.9094 2232.73,-35.0711 2389,-20 2391.9,-19.7199 2394.88,-19.4039 2397.88,-19.0622"/>
<polygon fill="midnightblue" stroke="midnightblue" points="1588.5,-59.2513 1578.66,-63.1652 1588.8,-66.2452 1588.5,-59.2513"/>
</g>
<!-- Node26 -->
<g id="node8" class="node"><title>Node26</title>
<g id="a_node8"><a xlink:href="clustering__vksubclusterbinary_8hpp.html" target="_top" xlink:title="CLUSTERING . ">
<polygon fill="white" stroke="black" points="2526.5,-0.5 2526.5,-19.5 2711.5,-19.5 2711.5,-0.5 2526.5,-0.5"/>
<text text-anchor="middle" x="2619" y="-7.5" font-family="Helvetica,sans-Serif" font-size="10.00">eac/clustering_vksubclusterbinary.hpp</text>
</a>
</g>
</g>
<!-- Node23&#45;&gt;Node26 -->
<g id="edge7" class="edge"><title>Node23&#45;&gt;Node26</title>
<path fill="none" stroke="midnightblue" d="M1588.77,-62.7987C1767.72,-55.5577 2334.2,-32.243 2517,-20 2520.1,-19.7921 2523.26,-19.5706 2526.45,-19.3382"/>
<polygon fill="midnightblue" stroke="midnightblue" points="1588.39,-59.311 1578.54,-63.2121 1588.67,-66.3053 1588.39,-59.311"/>
</g>
<!-- Node27 -->
<g id="node9" class="node"><title>Node27</title>
<g id="a_node9"><a xlink:href="feac__vklabel_8hpp.html" target="_top" xlink:title="EAC, EACI, EACII, EACIII and FEAC &#160;and . ">
<polygon fill="white" stroke="black" points="0,-0.5 0,-19.5 112,-19.5 112,-0.5 0,-0.5"/>
<text text-anchor="middle" x="56" y="-7.5" font-family="Helvetica,sans-Serif" font-size="10.00">eac/feac_vklabel.hpp</text>
</a>
</g>
</g>
<!-- Node23&#45;&gt;Node27 -->
<g id="edge8" class="edge"><title>Node23&#45;&gt;Node27</title>
<path fill="none" stroke="midnightblue" d="M1479.12,-65.336C1290.06,-66.0498 648.442,-64.7876 121,-20 118.162,-19.759 115.259,-19.4793 112.329,-19.1706"/>
<polygon fill="midnightblue" stroke="midnightblue" points="1479.37,-68.8351 1489.35,-65.2937 1479.34,-61.8352 1479.37,-68.8351"/>
</g>
<!-- Node28 -->
<g id="node10" class="node"><title>Node28</title>
<g id="a_node10"><a xlink:href="gaclustering__fkcrispmatrix_8hpp.html" target="_top" xlink:title="GA CLUSTERING . ">
<polygon fill="white" stroke="black" points="130,-0.5 130,-19.5 300,-19.5 300,-0.5 130,-0.5"/>
<text text-anchor="middle" x="215" y="-7.5" font-family="Helvetica,sans-Serif" font-size="10.00">eac/gaclustering_fkcrispmatrix.hpp</text>
</a>
</g>
</g>
<!-- Node23&#45;&gt;Node28 -->
<g id="edge9" class="edge"><title>Node23&#45;&gt;Node28</title>
<path fill="none" stroke="midnightblue" d="M1479.38,-64.1371C1307.22,-61.1722 760.58,-49.8866 309,-20 306.056,-19.8051 303.06,-19.5932 300.036,-19.3675"/>
<polygon fill="midnightblue" stroke="midnightblue" points="1479.4,-67.6378 1489.45,-64.3084 1479.52,-60.6388 1479.4,-67.6378"/>
</g>
<!-- Node29 -->
<g id="node11" class="node"><title>Node29</title>
<g id="a_node11"><a xlink:href="gaclustering__fklabel_8hpp.html" target="_top" xlink:title="GA Clustering . ">
<polygon fill="white" stroke="black" points="318,-0.5 318,-19.5 462,-19.5 462,-0.5 318,-0.5"/>
<text text-anchor="middle" x="390" y="-7.5" font-family="Helvetica,sans-Serif" font-size="10.00">eac/gaclustering_fklabel.hpp</text>
</a>
</g>
</g>
<!-- Node23&#45;&gt;Node29 -->
<g id="edge10" class="edge"><title>Node23&#45;&gt;Node29</title>
<path fill="none" stroke="midnightblue" d="M1479.03,-63.9981C1321.71,-60.8454 856.28,-49.5247 471,-20 468.178,-19.7838 465.303,-19.5464 462.4,-19.2925"/>
<polygon fill="midnightblue" stroke="midnightblue" points="1479.31,-67.5043 1489.38,-64.2026 1479.45,-60.5057 1479.31,-67.5043"/>
</g>
<!-- Node30 -->
<g id="node12" class="node"><title>Node30</title>
<g id="a_node12"><a xlink:href="gaclustering__vktreebinary_8hpp.html" target="_top" xlink:title="GA Clustering &#160;x. ">
<polygon fill="white" stroke="black" points="480,-0.5 480,-19.5 650,-19.5 650,-0.5 480,-0.5"/>
<text text-anchor="middle" x="565" y="-7.5" font-family="Helvetica,sans-Serif" font-size="10.00">eac/gaclustering_vktreebinary.hpp</text>
</a>
</g>
</g>
<!-- Node23&#45;&gt;Node30 -->
<g id="edge11" class="edge"><title>Node23&#45;&gt;Node30</title>
<path fill="none" stroke="midnightblue" d="M1479.03,-63.0154C1341.01,-57.849 968.744,-42.7819 659,-20 656.057,-19.7835 653.063,-19.553 650.04,-19.3115"/>
<polygon fill="midnightblue" stroke="midnightblue" points="1479.21,-66.5245 1489.34,-63.399 1479.47,-59.5293 1479.21,-66.5245"/>
</g>
<!-- Node31 -->
<g id="node13" class="node"><title>Node31</title>
<g id="a_node13"><a xlink:href="gagr__fkcentroid_8hpp.html" target="_top" xlink:title="GAGR . ">
<polygon fill="white" stroke="black" points="668.5,-0.5 668.5,-19.5 793.5,-19.5 793.5,-0.5 668.5,-0.5"/>
<text text-anchor="middle" x="731" y="-7.5" font-family="Helvetica,sans-Serif" font-size="10.00">eac/gagr_fkcentroid.hpp</text>
</a>
</g>
</g>
<!-- Node23&#45;&gt;Node31 -->
<g id="edge12" class="edge"><title>Node23&#45;&gt;Node31</title>
<path fill="none" stroke="midnightblue" d="M1479.17,-62.843C1357.25,-57.7808 1054.51,-43.7404 802,-20 799.278,-19.7441 796.5,-19.4658 793.696,-19.1707"/>
<polygon fill="midnightblue" stroke="midnightblue" points="1479.23,-66.3482 1489.36,-63.2627 1479.51,-59.3542 1479.23,-66.3482"/>
</g>
<!-- Node32 -->
<g id="node14" class="node"><title>Node32</title>
<g id="a_node14"><a xlink:href="gaprototypes__fkmedoid_8hpp.html" target="_top" xlink:title="GA&#45;Prototypes . ">
<polygon fill="white" stroke="black" points="811.5,-0.5 811.5,-19.5 972.5,-19.5 972.5,-0.5 811.5,-0.5"/>
<text text-anchor="middle" x="892" y="-7.5" font-family="Helvetica,sans-Serif" font-size="10.00">eac/gaprototypes_fkmedoid.hpp</text>
</a>
</g>
</g>
<!-- Node23&#45;&gt;Node32 -->
<g id="edge13" class="edge"><title>Node23&#45;&gt;Node32</title>
<path fill="none" stroke="midnightblue" d="M1479.07,-60.8881C1379.65,-53.3668 1163.28,-36.6315 981,-20 978.216,-19.746 975.384,-19.4832 972.523,-19.2142"/>
<polygon fill="midnightblue" stroke="midnightblue" points="1478.94,-64.3884 1489.17,-61.6516 1479.47,-57.4083 1478.94,-64.3884"/>
</g>
<!-- Node33 -->
<g id="node15" class="node"><title>Node33</title>
<g id="a_node15"><a xlink:href="gas__fkcentroid_8hpp.html" target="_top" xlink:title="GAS . ">
<polygon fill="white" stroke="black" points="990.5,-0.5 990.5,-19.5 1111.5,-19.5 1111.5,-0.5 990.5,-0.5"/>
<text text-anchor="middle" x="1051" y="-7.5" font-family="Helvetica,sans-Serif" font-size="10.00">eac/gas_fkcentroid.hpp</text>
</a>
</g>
</g>
<!-- Node23&#45;&gt;Node33 -->
<g id="edge14" class="edge"><title>Node23&#45;&gt;Node33</title>
<path fill="none" stroke="midnightblue" d="M1479,-59.4003C1399.65,-51.2359 1248.47,-35.3592 1120,-20 1117.24,-19.6702 1114.42,-19.327 1111.57,-18.9754"/>
<polygon fill="midnightblue" stroke="midnightblue" points="1478.94,-62.9124 1489.24,-60.4526 1479.65,-55.9491 1478.94,-62.9124"/>
</g>
<!-- Node34 -->
<g id="node16" class="node"><title>Node34</title>
<g id="a_node16"><a xlink:href="gca__fkmedoid_8hpp.html" target="_top" xlink:title="GCA . ">
<polygon fill="white" stroke="black" points="1129.5,-0.5 1129.5,-19.5 1248.5,-19.5 1248.5,-0.5 1129.5,-0.5"/>
<text text-anchor="middle" x="1189" y="-7.5" font-family="Helvetica,sans-Serif" font-size="10.00">eac/gca_fkmedoid.hpp</text>
</a>
</g>
</g>
<!-- Node23&#45;&gt;Node34 -->
<g id="edge15" class="edge"><title>Node23&#45;&gt;Node34</title>
<path fill="none" stroke="midnightblue" d="M1479.25,-56.4308C1414.62,-46.3137 1307.78,-29.5914 1243.33,-19.5032"/>
<polygon fill="midnightblue" stroke="midnightblue" points="1478.83,-59.9072 1489.25,-57.9958 1479.91,-52.9914 1478.83,-59.9072"/>
</g>
<!-- Node35 -->
<g id="node17" class="node"><title>Node35</title>
<g id="a_node17"><a xlink:href="gcuk__vkcentroid_8hpp.html" target="_top" xlink:title="GCUK . ">
<polygon fill="white" stroke="black" points="1267,-0.5 1267,-19.5 1395,-19.5 1395,-0.5 1267,-0.5"/>
<text text-anchor="middle" x="1331" y="-7.5" font-family="Helvetica,sans-Serif" font-size="10.00">eac/gcuk_vkcentroid.hpp</text>
</a>
</g>
</g>
<!-- Node23&#45;&gt;Node35 -->
<g id="edge16" class="edge"><title>Node23&#45;&gt;Node35</title>
<path fill="none" stroke="midnightblue" d="M1492.01,-53.8291C1453.68,-43.6333 1397.85,-28.7823 1363.02,-19.5164"/>
<polygon fill="midnightblue" stroke="midnightblue" points="1491.27,-57.2551 1501.83,-56.4435 1493.07,-50.4904 1491.27,-57.2551"/>
</g>
<!-- Node36 -->
<g id="node18" class="node"><title>Node36</title>
<g id="a_node18"><a xlink:href="gga__vklabel_8hpp.html" target="_top" xlink:title="GGA . ">
<polygon fill="white" stroke="black" points="1413,-0.5 1413,-19.5 1523,-19.5 1523,-0.5 1413,-0.5"/>
<text text-anchor="middle" x="1468" y="-7.5" font-family="Helvetica,sans-Serif" font-size="10.00">eac/gga_vklabel.hpp</text>
</a>
</g>
</g>
<!-- Node23&#45;&gt;Node36 -->
<g id="edge17" class="edge"><title>Node23&#45;&gt;Node36</title>
<path fill="none" stroke="midnightblue" d="M1515.45,-49.8197C1503.62,-40.1452 1488.71,-27.9481 1478.8,-19.8339"/>
<polygon fill="midnightblue" stroke="midnightblue" points="1513.44,-52.7004 1523.4,-56.324 1517.87,-47.2827 1513.44,-52.7004"/>
</g>
<!-- Node37 -->
<g id="node19" class="node"><title>Node37</title>
<g id="a_node19"><a xlink:href="gka__fklabel_8hpp.html" target="_top" xlink:title="GKA Clustering . ">
<polygon fill="white" stroke="black" points="2729.5,-0.5 2729.5,-19.5 2836.5,-19.5 2836.5,-0.5 2729.5,-0.5"/>
<text text-anchor="middle" x="2783" y="-7.5" font-family="Helvetica,sans-Serif" font-size="10.00">eac/gka_fklabel.hpp</text>
</a>
</g>
</g>
<!-- Node23&#45;&gt;Node37 -->
<g id="edge18" class="edge"><title>Node23&#45;&gt;Node37</title>
<path fill="none" stroke="midnightblue" d="M1588.94,-62.8394C1635.74,-61.0036 1704.78,-58.3068 1765,-56 2189.88,-39.7234 2297.57,-58.5952 2721,-20 2723.71,-19.7532 2726.48,-19.4687 2729.27,-19.1564"/>
<polygon fill="midnightblue" stroke="midnightblue" points="1588.57,-59.3511 1578.71,-63.2406 1588.84,-66.3457 1588.57,-59.3511"/>
</g>
<!-- Node38 -->
<g id="node20" class="node"><title>Node38</title>
<g id="a_node20"><a xlink:href="hka__fkmedoid_8hpp.html" target="_top" xlink:title="HKA . ">
<polygon fill="white" stroke="black" points="1541.5,-0.5 1541.5,-19.5 1660.5,-19.5 1660.5,-0.5 1541.5,-0.5"/>
<text text-anchor="middle" x="1601" y="-7.5" font-family="Helvetica,sans-Serif" font-size="10.00">eac/hka_fkmedoid.hpp</text>
</a>
</g>
</g>
<!-- Node23&#45;&gt;Node38 -->
<g id="edge19" class="edge"><title>Node23&#45;&gt;Node38</title>
<path fill="none" stroke="midnightblue" d="M1552.83,-49.8197C1564.84,-40.1452 1579.97,-27.9481 1590.04,-19.8339"/>
<polygon fill="midnightblue" stroke="midnightblue" points="1550.35,-47.3236 1544.76,-56.324 1554.75,-52.7738 1550.35,-47.3236"/>
</g>
<!-- Node39 -->
<g id="node21" class="node"><title>Node39</title>
<g id="a_node21"><a xlink:href="igka__fklabel_8hpp.html" target="_top" xlink:title="IGKA &#160;and FGKA . ">
<polygon fill="white" stroke="black" points="1678.5,-0.5 1678.5,-19.5 1787.5,-19.5 1787.5,-0.5 1678.5,-0.5"/>
<text text-anchor="middle" x="1733" y="-7.5" font-family="Helvetica,sans-Serif" font-size="10.00">eac/igka_fklabel.hpp</text>
</a>
</g>
</g>
<!-- Node23&#45;&gt;Node39 -->
<g id="edge20" class="edge"><title>Node23&#45;&gt;Node39</title>
<path fill="none" stroke="midnightblue" d="M1575.65,-53.6986C1613.21,-43.507 1667.61,-28.7429 1701.62,-19.5164"/>
<polygon fill="midnightblue" stroke="midnightblue" points="1574.27,-50.4468 1565.53,-56.4435 1576.1,-57.2025 1574.27,-50.4468"/>
</g>
<!-- Node40 -->
<g id="node22" class="node"><title>Node40</title>
<g id="a_node22"><a xlink:href="kga__fkcentroid_8hpp.html" target="_top" xlink:title="KGA . ">
<polygon fill="white" stroke="black" points="1805.5,-0.5 1805.5,-19.5 1926.5,-19.5 1926.5,-0.5 1805.5,-0.5"/>
<text text-anchor="middle" x="1866" y="-7.5" font-family="Helvetica,sans-Serif" font-size="10.00">eac/kga_fkcentroid.hpp</text>
</a>
</g>
</g>
<!-- Node23&#45;&gt;Node40 -->
<g id="edge21" class="edge"><title>Node23&#45;&gt;Node40</title>
<path fill="none" stroke="midnightblue" d="M1588.81,-56.0854C1651.12,-45.9506 1752.12,-29.5225 1813.47,-19.5441"/>
<polygon fill="midnightblue" stroke="midnightblue" points="1588.08,-52.6572 1578.77,-57.7173 1589.21,-59.5664 1588.08,-52.6572"/>
</g>
<!-- Node41 -->
<g id="node23" class="node"><title>Node41</title>
<g id="a_node23"><a xlink:href="main__gas__clustering_8cpp.html" target="_top" xlink:title="Main program of Evolutionary Algorithms. ">
<polygon fill="white" stroke="black" points="1944.5,-0.5 1944.5,-19.5 2091.5,-19.5 2091.5,-0.5 1944.5,-0.5"/>
<text text-anchor="middle" x="2018" y="-7.5" font-family="Helvetica,sans-Serif" font-size="10.00">eac/main_gas_clustering.cpp</text>
</a>
</g>
</g>
<!-- Node23&#45;&gt;Node41 -->
<g id="edge22" class="edge"><title>Node23&#45;&gt;Node41</title>
<path fill="none" stroke="midnightblue" d="M1588.61,-58.9072C1675.71,-49.1894 1846.22,-30.166 1944.13,-19.2418"/>
<polygon fill="midnightblue" stroke="midnightblue" points="1588.22,-55.4293 1578.67,-60.0166 1588.99,-62.3861 1588.22,-55.4293"/>
</g>
<!-- Node42 -->
<g id="node24" class="node"><title>Node42</title>
<g id="a_node24"><a xlink:href="tgca__vkcentroid_8hpp.html" target="_top" xlink:title="TGCA . ">
<polygon fill="white" stroke="black" points="2110,-0.5 2110,-19.5 2236,-19.5 2236,-0.5 2110,-0.5"/>
<text text-anchor="middle" x="2173" y="-7.5" font-family="Helvetica,sans-Serif" font-size="10.00">eac/tgca_vkcentroid.hpp</text>
</a>
</g>
</g>
<!-- Node23&#45;&gt;Node42 -->
<g id="edge23" class="edge"><title>Node23&#45;&gt;Node42</title>
<path fill="none" stroke="midnightblue" d="M1588.52,-61.4955C1689.66,-54.8107 1913.19,-39.1812 2101,-20 2103.88,-19.7056 2106.83,-19.3915 2109.8,-19.0635"/>
<polygon fill="midnightblue" stroke="midnightblue" points="1588.28,-58.0032 1578.54,-62.1523 1588.74,-64.9881 1588.28,-58.0032"/>
</g>
<!-- Node43&#45;&gt;Node23 -->
<g id="edge25" class="edge"><title>Node43&#45;&gt;Node23</title>
<path fill="none" stroke="midnightblue" d="M1369.16,-170.287C1359.98,-152.673 1352.15,-128.718 1365,-112 1380.08,-92.3799 1444.47,-79.5013 1489.26,-72.7335"/>
<polygon fill="midnightblue" stroke="midnightblue" points="1366.31,-172.356 1374.29,-179.334 1372.41,-168.907 1366.31,-172.356"/>
</g>
<!-- Node44&#45;&gt;Node23 -->
<g id="edge27" class="edge"><title>Node44&#45;&gt;Node23</title>
<path fill="none" stroke="midnightblue" d="M1471.16,-106.776C1487.82,-96.2315 1507.49,-83.7834 1520.32,-75.6578"/>
<polygon fill="midnightblue" stroke="midnightblue" points="1468.85,-104.094 1462.28,-112.399 1472.6,-110.008 1468.85,-104.094"/>
</g>
<!-- Node45&#45;&gt;Node22 -->
<g id="edge29" class="edge"><title>Node45&#45;&gt;Node22</title>
<path fill="none" stroke="midnightblue" d="M1716.77,-174.575C1697.74,-164.35 1674.63,-151.94 1657.2,-142.577"/>
<polygon fill="midnightblue" stroke="midnightblue" points="1715.28,-177.747 1725.74,-179.396 1718.59,-171.58 1715.28,-177.747"/>
</g>
<!-- Node45&#45;&gt;Node23 -->
<g id="edge30" class="edge"><title>Node45&#45;&gt;Node23</title>
<path fill="none" stroke="midnightblue" d="M1741.62,-170.231C1732.24,-151.808 1716.73,-126.794 1696,-112 1661.31,-87.2428 1613.5,-76.0877 1578.81,-71.0723"/>
<polygon fill="midnightblue" stroke="midnightblue" points="1738.56,-171.955 1746.07,-179.427 1744.86,-168.902 1738.56,-171.955"/>
</g>
<!-- Node45&#45;&gt;Node37 -->
<g id="edge31" class="edge"><title>Node45&#45;&gt;Node37</title>
<path fill="none" stroke="midnightblue" d="M1811.97,-182.884C1998.39,-149.886 2565.35,-49.527 2734.72,-19.546"/>
<polygon fill="midnightblue" stroke="midnightblue" points="1811.31,-179.446 1802.08,-184.636 1812.53,-186.339 1811.31,-179.446"/>
</g>
</g>
</svg>
        <g id="navigator" transform="translate(0 0)" fill="#404254">
                <rect fill="#f2f5e9" fill-opacity="0.5" stroke="#606060" stroke-width=".5" x="0" y="0" width="60" height="60"/>
                <use id="zoomplus" xlink:href="#zoomPlus" x="17" y="9" onmousedown="handleZoom(evt,'in')"/>
                <use id="zoomminus" xlink:href="#zoomMin" x="42" y="9" onmousedown="handleZoom(evt,'out')"/>
                <use id="reset" xlink:href="#resetDef" x="30" y="36" onmousedown="handleReset()"/>
                <g id="arrowUp" xlink:href="#dirArrow" transform="translate(30 24)" onmousedown="handlePan(0,-1)">
                  <use xlink:href="#rim" fill="#404040">
                        <set attributeName="fill" to="#808080" begin="arrowUp.mouseover" end="arrowUp.mouseout"/>
                  </use>
                  <path fill="none" stroke="white" stroke-width="1.5" d="M0,-3.0v7 M-2.5,-0.5L0,-3.0L2.5,-0.5"/>
                </g>
                <g id="arrowRight" xlink:href="#dirArrow" transform="rotate(90) translate(36 -43)" onmousedown="handlePan(1,0)">
                  <use xlink:href="#rim" fill="#404040">
                        <set attributeName="fill" to="#808080" begin="arrowRight.mouseover" end="arrowRight.mouseout"/>
                  </use>
                  <path fill="none" stroke="white" stroke-width="1.5" d="M0,-3.0v7 M-2.5,-0.5L0,-3.0L2.5,-0.5"/>
                </g>
                <g id="arrowDown" xlink:href="#dirArrow" transform="rotate(180) translate(-30 -48)" onmousedown="handlePan(0,1)">
                  <use xlink:href="#rim" fill="#404040">
                        <set attributeName="fill" to="#808080" begin="arrowDown.mouseover" end="arrowDown.mouseout"/>
                  </use>
                  <path fill="none" stroke="white" stroke-width="1.5" d="M0,-3.0v7 M-2.5,-0.5L0,-3.0L2.5,-0.5"/>
                </g>
                <g id="arrowLeft" xlink:href="#dirArrow" transform="rotate(270) translate(-36 17)" onmousedown="handlePan(-1,0)">
                  <use xlink:href="#rim" fill="#404040">
                        <set attributeName="fill" to="#808080" begin="arrowLeft.mouseover" end="arrowLeft.mouseout"/>
                  </use>
                  <path fill="none" stroke="white" stroke-width="1.5" d="M0,-3.0v7 M-2.5,-0.5L0,-3.0L2.5,-0.5"/>
                </g>
        </g>
        <svg viewBox="0 0 15 15" width="100%" height="30px" preserveAspectRatio="xMaxYMin meet">
         <g id="arrow_out" transform="scale(0.3 0.3)">
          <a xlink:href="partition__label_8hpp__dep__incl_org.svg" target="_base">
           <rect id="button" ry="5" rx="5" y="6" x="6" height="38" width="38"
                fill="#f2f5e9" fill-opacity="0.5" stroke="#606060" stroke-width="1.0"/>
           <path id="arrow"
             d="M 11.500037,31.436501 C 11.940474,20.09759 22.043105,11.32322 32.158766,21.979434 L 37.068811,17.246167 C 37.068811,17.246167 37.088388,32 37.088388,32 L 22.160133,31.978069 C 22.160133,31.978069 26.997745,27.140456 26.997745,27.140456 C 18.528582,18.264221 13.291696,25.230495 11.500037,31.436501 z"
             style="fill:#404040;"/>
          </a>
         </g>
        </svg>
</svg>
