<?xml version="1.0" encoding="UTF-8" standalone="no"?>
<!DOCTYPE svg PUBLIC "-//W3C//DTD SVG 1.1//EN"
 "http://www.w3.org/Graphics/SVG/1.1/DTD/svg11.dtd">
<!-- Generated by graphviz version 2.38.0 (20140413.2041)
 -->
<!-- Title: include/partition_labelvector.hpp Pages: 1 -->
<svg width="589pt" height="252pt"
 viewBox="0.00 0.00 588.50 252.00" xmlns="http://www.w3.org/2000/svg" xmlns:xlink="http://www.w3.org/1999/xlink">
<g id="graph0" class="graph" transform="scale(1 1) rotate(0) translate(4 248)">
<title>include/partition_labelvector.hpp</title>
<polygon fill="white" stroke="none" points="-4,4 -4,-248 584.5,-248 584.5,4 -4,4"/>
<!-- Node0 -->
<g id="node1" class="node"><title>Node0</title>
<polygon fill="#bfbfbf" stroke="black" points="10,-224.5 10,-243.5 169,-243.5 169,-224.5 10,-224.5"/>
<text text-anchor="middle" x="89.5" y="-231.5" font-family="Helvetica,sans-Serif" font-size="10.00">include/partition_labelvector.hpp</text>
</g>
<!-- Node1 -->
<g id="node2" class="node"><title>Node1</title>
<polygon fill="white" stroke="#bfbfbf" points="29.5,-112.5 29.5,-131.5 73.5,-131.5 73.5,-112.5 29.5,-112.5"/>
<text text-anchor="middle" x="51.5" y="-119.5" font-family="Helvetica,sans-Serif" font-size="10.00">vector</text>
</g>
<!-- Node0&#45;&gt;Node1 -->
<g id="edge1" class="edge"><title>Node0&#45;&gt;Node1</title>
<path fill="none" stroke="midnightblue" d="M86.5182,-224.368C80.3581,-206.537 66.1111,-165.295 57.8121,-141.272"/>
<polygon fill="midnightblue" stroke="midnightblue" points="61.0414,-139.9 54.4679,-131.591 54.425,-142.186 61.0414,-139.9"/>
</g>
<!-- Node2 -->
<g id="node3" class="node"><title>Node2</title>
<g id="a_node3"><a xlink:href="partition_8hpp.html" target="_top" xlink:title="partition ">
<polygon fill="white" stroke="black" points="18,-56.5 18,-75.5 87,-75.5 87,-56.5 18,-56.5"/>
<text text-anchor="middle" x="52.5" y="-63.5" font-family="Helvetica,sans-Serif" font-size="10.00">partition.hpp</text>
</a>
</g>
</g>
<!-- Node0&#45;&gt;Node2 -->
<g id="edge2" class="edge"><title>Node0&#45;&gt;Node2</title>
<path fill="none" stroke="midnightblue" d="M80.7297,-224.268C64.9897,-207.902 32.4737,-170.753 20.5,-132 17.876,-123.507 17.7962,-120.468 20.5,-112 23.8406,-101.538 30.5998,-91.4277 37.0488,-83.4496"/>
<polygon fill="midnightblue" stroke="midnightblue" points="39.8477,-85.5641 43.7486,-75.7136 34.5562,-80.9815 39.8477,-85.5641"/>
</g>
<!-- Node7 -->
<g id="node8" class="node"><title>Node7</title>
<g id="a_node8"><a xlink:href="common_8hpp.html" target="_top" xlink:title="common ">
<polygon fill="white" stroke="black" points="91.5,-112.5 91.5,-131.5 165.5,-131.5 165.5,-112.5 91.5,-112.5"/>
<text text-anchor="middle" x="128.5" y="-119.5" font-family="Helvetica,sans-Serif" font-size="10.00">common.hpp</text>
</a>
</g>
</g>
<!-- Node0&#45;&gt;Node7 -->
<g id="edge7" class="edge"><title>Node0&#45;&gt;Node7</title>
<path fill="none" stroke="midnightblue" d="M92.5603,-224.368C98.8825,-206.537 113.504,-165.295 122.022,-141.272"/>
<polygon fill="midnightblue" stroke="midnightblue" points="125.411,-142.186 125.454,-131.591 118.813,-139.847 125.411,-142.186"/>
</g>
<!-- Node10 -->
<g id="node11" class="node"><title>Node10</title>
<g id="a_node11"><a xlink:href="container__out_8hpp.html" target="_top" xlink:title="container out ">
<polygon fill="white" stroke="black" points="236,-168.5 236,-187.5 331,-187.5 331,-168.5 236,-168.5"/>
<text text-anchor="middle" x="283.5" y="-175.5" font-family="Helvetica,sans-Serif" font-size="10.00">container_out.hpp</text>
</a>
</g>
</g>
<!-- Node0&#45;&gt;Node10 -->
<g id="edge10" class="edge"><title>Node0&#45;&gt;Node10</title>
<path fill="none" stroke="midnightblue" d="M120.24,-224.444C153.444,-215.201 206.491,-200.436 243.057,-190.257"/>
<polygon fill="midnightblue" stroke="midnightblue" points="244.209,-193.57 252.904,-187.516 242.332,-186.826 244.209,-193.57"/>
</g>
<!-- Node3 -->
<g id="node4" class="node"><title>Node3</title>
<polygon fill="white" stroke="#bfbfbf" points="353.5,-0.5 353.5,-19.5 409.5,-19.5 409.5,-0.5 353.5,-0.5"/>
<text text-anchor="middle" x="381.5" y="-7.5" font-family="Helvetica,sans-Serif" font-size="10.00">iostream</text>
</g>
<!-- Node2&#45;&gt;Node3 -->
<g id="edge3" class="edge"><title>Node2&#45;&gt;Node3</title>
<path fill="none" stroke="midnightblue" d="M87.1976,-57.5428C90.0025,-56.9994 92.7962,-56.4779 95.5,-56 202.492,-37.088 233.004,-40.9912 343.417,-20.0524"/>
<polygon fill="midnightblue" stroke="midnightblue" points="344.119,-23.4817 353.279,-18.1571 342.798,-16.6075 344.119,-23.4817"/>
</g>
<!-- Node4 -->
<g id="node5" class="node"><title>Node4</title>
<polygon fill="white" stroke="#bfbfbf" points="175.5,-0.5 175.5,-19.5 225.5,-19.5 225.5,-0.5 175.5,-0.5"/>
<text text-anchor="middle" x="200.5" y="-7.5" font-family="Helvetica,sans-Serif" font-size="10.00">fstream</text>
</g>
<!-- Node2&#45;&gt;Node4 -->
<g id="edge4" class="edge"><title>Node2&#45;&gt;Node4</title>
<path fill="none" stroke="midnightblue" d="M75.951,-56.4435C100.633,-47.4381 139.685,-33.1891 167.477,-23.049"/>
<polygon fill="midnightblue" stroke="midnightblue" points="168.964,-26.2321 177.159,-19.5164 166.565,-19.6561 168.964,-26.2321"/>
</g>
<!-- Node5 -->
<g id="node6" class="node"><title>Node5</title>
<polygon fill="white" stroke="#bfbfbf" points="59,-0.5 59,-19.5 112,-19.5 112,-0.5 59,-0.5"/>
<text text-anchor="middle" x="85.5" y="-7.5" font-family="Helvetica,sans-Serif" font-size="10.00">sstream</text>
</g>
<!-- Node2&#45;&gt;Node5 -->
<g id="edge5" class="edge"><title>Node2&#45;&gt;Node5</title>
<path fill="none" stroke="midnightblue" d="M57.9493,-56.083C62.5145,-48.6127 69.1684,-37.7244 74.7934,-28.5199"/>
<polygon fill="midnightblue" stroke="midnightblue" points="77.9241,-30.109 80.1521,-19.7511 71.9511,-26.4588 77.9241,-30.109"/>
</g>
<!-- Node6 -->
<g id="node7" class="node"><title>Node6</title>
<polygon fill="white" stroke="#bfbfbf" points="0,-0.5 0,-19.5 41,-19.5 41,-0.5 0,-0.5"/>
<text text-anchor="middle" x="20.5" y="-7.5" font-family="Helvetica,sans-Serif" font-size="10.00">string</text>
</g>
<!-- Node2&#45;&gt;Node6 -->
<g id="edge6" class="edge"><title>Node2&#45;&gt;Node6</title>
<path fill="none" stroke="midnightblue" d="M47.2159,-56.083C42.789,-48.6127 36.3367,-37.7244 30.8821,-28.5199"/>
<polygon fill="midnightblue" stroke="midnightblue" points="33.7949,-26.5697 25.6858,-19.7511 27.7729,-30.1383 33.7949,-26.5697"/>
</g>
<!-- Node8 -->
<g id="node9" class="node"><title>Node8</title>
<polygon fill="white" stroke="#bfbfbf" points="105,-56.5 105,-75.5 152,-75.5 152,-56.5 105,-56.5"/>
<text text-anchor="middle" x="128.5" y="-63.5" font-family="Helvetica,sans-Serif" font-size="10.00">stdint.h</text>
</g>
<!-- Node7&#45;&gt;Node8 -->
<g id="edge8" class="edge"><title>Node7&#45;&gt;Node8</title>
<path fill="none" stroke="midnightblue" d="M128.5,-112.083C128.5,-105.006 128.5,-94.8611 128.5,-85.9865"/>
<polygon fill="midnightblue" stroke="midnightblue" points="132,-85.751 128.5,-75.7511 125,-85.7511 132,-85.751"/>
</g>
<!-- Node9 -->
<g id="node10" class="node"><title>Node9</title>
<polygon fill="white" stroke="#bfbfbf" points="170,-56.5 170,-75.5 209,-75.5 209,-56.5 170,-56.5"/>
<text text-anchor="middle" x="189.5" y="-63.5" font-family="Helvetica,sans-Serif" font-size="10.00">limits</text>
</g>
<!-- Node7&#45;&gt;Node9 -->
<g id="edge9" class="edge"><title>Node7&#45;&gt;Node9</title>
<path fill="none" stroke="midnightblue" d="M138.301,-112.324C147.318,-104.341 160.906,-92.3128 171.818,-82.6529"/>
<polygon fill="midnightblue" stroke="midnightblue" points="174.353,-85.083 179.521,-75.8339 169.713,-79.8416 174.353,-85.083"/>
</g>
<!-- Node10&#45;&gt;Node1 -->
<g id="edge12" class="edge"><title>Node10&#45;&gt;Node1</title>
<path fill="none" stroke="midnightblue" d="M241.744,-168.444C203.114,-160.353 143.883,-147.501 83.8377,-132.229"/>
<polygon fill="midnightblue" stroke="midnightblue" points="84.3614,-128.75 73.8054,-129.656 82.6225,-135.53 84.3614,-128.75"/>
</g>
<!-- Node10&#45;&gt;Node3 -->
<g id="edge11" class="edge"><title>Node10&#45;&gt;Node3</title>
<path fill="none" stroke="midnightblue" d="M331.139,-170.569C374.914,-163.566 435.122,-150.795 449.5,-132 476.418,-96.813 429.601,-49.7585 401.073,-26.0307"/>
<polygon fill="midnightblue" stroke="midnightblue" points="403.229,-23.2733 393.248,-19.7197 398.835,-28.722 403.229,-23.2733"/>
</g>
<!-- Node10&#45;&gt;Node7 -->
<g id="edge17" class="edge"><title>Node10&#45;&gt;Node7</title>
<path fill="none" stroke="midnightblue" d="M258.94,-168.444C232.977,-159.399 191.832,-145.064 162.703,-134.916"/>
<polygon fill="midnightblue" stroke="midnightblue" points="163.54,-131.501 152.945,-131.516 161.237,-138.112 163.54,-131.501"/>
</g>
<!-- Node11 -->
<g id="node12" class="node"><title>Node11</title>
<polygon fill="white" stroke="#bfbfbf" points="497,-112.5 497,-131.5 526,-131.5 526,-112.5 497,-112.5"/>
<text text-anchor="middle" x="511.5" y="-119.5" font-family="Helvetica,sans-Serif" font-size="10.00">list</text>
</g>
<!-- Node10&#45;&gt;Node11 -->
<g id="edge13" class="edge"><title>Node10&#45;&gt;Node11</title>
<path fill="none" stroke="midnightblue" d="M325.663,-168.47C366.106,-160.051 428.782,-146.385 482.5,-132 483.964,-131.608 485.465,-131.19 486.976,-130.758"/>
<polygon fill="midnightblue" stroke="midnightblue" points="488.242,-134.033 496.812,-127.804 486.228,-127.328 488.242,-134.033"/>
</g>
<!-- Node12 -->
<g id="node13" class="node"><title>Node12</title>
<polygon fill="white" stroke="#bfbfbf" points="544.5,-112.5 544.5,-131.5 580.5,-131.5 580.5,-112.5 544.5,-112.5"/>
<text text-anchor="middle" x="562.5" y="-119.5" font-family="Helvetica,sans-Serif" font-size="10.00">map</text>
</g>
<!-- Node10&#45;&gt;Node12 -->
<g id="edge14" class="edge"><title>Node10&#45;&gt;Node12</title>
<path fill="none" stroke="midnightblue" d="M331.314,-170.573C380.238,-163.527 458.545,-150.954 534.567,-131.938"/>
<polygon fill="midnightblue" stroke="midnightblue" points="535.477,-135.318 544.307,-129.463 533.753,-128.534 535.477,-135.318"/>
</g>
<!-- Node13 -->
<g id="node14" class="node"><title>Node13</title>
<polygon fill="white" stroke="#bfbfbf" points="183.5,-112.5 183.5,-131.5 241.5,-131.5 241.5,-112.5 183.5,-112.5"/>
<text text-anchor="middle" x="212.5" y="-119.5" font-family="Helvetica,sans-Serif" font-size="10.00">algorithm</text>
</g>
<!-- Node10&#45;&gt;Node13 -->
<g id="edge15" class="edge"><title>Node10&#45;&gt;Node13</title>
<path fill="none" stroke="midnightblue" d="M272.093,-168.324C261.391,-160.185 245.159,-147.839 232.337,-138.087"/>
<polygon fill="midnightblue" stroke="midnightblue" points="234.193,-135.102 224.115,-131.834 229.956,-140.673 234.193,-135.102"/>
</g>
<!-- Node14 -->
<g id="node15" class="node"><title>Node14</title>
<polygon fill="white" stroke="#bfbfbf" points="260,-112.5 260,-131.5 307,-131.5 307,-112.5 260,-112.5"/>
<text text-anchor="middle" x="283.5" y="-119.5" font-family="Helvetica,sans-Serif" font-size="10.00">iterator</text>
</g>
<!-- Node10&#45;&gt;Node14 -->
<g id="edge16" class="edge"><title>Node10&#45;&gt;Node14</title>
<path fill="none" stroke="midnightblue" d="M283.5,-168.083C283.5,-161.006 283.5,-150.861 283.5,-141.986"/>
<polygon fill="midnightblue" stroke="midnightblue" points="287,-141.751 283.5,-131.751 280,-141.751 287,-141.751"/>
</g>
<!-- Node15 -->
<g id="node16" class="node"><title>Node15</title>
<g id="a_node16"><a xlink:href="insertion__operator_8hpp.html" target="_top" xlink:title="insertion operator ">
<polygon fill="white" stroke="black" points="325,-112.5 325,-131.5 440,-131.5 440,-112.5 325,-112.5"/>
<text text-anchor="middle" x="382.5" y="-119.5" font-family="Helvetica,sans-Serif" font-size="10.00">insertion_operator.hpp</text>
</a>
</g>
</g>
<!-- Node10&#45;&gt;Node15 -->
<g id="edge18" class="edge"><title>Node10&#45;&gt;Node15</title>
<path fill="none" stroke="midnightblue" d="M299.406,-168.324C315.138,-159.743 339.442,-146.486 357.709,-136.522"/>
<polygon fill="midnightblue" stroke="midnightblue" points="359.53,-139.516 366.633,-131.655 356.178,-133.37 359.53,-139.516"/>
</g>
<!-- Node15&#45;&gt;Node3 -->
<g id="edge19" class="edge"><title>Node15&#45;&gt;Node3</title>
<path fill="none" stroke="midnightblue" d="M382.422,-112.368C382.26,-94.617 381.888,-53.6664 381.669,-29.5974"/>
<polygon fill="midnightblue" stroke="midnightblue" points="385.169,-29.5592 381.578,-19.5914 378.169,-29.6229 385.169,-29.5592"/>
</g>
<!-- Node16 -->
<g id="node17" class="node"><title>Node16</title>
<g id="a_node17"><a xlink:href="outfilename_8hpp.html" target="_top" xlink:title="out file name ">
<polygon fill="white" stroke="black" points="268.5,-56.5 268.5,-75.5 354.5,-75.5 354.5,-56.5 268.5,-56.5"/>
<text text-anchor="middle" x="311.5" y="-63.5" font-family="Helvetica,sans-Serif" font-size="10.00">outfilename.hpp</text>
</a>
</g>
</g>
<!-- Node15&#45;&gt;Node16 -->
<g id="edge20" class="edge"><title>Node15&#45;&gt;Node16</title>
<path fill="none" stroke="midnightblue" d="M371.093,-112.324C360.391,-104.185 344.159,-91.8395 331.337,-82.0874"/>
<polygon fill="midnightblue" stroke="midnightblue" points="333.193,-79.1018 323.115,-75.8339 328.956,-84.6734 333.193,-79.1018"/>
</g>
<!-- Node16&#45;&gt;Node3 -->
<g id="edge21" class="edge"><title>Node16&#45;&gt;Node3</title>
<path fill="none" stroke="midnightblue" d="M322.747,-56.324C333.297,-48.1849 349.301,-35.8395 361.942,-26.0874"/>
<polygon fill="midnightblue" stroke="midnightblue" points="364.269,-28.7132 370.049,-19.8339 359.993,-23.1707 364.269,-28.7132"/>
</g>
<!-- Node16&#45;&gt;Node4 -->
<g id="edge22" class="edge"><title>Node16&#45;&gt;Node4</title>
<path fill="none" stroke="midnightblue" d="M293.666,-56.324C275.784,-47.6247 248.025,-34.1202 227.454,-24.113"/>
<polygon fill="midnightblue" stroke="midnightblue" points="228.813,-20.8819 218.29,-19.6545 225.751,-27.1765 228.813,-20.8819"/>
</g>
<!-- Node17 -->
<g id="node18" class="node"><title>Node17</title>
<polygon fill="white" stroke="#bfbfbf" points="287.5,-0.5 287.5,-19.5 335.5,-19.5 335.5,-0.5 287.5,-0.5"/>
<text text-anchor="middle" x="311.5" y="-7.5" font-family="Helvetica,sans-Serif" font-size="10.00">string.h</text>
</g>
<!-- Node16&#45;&gt;Node17 -->
<g id="edge23" class="edge"><title>Node16&#45;&gt;Node17</title>
<path fill="none" stroke="midnightblue" d="M311.5,-56.083C311.5,-49.0059 311.5,-38.8611 311.5,-29.9865"/>
<polygon fill="midnightblue" stroke="midnightblue" points="315,-29.751 311.5,-19.7511 308,-29.7511 315,-29.751"/>
</g>
</g>
</svg>
