<?xml version="1.0" encoding="UTF-8" standalone="no"?>
<!DOCTYPE svg PUBLIC "-//W3C//DTD SVG 1.1//EN"
 "http://www.w3.org/Graphics/SVG/1.1/DTD/svg11.dtd">
<!-- Generated by graphviz version 2.38.0 (20140413.2041)
 -->
<!-- Title: include/partition_centroids.hpp Pages: 1 -->
<!--zoomable 308 -->
<svg id="main" version="1.1" xmlns="http://www.w3.org/2000/svg" xmlns:xlink="http://www.w3.org/1999/xlink" xml:space="preserve" onload="init(evt)">
<style type="text/css"><![CDATA[
.edge:hover path { stroke: red; }
.edge:hover polygon { stroke: red; fill: red; }
]]></style>
<script type="text/javascript"><![CDATA[
var edges = document.getElementsByTagName('g');
if (edges && edges.length) {
  for (var i=0;i<edges.length;i++) {
    if (edges[i].id.substr(0,4)=='edge') {
      edges[i].setAttribute('class','edge');
    }
  }
}
]]></script>
        <defs>
                <circle id="rim" cx="0" cy="0" r="7"/>
                <circle id="rim2" cx="0" cy="0" r="3.5"/>
                <g id="zoomPlus">
                        <use xlink:href="#rim" fill="#404040">
                                <set attributeName="fill" to="#808080" begin="zoomplus.mouseover" end="zoomplus.mouseout"/>
                        </use>
                        <path d="M-4,0h8M0,-4v8" fill="none" stroke="white" stroke-width="1.5" pointer-events="none"/>
                </g>
                <g id="zoomMin">
                        <use xlink:href="#rim" fill="#404040">
                                <set attributeName="fill" to="#808080" begin="zoomminus.mouseover" end="zoomminus.mouseout"/>
                        </use>
                        <path d="M-4,0h8" fill="none" stroke="white" stroke-width="1.5" pointer-events="none"/>
                </g>
                <g id="dirArrow">
                        <path fill="none" stroke="white" stroke-width="1.5" d="M0,-3.0v7 M-2.5,-0.5L0,-3.0L2.5,-0.5"/>
                </g>
               <g id="resetDef">
                       <use xlink:href="#rim2" fill="#404040">
                               <set attributeName="fill" to="#808080" begin="reset.mouseover" end="reset.mouseout"/>
                       </use>
               </g>
        </defs>

<script type="text/javascript">
var viewWidth = 1291;
var viewHeight = 308;
var sectionId = 'dynsection-0';
</script>
<script xlink:href="svgpan.js"/>
<svg id="graph" class="graph">
<g id="viewport">
<title>include/partition_centroids.hpp</title>
<polygon fill="white" stroke="none" points="-4,4 -4,-304 1286.92,-304 1286.92,4 -4,4"/>
<!-- Node0 -->
<g id="node1" class="node"><title>Node0</title>
<g id="a_node1"><a xlink:title="Partition based on centroids.">
<polygon fill="#bfbfbf" stroke="black" points="785.5,-280.5 785.5,-299.5 936.5,-299.5 936.5,-280.5 785.5,-280.5"/>
<text text-anchor="middle" x="861" y="-287.5" font-family="Helvetica,sans-Serif" font-size="10.00">include/partition_centroids.hpp</text>
</a>
</g>
</g>
<!-- Node1 -->
<g id="node2" class="node"><title>Node1</title>
<g id="a_node2"><a xlink:title=" ">
<polygon fill="white" stroke="#bfbfbf" points="0,-56.5 0,-75.5 50,-75.5 50,-56.5 0,-56.5"/>
<text text-anchor="middle" x="25" y="-63.5" font-family="Helvetica,sans-Serif" font-size="10.00">cassert</text>
</a>
</g>
</g>
<!-- Node0&#45;&gt;Node1 -->
<g id="edge1" class="edge"><title>Node0&#45;&gt;Node1</title>
<path fill="none" stroke="midnightblue" d="M797.34,-280.465C738.626,-272.267 649.144,-258.948 572,-244 356.086,-202.164 282.279,-238.761 90,-132 68.5087,-120.067 49.3478,-98.9624 37.4933,-84.0428"/>
<polygon fill="midnightblue" stroke="midnightblue" points="39.9578,-81.5042 31.1009,-75.6899 34.3989,-85.7584 39.9578,-81.5042"/>
</g>
<!-- Node2 -->
<g id="node3" class="node"><title>Node2</title>
<g id="a_node3"><a xlink:title=" ">
<polygon fill="white" stroke="#bfbfbf" points="1135.5,-224.5 1135.5,-243.5 1182.5,-243.5 1182.5,-224.5 1135.5,-224.5"/>
<text text-anchor="middle" x="1159" y="-231.5" font-family="Helvetica,sans-Serif" font-size="10.00">iterator</text>
</a>
</g>
</g>
<!-- Node0&#45;&gt;Node2 -->
<g id="edge2" class="edge"><title>Node0&#45;&gt;Node2</title>
<path fill="none" stroke="midnightblue" d="M921.316,-280.481C972.924,-272.801 1049.37,-260.502 1125.08,-244.015"/>
<polygon fill="midnightblue" stroke="midnightblue" points="1126.26,-247.339 1135.28,-241.769 1124.76,-240.503 1126.26,-247.339"/>
</g>
<!-- Node3 -->
<g id="node4" class="node"><title>Node3</title>
<g id="a_node4"><a xlink:href="partition_8hpp.html" target="_top" xlink:title="partition">
<polygon fill="white" stroke="black" points="589.5,-112.5 589.5,-131.5 658.5,-131.5 658.5,-112.5 589.5,-112.5"/>
<text text-anchor="middle" x="624" y="-119.5" font-family="Helvetica,sans-Serif" font-size="10.00">partition.hpp</text>
</a>
</g>
</g>
<!-- Node0&#45;&gt;Node3 -->
<g id="edge3" class="edge"><title>Node0&#45;&gt;Node3</title>
<path fill="none" stroke="midnightblue" d="M848.592,-280.309C810.117,-253.36 692.544,-171.01 644.64,-137.457"/>
<polygon fill="midnightblue" stroke="midnightblue" points="646.484,-134.475 636.286,-131.605 642.468,-140.209 646.484,-134.475"/>
</g>
<!-- Node8 -->
<g id="node9" class="node"><title>Node8</title>
<g id="a_node9"><a xlink:href="matrix_8hpp.html" target="_top" xlink:title="matrix">
<polygon fill="white" stroke="black" points="346,-168.5 346,-187.5 408,-187.5 408,-168.5 346,-168.5"/>
<text text-anchor="middle" x="377" y="-175.5" font-family="Helvetica,sans-Serif" font-size="10.00">matrix.hpp</text>
</a>
</g>
</g>
<!-- Node0&#45;&gt;Node8 -->
<g id="edge8" class="edge"><title>Node0&#45;&gt;Node8</title>
<path fill="none" stroke="midnightblue" d="M823.424,-280.46C734.26,-260.195 510.464,-209.333 417.979,-188.313"/>
<polygon fill="midnightblue" stroke="midnightblue" points="418.672,-184.882 408.145,-186.079 417.121,-191.708 418.672,-184.882"/>
</g>
<!-- Node19 -->
<g id="node20" class="node"><title>Node19</title>
<g id="a_node20"><a xlink:href="verbose__global_8hpp.html" target="_top" xlink:title="verbose global">
<polygon fill="white" stroke="black" points="706,-56.5 706,-75.5 810,-75.5 810,-56.5 706,-56.5"/>
<text text-anchor="middle" x="758" y="-63.5" font-family="Helvetica,sans-Serif" font-size="10.00">verbose_global.hpp</text>
</a>
</g>
</g>
<!-- Node0&#45;&gt;Node19 -->
<g id="edge68" class="edge"><title>Node0&#45;&gt;Node19</title>
<path fill="none" stroke="midnightblue" d="M872.906,-280.272C908.157,-253.404 1006.69,-170.237 960,-112 942.687,-90.4054 873.047,-78.5043 820.336,-72.4506"/>
<polygon fill="midnightblue" stroke="midnightblue" points="820.697,-68.9694 810.374,-71.352 819.93,-75.9272 820.697,-68.9694"/>
</g>
<!-- Node26 -->
<g id="node27" class="node"><title>Node26</title>
<g id="a_node27"><a xlink:href="nearestinstance__operator_8hpp.html" target="_top" xlink:title="nearest instance operator">
<polygon fill="white" stroke="black" points="968.5,-224.5 968.5,-243.5 1117.5,-243.5 1117.5,-224.5 968.5,-224.5"/>
<text text-anchor="middle" x="1043" y="-231.5" font-family="Helvetica,sans-Serif" font-size="10.00">nearestinstance_operator.hpp</text>
</a>
</g>
</g>
<!-- Node0&#45;&gt;Node26 -->
<g id="edge48" class="edge"><title>Node0&#45;&gt;Node26</title>
<path fill="none" stroke="midnightblue" d="M889.838,-280.444C920.856,-271.241 970.329,-256.562 1004.62,-246.388"/>
<polygon fill="midnightblue" stroke="midnightblue" points="1005.71,-249.716 1014.3,-243.516 1003.71,-243.006 1005.71,-249.716"/>
</g>
<!-- Node4 -->
<g id="node5" class="node"><title>Node4</title>
<g id="a_node5"><a xlink:title=" ">
<polygon fill="white" stroke="#bfbfbf" points="570,-56.5 570,-75.5 626,-75.5 626,-56.5 570,-56.5"/>
<text text-anchor="middle" x="598" y="-63.5" font-family="Helvetica,sans-Serif" font-size="10.00">iostream</text>
</a>
</g>
</g>
<!-- Node3&#45;&gt;Node4 -->
<g id="edge4" class="edge"><title>Node3&#45;&gt;Node4</title>
<path fill="none" stroke="midnightblue" d="M619.707,-112.083C616.148,-104.691 610.978,-93.9533 606.576,-84.8111"/>
<polygon fill="midnightblue" stroke="midnightblue" points="609.705,-83.2427 602.213,-75.7511 603.398,-86.2795 609.705,-83.2427"/>
</g>
<!-- Node5 -->
<g id="node6" class="node"><title>Node5</title>
<g id="a_node6"><a xlink:title=" ">
<polygon fill="white" stroke="#bfbfbf" points="500,-56.5 500,-75.5 550,-75.5 550,-56.5 500,-56.5"/>
<text text-anchor="middle" x="525" y="-63.5" font-family="Helvetica,sans-Serif" font-size="10.00">fstream</text>
</a>
</g>
</g>
<!-- Node3&#45;&gt;Node5 -->
<g id="edge5" class="edge"><title>Node3&#45;&gt;Node5</title>
<path fill="none" stroke="midnightblue" d="M608.094,-112.324C592.362,-103.743 568.058,-90.486 549.791,-80.5224"/>
<polygon fill="midnightblue" stroke="midnightblue" points="551.322,-77.3704 540.867,-75.6545 547.97,-83.5157 551.322,-77.3704"/>
</g>
<!-- Node6 -->
<g id="node7" class="node"><title>Node6</title>
<g id="a_node7"><a xlink:title=" ">
<polygon fill="white" stroke="#bfbfbf" points="352.5,-56.5 352.5,-75.5 405.5,-75.5 405.5,-56.5 352.5,-56.5"/>
<text text-anchor="middle" x="379" y="-63.5" font-family="Helvetica,sans-Serif" font-size="10.00">sstream</text>
</a>
</g>
</g>
<!-- Node3&#45;&gt;Node6 -->
<g id="edge6" class="edge"><title>Node3&#45;&gt;Node6</title>
<path fill="none" stroke="midnightblue" d="M589.417,-113.378C543.431,-103.242 462.51,-85.4063 415.551,-75.0562"/>
<polygon fill="midnightblue" stroke="midnightblue" points="416.028,-71.5774 405.509,-72.8429 414.522,-78.4134 416.028,-71.5774"/>
</g>
<!-- Node7 -->
<g id="node8" class="node"><title>Node7</title>
<g id="a_node8"><a xlink:title=" ">
<polygon fill="white" stroke="#bfbfbf" points="645.5,-56.5 645.5,-75.5 686.5,-75.5 686.5,-56.5 645.5,-56.5"/>
<text text-anchor="middle" x="666" y="-63.5" font-family="Helvetica,sans-Serif" font-size="10.00">string</text>
</a>
</g>
</g>
<!-- Node3&#45;&gt;Node7 -->
<g id="edge7" class="edge"><title>Node3&#45;&gt;Node7</title>
<path fill="none" stroke="midnightblue" d="M630.935,-112.083C636.929,-104.377 645.752,-93.0333 653.048,-83.6531"/>
<polygon fill="midnightblue" stroke="midnightblue" points="655.817,-85.7934 659.194,-75.7511 650.291,-81.4958 655.817,-85.7934"/>
</g>
<!-- Node8&#45;&gt;Node1 -->
<g id="edge15" class="edge"><title>Node8&#45;&gt;Node1</title>
<path fill="none" stroke="midnightblue" d="M345.895,-174.704C298.913,-170.471 207.624,-159.235 135,-132 101.197,-119.324 65.9157,-96.4941 44.6976,-81.5444"/>
<polygon fill="midnightblue" stroke="midnightblue" points="46.6764,-78.6565 36.5104,-75.6724 42.5966,-84.3448 46.6764,-78.6565"/>
</g>
<!-- Node8&#45;&gt;Node4 -->
<g id="edge9" class="edge"><title>Node8&#45;&gt;Node4</title>
<path fill="none" stroke="midnightblue" d="M408.154,-173.868C442.834,-169.207 499.458,-158.006 541,-132 560.411,-119.848 576.931,-99.092 587.112,-84.3045"/>
<polygon fill="midnightblue" stroke="midnightblue" points="590.269,-85.8743 592.853,-75.5993 584.426,-82.0203 590.269,-85.8743"/>
</g>
<!-- Node8&#45;&gt;Node6 -->
<g id="edge10" class="edge"><title>Node8&#45;&gt;Node6</title>
<path fill="none" stroke="midnightblue" d="M366.653,-168.146C353.787,-155.995 334.391,-133.235 342,-112 345.941,-101.003 353.857,-90.7688 361.36,-82.8479"/>
<polygon fill="midnightblue" stroke="midnightblue" points="363.892,-85.2659 368.562,-75.7555 358.981,-80.2784 363.892,-85.2659"/>
</g>
<!-- Node8&#45;&gt;Node7 -->
<g id="edge16" class="edge"><title>Node8&#45;&gt;Node7</title>
<path fill="none" stroke="midnightblue" d="M408.055,-177.034C475.891,-176.379 633.892,-170.642 667,-132 677.767,-119.434 675.872,-99.939 672.288,-85.5749"/>
<polygon fill="midnightblue" stroke="midnightblue" points="675.587,-84.3902 669.399,-75.7904 668.874,-86.3722 675.587,-84.3902"/>
</g>
<!-- Node9 -->
<g id="node10" class="node"><title>Node9</title>
<g id="a_node10"><a xlink:title=" ">
<polygon fill="white" stroke="#bfbfbf" points="351,-112.5 351,-131.5 403,-131.5 403,-112.5 351,-112.5"/>
<text text-anchor="middle" x="377" y="-119.5" font-family="Helvetica,sans-Serif" font-size="10.00">iomanip</text>
</a>
</g>
</g>
<!-- Node8&#45;&gt;Node9 -->
<g id="edge11" class="edge"><title>Node8&#45;&gt;Node9</title>
<path fill="none" stroke="midnightblue" d="M377,-168.083C377,-161.006 377,-150.861 377,-141.986"/>
<polygon fill="midnightblue" stroke="midnightblue" points="380.5,-141.751 377,-131.751 373.5,-141.751 380.5,-141.751"/>
</g>
<!-- Node10 -->
<g id="node11" class="node"><title>Node10</title>
<g id="a_node11"><a xlink:title=" ">
<polygon fill="white" stroke="#bfbfbf" points="72.5,-56.5 72.5,-75.5 123.5,-75.5 123.5,-56.5 72.5,-56.5"/>
<text text-anchor="middle" x="98" y="-63.5" font-family="Helvetica,sans-Serif" font-size="10.00">typeinfo</text>
</a>
</g>
</g>
<!-- Node8&#45;&gt;Node10 -->
<g id="edge12" class="edge"><title>Node8&#45;&gt;Node10</title>
<path fill="none" stroke="midnightblue" d="M345.864,-175.644C303.037,-172.642 224.605,-162.995 166,-132 143.553,-120.128 123.289,-98.6998 110.836,-83.7026"/>
<polygon fill="midnightblue" stroke="midnightblue" points="113.435,-81.3492 104.449,-75.7365 107.974,-85.7279 113.435,-81.3492"/>
</g>
<!-- Node11 -->
<g id="node12" class="node"><title>Node11</title>
<g id="a_node12"><a xlink:title=" ">
<polygon fill="white" stroke="#bfbfbf" points="207,-56.5 207,-75.5 267,-75.5 267,-56.5 207,-56.5"/>
<text text-anchor="middle" x="237" y="-63.5" font-family="Helvetica,sans-Serif" font-size="10.00">stdexcept</text>
</a>
</g>
</g>
<!-- Node8&#45;&gt;Node11 -->
<g id="edge13" class="edge"><title>Node8&#45;&gt;Node11</title>
<path fill="none" stroke="midnightblue" d="M345.684,-174.118C297.361,-168.951 208.175,-156.307 189,-132 175.56,-114.963 195.888,-94.7829 214.082,-81.4783"/>
<polygon fill="midnightblue" stroke="midnightblue" points="216.442,-84.1027 222.685,-75.5431 212.467,-78.3408 216.442,-84.1027"/>
</g>
<!-- Node12 -->
<g id="node13" class="node"><title>Node12</title>
<g id="a_node13"><a xlink:title=" ">
<polygon fill="white" stroke="#bfbfbf" points="148,-56.5 148,-75.5 186,-75.5 186,-56.5 148,-56.5"/>
<text text-anchor="middle" x="167" y="-63.5" font-family="Helvetica,sans-Serif" font-size="10.00">utility</text>
</a>
</g>
</g>
<!-- Node8&#45;&gt;Node12 -->
<g id="edge14" class="edge"><title>Node8&#45;&gt;Node12</title>
<path fill="none" stroke="midnightblue" d="M345.767,-173.886C296.437,-168.324 203.742,-155.052 181,-132 169.23,-120.069 166.307,-100.764 165.982,-86.2869"/>
<polygon fill="midnightblue" stroke="midnightblue" points="169.488,-86.003 166.159,-75.9445 162.489,-85.8831 169.488,-86.003"/>
</g>
<!-- Node13 -->
<g id="node14" class="node"><title>Node13</title>
<g id="a_node14"><a xlink:title=" ">
<polygon fill="white" stroke="#bfbfbf" points="285,-56.5 285,-75.5 333,-75.5 333,-56.5 285,-56.5"/>
<text text-anchor="middle" x="309" y="-63.5" font-family="Helvetica,sans-Serif" font-size="10.00">string.h</text>
</a>
</g>
</g>
<!-- Node8&#45;&gt;Node13 -->
<g id="edge17" class="edge"><title>Node8&#45;&gt;Node13</title>
<path fill="none" stroke="midnightblue" d="M345.692,-173.803C298.899,-168.307 214.249,-155.341 196,-132 190.525,-124.997 191.011,-119.357 196,-112 200.732,-105.022 243.543,-89.2352 275.077,-78.3473"/>
<polygon fill="midnightblue" stroke="midnightblue" points="276.528,-81.5503 284.857,-75.0018 274.262,-74.9271 276.528,-81.5503"/>
</g>
<!-- Node14 -->
<g id="node15" class="node"><title>Node14</title>
<g id="a_node15"><a xlink:title=" ">
<polygon fill="white" stroke="#bfbfbf" points="433,-56.5 433,-75.5 477,-75.5 477,-56.5 433,-56.5"/>
<text text-anchor="middle" x="455" y="-63.5" font-family="Helvetica,sans-Serif" font-size="10.00">vector</text>
</a>
</g>
</g>
<!-- Node8&#45;&gt;Node14 -->
<g id="edge18" class="edge"><title>Node8&#45;&gt;Node14</title>
<path fill="none" stroke="midnightblue" d="M384.178,-168.188C391.401,-159.225 402.764,-144.863 412,-132 423.431,-116.081 435.692,-97.3675 444.185,-84.118"/>
<polygon fill="midnightblue" stroke="midnightblue" points="447.219,-85.8693 449.637,-75.5541 441.314,-82.11 447.219,-85.8693"/>
</g>
<!-- Node15 -->
<g id="node16" class="node"><title>Node15</title>
<g id="a_node16"><a xlink:href="matrix__base_8hpp.html" target="_top" xlink:title="matrix base">
<polygon fill="white" stroke="black" points="205.5,-112.5 205.5,-131.5 294.5,-131.5 294.5,-112.5 205.5,-112.5"/>
<text text-anchor="middle" x="250" y="-119.5" font-family="Helvetica,sans-Serif" font-size="10.00">matrix_base.hpp</text>
</a>
</g>
</g>
<!-- Node8&#45;&gt;Node15 -->
<g id="edge19" class="edge"><title>Node8&#45;&gt;Node15</title>
<path fill="none" stroke="midnightblue" d="M356.876,-168.444C335.976,-159.557 303.065,-145.563 279.284,-135.451"/>
<polygon fill="midnightblue" stroke="midnightblue" points="280.602,-132.208 270.029,-131.516 277.862,-138.65 280.602,-132.208"/>
</g>
<!-- Node20 -->
<g id="node21" class="node"><title>Node20</title>
<g id="a_node21"><a xlink:href="linear__algebra__level1_8hpp.html" target="_top" xlink:title="linear algebra level1">
<polygon fill="white" stroke="black" points="819,-112.5 819,-131.5 951,-131.5 951,-112.5 819,-112.5"/>
<text text-anchor="middle" x="885" y="-119.5" font-family="Helvetica,sans-Serif" font-size="10.00">linear_algebra_level1.hpp</text>
</a>
</g>
</g>
<!-- Node8&#45;&gt;Node20 -->
<g id="edge32" class="edge"><title>Node8&#45;&gt;Node20</title>
<path fill="none" stroke="midnightblue" d="M408.188,-173.903C477.777,-166.961 651.258,-149.474 808.364,-132.056"/>
<polygon fill="midnightblue" stroke="midnightblue" points="809.135,-135.492 818.687,-130.909 808.362,-128.534 809.135,-135.492"/>
</g>
<!-- Node25 -->
<g id="node26" class="node"><title>Node25</title>
<g id="a_node26"><a xlink:href="line__split_8hpp.html" target="_top" xlink:title="line split">
<polygon fill="white" stroke="black" points="459.5,-112.5 459.5,-131.5 532.5,-131.5 532.5,-112.5 459.5,-112.5"/>
<text text-anchor="middle" x="496" y="-119.5" font-family="Helvetica,sans-Serif" font-size="10.00">line_split.hpp</text>
</a>
</g>
</g>
<!-- Node8&#45;&gt;Node25 -->
<g id="edge38" class="edge"><title>Node8&#45;&gt;Node25</title>
<path fill="none" stroke="midnightblue" d="M395.856,-168.444C415.266,-159.636 445.73,-145.812 467.965,-135.722"/>
<polygon fill="midnightblue" stroke="midnightblue" points="469.572,-138.836 477.232,-131.516 466.68,-132.462 469.572,-138.836"/>
</g>
<!-- Node15&#45;&gt;Node1 -->
<g id="edge25" class="edge"><title>Node15&#45;&gt;Node1</title>
<path fill="none" stroke="midnightblue" d="M214.348,-112.444C171.992,-102.278 101.798,-85.4315 59.8134,-75.3552"/>
<polygon fill="midnightblue" stroke="midnightblue" points="60.5758,-71.9389 50.0351,-73.0084 58.9421,-78.7456 60.5758,-71.9389"/>
</g>
<!-- Node15&#45;&gt;Node4 -->
<g id="edge20" class="edge"><title>Node15&#45;&gt;Node4</title>
<path fill="none" stroke="midnightblue" d="M294.709,-115.661C354.972,-108.197 465.494,-93.567 559,-76 559.333,-75.9375 559.667,-75.874 560.003,-75.8098"/>
<polygon fill="midnightblue" stroke="midnightblue" points="560.849,-79.2091 569.939,-73.7659 559.439,-72.3526 560.849,-79.2091"/>
</g>
<!-- Node15&#45;&gt;Node6 -->
<g id="edge21" class="edge"><title>Node15&#45;&gt;Node6</title>
<path fill="none" stroke="midnightblue" d="M270.44,-112.444C291.67,-103.557 325.099,-89.5632 349.255,-79.4514"/>
<polygon fill="midnightblue" stroke="midnightblue" points="350.782,-82.6064 358.655,-75.5164 348.079,-76.1493 350.782,-82.6064"/>
</g>
<!-- Node15&#45;&gt;Node10 -->
<g id="edge22" class="edge"><title>Node15&#45;&gt;Node10</title>
<path fill="none" stroke="midnightblue" d="M225.915,-112.444C200.455,-103.399 160.106,-89.064 131.541,-78.9158"/>
<polygon fill="midnightblue" stroke="midnightblue" points="132.567,-75.5661 121.972,-75.5164 130.223,-82.1622 132.567,-75.5661"/>
</g>
<!-- Node15&#45;&gt;Node11 -->
<g id="edge23" class="edge"><title>Node15&#45;&gt;Node11</title>
<path fill="none" stroke="midnightblue" d="M247.853,-112.083C246.131,-104.927 243.653,-94.6353 241.5,-85.6911"/>
<polygon fill="midnightblue" stroke="midnightblue" points="244.85,-84.6541 239.107,-75.7511 238.045,-86.2925 244.85,-84.6541"/>
</g>
<!-- Node15&#45;&gt;Node12 -->
<g id="edge24" class="edge"><title>Node15&#45;&gt;Node12</title>
<path fill="none" stroke="midnightblue" d="M236.665,-112.324C223.838,-103.979 204.215,-91.2122 189.06,-81.3524"/>
<polygon fill="midnightblue" stroke="midnightblue" points="190.593,-78.1742 180.302,-75.6545 186.776,-84.0417 190.593,-78.1742"/>
</g>
<!-- Node15&#45;&gt;Node13 -->
<g id="edge26" class="edge"><title>Node15&#45;&gt;Node13</title>
<path fill="none" stroke="midnightblue" d="M259.479,-112.324C268.201,-104.341 281.343,-92.3128 291.898,-82.6529"/>
<polygon fill="midnightblue" stroke="midnightblue" points="294.334,-85.1674 299.348,-75.8339 289.608,-80.0036 294.334,-85.1674"/>
</g>
<!-- Node15&#45;&gt;Node14 -->
<g id="edge27" class="edge"><title>Node15&#45;&gt;Node14</title>
<path fill="none" stroke="midnightblue" d="M282.483,-112.444C320.872,-102.331 384.361,-85.6072 422.68,-75.5136"/>
<polygon fill="midnightblue" stroke="midnightblue" points="424,-78.7854 432.778,-72.8536 422.216,-72.0163 424,-78.7854"/>
</g>
<!-- Node16 -->
<g id="node17" class="node"><title>Node16</title>
<g id="a_node17"><a xlink:href="common_8hpp.html" target="_top" xlink:title="common">
<polygon fill="white" stroke="black" points="1053,-56.5 1053,-75.5 1127,-75.5 1127,-56.5 1053,-56.5"/>
<text text-anchor="middle" x="1090" y="-63.5" font-family="Helvetica,sans-Serif" font-size="10.00">common.hpp</text>
</a>
</g>
</g>
<!-- Node15&#45;&gt;Node16 -->
<g id="edge28" class="edge"><title>Node15&#45;&gt;Node16</title>
<path fill="none" stroke="midnightblue" d="M294.886,-116.195C309.858,-114.703 326.636,-113.15 342,-112 649.555,-88.9802 728.35,-108.953 1035,-76 1037.53,-75.7286 1040.11,-75.4183 1042.72,-75.0798"/>
<polygon fill="midnightblue" stroke="midnightblue" points="1043.39,-78.5205 1052.8,-73.6578 1042.41,-71.5891 1043.39,-78.5205"/>
</g>
<!-- Node15&#45;&gt;Node19 -->
<g id="edge31" class="edge"><title>Node15&#45;&gt;Node19</title>
<path fill="none" stroke="midnightblue" d="M294.68,-116.587C399.619,-106.208 655.93,-80.7641 695,-76 695.219,-75.9733 695.439,-75.9464 695.659,-75.9194"/>
<polygon fill="midnightblue" stroke="midnightblue" points="696.291,-79.3672 705.768,-74.6303 695.406,-72.4235 696.291,-79.3672"/>
</g>
<!-- Node17 -->
<g id="node18" class="node"><title>Node17</title>
<g id="a_node18"><a xlink:title=" ">
<polygon fill="white" stroke="#bfbfbf" points="1041.5,-0.5 1041.5,-19.5 1088.5,-19.5 1088.5,-0.5 1041.5,-0.5"/>
<text text-anchor="middle" x="1065" y="-7.5" font-family="Helvetica,sans-Serif" font-size="10.00">stdint.h</text>
</a>
</g>
</g>
<!-- Node16&#45;&gt;Node17 -->
<g id="edge29" class="edge"><title>Node16&#45;&gt;Node17</title>
<path fill="none" stroke="midnightblue" d="M1085.87,-56.083C1082.49,-48.77 1077.58,-38.1814 1073.38,-29.1034"/>
<polygon fill="midnightblue" stroke="midnightblue" points="1076.43,-27.3553 1069.05,-19.7511 1070.08,-30.2962 1076.43,-27.3553"/>
</g>
<!-- Node18 -->
<g id="node19" class="node"><title>Node18</title>
<g id="a_node19"><a xlink:title=" ">
<polygon fill="white" stroke="#bfbfbf" points="1169.5,-0.5 1169.5,-19.5 1208.5,-19.5 1208.5,-0.5 1169.5,-0.5"/>
<text text-anchor="middle" x="1189" y="-7.5" font-family="Helvetica,sans-Serif" font-size="10.00">limits</text>
</a>
</g>
</g>
<!-- Node16&#45;&gt;Node18 -->
<g id="edge30" class="edge"><title>Node16&#45;&gt;Node18</title>
<path fill="none" stroke="midnightblue" d="M1105.91,-56.324C1121.64,-47.7428 1145.94,-34.486 1164.21,-24.5224"/>
<polygon fill="midnightblue" stroke="midnightblue" points="1166.03,-27.5157 1173.13,-19.6545 1162.68,-21.3704 1166.03,-27.5157"/>
</g>
<!-- Node21 -->
<g id="node22" class="node"><title>Node21</title>
<g id="a_node22"><a xlink:href="interface__level1_8hpp.html" target="_top" xlink:title="Interface_level 1.">
<polygon fill="white" stroke="black" points="920,-56.5 920,-75.5 1026,-75.5 1026,-56.5 920,-56.5"/>
<text text-anchor="middle" x="973" y="-63.5" font-family="Helvetica,sans-Serif" font-size="10.00">interface_level1.hpp</text>
</a>
</g>
</g>
<!-- Node20&#45;&gt;Node21 -->
<g id="edge33" class="edge"><title>Node20&#45;&gt;Node21</title>
<path fill="none" stroke="midnightblue" d="M899.139,-112.324C912.866,-103.9 933.936,-90.9709 950.064,-81.0741"/>
<polygon fill="midnightblue" stroke="midnightblue" points="952.204,-83.8678 958.896,-75.6545 948.543,-77.9016 952.204,-83.8678"/>
</g>
<!-- Node21&#45;&gt;Node18 -->
<g id="edge36" class="edge"><title>Node21&#45;&gt;Node18</title>
<path fill="none" stroke="midnightblue" d="M1011.87,-56.4194C1047.75,-48.3269 1102.71,-35.4983 1159.52,-19.9907"/>
<polygon fill="midnightblue" stroke="midnightblue" points="1160.68,-23.301 1169.4,-17.2728 1158.82,-16.552 1160.68,-23.301"/>
</g>
<!-- Node22 -->
<g id="node23" class="node"><title>Node22</title>
<g id="a_node23"><a xlink:title=" ">
<polygon fill="white" stroke="#bfbfbf" points="858,-0.5 858,-19.5 916,-19.5 916,-0.5 858,-0.5"/>
<text text-anchor="middle" x="887" y="-7.5" font-family="Helvetica,sans-Serif" font-size="10.00">algorithm</text>
</a>
</g>
</g>
<!-- Node21&#45;&gt;Node22 -->
<g id="edge34" class="edge"><title>Node21&#45;&gt;Node22</title>
<path fill="none" stroke="midnightblue" d="M959.183,-56.324C945.767,-47.9002 925.176,-34.9709 909.414,-25.0741"/>
<polygon fill="midnightblue" stroke="midnightblue" points="911.113,-22.0081 900.783,-19.6545 907.391,-27.9364 911.113,-22.0081"/>
</g>
<!-- Node23 -->
<g id="node24" class="node"><title>Node23</title>
<g id="a_node24"><a xlink:title=" ">
<polygon fill="white" stroke="#bfbfbf" points="947,-0.5 947,-19.5 999,-19.5 999,-0.5 947,-0.5"/>
<text text-anchor="middle" x="973" y="-7.5" font-family="Helvetica,sans-Serif" font-size="10.00">numeric</text>
</a>
</g>
</g>
<!-- Node21&#45;&gt;Node23 -->
<g id="edge35" class="edge"><title>Node21&#45;&gt;Node23</title>
<path fill="none" stroke="midnightblue" d="M973,-56.083C973,-49.0059 973,-38.8611 973,-29.9865"/>
<polygon fill="midnightblue" stroke="midnightblue" points="976.5,-29.751 973,-19.7511 969.5,-29.7511 976.5,-29.751"/>
</g>
<!-- Node24 -->
<g id="node25" class="node"><title>Node24</title>
<g id="a_node25"><a xlink:title=" ">
<polygon fill="white" stroke="#bfbfbf" points="1107,-0.5 1107,-19.5 1151,-19.5 1151,-0.5 1107,-0.5"/>
<text text-anchor="middle" x="1129" y="-7.5" font-family="Helvetica,sans-Serif" font-size="10.00">cmath</text>
</a>
</g>
</g>
<!-- Node21&#45;&gt;Node24 -->
<g id="edge37" class="edge"><title>Node21&#45;&gt;Node24</title>
<path fill="none" stroke="midnightblue" d="M997.719,-56.4435C1024.62,-47.1326 1067.71,-32.2163 1097.13,-22.0315"/>
<polygon fill="midnightblue" stroke="midnightblue" points="1098.61,-25.222 1106.92,-18.6433 1096.32,-18.607 1098.61,-25.222"/>
</g>
<!-- Node25&#45;&gt;Node4 -->
<g id="edge39" class="edge"><title>Node25&#45;&gt;Node4</title>
<path fill="none" stroke="midnightblue" d="M512.388,-112.324C528.671,-103.703 553.867,-90.3643 572.716,-80.3855"/>
<polygon fill="midnightblue" stroke="midnightblue" points="574.452,-83.4267 581.653,-75.6545 571.177,-77.2402 574.452,-83.4267"/>
</g>
<!-- Node25&#45;&gt;Node5 -->
<g id="edge41" class="edge"><title>Node25&#45;&gt;Node5</title>
<path fill="none" stroke="midnightblue" d="M500.789,-112.083C504.758,-104.691 510.525,-93.9533 515.435,-84.8111"/>
<polygon fill="midnightblue" stroke="midnightblue" points="518.653,-86.217 520.3,-75.7511 512.486,-82.9051 518.653,-86.217"/>
</g>
<!-- Node25&#45;&gt;Node6 -->
<g id="edge40" class="edge"><title>Node25&#45;&gt;Node6</title>
<path fill="none" stroke="midnightblue" d="M477.461,-112.444C458.377,-103.636 428.425,-89.8116 406.564,-79.722"/>
<polygon fill="midnightblue" stroke="midnightblue" points="407.999,-76.5292 397.452,-75.5164 405.065,-82.8849 407.999,-76.5292"/>
</g>
<!-- Node25&#45;&gt;Node7 -->
<g id="edge44" class="edge"><title>Node25&#45;&gt;Node7</title>
<path fill="none" stroke="midnightblue" d="M522.937,-112.444C553.604,-102.702 603.585,-86.826 635.617,-76.6512"/>
<polygon fill="midnightblue" stroke="midnightblue" points="636.867,-79.9263 645.339,-73.5631 634.748,-73.2548 636.867,-79.9263"/>
</g>
<!-- Node25&#45;&gt;Node11 -->
<g id="edge42" class="edge"><title>Node25&#45;&gt;Node11</title>
<path fill="none" stroke="midnightblue" d="M459.35,-113.795C417.598,-105.523 347.076,-91.3558 277.086,-76.1968"/>
<polygon fill="midnightblue" stroke="midnightblue" points="277.732,-72.7556 267.217,-74.0517 276.245,-79.5959 277.732,-72.7556"/>
</g>
<!-- Node25&#45;&gt;Node13 -->
<g id="edge45" class="edge"><title>Node25&#45;&gt;Node13</title>
<path fill="none" stroke="midnightblue" d="M466.369,-112.444C432.813,-102.753 378.232,-86.9921 342.977,-76.8115"/>
<polygon fill="midnightblue" stroke="midnightblue" points="343.719,-73.3828 333.14,-73.971 341.777,-80.108 343.719,-73.3828"/>
</g>
<!-- Node25&#45;&gt;Node14 -->
<g id="edge43" class="edge"><title>Node25&#45;&gt;Node14</title>
<path fill="none" stroke="midnightblue" d="M489.23,-112.083C483.438,-104.455 474.942,-93.2645 467.862,-83.9408"/>
<polygon fill="midnightblue" stroke="midnightblue" points="470.479,-81.5991 461.644,-75.7511 464.904,-85.8321 470.479,-81.5991"/>
</g>
<!-- Node25&#45;&gt;Node16 -->
<g id="edge46" class="edge"><title>Node25&#45;&gt;Node16</title>
<path fill="none" stroke="midnightblue" d="M532.778,-116.836C547.458,-115.232 564.52,-113.441 580,-112 781.98,-93.1928 833.619,-100.4 1035,-76 1037.52,-75.6945 1040.1,-75.357 1042.71,-74.9973"/>
<polygon fill="midnightblue" stroke="midnightblue" points="1043.4,-78.4341 1052.78,-73.5206 1042.38,-71.5081 1043.4,-78.4341"/>
</g>
<!-- Node25&#45;&gt;Node19 -->
<g id="edge47" class="edge"><title>Node25&#45;&gt;Node19</title>
<path fill="none" stroke="midnightblue" d="M532.706,-113.435C577.992,-104.101 655.261,-88.1752 706.476,-77.6194"/>
<polygon fill="midnightblue" stroke="midnightblue" points="707.267,-81.03 716.355,-75.5834 705.854,-74.1742 707.267,-81.03"/>
</g>
<!-- Node26&#45;&gt;Node8 -->
<g id="edge54" class="edge"><title>Node26&#45;&gt;Node8</title>
<path fill="none" stroke="midnightblue" d="M968.218,-226.937C827.488,-215.526 527.607,-191.211 418.115,-182.334"/>
<polygon fill="midnightblue" stroke="midnightblue" points="418.375,-178.843 408.125,-181.524 417.809,-185.82 418.375,-178.843"/>
</g>
<!-- Node26&#45;&gt;Node19 -->
<g id="edge67" class="edge"><title>Node26&#45;&gt;Node19</title>
<path fill="none" stroke="midnightblue" d="M1042.18,-224.342C1039.55,-201.909 1029.29,-141.59 993,-112 967.094,-90.8757 880.882,-78.5266 820.429,-72.2683"/>
<polygon fill="midnightblue" stroke="midnightblue" points="820.512,-68.7591 810.212,-71.2427 819.813,-75.7241 820.512,-68.7591"/>
</g>
<!-- Node27 -->
<g id="node28" class="node"><title>Node27</title>
<g id="a_node28"><a xlink:href="instance_8hpp.html" target="_top" xlink:title="Module for the handling of instances or also called objects or points.">
<polygon fill="white" stroke="black" points="1183,-168.5 1183,-187.5 1255,-187.5 1255,-168.5 1183,-168.5"/>
<text text-anchor="middle" x="1219" y="-175.5" font-family="Helvetica,sans-Serif" font-size="10.00">instance.hpp</text>
</a>
</g>
</g>
<!-- Node26&#45;&gt;Node27 -->
<g id="edge49" class="edge"><title>Node26&#45;&gt;Node27</title>
<path fill="none" stroke="midnightblue" d="M1070.89,-224.444C1100.75,-215.28 1148.31,-200.688 1181.46,-190.519"/>
<polygon fill="midnightblue" stroke="midnightblue" points="1182.71,-193.796 1191.24,-187.516 1180.66,-187.104 1182.71,-193.796"/>
</g>
<!-- Node28 -->
<g id="node29" class="node"><title>Node28</title>
<g id="a_node29"><a xlink:href="matrix__triangular_8hpp.html" target="_top" xlink:title="matrix triangular">
<polygon fill="white" stroke="black" points="1045,-112.5 1045,-131.5 1153,-131.5 1153,-112.5 1045,-112.5"/>
<text text-anchor="middle" x="1099" y="-119.5" font-family="Helvetica,sans-Serif" font-size="10.00">matrix_triangular.hpp</text>
</a>
</g>
</g>
<!-- Node26&#45;&gt;Node28 -->
<g id="edge55" class="edge"><title>Node26&#45;&gt;Node28</title>
<path fill="none" stroke="midnightblue" d="M1047.39,-224.368C1056.55,-206.376 1077.85,-164.55 1090.03,-140.627"/>
<polygon fill="midnightblue" stroke="midnightblue" points="1093.21,-142.091 1094.63,-131.591 1086.97,-138.915 1093.21,-142.091"/>
</g>
<!-- Node29 -->
<g id="node30" class="node"><title>Node29</title>
<g id="a_node30"><a xlink:href="dist_8hpp.html" target="_top" xlink:title="operations for the calculation of distances between objects">
<polygon fill="white" stroke="black" points="1107,-168.5 1107,-187.5 1157,-187.5 1157,-168.5 1107,-168.5"/>
<text text-anchor="middle" x="1132" y="-175.5" font-family="Helvetica,sans-Serif" font-size="10.00">dist.hpp</text>
</a>
</g>
</g>
<!-- Node26&#45;&gt;Node29 -->
<g id="edge58" class="edge"><title>Node26&#45;&gt;Node29</title>
<path fill="none" stroke="midnightblue" d="M1057.3,-224.324C1071.18,-215.9 1092.49,-202.971 1108.8,-193.074"/>
<polygon fill="midnightblue" stroke="midnightblue" points="1111,-195.834 1117.74,-187.655 1107.37,-189.85 1111,-195.834"/>
</g>
<!-- Node30 -->
<g id="node31" class="node"><title>Node30</title>
<g id="a_node31"><a xlink:href="vector__utils_8hpp.html" target="_top" xlink:title="Operations for vector manipulation.">
<polygon fill="white" stroke="black" points="715.5,-112.5 715.5,-131.5 800.5,-131.5 800.5,-112.5 715.5,-112.5"/>
<text text-anchor="middle" x="758" y="-119.5" font-family="Helvetica,sans-Serif" font-size="10.00">vector_utils.hpp</text>
</a>
</g>
</g>
<!-- Node26&#45;&gt;Node30 -->
<g id="edge60" class="edge"><title>Node26&#45;&gt;Node30</title>
<path fill="none" stroke="midnightblue" d="M1020.64,-224.368C970.274,-204.93 847.838,-157.674 789.681,-135.228"/>
<polygon fill="midnightblue" stroke="midnightblue" points="790.849,-131.927 780.26,-131.591 788.329,-138.457 790.849,-131.927"/>
</g>
<!-- Node27&#45;&gt;Node16 -->
<g id="edge53" class="edge"><title>Node27&#45;&gt;Node16</title>
<path fill="none" stroke="midnightblue" d="M1215.4,-168.397C1209.37,-154.894 1196.12,-128.56 1178,-112 1162.5,-97.8385 1141.72,-86.935 1124.24,-79.4099"/>
<polygon fill="midnightblue" stroke="midnightblue" points="1125.51,-76.1456 1114.93,-75.5776 1122.84,-82.6191 1125.51,-76.1456"/>
</g>
<!-- Node27&#45;&gt;Node18 -->
<g id="edge51" class="edge"><title>Node27&#45;&gt;Node18</title>
<path fill="none" stroke="midnightblue" d="M1234.78,-168.467C1247.2,-160.769 1263.61,-148.179 1271,-132 1285.04,-101.279 1288.21,-85.0675 1271,-56 1259.64,-36.8103 1236.87,-25.2596 1218.21,-18.6742"/>
<polygon fill="midnightblue" stroke="midnightblue" points="1219.22,-15.3236 1208.63,-15.5892 1217.07,-21.9865 1219.22,-15.3236"/>
</g>
<!-- Node27&#45;&gt;Node24 -->
<g id="edge50" class="edge"><title>Node27&#45;&gt;Node24</title>
<path fill="none" stroke="midnightblue" d="M1217.58,-168.246C1215.28,-155.432 1210.07,-131.027 1201,-112 1185.49,-79.4649 1159.49,-46.3013 1143.34,-27.2373"/>
<polygon fill="midnightblue" stroke="midnightblue" points="1145.87,-24.81 1136.69,-19.5232 1140.57,-29.3818 1145.87,-24.81"/>
</g>
<!-- Node27&#45;&gt;Node25 -->
<g id="edge52" class="edge"><title>Node27&#45;&gt;Node25</title>
<path fill="none" stroke="midnightblue" d="M1182.87,-170.334C1177.23,-169.449 1171.47,-168.631 1166,-168 906.782,-138.115 840.014,-153.905 580,-132 568.018,-130.991 555.095,-129.705 543.063,-128.423"/>
<polygon fill="midnightblue" stroke="midnightblue" points="543.085,-124.905 532.765,-127.305 542.329,-131.864 543.085,-124.905"/>
</g>
<!-- Node28&#45;&gt;Node4 -->
<g id="edge56" class="edge"><title>Node28&#45;&gt;Node4</title>
<path fill="none" stroke="midnightblue" d="M1044.69,-116.654C939.906,-108.114 713.377,-88.8623 636,-76 635.9,-75.9833 635.799,-75.9665 635.699,-75.9496"/>
<polygon fill="midnightblue" stroke="midnightblue" points="636.616,-72.562 626.135,-74.1126 635.296,-79.4363 636.616,-72.562"/>
</g>
<!-- Node28&#45;&gt;Node16 -->
<g id="edge57" class="edge"><title>Node28&#45;&gt;Node16</title>
<path fill="none" stroke="midnightblue" d="M1097.51,-112.083C1096.32,-104.927 1094.61,-94.6353 1093.12,-85.6911"/>
<polygon fill="midnightblue" stroke="midnightblue" points="1096.55,-85.0396 1091.46,-75.7511 1089.65,-86.1904 1096.55,-85.0396"/>
</g>
<!-- Node29&#45;&gt;Node16 -->
<g id="edge59" class="edge"><title>Node29&#45;&gt;Node16</title>
<path fill="none" stroke="midnightblue" d="M1141.23,-168.389C1153.61,-155.753 1172.85,-131.567 1162,-112 1153.91,-97.405 1138.9,-86.9185 1124.66,-79.7608"/>
<polygon fill="midnightblue" stroke="midnightblue" points="1126.05,-76.5459 1115.5,-75.5282 1123.11,-82.9002 1126.05,-76.5459"/>
</g>
<!-- Node30&#45;&gt;Node4 -->
<g id="edge61" class="edge"><title>Node30&#45;&gt;Node4</title>
<path fill="none" stroke="midnightblue" d="M732.648,-112.444C705.731,-103.359 663.004,-88.9388 632.913,-78.7831"/>
<polygon fill="midnightblue" stroke="midnightblue" points="633.828,-75.3981 623.234,-75.5164 631.59,-82.0305 633.828,-75.3981"/>
</g>
<!-- Node30&#45;&gt;Node7 -->
<g id="edge63" class="edge"><title>Node30&#45;&gt;Node7</title>
<path fill="none" stroke="midnightblue" d="M743.219,-112.324C728.733,-103.822 706.427,-90.7288 689.507,-80.7975"/>
<polygon fill="midnightblue" stroke="midnightblue" points="691.141,-77.6981 680.745,-75.6545 687.597,-83.735 691.141,-77.6981"/>
</g>
<!-- Node30&#45;&gt;Node14 -->
<g id="edge62" class="edge"><title>Node30&#45;&gt;Node14</title>
<path fill="none" stroke="midnightblue" d="M715.264,-114.849C662.382,-106.995 569.684,-92.4401 491,-76 489.723,-75.7332 488.423,-75.4523 487.111,-75.1612"/>
<polygon fill="midnightblue" stroke="midnightblue" points="487.557,-71.6709 477.022,-72.7945 485.958,-78.4859 487.557,-71.6709"/>
</g>
<!-- Node30&#45;&gt;Node16 -->
<g id="edge65" class="edge"><title>Node30&#45;&gt;Node16</title>
<path fill="none" stroke="midnightblue" d="M800.56,-113.589C803.753,-113.046 806.927,-112.512 810,-112 909.896,-95.3641 935.029,-92.1772 1035,-76 1037.51,-75.5943 1040.08,-75.1771 1042.67,-74.7552"/>
<polygon fill="midnightblue" stroke="midnightblue" points="1043.42,-78.1802 1052.73,-73.1178 1042.29,-71.2713 1043.42,-78.1802"/>
</g>
<!-- Node30&#45;&gt;Node19 -->
<g id="edge66" class="edge"><title>Node30&#45;&gt;Node19</title>
<path fill="none" stroke="midnightblue" d="M758,-112.083C758,-105.006 758,-94.8611 758,-85.9865"/>
<polygon fill="midnightblue" stroke="midnightblue" points="761.5,-85.751 758,-75.7511 754.5,-85.7511 761.5,-85.751"/>
</g>
<!-- Node30&#45;&gt;Node22 -->
<g id="edge64" class="edge"><title>Node30&#45;&gt;Node22</title>
<path fill="none" stroke="midnightblue" d="M770.502,-112.479C783.085,-103.742 802.885,-89.5522 819,-76 837.807,-60.1839 857.998,-40.5046 871.449,-26.9674"/>
<polygon fill="midnightblue" stroke="midnightblue" points="874.003,-29.3621 878.528,-19.7823 869.016,-24.4493 874.003,-29.3621"/>
</g>
</g>
</svg>
        <g id="navigator" transform="translate(0 0)" fill="#404254">
                <rect fill="#f2f5e9" fill-opacity="0.5" stroke="#606060" stroke-width=".5" x="0" y="0" width="60" height="60"/>
                <use id="zoomplus" xlink:href="#zoomPlus" x="17" y="9" onmousedown="handleZoom(evt,'in')"/>
                <use id="zoomminus" xlink:href="#zoomMin" x="42" y="9" onmousedown="handleZoom(evt,'out')"/>
                <use id="reset" xlink:href="#resetDef" x="30" y="36" onmousedown="handleReset()"/>
                <g id="arrowUp" xlink:href="#dirArrow" transform="translate(30 24)" onmousedown="handlePan(0,-1)">
                  <use xlink:href="#rim" fill="#404040">
                        <set attributeName="fill" to="#808080" begin="arrowUp.mouseover" end="arrowUp.mouseout"/>
                  </use>
                  <path fill="none" stroke="white" stroke-width="1.5" d="M0,-3.0v7 M-2.5,-0.5L0,-3.0L2.5,-0.5"/>
                </g>
                <g id="arrowRight" xlink:href="#dirArrow" transform="rotate(90) translate(36 -43)" onmousedown="handlePan(1,0)">
                  <use xlink:href="#rim" fill="#404040">
                        <set attributeName="fill" to="#808080" begin="arrowRight.mouseover" end="arrowRight.mouseout"/>
                  </use>
                  <path fill="none" stroke="white" stroke-width="1.5" d="M0,-3.0v7 M-2.5,-0.5L0,-3.0L2.5,-0.5"/>
                </g>
                <g id="arrowDown" xlink:href="#dirArrow" transform="rotate(180) translate(-30 -48)" onmousedown="handlePan(0,1)">
                  <use xlink:href="#rim" fill="#404040">
                        <set attributeName="fill" to="#808080" begin="arrowDown.mouseover" end="arrowDown.mouseout"/>
                  </use>
                  <path fill="none" stroke="white" stroke-width="1.5" d="M0,-3.0v7 M-2.5,-0.5L0,-3.0L2.5,-0.5"/>
                </g>
                <g id="arrowLeft" xlink:href="#dirArrow" transform="rotate(270) translate(-36 17)" onmousedown="handlePan(-1,0)">
                  <use xlink:href="#rim" fill="#404040">
                        <set attributeName="fill" to="#808080" begin="arrowLeft.mouseover" end="arrowLeft.mouseout"/>
                  </use>
                  <path fill="none" stroke="white" stroke-width="1.5" d="M0,-3.0v7 M-2.5,-0.5L0,-3.0L2.5,-0.5"/>
                </g>
        </g>
        <svg viewBox="0 0 15 15" width="100%" height="30px" preserveAspectRatio="xMaxYMin meet">
         <g id="arrow_out" transform="scale(0.3 0.3)">
          <a xlink:href="partition__centroids_8hpp__incl_org.svg" target="_base">
           <rect id="button" ry="5" rx="5" y="6" x="6" height="38" width="38"
                fill="#f2f5e9" fill-opacity="0.5" stroke="#606060" stroke-width="1.0"/>
           <path id="arrow"
             d="M 11.500037,31.436501 C 11.940474,20.09759 22.043105,11.32322 32.158766,21.979434 L 37.068811,17.246167 C 37.068811,17.246167 37.088388,32 37.088388,32 L 22.160133,31.978069 C 22.160133,31.978069 26.997745,27.140456 26.997745,27.140456 C 18.528582,18.264221 13.291696,25.230495 11.500037,31.436501 z"
             style="fill:#404040;"/>
          </a>
         </g>
        </svg>
</svg>
