<?xml version="1.0" encoding="UTF-8" standalone="no"?>
<!DOCTYPE svg PUBLIC "-//W3C//DTD SVG 1.1//EN"
 "http://www.w3.org/Graphics/SVG/1.1/DTD/svg11.dtd">
<!-- Generated by graphviz version 2.38.0 (20140413.2041)
 -->
<!-- Title: include/probability_distribution.hpp Pages: 1 -->
<!--zoomable 263 -->
<svg id="main" version="1.1" xmlns="http://www.w3.org/2000/svg" xmlns:xlink="http://www.w3.org/1999/xlink" xml:space="preserve" onload="init(evt)">
<style type="text/css"><![CDATA[
.edge:hover path { stroke: red; }
.edge:hover polygon { stroke: red; fill: red; }
]]></style>
<script type="text/javascript"><![CDATA[
var edges = document.getElementsByTagName('g');
if (edges && edges.length) {
  for (var i=0;i<edges.length;i++) {
    if (edges[i].id.substr(0,4)=='edge') {
      edges[i].setAttribute('class','edge');
    }
  }
}
]]></script>
        <defs>
                <circle id="rim" cx="0" cy="0" r="7"/>
                <circle id="rim2" cx="0" cy="0" r="3.5"/>
                <g id="zoomPlus">
                        <use xlink:href="#rim" fill="#404040">
                                <set attributeName="fill" to="#808080" begin="zoomplus.mouseover" end="zoomplus.mouseout"/>
                        </use>
                        <path d="M-4,0h8M0,-4v8" fill="none" stroke="white" stroke-width="1.5" pointer-events="none"/>
                </g>
                <g id="zoomMin">
                        <use xlink:href="#rim" fill="#404040">
                                <set attributeName="fill" to="#808080" begin="zoomminus.mouseover" end="zoomminus.mouseout"/>
                        </use>
                        <path d="M-4,0h8" fill="none" stroke="white" stroke-width="1.5" pointer-events="none"/>
                </g>
                <g id="dirArrow">
                        <path fill="none" stroke="white" stroke-width="1.5" d="M0,-3.0v7 M-2.5,-0.5L0,-3.0L2.5,-0.5"/>
                </g>
               <g id="resetDef">
                       <use xlink:href="#rim2" fill="#404040">
                               <set attributeName="fill" to="#808080" begin="reset.mouseover" end="reset.mouseout"/>
                       </use>
               </g>
        </defs>

<script type="text/javascript">
var viewWidth = 1409;
var viewHeight = 263;
var sectionId = 'dynsection-0';
</script>
<script xlink:href="svgpan.js"/>
<svg id="graph" class="graph">
<g id="viewport">
<title>include/probability_distribution.hpp</title>
<polygon fill="white" stroke="none" points="-4,4 -4,-259 1405.35,-259 1405.35,4 -4,4"/>
<!-- Node0 -->
<g id="node1" class="node"><title>Node0</title>
<g id="a_node1"><a xlink:title="probability distribution">
<polygon fill="#bfbfbf" stroke="black" points="297.879,-224.5 297.879,-254.5 394.879,-254.5 394.879,-224.5 297.879,-224.5"/>
<text text-anchor="start" x="305.879" y="-242.5" font-family="Helvetica,sans-Serif" font-size="10.00">include/probability</text>
<text text-anchor="middle" x="346.379" y="-231.5" font-family="Helvetica,sans-Serif" font-size="10.00">_distribution.hpp</text>
</a>
</g>
</g>
<!-- Node1 -->
<g id="node2" class="node"><title>Node1</title>
<g id="a_node2"><a xlink:title=" ">
<polygon fill="white" stroke="#bfbfbf" points="1263.38,-0.5 1263.38,-19.5 1319.38,-19.5 1319.38,-0.5 1263.38,-0.5"/>
<text text-anchor="middle" x="1291.38" y="-7.5" font-family="Helvetica,sans-Serif" font-size="10.00">iostream</text>
</a>
</g>
</g>
<!-- Node0&#45;&gt;Node1 -->
<g id="edge1" class="edge"><title>Node0&#45;&gt;Node1</title>
<path fill="none" stroke="midnightblue" d="M394.969,-238.672C560.601,-238.817 1102.01,-235.553 1268.38,-188 1341.71,-167.041 1380.86,-150.223 1398.38,-76 1400.42,-67.3489 1403.3,-63.4042 1398.38,-56 1383.16,-33.0867 1353.75,-21.8146 1329.61,-16.2837"/>
<polygon fill="midnightblue" stroke="midnightblue" points="1330.14,-12.8201 1319.64,-14.2477 1328.74,-19.6785 1330.14,-12.8201"/>
</g>
<!-- Node2 -->
<g id="node3" class="node"><title>Node2</title>
<g id="a_node3"><a xlink:title=" ">
<polygon fill="white" stroke="#bfbfbf" points="878.879,-112.5 878.879,-131.5 907.879,-131.5 907.879,-112.5 878.879,-112.5"/>
<text text-anchor="middle" x="893.379" y="-119.5" font-family="Helvetica,sans-Serif" font-size="10.00">list</text>
</a>
</g>
</g>
<!-- Node0&#45;&gt;Node2 -->
<g id="edge2" class="edge"><title>Node0&#45;&gt;Node2</title>
<path fill="none" stroke="midnightblue" d="M394.947,-230.159C487.109,-213.969 693.44,-175.984 864.379,-132 865.847,-131.622 867.351,-131.216 868.864,-130.792"/>
<polygon fill="midnightblue" stroke="midnightblue" points="870.122,-134.07 878.706,-127.86 868.123,-127.361 870.122,-134.07"/>
</g>
<!-- Node3 -->
<g id="node4" class="node"><title>Node3</title>
<g id="a_node4"><a xlink:title=" ">
<polygon fill="white" stroke="#bfbfbf" points="280.379,-112.5 280.379,-131.5 318.379,-131.5 318.379,-112.5 280.379,-112.5"/>
<text text-anchor="middle" x="299.379" y="-119.5" font-family="Helvetica,sans-Serif" font-size="10.00">utility</text>
</a>
</g>
</g>
<!-- Node0&#45;&gt;Node3 -->
<g id="edge3" class="edge"><title>Node0&#45;&gt;Node3</title>
<path fill="none" stroke="midnightblue" d="M340.616,-224.337C332.071,-203.338 316.045,-163.955 306.687,-140.958"/>
<polygon fill="midnightblue" stroke="midnightblue" points="309.918,-139.613 302.907,-131.669 303.435,-142.251 309.918,-139.613"/>
</g>
<!-- Node4 -->
<g id="node5" class="node"><title>Node4</title>
<g id="a_node5"><a xlink:title=" ">
<polygon fill="white" stroke="#bfbfbf" points="526.879,-0.5 526.879,-19.5 573.879,-19.5 573.879,-0.5 526.879,-0.5"/>
<text text-anchor="middle" x="550.379" y="-7.5" font-family="Helvetica,sans-Serif" font-size="10.00">iterator</text>
</a>
</g>
</g>
<!-- Node0&#45;&gt;Node4 -->
<g id="edge4" class="edge"><title>Node0&#45;&gt;Node4</title>
<path fill="none" stroke="midnightblue" d="M297.824,-236.76C188.011,-231.124 -63.9233,-207.675 15.3795,-112 31.6847,-92.3285 402.196,-33.8217 516.867,-16.1265"/>
<polygon fill="midnightblue" stroke="midnightblue" points="517.489,-19.572 526.84,-14.591 516.423,-12.6536 517.489,-19.572"/>
</g>
<!-- Node5 -->
<g id="node6" class="node"><title>Node5</title>
<g id="a_node6"><a xlink:title=" ">
<polygon fill="white" stroke="#bfbfbf" points="24.3795,-112.5 24.3795,-131.5 86.3795,-131.5 86.3795,-112.5 24.3795,-112.5"/>
<text text-anchor="middle" x="55.3795" y="-119.5" font-family="Helvetica,sans-Serif" font-size="10.00">type_traits</text>
</a>
</g>
</g>
<!-- Node0&#45;&gt;Node5 -->
<g id="edge5" class="edge"><title>Node0&#45;&gt;Node5</title>
<path fill="none" stroke="midnightblue" d="M297.679,-233.425C253.035,-227.305 186.064,-214.35 133.379,-188 108.638,-175.625 84.9176,-153.995 70.2649,-139.108"/>
<polygon fill="midnightblue" stroke="midnightblue" points="72.552,-136.435 63.1084,-131.632 67.4955,-141.276 72.552,-136.435"/>
</g>
<!-- Node6 -->
<g id="node7" class="node"><title>Node6</title>
<g id="a_node7"><a xlink:title=" ">
<polygon fill="white" stroke="#bfbfbf" points="104.879,-112.5 104.879,-131.5 155.879,-131.5 155.879,-112.5 104.879,-112.5"/>
<text text-anchor="middle" x="130.379" y="-119.5" font-family="Helvetica,sans-Serif" font-size="10.00">typeinfo</text>
</a>
</g>
</g>
<!-- Node0&#45;&gt;Node6 -->
<g id="edge6" class="edge"><title>Node0&#45;&gt;Node6</title>
<path fill="none" stroke="midnightblue" d="M297.808,-238.931C253.465,-236.667 188.972,-226.29 149.379,-188 136.976,-176.004 132.55,-156.399 131.03,-141.852"/>
<polygon fill="midnightblue" stroke="midnightblue" points="134.498,-141.256 130.338,-131.512 127.514,-141.723 134.498,-141.256"/>
</g>
<!-- Node7 -->
<g id="node8" class="node"><title>Node7</title>
<g id="a_node8"><a xlink:href="random__ext_8hpp.html" target="_top" xlink:title="Operation for the generation of pseudo random numbers.">
<polygon fill="white" stroke="black" points="339.379,-56.5 339.379,-75.5 427.379,-75.5 427.379,-56.5 339.379,-56.5"/>
<text text-anchor="middle" x="383.379" y="-63.5" font-family="Helvetica,sans-Serif" font-size="10.00">random_ext.hpp</text>
</a>
</g>
</g>
<!-- Node0&#45;&gt;Node7 -->
<g id="edge7" class="edge"><title>Node0&#45;&gt;Node7</title>
<path fill="none" stroke="midnightblue" d="M326.658,-224.123C296.428,-200.295 244.786,-151.344 271.379,-112 284.507,-92.5783 307.548,-81.5376 329.332,-75.2618"/>
<polygon fill="midnightblue" stroke="midnightblue" points="330.411,-78.598 339.212,-72.7006 328.654,-71.822 330.411,-78.598"/>
</g>
<!-- Node14 -->
<g id="node15" class="node"><title>Node14</title>
<g id="a_node15"><a xlink:href="probability__selection_8hpp.html" target="_top" xlink:title="probability selection">
<polygon fill="white" stroke="black" points="403.879,-168.5 403.879,-187.5 528.879,-187.5 528.879,-168.5 403.879,-168.5"/>
<text text-anchor="middle" x="466.379" y="-175.5" font-family="Helvetica,sans-Serif" font-size="10.00">probability_selection.hpp</text>
</a>
</g>
</g>
<!-- Node0&#45;&gt;Node14 -->
<g id="edge15" class="edge"><title>Node0&#45;&gt;Node14</title>
<path fill="none" stroke="midnightblue" d="M374.818,-224.399C394.502,-214.639 420.523,-201.737 439.793,-192.183"/>
<polygon fill="midnightblue" stroke="midnightblue" points="441.514,-195.236 448.918,-187.658 438.404,-188.964 441.514,-195.236"/>
</g>
<!-- Node20 -->
<g id="node21" class="node"><title>Node20</title>
<g id="a_node21"><a xlink:href="verbose__global_8hpp.html" target="_top" xlink:title="verbose global">
<polygon fill="white" stroke="black" points="445.379,-56.5 445.379,-75.5 549.379,-75.5 549.379,-56.5 445.379,-56.5"/>
<text text-anchor="middle" x="497.379" y="-63.5" font-family="Helvetica,sans-Serif" font-size="10.00">verbose_global.hpp</text>
</a>
</g>
</g>
<!-- Node0&#45;&gt;Node20 -->
<g id="edge63" class="edge"><title>Node0&#45;&gt;Node20</title>
<path fill="none" stroke="midnightblue" d="M354.087,-224.4C368.046,-199.696 399.419,-147.812 435.379,-112 447.21,-100.219 462.346,-89.1712 474.701,-80.9707"/>
<polygon fill="midnightblue" stroke="midnightblue" points="476.618,-83.899 483.119,-75.5329 472.82,-78.0191 476.618,-83.899"/>
</g>
<!-- Node25 -->
<g id="node26" class="node"><title>Node25</title>
<g id="a_node26"><a xlink:href="vector__utils_8hpp.html" target="_top" xlink:title="Operations for vector manipulation.">
<polygon fill="white" stroke="black" points="736.879,-112.5 736.879,-131.5 821.879,-131.5 821.879,-112.5 736.879,-112.5"/>
<text text-anchor="middle" x="779.379" y="-119.5" font-family="Helvetica,sans-Serif" font-size="10.00">vector_utils.hpp</text>
</a>
</g>
</g>
<!-- Node0&#45;&gt;Node25 -->
<g id="edge35" class="edge"><title>Node0&#45;&gt;Node25</title>
<path fill="none" stroke="midnightblue" d="M395.066,-225.684C433.672,-215.507 488.991,-200.895 537.379,-188 607.823,-169.227 689.741,-147.179 737.925,-134.187"/>
<polygon fill="midnightblue" stroke="midnightblue" points="738.934,-137.54 747.678,-131.557 737.112,-130.782 738.934,-137.54"/>
</g>
<!-- Node26 -->
<g id="node27" class="node"><title>Node26</title>
<g id="a_node27"><a xlink:href="container__out_8hpp.html" target="_top" xlink:title="container out">
<polygon fill="white" stroke="black" points="926.879,-168.5 926.879,-187.5 1021.88,-187.5 1021.88,-168.5 926.879,-168.5"/>
<text text-anchor="middle" x="974.379" y="-175.5" font-family="Helvetica,sans-Serif" font-size="10.00">container_out.hpp</text>
</a>
</g>
</g>
<!-- Node0&#45;&gt;Node26 -->
<g id="edge42" class="edge"><title>Node0&#45;&gt;Node26</title>
<path fill="none" stroke="midnightblue" d="M395.135,-233.881C509.36,-223.058 793.867,-196.103 916.559,-184.478"/>
<polygon fill="midnightblue" stroke="midnightblue" points="916.891,-187.963 926.516,-183.535 916.23,-180.994 916.891,-187.963"/>
</g>
<!-- Node28 -->
<g id="node29" class="node"><title>Node28</title>
<g id="a_node29"><a xlink:href="linear__algebra__level1_8hpp.html" target="_top" xlink:title="linear algebra level1">
<polygon fill="white" stroke="black" points="1127.38,-168.5 1127.38,-187.5 1259.38,-187.5 1259.38,-168.5 1127.38,-168.5"/>
<text text-anchor="middle" x="1193.38" y="-175.5" font-family="Helvetica,sans-Serif" font-size="10.00">linear_algebra_level1.hpp</text>
</a>
</g>
</g>
<!-- Node0&#45;&gt;Node28 -->
<g id="edge51" class="edge"><title>Node0&#45;&gt;Node28</title>
<path fill="none" stroke="midnightblue" d="M394.96,-235.087C535.938,-225.184 945.951,-196.381 1117.02,-184.364"/>
<polygon fill="midnightblue" stroke="midnightblue" points="1117.47,-187.841 1127.2,-183.649 1116.98,-180.858 1117.47,-187.841"/>
</g>
<!-- Node32 -->
<g id="node33" class="node"><title>Node32</title>
<g id="a_node33"><a xlink:href="leac__utils_8hpp.html" target="_top" xlink:title="LEAC utils.">
<polygon fill="white" stroke="black" points="158.879,-168.5 158.879,-187.5 235.879,-187.5 235.879,-168.5 158.879,-168.5"/>
<text text-anchor="middle" x="197.379" y="-175.5" font-family="Helvetica,sans-Serif" font-size="10.00">leac_utils.hpp</text>
</a>
</g>
</g>
<!-- Node0&#45;&gt;Node32 -->
<g id="edge57" class="edge"><title>Node0&#45;&gt;Node32</title>
<path fill="none" stroke="midnightblue" d="M311.069,-224.399C285.957,-214.372 252.542,-201.028 228.444,-191.405"/>
<polygon fill="midnightblue" stroke="midnightblue" points="229.645,-188.116 219.06,-187.658 227.049,-194.617 229.645,-188.116"/>
</g>
<!-- Node7&#45;&gt;Node4 -->
<g id="edge10" class="edge"><title>Node7&#45;&gt;Node4</title>
<path fill="none" stroke="midnightblue" d="M409.841,-56.4435C438.888,-47.0513 485.573,-31.9553 517.085,-21.7658"/>
<polygon fill="midnightblue" stroke="midnightblue" points="518.304,-25.0503 526.742,-18.6433 516.15,-18.3899 518.304,-25.0503"/>
</g>
<!-- Node8 -->
<g id="node9" class="node"><title>Node8</title>
<g id="a_node9"><a xlink:title=" ">
<polygon fill="white" stroke="#bfbfbf" points="814.379,-0.5 814.379,-19.5 872.379,-19.5 872.379,-0.5 814.379,-0.5"/>
<text text-anchor="middle" x="843.379" y="-7.5" font-family="Helvetica,sans-Serif" font-size="10.00">algorithm</text>
</a>
</g>
</g>
<!-- Node7&#45;&gt;Node8 -->
<g id="edge8" class="edge"><title>Node7&#45;&gt;Node8</title>
<path fill="none" stroke="midnightblue" d="M427.596,-57.294C430.566,-56.8374 433.514,-56.4013 436.379,-56 570.921,-37.1551 731.394,-21.3691 804.111,-14.5764"/>
<polygon fill="midnightblue" stroke="midnightblue" points="804.556,-18.0503 814.189,-13.6402 803.909,-11.0803 804.556,-18.0503"/>
</g>
<!-- Node9 -->
<g id="node10" class="node"><title>Node9</title>
<g id="a_node10"><a xlink:title=" ">
<polygon fill="white" stroke="#bfbfbf" points="353.879,-0.5 353.879,-19.5 412.879,-19.5 412.879,-0.5 353.879,-0.5"/>
<text text-anchor="middle" x="383.379" y="-7.5" font-family="Helvetica,sans-Serif" font-size="10.00">functional</text>
</a>
</g>
</g>
<!-- Node7&#45;&gt;Node9 -->
<g id="edge9" class="edge"><title>Node7&#45;&gt;Node9</title>
<path fill="none" stroke="midnightblue" d="M383.379,-56.083C383.379,-49.0059 383.379,-38.8611 383.379,-29.9865"/>
<polygon fill="midnightblue" stroke="midnightblue" points="386.88,-29.751 383.379,-19.7511 379.88,-29.7511 386.88,-29.751"/>
</g>
<!-- Node10 -->
<g id="node11" class="node"><title>Node10</title>
<g id="a_node11"><a xlink:title=" ">
<polygon fill="white" stroke="#bfbfbf" points="430.879,-0.5 430.879,-19.5 481.879,-19.5 481.879,-0.5 430.879,-0.5"/>
<text text-anchor="middle" x="456.379" y="-7.5" font-family="Helvetica,sans-Serif" font-size="10.00">random</text>
</a>
</g>
</g>
<!-- Node7&#45;&gt;Node10 -->
<g id="edge11" class="edge"><title>Node7&#45;&gt;Node10</title>
<path fill="none" stroke="midnightblue" d="M395.108,-56.324C406.217,-48.1066 423.122,-35.6017 436.363,-25.8069"/>
<polygon fill="midnightblue" stroke="midnightblue" points="438.479,-28.5948 444.437,-19.8339 434.316,-22.9671 438.479,-28.5948"/>
</g>
<!-- Node11 -->
<g id="node12" class="node"><title>Node11</title>
<g id="a_node12"><a xlink:title=" ">
<polygon fill="white" stroke="#bfbfbf" points="689.379,-0.5 689.379,-19.5 733.379,-19.5 733.379,-0.5 689.379,-0.5"/>
<text text-anchor="middle" x="711.379" y="-7.5" font-family="Helvetica,sans-Serif" font-size="10.00">vector</text>
</a>
</g>
</g>
<!-- Node7&#45;&gt;Node11 -->
<g id="edge12" class="edge"><title>Node7&#45;&gt;Node11</title>
<path fill="none" stroke="midnightblue" d="M427.621,-57.4549C430.584,-56.9595 433.525,-56.4707 436.379,-56 536.302,-39.5226 561.54,-36.9711 661.379,-20 667.031,-19.0393 673.037,-17.9862 678.851,-16.9496"/>
<polygon fill="midnightblue" stroke="midnightblue" points="679.772,-20.3402 688.995,-15.125 678.533,-13.4508 679.772,-20.3402"/>
</g>
<!-- Node12 -->
<g id="node13" class="node"><title>Node12</title>
<g id="a_node13"><a xlink:title=" ">
<polygon fill="white" stroke="#bfbfbf" points="611.879,-0.5 611.879,-19.5 652.879,-19.5 652.879,-0.5 611.879,-0.5"/>
<text text-anchor="middle" x="632.379" y="-7.5" font-family="Helvetica,sans-Serif" font-size="10.00">string</text>
</a>
</g>
</g>
<!-- Node7&#45;&gt;Node12 -->
<g id="edge13" class="edge"><title>Node7&#45;&gt;Node12</title>
<path fill="none" stroke="midnightblue" d="M422.834,-56.4435C472.473,-45.6785 556.662,-27.4206 601.737,-17.6454"/>
<polygon fill="midnightblue" stroke="midnightblue" points="602.754,-21.0062 611.785,-15.4662 601.27,-14.1652 602.754,-21.0062"/>
</g>
<!-- Node13 -->
<g id="node14" class="node"><title>Node13</title>
<g id="a_node14"><a xlink:title=" ">
<polygon fill="white" stroke="#bfbfbf" points="282.879,-0.5 282.879,-19.5 335.879,-19.5 335.879,-0.5 282.879,-0.5"/>
<text text-anchor="middle" x="309.379" y="-7.5" font-family="Helvetica,sans-Serif" font-size="10.00">sstream</text>
</a>
</g>
</g>
<!-- Node7&#45;&gt;Node13 -->
<g id="edge14" class="edge"><title>Node7&#45;&gt;Node13</title>
<path fill="none" stroke="midnightblue" d="M371.49,-56.324C360.229,-48.1066 343.093,-35.6017 329.67,-25.8069"/>
<polygon fill="midnightblue" stroke="midnightblue" points="331.626,-22.9014 321.485,-19.8339 327.5,-28.5559 331.626,-22.9014"/>
</g>
<!-- Node14&#45;&gt;Node3 -->
<g id="edge17" class="edge"><title>Node14&#45;&gt;Node3</title>
<path fill="none" stroke="midnightblue" d="M439.918,-168.444C409.51,-158.611 359.77,-142.527 328.345,-132.366"/>
<polygon fill="midnightblue" stroke="midnightblue" points="329.037,-128.911 318.445,-129.165 326.883,-135.572 329.037,-128.911"/>
</g>
<!-- Node14&#45;&gt;Node7 -->
<g id="edge19" class="edge"><title>Node14&#45;&gt;Node7</title>
<path fill="none" stroke="midnightblue" d="M459.867,-168.368C446.109,-150.135 413.883,-107.426 395.962,-83.6752"/>
<polygon fill="midnightblue" stroke="midnightblue" points="398.679,-81.4659 389.862,-75.5914 393.091,-85.6821 398.679,-81.4659"/>
</g>
<!-- Node14&#45;&gt;Node8 -->
<g id="edge18" class="edge"><title>Node14&#45;&gt;Node8</title>
<path fill="none" stroke="midnightblue" d="M521.287,-168.466C558.896,-161.47 609.373,-149.783 651.379,-132 719.658,-103.094 791.304,-51.3016 824.471,-25.8896"/>
<polygon fill="midnightblue" stroke="midnightblue" points="826.645,-28.6327 832.411,-19.7442 822.361,-23.0971 826.645,-28.6327"/>
</g>
<!-- Node15 -->
<g id="node16" class="node"><title>Node15</title>
<g id="a_node16"><a xlink:title=" ">
<polygon fill="white" stroke="#bfbfbf" points="560.379,-112.5 560.379,-131.5 642.379,-131.5 642.379,-112.5 560.379,-112.5"/>
<text text-anchor="middle" x="601.379" y="-119.5" font-family="Helvetica,sans-Serif" font-size="10.00">unordered_set</text>
</a>
</g>
</g>
<!-- Node14&#45;&gt;Node15 -->
<g id="edge16" class="edge"><title>Node14&#45;&gt;Node15</title>
<path fill="none" stroke="midnightblue" d="M487.771,-168.444C510.087,-159.517 545.283,-145.439 570.587,-135.317"/>
<polygon fill="midnightblue" stroke="midnightblue" points="572.104,-138.48 580.088,-131.516 569.504,-131.981 572.104,-138.48"/>
</g>
<!-- Node16 -->
<g id="node17" class="node"><title>Node16</title>
<g id="a_node17"><a xlink:href="ga__selection_8hpp.html" target="_top" xlink:title="chromosome selection method in genetic algorithms">
<polygon fill="white" stroke="black" points="450.379,-112.5 450.379,-131.5 542.379,-131.5 542.379,-112.5 450.379,-112.5"/>
<text text-anchor="middle" x="496.379" y="-119.5" font-family="Helvetica,sans-Serif" font-size="10.00">ga_selection.hpp</text>
</a>
</g>
</g>
<!-- Node14&#45;&gt;Node16 -->
<g id="edge20" class="edge"><title>Node14&#45;&gt;Node16</title>
<path fill="none" stroke="midnightblue" d="M471.333,-168.083C475.484,-160.613 481.533,-149.724 486.646,-140.52"/>
<polygon fill="midnightblue" stroke="midnightblue" points="489.721,-142.192 491.518,-131.751 483.602,-138.793 489.721,-142.192"/>
</g>
<!-- Node14&#45;&gt;Node20 -->
<g id="edge28" class="edge"><title>Node14&#45;&gt;Node20</title>
<path fill="none" stroke="midnightblue" d="M458.591,-168.404C448.154,-155.788 431.973,-131.625 441.379,-112 447.632,-98.9542 459.715,-88.4921 471.062,-80.9506"/>
<polygon fill="midnightblue" stroke="midnightblue" points="473.189,-83.7515 479.878,-75.5351 469.525,-77.7869 473.189,-83.7515"/>
</g>
<!-- Node21 -->
<g id="node22" class="node"><title>Node21</title>
<g id="a_node22"><a xlink:href="insertion__operator_8hpp.html" target="_top" xlink:title="insertion operator">
<polygon fill="white" stroke="black" points="1040.88,-112.5 1040.88,-131.5 1155.88,-131.5 1155.88,-112.5 1040.88,-112.5"/>
<text text-anchor="middle" x="1098.38" y="-119.5" font-family="Helvetica,sans-Serif" font-size="10.00">insertion_operator.hpp</text>
</a>
</g>
</g>
<!-- Node14&#45;&gt;Node21 -->
<g id="edge29" class="edge"><title>Node14&#45;&gt;Node21</title>
<path fill="none" stroke="midnightblue" d="M528.998,-171.65C648.343,-161.452 907.437,-139.315 1030.65,-128.787"/>
<polygon fill="midnightblue" stroke="midnightblue" points="1031.05,-132.266 1040.72,-127.927 1030.45,-125.291 1031.05,-132.266"/>
</g>
<!-- Node16&#45;&gt;Node4 -->
<g id="edge22" class="edge"><title>Node16&#45;&gt;Node4</title>
<path fill="none" stroke="midnightblue" d="M516.602,-112.495C531.151,-105.168 549.68,-93.0628 558.379,-76 565.796,-61.4533 562.374,-42.7722 557.94,-29.1731"/>
<polygon fill="midnightblue" stroke="midnightblue" points="561.121,-27.6853 554.354,-19.5325 554.56,-30.1253 561.121,-27.6853"/>
</g>
<!-- Node16&#45;&gt;Node7 -->
<g id="edge26" class="edge"><title>Node16&#45;&gt;Node7</title>
<path fill="none" stroke="midnightblue" d="M478.474,-112.444C460.125,-103.675 431.374,-89.9355 410.286,-79.8579"/>
<polygon fill="midnightblue" stroke="midnightblue" points="411.733,-76.6703 401.201,-75.5164 408.714,-82.9862 411.733,-76.6703"/>
</g>
<!-- Node16&#45;&gt;Node11 -->
<g id="edge21" class="edge"><title>Node16&#45;&gt;Node11</title>
<path fill="none" stroke="midnightblue" d="M513.25,-112.368C550.694,-93.2113 640.946,-47.0355 685.546,-24.2172"/>
<polygon fill="midnightblue" stroke="midnightblue" points="687.279,-27.2621 694.587,-19.5914 684.09,-21.0304 687.279,-27.2621"/>
</g>
<!-- Node17 -->
<g id="node18" class="node"><title>Node17</title>
<g id="a_node18"><a xlink:href="common_8hpp.html" target="_top" xlink:title="common">
<polygon fill="white" stroke="black" points="909.379,-56.5 909.379,-75.5 983.379,-75.5 983.379,-56.5 909.379,-56.5"/>
<text text-anchor="middle" x="946.379" y="-63.5" font-family="Helvetica,sans-Serif" font-size="10.00">common.hpp</text>
</a>
</g>
</g>
<!-- Node16&#45;&gt;Node17 -->
<g id="edge23" class="edge"><title>Node16&#45;&gt;Node17</title>
<path fill="none" stroke="midnightblue" d="M542.568,-113.274C545.548,-112.828 548.504,-112.399 551.379,-112 676.745,-94.6123 825.183,-79.0451 899.315,-71.6119"/>
<polygon fill="midnightblue" stroke="midnightblue" points="899.67,-75.0941 909.272,-70.6177 898.974,-68.1287 899.67,-75.0941"/>
</g>
<!-- Node16&#45;&gt;Node20 -->
<g id="edge27" class="edge"><title>Node16&#45;&gt;Node20</title>
<path fill="none" stroke="midnightblue" d="M496.545,-112.083C496.676,-105.006 496.864,-94.8611 497.028,-85.9865"/>
<polygon fill="midnightblue" stroke="midnightblue" points="500.532,-85.8142 497.217,-75.7511 493.533,-85.6845 500.532,-85.8142"/>
</g>
<!-- Node18 -->
<g id="node19" class="node"><title>Node18</title>
<g id="a_node19"><a xlink:title=" ">
<polygon fill="white" stroke="#bfbfbf" points="922.879,-0.5 922.879,-19.5 969.879,-19.5 969.879,-0.5 922.879,-0.5"/>
<text text-anchor="middle" x="946.379" y="-7.5" font-family="Helvetica,sans-Serif" font-size="10.00">stdint.h</text>
</a>
</g>
</g>
<!-- Node17&#45;&gt;Node18 -->
<g id="edge24" class="edge"><title>Node17&#45;&gt;Node18</title>
<path fill="none" stroke="midnightblue" d="M946.379,-56.083C946.379,-49.0059 946.379,-38.8611 946.379,-29.9865"/>
<polygon fill="midnightblue" stroke="midnightblue" points="949.88,-29.751 946.379,-19.7511 942.88,-29.7511 949.88,-29.751"/>
</g>
<!-- Node19 -->
<g id="node20" class="node"><title>Node19</title>
<g id="a_node20"><a xlink:title=" ">
<polygon fill="white" stroke="#bfbfbf" points="1191.88,-0.5 1191.88,-19.5 1230.88,-19.5 1230.88,-0.5 1191.88,-0.5"/>
<text text-anchor="middle" x="1211.38" y="-7.5" font-family="Helvetica,sans-Serif" font-size="10.00">limits</text>
</a>
</g>
</g>
<!-- Node17&#45;&gt;Node19 -->
<g id="edge25" class="edge"><title>Node17&#45;&gt;Node19</title>
<path fill="none" stroke="midnightblue" d="M983.535,-57.7205C986.527,-57.1373 989.504,-56.5582 992.379,-56 1075.47,-39.8743 1097.01,-39.4747 1179.38,-20 1180.26,-19.7909 1181.16,-19.5734 1182.07,-19.3494"/>
<polygon fill="midnightblue" stroke="midnightblue" points="1183.04,-22.713 1191.82,-16.7829 1181.25,-15.9435 1183.04,-22.713"/>
</g>
<!-- Node21&#45;&gt;Node1 -->
<g id="edge30" class="edge"><title>Node21&#45;&gt;Node1</title>
<path fill="none" stroke="midnightblue" d="M1150.94,-112.446C1193.94,-104.488 1250.32,-91.5368 1267.38,-76 1280.56,-63.9952 1286.53,-44.1023 1289.21,-29.4797"/>
<polygon fill="midnightblue" stroke="midnightblue" points="1292.68,-29.9492 1290.69,-19.5429 1285.75,-28.9187 1292.68,-29.9492"/>
</g>
<!-- Node22 -->
<g id="node23" class="node"><title>Node22</title>
<g id="a_node23"><a xlink:href="outfilename_8hpp.html" target="_top" xlink:title="out file name">
<polygon fill="white" stroke="black" points="1101.38,-56.5 1101.38,-75.5 1187.38,-75.5 1187.38,-56.5 1101.38,-56.5"/>
<text text-anchor="middle" x="1144.38" y="-63.5" font-family="Helvetica,sans-Serif" font-size="10.00">outfilename.hpp</text>
</a>
</g>
</g>
<!-- Node21&#45;&gt;Node22 -->
<g id="edge31" class="edge"><title>Node21&#45;&gt;Node22</title>
<path fill="none" stroke="midnightblue" d="M1105.98,-112.083C1112.61,-104.298 1122.4,-92.8015 1130.44,-83.3665"/>
<polygon fill="midnightblue" stroke="midnightblue" points="1133.1,-85.6332 1136.92,-75.7511 1127.78,-81.0939 1133.1,-85.6332"/>
</g>
<!-- Node22&#45;&gt;Node1 -->
<g id="edge32" class="edge"><title>Node22&#45;&gt;Node1</title>
<path fill="none" stroke="midnightblue" d="M1167.67,-56.4435C1192.19,-47.4381 1230.98,-33.1891 1258.58,-23.049"/>
<polygon fill="midnightblue" stroke="midnightblue" points="1260.02,-26.25 1268.2,-19.5164 1257.6,-19.6793 1260.02,-26.25"/>
</g>
<!-- Node23 -->
<g id="node24" class="node"><title>Node23</title>
<g id="a_node24"><a xlink:title=" ">
<polygon fill="white" stroke="#bfbfbf" points="1054.38,-0.5 1054.38,-19.5 1104.38,-19.5 1104.38,-0.5 1054.38,-0.5"/>
<text text-anchor="middle" x="1079.38" y="-7.5" font-family="Helvetica,sans-Serif" font-size="10.00">fstream</text>
</a>
</g>
</g>
<!-- Node22&#45;&gt;Node23 -->
<g id="edge33" class="edge"><title>Node22&#45;&gt;Node23</title>
<path fill="none" stroke="midnightblue" d="M1133.94,-56.324C1124.23,-48.2631 1109.56,-36.0765 1097.88,-26.3695"/>
<polygon fill="midnightblue" stroke="midnightblue" points="1099.94,-23.532 1090.01,-19.8339 1095.47,-28.9163 1099.94,-23.532"/>
</g>
<!-- Node24 -->
<g id="node25" class="node"><title>Node24</title>
<g id="a_node25"><a xlink:title=" ">
<polygon fill="white" stroke="#bfbfbf" points="1122.38,-0.5 1122.38,-19.5 1170.38,-19.5 1170.38,-0.5 1122.38,-0.5"/>
<text text-anchor="middle" x="1146.38" y="-7.5" font-family="Helvetica,sans-Serif" font-size="10.00">string.h</text>
</a>
</g>
</g>
<!-- Node22&#45;&gt;Node24 -->
<g id="edge34" class="edge"><title>Node22&#45;&gt;Node24</title>
<path fill="none" stroke="midnightblue" d="M1144.71,-56.083C1144.97,-49.0059 1145.35,-38.8611 1145.68,-29.9865"/>
<polygon fill="midnightblue" stroke="midnightblue" points="1149.18,-29.8738 1146.06,-19.7511 1142.19,-29.6147 1149.18,-29.8738"/>
</g>
<!-- Node25&#45;&gt;Node1 -->
<g id="edge36" class="edge"><title>Node25&#45;&gt;Node1</title>
<path fill="none" stroke="midnightblue" d="M822.158,-116.661C926.768,-106.013 1187.65,-79.2243 1196.38,-76 1226.67,-64.8145 1256.56,-41.8585 1274.5,-26.4438"/>
<polygon fill="midnightblue" stroke="midnightblue" points="1277.11,-28.8079 1282.29,-19.5671 1272.48,-23.5592 1277.11,-28.8079"/>
</g>
<!-- Node25&#45;&gt;Node8 -->
<g id="edge39" class="edge"><title>Node25&#45;&gt;Node8</title>
<path fill="none" stroke="midnightblue" d="M788.743,-112.492C797.64,-103.986 810.886,-90.1639 819.379,-76 828.079,-61.4922 834.463,-43.3095 838.45,-29.867"/>
<polygon fill="midnightblue" stroke="midnightblue" points="841.922,-30.4473 841.234,-19.8749 835.179,-28.5687 841.922,-30.4473"/>
</g>
<!-- Node25&#45;&gt;Node11 -->
<g id="edge37" class="edge"><title>Node25&#45;&gt;Node11</title>
<path fill="none" stroke="midnightblue" d="M774.044,-112.368C762.871,-94.2957 736.834,-52.1764 722.079,-28.3074"/>
<polygon fill="midnightblue" stroke="midnightblue" points="724.926,-26.257 716.691,-19.5914 718.972,-29.9378 724.926,-26.257"/>
</g>
<!-- Node25&#45;&gt;Node12 -->
<g id="edge38" class="edge"><title>Node25&#45;&gt;Node12</title>
<path fill="none" stroke="midnightblue" d="M767.845,-112.368C742.834,-93.6531 683.363,-49.1509 652.201,-25.8324"/>
<polygon fill="midnightblue" stroke="midnightblue" points="653.964,-22.7804 643.861,-19.5914 649.77,-28.385 653.964,-22.7804"/>
</g>
<!-- Node25&#45;&gt;Node17 -->
<g id="edge40" class="edge"><title>Node25&#45;&gt;Node17</title>
<path fill="none" stroke="midnightblue" d="M805.841,-112.444C834.058,-103.32 878.92,-88.8133 910.348,-78.6509"/>
<polygon fill="midnightblue" stroke="midnightblue" points="911.604,-81.9234 920.042,-75.5164 909.45,-75.263 911.604,-81.9234"/>
</g>
<!-- Node25&#45;&gt;Node20 -->
<g id="edge41" class="edge"><title>Node25&#45;&gt;Node20</title>
<path fill="none" stroke="midnightblue" d="M736.856,-112.857C687.564,-103.418 606.203,-87.8386 552.201,-77.4977"/>
<polygon fill="midnightblue" stroke="midnightblue" points="552.596,-74.0099 542.116,-75.5666 551.279,-80.8849 552.596,-74.0099"/>
</g>
<!-- Node26&#45;&gt;Node1 -->
<g id="edge43" class="edge"><title>Node26&#45;&gt;Node1</title>
<path fill="none" stroke="midnightblue" d="M1021.97,-173.429C1115.5,-166.089 1316.56,-148.598 1343.38,-132 1375.33,-112.231 1400.06,-88.0015 1380.38,-56 1369.18,-37.7888 1348.08,-26.6763 1329.23,-20.0514"/>
<polygon fill="midnightblue" stroke="midnightblue" points="1330.24,-16.6985 1319.65,-16.9822 1328.11,-23.3651 1330.24,-16.6985"/>
</g>
<!-- Node26&#45;&gt;Node2 -->
<g id="edge45" class="edge"><title>Node26&#45;&gt;Node2</title>
<path fill="none" stroke="midnightblue" d="M961.365,-168.324C948.848,-159.979 929.698,-147.212 914.908,-137.352"/>
<polygon fill="midnightblue" stroke="midnightblue" points="916.623,-134.289 906.361,-131.655 912.74,-140.114 916.623,-134.289"/>
</g>
<!-- Node26&#45;&gt;Node4 -->
<g id="edge48" class="edge"><title>Node26&#45;&gt;Node4</title>
<path fill="none" stroke="midnightblue" d="M926.758,-174.231C875.766,-169.932 793.296,-159.09 727.379,-132 662.827,-105.471 597.888,-52.8972 567.754,-26.6586"/>
<polygon fill="midnightblue" stroke="midnightblue" points="569.694,-23.703 559.881,-19.7086 565.062,-28.9507 569.694,-23.703"/>
</g>
<!-- Node26&#45;&gt;Node8 -->
<g id="edge47" class="edge"><title>Node26&#45;&gt;Node8</title>
<path fill="none" stroke="midnightblue" d="M972.845,-168.214C970.172,-154.927 963.633,-129.426 950.379,-112 933.802,-90.2048 920.648,-94.4124 900.379,-76 883.793,-60.9327 867.167,-41.3324 856.188,-27.6108"/>
<polygon fill="midnightblue" stroke="midnightblue" points="858.78,-25.2448 849.846,-19.5495 853.278,-29.573 858.78,-25.2448"/>
</g>
<!-- Node26&#45;&gt;Node11 -->
<g id="edge44" class="edge"><title>Node26&#45;&gt;Node11</title>
<path fill="none" stroke="midnightblue" d="M968.454,-168.464C958.804,-155.053 938.533,-128.842 916.379,-112 860.969,-69.8755 785.229,-38.0539 743.046,-22.197"/>
<polygon fill="midnightblue" stroke="midnightblue" points="744.169,-18.8805 733.576,-18.694 741.74,-25.4458 744.169,-18.8805"/>
</g>
<!-- Node26&#45;&gt;Node17 -->
<g id="edge49" class="edge"><title>Node26&#45;&gt;Node17</title>
<path fill="none" stroke="midnightblue" d="M979.363,-168.326C985.982,-155.613 995.999,-131.331 988.379,-112 983.865,-100.548 974.91,-90.291 966.425,-82.4724"/>
<polygon fill="midnightblue" stroke="midnightblue" points="968.465,-79.6113 958.593,-75.7638 963.911,-84.9275 968.465,-79.6113"/>
</g>
<!-- Node26&#45;&gt;Node21 -->
<g id="edge50" class="edge"><title>Node26&#45;&gt;Node21</title>
<path fill="none" stroke="midnightblue" d="M994.028,-168.444C1014.34,-159.596 1046.28,-145.687 1069.48,-135.586"/>
<polygon fill="midnightblue" stroke="midnightblue" points="1071.05,-138.718 1078.82,-131.516 1068.26,-132.3 1071.05,-138.718"/>
</g>
<!-- Node27 -->
<g id="node28" class="node"><title>Node27</title>
<g id="a_node28"><a xlink:title=" ">
<polygon fill="white" stroke="#bfbfbf" points="1174.38,-112.5 1174.38,-131.5 1210.38,-131.5 1210.38,-112.5 1174.38,-112.5"/>
<text text-anchor="middle" x="1192.38" y="-119.5" font-family="Helvetica,sans-Serif" font-size="10.00">map</text>
</a>
</g>
</g>
<!-- Node26&#45;&gt;Node27 -->
<g id="edge46" class="edge"><title>Node26&#45;&gt;Node27</title>
<path fill="none" stroke="midnightblue" d="M1014.65,-168.426C1053.27,-159.975 1113.11,-146.287 1164.38,-132 1164.48,-131.972 1164.58,-131.943 1164.68,-131.915"/>
<polygon fill="midnightblue" stroke="midnightblue" points="1165.79,-135.237 1174.37,-129.019 1163.78,-128.531 1165.79,-135.237"/>
</g>
<!-- Node29 -->
<g id="node30" class="node"><title>Node29</title>
<g id="a_node30"><a xlink:href="interface__level1_8hpp.html" target="_top" xlink:title="Interface_level 1.">
<polygon fill="white" stroke="black" points="1228.38,-112.5 1228.38,-131.5 1334.38,-131.5 1334.38,-112.5 1228.38,-112.5"/>
<text text-anchor="middle" x="1281.38" y="-119.5" font-family="Helvetica,sans-Serif" font-size="10.00">interface_level1.hpp</text>
</a>
</g>
</g>
<!-- Node28&#45;&gt;Node29 -->
<g id="edge52" class="edge"><title>Node28&#45;&gt;Node29</title>
<path fill="none" stroke="midnightblue" d="M1207.52,-168.324C1221.25,-159.9 1242.32,-146.971 1258.44,-137.074"/>
<polygon fill="midnightblue" stroke="midnightblue" points="1260.58,-139.868 1267.28,-131.655 1256.92,-133.902 1260.58,-139.868"/>
</g>
<!-- Node29&#45;&gt;Node8 -->
<g id="edge53" class="edge"><title>Node29&#45;&gt;Node8</title>
<path fill="none" stroke="midnightblue" d="M1230.62,-112.499C1191.97,-105.174 1137.85,-93.0698 1092.38,-76 1074.51,-69.2926 1072.33,-62.4959 1054.38,-56 996.301,-34.9774 925.495,-22.3663 882.456,-16.0532"/>
<polygon fill="midnightblue" stroke="midnightblue" points="882.793,-12.5659 872.399,-14.6188 881.805,-19.4958 882.793,-12.5659"/>
</g>
<!-- Node29&#45;&gt;Node19 -->
<g id="edge55" class="edge"><title>Node29&#45;&gt;Node19</title>
<path fill="none" stroke="midnightblue" d="M1275.89,-112.368C1264.39,-94.2957 1237.58,-52.1764 1222.39,-28.3074"/>
<polygon fill="midnightblue" stroke="midnightblue" points="1225.17,-26.149 1216.85,-19.5914 1219.26,-29.9071 1225.17,-26.149"/>
</g>
<!-- Node30 -->
<g id="node31" class="node"><title>Node30</title>
<g id="a_node31"><a xlink:title=" ">
<polygon fill="white" stroke="#bfbfbf" points="1319.38,-56.5 1319.38,-75.5 1371.38,-75.5 1371.38,-56.5 1319.38,-56.5"/>
<text text-anchor="middle" x="1345.38" y="-63.5" font-family="Helvetica,sans-Serif" font-size="10.00">numeric</text>
</a>
</g>
</g>
<!-- Node29&#45;&gt;Node30 -->
<g id="edge54" class="edge"><title>Node29&#45;&gt;Node30</title>
<path fill="none" stroke="midnightblue" d="M1291.66,-112.324C1301.22,-104.263 1315.66,-92.0765 1327.16,-82.3695"/>
<polygon fill="midnightblue" stroke="midnightblue" points="1329.52,-84.9577 1334.91,-75.8339 1325.01,-79.6076 1329.52,-84.9577"/>
</g>
<!-- Node31 -->
<g id="node32" class="node"><title>Node31</title>
<g id="a_node32"><a xlink:title=" ">
<polygon fill="white" stroke="#bfbfbf" points="1001.38,-56.5 1001.38,-75.5 1045.38,-75.5 1045.38,-56.5 1001.38,-56.5"/>
<text text-anchor="middle" x="1023.38" y="-63.5" font-family="Helvetica,sans-Serif" font-size="10.00">cmath</text>
</a>
</g>
</g>
<!-- Node29&#45;&gt;Node31 -->
<g id="edge56" class="edge"><title>Node29&#45;&gt;Node31</title>
<path fill="none" stroke="midnightblue" d="M1236.18,-112.457C1191.23,-103.815 1120.37,-89.797 1059.38,-76 1058.11,-75.7121 1056.81,-75.4135 1055.5,-75.1076"/>
<polygon fill="midnightblue" stroke="midnightblue" points="1055.97,-71.6198 1045.43,-72.6785 1054.33,-78.4249 1055.97,-71.6198"/>
</g>
<!-- Node32&#45;&gt;Node3 -->
<g id="edge58" class="edge"><title>Node32&#45;&gt;Node3</title>
<path fill="none" stroke="midnightblue" d="M213.768,-168.324C230.051,-159.703 255.247,-146.364 274.096,-136.386"/>
<polygon fill="midnightblue" stroke="midnightblue" points="275.832,-139.427 283.032,-131.655 272.557,-133.24 275.832,-139.427"/>
</g>
<!-- Node32&#45;&gt;Node5 -->
<g id="edge60" class="edge"><title>Node32&#45;&gt;Node5</title>
<path fill="none" stroke="midnightblue" d="M174.879,-168.444C151.302,-159.478 114.057,-145.314 87.4154,-135.183"/>
<polygon fill="midnightblue" stroke="midnightblue" points="88.3656,-131.8 77.7745,-131.516 85.8774,-138.342 88.3656,-131.8"/>
</g>
<!-- Node32&#45;&gt;Node6 -->
<g id="edge59" class="edge"><title>Node32&#45;&gt;Node6</title>
<path fill="none" stroke="midnightblue" d="M186.615,-168.324C176.613,-160.263 161.493,-148.077 149.449,-138.369"/>
<polygon fill="midnightblue" stroke="midnightblue" points="151.322,-135.384 141.34,-131.834 146.93,-140.834 151.322,-135.384"/>
</g>
<!-- Node32&#45;&gt;Node31 -->
<g id="edge61" class="edge"><title>Node32&#45;&gt;Node31</title>
<path fill="none" stroke="midnightblue" d="M236.05,-175.155C364.683,-168.892 773.279,-147.951 830.379,-132 849.141,-126.759 851.283,-119.209 869.379,-112 870.839,-111.419 946.752,-89.2996 991.436,-76.2938"/>
<polygon fill="midnightblue" stroke="midnightblue" points="992.635,-79.5899 1001.26,-73.4349 990.679,-72.8688 992.635,-79.5899"/>
</g>
<!-- Node33 -->
<g id="node34" class="node"><title>Node33</title>
<g id="a_node34"><a xlink:title=" ">
<polygon fill="white" stroke="#bfbfbf" points="174.379,-112.5 174.379,-131.5 224.379,-131.5 224.379,-112.5 174.379,-112.5"/>
<text text-anchor="middle" x="199.379" y="-119.5" font-family="Helvetica,sans-Serif" font-size="10.00">cassert</text>
</a>
</g>
</g>
<!-- Node32&#45;&gt;Node33 -->
<g id="edge62" class="edge"><title>Node32&#45;&gt;Node33</title>
<path fill="none" stroke="midnightblue" d="M197.71,-168.083C197.972,-161.006 198.348,-150.861 198.676,-141.986"/>
<polygon fill="midnightblue" stroke="midnightblue" points="202.183,-141.874 199.055,-131.751 195.188,-141.615 202.183,-141.874"/>
</g>
</g>
</svg>
        <g id="navigator" transform="translate(0 0)" fill="#404254">
                <rect fill="#f2f5e9" fill-opacity="0.5" stroke="#606060" stroke-width=".5" x="0" y="0" width="60" height="60"/>
                <use id="zoomplus" xlink:href="#zoomPlus" x="17" y="9" onmousedown="handleZoom(evt,'in')"/>
                <use id="zoomminus" xlink:href="#zoomMin" x="42" y="9" onmousedown="handleZoom(evt,'out')"/>
                <use id="reset" xlink:href="#resetDef" x="30" y="36" onmousedown="handleReset()"/>
                <g id="arrowUp" xlink:href="#dirArrow" transform="translate(30 24)" onmousedown="handlePan(0,-1)">
                  <use xlink:href="#rim" fill="#404040">
                        <set attributeName="fill" to="#808080" begin="arrowUp.mouseover" end="arrowUp.mouseout"/>
                  </use>
                  <path fill="none" stroke="white" stroke-width="1.5" d="M0,-3.0v7 M-2.5,-0.5L0,-3.0L2.5,-0.5"/>
                </g>
                <g id="arrowRight" xlink:href="#dirArrow" transform="rotate(90) translate(36 -43)" onmousedown="handlePan(1,0)">
                  <use xlink:href="#rim" fill="#404040">
                        <set attributeName="fill" to="#808080" begin="arrowRight.mouseover" end="arrowRight.mouseout"/>
                  </use>
                  <path fill="none" stroke="white" stroke-width="1.5" d="M0,-3.0v7 M-2.5,-0.5L0,-3.0L2.5,-0.5"/>
                </g>
                <g id="arrowDown" xlink:href="#dirArrow" transform="rotate(180) translate(-30 -48)" onmousedown="handlePan(0,1)">
                  <use xlink:href="#rim" fill="#404040">
                        <set attributeName="fill" to="#808080" begin="arrowDown.mouseover" end="arrowDown.mouseout"/>
                  </use>
                  <path fill="none" stroke="white" stroke-width="1.5" d="M0,-3.0v7 M-2.5,-0.5L0,-3.0L2.5,-0.5"/>
                </g>
                <g id="arrowLeft" xlink:href="#dirArrow" transform="rotate(270) translate(-36 17)" onmousedown="handlePan(-1,0)">
                  <use xlink:href="#rim" fill="#404040">
                        <set attributeName="fill" to="#808080" begin="arrowLeft.mouseover" end="arrowLeft.mouseout"/>
                  </use>
                  <path fill="none" stroke="white" stroke-width="1.5" d="M0,-3.0v7 M-2.5,-0.5L0,-3.0L2.5,-0.5"/>
                </g>
        </g>
        <svg viewBox="0 0 15 15" width="100%" height="30px" preserveAspectRatio="xMaxYMin meet">
         <g id="arrow_out" transform="scale(0.3 0.3)">
          <a xlink:href="probability__distribution_8hpp__incl_org.svg" target="_base">
           <rect id="button" ry="5" rx="5" y="6" x="6" height="38" width="38"
                fill="#f2f5e9" fill-opacity="0.5" stroke="#606060" stroke-width="1.0"/>
           <path id="arrow"
             d="M 11.500037,31.436501 C 11.940474,20.09759 22.043105,11.32322 32.158766,21.979434 L 37.068811,17.246167 C 37.068811,17.246167 37.088388,32 37.088388,32 L 22.160133,31.978069 C 22.160133,31.978069 26.997745,27.140456 26.997745,27.140456 C 18.528582,18.264221 13.291696,25.230495 11.500037,31.436501 z"
             style="fill:#404040;"/>
          </a>
         </g>
        </svg>
</svg>
