<?xml version="1.0" encoding="UTF-8" standalone="no"?>
<!DOCTYPE svg PUBLIC "-//W3C//DTD SVG 1.1//EN"
 "http://www.w3.org/Graphics/SVG/1.1/DTD/svg11.dtd">
<!-- Generated by graphviz version 2.38.0 (20140413.2041)
 -->
<!-- Title: include/probability_selection.hpp Pages: 1 -->
<svg width="841pt" height="207pt"
 viewBox="0.00 0.00 841.00 207.00" xmlns="http://www.w3.org/2000/svg" xmlns:xlink="http://www.w3.org/1999/xlink">
<g id="graph0" class="graph" transform="scale(1 1) rotate(0) translate(4 203)">
<title>include/probability_selection.hpp</title>
<polygon fill="white" stroke="none" points="-4,4 -4,-203 837,-203 837,4 -4,4"/>
<!-- Node0 -->
<g id="node1" class="node"><title>Node0</title>
<polygon fill="#bfbfbf" stroke="black" points="260.5,-168.5 260.5,-198.5 357.5,-198.5 357.5,-168.5 260.5,-168.5"/>
<text text-anchor="start" x="268.5" y="-186.5" font-family="Helvetica,sans-Serif" font-size="10.00">include/probability</text>
<text text-anchor="middle" x="309" y="-175.5" font-family="Helvetica,sans-Serif" font-size="10.00">_selection.hpp</text>
</g>
<!-- Node1 -->
<g id="node2" class="node"><title>Node1</title>
<polygon fill="white" stroke="#bfbfbf" points="71,-112.5 71,-131.5 153,-131.5 153,-112.5 71,-112.5"/>
<text text-anchor="middle" x="112" y="-119.5" font-family="Helvetica,sans-Serif" font-size="10.00">unordered_set</text>
</g>
<!-- Node0&#45;&gt;Node1 -->
<g id="edge1" class="edge"><title>Node0&#45;&gt;Node1</title>
<path fill="none" stroke="midnightblue" d="M262.314,-168.399C228.125,-158.073 182.294,-144.231 150.261,-134.556"/>
<polygon fill="midnightblue" stroke="midnightblue" points="150.963,-131.112 140.378,-131.571 148.939,-137.813 150.963,-131.112"/>
</g>
<!-- Node2 -->
<g id="node3" class="node"><title>Node2</title>
<polygon fill="white" stroke="#bfbfbf" points="171,-112.5 171,-131.5 209,-131.5 209,-112.5 171,-112.5"/>
<text text-anchor="middle" x="190" y="-119.5" font-family="Helvetica,sans-Serif" font-size="10.00">utility</text>
</g>
<!-- Node0&#45;&gt;Node2 -->
<g id="edge2" class="edge"><title>Node0&#45;&gt;Node2</title>
<path fill="none" stroke="midnightblue" d="M280.799,-168.399C261.278,-158.639 235.475,-145.737 216.365,-136.183"/>
<polygon fill="midnightblue" stroke="midnightblue" points="217.825,-132.999 207.316,-131.658 214.695,-139.26 217.825,-132.999"/>
</g>
<!-- Node3 -->
<g id="node4" class="node"><title>Node3</title>
<polygon fill="white" stroke="#bfbfbf" points="0,-0.5 0,-19.5 58,-19.5 58,-0.5 0,-0.5"/>
<text text-anchor="middle" x="29" y="-7.5" font-family="Helvetica,sans-Serif" font-size="10.00">algorithm</text>
</g>
<!-- Node0&#45;&gt;Node3 -->
<g id="edge3" class="edge"><title>Node0&#45;&gt;Node3</title>
<path fill="none" stroke="midnightblue" d="M292.521,-168.361C274.755,-153.452 245.338,-129.715 218,-112 163.115,-76.4349 94.487,-42.0887 56.8706,-24.0577"/>
<polygon fill="midnightblue" stroke="midnightblue" points="58.0946,-20.764 47.5611,-19.6254 55.0855,-27.0843 58.0946,-20.764"/>
</g>
<!-- Node4 -->
<g id="node5" class="node"><title>Node4</title>
<g id="a_node5"><a xlink:href="random__ext_8hpp.html" target="_top" xlink:title="Operation for the generation of pseudo random numbers. ">
<polygon fill="white" stroke="black" points="265,-56.5 265,-75.5 353,-75.5 353,-56.5 265,-56.5"/>
<text text-anchor="middle" x="309" y="-63.5" font-family="Helvetica,sans-Serif" font-size="10.00">random_ext.hpp</text>
</a>
</g>
</g>
<!-- Node0&#45;&gt;Node4 -->
<g id="edge4" class="edge"><title>Node0&#45;&gt;Node4</title>
<path fill="none" stroke="midnightblue" d="M309,-168.337C309,-147.622 309,-109.016 309,-85.8991"/>
<polygon fill="midnightblue" stroke="midnightblue" points="312.5,-85.6694 309,-75.6695 305.5,-85.6695 312.5,-85.6694"/>
</g>
<!-- Node11 -->
<g id="node12" class="node"><title>Node11</title>
<g id="a_node12"><a xlink:href="ga__selection_8hpp.html" target="_top" xlink:title="chromosome selection method in genetic algorithms ">
<polygon fill="white" stroke="black" points="355,-112.5 355,-131.5 447,-131.5 447,-112.5 355,-112.5"/>
<text text-anchor="middle" x="401" y="-119.5" font-family="Helvetica,sans-Serif" font-size="10.00">ga_selection.hpp</text>
</a>
</g>
</g>
<!-- Node0&#45;&gt;Node11 -->
<g id="edge12" class="edge"><title>Node0&#45;&gt;Node11</title>
<path fill="none" stroke="midnightblue" d="M330.803,-168.399C345.412,-158.951 364.573,-146.559 379.185,-137.109"/>
<polygon fill="midnightblue" stroke="midnightblue" points="381.117,-140.027 387.613,-131.658 377.316,-134.15 381.117,-140.027"/>
</g>
<!-- Node15 -->
<g id="node16" class="node"><title>Node15</title>
<g id="a_node16"><a xlink:href="verbose__global_8hpp.html" target="_top" xlink:title="verbose global ">
<polygon fill="white" stroke="black" points="539,-56.5 539,-75.5 643,-75.5 643,-56.5 539,-56.5"/>
<text text-anchor="middle" x="591" y="-63.5" font-family="Helvetica,sans-Serif" font-size="10.00">verbose_global.hpp</text>
</a>
</g>
</g>
<!-- Node0&#45;&gt;Node15 -->
<g id="edge20" class="edge"><title>Node0&#45;&gt;Node15</title>
<path fill="none" stroke="midnightblue" d="M354.22,-168.492C383.556,-159.032 422.428,-145.793 456,-132 495.002,-115.977 538.737,-94.1851 565.575,-80.3539"/>
<polygon fill="midnightblue" stroke="midnightblue" points="567.392,-83.3544 574.658,-75.6438 564.169,-77.1402 567.392,-83.3544"/>
</g>
<!-- Node16 -->
<g id="node17" class="node"><title>Node16</title>
<g id="a_node17"><a xlink:href="insertion__operator_8hpp.html" target="_top" xlink:title="insertion operator ">
<polygon fill="white" stroke="black" points="613.5,-112.5 613.5,-131.5 728.5,-131.5 728.5,-112.5 613.5,-112.5"/>
<text text-anchor="middle" x="671" y="-119.5" font-family="Helvetica,sans-Serif" font-size="10.00">insertion_operator.hpp</text>
</a>
</g>
</g>
<!-- Node0&#45;&gt;Node16 -->
<g id="edge21" class="edge"><title>Node0&#45;&gt;Node16</title>
<path fill="none" stroke="midnightblue" d="M357.821,-174.476C422.845,-163.788 537.911,-144.875 608.999,-133.191"/>
<polygon fill="midnightblue" stroke="midnightblue" points="609.857,-136.597 619.157,-131.521 608.721,-129.689 609.857,-136.597"/>
</g>
<!-- Node4&#45;&gt;Node3 -->
<g id="edge5" class="edge"><title>Node4&#45;&gt;Node3</title>
<path fill="none" stroke="midnightblue" d="M264.713,-57.4321C218.179,-49.3317 142.623,-35.7604 68.0493,-20.1411"/>
<polygon fill="midnightblue" stroke="midnightblue" points="68.5204,-16.6635 58.0134,-18.0252 67.0763,-23.513 68.5204,-16.6635"/>
</g>
<!-- Node5 -->
<g id="node6" class="node"><title>Node5</title>
<polygon fill="white" stroke="#bfbfbf" points="147.5,-0.5 147.5,-19.5 206.5,-19.5 206.5,-0.5 147.5,-0.5"/>
<text text-anchor="middle" x="177" y="-7.5" font-family="Helvetica,sans-Serif" font-size="10.00">functional</text>
</g>
<!-- Node4&#45;&gt;Node5 -->
<g id="edge6" class="edge"><title>Node4&#45;&gt;Node5</title>
<path fill="none" stroke="midnightblue" d="M288.084,-56.4435C266.264,-47.5171 231.85,-33.4387 207.108,-23.3168"/>
<polygon fill="midnightblue" stroke="midnightblue" points="208.399,-20.0634 197.818,-19.5164 205.748,-26.5422 208.399,-20.0634"/>
</g>
<!-- Node6 -->
<g id="node7" class="node"><title>Node6</title>
<polygon fill="white" stroke="#bfbfbf" points="352.5,-0.5 352.5,-19.5 399.5,-19.5 399.5,-0.5 352.5,-0.5"/>
<text text-anchor="middle" x="376" y="-7.5" font-family="Helvetica,sans-Serif" font-size="10.00">iterator</text>
</g>
<!-- Node4&#45;&gt;Node6 -->
<g id="edge7" class="edge"><title>Node4&#45;&gt;Node6</title>
<path fill="none" stroke="midnightblue" d="M319.765,-56.324C329.766,-48.2631 344.887,-36.0765 356.93,-26.3695"/>
<polygon fill="midnightblue" stroke="midnightblue" points="359.45,-28.8343 365.039,-19.8339 355.057,-23.3841 359.45,-28.8343"/>
</g>
<!-- Node7 -->
<g id="node8" class="node"><title>Node7</title>
<polygon fill="white" stroke="#bfbfbf" points="224.5,-0.5 224.5,-19.5 275.5,-19.5 275.5,-0.5 224.5,-0.5"/>
<text text-anchor="middle" x="250" y="-7.5" font-family="Helvetica,sans-Serif" font-size="10.00">random</text>
</g>
<!-- Node4&#45;&gt;Node7 -->
<g id="edge8" class="edge"><title>Node4&#45;&gt;Node7</title>
<path fill="none" stroke="midnightblue" d="M299.521,-56.324C290.799,-48.3414 277.657,-36.3128 267.102,-26.6529"/>
<polygon fill="midnightblue" stroke="midnightblue" points="269.392,-24.0036 259.652,-19.8339 264.666,-29.1674 269.392,-24.0036"/>
</g>
<!-- Node8 -->
<g id="node9" class="node"><title>Node8</title>
<polygon fill="white" stroke="#bfbfbf" points="418,-0.5 418,-19.5 462,-19.5 462,-0.5 418,-0.5"/>
<text text-anchor="middle" x="440" y="-7.5" font-family="Helvetica,sans-Serif" font-size="10.00">vector</text>
</g>
<!-- Node4&#45;&gt;Node8 -->
<g id="edge9" class="edge"><title>Node4&#45;&gt;Node8</title>
<path fill="none" stroke="midnightblue" d="M329.757,-56.4435C351.316,-47.5566 385.263,-33.5632 409.794,-23.4514"/>
<polygon fill="midnightblue" stroke="midnightblue" points="411.428,-26.5634 419.34,-19.5164 408.761,-20.0917 411.428,-26.5634"/>
</g>
<!-- Node9 -->
<g id="node10" class="node"><title>Node9</title>
<polygon fill="white" stroke="#bfbfbf" points="293.5,-0.5 293.5,-19.5 334.5,-19.5 334.5,-0.5 293.5,-0.5"/>
<text text-anchor="middle" x="314" y="-7.5" font-family="Helvetica,sans-Serif" font-size="10.00">string</text>
</g>
<!-- Node4&#45;&gt;Node9 -->
<g id="edge10" class="edge"><title>Node4&#45;&gt;Node9</title>
<path fill="none" stroke="midnightblue" d="M309.826,-56.083C310.481,-49.0059 311.42,-38.8611 312.242,-29.9865"/>
<polygon fill="midnightblue" stroke="midnightblue" points="315.753,-30.0312 313.19,-19.7511 308.783,-29.3858 315.753,-30.0312"/>
</g>
<!-- Node10 -->
<g id="node11" class="node"><title>Node10</title>
<polygon fill="white" stroke="#bfbfbf" points="76.5,-0.5 76.5,-19.5 129.5,-19.5 129.5,-0.5 76.5,-0.5"/>
<text text-anchor="middle" x="103" y="-7.5" font-family="Helvetica,sans-Serif" font-size="10.00">sstream</text>
</g>
<!-- Node4&#45;&gt;Node10 -->
<g id="edge11" class="edge"><title>Node4&#45;&gt;Node10</title>
<path fill="none" stroke="midnightblue" d="M276.359,-56.4435C239.075,-46.6702 178.232,-30.721 139.434,-20.5506"/>
<polygon fill="midnightblue" stroke="midnightblue" points="140.154,-17.1211 129.593,-17.971 138.379,-23.8923 140.154,-17.1211"/>
</g>
<!-- Node11&#45;&gt;Node4 -->
<g id="edge18" class="edge"><title>Node11&#45;&gt;Node4</title>
<path fill="none" stroke="midnightblue" d="M386.219,-112.324C371.733,-103.822 349.427,-90.7288 332.507,-80.7975"/>
<polygon fill="midnightblue" stroke="midnightblue" points="334.141,-77.6981 323.745,-75.6545 330.597,-83.735 334.141,-77.6981"/>
</g>
<!-- Node11&#45;&gt;Node6 -->
<g id="edge14" class="edge"><title>Node11&#45;&gt;Node6</title>
<path fill="none" stroke="midnightblue" d="M399.038,-112.368C395.004,-94.617 385.697,-53.6664 380.227,-29.5974"/>
<polygon fill="midnightblue" stroke="midnightblue" points="383.582,-28.567 377.953,-19.5914 376.756,-30.1185 383.582,-28.567"/>
</g>
<!-- Node11&#45;&gt;Node8 -->
<g id="edge13" class="edge"><title>Node11&#45;&gt;Node8</title>
<path fill="none" stroke="midnightblue" d="M404.06,-112.368C410.382,-94.5366 425.004,-53.2953 433.522,-29.2717"/>
<polygon fill="midnightblue" stroke="midnightblue" points="436.911,-30.1862 436.954,-19.5914 430.313,-27.847 436.911,-30.1862"/>
</g>
<!-- Node12 -->
<g id="node13" class="node"><title>Node12</title>
<g id="a_node13"><a xlink:href="common_8hpp.html" target="_top" xlink:title="common ">
<polygon fill="white" stroke="black" points="447,-56.5 447,-75.5 521,-75.5 521,-56.5 447,-56.5"/>
<text text-anchor="middle" x="484" y="-63.5" font-family="Helvetica,sans-Serif" font-size="10.00">common.hpp</text>
</a>
</g>
</g>
<!-- Node11&#45;&gt;Node12 -->
<g id="edge15" class="edge"><title>Node11&#45;&gt;Node12</title>
<path fill="none" stroke="midnightblue" d="M414.335,-112.324C427.162,-103.979 446.785,-91.2122 461.94,-81.3524"/>
<polygon fill="midnightblue" stroke="midnightblue" points="464.224,-84.0417 470.698,-75.6545 460.407,-78.1742 464.224,-84.0417"/>
</g>
<!-- Node11&#45;&gt;Node15 -->
<g id="edge19" class="edge"><title>Node11&#45;&gt;Node15</title>
<path fill="none" stroke="midnightblue" d="M431.106,-112.444C463.626,-103.201 515.579,-88.4356 551.391,-78.2572"/>
<polygon fill="midnightblue" stroke="midnightblue" points="552.373,-81.617 561.035,-75.5164 550.459,-74.8837 552.373,-81.617"/>
</g>
<!-- Node13 -->
<g id="node14" class="node"><title>Node13</title>
<polygon fill="white" stroke="#bfbfbf" points="537.5,-0.5 537.5,-19.5 584.5,-19.5 584.5,-0.5 537.5,-0.5"/>
<text text-anchor="middle" x="561" y="-7.5" font-family="Helvetica,sans-Serif" font-size="10.00">stdint.h</text>
</g>
<!-- Node12&#45;&gt;Node13 -->
<g id="edge16" class="edge"><title>Node12&#45;&gt;Node13</title>
<path fill="none" stroke="midnightblue" d="M496.371,-56.324C508.158,-48.0577 526.132,-35.4527 540.136,-25.6322"/>
<polygon fill="midnightblue" stroke="midnightblue" points="542.482,-28.2619 548.659,-19.6545 538.462,-22.5307 542.482,-28.2619"/>
</g>
<!-- Node14 -->
<g id="node15" class="node"><title>Node14</title>
<polygon fill="white" stroke="#bfbfbf" points="480.5,-0.5 480.5,-19.5 519.5,-19.5 519.5,-0.5 480.5,-0.5"/>
<text text-anchor="middle" x="500" y="-7.5" font-family="Helvetica,sans-Serif" font-size="10.00">limits</text>
</g>
<!-- Node12&#45;&gt;Node14 -->
<g id="edge17" class="edge"><title>Node12&#45;&gt;Node14</title>
<path fill="none" stroke="midnightblue" d="M486.642,-56.083C488.786,-48.8486 491.879,-38.4087 494.549,-29.3968"/>
<polygon fill="midnightblue" stroke="midnightblue" points="497.922,-30.3334 497.407,-19.7511 491.21,-28.3447 497.922,-30.3334"/>
</g>
<!-- Node17 -->
<g id="node18" class="node"><title>Node17</title>
<polygon fill="white" stroke="#bfbfbf" points="643,-0.5 643,-19.5 699,-19.5 699,-0.5 643,-0.5"/>
<text text-anchor="middle" x="671" y="-7.5" font-family="Helvetica,sans-Serif" font-size="10.00">iostream</text>
</g>
<!-- Node16&#45;&gt;Node17 -->
<g id="edge22" class="edge"><title>Node16&#45;&gt;Node17</title>
<path fill="none" stroke="midnightblue" d="M671,-112.368C671,-94.617 671,-53.6664 671,-29.5974"/>
<polygon fill="midnightblue" stroke="midnightblue" points="674.5,-29.5914 671,-19.5914 667.5,-29.5915 674.5,-29.5914"/>
</g>
<!-- Node18 -->
<g id="node19" class="node"><title>Node18</title>
<g id="a_node19"><a xlink:href="outfilename_8hpp.html" target="_top" xlink:title="out file name ">
<polygon fill="white" stroke="black" points="699,-56.5 699,-75.5 785,-75.5 785,-56.5 699,-56.5"/>
<text text-anchor="middle" x="742" y="-63.5" font-family="Helvetica,sans-Serif" font-size="10.00">outfilename.hpp</text>
</a>
</g>
</g>
<!-- Node16&#45;&gt;Node18 -->
<g id="edge23" class="edge"><title>Node16&#45;&gt;Node18</title>
<path fill="none" stroke="midnightblue" d="M682.407,-112.324C693.109,-104.185 709.341,-91.8395 722.163,-82.0874"/>
<polygon fill="midnightblue" stroke="midnightblue" points="724.544,-84.6734 730.385,-75.8339 720.307,-79.1018 724.544,-84.6734"/>
</g>
<!-- Node18&#45;&gt;Node17 -->
<g id="edge24" class="edge"><title>Node18&#45;&gt;Node17</title>
<path fill="none" stroke="midnightblue" d="M730.593,-56.324C719.891,-48.1849 703.659,-35.8395 690.837,-26.0874"/>
<polygon fill="midnightblue" stroke="midnightblue" points="692.693,-23.1018 682.615,-19.8339 688.456,-28.6734 692.693,-23.1018"/>
</g>
<!-- Node19 -->
<g id="node20" class="node"><title>Node19</title>
<polygon fill="white" stroke="#bfbfbf" points="717,-0.5 717,-19.5 767,-19.5 767,-0.5 717,-0.5"/>
<text text-anchor="middle" x="742" y="-7.5" font-family="Helvetica,sans-Serif" font-size="10.00">fstream</text>
</g>
<!-- Node18&#45;&gt;Node19 -->
<g id="edge25" class="edge"><title>Node18&#45;&gt;Node19</title>
<path fill="none" stroke="midnightblue" d="M742,-56.083C742,-49.0059 742,-38.8611 742,-29.9865"/>
<polygon fill="midnightblue" stroke="midnightblue" points="745.5,-29.751 742,-19.7511 738.5,-29.7511 745.5,-29.751"/>
</g>
<!-- Node20 -->
<g id="node21" class="node"><title>Node20</title>
<polygon fill="white" stroke="#bfbfbf" points="785,-0.5 785,-19.5 833,-19.5 833,-0.5 785,-0.5"/>
<text text-anchor="middle" x="809" y="-7.5" font-family="Helvetica,sans-Serif" font-size="10.00">string.h</text>
</g>
<!-- Node18&#45;&gt;Node20 -->
<g id="edge26" class="edge"><title>Node18&#45;&gt;Node20</title>
<path fill="none" stroke="midnightblue" d="M752.765,-56.324C762.766,-48.2631 777.887,-36.0765 789.93,-26.3695"/>
<polygon fill="midnightblue" stroke="midnightblue" points="792.45,-28.8343 798.039,-19.8339 788.057,-23.3841 792.45,-28.8343"/>
</g>
</g>
</svg>
