<?xml version="1.0" encoding="UTF-8" standalone="no"?>
<!DOCTYPE svg PUBLIC "-//W3C//DTD SVG 1.1//EN"
 "http://www.w3.org/Graphics/SVG/1.1/DTD/svg11.dtd">
<!-- Generated by graphviz version 2.38.0 (20140413.2041)
 -->
<!-- Title: include/random_ext.hpp Pages: 1 -->
<!--zoomable 464 -->
<svg id="main" version="1.1" xmlns="http://www.w3.org/2000/svg" xmlns:xlink="http://www.w3.org/1999/xlink" xml:space="preserve" onload="init(evt)">
<style type="text/css"><![CDATA[
.edge:hover path { stroke: red; }
.edge:hover polygon { stroke: red; fill: red; }
]]></style>
<script type="text/javascript"><![CDATA[
var edges = document.getElementsByTagName('g');
if (edges && edges.length) {
  for (var i=0;i<edges.length;i++) {
    if (edges[i].id.substr(0,4)=='edge') {
      edges[i].setAttribute('class','edge');
    }
  }
}
]]></script>
        <defs>
                <circle id="rim" cx="0" cy="0" r="7"/>
                <circle id="rim2" cx="0" cy="0" r="3.5"/>
                <g id="zoomPlus">
                        <use xlink:href="#rim" fill="#404040">
                                <set attributeName="fill" to="#808080" begin="zoomplus.mouseover" end="zoomplus.mouseout"/>
                        </use>
                        <path d="M-4,0h8M0,-4v8" fill="none" stroke="white" stroke-width="1.5" pointer-events="none"/>
                </g>
                <g id="zoomMin">
                        <use xlink:href="#rim" fill="#404040">
                                <set attributeName="fill" to="#808080" begin="zoomminus.mouseover" end="zoomminus.mouseout"/>
                        </use>
                        <path d="M-4,0h8" fill="none" stroke="white" stroke-width="1.5" pointer-events="none"/>
                </g>
                <g id="dirArrow">
                        <path fill="none" stroke="white" stroke-width="1.5" d="M0,-3.0v7 M-2.5,-0.5L0,-3.0L2.5,-0.5"/>
                </g>
               <g id="resetDef">
                       <use xlink:href="#rim2" fill="#404040">
                               <set attributeName="fill" to="#808080" begin="reset.mouseover" end="reset.mouseout"/>
                       </use>
               </g>
        </defs>

<script type="text/javascript">
var viewWidth = 2845;
var viewHeight = 464;
var sectionId = 'dynsection-1';
</script>
<script xlink:href="svgpan.js"/>
<svg id="graph" class="graph">
<g id="viewport">
<title>include/random_ext.hpp</title>
<polygon fill="white" stroke="none" points="-4,4 -4,-460 2840.5,-460 2840.5,4 -4,4"/>
<!-- Node8 -->
<g id="node1" class="node"><title>Node8</title>
<g id="a_node1"><a xlink:title="Operation for the generation of pseudo random numbers.">
<polygon fill="#bfbfbf" stroke="black" points="1386,-436.5 1386,-455.5 1509,-455.5 1509,-436.5 1386,-436.5"/>
<text text-anchor="middle" x="1447.5" y="-443.5" font-family="Helvetica,sans-Serif" font-size="10.00">include/random_ext.hpp</text>
</a>
</g>
</g>
<!-- Node9 -->
<g id="node2" class="node"><title>Node9</title>
<g id="a_node2"><a xlink:href="clustering__operator__centroids_8hpp.html" target="_top" xlink:title="clustering operator centroids">
<polygon fill="white" stroke="black" points="984.5,-246.5 984.5,-276.5 1108.5,-276.5 1108.5,-246.5 984.5,-246.5"/>
<text text-anchor="start" x="992.5" y="-264.5" font-family="Helvetica,sans-Serif" font-size="10.00">include/clustering</text>
<text text-anchor="middle" x="1046.5" y="-253.5" font-family="Helvetica,sans-Serif" font-size="10.00">_operator_centroids.hpp</text>
</a>
</g>
</g>
<!-- Node8&#45;&gt;Node9 -->
<g id="edge1" class="edge"><title>Node8&#45;&gt;Node9</title>
<path fill="none" stroke="midnightblue" d="M1375.81,-439.8C1302.26,-433.43 1193.65,-420.834 1157.5,-400 1105.4,-369.976 1068.01,-305.326 1053.35,-276.671"/>
<polygon fill="midnightblue" stroke="midnightblue" points="1375.68,-443.302 1385.94,-440.658 1376.27,-436.327 1375.68,-443.302"/>
</g>
<!-- Node12 -->
<g id="node5" class="node"><title>Node12</title>
<g id="a_node5"><a xlink:href="leac_8hpp.html" target="_top" xlink:title="LEAC.">
<polygon fill="white" stroke="black" points="1383,-56.5 1383,-75.5 1472,-75.5 1472,-56.5 1383,-56.5"/>
<text text-anchor="middle" x="1427.5" y="-63.5" font-family="Helvetica,sans-Serif" font-size="10.00">include/leac.hpp</text>
</a>
</g>
</g>
<!-- Node8&#45;&gt;Node12 -->
<g id="edge57" class="edge"><title>Node8&#45;&gt;Node12</title>
<path fill="none" stroke="midnightblue" d="M1519.31,-444.313C1611.11,-442.054 1763.46,-433.231 1807.5,-400 1834.68,-379.489 1837.5,-363.552 1837.5,-329.5 1837.5,-329.5 1837.5,-329.5 1837.5,-193.5 1837.5,-149.801 1819.72,-134.901 1782.5,-112 1731.44,-80.5817 1555.6,-70.9595 1472.14,-68.1263"/>
<polygon fill="midnightblue" stroke="midnightblue" points="1519.17,-440.815 1509.25,-444.54 1519.33,-447.813 1519.17,-440.815"/>
</g>
<!-- Node34 -->
<g id="node27" class="node"><title>Node34</title>
<g id="a_node27"><a xlink:href="ga__integer__operator_8hpp.html" target="_top" xlink:title="genetic integer operators">
<polygon fill="white" stroke="black" points="1120.5,-179.5 1120.5,-209.5 1220.5,-209.5 1220.5,-179.5 1120.5,-179.5"/>
<text text-anchor="start" x="1128.5" y="-197.5" font-family="Helvetica,sans-Serif" font-size="10.00">include/ga_integer</text>
<text text-anchor="middle" x="1170.5" y="-186.5" font-family="Helvetica,sans-Serif" font-size="10.00">_operator.hpp</text>
</a>
</g>
</g>
<!-- Node8&#45;&gt;Node34 -->
<g id="edge52" class="edge"><title>Node8&#45;&gt;Node34</title>
<path fill="none" stroke="midnightblue" d="M1375.73,-436.488C1325.48,-429.183 1263.97,-417.108 1244.5,-400 1185.93,-348.539 1173.7,-247.037 1171.16,-209.709"/>
<polygon fill="midnightblue" stroke="midnightblue" points="1375.55,-439.996 1385.94,-437.93 1376.53,-433.065 1375.55,-439.996"/>
</g>
<!-- Node35 -->
<g id="node28" class="node"><title>Node35</title>
<g id="a_node28"><a xlink:href="probability__selection_8hpp.html" target="_top" xlink:title="probability selection">
<polygon fill="white" stroke="black" points="1315,-313.5 1315,-343.5 1412,-343.5 1412,-313.5 1315,-313.5"/>
<text text-anchor="start" x="1323" y="-331.5" font-family="Helvetica,sans-Serif" font-size="10.00">include/probability</text>
<text text-anchor="middle" x="1363.5" y="-320.5" font-family="Helvetica,sans-Serif" font-size="10.00">_selection.hpp</text>
</a>
</g>
</g>
<!-- Node8&#45;&gt;Node35 -->
<g id="edge33" class="edge"><title>Node8&#45;&gt;Node35</title>
<path fill="none" stroke="midnightblue" d="M1435.09,-427.936C1418.44,-405.037 1389.16,-364.789 1373.71,-343.545"/>
<polygon fill="midnightblue" stroke="midnightblue" points="1432.47,-430.29 1441.19,-436.319 1438.14,-426.173 1432.47,-430.29"/>
</g>
<!-- Node37 -->
<g id="node30" class="node"><title>Node37</title>
<g id="a_node30"><a xlink:href="probability__distribution_8hpp.html" target="_top" xlink:title="probability distribution">
<polygon fill="white" stroke="black" points="1315,-246.5 1315,-276.5 1412,-276.5 1412,-246.5 1315,-246.5"/>
<text text-anchor="start" x="1323" y="-264.5" font-family="Helvetica,sans-Serif" font-size="10.00">include/probability</text>
<text text-anchor="middle" x="1363.5" y="-253.5" font-family="Helvetica,sans-Serif" font-size="10.00">_distribution.hpp</text>
</a>
</g>
</g>
<!-- Node8&#45;&gt;Node37 -->
<g id="edge51" class="edge"><title>Node8&#45;&gt;Node37</title>
<path fill="none" stroke="midnightblue" d="M1447.32,-426.006C1446.27,-399.108 1441.39,-349.171 1420.5,-313 1411.97,-298.231 1397.56,-285.524 1385.37,-276.55"/>
<polygon fill="midnightblue" stroke="midnightblue" points="1443.83,-426.403 1447.57,-436.315 1450.82,-426.233 1443.83,-426.403"/>
</g>
<!-- Node39 -->
<g id="node32" class="node"><title>Node39</title>
<g id="a_node32"><a xlink:href="ga__selection_8hpp.html" target="_top" xlink:title="chromosome selection method in genetic algorithms">
<polygon fill="white" stroke="black" points="1253.5,-380.5 1253.5,-399.5 1381.5,-399.5 1381.5,-380.5 1253.5,-380.5"/>
<text text-anchor="middle" x="1317.5" y="-387.5" font-family="Helvetica,sans-Serif" font-size="10.00">include/ga_selection.hpp</text>
</a>
</g>
</g>
<!-- Node8&#45;&gt;Node39 -->
<g id="edge46" class="edge"><title>Node8&#45;&gt;Node39</title>
<path fill="none" stroke="midnightblue" d="M1417.41,-432.503C1393.04,-422.38 1359.36,-408.388 1338,-399.516"/>
<polygon fill="midnightblue" stroke="midnightblue" points="1416.32,-435.84 1426.9,-436.444 1419.01,-429.375 1416.32,-435.84"/>
</g>
<!-- Node40 -->
<g id="node33" class="node"><title>Node40</title>
<g id="a_node33"><a xlink:href="clustering__operator__fuzzy_8hpp.html" target="_top" xlink:title="clustering operator fuzzy">
<polygon fill="white" stroke="black" points="1511.5,-313.5 1511.5,-343.5 1617.5,-343.5 1617.5,-313.5 1511.5,-313.5"/>
<text text-anchor="start" x="1519.5" y="-331.5" font-family="Helvetica,sans-Serif" font-size="10.00">include/clustering</text>
<text text-anchor="middle" x="1564.5" y="-320.5" font-family="Helvetica,sans-Serif" font-size="10.00">_operator_fuzzy.hpp</text>
</a>
</g>
</g>
<!-- Node8&#45;&gt;Node40 -->
<g id="edge49" class="edge"><title>Node8&#45;&gt;Node40</title>
<path fill="none" stroke="midnightblue" d="M1463.56,-429.141C1486.53,-406.474 1528.37,-365.167 1550.27,-343.545"/>
<polygon fill="midnightblue" stroke="midnightblue" points="1460.95,-426.803 1456.29,-436.319 1465.87,-431.784 1460.95,-426.803"/>
</g>
<!-- Node41 -->
<g id="node34" class="node"><title>Node41</title>
<g id="a_node34"><a xlink:href="ga__generic__operator_8hpp.html" target="_top" xlink:title="genetic operators independent of the data type">
<polygon fill="white" stroke="black" points="1653,-313.5 1653,-343.5 1756,-343.5 1756,-313.5 1653,-313.5"/>
<text text-anchor="start" x="1661" y="-331.5" font-family="Helvetica,sans-Serif" font-size="10.00">include/ga_generic</text>
<text text-anchor="middle" x="1704.5" y="-320.5" font-family="Helvetica,sans-Serif" font-size="10.00">_operator.hpp</text>
</a>
</g>
</g>
<!-- Node8&#45;&gt;Node41 -->
<g id="edge53" class="edge"><title>Node8&#45;&gt;Node41</title>
<path fill="none" stroke="midnightblue" d="M1476.12,-432.138C1524.7,-410.303 1622.93,-366.158 1673.25,-343.545"/>
<polygon fill="midnightblue" stroke="midnightblue" points="1474.5,-429.027 1466.82,-436.319 1477.37,-435.412 1474.5,-429.027"/>
</g>
<!-- Node42 -->
<g id="node35" class="node"><title>Node42</title>
<g id="a_node35"><a xlink:href="ga__real__operator_8hpp.html" target="_top" xlink:title="genetic real operators">
<polygon fill="white" stroke="black" points="1652,-380.5 1652,-399.5 1799,-399.5 1799,-380.5 1652,-380.5"/>
<text text-anchor="middle" x="1725.5" y="-387.5" font-family="Helvetica,sans-Serif" font-size="10.00">include/ga_real_operator.hpp</text>
</a>
</g>
</g>
<!-- Node8&#45;&gt;Node42 -->
<g id="edge55" class="edge"><title>Node8&#45;&gt;Node42</title>
<path fill="none" stroke="midnightblue" d="M1501.69,-434.473C1554.23,-424.268 1632.94,-408.979 1681.66,-399.516"/>
<polygon fill="midnightblue" stroke="midnightblue" points="1500.7,-431.101 1491.55,-436.444 1502.03,-437.972 1500.7,-431.101"/>
</g>
<!-- Node10 -->
<g id="node3" class="node"><title>Node10</title>
<g id="a_node3"><a xlink:href="chromosome__cbga_8hpp.html" target="_top" xlink:title="chromosome CBGA">
<polygon fill="white" stroke="black" points="991,-179.5 991,-209.5 1102,-209.5 1102,-179.5 991,-179.5"/>
<text text-anchor="start" x="999" y="-197.5" font-family="Helvetica,sans-Serif" font-size="10.00">include/chromosome</text>
<text text-anchor="middle" x="1046.5" y="-186.5" font-family="Helvetica,sans-Serif" font-size="10.00">_cbga.hpp</text>
</a>
</g>
</g>
<!-- Node9&#45;&gt;Node10 -->
<g id="edge2" class="edge"><title>Node9&#45;&gt;Node10</title>
<path fill="none" stroke="midnightblue" d="M1046.5,-236.108C1046.5,-227.154 1046.5,-217.323 1046.5,-209.577"/>
<polygon fill="midnightblue" stroke="midnightblue" points="1043,-236.396 1046.5,-246.396 1050,-236.396 1043,-236.396"/>
</g>
<!-- Node9&#45;&gt;Node12 -->
<g id="edge32" class="edge"><title>Node9&#45;&gt;Node12</title>
<path fill="none" stroke="midnightblue" d="M974.098,-253.791C916.369,-246.767 842.198,-233.406 823.5,-210 794.691,-173.938 859.24,-116.895 867.5,-112 911.395,-85.9884 1257.68,-72.4345 1382.69,-68.3516"/>
<polygon fill="midnightblue" stroke="midnightblue" points="973.964,-257.299 984.303,-254.989 974.779,-250.347 973.964,-257.299"/>
</g>
<!-- Node32 -->
<g id="node25" class="node"><title>Node32</title>
<g id="a_node25"><a xlink:href="chromosome__igka_8hpp.html" target="_top" xlink:title="chromosome IGKA &#160;and">
<polygon fill="white" stroke="black" points="877,-112.5 877,-142.5 988,-142.5 988,-112.5 877,-112.5"/>
<text text-anchor="start" x="885" y="-130.5" font-family="Helvetica,sans-Serif" font-size="10.00">include/chromosome</text>
<text text-anchor="middle" x="932.5" y="-119.5" font-family="Helvetica,sans-Serif" font-size="10.00">_igka.hpp</text>
</a>
</g>
</g>
<!-- Node9&#45;&gt;Node32 -->
<g id="edge24" class="edge"><title>Node9&#45;&gt;Node32</title>
<path fill="none" stroke="midnightblue" d="M974.298,-253.022C919.289,-245.659 850.091,-232.226 832.5,-210 823.949,-199.197 825.28,-190.735 832.5,-179 843.1,-161.772 861.591,-150.208 879.813,-142.548"/>
<polygon fill="midnightblue" stroke="midnightblue" points="974.023,-256.515 984.389,-254.327 974.921,-249.573 974.023,-256.515"/>
</g>
<!-- Node33 -->
<g id="node26" class="node"><title>Node33</title>
<g id="a_node26"><a xlink:href="clustering__operator__crispmatrix_8hpp.html" target="_top" xlink:title="clustering operator crispmatrix">
<polygon fill="white" stroke="black" points="842,-179.5 842,-209.5 973,-209.5 973,-179.5 842,-179.5"/>
<text text-anchor="start" x="850" y="-197.5" font-family="Helvetica,sans-Serif" font-size="10.00">include/clustering</text>
<text text-anchor="middle" x="907.5" y="-186.5" font-family="Helvetica,sans-Serif" font-size="10.00">_operator_crispmatrix.hpp</text>
</a>
</g>
</g>
<!-- Node9&#45;&gt;Node33 -->
<g id="edge26" class="edge"><title>Node9&#45;&gt;Node33</title>
<path fill="none" stroke="midnightblue" d="M1007.22,-242.131C985.131,-231.802 957.99,-219.11 937.602,-209.577"/>
<polygon fill="midnightblue" stroke="midnightblue" points="1005.8,-245.33 1016.34,-246.396 1008.76,-238.989 1005.8,-245.33"/>
</g>
<!-- Node9&#45;&gt;Node34 -->
<g id="edge28" class="edge"><title>Node9&#45;&gt;Node34</title>
<path fill="none" stroke="midnightblue" d="M1082.34,-241.714C1101.89,-231.463 1125.7,-218.983 1143.65,-209.577"/>
<polygon fill="midnightblue" stroke="midnightblue" points="1080.64,-238.653 1073.41,-246.396 1083.89,-244.853 1080.64,-238.653"/>
</g>
<!-- Node11 -->
<g id="node4" class="node"><title>Node11</title>
<g id="a_node4"><a xlink:href="ga__clustering__operator_8hpp.html" target="_top" xlink:title="genetic operators oriented to clustering">
<polygon fill="white" stroke="black" points="1195.5,-112.5 1195.5,-142.5 1307.5,-142.5 1307.5,-112.5 1195.5,-112.5"/>
<text text-anchor="start" x="1203.5" y="-130.5" font-family="Helvetica,sans-Serif" font-size="10.00">include/ga_clustering</text>
<text text-anchor="middle" x="1251.5" y="-119.5" font-family="Helvetica,sans-Serif" font-size="10.00">_operator.hpp</text>
</a>
</g>
</g>
<!-- Node10&#45;&gt;Node11 -->
<g id="edge3" class="edge"><title>Node10&#45;&gt;Node11</title>
<path fill="none" stroke="midnightblue" d="M1100.29,-176.444C1133.52,-165.908 1175.65,-152.549 1207,-142.611"/>
<polygon fill="midnightblue" stroke="midnightblue" points="1099.2,-173.117 1090.73,-179.476 1101.32,-179.79 1099.2,-173.117"/>
</g>
<!-- Node11&#45;&gt;Node12 -->
<g id="edge4" class="edge"><title>Node11&#45;&gt;Node12</title>
<path fill="none" stroke="midnightblue" d="M1303.04,-109.076C1335.64,-98.0543 1376.35,-84.2914 1402.15,-75.5709"/>
<polygon fill="midnightblue" stroke="midnightblue" points="1301.56,-105.881 1293.21,-112.399 1303.8,-112.512 1301.56,-105.881"/>
</g>
<!-- Node13 -->
<g id="node6" class="node"><title>Node13</title>
<g id="a_node6"><a xlink:href="cbga__fkcentroid_8hpp.html" target="_top" xlink:title="CBGA .">
<polygon fill="white" stroke="black" points="2710.5,-0.5 2710.5,-19.5 2836.5,-19.5 2836.5,-0.5 2710.5,-0.5"/>
<text text-anchor="middle" x="2773.5" y="-7.5" font-family="Helvetica,sans-Serif" font-size="10.00">eac/cbga_fkcentroid.hpp</text>
</a>
</g>
</g>
<!-- Node12&#45;&gt;Node13 -->
<g id="edge5" class="edge"><title>Node12&#45;&gt;Node13</title>
<path fill="none" stroke="midnightblue" d="M1482.24,-64.8066C1659.02,-63.8101 2230.5,-57.6808 2701.5,-20 2704.39,-19.7689 2707.34,-19.5068 2710.32,-19.2209"/>
<polygon fill="midnightblue" stroke="midnightblue" points="1482.13,-61.3071 1472.15,-64.8603 1482.17,-68.307 1482.13,-61.3071"/>
</g>
<!-- Node14 -->
<g id="node7" class="node"><title>Node14</title>
<g id="a_node7"><a xlink:href="cga__vklabel_8hpp.html" target="_top" xlink:title="CGA &#160;&#160;.">
<polygon fill="white" stroke="black" points="125.5,-0.5 125.5,-19.5 235.5,-19.5 235.5,-0.5 125.5,-0.5"/>
<text text-anchor="middle" x="180.5" y="-7.5" font-family="Helvetica,sans-Serif" font-size="10.00">eac/cga_vklabel.hpp</text>
</a>
</g>
</g>
<!-- Node12&#45;&gt;Node14 -->
<g id="edge6" class="edge"><title>Node12&#45;&gt;Node14</title>
<path fill="none" stroke="midnightblue" d="M1372.71,-63.657C1170.72,-58.5909 467.981,-39.912 244.5,-20 241.594,-19.7411 238.618,-19.4419 235.617,-19.1134"/>
<polygon fill="midnightblue" stroke="midnightblue" points="1372.7,-67.1578 1382.78,-63.9089 1372.87,-60.16 1372.7,-67.1578"/>
</g>
<!-- Node15 -->
<g id="node8" class="node"><title>Node15</title>
<g id="a_node8"><a xlink:href="clustering__vksubclusterbinary_8hpp.html" target="_top" xlink:title="CLUSTERING .">
<polygon fill="white" stroke="black" points="254,-0.5 254,-19.5 439,-19.5 439,-0.5 254,-0.5"/>
<text text-anchor="middle" x="346.5" y="-7.5" font-family="Helvetica,sans-Serif" font-size="10.00">eac/clustering_vksubclusterbinary.hpp</text>
</a>
</g>
</g>
<!-- Node12&#45;&gt;Node15 -->
<g id="edge7" class="edge"><title>Node12&#45;&gt;Node15</title>
<path fill="none" stroke="midnightblue" d="M1372.26,-63.2963C1223.03,-58.5135 799.312,-43.7411 447.5,-20 444.778,-19.8163 442.014,-19.6218 439.226,-19.4186"/>
<polygon fill="midnightblue" stroke="midnightblue" points="1372.42,-66.8031 1382.53,-63.6234 1372.64,-59.8066 1372.42,-66.8031"/>
</g>
<!-- Node16 -->
<g id="node9" class="node"><title>Node16</title>
<g id="a_node9"><a xlink:href="feac__vklabel_8hpp.html" target="_top" xlink:title="EAC, EACI, EACII, EACIII and FEAC &#160;and .">
<polygon fill="white" stroke="black" points="456.5,-0.5 456.5,-19.5 568.5,-19.5 568.5,-0.5 456.5,-0.5"/>
<text text-anchor="middle" x="512.5" y="-7.5" font-family="Helvetica,sans-Serif" font-size="10.00">eac/feac_vklabel.hpp</text>
</a>
</g>
</g>
<!-- Node12&#45;&gt;Node16 -->
<g id="edge8" class="edge"><title>Node12&#45;&gt;Node16</title>
<path fill="none" stroke="midnightblue" d="M1372.59,-63.7041C1237.22,-60.1593 876.788,-48.5904 577.5,-20 574.665,-19.7292 571.763,-19.4254 568.836,-19.0977"/>
<polygon fill="midnightblue" stroke="midnightblue" points="1372.62,-67.2059 1382.7,-63.965 1372.8,-60.2082 1372.62,-67.2059"/>
</g>
<!-- Node17 -->
<g id="node10" class="node"><title>Node17</title>
<g id="a_node10"><a xlink:href="gaclustering__fkcrispmatrix_8hpp.html" target="_top" xlink:title="GA CLUSTERING .">
<polygon fill="white" stroke="black" points="586.5,-0.5 586.5,-19.5 756.5,-19.5 756.5,-0.5 586.5,-0.5"/>
<text text-anchor="middle" x="671.5" y="-7.5" font-family="Helvetica,sans-Serif" font-size="10.00">eac/gaclustering_fkcrispmatrix.hpp</text>
</a>
</g>
</g>
<!-- Node12&#45;&gt;Node17 -->
<g id="edge9" class="edge"><title>Node12&#45;&gt;Node17</title>
<path fill="none" stroke="midnightblue" d="M1372.76,-61.7912C1259.38,-55.033 990.677,-38.4295 765.5,-20 762.559,-19.7593 759.567,-19.5079 756.545,-19.2486"/>
<polygon fill="midnightblue" stroke="midnightblue" points="1372.72,-65.2954 1382.91,-62.3952 1373.14,-58.3077 1372.72,-65.2954"/>
</g>
<!-- Node18 -->
<g id="node11" class="node"><title>Node18</title>
<g id="a_node11"><a xlink:href="gaclustering__fklabel_8hpp.html" target="_top" xlink:title="GA Clustering .">
<polygon fill="white" stroke="black" points="774.5,-0.5 774.5,-19.5 918.5,-19.5 918.5,-0.5 774.5,-0.5"/>
<text text-anchor="middle" x="846.5" y="-7.5" font-family="Helvetica,sans-Serif" font-size="10.00">eac/gaclustering_fklabel.hpp</text>
</a>
</g>
</g>
<!-- Node12&#45;&gt;Node18 -->
<g id="edge10" class="edge"><title>Node12&#45;&gt;Node18</title>
<path fill="none" stroke="midnightblue" d="M1372.8,-60.4538C1280.81,-52.723 1089.28,-36.2664 927.5,-20 924.684,-19.7169 921.814,-19.4231 918.916,-19.122"/>
<polygon fill="midnightblue" stroke="midnightblue" points="1372.73,-63.96 1382.99,-61.3083 1373.32,-56.9845 1372.73,-63.96"/>
</g>
<!-- Node19 -->
<g id="node12" class="node"><title>Node19</title>
<g id="a_node12"><a xlink:href="gaclustering__vktreebinary_8hpp.html" target="_top" xlink:title="GA Clustering &#160;x.">
<polygon fill="white" stroke="black" points="936.5,-0.5 936.5,-19.5 1106.5,-19.5 1106.5,-0.5 936.5,-0.5"/>
<text text-anchor="middle" x="1021.5" y="-7.5" font-family="Helvetica,sans-Serif" font-size="10.00">eac/gaclustering_vktreebinary.hpp</text>
</a>
</g>
</g>
<!-- Node12&#45;&gt;Node19 -->
<g id="edge11" class="edge"><title>Node12&#45;&gt;Node19</title>
<path fill="none" stroke="midnightblue" d="M1372.76,-57.7192C1298.12,-47.7916 1164.66,-30.0415 1085.49,-19.5111"/>
<polygon fill="midnightblue" stroke="midnightblue" points="1372.52,-61.2175 1382.89,-59.0666 1373.44,-54.2786 1372.52,-61.2175"/>
</g>
<!-- Node20 -->
<g id="node13" class="node"><title>Node20</title>
<g id="a_node13"><a xlink:href="gagr__fkcentroid_8hpp.html" target="_top" xlink:title="GAGR .">
<polygon fill="white" stroke="black" points="1125,-0.5 1125,-19.5 1250,-19.5 1250,-0.5 1125,-0.5"/>
<text text-anchor="middle" x="1187.5" y="-7.5" font-family="Helvetica,sans-Serif" font-size="10.00">eac/gagr_fkcentroid.hpp</text>
</a>
</g>
</g>
<!-- Node12&#45;&gt;Node20 -->
<g id="edge12" class="edge"><title>Node12&#45;&gt;Node20</title>
<path fill="none" stroke="midnightblue" d="M1379.58,-54.2172C1334.23,-44.0134 1267.06,-28.9006 1225.35,-19.5164"/>
<polygon fill="midnightblue" stroke="midnightblue" points="1378.95,-57.663 1389.47,-56.4435 1380.48,-50.8337 1378.95,-57.663"/>
</g>
<!-- Node21 -->
<g id="node14" class="node"><title>Node21</title>
<g id="a_node14"><a xlink:href="gaprototypes__fkmedoid_8hpp.html" target="_top" xlink:title="GA&#45;Prototypes .">
<polygon fill="white" stroke="black" points="1268,-0.5 1268,-19.5 1429,-19.5 1429,-0.5 1268,-0.5"/>
<text text-anchor="middle" x="1348.5" y="-7.5" font-family="Helvetica,sans-Serif" font-size="10.00">eac/gaprototypes_fkmedoid.hpp</text>
</a>
</g>
</g>
<!-- Node12&#45;&gt;Node21 -->
<g id="edge13" class="edge"><title>Node12&#45;&gt;Node21</title>
<path fill="none" stroke="midnightblue" d="M1406.47,-50.6221C1392.03,-40.7574 1373.36,-27.9919 1361.16,-19.6545"/>
<polygon fill="midnightblue" stroke="midnightblue" points="1404.58,-53.5703 1414.81,-56.324 1408.53,-47.7914 1404.58,-53.5703"/>
</g>
<!-- Node22 -->
<g id="node15" class="node"><title>Node22</title>
<g id="a_node15"><a xlink:href="gas__fkcentroid_8hpp.html" target="_top" xlink:title="GAS .">
<polygon fill="white" stroke="black" points="1447,-0.5 1447,-19.5 1568,-19.5 1568,-0.5 1447,-0.5"/>
<text text-anchor="middle" x="1507.5" y="-7.5" font-family="Helvetica,sans-Serif" font-size="10.00">eac/gas_fkcentroid.hpp</text>
</a>
</g>
</g>
<!-- Node12&#45;&gt;Node22 -->
<g id="edge14" class="edge"><title>Node12&#45;&gt;Node22</title>
<path fill="none" stroke="midnightblue" d="M1448.8,-50.6221C1463.42,-40.7574 1482.33,-27.9919 1494.68,-19.6545"/>
<polygon fill="midnightblue" stroke="midnightblue" points="1446.68,-47.8282 1440.35,-56.324 1450.6,-53.6302 1446.68,-47.8282"/>
</g>
<!-- Node23 -->
<g id="node16" class="node"><title>Node23</title>
<g id="a_node16"><a xlink:href="gca__fkmedoid_8hpp.html" target="_top" xlink:title="GCA .">
<polygon fill="white" stroke="black" points="1586,-0.5 1586,-19.5 1705,-19.5 1705,-0.5 1586,-0.5"/>
<text text-anchor="middle" x="1645.5" y="-7.5" font-family="Helvetica,sans-Serif" font-size="10.00">eac/gca_fkmedoid.hpp</text>
</a>
</g>
</g>
<!-- Node12&#45;&gt;Node23 -->
<g id="edge15" class="edge"><title>Node12&#45;&gt;Node23</title>
<path fill="none" stroke="midnightblue" d="M1471.81,-54.0237C1512.99,-43.8232 1573.47,-28.8414 1611.12,-19.5164"/>
<polygon fill="midnightblue" stroke="midnightblue" points="1470.91,-50.6417 1462.04,-56.4435 1472.59,-57.4364 1470.91,-50.6417"/>
</g>
<!-- Node24 -->
<g id="node17" class="node"><title>Node24</title>
<g id="a_node17"><a xlink:href="gcuk__vkcentroid_8hpp.html" target="_top" xlink:title="GCUK .">
<polygon fill="white" stroke="black" points="1723.5,-0.5 1723.5,-19.5 1851.5,-19.5 1851.5,-0.5 1723.5,-0.5"/>
<text text-anchor="middle" x="1787.5" y="-7.5" font-family="Helvetica,sans-Serif" font-size="10.00">eac/gcuk_vkcentroid.hpp</text>
</a>
</g>
</g>
<!-- Node12&#45;&gt;Node24 -->
<g id="edge16" class="edge"><title>Node12&#45;&gt;Node24</title>
<path fill="none" stroke="midnightblue" d="M1481.96,-56.8314C1549.05,-46.7677 1662.49,-29.7512 1730.66,-19.5261"/>
<polygon fill="midnightblue" stroke="midnightblue" points="1481.37,-53.3796 1472,-58.3244 1482.41,-60.3022 1481.37,-53.3796"/>
</g>
<!-- Node25 -->
<g id="node18" class="node"><title>Node25</title>
<g id="a_node18"><a xlink:href="gga__vklabel_8hpp.html" target="_top" xlink:title="GGA .">
<polygon fill="white" stroke="black" points="1869.5,-0.5 1869.5,-19.5 1979.5,-19.5 1979.5,-0.5 1869.5,-0.5"/>
<text text-anchor="middle" x="1924.5" y="-7.5" font-family="Helvetica,sans-Serif" font-size="10.00">eac/gga_vklabel.hpp</text>
</a>
</g>
</g>
<!-- Node12&#45;&gt;Node25 -->
<g id="edge17" class="edge"><title>Node12&#45;&gt;Node25</title>
<path fill="none" stroke="midnightblue" d="M1482.24,-59.9508C1564.47,-52.2219 1724.71,-36.5986 1860.5,-20 1863.4,-19.646 1866.36,-19.2711 1869.36,-18.8832"/>
<polygon fill="midnightblue" stroke="midnightblue" points="1481.76,-56.4808 1472.13,-60.8987 1482.41,-63.4503 1481.76,-56.4808"/>
</g>
<!-- Node26 -->
<g id="node19" class="node"><title>Node26</title>
<g id="a_node19"><a xlink:href="gka__fklabel_8hpp.html" target="_top" xlink:title="GKA Clustering .">
<polygon fill="white" stroke="black" points="0,-0.5 0,-19.5 107,-19.5 107,-0.5 0,-0.5"/>
<text text-anchor="middle" x="53.5" y="-7.5" font-family="Helvetica,sans-Serif" font-size="10.00">eac/gka_fklabel.hpp</text>
</a>
</g>
</g>
<!-- Node12&#45;&gt;Node26 -->
<g id="edge18" class="edge"><title>Node12&#45;&gt;Node26</title>
<path fill="none" stroke="midnightblue" d="M1372.76,-63.4695C1140.5,-56.9288 242.733,-31.1505 116.5,-20 113.418,-19.7278 110.257,-19.4075 107.071,-19.0528"/>
<polygon fill="midnightblue" stroke="midnightblue" points="1372.89,-66.9747 1382.99,-63.7573 1373.09,-59.9774 1372.89,-66.9747"/>
</g>
<!-- Node27 -->
<g id="node20" class="node"><title>Node27</title>
<g id="a_node20"><a xlink:href="hka__fkmedoid_8hpp.html" target="_top" xlink:title="HKA .">
<polygon fill="white" stroke="black" points="1998,-0.5 1998,-19.5 2117,-19.5 2117,-0.5 1998,-0.5"/>
<text text-anchor="middle" x="2057.5" y="-7.5" font-family="Helvetica,sans-Serif" font-size="10.00">eac/hka_fkmedoid.hpp</text>
</a>
</g>
</g>
<!-- Node12&#45;&gt;Node27 -->
<g id="edge19" class="edge"><title>Node12&#45;&gt;Node27</title>
<path fill="none" stroke="midnightblue" d="M1482.52,-61.4973C1583.1,-54.8905 1803.38,-39.4855 1988.5,-20 1991.5,-19.6838 1994.58,-19.3436 1997.68,-18.987"/>
<polygon fill="midnightblue" stroke="midnightblue" points="1482.04,-58.0206 1472.29,-62.1655 1482.5,-65.0057 1482.04,-58.0206"/>
</g>
<!-- Node28 -->
<g id="node21" class="node"><title>Node28</title>
<g id="a_node21"><a xlink:href="igka__fklabel_8hpp.html" target="_top" xlink:title="IGKA &#160;and FGKA .">
<polygon fill="white" stroke="black" points="2135,-0.5 2135,-19.5 2244,-19.5 2244,-0.5 2135,-0.5"/>
<text text-anchor="middle" x="2189.5" y="-7.5" font-family="Helvetica,sans-Serif" font-size="10.00">eac/igka_fklabel.hpp</text>
</a>
</g>
</g>
<!-- Node12&#45;&gt;Node28 -->
<g id="edge20" class="edge"><title>Node12&#45;&gt;Node28</title>
<path fill="none" stroke="midnightblue" d="M1482.31,-62.8725C1600.21,-57.9875 1886.58,-44.4655 2125.5,-20 2128.51,-19.6914 2131.6,-19.3478 2134.72,-18.9799"/>
<polygon fill="midnightblue" stroke="midnightblue" points="1481.95,-59.3842 1472.1,-63.2913 1482.24,-66.3783 1481.95,-59.3842"/>
</g>
<!-- Node29 -->
<g id="node22" class="node"><title>Node29</title>
<g id="a_node22"><a xlink:href="kga__fkcentroid_8hpp.html" target="_top" xlink:title="KGA .">
<polygon fill="white" stroke="black" points="2262,-0.5 2262,-19.5 2383,-19.5 2383,-0.5 2262,-0.5"/>
<text text-anchor="middle" x="2322.5" y="-7.5" font-family="Helvetica,sans-Serif" font-size="10.00">eac/kga_fkcentroid.hpp</text>
</a>
</g>
</g>
<!-- Node12&#45;&gt;Node29 -->
<g id="edge21" class="edge"><title>Node12&#45;&gt;Node29</title>
<path fill="none" stroke="midnightblue" d="M1482.67,-63.4294C1615.57,-59.3337 1963.89,-46.7384 2253.5,-20 2256.27,-19.7446 2259.09,-19.4624 2261.95,-19.1603"/>
<polygon fill="midnightblue" stroke="midnightblue" points="1482.24,-59.9408 1472.36,-63.7436 1482.46,-66.9375 1482.24,-59.9408"/>
</g>
<!-- Node30 -->
<g id="node23" class="node"><title>Node30</title>
<g id="a_node23"><a xlink:href="main__gas__clustering_8cpp.html" target="_top" xlink:title="Main program of Evolutionary Algorithms.">
<polygon fill="white" stroke="black" points="2401,-0.5 2401,-19.5 2548,-19.5 2548,-0.5 2401,-0.5"/>
<text text-anchor="middle" x="2474.5" y="-7.5" font-family="Helvetica,sans-Serif" font-size="10.00">eac/main_gas_clustering.cpp</text>
</a>
</g>
</g>
<!-- Node12&#45;&gt;Node30 -->
<g id="edge22" class="edge"><title>Node12&#45;&gt;Node30</title>
<path fill="none" stroke="midnightblue" d="M1482.44,-63.6449C1629.92,-59.7462 2046.74,-47.0099 2392.5,-20 2395.21,-19.7881 2397.97,-19.558 2400.76,-19.3137"/>
<polygon fill="midnightblue" stroke="midnightblue" points="1482.2,-60.15 1472.29,-63.9104 1482.38,-67.1476 1482.2,-60.15"/>
</g>
<!-- Node31 -->
<g id="node24" class="node"><title>Node31</title>
<g id="a_node24"><a xlink:href="tgca__vkcentroid_8hpp.html" target="_top" xlink:title="TGCA .">
<polygon fill="white" stroke="black" points="2566.5,-0.5 2566.5,-19.5 2692.5,-19.5 2692.5,-0.5 2566.5,-0.5"/>
<text text-anchor="middle" x="2629.5" y="-7.5" font-family="Helvetica,sans-Serif" font-size="10.00">eac/tgca_vkcentroid.hpp</text>
</a>
</g>
</g>
<!-- Node12&#45;&gt;Node31 -->
<g id="edge23" class="edge"><title>Node12&#45;&gt;Node31</title>
<path fill="none" stroke="midnightblue" d="M1482.57,-64.4554C1646.47,-62.4803 2145.36,-53.9041 2557.5,-20 2560.39,-19.7625 2563.34,-19.4949 2566.32,-19.2048"/>
<polygon fill="midnightblue" stroke="midnightblue" points="1482.22,-60.9591 1472.26,-64.5761 1482.3,-67.9587 1482.22,-60.9591"/>
</g>
<!-- Node32&#45;&gt;Node12 -->
<g id="edge25" class="edge"><title>Node32&#45;&gt;Node12</title>
<path fill="none" stroke="midnightblue" d="M998.535,-118.562C1100.91,-106.257 1295.23,-82.8996 1382.77,-72.3769"/>
<polygon fill="midnightblue" stroke="midnightblue" points="997.831,-115.122 988.321,-119.79 998.667,-122.072 997.831,-115.122"/>
</g>
<!-- Node33&#45;&gt;Node12 -->
<g id="edge27" class="edge"><title>Node33&#45;&gt;Node12</title>
<path fill="none" stroke="midnightblue" d="M956.291,-176.074C1008.14,-158.062 1092.78,-130.094 1167.5,-112 1242.3,-93.8879 1330.9,-80.1681 1382.97,-72.8759"/>
<polygon fill="midnightblue" stroke="midnightblue" points="954.974,-172.827 946.687,-179.428 957.282,-179.436 954.974,-172.827"/>
</g>
<!-- Node34&#45;&gt;Node11 -->
<g id="edge29" class="edge"><title>Node34&#45;&gt;Node11</title>
<path fill="none" stroke="midnightblue" d="M1196.19,-172.883C1208.5,-163.005 1222.93,-151.429 1233.96,-142.577"/>
<polygon fill="midnightblue" stroke="midnightblue" points="1193.68,-170.407 1188.08,-179.396 1198.07,-175.867 1193.68,-170.407"/>
</g>
<!-- Node34&#45;&gt;Node12 -->
<g id="edge30" class="edge"><title>Node34&#45;&gt;Node12</title>
<path fill="none" stroke="midnightblue" d="M1168.54,-169.035C1168.5,-150.832 1171.67,-126.693 1186.5,-112 1213.6,-85.1508 1320.9,-73.8387 1382.81,-69.4691"/>
<polygon fill="midnightblue" stroke="midnightblue" points="1165.05,-169.332 1168.89,-179.207 1172.04,-169.092 1165.05,-169.332"/>
</g>
<!-- Node34&#45;&gt;Node26 -->
<g id="edge31" class="edge"><title>Node34&#45;&gt;Node26</title>
<path fill="none" stroke="midnightblue" d="M1137.99,-174.22C1103.95,-155.027 1048.35,-126.412 996.5,-112 617.62,-6.69126 506.77,-68.2595 116.5,-20 113.43,-19.6203 110.278,-19.2161 107.098,-18.7971"/>
<polygon fill="midnightblue" stroke="midnightblue" points="1136.57,-177.443 1146.99,-179.364 1140.05,-171.365 1136.57,-177.443"/>
</g>
<!-- Node35&#45;&gt;Node9 -->
<g id="edge34" class="edge"><title>Node35&#45;&gt;Node9</title>
<path fill="none" stroke="midnightblue" d="M1304.59,-315.421C1248.87,-303.996 1165.55,-286.91 1108.75,-275.265"/>
<polygon fill="midnightblue" stroke="midnightblue" points="1304.16,-318.906 1314.66,-317.486 1305.57,-312.049 1304.16,-318.906"/>
</g>
<!-- Node35&#45;&gt;Node11 -->
<g id="edge37" class="edge"><title>Node35&#45;&gt;Node11</title>
<path fill="none" stroke="midnightblue" d="M1334.56,-307.185C1324.27,-298.801 1313.31,-288.378 1305.5,-277 1275.38,-233.124 1259.9,-170.467 1254.17,-142.691"/>
<polygon fill="midnightblue" stroke="midnightblue" points="1332.56,-310.063 1342.6,-313.451 1336.86,-304.543 1332.56,-310.063"/>
</g>
<!-- Node35&#45;&gt;Node12 -->
<g id="edge45" class="edge"><title>Node35&#45;&gt;Node12</title>
<path fill="none" stroke="midnightblue" d="M1395.63,-307.145C1405.5,-299.076 1415.16,-288.868 1420.5,-277 1451.03,-209.171 1368.36,-182.356 1392.5,-112 1397.51,-97.3958 1409.41,-83.8803 1417.94,-75.5497"/>
<polygon fill="midnightblue" stroke="midnightblue" points="1393.23,-304.575 1387.38,-313.41 1397.46,-310.149 1393.23,-304.575"/>
</g>
<!-- Node35&#45;&gt;Node34 -->
<g id="edge42" class="edge"><title>Node35&#45;&gt;Node34</title>
<path fill="none" stroke="midnightblue" d="M1326.32,-308.686C1309.5,-299.716 1289.6,-288.457 1272.5,-277 1240.49,-255.549 1206.01,-226.648 1186.46,-209.651"/>
<polygon fill="midnightblue" stroke="midnightblue" points="1324.83,-311.858 1335.31,-313.42 1328.09,-305.664 1324.83,-311.858"/>
</g>
<!-- Node36 -->
<g id="node29" class="node"><title>Node36</title>
<g id="a_node29"><a xlink:href="ga__binary__operator_8hpp.html" target="_top" xlink:title="traditional genetic binary operators">
<polygon fill="white" stroke="black" points="1402,-118 1402,-137 1559,-137 1559,-118 1402,-118"/>
<text text-anchor="middle" x="1480.5" y="-125" font-family="Helvetica,sans-Serif" font-size="10.00">include/ga_binary_operator.hpp</text>
</a>
</g>
</g>
<!-- Node35&#45;&gt;Node36 -->
<g id="edge35" class="edge"><title>Node35&#45;&gt;Node36</title>
<path fill="none" stroke="midnightblue" d="M1415.07,-308.943C1429.9,-301.225 1444.69,-290.773 1454.5,-277 1486.23,-232.439 1483.48,-161.66 1481.4,-137.172"/>
<polygon fill="midnightblue" stroke="midnightblue" points="1413.35,-305.888 1405.88,-313.401 1416.4,-312.187 1413.35,-305.888"/>
</g>
<!-- Node35&#45;&gt;Node37 -->
<g id="edge38" class="edge"><title>Node35&#45;&gt;Node37</title>
<path fill="none" stroke="midnightblue" d="M1363.5,-303.108C1363.5,-294.154 1363.5,-284.323 1363.5,-276.577"/>
<polygon fill="midnightblue" stroke="midnightblue" points="1360,-303.396 1363.5,-313.396 1367,-303.396 1360,-303.396"/>
</g>
<!-- Node38 -->
<g id="node31" class="node"><title>Node38</title>
<g id="a_node31"><a xlink:href="ga__iterator_8hpp.html" target="_top" xlink:title="iterators for applying crossover operators">
<polygon fill="white" stroke="black" points="1577.5,-118 1577.5,-137 1695.5,-137 1695.5,-118 1577.5,-118"/>
<text text-anchor="middle" x="1636.5" y="-125" font-family="Helvetica,sans-Serif" font-size="10.00">include/ga_iterator.hpp</text>
</a>
</g>
</g>
<!-- Node35&#45;&gt;Node38 -->
<g id="edge43" class="edge"><title>Node35&#45;&gt;Node38</title>
<path fill="none" stroke="midnightblue" d="M1412.8,-309.595C1433.3,-301.12 1456.85,-289.994 1476.5,-277 1542.57,-233.314 1607.4,-161.981 1628.98,-137.261"/>
<polygon fill="midnightblue" stroke="midnightblue" points="1411.29,-306.434 1403.32,-313.42 1413.9,-312.925 1411.29,-306.434"/>
</g>
<!-- Node36&#45;&gt;Node12 -->
<g id="edge36" class="edge"><title>Node36&#45;&gt;Node12</title>
<path fill="none" stroke="midnightblue" d="M1466.25,-110.497C1456.21,-99.2356 1443.18,-84.6044 1435.08,-75.5091"/>
<polygon fill="midnightblue" stroke="midnightblue" points="1463.64,-112.836 1472.91,-117.975 1468.87,-108.18 1463.64,-112.836"/>
</g>
<!-- Node37&#45;&gt;Node11 -->
<g id="edge39" class="edge"><title>Node37&#45;&gt;Node11</title>
<path fill="none" stroke="midnightblue" d="M1347.32,-238.198C1334.96,-221.51 1317.26,-198.333 1300.5,-179 1289.46,-166.261 1276.08,-152.582 1266.1,-142.678"/>
<polygon fill="midnightblue" stroke="midnightblue" points="1344.52,-240.295 1353.26,-246.278 1350.16,-236.148 1344.52,-240.295"/>
</g>
<!-- Node37&#45;&gt;Node12 -->
<g id="edge41" class="edge"><title>Node37&#45;&gt;Node12</title>
<path fill="none" stroke="midnightblue" d="M1355.93,-236.474C1347.69,-205.639 1338.31,-151.425 1359.5,-112 1368.88,-94.5419 1388.34,-82.7204 1404.05,-75.5916"/>
<polygon fill="midnightblue" stroke="midnightblue" points="1352.63,-237.687 1358.74,-246.344 1359.37,-235.767 1352.63,-237.687"/>
</g>
<!-- Node37&#45;&gt;Node34 -->
<g id="edge40" class="edge"><title>Node37&#45;&gt;Node34</title>
<path fill="none" stroke="midnightblue" d="M1311.81,-243.092C1280.66,-232.599 1241.49,-219.408 1212.3,-209.577"/>
<polygon fill="midnightblue" stroke="midnightblue" points="1311.03,-246.521 1321.62,-246.396 1313.26,-239.887 1311.03,-246.521"/>
</g>
<!-- Node38&#45;&gt;Node12 -->
<g id="edge44" class="edge"><title>Node38&#45;&gt;Node12</title>
<path fill="none" stroke="midnightblue" d="M1596.72,-115.176C1556.11,-103.614 1493.99,-85.929 1457.39,-75.5091"/>
<polygon fill="midnightblue" stroke="midnightblue" points="1595.98,-118.603 1606.56,-117.975 1597.9,-111.871 1595.98,-118.603"/>
</g>
<!-- Node39&#45;&gt;Node11 -->
<g id="edge48" class="edge"><title>Node39&#45;&gt;Node11</title>
<path fill="none" stroke="midnightblue" d="M1310.67,-370.38C1299.09,-338.142 1275.6,-269.65 1262.5,-210 1257.39,-186.711 1254.26,-159.124 1252.71,-142.758"/>
<polygon fill="midnightblue" stroke="midnightblue" points="1307.53,-371.991 1314.23,-380.198 1314.11,-369.604 1307.53,-371.991"/>
</g>
<!-- Node39&#45;&gt;Node35 -->
<g id="edge47" class="edge"><title>Node39&#45;&gt;Node35</title>
<path fill="none" stroke="midnightblue" d="M1330.23,-372.53C1337.28,-363.417 1345.94,-352.214 1352.66,-343.523"/>
<polygon fill="midnightblue" stroke="midnightblue" points="1327.44,-370.423 1324.09,-380.475 1332.98,-374.704 1327.44,-370.423"/>
</g>
<!-- Node40&#45;&gt;Node12 -->
<g id="edge50" class="edge"><title>Node40&#45;&gt;Node12</title>
<path fill="none" stroke="midnightblue" d="M1594.93,-307.374C1651.14,-267.797 1760.61,-177.966 1704.5,-112 1675.18,-77.5339 1542.58,-69.3926 1472.01,-67.5199"/>
<polygon fill="midnightblue" stroke="midnightblue" points="1592.62,-304.711 1586.4,-313.282 1596.61,-310.465 1592.62,-304.711"/>
</g>
<!-- Node41&#45;&gt;Node12 -->
<g id="edge54" class="edge"><title>Node41&#45;&gt;Node12</title>
<path fill="none" stroke="midnightblue" d="M1716.76,-304.117C1737.66,-260.622 1773.62,-166.737 1726.5,-112 1694.22,-74.5022 1547.37,-67.8277 1472.17,-66.9149"/>
<polygon fill="midnightblue" stroke="midnightblue" points="1713.5,-302.808 1712.19,-313.322 1719.77,-305.918 1713.5,-302.808"/>
</g>
<!-- Node42&#45;&gt;Node12 -->
<g id="edge56" class="edge"><title>Node42&#45;&gt;Node12</title>
<path fill="none" stroke="midnightblue" d="M1742.54,-372.911C1764.39,-350.447 1799.5,-307.368 1799.5,-262.5 1799.5,-262.5 1799.5,-262.5 1799.5,-193.5 1799.5,-151.004 1785.05,-135.277 1749.5,-112 1704.7,-82.6658 1549.41,-72.0946 1472.03,-68.5877"/>
<polygon fill="midnightblue" stroke="midnightblue" points="1739.8,-370.691 1735.17,-380.22 1744.74,-375.658 1739.8,-370.691"/>
</g>
</g>
</svg>
        <g id="navigator" transform="translate(0 0)" fill="#404254">
                <rect fill="#f2f5e9" fill-opacity="0.5" stroke="#606060" stroke-width=".5" x="0" y="0" width="60" height="60"/>
                <use id="zoomplus" xlink:href="#zoomPlus" x="17" y="9" onmousedown="handleZoom(evt,'in')"/>
                <use id="zoomminus" xlink:href="#zoomMin" x="42" y="9" onmousedown="handleZoom(evt,'out')"/>
                <use id="reset" xlink:href="#resetDef" x="30" y="36" onmousedown="handleReset()"/>
                <g id="arrowUp" xlink:href="#dirArrow" transform="translate(30 24)" onmousedown="handlePan(0,-1)">
                  <use xlink:href="#rim" fill="#404040">
                        <set attributeName="fill" to="#808080" begin="arrowUp.mouseover" end="arrowUp.mouseout"/>
                  </use>
                  <path fill="none" stroke="white" stroke-width="1.5" d="M0,-3.0v7 M-2.5,-0.5L0,-3.0L2.5,-0.5"/>
                </g>
                <g id="arrowRight" xlink:href="#dirArrow" transform="rotate(90) translate(36 -43)" onmousedown="handlePan(1,0)">
                  <use xlink:href="#rim" fill="#404040">
                        <set attributeName="fill" to="#808080" begin="arrowRight.mouseover" end="arrowRight.mouseout"/>
                  </use>
                  <path fill="none" stroke="white" stroke-width="1.5" d="M0,-3.0v7 M-2.5,-0.5L0,-3.0L2.5,-0.5"/>
                </g>
                <g id="arrowDown" xlink:href="#dirArrow" transform="rotate(180) translate(-30 -48)" onmousedown="handlePan(0,1)">
                  <use xlink:href="#rim" fill="#404040">
                        <set attributeName="fill" to="#808080" begin="arrowDown.mouseover" end="arrowDown.mouseout"/>
                  </use>
                  <path fill="none" stroke="white" stroke-width="1.5" d="M0,-3.0v7 M-2.5,-0.5L0,-3.0L2.5,-0.5"/>
                </g>
                <g id="arrowLeft" xlink:href="#dirArrow" transform="rotate(270) translate(-36 17)" onmousedown="handlePan(-1,0)">
                  <use xlink:href="#rim" fill="#404040">
                        <set attributeName="fill" to="#808080" begin="arrowLeft.mouseover" end="arrowLeft.mouseout"/>
                  </use>
                  <path fill="none" stroke="white" stroke-width="1.5" d="M0,-3.0v7 M-2.5,-0.5L0,-3.0L2.5,-0.5"/>
                </g>
        </g>
        <svg viewBox="0 0 15 15" width="100%" height="30px" preserveAspectRatio="xMaxYMin meet">
         <g id="arrow_out" transform="scale(0.3 0.3)">
          <a xlink:href="random__ext_8hpp__dep__incl_org.svg" target="_base">
           <rect id="button" ry="5" rx="5" y="6" x="6" height="38" width="38"
                fill="#f2f5e9" fill-opacity="0.5" stroke="#606060" stroke-width="1.0"/>
           <path id="arrow"
             d="M 11.500037,31.436501 C 11.940474,20.09759 22.043105,11.32322 32.158766,21.979434 L 37.068811,17.246167 C 37.068811,17.246167 37.088388,32 37.088388,32 L 22.160133,31.978069 C 22.160133,31.978069 26.997745,27.140456 26.997745,27.140456 C 18.528582,18.264221 13.291696,25.230495 11.500037,31.436501 z"
             style="fill:#404040;"/>
          </a>
         </g>
        </svg>
</svg>
