<?xml version="1.0" encoding="UTF-8" standalone="no"?>
<!DOCTYPE svg PUBLIC "-//W3C//DTD SVG 1.1//EN"
 "http://www.w3.org/Graphics/SVG/1.1/DTD/svg11.dtd">
<!-- Generated by graphviz version 2.38.0 (20140413.2041)
 -->
<!-- Title: include_inout/runtime_function.hpp Pages: 1 -->
<svg width="124pt" height="95pt"
 viewBox="0.00 0.00 124.00 95.00" xmlns="http://www.w3.org/2000/svg" xmlns:xlink="http://www.w3.org/1999/xlink">
<g id="graph0" class="graph" transform="scale(1 1) rotate(0) translate(4 91)">
<title>include_inout/runtime_function.hpp</title>
<polygon fill="white" stroke="none" points="-4,4 -4,-91 120,-91 120,4 -4,4"/>
<!-- Node0 -->
<g id="node1" class="node"><title>Node0</title>
<polygon fill="#bfbfbf" stroke="black" points="6,-56.5 6,-86.5 116,-86.5 116,-56.5 6,-56.5"/>
<text text-anchor="start" x="14" y="-74.5" font-family="Helvetica,sans-Serif" font-size="10.00">include_inout/runtime</text>
<text text-anchor="middle" x="61" y="-63.5" font-family="Helvetica,sans-Serif" font-size="10.00">_function.hpp</text>
</g>
<!-- Node1 -->
<g id="node2" class="node"><title>Node1</title>
<polygon fill="white" stroke="#bfbfbf" points="0,-0.5 0,-19.5 56,-19.5 56,-0.5 0,-0.5"/>
<text text-anchor="middle" x="28" y="-7.5" font-family="Helvetica,sans-Serif" font-size="10.00">iostream</text>
</g>
<!-- Node0&#45;&gt;Node1 -->
<g id="edge1" class="edge"><title>Node0&#45;&gt;Node1</title>
<path fill="none" stroke="midnightblue" d="M53.1795,-56.3993C48.5325,-48.0207 42.6015,-37.3269 37.6631,-28.4229"/>
<polygon fill="midnightblue" stroke="midnightblue" points="40.7128,-26.7052 32.8018,-19.6578 34.5913,-30.1004 40.7128,-26.7052"/>
</g>
<!-- Node2 -->
<g id="node3" class="node"><title>Node2</title>
<polygon fill="white" stroke="#bfbfbf" points="74.5,-0.5 74.5,-19.5 115.5,-19.5 115.5,-0.5 74.5,-0.5"/>
<text text-anchor="middle" x="95" y="-7.5" font-family="Helvetica,sans-Serif" font-size="10.00">string</text>
</g>
<!-- Node0&#45;&gt;Node2 -->
<g id="edge2" class="edge"><title>Node0&#45;&gt;Node2</title>
<path fill="none" stroke="midnightblue" d="M69.0575,-56.3993C73.8453,-48.0207 79.9561,-37.3269 85.0441,-28.4229"/>
<polygon fill="midnightblue" stroke="midnightblue" points="88.1301,-30.0767 90.0527,-19.6578 82.0524,-26.6037 88.1301,-30.0767"/>
</g>
</g>
</svg>
