<?xml version="1.0" encoding="UTF-8" standalone="no"?>
<!DOCTYPE svg PUBLIC "-//W3C//DTD SVG 1.1//EN"
 "http://www.w3.org/Graphics/SVG/1.1/DTD/svg11.dtd">
<!-- Generated by graphviz version 2.38.0 (20140413.2041)
 -->
<!-- Title: include/stats_instances.hpp Pages: 1 -->
<!--zoomable 420 -->
<svg id="main" version="1.1" xmlns="http://www.w3.org/2000/svg" xmlns:xlink="http://www.w3.org/1999/xlink" xml:space="preserve" onload="init(evt)">
<style type="text/css"><![CDATA[
.edge:hover path { stroke: red; }
.edge:hover polygon { stroke: red; fill: red; }
]]></style>
<script type="text/javascript"><![CDATA[
var edges = document.getElementsByTagName('g');
if (edges && edges.length) {
  for (var i=0;i<edges.length;i++) {
    if (edges[i].id.substr(0,4)=='edge') {
      edges[i].setAttribute('class','edge');
    }
  }
}
]]></script>
        <defs>
                <circle id="rim" cx="0" cy="0" r="7"/>
                <circle id="rim2" cx="0" cy="0" r="3.5"/>
                <g id="zoomPlus">
                        <use xlink:href="#rim" fill="#404040">
                                <set attributeName="fill" to="#808080" begin="zoomplus.mouseover" end="zoomplus.mouseout"/>
                        </use>
                        <path d="M-4,0h8M0,-4v8" fill="none" stroke="white" stroke-width="1.5" pointer-events="none"/>
                </g>
                <g id="zoomMin">
                        <use xlink:href="#rim" fill="#404040">
                                <set attributeName="fill" to="#808080" begin="zoomminus.mouseover" end="zoomminus.mouseout"/>
                        </use>
                        <path d="M-4,0h8" fill="none" stroke="white" stroke-width="1.5" pointer-events="none"/>
                </g>
                <g id="dirArrow">
                        <path fill="none" stroke="white" stroke-width="1.5" d="M0,-3.0v7 M-2.5,-0.5L0,-3.0L2.5,-0.5"/>
                </g>
               <g id="resetDef">
                       <use xlink:href="#rim2" fill="#404040">
                               <set attributeName="fill" to="#808080" begin="reset.mouseover" end="reset.mouseout"/>
                       </use>
               </g>
        </defs>

<script type="text/javascript">
var viewWidth = 1578;
var viewHeight = 420;
var sectionId = 'dynsection-0';
</script>
<script xlink:href="svgpan.js"/>
<svg id="graph" class="graph">
<g id="viewport">
<title>include/stats_instances.hpp</title>
<polygon fill="white" stroke="none" points="-4,4 -4,-416 1574,-416 1574,4 -4,4"/>
<!-- Node0 -->
<g id="node1" class="node"><title>Node0</title>
<polygon fill="#bfbfbf" stroke="black" points="338.5,-392.5 338.5,-411.5 477.5,-411.5 477.5,-392.5 338.5,-392.5"/>
<text text-anchor="middle" x="408" y="-399.5" font-family="Helvetica,sans-Serif" font-size="10.00">include/stats_instances.hpp</text>
</g>
<!-- Node1 -->
<g id="node2" class="node"><title>Node1</title>
<polygon fill="white" stroke="#bfbfbf" points="1074,-56.5 1074,-75.5 1118,-75.5 1118,-56.5 1074,-56.5"/>
<text text-anchor="middle" x="1096" y="-63.5" font-family="Helvetica,sans-Serif" font-size="10.00">vector</text>
</g>
<!-- Node0&#45;&gt;Node1 -->
<g id="edge1" class="edge"><title>Node0&#45;&gt;Node1</title>
<path fill="none" stroke="midnightblue" d="M477.514,-393.35C633.957,-374.891 1007.5,-323.47 1103,-244 1148.28,-206.319 1132.71,-168.184 1115,-112 1112.13,-102.901 1108.12,-93.1086 1104.51,-84.9897"/>
<polygon fill="midnightblue" stroke="midnightblue" points="1107.64,-83.4103 1100.29,-75.7788 1101.28,-86.3276 1107.64,-83.4103"/>
</g>
<!-- Node2 -->
<g id="node3" class="node"><title>Node2</title>
<polygon fill="white" stroke="#bfbfbf" points="711,-0.5 711,-19.5 755,-19.5 755,-0.5 711,-0.5"/>
<text text-anchor="middle" x="733" y="-7.5" font-family="Helvetica,sans-Serif" font-size="10.00">cmath</text>
</g>
<!-- Node0&#45;&gt;Node2 -->
<g id="edge2" class="edge"><title>Node0&#45;&gt;Node2</title>
<path fill="none" stroke="midnightblue" d="M338.406,-394.614C231.226,-382.83 38,-352.989 38,-291 38,-291 38,-291 38,-177 38,-115.312 53.9062,-89.0405 106,-56 156.489,-23.9772 579.967,-13.8043 700.881,-11.5385"/>
<polygon fill="midnightblue" stroke="midnightblue" points="701.049,-15.0362 710.984,-11.3546 700.922,-8.03732 701.049,-15.0362"/>
</g>
<!-- Node3 -->
<g id="node4" class="node"><title>Node3</title>
<polygon fill="white" stroke="#bfbfbf" points="308,-56.5 308,-75.5 368,-75.5 368,-56.5 308,-56.5"/>
<text text-anchor="middle" x="338" y="-63.5" font-family="Helvetica,sans-Serif" font-size="10.00">stdexcept</text>
</g>
<!-- Node0&#45;&gt;Node3 -->
<g id="edge3" class="edge"><title>Node0&#45;&gt;Node3</title>
<path fill="none" stroke="midnightblue" d="M377.537,-392.398C335.813,-378.535 266,-346.976 266,-291 266,-291 266,-291 266,-177 266,-137.939 298.177,-101.944 319.509,-82.3723"/>
<polygon fill="midnightblue" stroke="midnightblue" points="321.884,-84.9449 327.065,-75.7031 317.251,-79.6969 321.884,-84.9449"/>
</g>
<!-- Node4 -->
<g id="node5" class="node"><title>Node4</title>
<polygon fill="white" stroke="#bfbfbf" points="50.5,-0.5 50.5,-19.5 89.5,-19.5 89.5,-0.5 50.5,-0.5"/>
<text text-anchor="middle" x="70" y="-7.5" font-family="Helvetica,sans-Serif" font-size="10.00">limits</text>
</g>
<!-- Node0&#45;&gt;Node4 -->
<g id="edge4" class="edge"><title>Node0&#45;&gt;Node4</title>
<path fill="none" stroke="midnightblue" d="M338.443,-395.88C256.286,-389.067 125.084,-375.559 80,-356 37.9724,-337.767 0,-336.812 0,-291 0,-291 0,-291 0,-121 0,-82.2321 31.3299,-46.1035 52.0698,-26.4341"/>
<polygon fill="midnightblue" stroke="midnightblue" points="54.6397,-28.8274 59.6713,-19.5036 49.9235,-23.6547 54.6397,-28.8274"/>
</g>
<!-- Node5 -->
<g id="node6" class="node"><title>Node5</title>
<polygon fill="white" stroke="#bfbfbf" points="1390,-0.5 1390,-19.5 1448,-19.5 1448,-0.5 1390,-0.5"/>
<text text-anchor="middle" x="1419" y="-7.5" font-family="Helvetica,sans-Serif" font-size="10.00">algorithm</text>
</g>
<!-- Node0&#45;&gt;Node5 -->
<g id="edge5" class="edge"><title>Node0&#45;&gt;Node5</title>
<path fill="none" stroke="midnightblue" d="M477.602,-399.618C693.937,-395.093 1345.67,-379.637 1438,-356 1501.35,-339.782 1570,-356.394 1570,-291 1570,-291 1570,-291 1570,-121 1570,-65.5181 1502.58,-35.0677 1457.84,-20.9692"/>
<polygon fill="midnightblue" stroke="midnightblue" points="1458.7,-17.5735 1448.11,-18.0472 1456.68,-24.2773 1458.7,-17.5735"/>
</g>
<!-- Node6 -->
<g id="node7" class="node"><title>Node6</title>
<polygon fill="white" stroke="#bfbfbf" points="252,-56.5 252,-75.5 290,-75.5 290,-56.5 252,-56.5"/>
<text text-anchor="middle" x="271" y="-63.5" font-family="Helvetica,sans-Serif" font-size="10.00">utility</text>
</g>
<!-- Node0&#45;&gt;Node6 -->
<g id="edge6" class="edge"><title>Node0&#45;&gt;Node6</title>
<path fill="none" stroke="midnightblue" d="M357.381,-392.425C304.141,-380.168 228,-351.978 228,-291 228,-291 228,-291 228,-177 228,-142.306 246.785,-105.42 259.523,-84.3957"/>
<polygon fill="midnightblue" stroke="midnightblue" points="262.65,-85.9982 265.021,-75.6721 256.728,-82.2657 262.65,-85.9982"/>
</g>
<!-- Node7 -->
<g id="node8" class="node"><title>Node7</title>
<g id="a_node8"><a xlink:href="container__instance_8hpp.html" target="_top" xlink:title="container utilities for instances ">
<polygon fill="white" stroke="black" points="526.5,-224.5 526.5,-243.5 645.5,-243.5 645.5,-224.5 526.5,-224.5"/>
<text text-anchor="middle" x="586" y="-231.5" font-family="Helvetica,sans-Serif" font-size="10.00">container_instance.hpp</text>
</a>
</g>
</g>
<!-- Node0&#45;&gt;Node7 -->
<g id="edge7" class="edge"><title>Node0&#45;&gt;Node7</title>
<path fill="none" stroke="midnightblue" d="M456.05,-392.432C480.634,-385.957 509.595,-374.833 530,-356 560.512,-327.839 575.759,-279.736 582.153,-253.463"/>
<polygon fill="midnightblue" stroke="midnightblue" points="585.577,-254.187 584.37,-243.661 578.75,-252.643 585.577,-254.187"/>
</g>
<!-- Node15 -->
<g id="node16" class="node"><title>Node15</title>
<g id="a_node16"><a xlink:href="common_8hpp.html" target="_top" xlink:title="common ">
<polygon fill="white" stroke="black" points="115,-56.5 115,-75.5 189,-75.5 189,-56.5 115,-56.5"/>
<text text-anchor="middle" x="152" y="-63.5" font-family="Helvetica,sans-Serif" font-size="10.00">common.hpp</text>
</a>
</g>
</g>
<!-- Node0&#45;&gt;Node15 -->
<g id="edge79" class="edge"><title>Node0&#45;&gt;Node15</title>
<path fill="none" stroke="midnightblue" d="M350.429,-392.49C261.282,-377.671 100,-343.593 100,-291 100,-291 100,-291 100,-233 100,-176.808 127.469,-114.609 142.478,-84.8172"/>
<polygon fill="midnightblue" stroke="midnightblue" points="145.711,-86.1837 147.201,-75.6941 139.495,-82.9651 145.711,-86.1837"/>
</g>
<!-- Node17 -->
<g id="node18" class="node"><title>Node17</title>
<g id="a_node18"><a xlink:href="verbose__global_8hpp.html" target="_top" xlink:title="verbose global ">
<polygon fill="white" stroke="black" points="386,-56.5 386,-75.5 490,-75.5 490,-56.5 386,-56.5"/>
<text text-anchor="middle" x="438" y="-63.5" font-family="Helvetica,sans-Serif" font-size="10.00">verbose_global.hpp</text>
</a>
</g>
</g>
<!-- Node0&#45;&gt;Node17 -->
<g id="edge80" class="edge"><title>Node0&#45;&gt;Node17</title>
<path fill="none" stroke="midnightblue" d="M401.465,-392.413C388.551,-374.56 361,-331.704 361,-291 361,-291 361,-291 361,-233 361,-173.66 401.992,-112.541 424.158,-83.829"/>
<polygon fill="midnightblue" stroke="midnightblue" points="427.143,-85.6979 430.617,-75.689 421.659,-81.3467 427.143,-85.6979"/>
</g>
<!-- Node23 -->
<g id="node24" class="node"><title>Node23</title>
<g id="a_node24"><a xlink:href="linear__algebra__level1_8hpp.html" target="_top" xlink:title="linear algebra level1 ">
<polygon fill="white" stroke="black" points="1278,-112.5 1278,-131.5 1410,-131.5 1410,-112.5 1278,-112.5"/>
<text text-anchor="middle" x="1344" y="-119.5" font-family="Helvetica,sans-Serif" font-size="10.00">linear_algebra_level1.hpp</text>
</a>
</g>
</g>
<!-- Node0&#45;&gt;Node23 -->
<g id="edge55" class="edge"><title>Node0&#45;&gt;Node23</title>
<path fill="none" stroke="midnightblue" d="M477.887,-401.523C723.452,-402.452 1532,-397.43 1532,-291 1532,-291 1532,-291 1532,-233 1532,-174.884 1464.25,-146.902 1410.09,-133.818"/>
<polygon fill="midnightblue" stroke="midnightblue" points="1410.68,-130.363 1400.15,-131.544 1409.12,-137.187 1410.68,-130.363"/>
</g>
<!-- Node26 -->
<g id="node27" class="node"><title>Node26</title>
<g id="a_node27"><a xlink:href="linear__algebra__level2_8hpp.html" target="_top" xlink:title="linear algebra level 2 ">
<polygon fill="white" stroke="black" points="389,-336.5 389,-355.5 521,-355.5 521,-336.5 389,-336.5"/>
<text text-anchor="middle" x="455" y="-343.5" font-family="Helvetica,sans-Serif" font-size="10.00">linear_algebra_level2.hpp</text>
</a>
</g>
</g>
<!-- Node0&#45;&gt;Node26 -->
<g id="edge56" class="edge"><title>Node0&#45;&gt;Node26</title>
<path fill="none" stroke="midnightblue" d="M415.761,-392.083C422.537,-384.298 432.543,-372.801 440.755,-363.367"/>
<polygon fill="midnightblue" stroke="midnightblue" points="443.458,-365.592 447.383,-355.751 438.178,-360.996 443.458,-365.592"/>
</g>
<!-- Node29 -->
<g id="node30" class="node"><title>Node29</title>
<g id="a_node30"><a xlink:href="matrix__operation_8hpp.html" target="_top" xlink:title="matrix operation ">
<polygon fill="white" stroke="black" points="1169.5,-336.5 1169.5,-355.5 1278.5,-355.5 1278.5,-336.5 1169.5,-336.5"/>
<text text-anchor="middle" x="1224" y="-343.5" font-family="Helvetica,sans-Serif" font-size="10.00">matrix_operation.hpp</text>
</a>
</g>
</g>
<!-- Node0&#45;&gt;Node29 -->
<g id="edge61" class="edge"><title>Node0&#45;&gt;Node29</title>
<path fill="none" stroke="midnightblue" d="M477.581,-397.632C607.219,-391.148 894.472,-375.808 1136,-356 1143.45,-355.389 1151.25,-354.685 1158.99,-353.946"/>
<polygon fill="midnightblue" stroke="midnightblue" points="1159.5,-357.413 1169.11,-352.958 1158.82,-350.446 1159.5,-357.413"/>
</g>
<!-- Node7&#45;&gt;Node1 -->
<g id="edge8" class="edge"><title>Node7&#45;&gt;Node1</title>
<path fill="none" stroke="midnightblue" d="M645.905,-230.345C768.331,-223.533 1040.45,-200.822 1097,-132 1107.51,-119.214 1105.65,-99.7518 1102.14,-85.455"/>
<polygon fill="midnightblue" stroke="midnightblue" points="1105.47,-84.3536 1099.32,-75.7252 1098.75,-86.3044 1105.47,-84.3536"/>
</g>
<!-- Node8 -->
<g id="node9" class="node"><title>Node8</title>
<g id="a_node9"><a xlink:href="instance_8hpp.html" target="_top" xlink:title="Module for the handling of instances or also called objects or points. ">
<polygon fill="white" stroke="black" points="128,-168.5 128,-187.5 200,-187.5 200,-168.5 128,-168.5"/>
<text text-anchor="middle" x="164" y="-175.5" font-family="Helvetica,sans-Serif" font-size="10.00">instance.hpp</text>
</a>
</g>
</g>
<!-- Node7&#45;&gt;Node8 -->
<g id="edge9" class="edge"><title>Node7&#45;&gt;Node8</title>
<path fill="none" stroke="midnightblue" d="M526.162,-225.184C523.064,-224.783 519.995,-224.386 517,-224 407.074,-209.824 277.857,-193.417 210.373,-184.868"/>
<polygon fill="midnightblue" stroke="midnightblue" points="210.445,-181.349 200.085,-183.565 209.565,-188.294 210.445,-181.349"/>
</g>
<!-- Node7&#45;&gt;Node17 -->
<g id="edge54" class="edge"><title>Node7&#45;&gt;Node17</title>
<path fill="none" stroke="midnightblue" d="M581.654,-224.476C574.836,-211.531 560.763,-186.47 545,-168 529.258,-149.555 521.757,-148.515 504,-132 486.446,-115.674 466.957,-96.3226 453.739,-83.0042"/>
<polygon fill="midnightblue" stroke="midnightblue" points="455.912,-80.2235 446.392,-75.5723 450.933,-85.1446 455.912,-80.2235"/>
</g>
<!-- Node18 -->
<g id="node19" class="node"><title>Node18</title>
<g id="a_node19"><a xlink:href="matrix_8hpp.html" target="_top" xlink:title="matrix ">
<polygon fill="white" stroke="black" points="679,-168.5 679,-187.5 741,-187.5 741,-168.5 679,-168.5"/>
<text text-anchor="middle" x="710" y="-175.5" font-family="Helvetica,sans-Serif" font-size="10.00">matrix.hpp</text>
</a>
</g>
</g>
<!-- Node7&#45;&gt;Node18 -->
<g id="edge25" class="edge"><title>Node7&#45;&gt;Node18</title>
<path fill="none" stroke="midnightblue" d="M605.648,-224.444C625.965,-215.596 657.903,-201.687 681.098,-191.586"/>
<polygon fill="midnightblue" stroke="midnightblue" points="682.673,-194.718 690.444,-187.516 679.878,-188.3 682.673,-194.718"/>
</g>
<!-- Node8&#45;&gt;Node2 -->
<g id="edge10" class="edge"><title>Node8&#45;&gt;Node2</title>
<path fill="none" stroke="midnightblue" d="M166.685,-168.342C174.317,-145.368 198.511,-82.7884 243,-56 320.418,-9.38432 604.545,-9.08364 700.839,-10.3835"/>
<polygon fill="midnightblue" stroke="midnightblue" points="700.804,-13.8832 710.856,-10.534 700.91,-6.88403 700.804,-13.8832"/>
</g>
<!-- Node8&#45;&gt;Node4 -->
<g id="edge11" class="edge"><title>Node8&#45;&gt;Node4</title>
<path fill="none" stroke="midnightblue" d="M158.989,-168.379C148.884,-150.969 125.37,-110.344 106,-76 97.0111,-60.0624 86.9312,-41.8311 79.729,-28.7406"/>
<polygon fill="midnightblue" stroke="midnightblue" points="82.7304,-26.9349 74.848,-19.8555 76.5952,-30.3053 82.7304,-26.9349"/>
</g>
<!-- Node9 -->
<g id="node10" class="node"><title>Node9</title>
<g id="a_node10"><a xlink:href="line__split_8hpp.html" target="_top" xlink:title="line split ">
<polygon fill="white" stroke="black" points="706.5,-112.5 706.5,-131.5 779.5,-131.5 779.5,-112.5 706.5,-112.5"/>
<text text-anchor="middle" x="743" y="-119.5" font-family="Helvetica,sans-Serif" font-size="10.00">line_split.hpp</text>
</a>
</g>
</g>
<!-- Node8&#45;&gt;Node9 -->
<g id="edge12" class="edge"><title>Node8&#45;&gt;Node9</title>
<path fill="none" stroke="midnightblue" d="M200.219,-173.622C300.932,-164.229 584.253,-137.805 696.428,-127.344"/>
<polygon fill="midnightblue" stroke="midnightblue" points="696.791,-130.825 706.423,-126.411 696.141,-123.855 696.791,-130.825"/>
</g>
<!-- Node8&#45;&gt;Node15 -->
<g id="edge24" class="edge"><title>Node8&#45;&gt;Node15</title>
<path fill="none" stroke="midnightblue" d="M163.058,-168.368C161.122,-150.617 156.655,-109.666 154.029,-85.5974"/>
<polygon fill="midnightblue" stroke="midnightblue" points="157.501,-85.1528 152.937,-75.5914 150.542,-85.912 157.501,-85.1528"/>
</g>
<!-- Node9&#45;&gt;Node1 -->
<g id="edge17" class="edge"><title>Node9&#45;&gt;Node1</title>
<path fill="none" stroke="midnightblue" d="M779.778,-115.374C849.03,-104.78 997.717,-82.0348 1063.52,-71.9682"/>
<polygon fill="midnightblue" stroke="midnightblue" points="1064.36,-75.3811 1073.71,-70.4091 1063.3,-68.4616 1064.36,-75.3811"/>
</g>
<!-- Node9&#45;&gt;Node3 -->
<g id="edge16" class="edge"><title>Node9&#45;&gt;Node3</title>
<path fill="none" stroke="midnightblue" d="M706.449,-117.782C642.117,-111.842 504.308,-97.8881 378.373,-76.0792"/>
<polygon fill="midnightblue" stroke="midnightblue" points="378.624,-72.5699 368.17,-74.2901 377.415,-79.4647 378.624,-72.5699"/>
</g>
<!-- Node10 -->
<g id="node11" class="node"><title>Node10</title>
<polygon fill="white" stroke="#bfbfbf" points="851,-56.5 851,-75.5 907,-75.5 907,-56.5 851,-56.5"/>
<text text-anchor="middle" x="879" y="-63.5" font-family="Helvetica,sans-Serif" font-size="10.00">iostream</text>
</g>
<!-- Node9&#45;&gt;Node10 -->
<g id="edge13" class="edge"><title>Node9&#45;&gt;Node10</title>
<path fill="none" stroke="midnightblue" d="M764.55,-112.444C787.031,-103.517 822.488,-89.4387 847.98,-79.3168"/>
<polygon fill="midnightblue" stroke="midnightblue" points="849.549,-82.4598 857.551,-75.5164 846.965,-75.9539 849.549,-82.4598"/>
</g>
<!-- Node11 -->
<g id="node12" class="node"><title>Node11</title>
<polygon fill="white" stroke="#bfbfbf" points="508.5,-56.5 508.5,-75.5 561.5,-75.5 561.5,-56.5 508.5,-56.5"/>
<text text-anchor="middle" x="535" y="-63.5" font-family="Helvetica,sans-Serif" font-size="10.00">sstream</text>
</g>
<!-- Node9&#45;&gt;Node11 -->
<g id="edge14" class="edge"><title>Node9&#45;&gt;Node11</title>
<path fill="none" stroke="midnightblue" d="M710.042,-112.444C672.291,-102.643 610.619,-86.6319 571.46,-76.4655"/>
<polygon fill="midnightblue" stroke="midnightblue" points="572.093,-73.0139 561.534,-73.8886 570.334,-79.7892 572.093,-73.0139"/>
</g>
<!-- Node12 -->
<g id="node13" class="node"><title>Node12</title>
<polygon fill="white" stroke="#bfbfbf" points="717,-56.5 717,-75.5 767,-75.5 767,-56.5 717,-56.5"/>
<text text-anchor="middle" x="742" y="-63.5" font-family="Helvetica,sans-Serif" font-size="10.00">fstream</text>
</g>
<!-- Node9&#45;&gt;Node12 -->
<g id="edge15" class="edge"><title>Node9&#45;&gt;Node12</title>
<path fill="none" stroke="midnightblue" d="M742.835,-112.083C742.704,-105.006 742.516,-94.8611 742.352,-85.9865"/>
<polygon fill="midnightblue" stroke="midnightblue" points="745.847,-85.6845 742.162,-75.7511 738.848,-85.8142 745.847,-85.6845"/>
</g>
<!-- Node13 -->
<g id="node14" class="node"><title>Node13</title>
<polygon fill="white" stroke="#bfbfbf" points="933.5,-56.5 933.5,-75.5 974.5,-75.5 974.5,-56.5 933.5,-56.5"/>
<text text-anchor="middle" x="954" y="-63.5" font-family="Helvetica,sans-Serif" font-size="10.00">string</text>
</g>
<!-- Node9&#45;&gt;Node13 -->
<g id="edge18" class="edge"><title>Node9&#45;&gt;Node13</title>
<path fill="none" stroke="midnightblue" d="M776.434,-112.444C816.969,-102.07 884.692,-84.7375 923.742,-74.7438"/>
<polygon fill="midnightblue" stroke="midnightblue" points="924.664,-78.1208 933.484,-72.2506 922.928,-71.3393 924.664,-78.1208"/>
</g>
<!-- Node14 -->
<g id="node15" class="node"><title>Node14</title>
<polygon fill="white" stroke="#bfbfbf" points="785,-56.5 785,-75.5 833,-75.5 833,-56.5 785,-56.5"/>
<text text-anchor="middle" x="809" y="-63.5" font-family="Helvetica,sans-Serif" font-size="10.00">string.h</text>
</g>
<!-- Node9&#45;&gt;Node14 -->
<g id="edge19" class="edge"><title>Node9&#45;&gt;Node14</title>
<path fill="none" stroke="midnightblue" d="M753.604,-112.324C763.456,-104.263 778.351,-92.0765 790.215,-82.3695"/>
<polygon fill="midnightblue" stroke="midnightblue" points="792.68,-84.8752 798.203,-75.8339 788.247,-79.4575 792.68,-84.8752"/>
</g>
<!-- Node9&#45;&gt;Node15 -->
<g id="edge20" class="edge"><title>Node9&#45;&gt;Node15</title>
<path fill="none" stroke="midnightblue" d="M706.293,-117.808C623.581,-110.591 416.324,-92.3702 243,-76 228.755,-74.6546 213.262,-73.1411 199.164,-71.7445"/>
<polygon fill="midnightblue" stroke="midnightblue" points="199.481,-68.2588 189.184,-70.7523 198.788,-75.2245 199.481,-68.2588"/>
</g>
<!-- Node9&#45;&gt;Node17 -->
<g id="edge23" class="edge"><title>Node9&#45;&gt;Node17</title>
<path fill="none" stroke="midnightblue" d="M706.21,-114.486C654.056,-105.253 558.1,-88.2636 496.222,-77.3082"/>
<polygon fill="midnightblue" stroke="midnightblue" points="496.675,-73.8341 486.218,-75.537 495.455,-80.7269 496.675,-73.8341"/>
</g>
<!-- Node15&#45;&gt;Node4 -->
<g id="edge22" class="edge"><title>Node15&#45;&gt;Node4</title>
<path fill="none" stroke="midnightblue" d="M138.825,-56.324C126.153,-47.979 106.767,-35.2122 91.7944,-25.3524"/>
<polygon fill="midnightblue" stroke="midnightblue" points="93.4187,-22.2313 83.142,-19.6545 89.5688,-28.0776 93.4187,-22.2313"/>
</g>
<!-- Node16 -->
<g id="node17" class="node"><title>Node16</title>
<polygon fill="white" stroke="#bfbfbf" points="128.5,-0.5 128.5,-19.5 175.5,-19.5 175.5,-0.5 128.5,-0.5"/>
<text text-anchor="middle" x="152" y="-7.5" font-family="Helvetica,sans-Serif" font-size="10.00">stdint.h</text>
</g>
<!-- Node15&#45;&gt;Node16 -->
<g id="edge21" class="edge"><title>Node15&#45;&gt;Node16</title>
<path fill="none" stroke="midnightblue" d="M152,-56.083C152,-49.0059 152,-38.8611 152,-29.9865"/>
<polygon fill="midnightblue" stroke="midnightblue" points="155.5,-29.751 152,-19.7511 148.5,-29.7511 155.5,-29.751"/>
</g>
<!-- Node18&#45;&gt;Node1 -->
<g id="edge35" class="edge"><title>Node18&#45;&gt;Node1</title>
<path fill="none" stroke="midnightblue" d="M741.221,-177.369C820.262,-177.663 1025.57,-174.242 1076,-132 1089.41,-120.762 1094,-100.748 1095.48,-85.8876"/>
<polygon fill="midnightblue" stroke="midnightblue" points="1098.99,-85.9552 1096.11,-75.7588 1092,-85.5245 1098.99,-85.9552"/>
</g>
<!-- Node18&#45;&gt;Node3 -->
<g id="edge30" class="edge"><title>Node18&#45;&gt;Node3</title>
<path fill="none" stroke="midnightblue" d="M678.897,-171.791C638.22,-164.619 564.961,-150.467 504,-132 454.607,-117.038 399.13,-93.989 366.451,-79.7367"/>
<polygon fill="midnightblue" stroke="midnightblue" points="367.636,-76.4345 357.073,-75.6147 364.819,-82.8428 367.636,-76.4345"/>
</g>
<!-- Node18&#45;&gt;Node6 -->
<g id="edge31" class="edge"><title>Node18&#45;&gt;Node6</title>
<path fill="none" stroke="midnightblue" d="M678.988,-173.665C629.086,-167.87 528.141,-154.372 445,-132 392.426,-117.853 333.516,-94.0944 299.495,-79.5552"/>
<polygon fill="midnightblue" stroke="midnightblue" points="300.746,-76.2832 290.178,-75.5372 297.974,-82.711 300.746,-76.2832"/>
</g>
<!-- Node18&#45;&gt;Node9 -->
<g id="edge53" class="edge"><title>Node18&#45;&gt;Node9</title>
<path fill="none" stroke="midnightblue" d="M715.449,-168.083C720.014,-160.613 726.668,-149.724 732.293,-140.52"/>
<polygon fill="midnightblue" stroke="midnightblue" points="735.424,-142.109 737.652,-131.751 729.451,-138.459 735.424,-142.109"/>
</g>
<!-- Node18&#45;&gt;Node10 -->
<g id="edge26" class="edge"><title>Node18&#45;&gt;Node10</title>
<path fill="none" stroke="midnightblue" d="M734.047,-168.388C754.582,-160.479 784.445,-147.632 808,-132 829.185,-117.941 850.266,-97.6353 863.885,-83.4729"/>
<polygon fill="midnightblue" stroke="midnightblue" points="866.674,-85.6162 870.985,-75.938 861.58,-80.8155 866.674,-85.6162"/>
</g>
<!-- Node18&#45;&gt;Node11 -->
<g id="edge27" class="edge"><title>Node18&#45;&gt;Node11</title>
<path fill="none" stroke="midnightblue" d="M678.834,-174.507C628.629,-169.772 533.395,-157.579 513,-132 501.911,-118.093 511.239,-98.2996 520.941,-84.2155"/>
<polygon fill="midnightblue" stroke="midnightblue" points="523.971,-86.0077 527.16,-75.904 518.366,-81.8141 523.971,-86.0077"/>
</g>
<!-- Node18&#45;&gt;Node13 -->
<g id="edge33" class="edge"><title>Node18&#45;&gt;Node13</title>
<path fill="none" stroke="midnightblue" d="M741.157,-174.705C796.094,-170.038 907.028,-157.638 935,-132 947.846,-120.225 952.186,-100.296 953.563,-85.6021"/>
<polygon fill="midnightblue" stroke="midnightblue" points="957.058,-85.7901 954.131,-75.6077 950.07,-85.3931 957.058,-85.7901"/>
</g>
<!-- Node18&#45;&gt;Node14 -->
<g id="edge34" class="edge"><title>Node18&#45;&gt;Node14</title>
<path fill="none" stroke="midnightblue" d="M734.323,-168.446C751.569,-161.219 774.041,-149.262 788,-132 798.827,-118.612 804.127,-99.5026 806.688,-85.4678"/>
<polygon fill="midnightblue" stroke="midnightblue" points="810.159,-85.9197 808.207,-75.5063 803.239,-84.8643 810.159,-85.9197"/>
</g>
<!-- Node19 -->
<g id="node20" class="node"><title>Node19</title>
<polygon fill="white" stroke="#bfbfbf" points="874,-112.5 874,-131.5 926,-131.5 926,-112.5 874,-112.5"/>
<text text-anchor="middle" x="900" y="-119.5" font-family="Helvetica,sans-Serif" font-size="10.00">iomanip</text>
</g>
<!-- Node18&#45;&gt;Node19 -->
<g id="edge28" class="edge"><title>Node18&#45;&gt;Node19</title>
<path fill="none" stroke="midnightblue" d="M740.106,-168.444C773.63,-158.916 827.805,-143.519 863.661,-133.328"/>
<polygon fill="midnightblue" stroke="midnightblue" points="865.044,-136.574 873.706,-130.473 863.13,-129.84 865.044,-136.574"/>
</g>
<!-- Node20 -->
<g id="node21" class="node"><title>Node20</title>
<polygon fill="white" stroke="#bfbfbf" points="579.5,-56.5 579.5,-75.5 630.5,-75.5 630.5,-56.5 579.5,-56.5"/>
<text text-anchor="middle" x="605" y="-63.5" font-family="Helvetica,sans-Serif" font-size="10.00">typeinfo</text>
</g>
<!-- Node18&#45;&gt;Node20 -->
<g id="edge29" class="edge"><title>Node18&#45;&gt;Node20</title>
<path fill="none" stroke="midnightblue" d="M701.761,-168.368C684.203,-149.974 642.868,-106.671 620.322,-83.0519"/>
<polygon fill="midnightblue" stroke="midnightblue" points="622.637,-80.4083 613.201,-75.5914 617.574,-85.2417 622.637,-80.4083"/>
</g>
<!-- Node21 -->
<g id="node22" class="node"><title>Node21</title>
<polygon fill="white" stroke="#bfbfbf" points="649,-56.5 649,-75.5 699,-75.5 699,-56.5 649,-56.5"/>
<text text-anchor="middle" x="674" y="-63.5" font-family="Helvetica,sans-Serif" font-size="10.00">cassert</text>
</g>
<!-- Node18&#45;&gt;Node21 -->
<g id="edge32" class="edge"><title>Node18&#45;&gt;Node21</title>
<path fill="none" stroke="midnightblue" d="M707.175,-168.368C701.339,-150.537 687.842,-109.295 679.98,-85.2717"/>
<polygon fill="midnightblue" stroke="midnightblue" points="683.249,-84.0067 676.812,-75.5914 676.596,-86.1841 683.249,-84.0067"/>
</g>
<!-- Node22 -->
<g id="node23" class="node"><title>Node22</title>
<g id="a_node23"><a xlink:href="matrix__base_8hpp.html" target="_top" xlink:title="matrix base ">
<polygon fill="white" stroke="black" points="522.5,-112.5 522.5,-131.5 611.5,-131.5 611.5,-112.5 522.5,-112.5"/>
<text text-anchor="middle" x="567" y="-119.5" font-family="Helvetica,sans-Serif" font-size="10.00">matrix_base.hpp</text>
</a>
</g>
</g>
<!-- Node18&#45;&gt;Node22 -->
<g id="edge36" class="edge"><title>Node18&#45;&gt;Node22</title>
<path fill="none" stroke="midnightblue" d="M687.341,-168.444C663.598,-159.478 626.091,-145.314 599.262,-135.183"/>
<polygon fill="midnightblue" stroke="midnightblue" points="600.144,-131.775 589.553,-131.516 597.671,-138.324 600.144,-131.775"/>
</g>
<!-- Node18&#45;&gt;Node23 -->
<g id="edge47" class="edge"><title>Node18&#45;&gt;Node23</title>
<path fill="none" stroke="midnightblue" d="M741.008,-174.359C836.448,-166.23 1127.76,-141.418 1267.57,-129.51"/>
<polygon fill="midnightblue" stroke="midnightblue" points="1268.1,-132.977 1277.77,-128.641 1267.51,-126.002 1268.1,-132.977"/>
</g>
<!-- Node22&#45;&gt;Node1 -->
<g id="edge44" class="edge"><title>Node22&#45;&gt;Node1</title>
<path fill="none" stroke="midnightblue" d="M611.646,-116.443C715.874,-105.803 973.241,-79.5312 1063.83,-70.2842"/>
<polygon fill="midnightblue" stroke="midnightblue" points="1064.19,-73.7654 1073.78,-69.2679 1063.48,-66.8016 1064.19,-73.7654"/>
</g>
<!-- Node22&#45;&gt;Node3 -->
<g id="edge40" class="edge"><title>Node22&#45;&gt;Node3</title>
<path fill="none" stroke="midnightblue" d="M530.714,-112.444C489.149,-102.642 421.243,-86.6292 378.13,-76.4629"/>
<polygon fill="midnightblue" stroke="midnightblue" points="378.802,-73.0255 368.265,-74.1368 377.195,-79.8386 378.802,-73.0255"/>
</g>
<!-- Node22&#45;&gt;Node6 -->
<g id="edge41" class="edge"><title>Node22&#45;&gt;Node6</title>
<path fill="none" stroke="midnightblue" d="M522.498,-115.534C471.035,-108.772 383.676,-95.9323 300.084,-75.9714"/>
<polygon fill="midnightblue" stroke="midnightblue" points="300.719,-72.5239 290.175,-73.5669 299.068,-79.3265 300.719,-72.5239"/>
</g>
<!-- Node22&#45;&gt;Node10 -->
<g id="edge37" class="edge"><title>Node22&#45;&gt;Node10</title>
<path fill="none" stroke="midnightblue" d="M611.966,-114.72C664.553,-107.136 754.421,-93.4367 840.799,-76.1205"/>
<polygon fill="midnightblue" stroke="midnightblue" points="841.661,-79.517 850.768,-74.1025 840.272,-72.6562 841.661,-79.517"/>
</g>
<!-- Node22&#45;&gt;Node11 -->
<g id="edge38" class="edge"><title>Node22&#45;&gt;Node11</title>
<path fill="none" stroke="midnightblue" d="M561.716,-112.083C557.289,-104.613 550.837,-93.7244 545.382,-84.5199"/>
<polygon fill="midnightblue" stroke="midnightblue" points="548.295,-82.5697 540.186,-75.7511 542.273,-86.1383 548.295,-82.5697"/>
</g>
<!-- Node22&#45;&gt;Node14 -->
<g id="edge43" class="edge"><title>Node22&#45;&gt;Node14</title>
<path fill="none" stroke="midnightblue" d="M609.985,-112.454C650.196,-104.302 712.154,-91.337 774.827,-76.1875"/>
<polygon fill="midnightblue" stroke="midnightblue" points="776,-79.5042 784.889,-73.7378 774.344,-72.7029 776,-79.5042"/>
</g>
<!-- Node22&#45;&gt;Node15 -->
<g id="edge45" class="edge"><title>Node22&#45;&gt;Node15</title>
<path fill="none" stroke="midnightblue" d="M522.193,-115.17C443.264,-104.899 280.168,-83.6772 199.421,-73.1704"/>
<polygon fill="midnightblue" stroke="midnightblue" points="199.426,-69.6416 189.058,-71.822 198.522,-76.5831 199.426,-69.6416"/>
</g>
<!-- Node22&#45;&gt;Node17 -->
<g id="edge46" class="edge"><title>Node22&#45;&gt;Node17</title>
<path fill="none" stroke="midnightblue" d="M546.56,-112.444C525.33,-103.557 491.901,-89.5632 467.745,-79.4514"/>
<polygon fill="midnightblue" stroke="midnightblue" points="468.921,-76.1493 458.345,-75.5164 466.218,-82.6064 468.921,-76.1493"/>
</g>
<!-- Node22&#45;&gt;Node20 -->
<g id="edge39" class="edge"><title>Node22&#45;&gt;Node20</title>
<path fill="none" stroke="midnightblue" d="M573.275,-112.083C578.642,-104.455 586.518,-93.2645 593.079,-83.9408"/>
<polygon fill="midnightblue" stroke="midnightblue" points="595.949,-85.9434 598.842,-75.7511 590.225,-81.9149 595.949,-85.9434"/>
</g>
<!-- Node22&#45;&gt;Node21 -->
<g id="edge42" class="edge"><title>Node22&#45;&gt;Node21</title>
<path fill="none" stroke="midnightblue" d="M584.191,-112.324C601.351,-103.664 627.946,-90.2424 647.747,-80.249"/>
<polygon fill="midnightblue" stroke="midnightblue" points="649.501,-83.2847 656.851,-75.6545 646.347,-77.0354 649.501,-83.2847"/>
</g>
<!-- Node24 -->
<g id="node25" class="node"><title>Node24</title>
<g id="a_node25"><a xlink:href="interface__level1_8hpp.html" target="_top" xlink:title="Interface_level 1. ">
<polygon fill="white" stroke="black" points="1285,-56.5 1285,-75.5 1391,-75.5 1391,-56.5 1285,-56.5"/>
<text text-anchor="middle" x="1338" y="-63.5" font-family="Helvetica,sans-Serif" font-size="10.00">interface_level1.hpp</text>
</a>
</g>
</g>
<!-- Node23&#45;&gt;Node24 -->
<g id="edge48" class="edge"><title>Node23&#45;&gt;Node24</title>
<path fill="none" stroke="midnightblue" d="M1343.01,-112.083C1342.21,-104.927 1341.07,-94.6353 1340.08,-85.6911"/>
<polygon fill="midnightblue" stroke="midnightblue" points="1343.56,-85.3034 1338.97,-75.7511 1336.6,-86.0765 1343.56,-85.3034"/>
</g>
<!-- Node24&#45;&gt;Node2 -->
<g id="edge52" class="edge"><title>Node24&#45;&gt;Node2</title>
<path fill="none" stroke="midnightblue" d="M1284.67,-58.2786C1277.72,-57.4718 1270.69,-56.6905 1264,-56 1075.11,-36.5158 847.766,-19.3477 765.057,-13.3069"/>
<polygon fill="midnightblue" stroke="midnightblue" points="765.257,-9.81232 755.03,-12.5774 764.749,-16.7939 765.257,-9.81232"/>
</g>
<!-- Node24&#45;&gt;Node4 -->
<g id="edge51" class="edge"><title>Node24&#45;&gt;Node4</title>
<path fill="none" stroke="midnightblue" d="M1284.67,-62.6231C1242.02,-60.7465 1180.67,-58.1031 1127,-56 679.058,-38.448 564.641,-68.6211 119,-20 112.831,-19.3269 106.271,-18.3241 100.023,-17.2294"/>
<polygon fill="midnightblue" stroke="midnightblue" points="100.402,-13.7396 89.9288,-15.342 99.1152,-20.6203 100.402,-13.7396"/>
</g>
<!-- Node24&#45;&gt;Node5 -->
<g id="edge49" class="edge"><title>Node24&#45;&gt;Node5</title>
<path fill="none" stroke="midnightblue" d="M1351.01,-56.324C1363.53,-47.979 1382.68,-35.2122 1397.47,-25.3524"/>
<polygon fill="midnightblue" stroke="midnightblue" points="1399.64,-28.1137 1406.02,-19.6545 1395.76,-22.2894 1399.64,-28.1137"/>
</g>
<!-- Node25 -->
<g id="node26" class="node"><title>Node25</title>
<polygon fill="white" stroke="#bfbfbf" points="1312,-0.5 1312,-19.5 1364,-19.5 1364,-0.5 1312,-0.5"/>
<text text-anchor="middle" x="1338" y="-7.5" font-family="Helvetica,sans-Serif" font-size="10.00">numeric</text>
</g>
<!-- Node24&#45;&gt;Node25 -->
<g id="edge50" class="edge"><title>Node24&#45;&gt;Node25</title>
<path fill="none" stroke="midnightblue" d="M1338,-56.083C1338,-49.0059 1338,-38.8611 1338,-29.9865"/>
<polygon fill="midnightblue" stroke="midnightblue" points="1341.5,-29.751 1338,-19.7511 1334.5,-29.7511 1341.5,-29.751"/>
</g>
<!-- Node27 -->
<g id="node28" class="node"><title>Node27</title>
<g id="a_node28"><a xlink:href="interface__level2_8hpp.html" target="_top" xlink:title="Interface_level 2. ">
<polygon fill="white" stroke="black" points="402,-224.5 402,-243.5 508,-243.5 508,-224.5 402,-224.5"/>
<text text-anchor="middle" x="455" y="-231.5" font-family="Helvetica,sans-Serif" font-size="10.00">interface_level2.hpp</text>
</a>
</g>
</g>
<!-- Node26&#45;&gt;Node27 -->
<g id="edge57" class="edge"><title>Node26&#45;&gt;Node27</title>
<path fill="none" stroke="midnightblue" d="M455,-336.368C455,-318.617 455,-277.666 455,-253.597"/>
<polygon fill="midnightblue" stroke="midnightblue" points="458.5,-253.591 455,-243.591 451.5,-253.591 458.5,-253.591"/>
</g>
<!-- Node27&#45;&gt;Node3 -->
<g id="edge58" class="edge"><title>Node27&#45;&gt;Node3</title>
<path fill="none" stroke="midnightblue" d="M432.412,-224.442C415.794,-217.088 393.787,-204.972 380,-188 355.196,-157.467 344.617,-111.351 340.447,-85.77"/>
<polygon fill="midnightblue" stroke="midnightblue" points="343.868,-84.9773 338.954,-75.591 336.943,-85.9931 343.868,-84.9773"/>
</g>
<!-- Node27&#45;&gt;Node18 -->
<g id="edge60" class="edge"><title>Node27&#45;&gt;Node18</title>
<path fill="none" stroke="midnightblue" d="M495.406,-224.444C542.768,-214.414 620.844,-197.88 668.622,-187.762"/>
<polygon fill="midnightblue" stroke="midnightblue" points="669.568,-191.14 678.626,-185.644 668.118,-184.292 669.568,-191.14"/>
</g>
<!-- Node28 -->
<g id="node29" class="node"><title>Node28</title>
<g id="a_node29"><a xlink:href="common__interfacelapack_8hpp.html" target="_top" xlink:title="common interfacelapack ">
<polygon fill="white" stroke="black" points="389.5,-168.5 389.5,-187.5 536.5,-187.5 536.5,-168.5 389.5,-168.5"/>
<text text-anchor="middle" x="463" y="-175.5" font-family="Helvetica,sans-Serif" font-size="10.00">common_interfacelapack.hpp</text>
</a>
</g>
</g>
<!-- Node27&#45;&gt;Node28 -->
<g id="edge59" class="edge"><title>Node27&#45;&gt;Node28</title>
<path fill="none" stroke="midnightblue" d="M456.321,-224.083C457.381,-216.927 458.906,-206.635 460.231,-197.691"/>
<polygon fill="midnightblue" stroke="midnightblue" points="463.7,-198.156 461.704,-187.751 456.776,-197.13 463.7,-198.156"/>
</g>
<!-- Node30 -->
<g id="node31" class="node"><title>Node30</title>
<g id="a_node31"><a xlink:href="matop__withoutopenblas_8hpp.html" target="_top" xlink:title="Matrix operations. ">
<polygon fill="white" stroke="black" points="1172,-280.5 1172,-299.5 1312,-299.5 1312,-280.5 1172,-280.5"/>
<text text-anchor="middle" x="1242" y="-287.5" font-family="Helvetica,sans-Serif" font-size="10.00">matop_withoutopenblas.hpp</text>
</a>
</g>
</g>
<!-- Node29&#45;&gt;Node30 -->
<g id="edge62" class="edge"><title>Node29&#45;&gt;Node30</title>
<path fill="none" stroke="midnightblue" d="M1226.97,-336.083C1229.38,-328.849 1232.86,-318.409 1235.87,-309.397"/>
<polygon fill="midnightblue" stroke="midnightblue" points="1239.24,-310.345 1239.08,-299.751 1232.6,-308.131 1239.24,-310.345"/>
</g>
<!-- Node30&#45;&gt;Node1 -->
<g id="edge63" class="edge"><title>Node30&#45;&gt;Node1</title>
<path fill="none" stroke="midnightblue" d="M1221.15,-280.427C1206.42,-273.129 1187.8,-261.091 1179,-244 1152.12,-191.762 1216.89,-161.975 1186,-112 1173.43,-91.66 1148.57,-80.2062 1128.16,-73.9508"/>
<polygon fill="midnightblue" stroke="midnightblue" points="1128.85,-70.5094 1118.28,-71.2076 1126.98,-77.2545 1128.85,-70.5094"/>
</g>
<!-- Node30&#45;&gt;Node2 -->
<g id="edge66" class="edge"><title>Node30&#45;&gt;Node2</title>
<path fill="none" stroke="midnightblue" d="M1243.64,-280.089C1245.69,-267.49 1248.51,-243.799 1245,-224 1229.07,-134.157 1212.03,-89.1024 1127,-56 1061.07,-30.3333 847.059,-16.8746 765.225,-12.565"/>
<polygon fill="midnightblue" stroke="midnightblue" points="765.194,-9.05889 755.027,-12.0396 764.833,-16.0496 765.194,-9.05889"/>
</g>
<!-- Node30&#45;&gt;Node24 -->
<g id="edge78" class="edge"><title>Node30&#45;&gt;Node24</title>
<path fill="none" stroke="midnightblue" d="M1308.8,-280.435C1352.65,-273.29 1404.33,-261.439 1418,-244 1454.19,-197.822 1448.75,-162.565 1419,-112 1410.08,-96.844 1394.01,-86.4264 1378.52,-79.464"/>
<polygon fill="midnightblue" stroke="midnightblue" points="1379.6,-76.124 1369.02,-75.5639 1376.94,-82.5996 1379.6,-76.124"/>
</g>
<!-- Node31 -->
<g id="node32" class="node"><title>Node31</title>
<polygon fill="white" stroke="#bfbfbf" points="1466,-224.5 1466,-243.5 1504,-243.5 1504,-224.5 1466,-224.5"/>
<text text-anchor="middle" x="1485" y="-231.5" font-family="Helvetica,sans-Serif" font-size="10.00">tuple</text>
</g>
<!-- Node30&#45;&gt;Node31 -->
<g id="edge64" class="edge"><title>Node30&#45;&gt;Node31</title>
<path fill="none" stroke="midnightblue" d="M1285.19,-280.47C1327.76,-271.893 1394.58,-257.972 1452,-244 1453.27,-243.692 1454.56,-243.371 1455.86,-243.041"/>
<polygon fill="midnightblue" stroke="midnightblue" points="1457.07,-246.342 1465.85,-240.414 1455.29,-239.572 1457.07,-246.342"/>
</g>
<!-- Node32 -->
<g id="node33" class="node"><title>Node32</title>
<polygon fill="white" stroke="#bfbfbf" points="1188,-224.5 1188,-243.5 1236,-243.5 1236,-224.5 1188,-224.5"/>
<text text-anchor="middle" x="1212" y="-231.5" font-family="Helvetica,sans-Serif" font-size="10.00">ctype.h</text>
</g>
<!-- Node30&#45;&gt;Node32 -->
<g id="edge65" class="edge"><title>Node30&#45;&gt;Node32</title>
<path fill="none" stroke="midnightblue" d="M1237.05,-280.083C1232.9,-272.613 1226.85,-261.724 1221.73,-252.52"/>
<polygon fill="midnightblue" stroke="midnightblue" points="1224.78,-250.793 1216.86,-243.751 1218.66,-254.192 1224.78,-250.793"/>
</g>
<!-- Node33 -->
<g id="node34" class="node"><title>Node33</title>
<g id="a_node34"><a xlink:href="matrix__inverse__lup_8hpp.html" target="_top" xlink:title="Reverse of a matrix by the LUP method. ">
<polygon fill="white" stroke="black" points="976,-224.5 976,-243.5 1094,-243.5 1094,-224.5 976,-224.5"/>
<text text-anchor="middle" x="1035" y="-231.5" font-family="Helvetica,sans-Serif" font-size="10.00">matrix_inverse_lup.hpp</text>
</a>
</g>
</g>
<!-- Node30&#45;&gt;Node33 -->
<g id="edge67" class="edge"><title>Node30&#45;&gt;Node33</title>
<path fill="none" stroke="midnightblue" d="M1209.2,-280.444C1173.62,-271.162 1116.69,-256.309 1077.65,-246.127"/>
<polygon fill="midnightblue" stroke="midnightblue" points="1078.21,-242.654 1067.65,-243.516 1076.44,-249.427 1078.21,-242.654"/>
</g>
<!-- Node36 -->
<g id="node37" class="node"><title>Node36</title>
<g id="a_node37"><a xlink:href="jacobi__eigenvalue_8hpp.html" target="_top" xlink:title="Function jacobi_eigenvalue are part of. ">
<polygon fill="white" stroke="black" points="1292.5,-224.5 1292.5,-243.5 1409.5,-243.5 1409.5,-224.5 1292.5,-224.5"/>
<text text-anchor="middle" x="1351" y="-231.5" font-family="Helvetica,sans-Serif" font-size="10.00">jacobi_eigenvalue.hpp</text>
</a>
</g>
</g>
<!-- Node30&#45;&gt;Node36 -->
<g id="edge77" class="edge"><title>Node30&#45;&gt;Node36</title>
<path fill="none" stroke="midnightblue" d="M1259.51,-280.324C1277.07,-271.625 1304.33,-258.12 1324.53,-248.113"/>
<polygon fill="midnightblue" stroke="midnightblue" points="1326.12,-251.23 1333.53,-243.655 1323.02,-244.958 1326.12,-251.23"/>
</g>
<!-- Node33&#45;&gt;Node18 -->
<g id="edge69" class="edge"><title>Node33&#45;&gt;Node18</title>
<path fill="none" stroke="midnightblue" d="M983.503,-224.444C919.171,-213.755 810.38,-195.679 751.252,-185.854"/>
<polygon fill="midnightblue" stroke="midnightblue" points="751.597,-182.364 741.159,-184.177 750.45,-189.269 751.597,-182.364"/>
</g>
<!-- Node34 -->
<g id="node35" class="node"><title>Node34</title>
<polygon fill="white" stroke="#bfbfbf" points="1072,-168.5 1072,-187.5 1118,-187.5 1118,-168.5 1072,-168.5"/>
<text text-anchor="middle" x="1095" y="-175.5" font-family="Helvetica,sans-Serif" font-size="10.00">stdio.h</text>
</g>
<!-- Node33&#45;&gt;Node34 -->
<g id="edge68" class="edge"><title>Node33&#45;&gt;Node34</title>
<path fill="none" stroke="midnightblue" d="M1044.64,-224.324C1053.51,-216.341 1066.87,-204.313 1077.61,-194.653"/>
<polygon fill="midnightblue" stroke="midnightblue" points="1080.09,-197.125 1085.18,-187.834 1075.41,-191.922 1080.09,-197.125"/>
</g>
<!-- Node35 -->
<g id="node36" class="node"><title>Node35</title>
<g id="a_node36"><a xlink:href="vector__utils_8hpp.html" target="_top" xlink:title="Operations for vector manipulation. ">
<polygon fill="white" stroke="black" points="982.5,-112.5 982.5,-131.5 1067.5,-131.5 1067.5,-112.5 982.5,-112.5"/>
<text text-anchor="middle" x="1025" y="-119.5" font-family="Helvetica,sans-Serif" font-size="10.00">vector_utils.hpp</text>
</a>
</g>
</g>
<!-- Node33&#45;&gt;Node35 -->
<g id="edge70" class="edge"><title>Node33&#45;&gt;Node35</title>
<path fill="none" stroke="midnightblue" d="M1034.22,-224.368C1032.6,-206.617 1028.88,-165.666 1026.69,-141.597"/>
<polygon fill="midnightblue" stroke="midnightblue" points="1030.17,-141.233 1025.78,-131.591 1023.2,-141.867 1030.17,-141.233"/>
</g>
<!-- Node35&#45;&gt;Node1 -->
<g id="edge72" class="edge"><title>Node35&#45;&gt;Node1</title>
<path fill="none" stroke="midnightblue" d="M1036.41,-112.324C1047.11,-104.185 1063.34,-91.8395 1076.16,-82.0874"/>
<polygon fill="midnightblue" stroke="midnightblue" points="1078.54,-84.6734 1084.39,-75.8339 1074.31,-79.1018 1078.54,-84.6734"/>
</g>
<!-- Node35&#45;&gt;Node5 -->
<g id="edge74" class="edge"><title>Node35&#45;&gt;Node5</title>
<path fill="none" stroke="midnightblue" d="M1067.74,-118.503C1160.71,-112.699 1375.02,-97.1677 1400,-76 1413.3,-64.735 1417.56,-44.7253 1418.8,-29.8731"/>
<polygon fill="midnightblue" stroke="midnightblue" points="1422.3,-29.8983 1419.26,-19.7511 1415.31,-29.5838 1422.3,-29.8983"/>
</g>
<!-- Node35&#45;&gt;Node10 -->
<g id="edge71" class="edge"><title>Node35&#45;&gt;Node10</title>
<path fill="none" stroke="midnightblue" d="M1001.87,-112.444C977.518,-103.438 938.993,-89.1891 911.577,-79.049"/>
<polygon fill="midnightblue" stroke="midnightblue" points="912.619,-75.7028 902.026,-75.5164 910.191,-82.2681 912.619,-75.7028"/>
</g>
<!-- Node35&#45;&gt;Node13 -->
<g id="edge73" class="edge"><title>Node35&#45;&gt;Node13</title>
<path fill="none" stroke="midnightblue" d="M1013.59,-112.324C1002.89,-104.185 986.659,-91.8395 973.837,-82.0874"/>
<polygon fill="midnightblue" stroke="midnightblue" points="975.693,-79.1018 965.615,-75.8339 971.456,-84.6734 975.693,-79.1018"/>
</g>
<!-- Node35&#45;&gt;Node15 -->
<g id="edge75" class="edge"><title>Node35&#45;&gt;Node15</title>
<path fill="none" stroke="midnightblue" d="M982.459,-116.326C967.473,-114.79 950.501,-113.178 935,-112 627.913,-88.6712 550.099,-99.1617 243,-76 228.733,-74.9239 213.232,-73.4901 199.136,-72.0837"/>
<polygon fill="midnightblue" stroke="midnightblue" points="199.459,-68.5987 189.157,-71.07 198.752,-75.5628 199.459,-68.5987"/>
</g>
<!-- Node35&#45;&gt;Node17 -->
<g id="edge76" class="edge"><title>Node35&#45;&gt;Node17</title>
<path fill="none" stroke="midnightblue" d="M982.437,-116.591C967.449,-115.079 950.482,-113.413 935,-112 744.677,-94.6278 693.889,-98.0753 500.436,-76.0982"/>
<polygon fill="midnightblue" stroke="midnightblue" points="500.548,-72.5882 490.214,-74.9285 499.752,-79.5428 500.548,-72.5882"/>
</g>
</g>
</svg>
        <g id="navigator" transform="translate(0 0)" fill="#404254">
                <rect fill="#f2f5e9" fill-opacity="0.5" stroke="#606060" stroke-width=".5" x="0" y="0" width="60" height="60"/>
                <use id="zoomplus" xlink:href="#zoomPlus" x="17" y="9" onmousedown="handleZoom(evt,'in')"/>
                <use id="zoomminus" xlink:href="#zoomMin" x="42" y="9" onmousedown="handleZoom(evt,'out')"/>
                <use id="reset" xlink:href="#resetDef" x="30" y="36" onmousedown="handleReset()"/>
                <g id="arrowUp" xlink:href="#dirArrow" transform="translate(30 24)" onmousedown="handlePan(0,-1)">
                  <use xlink:href="#rim" fill="#404040">
                        <set attributeName="fill" to="#808080" begin="arrowUp.mouseover" end="arrowUp.mouseout"/>
                  </use>
                  <path fill="none" stroke="white" stroke-width="1.5" d="M0,-3.0v7 M-2.5,-0.5L0,-3.0L2.5,-0.5"/>
                </g>
                <g id="arrowRight" xlink:href="#dirArrow" transform="rotate(90) translate(36 -43)" onmousedown="handlePan(1,0)">
                  <use xlink:href="#rim" fill="#404040">
                        <set attributeName="fill" to="#808080" begin="arrowRight.mouseover" end="arrowRight.mouseout"/>
                  </use>
                  <path fill="none" stroke="white" stroke-width="1.5" d="M0,-3.0v7 M-2.5,-0.5L0,-3.0L2.5,-0.5"/>
                </g>
                <g id="arrowDown" xlink:href="#dirArrow" transform="rotate(180) translate(-30 -48)" onmousedown="handlePan(0,1)">
                  <use xlink:href="#rim" fill="#404040">
                        <set attributeName="fill" to="#808080" begin="arrowDown.mouseover" end="arrowDown.mouseout"/>
                  </use>
                  <path fill="none" stroke="white" stroke-width="1.5" d="M0,-3.0v7 M-2.5,-0.5L0,-3.0L2.5,-0.5"/>
                </g>
                <g id="arrowLeft" xlink:href="#dirArrow" transform="rotate(270) translate(-36 17)" onmousedown="handlePan(-1,0)">
                  <use xlink:href="#rim" fill="#404040">
                        <set attributeName="fill" to="#808080" begin="arrowLeft.mouseover" end="arrowLeft.mouseout"/>
                  </use>
                  <path fill="none" stroke="white" stroke-width="1.5" d="M0,-3.0v7 M-2.5,-0.5L0,-3.0L2.5,-0.5"/>
                </g>
        </g>
        <svg viewBox="0 0 15 15" width="100%" height="30px" preserveAspectRatio="xMaxYMin meet">
         <g id="arrow_out" transform="scale(0.3 0.3)">
          <a xlink:href="stats__instances_8hpp__incl_org.svg" target="_base">
           <rect id="button" ry="5" rx="5" y="6" x="6" height="38" width="38"
                fill="#f2f5e9" fill-opacity="0.5" stroke="#606060" stroke-width="1.0"/>
           <path id="arrow"
             d="M 11.500037,31.436501 C 11.940474,20.09759 22.043105,11.32322 32.158766,21.979434 L 37.068811,17.246167 C 37.068811,17.246167 37.088388,32 37.088388,32 L 22.160133,31.978069 C 22.160133,31.978069 26.997745,27.140456 26.997745,27.140456 C 18.528582,18.264221 13.291696,25.230495 11.500037,31.436501 z"
             style="fill:#404040;"/>
          </a>
         </g>
        </svg>
</svg>
