<?xml version="1.0" encoding="UTF-8" standalone="no"?>
<!DOCTYPE svg PUBLIC "-//W3C//DTD SVG 1.1//EN"
 "http://www.w3.org/Graphics/SVG/1.1/DTD/svg11.dtd">
<!-- Generated by graphviz version 2.38.0 (20140413.2041)
 -->
<!-- Title: dist::Dist&lt; T_DIST, T_FEATURE &gt; Pages: 1 -->
<!--zoomable 398 -->
<svg id="main" version="1.1" xmlns="http://www.w3.org/2000/svg" xmlns:xlink="http://www.w3.org/1999/xlink" xml:space="preserve" onload="init(evt)">
<style type="text/css"><![CDATA[
.edge:hover path { stroke: red; }
.edge:hover polygon { stroke: red; fill: red; }
]]></style>
<script type="text/javascript"><![CDATA[
var edges = document.getElementsByTagName('g');
if (edges && edges.length) {
  for (var i=0;i<edges.length;i++) {
    if (edges[i].id.substr(0,4)=='edge') {
      edges[i].setAttribute('class','edge');
    }
  }
}
]]></script>
        <defs>
                <circle id="rim" cx="0" cy="0" r="7"/>
                <circle id="rim2" cx="0" cy="0" r="3.5"/>
                <g id="zoomPlus">
                        <use xlink:href="#rim" fill="#404040">
                                <set attributeName="fill" to="#808080" begin="zoomplus.mouseover" end="zoomplus.mouseout"/>
                        </use>
                        <path d="M-4,0h8M0,-4v8" fill="none" stroke="white" stroke-width="1.5" pointer-events="none"/>
                </g>
                <g id="zoomMin">
                        <use xlink:href="#rim" fill="#404040">
                                <set attributeName="fill" to="#808080" begin="zoomminus.mouseover" end="zoomminus.mouseout"/>
                        </use>
                        <path d="M-4,0h8" fill="none" stroke="white" stroke-width="1.5" pointer-events="none"/>
                </g>
                <g id="dirArrow">
                        <path fill="none" stroke="white" stroke-width="1.5" d="M0,-3.0v7 M-2.5,-0.5L0,-3.0L2.5,-0.5"/>
                </g>
               <g id="resetDef">
                       <use xlink:href="#rim2" fill="#404040">
                               <set attributeName="fill" to="#808080" begin="reset.mouseover" end="reset.mouseout"/>
                       </use>
               </g>
        </defs>

<script type="text/javascript">
var viewWidth = 560;
var viewHeight = 398;
var sectionId = 'dynsection-0';
</script>
<script xlink:href="svgpan.js"/>
<svg id="graph" class="graph">
<g id="viewport">
<title>dist::Dist&lt; T_DIST, T_FEATURE &gt;</title>
<polygon fill="white" stroke="none" points="-4,4 -4,-394 556,-394 556,4 -4,4"/>
<!-- Node0 -->
<g id="node1" class="node"><title>Node0</title>
<g id="a_node1"><a xlink:title="Generic dist.">
<polygon fill="#bfbfbf" stroke="black" points="196.5,-310.5 196.5,-389.5 300.5,-389.5 300.5,-310.5 196.5,-310.5"/>
<text text-anchor="start" x="204.5" y="-377.5" font-family="Helvetica,sans-Serif" font-size="10.00">dist::Dist&lt; T_DIST,</text>
<text text-anchor="middle" x="248.5" y="-366.5" font-family="Helvetica,sans-Serif" font-size="10.00"> T_FEATURE &gt;</text>
<polyline fill="none" stroke="black" points="196.5,-359.5 300.5,-359.5 "/>
<text text-anchor="middle" x="248.5" y="-347.5" font-family="Helvetica,sans-Serif" font-size="10.00"> </text>
<polyline fill="none" stroke="black" points="196.5,-340.5 300.5,-340.5 "/>
<text text-anchor="start" x="204.5" y="-328.5" font-family="Helvetica,sans-Serif" font-size="10.00">+ ~Dist()</text>
<text text-anchor="start" x="204.5" y="-317.5" font-family="Helvetica,sans-Serif" font-size="10.00">+ operator()()</text>
</a>
</g>
</g>
<!-- Node1 -->
<g id="node2" class="node"><title>Node1</title>
<g id="a_node2"><a xlink:href="structdist_1_1_euclidean.html" target="_top" xlink:title="Euclidean distance.">
<polygon fill="white" stroke="black" points="0,-167 0,-235 119,-235 119,-167 0,-167"/>
<text text-anchor="start" x="8" y="-223" font-family="Helvetica,sans-Serif" font-size="10.00">dist::Euclidean&lt; T</text>
<text text-anchor="middle" x="59.5" y="-212" font-family="Helvetica,sans-Serif" font-size="10.00">_DIST, T_FEATURE &gt;</text>
<polyline fill="none" stroke="black" points="0,-205 119,-205 "/>
<text text-anchor="middle" x="59.5" y="-193" font-family="Helvetica,sans-Serif" font-size="10.00"> </text>
<polyline fill="none" stroke="black" points="0,-186 119,-186 "/>
<text text-anchor="start" x="8" y="-174" font-family="Helvetica,sans-Serif" font-size="10.00">+ operator()()</text>
</a>
</g>
</g>
<!-- Node0&#45;&gt;Node1 -->
<g id="edge1" class="edge"><title>Node0&#45;&gt;Node1</title>
<path fill="none" stroke="midnightblue" d="M187.839,-307.344C168.561,-293.625 147.357,-278.028 128.5,-263 117.496,-254.231 105.905,-244.282 95.429,-235.002"/>
<polygon fill="none" stroke="midnightblue" points="186.074,-310.382 196.258,-313.302 190.118,-304.668 186.074,-310.382"/>
</g>
<!-- Node2 -->
<g id="node3" class="node"><title>Node2</title>
<g id="a_node3"><a xlink:href="structdist_1_1_euclidean_squared.html" target="_top" xlink:title="Euclidean distance sqrt.">
<polygon fill="white" stroke="black" points="137.5,-167 137.5,-235 273.5,-235 273.5,-167 137.5,-167"/>
<text text-anchor="start" x="145.5" y="-223" font-family="Helvetica,sans-Serif" font-size="10.00">dist::EuclideanSquared</text>
<text text-anchor="middle" x="205.5" y="-212" font-family="Helvetica,sans-Serif" font-size="10.00">&lt; T_DIST, T_FEATURE &gt;</text>
<polyline fill="none" stroke="black" points="137.5,-205 273.5,-205 "/>
<text text-anchor="middle" x="205.5" y="-193" font-family="Helvetica,sans-Serif" font-size="10.00"> </text>
<polyline fill="none" stroke="black" points="137.5,-186 273.5,-186 "/>
<text text-anchor="start" x="145.5" y="-174" font-family="Helvetica,sans-Serif" font-size="10.00">+ operator()()</text>
</a>
</g>
</g>
<!-- Node0&#45;&gt;Node2 -->
<g id="edge2" class="edge"><title>Node0&#45;&gt;Node2</title>
<path fill="none" stroke="midnightblue" d="M234.316,-300.51C228.072,-279.163 220.893,-254.622 215.262,-235.374"/>
<polygon fill="none" stroke="midnightblue" points="231.035,-301.762 237.202,-310.377 237.754,-299.797 231.035,-301.762"/>
</g>
<!-- Node3 -->
<g id="node4" class="node"><title>Node3</title>
<g id="a_node4"><a xlink:href="structdist_1_1_induced.html" target="_top" xlink:title="Dist induced for real number &#160;&#160;.">
<polygon fill="white" stroke="black" points="292,-139.5 292,-262.5 415,-262.5 415,-139.5 292,-139.5"/>
<text text-anchor="start" x="300" y="-250.5" font-family="Helvetica,sans-Serif" font-size="10.00">dist::Induced&lt; T_DIST,</text>
<text text-anchor="middle" x="353.5" y="-239.5" font-family="Helvetica,sans-Serif" font-size="10.00"> T_FEATURE &gt;</text>
<polyline fill="none" stroke="black" points="292,-232.5 415,-232.5 "/>
<text text-anchor="start" x="300" y="-220.5" font-family="Helvetica,sans-Serif" font-size="10.00">+ _matrix_weight</text>
<text text-anchor="start" x="300" y="-209.5" font-family="Helvetica,sans-Serif" font-size="10.00">+ _arrayt_xt</text>
<text text-anchor="start" x="300" y="-198.5" font-family="Helvetica,sans-Serif" font-size="10.00">+ _arrayt_x</text>
<polyline fill="none" stroke="black" points="292,-191.5 415,-191.5 "/>
<text text-anchor="start" x="300" y="-179.5" font-family="Helvetica,sans-Serif" font-size="10.00">+ Induced()</text>
<text text-anchor="start" x="300" y="-168.5" font-family="Helvetica,sans-Serif" font-size="10.00">+ Induced()</text>
<text text-anchor="start" x="300" y="-157.5" font-family="Helvetica,sans-Serif" font-size="10.00">+ ~Induced()</text>
<text text-anchor="start" x="300" y="-146.5" font-family="Helvetica,sans-Serif" font-size="10.00">+ operator()()</text>
</a>
</g>
</g>
<!-- Node0&#45;&gt;Node3 -->
<g id="edge3" class="edge"><title>Node0&#45;&gt;Node3</title>
<path fill="none" stroke="midnightblue" d="M282.132,-301.916C291.079,-289.39 300.869,-275.683 310.253,-262.546"/>
<polygon fill="none" stroke="midnightblue" points="279.052,-300.206 276.088,-310.377 284.748,-304.274 279.052,-300.206"/>
</g>
<!-- Node5 -->
<g id="node6" class="node"><title>Node5</title>
<g id="a_node6"><a xlink:href="structdist_1_1_dist.html" target="_top" xlink:title=" ">
<polygon fill="white" stroke="black" points="433,-161.5 433,-240.5 552,-240.5 552,-161.5 433,-161.5"/>
<text text-anchor="start" x="441" y="-228.5" font-family="Helvetica,sans-Serif" font-size="10.00">dist::Dist&lt; T_METRIC,</text>
<text text-anchor="middle" x="492.5" y="-217.5" font-family="Helvetica,sans-Serif" font-size="10.00"> T_FEATURE &gt;</text>
<polyline fill="none" stroke="black" points="433,-210.5 552,-210.5 "/>
<text text-anchor="middle" x="492.5" y="-198.5" font-family="Helvetica,sans-Serif" font-size="10.00"> </text>
<polyline fill="none" stroke="black" points="433,-191.5 552,-191.5 "/>
<text text-anchor="start" x="441" y="-179.5" font-family="Helvetica,sans-Serif" font-size="10.00">+ ~Dist()</text>
<text text-anchor="start" x="441" y="-168.5" font-family="Helvetica,sans-Serif" font-size="10.00">+ operator()()</text>
</a>
</g>
</g>
<!-- Node0&#45;&gt;Node5 -->
<g id="edge5" class="edge"><title>Node0&#45;&gt;Node5</title>
<path fill="none" stroke="orange" d="M310.148,-323.58C344.711,-308.149 387.897,-286.856 423.5,-263 433.329,-256.414 443.242,-248.538 452.367,-240.669"/>
<polygon fill="orange" stroke="orange" points="308.378,-320.535 300.641,-327.774 311.203,-326.939 308.378,-320.535"/>
<text text-anchor="middle" x="461" y="-284" font-family="Helvetica,sans-Serif" font-size="10.00"> &lt; T_METRIC, T_FEATURE &gt;</text>
</g>
<!-- Node4 -->
<g id="node5" class="node"><title>Node4</title>
<g id="a_node5"><a xlink:href="structdist_1_1_induced_square_root.html" target="_top" xlink:title="Dist induced sqrt for real number &#160;&#160;.">
<polygon fill="white" stroke="black" points="285.5,-0.5 285.5,-101.5 421.5,-101.5 421.5,-0.5 285.5,-0.5"/>
<text text-anchor="start" x="293.5" y="-89.5" font-family="Helvetica,sans-Serif" font-size="10.00">dist::InducedSquareRoot</text>
<text text-anchor="middle" x="353.5" y="-78.5" font-family="Helvetica,sans-Serif" font-size="10.00">&lt; T_DIST, T_FEATURE &gt;</text>
<polyline fill="none" stroke="black" points="285.5,-71.5 421.5,-71.5 "/>
<text text-anchor="middle" x="353.5" y="-59.5" font-family="Helvetica,sans-Serif" font-size="10.00"> </text>
<polyline fill="none" stroke="black" points="285.5,-52.5 421.5,-52.5 "/>
<text text-anchor="start" x="293.5" y="-40.5" font-family="Helvetica,sans-Serif" font-size="10.00">+ InducedSquareRoot()</text>
<text text-anchor="start" x="293.5" y="-29.5" font-family="Helvetica,sans-Serif" font-size="10.00">+ InducedSquareRoot()</text>
<text text-anchor="start" x="293.5" y="-18.5" font-family="Helvetica,sans-Serif" font-size="10.00">+ ~InducedSquareRoot()</text>
<text text-anchor="start" x="293.5" y="-7.5" font-family="Helvetica,sans-Serif" font-size="10.00">+ operator()()</text>
</a>
</g>
</g>
<!-- Node3&#45;&gt;Node4 -->
<g id="edge4" class="edge"><title>Node3&#45;&gt;Node4</title>
<path fill="none" stroke="midnightblue" d="M353.5,-129.369C353.5,-120.096 353.5,-110.753 353.5,-101.922"/>
<polygon fill="none" stroke="midnightblue" points="350,-129.376 353.5,-139.376 357,-129.376 350,-129.376"/>
</g>
</g>
</svg>
        <g id="navigator" transform="translate(0 0)" fill="#404254">
                <rect fill="#f2f5e9" fill-opacity="0.5" stroke="#606060" stroke-width=".5" x="0" y="0" width="60" height="60"/>
                <use id="zoomplus" xlink:href="#zoomPlus" x="17" y="9" onmousedown="handleZoom(evt,'in')"/>
                <use id="zoomminus" xlink:href="#zoomMin" x="42" y="9" onmousedown="handleZoom(evt,'out')"/>
                <use id="reset" xlink:href="#resetDef" x="30" y="36" onmousedown="handleReset()"/>
                <g id="arrowUp" xlink:href="#dirArrow" transform="translate(30 24)" onmousedown="handlePan(0,-1)">
                  <use xlink:href="#rim" fill="#404040">
                        <set attributeName="fill" to="#808080" begin="arrowUp.mouseover" end="arrowUp.mouseout"/>
                  </use>
                  <path fill="none" stroke="white" stroke-width="1.5" d="M0,-3.0v7 M-2.5,-0.5L0,-3.0L2.5,-0.5"/>
                </g>
                <g id="arrowRight" xlink:href="#dirArrow" transform="rotate(90) translate(36 -43)" onmousedown="handlePan(1,0)">
                  <use xlink:href="#rim" fill="#404040">
                        <set attributeName="fill" to="#808080" begin="arrowRight.mouseover" end="arrowRight.mouseout"/>
                  </use>
                  <path fill="none" stroke="white" stroke-width="1.5" d="M0,-3.0v7 M-2.5,-0.5L0,-3.0L2.5,-0.5"/>
                </g>
                <g id="arrowDown" xlink:href="#dirArrow" transform="rotate(180) translate(-30 -48)" onmousedown="handlePan(0,1)">
                  <use xlink:href="#rim" fill="#404040">
                        <set attributeName="fill" to="#808080" begin="arrowDown.mouseover" end="arrowDown.mouseout"/>
                  </use>
                  <path fill="none" stroke="white" stroke-width="1.5" d="M0,-3.0v7 M-2.5,-0.5L0,-3.0L2.5,-0.5"/>
                </g>
                <g id="arrowLeft" xlink:href="#dirArrow" transform="rotate(270) translate(-36 17)" onmousedown="handlePan(-1,0)">
                  <use xlink:href="#rim" fill="#404040">
                        <set attributeName="fill" to="#808080" begin="arrowLeft.mouseover" end="arrowLeft.mouseout"/>
                  </use>
                  <path fill="none" stroke="white" stroke-width="1.5" d="M0,-3.0v7 M-2.5,-0.5L0,-3.0L2.5,-0.5"/>
                </g>
        </g>
        <svg viewBox="0 0 15 15" width="100%" height="30px" preserveAspectRatio="xMaxYMin meet">
         <g id="arrow_out" transform="scale(0.3 0.3)">
          <a xlink:href="structdist_1_1_dist__inherit__graph_org.svg" target="_base">
           <rect id="button" ry="5" rx="5" y="6" x="6" height="38" width="38"
                fill="#f2f5e9" fill-opacity="0.5" stroke="#606060" stroke-width="1.0"/>
           <path id="arrow"
             d="M 11.500037,31.436501 C 11.940474,20.09759 22.043105,11.32322 32.158766,21.979434 L 37.068811,17.246167 C 37.068811,17.246167 37.088388,32 37.088388,32 L 22.160133,31.978069 C 22.160133,31.978069 26.997745,27.140456 26.997745,27.140456 C 18.528582,18.264221 13.291696,25.230495 11.500037,31.436501 z"
             style="fill:#404040;"/>
          </a>
         </g>
        </svg>
</svg>
