<?xml version="1.0" encoding="UTF-8" standalone="no"?>
<!DOCTYPE svg PUBLIC "-//W3C//DTD SVG 1.1//EN"
 "http://www.w3.org/Graphics/SVG/1.1/DTD/svg11.dtd">
<!-- Generated by graphviz version 2.38.0 (20140413.2041)
 -->
<!-- Title: dist::InducedSquareRoot&lt; T_DIST, T_FEATURE &gt; Pages: 1 -->
<svg width="144pt" height="386pt"
 viewBox="0.00 0.00 144.00 386.00" xmlns="http://www.w3.org/2000/svg" xmlns:xlink="http://www.w3.org/1999/xlink">
<g id="graph0" class="graph" transform="scale(1 1) rotate(0) translate(4 382)">
<title>dist::InducedSquareRoot&lt; T_DIST, T_FEATURE &gt;</title>
<polygon fill="white" stroke="none" points="-4,4 -4,-382 140,-382 140,4 -4,4"/>
<!-- Node0 -->
<g id="node1" class="node"><title>Node0</title>
<polygon fill="#bfbfbf" stroke="black" points="0,-0.5 0,-101.5 136,-101.5 136,-0.5 0,-0.5"/>
<text text-anchor="start" x="8" y="-89.5" font-family="Helvetica,sans-Serif" font-size="10.00">dist::InducedSquareRoot</text>
<text text-anchor="middle" x="68" y="-78.5" font-family="Helvetica,sans-Serif" font-size="10.00">&lt; T_DIST, T_FEATURE &gt;</text>
<polyline fill="none" stroke="black" points="0,-71.5 136,-71.5 "/>
<text text-anchor="middle" x="68" y="-59.5" font-family="Helvetica,sans-Serif" font-size="10.00"> </text>
<polyline fill="none" stroke="black" points="0,-52.5 136,-52.5 "/>
<text text-anchor="start" x="8" y="-40.5" font-family="Helvetica,sans-Serif" font-size="10.00">+ InducedSquareRoot()</text>
<text text-anchor="start" x="8" y="-29.5" font-family="Helvetica,sans-Serif" font-size="10.00">+ InducedSquareRoot()</text>
<text text-anchor="start" x="8" y="-18.5" font-family="Helvetica,sans-Serif" font-size="10.00">+ ~InducedSquareRoot()</text>
<text text-anchor="start" x="8" y="-7.5" font-family="Helvetica,sans-Serif" font-size="10.00">+ operator()()</text>
</g>
<!-- Node1 -->
<g id="node2" class="node"><title>Node1</title>
<g id="a_node2"><a xlink:href="structdist_1_1_induced.html" target="_top" xlink:title="Dist induced for real number &#160;&#160;. ">
<polygon fill="white" stroke="black" points="6.5,-138.5 6.5,-261.5 129.5,-261.5 129.5,-138.5 6.5,-138.5"/>
<text text-anchor="start" x="14.5" y="-249.5" font-family="Helvetica,sans-Serif" font-size="10.00">dist::Induced&lt; T_DIST,</text>
<text text-anchor="middle" x="68" y="-238.5" font-family="Helvetica,sans-Serif" font-size="10.00"> T_FEATURE &gt;</text>
<polyline fill="none" stroke="black" points="6.5,-231.5 129.5,-231.5 "/>
<text text-anchor="start" x="14.5" y="-219.5" font-family="Helvetica,sans-Serif" font-size="10.00">+ _matrix_weight</text>
<text text-anchor="start" x="14.5" y="-208.5" font-family="Helvetica,sans-Serif" font-size="10.00">+ _arrayt_xt</text>
<text text-anchor="start" x="14.5" y="-197.5" font-family="Helvetica,sans-Serif" font-size="10.00">+ _arrayt_x</text>
<polyline fill="none" stroke="black" points="6.5,-190.5 129.5,-190.5 "/>
<text text-anchor="start" x="14.5" y="-178.5" font-family="Helvetica,sans-Serif" font-size="10.00">+ Induced()</text>
<text text-anchor="start" x="14.5" y="-167.5" font-family="Helvetica,sans-Serif" font-size="10.00">+ Induced()</text>
<text text-anchor="start" x="14.5" y="-156.5" font-family="Helvetica,sans-Serif" font-size="10.00">+ ~Induced()</text>
<text text-anchor="start" x="14.5" y="-145.5" font-family="Helvetica,sans-Serif" font-size="10.00">+ operator()()</text>
</a>
</g>
</g>
<!-- Node1&#45;&gt;Node0 -->
<g id="edge1" class="edge"><title>Node1&#45;&gt;Node0</title>
<path fill="none" stroke="midnightblue" d="M68,-128.289C68,-119.323 68,-110.301 68,-101.758"/>
<polygon fill="none" stroke="midnightblue" points="64.5001,-128.361 68,-138.361 71.5001,-128.361 64.5001,-128.361"/>
</g>
<!-- Node2 -->
<g id="node3" class="node"><title>Node2</title>
<g id="a_node3"><a xlink:href="structdist_1_1_dist.html" target="_top" xlink:title="Generic dist. ">
<polygon fill="white" stroke="black" points="16,-298.5 16,-377.5 120,-377.5 120,-298.5 16,-298.5"/>
<text text-anchor="start" x="24" y="-365.5" font-family="Helvetica,sans-Serif" font-size="10.00">dist::Dist&lt; T_DIST,</text>
<text text-anchor="middle" x="68" y="-354.5" font-family="Helvetica,sans-Serif" font-size="10.00"> T_FEATURE &gt;</text>
<polyline fill="none" stroke="black" points="16,-347.5 120,-347.5 "/>
<text text-anchor="middle" x="68" y="-335.5" font-family="Helvetica,sans-Serif" font-size="10.00"> </text>
<polyline fill="none" stroke="black" points="16,-328.5 120,-328.5 "/>
<text text-anchor="start" x="24" y="-316.5" font-family="Helvetica,sans-Serif" font-size="10.00">+ ~Dist()</text>
<text text-anchor="start" x="24" y="-305.5" font-family="Helvetica,sans-Serif" font-size="10.00">+ operator()()</text>
</a>
</g>
</g>
<!-- Node2&#45;&gt;Node1 -->
<g id="edge2" class="edge"><title>Node2&#45;&gt;Node1</title>
<path fill="none" stroke="midnightblue" d="M68,-288.144C68,-279.528 68,-270.465 68,-261.574"/>
<polygon fill="none" stroke="midnightblue" points="64.5001,-288.392 68,-298.392 71.5001,-288.392 64.5001,-288.392"/>
</g>
</g>
</svg>
