<?xml version="1.0" encoding="UTF-8" standalone="no"?>
<!DOCTYPE svg PUBLIC "-//W3C//DTD SVG 1.1//EN"
 "http://www.w3.org/Graphics/SVG/1.1/DTD/svg11.dtd">
<!-- Generated by graphviz version 2.38.0 (20140413.2041)
 -->
<!-- Title: dist::Induced&lt; T_DIST, T_FEATURE &gt; Pages: 1 -->
<!--zoomable 931 -->
<svg id="main" version="1.1" xmlns="http://www.w3.org/2000/svg" xmlns:xlink="http://www.w3.org/1999/xlink" xml:space="preserve" onload="init(evt)">
<style type="text/css"><![CDATA[
.edge:hover path { stroke: red; }
.edge:hover polygon { stroke: red; fill: red; }
]]></style>
<script type="text/javascript"><![CDATA[
var edges = document.getElementsByTagName('g');
if (edges && edges.length) {
  for (var i=0;i<edges.length;i++) {
    if (edges[i].id.substr(0,4)=='edge') {
      edges[i].setAttribute('class','edge');
    }
  }
}
]]></script>
        <defs>
                <circle id="rim" cx="0" cy="0" r="7"/>
                <circle id="rim2" cx="0" cy="0" r="3.5"/>
                <g id="zoomPlus">
                        <use xlink:href="#rim" fill="#404040">
                                <set attributeName="fill" to="#808080" begin="zoomplus.mouseover" end="zoomplus.mouseout"/>
                        </use>
                        <path d="M-4,0h8M0,-4v8" fill="none" stroke="white" stroke-width="1.5" pointer-events="none"/>
                </g>
                <g id="zoomMin">
                        <use xlink:href="#rim" fill="#404040">
                                <set attributeName="fill" to="#808080" begin="zoomminus.mouseover" end="zoomminus.mouseout"/>
                        </use>
                        <path d="M-4,0h8" fill="none" stroke="white" stroke-width="1.5" pointer-events="none"/>
                </g>
                <g id="dirArrow">
                        <path fill="none" stroke="white" stroke-width="1.5" d="M0,-3.0v7 M-2.5,-0.5L0,-3.0L2.5,-0.5"/>
                </g>
               <g id="resetDef">
                       <use xlink:href="#rim2" fill="#404040">
                               <set attributeName="fill" to="#808080" begin="reset.mouseover" end="reset.mouseout"/>
                       </use>
               </g>
        </defs>

<script type="text/javascript">
var viewWidth = 345;
var viewHeight = 931;
var sectionId = 'dynsection-1';
</script>
<script xlink:href="svgpan.js"/>
<svg id="graph" class="graph">
<g id="viewport">
<title>dist::Induced&lt; T_DIST, T_FEATURE &gt;</title>
<polygon fill="white" stroke="none" points="-4,4 -4,-927 340.5,-927 340.5,4 -4,4"/>
<!-- Node3 -->
<g id="node1" class="node"><title>Node3</title>
<polygon fill="#bfbfbf" stroke="black" points="33.5,-0.5 33.5,-112.5 156.5,-112.5 156.5,-0.5 33.5,-0.5"/>
<text text-anchor="start" x="41.5" y="-100.5" font-family="Helvetica,sans-Serif" font-size="10.00">dist::Induced&lt; T_DIST,</text>
<text text-anchor="middle" x="95" y="-89.5" font-family="Helvetica,sans-Serif" font-size="10.00"> T_FEATURE &gt;</text>
<polyline fill="none" stroke="black" points="33.5,-82.5 156.5,-82.5 "/>
<text text-anchor="start" x="41.5" y="-70.5" font-family="Helvetica,sans-Serif" font-size="10.00">+ _arrayt_xt</text>
<text text-anchor="start" x="41.5" y="-59.5" font-family="Helvetica,sans-Serif" font-size="10.00">+ _arrayt_x</text>
<polyline fill="none" stroke="black" points="33.5,-52.5 156.5,-52.5 "/>
<text text-anchor="start" x="41.5" y="-40.5" font-family="Helvetica,sans-Serif" font-size="10.00">+ Induced()</text>
<text text-anchor="start" x="41.5" y="-29.5" font-family="Helvetica,sans-Serif" font-size="10.00">+ Induced()</text>
<text text-anchor="start" x="41.5" y="-18.5" font-family="Helvetica,sans-Serif" font-size="10.00">+ ~Induced()</text>
<text text-anchor="start" x="41.5" y="-7.5" font-family="Helvetica,sans-Serif" font-size="10.00">+ operator()()</text>
</g>
<!-- Node4 -->
<g id="node2" class="node"><title>Node4</title>
<g id="a_node2"><a xlink:href="structdist_1_1_dist.html" target="_top" xlink:title="Generic dist. ">
<polygon fill="white" stroke="black" points="0,-210 0,-289 104,-289 104,-210 0,-210"/>
<text text-anchor="start" x="8" y="-277" font-family="Helvetica,sans-Serif" font-size="10.00">dist::Dist&lt; T_DIST,</text>
<text text-anchor="middle" x="52" y="-266" font-family="Helvetica,sans-Serif" font-size="10.00"> T_FEATURE &gt;</text>
<polyline fill="none" stroke="black" points="0,-259 104,-259 "/>
<text text-anchor="middle" x="52" y="-247" font-family="Helvetica,sans-Serif" font-size="10.00"> </text>
<polyline fill="none" stroke="black" points="0,-240 104,-240 "/>
<text text-anchor="start" x="8" y="-228" font-family="Helvetica,sans-Serif" font-size="10.00">+ ~Dist()</text>
<text text-anchor="start" x="8" y="-217" font-family="Helvetica,sans-Serif" font-size="10.00">+ operator()()</text>
</a>
</g>
</g>
<!-- Node4&#45;&gt;Node3 -->
<g id="edge1" class="edge"><title>Node4&#45;&gt;Node3</title>
<path fill="none" stroke="midnightblue" d="M62.9193,-199.998C68.9066,-173.403 76.3521,-140.332 82.5626,-112.745"/>
<polygon fill="none" stroke="midnightblue" points="59.4836,-199.324 60.7017,-209.848 66.3126,-200.861 59.4836,-199.324"/>
</g>
<!-- Node5 -->
<g id="node3" class="node"><title>Node5</title>
<g id="a_node3"><a xlink:href="classmat_1_1_matrix_row.html" target="_top" xlink:title="{mat::MatrixRow\&lt; T_DIST \&gt;\n|# _b_externalData\l# _arrayt_data\l|+ MatrixRow()\l+ MatrixRow()\l+ MatrixRow()\l+ MatrixRow()\l+ MatrixRow()\l+ MatrixRow()\l+ MatrixRow()\l+ ~MatrixRow()\l+ toArray()\l+ toArray()\land 21 more...\l}">
<polygon fill="white" stroke="black" points="122.5,-160.5 122.5,-338.5 263.5,-338.5 263.5,-160.5 122.5,-160.5"/>
<text text-anchor="middle" x="193" y="-326.5" font-family="Helvetica,sans-Serif" font-size="10.00">mat::MatrixRow&lt; T_DIST &gt;</text>
<polyline fill="none" stroke="black" points="122.5,-319.5 263.5,-319.5 "/>
<text text-anchor="start" x="130.5" y="-307.5" font-family="Helvetica,sans-Serif" font-size="10.00"># _b_externalData</text>
<text text-anchor="start" x="130.5" y="-296.5" font-family="Helvetica,sans-Serif" font-size="10.00"># _arrayt_data</text>
<polyline fill="none" stroke="black" points="122.5,-289.5 263.5,-289.5 "/>
<text text-anchor="start" x="130.5" y="-277.5" font-family="Helvetica,sans-Serif" font-size="10.00">+ MatrixRow()</text>
<text text-anchor="start" x="130.5" y="-266.5" font-family="Helvetica,sans-Serif" font-size="10.00">+ MatrixRow()</text>
<text text-anchor="start" x="130.5" y="-255.5" font-family="Helvetica,sans-Serif" font-size="10.00">+ MatrixRow()</text>
<text text-anchor="start" x="130.5" y="-244.5" font-family="Helvetica,sans-Serif" font-size="10.00">+ MatrixRow()</text>
<text text-anchor="start" x="130.5" y="-233.5" font-family="Helvetica,sans-Serif" font-size="10.00">+ MatrixRow()</text>
<text text-anchor="start" x="130.5" y="-222.5" font-family="Helvetica,sans-Serif" font-size="10.00">+ MatrixRow()</text>
<text text-anchor="start" x="130.5" y="-211.5" font-family="Helvetica,sans-Serif" font-size="10.00">+ MatrixRow()</text>
<text text-anchor="start" x="130.5" y="-200.5" font-family="Helvetica,sans-Serif" font-size="10.00">+ ~MatrixRow()</text>
<text text-anchor="start" x="130.5" y="-189.5" font-family="Helvetica,sans-Serif" font-size="10.00">+ toArray()</text>
<text text-anchor="start" x="130.5" y="-178.5" font-family="Helvetica,sans-Serif" font-size="10.00">+ toArray()</text>
<text text-anchor="start" x="130.5" y="-167.5" font-family="Helvetica,sans-Serif" font-size="10.00">and 21 more...</text>
</a>
</g>
</g>
<!-- Node5&#45;&gt;Node3 -->
<g id="edge2" class="edge"><title>Node5&#45;&gt;Node3</title>
<path fill="none" stroke="#404040" d="M147.729,-160.268C141.355,-147.845 134.897,-135.258 128.788,-123.352"/>
<polygon fill="none" stroke="#404040" points="128.767,-123.312 122.469,-119.799 123.289,-112.635 129.587,-116.147 128.767,-123.312"/>
<text text-anchor="middle" x="176" y="-134" font-family="Helvetica,sans-Serif" font-size="10.00"> +_matrix_weight</text>
</g>
<!-- Node6 -->
<g id="node4" class="node"><title>Node6</title>
<g id="a_node4"><a xlink:href="classmat_1_1_matrix_base.html" target="_top" xlink:title="{mat::MatrixBase\&lt; T\l_DIST \&gt;\n|# _ui_numRows\l# _ui_numColumns\l|+ MatrixBase()\l+ MatrixBase()\l+ MatrixBase()\l+ MatrixBase()\l+ MatrixBase()\l+ ~MatrixBase()\l+ getNumRows()\l+ getNumColumns()\l+ getNumElems()\l+ getRow()\l+ getRow()\l+ operator=()\l+ operator=()\l+ print()\l# _setNumRows()\l# _setNumColumns()\l}">
<polygon fill="white" stroke="black" points="45,-386.5 45,-630.5 155,-630.5 155,-386.5 45,-386.5"/>
<text text-anchor="start" x="53" y="-618.5" font-family="Helvetica,sans-Serif" font-size="10.00">mat::MatrixBase&lt; T</text>
<text text-anchor="middle" x="100" y="-607.5" font-family="Helvetica,sans-Serif" font-size="10.00">_DIST &gt;</text>
<polyline fill="none" stroke="black" points="45,-600.5 155,-600.5 "/>
<text text-anchor="start" x="53" y="-588.5" font-family="Helvetica,sans-Serif" font-size="10.00"># _ui_numRows</text>
<text text-anchor="start" x="53" y="-577.5" font-family="Helvetica,sans-Serif" font-size="10.00"># _ui_numColumns</text>
<polyline fill="none" stroke="black" points="45,-570.5 155,-570.5 "/>
<text text-anchor="start" x="53" y="-558.5" font-family="Helvetica,sans-Serif" font-size="10.00">+ MatrixBase()</text>
<text text-anchor="start" x="53" y="-547.5" font-family="Helvetica,sans-Serif" font-size="10.00">+ MatrixBase()</text>
<text text-anchor="start" x="53" y="-536.5" font-family="Helvetica,sans-Serif" font-size="10.00">+ MatrixBase()</text>
<text text-anchor="start" x="53" y="-525.5" font-family="Helvetica,sans-Serif" font-size="10.00">+ MatrixBase()</text>
<text text-anchor="start" x="53" y="-514.5" font-family="Helvetica,sans-Serif" font-size="10.00">+ MatrixBase()</text>
<text text-anchor="start" x="53" y="-503.5" font-family="Helvetica,sans-Serif" font-size="10.00">+ ~MatrixBase()</text>
<text text-anchor="start" x="53" y="-492.5" font-family="Helvetica,sans-Serif" font-size="10.00">+ getNumRows()</text>
<text text-anchor="start" x="53" y="-481.5" font-family="Helvetica,sans-Serif" font-size="10.00">+ getNumColumns()</text>
<text text-anchor="start" x="53" y="-470.5" font-family="Helvetica,sans-Serif" font-size="10.00">+ getNumElems()</text>
<text text-anchor="start" x="53" y="-459.5" font-family="Helvetica,sans-Serif" font-size="10.00">+ getRow()</text>
<text text-anchor="start" x="53" y="-448.5" font-family="Helvetica,sans-Serif" font-size="10.00">+ getRow()</text>
<text text-anchor="start" x="53" y="-437.5" font-family="Helvetica,sans-Serif" font-size="10.00">+ operator=()</text>
<text text-anchor="start" x="53" y="-426.5" font-family="Helvetica,sans-Serif" font-size="10.00">+ operator=()</text>
<text text-anchor="start" x="53" y="-415.5" font-family="Helvetica,sans-Serif" font-size="10.00">+ print()</text>
<text text-anchor="start" x="53" y="-404.5" font-family="Helvetica,sans-Serif" font-size="10.00"># _setNumRows()</text>
<text text-anchor="start" x="53" y="-393.5" font-family="Helvetica,sans-Serif" font-size="10.00"># _setNumColumns()</text>
</a>
</g>
</g>
<!-- Node6&#45;&gt;Node5 -->
<g id="edge3" class="edge"><title>Node6&#45;&gt;Node5</title>
<path fill="none" stroke="midnightblue" d="M147.442,-376.398C152.057,-363.644 156.66,-350.925 161.068,-338.742"/>
<polygon fill="none" stroke="midnightblue" points="144.024,-375.555 143.913,-386.15 150.607,-377.937 144.024,-375.555"/>
</g>
<!-- Node7 -->
<g id="node5" class="node"><title>Node7</title>
<g id="a_node5"><a xlink:href="classmat_1_1_matrix_base.html" target="_top" xlink:title="MatrixBase. ">
<polygon fill="white" stroke="black" points="78,-678.5 78,-922.5 188,-922.5 188,-678.5 78,-678.5"/>
<text text-anchor="start" x="86" y="-910.5" font-family="Helvetica,sans-Serif" font-size="10.00">mat::MatrixBase&lt; T</text>
<text text-anchor="middle" x="133" y="-899.5" font-family="Helvetica,sans-Serif" font-size="10.00">_FEATURE &gt;</text>
<polyline fill="none" stroke="black" points="78,-892.5 188,-892.5 "/>
<text text-anchor="start" x="86" y="-880.5" font-family="Helvetica,sans-Serif" font-size="10.00"># _ui_numRows</text>
<text text-anchor="start" x="86" y="-869.5" font-family="Helvetica,sans-Serif" font-size="10.00"># _ui_numColumns</text>
<polyline fill="none" stroke="black" points="78,-862.5 188,-862.5 "/>
<text text-anchor="start" x="86" y="-850.5" font-family="Helvetica,sans-Serif" font-size="10.00">+ MatrixBase()</text>
<text text-anchor="start" x="86" y="-839.5" font-family="Helvetica,sans-Serif" font-size="10.00">+ MatrixBase()</text>
<text text-anchor="start" x="86" y="-828.5" font-family="Helvetica,sans-Serif" font-size="10.00">+ MatrixBase()</text>
<text text-anchor="start" x="86" y="-817.5" font-family="Helvetica,sans-Serif" font-size="10.00">+ MatrixBase()</text>
<text text-anchor="start" x="86" y="-806.5" font-family="Helvetica,sans-Serif" font-size="10.00">+ MatrixBase()</text>
<text text-anchor="start" x="86" y="-795.5" font-family="Helvetica,sans-Serif" font-size="10.00">+ ~MatrixBase()</text>
<text text-anchor="start" x="86" y="-784.5" font-family="Helvetica,sans-Serif" font-size="10.00">+ getNumRows()</text>
<text text-anchor="start" x="86" y="-773.5" font-family="Helvetica,sans-Serif" font-size="10.00">+ getNumColumns()</text>
<text text-anchor="start" x="86" y="-762.5" font-family="Helvetica,sans-Serif" font-size="10.00">+ getNumElems()</text>
<text text-anchor="start" x="86" y="-751.5" font-family="Helvetica,sans-Serif" font-size="10.00">+ getRow()</text>
<text text-anchor="start" x="86" y="-740.5" font-family="Helvetica,sans-Serif" font-size="10.00">+ getRow()</text>
<text text-anchor="start" x="86" y="-729.5" font-family="Helvetica,sans-Serif" font-size="10.00">+ operator=()</text>
<text text-anchor="start" x="86" y="-718.5" font-family="Helvetica,sans-Serif" font-size="10.00">+ operator=()</text>
<text text-anchor="start" x="86" y="-707.5" font-family="Helvetica,sans-Serif" font-size="10.00">+ print()</text>
<text text-anchor="start" x="86" y="-696.5" font-family="Helvetica,sans-Serif" font-size="10.00"># _setNumRows()</text>
<text text-anchor="start" x="86" y="-685.5" font-family="Helvetica,sans-Serif" font-size="10.00"># _setNumColumns()</text>
</a>
</g>
</g>
<!-- Node7&#45;&gt;Node6 -->
<g id="edge4" class="edge"><title>Node7&#45;&gt;Node6</title>
<path fill="none" stroke="orange" d="M114.952,-668.166C114.627,-665.42 114.309,-662.696 114,-660 112.91,-650.484 111.846,-640.622 110.823,-630.707"/>
<polygon fill="orange" stroke="orange" points="111.488,-668.675 116.161,-678.184 118.438,-667.837 111.488,-668.675"/>
<text text-anchor="middle" x="143" y="-652" font-family="Helvetica,sans-Serif" font-size="10.00"> &lt; T_DIST &gt;</text>
</g>
<!-- Node8 -->
<g id="node6" class="node"><title>Node8</title>
<g id="a_node6"><a xlink:href="classmat_1_1_matrix_row.html" target="_top" xlink:title="Matrix store items for row. ">
<polygon fill="white" stroke="black" points="173.5,-425 173.5,-592 336.5,-592 336.5,-425 173.5,-425"/>
<text text-anchor="middle" x="255" y="-580" font-family="Helvetica,sans-Serif" font-size="10.00">mat::MatrixRow&lt; T_FEATURE &gt;</text>
<polyline fill="none" stroke="black" points="173.5,-573 336.5,-573 "/>
<text text-anchor="start" x="181.5" y="-561" font-family="Helvetica,sans-Serif" font-size="10.00"># _b_externalData</text>
<polyline fill="none" stroke="black" points="173.5,-554 336.5,-554 "/>
<text text-anchor="start" x="181.5" y="-542" font-family="Helvetica,sans-Serif" font-size="10.00">+ MatrixRow()</text>
<text text-anchor="start" x="181.5" y="-531" font-family="Helvetica,sans-Serif" font-size="10.00">+ MatrixRow()</text>
<text text-anchor="start" x="181.5" y="-520" font-family="Helvetica,sans-Serif" font-size="10.00">+ MatrixRow()</text>
<text text-anchor="start" x="181.5" y="-509" font-family="Helvetica,sans-Serif" font-size="10.00">+ MatrixRow()</text>
<text text-anchor="start" x="181.5" y="-498" font-family="Helvetica,sans-Serif" font-size="10.00">+ MatrixRow()</text>
<text text-anchor="start" x="181.5" y="-487" font-family="Helvetica,sans-Serif" font-size="10.00">+ MatrixRow()</text>
<text text-anchor="start" x="181.5" y="-476" font-family="Helvetica,sans-Serif" font-size="10.00">+ MatrixRow()</text>
<text text-anchor="start" x="181.5" y="-465" font-family="Helvetica,sans-Serif" font-size="10.00">+ ~MatrixRow()</text>
<text text-anchor="start" x="181.5" y="-454" font-family="Helvetica,sans-Serif" font-size="10.00">+ toArray()</text>
<text text-anchor="start" x="181.5" y="-443" font-family="Helvetica,sans-Serif" font-size="10.00">+ toArray()</text>
<text text-anchor="start" x="181.5" y="-432" font-family="Helvetica,sans-Serif" font-size="10.00">and 21 more...</text>
</a>
</g>
</g>
<!-- Node7&#45;&gt;Node8 -->
<g id="edge6" class="edge"><title>Node7&#45;&gt;Node8</title>
<path fill="none" stroke="midnightblue" d="M187.911,-668.973C198.917,-642.812 210.19,-616.017 220.277,-592.039"/>
<polygon fill="none" stroke="midnightblue" points="184.684,-667.619 184.032,-678.194 191.136,-670.334 184.684,-667.619"/>
</g>
<!-- Node8&#45;&gt;Node5 -->
<g id="edge5" class="edge"><title>Node8&#45;&gt;Node5</title>
<path fill="none" stroke="orange" d="M232.685,-415C226.698,-390.186 220.242,-363.423 214.312,-338.841"/>
<polygon fill="orange" stroke="orange" points="229.294,-415.869 235.042,-424.769 236.099,-414.227 229.294,-415.869"/>
<text text-anchor="middle" x="249" y="-360" font-family="Helvetica,sans-Serif" font-size="10.00"> &lt; T_DIST &gt;</text>
</g>
<!-- Node9 -->
<g id="node7" class="node"><title>Node9</title>
<polygon fill="white" stroke="#bfbfbf" points="217.5,-772 217.5,-829 292.5,-829 292.5,-772 217.5,-772"/>
<text text-anchor="middle" x="255" y="-817" font-family="Helvetica,sans-Serif" font-size="10.00">T_FEATURE</text>
<polyline fill="none" stroke="#bfbfbf" points="217.5,-810 292.5,-810 "/>
<text text-anchor="middle" x="255" y="-798" font-family="Helvetica,sans-Serif" font-size="10.00"> </text>
<polyline fill="none" stroke="#bfbfbf" points="217.5,-791 292.5,-791 "/>
<text text-anchor="middle" x="255" y="-779" font-family="Helvetica,sans-Serif" font-size="10.00"> </text>
</g>
<!-- Node9&#45;&gt;Node8 -->
<g id="edge7" class="edge"><title>Node9&#45;&gt;Node8</title>
<path fill="none" stroke="#404040" d="M255,-771.956C255,-733.809 255,-662.984 255,-604.514"/>
<polygon fill="none" stroke="#404040" points="255,-604.241 251,-598.241 255,-592.241 259,-598.241 255,-604.241"/>
<text text-anchor="middle" x="287.5" y="-652" font-family="Helvetica,sans-Serif" font-size="10.00"> #_arrayt_data</text>
</g>
</g>
</svg>
        <g id="navigator" transform="translate(0 0)" fill="#404254">
                <rect fill="#f2f5e9" fill-opacity="0.5" stroke="#606060" stroke-width=".5" x="0" y="0" width="60" height="60"/>
                <use id="zoomplus" xlink:href="#zoomPlus" x="17" y="9" onmousedown="handleZoom(evt,'in')"/>
                <use id="zoomminus" xlink:href="#zoomMin" x="42" y="9" onmousedown="handleZoom(evt,'out')"/>
                <use id="reset" xlink:href="#resetDef" x="30" y="36" onmousedown="handleReset()"/>
                <g id="arrowUp" xlink:href="#dirArrow" transform="translate(30 24)" onmousedown="handlePan(0,-1)">
                  <use xlink:href="#rim" fill="#404040">
                        <set attributeName="fill" to="#808080" begin="arrowUp.mouseover" end="arrowUp.mouseout"/>
                  </use>
                  <path fill="none" stroke="white" stroke-width="1.5" d="M0,-3.0v7 M-2.5,-0.5L0,-3.0L2.5,-0.5"/>
                </g>
                <g id="arrowRight" xlink:href="#dirArrow" transform="rotate(90) translate(36 -43)" onmousedown="handlePan(1,0)">
                  <use xlink:href="#rim" fill="#404040">
                        <set attributeName="fill" to="#808080" begin="arrowRight.mouseover" end="arrowRight.mouseout"/>
                  </use>
                  <path fill="none" stroke="white" stroke-width="1.5" d="M0,-3.0v7 M-2.5,-0.5L0,-3.0L2.5,-0.5"/>
                </g>
                <g id="arrowDown" xlink:href="#dirArrow" transform="rotate(180) translate(-30 -48)" onmousedown="handlePan(0,1)">
                  <use xlink:href="#rim" fill="#404040">
                        <set attributeName="fill" to="#808080" begin="arrowDown.mouseover" end="arrowDown.mouseout"/>
                  </use>
                  <path fill="none" stroke="white" stroke-width="1.5" d="M0,-3.0v7 M-2.5,-0.5L0,-3.0L2.5,-0.5"/>
                </g>
                <g id="arrowLeft" xlink:href="#dirArrow" transform="rotate(270) translate(-36 17)" onmousedown="handlePan(-1,0)">
                  <use xlink:href="#rim" fill="#404040">
                        <set attributeName="fill" to="#808080" begin="arrowLeft.mouseover" end="arrowLeft.mouseout"/>
                  </use>
                  <path fill="none" stroke="white" stroke-width="1.5" d="M0,-3.0v7 M-2.5,-0.5L0,-3.0L2.5,-0.5"/>
                </g>
        </g>
        <svg viewBox="0 0 15 15" width="100%" height="30px" preserveAspectRatio="xMaxYMin meet">
         <g id="arrow_out" transform="scale(0.3 0.3)">
          <a xlink:href="structdist_1_1_induced__coll__graph_org.svg" target="_base">
           <rect id="button" ry="5" rx="5" y="6" x="6" height="38" width="38"
                fill="#f2f5e9" fill-opacity="0.5" stroke="#606060" stroke-width="1.0"/>
           <path id="arrow"
             d="M 11.500037,31.436501 C 11.940474,20.09759 22.043105,11.32322 32.158766,21.979434 L 37.068811,17.246167 C 37.068811,17.246167 37.088388,32 37.088388,32 L 22.160133,31.978069 C 22.160133,31.978069 26.997745,27.140456 26.997745,27.140456 C 18.528582,18.264221 13.291696,25.230495 11.500037,31.436501 z"
             style="fill:#404040;"/>
          </a>
         </g>
        </svg>
</svg>
