<?xml version="1.0" encoding="UTF-8" standalone="no"?>
<!DOCTYPE svg PUBLIC "-//W3C//DTD SVG 1.1//EN"
 "http://www.w3.org/Graphics/SVG/1.1/DTD/svg11.dtd">
<!-- Generated by graphviz version 2.38.0 (20140413.2041)
 -->
<!-- Title: include/supervised_measures.hpp Pages: 1 -->
<svg width="1150pt" height="319pt"
 viewBox="0.00 0.00 1150.00 319.00" xmlns="http://www.w3.org/2000/svg" xmlns:xlink="http://www.w3.org/1999/xlink">
<g id="graph0" class="graph" transform="scale(1 1) rotate(0) translate(4 315)">
<title>include/supervised_measures.hpp</title>
<polygon fill="white" stroke="none" points="-4,4 -4,-315 1146,-315 1146,4 -4,4"/>
<!-- Node0 -->
<g id="node1" class="node"><title>Node0</title>
<g id="a_node1"><a xlink:title="Supervised measures.">
<polygon fill="#bfbfbf" stroke="black" points="728.5,-280.5 728.5,-310.5 829.5,-310.5 829.5,-280.5 728.5,-280.5"/>
<text text-anchor="start" x="736.5" y="-298.5" font-family="Helvetica,sans-Serif" font-size="10.00">include/supervised</text>
<text text-anchor="middle" x="779" y="-287.5" font-family="Helvetica,sans-Serif" font-size="10.00">_measures.hpp</text>
</a>
</g>
</g>
<!-- Node1 -->
<g id="node2" class="node"><title>Node1</title>
<g id="a_node2"><a xlink:href="matching__matrix_8hpp.html" target="_top" xlink:title="matching matrix">
<polygon fill="white" stroke="black" points="362.5,-224.5 362.5,-243.5 469.5,-243.5 469.5,-224.5 362.5,-224.5"/>
<text text-anchor="middle" x="416" y="-231.5" font-family="Helvetica,sans-Serif" font-size="10.00">matching_matrix.hpp</text>
</a>
</g>
</g>
<!-- Node0&#45;&gt;Node1 -->
<g id="edge1" class="edge"><title>Node0&#45;&gt;Node1</title>
<path fill="none" stroke="midnightblue" d="M728.144,-286.164C662.588,-275.419 548.658,-256.744 478.069,-245.174"/>
<polygon fill="midnightblue" stroke="midnightblue" points="478.414,-241.684 467.979,-243.52 477.281,-248.592 478.414,-241.684"/>
</g>
<!-- Node18 -->
<g id="node19" class="node"><title>Node18</title>
<g id="a_node19"><a xlink:href="verbose__global_8hpp.html" target="_top" xlink:title="verbose global">
<polygon fill="white" stroke="black" points="1038,-56.5 1038,-75.5 1142,-75.5 1142,-56.5 1038,-56.5"/>
<text text-anchor="middle" x="1090" y="-63.5" font-family="Helvetica,sans-Serif" font-size="10.00">verbose_global.hpp</text>
</a>
</g>
</g>
<!-- Node0&#45;&gt;Node18 -->
<g id="edge54" class="edge"><title>Node0&#45;&gt;Node18</title>
<path fill="none" stroke="midnightblue" d="M798.454,-280.269C854.12,-239.549 1013.65,-122.853 1069.99,-81.6352"/>
<polygon fill="midnightblue" stroke="midnightblue" points="1072.11,-84.4202 1078.12,-75.6912 1067.98,-78.7704 1072.11,-84.4202"/>
</g>
<!-- Node2 -->
<g id="node3" class="node"><title>Node2</title>
<g id="a_node3"><a xlink:title=" ">
<polygon fill="white" stroke="#bfbfbf" points="960,-56.5 960,-75.5 1020,-75.5 1020,-56.5 960,-56.5"/>
<text text-anchor="middle" x="990" y="-63.5" font-family="Helvetica,sans-Serif" font-size="10.00">stdexcept</text>
</a>
</g>
</g>
<!-- Node1&#45;&gt;Node2 -->
<g id="edge2" class="edge"><title>Node1&#45;&gt;Node2</title>
<path fill="none" stroke="midnightblue" d="M469.746,-227.844C587.536,-215.731 864.128,-182.606 942,-132 959.776,-120.448 973.292,-99.883 981.383,-84.9722"/>
<polygon fill="midnightblue" stroke="midnightblue" points="984.671,-86.2304 986.103,-75.7329 978.437,-83.0456 984.671,-86.2304"/>
</g>
<!-- Node3 -->
<g id="node4" class="node"><title>Node3</title>
<g id="a_node4"><a xlink:title=" ">
<polygon fill="white" stroke="#bfbfbf" points="388,-56.5 388,-75.5 444,-75.5 444,-56.5 388,-56.5"/>
<text text-anchor="middle" x="416" y="-63.5" font-family="Helvetica,sans-Serif" font-size="10.00">iostream</text>
</a>
</g>
</g>
<!-- Node1&#45;&gt;Node3 -->
<g id="edge3" class="edge"><title>Node1&#45;&gt;Node3</title>
<path fill="none" stroke="midnightblue" d="M400.217,-224.467C387.797,-216.769 371.395,-204.179 364,-188 349.958,-157.279 349.958,-142.721 364,-112 369.777,-99.3602 381.052,-88.911 391.631,-81.2737"/>
<polygon fill="midnightblue" stroke="midnightblue" points="393.849,-84.0009 400.217,-75.5333 389.958,-78.1817 393.849,-84.0009"/>
</g>
<!-- Node4 -->
<g id="node5" class="node"><title>Node4</title>
<g id="a_node5"><a xlink:title=" ">
<polygon fill="white" stroke="#bfbfbf" points="464.5,-56.5 464.5,-75.5 517.5,-75.5 517.5,-56.5 464.5,-56.5"/>
<text text-anchor="middle" x="491" y="-63.5" font-family="Helvetica,sans-Serif" font-size="10.00">sstream</text>
</a>
</g>
</g>
<!-- Node1&#45;&gt;Node4 -->
<g id="edge4" class="edge"><title>Node1&#45;&gt;Node4</title>
<path fill="none" stroke="midnightblue" d="M415.874,-224.435C415.936,-203.69 418.33,-149.689 440,-112 446.989,-99.844 458.468,-89.2827 468.768,-81.4524"/>
<polygon fill="midnightblue" stroke="midnightblue" points="470.927,-84.2113 477.017,-75.5421 466.85,-78.5209 470.927,-84.2113"/>
</g>
<!-- Node5 -->
<g id="node6" class="node"><title>Node5</title>
<g id="a_node6"><a xlink:title=" ">
<polygon fill="white" stroke="#bfbfbf" points="253,-56.5 253,-75.5 303,-75.5 303,-56.5 253,-56.5"/>
<text text-anchor="middle" x="278" y="-63.5" font-family="Helvetica,sans-Serif" font-size="10.00">fstream</text>
</a>
</g>
</g>
<!-- Node1&#45;&gt;Node5 -->
<g id="edge5" class="edge"><title>Node1&#45;&gt;Node5</title>
<path fill="none" stroke="midnightblue" d="M373.794,-224.425C328.426,-212.579 259.282,-186.203 233,-132 224.057,-113.556 240.863,-94.5105 256.419,-81.8421"/>
<polygon fill="midnightblue" stroke="midnightblue" points="258.915,-84.3409 264.761,-75.5045 254.681,-78.767 258.915,-84.3409"/>
</g>
<!-- Node6 -->
<g id="node7" class="node"><title>Node6</title>
<g id="a_node7"><a xlink:title=" ">
<polygon fill="white" stroke="#bfbfbf" points="193.5,-56.5 193.5,-75.5 234.5,-75.5 234.5,-56.5 193.5,-56.5"/>
<text text-anchor="middle" x="214" y="-63.5" font-family="Helvetica,sans-Serif" font-size="10.00">string</text>
</a>
</g>
</g>
<!-- Node1&#45;&gt;Node6 -->
<g id="edge6" class="edge"><title>Node1&#45;&gt;Node6</title>
<path fill="none" stroke="midnightblue" d="M362.18,-227.799C261.428,-216.832 50.5722,-187.641 7,-132 1.51959,-125.002 1.42202,-118.921 7,-112 12.5558,-105.107 126.904,-83.1173 183.212,-72.6465"/>
<polygon fill="midnightblue" stroke="midnightblue" points="184.136,-76.0351 193.331,-70.7727 182.861,-69.1521 184.136,-76.0351"/>
</g>
<!-- Node7 -->
<g id="node8" class="node"><title>Node7</title>
<g id="a_node8"><a xlink:title=" ">
<polygon fill="white" stroke="#bfbfbf" points="536,-56.5 536,-75.5 580,-75.5 580,-56.5 536,-56.5"/>
<text text-anchor="middle" x="558" y="-63.5" font-family="Helvetica,sans-Serif" font-size="10.00">vector</text>
</a>
</g>
</g>
<!-- Node1&#45;&gt;Node7 -->
<g id="edge7" class="edge"><title>Node1&#45;&gt;Node7</title>
<path fill="none" stroke="midnightblue" d="M422.061,-224.455C436.565,-204.2 474.767,-151.972 511,-112 520.389,-101.642 531.683,-90.783 540.847,-82.3275"/>
<polygon fill="midnightblue" stroke="midnightblue" points="543.211,-84.9084 548.25,-75.5886 538.499,-79.7319 543.211,-84.9084"/>
</g>
<!-- Node8 -->
<g id="node9" class="node"><title>Node8</title>
<g id="a_node9"><a xlink:href="matrix_8hpp.html" target="_top" xlink:title="matrix">
<polygon fill="white" stroke="black" points="618,-168.5 618,-187.5 680,-187.5 680,-168.5 618,-168.5"/>
<text text-anchor="middle" x="649" y="-175.5" font-family="Helvetica,sans-Serif" font-size="10.00">matrix.hpp</text>
</a>
</g>
</g>
<!-- Node1&#45;&gt;Node8 -->
<g id="edge8" class="edge"><title>Node1&#45;&gt;Node8</title>
<path fill="none" stroke="midnightblue" d="M452.92,-224.444C495.181,-214.649 564.206,-198.652 608.076,-188.484"/>
<polygon fill="midnightblue" stroke="midnightblue" points="608.894,-191.888 617.846,-186.22 607.314,-185.069 608.894,-191.888"/>
</g>
<!-- Node1&#45;&gt;Node18 -->
<g id="edge53" class="edge"><title>Node1&#45;&gt;Node18</title>
<path fill="none" stroke="midnightblue" d="M469.584,-231.16C547.167,-227.56 694.864,-217.182 817,-188 886.213,-171.463 902.074,-161.129 967,-132 1002.41,-116.115 1041.82,-94.5653 1066.26,-80.7188"/>
<polygon fill="midnightblue" stroke="midnightblue" points="1068.21,-83.6381 1075.16,-75.6432 1064.74,-77.5576 1068.21,-83.6381"/>
</g>
<!-- Node25 -->
<g id="node26" class="node"><title>Node25</title>
<g id="a_node26"><a xlink:href="partition_8hpp.html" target="_top" xlink:title="partition">
<polygon fill="white" stroke="black" points="242.5,-112.5 242.5,-131.5 311.5,-131.5 311.5,-112.5 242.5,-112.5"/>
<text text-anchor="middle" x="277" y="-119.5" font-family="Helvetica,sans-Serif" font-size="10.00">partition.hpp</text>
</a>
</g>
</g>
<!-- Node1&#45;&gt;Node25 -->
<g id="edge48" class="edge"><title>Node1&#45;&gt;Node25</title>
<path fill="none" stroke="midnightblue" d="M391.68,-224.409C372.482,-216.829 345.736,-204.43 326,-188 309.763,-174.483 295.779,-154.586 286.955,-140.37"/>
<polygon fill="midnightblue" stroke="midnightblue" points="289.839,-138.374 281.705,-131.585 283.83,-141.964 289.839,-138.374"/>
</g>
<!-- Node8&#45;&gt;Node2 -->
<g id="edge13" class="edge"><title>Node8&#45;&gt;Node2</title>
<path fill="none" stroke="midnightblue" d="M680.098,-176.829C730.931,-175.448 833.968,-167.986 912,-132 937.121,-120.415 960.755,-98.6061 975.285,-83.4624"/>
<polygon fill="midnightblue" stroke="midnightblue" points="978.125,-85.5485 982.372,-75.8422 972.999,-80.7813 978.125,-85.5485"/>
</g>
<!-- Node8&#45;&gt;Node3 -->
<g id="edge9" class="edge"><title>Node8&#45;&gt;Node3</title>
<path fill="none" stroke="midnightblue" d="M617.728,-171.581C585.797,-165.199 535.453,-152.75 496,-132 471.411,-119.068 447.224,-97.9153 431.994,-83.2692"/>
<polygon fill="midnightblue" stroke="midnightblue" points="434.089,-80.4201 424.509,-75.8954 429.177,-85.4068 434.089,-80.4201"/>
</g>
<!-- Node8&#45;&gt;Node4 -->
<g id="edge10" class="edge"><title>Node8&#45;&gt;Node4</title>
<path fill="none" stroke="midnightblue" d="M617.845,-174.959C586.696,-171.268 539.448,-160.927 511,-132 498.98,-119.778 494.161,-100.512 492.242,-86.1232"/>
<polygon fill="midnightblue" stroke="midnightblue" points="495.695,-85.4704 491.241,-75.8569 488.728,-86.1492 495.695,-85.4704"/>
</g>
<!-- Node8&#45;&gt;Node6 -->
<g id="edge16" class="edge"><title>Node8&#45;&gt;Node6</title>
<path fill="none" stroke="midnightblue" d="M617.68,-175.598C525.933,-171.219 262.38,-156.6 233,-132 219.639,-120.813 215.381,-100.791 214.163,-85.9145"/>
<polygon fill="midnightblue" stroke="midnightblue" points="217.653,-85.6124 213.724,-75.773 210.66,-85.915 217.653,-85.6124"/>
</g>
<!-- Node8&#45;&gt;Node7 -->
<g id="edge18" class="edge"><title>Node8&#45;&gt;Node7</title>
<path fill="none" stroke="midnightblue" d="M643.303,-168.284C634.825,-155.517 618.15,-131.17 602,-112 593.376,-101.764 582.931,-91.0197 574.381,-82.598"/>
<polygon fill="midnightblue" stroke="midnightblue" points="576.783,-80.0516 567.17,-75.5978 571.908,-85.0744 576.783,-80.0516"/>
</g>
<!-- Node9 -->
<g id="node10" class="node"><title>Node9</title>
<g id="a_node10"><a xlink:title=" ">
<polygon fill="white" stroke="#bfbfbf" points="650,-112.5 650,-131.5 702,-131.5 702,-112.5 650,-112.5"/>
<text text-anchor="middle" x="676" y="-119.5" font-family="Helvetica,sans-Serif" font-size="10.00">iomanip</text>
</a>
</g>
</g>
<!-- Node8&#45;&gt;Node9 -->
<g id="edge11" class="edge"><title>Node8&#45;&gt;Node9</title>
<path fill="none" stroke="midnightblue" d="M653.459,-168.083C657.154,-160.691 662.523,-149.953 667.094,-140.811"/>
<polygon fill="midnightblue" stroke="midnightblue" points="670.283,-142.261 671.624,-131.751 664.022,-139.13 670.283,-142.261"/>
</g>
<!-- Node10 -->
<g id="node11" class="node"><title>Node10</title>
<g id="a_node11"><a xlink:title=" ">
<polygon fill="white" stroke="#bfbfbf" points="700.5,-56.5 700.5,-75.5 751.5,-75.5 751.5,-56.5 700.5,-56.5"/>
<text text-anchor="middle" x="726" y="-63.5" font-family="Helvetica,sans-Serif" font-size="10.00">typeinfo</text>
</a>
</g>
</g>
<!-- Node8&#45;&gt;Node10 -->
<g id="edge12" class="edge"><title>Node8&#45;&gt;Node10</title>
<path fill="none" stroke="midnightblue" d="M666.991,-168.494C681.108,-160.888 700.132,-148.412 711,-132 720.092,-118.27 723.711,-99.7399 725.133,-85.9774"/>
<polygon fill="midnightblue" stroke="midnightblue" points="728.642,-85.9772 725.882,-75.7483 721.661,-85.466 728.642,-85.9772"/>
</g>
<!-- Node11 -->
<g id="node12" class="node"><title>Node11</title>
<g id="a_node12"><a xlink:title=" ">
<polygon fill="white" stroke="#bfbfbf" points="836,-56.5 836,-75.5 874,-75.5 874,-56.5 836,-56.5"/>
<text text-anchor="middle" x="855" y="-63.5" font-family="Helvetica,sans-Serif" font-size="10.00">utility</text>
</a>
</g>
</g>
<!-- Node8&#45;&gt;Node11 -->
<g id="edge14" class="edge"><title>Node8&#45;&gt;Node11</title>
<path fill="none" stroke="midnightblue" d="M680.347,-175.438C736.12,-171.931 848.997,-161.305 873,-132 884.199,-118.327 875.935,-98.1816 867.265,-83.9489"/>
<polygon fill="midnightblue" stroke="midnightblue" points="870.156,-81.9745 861.71,-75.5773 864.323,-85.8449 870.156,-81.9745"/>
</g>
<!-- Node12 -->
<g id="node13" class="node"><title>Node12</title>
<g id="a_node13"><a xlink:title=" ">
<polygon fill="white" stroke="#bfbfbf" points="892,-56.5 892,-75.5 942,-75.5 942,-56.5 892,-56.5"/>
<text text-anchor="middle" x="917" y="-63.5" font-family="Helvetica,sans-Serif" font-size="10.00">cassert</text>
</a>
</g>
</g>
<!-- Node8&#45;&gt;Node12 -->
<g id="edge15" class="edge"><title>Node8&#45;&gt;Node12</title>
<path fill="none" stroke="midnightblue" d="M680.252,-174.827C737.938,-170.237 858.167,-157.787 890,-132 904.073,-120.6 910.901,-100.611 914.156,-85.8011"/>
<polygon fill="midnightblue" stroke="midnightblue" points="917.645,-86.1808 916.009,-75.713 910.76,-84.916 917.645,-86.1808"/>
</g>
<!-- Node13 -->
<g id="node14" class="node"><title>Node13</title>
<g id="a_node14"><a xlink:title=" ">
<polygon fill="white" stroke="#bfbfbf" points="770,-56.5 770,-75.5 818,-75.5 818,-56.5 770,-56.5"/>
<text text-anchor="middle" x="794" y="-63.5" font-family="Helvetica,sans-Serif" font-size="10.00">string.h</text>
</a>
</g>
</g>
<!-- Node8&#45;&gt;Node13 -->
<g id="edge17" class="edge"><title>Node8&#45;&gt;Node13</title>
<path fill="none" stroke="midnightblue" d="M680.048,-174.893C732.298,-170.63 834.249,-158.988 856,-132 871.292,-113.027 844.817,-92.9985 821.865,-80.272"/>
<polygon fill="midnightblue" stroke="midnightblue" points="823.496,-77.1752 813.017,-75.6095 820.232,-83.3679 823.496,-77.1752"/>
</g>
<!-- Node14 -->
<g id="node15" class="node"><title>Node14</title>
<g id="a_node15"><a xlink:href="matrix__base_8hpp.html" target="_top" xlink:title="matrix base">
<polygon fill="white" stroke="black" points="758.5,-112.5 758.5,-131.5 847.5,-131.5 847.5,-112.5 758.5,-112.5"/>
<text text-anchor="middle" x="803" y="-119.5" font-family="Helvetica,sans-Serif" font-size="10.00">matrix_base.hpp</text>
</a>
</g>
</g>
<!-- Node8&#45;&gt;Node14 -->
<g id="edge19" class="edge"><title>Node8&#45;&gt;Node14</title>
<path fill="none" stroke="midnightblue" d="M673.402,-168.444C699.197,-159.399 740.077,-145.064 769.018,-134.916"/>
<polygon fill="midnightblue" stroke="midnightblue" points="770.434,-138.128 778.712,-131.516 768.118,-131.523 770.434,-138.128"/>
</g>
<!-- Node19 -->
<g id="node20" class="node"><title>Node19</title>
<g id="a_node20"><a xlink:href="linear__algebra__level1_8hpp.html" target="_top" xlink:title="linear algebra level1">
<polygon fill="white" stroke="black" points="16,-112.5 16,-131.5 148,-131.5 148,-112.5 16,-112.5"/>
<text text-anchor="middle" x="82" y="-119.5" font-family="Helvetica,sans-Serif" font-size="10.00">linear_algebra_level1.hpp</text>
</a>
</g>
</g>
<!-- Node8&#45;&gt;Node19 -->
<g id="edge32" class="edge"><title>Node8&#45;&gt;Node19</title>
<path fill="none" stroke="midnightblue" d="M617.708,-174.02C530.684,-165.732 283.941,-142.232 157.993,-130.237"/>
<polygon fill="midnightblue" stroke="midnightblue" points="158.319,-126.753 148.032,-129.289 157.655,-133.721 158.319,-126.753"/>
</g>
<!-- Node24 -->
<g id="node25" class="node"><title>Node24</title>
<g id="a_node25"><a xlink:href="line__split_8hpp.html" target="_top" xlink:title="line split">
<polygon fill="white" stroke="black" points="520.5,-112.5 520.5,-131.5 593.5,-131.5 593.5,-112.5 520.5,-112.5"/>
<text text-anchor="middle" x="557" y="-119.5" font-family="Helvetica,sans-Serif" font-size="10.00">line_split.hpp</text>
</a>
</g>
</g>
<!-- Node8&#45;&gt;Node24 -->
<g id="edge38" class="edge"><title>Node8&#45;&gt;Node24</title>
<path fill="none" stroke="midnightblue" d="M634.219,-168.324C619.733,-159.822 597.427,-146.729 580.507,-136.797"/>
<polygon fill="midnightblue" stroke="midnightblue" points="582.141,-133.698 571.745,-131.655 578.597,-139.735 582.141,-133.698"/>
</g>
<!-- Node14&#45;&gt;Node2 -->
<g id="edge23" class="edge"><title>Node14&#45;&gt;Node2</title>
<path fill="none" stroke="midnightblue" d="M832.631,-112.444C864.5,-103.241 915.333,-88.5617 950.564,-78.3879"/>
<polygon fill="midnightblue" stroke="midnightblue" points="951.872,-81.6534 960.508,-75.5164 949.929,-74.9282 951.872,-81.6534"/>
</g>
<!-- Node14&#45;&gt;Node3 -->
<g id="edge20" class="edge"><title>Node14&#45;&gt;Node3</title>
<path fill="none" stroke="midnightblue" d="M758.289,-116.638C691.841,-109.836 563.229,-95.437 455,-76 454.667,-75.9401 454.332,-75.8793 453.996,-75.8175"/>
<polygon fill="midnightblue" stroke="midnightblue" points="454.545,-72.3579 444.051,-73.8201 453.166,-79.2208 454.545,-72.3579"/>
</g>
<!-- Node14&#45;&gt;Node4 -->
<g id="edge21" class="edge"><title>Node14&#45;&gt;Node4</title>
<path fill="none" stroke="midnightblue" d="M758.334,-114.887C705.559,-107.405 614.921,-93.7456 527.496,-75.9514"/>
<polygon fill="midnightblue" stroke="midnightblue" points="528.18,-72.5189 517.68,-73.9329 526.77,-79.3754 528.18,-72.5189"/>
</g>
<!-- Node14&#45;&gt;Node7 -->
<g id="edge27" class="edge"><title>Node14&#45;&gt;Node7</title>
<path fill="none" stroke="midnightblue" d="M758.1,-112.58C716.765,-104.6 653.558,-91.8228 590.073,-76.1303"/>
<polygon fill="midnightblue" stroke="midnightblue" points="590.846,-72.7161 580.297,-73.6908 589.152,-79.5078 590.846,-72.7161"/>
</g>
<!-- Node14&#45;&gt;Node10 -->
<g id="edge22" class="edge"><title>Node14&#45;&gt;Node10</title>
<path fill="none" stroke="midnightblue" d="M790.629,-112.324C778.842,-104.058 760.868,-91.4527 746.864,-81.6322"/>
<polygon fill="midnightblue" stroke="midnightblue" points="748.538,-78.5307 738.341,-75.6545 744.518,-84.2619 748.538,-78.5307"/>
</g>
<!-- Node14&#45;&gt;Node11 -->
<g id="edge24" class="edge"><title>Node14&#45;&gt;Node11</title>
<path fill="none" stroke="midnightblue" d="M811.587,-112.083C819.159,-104.22 830.378,-92.5688 839.514,-83.0813"/>
<polygon fill="midnightblue" stroke="midnightblue" points="842.158,-85.3821 846.573,-75.7511 837.115,-80.5266 842.158,-85.3821"/>
</g>
<!-- Node14&#45;&gt;Node12 -->
<g id="edge25" class="edge"><title>Node14&#45;&gt;Node12</title>
<path fill="none" stroke="midnightblue" d="M821.064,-112.444C839.575,-103.675 868.581,-89.9355 889.855,-79.8579"/>
<polygon fill="midnightblue" stroke="midnightblue" points="891.482,-82.9604 899.021,-75.5164 888.485,-76.6343 891.482,-82.9604"/>
</g>
<!-- Node14&#45;&gt;Node13 -->
<g id="edge26" class="edge"><title>Node14&#45;&gt;Node13</title>
<path fill="none" stroke="midnightblue" d="M801.514,-112.083C800.321,-104.927 798.606,-94.6353 797.115,-85.6911"/>
<polygon fill="midnightblue" stroke="midnightblue" points="800.555,-85.0396 795.459,-75.7511 793.65,-86.1904 800.555,-85.0396"/>
</g>
<!-- Node15 -->
<g id="node16" class="node"><title>Node15</title>
<g id="a_node16"><a xlink:href="common_8hpp.html" target="_top" xlink:title="common">
<polygon fill="white" stroke="black" points="598,-56.5 598,-75.5 672,-75.5 672,-56.5 598,-56.5"/>
<text text-anchor="middle" x="635" y="-63.5" font-family="Helvetica,sans-Serif" font-size="10.00">common.hpp</text>
</a>
</g>
</g>
<!-- Node14&#45;&gt;Node15 -->
<g id="edge28" class="edge"><title>Node14&#45;&gt;Node15</title>
<path fill="none" stroke="midnightblue" d="M776.38,-112.444C747.994,-103.32 702.863,-88.8133 671.247,-78.6509"/>
<polygon fill="midnightblue" stroke="midnightblue" points="672.087,-75.2445 661.496,-75.5164 669.945,-81.9087 672.087,-75.2445"/>
</g>
<!-- Node14&#45;&gt;Node18 -->
<g id="edge31" class="edge"><title>Node14&#45;&gt;Node18</title>
<path fill="none" stroke="midnightblue" d="M847.529,-112.622C897.924,-103.14 980.072,-87.6834 1034.58,-77.4282"/>
<polygon fill="midnightblue" stroke="midnightblue" points="1035.24,-80.8653 1044.42,-75.5765 1033.94,-73.986 1035.24,-80.8653"/>
</g>
<!-- Node16 -->
<g id="node17" class="node"><title>Node16</title>
<g id="a_node17"><a xlink:title=" ">
<polygon fill="white" stroke="#bfbfbf" points="611.5,-0.5 611.5,-19.5 658.5,-19.5 658.5,-0.5 611.5,-0.5"/>
<text text-anchor="middle" x="635" y="-7.5" font-family="Helvetica,sans-Serif" font-size="10.00">stdint.h</text>
</a>
</g>
</g>
<!-- Node15&#45;&gt;Node16 -->
<g id="edge29" class="edge"><title>Node15&#45;&gt;Node16</title>
<path fill="none" stroke="midnightblue" d="M635,-56.083C635,-49.0059 635,-38.8611 635,-29.9865"/>
<polygon fill="midnightblue" stroke="midnightblue" points="638.5,-29.751 635,-19.7511 631.5,-29.7511 638.5,-29.751"/>
</g>
<!-- Node17 -->
<g id="node18" class="node"><title>Node17</title>
<g id="a_node18"><a xlink:title=" ">
<polygon fill="white" stroke="#bfbfbf" points="382.5,-0.5 382.5,-19.5 421.5,-19.5 421.5,-0.5 382.5,-0.5"/>
<text text-anchor="middle" x="402" y="-7.5" font-family="Helvetica,sans-Serif" font-size="10.00">limits</text>
</a>
</g>
</g>
<!-- Node15&#45;&gt;Node17 -->
<g id="edge30" class="edge"><title>Node15&#45;&gt;Node17</title>
<path fill="none" stroke="midnightblue" d="M598.08,-56.4435C551.946,-45.7513 473.916,-27.6673 431.535,-17.845"/>
<polygon fill="midnightblue" stroke="midnightblue" points="432.101,-14.3836 421.569,-15.5354 430.521,-21.2028 432.101,-14.3836"/>
</g>
<!-- Node20 -->
<g id="node21" class="node"><title>Node20</title>
<g id="a_node21"><a xlink:href="interface__level1_8hpp.html" target="_top" xlink:title="Interface_level 1.">
<polygon fill="white" stroke="black" points="49,-56.5 49,-75.5 155,-75.5 155,-56.5 49,-56.5"/>
<text text-anchor="middle" x="102" y="-63.5" font-family="Helvetica,sans-Serif" font-size="10.00">interface_level1.hpp</text>
</a>
</g>
</g>
<!-- Node19&#45;&gt;Node20 -->
<g id="edge33" class="edge"><title>Node19&#45;&gt;Node20</title>
<path fill="none" stroke="midnightblue" d="M85.3026,-112.083C87.982,-104.849 91.8486,-94.4087 95.1864,-85.3968"/>
<polygon fill="midnightblue" stroke="midnightblue" points="98.5678,-86.3442 98.7589,-75.7511 92.0035,-83.9129 98.5678,-86.3442"/>
</g>
<!-- Node20&#45;&gt;Node17 -->
<g id="edge36" class="edge"><title>Node20&#45;&gt;Node17</title>
<path fill="none" stroke="midnightblue" d="M149.536,-56.4435C212.137,-45.1754 320.346,-25.6978 372.377,-16.3322"/>
<polygon fill="midnightblue" stroke="midnightblue" points="373.075,-19.7628 382.297,-14.5465 371.835,-12.8735 373.075,-19.7628"/>
</g>
<!-- Node21 -->
<g id="node22" class="node"><title>Node21</title>
<g id="a_node22"><a xlink:title=" ">
<polygon fill="white" stroke="#bfbfbf" points="0,-0.5 0,-19.5 58,-19.5 58,-0.5 0,-0.5"/>
<text text-anchor="middle" x="29" y="-7.5" font-family="Helvetica,sans-Serif" font-size="10.00">algorithm</text>
</a>
</g>
</g>
<!-- Node20&#45;&gt;Node21 -->
<g id="edge34" class="edge"><title>Node20&#45;&gt;Node21</title>
<path fill="none" stroke="midnightblue" d="M90.2713,-56.324C79.1626,-48.1066 62.2578,-35.6017 49.0167,-25.8069"/>
<polygon fill="midnightblue" stroke="midnightblue" points="51.0631,-22.9671 40.9421,-19.8339 46.9001,-28.5948 51.0631,-22.9671"/>
</g>
<!-- Node22 -->
<g id="node23" class="node"><title>Node22</title>
<g id="a_node23"><a xlink:title=" ">
<polygon fill="white" stroke="#bfbfbf" points="76,-0.5 76,-19.5 128,-19.5 128,-0.5 76,-0.5"/>
<text text-anchor="middle" x="102" y="-7.5" font-family="Helvetica,sans-Serif" font-size="10.00">numeric</text>
</a>
</g>
</g>
<!-- Node20&#45;&gt;Node22 -->
<g id="edge35" class="edge"><title>Node20&#45;&gt;Node22</title>
<path fill="none" stroke="midnightblue" d="M102,-56.083C102,-49.0059 102,-38.8611 102,-29.9865"/>
<polygon fill="midnightblue" stroke="midnightblue" points="105.5,-29.751 102,-19.7511 98.5001,-29.7511 105.5,-29.751"/>
</g>
<!-- Node23 -->
<g id="node24" class="node"><title>Node23</title>
<g id="a_node24"><a xlink:title=" ">
<polygon fill="white" stroke="#bfbfbf" points="146,-0.5 146,-19.5 190,-19.5 190,-0.5 146,-0.5"/>
<text text-anchor="middle" x="168" y="-7.5" font-family="Helvetica,sans-Serif" font-size="10.00">cmath</text>
</a>
</g>
</g>
<!-- Node20&#45;&gt;Node23 -->
<g id="edge37" class="edge"><title>Node20&#45;&gt;Node23</title>
<path fill="none" stroke="midnightblue" d="M112.604,-56.324C122.456,-48.2631 137.351,-36.0765 149.215,-26.3695"/>
<polygon fill="midnightblue" stroke="midnightblue" points="151.68,-28.8752 157.203,-19.8339 147.247,-23.4575 151.68,-28.8752"/>
</g>
<!-- Node24&#45;&gt;Node2 -->
<g id="edge42" class="edge"><title>Node24&#45;&gt;Node2</title>
<path fill="none" stroke="midnightblue" d="M593.541,-117.066C678.985,-107.833 888.68,-84.9807 949.917,-75.8941"/>
<polygon fill="midnightblue" stroke="midnightblue" points="950.509,-79.3441 959.835,-74.3161 949.409,-72.4311 950.509,-79.3441"/>
</g>
<!-- Node24&#45;&gt;Node3 -->
<g id="edge39" class="edge"><title>Node24&#45;&gt;Node3</title>
<path fill="none" stroke="midnightblue" d="M534.658,-112.444C511.247,-103.478 474.264,-89.314 447.81,-79.1827"/>
<polygon fill="midnightblue" stroke="midnightblue" points="448.828,-75.8245 438.237,-75.5164 446.324,-82.3615 448.828,-75.8245"/>
</g>
<!-- Node24&#45;&gt;Node4 -->
<g id="edge40" class="edge"><title>Node24&#45;&gt;Node4</title>
<path fill="none" stroke="midnightblue" d="M546.396,-112.324C536.544,-104.263 521.649,-92.0765 509.785,-82.3695"/>
<polygon fill="midnightblue" stroke="midnightblue" points="511.753,-79.4575 501.797,-75.8339 507.32,-84.8752 511.753,-79.4575"/>
</g>
<!-- Node24&#45;&gt;Node5 -->
<g id="edge41" class="edge"><title>Node24&#45;&gt;Node5</title>
<path fill="none" stroke="midnightblue" d="M520.239,-113.885C466.276,-103.441 366.288,-84.088 313.219,-73.8165"/>
<polygon fill="midnightblue" stroke="midnightblue" points="313.741,-70.3527 303.258,-71.8886 312.41,-77.2251 313.741,-70.3527"/>
</g>
<!-- Node24&#45;&gt;Node6 -->
<g id="edge44" class="edge"><title>Node24&#45;&gt;Node6</title>
<path fill="none" stroke="midnightblue" d="M520.059,-117.487C462.965,-111.669 349.765,-98.5847 244.395,-75.7694"/>
<polygon fill="midnightblue" stroke="midnightblue" points="245.069,-72.3343 234.551,-73.6041 243.566,-79.1708 245.069,-72.3343"/>
</g>
<!-- Node24&#45;&gt;Node7 -->
<g id="edge43" class="edge"><title>Node24&#45;&gt;Node7</title>
<path fill="none" stroke="midnightblue" d="M557.165,-112.083C557.296,-105.006 557.484,-94.8611 557.648,-85.9865"/>
<polygon fill="midnightblue" stroke="midnightblue" points="561.152,-85.8142 557.838,-75.7511 554.153,-85.6845 561.152,-85.8142"/>
</g>
<!-- Node24&#45;&gt;Node13 -->
<g id="edge45" class="edge"><title>Node24&#45;&gt;Node13</title>
<path fill="none" stroke="midnightblue" d="M593.776,-113.317C634.523,-104.696 702.123,-90.069 760,-76 760.1,-75.9757 760.2,-75.9513 760.301,-75.9268"/>
<polygon fill="midnightblue" stroke="midnightblue" points="761.043,-79.3494 769.885,-73.5128 759.333,-72.5614 761.043,-79.3494"/>
</g>
<!-- Node24&#45;&gt;Node15 -->
<g id="edge46" class="edge"><title>Node24&#45;&gt;Node15</title>
<path fill="none" stroke="midnightblue" d="M569.532,-112.324C581.586,-103.979 600.027,-91.2122 614.269,-81.3524"/>
<polygon fill="midnightblue" stroke="midnightblue" points="616.269,-84.2243 622.499,-75.6545 612.285,-78.469 616.269,-84.2243"/>
</g>
<!-- Node24&#45;&gt;Node18 -->
<g id="edge47" class="edge"><title>Node24&#45;&gt;Node18</title>
<path fill="none" stroke="midnightblue" d="M593.788,-116.944C608.47,-115.355 625.53,-113.546 641,-112 810.045,-95.1026 855.338,-96.5823 1027.6,-76.1109"/>
<polygon fill="midnightblue" stroke="midnightblue" points="1028.27,-79.5565 1037.78,-74.8936 1027.44,-72.6061 1028.27,-79.5565"/>
</g>
<!-- Node25&#45;&gt;Node3 -->
<g id="edge49" class="edge"><title>Node25&#45;&gt;Node3</title>
<path fill="none" stroke="midnightblue" d="M299.025,-112.444C322.104,-103.478 358.562,-89.314 384.641,-79.1827"/>
<polygon fill="midnightblue" stroke="midnightblue" points="386.024,-82.4002 394.078,-75.5164 383.489,-75.8753 386.024,-82.4002"/>
</g>
<!-- Node25&#45;&gt;Node4 -->
<g id="edge51" class="edge"><title>Node25&#45;&gt;Node4</title>
<path fill="none" stroke="midnightblue" d="M310.909,-112.444C350.048,-102.567 414.179,-86.3846 454.416,-76.2314"/>
<polygon fill="midnightblue" stroke="midnightblue" points="455.509,-79.5654 464.349,-73.7251 453.796,-72.7782 455.509,-79.5654"/>
</g>
<!-- Node25&#45;&gt;Node5 -->
<g id="edge50" class="edge"><title>Node25&#45;&gt;Node5</title>
<path fill="none" stroke="midnightblue" d="M277.165,-112.083C277.296,-105.006 277.484,-94.8611 277.648,-85.9865"/>
<polygon fill="midnightblue" stroke="midnightblue" points="281.152,-85.8142 277.838,-75.7511 274.153,-85.6845 281.152,-85.8142"/>
</g>
<!-- Node25&#45;&gt;Node6 -->
<g id="edge52" class="edge"><title>Node25&#45;&gt;Node6</title>
<path fill="none" stroke="midnightblue" d="M266.878,-112.324C257.474,-104.263 243.256,-92.0765 231.931,-82.3695"/>
<polygon fill="midnightblue" stroke="midnightblue" points="234.177,-79.6844 224.306,-75.8339 229.621,-84.9993 234.177,-79.6844"/>
</g>
</g>
</svg>
