<?xml version="1.0" encoding="UTF-8" standalone="no"?>
<!DOCTYPE svg PUBLIC "-//W3C//DTD SVG 1.1//EN"
 "http://www.w3.org/Graphics/SVG/1.1/DTD/svg11.dtd">
<!-- Generated by graphviz version 2.38.0 (20140413.2041)
 -->
<!-- Title: include/transformation.hpp Pages: 1 -->
<svg width="1558pt" height="476pt"
 viewBox="0.00 0.00 1558.00 476.00" xmlns="http://www.w3.org/2000/svg" xmlns:xlink="http://www.w3.org/1999/xlink">
<g id="graph0" class="graph" transform="scale(1 1) rotate(0) translate(4 472)">
<title>include/transformation.hpp</title>
<polygon fill="white" stroke="none" points="-4,4 -4,-472 1554,-472 1554,4 -4,4"/>
<!-- Node0 -->
<g id="node1" class="node"><title>Node0</title>
<g id="a_node1"><a xlink:title="Transformation operations with matrices.">
<polygon fill="#bfbfbf" stroke="black" points="417.5,-448.5 417.5,-467.5 550.5,-467.5 550.5,-448.5 417.5,-448.5"/>
<text text-anchor="middle" x="484" y="-455.5" font-family="Helvetica,sans-Serif" font-size="10.00">include/transformation.hpp</text>
</a>
</g>
</g>
<!-- Node1 -->
<g id="node2" class="node"><title>Node1</title>
<g id="a_node2"><a xlink:title=" ">
<polygon fill="white" stroke="#bfbfbf" points="254,-56.5 254,-75.5 298,-75.5 298,-56.5 254,-56.5"/>
<text text-anchor="middle" x="276" y="-63.5" font-family="Helvetica,sans-Serif" font-size="10.00">vector</text>
</a>
</g>
</g>
<!-- Node0&#45;&gt;Node1 -->
<g id="edge1" class="edge"><title>Node0&#45;&gt;Node1</title>
<path fill="none" stroke="midnightblue" d="M417.464,-455.647C284.799,-451.139 0,-431.609 0,-347 0,-347 0,-347 0,-233 0,-120.282 171.139,-82.1508 243.892,-71.0335"/>
<polygon fill="midnightblue" stroke="midnightblue" points="244.487,-74.484 253.88,-69.5836 243.481,-67.5566 244.487,-74.484"/>
</g>
<!-- Node2 -->
<g id="node3" class="node"><title>Node2</title>
<g id="a_node3"><a xlink:href="matrix_8hpp.html" target="_top" xlink:title="matrix">
<polygon fill="white" stroke="black" points="765,-168.5 765,-187.5 827,-187.5 827,-168.5 765,-168.5"/>
<text text-anchor="middle" x="796" y="-175.5" font-family="Helvetica,sans-Serif" font-size="10.00">matrix.hpp</text>
</a>
</g>
</g>
<!-- Node0&#45;&gt;Node2 -->
<g id="edge2" class="edge"><title>Node0&#45;&gt;Node2</title>
<path fill="none" stroke="midnightblue" d="M506.206,-448.413C527.035,-440.057 558.811,-426.523 585,-412 623.916,-390.418 641.953,-392.081 668,-356 703.662,-306.599 666.103,-270.896 705,-224 717.911,-208.433 737.532,-197.78 755.252,-190.764"/>
<polygon fill="midnightblue" stroke="midnightblue" points="756.672,-193.971 764.847,-187.232 754.254,-187.402 756.672,-193.971"/>
</g>
<!-- Node24 -->
<g id="node25" class="node"><title>Node24</title>
<g id="a_node25"><a xlink:href="container__instance_8hpp.html" target="_top" xlink:title="container utilities for instances">
<polygon fill="white" stroke="black" points="384.5,-224.5 384.5,-243.5 503.5,-243.5 503.5,-224.5 384.5,-224.5"/>
<text text-anchor="middle" x="444" y="-231.5" font-family="Helvetica,sans-Serif" font-size="10.00">container_instance.hpp</text>
</a>
</g>
</g>
<!-- Node0&#45;&gt;Node24 -->
<g id="edge42" class="edge"><title>Node0&#45;&gt;Node24</title>
<path fill="none" stroke="midnightblue" d="M478.918,-448.368C473.98,-439.544 466.703,-425.288 463,-412 447.409,-356.053 444.469,-286.866 444.009,-254.025"/>
<polygon fill="midnightblue" stroke="midnightblue" points="447.506,-253.636 443.932,-243.662 440.506,-253.687 447.506,-253.636"/>
</g>
<!-- Node26 -->
<g id="node27" class="node"><title>Node26</title>
<g id="a_node27"><a xlink:href="stats__instances_8hpp.html" target="_top" xlink:title="Statistics for instances.">
<polygon fill="white" stroke="black" points="472,-392.5 472,-411.5 576,-411.5 576,-392.5 472,-392.5"/>
<text text-anchor="middle" x="524" y="-399.5" font-family="Helvetica,sans-Serif" font-size="10.00">stats_instances.hpp</text>
</a>
</g>
</g>
<!-- Node0&#45;&gt;Node26 -->
<g id="edge51" class="edge"><title>Node0&#45;&gt;Node26</title>
<path fill="none" stroke="midnightblue" d="M490.605,-448.083C496.255,-440.455 504.545,-429.264 511.451,-419.941"/>
<polygon fill="midnightblue" stroke="midnightblue" points="514.378,-421.87 517.518,-411.751 508.753,-417.703 514.378,-421.87"/>
</g>
<!-- Node2&#45;&gt;Node1 -->
<g id="edge12" class="edge"><title>Node2&#45;&gt;Node1</title>
<path fill="none" stroke="midnightblue" d="M764.757,-175.799C701.794,-172.789 555.551,-162.803 437,-132 387.771,-119.209 333.491,-95.0402 302.207,-80.0498"/>
<polygon fill="midnightblue" stroke="midnightblue" points="303.418,-76.7473 292.893,-75.5313 300.363,-83.0452 303.418,-76.7473"/>
</g>
<!-- Node3 -->
<g id="node4" class="node"><title>Node3</title>
<g id="a_node4"><a xlink:title=" ">
<polygon fill="white" stroke="#bfbfbf" points="706,-56.5 706,-75.5 762,-75.5 762,-56.5 706,-56.5"/>
<text text-anchor="middle" x="734" y="-63.5" font-family="Helvetica,sans-Serif" font-size="10.00">iostream</text>
</a>
</g>
</g>
<!-- Node2&#45;&gt;Node3 -->
<g id="edge3" class="edge"><title>Node2&#45;&gt;Node3</title>
<path fill="none" stroke="midnightblue" d="M791.135,-168.368C780.948,-150.296 757.209,-108.176 743.755,-84.3074"/>
<polygon fill="midnightblue" stroke="midnightblue" points="746.802,-82.5844 738.842,-75.5914 740.704,-86.0215 746.802,-82.5844"/>
</g>
<!-- Node4 -->
<g id="node5" class="node"><title>Node4</title>
<g id="a_node5"><a xlink:title=" ">
<polygon fill="white" stroke="#bfbfbf" points="780.5,-56.5 780.5,-75.5 833.5,-75.5 833.5,-56.5 780.5,-56.5"/>
<text text-anchor="middle" x="807" y="-63.5" font-family="Helvetica,sans-Serif" font-size="10.00">sstream</text>
</a>
</g>
</g>
<!-- Node2&#45;&gt;Node4 -->
<g id="edge4" class="edge"><title>Node2&#45;&gt;Node4</title>
<path fill="none" stroke="midnightblue" d="M792.28,-168.102C787.52,-155.52 780.408,-131.848 785,-112 787.23,-102.363 791.821,-92.4052 796.236,-84.3149"/>
<polygon fill="midnightblue" stroke="midnightblue" points="799.351,-85.9216 801.362,-75.5194 793.303,-82.3968 799.351,-85.9216"/>
</g>
<!-- Node5 -->
<g id="node6" class="node"><title>Node5</title>
<g id="a_node6"><a xlink:title=" ">
<polygon fill="white" stroke="#bfbfbf" points="794,-112.5 794,-131.5 846,-131.5 846,-112.5 794,-112.5"/>
<text text-anchor="middle" x="820" y="-119.5" font-family="Helvetica,sans-Serif" font-size="10.00">iomanip</text>
</a>
</g>
</g>
<!-- Node2&#45;&gt;Node5 -->
<g id="edge5" class="edge"><title>Node2&#45;&gt;Node5</title>
<path fill="none" stroke="midnightblue" d="M799.963,-168.083C803.213,-160.77 807.919,-150.181 811.954,-141.103"/>
<polygon fill="midnightblue" stroke="midnightblue" points="815.248,-142.311 816.111,-131.751 808.851,-139.468 815.248,-142.311"/>
</g>
<!-- Node6 -->
<g id="node7" class="node"><title>Node6</title>
<g id="a_node7"><a xlink:title=" ">
<polygon fill="white" stroke="#bfbfbf" points="928.5,-56.5 928.5,-75.5 979.5,-75.5 979.5,-56.5 928.5,-56.5"/>
<text text-anchor="middle" x="954" y="-63.5" font-family="Helvetica,sans-Serif" font-size="10.00">typeinfo</text>
</a>
</g>
</g>
<!-- Node2&#45;&gt;Node6 -->
<g id="edge6" class="edge"><title>Node2&#45;&gt;Node6</title>
<path fill="none" stroke="midnightblue" d="M827.374,-169.802C879.047,-157.876 976.628,-135.026 979,-132 990.242,-117.658 979.581,-97.6735 968.911,-83.6614"/>
<polygon fill="midnightblue" stroke="midnightblue" points="971.515,-81.317 962.462,-75.8125 966.106,-85.7609 971.515,-81.317"/>
</g>
<!-- Node7 -->
<g id="node8" class="node"><title>Node7</title>
<g id="a_node8"><a xlink:title=" ">
<polygon fill="white" stroke="#bfbfbf" points="1066,-56.5 1066,-75.5 1126,-75.5 1126,-56.5 1066,-56.5"/>
<text text-anchor="middle" x="1096" y="-63.5" font-family="Helvetica,sans-Serif" font-size="10.00">stdexcept</text>
</a>
</g>
</g>
<!-- Node2&#45;&gt;Node7 -->
<g id="edge7" class="edge"><title>Node2&#45;&gt;Node7</title>
<path fill="none" stroke="midnightblue" d="M827.426,-169.848C830.323,-169.213 833.214,-168.589 836,-168 916.674,-150.948 943.575,-167.495 1018,-132 1042.97,-120.092 1066.64,-98.3559 1081.22,-83.3172"/>
<polygon fill="midnightblue" stroke="midnightblue" points="1084.03,-85.4375 1088.33,-75.7563 1078.93,-80.6405 1084.03,-85.4375"/>
</g>
<!-- Node8 -->
<g id="node9" class="node"><title>Node8</title>
<g id="a_node9"><a xlink:title=" ">
<polygon fill="white" stroke="#bfbfbf" points="1144,-56.5 1144,-75.5 1182,-75.5 1182,-56.5 1144,-56.5"/>
<text text-anchor="middle" x="1163" y="-63.5" font-family="Helvetica,sans-Serif" font-size="10.00">utility</text>
</a>
</g>
</g>
<!-- Node2&#45;&gt;Node8 -->
<g id="edge8" class="edge"><title>Node2&#45;&gt;Node8</title>
<path fill="none" stroke="midnightblue" d="M827.41,-169.767C830.31,-169.15 833.207,-168.551 836,-168 929.764,-149.504 957.942,-163.991 1048,-132 1083.33,-119.45 1120.43,-96.4225 1142.64,-81.4165"/>
<polygon fill="midnightblue" stroke="midnightblue" points="1144.67,-84.269 1150.92,-75.7192 1140.7,-78.5009 1144.67,-84.269"/>
</g>
<!-- Node9 -->
<g id="node10" class="node"><title>Node9</title>
<g id="a_node10"><a xlink:title=" ">
<polygon fill="white" stroke="#bfbfbf" points="998,-56.5 998,-75.5 1048,-75.5 1048,-56.5 998,-56.5"/>
<text text-anchor="middle" x="1023" y="-63.5" font-family="Helvetica,sans-Serif" font-size="10.00">cassert</text>
</a>
</g>
</g>
<!-- Node2&#45;&gt;Node9 -->
<g id="edge9" class="edge"><title>Node2&#45;&gt;Node9</title>
<path fill="none" stroke="midnightblue" d="M827.25,-169.969C883.5,-157.312 996,-132 996,-132 1009.86,-120.343 1016.72,-100.395 1020.04,-85.6647"/>
<polygon fill="midnightblue" stroke="midnightblue" points="1023.52,-86.1187 1021.95,-75.6408 1016.64,-84.8109 1023.52,-86.1187"/>
</g>
<!-- Node10 -->
<g id="node11" class="node"><title>Node10</title>
<g id="a_node11"><a xlink:title=" ">
<polygon fill="white" stroke="#bfbfbf" points="578.5,-56.5 578.5,-75.5 619.5,-75.5 619.5,-56.5 578.5,-56.5"/>
<text text-anchor="middle" x="599" y="-63.5" font-family="Helvetica,sans-Serif" font-size="10.00">string</text>
</a>
</g>
</g>
<!-- Node2&#45;&gt;Node10 -->
<g id="edge10" class="edge"><title>Node2&#45;&gt;Node10</title>
<path fill="none" stroke="midnightblue" d="M764.631,-172.947C719.086,-166.444 637.806,-152.315 617,-132 604.704,-119.994 600.59,-100.39 599.319,-85.8463"/>
<polygon fill="midnightblue" stroke="midnightblue" points="602.797,-85.3234 598.806,-75.5091 595.806,-85.6702 602.797,-85.3234"/>
</g>
<!-- Node11 -->
<g id="node12" class="node"><title>Node11</title>
<g id="a_node12"><a xlink:title=" ">
<polygon fill="white" stroke="#bfbfbf" points="862,-56.5 862,-75.5 910,-75.5 910,-56.5 862,-56.5"/>
<text text-anchor="middle" x="886" y="-63.5" font-family="Helvetica,sans-Serif" font-size="10.00">string.h</text>
</a>
</g>
</g>
<!-- Node2&#45;&gt;Node11 -->
<g id="edge11" class="edge"><title>Node2&#45;&gt;Node11</title>
<path fill="none" stroke="midnightblue" d="M827.016,-169.618C873.897,-158.315 957.827,-137.455 962,-132 978.42,-110.537 946.778,-91.1445 919.449,-79.2393"/>
<polygon fill="midnightblue" stroke="midnightblue" points="920.626,-75.9386 910.047,-75.3493 917.949,-82.4068 920.626,-75.9386"/>
</g>
<!-- Node12 -->
<g id="node13" class="node"><title>Node12</title>
<g id="a_node13"><a xlink:href="matrix__base_8hpp.html" target="_top" xlink:title="matrix base">
<polygon fill="white" stroke="black" points="864.5,-112.5 864.5,-131.5 953.5,-131.5 953.5,-112.5 864.5,-112.5"/>
<text text-anchor="middle" x="909" y="-119.5" font-family="Helvetica,sans-Serif" font-size="10.00">matrix_base.hpp</text>
</a>
</g>
</g>
<!-- Node2&#45;&gt;Node12 -->
<g id="edge13" class="edge"><title>Node2&#45;&gt;Node12</title>
<path fill="none" stroke="midnightblue" d="M813.905,-168.444C832.254,-159.675 861.005,-145.935 882.094,-135.858"/>
<polygon fill="midnightblue" stroke="midnightblue" points="883.665,-138.986 891.179,-131.516 880.647,-132.67 883.665,-138.986"/>
</g>
<!-- Node17 -->
<g id="node18" class="node"><title>Node17</title>
<g id="a_node18"><a xlink:href="linear__algebra__level1_8hpp.html" target="_top" xlink:title="linear algebra level1">
<polygon fill="white" stroke="black" points="1200,-112.5 1200,-131.5 1332,-131.5 1332,-112.5 1200,-112.5"/>
<text text-anchor="middle" x="1266" y="-119.5" font-family="Helvetica,sans-Serif" font-size="10.00">linear_algebra_level1.hpp</text>
</a>
</g>
</g>
<!-- Node2&#45;&gt;Node17 -->
<g id="edge26" class="edge"><title>Node2&#45;&gt;Node17</title>
<path fill="none" stroke="midnightblue" d="M827.374,-169.571C830.282,-168.994 833.19,-168.459 836,-168 990.331,-142.792 1030.52,-148.741 1186,-132 1187.11,-131.88 1188.23,-131.759 1189.36,-131.637"/>
<polygon fill="midnightblue" stroke="midnightblue" points="1190.09,-135.078 1199.65,-130.514 1189.33,-128.12 1190.09,-135.078"/>
</g>
<!-- Node22 -->
<g id="node23" class="node"><title>Node22</title>
<g id="a_node23"><a xlink:href="line__split_8hpp.html" target="_top" xlink:title="line split">
<polygon fill="white" stroke="black" points="626.5,-112.5 626.5,-131.5 699.5,-131.5 699.5,-112.5 626.5,-112.5"/>
<text text-anchor="middle" x="663" y="-119.5" font-family="Helvetica,sans-Serif" font-size="10.00">line_split.hpp</text>
</a>
</g>
</g>
<!-- Node2&#45;&gt;Node22 -->
<g id="edge32" class="edge"><title>Node2&#45;&gt;Node22</title>
<path fill="none" stroke="midnightblue" d="M774.926,-168.444C752.94,-159.517 718.266,-145.439 693.336,-135.317"/>
<polygon fill="midnightblue" stroke="midnightblue" points="694.558,-132.035 683.976,-131.516 691.924,-138.521 694.558,-132.035"/>
</g>
<!-- Node12&#45;&gt;Node1 -->
<g id="edge21" class="edge"><title>Node12&#45;&gt;Node1</title>
<path fill="none" stroke="midnightblue" d="M864.259,-113.195C861.13,-112.757 858.021,-112.352 855,-112 616.964,-84.2677 554.252,-109.785 317,-76 314.092,-75.5858 311.082,-75.0789 308.076,-74.5188"/>
<polygon fill="midnightblue" stroke="midnightblue" points="308.517,-71.0367 298.019,-72.4665 307.118,-77.8953 308.517,-71.0367"/>
</g>
<!-- Node12&#45;&gt;Node3 -->
<g id="edge14" class="edge"><title>Node12&#45;&gt;Node3</title>
<path fill="none" stroke="midnightblue" d="M881.271,-112.444C851.574,-103.28 804.284,-88.6876 771.331,-78.5192"/>
<polygon fill="midnightblue" stroke="midnightblue" points="772.187,-75.1206 761.6,-75.5164 770.123,-81.8094 772.187,-75.1206"/>
</g>
<!-- Node12&#45;&gt;Node4 -->
<g id="edge15" class="edge"><title>Node12&#45;&gt;Node4</title>
<path fill="none" stroke="midnightblue" d="M892.612,-112.324C876.329,-103.703 851.133,-90.3643 832.284,-80.3855"/>
<polygon fill="midnightblue" stroke="midnightblue" points="833.823,-77.2402 823.347,-75.6545 830.548,-83.4267 833.823,-77.2402"/>
</g>
<!-- Node12&#45;&gt;Node6 -->
<g id="edge16" class="edge"><title>Node12&#45;&gt;Node6</title>
<path fill="none" stroke="midnightblue" d="M916.431,-112.083C922.853,-104.377 932.306,-93.0333 940.122,-83.6531"/>
<polygon fill="midnightblue" stroke="midnightblue" points="942.994,-85.674 946.707,-75.7511 937.617,-81.1927 942.994,-85.674"/>
</g>
<!-- Node12&#45;&gt;Node7 -->
<g id="edge17" class="edge"><title>Node12&#45;&gt;Node7</title>
<path fill="none" stroke="midnightblue" d="M938.631,-112.444C970.5,-103.241 1021.33,-88.5617 1056.56,-78.3879"/>
<polygon fill="midnightblue" stroke="midnightblue" points="1057.87,-81.6534 1066.51,-75.5164 1055.93,-74.9282 1057.87,-81.6534"/>
</g>
<!-- Node12&#45;&gt;Node8 -->
<g id="edge18" class="edge"><title>Node12&#45;&gt;Node8</title>
<path fill="none" stroke="midnightblue" d="M953.511,-113.689C997.19,-106.17 1065.84,-93.4357 1133.79,-76.0828"/>
<polygon fill="midnightblue" stroke="midnightblue" points="1135,-79.3841 1143.81,-73.4891 1133.25,-72.6076 1135,-79.3841"/>
</g>
<!-- Node12&#45;&gt;Node9 -->
<g id="edge19" class="edge"><title>Node12&#45;&gt;Node9</title>
<path fill="none" stroke="midnightblue" d="M927.064,-112.444C945.575,-103.675 974.581,-89.9355 995.855,-79.8579"/>
<polygon fill="midnightblue" stroke="midnightblue" points="997.482,-82.9604 1005.02,-75.5164 994.485,-76.6343 997.482,-82.9604"/>
</g>
<!-- Node12&#45;&gt;Node11 -->
<g id="edge20" class="edge"><title>Node12&#45;&gt;Node11</title>
<path fill="none" stroke="midnightblue" d="M905.202,-112.083C902.087,-104.77 897.577,-94.1814 893.711,-85.1034"/>
<polygon fill="midnightblue" stroke="midnightblue" points="896.866,-83.5798 889.727,-75.7511 890.426,-86.3229 896.866,-83.5798"/>
</g>
<!-- Node13 -->
<g id="node14" class="node"><title>Node13</title>
<g id="a_node14"><a xlink:href="common_8hpp.html" target="_top" xlink:title="common">
<polygon fill="white" stroke="black" points="326,-56.5 326,-75.5 400,-75.5 400,-56.5 326,-56.5"/>
<text text-anchor="middle" x="363" y="-63.5" font-family="Helvetica,sans-Serif" font-size="10.00">common.hpp</text>
</a>
</g>
</g>
<!-- Node12&#45;&gt;Node13 -->
<g id="edge22" class="edge"><title>Node12&#45;&gt;Node13</title>
<path fill="none" stroke="midnightblue" d="M864.25,-113.269C861.124,-112.813 858.017,-112.384 855,-112 674.419,-89.0195 628.176,-93.6973 447,-76 435.145,-74.842 422.359,-73.513 410.424,-72.2381"/>
<polygon fill="midnightblue" stroke="midnightblue" points="410.518,-68.728 400.201,-71.1372 409.769,-75.6878 410.518,-68.728"/>
</g>
<!-- Node16 -->
<g id="node17" class="node"><title>Node16</title>
<g id="a_node17"><a xlink:href="verbose__global_8hpp.html" target="_top" xlink:title="verbose global">
<polygon fill="white" stroke="black" points="456,-56.5 456,-75.5 560,-75.5 560,-56.5 456,-56.5"/>
<text text-anchor="middle" x="508" y="-63.5" font-family="Helvetica,sans-Serif" font-size="10.00">verbose_global.hpp</text>
</a>
</g>
</g>
<!-- Node12&#45;&gt;Node16 -->
<g id="edge25" class="edge"><title>Node12&#45;&gt;Node16</title>
<path fill="none" stroke="midnightblue" d="M864.232,-113.397C861.11,-112.911 858.009,-112.44 855,-112 731.452,-93.936 697.635,-93.3685 570.373,-76.1605"/>
<polygon fill="midnightblue" stroke="midnightblue" points="570.614,-72.6611 560.233,-74.7811 569.67,-79.5972 570.614,-72.6611"/>
</g>
<!-- Node14 -->
<g id="node15" class="node"><title>Node14</title>
<g id="a_node15"><a xlink:title=" ">
<polygon fill="white" stroke="#bfbfbf" points="336.5,-0.5 336.5,-19.5 383.5,-19.5 383.5,-0.5 336.5,-0.5"/>
<text text-anchor="middle" x="360" y="-7.5" font-family="Helvetica,sans-Serif" font-size="10.00">stdint.h</text>
</a>
</g>
</g>
<!-- Node13&#45;&gt;Node14 -->
<g id="edge23" class="edge"><title>Node13&#45;&gt;Node14</title>
<path fill="none" stroke="midnightblue" d="M362.505,-56.083C362.111,-49.0059 361.548,-38.8611 361.055,-29.9865"/>
<polygon fill="midnightblue" stroke="midnightblue" points="364.536,-29.5415 360.486,-19.7511 357.546,-29.9299 364.536,-29.5415"/>
</g>
<!-- Node15 -->
<g id="node16" class="node"><title>Node15</title>
<g id="a_node16"><a xlink:title=" ">
<polygon fill="white" stroke="#bfbfbf" points="186.5,-0.5 186.5,-19.5 225.5,-19.5 225.5,-0.5 186.5,-0.5"/>
<text text-anchor="middle" x="206" y="-7.5" font-family="Helvetica,sans-Serif" font-size="10.00">limits</text>
</a>
</g>
</g>
<!-- Node13&#45;&gt;Node15 -->
<g id="edge24" class="edge"><title>Node13&#45;&gt;Node15</title>
<path fill="none" stroke="midnightblue" d="M338.123,-56.4435C310.279,-46.8665 265.193,-31.3593 235.569,-21.1704"/>
<polygon fill="midnightblue" stroke="midnightblue" points="236.384,-17.7495 225.79,-17.8067 234.108,-24.3689 236.384,-17.7495"/>
</g>
<!-- Node18 -->
<g id="node19" class="node"><title>Node18</title>
<g id="a_node19"><a xlink:href="interface__level1_8hpp.html" target="_top" xlink:title="Interface_level 1.">
<polygon fill="white" stroke="black" points="1200,-56.5 1200,-75.5 1306,-75.5 1306,-56.5 1200,-56.5"/>
<text text-anchor="middle" x="1253" y="-63.5" font-family="Helvetica,sans-Serif" font-size="10.00">interface_level1.hpp</text>
</a>
</g>
</g>
<!-- Node17&#45;&gt;Node18 -->
<g id="edge27" class="edge"><title>Node17&#45;&gt;Node18</title>
<path fill="none" stroke="midnightblue" d="M1263.85,-112.083C1262.13,-104.927 1259.65,-94.6353 1257.5,-85.6911"/>
<polygon fill="midnightblue" stroke="midnightblue" points="1260.85,-84.6541 1255.11,-75.7511 1254.04,-86.2925 1260.85,-84.6541"/>
</g>
<!-- Node18&#45;&gt;Node15 -->
<g id="edge30" class="edge"><title>Node18&#45;&gt;Node15</title>
<path fill="none" stroke="midnightblue" d="M1199.94,-56.9332C1196.92,-56.5875 1193.92,-56.2724 1191,-56 808.324,-20.3474 710.688,-42.257 327,-20 295.858,-18.1935 260.256,-15.4654 235.775,-13.4865"/>
<polygon fill="midnightblue" stroke="midnightblue" points="235.939,-9.98833 225.688,-12.6625 235.369,-16.9651 235.939,-9.98833"/>
</g>
<!-- Node19 -->
<g id="node20" class="node"><title>Node19</title>
<g id="a_node20"><a xlink:title=" ">
<polygon fill="white" stroke="#bfbfbf" points="402,-0.5 402,-19.5 460,-19.5 460,-0.5 402,-0.5"/>
<text text-anchor="middle" x="431" y="-7.5" font-family="Helvetica,sans-Serif" font-size="10.00">algorithm</text>
</a>
</g>
</g>
<!-- Node18&#45;&gt;Node19 -->
<g id="edge28" class="edge"><title>Node18&#45;&gt;Node19</title>
<path fill="none" stroke="midnightblue" d="M1199.94,-56.9946C1196.92,-56.6332 1193.92,-56.298 1191,-56 915.85,-27.9349 582.739,-15.6845 470.251,-12.1462"/>
<polygon fill="midnightblue" stroke="midnightblue" points="470.167,-8.64198 460.063,-11.8307 469.95,-15.6386 470.167,-8.64198"/>
</g>
<!-- Node20 -->
<g id="node21" class="node"><title>Node20</title>
<g id="a_node21"><a xlink:title=" ">
<polygon fill="white" stroke="#bfbfbf" points="1227,-0.5 1227,-19.5 1279,-19.5 1279,-0.5 1227,-0.5"/>
<text text-anchor="middle" x="1253" y="-7.5" font-family="Helvetica,sans-Serif" font-size="10.00">numeric</text>
</a>
</g>
</g>
<!-- Node18&#45;&gt;Node20 -->
<g id="edge29" class="edge"><title>Node18&#45;&gt;Node20</title>
<path fill="none" stroke="midnightblue" d="M1253,-56.083C1253,-49.0059 1253,-38.8611 1253,-29.9865"/>
<polygon fill="midnightblue" stroke="midnightblue" points="1256.5,-29.751 1253,-19.7511 1249.5,-29.7511 1256.5,-29.751"/>
</g>
<!-- Node21 -->
<g id="node22" class="node"><title>Node21</title>
<g id="a_node22"><a xlink:title=" ">
<polygon fill="white" stroke="#bfbfbf" points="1401,-0.5 1401,-19.5 1445,-19.5 1445,-0.5 1401,-0.5"/>
<text text-anchor="middle" x="1423" y="-7.5" font-family="Helvetica,sans-Serif" font-size="10.00">cmath</text>
</a>
</g>
</g>
<!-- Node18&#45;&gt;Node21 -->
<g id="edge31" class="edge"><title>Node18&#45;&gt;Node21</title>
<path fill="none" stroke="midnightblue" d="M1279.94,-56.4435C1310.1,-46.8634 1358.94,-31.3492 1391.01,-21.1604"/>
<polygon fill="midnightblue" stroke="midnightblue" points="1392.32,-24.4169 1400.79,-18.0537 1390.2,-17.7454 1392.32,-24.4169"/>
</g>
<!-- Node22&#45;&gt;Node1 -->
<g id="edge37" class="edge"><title>Node22&#45;&gt;Node1</title>
<path fill="none" stroke="midnightblue" d="M626.478,-117.304C563.2,-110.666 429.187,-95.5707 317,-76 314.106,-75.4951 311.107,-74.9261 308.107,-74.3256"/>
<polygon fill="midnightblue" stroke="midnightblue" points="308.566,-70.8457 298.06,-72.2105 307.124,-77.6956 308.566,-70.8457"/>
</g>
<!-- Node22&#45;&gt;Node3 -->
<g id="edge33" class="edge"><title>Node22&#45;&gt;Node3</title>
<path fill="none" stroke="midnightblue" d="M674.407,-112.324C685.109,-104.185 701.341,-91.8395 714.163,-82.0874"/>
<polygon fill="midnightblue" stroke="midnightblue" points="716.544,-84.6734 722.385,-75.8339 712.307,-79.1018 716.544,-84.6734"/>
</g>
<!-- Node22&#45;&gt;Node4 -->
<g id="edge34" class="edge"><title>Node22&#45;&gt;Node4</title>
<path fill="none" stroke="midnightblue" d="M685.817,-112.444C709.832,-103.438 747.829,-89.1891 774.869,-79.049"/>
<polygon fill="midnightblue" stroke="midnightblue" points="776.155,-82.3049 784.29,-75.5164 773.697,-75.7506 776.155,-82.3049"/>
</g>
<!-- Node22&#45;&gt;Node7 -->
<g id="edge36" class="edge"><title>Node22&#45;&gt;Node7</title>
<path fill="none" stroke="midnightblue" d="M699.59,-118.212C767.717,-112.722 918.773,-99.1407 1055.59,-76.0663"/>
<polygon fill="midnightblue" stroke="midnightblue" points="1056.57,-79.4503 1065.83,-74.3161 1055.39,-72.5503 1056.57,-79.4503"/>
</g>
<!-- Node22&#45;&gt;Node10 -->
<g id="edge38" class="edge"><title>Node22&#45;&gt;Node10</title>
<path fill="none" stroke="midnightblue" d="M652.717,-112.324C643.164,-104.263 628.72,-92.0765 617.216,-82.3695"/>
<polygon fill="midnightblue" stroke="midnightblue" points="619.37,-79.6076 609.47,-75.8339 614.856,-84.9577 619.37,-79.6076"/>
</g>
<!-- Node22&#45;&gt;Node11 -->
<g id="edge39" class="edge"><title>Node22&#45;&gt;Node11</title>
<path fill="none" stroke="midnightblue" d="M698.335,-112.444C740.452,-102.245 810.342,-85.3209 851.905,-75.2563"/>
<polygon fill="midnightblue" stroke="midnightblue" points="852.932,-78.6088 861.827,-72.8536 851.284,-71.8055 852.932,-78.6088"/>
</g>
<!-- Node22&#45;&gt;Node13 -->
<g id="edge40" class="edge"><title>Node22&#45;&gt;Node13</title>
<path fill="none" stroke="midnightblue" d="M626.214,-114.379C571.785,-104.581 469.808,-86.2254 410.022,-75.4639"/>
<polygon fill="midnightblue" stroke="midnightblue" points="410.549,-72.0026 400.087,-73.6756 409.309,-78.8919 410.549,-72.0026"/>
</g>
<!-- Node22&#45;&gt;Node16 -->
<g id="edge41" class="edge"><title>Node22&#45;&gt;Node16</title>
<path fill="none" stroke="midnightblue" d="M638.44,-112.444C612.477,-103.399 571.332,-89.064 542.203,-78.9158"/>
<polygon fill="midnightblue" stroke="midnightblue" points="543.04,-75.5013 532.445,-75.5164 540.737,-82.1116 543.04,-75.5013"/>
</g>
<!-- Node23 -->
<g id="node24" class="node"><title>Node23</title>
<g id="a_node24"><a xlink:title=" ">
<polygon fill="white" stroke="#bfbfbf" points="638,-56.5 638,-75.5 688,-75.5 688,-56.5 638,-56.5"/>
<text text-anchor="middle" x="663" y="-63.5" font-family="Helvetica,sans-Serif" font-size="10.00">fstream</text>
</a>
</g>
</g>
<!-- Node22&#45;&gt;Node23 -->
<g id="edge35" class="edge"><title>Node22&#45;&gt;Node23</title>
<path fill="none" stroke="midnightblue" d="M663,-112.083C663,-105.006 663,-94.8611 663,-85.9865"/>
<polygon fill="midnightblue" stroke="midnightblue" points="666.5,-85.751 663,-75.7511 659.5,-85.7511 666.5,-85.751"/>
</g>
<!-- Node24&#45;&gt;Node1 -->
<g id="edge43" class="edge"><title>Node24&#45;&gt;Node1</title>
<path fill="none" stroke="midnightblue" d="M405.395,-224.427C382.629,-217.719 354.544,-206.366 335,-188 304.45,-159.292 287.745,-111.409 280.482,-85.316"/>
<polygon fill="midnightblue" stroke="midnightblue" points="283.854,-84.3743 277.935,-75.587 277.082,-86.1474 283.854,-84.3743"/>
</g>
<!-- Node24&#45;&gt;Node2 -->
<g id="edge49" class="edge"><title>Node24&#45;&gt;Node2</title>
<path fill="none" stroke="midnightblue" d="M499.775,-224.444C570.658,-213.57 691.376,-195.05 754.599,-185.351"/>
<polygon fill="midnightblue" stroke="midnightblue" points="755.252,-188.792 764.605,-183.816 754.19,-181.873 755.252,-188.792"/>
</g>
<!-- Node24&#45;&gt;Node16 -->
<g id="edge50" class="edge"><title>Node24&#45;&gt;Node16</title>
<path fill="none" stroke="midnightblue" d="M440.577,-224.401C432.876,-203.581 416.411,-149.426 437,-112 444.887,-97.6632 459.486,-87.2525 473.403,-80.0792"/>
<polygon fill="midnightblue" stroke="midnightblue" points="475.292,-83.0578 482.839,-75.6217 472.302,-76.7285 475.292,-83.0578"/>
</g>
<!-- Node25 -->
<g id="node26" class="node"><title>Node25</title>
<g id="a_node26"><a xlink:href="instance_8hpp.html" target="_top" xlink:title="Module for the handling of instances or also called objects or points.">
<polygon fill="white" stroke="black" points="344,-168.5 344,-187.5 416,-187.5 416,-168.5 344,-168.5"/>
<text text-anchor="middle" x="380" y="-175.5" font-family="Helvetica,sans-Serif" font-size="10.00">instance.hpp</text>
</a>
</g>
</g>
<!-- Node24&#45;&gt;Node25 -->
<g id="edge44" class="edge"><title>Node24&#45;&gt;Node25</title>
<path fill="none" stroke="midnightblue" d="M433.717,-224.324C424.164,-216.263 409.72,-204.077 398.216,-194.369"/>
<polygon fill="midnightblue" stroke="midnightblue" points="400.37,-191.608 390.47,-187.834 395.856,-196.958 400.37,-191.608"/>
</g>
<!-- Node25&#45;&gt;Node13 -->
<g id="edge48" class="edge"><title>Node25&#45;&gt;Node13</title>
<path fill="none" stroke="midnightblue" d="M378.666,-168.368C375.923,-150.617 369.594,-109.666 365.874,-85.5974"/>
<polygon fill="midnightblue" stroke="midnightblue" points="369.314,-84.9395 364.328,-75.5914 362.396,-86.0087 369.314,-84.9395"/>
</g>
<!-- Node25&#45;&gt;Node15 -->
<g id="edge46" class="edge"><title>Node25&#45;&gt;Node15</title>
<path fill="none" stroke="midnightblue" d="M364.718,-168.304C337.99,-152.543 282.076,-117.06 245,-76 232.209,-61.8342 221.393,-42.857 214.421,-29.0666"/>
<polygon fill="midnightblue" stroke="midnightblue" points="217.387,-27.1625 209.869,-19.6976 211.091,-30.2217 217.387,-27.1625"/>
</g>
<!-- Node25&#45;&gt;Node21 -->
<g id="edge45" class="edge"><title>Node25&#45;&gt;Node21</title>
<path fill="none" stroke="midnightblue" d="M416.087,-175.413C566.639,-168.44 1144.73,-138.068 1315,-76 1348.49,-63.7914 1383.09,-40.802 1403.82,-25.6947"/>
<polygon fill="midnightblue" stroke="midnightblue" points="1406.13,-28.3403 1412.07,-19.5662 1401.96,-22.722 1406.13,-28.3403"/>
</g>
<!-- Node25&#45;&gt;Node22 -->
<g id="edge47" class="edge"><title>Node25&#45;&gt;Node22</title>
<path fill="none" stroke="midnightblue" d="M416.13,-170.106C467.051,-160.39 559.974,-142.659 616.147,-131.94"/>
<polygon fill="midnightblue" stroke="midnightblue" points="617.022,-135.336 626.189,-130.024 615.71,-128.46 617.022,-135.336"/>
</g>
<!-- Node26&#45;&gt;Node1 -->
<g id="edge52" class="edge"><title>Node26&#45;&gt;Node1</title>
<path fill="none" stroke="midnightblue" d="M471.812,-394.801C377.875,-382.179 190,-349.608 190,-291 190,-291 190,-291 190,-177 190,-135.583 228.307,-100.453 253.788,-81.6658"/>
<polygon fill="midnightblue" stroke="midnightblue" points="256.046,-84.3555 262.183,-75.7187 252,-78.6436 256.046,-84.3555"/>
</g>
<!-- Node26&#45;&gt;Node7 -->
<g id="edge54" class="edge"><title>Node26&#45;&gt;Node7</title>
<path fill="none" stroke="midnightblue" d="M576.118,-400.083C742.975,-396.871 1257.14,-384.724 1326,-356 1365.79,-339.403 1398,-334.111 1398,-291 1398,-291 1398,-291 1398,-177 1398,-143.759 1388.33,-130.924 1361,-112 1279.99,-55.907 1237.53,-92.9594 1136.18,-75.9979"/>
<polygon fill="midnightblue" stroke="midnightblue" points="1136.65,-72.526 1126.19,-74.1829 1135.4,-79.4134 1136.65,-72.526"/>
</g>
<!-- Node26&#45;&gt;Node8 -->
<g id="edge57" class="edge"><title>Node26&#45;&gt;Node8</title>
<path fill="none" stroke="midnightblue" d="M576.216,-401.437C735.869,-402.265 1215.65,-400.856 1364,-356 1418.36,-339.565 1474,-347.786 1474,-291 1474,-291 1474,-291 1474,-233 1474,-166.764 1442.96,-147.438 1387,-112 1314.8,-66.2796 1279.42,-95.3767 1191.96,-75.8604"/>
<polygon fill="midnightblue" stroke="midnightblue" points="1192.72,-72.4451 1182.19,-73.5275 1191.1,-79.2538 1192.72,-72.4451"/>
</g>
<!-- Node26&#45;&gt;Node13 -->
<g id="edge83" class="edge"><title>Node26&#45;&gt;Node13</title>
<path fill="none" stroke="midnightblue" d="M471.83,-399.937C399.619,-395.382 278,-375.21 278,-291 278,-291 278,-291 278,-233 278,-172.261 323.643,-111.401 348.036,-83.2132"/>
<polygon fill="midnightblue" stroke="midnightblue" points="350.82,-85.3491 354.85,-75.5504 345.589,-80.6976 350.82,-85.3491"/>
</g>
<!-- Node26&#45;&gt;Node15 -->
<g id="edge55" class="edge"><title>Node26&#45;&gt;Node15</title>
<path fill="none" stroke="midnightblue" d="M471.71,-399.254C375.475,-395.396 174.361,-384.144 111,-356 71.2984,-338.365 38,-334.442 38,-291 38,-291 38,-291 38,-121 38,-55.554 128.339,-26.9409 176.526,-16.3337"/>
<polygon fill="midnightblue" stroke="midnightblue" points="177.321,-19.7434 186.399,-14.2822 175.897,-12.8898 177.321,-19.7434"/>
</g>
<!-- Node26&#45;&gt;Node16 -->
<g id="edge84" class="edge"><title>Node26&#45;&gt;Node16</title>
<path fill="none" stroke="midnightblue" d="M524.715,-392.185C527.411,-358.465 536.957,-234.412 540,-132 540.264,-123.115 542.704,-120.468 540,-112 536.659,-101.538 529.9,-91.4277 523.451,-83.4496"/>
<polygon fill="midnightblue" stroke="midnightblue" points="525.944,-80.9815 516.751,-75.7136 520.652,-85.5641 525.944,-80.9815"/>
</g>
<!-- Node26&#45;&gt;Node17 -->
<g id="edge59" class="edge"><title>Node26&#45;&gt;Node17</title>
<path fill="none" stroke="midnightblue" d="M576.257,-397.405C727.676,-386.294 1156,-349.679 1156,-291 1156,-291 1156,-291 1156,-233 1156,-202.902 1155.66,-191.059 1175,-168 1187.81,-152.733 1207.05,-142.174 1224.55,-135.142"/>
<polygon fill="midnightblue" stroke="midnightblue" points="1225.9,-138.374 1234.04,-131.591 1223.45,-131.818 1225.9,-138.374"/>
</g>
<!-- Node26&#45;&gt;Node19 -->
<g id="edge56" class="edge"><title>Node26&#45;&gt;Node19</title>
<path fill="none" stroke="midnightblue" d="M471.732,-399.137C353.554,-393.505 76,-371.689 76,-291 76,-291 76,-291 76,-121 76,-40.5249 168.173,-79.9568 245,-56 258.946,-51.6512 341.526,-32.0368 391.848,-20.1858"/>
<polygon fill="midnightblue" stroke="midnightblue" points="392.824,-23.5518 401.757,-17.8545 391.221,-16.7379 392.824,-23.5518"/>
</g>
<!-- Node26&#45;&gt;Node21 -->
<g id="edge53" class="edge"><title>Node26&#45;&gt;Node21</title>
<path fill="none" stroke="midnightblue" d="M576.233,-401.16C742.543,-401.234 1258.21,-397.984 1419,-356 1481.89,-339.579 1550,-355.995 1550,-291 1550,-291 1550,-291 1550,-121 1550,-70.6603 1492.28,-38.2018 1454.67,-22.393"/>
<polygon fill="midnightblue" stroke="midnightblue" points="1455.71,-19.0376 1445.12,-18.5529 1453.09,-25.5319 1455.71,-19.0376"/>
</g>
<!-- Node26&#45;&gt;Node24 -->
<g id="edge58" class="edge"><title>Node26&#45;&gt;Node24</title>
<path fill="none" stroke="midnightblue" d="M519.699,-392.075C506.997,-365.719 469.483,-287.878 452.511,-252.661"/>
<polygon fill="midnightblue" stroke="midnightblue" points="455.624,-251.057 448.129,-243.568 449.318,-254.096 455.624,-251.057"/>
</g>
<!-- Node27 -->
<g id="node28" class="node"><title>Node27</title>
<g id="a_node28"><a xlink:href="linear__algebra__level2_8hpp.html" target="_top" xlink:title="linear algebra level 2">
<polygon fill="white" stroke="black" points="1185,-336.5 1185,-355.5 1317,-355.5 1317,-336.5 1185,-336.5"/>
<text text-anchor="middle" x="1251" y="-343.5" font-family="Helvetica,sans-Serif" font-size="10.00">linear_algebra_level2.hpp</text>
</a>
</g>
</g>
<!-- Node26&#45;&gt;Node27 -->
<g id="edge60" class="edge"><title>Node26&#45;&gt;Node27</title>
<path fill="none" stroke="midnightblue" d="M576.393,-398.083C686.449,-391.793 949.702,-375.903 1170,-356 1171.5,-355.865 1173.01,-355.725 1174.53,-355.582"/>
<polygon fill="midnightblue" stroke="midnightblue" points="1175.1,-359.043 1184.72,-354.589 1174.42,-352.076 1175.1,-359.043"/>
</g>
<!-- Node30 -->
<g id="node31" class="node"><title>Node30</title>
<g id="a_node31"><a xlink:href="matrix__operation_8hpp.html" target="_top" xlink:title="matrix operation">
<polygon fill="white" stroke="black" points="550.5,-336.5 550.5,-355.5 659.5,-355.5 659.5,-336.5 550.5,-336.5"/>
<text text-anchor="middle" x="605" y="-343.5" font-family="Helvetica,sans-Serif" font-size="10.00">matrix_operation.hpp</text>
</a>
</g>
</g>
<!-- Node26&#45;&gt;Node30 -->
<g id="edge65" class="edge"><title>Node26&#45;&gt;Node30</title>
<path fill="none" stroke="midnightblue" d="M537.014,-392.324C549.532,-383.979 568.682,-371.212 583.471,-361.352"/>
<polygon fill="midnightblue" stroke="midnightblue" points="585.639,-364.114 592.018,-355.655 581.756,-358.289 585.639,-364.114"/>
</g>
<!-- Node28 -->
<g id="node29" class="node"><title>Node28</title>
<g id="a_node29"><a xlink:href="interface__level2_8hpp.html" target="_top" xlink:title="Interface_level 2.">
<polygon fill="white" stroke="black" points="1204,-224.5 1204,-243.5 1310,-243.5 1310,-224.5 1204,-224.5"/>
<text text-anchor="middle" x="1257" y="-231.5" font-family="Helvetica,sans-Serif" font-size="10.00">interface_level2.hpp</text>
</a>
</g>
</g>
<!-- Node27&#45;&gt;Node28 -->
<g id="edge61" class="edge"><title>Node27&#45;&gt;Node28</title>
<path fill="none" stroke="midnightblue" d="M1251.47,-336.368C1252.44,-318.617 1254.67,-277.666 1255.99,-253.597"/>
<polygon fill="midnightblue" stroke="midnightblue" points="1259.48,-253.767 1256.53,-243.591 1252.49,-253.386 1259.48,-253.767"/>
</g>
<!-- Node28&#45;&gt;Node2 -->
<g id="edge64" class="edge"><title>Node28&#45;&gt;Node2</title>
<path fill="none" stroke="midnightblue" d="M1203.9,-229.291C1125.68,-223.394 974.732,-210.368 837.25,-188.041"/>
<polygon fill="midnightblue" stroke="midnightblue" points="837.811,-184.586 827.376,-186.417 836.676,-191.494 837.811,-184.586"/>
</g>
<!-- Node28&#45;&gt;Node7 -->
<g id="edge62" class="edge"><title>Node28&#45;&gt;Node7</title>
<path fill="none" stroke="midnightblue" d="M1289.07,-224.417C1307.38,-217.705 1328.85,-206.352 1340,-188 1357.54,-159.129 1362.73,-137.861 1341,-112 1312.8,-78.4386 1195.01,-84.3731 1136.13,-75.8425"/>
<polygon fill="midnightblue" stroke="midnightblue" points="1136.65,-72.3792 1126.2,-74.1378 1135.46,-79.2784 1136.65,-72.3792"/>
</g>
<!-- Node29 -->
<g id="node30" class="node"><title>Node29</title>
<g id="a_node30"><a xlink:href="common__interfacelapack_8hpp.html" target="_top" xlink:title="common interfacelapack">
<polygon fill="white" stroke="black" points="1184.5,-168.5 1184.5,-187.5 1331.5,-187.5 1331.5,-168.5 1184.5,-168.5"/>
<text text-anchor="middle" x="1258" y="-175.5" font-family="Helvetica,sans-Serif" font-size="10.00">common_interfacelapack.hpp</text>
</a>
</g>
</g>
<!-- Node28&#45;&gt;Node29 -->
<g id="edge63" class="edge"><title>Node28&#45;&gt;Node29</title>
<path fill="none" stroke="midnightblue" d="M1257.17,-224.083C1257.3,-217.006 1257.48,-206.861 1257.65,-197.986"/>
<polygon fill="midnightblue" stroke="midnightblue" points="1261.15,-197.814 1257.84,-187.751 1254.15,-197.685 1261.15,-197.814"/>
</g>
<!-- Node31 -->
<g id="node32" class="node"><title>Node31</title>
<g id="a_node32"><a xlink:href="matop__withoutopenblas_8hpp.html" target="_top" xlink:title="Matrix operations.">
<polygon fill="white" stroke="black" points="830,-280.5 830,-299.5 970,-299.5 970,-280.5 830,-280.5"/>
<text text-anchor="middle" x="900" y="-287.5" font-family="Helvetica,sans-Serif" font-size="10.00">matop_withoutopenblas.hpp</text>
</a>
</g>
</g>
<!-- Node30&#45;&gt;Node31 -->
<g id="edge66" class="edge"><title>Node30&#45;&gt;Node31</title>
<path fill="none" stroke="midnightblue" d="M651.744,-336.444C703.745,-326.925 787.751,-311.547 843.424,-301.356"/>
<polygon fill="midnightblue" stroke="midnightblue" points="844.269,-304.76 853.475,-299.516 843.008,-297.874 844.269,-304.76"/>
</g>
<!-- Node31&#45;&gt;Node1 -->
<g id="edge67" class="edge"><title>Node31&#45;&gt;Node1</title>
<path fill="none" stroke="midnightblue" d="M829.835,-286.248C695.894,-280.521 413.596,-265.998 375,-244 314.862,-209.725 288.705,-123.709 279.804,-85.6335"/>
<polygon fill="midnightblue" stroke="midnightblue" points="283.22,-84.8716 277.656,-75.8553 276.383,-86.3733 283.22,-84.8716"/>
</g>
<!-- Node31&#45;&gt;Node18 -->
<g id="edge82" class="edge"><title>Node31&#45;&gt;Node18</title>
<path fill="none" stroke="midnightblue" d="M970.25,-282.622C1009.7,-276.753 1058.74,-265.51 1098,-244 1140.17,-220.898 1132.72,-190.893 1175,-168 1241.39,-132.058 1293.61,-190.767 1341,-132 1359.37,-109.221 1323.76,-90.3182 1292.48,-78.8758"/>
<polygon fill="midnightblue" stroke="midnightblue" points="1293.58,-75.5505 1282.98,-75.5682 1291.28,-82.1613 1293.58,-75.5505"/>
</g>
<!-- Node31&#45;&gt;Node21 -->
<g id="edge70" class="edge"><title>Node31&#45;&gt;Node21</title>
<path fill="none" stroke="midnightblue" d="M970.332,-288.228C1073.88,-285.966 1261.32,-277.248 1319,-244 1397.54,-198.725 1416.97,-76.9285 1421.61,-29.8942"/>
<polygon fill="midnightblue" stroke="midnightblue" points="1425.12,-29.9035 1422.49,-19.6392 1418.14,-29.3007 1425.12,-29.9035"/>
</g>
<!-- Node32 -->
<g id="node33" class="node"><title>Node32</title>
<g id="a_node33"><a xlink:title=" ">
<polygon fill="white" stroke="#bfbfbf" points="850,-224.5 850,-243.5 888,-243.5 888,-224.5 850,-224.5"/>
<text text-anchor="middle" x="869" y="-231.5" font-family="Helvetica,sans-Serif" font-size="10.00">tuple</text>
</a>
</g>
</g>
<!-- Node31&#45;&gt;Node32 -->
<g id="edge68" class="edge"><title>Node31&#45;&gt;Node32</title>
<path fill="none" stroke="midnightblue" d="M894.881,-280.083C890.592,-272.613 884.342,-261.724 879.058,-252.52"/>
<polygon fill="midnightblue" stroke="midnightblue" points="882.038,-250.681 874.024,-243.751 875.967,-254.166 882.038,-250.681"/>
</g>
<!-- Node33 -->
<g id="node34" class="node"><title>Node33</title>
<g id="a_node34"><a xlink:title=" ">
<polygon fill="white" stroke="#bfbfbf" points="906,-224.5 906,-243.5 954,-243.5 954,-224.5 906,-224.5"/>
<text text-anchor="middle" x="930" y="-231.5" font-family="Helvetica,sans-Serif" font-size="10.00">ctype.h</text>
</a>
</g>
</g>
<!-- Node31&#45;&gt;Node33 -->
<g id="edge69" class="edge"><title>Node31&#45;&gt;Node33</title>
<path fill="none" stroke="midnightblue" d="M904.954,-280.083C909.104,-272.613 915.153,-261.724 920.267,-252.52"/>
<polygon fill="midnightblue" stroke="midnightblue" points="923.341,-254.192 925.138,-243.751 917.222,-250.793 923.341,-254.192"/>
</g>
<!-- Node34 -->
<g id="node35" class="node"><title>Node34</title>
<g id="a_node35"><a xlink:href="matrix__inverse__lup_8hpp.html" target="_top" xlink:title="Reverse of a matrix by the LUP method.">
<polygon fill="white" stroke="black" points="714,-224.5 714,-243.5 832,-243.5 832,-224.5 714,-224.5"/>
<text text-anchor="middle" x="773" y="-231.5" font-family="Helvetica,sans-Serif" font-size="10.00">matrix_inverse_lup.hpp</text>
</a>
</g>
</g>
<!-- Node31&#45;&gt;Node34 -->
<g id="edge71" class="edge"><title>Node31&#45;&gt;Node34</title>
<path fill="none" stroke="midnightblue" d="M879.876,-280.444C858.976,-271.557 826.065,-257.563 802.284,-247.451"/>
<polygon fill="midnightblue" stroke="midnightblue" points="803.602,-244.208 793.029,-243.516 800.862,-250.65 803.602,-244.208"/>
</g>
<!-- Node37 -->
<g id="node38" class="node"><title>Node37</title>
<g id="a_node38"><a xlink:href="jacobi__eigenvalue_8hpp.html" target="_top" xlink:title="Function jacobi_eigenvalue are part of.">
<polygon fill="white" stroke="black" points="972.5,-224.5 972.5,-243.5 1089.5,-243.5 1089.5,-224.5 972.5,-224.5"/>
<text text-anchor="middle" x="1031" y="-231.5" font-family="Helvetica,sans-Serif" font-size="10.00">jacobi_eigenvalue.hpp</text>
</a>
</g>
</g>
<!-- Node31&#45;&gt;Node37 -->
<g id="edge81" class="edge"><title>Node31&#45;&gt;Node37</title>
<path fill="none" stroke="midnightblue" d="M920.757,-280.444C942.316,-271.557 976.263,-257.563 1000.79,-247.451"/>
<polygon fill="midnightblue" stroke="midnightblue" points="1002.43,-250.563 1010.34,-243.516 999.761,-244.092 1002.43,-250.563"/>
</g>
<!-- Node34&#45;&gt;Node2 -->
<g id="edge73" class="edge"><title>Node34&#45;&gt;Node2</title>
<path fill="none" stroke="midnightblue" d="M776.798,-224.083C779.913,-216.77 784.423,-206.181 788.289,-197.103"/>
<polygon fill="midnightblue" stroke="midnightblue" points="791.574,-198.323 792.273,-187.751 785.134,-195.58 791.574,-198.323"/>
</g>
<!-- Node35 -->
<g id="node36" class="node"><title>Node35</title>
<g id="a_node36"><a xlink:title=" ">
<polygon fill="white" stroke="#bfbfbf" points="845,-168.5 845,-187.5 891,-187.5 891,-168.5 845,-168.5"/>
<text text-anchor="middle" x="868" y="-175.5" font-family="Helvetica,sans-Serif" font-size="10.00">stdio.h</text>
</a>
</g>
</g>
<!-- Node34&#45;&gt;Node35 -->
<g id="edge72" class="edge"><title>Node34&#45;&gt;Node35</title>
<path fill="none" stroke="midnightblue" d="M788.263,-224.324C803.221,-215.822 826.255,-202.729 843.727,-192.797"/>
<polygon fill="midnightblue" stroke="midnightblue" points="845.81,-195.639 852.774,-187.655 842.351,-189.553 845.81,-195.639"/>
</g>
<!-- Node36 -->
<g id="node37" class="node"><title>Node36</title>
<g id="a_node37"><a xlink:href="vector__utils_8hpp.html" target="_top" xlink:title="Operations for vector manipulation.">
<polygon fill="white" stroke="black" points="446.5,-112.5 446.5,-131.5 531.5,-131.5 531.5,-112.5 446.5,-112.5"/>
<text text-anchor="middle" x="489" y="-119.5" font-family="Helvetica,sans-Serif" font-size="10.00">vector_utils.hpp</text>
</a>
</g>
</g>
<!-- Node34&#45;&gt;Node36 -->
<g id="edge74" class="edge"><title>Node34&#45;&gt;Node36</title>
<path fill="none" stroke="midnightblue" d="M750.715,-224.368C700.529,-204.93 578.523,-157.674 520.57,-135.228"/>
<polygon fill="midnightblue" stroke="midnightblue" points="521.771,-131.94 511.181,-131.591 519.242,-138.467 521.771,-131.94"/>
</g>
<!-- Node36&#45;&gt;Node1 -->
<g id="edge76" class="edge"><title>Node36&#45;&gt;Node1</title>
<path fill="none" stroke="midnightblue" d="M455.25,-112.444C414.869,-102.206 347.759,-85.1924 308.116,-75.1421"/>
<polygon fill="midnightblue" stroke="midnightblue" points="308.738,-71.6892 298.185,-72.6243 307.018,-78.4746 308.738,-71.6892"/>
</g>
<!-- Node36&#45;&gt;Node3 -->
<g id="edge75" class="edge"><title>Node36&#45;&gt;Node3</title>
<path fill="none" stroke="midnightblue" d="M530.114,-112.429C569.989,-104.044 632.458,-90.7182 695.6,-76.28"/>
<polygon fill="midnightblue" stroke="midnightblue" points="696.772,-79.6019 705.736,-73.9537 695.206,-72.7793 696.772,-79.6019"/>
</g>
<!-- Node36&#45;&gt;Node10 -->
<g id="edge77" class="edge"><title>Node36&#45;&gt;Node10</title>
<path fill="none" stroke="midnightblue" d="M506.673,-112.324C524.394,-103.625 551.903,-90.1202 572.288,-80.113"/>
<polygon fill="midnightblue" stroke="midnightblue" points="573.936,-83.2031 581.37,-75.6545 570.851,-76.9195 573.936,-83.2031"/>
</g>
<!-- Node36&#45;&gt;Node13 -->
<g id="edge79" class="edge"><title>Node36&#45;&gt;Node13</title>
<path fill="none" stroke="midnightblue" d="M469.035,-112.444C448.391,-103.596 415.937,-89.6875 392.368,-79.5865"/>
<polygon fill="midnightblue" stroke="midnightblue" points="393.442,-76.2387 382.872,-75.5164 390.684,-82.6727 393.442,-76.2387"/>
</g>
<!-- Node36&#45;&gt;Node16 -->
<g id="edge80" class="edge"><title>Node36&#45;&gt;Node16</title>
<path fill="none" stroke="midnightblue" d="M492.137,-112.083C494.683,-104.849 498.356,-94.4087 501.527,-85.3968"/>
<polygon fill="midnightblue" stroke="midnightblue" points="504.903,-86.3459 504.921,-75.7511 498.3,-84.0225 504.903,-86.3459"/>
</g>
<!-- Node36&#45;&gt;Node19 -->
<g id="edge78" class="edge"><title>Node36&#45;&gt;Node19</title>
<path fill="none" stroke="midnightblue" d="M478.414,-112.476C468.796,-104.164 454.936,-90.661 447,-76 439.22,-61.6277 435.16,-43.4316 433.08,-29.9495"/>
<polygon fill="midnightblue" stroke="midnightblue" points="436.535,-29.3787 431.76,-19.9207 429.595,-30.2918 436.535,-29.3787"/>
</g>
</g>
</svg>
